<?xml version="1.0" encoding="utf-8" standalone="no"?>
<!DOCTYPE svg PUBLIC "-//W3C//DTD SVG 1.1//EN"
  "http://www.w3.org/Graphics/SVG/1.1/DTD/svg11.dtd">
<!-- Created with matplotlib (http://matplotlib.org/) -->
<svg height="576pt" version="1.1" viewBox="0 0 576 576" width="576pt" xmlns="http://www.w3.org/2000/svg" xmlns:xlink="http://www.w3.org/1999/xlink">
 <defs>
  <style type="text/css">
*{stroke-linecap:butt;stroke-linejoin:round;}
  </style>
 </defs>
 <g id="figure_1">
  <g id="patch_1">
   <path d="M 0 576 
L 576 576 
L 576 0 
L 0 0 
z
" style="fill:#ffffff;"/>
  </g>
  <g id="axes_1">
   <g id="patch_2">
    <path d="M 72 512.64 
L 518.4 512.64 
L 518.4 69.12 
L 72 69.12 
z
" style="fill:#ffffff;"/>
   </g>
   <g id="PathCollection_1">
    <path clip-path="url(#p972f9b0558)" d="M 369.12 423.332394 
L 373.6 423.692657 
L 378.08 424.052908 
L 382.56 424.413156 
L 387.04 424.773426 
L 391.52 425.133677 
L 396 425.49397 
L 400.48 425.854228 
L 404.96 426.214507 
L 409.44 426.574772 
L 413.92 426.916976 
L 418.4 426.242189 
L 419.188877 423.04 
L 418.4 420.596295 
L 417.742639 418.56 
L 416.296357 414.08 
L 414.850105 409.6 
L 413.92 406.718785 
L 413.403884 405.12 
L 411.957652 400.64 
L 410.511366 396.16 
L 409.44 392.841295 
L 409.065104 391.68 
L 407.618872 387.2 
L 406.172643 382.72 
L 404.96 378.963723 
L 404.726358 378.24 
L 403.280127 373.76 
L 401.833888 369.28 
L 400.48 365.086155 
L 400.387621 364.8 
L 398.941384 360.32 
L 397.495124 355.84 
L 396.048891 351.36 
L 396 351.208554 
L 394.602609 346.88 
L 393.156384 342.4 
L 391.710117 337.92 
L 391.52 337.33108 
L 390.263863 333.44 
L 388.817618 328.96 
L 387.371371 324.48 
L 387.04 323.827921 
L 382.918678 320 
L 382.56 319.681612 
L 378.08 315.704818 
L 377.871797 315.52 
L 373.6 311.728073 
L 372.82483 311.04 
L 369.12 307.751378 
L 367.777869 306.56 
L 364.64 303.774679 
L 362.730803 302.08 
L 360.16 299.797985 
L 357.683861 297.6 
L 355.68 295.821252 
L 352.636904 293.12 
L 351.2 291.844523 
L 347.589911 288.64 
L 346.72 287.867826 
L 342.542898 284.16 
L 342.24 283.891125 
L 337.76 279.914404 
L 337.495932 279.68 
L 333.28 275.937677 
L 332.448954 275.2 
L 328.8 271.960942 
L 327.40203 270.72 
L 324.32 267.984262 
L 322.354968 266.24 
L 319.84 264.007534 
L 317.308053 261.76 
L 315.36 260.030782 
L 312.261092 257.28 
L 310.88 256.054065 
L 307.214125 252.8 
L 306.4 252.077328 
L 302.167053 248.32 
L 301.92 248.100701 
L 297.44 244.123964 
L 297.157362 243.84 
L 293.071273 239.36 
L 292.96 239.230186 
L 289.231106 234.88 
L 288.48 234.003746 
L 285.390944 230.4 
L 284 228.777301 
L 281.550833 225.92 
L 279.52 223.550746 
L 277.71069 221.44 
L 275.04 218.324298 
L 273.870575 216.96 
L 270.56 213.097781 
L 270.03046 212.48 
L 268.975629 208 
L 269.41833 203.52 
L 269.860905 199.04 
L 270.303568 194.56 
L 270.56 191.964521 
L 270.74619 190.08 
L 271.188832 185.6 
L 271.631466 181.12 
L 272.074108 176.64 
L 275.04 173.99147 
L 279.52 173.013161 
L 284 172.635406 
L 288.48 172.257674 
L 289.638431 172.16 
L 292.96 171.879943 
L 297.44 171.502222 
L 301.92 171.124472 
L 306.4 170.74676 
L 310.88 170.369041 
L 315.36 169.991282 
L 319.84 169.613533 
L 324.32 169.235836 
L 328.8 168.858102 
L 333.28 168.62086 
L 337.76 168.610238 
L 342.24 168.599586 
L 346.72 168.588981 
L 351.2 168.578364 
L 355.68 168.567701 
L 360.16 168.557072 
L 364.64 168.546454 
L 369.12 168.535843 
L 373.6 168.525186 
L 378.08 168.514554 
L 382.56 168.503943 
L 387.04 168.49333 
L 391.52 168.482669 
L 396 168.472077 
L 400.48 168.461425 
L 404.96 168.450797 
L 409.44 168.440156 
L 413.92 168.429528 
L 418.4 168.418913 
L 422.88 168.408322 
L 427.36 168.397639 
L 431.84 168.387022 
L 436.32 168.44412 
L 440.8 168.543377 
L 445.28 168.677145 
L 449.76 168.017222 
L 450.3687 167.68 
L 454.24 166.257796 
L 458.72 164.506572 
L 461.499044 163.2 
L 463.2 162.520114 
L 467.68 160.729394 
L 472.16 158.944886 
L 472.70709 158.72 
L 476.64 157.148005 
L 481.12 155.357368 
L 483.915574 154.24 
L 485.6 153.566734 
L 490.08 151.775989 
L 494.56 149.985305 
L 495.123678 149.76 
L 499.04 148.194626 
L 503.52 146.403932 
L 506.331998 145.28 
L 508 144.613301 
L 512.48 142.822569 
L 516.96 141.031903 
L 516.96 140.8 
L 516.96 136.32 
L 516.96 131.84 
L 516.96 127.36 
L 516.96 122.88 
L 516.96 118.4 
L 516.96 113.92 
L 516.96 109.44 
L 516.96 104.96 
L 516.96 100.48 
L 516.96 96 
L 516.96 91.52 
L 516.96 87.04 
L 516.96 82.56 
L 516.96 78.08 
L 516.96 73.6 
L 516.96 69.12 
L 512.48 69.12 
L 508 69.12 
L 503.52 69.12 
L 499.04 69.12 
L 494.56 69.12 
L 490.08 69.12 
L 485.6 69.12 
L 481.12 69.12 
L 476.64 69.12 
L 472.16 69.12 
L 467.68 69.12 
L 463.2 69.12 
L 458.72 69.12 
L 454.24 69.12 
L 449.76 69.12 
L 445.28 69.12 
L 440.8 69.12 
L 436.32 69.12 
L 431.84 69.12 
L 427.36 69.12 
L 422.88 69.12 
L 418.4 69.12 
L 413.92 69.12 
L 409.44 69.12 
L 404.96 69.12 
L 400.48 69.12 
L 396 69.12 
L 391.52 69.12 
L 387.04 69.12 
L 382.56 69.12 
L 378.08 69.12 
L 373.6 69.12 
L 369.12 69.12 
L 364.64 69.12 
L 360.16 69.12 
L 355.68 69.12 
L 351.2 69.12 
L 346.72 69.12 
L 342.24 69.12 
L 337.76 69.12 
L 333.28 69.12 
L 328.8 69.12 
L 324.32 69.12 
L 319.84 69.12 
L 315.36 69.12 
L 310.88 69.12 
L 306.4 69.12 
L 301.92 69.12 
L 297.44 69.12 
L 292.96 69.12 
L 288.48 69.12 
L 284 69.12 
L 279.52 69.12 
L 275.04 69.12 
L 270.56 69.12 
L 266.08 69.12 
L 261.6 69.12 
L 257.12 69.12 
L 252.64 69.12 
L 248.16 69.12 
L 243.68 69.12 
L 239.2 69.12 
L 234.72 69.12 
L 230.24 69.12 
L 225.76 69.12 
L 221.28 69.12 
L 216.8 69.12 
L 212.32 69.12 
L 207.84 69.12 
L 203.36 69.12 
L 198.88 69.12 
L 194.4 69.12 
L 189.92 69.12 
L 185.44 69.12 
L 180.96 69.12 
L 176.48 69.12 
L 172 69.12 
L 167.52 69.12 
L 163.04 69.12 
L 158.56 69.12 
L 154.08 69.12 
L 149.6 69.12 
L 145.12 69.12 
L 140.64 69.12 
L 136.16 69.12 
L 131.68 69.12 
L 127.2 69.12 
L 122.72 69.12 
L 118.24 69.12 
L 113.76 69.12 
L 109.28 69.12 
L 104.8 69.12 
L 100.32 69.12 
L 95.84 69.12 
L 91.36 69.12 
L 86.88 69.12 
L 82.4 69.12 
L 77.92 69.12 
L 73.44 69.12 
L 73.44 73.6 
L 73.44 78.08 
L 73.44 82.56 
L 73.44 87.04 
L 73.44 91.52 
L 73.44 96 
L 73.44 100.48 
L 73.44 104.96 
L 73.44 109.44 
L 73.44 113.92 
L 73.44 118.4 
L 73.44 122.88 
L 73.44 127.36 
L 73.44 131.84 
L 73.44 136.32 
L 73.44 140.8 
L 73.44 145.28 
L 73.44 149.76 
L 73.44 154.24 
L 73.44 158.72 
L 73.44 163.2 
L 73.44 167.68 
L 73.44 172.16 
L 73.44 176.64 
L 73.44 181.12 
L 73.44 185.6 
L 73.44 190.08 
L 73.44 194.56 
L 73.44 199.04 
L 73.44 203.52 
L 73.44 208 
L 73.44 212.48 
L 73.44 216.96 
L 73.44 221.44 
L 73.44 225.92 
L 73.44 230.4 
L 73.44 234.88 
L 73.44 239.36 
L 73.44 242.821875 
L 75.47265 243.84 
L 77.92 245.065841 
L 82.4 247.309795 
L 84.416848 248.32 
L 86.88 249.553755 
L 91.36 251.806567 
L 93.131901 252.8 
L 95.84 254.812079 
L 99.161642 257.28 
L 100.32 258.140639 
L 104.8 261.46921 
L 105.191379 261.76 
L 109.28 264.797824 
L 111.221045 266.24 
L 113.76 268.126401 
L 117.250794 270.72 
L 118.24 271.454969 
L 122.72 274.783549 
L 123.280508 275.2 
L 127.2 278.112129 
L 129.310219 279.68 
L 131.68 281.440718 
L 135.339957 284.16 
L 136.16 284.769281 
L 140.64 288.097868 
L 141.369667 288.64 
L 145.12 291.426441 
L 147.399387 293.12 
L 149.6 294.755035 
L 153.429072 297.6 
L 154.08 298.083631 
L 158.56 301.412208 
L 159.458802 302.08 
L 163.04 304.740768 
L 165.48853 306.56 
L 167.52 308.069355 
L 171.518238 311.04 
L 172 311.397946 
L 176.48 314.726525 
L 177.547957 315.52 
L 180.96 318.055092 
L 183.57769 320 
L 185.44 321.383677 
L 189.607366 324.48 
L 189.92 324.712282 
L 194.4 328.040842 
L 195.637112 328.96 
L 198.88 331.369417 
L 201.66685 333.44 
L 203.36 334.697979 
L 207.84 337.771232 
L 208.082449 337.92 
L 212.32 340.520186 
L 215.383561 342.4 
L 216.8 343.269137 
L 221.28 346.018119 
L 222.684623 346.88 
L 225.76 348.767069 
L 229.985689 351.36 
L 230.24 351.516047 
L 234.72 354.26501 
L 237.286762 355.84 
L 239.2 357.013971 
L 243.68 359.940362 
L 244.225935 360.32 
L 248.16 363.055724 
L 250.668321 364.8 
L 252.64 366.171082 
L 257.110727 369.28 
L 257.12 369.286449 
L 261.6 372.401835 
L 263.553118 373.76 
L 266.08 375.517172 
L 269.995503 378.24 
L 270.56 378.632547 
L 275.04 381.667851 
L 276.781604 382.72 
L 279.52 384.491582 
L 284 387.060812 
L 284.258971 387.2 
L 288.48 389.468656 
L 292.594503 391.68 
L 292.96 391.876437 
L 297.44 394.284295 
L 300.929915 396.16 
L 301.92 396.692132 
L 306.4 399.099956 
L 309.265401 400.64 
L 310.88 401.50779 
L 315.36 403.915645 
L 317.600832 405.12 
L 319.84 406.323468 
L 324.32 408.731319 
L 325.936279 409.6 
L 328.8 411.139117 
L 333.28 413.54695 
L 334.271782 414.08 
L 337.76 415.954793 
L 342.24 418.362658 
L 342.60717 418.56 
L 346.72 420.770491 
L 351.2 421.891323 
L 355.68 422.251586 
L 360.16 422.611855 
L 364.64 422.972126 
L 365.484023 423.04 
z
" style="fill:#8db0fe;"/>
   </g>
   <g id="PathCollection_2">
    <path clip-path="url(#p972f9b0558)" d="M 77.92 512.64 
L 82.4 512.64 
L 86.88 512.64 
L 91.36 512.64 
L 95.84 512.64 
L 100.32 512.64 
L 104.8 512.64 
L 109.28 512.64 
L 113.76 512.64 
L 118.24 512.64 
L 122.72 512.64 
L 127.2 512.64 
L 131.68 512.64 
L 136.16 512.64 
L 140.64 512.64 
L 145.12 512.64 
L 149.6 512.64 
L 154.08 512.64 
L 158.56 512.64 
L 163.04 512.64 
L 167.52 512.64 
L 172 512.64 
L 176.48 512.64 
L 180.96 512.64 
L 185.44 512.64 
L 189.92 512.64 
L 194.4 512.64 
L 198.88 512.64 
L 203.36 512.64 
L 207.84 512.64 
L 212.32 512.64 
L 216.8 512.64 
L 221.28 512.64 
L 225.76 512.64 
L 230.24 512.64 
L 234.72 512.64 
L 239.2 512.64 
L 243.68 512.64 
L 248.16 512.64 
L 252.64 512.64 
L 257.12 512.64 
L 261.6 512.64 
L 266.08 512.64 
L 270.56 512.64 
L 275.04 512.64 
L 279.52 512.64 
L 284 512.64 
L 288.48 512.64 
L 292.96 512.64 
L 297.44 512.64 
L 301.92 512.64 
L 306.4 512.64 
L 310.88 512.64 
L 315.36 512.64 
L 319.84 512.64 
L 324.32 512.64 
L 328.8 512.64 
L 333.28 512.64 
L 337.76 512.64 
L 342.24 512.64 
L 346.72 512.64 
L 351.2 512.64 
L 355.68 512.64 
L 360.16 512.64 
L 364.64 512.64 
L 369.12 512.64 
L 373.6 512.64 
L 378.08 512.64 
L 382.56 512.64 
L 387.04 512.64 
L 391.52 512.64 
L 396 512.64 
L 400.48 512.64 
L 404.96 512.64 
L 409.44 512.64 
L 413.92 512.64 
L 418.4 512.64 
L 422.88 512.64 
L 427.36 512.64 
L 431.84 512.64 
L 436.32 512.64 
L 440.8 512.64 
L 445.28 512.64 
L 449.76 512.64 
L 454.24 512.64 
L 458.72 512.64 
L 463.2 512.64 
L 467.68 512.64 
L 472.16 512.64 
L 476.64 512.64 
L 481.12 512.64 
L 485.6 512.64 
L 490.08 512.64 
L 494.56 512.64 
L 499.04 512.64 
L 503.52 512.64 
L 508 512.64 
L 512.48 512.64 
L 516.96 512.64 
L 516.96 508.16 
L 516.96 503.68 
L 516.96 499.2 
L 516.96 494.72 
L 516.96 490.24 
L 516.96 485.76 
L 516.96 481.28 
L 516.96 476.8 
L 516.96 472.32 
L 516.96 467.84 
L 516.96 463.36 
L 516.96 458.88 
L 516.96 454.4 
L 516.96 449.92 
L 516.96 445.44 
L 516.96 440.96 
L 516.96 436.48 
L 516.96 432 
L 516.96 427.52 
L 516.96 423.04 
L 516.96 418.56 
L 516.96 414.08 
L 516.96 409.6 
L 516.96 405.12 
L 516.96 400.64 
L 516.96 396.16 
L 516.96 391.68 
L 516.96 387.2 
L 516.96 382.72 
L 516.96 378.24 
L 516.96 373.76 
L 516.96 369.28 
L 516.96 364.8 
L 516.96 360.32 
L 516.96 355.84 
L 516.96 351.36 
L 516.96 346.88 
L 516.96 342.4 
L 516.96 337.92 
L 516.96 333.44 
L 516.96 328.96 
L 516.96 324.48 
L 516.96 320 
L 516.96 315.52 
L 516.96 311.04 
L 516.96 306.56 
L 516.96 302.08 
L 516.96 297.6 
L 516.96 293.12 
L 516.96 288.64 
L 516.96 284.16 
L 516.96 279.68 
L 516.96 275.2 
L 516.96 270.72 
L 516.96 266.24 
L 516.96 261.76 
L 516.96 257.28 
L 516.96 252.8 
L 516.96 248.32 
L 516.96 243.84 
L 516.96 239.36 
L 516.96 234.88 
L 516.96 230.4 
L 516.96 225.92 
L 516.96 221.44 
L 516.96 216.96 
L 516.96 212.48 
L 516.96 208 
L 516.96 203.52 
L 516.96 199.04 
L 516.96 194.56 
L 516.96 190.08 
L 516.96 185.6 
L 516.96 181.12 
L 516.96 176.64 
L 516.96 172.16 
L 516.96 167.68 
L 516.96 163.2 
L 516.96 158.72 
L 516.96 154.24 
L 516.96 149.76 
L 516.96 145.28 
L 516.96 141.031903 
L 512.48 142.822569 
L 508 144.613301 
L 506.331998 145.28 
L 503.52 146.403932 
L 499.04 148.194626 
L 495.123678 149.76 
L 494.56 149.985305 
L 490.08 151.775989 
L 485.6 153.566734 
L 483.915574 154.24 
L 481.12 155.357368 
L 476.64 157.148005 
L 472.70709 158.72 
L 472.16 158.944886 
L 467.68 160.729394 
L 463.2 162.520114 
L 461.499044 163.2 
L 458.72 164.506572 
L 454.24 166.257796 
L 450.3687 167.68 
L 449.76 168.017222 
L 445.28 168.677145 
L 440.8 168.543377 
L 436.32 168.44412 
L 431.84 168.387022 
L 427.36 168.397639 
L 422.88 168.408322 
L 418.4 168.418913 
L 413.92 168.429528 
L 409.44 168.440156 
L 404.96 168.450797 
L 400.48 168.461425 
L 396 168.472077 
L 391.52 168.482669 
L 387.04 168.49333 
L 382.56 168.503943 
L 378.08 168.514554 
L 373.6 168.525186 
L 369.12 168.535843 
L 364.64 168.546454 
L 360.16 168.557072 
L 355.68 168.567701 
L 351.2 168.578364 
L 346.72 168.588981 
L 342.24 168.599586 
L 337.76 168.610238 
L 333.28 168.62086 
L 328.8 168.858102 
L 324.32 169.235836 
L 319.84 169.613533 
L 315.36 169.991282 
L 310.88 170.369041 
L 306.4 170.74676 
L 301.92 171.124472 
L 297.44 171.502222 
L 292.96 171.879943 
L 289.638431 172.16 
L 288.48 172.257674 
L 284 172.635406 
L 279.52 173.013161 
L 275.04 173.99147 
L 272.074108 176.64 
L 271.631466 181.12 
L 271.188832 185.6 
L 270.74619 190.08 
L 270.56 191.964521 
L 270.303568 194.56 
L 269.860905 199.04 
L 269.41833 203.52 
L 268.975629 208 
L 270.03046 212.48 
L 270.56 213.097781 
L 273.870575 216.96 
L 275.04 218.324298 
L 277.71069 221.44 
L 279.52 223.550746 
L 281.550833 225.92 
L 284 228.777301 
L 285.390944 230.4 
L 288.48 234.003746 
L 289.231106 234.88 
L 292.96 239.230186 
L 293.071273 239.36 
L 297.157362 243.84 
L 297.44 244.123964 
L 301.92 248.100701 
L 302.167053 248.32 
L 306.4 252.077328 
L 307.214125 252.8 
L 310.88 256.054065 
L 312.261092 257.28 
L 315.36 260.030782 
L 317.308053 261.76 
L 319.84 264.007534 
L 322.354968 266.24 
L 324.32 267.984262 
L 327.40203 270.72 
L 328.8 271.960942 
L 332.448954 275.2 
L 333.28 275.937677 
L 337.495932 279.68 
L 337.76 279.914404 
L 342.24 283.891125 
L 342.542898 284.16 
L 346.72 287.867826 
L 347.589911 288.64 
L 351.2 291.844523 
L 352.636904 293.12 
L 355.68 295.821252 
L 357.683861 297.6 
L 360.16 299.797985 
L 362.730803 302.08 
L 364.64 303.774679 
L 367.777869 306.56 
L 369.12 307.751378 
L 372.82483 311.04 
L 373.6 311.728073 
L 377.871797 315.52 
L 378.08 315.704818 
L 382.56 319.681612 
L 382.918678 320 
L 387.04 323.827921 
L 387.371371 324.48 
L 388.817618 328.96 
L 390.263863 333.44 
L 391.52 337.33108 
L 391.710117 337.92 
L 393.156384 342.4 
L 394.602609 346.88 
L 396 351.208554 
L 396.048891 351.36 
L 397.495124 355.84 
L 398.941384 360.32 
L 400.387621 364.8 
L 400.48 365.086155 
L 401.833888 369.28 
L 403.280127 373.76 
L 404.726358 378.24 
L 404.96 378.963723 
L 406.172643 382.72 
L 407.618872 387.2 
L 409.065104 391.68 
L 409.44 392.841295 
L 410.511366 396.16 
L 411.957652 400.64 
L 413.403884 405.12 
L 413.92 406.718785 
L 414.850105 409.6 
L 416.296357 414.08 
L 417.742639 418.56 
L 418.4 420.596295 
L 419.188877 423.04 
L 418.4 426.242189 
L 413.92 426.916976 
L 409.44 426.574772 
L 404.96 426.214507 
L 400.48 425.854228 
L 396 425.49397 
L 391.52 425.133677 
L 387.04 424.773426 
L 382.56 424.413156 
L 378.08 424.052908 
L 373.6 423.692657 
L 369.12 423.332394 
L 365.484023 423.04 
L 364.64 422.972126 
L 360.16 422.611855 
L 355.68 422.251586 
L 351.2 421.891323 
L 346.72 420.770491 
L 342.60717 418.56 
L 342.24 418.362658 
L 337.76 415.954793 
L 334.271782 414.08 
L 333.28 413.54695 
L 328.8 411.139117 
L 325.936279 409.6 
L 324.32 408.731319 
L 319.84 406.323468 
L 317.600832 405.12 
L 315.36 403.915645 
L 310.88 401.50779 
L 309.265401 400.64 
L 306.4 399.099956 
L 301.92 396.692132 
L 300.929915 396.16 
L 297.44 394.284295 
L 292.96 391.876437 
L 292.594503 391.68 
L 288.48 389.468656 
L 284.258971 387.2 
L 284 387.060812 
L 279.52 384.491582 
L 276.781604 382.72 
L 275.04 381.667851 
L 270.56 378.632547 
L 269.995503 378.24 
L 266.08 375.517172 
L 263.553118 373.76 
L 261.6 372.401835 
L 257.12 369.286449 
L 257.110727 369.28 
L 252.64 366.171082 
L 250.668321 364.8 
L 248.16 363.055724 
L 244.225935 360.32 
L 243.68 359.940362 
L 239.2 357.013971 
L 237.286762 355.84 
L 234.72 354.26501 
L 230.24 351.516047 
L 229.985689 351.36 
L 225.76 348.767069 
L 222.684623 346.88 
L 221.28 346.018119 
L 216.8 343.269137 
L 215.383561 342.4 
L 212.32 340.520186 
L 208.082449 337.92 
L 207.84 337.771232 
L 203.36 334.697979 
L 201.66685 333.44 
L 198.88 331.369417 
L 195.637112 328.96 
L 194.4 328.040842 
L 189.92 324.712282 
L 189.607366 324.48 
L 185.44 321.383677 
L 183.57769 320 
L 180.96 318.055092 
L 177.547957 315.52 
L 176.48 314.726525 
L 172 311.397946 
L 171.518238 311.04 
L 167.52 308.069355 
L 165.48853 306.56 
L 163.04 304.740768 
L 159.458802 302.08 
L 158.56 301.412208 
L 154.08 298.083631 
L 153.429072 297.6 
L 149.6 294.755035 
L 147.399387 293.12 
L 145.12 291.426441 
L 141.369667 288.64 
L 140.64 288.097868 
L 136.16 284.769281 
L 135.339957 284.16 
L 131.68 281.440718 
L 129.310219 279.68 
L 127.2 278.112129 
L 123.280508 275.2 
L 122.72 274.783549 
L 118.24 271.454969 
L 117.250794 270.72 
L 113.76 268.126401 
L 111.221045 266.24 
L 109.28 264.797824 
L 105.191379 261.76 
L 104.8 261.46921 
L 100.32 258.140639 
L 99.161642 257.28 
L 95.84 254.812079 
L 93.131901 252.8 
L 91.36 251.806567 
L 86.88 249.553755 
L 84.416848 248.32 
L 82.4 247.309795 
L 77.92 245.065841 
L 75.47265 243.84 
L 73.44 242.821875 
L 73.44 243.84 
L 73.44 248.32 
L 73.44 252.8 
L 73.44 257.28 
L 73.44 261.76 
L 73.44 266.24 
L 73.44 270.72 
L 73.44 275.2 
L 73.44 279.68 
L 73.44 284.16 
L 73.44 288.64 
L 73.44 293.12 
L 73.44 297.6 
L 73.44 302.08 
L 73.44 306.56 
L 73.44 311.04 
L 73.44 315.52 
L 73.44 320 
L 73.44 324.48 
L 73.44 328.96 
L 73.44 333.44 
L 73.44 337.92 
L 73.44 342.4 
L 73.44 346.88 
L 73.44 351.36 
L 73.44 355.84 
L 73.44 360.32 
L 73.44 364.8 
L 73.44 369.28 
L 73.44 373.76 
L 73.44 378.24 
L 73.44 382.72 
L 73.44 387.2 
L 73.44 391.68 
L 73.44 396.16 
L 73.44 400.64 
L 73.44 405.12 
L 73.44 409.6 
L 73.44 414.08 
L 73.44 418.56 
L 73.44 423.04 
L 73.44 427.52 
L 73.44 432 
L 73.44 436.48 
L 73.44 440.96 
L 73.44 445.44 
L 73.44 449.92 
L 73.44 454.4 
L 73.44 458.88 
L 73.44 463.36 
L 73.44 467.84 
L 73.44 472.32 
L 73.44 476.8 
L 73.44 481.28 
L 73.44 485.76 
L 73.44 490.24 
L 73.44 494.72 
L 73.44 499.2 
L 73.44 503.68 
L 73.44 508.16 
L 73.44 512.64 
z
" style="fill:#f4987a;"/>
   </g>
   <g id="PathCollection_3">
    <defs>
     <path d="M 0 4.1833 
C 1.109424 4.1833 2.173559 3.742521 2.95804 2.95804 
C 3.742521 2.173559 4.1833 1.109424 4.1833 0 
C 4.1833 -1.109424 3.742521 -2.173559 2.95804 -2.95804 
C 2.173559 -3.742521 1.109424 -4.1833 0 -4.1833 
C -1.109424 -4.1833 -2.173559 -3.742521 -2.95804 -2.95804 
C -3.742521 -2.173559 -4.1833 -1.109424 -4.1833 0 
C -4.1833 1.109424 -3.742521 2.173559 -2.95804 2.95804 
C -2.173559 3.742521 -1.109424 4.1833 0 4.1833 
z
" id="C0_0_040c576673"/>
    </defs>
    <g clip-path="url(#p972f9b0558)">
     <use style="fill:#b40426;stroke:#b40426;" x="317.729876" xlink:href="#C0_0_040c576673" y="198.562277"/>
    </g>
    <g clip-path="url(#p972f9b0558)">
     <use style="fill:#3b4cc0;stroke:#3b4cc0;" x="202.462066" xlink:href="#C0_0_040c576673" y="286.077742"/>
    </g>
    <g clip-path="url(#p972f9b0558)">
     <use style="fill:#3b4cc0;stroke:#3b4cc0;" x="469.479835" xlink:href="#C0_0_040c576673" y="115.116083"/>
    </g>
    <g clip-path="url(#p972f9b0558)">
     <use style="fill:#b40426;stroke:#b40426;" x="129.1396" xlink:href="#C0_0_040c576673" y="420.72364"/>
    </g>
    <g clip-path="url(#p972f9b0558)">
     <use style="fill:#3b4cc0;stroke:#3b4cc0;" x="361.348371" xlink:href="#C0_0_040c576673" y="389.125315"/>
    </g>
    <g clip-path="url(#p972f9b0558)">
     <use style="fill:#b40426;stroke:#b40426;" x="268.790029" xlink:href="#C0_0_040c576673" y="443.066019"/>
    </g>
    <g clip-path="url(#p972f9b0558)">
     <use style="fill:#3b4cc0;stroke:#3b4cc0;" x="245.51301" xlink:href="#C0_0_040c576673" y="97.335117"/>
    </g>
    <g clip-path="url(#p972f9b0558)">
     <use style="fill:#b40426;stroke:#b40426;" x="504.365193" xlink:href="#C0_0_040c576673" y="410.371294"/>
    </g>
    <g clip-path="url(#p972f9b0558)">
     <use style="fill:#b40426;stroke:#b40426;" x="450.862836" xlink:href="#C0_0_040c576673" y="271.545056"/>
    </g>
    <g clip-path="url(#p972f9b0558)">
     <use style="fill:#3b4cc0;stroke:#3b4cc0;" x="106.093571" xlink:href="#C0_0_040c576673" y="116.84578"/>
    </g>
    <g clip-path="url(#p972f9b0558)">
     <use style="fill:#b40426;stroke:#b40426;" x="80.137495" xlink:href="#C0_0_040c576673" y="323.87579"/>
    </g>
    <g clip-path="url(#p972f9b0558)">
     <use style="fill:#b40426;stroke:#b40426;" x="433.106614" xlink:href="#C0_0_040c576673" y="509.405798"/>
    </g>
   </g>
   <g id="patch_3">
    <path clip-path="url(#p972f9b0558)" d="M 291.196281 225.095882 
L 344.26349 225.095882 
L 344.26349 172.028673 
L 291.196281 172.028673 
z
" style="fill:none;stroke:#000000;stroke-linejoin:miter;"/>
   </g>
   <g id="patch_4">
    <path clip-path="url(#p972f9b0558)" d="M 174.950045 313.589765 
L 229.974095 313.589765 
L 229.974095 258.565716 
L 174.950045 258.565716 
z
" style="fill:none;stroke:#000000;stroke-linejoin:miter;"/>
   </g>
   <g id="patch_5">
    <path clip-path="url(#p972f9b0558)" d="M 437.406011 147.189911 
L 501.553655 147.189911 
L 501.553655 83.042267 
L 437.406011 83.042267 
z
" style="fill:none;stroke:#000000;stroke-linejoin:miter;"/>
   </g>
   <g id="patch_6">
    <path clip-path="url(#p972f9b0558)" d="M 47.804108 502.059127 
L 210.475086 502.059127 
L 210.475086 339.38815 
L 47.804108 339.38815 
z
" style="fill:none;stroke:#000000;stroke-linejoin:miter;"/>
   </g>
   <g id="patch_7">
    <path clip-path="url(#p972f9b0558)" d="M 335.651906 414.821783 
L 387.04483 414.821783 
L 387.04483 363.428858 
L 335.651906 363.428858 
z
" style="fill:none;stroke:#000000;stroke-linejoin:miter;"/>
   </g>
   <g id="patch_8">
    <path clip-path="url(#p972f9b0558)" d="M 227.045926 484.810128 
L 310.53414 484.810128 
L 310.53414 401.321913 
L 227.045926 401.321913 
z
" style="fill:none;stroke:#000000;stroke-linejoin:miter;"/>
   </g>
   <g id="patch_9">
    <path clip-path="url(#p972f9b0558)" d="M 173.075284 169.772852 
L 317.950741 169.772852 
L 317.950741 24.897395 
L 173.075284 24.897395 
z
" style="fill:none;stroke:#000000;stroke-linejoin:miter;"/>
   </g>
   <g id="patch_10">
    <path clip-path="url(#p972f9b0558)" d="M 420.579578 494.156904 
L 588.150798 494.156904 
L 588.150798 326.585684 
L 420.579578 326.585684 
z
" style="fill:none;stroke:#000000;stroke-linejoin:miter;"/>
   </g>
   <g id="patch_11">
    <path clip-path="url(#p972f9b0558)" d="M 389.947577 332.46031 
L 511.778109 332.46031 
L 511.778109 210.629778 
L 389.947577 210.629778 
z
" style="fill:none;stroke:#000000;stroke-linejoin:miter;"/>
   </g>
   <g id="patch_12">
    <path clip-path="url(#p972f9b0558)" d="M 11.275712 211.663631 
L 200.911427 211.663631 
L 200.911427 22.027916 
L 11.275712 22.027916 
z
" style="fill:none;stroke:#000000;stroke-linejoin:miter;"/>
   </g>
   <g id="patch_13">
    <path clip-path="url(#p972f9b0558)" d="M 33.820172 370.193114 
L 126.454818 370.193114 
L 126.454818 277.558467 
L 33.820172 277.558467 
z
" style="fill:none;stroke:#000000;stroke-linejoin:miter;"/>
   </g>
   <g id="patch_14">
    <path clip-path="url(#p972f9b0558)" d="M 351.164404 591.348 
L 515.048807 591.348 
L 515.048807 427.463596 
L 351.164404 427.463596 
z
" style="fill:none;stroke:#000000;stroke-linejoin:miter;"/>
   </g>
   <g id="matplotlib.axis_1">
    <g id="xtick_1">
     <g id="line2d_1">
      <defs>
       <path d="M 0 0 
L 0 3.5 
" id="m5312caf612" style="stroke:#000000;stroke-width:0.8;"/>
      </defs>
      <g>
       <use style="stroke:#000000;stroke-width:0.8;" x="73.44" xlink:href="#m5312caf612" y="512.64"/>
      </g>
     </g>
     <g id="text_1">
      <!-- 0.0 -->
      <defs>
       <path d="M 31.78125 66.40625 
Q 24.171875 66.40625 20.328125 58.90625 
Q 16.5 51.421875 16.5 36.375 
Q 16.5 21.390625 20.328125 13.890625 
Q 24.171875 6.390625 31.78125 6.390625 
Q 39.453125 6.390625 43.28125 13.890625 
Q 47.125 21.390625 47.125 36.375 
Q 47.125 51.421875 43.28125 58.90625 
Q 39.453125 66.40625 31.78125 66.40625 
z
M 31.78125 74.21875 
Q 44.046875 74.21875 50.515625 64.515625 
Q 56.984375 54.828125 56.984375 36.375 
Q 56.984375 17.96875 50.515625 8.265625 
Q 44.046875 -1.421875 31.78125 -1.421875 
Q 19.53125 -1.421875 13.0625 8.265625 
Q 6.59375 17.96875 6.59375 36.375 
Q 6.59375 54.828125 13.0625 64.515625 
Q 19.53125 74.21875 31.78125 74.21875 
z
" id="DejaVuSans-30"/>
       <path d="M 10.6875 12.40625 
L 21 12.40625 
L 21 0 
L 10.6875 0 
z
" id="DejaVuSans-2e"/>
      </defs>
      <g transform="translate(65.488438 527.238438)scale(0.1 -0.1)">
       <use xlink:href="#DejaVuSans-30"/>
       <use x="63.623047" xlink:href="#DejaVuSans-2e"/>
       <use x="95.410156" xlink:href="#DejaVuSans-30"/>
      </g>
     </g>
    </g>
    <g id="xtick_2">
     <g id="line2d_2">
      <g>
       <use style="stroke:#000000;stroke-width:0.8;" x="162.144" xlink:href="#m5312caf612" y="512.64"/>
      </g>
     </g>
     <g id="text_2">
      <!-- 0.2 -->
      <defs>
       <path d="M 19.1875 8.296875 
L 53.609375 8.296875 
L 53.609375 0 
L 7.328125 0 
L 7.328125 8.296875 
Q 12.9375 14.109375 22.625 23.890625 
Q 32.328125 33.6875 34.8125 36.53125 
Q 39.546875 41.84375 41.421875 45.53125 
Q 43.3125 49.21875 43.3125 52.78125 
Q 43.3125 58.59375 39.234375 62.25 
Q 35.15625 65.921875 28.609375 65.921875 
Q 23.96875 65.921875 18.8125 64.3125 
Q 13.671875 62.703125 7.8125 59.421875 
L 7.8125 69.390625 
Q 13.765625 71.78125 18.9375 73 
Q 24.125 74.21875 28.421875 74.21875 
Q 39.75 74.21875 46.484375 68.546875 
Q 53.21875 62.890625 53.21875 53.421875 
Q 53.21875 48.921875 51.53125 44.890625 
Q 49.859375 40.875 45.40625 35.40625 
Q 44.1875 33.984375 37.640625 27.21875 
Q 31.109375 20.453125 19.1875 8.296875 
z
" id="DejaVuSans-32"/>
      </defs>
      <g transform="translate(154.192438 527.238438)scale(0.1 -0.1)">
       <use xlink:href="#DejaVuSans-30"/>
       <use x="63.623047" xlink:href="#DejaVuSans-2e"/>
       <use x="95.410156" xlink:href="#DejaVuSans-32"/>
      </g>
     </g>
    </g>
    <g id="xtick_3">
     <g id="line2d_3">
      <g>
       <use style="stroke:#000000;stroke-width:0.8;" x="250.848" xlink:href="#m5312caf612" y="512.64"/>
      </g>
     </g>
     <g id="text_3">
      <!-- 0.4 -->
      <defs>
       <path d="M 37.796875 64.3125 
L 12.890625 25.390625 
L 37.796875 25.390625 
z
M 35.203125 72.90625 
L 47.609375 72.90625 
L 47.609375 25.390625 
L 58.015625 25.390625 
L 58.015625 17.1875 
L 47.609375 17.1875 
L 47.609375 0 
L 37.796875 0 
L 37.796875 17.1875 
L 4.890625 17.1875 
L 4.890625 26.703125 
z
" id="DejaVuSans-34"/>
      </defs>
      <g transform="translate(242.896438 527.238438)scale(0.1 -0.1)">
       <use xlink:href="#DejaVuSans-30"/>
       <use x="63.623047" xlink:href="#DejaVuSans-2e"/>
       <use x="95.410156" xlink:href="#DejaVuSans-34"/>
      </g>
     </g>
    </g>
    <g id="xtick_4">
     <g id="line2d_4">
      <g>
       <use style="stroke:#000000;stroke-width:0.8;" x="339.552" xlink:href="#m5312caf612" y="512.64"/>
      </g>
     </g>
     <g id="text_4">
      <!-- 0.6 -->
      <defs>
       <path d="M 33.015625 40.375 
Q 26.375 40.375 22.484375 35.828125 
Q 18.609375 31.296875 18.609375 23.390625 
Q 18.609375 15.53125 22.484375 10.953125 
Q 26.375 6.390625 33.015625 6.390625 
Q 39.65625 6.390625 43.53125 10.953125 
Q 47.40625 15.53125 47.40625 23.390625 
Q 47.40625 31.296875 43.53125 35.828125 
Q 39.65625 40.375 33.015625 40.375 
z
M 52.59375 71.296875 
L 52.59375 62.3125 
Q 48.875 64.0625 45.09375 64.984375 
Q 41.3125 65.921875 37.59375 65.921875 
Q 27.828125 65.921875 22.671875 59.328125 
Q 17.53125 52.734375 16.796875 39.40625 
Q 19.671875 43.65625 24.015625 45.921875 
Q 28.375 48.1875 33.59375 48.1875 
Q 44.578125 48.1875 50.953125 41.515625 
Q 57.328125 34.859375 57.328125 23.390625 
Q 57.328125 12.15625 50.6875 5.359375 
Q 44.046875 -1.421875 33.015625 -1.421875 
Q 20.359375 -1.421875 13.671875 8.265625 
Q 6.984375 17.96875 6.984375 36.375 
Q 6.984375 53.65625 15.1875 63.9375 
Q 23.390625 74.21875 37.203125 74.21875 
Q 40.921875 74.21875 44.703125 73.484375 
Q 48.484375 72.75 52.59375 71.296875 
z
" id="DejaVuSans-36"/>
      </defs>
      <g transform="translate(331.600437 527.238438)scale(0.1 -0.1)">
       <use xlink:href="#DejaVuSans-30"/>
       <use x="63.623047" xlink:href="#DejaVuSans-2e"/>
       <use x="95.410156" xlink:href="#DejaVuSans-36"/>
      </g>
     </g>
    </g>
    <g id="xtick_5">
     <g id="line2d_5">
      <g>
       <use style="stroke:#000000;stroke-width:0.8;" x="428.256" xlink:href="#m5312caf612" y="512.64"/>
      </g>
     </g>
     <g id="text_5">
      <!-- 0.8 -->
      <defs>
       <path d="M 31.78125 34.625 
Q 24.75 34.625 20.71875 30.859375 
Q 16.703125 27.09375 16.703125 20.515625 
Q 16.703125 13.921875 20.71875 10.15625 
Q 24.75 6.390625 31.78125 6.390625 
Q 38.8125 6.390625 42.859375 10.171875 
Q 46.921875 13.96875 46.921875 20.515625 
Q 46.921875 27.09375 42.890625 30.859375 
Q 38.875 34.625 31.78125 34.625 
z
M 21.921875 38.8125 
Q 15.578125 40.375 12.03125 44.71875 
Q 8.5 49.078125 8.5 55.328125 
Q 8.5 64.0625 14.71875 69.140625 
Q 20.953125 74.21875 31.78125 74.21875 
Q 42.671875 74.21875 48.875 69.140625 
Q 55.078125 64.0625 55.078125 55.328125 
Q 55.078125 49.078125 51.53125 44.71875 
Q 48 40.375 41.703125 38.8125 
Q 48.828125 37.15625 52.796875 32.3125 
Q 56.78125 27.484375 56.78125 20.515625 
Q 56.78125 9.90625 50.3125 4.234375 
Q 43.84375 -1.421875 31.78125 -1.421875 
Q 19.734375 -1.421875 13.25 4.234375 
Q 6.78125 9.90625 6.78125 20.515625 
Q 6.78125 27.484375 10.78125 32.3125 
Q 14.796875 37.15625 21.921875 38.8125 
z
M 18.3125 54.390625 
Q 18.3125 48.734375 21.84375 45.5625 
Q 25.390625 42.390625 31.78125 42.390625 
Q 38.140625 42.390625 41.71875 45.5625 
Q 45.3125 48.734375 45.3125 54.390625 
Q 45.3125 60.0625 41.71875 63.234375 
Q 38.140625 66.40625 31.78125 66.40625 
Q 25.390625 66.40625 21.84375 63.234375 
Q 18.3125 60.0625 18.3125 54.390625 
z
" id="DejaVuSans-38"/>
      </defs>
      <g transform="translate(420.304438 527.238438)scale(0.1 -0.1)">
       <use xlink:href="#DejaVuSans-30"/>
       <use x="63.623047" xlink:href="#DejaVuSans-2e"/>
       <use x="95.410156" xlink:href="#DejaVuSans-38"/>
      </g>
     </g>
    </g>
    <g id="xtick_6">
     <g id="line2d_6">
      <g>
       <use style="stroke:#000000;stroke-width:0.8;" x="516.96" xlink:href="#m5312caf612" y="512.64"/>
      </g>
     </g>
     <g id="text_6">
      <!-- 1.0 -->
      <defs>
       <path d="M 12.40625 8.296875 
L 28.515625 8.296875 
L 28.515625 63.921875 
L 10.984375 60.40625 
L 10.984375 69.390625 
L 28.421875 72.90625 
L 38.28125 72.90625 
L 38.28125 8.296875 
L 54.390625 8.296875 
L 54.390625 0 
L 12.40625 0 
z
" id="DejaVuSans-31"/>
      </defs>
      <g transform="translate(509.008438 527.238438)scale(0.1 -0.1)">
       <use xlink:href="#DejaVuSans-31"/>
       <use x="63.623047" xlink:href="#DejaVuSans-2e"/>
       <use x="95.410156" xlink:href="#DejaVuSans-30"/>
      </g>
     </g>
    </g>
   </g>
   <g id="matplotlib.axis_2">
    <g id="ytick_1">
     <g id="line2d_7">
      <defs>
       <path d="M 0 0 
L -3.5 0 
" id="m535913124c" style="stroke:#000000;stroke-width:0.8;"/>
      </defs>
      <g>
       <use style="stroke:#000000;stroke-width:0.8;" x="72" xlink:href="#m535913124c" y="512.64"/>
      </g>
     </g>
     <g id="text_7">
      <!-- 0.0 -->
      <g transform="translate(49.096875 516.439219)scale(0.1 -0.1)">
       <use xlink:href="#DejaVuSans-30"/>
       <use x="63.623047" xlink:href="#DejaVuSans-2e"/>
       <use x="95.410156" xlink:href="#DejaVuSans-30"/>
      </g>
     </g>
    </g>
    <g id="ytick_2">
     <g id="line2d_8">
      <g>
       <use style="stroke:#000000;stroke-width:0.8;" x="72" xlink:href="#m535913124c" y="423.936"/>
      </g>
     </g>
     <g id="text_8">
      <!-- 0.2 -->
      <g transform="translate(49.096875 427.735219)scale(0.1 -0.1)">
       <use xlink:href="#DejaVuSans-30"/>
       <use x="63.623047" xlink:href="#DejaVuSans-2e"/>
       <use x="95.410156" xlink:href="#DejaVuSans-32"/>
      </g>
     </g>
    </g>
    <g id="ytick_3">
     <g id="line2d_9">
      <g>
       <use style="stroke:#000000;stroke-width:0.8;" x="72" xlink:href="#m535913124c" y="335.232"/>
      </g>
     </g>
     <g id="text_9">
      <!-- 0.4 -->
      <g transform="translate(49.096875 339.031219)scale(0.1 -0.1)">
       <use xlink:href="#DejaVuSans-30"/>
       <use x="63.623047" xlink:href="#DejaVuSans-2e"/>
       <use x="95.410156" xlink:href="#DejaVuSans-34"/>
      </g>
     </g>
    </g>
    <g id="ytick_4">
     <g id="line2d_10">
      <g>
       <use style="stroke:#000000;stroke-width:0.8;" x="72" xlink:href="#m535913124c" y="246.528"/>
      </g>
     </g>
     <g id="text_10">
      <!-- 0.6 -->
      <g transform="translate(49.096875 250.327219)scale(0.1 -0.1)">
       <use xlink:href="#DejaVuSans-30"/>
       <use x="63.623047" xlink:href="#DejaVuSans-2e"/>
       <use x="95.410156" xlink:href="#DejaVuSans-36"/>
      </g>
     </g>
    </g>
    <g id="ytick_5">
     <g id="line2d_11">
      <g>
       <use style="stroke:#000000;stroke-width:0.8;" x="72" xlink:href="#m535913124c" y="157.824"/>
      </g>
     </g>
     <g id="text_11">
      <!-- 0.8 -->
      <g transform="translate(49.096875 161.623219)scale(0.1 -0.1)">
       <use xlink:href="#DejaVuSans-30"/>
       <use x="63.623047" xlink:href="#DejaVuSans-2e"/>
       <use x="95.410156" xlink:href="#DejaVuSans-38"/>
      </g>
     </g>
    </g>
    <g id="ytick_6">
     <g id="line2d_12">
      <g>
       <use style="stroke:#000000;stroke-width:0.8;" x="72" xlink:href="#m535913124c" y="69.12"/>
      </g>
     </g>
     <g id="text_12">
      <!-- 1.0 -->
      <g transform="translate(49.096875 72.919219)scale(0.1 -0.1)">
       <use xlink:href="#DejaVuSans-31"/>
       <use x="63.623047" xlink:href="#DejaVuSans-2e"/>
       <use x="95.410156" xlink:href="#DejaVuSans-30"/>
      </g>
     </g>
    </g>
   </g>
   <g id="patch_15">
    <path d="M 72 512.64 
L 72 69.12 
" style="fill:none;stroke:#000000;stroke-linecap:square;stroke-linejoin:miter;stroke-width:0.8;"/>
   </g>
   <g id="patch_16">
    <path d="M 518.4 512.64 
L 518.4 69.12 
" style="fill:none;stroke:#000000;stroke-linecap:square;stroke-linejoin:miter;stroke-width:0.8;"/>
   </g>
   <g id="patch_17">
    <path d="M 72 512.64 
L 518.4 512.64 
" style="fill:none;stroke:#000000;stroke-linecap:square;stroke-linejoin:miter;stroke-width:0.8;"/>
   </g>
   <g id="patch_18">
    <path d="M 72 69.12 
L 518.4 69.12 
" style="fill:none;stroke:#000000;stroke-linecap:square;stroke-linejoin:miter;stroke-width:0.8;"/>
   </g>
  </g>
 </g>
 <defs>
  <clipPath id="p972f9b0558">
   <rect height="443.52" width="446.4" x="72" y="69.12"/>
  </clipPath>
 </defs>
</svg>
