<?xml version="1.0" encoding="utf-8" standalone="no"?>
<!DOCTYPE svg PUBLIC "-//W3C//DTD SVG 1.1//EN"
  "http://www.w3.org/Graphics/SVG/1.1/DTD/svg11.dtd">
<!-- Created with matplotlib (http://matplotlib.org/) -->
<svg height="576pt" version="1.1" viewBox="0 0 576 576" width="576pt" xmlns="http://www.w3.org/2000/svg" xmlns:xlink="http://www.w3.org/1999/xlink">
 <defs>
  <style type="text/css">
*{stroke-linecap:butt;stroke-linejoin:round;}
  </style>
 </defs>
 <g id="figure_1">
  <g id="patch_1">
   <path d="M 0 576 
L 576 576 
L 576 0 
L 0 0 
z
" style="fill:#ffffff;"/>
  </g>
  <g id="axes_1">
   <g id="patch_2">
    <path d="M 72 512.64 
L 518.4 512.64 
L 518.4 69.12 
L 72 69.12 
z
" style="fill:#ffffff;"/>
   </g>
   <g id="PathCollection_1">
    <path clip-path="url(#p8afbcece3f)" d="M 373.6 454.731296 
L 374.807321 454.4 
L 378.08 453.501954 
L 382.56 452.272637 
L 387.04 451.043329 
L 391.133882 449.92 
L 391.52 449.814052 
L 396 448.584681 
L 400.48 447.355372 
L 404.96 446.126106 
L 407.460368 445.44 
L 409.44 444.896779 
L 413.92 443.667439 
L 418.4 442.438128 
L 422.88 441.208829 
L 423.786817 440.96 
L 427.36 439.935306 
L 431.84 437.256594 
L 432.47248 436.48 
L 433.26537 432 
L 433.270639 427.52 
L 433.275907 423.04 
L 433.281153 418.56 
L 433.286484 414.08 
L 433.291757 409.6 
L 433.297037 405.12 
L 433.302313 400.64 
L 433.307599 396.16 
L 433.312904 391.68 
L 433.318173 387.2 
L 433.323439 382.72 
L 432.707166 378.24 
L 431.84 376.850466 
L 427.36 373.930956 
L 427.097667 373.76 
L 422.88 371.011496 
L 420.223053 369.28 
L 418.4 368.091952 
L 413.92 365.172495 
L 413.348409 364.8 
L 409.44 362.252951 
L 406.473899 360.32 
L 404.96 359.33341 
L 400.48 356.413908 
L 399.599322 355.84 
L 396 353.494424 
L 392.724673 351.36 
L 391.52 350.574957 
L 387.04 347.655426 
L 385.850114 346.88 
L 382.56 344.735894 
L 378.975528 342.4 
L 378.08 341.816415 
L 373.6 338.896913 
L 372.100953 337.92 
L 369.12 335.977371 
L 365.226322 333.44 
L 364.64 333.057913 
L 360.16 330.138393 
L 358.351731 328.96 
L 355.68 327.218932 
L 351.477117 324.48 
L 351.2 324.299407 
L 346.72 321.379888 
L 344.602574 320 
L 342.24 318.460368 
L 337.76 315.540909 
L 337.727916 315.52 
L 333.28 312.621358 
L 330.853347 311.04 
L 328.8 309.701909 
L 324.32 306.782364 
L 323.978787 306.56 
L 319.84 303.862875 
L 317.104166 302.08 
L 315.36 300.943357 
L 310.88 298.023833 
L 310.229607 297.6 
L 306.4 295.104391 
L 303.85479 293.12 
L 301.92 291.615948 
L 299.41979 288.64 
L 297.44 286.283484 
L 295.655973 284.16 
L 292.96 280.951021 
L 291.892164 279.68 
L 288.48 275.618582 
L 288.128337 275.2 
L 284.364572 270.72 
L 284 270.286054 
L 280.600745 266.24 
L 279.52 264.953603 
L 276.836984 261.76 
L 275.04 259.621088 
L 273.073145 257.28 
L 270.56 254.288626 
L 269.309358 252.8 
L 266.08 248.956166 
L 265.545528 248.32 
L 261.78172 243.84 
L 261.6 243.623699 
L 258.017921 239.36 
L 257.12 238.291223 
L 254.254104 234.88 
L 252.64 232.958747 
L 250.490315 230.4 
L 248.16 227.626271 
L 246.726513 225.92 
L 243.68 222.293779 
L 242.962696 221.44 
L 239.2 216.961323 
L 239.198888 216.96 
L 235.435092 212.48 
L 234.72 211.628848 
L 231.671275 208 
L 230.24 206.296368 
L 227.907474 203.52 
L 225.76 200.963895 
L 224.143673 199.04 
L 221.28 195.631445 
L 220.379844 194.56 
L 216.8 190.298978 
L 216.616028 190.08 
L 212.852294 185.6 
L 212.32 184.966414 
L 209.088449 181.12 
L 208.888825 176.64 
L 212.32 172.176886 
L 212.332981 172.16 
L 215.77718 167.68 
L 216.8 166.34957 
L 220.375725 163.2 
L 221.28 162.831118 
L 225.76 161.712872 
L 230.24 160.594612 
L 234.72 159.47636 
L 237.75022 158.72 
L 239.2 158.35813 
L 243.68 157.239848 
L 248.16 156.121597 
L 252.64 155.003379 
L 255.698297 154.24 
L 257.12 153.885128 
L 261.6 152.766866 
L 266.08 151.648632 
L 270.56 150.530414 
L 273.64653 149.76 
L 275.04 149.412178 
L 279.52 148.293905 
L 284 147.175651 
L 288.48 146.057411 
L 291.594577 145.28 
L 292.96 144.939184 
L 297.44 143.982216 
L 301.92 143.437062 
L 306.4 143.714575 
L 310.88 144.386758 
L 315.36 145.119242 
L 316.343209 145.28 
L 319.84 145.851739 
L 324.32 146.584205 
L 328.8 147.316679 
L 333.28 148.049152 
L 337.76 148.781648 
L 342.24 149.514112 
L 343.743825 149.76 
L 346.72 150.246634 
L 351.2 150.979107 
L 355.68 151.71159 
L 360.16 152.444074 
L 364.64 153.176576 
L 369.12 153.909047 
L 371.14417 154.24 
L 373.6 154.641532 
L 378.08 155.374011 
L 382.56 156.106497 
L 387.04 156.838983 
L 391.52 157.571475 
L 396 158.303974 
L 398.544498 158.72 
L 400.48 159.036455 
L 404.96 159.768936 
L 409.44 160.501419 
L 413.92 161.233878 
L 418.4 161.966394 
L 422.88 162.698891 
L 425.944918 163.2 
L 427.36 163.431362 
L 431.84 164.163848 
L 436.32 164.896338 
L 440.8 165.628832 
L 445.28 166.361308 
L 449.76 167.093804 
L 453.345358 167.68 
L 454.24 167.9772 
L 458.72 169.557155 
L 463.2 171.325164 
L 465.217549 172.16 
L 467.68 173.178922 
L 472.16 175.032685 
L 476.044405 176.64 
L 476.64 176.886451 
L 481.12 178.740239 
L 485.6 180.593925 
L 486.871378 181.12 
L 490.08 182.447708 
L 494.56 184.301493 
L 497.698104 185.6 
L 499.04 186.155269 
L 503.52 188.00906 
L 508 189.862855 
L 508.524756 190.08 
L 512.48 191.716651 
L 516.96 193.570383 
L 516.96 190.08 
L 516.96 185.6 
L 516.96 181.12 
L 516.96 176.64 
L 516.96 172.16 
L 516.96 167.68 
L 516.96 163.2 
L 516.96 158.72 
L 516.96 154.24 
L 516.96 149.76 
L 516.96 145.28 
L 516.96 140.8 
L 516.96 136.32 
L 516.96 131.84 
L 516.96 127.36 
L 516.96 122.88 
L 516.96 118.4 
L 516.96 113.92 
L 516.96 109.44 
L 516.96 104.96 
L 516.96 100.48 
L 516.96 96 
L 516.96 91.52 
L 516.96 87.04 
L 516.96 82.56 
L 516.96 78.08 
L 516.96 73.6 
L 516.96 69.12 
L 512.48 69.12 
L 508 69.12 
L 503.52 69.12 
L 499.04 69.12 
L 494.56 69.12 
L 490.08 69.12 
L 485.6 69.12 
L 481.12 69.12 
L 476.64 69.12 
L 472.16 69.12 
L 467.68 69.12 
L 463.2 69.12 
L 458.72 69.12 
L 454.24 69.12 
L 449.76 69.12 
L 445.28 69.12 
L 440.8 69.12 
L 436.32 69.12 
L 431.84 69.12 
L 427.36 69.12 
L 422.88 69.12 
L 418.4 69.12 
L 413.92 69.12 
L 409.44 69.12 
L 404.96 69.12 
L 400.48 69.12 
L 396 69.12 
L 391.52 69.12 
L 387.04 69.12 
L 382.56 69.12 
L 378.08 69.12 
L 373.6 69.12 
L 369.12 69.12 
L 364.64 69.12 
L 360.16 69.12 
L 355.68 69.12 
L 351.2 69.12 
L 346.72 69.12 
L 342.24 69.12 
L 337.76 69.12 
L 333.28 69.12 
L 328.8 69.12 
L 324.32 69.12 
L 319.84 69.12 
L 315.36 69.12 
L 310.88 69.12 
L 306.4 69.12 
L 301.92 69.12 
L 297.44 69.12 
L 292.96 69.12 
L 288.48 69.12 
L 284 69.12 
L 279.52 69.12 
L 275.04 69.12 
L 270.56 69.12 
L 266.08 69.12 
L 261.6 69.12 
L 257.12 69.12 
L 252.64 69.12 
L 248.16 69.12 
L 243.68 69.12 
L 239.2 69.12 
L 234.72 69.12 
L 230.24 69.12 
L 225.76 69.12 
L 221.28 69.12 
L 216.8 69.12 
L 212.32 69.12 
L 207.84 69.12 
L 203.36 69.12 
L 198.88 69.12 
L 194.4 69.12 
L 189.92 69.12 
L 185.44 69.12 
L 180.96 69.12 
L 176.48 69.12 
L 172 69.12 
L 167.52 69.12 
L 163.04 69.12 
L 158.56 69.12 
L 154.08 69.12 
L 149.6 69.12 
L 145.12 69.12 
L 140.64 69.12 
L 136.16 69.12 
L 131.68 69.12 
L 127.2 69.12 
L 122.72 69.12 
L 118.24 69.12 
L 113.76 69.12 
L 109.28 69.12 
L 104.8 69.12 
L 100.32 69.12 
L 95.84 69.12 
L 91.36 69.12 
L 86.88 69.12 
L 82.4 69.12 
L 77.92 69.12 
L 73.44 69.12 
L 73.44 73.6 
L 73.44 78.08 
L 73.44 82.56 
L 73.44 87.04 
L 73.44 91.52 
L 73.44 96 
L 73.44 100.48 
L 73.44 104.96 
L 73.44 109.44 
L 73.44 113.92 
L 73.44 118.4 
L 73.44 122.88 
L 73.44 127.36 
L 73.44 131.84 
L 73.44 136.32 
L 73.44 140.8 
L 73.44 145.28 
L 73.44 149.76 
L 73.44 154.24 
L 73.44 158.72 
L 73.44 163.2 
L 73.44 167.68 
L 73.44 172.16 
L 73.44 176.64 
L 73.44 181.12 
L 73.44 185.6 
L 73.44 190.08 
L 73.44 194.56 
L 73.44 199.04 
L 73.44 203.52 
L 73.44 208 
L 73.44 212.48 
L 73.44 216.96 
L 73.44 221.44 
L 73.44 225.92 
L 73.44 230.4 
L 73.44 233.366904 
L 74.925835 234.88 
L 77.92 237.929111 
L 79.325096 239.36 
L 82.4 242.491338 
L 83.724364 243.84 
L 86.88 247.053528 
L 88.123659 248.32 
L 91.36 251.615721 
L 92.522936 252.8 
L 95.84 256.177919 
L 96.922226 257.28 
L 100.32 260.74013 
L 101.321497 261.76 
L 104.8 265.30232 
L 105.72078 266.24 
L 109.28 269.864542 
L 110.120046 270.72 
L 113.76 274.426743 
L 114.519325 275.2 
L 118.24 278.988918 
L 118.918633 279.68 
L 122.72 283.551109 
L 123.317919 284.16 
L 127.2 288.113317 
L 127.717197 288.64 
L 131.68 292.675531 
L 132.116459 293.12 
L 136.16 297.237714 
L 136.515757 297.6 
L 140.64 301.799933 
L 140.915022 302.08 
L 145.12 306.36211 
L 145.314325 306.56 
L 149.6 310.924314 
L 149.713601 311.04 
L 154.08 315.486508 
L 154.112888 315.52 
L 158.51217 320 
L 158.56 320.048708 
L 162.91144 324.48 
L 163.04 324.610918 
L 167.310723 328.96 
L 167.52 329.173117 
L 172 332.489231 
L 173.745654 333.44 
L 176.48 334.929288 
L 180.96 337.369357 
L 181.971009 337.92 
L 185.44 339.80937 
L 189.92 342.249448 
L 190.196417 342.4 
L 194.4 344.68952 
L 198.421813 346.88 
L 198.88 347.129552 
L 203.36 349.569592 
L 206.647228 351.36 
L 207.84 352.009649 
L 212.32 354.449718 
L 214.872587 355.84 
L 216.8 356.889777 
L 221.28 359.329829 
L 223.097984 360.32 
L 225.76 361.769872 
L 230.24 364.209938 
L 231.323368 364.8 
L 234.72 366.649991 
L 239.2 369.090036 
L 239.548777 369.28 
L 243.68 371.530076 
L 247.774212 373.76 
L 248.16 373.970121 
L 252.64 376.410175 
L 255.999635 378.24 
L 257.12 378.85021 
L 261.6 381.290284 
L 264.225 382.72 
L 266.08 383.730335 
L 270.56 386.170407 
L 272.450375 387.2 
L 275.04 388.610448 
L 279.52 391.05051 
L 280.675756 391.68 
L 284 393.49055 
L 288.48 395.930581 
L 288.901211 396.16 
L 292.96 398.370668 
L 297.126602 400.64 
L 297.44 400.810694 
L 301.92 403.250784 
L 304.335517 405.12 
L 306.4 406.714458 
L 309.581655 409.6 
L 310.88 410.777509 
L 314.521405 414.08 
L 315.36 414.840548 
L 319.461134 418.56 
L 319.84 418.903603 
L 324.32 422.949327 
L 324.454178 423.04 
L 328.8 426.266536 
L 330.747166 427.52 
L 333.28 429.150533 
L 337.706326 432 
L 337.76 432.034552 
L 342.24 434.918518 
L 344.665609 436.48 
L 346.72 437.802528 
L 351.2 440.686545 
L 351.624783 440.96 
L 355.68 443.570544 
L 358.584025 445.44 
L 360.16 446.454516 
L 364.64 449.338556 
L 365.543194 449.92 
L 369.12 452.222619 
L 372.590256 454.4 
z
" style="fill:#8db0fe;"/>
   </g>
   <g id="PathCollection_2">
    <path clip-path="url(#p8afbcece3f)" d="M 77.92 512.64 
L 82.4 512.64 
L 86.88 512.64 
L 91.36 512.64 
L 95.84 512.64 
L 100.32 512.64 
L 104.8 512.64 
L 109.28 512.64 
L 113.76 512.64 
L 118.24 512.64 
L 122.72 512.64 
L 127.2 512.64 
L 131.68 512.64 
L 136.16 512.64 
L 140.64 512.64 
L 145.12 512.64 
L 149.6 512.64 
L 154.08 512.64 
L 158.56 512.64 
L 163.04 512.64 
L 167.52 512.64 
L 172 512.64 
L 176.48 512.64 
L 180.96 512.64 
L 185.44 512.64 
L 189.92 512.64 
L 194.4 512.64 
L 198.88 512.64 
L 203.36 512.64 
L 207.84 512.64 
L 212.32 512.64 
L 216.8 512.64 
L 221.28 512.64 
L 225.76 512.64 
L 230.24 512.64 
L 234.72 512.64 
L 239.2 512.64 
L 243.68 512.64 
L 248.16 512.64 
L 252.64 512.64 
L 257.12 512.64 
L 261.6 512.64 
L 266.08 512.64 
L 270.56 512.64 
L 275.04 512.64 
L 279.52 512.64 
L 284 512.64 
L 288.48 512.64 
L 292.96 512.64 
L 297.44 512.64 
L 301.92 512.64 
L 306.4 512.64 
L 310.88 512.64 
L 315.36 512.64 
L 319.84 512.64 
L 324.32 512.64 
L 328.8 512.64 
L 333.28 512.64 
L 337.76 512.64 
L 342.24 512.64 
L 346.72 512.64 
L 351.2 512.64 
L 355.68 512.64 
L 360.16 512.64 
L 364.64 512.64 
L 369.12 512.64 
L 373.6 512.64 
L 378.08 512.64 
L 382.56 512.64 
L 387.04 512.64 
L 391.52 512.64 
L 396 512.64 
L 400.48 512.64 
L 404.96 512.64 
L 409.44 512.64 
L 413.92 512.64 
L 418.4 512.64 
L 422.88 512.64 
L 427.36 512.64 
L 431.84 512.64 
L 436.32 512.64 
L 440.8 512.64 
L 445.28 512.64 
L 449.76 512.64 
L 454.24 512.64 
L 458.72 512.64 
L 463.2 512.64 
L 467.68 512.64 
L 472.16 512.64 
L 476.64 512.64 
L 481.12 512.64 
L 485.6 512.64 
L 490.08 512.64 
L 494.56 512.64 
L 499.04 512.64 
L 503.52 512.64 
L 508 512.64 
L 512.48 512.64 
L 516.96 512.64 
L 516.96 508.16 
L 516.96 503.68 
L 516.96 499.2 
L 516.96 494.72 
L 516.96 490.24 
L 516.96 485.76 
L 516.96 481.28 
L 516.96 476.8 
L 516.96 472.32 
L 516.96 467.84 
L 516.96 463.36 
L 516.96 458.88 
L 516.96 454.4 
L 516.96 449.92 
L 516.96 445.44 
L 516.96 440.96 
L 516.96 436.48 
L 516.96 432 
L 516.96 427.52 
L 516.96 423.04 
L 516.96 418.56 
L 516.96 414.08 
L 516.96 409.6 
L 516.96 405.12 
L 516.96 400.64 
L 516.96 396.16 
L 516.96 391.68 
L 516.96 387.2 
L 516.96 382.72 
L 516.96 378.24 
L 516.96 373.76 
L 516.96 369.28 
L 516.96 364.8 
L 516.96 360.32 
L 516.96 355.84 
L 516.96 351.36 
L 516.96 346.88 
L 516.96 342.4 
L 516.96 337.92 
L 516.96 333.44 
L 516.96 328.96 
L 516.96 324.48 
L 516.96 320 
L 516.96 315.52 
L 516.96 311.04 
L 516.96 306.56 
L 516.96 302.08 
L 516.96 297.6 
L 516.96 293.12 
L 516.96 288.64 
L 516.96 284.16 
L 516.96 279.68 
L 516.96 275.2 
L 516.96 270.72 
L 516.96 266.24 
L 516.96 261.76 
L 516.96 257.28 
L 516.96 252.8 
L 516.96 248.32 
L 516.96 243.84 
L 516.96 239.36 
L 516.96 234.88 
L 516.96 230.4 
L 516.96 225.92 
L 516.96 221.44 
L 516.96 216.96 
L 516.96 212.48 
L 516.96 208 
L 516.96 203.52 
L 516.96 199.04 
L 516.96 194.56 
L 516.96 193.570383 
L 512.48 191.716651 
L 508.524756 190.08 
L 508 189.862855 
L 503.52 188.00906 
L 499.04 186.155269 
L 497.698104 185.6 
L 494.56 184.301493 
L 490.08 182.447708 
L 486.871378 181.12 
L 485.6 180.593925 
L 481.12 178.740239 
L 476.64 176.886451 
L 476.044405 176.64 
L 472.16 175.032685 
L 467.68 173.178922 
L 465.217549 172.16 
L 463.2 171.325164 
L 458.72 169.557155 
L 454.24 167.9772 
L 453.345358 167.68 
L 449.76 167.093804 
L 445.28 166.361308 
L 440.8 165.628832 
L 436.32 164.896338 
L 431.84 164.163848 
L 427.36 163.431362 
L 425.944918 163.2 
L 422.88 162.698891 
L 418.4 161.966394 
L 413.92 161.233878 
L 409.44 160.501419 
L 404.96 159.768936 
L 400.48 159.036455 
L 398.544498 158.72 
L 396 158.303974 
L 391.52 157.571475 
L 387.04 156.838983 
L 382.56 156.106497 
L 378.08 155.374011 
L 373.6 154.641532 
L 371.14417 154.24 
L 369.12 153.909047 
L 364.64 153.176576 
L 360.16 152.444074 
L 355.68 151.71159 
L 351.2 150.979107 
L 346.72 150.246634 
L 343.743825 149.76 
L 342.24 149.514112 
L 337.76 148.781648 
L 333.28 148.049152 
L 328.8 147.316679 
L 324.32 146.584205 
L 319.84 145.851739 
L 316.343209 145.28 
L 315.36 145.119242 
L 310.88 144.386758 
L 306.4 143.714575 
L 301.92 143.437062 
L 297.44 143.982216 
L 292.96 144.939184 
L 291.594577 145.28 
L 288.48 146.057411 
L 284 147.175651 
L 279.52 148.293905 
L 275.04 149.412178 
L 273.64653 149.76 
L 270.56 150.530414 
L 266.08 151.648632 
L 261.6 152.766866 
L 257.12 153.885128 
L 255.698297 154.24 
L 252.64 155.003379 
L 248.16 156.121597 
L 243.68 157.239848 
L 239.2 158.35813 
L 237.75022 158.72 
L 234.72 159.47636 
L 230.24 160.594612 
L 225.76 161.712872 
L 221.28 162.831118 
L 220.375725 163.2 
L 216.8 166.34957 
L 215.77718 167.68 
L 212.332981 172.16 
L 212.32 172.176886 
L 208.888825 176.64 
L 209.088449 181.12 
L 212.32 184.966414 
L 212.852294 185.6 
L 216.616028 190.08 
L 216.8 190.298978 
L 220.379844 194.56 
L 221.28 195.631445 
L 224.143673 199.04 
L 225.76 200.963895 
L 227.907474 203.52 
L 230.24 206.296368 
L 231.671275 208 
L 234.72 211.628848 
L 235.435092 212.48 
L 239.198888 216.96 
L 239.2 216.961323 
L 242.962696 221.44 
L 243.68 222.293779 
L 246.726513 225.92 
L 248.16 227.626271 
L 250.490315 230.4 
L 252.64 232.958747 
L 254.254104 234.88 
L 257.12 238.291223 
L 258.017921 239.36 
L 261.6 243.623699 
L 261.78172 243.84 
L 265.545528 248.32 
L 266.08 248.956166 
L 269.309358 252.8 
L 270.56 254.288626 
L 273.073145 257.28 
L 275.04 259.621088 
L 276.836984 261.76 
L 279.52 264.953603 
L 280.600745 266.24 
L 284 270.286054 
L 284.364572 270.72 
L 288.128337 275.2 
L 288.48 275.618582 
L 291.892164 279.68 
L 292.96 280.951021 
L 295.655973 284.16 
L 297.44 286.283484 
L 299.41979 288.64 
L 301.92 291.615948 
L 303.85479 293.12 
L 306.4 295.104391 
L 310.229607 297.6 
L 310.88 298.023833 
L 315.36 300.943357 
L 317.104166 302.08 
L 319.84 303.862875 
L 323.978787 306.56 
L 324.32 306.782364 
L 328.8 309.701909 
L 330.853347 311.04 
L 333.28 312.621358 
L 337.727916 315.52 
L 337.76 315.540909 
L 342.24 318.460368 
L 344.602574 320 
L 346.72 321.379888 
L 351.2 324.299407 
L 351.477117 324.48 
L 355.68 327.218932 
L 358.351731 328.96 
L 360.16 330.138393 
L 364.64 333.057913 
L 365.226322 333.44 
L 369.12 335.977371 
L 372.100953 337.92 
L 373.6 338.896913 
L 378.08 341.816415 
L 378.975528 342.4 
L 382.56 344.735894 
L 385.850114 346.88 
L 387.04 347.655426 
L 391.52 350.574957 
L 392.724673 351.36 
L 396 353.494424 
L 399.599322 355.84 
L 400.48 356.413908 
L 404.96 359.33341 
L 406.473899 360.32 
L 409.44 362.252951 
L 413.348409 364.8 
L 413.92 365.172495 
L 418.4 368.091952 
L 420.223053 369.28 
L 422.88 371.011496 
L 427.097667 373.76 
L 427.36 373.930956 
L 431.84 376.850466 
L 432.707166 378.24 
L 433.323439 382.72 
L 433.318173 387.2 
L 433.312904 391.68 
L 433.307599 396.16 
L 433.302313 400.64 
L 433.297037 405.12 
L 433.291757 409.6 
L 433.286484 414.08 
L 433.281153 418.56 
L 433.275907 423.04 
L 433.270639 427.52 
L 433.26537 432 
L 432.47248 436.48 
L 431.84 437.256594 
L 427.36 439.935306 
L 423.786817 440.96 
L 422.88 441.208829 
L 418.4 442.438128 
L 413.92 443.667439 
L 409.44 444.896779 
L 407.460368 445.44 
L 404.96 446.126106 
L 400.48 447.355372 
L 396 448.584681 
L 391.52 449.814052 
L 391.133882 449.92 
L 387.04 451.043329 
L 382.56 452.272637 
L 378.08 453.501954 
L 374.807321 454.4 
L 373.6 454.731296 
L 372.590256 454.4 
L 369.12 452.222619 
L 365.543194 449.92 
L 364.64 449.338556 
L 360.16 446.454516 
L 358.584025 445.44 
L 355.68 443.570544 
L 351.624783 440.96 
L 351.2 440.686545 
L 346.72 437.802528 
L 344.665609 436.48 
L 342.24 434.918518 
L 337.76 432.034552 
L 337.706326 432 
L 333.28 429.150533 
L 330.747166 427.52 
L 328.8 426.266536 
L 324.454178 423.04 
L 324.32 422.949327 
L 319.84 418.903603 
L 319.461134 418.56 
L 315.36 414.840548 
L 314.521405 414.08 
L 310.88 410.777509 
L 309.581655 409.6 
L 306.4 406.714458 
L 304.335517 405.12 
L 301.92 403.250784 
L 297.44 400.810694 
L 297.126602 400.64 
L 292.96 398.370668 
L 288.901211 396.16 
L 288.48 395.930581 
L 284 393.49055 
L 280.675756 391.68 
L 279.52 391.05051 
L 275.04 388.610448 
L 272.450375 387.2 
L 270.56 386.170407 
L 266.08 383.730335 
L 264.225 382.72 
L 261.6 381.290284 
L 257.12 378.85021 
L 255.999635 378.24 
L 252.64 376.410175 
L 248.16 373.970121 
L 247.774212 373.76 
L 243.68 371.530076 
L 239.548777 369.28 
L 239.2 369.090036 
L 234.72 366.649991 
L 231.323368 364.8 
L 230.24 364.209938 
L 225.76 361.769872 
L 223.097984 360.32 
L 221.28 359.329829 
L 216.8 356.889777 
L 214.872587 355.84 
L 212.32 354.449718 
L 207.84 352.009649 
L 206.647228 351.36 
L 203.36 349.569592 
L 198.88 347.129552 
L 198.421813 346.88 
L 194.4 344.68952 
L 190.196417 342.4 
L 189.92 342.249448 
L 185.44 339.80937 
L 181.971009 337.92 
L 180.96 337.369357 
L 176.48 334.929288 
L 173.745654 333.44 
L 172 332.489231 
L 167.52 329.173117 
L 167.310723 328.96 
L 163.04 324.610918 
L 162.91144 324.48 
L 158.56 320.048708 
L 158.51217 320 
L 154.112888 315.52 
L 154.08 315.486508 
L 149.713601 311.04 
L 149.6 310.924314 
L 145.314325 306.56 
L 145.12 306.36211 
L 140.915022 302.08 
L 140.64 301.799933 
L 136.515757 297.6 
L 136.16 297.237714 
L 132.116459 293.12 
L 131.68 292.675531 
L 127.717197 288.64 
L 127.2 288.113317 
L 123.317919 284.16 
L 122.72 283.551109 
L 118.918633 279.68 
L 118.24 278.988918 
L 114.519325 275.2 
L 113.76 274.426743 
L 110.120046 270.72 
L 109.28 269.864542 
L 105.72078 266.24 
L 104.8 265.30232 
L 101.321497 261.76 
L 100.32 260.74013 
L 96.922226 257.28 
L 95.84 256.177919 
L 92.522936 252.8 
L 91.36 251.615721 
L 88.123659 248.32 
L 86.88 247.053528 
L 83.724364 243.84 
L 82.4 242.491338 
L 79.325096 239.36 
L 77.92 237.929111 
L 74.925835 234.88 
L 73.44 233.366904 
L 73.44 234.88 
L 73.44 239.36 
L 73.44 243.84 
L 73.44 248.32 
L 73.44 252.8 
L 73.44 257.28 
L 73.44 261.76 
L 73.44 266.24 
L 73.44 270.72 
L 73.44 275.2 
L 73.44 279.68 
L 73.44 284.16 
L 73.44 288.64 
L 73.44 293.12 
L 73.44 297.6 
L 73.44 302.08 
L 73.44 306.56 
L 73.44 311.04 
L 73.44 315.52 
L 73.44 320 
L 73.44 324.48 
L 73.44 328.96 
L 73.44 333.44 
L 73.44 337.92 
L 73.44 342.4 
L 73.44 346.88 
L 73.44 351.36 
L 73.44 355.84 
L 73.44 360.32 
L 73.44 364.8 
L 73.44 369.28 
L 73.44 373.76 
L 73.44 378.24 
L 73.44 382.72 
L 73.44 387.2 
L 73.44 391.68 
L 73.44 396.16 
L 73.44 400.64 
L 73.44 405.12 
L 73.44 409.6 
L 73.44 414.08 
L 73.44 418.56 
L 73.44 423.04 
L 73.44 427.52 
L 73.44 432 
L 73.44 436.48 
L 73.44 440.96 
L 73.44 445.44 
L 73.44 449.92 
L 73.44 454.4 
L 73.44 458.88 
L 73.44 463.36 
L 73.44 467.84 
L 73.44 472.32 
L 73.44 476.8 
L 73.44 481.28 
L 73.44 485.76 
L 73.44 490.24 
L 73.44 494.72 
L 73.44 499.2 
L 73.44 503.68 
L 73.44 508.16 
L 73.44 512.64 
z
" style="fill:#f4987a;"/>
   </g>
   <g id="PathCollection_3">
    <defs>
     <path d="M 0 4.1833 
C 1.109424 4.1833 2.173559 3.742521 2.95804 2.95804 
C 3.742521 2.173559 4.1833 1.109424 4.1833 0 
C 4.1833 -1.109424 3.742521 -2.173559 2.95804 -2.95804 
C 2.173559 -3.742521 1.109424 -4.1833 0 -4.1833 
C -1.109424 -4.1833 -2.173559 -3.742521 -2.95804 -2.95804 
C -3.742521 -2.173559 -4.1833 -1.109424 -4.1833 0 
C -4.1833 1.109424 -3.742521 2.173559 -2.95804 2.95804 
C -2.173559 3.742521 -1.109424 4.1833 0 4.1833 
z
" id="C0_0_126638cab8"/>
    </defs>
    <g clip-path="url(#p8afbcece3f)">
     <use style="fill:#b40426;stroke:#b40426;" x="317.729876" xlink:href="#C0_0_126638cab8" y="198.562277"/>
    </g>
    <g clip-path="url(#p8afbcece3f)">
     <use style="fill:#3b4cc0;stroke:#3b4cc0;" x="202.462066" xlink:href="#C0_0_126638cab8" y="286.077742"/>
    </g>
    <g clip-path="url(#p8afbcece3f)">
     <use style="fill:#3b4cc0;stroke:#3b4cc0;" x="469.479835" xlink:href="#C0_0_126638cab8" y="115.116083"/>
    </g>
    <g clip-path="url(#p8afbcece3f)">
     <use style="fill:#b40426;stroke:#b40426;" x="129.1396" xlink:href="#C0_0_126638cab8" y="420.72364"/>
    </g>
    <g clip-path="url(#p8afbcece3f)">
     <use style="fill:#3b4cc0;stroke:#3b4cc0;" x="361.348371" xlink:href="#C0_0_126638cab8" y="389.125315"/>
    </g>
    <g clip-path="url(#p8afbcece3f)">
     <use style="fill:#b40426;stroke:#b40426;" x="268.790029" xlink:href="#C0_0_126638cab8" y="443.066019"/>
    </g>
    <g clip-path="url(#p8afbcece3f)">
     <use style="fill:#3b4cc0;stroke:#3b4cc0;" x="245.51301" xlink:href="#C0_0_126638cab8" y="97.335117"/>
    </g>
    <g clip-path="url(#p8afbcece3f)">
     <use style="fill:#b40426;stroke:#b40426;" x="504.365193" xlink:href="#C0_0_126638cab8" y="410.371294"/>
    </g>
    <g clip-path="url(#p8afbcece3f)">
     <use style="fill:#b40426;stroke:#b40426;" x="450.862836" xlink:href="#C0_0_126638cab8" y="271.545056"/>
    </g>
    <g clip-path="url(#p8afbcece3f)">
     <use style="fill:#3b4cc0;stroke:#3b4cc0;" x="106.093571" xlink:href="#C0_0_126638cab8" y="116.84578"/>
    </g>
    <g clip-path="url(#p8afbcece3f)">
     <use style="fill:#b40426;stroke:#b40426;" x="80.137495" xlink:href="#C0_0_126638cab8" y="323.87579"/>
    </g>
    <g clip-path="url(#p8afbcece3f)">
     <use style="fill:#b40426;stroke:#b40426;" x="433.106614" xlink:href="#C0_0_126638cab8" y="509.405798"/>
    </g>
   </g>
   <g id="matplotlib.axis_1">
    <g id="xtick_1">
     <g id="line2d_1">
      <defs>
       <path d="M 0 0 
L 0 3.5 
" id="mc8725cd074" style="stroke:#000000;stroke-width:0.8;"/>
      </defs>
      <g>
       <use style="stroke:#000000;stroke-width:0.8;" x="73.44" xlink:href="#mc8725cd074" y="512.64"/>
      </g>
     </g>
     <g id="text_1">
      <!-- 0.0 -->
      <defs>
       <path d="M 31.78125 66.40625 
Q 24.171875 66.40625 20.328125 58.90625 
Q 16.5 51.421875 16.5 36.375 
Q 16.5 21.390625 20.328125 13.890625 
Q 24.171875 6.390625 31.78125 6.390625 
Q 39.453125 6.390625 43.28125 13.890625 
Q 47.125 21.390625 47.125 36.375 
Q 47.125 51.421875 43.28125 58.90625 
Q 39.453125 66.40625 31.78125 66.40625 
z
M 31.78125 74.21875 
Q 44.046875 74.21875 50.515625 64.515625 
Q 56.984375 54.828125 56.984375 36.375 
Q 56.984375 17.96875 50.515625 8.265625 
Q 44.046875 -1.421875 31.78125 -1.421875 
Q 19.53125 -1.421875 13.0625 8.265625 
Q 6.59375 17.96875 6.59375 36.375 
Q 6.59375 54.828125 13.0625 64.515625 
Q 19.53125 74.21875 31.78125 74.21875 
z
" id="DejaVuSans-30"/>
       <path d="M 10.6875 12.40625 
L 21 12.40625 
L 21 0 
L 10.6875 0 
z
" id="DejaVuSans-2e"/>
      </defs>
      <g transform="translate(65.488438 527.238438)scale(0.1 -0.1)">
       <use xlink:href="#DejaVuSans-30"/>
       <use x="63.623047" xlink:href="#DejaVuSans-2e"/>
       <use x="95.410156" xlink:href="#DejaVuSans-30"/>
      </g>
     </g>
    </g>
    <g id="xtick_2">
     <g id="line2d_2">
      <g>
       <use style="stroke:#000000;stroke-width:0.8;" x="162.144" xlink:href="#mc8725cd074" y="512.64"/>
      </g>
     </g>
     <g id="text_2">
      <!-- 0.2 -->
      <defs>
       <path d="M 19.1875 8.296875 
L 53.609375 8.296875 
L 53.609375 0 
L 7.328125 0 
L 7.328125 8.296875 
Q 12.9375 14.109375 22.625 23.890625 
Q 32.328125 33.6875 34.8125 36.53125 
Q 39.546875 41.84375 41.421875 45.53125 
Q 43.3125 49.21875 43.3125 52.78125 
Q 43.3125 58.59375 39.234375 62.25 
Q 35.15625 65.921875 28.609375 65.921875 
Q 23.96875 65.921875 18.8125 64.3125 
Q 13.671875 62.703125 7.8125 59.421875 
L 7.8125 69.390625 
Q 13.765625 71.78125 18.9375 73 
Q 24.125 74.21875 28.421875 74.21875 
Q 39.75 74.21875 46.484375 68.546875 
Q 53.21875 62.890625 53.21875 53.421875 
Q 53.21875 48.921875 51.53125 44.890625 
Q 49.859375 40.875 45.40625 35.40625 
Q 44.1875 33.984375 37.640625 27.21875 
Q 31.109375 20.453125 19.1875 8.296875 
z
" id="DejaVuSans-32"/>
      </defs>
      <g transform="translate(154.192438 527.238438)scale(0.1 -0.1)">
       <use xlink:href="#DejaVuSans-30"/>
       <use x="63.623047" xlink:href="#DejaVuSans-2e"/>
       <use x="95.410156" xlink:href="#DejaVuSans-32"/>
      </g>
     </g>
    </g>
    <g id="xtick_3">
     <g id="line2d_3">
      <g>
       <use style="stroke:#000000;stroke-width:0.8;" x="250.848" xlink:href="#mc8725cd074" y="512.64"/>
      </g>
     </g>
     <g id="text_3">
      <!-- 0.4 -->
      <defs>
       <path d="M 37.796875 64.3125 
L 12.890625 25.390625 
L 37.796875 25.390625 
z
M 35.203125 72.90625 
L 47.609375 72.90625 
L 47.609375 25.390625 
L 58.015625 25.390625 
L 58.015625 17.1875 
L 47.609375 17.1875 
L 47.609375 0 
L 37.796875 0 
L 37.796875 17.1875 
L 4.890625 17.1875 
L 4.890625 26.703125 
z
" id="DejaVuSans-34"/>
      </defs>
      <g transform="translate(242.896438 527.238438)scale(0.1 -0.1)">
       <use xlink:href="#DejaVuSans-30"/>
       <use x="63.623047" xlink:href="#DejaVuSans-2e"/>
       <use x="95.410156" xlink:href="#DejaVuSans-34"/>
      </g>
     </g>
    </g>
    <g id="xtick_4">
     <g id="line2d_4">
      <g>
       <use style="stroke:#000000;stroke-width:0.8;" x="339.552" xlink:href="#mc8725cd074" y="512.64"/>
      </g>
     </g>
     <g id="text_4">
      <!-- 0.6 -->
      <defs>
       <path d="M 33.015625 40.375 
Q 26.375 40.375 22.484375 35.828125 
Q 18.609375 31.296875 18.609375 23.390625 
Q 18.609375 15.53125 22.484375 10.953125 
Q 26.375 6.390625 33.015625 6.390625 
Q 39.65625 6.390625 43.53125 10.953125 
Q 47.40625 15.53125 47.40625 23.390625 
Q 47.40625 31.296875 43.53125 35.828125 
Q 39.65625 40.375 33.015625 40.375 
z
M 52.59375 71.296875 
L 52.59375 62.3125 
Q 48.875 64.0625 45.09375 64.984375 
Q 41.3125 65.921875 37.59375 65.921875 
Q 27.828125 65.921875 22.671875 59.328125 
Q 17.53125 52.734375 16.796875 39.40625 
Q 19.671875 43.65625 24.015625 45.921875 
Q 28.375 48.1875 33.59375 48.1875 
Q 44.578125 48.1875 50.953125 41.515625 
Q 57.328125 34.859375 57.328125 23.390625 
Q 57.328125 12.15625 50.6875 5.359375 
Q 44.046875 -1.421875 33.015625 -1.421875 
Q 20.359375 -1.421875 13.671875 8.265625 
Q 6.984375 17.96875 6.984375 36.375 
Q 6.984375 53.65625 15.1875 63.9375 
Q 23.390625 74.21875 37.203125 74.21875 
Q 40.921875 74.21875 44.703125 73.484375 
Q 48.484375 72.75 52.59375 71.296875 
z
" id="DejaVuSans-36"/>
      </defs>
      <g transform="translate(331.600437 527.238438)scale(0.1 -0.1)">
       <use xlink:href="#DejaVuSans-30"/>
       <use x="63.623047" xlink:href="#DejaVuSans-2e"/>
       <use x="95.410156" xlink:href="#DejaVuSans-36"/>
      </g>
     </g>
    </g>
    <g id="xtick_5">
     <g id="line2d_5">
      <g>
       <use style="stroke:#000000;stroke-width:0.8;" x="428.256" xlink:href="#mc8725cd074" y="512.64"/>
      </g>
     </g>
     <g id="text_5">
      <!-- 0.8 -->
      <defs>
       <path d="M 31.78125 34.625 
Q 24.75 34.625 20.71875 30.859375 
Q 16.703125 27.09375 16.703125 20.515625 
Q 16.703125 13.921875 20.71875 10.15625 
Q 24.75 6.390625 31.78125 6.390625 
Q 38.8125 6.390625 42.859375 10.171875 
Q 46.921875 13.96875 46.921875 20.515625 
Q 46.921875 27.09375 42.890625 30.859375 
Q 38.875 34.625 31.78125 34.625 
z
M 21.921875 38.8125 
Q 15.578125 40.375 12.03125 44.71875 
Q 8.5 49.078125 8.5 55.328125 
Q 8.5 64.0625 14.71875 69.140625 
Q 20.953125 74.21875 31.78125 74.21875 
Q 42.671875 74.21875 48.875 69.140625 
Q 55.078125 64.0625 55.078125 55.328125 
Q 55.078125 49.078125 51.53125 44.71875 
Q 48 40.375 41.703125 38.8125 
Q 48.828125 37.15625 52.796875 32.3125 
Q 56.78125 27.484375 56.78125 20.515625 
Q 56.78125 9.90625 50.3125 4.234375 
Q 43.84375 -1.421875 31.78125 -1.421875 
Q 19.734375 -1.421875 13.25 4.234375 
Q 6.78125 9.90625 6.78125 20.515625 
Q 6.78125 27.484375 10.78125 32.3125 
Q 14.796875 37.15625 21.921875 38.8125 
z
M 18.3125 54.390625 
Q 18.3125 48.734375 21.84375 45.5625 
Q 25.390625 42.390625 31.78125 42.390625 
Q 38.140625 42.390625 41.71875 45.5625 
Q 45.3125 48.734375 45.3125 54.390625 
Q 45.3125 60.0625 41.71875 63.234375 
Q 38.140625 66.40625 31.78125 66.40625 
Q 25.390625 66.40625 21.84375 63.234375 
Q 18.3125 60.0625 18.3125 54.390625 
z
" id="DejaVuSans-38"/>
      </defs>
      <g transform="translate(420.304438 527.238438)scale(0.1 -0.1)">
       <use xlink:href="#DejaVuSans-30"/>
       <use x="63.623047" xlink:href="#DejaVuSans-2e"/>
       <use x="95.410156" xlink:href="#DejaVuSans-38"/>
      </g>
     </g>
    </g>
    <g id="xtick_6">
     <g id="line2d_6">
      <g>
       <use style="stroke:#000000;stroke-width:0.8;" x="516.96" xlink:href="#mc8725cd074" y="512.64"/>
      </g>
     </g>
     <g id="text_6">
      <!-- 1.0 -->
      <defs>
       <path d="M 12.40625 8.296875 
L 28.515625 8.296875 
L 28.515625 63.921875 
L 10.984375 60.40625 
L 10.984375 69.390625 
L 28.421875 72.90625 
L 38.28125 72.90625 
L 38.28125 8.296875 
L 54.390625 8.296875 
L 54.390625 0 
L 12.40625 0 
z
" id="DejaVuSans-31"/>
      </defs>
      <g transform="translate(509.008438 527.238438)scale(0.1 -0.1)">
       <use xlink:href="#DejaVuSans-31"/>
       <use x="63.623047" xlink:href="#DejaVuSans-2e"/>
       <use x="95.410156" xlink:href="#DejaVuSans-30"/>
      </g>
     </g>
    </g>
   </g>
   <g id="matplotlib.axis_2">
    <g id="ytick_1">
     <g id="line2d_7">
      <defs>
       <path d="M 0 0 
L -3.5 0 
" id="me9527f4750" style="stroke:#000000;stroke-width:0.8;"/>
      </defs>
      <g>
       <use style="stroke:#000000;stroke-width:0.8;" x="72" xlink:href="#me9527f4750" y="512.64"/>
      </g>
     </g>
     <g id="text_7">
      <!-- 0.0 -->
      <g transform="translate(49.096875 516.439219)scale(0.1 -0.1)">
       <use xlink:href="#DejaVuSans-30"/>
       <use x="63.623047" xlink:href="#DejaVuSans-2e"/>
       <use x="95.410156" xlink:href="#DejaVuSans-30"/>
      </g>
     </g>
    </g>
    <g id="ytick_2">
     <g id="line2d_8">
      <g>
       <use style="stroke:#000000;stroke-width:0.8;" x="72" xlink:href="#me9527f4750" y="423.936"/>
      </g>
     </g>
     <g id="text_8">
      <!-- 0.2 -->
      <g transform="translate(49.096875 427.735219)scale(0.1 -0.1)">
       <use xlink:href="#DejaVuSans-30"/>
       <use x="63.623047" xlink:href="#DejaVuSans-2e"/>
       <use x="95.410156" xlink:href="#DejaVuSans-32"/>
      </g>
     </g>
    </g>
    <g id="ytick_3">
     <g id="line2d_9">
      <g>
       <use style="stroke:#000000;stroke-width:0.8;" x="72" xlink:href="#me9527f4750" y="335.232"/>
      </g>
     </g>
     <g id="text_9">
      <!-- 0.4 -->
      <g transform="translate(49.096875 339.031219)scale(0.1 -0.1)">
       <use xlink:href="#DejaVuSans-30"/>
       <use x="63.623047" xlink:href="#DejaVuSans-2e"/>
       <use x="95.410156" xlink:href="#DejaVuSans-34"/>
      </g>
     </g>
    </g>
    <g id="ytick_4">
     <g id="line2d_10">
      <g>
       <use style="stroke:#000000;stroke-width:0.8;" x="72" xlink:href="#me9527f4750" y="246.528"/>
      </g>
     </g>
     <g id="text_10">
      <!-- 0.6 -->
      <g transform="translate(49.096875 250.327219)scale(0.1 -0.1)">
       <use xlink:href="#DejaVuSans-30"/>
       <use x="63.623047" xlink:href="#DejaVuSans-2e"/>
       <use x="95.410156" xlink:href="#DejaVuSans-36"/>
      </g>
     </g>
    </g>
    <g id="ytick_5">
     <g id="line2d_11">
      <g>
       <use style="stroke:#000000;stroke-width:0.8;" x="72" xlink:href="#me9527f4750" y="157.824"/>
      </g>
     </g>
     <g id="text_11">
      <!-- 0.8 -->
      <g transform="translate(49.096875 161.623219)scale(0.1 -0.1)">
       <use xlink:href="#DejaVuSans-30"/>
       <use x="63.623047" xlink:href="#DejaVuSans-2e"/>
       <use x="95.410156" xlink:href="#DejaVuSans-38"/>
      </g>
     </g>
    </g>
    <g id="ytick_6">
     <g id="line2d_12">
      <g>
       <use style="stroke:#000000;stroke-width:0.8;" x="72" xlink:href="#me9527f4750" y="69.12"/>
      </g>
     </g>
     <g id="text_12">
      <!-- 1.0 -->
      <g transform="translate(49.096875 72.919219)scale(0.1 -0.1)">
       <use xlink:href="#DejaVuSans-31"/>
       <use x="63.623047" xlink:href="#DejaVuSans-2e"/>
       <use x="95.410156" xlink:href="#DejaVuSans-30"/>
      </g>
     </g>
    </g>
   </g>
   <g id="patch_3">
    <path d="M 72 512.64 
L 72 69.12 
" style="fill:none;stroke:#000000;stroke-linecap:square;stroke-linejoin:miter;stroke-width:0.8;"/>
   </g>
   <g id="patch_4">
    <path d="M 518.4 512.64 
L 518.4 69.12 
" style="fill:none;stroke:#000000;stroke-linecap:square;stroke-linejoin:miter;stroke-width:0.8;"/>
   </g>
   <g id="patch_5">
    <path d="M 72 512.64 
L 518.4 512.64 
" style="fill:none;stroke:#000000;stroke-linecap:square;stroke-linejoin:miter;stroke-width:0.8;"/>
   </g>
   <g id="patch_6">
    <path d="M 72 69.12 
L 518.4 69.12 
" style="fill:none;stroke:#000000;stroke-linecap:square;stroke-linejoin:miter;stroke-width:0.8;"/>
   </g>
  </g>
 </g>
 <defs>
  <clipPath id="p8afbcece3f">
   <rect height="443.52" width="446.4" x="72" y="69.12"/>
  </clipPath>
 </defs>
</svg>
