<?xml version="1.0" encoding="utf-8" standalone="no"?>
<!DOCTYPE svg PUBLIC "-//W3C//DTD SVG 1.1//EN"
  "http://www.w3.org/Graphics/SVG/1.1/DTD/svg11.dtd">
<!-- Created with matplotlib (http://matplotlib.org/) -->
<svg height="576pt" version="1.1" viewBox="0 0 576 576" width="576pt" xmlns="http://www.w3.org/2000/svg" xmlns:xlink="http://www.w3.org/1999/xlink">
 <defs>
  <style type="text/css">
*{stroke-linecap:butt;stroke-linejoin:round;}
  </style>
 </defs>
 <g id="figure_1">
  <g id="patch_1">
   <path d="M 0 576 
L 576 576 
L 576 0 
L 0 0 
z
" style="fill:#ffffff;"/>
  </g>
  <g id="axes_1">
   <g id="patch_2">
    <path d="M 72 512.64 
L 518.4 512.64 
L 518.4 69.12 
L 72 69.12 
z
" style="fill:#ffffff;"/>
   </g>
   <g id="PathCollection_1">
    <path clip-path="url(#pec9bdc4972)" d="M 369.12 450.834651 
L 373.6 453.468168 
L 378.08 452.660448 
L 382.56 451.44415 
L 387.04 450.227847 
L 388.173932 449.92 
L 391.52 449.01158 
L 396 447.795251 
L 400.48 446.578977 
L 404.675173 445.44 
L 404.96 445.362671 
L 409.44 444.146385 
L 413.92 442.930114 
L 418.4 441.713778 
L 421.176434 440.96 
L 422.88 440.497502 
L 427.36 439.187211 
L 431.517617 436.48 
L 431.84 435.332598 
L 432.470125 432 
L 432.471704 427.52 
L 432.473271 423.04 
L 432.47487 418.56 
L 432.476422 414.08 
L 432.478004 409.6 
L 432.479597 405.12 
L 432.481188 400.64 
L 432.482783 396.16 
L 432.484372 391.68 
L 432.485894 387.2 
L 432.487523 382.72 
L 431.958131 378.24 
L 431.84 378.039439 
L 427.36 375.134491 
L 425.240266 373.76 
L 422.88 372.229547 
L 418.4 369.324598 
L 418.33122 369.28 
L 413.92 366.419653 
L 411.422184 364.8 
L 409.44 363.514704 
L 404.96 360.609752 
L 404.513149 360.32 
L 400.48 357.704845 
L 397.603976 355.84 
L 396 354.799941 
L 391.52 351.894915 
L 390.695063 351.36 
L 387.04 348.98994 
L 383.786072 346.88 
L 382.56 346.084991 
L 378.08 343.180087 
L 376.876947 342.4 
L 373.6 340.275146 
L 369.967848 337.92 
L 369.12 337.370237 
L 364.64 334.46527 
L 363.05881 333.44 
L 360.16 331.560372 
L 356.149778 328.96 
L 355.68 328.655375 
L 351.2 325.750445 
L 349.240749 324.48 
L 346.72 322.845443 
L 342.331723 320 
L 342.24 319.940524 
L 337.76 317.035541 
L 335.422712 315.52 
L 333.28 314.130616 
L 328.8 311.225627 
L 328.513727 311.04 
L 324.32 308.320704 
L 321.604632 306.56 
L 319.84 305.41578 
L 315.36 302.510836 
L 314.695564 302.08 
L 310.88 299.605889 
L 307.786563 297.6 
L 306.4 296.700918 
L 301.92 293.12344 
L 301.917099 293.12 
L 298.138918 288.64 
L 297.44 287.811259 
L 294.360687 284.16 
L 292.96 282.49914 
L 290.582441 279.68 
L 288.48 277.18704 
L 286.804223 275.2 
L 284 271.874944 
L 283.025975 270.72 
L 279.52 266.562816 
L 279.247751 266.24 
L 275.469533 261.76 
L 275.04 261.250693 
L 271.691313 257.28 
L 270.56 255.938554 
L 267.913063 252.8 
L 266.08 250.626464 
L 264.134829 248.32 
L 261.6 245.314343 
L 260.356614 243.84 
L 257.12 240.002221 
L 256.578381 239.36 
L 252.800146 234.88 
L 252.64 234.690108 
L 249.02196 230.4 
L 248.16 229.377942 
L 245.243713 225.92 
L 243.68 224.065839 
L 241.465481 221.44 
L 239.2 218.75371 
L 237.687263 216.96 
L 234.72 213.441599 
L 233.909042 212.48 
L 230.24 208.129493 
L 230.130791 208 
L 226.35258 203.52 
L 225.76 202.817359 
L 222.574314 199.04 
L 221.28 197.50527 
L 218.796109 194.56 
L 216.8 192.193138 
L 215.017877 190.08 
L 212.32 186.881006 
L 211.239658 185.6 
L 207.84 181.568867 
L 207.461448 181.12 
L 207.84 179.032162 
L 208.243206 176.64 
L 211.7101 172.16 
L 212.32 171.371883 
L 215.177048 167.68 
L 216.8 165.582816 
L 220.512491 163.2 
L 221.28 162.971125 
L 225.76 161.849724 
L 230.24 160.728342 
L 234.72 159.606951 
L 238.263357 158.72 
L 239.2 158.485547 
L 243.68 157.364161 
L 248.16 156.242776 
L 252.64 155.121387 
L 256.161172 154.24 
L 257.12 153.999994 
L 261.6 152.878619 
L 266.08 151.757204 
L 270.56 150.635855 
L 274.058932 149.76 
L 275.04 149.51442 
L 279.52 148.393073 
L 284 147.271678 
L 288.48 146.150316 
L 291.956972 145.28 
L 292.96 145.028931 
L 297.44 144.064501 
L 301.92 143.503127 
L 306.4 143.775172 
L 310.88 144.452157 
L 315.36 145.18102 
L 315.968364 145.28 
L 319.84 145.909912 
L 324.32 146.638787 
L 328.8 147.367674 
L 333.28 148.096564 
L 337.76 148.825441 
L 342.24 149.554325 
L 343.504157 149.76 
L 346.72 150.283212 
L 351.2 151.012102 
L 355.68 151.740981 
L 360.16 152.469866 
L 364.64 153.19879 
L 369.12 153.927644 
L 371.039892 154.24 
L 373.6 154.656516 
L 378.08 155.385424 
L 382.56 156.114291 
L 387.04 156.843197 
L 391.52 157.57207 
L 396 158.300952 
L 398.575634 158.72 
L 400.48 159.029838 
L 404.96 159.758738 
L 409.44 160.487619 
L 413.92 161.21652 
L 418.4 161.945386 
L 422.88 162.674296 
L 426.111222 163.2 
L 427.36 163.403168 
L 431.84 164.132059 
L 436.32 164.860949 
L 440.8 165.589826 
L 445.28 166.318723 
L 449.76 167.047589 
L 453.647019 167.68 
L 454.24 167.864657 
L 458.72 169.338144 
L 463.2 170.965692 
L 466.214639 172.16 
L 467.68 172.76638 
L 472.16 174.620304 
L 476.64 176.474231 
L 477.040592 176.64 
L 481.12 178.32811 
L 485.6 180.182081 
L 487.866508 181.12 
L 490.08 182.035976 
L 494.56 183.889905 
L 498.692472 185.6 
L 499.04 185.743811 
L 503.52 187.597718 
L 508 189.451626 
L 509.51849 190.08 
L 512.48 191.305508 
L 516.96 193.159437 
L 516.96 190.08 
L 516.96 185.6 
L 516.96 181.12 
L 516.96 176.64 
L 516.96 172.16 
L 516.96 167.68 
L 516.96 163.2 
L 516.96 158.72 
L 516.96 154.24 
L 516.96 149.76 
L 516.96 145.28 
L 516.96 140.8 
L 516.96 136.32 
L 516.96 131.84 
L 516.96 127.36 
L 516.96 122.88 
L 516.96 118.4 
L 516.96 113.92 
L 516.96 109.44 
L 516.96 104.96 
L 516.96 100.48 
L 516.96 96 
L 516.96 91.52 
L 516.96 87.04 
L 516.96 82.56 
L 516.96 78.08 
L 516.96 73.6 
L 516.96 69.12 
L 512.48 69.12 
L 508 69.12 
L 503.52 69.12 
L 499.04 69.12 
L 494.56 69.12 
L 490.08 69.12 
L 485.6 69.12 
L 481.12 69.12 
L 476.64 69.12 
L 472.16 69.12 
L 467.68 69.12 
L 463.2 69.12 
L 458.72 69.12 
L 454.24 69.12 
L 449.76 69.12 
L 445.28 69.12 
L 440.8 69.12 
L 436.32 69.12 
L 431.84 69.12 
L 427.36 69.12 
L 422.88 69.12 
L 418.4 69.12 
L 413.92 69.12 
L 409.44 69.12 
L 404.96 69.12 
L 400.48 69.12 
L 396 69.12 
L 391.52 69.12 
L 387.04 69.12 
L 382.56 69.12 
L 378.08 69.12 
L 373.6 69.12 
L 369.12 69.12 
L 364.64 69.12 
L 360.16 69.12 
L 355.68 69.12 
L 351.2 69.12 
L 346.72 69.12 
L 342.24 69.12 
L 337.76 69.12 
L 333.28 69.12 
L 328.8 69.12 
L 324.32 69.12 
L 319.84 69.12 
L 315.36 69.12 
L 310.88 69.12 
L 306.4 69.12 
L 301.92 69.12 
L 297.44 69.12 
L 292.96 69.12 
L 288.48 69.12 
L 284 69.12 
L 279.52 69.12 
L 275.04 69.12 
L 270.56 69.12 
L 266.08 69.12 
L 261.6 69.12 
L 257.12 69.12 
L 252.64 69.12 
L 248.16 69.12 
L 243.68 69.12 
L 239.2 69.12 
L 234.72 69.12 
L 230.24 69.12 
L 225.76 69.12 
L 221.28 69.12 
L 216.8 69.12 
L 212.32 69.12 
L 207.84 69.12 
L 203.36 69.12 
L 198.88 69.12 
L 194.4 69.12 
L 189.92 69.12 
L 185.44 69.12 
L 180.96 69.12 
L 176.48 69.12 
L 172 69.12 
L 167.52 69.12 
L 163.04 69.12 
L 158.56 69.12 
L 154.08 69.12 
L 149.6 69.12 
L 145.12 69.12 
L 140.64 69.12 
L 136.16 69.12 
L 131.68 69.12 
L 127.2 69.12 
L 122.72 69.12 
L 118.24 69.12 
L 113.76 69.12 
L 109.28 69.12 
L 104.8 69.12 
L 100.32 69.12 
L 95.84 69.12 
L 91.36 69.12 
L 86.88 69.12 
L 82.4 69.12 
L 77.92 69.12 
L 73.44 69.12 
L 73.44 73.6 
L 73.44 78.08 
L 73.44 82.56 
L 73.44 87.04 
L 73.44 91.52 
L 73.44 96 
L 73.44 100.48 
L 73.44 104.96 
L 73.44 109.44 
L 73.44 113.92 
L 73.44 118.4 
L 73.44 122.88 
L 73.44 127.36 
L 73.44 131.84 
L 73.44 136.32 
L 73.44 140.8 
L 73.44 145.28 
L 73.44 149.76 
L 73.44 154.24 
L 73.44 158.72 
L 73.44 163.2 
L 73.44 167.68 
L 73.44 172.16 
L 73.44 176.64 
L 73.44 181.12 
L 73.44 185.6 
L 73.44 190.08 
L 73.44 194.56 
L 73.44 199.04 
L 73.44 203.52 
L 73.44 208 
L 73.44 212.48 
L 73.44 216.96 
L 73.44 221.44 
L 73.44 225.92 
L 73.44 230.4 
L 73.44 233.622506 
L 74.686138 234.88 
L 77.92 238.143354 
L 79.125655 239.36 
L 82.4 242.664194 
L 83.565187 243.84 
L 86.88 247.18501 
L 88.004739 248.32 
L 91.36 251.705835 
L 92.444286 252.8 
L 95.84 256.226648 
L 96.883838 257.28 
L 100.32 260.74748 
L 101.323377 261.76 
L 104.8 265.268348 
L 105.762868 266.24 
L 109.28 269.789158 
L 110.202443 270.72 
L 113.76 274.309988 
L 114.641971 275.2 
L 118.24 278.830817 
L 119.081516 279.68 
L 122.72 283.351628 
L 123.521072 284.16 
L 127.2 287.872442 
L 127.960628 288.64 
L 131.68 292.393271 
L 132.400165 293.12 
L 136.16 296.914146 
L 136.839659 297.6 
L 140.64 301.434966 
L 141.279208 302.08 
L 145.12 305.955796 
L 145.718747 306.56 
L 149.6 310.476623 
L 150.158291 311.04 
L 154.08 314.997455 
L 154.597823 315.52 
L 158.56 319.518256 
L 159.037393 320 
L 163.04 324.0391 
L 163.476918 324.48 
L 167.52 328.559908 
L 168.143194 328.96 
L 172 331.805819 
L 175.000815 333.44 
L 176.48 334.245525 
L 180.96 336.685237 
L 183.227407 337.92 
L 185.44 339.124915 
L 189.92 341.564641 
L 191.453948 342.4 
L 194.4 344.00436 
L 198.88 346.44405 
L 199.680522 346.88 
L 203.36 348.883778 
L 207.84 351.32347 
L 207.907079 351.36 
L 212.32 353.763183 
L 216.133621 355.84 
L 216.8 356.202893 
L 221.28 358.642595 
L 224.360192 360.32 
L 225.76 361.082307 
L 230.24 363.52201 
L 232.586737 364.8 
L 234.72 365.961735 
L 239.2 368.401419 
L 240.813329 369.28 
L 243.68 370.841137 
L 248.16 373.28082 
L 249.039898 373.76 
L 252.64 375.720568 
L 257.12 378.160276 
L 257.266395 378.24 
L 261.6 380.59996 
L 265.492972 382.72 
L 266.08 383.039687 
L 270.56 385.479387 
L 273.719553 387.2 
L 275.04 387.919077 
L 279.52 390.35876 
L 281.946146 391.68 
L 284 392.798518 
L 288.48 395.238202 
L 290.172667 396.16 
L 292.96 397.677923 
L 297.44 400.117636 
L 298.39922 400.64 
L 301.92 402.557328 
L 305.372943 405.12 
L 306.4 405.880302 
L 310.516167 409.6 
L 310.88 409.928789 
L 315.36 413.977248 
L 315.478595 414.08 
L 319.84 418.005072 
L 320.604825 418.56 
L 324.32 421.824922 
L 326.140074 423.04 
L 328.8 424.953049 
L 332.798917 427.52 
L 333.28 427.828808 
L 337.76 430.704529 
L 339.778167 432 
L 342.24 433.580282 
L 346.72 436.455994 
L 346.757398 436.48 
L 351.2 439.331741 
L 353.736612 440.96 
L 355.68 442.207465 
L 360.16 445.083195 
L 360.715849 445.44 
L 364.64 447.95894 
L 367.695095 449.92 
z
" style="fill:#8db0fe;"/>
   </g>
   <g id="PathCollection_2">
    <path clip-path="url(#pec9bdc4972)" d="M 77.92 512.64 
L 82.4 512.64 
L 86.88 512.64 
L 91.36 512.64 
L 95.84 512.64 
L 100.32 512.64 
L 104.8 512.64 
L 109.28 512.64 
L 113.76 512.64 
L 118.24 512.64 
L 122.72 512.64 
L 127.2 512.64 
L 131.68 512.64 
L 136.16 512.64 
L 140.64 512.64 
L 145.12 512.64 
L 149.6 512.64 
L 154.08 512.64 
L 158.56 512.64 
L 163.04 512.64 
L 167.52 512.64 
L 172 512.64 
L 176.48 512.64 
L 180.96 512.64 
L 185.44 512.64 
L 189.92 512.64 
L 194.4 512.64 
L 198.88 512.64 
L 203.36 512.64 
L 207.84 512.64 
L 212.32 512.64 
L 216.8 512.64 
L 221.28 512.64 
L 225.76 512.64 
L 230.24 512.64 
L 234.72 512.64 
L 239.2 512.64 
L 243.68 512.64 
L 248.16 512.64 
L 252.64 512.64 
L 257.12 512.64 
L 261.6 512.64 
L 266.08 512.64 
L 270.56 512.64 
L 275.04 512.64 
L 279.52 512.64 
L 284 512.64 
L 288.48 512.64 
L 292.96 512.64 
L 297.44 512.64 
L 301.92 512.64 
L 306.4 512.64 
L 310.88 512.64 
L 315.36 512.64 
L 319.84 512.64 
L 324.32 512.64 
L 328.8 512.64 
L 333.28 512.64 
L 337.76 512.64 
L 342.24 512.64 
L 346.72 512.64 
L 351.2 512.64 
L 355.68 512.64 
L 360.16 512.64 
L 364.64 512.64 
L 369.12 512.64 
L 373.6 512.64 
L 378.08 512.64 
L 382.56 512.64 
L 387.04 512.64 
L 391.52 512.64 
L 396 512.64 
L 400.48 512.64 
L 404.96 512.64 
L 409.44 512.64 
L 413.92 512.64 
L 418.4 512.64 
L 422.88 512.64 
L 427.36 512.64 
L 431.84 512.64 
L 436.32 512.64 
L 440.8 512.64 
L 445.28 512.64 
L 449.76 512.64 
L 454.24 512.64 
L 458.72 512.64 
L 463.2 512.64 
L 467.68 512.64 
L 472.16 512.64 
L 476.64 512.64 
L 481.12 512.64 
L 485.6 512.64 
L 490.08 512.64 
L 494.56 512.64 
L 499.04 512.64 
L 503.52 512.64 
L 508 512.64 
L 512.48 512.64 
L 516.96 512.64 
L 516.96 508.16 
L 516.96 503.68 
L 516.96 499.2 
L 516.96 494.72 
L 516.96 490.24 
L 516.96 485.76 
L 516.96 481.28 
L 516.96 476.8 
L 516.96 472.32 
L 516.96 467.84 
L 516.96 463.36 
L 516.96 458.88 
L 516.96 454.4 
L 516.96 449.92 
L 516.96 445.44 
L 516.96 440.96 
L 516.96 436.48 
L 516.96 432 
L 516.96 427.52 
L 516.96 423.04 
L 516.96 418.56 
L 516.96 414.08 
L 516.96 409.6 
L 516.96 405.12 
L 516.96 400.64 
L 516.96 396.16 
L 516.96 391.68 
L 516.96 387.2 
L 516.96 382.72 
L 516.96 378.24 
L 516.96 373.76 
L 516.96 369.28 
L 516.96 364.8 
L 516.96 360.32 
L 516.96 355.84 
L 516.96 351.36 
L 516.96 346.88 
L 516.96 342.4 
L 516.96 337.92 
L 516.96 333.44 
L 516.96 328.96 
L 516.96 324.48 
L 516.96 320 
L 516.96 315.52 
L 516.96 311.04 
L 516.96 306.56 
L 516.96 302.08 
L 516.96 297.6 
L 516.96 293.12 
L 516.96 288.64 
L 516.96 284.16 
L 516.96 279.68 
L 516.96 275.2 
L 516.96 270.72 
L 516.96 266.24 
L 516.96 261.76 
L 516.96 257.28 
L 516.96 252.8 
L 516.96 248.32 
L 516.96 243.84 
L 516.96 239.36 
L 516.96 234.88 
L 516.96 230.4 
L 516.96 225.92 
L 516.96 221.44 
L 516.96 216.96 
L 516.96 212.48 
L 516.96 208 
L 516.96 203.52 
L 516.96 199.04 
L 516.96 194.56 
L 516.96 193.159437 
L 512.48 191.305508 
L 509.51849 190.08 
L 508 189.451626 
L 503.52 187.597718 
L 499.04 185.743811 
L 498.692472 185.6 
L 494.56 183.889905 
L 490.08 182.035976 
L 487.866508 181.12 
L 485.6 180.182081 
L 481.12 178.32811 
L 477.040592 176.64 
L 476.64 176.474231 
L 472.16 174.620304 
L 467.68 172.76638 
L 466.214639 172.16 
L 463.2 170.965692 
L 458.72 169.338144 
L 454.24 167.864657 
L 453.647019 167.68 
L 449.76 167.047589 
L 445.28 166.318723 
L 440.8 165.589826 
L 436.32 164.860949 
L 431.84 164.132059 
L 427.36 163.403168 
L 426.111222 163.2 
L 422.88 162.674296 
L 418.4 161.945386 
L 413.92 161.21652 
L 409.44 160.487619 
L 404.96 159.758738 
L 400.48 159.029838 
L 398.575634 158.72 
L 396 158.300952 
L 391.52 157.57207 
L 387.04 156.843197 
L 382.56 156.114291 
L 378.08 155.385424 
L 373.6 154.656516 
L 371.039892 154.24 
L 369.12 153.927644 
L 364.64 153.19879 
L 360.16 152.469866 
L 355.68 151.740981 
L 351.2 151.012102 
L 346.72 150.283212 
L 343.504157 149.76 
L 342.24 149.554325 
L 337.76 148.825441 
L 333.28 148.096564 
L 328.8 147.367674 
L 324.32 146.638787 
L 319.84 145.909912 
L 315.968364 145.28 
L 315.36 145.18102 
L 310.88 144.452157 
L 306.4 143.775172 
L 301.92 143.503127 
L 297.44 144.064501 
L 292.96 145.028931 
L 291.956972 145.28 
L 288.48 146.150316 
L 284 147.271678 
L 279.52 148.393073 
L 275.04 149.51442 
L 274.058932 149.76 
L 270.56 150.635855 
L 266.08 151.757204 
L 261.6 152.878619 
L 257.12 153.999994 
L 256.161172 154.24 
L 252.64 155.121387 
L 248.16 156.242776 
L 243.68 157.364161 
L 239.2 158.485547 
L 238.263357 158.72 
L 234.72 159.606951 
L 230.24 160.728342 
L 225.76 161.849724 
L 221.28 162.971125 
L 220.512491 163.2 
L 216.8 165.582816 
L 215.177048 167.68 
L 212.32 171.371883 
L 211.7101 172.16 
L 208.243206 176.64 
L 207.84 179.032162 
L 207.461448 181.12 
L 207.84 181.568867 
L 211.239658 185.6 
L 212.32 186.881006 
L 215.017877 190.08 
L 216.8 192.193138 
L 218.796109 194.56 
L 221.28 197.50527 
L 222.574314 199.04 
L 225.76 202.817359 
L 226.35258 203.52 
L 230.130791 208 
L 230.24 208.129493 
L 233.909042 212.48 
L 234.72 213.441599 
L 237.687263 216.96 
L 239.2 218.75371 
L 241.465481 221.44 
L 243.68 224.065839 
L 245.243713 225.92 
L 248.16 229.377942 
L 249.02196 230.4 
L 252.64 234.690108 
L 252.800146 234.88 
L 256.578381 239.36 
L 257.12 240.002221 
L 260.356614 243.84 
L 261.6 245.314343 
L 264.134829 248.32 
L 266.08 250.626464 
L 267.913063 252.8 
L 270.56 255.938554 
L 271.691313 257.28 
L 275.04 261.250693 
L 275.469533 261.76 
L 279.247751 266.24 
L 279.52 266.562816 
L 283.025975 270.72 
L 284 271.874944 
L 286.804223 275.2 
L 288.48 277.18704 
L 290.582441 279.68 
L 292.96 282.49914 
L 294.360687 284.16 
L 297.44 287.811259 
L 298.138918 288.64 
L 301.917099 293.12 
L 301.92 293.12344 
L 306.4 296.700918 
L 307.786563 297.6 
L 310.88 299.605889 
L 314.695564 302.08 
L 315.36 302.510836 
L 319.84 305.41578 
L 321.604632 306.56 
L 324.32 308.320704 
L 328.513727 311.04 
L 328.8 311.225627 
L 333.28 314.130616 
L 335.422712 315.52 
L 337.76 317.035541 
L 342.24 319.940524 
L 342.331723 320 
L 346.72 322.845443 
L 349.240749 324.48 
L 351.2 325.750445 
L 355.68 328.655375 
L 356.149778 328.96 
L 360.16 331.560372 
L 363.05881 333.44 
L 364.64 334.46527 
L 369.12 337.370237 
L 369.967848 337.92 
L 373.6 340.275146 
L 376.876947 342.4 
L 378.08 343.180087 
L 382.56 346.084991 
L 383.786072 346.88 
L 387.04 348.98994 
L 390.695063 351.36 
L 391.52 351.894915 
L 396 354.799941 
L 397.603976 355.84 
L 400.48 357.704845 
L 404.513149 360.32 
L 404.96 360.609752 
L 409.44 363.514704 
L 411.422184 364.8 
L 413.92 366.419653 
L 418.33122 369.28 
L 418.4 369.324598 
L 422.88 372.229547 
L 425.240266 373.76 
L 427.36 375.134491 
L 431.84 378.039439 
L 431.958131 378.24 
L 432.487523 382.72 
L 432.485894 387.2 
L 432.484372 391.68 
L 432.482783 396.16 
L 432.481188 400.64 
L 432.479597 405.12 
L 432.478004 409.6 
L 432.476422 414.08 
L 432.47487 418.56 
L 432.473271 423.04 
L 432.471704 427.52 
L 432.470125 432 
L 431.84 435.332598 
L 431.517617 436.48 
L 427.36 439.187211 
L 422.88 440.497502 
L 421.176434 440.96 
L 418.4 441.713778 
L 413.92 442.930114 
L 409.44 444.146385 
L 404.96 445.362671 
L 404.675173 445.44 
L 400.48 446.578977 
L 396 447.795251 
L 391.52 449.01158 
L 388.173932 449.92 
L 387.04 450.227847 
L 382.56 451.44415 
L 378.08 452.660448 
L 373.6 453.468168 
L 369.12 450.834651 
L 367.695095 449.92 
L 364.64 447.95894 
L 360.715849 445.44 
L 360.16 445.083195 
L 355.68 442.207465 
L 353.736612 440.96 
L 351.2 439.331741 
L 346.757398 436.48 
L 346.72 436.455994 
L 342.24 433.580282 
L 339.778167 432 
L 337.76 430.704529 
L 333.28 427.828808 
L 332.798917 427.52 
L 328.8 424.953049 
L 326.140074 423.04 
L 324.32 421.824922 
L 320.604825 418.56 
L 319.84 418.005072 
L 315.478595 414.08 
L 315.36 413.977248 
L 310.88 409.928789 
L 310.516167 409.6 
L 306.4 405.880302 
L 305.372943 405.12 
L 301.92 402.557328 
L 298.39922 400.64 
L 297.44 400.117636 
L 292.96 397.677923 
L 290.172667 396.16 
L 288.48 395.238202 
L 284 392.798518 
L 281.946146 391.68 
L 279.52 390.35876 
L 275.04 387.919077 
L 273.719553 387.2 
L 270.56 385.479387 
L 266.08 383.039687 
L 265.492972 382.72 
L 261.6 380.59996 
L 257.266395 378.24 
L 257.12 378.160276 
L 252.64 375.720568 
L 249.039898 373.76 
L 248.16 373.28082 
L 243.68 370.841137 
L 240.813329 369.28 
L 239.2 368.401419 
L 234.72 365.961735 
L 232.586737 364.8 
L 230.24 363.52201 
L 225.76 361.082307 
L 224.360192 360.32 
L 221.28 358.642595 
L 216.8 356.202893 
L 216.133621 355.84 
L 212.32 353.763183 
L 207.907079 351.36 
L 207.84 351.32347 
L 203.36 348.883778 
L 199.680522 346.88 
L 198.88 346.44405 
L 194.4 344.00436 
L 191.453948 342.4 
L 189.92 341.564641 
L 185.44 339.124915 
L 183.227407 337.92 
L 180.96 336.685237 
L 176.48 334.245525 
L 175.000815 333.44 
L 172 331.805819 
L 168.143194 328.96 
L 167.52 328.559908 
L 163.476918 324.48 
L 163.04 324.0391 
L 159.037393 320 
L 158.56 319.518256 
L 154.597823 315.52 
L 154.08 314.997455 
L 150.158291 311.04 
L 149.6 310.476623 
L 145.718747 306.56 
L 145.12 305.955796 
L 141.279208 302.08 
L 140.64 301.434966 
L 136.839659 297.6 
L 136.16 296.914146 
L 132.400165 293.12 
L 131.68 292.393271 
L 127.960628 288.64 
L 127.2 287.872442 
L 123.521072 284.16 
L 122.72 283.351628 
L 119.081516 279.68 
L 118.24 278.830817 
L 114.641971 275.2 
L 113.76 274.309988 
L 110.202443 270.72 
L 109.28 269.789158 
L 105.762868 266.24 
L 104.8 265.268348 
L 101.323377 261.76 
L 100.32 260.74748 
L 96.883838 257.28 
L 95.84 256.226648 
L 92.444286 252.8 
L 91.36 251.705835 
L 88.004739 248.32 
L 86.88 247.18501 
L 83.565187 243.84 
L 82.4 242.664194 
L 79.125655 239.36 
L 77.92 238.143354 
L 74.686138 234.88 
L 73.44 233.622506 
L 73.44 234.88 
L 73.44 239.36 
L 73.44 243.84 
L 73.44 248.32 
L 73.44 252.8 
L 73.44 257.28 
L 73.44 261.76 
L 73.44 266.24 
L 73.44 270.72 
L 73.44 275.2 
L 73.44 279.68 
L 73.44 284.16 
L 73.44 288.64 
L 73.44 293.12 
L 73.44 297.6 
L 73.44 302.08 
L 73.44 306.56 
L 73.44 311.04 
L 73.44 315.52 
L 73.44 320 
L 73.44 324.48 
L 73.44 328.96 
L 73.44 333.44 
L 73.44 337.92 
L 73.44 342.4 
L 73.44 346.88 
L 73.44 351.36 
L 73.44 355.84 
L 73.44 360.32 
L 73.44 364.8 
L 73.44 369.28 
L 73.44 373.76 
L 73.44 378.24 
L 73.44 382.72 
L 73.44 387.2 
L 73.44 391.68 
L 73.44 396.16 
L 73.44 400.64 
L 73.44 405.12 
L 73.44 409.6 
L 73.44 414.08 
L 73.44 418.56 
L 73.44 423.04 
L 73.44 427.52 
L 73.44 432 
L 73.44 436.48 
L 73.44 440.96 
L 73.44 445.44 
L 73.44 449.92 
L 73.44 454.4 
L 73.44 458.88 
L 73.44 463.36 
L 73.44 467.84 
L 73.44 472.32 
L 73.44 476.8 
L 73.44 481.28 
L 73.44 485.76 
L 73.44 490.24 
L 73.44 494.72 
L 73.44 499.2 
L 73.44 503.68 
L 73.44 508.16 
L 73.44 512.64 
z
" style="fill:#f4987a;"/>
   </g>
   <g id="PathCollection_3">
    <defs>
     <path d="M 0 4.1833 
C 1.109424 4.1833 2.173559 3.742521 2.95804 2.95804 
C 3.742521 2.173559 4.1833 1.109424 4.1833 0 
C 4.1833 -1.109424 3.742521 -2.173559 2.95804 -2.95804 
C 2.173559 -3.742521 1.109424 -4.1833 0 -4.1833 
C -1.109424 -4.1833 -2.173559 -3.742521 -2.95804 -2.95804 
C -3.742521 -2.173559 -4.1833 -1.109424 -4.1833 0 
C -4.1833 1.109424 -3.742521 2.173559 -2.95804 2.95804 
C -2.173559 3.742521 -1.109424 4.1833 0 4.1833 
z
" id="C0_0_9c17ad71db"/>
    </defs>
    <g clip-path="url(#pec9bdc4972)">
     <use style="fill:#b40426;stroke:#b40426;" x="317.729876" xlink:href="#C0_0_9c17ad71db" y="198.562277"/>
    </g>
    <g clip-path="url(#pec9bdc4972)">
     <use style="fill:#3b4cc0;stroke:#3b4cc0;" x="202.462066" xlink:href="#C0_0_9c17ad71db" y="286.077742"/>
    </g>
    <g clip-path="url(#pec9bdc4972)">
     <use style="fill:#3b4cc0;stroke:#3b4cc0;" x="469.479835" xlink:href="#C0_0_9c17ad71db" y="115.116083"/>
    </g>
    <g clip-path="url(#pec9bdc4972)">
     <use style="fill:#b40426;stroke:#b40426;" x="129.1396" xlink:href="#C0_0_9c17ad71db" y="420.72364"/>
    </g>
    <g clip-path="url(#pec9bdc4972)">
     <use style="fill:#3b4cc0;stroke:#3b4cc0;" x="361.348371" xlink:href="#C0_0_9c17ad71db" y="389.125315"/>
    </g>
    <g clip-path="url(#pec9bdc4972)">
     <use style="fill:#b40426;stroke:#b40426;" x="268.790029" xlink:href="#C0_0_9c17ad71db" y="443.066019"/>
    </g>
    <g clip-path="url(#pec9bdc4972)">
     <use style="fill:#3b4cc0;stroke:#3b4cc0;" x="245.51301" xlink:href="#C0_0_9c17ad71db" y="97.335117"/>
    </g>
    <g clip-path="url(#pec9bdc4972)">
     <use style="fill:#b40426;stroke:#b40426;" x="504.365193" xlink:href="#C0_0_9c17ad71db" y="410.371294"/>
    </g>
    <g clip-path="url(#pec9bdc4972)">
     <use style="fill:#b40426;stroke:#b40426;" x="450.862836" xlink:href="#C0_0_9c17ad71db" y="271.545056"/>
    </g>
    <g clip-path="url(#pec9bdc4972)">
     <use style="fill:#3b4cc0;stroke:#3b4cc0;" x="106.093571" xlink:href="#C0_0_9c17ad71db" y="116.84578"/>
    </g>
    <g clip-path="url(#pec9bdc4972)">
     <use style="fill:#b40426;stroke:#b40426;" x="80.137495" xlink:href="#C0_0_9c17ad71db" y="323.87579"/>
    </g>
    <g clip-path="url(#pec9bdc4972)">
     <use style="fill:#b40426;stroke:#b40426;" x="433.106614" xlink:href="#C0_0_9c17ad71db" y="509.405798"/>
    </g>
   </g>
   <g id="patch_3">
    <path clip-path="url(#pec9bdc4972)" d="M 317.729886 250.870191 
C 331.602107 250.870191 344.908025 245.3587 354.717166 235.549558 
C 364.526308 225.740417 370.0378 212.434499 370.0378 198.562278 
C 370.0378 184.690057 364.526308 171.384139 354.717166 161.574997 
C 344.908025 151.765856 331.602107 146.254364 317.729886 146.254364 
C 303.857665 146.254364 290.551747 151.765856 280.742605 161.574997 
C 270.933464 171.384139 265.421972 184.690057 265.421972 198.562278 
C 265.421972 212.434499 270.933464 225.740417 280.742605 235.549558 
C 290.551747 245.3587 303.857665 250.870191 317.729886 250.870191 
z
" style="fill:none;stroke:#000000;stroke-linejoin:miter;"/>
   </g>
   <g id="patch_4">
    <path clip-path="url(#pec9bdc4972)" d="M 202.46207 340.80022 
C 216.974641 340.80022 230.894769 335.034315 241.156706 324.772377 
C 251.418644 314.51044 257.18455 300.590312 257.18455 286.077741 
C 257.18455 271.565169 251.418644 257.645042 241.156706 247.383104 
C 230.894769 237.121166 216.974641 231.355261 202.46207 231.355261 
C 187.949499 231.355261 174.029371 237.121166 163.767433 247.383104 
C 153.505496 257.645042 147.73959 271.565169 147.73959 286.077741 
C 147.73959 300.590312 153.505496 314.51044 163.767433 324.772377 
C 174.029371 335.034315 187.949499 340.80022 202.46207 340.80022 
z
" style="fill:none;stroke:#000000;stroke-linejoin:miter;"/>
   </g>
   <g id="patch_5">
    <path clip-path="url(#pec9bdc4972)" d="M 469.479833 169.708249 
C 483.957843 169.708249 497.84482 163.956074 508.082319 153.718575 
C 518.319818 143.481076 524.071993 129.594099 524.071993 115.116089 
C 524.071993 100.638079 518.319818 86.751102 508.082319 76.513603 
C 497.84482 66.276104 483.957843 60.52393 469.479833 60.52393 
C 455.001823 60.52393 441.114846 66.276104 430.877347 76.513603 
C 420.639848 86.751102 414.887674 100.638079 414.887674 115.116089 
C 414.887674 129.594099 420.639848 143.481076 430.877347 153.718575 
C 441.114846 163.956074 455.001823 169.708249 469.479833 169.708249 
z
" style="fill:none;stroke:#000000;stroke-linejoin:miter;"/>
   </g>
   <g id="patch_6">
    <path clip-path="url(#pec9bdc4972)" d="M 129.139597 519.311319 
C 155.285355 519.311319 180.363771 508.923499 198.851614 490.435656 
C 217.339457 471.947813 227.727277 446.869397 227.727277 420.723639 
C 227.727277 394.57788 217.339457 369.499465 198.851614 351.011622 
C 180.363771 332.523779 155.285355 322.135959 129.139597 322.135959 
C 102.993839 322.135959 77.915423 332.523779 59.42758 351.011622 
C 40.939737 369.499465 30.551917 394.57788 30.551917 420.723639 
C 30.551917 446.869397 40.939737 471.947813 59.42758 490.435656 
C 77.915423 508.923499 102.993839 519.311319 129.139597 519.311319 
z
" style="fill:none;stroke:#000000;stroke-linejoin:miter;"/>
   </g>
   <g id="patch_7">
    <path clip-path="url(#pec9bdc4972)" d="M 361.348368 436.778503 
C 373.98614 436.778503 386.108003 431.757463 395.044257 422.821209 
C 403.980511 413.884955 409.001551 401.763092 409.001551 389.12532 
C 409.001551 376.487549 403.980511 364.365686 395.044257 355.429432 
C 386.108003 346.493177 373.98614 341.472137 361.348368 341.472137 
C 348.710596 341.472137 336.588733 346.493177 327.652479 355.429432 
C 318.716225 364.365686 313.695185 376.487549 313.695185 389.12532 
C 313.695185 401.763092 318.716225 413.884955 327.652479 422.821209 
C 336.588733 431.757463 348.710596 436.778503 361.348368 436.778503 
z
" style="fill:none;stroke:#000000;stroke-linejoin:miter;"/>
   </g>
   <g id="patch_8">
    <path clip-path="url(#pec9bdc4972)" d="M 268.790033 494.486215 
C 282.426828 494.486215 295.506931 489.068259 305.149601 479.425589 
C 314.792271 469.782919 320.210227 456.702816 320.210227 443.066021 
C 320.210227 429.429226 314.792271 416.349123 305.149601 406.706453 
C 295.506931 397.063782 282.426828 391.645826 268.790033 391.645826 
C 255.153238 391.645826 242.073135 397.063782 232.430465 406.706453 
C 222.787795 416.349123 217.369839 429.429226 217.369839 443.066021 
C 217.369839 456.702816 222.787795 469.782919 232.430465 479.425589 
C 242.073135 489.068259 255.153238 494.486215 268.790033 494.486215 
z
" style="fill:none;stroke:#000000;stroke-linejoin:miter;"/>
   </g>
   <g id="patch_9">
    <path clip-path="url(#pec9bdc4972)" d="M 245.513012 155.122496 
C 260.838402 155.122496 275.538168 149.033654 286.374855 138.196967 
C 297.211542 127.360279 303.300385 112.660514 303.300385 97.335124 
C 303.300385 82.009733 297.211542 67.309968 286.374855 56.473281 
C 275.538168 45.636593 260.838402 39.547751 245.513012 39.547751 
C 230.187622 39.547751 215.487857 45.636593 204.651169 56.473281 
C 193.814482 67.309968 187.72564 82.009733 187.72564 97.335124 
C 187.72564 112.660514 193.814482 127.360279 204.651169 138.196967 
C 215.487857 149.033654 230.187622 155.122496 245.513012 155.122496 
z
" style="fill:none;stroke:#000000;stroke-linejoin:miter;"/>
   </g>
   <g id="patch_10">
    <path clip-path="url(#pec9bdc4972)" d="M 504.365188 482.258785 
C 523.429973 482.258785 541.716481 474.684265 555.19732 461.203426 
C 568.67816 447.722587 576.252679 429.436079 576.252679 410.371294 
C 576.252679 391.306508 568.67816 373.02 555.19732 359.539161 
C 541.716481 346.058322 523.429973 338.483802 504.365188 338.483802 
C 485.300402 338.483802 467.013894 346.058322 453.533055 359.539161 
C 440.052216 373.02 432.477697 391.306508 432.477697 410.371294 
C 432.477697 429.436079 440.052216 447.722587 453.533055 461.203426 
C 467.013894 474.684265 485.300402 482.258785 504.365188 482.258785 
z
" style="fill:none;stroke:#000000;stroke-linejoin:miter;"/>
   </g>
   <g id="patch_11">
    <path clip-path="url(#pec9bdc4972)" d="M 450.862843 369.247776 
C 476.77391 369.247776 501.627216 358.9532 519.949107 340.631308 
C 538.270998 322.309417 548.565575 297.456112 548.565575 271.545044 
C 548.565575 245.633977 538.270998 220.780672 519.949107 202.45878 
C 501.627216 184.136889 476.77391 173.842313 450.862843 173.842313 
C 424.951776 173.842313 400.09847 184.136889 381.776579 202.45878 
C 363.454687 220.780672 353.160111 245.633977 353.160111 271.545044 
C 353.160111 297.456112 363.454687 322.309417 381.776579 340.631308 
C 400.09847 358.9532 424.951776 369.247776 450.862843 369.247776 
z
" style="fill:none;stroke:#000000;stroke-linejoin:miter;"/>
   </g>
   <g id="patch_12">
    <path clip-path="url(#pec9bdc4972)" d="M 106.09357 217.161054 
C 132.697493 217.161054 158.21537 206.591204 177.027185 187.779389 
C 195.839 168.967574 206.408851 143.449697 206.408851 116.845773 
C 206.408851 90.24185 195.839 64.723973 177.027185 45.912158 
C 158.21537 27.100343 132.697493 16.530493 106.09357 16.530493 
C 79.489646 16.530493 53.971769 27.100343 35.159954 45.912158 
C 16.34814 64.723973 5.778289 90.24185 5.778289 116.845773 
C 5.778289 143.449697 16.34814 168.967574 35.159954 187.779389 
C 53.971769 206.591204 79.489646 217.161054 106.09357 217.161054 
z
" style="fill:none;stroke:#000000;stroke-linejoin:miter;"/>
   </g>
   <g id="patch_13">
    <path clip-path="url(#pec9bdc4972)" d="M 80.137495 382.647052 
C 95.723816 382.647052 110.673859 376.454541 121.695052 365.433348 
C 132.716246 354.412155 138.908756 339.462111 138.908756 323.87579 
C 138.908756 308.289469 132.716246 293.339426 121.695052 282.318233 
C 110.673859 271.29704 95.723816 265.104529 80.137495 265.104529 
C 64.551174 265.104529 49.601131 271.29704 38.579937 282.318233 
C 27.558744 293.339426 21.366233 308.289469 21.366233 323.87579 
C 21.366233 339.462111 27.558744 354.412155 38.579937 365.433348 
C 49.601131 376.454541 64.551174 382.647052 80.137495 382.647052 
z
" style="fill:none;stroke:#000000;stroke-linejoin:miter;"/>
   </g>
   <g id="patch_14">
    <path clip-path="url(#pec9bdc4972)" d="M 433.106606 578.586265 
C 451.45348 578.586265 469.051384 571.296975 482.024583 558.323775 
C 494.997782 545.350576 502.287073 527.752672 502.287073 509.405798 
C 502.287073 491.058923 494.997782 473.46102 482.024583 460.48782 
C 469.051384 447.514621 451.45348 440.225331 433.106606 440.225331 
C 414.759731 440.225331 397.161827 447.514621 384.188628 460.48782 
C 371.215429 473.46102 363.926138 491.058923 363.926138 509.405798 
C 363.926138 527.752672 371.215429 545.350576 384.188628 558.323775 
C 397.161827 571.296975 414.759731 578.586265 433.106606 578.586265 
z
" style="fill:none;stroke:#000000;stroke-linejoin:miter;"/>
   </g>
   <g id="matplotlib.axis_1">
    <g id="xtick_1">
     <g id="line2d_1">
      <defs>
       <path d="M 0 0 
L 0 3.5 
" id="md4fbd4c9f8" style="stroke:#000000;stroke-width:0.8;"/>
      </defs>
      <g>
       <use style="stroke:#000000;stroke-width:0.8;" x="73.44" xlink:href="#md4fbd4c9f8" y="512.64"/>
      </g>
     </g>
     <g id="text_1">
      <!-- 0.0 -->
      <defs>
       <path d="M 31.78125 66.40625 
Q 24.171875 66.40625 20.328125 58.90625 
Q 16.5 51.421875 16.5 36.375 
Q 16.5 21.390625 20.328125 13.890625 
Q 24.171875 6.390625 31.78125 6.390625 
Q 39.453125 6.390625 43.28125 13.890625 
Q 47.125 21.390625 47.125 36.375 
Q 47.125 51.421875 43.28125 58.90625 
Q 39.453125 66.40625 31.78125 66.40625 
z
M 31.78125 74.21875 
Q 44.046875 74.21875 50.515625 64.515625 
Q 56.984375 54.828125 56.984375 36.375 
Q 56.984375 17.96875 50.515625 8.265625 
Q 44.046875 -1.421875 31.78125 -1.421875 
Q 19.53125 -1.421875 13.0625 8.265625 
Q 6.59375 17.96875 6.59375 36.375 
Q 6.59375 54.828125 13.0625 64.515625 
Q 19.53125 74.21875 31.78125 74.21875 
z
" id="DejaVuSans-30"/>
       <path d="M 10.6875 12.40625 
L 21 12.40625 
L 21 0 
L 10.6875 0 
z
" id="DejaVuSans-2e"/>
      </defs>
      <g transform="translate(65.488438 527.238438)scale(0.1 -0.1)">
       <use xlink:href="#DejaVuSans-30"/>
       <use x="63.623047" xlink:href="#DejaVuSans-2e"/>
       <use x="95.410156" xlink:href="#DejaVuSans-30"/>
      </g>
     </g>
    </g>
    <g id="xtick_2">
     <g id="line2d_2">
      <g>
       <use style="stroke:#000000;stroke-width:0.8;" x="162.144" xlink:href="#md4fbd4c9f8" y="512.64"/>
      </g>
     </g>
     <g id="text_2">
      <!-- 0.2 -->
      <defs>
       <path d="M 19.1875 8.296875 
L 53.609375 8.296875 
L 53.609375 0 
L 7.328125 0 
L 7.328125 8.296875 
Q 12.9375 14.109375 22.625 23.890625 
Q 32.328125 33.6875 34.8125 36.53125 
Q 39.546875 41.84375 41.421875 45.53125 
Q 43.3125 49.21875 43.3125 52.78125 
Q 43.3125 58.59375 39.234375 62.25 
Q 35.15625 65.921875 28.609375 65.921875 
Q 23.96875 65.921875 18.8125 64.3125 
Q 13.671875 62.703125 7.8125 59.421875 
L 7.8125 69.390625 
Q 13.765625 71.78125 18.9375 73 
Q 24.125 74.21875 28.421875 74.21875 
Q 39.75 74.21875 46.484375 68.546875 
Q 53.21875 62.890625 53.21875 53.421875 
Q 53.21875 48.921875 51.53125 44.890625 
Q 49.859375 40.875 45.40625 35.40625 
Q 44.1875 33.984375 37.640625 27.21875 
Q 31.109375 20.453125 19.1875 8.296875 
z
" id="DejaVuSans-32"/>
      </defs>
      <g transform="translate(154.192438 527.238438)scale(0.1 -0.1)">
       <use xlink:href="#DejaVuSans-30"/>
       <use x="63.623047" xlink:href="#DejaVuSans-2e"/>
       <use x="95.410156" xlink:href="#DejaVuSans-32"/>
      </g>
     </g>
    </g>
    <g id="xtick_3">
     <g id="line2d_3">
      <g>
       <use style="stroke:#000000;stroke-width:0.8;" x="250.848" xlink:href="#md4fbd4c9f8" y="512.64"/>
      </g>
     </g>
     <g id="text_3">
      <!-- 0.4 -->
      <defs>
       <path d="M 37.796875 64.3125 
L 12.890625 25.390625 
L 37.796875 25.390625 
z
M 35.203125 72.90625 
L 47.609375 72.90625 
L 47.609375 25.390625 
L 58.015625 25.390625 
L 58.015625 17.1875 
L 47.609375 17.1875 
L 47.609375 0 
L 37.796875 0 
L 37.796875 17.1875 
L 4.890625 17.1875 
L 4.890625 26.703125 
z
" id="DejaVuSans-34"/>
      </defs>
      <g transform="translate(242.896438 527.238438)scale(0.1 -0.1)">
       <use xlink:href="#DejaVuSans-30"/>
       <use x="63.623047" xlink:href="#DejaVuSans-2e"/>
       <use x="95.410156" xlink:href="#DejaVuSans-34"/>
      </g>
     </g>
    </g>
    <g id="xtick_4">
     <g id="line2d_4">
      <g>
       <use style="stroke:#000000;stroke-width:0.8;" x="339.552" xlink:href="#md4fbd4c9f8" y="512.64"/>
      </g>
     </g>
     <g id="text_4">
      <!-- 0.6 -->
      <defs>
       <path d="M 33.015625 40.375 
Q 26.375 40.375 22.484375 35.828125 
Q 18.609375 31.296875 18.609375 23.390625 
Q 18.609375 15.53125 22.484375 10.953125 
Q 26.375 6.390625 33.015625 6.390625 
Q 39.65625 6.390625 43.53125 10.953125 
Q 47.40625 15.53125 47.40625 23.390625 
Q 47.40625 31.296875 43.53125 35.828125 
Q 39.65625 40.375 33.015625 40.375 
z
M 52.59375 71.296875 
L 52.59375 62.3125 
Q 48.875 64.0625 45.09375 64.984375 
Q 41.3125 65.921875 37.59375 65.921875 
Q 27.828125 65.921875 22.671875 59.328125 
Q 17.53125 52.734375 16.796875 39.40625 
Q 19.671875 43.65625 24.015625 45.921875 
Q 28.375 48.1875 33.59375 48.1875 
Q 44.578125 48.1875 50.953125 41.515625 
Q 57.328125 34.859375 57.328125 23.390625 
Q 57.328125 12.15625 50.6875 5.359375 
Q 44.046875 -1.421875 33.015625 -1.421875 
Q 20.359375 -1.421875 13.671875 8.265625 
Q 6.984375 17.96875 6.984375 36.375 
Q 6.984375 53.65625 15.1875 63.9375 
Q 23.390625 74.21875 37.203125 74.21875 
Q 40.921875 74.21875 44.703125 73.484375 
Q 48.484375 72.75 52.59375 71.296875 
z
" id="DejaVuSans-36"/>
      </defs>
      <g transform="translate(331.600437 527.238438)scale(0.1 -0.1)">
       <use xlink:href="#DejaVuSans-30"/>
       <use x="63.623047" xlink:href="#DejaVuSans-2e"/>
       <use x="95.410156" xlink:href="#DejaVuSans-36"/>
      </g>
     </g>
    </g>
    <g id="xtick_5">
     <g id="line2d_5">
      <g>
       <use style="stroke:#000000;stroke-width:0.8;" x="428.256" xlink:href="#md4fbd4c9f8" y="512.64"/>
      </g>
     </g>
     <g id="text_5">
      <!-- 0.8 -->
      <defs>
       <path d="M 31.78125 34.625 
Q 24.75 34.625 20.71875 30.859375 
Q 16.703125 27.09375 16.703125 20.515625 
Q 16.703125 13.921875 20.71875 10.15625 
Q 24.75 6.390625 31.78125 6.390625 
Q 38.8125 6.390625 42.859375 10.171875 
Q 46.921875 13.96875 46.921875 20.515625 
Q 46.921875 27.09375 42.890625 30.859375 
Q 38.875 34.625 31.78125 34.625 
z
M 21.921875 38.8125 
Q 15.578125 40.375 12.03125 44.71875 
Q 8.5 49.078125 8.5 55.328125 
Q 8.5 64.0625 14.71875 69.140625 
Q 20.953125 74.21875 31.78125 74.21875 
Q 42.671875 74.21875 48.875 69.140625 
Q 55.078125 64.0625 55.078125 55.328125 
Q 55.078125 49.078125 51.53125 44.71875 
Q 48 40.375 41.703125 38.8125 
Q 48.828125 37.15625 52.796875 32.3125 
Q 56.78125 27.484375 56.78125 20.515625 
Q 56.78125 9.90625 50.3125 4.234375 
Q 43.84375 -1.421875 31.78125 -1.421875 
Q 19.734375 -1.421875 13.25 4.234375 
Q 6.78125 9.90625 6.78125 20.515625 
Q 6.78125 27.484375 10.78125 32.3125 
Q 14.796875 37.15625 21.921875 38.8125 
z
M 18.3125 54.390625 
Q 18.3125 48.734375 21.84375 45.5625 
Q 25.390625 42.390625 31.78125 42.390625 
Q 38.140625 42.390625 41.71875 45.5625 
Q 45.3125 48.734375 45.3125 54.390625 
Q 45.3125 60.0625 41.71875 63.234375 
Q 38.140625 66.40625 31.78125 66.40625 
Q 25.390625 66.40625 21.84375 63.234375 
Q 18.3125 60.0625 18.3125 54.390625 
z
" id="DejaVuSans-38"/>
      </defs>
      <g transform="translate(420.304438 527.238438)scale(0.1 -0.1)">
       <use xlink:href="#DejaVuSans-30"/>
       <use x="63.623047" xlink:href="#DejaVuSans-2e"/>
       <use x="95.410156" xlink:href="#DejaVuSans-38"/>
      </g>
     </g>
    </g>
    <g id="xtick_6">
     <g id="line2d_6">
      <g>
       <use style="stroke:#000000;stroke-width:0.8;" x="516.96" xlink:href="#md4fbd4c9f8" y="512.64"/>
      </g>
     </g>
     <g id="text_6">
      <!-- 1.0 -->
      <defs>
       <path d="M 12.40625 8.296875 
L 28.515625 8.296875 
L 28.515625 63.921875 
L 10.984375 60.40625 
L 10.984375 69.390625 
L 28.421875 72.90625 
L 38.28125 72.90625 
L 38.28125 8.296875 
L 54.390625 8.296875 
L 54.390625 0 
L 12.40625 0 
z
" id="DejaVuSans-31"/>
      </defs>
      <g transform="translate(509.008438 527.238438)scale(0.1 -0.1)">
       <use xlink:href="#DejaVuSans-31"/>
       <use x="63.623047" xlink:href="#DejaVuSans-2e"/>
       <use x="95.410156" xlink:href="#DejaVuSans-30"/>
      </g>
     </g>
    </g>
   </g>
   <g id="matplotlib.axis_2">
    <g id="ytick_1">
     <g id="line2d_7">
      <defs>
       <path d="M 0 0 
L -3.5 0 
" id="m9a7392d26c" style="stroke:#000000;stroke-width:0.8;"/>
      </defs>
      <g>
       <use style="stroke:#000000;stroke-width:0.8;" x="72" xlink:href="#m9a7392d26c" y="512.64"/>
      </g>
     </g>
     <g id="text_7">
      <!-- 0.0 -->
      <g transform="translate(49.096875 516.439219)scale(0.1 -0.1)">
       <use xlink:href="#DejaVuSans-30"/>
       <use x="63.623047" xlink:href="#DejaVuSans-2e"/>
       <use x="95.410156" xlink:href="#DejaVuSans-30"/>
      </g>
     </g>
    </g>
    <g id="ytick_2">
     <g id="line2d_8">
      <g>
       <use style="stroke:#000000;stroke-width:0.8;" x="72" xlink:href="#m9a7392d26c" y="423.936"/>
      </g>
     </g>
     <g id="text_8">
      <!-- 0.2 -->
      <g transform="translate(49.096875 427.735219)scale(0.1 -0.1)">
       <use xlink:href="#DejaVuSans-30"/>
       <use x="63.623047" xlink:href="#DejaVuSans-2e"/>
       <use x="95.410156" xlink:href="#DejaVuSans-32"/>
      </g>
     </g>
    </g>
    <g id="ytick_3">
     <g id="line2d_9">
      <g>
       <use style="stroke:#000000;stroke-width:0.8;" x="72" xlink:href="#m9a7392d26c" y="335.232"/>
      </g>
     </g>
     <g id="text_9">
      <!-- 0.4 -->
      <g transform="translate(49.096875 339.031219)scale(0.1 -0.1)">
       <use xlink:href="#DejaVuSans-30"/>
       <use x="63.623047" xlink:href="#DejaVuSans-2e"/>
       <use x="95.410156" xlink:href="#DejaVuSans-34"/>
      </g>
     </g>
    </g>
    <g id="ytick_4">
     <g id="line2d_10">
      <g>
       <use style="stroke:#000000;stroke-width:0.8;" x="72" xlink:href="#m9a7392d26c" y="246.528"/>
      </g>
     </g>
     <g id="text_10">
      <!-- 0.6 -->
      <g transform="translate(49.096875 250.327219)scale(0.1 -0.1)">
       <use xlink:href="#DejaVuSans-30"/>
       <use x="63.623047" xlink:href="#DejaVuSans-2e"/>
       <use x="95.410156" xlink:href="#DejaVuSans-36"/>
      </g>
     </g>
    </g>
    <g id="ytick_5">
     <g id="line2d_11">
      <g>
       <use style="stroke:#000000;stroke-width:0.8;" x="72" xlink:href="#m9a7392d26c" y="157.824"/>
      </g>
     </g>
     <g id="text_11">
      <!-- 0.8 -->
      <g transform="translate(49.096875 161.623219)scale(0.1 -0.1)">
       <use xlink:href="#DejaVuSans-30"/>
       <use x="63.623047" xlink:href="#DejaVuSans-2e"/>
       <use x="95.410156" xlink:href="#DejaVuSans-38"/>
      </g>
     </g>
    </g>
    <g id="ytick_6">
     <g id="line2d_12">
      <g>
       <use style="stroke:#000000;stroke-width:0.8;" x="72" xlink:href="#m9a7392d26c" y="69.12"/>
      </g>
     </g>
     <g id="text_12">
      <!-- 1.0 -->
      <g transform="translate(49.096875 72.919219)scale(0.1 -0.1)">
       <use xlink:href="#DejaVuSans-31"/>
       <use x="63.623047" xlink:href="#DejaVuSans-2e"/>
       <use x="95.410156" xlink:href="#DejaVuSans-30"/>
      </g>
     </g>
    </g>
   </g>
   <g id="patch_15">
    <path d="M 72 512.64 
L 72 69.12 
" style="fill:none;stroke:#000000;stroke-linecap:square;stroke-linejoin:miter;stroke-width:0.8;"/>
   </g>
   <g id="patch_16">
    <path d="M 518.4 512.64 
L 518.4 69.12 
" style="fill:none;stroke:#000000;stroke-linecap:square;stroke-linejoin:miter;stroke-width:0.8;"/>
   </g>
   <g id="patch_17">
    <path d="M 72 512.64 
L 518.4 512.64 
" style="fill:none;stroke:#000000;stroke-linecap:square;stroke-linejoin:miter;stroke-width:0.8;"/>
   </g>
   <g id="patch_18">
    <path d="M 72 69.12 
L 518.4 69.12 
" style="fill:none;stroke:#000000;stroke-linecap:square;stroke-linejoin:miter;stroke-width:0.8;"/>
   </g>
  </g>
 </g>
 <defs>
  <clipPath id="pec9bdc4972">
   <rect height="443.52" width="446.4" x="72" y="69.12"/>
  </clipPath>
 </defs>
</svg>
