<?xml version="1.0" encoding="utf-8" standalone="no"?>
<!DOCTYPE svg PUBLIC "-//W3C//DTD SVG 1.1//EN"
  "http://www.w3.org/Graphics/SVG/1.1/DTD/svg11.dtd">
<!-- Created with matplotlib (http://matplotlib.org/) -->
<svg height="576pt" version="1.1" viewBox="0 0 576 576" width="576pt" xmlns="http://www.w3.org/2000/svg" xmlns:xlink="http://www.w3.org/1999/xlink">
 <defs>
  <style type="text/css">
*{stroke-linecap:butt;stroke-linejoin:round;}
  </style>
 </defs>
 <g id="figure_1">
  <g id="patch_1">
   <path d="M 0 576 
L 576 576 
L 576 0 
L 0 0 
z
" style="fill:#ffffff;"/>
  </g>
  <g id="axes_1">
   <g id="patch_2">
    <path d="M 72 512.64 
L 518.4 512.64 
L 518.4 69.12 
L 72 69.12 
z
" style="fill:#ffffff;"/>
   </g>
   <g id="PathCollection_1">
    <path clip-path="url(#pd3e924470c)" d="M 373.6 454.974669 
L 375.644985 454.4 
L 378.08 453.715728 
L 382.56 452.456751 
L 387.04 451.197751 
L 391.52 449.938798 
L 391.586891 449.92 
L 396 448.679787 
L 400.48 447.42086 
L 404.96 446.161889 
L 407.528804 445.44 
L 409.44 444.902915 
L 413.92 443.643948 
L 418.4 442.384974 
L 422.88 441.126008 
L 423.470731 440.96 
L 427.36 438.900555 
L 429.238628 436.48 
L 430.799307 432 
L 431.053971 427.52 
L 431.247323 423.04 
L 431.440671 418.56 
L 431.633954 414.08 
L 431.827326 409.6 
L 431.84 409.306276 
L 432.020628 405.12 
L 432.213942 400.64 
L 432.407306 396.16 
L 432.600599 391.68 
L 432.793922 387.2 
L 432.987244 382.72 
L 431.84 379.426029 
L 430.643658 378.24 
L 427.36 375.924631 
L 424.290203 373.76 
L 422.88 372.765616 
L 418.4 369.606671 
L 417.936718 369.28 
L 413.92 366.447696 
L 411.583282 364.8 
L 409.44 363.28868 
L 405.229872 360.32 
L 404.96 360.129709 
L 400.48 356.970739 
L 398.87642 355.84 
L 396 353.811752 
L 392.522981 351.36 
L 391.52 350.652765 
L 387.04 347.49372 
L 386.169629 346.88 
L 382.56 344.334805 
L 379.816129 342.4 
L 378.08 341.17579 
L 373.6 338.016796 
L 373.462725 337.92 
L 369.12 334.857882 
L 367.109202 333.44 
L 364.64 331.698878 
L 360.755794 328.96 
L 360.16 328.539888 
L 355.68 325.380878 
L 354.402384 324.48 
L 351.2 322.221906 
L 348.048952 320 
L 346.72 319.062926 
L 342.24 315.903905 
L 341.695549 315.52 
L 337.76 312.744929 
L 335.342092 311.04 
L 333.28 309.585961 
L 328.988609 306.56 
L 328.8 306.427009 
L 324.32 303.268009 
L 322.635163 302.08 
L 319.84 300.109057 
L 316.28173 297.6 
L 315.36 296.950058 
L 310.88 293.791056 
L 309.928337 293.12 
L 306.4 290.632048 
L 303.574929 288.64 
L 301.92 287.473081 
L 297.44 284.314154 
L 297.299165 284.16 
L 293.202581 279.68 
L 292.96 279.414968 
L 289.913902 275.2 
L 288.48 273.215849 
L 286.676304 270.72 
L 284 267.016708 
L 283.438686 266.24 
L 280.201088 261.76 
L 279.52 260.81755 
L 276.963503 257.28 
L 275.04 254.618374 
L 273.725897 252.8 
L 270.56 248.419212 
L 270.488302 248.32 
L 267.250701 243.84 
L 266.08 242.220055 
L 264.013062 239.36 
L 261.6 236.02093 
L 260.775486 234.88 
L 257.537882 230.4 
L 257.12 229.821758 
L 254.300263 225.92 
L 252.64 223.62263 
L 251.062662 221.44 
L 248.16 217.423486 
L 247.825048 216.96 
L 244.58744 212.48 
L 243.68 211.224354 
L 241.349835 208 
L 239.2 205.025174 
L 238.112221 203.52 
L 234.874655 199.04 
L 234.72 198.826 
L 231.637007 194.56 
L 230.24 192.626915 
L 228.399402 190.08 
L 225.76 186.427699 
L 225.16184 185.6 
L 221.924202 181.12 
L 221.28 180.228594 
L 218.686613 176.64 
L 216.8 174.029426 
L 215.449008 172.16 
L 216.052226 167.68 
L 216.8 166.531881 
L 218.970056 163.2 
L 221.28 161.378171 
L 225.76 159.68671 
L 229.163876 158.72 
L 230.24 158.41438 
L 234.72 157.142069 
L 239.2 155.869718 
L 243.68 154.597422 
L 244.938508 154.24 
L 248.16 153.325081 
L 252.64 152.052749 
L 257.12 150.780448 
L 260.713092 149.76 
L 261.6 149.508115 
L 266.08 148.235775 
L 270.56 146.963455 
L 275.04 145.691142 
L 276.487666 145.28 
L 279.52 144.503114 
L 284 143.679836 
L 288.48 143.159993 
L 292.96 142.984824 
L 297.44 143.264136 
L 301.92 144.052882 
L 306.4 144.841635 
L 308.889898 145.28 
L 310.88 145.630372 
L 315.36 146.419136 
L 319.84 147.207866 
L 324.32 147.99659 
L 328.8 148.785375 
L 333.28 149.574143 
L 334.335704 149.76 
L 337.76 150.362849 
L 342.24 151.151601 
L 346.72 151.940345 
L 351.2 152.729077 
L 355.68 153.517839 
L 359.78184 154.24 
L 360.16 154.306579 
L 364.64 155.095328 
L 369.12 155.884073 
L 373.6 156.672815 
L 378.08 157.461574 
L 382.56 158.250343 
L 385.227669 158.72 
L 387.04 159.03907 
L 391.52 159.827802 
L 396 160.616573 
L 400.48 161.405321 
L 404.96 162.194076 
L 409.44 162.982803 
L 410.673627 163.2 
L 413.92 163.771567 
L 418.4 164.560321 
L 422.88 165.349053 
L 427.36 166.137788 
L 431.84 166.926541 
L 436.119685 167.68 
L 436.32 167.726253 
L 440.8 168.761031 
L 445.28 169.796428 
L 449.76 170.83242 
L 454.24 171.869001 
L 455.497186 172.16 
L 458.72 173.588572 
L 463.2 175.574447 
L 465.603828 176.64 
L 467.68 177.560302 
L 472.16 179.546071 
L 475.71081 181.12 
L 476.64 181.53188 
L 481.12 183.517777 
L 485.6 185.503589 
L 485.817498 185.6 
L 490.08 187.489449 
L 494.56 189.475319 
L 495.92412 190.08 
L 499.04 191.461128 
L 503.52 193.446949 
L 506.031017 194.56 
L 508 195.432802 
L 512.48 197.418625 
L 516.137733 199.04 
L 516.96 199.404478 
L 516.96 199.04 
L 516.96 194.56 
L 516.96 190.08 
L 516.96 185.6 
L 516.96 181.12 
L 516.96 176.64 
L 516.96 172.16 
L 516.96 167.68 
L 516.96 163.2 
L 516.96 158.72 
L 516.96 154.24 
L 516.96 149.76 
L 516.96 145.28 
L 516.96 140.8 
L 516.96 136.32 
L 516.96 131.84 
L 516.96 127.36 
L 516.96 122.88 
L 516.96 118.4 
L 516.96 113.92 
L 516.96 109.44 
L 516.96 104.96 
L 516.96 100.48 
L 516.96 96 
L 516.96 91.52 
L 516.96 87.04 
L 516.96 82.56 
L 516.96 78.08 
L 516.96 73.6 
L 516.96 69.12 
L 512.48 69.12 
L 508 69.12 
L 503.52 69.12 
L 499.04 69.12 
L 494.56 69.12 
L 490.08 69.12 
L 485.6 69.12 
L 481.12 69.12 
L 476.64 69.12 
L 472.16 69.12 
L 467.68 69.12 
L 463.2 69.12 
L 458.72 69.12 
L 454.24 69.12 
L 449.76 69.12 
L 445.28 69.12 
L 440.8 69.12 
L 436.32 69.12 
L 431.84 69.12 
L 427.36 69.12 
L 422.88 69.12 
L 418.4 69.12 
L 413.92 69.12 
L 409.44 69.12 
L 404.96 69.12 
L 400.48 69.12 
L 396 69.12 
L 391.52 69.12 
L 387.04 69.12 
L 382.56 69.12 
L 378.08 69.12 
L 373.6 69.12 
L 369.12 69.12 
L 364.64 69.12 
L 360.16 69.12 
L 355.68 69.12 
L 351.2 69.12 
L 346.72 69.12 
L 342.24 69.12 
L 337.76 69.12 
L 333.28 69.12 
L 328.8 69.12 
L 324.32 69.12 
L 319.84 69.12 
L 315.36 69.12 
L 310.88 69.12 
L 306.4 69.12 
L 301.92 69.12 
L 297.44 69.12 
L 292.96 69.12 
L 288.48 69.12 
L 284 69.12 
L 279.52 69.12 
L 275.04 69.12 
L 270.56 69.12 
L 266.08 69.12 
L 261.6 69.12 
L 257.12 69.12 
L 252.64 69.12 
L 248.16 69.12 
L 243.68 69.12 
L 239.2 69.12 
L 234.72 69.12 
L 230.24 69.12 
L 225.76 69.12 
L 221.28 69.12 
L 216.8 69.12 
L 212.32 69.12 
L 207.84 69.12 
L 203.36 69.12 
L 198.88 69.12 
L 194.4 69.12 
L 189.92 69.12 
L 185.44 69.12 
L 180.96 69.12 
L 176.48 69.12 
L 172 69.12 
L 167.52 69.12 
L 163.04 69.12 
L 158.56 69.12 
L 154.08 69.12 
L 149.6 69.12 
L 145.12 69.12 
L 140.64 69.12 
L 136.16 69.12 
L 131.68 69.12 
L 127.2 69.12 
L 122.72 69.12 
L 118.24 69.12 
L 113.76 69.12 
L 109.28 69.12 
L 104.8 69.12 
L 100.32 69.12 
L 95.84 69.12 
L 91.36 69.12 
L 86.88 69.12 
L 82.4 69.12 
L 77.92 69.12 
L 73.44 69.12 
L 73.44 73.6 
L 73.44 78.08 
L 73.44 82.56 
L 73.44 87.04 
L 73.44 91.52 
L 73.44 96 
L 73.44 100.48 
L 73.44 104.96 
L 73.44 109.44 
L 73.44 113.92 
L 73.44 118.4 
L 73.44 122.88 
L 73.44 127.36 
L 73.44 131.84 
L 73.44 136.32 
L 73.44 140.8 
L 73.44 145.28 
L 73.44 149.76 
L 73.44 154.24 
L 73.44 158.72 
L 73.44 163.2 
L 73.44 167.68 
L 73.44 172.16 
L 73.44 176.64 
L 73.44 181.12 
L 73.44 185.6 
L 73.44 190.08 
L 73.44 194.56 
L 73.44 199.04 
L 73.44 203.52 
L 73.44 208 
L 73.44 212.48 
L 73.44 216.96 
L 73.44 221.44 
L 73.44 225.92 
L 73.44 228.533197 
L 75.184119 230.4 
L 77.92 233.328338 
L 79.369682 234.88 
L 82.4 238.123492 
L 83.555233 239.36 
L 86.88 242.918621 
L 87.740828 243.84 
L 91.36 247.713749 
L 91.926413 248.32 
L 95.84 252.50889 
L 96.111977 252.8 
L 100.297555 257.28 
L 100.32 257.304024 
L 104.483127 261.76 
L 104.8 262.099165 
L 108.66869 266.24 
L 109.28 266.894309 
L 112.854269 270.72 
L 113.76 271.689445 
L 117.039845 275.2 
L 118.24 276.484571 
L 121.225426 279.68 
L 122.72 281.279707 
L 125.411009 284.16 
L 127.2 286.074835 
L 129.596577 288.64 
L 131.68 290.86999 
L 133.782128 293.12 
L 136.16 295.665144 
L 137.967696 297.6 
L 140.64 300.460268 
L 142.153289 302.08 
L 145.12 305.255398 
L 146.338869 306.56 
L 149.6 310.050532 
L 150.524434 311.04 
L 154.08 314.845673 
L 154.710011 315.52 
L 158.56 319.640792 
L 158.895603 320 
L 163.04 324.43593 
L 163.081173 324.48 
L 167.266733 328.96 
L 167.52 329.231083 
L 172 332.423096 
L 174.046202 333.44 
L 176.48 334.649525 
L 180.96 336.875943 
L 183.060864 337.92 
L 185.44 339.10234 
L 189.92 341.328719 
L 192.075613 342.4 
L 194.4 343.555157 
L 198.88 345.781541 
L 201.090291 346.88 
L 203.36 348.007988 
L 207.84 350.23437 
L 210.105012 351.36 
L 212.32 352.460767 
L 216.8 354.687191 
L 219.119725 355.84 
L 221.28 356.913562 
L 225.76 359.139983 
L 228.134441 360.32 
L 230.24 361.366395 
L 234.72 363.592789 
L 237.149127 364.8 
L 239.2 365.819226 
L 243.68 368.045623 
L 246.16384 369.28 
L 248.16 370.272022 
L 252.64 372.498427 
L 255.178513 373.76 
L 257.12 374.72486 
L 261.6 376.951258 
L 264.193268 378.24 
L 266.08 379.177628 
L 270.56 381.404073 
L 273.207946 382.72 
L 275.04 383.630459 
L 279.52 385.856862 
L 282.222652 387.2 
L 284 388.083281 
L 288.48 390.309684 
L 291.237404 391.68 
L 292.96 392.536064 
L 297.44 395.601821 
L 298.013171 396.16 
L 301.92 399.964609 
L 302.613534 400.64 
L 306.4 404.327472 
L 307.213816 405.12 
L 310.88 408.690262 
L 311.814171 409.6 
L 315.36 413.053084 
L 316.414509 414.08 
L 319.84 417.415884 
L 321.27738 418.56 
L 324.32 421.50583 
L 326.381819 423.04 
L 328.8 425.068516 
L 332.245423 427.52 
L 333.28 428.256087 
L 337.76 431.443552 
L 338.542069 432 
L 342.24 434.631077 
L 344.838663 436.48 
L 346.72 437.818578 
L 351.135115 440.96 
L 351.2 441.006166 
L 355.68 444.193665 
L 357.431692 445.44 
L 360.16 447.381172 
L 363.728288 449.92 
L 364.64 450.568683 
L 369.12 453.75619 
L 370.704502 454.4 
z
" style="fill:#8db0fe;"/>
   </g>
   <g id="PathCollection_2">
    <path clip-path="url(#pd3e924470c)" d="M 77.92 512.64 
L 82.4 512.64 
L 86.88 512.64 
L 91.36 512.64 
L 95.84 512.64 
L 100.32 512.64 
L 104.8 512.64 
L 109.28 512.64 
L 113.76 512.64 
L 118.24 512.64 
L 122.72 512.64 
L 127.2 512.64 
L 131.68 512.64 
L 136.16 512.64 
L 140.64 512.64 
L 145.12 512.64 
L 149.6 512.64 
L 154.08 512.64 
L 158.56 512.64 
L 163.04 512.64 
L 167.52 512.64 
L 172 512.64 
L 176.48 512.64 
L 180.96 512.64 
L 185.44 512.64 
L 189.92 512.64 
L 194.4 512.64 
L 198.88 512.64 
L 203.36 512.64 
L 207.84 512.64 
L 212.32 512.64 
L 216.8 512.64 
L 221.28 512.64 
L 225.76 512.64 
L 230.24 512.64 
L 234.72 512.64 
L 239.2 512.64 
L 243.68 512.64 
L 248.16 512.64 
L 252.64 512.64 
L 257.12 512.64 
L 261.6 512.64 
L 266.08 512.64 
L 270.56 512.64 
L 275.04 512.64 
L 279.52 512.64 
L 284 512.64 
L 288.48 512.64 
L 292.96 512.64 
L 297.44 512.64 
L 301.92 512.64 
L 306.4 512.64 
L 310.88 512.64 
L 315.36 512.64 
L 319.84 512.64 
L 324.32 512.64 
L 328.8 512.64 
L 333.28 512.64 
L 337.76 512.64 
L 342.24 512.64 
L 346.72 512.64 
L 351.2 512.64 
L 355.68 512.64 
L 360.16 512.64 
L 364.64 512.64 
L 369.12 512.64 
L 373.6 512.64 
L 378.08 512.64 
L 382.56 512.64 
L 387.04 512.64 
L 391.52 512.64 
L 396 512.64 
L 400.48 512.64 
L 404.96 512.64 
L 409.44 512.64 
L 413.92 512.64 
L 418.4 512.64 
L 422.88 512.64 
L 427.36 512.64 
L 431.84 512.64 
L 436.32 512.64 
L 440.8 512.64 
L 445.28 512.64 
L 449.76 512.64 
L 454.24 512.64 
L 458.72 512.64 
L 463.2 512.64 
L 467.68 512.64 
L 472.16 512.64 
L 476.64 512.64 
L 481.12 512.64 
L 485.6 512.64 
L 490.08 512.64 
L 494.56 512.64 
L 499.04 512.64 
L 503.52 512.64 
L 508 512.64 
L 512.48 512.64 
L 516.96 512.64 
L 516.96 508.16 
L 516.96 503.68 
L 516.96 499.2 
L 516.96 494.72 
L 516.96 490.24 
L 516.96 485.76 
L 516.96 481.28 
L 516.96 476.8 
L 516.96 472.32 
L 516.96 467.84 
L 516.96 463.36 
L 516.96 458.88 
L 516.96 454.4 
L 516.96 449.92 
L 516.96 445.44 
L 516.96 440.96 
L 516.96 436.48 
L 516.96 432 
L 516.96 427.52 
L 516.96 423.04 
L 516.96 418.56 
L 516.96 414.08 
L 516.96 409.6 
L 516.96 405.12 
L 516.96 400.64 
L 516.96 396.16 
L 516.96 391.68 
L 516.96 387.2 
L 516.96 382.72 
L 516.96 378.24 
L 516.96 373.76 
L 516.96 369.28 
L 516.96 364.8 
L 516.96 360.32 
L 516.96 355.84 
L 516.96 351.36 
L 516.96 346.88 
L 516.96 342.4 
L 516.96 337.92 
L 516.96 333.44 
L 516.96 328.96 
L 516.96 324.48 
L 516.96 320 
L 516.96 315.52 
L 516.96 311.04 
L 516.96 306.56 
L 516.96 302.08 
L 516.96 297.6 
L 516.96 293.12 
L 516.96 288.64 
L 516.96 284.16 
L 516.96 279.68 
L 516.96 275.2 
L 516.96 270.72 
L 516.96 266.24 
L 516.96 261.76 
L 516.96 257.28 
L 516.96 252.8 
L 516.96 248.32 
L 516.96 243.84 
L 516.96 239.36 
L 516.96 234.88 
L 516.96 230.4 
L 516.96 225.92 
L 516.96 221.44 
L 516.96 216.96 
L 516.96 212.48 
L 516.96 208 
L 516.96 203.52 
L 516.96 199.404478 
L 516.137733 199.04 
L 512.48 197.418625 
L 508 195.432802 
L 506.031017 194.56 
L 503.52 193.446949 
L 499.04 191.461128 
L 495.92412 190.08 
L 494.56 189.475319 
L 490.08 187.489449 
L 485.817498 185.6 
L 485.6 185.503589 
L 481.12 183.517777 
L 476.64 181.53188 
L 475.71081 181.12 
L 472.16 179.546071 
L 467.68 177.560302 
L 465.603828 176.64 
L 463.2 175.574447 
L 458.72 173.588572 
L 455.497186 172.16 
L 454.24 171.869001 
L 449.76 170.83242 
L 445.28 169.796428 
L 440.8 168.761031 
L 436.32 167.726253 
L 436.119685 167.68 
L 431.84 166.926541 
L 427.36 166.137788 
L 422.88 165.349053 
L 418.4 164.560321 
L 413.92 163.771567 
L 410.673627 163.2 
L 409.44 162.982803 
L 404.96 162.194076 
L 400.48 161.405321 
L 396 160.616573 
L 391.52 159.827802 
L 387.04 159.03907 
L 385.227669 158.72 
L 382.56 158.250343 
L 378.08 157.461574 
L 373.6 156.672815 
L 369.12 155.884073 
L 364.64 155.095328 
L 360.16 154.306579 
L 359.78184 154.24 
L 355.68 153.517839 
L 351.2 152.729077 
L 346.72 151.940345 
L 342.24 151.151601 
L 337.76 150.362849 
L 334.335704 149.76 
L 333.28 149.574143 
L 328.8 148.785375 
L 324.32 147.99659 
L 319.84 147.207866 
L 315.36 146.419136 
L 310.88 145.630372 
L 308.889898 145.28 
L 306.4 144.841635 
L 301.92 144.052882 
L 297.44 143.264136 
L 292.96 142.984824 
L 288.48 143.159993 
L 284 143.679836 
L 279.52 144.503114 
L 276.487666 145.28 
L 275.04 145.691142 
L 270.56 146.963455 
L 266.08 148.235775 
L 261.6 149.508115 
L 260.713092 149.76 
L 257.12 150.780448 
L 252.64 152.052749 
L 248.16 153.325081 
L 244.938508 154.24 
L 243.68 154.597422 
L 239.2 155.869718 
L 234.72 157.142069 
L 230.24 158.41438 
L 229.163876 158.72 
L 225.76 159.68671 
L 221.28 161.378171 
L 218.970056 163.2 
L 216.8 166.531881 
L 216.052226 167.68 
L 215.449008 172.16 
L 216.8 174.029426 
L 218.686613 176.64 
L 221.28 180.228594 
L 221.924202 181.12 
L 225.16184 185.6 
L 225.76 186.427699 
L 228.399402 190.08 
L 230.24 192.626915 
L 231.637007 194.56 
L 234.72 198.826 
L 234.874655 199.04 
L 238.112221 203.52 
L 239.2 205.025174 
L 241.349835 208 
L 243.68 211.224354 
L 244.58744 212.48 
L 247.825048 216.96 
L 248.16 217.423486 
L 251.062662 221.44 
L 252.64 223.62263 
L 254.300263 225.92 
L 257.12 229.821758 
L 257.537882 230.4 
L 260.775486 234.88 
L 261.6 236.02093 
L 264.013062 239.36 
L 266.08 242.220055 
L 267.250701 243.84 
L 270.488302 248.32 
L 270.56 248.419212 
L 273.725897 252.8 
L 275.04 254.618374 
L 276.963503 257.28 
L 279.52 260.81755 
L 280.201088 261.76 
L 283.438686 266.24 
L 284 267.016708 
L 286.676304 270.72 
L 288.48 273.215849 
L 289.913902 275.2 
L 292.96 279.414968 
L 293.202581 279.68 
L 297.299165 284.16 
L 297.44 284.314154 
L 301.92 287.473081 
L 303.574929 288.64 
L 306.4 290.632048 
L 309.928337 293.12 
L 310.88 293.791056 
L 315.36 296.950058 
L 316.28173 297.6 
L 319.84 300.109057 
L 322.635163 302.08 
L 324.32 303.268009 
L 328.8 306.427009 
L 328.988609 306.56 
L 333.28 309.585961 
L 335.342092 311.04 
L 337.76 312.744929 
L 341.695549 315.52 
L 342.24 315.903905 
L 346.72 319.062926 
L 348.048952 320 
L 351.2 322.221906 
L 354.402384 324.48 
L 355.68 325.380878 
L 360.16 328.539888 
L 360.755794 328.96 
L 364.64 331.698878 
L 367.109202 333.44 
L 369.12 334.857882 
L 373.462725 337.92 
L 373.6 338.016796 
L 378.08 341.17579 
L 379.816129 342.4 
L 382.56 344.334805 
L 386.169629 346.88 
L 387.04 347.49372 
L 391.52 350.652765 
L 392.522981 351.36 
L 396 353.811752 
L 398.87642 355.84 
L 400.48 356.970739 
L 404.96 360.129709 
L 405.229872 360.32 
L 409.44 363.28868 
L 411.583282 364.8 
L 413.92 366.447696 
L 417.936718 369.28 
L 418.4 369.606671 
L 422.88 372.765616 
L 424.290203 373.76 
L 427.36 375.924631 
L 430.643658 378.24 
L 431.84 379.426029 
L 432.987244 382.72 
L 432.793922 387.2 
L 432.600599 391.68 
L 432.407306 396.16 
L 432.213942 400.64 
L 432.020628 405.12 
L 431.84 409.306276 
L 431.827326 409.6 
L 431.633954 414.08 
L 431.440671 418.56 
L 431.247323 423.04 
L 431.053971 427.52 
L 430.799307 432 
L 429.238628 436.48 
L 427.36 438.900555 
L 423.470731 440.96 
L 422.88 441.126008 
L 418.4 442.384974 
L 413.92 443.643948 
L 409.44 444.902915 
L 407.528804 445.44 
L 404.96 446.161889 
L 400.48 447.42086 
L 396 448.679787 
L 391.586891 449.92 
L 391.52 449.938798 
L 387.04 451.197751 
L 382.56 452.456751 
L 378.08 453.715728 
L 375.644985 454.4 
L 373.6 454.974669 
L 370.704502 454.4 
L 369.12 453.75619 
L 364.64 450.568683 
L 363.728288 449.92 
L 360.16 447.381172 
L 357.431692 445.44 
L 355.68 444.193665 
L 351.2 441.006166 
L 351.135115 440.96 
L 346.72 437.818578 
L 344.838663 436.48 
L 342.24 434.631077 
L 338.542069 432 
L 337.76 431.443552 
L 333.28 428.256087 
L 332.245423 427.52 
L 328.8 425.068516 
L 326.381819 423.04 
L 324.32 421.50583 
L 321.27738 418.56 
L 319.84 417.415884 
L 316.414509 414.08 
L 315.36 413.053084 
L 311.814171 409.6 
L 310.88 408.690262 
L 307.213816 405.12 
L 306.4 404.327472 
L 302.613534 400.64 
L 301.92 399.964609 
L 298.013171 396.16 
L 297.44 395.601821 
L 292.96 392.536064 
L 291.237404 391.68 
L 288.48 390.309684 
L 284 388.083281 
L 282.222652 387.2 
L 279.52 385.856862 
L 275.04 383.630459 
L 273.207946 382.72 
L 270.56 381.404073 
L 266.08 379.177628 
L 264.193268 378.24 
L 261.6 376.951258 
L 257.12 374.72486 
L 255.178513 373.76 
L 252.64 372.498427 
L 248.16 370.272022 
L 246.16384 369.28 
L 243.68 368.045623 
L 239.2 365.819226 
L 237.149127 364.8 
L 234.72 363.592789 
L 230.24 361.366395 
L 228.134441 360.32 
L 225.76 359.139983 
L 221.28 356.913562 
L 219.119725 355.84 
L 216.8 354.687191 
L 212.32 352.460767 
L 210.105012 351.36 
L 207.84 350.23437 
L 203.36 348.007988 
L 201.090291 346.88 
L 198.88 345.781541 
L 194.4 343.555157 
L 192.075613 342.4 
L 189.92 341.328719 
L 185.44 339.10234 
L 183.060864 337.92 
L 180.96 336.875943 
L 176.48 334.649525 
L 174.046202 333.44 
L 172 332.423096 
L 167.52 329.231083 
L 167.266733 328.96 
L 163.081173 324.48 
L 163.04 324.43593 
L 158.895603 320 
L 158.56 319.640792 
L 154.710011 315.52 
L 154.08 314.845673 
L 150.524434 311.04 
L 149.6 310.050532 
L 146.338869 306.56 
L 145.12 305.255398 
L 142.153289 302.08 
L 140.64 300.460268 
L 137.967696 297.6 
L 136.16 295.665144 
L 133.782128 293.12 
L 131.68 290.86999 
L 129.596577 288.64 
L 127.2 286.074835 
L 125.411009 284.16 
L 122.72 281.279707 
L 121.225426 279.68 
L 118.24 276.484571 
L 117.039845 275.2 
L 113.76 271.689445 
L 112.854269 270.72 
L 109.28 266.894309 
L 108.66869 266.24 
L 104.8 262.099165 
L 104.483127 261.76 
L 100.32 257.304024 
L 100.297555 257.28 
L 96.111977 252.8 
L 95.84 252.50889 
L 91.926413 248.32 
L 91.36 247.713749 
L 87.740828 243.84 
L 86.88 242.918621 
L 83.555233 239.36 
L 82.4 238.123492 
L 79.369682 234.88 
L 77.92 233.328338 
L 75.184119 230.4 
L 73.44 228.533197 
L 73.44 230.4 
L 73.44 234.88 
L 73.44 239.36 
L 73.44 243.84 
L 73.44 248.32 
L 73.44 252.8 
L 73.44 257.28 
L 73.44 261.76 
L 73.44 266.24 
L 73.44 270.72 
L 73.44 275.2 
L 73.44 279.68 
L 73.44 284.16 
L 73.44 288.64 
L 73.44 293.12 
L 73.44 297.6 
L 73.44 302.08 
L 73.44 306.56 
L 73.44 311.04 
L 73.44 315.52 
L 73.44 320 
L 73.44 324.48 
L 73.44 328.96 
L 73.44 333.44 
L 73.44 337.92 
L 73.44 342.4 
L 73.44 346.88 
L 73.44 351.36 
L 73.44 355.84 
L 73.44 360.32 
L 73.44 364.8 
L 73.44 369.28 
L 73.44 373.76 
L 73.44 378.24 
L 73.44 382.72 
L 73.44 387.2 
L 73.44 391.68 
L 73.44 396.16 
L 73.44 400.64 
L 73.44 405.12 
L 73.44 409.6 
L 73.44 414.08 
L 73.44 418.56 
L 73.44 423.04 
L 73.44 427.52 
L 73.44 432 
L 73.44 436.48 
L 73.44 440.96 
L 73.44 445.44 
L 73.44 449.92 
L 73.44 454.4 
L 73.44 458.88 
L 73.44 463.36 
L 73.44 467.84 
L 73.44 472.32 
L 73.44 476.8 
L 73.44 481.28 
L 73.44 485.76 
L 73.44 490.24 
L 73.44 494.72 
L 73.44 499.2 
L 73.44 503.68 
L 73.44 508.16 
L 73.44 512.64 
z
" style="fill:#f4987a;"/>
   </g>
   <g id="PathCollection_3">
    <defs>
     <path d="M 0 4.1833 
C 1.109424 4.1833 2.173559 3.742521 2.95804 2.95804 
C 3.742521 2.173559 4.1833 1.109424 4.1833 0 
C 4.1833 -1.109424 3.742521 -2.173559 2.95804 -2.95804 
C 2.173559 -3.742521 1.109424 -4.1833 0 -4.1833 
C -1.109424 -4.1833 -2.173559 -3.742521 -2.95804 -2.95804 
C -3.742521 -2.173559 -4.1833 -1.109424 -4.1833 0 
C -4.1833 1.109424 -3.742521 2.173559 -2.95804 2.95804 
C -2.173559 3.742521 -1.109424 4.1833 0 4.1833 
z
" id="C0_0_c36ab9f4f0"/>
    </defs>
    <g clip-path="url(#pd3e924470c)">
     <use style="fill:#b40426;stroke:#b40426;" x="317.729876" xlink:href="#C0_0_c36ab9f4f0" y="198.562277"/>
    </g>
    <g clip-path="url(#pd3e924470c)">
     <use style="fill:#3b4cc0;stroke:#3b4cc0;" x="202.462066" xlink:href="#C0_0_c36ab9f4f0" y="286.077742"/>
    </g>
    <g clip-path="url(#pd3e924470c)">
     <use style="fill:#3b4cc0;stroke:#3b4cc0;" x="469.479835" xlink:href="#C0_0_c36ab9f4f0" y="115.116083"/>
    </g>
    <g clip-path="url(#pd3e924470c)">
     <use style="fill:#b40426;stroke:#b40426;" x="129.1396" xlink:href="#C0_0_c36ab9f4f0" y="420.72364"/>
    </g>
    <g clip-path="url(#pd3e924470c)">
     <use style="fill:#3b4cc0;stroke:#3b4cc0;" x="361.348371" xlink:href="#C0_0_c36ab9f4f0" y="389.125315"/>
    </g>
    <g clip-path="url(#pd3e924470c)">
     <use style="fill:#b40426;stroke:#b40426;" x="268.790029" xlink:href="#C0_0_c36ab9f4f0" y="443.066019"/>
    </g>
    <g clip-path="url(#pd3e924470c)">
     <use style="fill:#3b4cc0;stroke:#3b4cc0;" x="245.51301" xlink:href="#C0_0_c36ab9f4f0" y="97.335117"/>
    </g>
    <g clip-path="url(#pd3e924470c)">
     <use style="fill:#b40426;stroke:#b40426;" x="504.365193" xlink:href="#C0_0_c36ab9f4f0" y="410.371294"/>
    </g>
    <g clip-path="url(#pd3e924470c)">
     <use style="fill:#b40426;stroke:#b40426;" x="450.862836" xlink:href="#C0_0_c36ab9f4f0" y="271.545056"/>
    </g>
    <g clip-path="url(#pd3e924470c)">
     <use style="fill:#3b4cc0;stroke:#3b4cc0;" x="106.093571" xlink:href="#C0_0_c36ab9f4f0" y="116.84578"/>
    </g>
    <g clip-path="url(#pd3e924470c)">
     <use style="fill:#b40426;stroke:#b40426;" x="80.137495" xlink:href="#C0_0_c36ab9f4f0" y="323.87579"/>
    </g>
    <g clip-path="url(#pd3e924470c)">
     <use style="fill:#b40426;stroke:#b40426;" x="433.106614" xlink:href="#C0_0_c36ab9f4f0" y="509.405798"/>
    </g>
   </g>
   <g id="patch_3">
    <path clip-path="url(#pd3e924470c)" d="M 273.747572 242.544592 
L 361.7122 242.544592 
L 361.7122 154.579964 
L 273.747572 154.579964 
z
" style="fill:none;stroke:#000000;stroke-linejoin:miter;"/>
   </g>
   <g id="patch_4">
    <path clip-path="url(#pd3e924470c)" d="M 163.553863 324.985948 
L 241.370277 324.985948 
L 241.370277 247.169533 
L 163.553863 247.169533 
z
" style="fill:none;stroke:#000000;stroke-linejoin:miter;"/>
   </g>
   <g id="patch_5">
    <path clip-path="url(#pd3e924470c)" d="M 419.790697 164.805225 
L 519.168969 164.805225 
L 519.168969 65.426953 
L 419.790697 65.426953 
z
" style="fill:none;stroke:#000000;stroke-linejoin:miter;"/>
   </g>
   <g id="patch_6">
    <path clip-path="url(#pd3e924470c)" d="M 55.924388 493.938847 
L 202.354806 493.938847 
L 202.354806 347.50843 
L 55.924388 347.50843 
z
" style="fill:none;stroke:#000000;stroke-linejoin:miter;"/>
   </g>
   <g id="patch_7">
    <path clip-path="url(#pd3e924470c)" d="M 326.816452 423.657237 
L 395.880284 423.657237 
L 395.880284 354.593404 
L 326.816452 354.593404 
z
" style="fill:none;stroke:#000000;stroke-linejoin:miter;"/>
   </g>
   <g id="patch_8">
    <path clip-path="url(#pd3e924470c)" d="M 230.608297 481.247756 
L 306.971768 481.247756 
L 306.971768 404.884285 
L 230.608297 404.884285 
z
" style="fill:none;stroke:#000000;stroke-linejoin:miter;"/>
   </g>
   <g id="patch_9">
    <path clip-path="url(#pd3e924470c)" d="M 199.795657 143.052479 
L 291.230368 143.052479 
L 291.230368 51.617768 
L 199.795657 51.617768 
z
" style="fill:none;stroke:#000000;stroke-linejoin:miter;"/>
   </g>
   <g id="patch_10">
    <path clip-path="url(#pd3e924470c)" d="M 433.105671 481.63081 
L 575.624705 481.63081 
L 575.624705 339.111777 
L 433.105671 339.111777 
z
" style="fill:none;stroke:#000000;stroke-linejoin:miter;"/>
   </g>
   <g id="patch_11">
    <path clip-path="url(#pd3e924470c)" d="M 380.578381 341.829506 
L 521.147305 341.829506 
L 521.147305 201.260583 
L 380.578381 201.260583 
z
" style="fill:none;stroke:#000000;stroke-linejoin:miter;"/>
   </g>
   <g id="patch_12">
    <path clip-path="url(#pd3e924470c)" d="M 35.265731 187.673612 
L 176.921409 187.673612 
L 176.921409 46.017935 
L 35.265731 46.017935 
z
" style="fill:none;stroke:#000000;stroke-linejoin:miter;"/>
   </g>
   <g id="patch_13">
    <path clip-path="url(#pd3e924470c)" d="M 37.548434 366.464851 
L 122.726556 366.464851 
L 122.726556 281.28673 
L 37.548434 281.28673 
z
" style="fill:none;stroke:#000000;stroke-linejoin:miter;"/>
   </g>
   <g id="patch_14">
    <path clip-path="url(#pd3e924470c)" d="M 377.562082 564.950321 
L 488.651129 564.950321 
L 488.651129 453.861275 
L 377.562082 453.861275 
z
" style="fill:none;stroke:#000000;stroke-linejoin:miter;"/>
   </g>
   <g id="matplotlib.axis_1">
    <g id="xtick_1">
     <g id="line2d_1">
      <defs>
       <path d="M 0 0 
L 0 3.5 
" id="m2d0e596bef" style="stroke:#000000;stroke-width:0.8;"/>
      </defs>
      <g>
       <use style="stroke:#000000;stroke-width:0.8;" x="73.44" xlink:href="#m2d0e596bef" y="512.64"/>
      </g>
     </g>
     <g id="text_1">
      <!-- 0.0 -->
      <defs>
       <path d="M 31.78125 66.40625 
Q 24.171875 66.40625 20.328125 58.90625 
Q 16.5 51.421875 16.5 36.375 
Q 16.5 21.390625 20.328125 13.890625 
Q 24.171875 6.390625 31.78125 6.390625 
Q 39.453125 6.390625 43.28125 13.890625 
Q 47.125 21.390625 47.125 36.375 
Q 47.125 51.421875 43.28125 58.90625 
Q 39.453125 66.40625 31.78125 66.40625 
z
M 31.78125 74.21875 
Q 44.046875 74.21875 50.515625 64.515625 
Q 56.984375 54.828125 56.984375 36.375 
Q 56.984375 17.96875 50.515625 8.265625 
Q 44.046875 -1.421875 31.78125 -1.421875 
Q 19.53125 -1.421875 13.0625 8.265625 
Q 6.59375 17.96875 6.59375 36.375 
Q 6.59375 54.828125 13.0625 64.515625 
Q 19.53125 74.21875 31.78125 74.21875 
z
" id="DejaVuSans-30"/>
       <path d="M 10.6875 12.40625 
L 21 12.40625 
L 21 0 
L 10.6875 0 
z
" id="DejaVuSans-2e"/>
      </defs>
      <g transform="translate(65.488438 527.238438)scale(0.1 -0.1)">
       <use xlink:href="#DejaVuSans-30"/>
       <use x="63.623047" xlink:href="#DejaVuSans-2e"/>
       <use x="95.410156" xlink:href="#DejaVuSans-30"/>
      </g>
     </g>
    </g>
    <g id="xtick_2">
     <g id="line2d_2">
      <g>
       <use style="stroke:#000000;stroke-width:0.8;" x="162.144" xlink:href="#m2d0e596bef" y="512.64"/>
      </g>
     </g>
     <g id="text_2">
      <!-- 0.2 -->
      <defs>
       <path d="M 19.1875 8.296875 
L 53.609375 8.296875 
L 53.609375 0 
L 7.328125 0 
L 7.328125 8.296875 
Q 12.9375 14.109375 22.625 23.890625 
Q 32.328125 33.6875 34.8125 36.53125 
Q 39.546875 41.84375 41.421875 45.53125 
Q 43.3125 49.21875 43.3125 52.78125 
Q 43.3125 58.59375 39.234375 62.25 
Q 35.15625 65.921875 28.609375 65.921875 
Q 23.96875 65.921875 18.8125 64.3125 
Q 13.671875 62.703125 7.8125 59.421875 
L 7.8125 69.390625 
Q 13.765625 71.78125 18.9375 73 
Q 24.125 74.21875 28.421875 74.21875 
Q 39.75 74.21875 46.484375 68.546875 
Q 53.21875 62.890625 53.21875 53.421875 
Q 53.21875 48.921875 51.53125 44.890625 
Q 49.859375 40.875 45.40625 35.40625 
Q 44.1875 33.984375 37.640625 27.21875 
Q 31.109375 20.453125 19.1875 8.296875 
z
" id="DejaVuSans-32"/>
      </defs>
      <g transform="translate(154.192438 527.238438)scale(0.1 -0.1)">
       <use xlink:href="#DejaVuSans-30"/>
       <use x="63.623047" xlink:href="#DejaVuSans-2e"/>
       <use x="95.410156" xlink:href="#DejaVuSans-32"/>
      </g>
     </g>
    </g>
    <g id="xtick_3">
     <g id="line2d_3">
      <g>
       <use style="stroke:#000000;stroke-width:0.8;" x="250.848" xlink:href="#m2d0e596bef" y="512.64"/>
      </g>
     </g>
     <g id="text_3">
      <!-- 0.4 -->
      <defs>
       <path d="M 37.796875 64.3125 
L 12.890625 25.390625 
L 37.796875 25.390625 
z
M 35.203125 72.90625 
L 47.609375 72.90625 
L 47.609375 25.390625 
L 58.015625 25.390625 
L 58.015625 17.1875 
L 47.609375 17.1875 
L 47.609375 0 
L 37.796875 0 
L 37.796875 17.1875 
L 4.890625 17.1875 
L 4.890625 26.703125 
z
" id="DejaVuSans-34"/>
      </defs>
      <g transform="translate(242.896438 527.238438)scale(0.1 -0.1)">
       <use xlink:href="#DejaVuSans-30"/>
       <use x="63.623047" xlink:href="#DejaVuSans-2e"/>
       <use x="95.410156" xlink:href="#DejaVuSans-34"/>
      </g>
     </g>
    </g>
    <g id="xtick_4">
     <g id="line2d_4">
      <g>
       <use style="stroke:#000000;stroke-width:0.8;" x="339.552" xlink:href="#m2d0e596bef" y="512.64"/>
      </g>
     </g>
     <g id="text_4">
      <!-- 0.6 -->
      <defs>
       <path d="M 33.015625 40.375 
Q 26.375 40.375 22.484375 35.828125 
Q 18.609375 31.296875 18.609375 23.390625 
Q 18.609375 15.53125 22.484375 10.953125 
Q 26.375 6.390625 33.015625 6.390625 
Q 39.65625 6.390625 43.53125 10.953125 
Q 47.40625 15.53125 47.40625 23.390625 
Q 47.40625 31.296875 43.53125 35.828125 
Q 39.65625 40.375 33.015625 40.375 
z
M 52.59375 71.296875 
L 52.59375 62.3125 
Q 48.875 64.0625 45.09375 64.984375 
Q 41.3125 65.921875 37.59375 65.921875 
Q 27.828125 65.921875 22.671875 59.328125 
Q 17.53125 52.734375 16.796875 39.40625 
Q 19.671875 43.65625 24.015625 45.921875 
Q 28.375 48.1875 33.59375 48.1875 
Q 44.578125 48.1875 50.953125 41.515625 
Q 57.328125 34.859375 57.328125 23.390625 
Q 57.328125 12.15625 50.6875 5.359375 
Q 44.046875 -1.421875 33.015625 -1.421875 
Q 20.359375 -1.421875 13.671875 8.265625 
Q 6.984375 17.96875 6.984375 36.375 
Q 6.984375 53.65625 15.1875 63.9375 
Q 23.390625 74.21875 37.203125 74.21875 
Q 40.921875 74.21875 44.703125 73.484375 
Q 48.484375 72.75 52.59375 71.296875 
z
" id="DejaVuSans-36"/>
      </defs>
      <g transform="translate(331.600437 527.238438)scale(0.1 -0.1)">
       <use xlink:href="#DejaVuSans-30"/>
       <use x="63.623047" xlink:href="#DejaVuSans-2e"/>
       <use x="95.410156" xlink:href="#DejaVuSans-36"/>
      </g>
     </g>
    </g>
    <g id="xtick_5">
     <g id="line2d_5">
      <g>
       <use style="stroke:#000000;stroke-width:0.8;" x="428.256" xlink:href="#m2d0e596bef" y="512.64"/>
      </g>
     </g>
     <g id="text_5">
      <!-- 0.8 -->
      <defs>
       <path d="M 31.78125 34.625 
Q 24.75 34.625 20.71875 30.859375 
Q 16.703125 27.09375 16.703125 20.515625 
Q 16.703125 13.921875 20.71875 10.15625 
Q 24.75 6.390625 31.78125 6.390625 
Q 38.8125 6.390625 42.859375 10.171875 
Q 46.921875 13.96875 46.921875 20.515625 
Q 46.921875 27.09375 42.890625 30.859375 
Q 38.875 34.625 31.78125 34.625 
z
M 21.921875 38.8125 
Q 15.578125 40.375 12.03125 44.71875 
Q 8.5 49.078125 8.5 55.328125 
Q 8.5 64.0625 14.71875 69.140625 
Q 20.953125 74.21875 31.78125 74.21875 
Q 42.671875 74.21875 48.875 69.140625 
Q 55.078125 64.0625 55.078125 55.328125 
Q 55.078125 49.078125 51.53125 44.71875 
Q 48 40.375 41.703125 38.8125 
Q 48.828125 37.15625 52.796875 32.3125 
Q 56.78125 27.484375 56.78125 20.515625 
Q 56.78125 9.90625 50.3125 4.234375 
Q 43.84375 -1.421875 31.78125 -1.421875 
Q 19.734375 -1.421875 13.25 4.234375 
Q 6.78125 9.90625 6.78125 20.515625 
Q 6.78125 27.484375 10.78125 32.3125 
Q 14.796875 37.15625 21.921875 38.8125 
z
M 18.3125 54.390625 
Q 18.3125 48.734375 21.84375 45.5625 
Q 25.390625 42.390625 31.78125 42.390625 
Q 38.140625 42.390625 41.71875 45.5625 
Q 45.3125 48.734375 45.3125 54.390625 
Q 45.3125 60.0625 41.71875 63.234375 
Q 38.140625 66.40625 31.78125 66.40625 
Q 25.390625 66.40625 21.84375 63.234375 
Q 18.3125 60.0625 18.3125 54.390625 
z
" id="DejaVuSans-38"/>
      </defs>
      <g transform="translate(420.304438 527.238438)scale(0.1 -0.1)">
       <use xlink:href="#DejaVuSans-30"/>
       <use x="63.623047" xlink:href="#DejaVuSans-2e"/>
       <use x="95.410156" xlink:href="#DejaVuSans-38"/>
      </g>
     </g>
    </g>
    <g id="xtick_6">
     <g id="line2d_6">
      <g>
       <use style="stroke:#000000;stroke-width:0.8;" x="516.96" xlink:href="#m2d0e596bef" y="512.64"/>
      </g>
     </g>
     <g id="text_6">
      <!-- 1.0 -->
      <defs>
       <path d="M 12.40625 8.296875 
L 28.515625 8.296875 
L 28.515625 63.921875 
L 10.984375 60.40625 
L 10.984375 69.390625 
L 28.421875 72.90625 
L 38.28125 72.90625 
L 38.28125 8.296875 
L 54.390625 8.296875 
L 54.390625 0 
L 12.40625 0 
z
" id="DejaVuSans-31"/>
      </defs>
      <g transform="translate(509.008438 527.238438)scale(0.1 -0.1)">
       <use xlink:href="#DejaVuSans-31"/>
       <use x="63.623047" xlink:href="#DejaVuSans-2e"/>
       <use x="95.410156" xlink:href="#DejaVuSans-30"/>
      </g>
     </g>
    </g>
   </g>
   <g id="matplotlib.axis_2">
    <g id="ytick_1">
     <g id="line2d_7">
      <defs>
       <path d="M 0 0 
L -3.5 0 
" id="me6a9574142" style="stroke:#000000;stroke-width:0.8;"/>
      </defs>
      <g>
       <use style="stroke:#000000;stroke-width:0.8;" x="72" xlink:href="#me6a9574142" y="512.64"/>
      </g>
     </g>
     <g id="text_7">
      <!-- 0.0 -->
      <g transform="translate(49.096875 516.439219)scale(0.1 -0.1)">
       <use xlink:href="#DejaVuSans-30"/>
       <use x="63.623047" xlink:href="#DejaVuSans-2e"/>
       <use x="95.410156" xlink:href="#DejaVuSans-30"/>
      </g>
     </g>
    </g>
    <g id="ytick_2">
     <g id="line2d_8">
      <g>
       <use style="stroke:#000000;stroke-width:0.8;" x="72" xlink:href="#me6a9574142" y="423.936"/>
      </g>
     </g>
     <g id="text_8">
      <!-- 0.2 -->
      <g transform="translate(49.096875 427.735219)scale(0.1 -0.1)">
       <use xlink:href="#DejaVuSans-30"/>
       <use x="63.623047" xlink:href="#DejaVuSans-2e"/>
       <use x="95.410156" xlink:href="#DejaVuSans-32"/>
      </g>
     </g>
    </g>
    <g id="ytick_3">
     <g id="line2d_9">
      <g>
       <use style="stroke:#000000;stroke-width:0.8;" x="72" xlink:href="#me6a9574142" y="335.232"/>
      </g>
     </g>
     <g id="text_9">
      <!-- 0.4 -->
      <g transform="translate(49.096875 339.031219)scale(0.1 -0.1)">
       <use xlink:href="#DejaVuSans-30"/>
       <use x="63.623047" xlink:href="#DejaVuSans-2e"/>
       <use x="95.410156" xlink:href="#DejaVuSans-34"/>
      </g>
     </g>
    </g>
    <g id="ytick_4">
     <g id="line2d_10">
      <g>
       <use style="stroke:#000000;stroke-width:0.8;" x="72" xlink:href="#me6a9574142" y="246.528"/>
      </g>
     </g>
     <g id="text_10">
      <!-- 0.6 -->
      <g transform="translate(49.096875 250.327219)scale(0.1 -0.1)">
       <use xlink:href="#DejaVuSans-30"/>
       <use x="63.623047" xlink:href="#DejaVuSans-2e"/>
       <use x="95.410156" xlink:href="#DejaVuSans-36"/>
      </g>
     </g>
    </g>
    <g id="ytick_5">
     <g id="line2d_11">
      <g>
       <use style="stroke:#000000;stroke-width:0.8;" x="72" xlink:href="#me6a9574142" y="157.824"/>
      </g>
     </g>
     <g id="text_11">
      <!-- 0.8 -->
      <g transform="translate(49.096875 161.623219)scale(0.1 -0.1)">
       <use xlink:href="#DejaVuSans-30"/>
       <use x="63.623047" xlink:href="#DejaVuSans-2e"/>
       <use x="95.410156" xlink:href="#DejaVuSans-38"/>
      </g>
     </g>
    </g>
    <g id="ytick_6">
     <g id="line2d_12">
      <g>
       <use style="stroke:#000000;stroke-width:0.8;" x="72" xlink:href="#me6a9574142" y="69.12"/>
      </g>
     </g>
     <g id="text_12">
      <!-- 1.0 -->
      <g transform="translate(49.096875 72.919219)scale(0.1 -0.1)">
       <use xlink:href="#DejaVuSans-31"/>
       <use x="63.623047" xlink:href="#DejaVuSans-2e"/>
       <use x="95.410156" xlink:href="#DejaVuSans-30"/>
      </g>
     </g>
    </g>
   </g>
   <g id="patch_15">
    <path d="M 72 512.64 
L 72 69.12 
" style="fill:none;stroke:#000000;stroke-linecap:square;stroke-linejoin:miter;stroke-width:0.8;"/>
   </g>
   <g id="patch_16">
    <path d="M 518.4 512.64 
L 518.4 69.12 
" style="fill:none;stroke:#000000;stroke-linecap:square;stroke-linejoin:miter;stroke-width:0.8;"/>
   </g>
   <g id="patch_17">
    <path d="M 72 512.64 
L 518.4 512.64 
" style="fill:none;stroke:#000000;stroke-linecap:square;stroke-linejoin:miter;stroke-width:0.8;"/>
   </g>
   <g id="patch_18">
    <path d="M 72 69.12 
L 518.4 69.12 
" style="fill:none;stroke:#000000;stroke-linecap:square;stroke-linejoin:miter;stroke-width:0.8;"/>
   </g>
  </g>
 </g>
 <defs>
  <clipPath id="pd3e924470c">
   <rect height="443.52" width="446.4" x="72" y="69.12"/>
  </clipPath>
 </defs>
</svg>
