<?xml version="1.0" encoding="utf-8" standalone="no"?>
<!DOCTYPE svg PUBLIC "-//W3C//DTD SVG 1.1//EN"
  "http://www.w3.org/Graphics/SVG/1.1/DTD/svg11.dtd">
<!-- Created with matplotlib (http://matplotlib.org/) -->
<svg height="576pt" version="1.1" viewBox="0 0 576 576" width="576pt" xmlns="http://www.w3.org/2000/svg" xmlns:xlink="http://www.w3.org/1999/xlink">
 <defs>
  <style type="text/css">
*{stroke-linecap:butt;stroke-linejoin:round;}
  </style>
 </defs>
 <g id="figure_1">
  <g id="patch_1">
   <path d="M 0 576 
L 576 576 
L 576 0 
L 0 0 
z
" style="fill:#ffffff;"/>
  </g>
  <g id="axes_1">
   <g id="patch_2">
    <path d="M 72 504 
L 518.4 504 
L 518.4 69.12 
L 72 69.12 
z
" style="fill:#ffffff;"/>
   </g>
   <g id="PathCollection_1">
    <path clip-path="url(#p5412d71e95)" d="M 76.509091 504 
L 81.018182 504 
L 85.527273 504 
L 90.036364 504 
L 94.545455 504 
L 99.054545 504 
L 103.563636 504 
L 108.072727 504 
L 112.581818 504 
L 117.090909 504 
L 121.6 504 
L 126.109091 504 
L 130.618182 504 
L 133.837024 504 
L 135.127273 501.673704 
L 136.273393 499.607273 
L 138.709747 495.214545 
L 139.636364 493.543868 
L 141.146108 490.821818 
L 143.582462 486.429091 
L 144.145455 485.414023 
L 146.018824 482.036364 
L 148.455172 477.643636 
L 148.654545 477.284168 
L 150.891533 473.250909 
L 153.163636 469.154318 
L 153.327883 468.858182 
L 155.76425 464.465455 
L 157.672727 461.024494 
L 158.200609 460.072727 
L 160.636965 455.68 
L 162.181818 452.894641 
L 163.07332 451.287273 
L 165.649915 446.894545 
L 166.690909 444.764796 
L 167.946035 442.501818 
L 170.590885 438.109091 
L 171.2 437.025637 
L 173.29007 433.716364 
L 175.549141 429.323636 
L 175.709091 429.062153 
L 178.416497 424.930909 
L 180.218182 421.835778 
L 181.062269 420.538182 
L 183.610252 416.145455 
L 184.727273 414.319369 
L 186.34017 411.752727 
L 188.984332 407.36 
L 189.236364 406.947982 
L 191.671368 402.967273 
L 193.745455 399.576586 
L 194.358405 398.574545 
L 197.045444 394.181818 
L 198.254545 392.247613 
L 199.771579 389.789091 
L 202.579709 385.396364 
L 202.763636 385.111242 
L 205.413379 381.003636 
L 207.272727 378.12129 
L 208.247045 376.610909 
L 211.080716 372.218182 
L 211.781818 371.131339 
L 213.914383 367.825455 
L 216.290909 364.243917 
L 216.819661 363.432727 
L 219.818859 359.04 
L 220.8 357.604903 
L 222.822059 354.647273 
L 225.309091 351.009538 
L 225.825261 350.254545 
L 228.828466 345.861818 
L 229.818182 344.41418 
L 231.831667 341.469091 
L 234.327273 337.818813 
L 234.834868 337.076364 
L 237.838074 332.683636 
L 238.836364 331.223456 
L 240.841276 328.290909 
L 243.345455 324.637366 
L 243.855262 323.898182 
L 246.922878 319.505455 
L 247.854545 318.169115 
L 249.98282 315.112727 
L 252.363636 311.683635 
L 253.032687 310.72 
L 256.082554 306.327273 
L 256.872727 305.189185 
L 259.132421 301.934545 
L 261.381818 298.694736 
L 262.182289 297.541818 
L 265.232155 293.149091 
L 265.890909 292.200288 
L 268.282024 288.756364 
L 270.4 285.705837 
L 271.331889 284.363636 
L 274.381757 279.970909 
L 274.909091 279.211389 
L 277.431622 275.578182 
L 279.418182 272.716939 
L 280.48149 271.185455 
L 283.531355 266.792727 
L 283.927273 266.270274 
L 286.87156 262.4 
L 288.436364 260.703924 
L 291.746072 258.007273 
L 292.945455 257.344345 
L 297.454545 257.492344 
L 298.371044 258.007273 
L 301.963636 260.811245 
L 303.56103 262.4 
L 306.472727 265.79303 
L 307.334076 266.792727 
L 310.735983 271.185455 
L 310.981818 271.50289 
L 314.137889 275.578182 
L 315.490909 277.325275 
L 317.539796 279.970909 
L 320 283.147659 
L 320.941703 284.363636 
L 324.343611 288.756364 
L 324.509091 288.970041 
L 328.026138 293.149091 
L 329.018182 293.902336 
L 333.527273 295.307178 
L 338.036364 296.712025 
L 342.545455 297.239859 
L 347.054545 296.177036 
L 351.563636 294.078088 
L 352.396296 293.149091 
L 355.415272 288.756364 
L 356.072727 287.799739 
L 358.434239 284.363636 
L 360.581818 281.23882 
L 361.453211 279.970909 
L 364.47219 275.578182 
L 365.090909 274.677919 
L 367.491158 271.185455 
L 369.6 268.117002 
L 370.51013 266.792727 
L 374.109091 262.630157 
L 374.309043 262.4 
L 378.573986 258.007273 
L 378.618182 257.961753 
L 382.838954 253.614545 
L 383.127273 253.317589 
L 387.103932 249.221818 
L 387.636364 248.673436 
L 391.368874 244.829091 
L 392.145455 244.02925 
L 395.633849 240.436364 
L 396.654545 239.385085 
L 399.898808 236.043636 
L 401.163636 234.74092 
L 404.163774 231.650909 
L 405.672727 230.096748 
L 408.428742 227.258182 
L 410.181818 225.452599 
L 412.693712 222.865455 
L 414.690909 220.808426 
L 416.958671 218.472727 
L 419.2 216.164248 
L 421.223609 214.08 
L 423.709091 211.520054 
L 425.488566 209.687273 
L 428.218182 206.875911 
L 429.75356 205.294545 
L 432.727273 202.231738 
L 434.018512 200.901818 
L 437.236364 197.587536 
L 438.28344 196.509091 
L 441.745455 192.9434 
L 442.54844 192.116364 
L 446.254545 188.299185 
L 446.813355 187.723636 
L 450.763636 183.655065 
L 451.078363 183.330909 
L 455.272727 179.010861 
L 455.343291 178.938182 
L 459.608283 174.545455 
L 459.781818 174.36672 
L 463.873227 170.152727 
L 464.290909 169.722536 
L 468.138193 165.76 
L 468.8 165.078359 
L 472.40317 161.367273 
L 473.309091 160.434216 
L 476.668121 156.974545 
L 477.818182 155.790037 
L 480.933115 152.581818 
L 482.327273 151.145888 
L 485.19807 148.189091 
L 486.836364 146.501743 
L 489.463049 143.796364 
L 491.345455 141.857562 
L 493.727992 139.403636 
L 495.854545 137.213356 
L 497.99293 135.010909 
L 500.363636 132.569179 
L 502.257898 130.618182 
L 504.872727 127.925027 
L 506.522855 126.225455 
L 509.381818 123.280834 
L 510.787808 121.832727 
L 513.890909 118.636685 
L 515.052786 117.44 
L 518.4 113.992525 
L 518.4 113.047273 
L 518.4 108.654545 
L 518.4 104.261818 
L 518.4 99.869091 
L 518.4 95.476364 
L 518.4 91.083636 
L 518.4 86.690909 
L 518.4 82.298182 
L 518.4 77.905455 
L 518.4 73.512727 
L 518.4 69.12 
L 513.890909 69.12 
L 509.381818 69.12 
L 504.872727 69.12 
L 500.363636 69.12 
L 495.854545 69.12 
L 491.345455 69.12 
L 486.836364 69.12 
L 482.327273 69.12 
L 477.818182 69.12 
L 473.309091 69.12 
L 468.8 69.12 
L 464.290909 69.12 
L 459.781818 69.12 
L 455.272727 69.12 
L 450.763636 69.12 
L 446.254545 69.12 
L 441.745455 69.12 
L 437.236364 69.12 
L 432.727273 69.12 
L 428.218182 69.12 
L 423.709091 69.12 
L 419.2 69.12 
L 414.690909 69.12 
L 410.181818 69.12 
L 405.672727 69.12 
L 401.163636 69.12 
L 396.654545 69.12 
L 392.145455 69.12 
L 387.636364 69.12 
L 383.127273 69.12 
L 378.618182 69.12 
L 374.109091 69.12 
L 369.6 69.12 
L 365.090909 69.12 
L 360.581818 69.12 
L 356.072727 69.12 
L 351.563636 69.12 
L 347.054545 69.12 
L 342.545455 69.12 
L 338.036364 69.12 
L 333.527273 69.12 
L 329.018182 69.12 
L 324.509091 69.12 
L 320 69.12 
L 315.490909 69.12 
L 310.981818 69.12 
L 306.472727 69.12 
L 301.963636 69.12 
L 297.454545 69.12 
L 292.945455 69.12 
L 288.436364 69.12 
L 283.927273 69.12 
L 279.418182 69.12 
L 274.909091 69.12 
L 270.4 69.12 
L 265.890909 69.12 
L 261.381818 69.12 
L 256.872727 69.12 
L 252.363636 69.12 
L 247.854545 69.12 
L 243.345455 69.12 
L 238.836364 69.12 
L 234.327273 69.12 
L 229.818182 69.12 
L 225.309091 69.12 
L 220.8 69.12 
L 216.290909 69.12 
L 211.781818 69.12 
L 207.272727 69.12 
L 202.763636 69.12 
L 198.254545 69.12 
L 193.745455 69.12 
L 189.236364 69.12 
L 184.727273 69.12 
L 180.218182 69.12 
L 175.709091 69.12 
L 171.2 69.12 
L 166.690909 69.12 
L 162.181818 69.12 
L 157.672727 69.12 
L 153.163636 69.12 
L 148.654545 69.12 
L 144.145455 69.12 
L 139.636364 69.12 
L 135.127273 69.12 
L 130.618182 69.12 
L 126.109091 69.12 
L 121.6 69.12 
L 117.090909 69.12 
L 112.581818 69.12 
L 108.072727 69.12 
L 103.563636 69.12 
L 99.054545 69.12 
L 94.545455 69.12 
L 90.036364 69.12 
L 85.527273 69.12 
L 81.018182 69.12 
L 76.509091 69.12 
L 72 69.12 
L 72 73.512727 
L 72 77.905455 
L 72 82.298182 
L 72 86.690909 
L 72 91.083636 
L 72 95.476364 
L 72 99.869091 
L 72 104.261818 
L 72 108.654545 
L 72 113.047273 
L 72 117.44 
L 72 121.832727 
L 72 126.225455 
L 72 130.618182 
L 72 135.010909 
L 72 139.403636 
L 72 143.796364 
L 72 148.189091 
L 72 152.581818 
L 72 156.974545 
L 72 161.367273 
L 72 165.76 
L 72 170.152727 
L 72 174.545455 
L 72 178.938182 
L 72 183.330909 
L 72 187.723636 
L 72 192.116364 
L 72 196.509091 
L 72 200.901818 
L 72 205.294545 
L 72 209.687273 
L 72 214.08 
L 72 218.472727 
L 72 222.865455 
L 72 227.258182 
L 72 231.650909 
L 72 236.043636 
L 72 240.436364 
L 72 244.829091 
L 72 249.221818 
L 72 253.614545 
L 72 258.007273 
L 72 262.4 
L 72 266.792727 
L 72 271.185455 
L 72 275.578182 
L 72 279.970909 
L 72 284.363636 
L 72 288.756364 
L 72 293.149091 
L 72 297.541818 
L 72 301.934545 
L 72 306.327273 
L 72 310.72 
L 72 315.112727 
L 72 319.505455 
L 72 323.898182 
L 72 328.290909 
L 72 332.683636 
L 72 337.076364 
L 72 341.469091 
L 72 345.861818 
L 72 350.254545 
L 72 354.647273 
L 72 359.04 
L 72 363.432727 
L 72 367.825455 
L 72 372.218182 
L 72 376.610909 
L 72 381.003636 
L 72 385.396364 
L 72 389.789091 
L 72 394.181818 
L 72 398.574545 
L 72 402.967273 
L 72 407.36 
L 72 411.752727 
L 72 416.145455 
L 72 420.538182 
L 72 424.930909 
L 72 429.323636 
L 72 433.716364 
L 72 438.109091 
L 72 442.501818 
L 72 446.894545 
L 72 451.287273 
L 72 455.68 
L 72 460.072727 
L 72 464.465455 
L 72 468.858182 
L 72 473.250909 
L 72 477.643636 
L 72 482.036364 
L 72 486.429091 
L 72 490.821818 
L 72 495.214545 
L 72 499.607273 
L 72 504 
z
" style="fill:#8db0fe;"/>
   </g>
   <g id="PathCollection_2">
    <path clip-path="url(#p5412d71e95)" d="M 135.127273 504 
L 139.636364 504 
L 144.145455 504 
L 148.654545 504 
L 153.163636 504 
L 157.672727 504 
L 162.181818 504 
L 166.690909 504 
L 171.2 504 
L 175.709091 504 
L 180.218182 504 
L 184.727273 504 
L 189.236364 504 
L 193.745455 504 
L 198.254545 504 
L 202.763636 504 
L 207.272727 504 
L 211.781818 504 
L 216.290909 504 
L 220.8 504 
L 225.309091 504 
L 229.818182 504 
L 234.327273 504 
L 238.836364 504 
L 243.345455 504 
L 247.854545 504 
L 252.363636 504 
L 256.872727 504 
L 261.381818 504 
L 265.890909 504 
L 270.4 504 
L 274.909091 504 
L 279.418182 504 
L 283.927273 504 
L 288.436364 504 
L 292.945455 504 
L 297.454545 504 
L 301.963636 504 
L 306.472727 504 
L 310.981818 504 
L 315.490909 504 
L 320 504 
L 324.509091 504 
L 329.018182 504 
L 333.527273 504 
L 338.036364 504 
L 342.545455 504 
L 347.054545 504 
L 351.563636 504 
L 356.072727 504 
L 360.581818 504 
L 365.090909 504 
L 369.6 504 
L 374.109091 504 
L 378.618182 504 
L 383.127273 504 
L 387.636364 504 
L 392.145455 504 
L 396.654545 504 
L 401.163636 504 
L 405.672727 504 
L 410.181818 504 
L 414.690909 504 
L 419.2 504 
L 423.709091 504 
L 428.218182 504 
L 432.727273 504 
L 437.236364 504 
L 441.745455 504 
L 446.254545 504 
L 450.763636 504 
L 455.272727 504 
L 459.781818 504 
L 464.290909 504 
L 468.8 504 
L 473.309091 504 
L 477.818182 504 
L 482.327273 504 
L 486.836364 504 
L 491.345455 504 
L 495.854545 504 
L 500.363636 504 
L 504.872727 504 
L 509.381818 504 
L 513.890909 504 
L 518.4 504 
L 518.4 499.607273 
L 518.4 495.214545 
L 518.4 490.821818 
L 518.4 486.429091 
L 518.4 482.036364 
L 518.4 477.643636 
L 518.4 473.250909 
L 518.4 468.858182 
L 518.4 464.465455 
L 518.4 460.072727 
L 518.4 455.68 
L 518.4 451.287273 
L 518.4 446.894545 
L 518.4 442.501818 
L 518.4 438.109091 
L 518.4 433.716364 
L 518.4 429.323636 
L 518.4 424.930909 
L 518.4 420.538182 
L 518.4 416.145455 
L 518.4 411.752727 
L 518.4 407.36 
L 518.4 402.967273 
L 518.4 398.574545 
L 518.4 394.181818 
L 518.4 389.789091 
L 518.4 385.396364 
L 518.4 381.003636 
L 518.4 376.610909 
L 518.4 372.218182 
L 518.4 367.825455 
L 518.4 363.432727 
L 518.4 359.04 
L 518.4 354.647273 
L 518.4 350.254545 
L 518.4 345.861818 
L 518.4 341.469091 
L 518.4 337.076364 
L 518.4 332.683636 
L 518.4 328.290909 
L 518.4 323.898182 
L 518.4 319.505455 
L 518.4 315.112727 
L 518.4 310.72 
L 518.4 306.327273 
L 518.4 301.934545 
L 518.4 297.541818 
L 518.4 293.149091 
L 518.4 288.756364 
L 518.4 284.363636 
L 518.4 279.970909 
L 518.4 275.578182 
L 518.4 271.185455 
L 518.4 266.792727 
L 518.4 262.4 
L 518.4 258.007273 
L 518.4 253.614545 
L 518.4 249.221818 
L 518.4 244.829091 
L 518.4 240.436364 
L 518.4 236.043636 
L 518.4 231.650909 
L 518.4 227.258182 
L 518.4 222.865455 
L 518.4 218.472727 
L 518.4 214.08 
L 518.4 209.687273 
L 518.4 205.294545 
L 518.4 200.901818 
L 518.4 196.509091 
L 518.4 192.116364 
L 518.4 187.723636 
L 518.4 183.330909 
L 518.4 178.938182 
L 518.4 174.545455 
L 518.4 170.152727 
L 518.4 165.76 
L 518.4 161.367273 
L 518.4 156.974545 
L 518.4 152.581818 
L 518.4 148.189091 
L 518.4 143.796364 
L 518.4 139.403636 
L 518.4 135.010909 
L 518.4 130.618182 
L 518.4 126.225455 
L 518.4 121.832727 
L 518.4 117.44 
L 518.4 113.992525 
L 515.052786 117.44 
L 513.890909 118.636685 
L 510.787808 121.832727 
L 509.381818 123.280834 
L 506.522855 126.225455 
L 504.872727 127.925027 
L 502.257898 130.618182 
L 500.363636 132.569179 
L 497.99293 135.010909 
L 495.854545 137.213356 
L 493.727992 139.403636 
L 491.345455 141.857562 
L 489.463049 143.796364 
L 486.836364 146.501743 
L 485.19807 148.189091 
L 482.327273 151.145888 
L 480.933115 152.581818 
L 477.818182 155.790037 
L 476.668121 156.974545 
L 473.309091 160.434216 
L 472.40317 161.367273 
L 468.8 165.078359 
L 468.138193 165.76 
L 464.290909 169.722536 
L 463.873227 170.152727 
L 459.781818 174.36672 
L 459.608283 174.545455 
L 455.343291 178.938182 
L 455.272727 179.010861 
L 451.078363 183.330909 
L 450.763636 183.655065 
L 446.813355 187.723636 
L 446.254545 188.299185 
L 442.54844 192.116364 
L 441.745455 192.9434 
L 438.28344 196.509091 
L 437.236364 197.587536 
L 434.018512 200.901818 
L 432.727273 202.231738 
L 429.75356 205.294545 
L 428.218182 206.875911 
L 425.488566 209.687273 
L 423.709091 211.520054 
L 421.223609 214.08 
L 419.2 216.164248 
L 416.958671 218.472727 
L 414.690909 220.808426 
L 412.693712 222.865455 
L 410.181818 225.452599 
L 408.428742 227.258182 
L 405.672727 230.096748 
L 404.163774 231.650909 
L 401.163636 234.74092 
L 399.898808 236.043636 
L 396.654545 239.385085 
L 395.633849 240.436364 
L 392.145455 244.02925 
L 391.368874 244.829091 
L 387.636364 248.673436 
L 387.103932 249.221818 
L 383.127273 253.317589 
L 382.838954 253.614545 
L 378.618182 257.961753 
L 378.573986 258.007273 
L 374.309043 262.4 
L 374.109091 262.630157 
L 370.51013 266.792727 
L 369.6 268.117002 
L 367.491158 271.185455 
L 365.090909 274.677919 
L 364.47219 275.578182 
L 361.453211 279.970909 
L 360.581818 281.23882 
L 358.434239 284.363636 
L 356.072727 287.799739 
L 355.415272 288.756364 
L 352.396296 293.149091 
L 351.563636 294.078088 
L 347.054545 296.177036 
L 342.545455 297.239859 
L 338.036364 296.712025 
L 333.527273 295.307178 
L 329.018182 293.902336 
L 328.026138 293.149091 
L 324.509091 288.970041 
L 324.343611 288.756364 
L 320.941703 284.363636 
L 320 283.147659 
L 317.539796 279.970909 
L 315.490909 277.325275 
L 314.137889 275.578182 
L 310.981818 271.50289 
L 310.735983 271.185455 
L 307.334076 266.792727 
L 306.472727 265.79303 
L 303.56103 262.4 
L 301.963636 260.811245 
L 298.371044 258.007273 
L 297.454545 257.492344 
L 292.945455 257.344345 
L 291.746072 258.007273 
L 288.436364 260.703924 
L 286.87156 262.4 
L 283.927273 266.270274 
L 283.531355 266.792727 
L 280.48149 271.185455 
L 279.418182 272.716939 
L 277.431622 275.578182 
L 274.909091 279.211389 
L 274.381757 279.970909 
L 271.331889 284.363636 
L 270.4 285.705837 
L 268.282024 288.756364 
L 265.890909 292.200288 
L 265.232155 293.149091 
L 262.182289 297.541818 
L 261.381818 298.694736 
L 259.132421 301.934545 
L 256.872727 305.189185 
L 256.082554 306.327273 
L 253.032687 310.72 
L 252.363636 311.683635 
L 249.98282 315.112727 
L 247.854545 318.169115 
L 246.922878 319.505455 
L 243.855262 323.898182 
L 243.345455 324.637366 
L 240.841276 328.290909 
L 238.836364 331.223456 
L 237.838074 332.683636 
L 234.834868 337.076364 
L 234.327273 337.818813 
L 231.831667 341.469091 
L 229.818182 344.41418 
L 228.828466 345.861818 
L 225.825261 350.254545 
L 225.309091 351.009538 
L 222.822059 354.647273 
L 220.8 357.604903 
L 219.818859 359.04 
L 216.819661 363.432727 
L 216.290909 364.243917 
L 213.914383 367.825455 
L 211.781818 371.131339 
L 211.080716 372.218182 
L 208.247045 376.610909 
L 207.272727 378.12129 
L 205.413379 381.003636 
L 202.763636 385.111242 
L 202.579709 385.396364 
L 199.771579 389.789091 
L 198.254545 392.247613 
L 197.045444 394.181818 
L 194.358405 398.574545 
L 193.745455 399.576586 
L 191.671368 402.967273 
L 189.236364 406.947982 
L 188.984332 407.36 
L 186.34017 411.752727 
L 184.727273 414.319369 
L 183.610252 416.145455 
L 181.062269 420.538182 
L 180.218182 421.835778 
L 178.416497 424.930909 
L 175.709091 429.062153 
L 175.549141 429.323636 
L 173.29007 433.716364 
L 171.2 437.025637 
L 170.590885 438.109091 
L 167.946035 442.501818 
L 166.690909 444.764796 
L 165.649915 446.894545 
L 163.07332 451.287273 
L 162.181818 452.894641 
L 160.636965 455.68 
L 158.200609 460.072727 
L 157.672727 461.024494 
L 155.76425 464.465455 
L 153.327883 468.858182 
L 153.163636 469.154318 
L 150.891533 473.250909 
L 148.654545 477.284168 
L 148.455172 477.643636 
L 146.018824 482.036364 
L 144.145455 485.414023 
L 143.582462 486.429091 
L 141.146108 490.821818 
L 139.636364 493.543868 
L 138.709747 495.214545 
L 136.273393 499.607273 
L 135.127273 501.673704 
L 133.837024 504 
z
" style="fill:#f4987a;"/>
   </g>
   <g id="matplotlib.axis_1">
    <g id="xtick_1">
     <g id="line2d_1">
      <defs>
       <path d="M 0 0 
L 0 3.5 
" id="m4cd8e9d0cc" style="stroke:#000000;stroke-width:0.8;"/>
      </defs>
      <g>
       <use style="stroke:#000000;stroke-width:0.8;" x="116.64" xlink:href="#m4cd8e9d0cc" y="504"/>
      </g>
     </g>
     <g id="text_1">
      <!-- −4 -->
      <defs>
       <path d="M 10.59375 35.5 
L 73.1875 35.5 
L 73.1875 27.203125 
L 10.59375 27.203125 
z
" id="DejaVuSans-2212"/>
       <path d="M 37.796875 64.3125 
L 12.890625 25.390625 
L 37.796875 25.390625 
z
M 35.203125 72.90625 
L 47.609375 72.90625 
L 47.609375 25.390625 
L 58.015625 25.390625 
L 58.015625 17.1875 
L 47.609375 17.1875 
L 47.609375 0 
L 37.796875 0 
L 37.796875 17.1875 
L 4.890625 17.1875 
L 4.890625 26.703125 
z
" id="DejaVuSans-34"/>
      </defs>
      <g transform="translate(109.268906 518.598438)scale(0.1 -0.1)">
       <use xlink:href="#DejaVuSans-2212"/>
       <use x="83.789062" xlink:href="#DejaVuSans-34"/>
      </g>
     </g>
    </g>
    <g id="xtick_2">
     <g id="line2d_2">
      <g>
       <use style="stroke:#000000;stroke-width:0.8;" x="205.92" xlink:href="#m4cd8e9d0cc" y="504"/>
      </g>
     </g>
     <g id="text_2">
      <!-- −2 -->
      <defs>
       <path d="M 19.1875 8.296875 
L 53.609375 8.296875 
L 53.609375 0 
L 7.328125 0 
L 7.328125 8.296875 
Q 12.9375 14.109375 22.625 23.890625 
Q 32.328125 33.6875 34.8125 36.53125 
Q 39.546875 41.84375 41.421875 45.53125 
Q 43.3125 49.21875 43.3125 52.78125 
Q 43.3125 58.59375 39.234375 62.25 
Q 35.15625 65.921875 28.609375 65.921875 
Q 23.96875 65.921875 18.8125 64.3125 
Q 13.671875 62.703125 7.8125 59.421875 
L 7.8125 69.390625 
Q 13.765625 71.78125 18.9375 73 
Q 24.125 74.21875 28.421875 74.21875 
Q 39.75 74.21875 46.484375 68.546875 
Q 53.21875 62.890625 53.21875 53.421875 
Q 53.21875 48.921875 51.53125 44.890625 
Q 49.859375 40.875 45.40625 35.40625 
Q 44.1875 33.984375 37.640625 27.21875 
Q 31.109375 20.453125 19.1875 8.296875 
z
" id="DejaVuSans-32"/>
      </defs>
      <g transform="translate(198.548906 518.598438)scale(0.1 -0.1)">
       <use xlink:href="#DejaVuSans-2212"/>
       <use x="83.789062" xlink:href="#DejaVuSans-32"/>
      </g>
     </g>
    </g>
    <g id="xtick_3">
     <g id="line2d_3">
      <g>
       <use style="stroke:#000000;stroke-width:0.8;" x="295.2" xlink:href="#m4cd8e9d0cc" y="504"/>
      </g>
     </g>
     <g id="text_3">
      <!-- 0 -->
      <defs>
       <path d="M 31.78125 66.40625 
Q 24.171875 66.40625 20.328125 58.90625 
Q 16.5 51.421875 16.5 36.375 
Q 16.5 21.390625 20.328125 13.890625 
Q 24.171875 6.390625 31.78125 6.390625 
Q 39.453125 6.390625 43.28125 13.890625 
Q 47.125 21.390625 47.125 36.375 
Q 47.125 51.421875 43.28125 58.90625 
Q 39.453125 66.40625 31.78125 66.40625 
z
M 31.78125 74.21875 
Q 44.046875 74.21875 50.515625 64.515625 
Q 56.984375 54.828125 56.984375 36.375 
Q 56.984375 17.96875 50.515625 8.265625 
Q 44.046875 -1.421875 31.78125 -1.421875 
Q 19.53125 -1.421875 13.0625 8.265625 
Q 6.59375 17.96875 6.59375 36.375 
Q 6.59375 54.828125 13.0625 64.515625 
Q 19.53125 74.21875 31.78125 74.21875 
z
" id="DejaVuSans-30"/>
      </defs>
      <g transform="translate(292.01875 518.598438)scale(0.1 -0.1)">
       <use xlink:href="#DejaVuSans-30"/>
      </g>
     </g>
    </g>
    <g id="xtick_4">
     <g id="line2d_4">
      <g>
       <use style="stroke:#000000;stroke-width:0.8;" x="384.48" xlink:href="#m4cd8e9d0cc" y="504"/>
      </g>
     </g>
     <g id="text_4">
      <!-- 2 -->
      <g transform="translate(381.29875 518.598438)scale(0.1 -0.1)">
       <use xlink:href="#DejaVuSans-32"/>
      </g>
     </g>
    </g>
    <g id="xtick_5">
     <g id="line2d_5">
      <g>
       <use style="stroke:#000000;stroke-width:0.8;" x="473.76" xlink:href="#m4cd8e9d0cc" y="504"/>
      </g>
     </g>
     <g id="text_5">
      <!-- 4 -->
      <g transform="translate(470.57875 518.598438)scale(0.1 -0.1)">
       <use xlink:href="#DejaVuSans-34"/>
      </g>
     </g>
    </g>
   </g>
   <g id="matplotlib.axis_2">
    <g id="ytick_1">
     <g id="line2d_6">
      <defs>
       <path d="M 0 0 
L -3.5 0 
" id="m467ca8f6cc" style="stroke:#000000;stroke-width:0.8;"/>
      </defs>
      <g>
       <use style="stroke:#000000;stroke-width:0.8;" x="72" xlink:href="#m467ca8f6cc" y="460.512"/>
      </g>
     </g>
     <g id="text_6">
      <!-- −4 -->
      <g transform="translate(50.257812 464.311219)scale(0.1 -0.1)">
       <use xlink:href="#DejaVuSans-2212"/>
       <use x="83.789062" xlink:href="#DejaVuSans-34"/>
      </g>
     </g>
    </g>
    <g id="ytick_2">
     <g id="line2d_7">
      <g>
       <use style="stroke:#000000;stroke-width:0.8;" x="72" xlink:href="#m467ca8f6cc" y="373.536"/>
      </g>
     </g>
     <g id="text_7">
      <!-- −2 -->
      <g transform="translate(50.257812 377.335219)scale(0.1 -0.1)">
       <use xlink:href="#DejaVuSans-2212"/>
       <use x="83.789062" xlink:href="#DejaVuSans-32"/>
      </g>
     </g>
    </g>
    <g id="ytick_3">
     <g id="line2d_8">
      <g>
       <use style="stroke:#000000;stroke-width:0.8;" x="72" xlink:href="#m467ca8f6cc" y="286.56"/>
      </g>
     </g>
     <g id="text_8">
      <!-- 0 -->
      <g transform="translate(58.6375 290.359219)scale(0.1 -0.1)">
       <use xlink:href="#DejaVuSans-30"/>
      </g>
     </g>
    </g>
    <g id="ytick_4">
     <g id="line2d_9">
      <g>
       <use style="stroke:#000000;stroke-width:0.8;" x="72" xlink:href="#m467ca8f6cc" y="199.584"/>
      </g>
     </g>
     <g id="text_9">
      <!-- 2 -->
      <g transform="translate(58.6375 203.383219)scale(0.1 -0.1)">
       <use xlink:href="#DejaVuSans-32"/>
      </g>
     </g>
    </g>
    <g id="ytick_5">
     <g id="line2d_10">
      <g>
       <use style="stroke:#000000;stroke-width:0.8;" x="72" xlink:href="#m467ca8f6cc" y="112.608"/>
      </g>
     </g>
     <g id="text_10">
      <!-- 4 -->
      <g transform="translate(58.6375 116.407219)scale(0.1 -0.1)">
       <use xlink:href="#DejaVuSans-34"/>
      </g>
     </g>
    </g>
   </g>
   <g id="patch_3">
    <path d="M 72 504 
L 72 69.12 
" style="fill:none;stroke:#000000;stroke-linecap:square;stroke-linejoin:miter;stroke-width:0.8;"/>
   </g>
   <g id="patch_4">
    <path d="M 518.4 504 
L 518.4 69.12 
" style="fill:none;stroke:#000000;stroke-linecap:square;stroke-linejoin:miter;stroke-width:0.8;"/>
   </g>
   <g id="patch_5">
    <path d="M 72 504 
L 518.4 504 
" style="fill:none;stroke:#000000;stroke-linecap:square;stroke-linejoin:miter;stroke-width:0.8;"/>
   </g>
   <g id="patch_6">
    <path d="M 72 69.12 
L 518.4 69.12 
" style="fill:none;stroke:#000000;stroke-linecap:square;stroke-linejoin:miter;stroke-width:0.8;"/>
   </g>
  </g>
 </g>
 <defs>
  <clipPath id="p5412d71e95">
   <rect height="434.88" width="446.4" x="72" y="69.12"/>
  </clipPath>
 </defs>
</svg>
