<?xml version="1.0" encoding="utf-8" standalone="no"?>
<!DOCTYPE svg PUBLIC "-//W3C//DTD SVG 1.1//EN"
  "http://www.w3.org/Graphics/SVG/1.1/DTD/svg11.dtd">
<!-- Created with matplotlib (http://matplotlib.org/) -->
<svg height="576pt" version="1.1" viewBox="0 0 576 576" width="576pt" xmlns="http://www.w3.org/2000/svg" xmlns:xlink="http://www.w3.org/1999/xlink">
 <defs>
  <style type="text/css">
*{stroke-linecap:butt;stroke-linejoin:round;}
  </style>
 </defs>
 <g id="figure_1">
  <g id="patch_1">
   <path d="M 0 576 
L 576 576 
L 576 0 
L 0 0 
z
" style="fill:#ffffff;"/>
  </g>
  <g id="axes_1">
   <g id="patch_2">
    <path d="M 72 504 
L 518.4 504 
L 518.4 69.12 
L 72 69.12 
z
" style="fill:#ffffff;"/>
   </g>
   <g id="PathCollection_1">
    <path clip-path="url(#p246c14c9c5)" d="M 76.509091 504 
L 81.018182 504 
L 85.527273 504 
L 90.036364 504 
L 94.545455 504 
L 99.054545 504 
L 103.563636 504 
L 108.072727 504 
L 112.581818 504 
L 117.090909 504 
L 121.6 504 
L 126.109091 504 
L 130.618182 504 
L 135.127273 504 
L 139.636364 504 
L 143.848546 504 
L 144.145455 503.338462 
L 145.820067 499.607273 
L 147.791612 495.214545 
L 148.654545 493.291822 
L 149.7631 490.821818 
L 151.734603 486.429091 
L 153.163636 483.245025 
L 153.7061 482.036364 
L 155.677661 477.643636 
L 157.649188 473.250909 
L 157.672727 473.198461 
L 159.62066 468.858182 
L 161.592169 464.465455 
L 162.181818 463.151652 
L 163.563678 460.072727 
L 165.535181 455.68 
L 166.690909 453.104951 
L 167.506709 451.287273 
L 169.478189 446.894545 
L 171.2 443.058184 
L 171.449704 442.501818 
L 173.421203 438.109091 
L 175.392703 433.716364 
L 175.709091 433.011422 
L 177.364246 429.323636 
L 179.33576 424.930909 
L 180.218182 422.964756 
L 181.307246 420.538182 
L 183.27878 416.145455 
L 184.727273 412.91803 
L 185.250267 411.752727 
L 187.2218 407.36 
L 189.193299 402.967273 
L 189.236364 402.87132 
L 191.149165 398.574545 
L 193.097814 394.181818 
L 193.745455 392.718442 
L 195.040721 389.789091 
L 196.98304 385.396364 
L 198.254545 382.520768 
L 198.925376 381.003636 
L 200.867677 376.610909 
L 202.763636 372.323019 
L 202.809992 372.218182 
L 204.752333 367.825455 
L 206.694662 363.432727 
L 207.272727 362.125381 
L 208.636974 359.04 
L 210.579288 354.647273 
L 211.781818 351.927618 
L 212.521596 350.254545 
L 214.463947 345.861818 
L 216.290909 342.164877 
L 216.650043 341.469091 
L 219.323732 337.076364 
L 220.8 335.307615 
L 223.012415 332.683636 
L 225.309091 330.177625 
L 227.038196 328.290909 
L 229.818182 325.257539 
L 231.063989 323.898182 
L 234.327273 320.337463 
L 235.089106 319.505455 
L 238.836364 315.40715 
L 239.105526 315.112727 
L 243.121399 310.72 
L 243.345455 310.47457 
L 247.129077 306.327273 
L 247.854545 305.531685 
L 251.134649 301.934545 
L 252.363636 300.586765 
L 255.140207 297.541818 
L 256.872727 295.641848 
L 259.145783 293.149091 
L 261.381818 290.696936 
L 263.15136 288.756364 
L 265.890909 285.752021 
L 267.156925 284.363636 
L 270.4 280.807092 
L 271.162485 279.970909 
L 274.909091 275.862177 
L 275.168055 275.578182 
L 279.173623 271.185455 
L 279.418182 270.917258 
L 283.179188 266.792727 
L 283.927273 265.972337 
L 287.184756 262.4 
L 288.436364 261.027419 
L 291.190324 258.007273 
L 292.945455 256.082499 
L 296.274626 258.007273 
L 297.454545 258.549554 
L 301.683327 262.4 
L 301.963636 262.655231 
L 306.472727 266.760901 
L 306.50768 266.792727 
L 310.981818 270.866575 
L 311.33203 271.185455 
L 315.490909 274.972248 
L 316.156381 275.578182 
L 320 279.077922 
L 320.980731 279.970909 
L 324.509091 283.183597 
L 325.805079 284.363636 
L 329.018182 287.289273 
L 330.629428 288.756364 
L 333.527273 291.394943 
L 336.335166 293.149091 
L 338.036364 293.979387 
L 342.545455 293.704559 
L 344.175361 293.149091 
L 347.054545 291.719478 
L 349.694925 288.756364 
L 351.563636 286.517177 
L 353.36087 284.363636 
L 356.072727 281.114145 
L 357.026812 279.970909 
L 360.581818 275.711113 
L 360.692756 275.578182 
L 364.358698 271.185455 
L 365.090909 270.308081 
L 368.024644 266.792727 
L 369.6 264.90505 
L 371.690586 262.4 
L 374.109091 259.502018 
L 375.356527 258.007273 
L 378.618182 254.098984 
L 379.022469 253.614545 
L 382.688416 249.221818 
L 383.127273 248.695957 
L 386.354359 244.829091 
L 387.636364 243.292924 
L 390.020301 240.436364 
L 392.145455 237.889899 
L 393.688457 236.043636 
L 396.654545 232.494864 
L 397.362416 231.650909 
L 401.046836 227.258182 
L 401.163636 227.110285 
L 404.592935 222.865455 
L 405.672727 221.339158 
L 407.700605 218.472727 
L 410.181818 214.965513 
L 410.808284 214.08 
L 413.915949 209.687273 
L 414.690909 208.591862 
L 417.02363 205.294545 
L 419.2 202.218223 
L 420.131303 200.901818 
L 423.238984 196.509091 
L 423.709091 195.844589 
L 426.346649 192.116364 
L 428.218182 189.470935 
L 429.454325 187.723636 
L 432.561993 183.330909 
L 432.727273 183.097284 
L 435.669669 178.938182 
L 437.236364 176.723645 
L 438.777344 174.545455 
L 441.745455 170.349994 
L 441.885013 170.152727 
L 444.992689 165.76 
L 446.254545 163.97636 
L 448.100373 161.367273 
L 450.763636 157.602715 
L 451.20804 156.974545 
L 454.315719 152.581818 
L 455.272727 151.22908 
L 457.423395 148.189091 
L 459.781818 144.856074 
L 460.531564 143.796364 
L 463.67998 139.403636 
L 464.290909 138.552358 
L 466.832464 135.010909 
L 468.8 132.269312 
L 469.984954 130.618182 
L 473.137439 126.225455 
L 473.309091 125.986271 
L 476.289928 121.832727 
L 477.818182 119.70323 
L 479.439537 117.44 
L 482.327273 113.404546 
L 482.582381 113.047273 
L 485.718968 108.654545 
L 486.836364 107.089657 
L 488.85556 104.261818 
L 491.345455 100.774747 
L 491.992126 99.869091 
L 495.128709 95.476364 
L 495.854545 94.459839 
L 498.265281 91.083636 
L 500.363636 88.144936 
L 501.401876 86.690909 
L 504.538459 82.298182 
L 504.872727 81.830045 
L 507.675043 77.905455 
L 509.381818 75.515142 
L 510.81162 73.512727 
L 513.890909 69.200244 
L 513.948207 69.12 
L 513.890909 69.12 
L 509.381818 69.12 
L 504.872727 69.12 
L 500.363636 69.12 
L 495.854545 69.12 
L 491.345455 69.12 
L 486.836364 69.12 
L 482.327273 69.12 
L 477.818182 69.12 
L 473.309091 69.12 
L 468.8 69.12 
L 464.290909 69.12 
L 459.781818 69.12 
L 455.272727 69.12 
L 450.763636 69.12 
L 446.254545 69.12 
L 441.745455 69.12 
L 437.236364 69.12 
L 432.727273 69.12 
L 428.218182 69.12 
L 423.709091 69.12 
L 419.2 69.12 
L 414.690909 69.12 
L 410.181818 69.12 
L 405.672727 69.12 
L 401.163636 69.12 
L 396.654545 69.12 
L 392.145455 69.12 
L 387.636364 69.12 
L 383.127273 69.12 
L 378.618182 69.12 
L 374.109091 69.12 
L 369.6 69.12 
L 365.090909 69.12 
L 360.581818 69.12 
L 356.072727 69.12 
L 351.563636 69.12 
L 347.054545 69.12 
L 342.545455 69.12 
L 338.036364 69.12 
L 333.527273 69.12 
L 329.018182 69.12 
L 324.509091 69.12 
L 320 69.12 
L 315.490909 69.12 
L 310.981818 69.12 
L 306.472727 69.12 
L 301.963636 69.12 
L 297.454545 69.12 
L 292.945455 69.12 
L 288.436364 69.12 
L 283.927273 69.12 
L 279.418182 69.12 
L 274.909091 69.12 
L 270.4 69.12 
L 265.890909 69.12 
L 261.381818 69.12 
L 256.872727 69.12 
L 252.363636 69.12 
L 247.854545 69.12 
L 243.345455 69.12 
L 238.836364 69.12 
L 234.327273 69.12 
L 229.818182 69.12 
L 225.309091 69.12 
L 220.8 69.12 
L 216.290909 69.12 
L 211.781818 69.12 
L 207.272727 69.12 
L 202.763636 69.12 
L 198.254545 69.12 
L 193.745455 69.12 
L 189.236364 69.12 
L 184.727273 69.12 
L 180.218182 69.12 
L 175.709091 69.12 
L 171.2 69.12 
L 166.690909 69.12 
L 162.181818 69.12 
L 157.672727 69.12 
L 153.163636 69.12 
L 148.654545 69.12 
L 144.145455 69.12 
L 139.636364 69.12 
L 135.127273 69.12 
L 130.618182 69.12 
L 126.109091 69.12 
L 121.6 69.12 
L 117.090909 69.12 
L 112.581818 69.12 
L 108.072727 69.12 
L 103.563636 69.12 
L 99.054545 69.12 
L 94.545455 69.12 
L 90.036364 69.12 
L 85.527273 69.12 
L 81.018182 69.12 
L 76.509091 69.12 
L 72 69.12 
L 72 73.512727 
L 72 77.905455 
L 72 82.298182 
L 72 86.690909 
L 72 91.083636 
L 72 95.476364 
L 72 99.869091 
L 72 104.261818 
L 72 108.654545 
L 72 113.047273 
L 72 117.44 
L 72 121.832727 
L 72 126.225455 
L 72 130.618182 
L 72 135.010909 
L 72 139.403636 
L 72 143.796364 
L 72 148.189091 
L 72 152.581818 
L 72 156.974545 
L 72 161.367273 
L 72 165.76 
L 72 170.152727 
L 72 174.545455 
L 72 178.938182 
L 72 183.330909 
L 72 187.723636 
L 72 192.116364 
L 72 196.509091 
L 72 200.901818 
L 72 205.294545 
L 72 209.687273 
L 72 214.08 
L 72 218.472727 
L 72 222.865455 
L 72 227.258182 
L 72 231.650909 
L 72 236.043636 
L 72 240.436364 
L 72 244.829091 
L 72 249.221818 
L 72 253.614545 
L 72 258.007273 
L 72 262.4 
L 72 266.792727 
L 72 271.185455 
L 72 275.578182 
L 72 279.970909 
L 72 284.363636 
L 72 288.756364 
L 72 293.149091 
L 72 297.541818 
L 72 301.934545 
L 72 306.327273 
L 72 310.72 
L 72 315.112727 
L 72 319.505455 
L 72 323.898182 
L 72 328.290909 
L 72 332.683636 
L 72 337.076364 
L 72 341.469091 
L 72 345.861818 
L 72 350.254545 
L 72 354.647273 
L 72 359.04 
L 72 363.432727 
L 72 367.825455 
L 72 372.218182 
L 72 376.610909 
L 72 381.003636 
L 72 385.396364 
L 72 389.789091 
L 72 394.181818 
L 72 398.574545 
L 72 402.967273 
L 72 407.36 
L 72 411.752727 
L 72 416.145455 
L 72 420.538182 
L 72 424.930909 
L 72 429.323636 
L 72 433.716364 
L 72 438.109091 
L 72 442.501818 
L 72 446.894545 
L 72 451.287273 
L 72 455.68 
L 72 460.072727 
L 72 464.465455 
L 72 468.858182 
L 72 473.250909 
L 72 477.643636 
L 72 482.036364 
L 72 486.429091 
L 72 490.821818 
L 72 495.214545 
L 72 499.607273 
L 72 504 
z
" style="fill:#8db0fe;"/>
   </g>
   <g id="PathCollection_2">
    <path clip-path="url(#p246c14c9c5)" d="M 144.145455 504 
L 148.654545 504 
L 153.163636 504 
L 157.672727 504 
L 162.181818 504 
L 166.690909 504 
L 171.2 504 
L 175.709091 504 
L 180.218182 504 
L 184.727273 504 
L 189.236364 504 
L 193.745455 504 
L 198.254545 504 
L 202.763636 504 
L 207.272727 504 
L 211.781818 504 
L 216.290909 504 
L 220.8 504 
L 225.309091 504 
L 229.818182 504 
L 234.327273 504 
L 238.836364 504 
L 243.345455 504 
L 247.854545 504 
L 252.363636 504 
L 256.872727 504 
L 261.381818 504 
L 265.890909 504 
L 270.4 504 
L 274.909091 504 
L 279.418182 504 
L 283.927273 504 
L 288.436364 504 
L 292.945455 504 
L 297.454545 504 
L 301.963636 504 
L 306.472727 504 
L 310.981818 504 
L 315.490909 504 
L 320 504 
L 324.509091 504 
L 329.018182 504 
L 333.527273 504 
L 338.036364 504 
L 342.545455 504 
L 347.054545 504 
L 351.563636 504 
L 356.072727 504 
L 360.581818 504 
L 365.090909 504 
L 369.6 504 
L 374.109091 504 
L 378.618182 504 
L 383.127273 504 
L 387.636364 504 
L 392.145455 504 
L 396.654545 504 
L 401.163636 504 
L 405.672727 504 
L 410.181818 504 
L 414.690909 504 
L 419.2 504 
L 423.709091 504 
L 428.218182 504 
L 432.727273 504 
L 437.236364 504 
L 441.745455 504 
L 446.254545 504 
L 450.763636 504 
L 455.272727 504 
L 459.781818 504 
L 464.290909 504 
L 468.8 504 
L 473.309091 504 
L 477.818182 504 
L 482.327273 504 
L 486.836364 504 
L 491.345455 504 
L 495.854545 504 
L 500.363636 504 
L 504.872727 504 
L 509.381818 504 
L 513.890909 504 
L 518.4 504 
L 518.4 499.607273 
L 518.4 495.214545 
L 518.4 490.821818 
L 518.4 486.429091 
L 518.4 482.036364 
L 518.4 477.643636 
L 518.4 473.250909 
L 518.4 468.858182 
L 518.4 464.465455 
L 518.4 460.072727 
L 518.4 455.68 
L 518.4 451.287273 
L 518.4 446.894545 
L 518.4 442.501818 
L 518.4 438.109091 
L 518.4 433.716364 
L 518.4 429.323636 
L 518.4 424.930909 
L 518.4 420.538182 
L 518.4 416.145455 
L 518.4 411.752727 
L 518.4 407.36 
L 518.4 402.967273 
L 518.4 398.574545 
L 518.4 394.181818 
L 518.4 389.789091 
L 518.4 385.396364 
L 518.4 381.003636 
L 518.4 376.610909 
L 518.4 372.218182 
L 518.4 367.825455 
L 518.4 363.432727 
L 518.4 359.04 
L 518.4 354.647273 
L 518.4 350.254545 
L 518.4 345.861818 
L 518.4 341.469091 
L 518.4 337.076364 
L 518.4 332.683636 
L 518.4 328.290909 
L 518.4 323.898182 
L 518.4 319.505455 
L 518.4 315.112727 
L 518.4 310.72 
L 518.4 306.327273 
L 518.4 301.934545 
L 518.4 297.541818 
L 518.4 293.149091 
L 518.4 288.756364 
L 518.4 284.363636 
L 518.4 279.970909 
L 518.4 275.578182 
L 518.4 271.185455 
L 518.4 266.792727 
L 518.4 262.4 
L 518.4 258.007273 
L 518.4 253.614545 
L 518.4 249.221818 
L 518.4 244.829091 
L 518.4 240.436364 
L 518.4 236.043636 
L 518.4 231.650909 
L 518.4 227.258182 
L 518.4 222.865455 
L 518.4 218.472727 
L 518.4 214.08 
L 518.4 209.687273 
L 518.4 205.294545 
L 518.4 200.901818 
L 518.4 196.509091 
L 518.4 192.116364 
L 518.4 187.723636 
L 518.4 183.330909 
L 518.4 178.938182 
L 518.4 174.545455 
L 518.4 170.152727 
L 518.4 165.76 
L 518.4 161.367273 
L 518.4 156.974545 
L 518.4 152.581818 
L 518.4 148.189091 
L 518.4 143.796364 
L 518.4 139.403636 
L 518.4 135.010909 
L 518.4 130.618182 
L 518.4 126.225455 
L 518.4 121.832727 
L 518.4 117.44 
L 518.4 113.047273 
L 518.4 108.654545 
L 518.4 104.261818 
L 518.4 99.869091 
L 518.4 95.476364 
L 518.4 91.083636 
L 518.4 86.690909 
L 518.4 82.298182 
L 518.4 77.905455 
L 518.4 73.512727 
L 518.4 69.12 
L 513.948207 69.12 
L 513.890909 69.200244 
L 510.81162 73.512727 
L 509.381818 75.515142 
L 507.675043 77.905455 
L 504.872727 81.830045 
L 504.538459 82.298182 
L 501.401876 86.690909 
L 500.363636 88.144936 
L 498.265281 91.083636 
L 495.854545 94.459839 
L 495.128709 95.476364 
L 491.992126 99.869091 
L 491.345455 100.774747 
L 488.85556 104.261818 
L 486.836364 107.089657 
L 485.718968 108.654545 
L 482.582381 113.047273 
L 482.327273 113.404546 
L 479.439537 117.44 
L 477.818182 119.70323 
L 476.289928 121.832727 
L 473.309091 125.986271 
L 473.137439 126.225455 
L 469.984954 130.618182 
L 468.8 132.269312 
L 466.832464 135.010909 
L 464.290909 138.552358 
L 463.67998 139.403636 
L 460.531564 143.796364 
L 459.781818 144.856074 
L 457.423395 148.189091 
L 455.272727 151.22908 
L 454.315719 152.581818 
L 451.20804 156.974545 
L 450.763636 157.602715 
L 448.100373 161.367273 
L 446.254545 163.97636 
L 444.992689 165.76 
L 441.885013 170.152727 
L 441.745455 170.349994 
L 438.777344 174.545455 
L 437.236364 176.723645 
L 435.669669 178.938182 
L 432.727273 183.097284 
L 432.561993 183.330909 
L 429.454325 187.723636 
L 428.218182 189.470935 
L 426.346649 192.116364 
L 423.709091 195.844589 
L 423.238984 196.509091 
L 420.131303 200.901818 
L 419.2 202.218223 
L 417.02363 205.294545 
L 414.690909 208.591862 
L 413.915949 209.687273 
L 410.808284 214.08 
L 410.181818 214.965513 
L 407.700605 218.472727 
L 405.672727 221.339158 
L 404.592935 222.865455 
L 401.163636 227.110285 
L 401.046836 227.258182 
L 397.362416 231.650909 
L 396.654545 232.494864 
L 393.688457 236.043636 
L 392.145455 237.889899 
L 390.020301 240.436364 
L 387.636364 243.292924 
L 386.354359 244.829091 
L 383.127273 248.695957 
L 382.688416 249.221818 
L 379.022469 253.614545 
L 378.618182 254.098984 
L 375.356527 258.007273 
L 374.109091 259.502018 
L 371.690586 262.4 
L 369.6 264.90505 
L 368.024644 266.792727 
L 365.090909 270.308081 
L 364.358698 271.185455 
L 360.692756 275.578182 
L 360.581818 275.711113 
L 357.026812 279.970909 
L 356.072727 281.114145 
L 353.36087 284.363636 
L 351.563636 286.517177 
L 349.694925 288.756364 
L 347.054545 291.719478 
L 344.175361 293.149091 
L 342.545455 293.704559 
L 338.036364 293.979387 
L 336.335166 293.149091 
L 333.527273 291.394943 
L 330.629428 288.756364 
L 329.018182 287.289273 
L 325.805079 284.363636 
L 324.509091 283.183597 
L 320.980731 279.970909 
L 320 279.077922 
L 316.156381 275.578182 
L 315.490909 274.972248 
L 311.33203 271.185455 
L 310.981818 270.866575 
L 306.50768 266.792727 
L 306.472727 266.760901 
L 301.963636 262.655231 
L 301.683327 262.4 
L 297.454545 258.549554 
L 296.274626 258.007273 
L 292.945455 256.082499 
L 291.190324 258.007273 
L 288.436364 261.027419 
L 287.184756 262.4 
L 283.927273 265.972337 
L 283.179188 266.792727 
L 279.418182 270.917258 
L 279.173623 271.185455 
L 275.168055 275.578182 
L 274.909091 275.862177 
L 271.162485 279.970909 
L 270.4 280.807092 
L 267.156925 284.363636 
L 265.890909 285.752021 
L 263.15136 288.756364 
L 261.381818 290.696936 
L 259.145783 293.149091 
L 256.872727 295.641848 
L 255.140207 297.541818 
L 252.363636 300.586765 
L 251.134649 301.934545 
L 247.854545 305.531685 
L 247.129077 306.327273 
L 243.345455 310.47457 
L 243.121399 310.72 
L 239.105526 315.112727 
L 238.836364 315.40715 
L 235.089106 319.505455 
L 234.327273 320.337463 
L 231.063989 323.898182 
L 229.818182 325.257539 
L 227.038196 328.290909 
L 225.309091 330.177625 
L 223.012415 332.683636 
L 220.8 335.307615 
L 219.323732 337.076364 
L 216.650043 341.469091 
L 216.290909 342.164877 
L 214.463947 345.861818 
L 212.521596 350.254545 
L 211.781818 351.927618 
L 210.579288 354.647273 
L 208.636974 359.04 
L 207.272727 362.125381 
L 206.694662 363.432727 
L 204.752333 367.825455 
L 202.809992 372.218182 
L 202.763636 372.323019 
L 200.867677 376.610909 
L 198.925376 381.003636 
L 198.254545 382.520768 
L 196.98304 385.396364 
L 195.040721 389.789091 
L 193.745455 392.718442 
L 193.097814 394.181818 
L 191.149165 398.574545 
L 189.236364 402.87132 
L 189.193299 402.967273 
L 187.2218 407.36 
L 185.250267 411.752727 
L 184.727273 412.91803 
L 183.27878 416.145455 
L 181.307246 420.538182 
L 180.218182 422.964756 
L 179.33576 424.930909 
L 177.364246 429.323636 
L 175.709091 433.011422 
L 175.392703 433.716364 
L 173.421203 438.109091 
L 171.449704 442.501818 
L 171.2 443.058184 
L 169.478189 446.894545 
L 167.506709 451.287273 
L 166.690909 453.104951 
L 165.535181 455.68 
L 163.563678 460.072727 
L 162.181818 463.151652 
L 161.592169 464.465455 
L 159.62066 468.858182 
L 157.672727 473.198461 
L 157.649188 473.250909 
L 155.677661 477.643636 
L 153.7061 482.036364 
L 153.163636 483.245025 
L 151.734603 486.429091 
L 149.7631 490.821818 
L 148.654545 493.291822 
L 147.791612 495.214545 
L 145.820067 499.607273 
L 144.145455 503.338462 
L 143.848546 504 
z
" style="fill:#f4987a;"/>
   </g>
   <g id="matplotlib.axis_1">
    <g id="xtick_1">
     <g id="line2d_1">
      <defs>
       <path d="M 0 0 
L 0 3.5 
" id="mf28cee17d3" style="stroke:#000000;stroke-width:0.8;"/>
      </defs>
      <g>
       <use style="stroke:#000000;stroke-width:0.8;" x="116.64" xlink:href="#mf28cee17d3" y="504"/>
      </g>
     </g>
     <g id="text_1">
      <!-- −4 -->
      <defs>
       <path d="M 10.59375 35.5 
L 73.1875 35.5 
L 73.1875 27.203125 
L 10.59375 27.203125 
z
" id="DejaVuSans-2212"/>
       <path d="M 37.796875 64.3125 
L 12.890625 25.390625 
L 37.796875 25.390625 
z
M 35.203125 72.90625 
L 47.609375 72.90625 
L 47.609375 25.390625 
L 58.015625 25.390625 
L 58.015625 17.1875 
L 47.609375 17.1875 
L 47.609375 0 
L 37.796875 0 
L 37.796875 17.1875 
L 4.890625 17.1875 
L 4.890625 26.703125 
z
" id="DejaVuSans-34"/>
      </defs>
      <g transform="translate(109.268906 518.598438)scale(0.1 -0.1)">
       <use xlink:href="#DejaVuSans-2212"/>
       <use x="83.789062" xlink:href="#DejaVuSans-34"/>
      </g>
     </g>
    </g>
    <g id="xtick_2">
     <g id="line2d_2">
      <g>
       <use style="stroke:#000000;stroke-width:0.8;" x="205.92" xlink:href="#mf28cee17d3" y="504"/>
      </g>
     </g>
     <g id="text_2">
      <!-- −2 -->
      <defs>
       <path d="M 19.1875 8.296875 
L 53.609375 8.296875 
L 53.609375 0 
L 7.328125 0 
L 7.328125 8.296875 
Q 12.9375 14.109375 22.625 23.890625 
Q 32.328125 33.6875 34.8125 36.53125 
Q 39.546875 41.84375 41.421875 45.53125 
Q 43.3125 49.21875 43.3125 52.78125 
Q 43.3125 58.59375 39.234375 62.25 
Q 35.15625 65.921875 28.609375 65.921875 
Q 23.96875 65.921875 18.8125 64.3125 
Q 13.671875 62.703125 7.8125 59.421875 
L 7.8125 69.390625 
Q 13.765625 71.78125 18.9375 73 
Q 24.125 74.21875 28.421875 74.21875 
Q 39.75 74.21875 46.484375 68.546875 
Q 53.21875 62.890625 53.21875 53.421875 
Q 53.21875 48.921875 51.53125 44.890625 
Q 49.859375 40.875 45.40625 35.40625 
Q 44.1875 33.984375 37.640625 27.21875 
Q 31.109375 20.453125 19.1875 8.296875 
z
" id="DejaVuSans-32"/>
      </defs>
      <g transform="translate(198.548906 518.598438)scale(0.1 -0.1)">
       <use xlink:href="#DejaVuSans-2212"/>
       <use x="83.789062" xlink:href="#DejaVuSans-32"/>
      </g>
     </g>
    </g>
    <g id="xtick_3">
     <g id="line2d_3">
      <g>
       <use style="stroke:#000000;stroke-width:0.8;" x="295.2" xlink:href="#mf28cee17d3" y="504"/>
      </g>
     </g>
     <g id="text_3">
      <!-- 0 -->
      <defs>
       <path d="M 31.78125 66.40625 
Q 24.171875 66.40625 20.328125 58.90625 
Q 16.5 51.421875 16.5 36.375 
Q 16.5 21.390625 20.328125 13.890625 
Q 24.171875 6.390625 31.78125 6.390625 
Q 39.453125 6.390625 43.28125 13.890625 
Q 47.125 21.390625 47.125 36.375 
Q 47.125 51.421875 43.28125 58.90625 
Q 39.453125 66.40625 31.78125 66.40625 
z
M 31.78125 74.21875 
Q 44.046875 74.21875 50.515625 64.515625 
Q 56.984375 54.828125 56.984375 36.375 
Q 56.984375 17.96875 50.515625 8.265625 
Q 44.046875 -1.421875 31.78125 -1.421875 
Q 19.53125 -1.421875 13.0625 8.265625 
Q 6.59375 17.96875 6.59375 36.375 
Q 6.59375 54.828125 13.0625 64.515625 
Q 19.53125 74.21875 31.78125 74.21875 
z
" id="DejaVuSans-30"/>
      </defs>
      <g transform="translate(292.01875 518.598438)scale(0.1 -0.1)">
       <use xlink:href="#DejaVuSans-30"/>
      </g>
     </g>
    </g>
    <g id="xtick_4">
     <g id="line2d_4">
      <g>
       <use style="stroke:#000000;stroke-width:0.8;" x="384.48" xlink:href="#mf28cee17d3" y="504"/>
      </g>
     </g>
     <g id="text_4">
      <!-- 2 -->
      <g transform="translate(381.29875 518.598438)scale(0.1 -0.1)">
       <use xlink:href="#DejaVuSans-32"/>
      </g>
     </g>
    </g>
    <g id="xtick_5">
     <g id="line2d_5">
      <g>
       <use style="stroke:#000000;stroke-width:0.8;" x="473.76" xlink:href="#mf28cee17d3" y="504"/>
      </g>
     </g>
     <g id="text_5">
      <!-- 4 -->
      <g transform="translate(470.57875 518.598438)scale(0.1 -0.1)">
       <use xlink:href="#DejaVuSans-34"/>
      </g>
     </g>
    </g>
   </g>
   <g id="matplotlib.axis_2">
    <g id="ytick_1">
     <g id="line2d_6">
      <defs>
       <path d="M 0 0 
L -3.5 0 
" id="m2a5cf1ddb7" style="stroke:#000000;stroke-width:0.8;"/>
      </defs>
      <g>
       <use style="stroke:#000000;stroke-width:0.8;" x="72" xlink:href="#m2a5cf1ddb7" y="460.512"/>
      </g>
     </g>
     <g id="text_6">
      <!-- −4 -->
      <g transform="translate(50.257812 464.311219)scale(0.1 -0.1)">
       <use xlink:href="#DejaVuSans-2212"/>
       <use x="83.789062" xlink:href="#DejaVuSans-34"/>
      </g>
     </g>
    </g>
    <g id="ytick_2">
     <g id="line2d_7">
      <g>
       <use style="stroke:#000000;stroke-width:0.8;" x="72" xlink:href="#m2a5cf1ddb7" y="373.536"/>
      </g>
     </g>
     <g id="text_7">
      <!-- −2 -->
      <g transform="translate(50.257812 377.335219)scale(0.1 -0.1)">
       <use xlink:href="#DejaVuSans-2212"/>
       <use x="83.789062" xlink:href="#DejaVuSans-32"/>
      </g>
     </g>
    </g>
    <g id="ytick_3">
     <g id="line2d_8">
      <g>
       <use style="stroke:#000000;stroke-width:0.8;" x="72" xlink:href="#m2a5cf1ddb7" y="286.56"/>
      </g>
     </g>
     <g id="text_8">
      <!-- 0 -->
      <g transform="translate(58.6375 290.359219)scale(0.1 -0.1)">
       <use xlink:href="#DejaVuSans-30"/>
      </g>
     </g>
    </g>
    <g id="ytick_4">
     <g id="line2d_9">
      <g>
       <use style="stroke:#000000;stroke-width:0.8;" x="72" xlink:href="#m2a5cf1ddb7" y="199.584"/>
      </g>
     </g>
     <g id="text_9">
      <!-- 2 -->
      <g transform="translate(58.6375 203.383219)scale(0.1 -0.1)">
       <use xlink:href="#DejaVuSans-32"/>
      </g>
     </g>
    </g>
    <g id="ytick_5">
     <g id="line2d_10">
      <g>
       <use style="stroke:#000000;stroke-width:0.8;" x="72" xlink:href="#m2a5cf1ddb7" y="112.608"/>
      </g>
     </g>
     <g id="text_10">
      <!-- 4 -->
      <g transform="translate(58.6375 116.407219)scale(0.1 -0.1)">
       <use xlink:href="#DejaVuSans-34"/>
      </g>
     </g>
    </g>
   </g>
   <g id="patch_3">
    <path d="M 72 504 
L 72 69.12 
" style="fill:none;stroke:#000000;stroke-linecap:square;stroke-linejoin:miter;stroke-width:0.8;"/>
   </g>
   <g id="patch_4">
    <path d="M 518.4 504 
L 518.4 69.12 
" style="fill:none;stroke:#000000;stroke-linecap:square;stroke-linejoin:miter;stroke-width:0.8;"/>
   </g>
   <g id="patch_5">
    <path d="M 72 504 
L 518.4 504 
" style="fill:none;stroke:#000000;stroke-linecap:square;stroke-linejoin:miter;stroke-width:0.8;"/>
   </g>
   <g id="patch_6">
    <path d="M 72 69.12 
L 518.4 69.12 
" style="fill:none;stroke:#000000;stroke-linecap:square;stroke-linejoin:miter;stroke-width:0.8;"/>
   </g>
  </g>
 </g>
 <defs>
  <clipPath id="p246c14c9c5">
   <rect height="434.88" width="446.4" x="72" y="69.12"/>
  </clipPath>
 </defs>
</svg>
