<?xml version="1.0" encoding="utf-8" standalone="no"?>
<!DOCTYPE svg PUBLIC "-//W3C//DTD SVG 1.1//EN"
  "http://www.w3.org/Graphics/SVG/1.1/DTD/svg11.dtd">
<!-- Created with matplotlib (http://matplotlib.org/) -->
<svg height="288pt" version="1.1" viewBox="0 0 432 288" width="432pt" xmlns="http://www.w3.org/2000/svg" xmlns:xlink="http://www.w3.org/1999/xlink">
 <defs>
  <style type="text/css">
*{stroke-linecap:butt;stroke-linejoin:round;}
  </style>
 </defs>
 <g id="figure_1">
  <g id="patch_1">
   <path d="M 0 288 
L 432 288 
L 432 0 
L 0 0 
z
" style="fill:#ffffff;"/>
  </g>
  <g id="axes_1">
   <g id="patch_2">
    <path d="M 54 252 
L 388.8 252 
L 388.8 34.56 
L 54 34.56 
z
" style="fill:#ffffff;"/>
   </g>
   <g id="patch_3">
    <path clip-path="url(#p4922a994eb)" d="M 54 252 
L 54 236.067121 
L 175.669906 189.279383 
L 127.143961 252 
z
" style="opacity:0.6;stroke-dasharray:0,0;stroke-dashoffset:0;"/>
   </g>
   <g id="patch_4">
    <path clip-path="url(#p4922a994eb)" d="M -325.161721 381.872439 
L -25.840098 234.883296 
L 183.55225 179.091318 
L 175.669906 189.279383 
z
" style="fill:#0143da;opacity:0.6;stroke-dasharray:0,0;stroke-dashoffset:0;"/>
   </g>
   <g id="patch_5">
    <path clip-path="url(#p4922a994eb)" d="M -25.840098 234.883296 
L 26.045867 209.403435 
L 190.702323 169.849727 
L 183.55225 179.091318 
z
" style="fill:#0287b4;opacity:0.6;stroke-dasharray:0,0;stroke-dashoffset:0;"/>
   </g>
   <g id="patch_6">
    <path clip-path="url(#p4922a994eb)" d="M 26.045867 209.403435 
L 146.665526 150.170226 
L 182.375265 149.811002 
L 195.534429 163.604147 
L 190.702323 169.849727 
z
" style="fill:#03cb8e;opacity:0.6;stroke-dasharray:0,0;stroke-dashoffset:0;"/>
   </g>
   <g id="patch_7">
    <path clip-path="url(#p4922a994eb)" d="M 54 195.675879 
L 54 151.102398 
L 146.665526 150.170226 
z
" style="fill:#050f68;opacity:0.6;stroke-dasharray:0,0;stroke-dashoffset:0;"/>
   </g>
   <g id="patch_8">
    <path clip-path="url(#p4922a994eb)" d="M 54 151.102398 
L 54 34.56 
L 72.421609 34.56 
L 171.216009 138.114115 
L 146.665526 150.170226 
z
" style="fill:#065342;opacity:0.6;stroke-dasharray:0,0;stroke-dashoffset:0;"/>
   </g>
   <g id="patch_9">
    <path clip-path="url(#p4922a994eb)" d="M 171.216009 138.114115 
L -4.861761 -46.446726 
L 199.251522 124.346597 
z
" style="fill:#07971c;opacity:0.6;stroke-dasharray:0,0;stroke-dashoffset:0;"/>
   </g>
   <g id="patch_10">
    <path clip-path="url(#p4922a994eb)" d="M 91.948516 34.56 
L 182.542687 34.56 
L 218.0296 115.125166 
L 199.251522 124.346597 
z
" style="fill:#08daf6;opacity:0.6;stroke-dasharray:0,0;stroke-dashoffset:0;"/>
   </g>
   <g id="patch_11">
    <path clip-path="url(#p4922a994eb)" d="M -172.274543 639.003552 
L 175.669906 189.279383 
L 178.793429 188.078243 
L -44.807314 492.23817 
z
" style="fill:#0a1ed0;opacity:0.6;stroke-dasharray:0,0;stroke-dashoffset:0;"/>
   </g>
   <g id="patch_12">
    <path clip-path="url(#p4922a994eb)" d="M -44.807211 492.238029 
L 178.793429 188.078243 
L 208.123313 176.799539 
L 212.304466 181.182131 
L 217.566074 213.058047 
z
" style="fill:#0b62aa;opacity:0.6;stroke-dasharray:0,0;stroke-dashoffset:0;"/>
   </g>
   <g id="patch_13">
    <path clip-path="url(#p4922a994eb)" d="M 146.665526 150.170226 
L 171.216009 138.114115 
L 182.375265 149.811002 
z
" style="fill:#0ca684;opacity:0.6;stroke-dasharray:0,0;stroke-dashoffset:0;"/>
   </g>
   <g id="patch_14">
    <path clip-path="url(#p4922a994eb)" d="M 182.375265 149.811002 
L 171.216009 138.114115 
L 199.251522 124.346597 
L 215.432217 137.885914 
L 206.392893 149.569396 
z
" style="fill:#0dea5e;opacity:0.6;stroke-dasharray:0,0;stroke-dashoffset:0;"/>
   </g>
   <g id="patch_15">
    <path clip-path="url(#p4922a994eb)" d="M 175.669906 189.279383 
L 183.55225 179.091318 
L 185.850211 178.479033 
L 178.793429 188.078243 
z
" style="fill:#0f2e38;opacity:0.6;stroke-dasharray:0,0;stroke-dashoffset:0;"/>
   </g>
   <g id="patch_16">
    <path clip-path="url(#p4922a994eb)" d="M 178.793429 188.078243 
L 185.850211 178.479033 
L 204.886566 173.406852 
L 208.123313 176.799539 
z
" style="fill:#107212;opacity:0.6;stroke-dasharray:0,0;stroke-dashoffset:0;"/>
   </g>
   <g id="patch_17">
    <path clip-path="url(#p4922a994eb)" d="M 180.968435 252 
L 217.566074 213.058047 
L 218.048819 215.982617 
L 218.028867 252 
z
" style="fill:#11b5ec;opacity:0.6;stroke-dasharray:0,0;stroke-dashoffset:0;"/>
   </g>
   <g id="patch_18">
    <path clip-path="url(#p4922a994eb)" d="M 182.375265 149.811002 
L 206.392893 149.569396 
L 195.534429 163.604147 
z
" style="fill:#12f9c6;opacity:0.6;stroke-dasharray:0,0;stroke-dashoffset:0;"/>
   </g>
   <g id="patch_19">
    <path clip-path="url(#p4922a994eb)" d="M 182.542687 34.56 
L 218.149317 34.56 
L 218.104709 115.088282 
L 218.0296 115.125166 
z
" style="fill:#143da0;opacity:0.6;stroke-dasharray:0,0;stroke-dashoffset:0;"/>
   </g>
   <g id="patch_20">
    <path clip-path="url(#p4922a994eb)" d="M 183.55225 179.091318 
L 190.702323 169.849727 
L 192.513892 169.414553 
L 185.850211 178.479033 
z
" style="fill:#15817a;opacity:0.6;stroke-dasharray:0,0;stroke-dashoffset:0;"/>
   </g>
   <g id="patch_21">
    <path clip-path="url(#p4922a994eb)" d="M 185.850211 178.479033 
L 192.513892 169.414553 
L 199.481047 167.740906 
L 204.886566 173.406852 
z
" style="fill:#16c554;opacity:0.6;stroke-dasharray:0,0;stroke-dashoffset:0;"/>
   </g>
   <g id="patch_22">
    <path clip-path="url(#p4922a994eb)" d="M 190.702323 169.849727 
L 195.534429 163.604147 
L 196.240949 164.344706 
L 192.513892 169.414553 
z
" style="fill:#18092e;opacity:0.6;stroke-dasharray:0,0;stroke-dashoffset:0;"/>
   </g>
   <g id="patch_23">
    <path clip-path="url(#p4922a994eb)" d="M 192.513892 169.414553 
L 196.240949 164.344706 
L 199.481047 167.740906 
z
" style="fill:#194d08;opacity:0.6;stroke-dasharray:0,0;stroke-dashoffset:0;"/>
   </g>
   <g id="patch_24">
    <path clip-path="url(#p4922a994eb)" d="M 199.481047 167.740906 
L 196.240949 164.344706 
L 207.10819 149.562201 
L 218.085673 149.451772 
L 218.083879 152.691606 
L 211.133334 164.941798 
z
" style="fill:#1a90e2;opacity:0.6;stroke-dasharray:0,0;stroke-dashoffset:0;"/>
   </g>
   <g id="patch_25">
    <path clip-path="url(#p4922a994eb)" d="M 195.534429 163.604147 
L 206.392893 149.569396 
L 207.10819 149.562201 
L 196.240949 164.344706 
z
" style="fill:#1bd4bc;opacity:0.6;stroke-dasharray:0,0;stroke-dashoffset:0;"/>
   </g>
   <g id="patch_26">
    <path clip-path="url(#p4922a994eb)" d="M 204.886566 173.406852 
L 199.481047 167.740906 
L 211.133334 164.941798 
L 211.129567 171.743423 
z
" style="fill:#1d1896;opacity:0.6;stroke-dasharray:0,0;stroke-dashoffset:0;"/>
   </g>
   <g id="patch_27">
    <path clip-path="url(#p4922a994eb)" d="M 199.251522 124.346597 
L 218.029601 115.125166 
L 218.1046 115.284922 
L 218.093986 134.445533 
L 215.432217 137.885914 
z
" style="fill:#1e5c70;opacity:0.6;stroke-dasharray:0,0;stroke-dashoffset:0;"/>
   </g>
   <g id="patch_28">
    <path clip-path="url(#p4922a994eb)" d="M 208.123313 176.799539 
L 204.886566 173.406852 
L 211.129567 171.743423 
L 211.549922 175.481848 
z
" style="fill:#1fa04a;opacity:0.6;stroke-dasharray:0,0;stroke-dashoffset:0;"/>
   </g>
   <g id="patch_29">
    <path clip-path="url(#p4922a994eb)" d="M 206.392893 149.569396 
L 215.432217 137.885914 
L 215.59301 138.020459 
L 207.10819 149.562201 
z
" style="fill:#20e424;opacity:0.6;stroke-dasharray:0,0;stroke-dashoffset:0;"/>
   </g>
   <g id="patch_30">
    <path clip-path="url(#p4922a994eb)" d="M 208.123313 176.799539 
L 211.549921 175.481848 
L 212.304465 181.18213 
z
" style="fill:#2227fe;opacity:0.6;stroke-dasharray:0,0;stroke-dashoffset:0;"/>
   </g>
   <g id="patch_31">
    <path clip-path="url(#p4922a994eb)" d="M 207.10819 149.562201 
L 215.59301 138.020459 
L 218.090848 140.110544 
L 218.085673 149.451772 
z
" style="fill:#236bd8;opacity:0.6;stroke-dasharray:0,0;stroke-dashoffset:0;"/>
   </g>
   <g id="patch_32">
    <path clip-path="url(#p4922a994eb)" d="M 212.304465 181.18213 
L 211.549921 175.481848 
L 218.072644 172.973558 
L 218.064752 187.219936 
z
" style="fill:#24afb2;opacity:0.6;stroke-dasharray:0,0;stroke-dashoffset:0;"/>
   </g>
   <g id="patch_33">
    <path clip-path="url(#p4922a994eb)" d="M 211.549922 175.481848 
L 211.129567 171.743423 
L 218.07435 169.893006 
L 218.072644 172.973558 
z
" style="fill:#25f38c;opacity:0.6;stroke-dasharray:0,0;stroke-dashoffset:0;"/>
   </g>
   <g id="patch_34">
    <path clip-path="url(#p4922a994eb)" d="M 211.129567 171.743423 
L 211.133334 164.941798 
L 218.078017 163.273549 
L 218.07435 169.893006 
z
" style="fill:#273766;opacity:0.6;stroke-dasharray:0,0;stroke-dashoffset:0;"/>
   </g>
   <g id="patch_35">
    <path clip-path="url(#p4922a994eb)" d="M 211.133334 164.941798 
L 218.083879 152.691606 
L 218.078017 163.273549 
z
" style="fill:#287b40;opacity:0.6;stroke-dasharray:0,0;stroke-dashoffset:0;"/>
   </g>
   <g id="patch_36">
    <path clip-path="url(#p4922a994eb)" d="M 212.304466 181.182131 
L 218.064752 187.219936 
L 218.050725 212.542351 
L 217.566074 213.058047 
z
" style="fill:#29bf1a;opacity:0.6;stroke-dasharray:0,0;stroke-dashoffset:0;"/>
   </g>
   <g id="patch_37">
    <path clip-path="url(#p4922a994eb)" d="M 215.59301 138.020459 
L 218.09389 134.618557 
L 218.090848 140.110544 
z
" style="fill:#2b02f4;opacity:0.6;stroke-dasharray:0,0;stroke-dashoffset:0;"/>
   </g>
   <g id="patch_38">
    <path clip-path="url(#p4922a994eb)" d="M 218.028867 252 
L 218.048819 215.982617 
L 241.426129 216.492565 
L 246.869502 217.412441 
L 279.867294 252 
z
" style="fill:#2c46ce;opacity:0.6;stroke-dasharray:0,0;stroke-dashoffset:0;"/>
   </g>
   <g id="patch_39">
    <path clip-path="url(#p4922a994eb)" d="M 218.048819 215.982617 
L 218.050725 212.542351 
L 241.426129 216.492565 
z
" style="fill:#2d8aa8;opacity:0.6;stroke-dasharray:0,0;stroke-dashoffset:0;"/>
   </g>
   <g id="patch_40">
    <path clip-path="url(#p4922a994eb)" d="M 218.050725 212.542351 
L 218.064752 187.219936 
L 246.088945 216.594278 
L 241.426129 216.492565 
z
" style="fill:#2ece82;opacity:0.6;stroke-dasharray:0,0;stroke-dashoffset:0;"/>
   </g>
   <g id="patch_41">
    <path clip-path="url(#p4922a994eb)" d="M 246.088949 216.594283 
L 218.064752 187.219936 
L 218.072644 172.973558 
L 244.153188 162.944376 
L 245.083182 162.696582 
L 292.906385 202.713007 
L 275.837034 208.1632 
z
" style="fill:#30125c;opacity:0.6;stroke-dasharray:0,0;stroke-dashoffset:0;"/>
   </g>
   <g id="patch_42">
    <path clip-path="url(#p4922a994eb)" d="M 218.072644 172.973558 
L 218.07435 169.893006 
L 244.153188 162.944376 
z
" style="fill:#315636;opacity:0.6;stroke-dasharray:0,0;stroke-dashoffset:0;"/>
   </g>
   <g id="patch_43">
    <path clip-path="url(#p4922a994eb)" d="M 218.07435 169.893006 
L 218.078017 163.273549 
L 239.595412 158.104649 
L 244.993252 162.621332 
L 244.153188 162.944376 
z
" style="fill:#329a10;opacity:0.6;stroke-dasharray:0,0;stroke-dashoffset:0;"/>
   </g>
   <g id="patch_44">
    <path clip-path="url(#p4922a994eb)" d="M 218.078017 163.273549 
L 218.083879 152.691606 
L 229.771122 149.884101 
L 239.595412 158.104649 
z
" style="fill:#33ddea;opacity:0.6;stroke-dasharray:0,0;stroke-dashoffset:0;"/>
   </g>
   <g id="patch_45">
    <path clip-path="url(#p4922a994eb)" d="M 218.083879 152.691606 
L 218.085673 149.451772 
L 229.121774 149.340754 
L 229.771122 149.884101 
z
" style="fill:#3521c4;opacity:0.6;stroke-dasharray:0,0;stroke-dashoffset:0;"/>
   </g>
   <g id="patch_46">
    <path clip-path="url(#p4922a994eb)" d="M 218.085673 149.451772 
L 218.090848 140.110544 
L 229.121774 149.340754 
z
" style="fill:#36659e;opacity:0.6;stroke-dasharray:0,0;stroke-dashoffset:0;"/>
   </g>
   <g id="patch_47">
    <path clip-path="url(#p4922a994eb)" d="M 229.121774 149.340754 
L 218.090848 140.110544 
L 218.09389 134.618557 
L 220.645398 131.147789 
L 229.412323 119.816388 
L 342.249235 125.221883 
L 285.272294 147.132167 
L 278.301211 148.806758 
L 270.793876 148.921552 
z
" style="fill:#37a978;opacity:0.6;stroke-dasharray:0,0;stroke-dashoffset:0;"/>
   </g>
   <g id="patch_48">
    <path clip-path="url(#p4922a994eb)" d="M 220.645398 131.147789 
L 218.093986 134.445533 
L 218.1046 115.284922 
L 228.889783 119.933105 
z
" style="fill:#38ed52;opacity:0.6;stroke-dasharray:0,0;stroke-dashoffset:0;"/>
   </g>
   <g id="patch_49">
    <path clip-path="url(#p4922a994eb)" d="M 218.1046 115.284922 
L 218.104709 115.088282 
L 240.556848 104.062615 
L 228.889783 119.933105 
z
" style="fill:#3a312c;opacity:0.6;stroke-dasharray:0,0;stroke-dashoffset:0;"/>
   </g>
   <g id="patch_50">
    <path clip-path="url(#p4922a994eb)" d="M 240.556848 104.062615 
L 218.104709 115.088282 
L 218.149317 34.56 
L 291.65114 34.56 
z
" style="fill:#3b7506;opacity:0.6;stroke-dasharray:0,0;stroke-dashoffset:0;"/>
   </g>
   <g id="patch_51">
    <path clip-path="url(#p4922a994eb)" d="M 239.595412 158.104649 
L 229.771123 149.884102 
L 270.793758 148.921553 
L 278.130573 148.847748 
z
" style="fill:#3cb8e0;opacity:0.6;stroke-dasharray:0,0;stroke-dashoffset:0;"/>
   </g>
   <g id="patch_52">
    <path clip-path="url(#p4922a994eb)" d="M 342.249235 125.221883 
L 229.412323 119.816388 
L 242.240416 103.235857 
L 382.08863 34.56 
L 388.8 34.56 
L 388.8 107.320949 
z
" style="fill:#3dfcba;opacity:0.6;stroke-dasharray:0,0;stroke-dashoffset:0;"/>
   </g>
   <g id="patch_53">
    <path clip-path="url(#p4922a994eb)" d="M 229.412325 119.816385 
L 228.889783 119.933105 
L 240.556848 104.062615 
L 242.240416 103.235857 
z
" style="fill:#3f4094;opacity:0.6;stroke-dasharray:0,0;stroke-dashoffset:0;"/>
   </g>
   <g id="patch_54">
    <path clip-path="url(#p4922a994eb)" d="M 229.771123 149.884102 
L 229.121774 149.340754 
L 270.793758 148.921553 
z
" style="fill:#40846e;opacity:0.6;stroke-dasharray:0,0;stroke-dashoffset:0;"/>
   </g>
   <g id="patch_55">
    <path clip-path="url(#p4922a994eb)" d="M 244.993252 162.621332 
L 239.595412 158.104649 
L 278.130573 148.847748 
L 278.707604 148.841944 
L 279.374639 149.40009 
z
" style="fill:#41c848;opacity:0.6;stroke-dasharray:0,0;stroke-dashoffset:0;"/>
   </g>
   <g id="patch_56">
    <path clip-path="url(#p4922a994eb)" d="M 242.240416 103.235857 
L 240.556848 104.062615 
L 291.65114 34.56 
L 295.373837 34.56 
z
" style="fill:#430c22;opacity:0.6;stroke-dasharray:0,0;stroke-dashoffset:0;"/>
   </g>
   <g id="patch_57">
    <path clip-path="url(#p4922a994eb)" d="M 242.240416 103.235857 
L 295.373837 34.56 
L 382.08863 34.56 
z
" style="fill:#444ffc;opacity:0.6;stroke-dasharray:0,0;stroke-dashoffset:0;"/>
   </g>
   <g id="patch_58">
    <path clip-path="url(#p4922a994eb)" d="M 241.426129 216.492565 
L 246.088945 216.594278 
L 246.869502 217.412441 
z
" style="fill:#4593d6;opacity:0.6;stroke-dasharray:0,0;stroke-dashoffset:0;"/>
   </g>
   <g id="patch_59">
    <path clip-path="url(#p4922a994eb)" d="M 245.083182 162.696582 
L 244.993252 162.621332 
L 279.374638 149.40009 
L 282.685953 152.677433 
z
" style="fill:#46d7b0;opacity:0.6;stroke-dasharray:0,0;stroke-dashoffset:0;"/>
   </g>
   <g id="patch_60">
    <path clip-path="url(#p4922a994eb)" d="M 246.869506 217.412445 
L 246.088949 216.594283 
L 275.837034 208.1632 
z
" style="fill:#481b8a;opacity:0.6;stroke-dasharray:0,0;stroke-dashoffset:0;"/>
   </g>
   <g id="patch_61">
    <path clip-path="url(#p4922a994eb)" d="M 245.083182 162.696582 
L 282.685953 152.677433 
L 293.266886 202.297056 
L 292.906383 202.713005 
z
" style="fill:#495f64;opacity:0.6;stroke-dasharray:0,0;stroke-dashoffset:0;"/>
   </g>
   <g id="patch_62">
    <path clip-path="url(#p4922a994eb)" d="M 279.867294 252 
L 246.869506 217.412445 
L 275.837034 208.1632 
L 293.453145 203.170512 
L 351.808747 252 
z
" style="fill:#4aa33e;opacity:0.6;stroke-dasharray:0,0;stroke-dashoffset:0;"/>
   </g>
   <g id="patch_63">
    <path clip-path="url(#p4922a994eb)" d="M 279.374639 149.40009 
L 278.707604 148.841944 
L 280.882985 148.82006 
z
" style="fill:#4be718;opacity:0.6;stroke-dasharray:0,0;stroke-dashoffset:0;"/>
   </g>
   <g id="patch_64">
    <path clip-path="url(#p4922a994eb)" d="M 282.685953 152.677433 
L 279.374638 149.40009 
L 280.882985 148.82006 
L 297.801782 148.649865 
z
" style="fill:#4d2af2;opacity:0.6;stroke-dasharray:0,0;stroke-dashoffset:0;"/>
   </g>
   <g id="patch_65">
    <path clip-path="url(#p4922a994eb)" d="M 278.707603 148.841944 
L 278.301214 148.806757 
L 285.272294 147.132167 
L 280.882985 148.82006 
z
" style="fill:#4e6ecc;opacity:0.6;stroke-dasharray:0,0;stroke-dashoffset:0;"/>
   </g>
   <g id="patch_66">
    <path clip-path="url(#p4922a994eb)" d="M 275.837034 208.1632 
L 292.906385 202.713007 
L 293.453145 203.170512 
z
" style="fill:#4fb2a6;opacity:0.6;stroke-dasharray:0,0;stroke-dashoffset:0;"/>
   </g>
   <g id="patch_67">
    <path clip-path="url(#p4922a994eb)" d="M 280.882985 148.82006 
L 285.272294 147.132167 
L 359.137613 129.38827 
L 357.822269 132.657582 
L 297.801782 148.649865 
z
" style="fill:#50f680;opacity:0.6;stroke-dasharray:0,0;stroke-dashoffset:0;"/>
   </g>
   <g id="patch_68">
    <path clip-path="url(#p4922a994eb)" d="M 293.266886 202.297056 
L 282.685953 152.677433 
L 297.801782 148.649865 
L 340.131959 148.224043 
z
" style="fill:#523a5a;opacity:0.6;stroke-dasharray:0,0;stroke-dashoffset:0;"/>
   </g>
   <g id="patch_69">
    <path clip-path="url(#p4922a994eb)" d="M 285.272294 147.132167 
L 342.249239 125.221882 
L 359.137613 129.38827 
z
" style="fill:#537e34;opacity:0.6;stroke-dasharray:0,0;stroke-dashoffset:0;"/>
   </g>
   <g id="patch_70">
    <path clip-path="url(#p4922a994eb)" d="M 293.453142 203.17051 
L 293.266886 202.297056 
L 340.131959 148.224043 
L 388.8 147.734465 
L 388.8 252 
L 351.808747 252 
z
" style="fill:#54c20e;opacity:0.6;stroke-dasharray:0,0;stroke-dashoffset:0;"/>
   </g>
   <g id="patch_71">
    <path clip-path="url(#p4922a994eb)" d="M 297.801782 148.649865 
L 357.822259 132.657585 
L 340.131962 148.224043 
z
" style="fill:#5605e8;opacity:0.6;stroke-dasharray:0,0;stroke-dashoffset:0;"/>
   </g>
   <g id="patch_72">
    <path clip-path="url(#p4922a994eb)" d="M 340.131962 148.224043 
L 357.822259 132.657585 
L 388.8 124.403656 
L 388.8 147.734465 
z
" style="fill:#5749c2;opacity:0.6;stroke-dasharray:0,0;stroke-dashoffset:0;"/>
   </g>
   <g id="patch_73">
    <path clip-path="url(#p4922a994eb)" d="M 359.137613 129.38827 
L 342.249239 125.221882 
L 388.8 107.320949 
L 388.8 122.262783 
z
" style="fill:#588d9c;opacity:0.6;stroke-dasharray:0,0;stroke-dashoffset:0;"/>
   </g>
   <g id="patch_74">
    <path clip-path="url(#p4922a994eb)" d="M 357.822269 132.657582 
L 359.137613 129.38827 
L 470.427117 102.65435 
z
" style="fill:#59d176;opacity:0.6;stroke-dasharray:0,0;stroke-dashoffset:0;"/>
   </g>
   <g id="patch_75">
    <path clip-path="url(#p4922a994eb)" d="M 180.968435 252 
L 193.046283 239.148487 
L 194.8306 252 
z
" style="fill:#ff0000;stroke:#000000;stroke-linejoin:miter;stroke-width:0.5;"/>
   </g>
   <g id="patch_76">
    <path clip-path="url(#p4922a994eb)" d="M 354.278084 135.776258 
L 357.822259 132.657585 
L 388.8 124.403656 
L 388.8 139.711975 
z
" style="fill:#ff0000;stroke:#000000;stroke-linejoin:miter;stroke-width:0.5;"/>
   </g>
   <g id="matplotlib.axis_1">
    <g id="xtick_1">
     <g id="line2d_1">
      <defs>
       <path d="M 0 0 
L 0 3.5 
" id="mab4a0337bd" style="stroke:#000000;stroke-width:0.8;"/>
      </defs>
      <g>
       <use style="stroke:#000000;stroke-width:0.8;" x="87.48" xlink:href="#mab4a0337bd" y="252"/>
      </g>
     </g>
     <g id="text_1">
      <!-- −4 -->
      <defs>
       <path d="M 10.59375 35.5 
L 73.1875 35.5 
L 73.1875 27.203125 
L 10.59375 27.203125 
z
" id="DejaVuSans-2212"/>
       <path d="M 37.796875 64.3125 
L 12.890625 25.390625 
L 37.796875 25.390625 
z
M 35.203125 72.90625 
L 47.609375 72.90625 
L 47.609375 25.390625 
L 58.015625 25.390625 
L 58.015625 17.1875 
L 47.609375 17.1875 
L 47.609375 0 
L 37.796875 0 
L 37.796875 17.1875 
L 4.890625 17.1875 
L 4.890625 26.703125 
z
" id="DejaVuSans-34"/>
      </defs>
      <g transform="translate(80.108906 266.598437)scale(0.1 -0.1)">
       <use xlink:href="#DejaVuSans-2212"/>
       <use x="83.789062" xlink:href="#DejaVuSans-34"/>
      </g>
     </g>
    </g>
    <g id="xtick_2">
     <g id="line2d_2">
      <g>
       <use style="stroke:#000000;stroke-width:0.8;" x="154.44" xlink:href="#mab4a0337bd" y="252"/>
      </g>
     </g>
     <g id="text_2">
      <!-- −2 -->
      <defs>
       <path d="M 19.1875 8.296875 
L 53.609375 8.296875 
L 53.609375 0 
L 7.328125 0 
L 7.328125 8.296875 
Q 12.9375 14.109375 22.625 23.890625 
Q 32.328125 33.6875 34.8125 36.53125 
Q 39.546875 41.84375 41.421875 45.53125 
Q 43.3125 49.21875 43.3125 52.78125 
Q 43.3125 58.59375 39.234375 62.25 
Q 35.15625 65.921875 28.609375 65.921875 
Q 23.96875 65.921875 18.8125 64.3125 
Q 13.671875 62.703125 7.8125 59.421875 
L 7.8125 69.390625 
Q 13.765625 71.78125 18.9375 73 
Q 24.125 74.21875 28.421875 74.21875 
Q 39.75 74.21875 46.484375 68.546875 
Q 53.21875 62.890625 53.21875 53.421875 
Q 53.21875 48.921875 51.53125 44.890625 
Q 49.859375 40.875 45.40625 35.40625 
Q 44.1875 33.984375 37.640625 27.21875 
Q 31.109375 20.453125 19.1875 8.296875 
z
" id="DejaVuSans-32"/>
      </defs>
      <g transform="translate(147.068906 266.598437)scale(0.1 -0.1)">
       <use xlink:href="#DejaVuSans-2212"/>
       <use x="83.789062" xlink:href="#DejaVuSans-32"/>
      </g>
     </g>
    </g>
    <g id="xtick_3">
     <g id="line2d_3">
      <g>
       <use style="stroke:#000000;stroke-width:0.8;" x="221.4" xlink:href="#mab4a0337bd" y="252"/>
      </g>
     </g>
     <g id="text_3">
      <!-- 0 -->
      <defs>
       <path d="M 31.78125 66.40625 
Q 24.171875 66.40625 20.328125 58.90625 
Q 16.5 51.421875 16.5 36.375 
Q 16.5 21.390625 20.328125 13.890625 
Q 24.171875 6.390625 31.78125 6.390625 
Q 39.453125 6.390625 43.28125 13.890625 
Q 47.125 21.390625 47.125 36.375 
Q 47.125 51.421875 43.28125 58.90625 
Q 39.453125 66.40625 31.78125 66.40625 
z
M 31.78125 74.21875 
Q 44.046875 74.21875 50.515625 64.515625 
Q 56.984375 54.828125 56.984375 36.375 
Q 56.984375 17.96875 50.515625 8.265625 
Q 44.046875 -1.421875 31.78125 -1.421875 
Q 19.53125 -1.421875 13.0625 8.265625 
Q 6.59375 17.96875 6.59375 36.375 
Q 6.59375 54.828125 13.0625 64.515625 
Q 19.53125 74.21875 31.78125 74.21875 
z
" id="DejaVuSans-30"/>
      </defs>
      <g transform="translate(218.21875 266.598437)scale(0.1 -0.1)">
       <use xlink:href="#DejaVuSans-30"/>
      </g>
     </g>
    </g>
    <g id="xtick_4">
     <g id="line2d_4">
      <g>
       <use style="stroke:#000000;stroke-width:0.8;" x="288.36" xlink:href="#mab4a0337bd" y="252"/>
      </g>
     </g>
     <g id="text_4">
      <!-- 2 -->
      <g transform="translate(285.17875 266.598437)scale(0.1 -0.1)">
       <use xlink:href="#DejaVuSans-32"/>
      </g>
     </g>
    </g>
    <g id="xtick_5">
     <g id="line2d_5">
      <g>
       <use style="stroke:#000000;stroke-width:0.8;" x="355.32" xlink:href="#mab4a0337bd" y="252"/>
      </g>
     </g>
     <g id="text_5">
      <!-- 4 -->
      <g transform="translate(352.13875 266.598437)scale(0.1 -0.1)">
       <use xlink:href="#DejaVuSans-34"/>
      </g>
     </g>
    </g>
   </g>
   <g id="matplotlib.axis_2">
    <g id="ytick_1">
     <g id="line2d_6">
      <defs>
       <path d="M 0 0 
L -3.5 0 
" id="m1869349a67" style="stroke:#000000;stroke-width:0.8;"/>
      </defs>
      <g>
       <use style="stroke:#000000;stroke-width:0.8;" x="54" xlink:href="#m1869349a67" y="230.256"/>
      </g>
     </g>
     <g id="text_6">
      <!-- −4 -->
      <g transform="translate(32.257812 234.055219)scale(0.1 -0.1)">
       <use xlink:href="#DejaVuSans-2212"/>
       <use x="83.789062" xlink:href="#DejaVuSans-34"/>
      </g>
     </g>
    </g>
    <g id="ytick_2">
     <g id="line2d_7">
      <g>
       <use style="stroke:#000000;stroke-width:0.8;" x="54" xlink:href="#m1869349a67" y="186.768"/>
      </g>
     </g>
     <g id="text_7">
      <!-- −2 -->
      <g transform="translate(32.257812 190.567219)scale(0.1 -0.1)">
       <use xlink:href="#DejaVuSans-2212"/>
       <use x="83.789062" xlink:href="#DejaVuSans-32"/>
      </g>
     </g>
    </g>
    <g id="ytick_3">
     <g id="line2d_8">
      <g>
       <use style="stroke:#000000;stroke-width:0.8;" x="54" xlink:href="#m1869349a67" y="143.28"/>
      </g>
     </g>
     <g id="text_8">
      <!-- 0 -->
      <g transform="translate(40.6375 147.079219)scale(0.1 -0.1)">
       <use xlink:href="#DejaVuSans-30"/>
      </g>
     </g>
    </g>
    <g id="ytick_4">
     <g id="line2d_9">
      <g>
       <use style="stroke:#000000;stroke-width:0.8;" x="54" xlink:href="#m1869349a67" y="99.792"/>
      </g>
     </g>
     <g id="text_9">
      <!-- 2 -->
      <g transform="translate(40.6375 103.591219)scale(0.1 -0.1)">
       <use xlink:href="#DejaVuSans-32"/>
      </g>
     </g>
    </g>
    <g id="ytick_5">
     <g id="line2d_10">
      <g>
       <use style="stroke:#000000;stroke-width:0.8;" x="54" xlink:href="#m1869349a67" y="56.304"/>
      </g>
     </g>
     <g id="text_10">
      <!-- 4 -->
      <g transform="translate(40.6375 60.103219)scale(0.1 -0.1)">
       <use xlink:href="#DejaVuSans-34"/>
      </g>
     </g>
    </g>
   </g>
   <g id="line2d_11">
    <path clip-path="url(#p4922a994eb)" d="M 184.602382 177.734006 
L 186.931195 170.755626 
" style="fill:none;stroke:#ff0000;stroke-linecap:square;stroke-width:0.5;"/>
   </g>
   <g id="line2d_12">
    <path clip-path="url(#p4922a994eb)" d="M 186.931197 170.755626 
L 192.981129 160.927834 
" style="fill:none;stroke:#ff0000;stroke-linecap:square;stroke-width:0.5;"/>
   </g>
   <g id="line2d_13">
    <path clip-path="url(#p4922a994eb)" d="M 193.046283 239.148488 
L 184.268806 185.972706 
" style="fill:none;stroke:#ff0000;stroke-linecap:square;stroke-width:0.5;"/>
   </g>
   <g id="line2d_14">
    <path clip-path="url(#p4922a994eb)" d="M 200.272363 149.630966 
L 215.189628 137.682926 
" style="fill:none;stroke:#ff0000;stroke-linecap:square;stroke-width:0.5;"/>
   </g>
   <g id="line2d_15">
    <path clip-path="url(#p4922a994eb)" d="M 183.619171 181.513876 
L 184.252745 178.904674 
" style="fill:none;stroke:#ff0000;stroke-linecap:square;stroke-width:0.5;"/>
   </g>
   <g id="line2d_16">
    <path clip-path="url(#p4922a994eb)" d="M 184.268801 185.972708 
L 183.619168 181.51388 
" style="fill:none;stroke:#ff0000;stroke-linecap:square;stroke-width:0.5;"/>
   </g>
   <g id="line2d_17">
    <path clip-path="url(#p4922a994eb)" d="M 192.981128 160.927834 
L 200.272361 149.630966 
" style="fill:none;stroke:#ff0000;stroke-linecap:square;stroke-width:0.5;"/>
   </g>
   <g id="line2d_18">
    <path clip-path="url(#p4922a994eb)" d="M 184.252746 178.904673 
L 184.602383 177.734004 
" style="fill:none;stroke:#ff0000;stroke-linecap:square;stroke-width:0.5;"/>
   </g>
   <g id="line2d_19">
    <path clip-path="url(#p4922a994eb)" d="M 215.189627 137.682925 
L 216.067951 137.064218 
" style="fill:none;stroke:#ff0000;stroke-linecap:square;stroke-width:0.5;"/>
   </g>
   <g id="line2d_20">
    <path clip-path="url(#p4922a994eb)" d="M 218.093133 135.985178 
L 216.523702 136.754455 
" style="fill:none;stroke:#ff0000;stroke-linecap:square;stroke-width:0.5;"/>
   </g>
   <g id="line2d_21">
    <path clip-path="url(#p4922a994eb)" d="M 318.241937 134.453806 
L 218.093133 135.985179 
" style="fill:none;stroke:#ff0000;stroke-linecap:square;stroke-width:0.5;"/>
   </g>
   <g id="line2d_22">
    <path clip-path="url(#p4922a994eb)" d="M 348.687369 135.091549 
L 339.095149 134.202863 
" style="fill:none;stroke:#ff0000;stroke-linecap:square;stroke-width:0.5;"/>
   </g>
   <g id="line2d_23">
    <path clip-path="url(#p4922a994eb)" d="M 339.095147 134.202863 
L 318.241939 134.453805 
" style="fill:none;stroke:#ff0000;stroke-linecap:square;stroke-width:0.5;"/>
   </g>
   <g id="line2d_24">
    <path clip-path="url(#p4922a994eb)" d="M 354.278083 135.776259 
L 348.687364 135.091551 
" style="fill:none;stroke:#ff0000;stroke-linecap:square;stroke-width:0.5;"/>
   </g>
   <g id="patch_77">
    <path d="M 54 252 
L 54 34.56 
" style="fill:none;stroke:#000000;stroke-linecap:square;stroke-linejoin:miter;stroke-width:0.8;"/>
   </g>
   <g id="patch_78">
    <path d="M 388.8 252 
L 388.8 34.56 
" style="fill:none;stroke:#000000;stroke-linecap:square;stroke-linejoin:miter;stroke-width:0.8;"/>
   </g>
   <g id="patch_79">
    <path d="M 54 252 
L 388.8 252 
" style="fill:none;stroke:#000000;stroke-linecap:square;stroke-linejoin:miter;stroke-width:0.8;"/>
   </g>
   <g id="patch_80">
    <path d="M 54 34.56 
L 388.8 34.56 
" style="fill:none;stroke:#000000;stroke-linecap:square;stroke-linejoin:miter;stroke-width:0.8;"/>
   </g>
  </g>
 </g>
 <defs>
  <clipPath id="p4922a994eb">
   <rect height="217.44" width="334.8" x="54" y="34.56"/>
  </clipPath>
 </defs>
</svg>
