<?xml version="1.0" encoding="utf-8" standalone="no"?>
<!DOCTYPE svg PUBLIC "-//W3C//DTD SVG 1.1//EN"
  "http://www.w3.org/Graphics/SVG/1.1/DTD/svg11.dtd">
<!-- Created with matplotlib (http://matplotlib.org/) -->
<svg height="288pt" version="1.1" viewBox="0 0 432 288" width="432pt" xmlns="http://www.w3.org/2000/svg" xmlns:xlink="http://www.w3.org/1999/xlink">
 <defs>
  <style type="text/css">
*{stroke-linecap:butt;stroke-linejoin:round;}
  </style>
 </defs>
 <g id="figure_1">
  <g id="patch_1">
   <path d="M 0 288 
L 432 288 
L 432 0 
L 0 0 
z
" style="fill:#ffffff;"/>
  </g>
  <g id="axes_1">
   <g id="patch_2">
    <path d="M 54 252 
L 388.8 252 
L 388.8 34.56 
L 54 34.56 
z
" style="fill:#ffffff;"/>
   </g>
   <g id="patch_3">
    <path clip-path="url(#p47d70db522)" d="M 54 252 
L 54 177.931131 
L 135.664811 171.232807 
L 140.002852 188.376692 
L 96.809895 252 
z
" style="opacity:0.6;stroke-dasharray:0,0;stroke-dashoffset:0;"/>
   </g>
   <g id="patch_4">
    <path clip-path="url(#p47d70db522)" d="M -110.055771 191.38734 
L 3.502774 161.563581 
L 134.462083 166.479639 
L 135.664811 171.232807 
z
" style="fill:#0143da;opacity:0.6;stroke-dasharray:0,0;stroke-dashoffset:0;"/>
   </g>
   <g id="patch_5">
    <path clip-path="url(#p47d70db522)" d="M 3.502774 161.563581 
L 59.226239 146.928987 
L 134.070527 164.932214 
L 134.462083 166.479639 
z
" style="fill:#0287b4;opacity:0.6;stroke-dasharray:0,0;stroke-dashoffset:0;"/>
   </g>
   <g id="patch_6">
    <path clip-path="url(#p47d70db522)" d="M -134.064428 156.39947 
L 29.457902 139.768438 
L 59.226239 146.928987 
L 3.502774 161.563581 
z
" style="fill:#03cb8e;opacity:0.6;stroke-dasharray:0,0;stroke-dashoffset:0;"/>
   </g>
   <g id="patch_7">
    <path clip-path="url(#p47d70db522)" d="M 29.457902 139.768438 
L 96.113616 132.989222 
L 104.369987 135.072932 
L 59.226239 146.928987 
z
" style="fill:#050f68;opacity:0.6;stroke-dasharray:0,0;stroke-dashoffset:0;"/>
   </g>
   <g id="patch_8">
    <path clip-path="url(#p47d70db522)" d="M 54 137.272385 
L 54 122.360753 
L 96.113616 132.989222 
z
" style="fill:#065342;opacity:0.6;stroke-dasharray:0,0;stroke-dashoffset:0;"/>
   </g>
   <g id="patch_9">
    <path clip-path="url(#p47d70db522)" d="M 54 122.360753 
L 54 95.463844 
L 120.608829 130.497937 
L 96.113616 132.989222 
z
" style="fill:#07971c;opacity:0.6;stroke-dasharray:0,0;stroke-dashoffset:0;"/>
   </g>
   <g id="patch_10">
    <path clip-path="url(#p47d70db522)" d="M 54 95.463844 
L 54 34.56 
L 101.081505 34.56 
L 125.135076 129.619419 
L 122.536482 130.301885 
L 120.608829 130.497937 
z
" style="fill:#08daf6;opacity:0.6;stroke-dasharray:0,0;stroke-dashoffset:0;"/>
   </g>
   <g id="patch_11">
    <path clip-path="url(#p47d70db522)" d="M 59.226239 146.928987 
L 104.369987 135.072932 
L 128.025683 141.043064 
L 134.070527 164.932214 
z
" style="fill:#0a1ed0;opacity:0.6;stroke-dasharray:0,0;stroke-dashoffset:0;"/>
   </g>
   <g id="patch_12">
    <path clip-path="url(#p47d70db522)" d="M -109.808941 556.349931 
L 140.002852 188.376692 
L 147.971424 219.86839 
L -42.042624 506.381281 
z
" style="fill:#0b62aa;opacity:0.6;stroke-dasharray:0,0;stroke-dashoffset:0;"/>
   </g>
   <g id="patch_13">
    <path clip-path="url(#p47d70db522)" d="M 96.113616 132.989222 
L 120.608829 130.497937 
L 121.002193 130.704834 
L 104.369987 135.072932 
z
" style="fill:#0ca684;opacity:0.6;stroke-dasharray:0,0;stroke-dashoffset:0;"/>
   </g>
   <g id="patch_14">
    <path clip-path="url(#p47d70db522)" d="M 125.135076 129.619419 
L 90.592318 -6.893137 
L 215.633404 105.85194 
z
" style="fill:#0dea5e;opacity:0.6;stroke-dasharray:0,0;stroke-dashoffset:0;"/>
   </g>
   <g id="patch_15">
    <path clip-path="url(#p47d70db522)" d="M 104.369987 135.072932 
L 121.002193 130.704834 
L 126.086377 133.378951 
L 128.025683 141.043064 
z
" style="fill:#0f2e38;opacity:0.6;stroke-dasharray:0,0;stroke-dashoffset:0;"/>
   </g>
   <g id="patch_16">
    <path clip-path="url(#p47d70db522)" d="M 121.002193 130.704834 
L 122.536482 130.301885 
L 125.238235 130.027104 
L 126.086377 133.378951 
z
" style="fill:#107212;opacity:0.6;stroke-dasharray:0,0;stroke-dashoffset:0;"/>
   </g>
   <g id="patch_17">
    <path clip-path="url(#p47d70db522)" d="M 128.025683 141.043064 
L 126.086377 133.378951 
L 152.310419 147.17195 
z
" style="fill:#11b5ec;opacity:0.6;stroke-dasharray:0,0;stroke-dashoffset:0;"/>
   </g>
   <g id="patch_18">
    <path clip-path="url(#p47d70db522)" d="M 152.310419 147.17195 
L 126.086377 133.378951 
L 125.238235 130.027104 
L 208.80141 121.528315 
L 172.200061 152.191619 
z
" style="fill:#12f9c6;opacity:0.6;stroke-dasharray:0,0;stroke-dashoffset:0;"/>
   </g>
   <g id="patch_19">
    <path clip-path="url(#p47d70db522)" d="M 125.238235 130.027104 
L 125.135076 129.619419 
L 215.633404 105.85194 
L 216.741399 106.85098 
L 217.694528 112.373475 
L 208.801407 121.528315 
z
" style="fill:#143da0;opacity:0.6;stroke-dasharray:0,0;stroke-dashoffset:0;"/>
   </g>
   <g id="patch_20">
    <path clip-path="url(#p47d70db522)" d="M -42.042624 506.381281 
L 147.971424 219.86839 
L 175.383969 328.202433 
L 164.337261 354.203548 
z
" style="fill:#15817a;opacity:0.6;stroke-dasharray:0,0;stroke-dashoffset:0;"/>
   </g>
   <g id="patch_21">
    <path clip-path="url(#p47d70db522)" d="M 141.620769 166.748368 
L 134.070527 164.932214 
L 128.025683 141.043064 
L 152.310419 147.17195 
L 168.213851 155.536642 
L 154.219704 167.221317 
z
" style="fill:#16c554;opacity:0.6;stroke-dasharray:0,0;stroke-dashoffset:0;"/>
   </g>
   <g id="patch_22">
    <path clip-path="url(#p47d70db522)" d="M 135.664811 171.232807 
L 134.462083 166.479639 
L 141.620769 166.748368 
L 152.224545 169.299026 
L 151.742547 169.914076 
z
" style="fill:#18092e;opacity:0.6;stroke-dasharray:0,0;stroke-dashoffset:0;"/>
   </g>
   <g id="patch_23">
    <path clip-path="url(#p47d70db522)" d="M 134.462083 166.479639 
L 134.070527 164.932214 
L 141.620769 166.748368 
z
" style="fill:#194d08;opacity:0.6;stroke-dasharray:0,0;stroke-dashoffset:0;"/>
   </g>
   <g id="patch_24">
    <path clip-path="url(#p47d70db522)" d="M 140.002852 188.37669 
L 135.664811 171.232807 
L 151.742549 169.914076 
z
" style="fill:#1a90e2;opacity:0.6;stroke-dasharray:0,0;stroke-dashoffset:0;"/>
   </g>
   <g id="patch_25">
    <path clip-path="url(#p47d70db522)" d="M 90.592318 -6.893137 
L 7.543051 -335.102834 
L 206.47752 47.38132 
L 216.528407 105.616887 
L 215.633404 105.85194 
z
" style="fill:#1bd4bc;opacity:0.6;stroke-dasharray:0,0;stroke-dashoffset:0;"/>
   </g>
   <g id="patch_26">
    <path clip-path="url(#p47d70db522)" d="M 147.971426 219.868398 
L 140.002852 188.37669 
L 151.742549 169.914076 
L 154.008733 169.728199 
L 179.522432 175.865326 
z
" style="fill:#1d1896;opacity:0.6;stroke-dasharray:0,0;stroke-dashoffset:0;"/>
   </g>
   <g id="patch_27">
    <path clip-path="url(#p47d70db522)" d="M 141.620769 166.748368 
L 154.219702 167.221317 
L 152.224546 169.299026 
z
" style="fill:#1e5c70;opacity:0.6;stroke-dasharray:0,0;stroke-dashoffset:0;"/>
   </g>
   <g id="patch_28">
    <path clip-path="url(#p47d70db522)" d="M 175.383969 328.202433 
L 147.971426 219.868398 
L 179.522432 175.865326 
L 229.905974 187.984706 
L 230.827979 188.469651 
L 231.961019 195.034566 
z
" style="fill:#1fa04a;opacity:0.6;stroke-dasharray:0,0;stroke-dashoffset:0;"/>
   </g>
   <g id="patch_29">
    <path clip-path="url(#p47d70db522)" d="M 154.008733 169.728199 
L 152.224546 169.299026 
L 154.219702 167.221317 
L 175.042364 168.002975 
z
" style="fill:#20e424;opacity:0.6;stroke-dasharray:0,0;stroke-dashoffset:0;"/>
   </g>
   <g id="patch_30">
    <path clip-path="url(#p47d70db522)" d="M 154.219704 167.221317 
L 168.213851 155.536642 
L 189.487604 166.725949 
L 189.302215 166.833351 
L 175.042364 168.002975 
z
" style="fill:#2227fe;opacity:0.6;stroke-dasharray:0,0;stroke-dashoffset:0;"/>
   </g>
   <g id="patch_31">
    <path clip-path="url(#p47d70db522)" d="M 152.310419 147.17195 
L 172.200058 152.191619 
L 168.213849 155.53664 
z
" style="fill:#236bd8;opacity:0.6;stroke-dasharray:0,0;stroke-dashoffset:0;"/>
   </g>
   <g id="patch_32">
    <path clip-path="url(#p47d70db522)" d="M 154.008733 169.728199 
L 175.042364 168.002975 
L 187.041745 168.453418 
L 179.52243 175.865325 
z
" style="fill:#24afb2;opacity:0.6;stroke-dasharray:0,0;stroke-dashoffset:0;"/>
   </g>
   <g id="patch_33">
    <path clip-path="url(#p47d70db522)" d="M 168.213849 155.53664 
L 172.200058 152.191619 
L 201.730306 159.644347 
L 189.487604 166.725948 
z
" style="fill:#25f38c;opacity:0.6;stroke-dasharray:0,0;stroke-dashoffset:0;"/>
   </g>
   <g id="patch_34">
    <path clip-path="url(#p47d70db522)" d="M 201.730306 159.644347 
L 172.200061 152.191619 
L 208.80141 121.528315 
L 219.093896 120.481518 
L 223.645375 146.853116 
z
" style="fill:#273766;opacity:0.6;stroke-dasharray:0,0;stroke-dashoffset:0;"/>
   </g>
   <g id="patch_35">
    <path clip-path="url(#p47d70db522)" d="M 175.042364 168.002975 
L 189.302219 166.833351 
L 187.041745 168.453418 
z
" style="fill:#287b40;opacity:0.6;stroke-dasharray:0,0;stroke-dashoffset:0;"/>
   </g>
   <g id="patch_36">
    <path clip-path="url(#p47d70db522)" d="M 179.52243 175.865325 
L 187.041745 168.453418 
L 193.212371 168.685056 
L 229.905974 187.984706 
z
" style="fill:#29bf1a;opacity:0.6;stroke-dasharray:0,0;stroke-dashoffset:0;"/>
   </g>
   <g id="patch_37">
    <path clip-path="url(#p47d70db522)" d="M 187.041745 168.453418 
L 189.302219 166.833351 
L 189.639246 166.805707 
L 193.212371 168.685056 
z
" style="fill:#2b02f4;opacity:0.6;stroke-dasharray:0,0;stroke-dashoffset:0;"/>
   </g>
   <g id="patch_38">
    <path clip-path="url(#p47d70db522)" d="M 193.212371 168.685056 
L 189.639246 166.805707 
L 220.180241 164.300669 
L 226.951595 166.009596 
L 227.63638 169.977292 
z
" style="fill:#2c46ce;opacity:0.6;stroke-dasharray:0,0;stroke-dashoffset:0;"/>
   </g>
   <g id="patch_39">
    <path clip-path="url(#p47d70db522)" d="M 189.639246 166.805707 
L 189.487604 166.725948 
L 201.730306 159.644347 
L 220.180241 164.300669 
z
" style="fill:#2d8aa8;opacity:0.6;stroke-dasharray:0,0;stroke-dashoffset:0;"/>
   </g>
   <g id="patch_40">
    <path clip-path="url(#p47d70db522)" d="M 193.212371 168.685056 
L 227.63638 169.977292 
L 230.780593 188.195089 
L 229.905974 187.984706 
z
" style="fill:#2ece82;opacity:0.6;stroke-dasharray:0,0;stroke-dashoffset:0;"/>
   </g>
   <g id="patch_41">
    <path clip-path="url(#p47d70db522)" d="M -1128.350731 -4824.141248 
L 10.364895 -1088.909501 
L 206.47752 47.38132 
L 7.543051 -335.102834 
z
" style="fill:#30125c;opacity:0.6;stroke-dasharray:0,0;stroke-dashoffset:0;"/>
   </g>
   <g id="patch_42">
    <path clip-path="url(#p47d70db522)" d="M 201.730306 159.644347 
L 223.645375 146.853116 
L 226.566249 163.776874 
L 220.180241 164.300669 
z
" style="fill:#315636;opacity:0.6;stroke-dasharray:0,0;stroke-dashoffset:0;"/>
   </g>
   <g id="patch_43">
    <path clip-path="url(#p47d70db522)" d="M 206.47752 47.38132 
L 10.364895 -1088.909501 
L 290.756312 -169.165451 
L 295.078169 46.472985 
L 276.660019 89.824586 
L 234.334298 100.940544 
z
" style="fill:#329a10;opacity:0.6;stroke-dasharray:0,0;stroke-dashoffset:0;"/>
   </g>
   <g id="patch_44">
    <path clip-path="url(#p47d70db522)" d="M 216.528407 105.616887 
L 206.47752 47.38132 
L 234.334298 100.940544 
z
" style="fill:#33ddea;opacity:0.6;stroke-dasharray:0,0;stroke-dashoffset:0;"/>
   </g>
   <g id="patch_45">
    <path clip-path="url(#p47d70db522)" d="M 179.191664 343.250401 
L 175.383969 328.202433 
L 231.961019 195.034566 
L 248.696296 291.999975 
z
" style="fill:#3521c4;opacity:0.6;stroke-dasharray:0,0;stroke-dashoffset:0;"/>
   </g>
   <g id="patch_46">
    <path clip-path="url(#p47d70db522)" d="M 208.801407 121.528315 
L 217.694528 112.373475 
L 219.093896 120.481518 
z
" style="fill:#36659e;opacity:0.6;stroke-dasharray:0,0;stroke-dashoffset:0;"/>
   </g>
   <g id="patch_47">
    <path clip-path="url(#p47d70db522)" d="M 217.694527 112.373473 
L 216.741399 106.85098 
L 230.564624 119.314888 
L 226.943874 119.683136 
z
" style="fill:#37a978;opacity:0.6;stroke-dasharray:0,0;stroke-dashoffset:0;"/>
   </g>
   <g id="patch_48">
    <path clip-path="url(#p47d70db522)" d="M 216.741399 106.85098 
L 216.528407 105.616887 
L 234.334298 100.940544 
L 243.221486 118.027622 
L 230.564624 119.314888 
z
" style="fill:#38ed52;opacity:0.6;stroke-dasharray:0,0;stroke-dashoffset:0;"/>
   </g>
   <g id="patch_49">
    <path clip-path="url(#p47d70db522)" d="M 219.093896 120.481518 
L 217.694527 112.373473 
L 226.943874 119.683136 
z
" style="fill:#3a312c;opacity:0.6;stroke-dasharray:0,0;stroke-dashoffset:0;"/>
   </g>
   <g id="patch_50">
    <path clip-path="url(#p47d70db522)" d="M 223.645375 146.853116 
L 219.093896 120.481518 
L 226.943872 119.683136 
L 241.224768 128.926758 
L 254.833914 141.197639 
L 246.994466 159.649689 
z
" style="fill:#3b7506;opacity:0.6;stroke-dasharray:0,0;stroke-dashoffset:0;"/>
   </g>
   <g id="patch_51">
    <path clip-path="url(#p47d70db522)" d="M 220.180241 164.300669 
L 226.566249 163.776874 
L 226.951595 166.009596 
z
" style="fill:#3cb8e0;opacity:0.6;stroke-dasharray:0,0;stroke-dashoffset:0;"/>
   </g>
   <g id="patch_52">
    <path clip-path="url(#p47d70db522)" d="M 226.566249 163.776874 
L 223.645375 146.853116 
L 246.994466 159.649689 
L 245.915276 162.189825 
z
" style="fill:#3dfcba;opacity:0.6;stroke-dasharray:0,0;stroke-dashoffset:0;"/>
   </g>
   <g id="patch_53">
    <path clip-path="url(#p47d70db522)" d="M 227.63638 169.977292 
L 226.951595 166.009596 
L 242.613144 169.962196 
L 242.371723 170.53044 
z
" style="fill:#3f4094;opacity:0.6;stroke-dasharray:0,0;stroke-dashoffset:0;"/>
   </g>
   <g id="patch_54">
    <path clip-path="url(#p47d70db522)" d="M 226.951595 166.009596 
L 226.566249 163.776874 
L 245.915276 162.189825 
L 242.613144 169.962196 
z
" style="fill:#40846e;opacity:0.6;stroke-dasharray:0,0;stroke-dashoffset:0;"/>
   </g>
   <g id="patch_55">
    <path clip-path="url(#p47d70db522)" d="M 226.943872 119.683136 
L 230.564624 119.314888 
L 241.224768 128.926758 
z
" style="fill:#41c848;opacity:0.6;stroke-dasharray:0,0;stroke-dashoffset:0;"/>
   </g>
   <g id="patch_56">
    <path clip-path="url(#p47d70db522)" d="M 234.487932 189.086861 
L 230.780593 188.195089 
L 227.63638 169.977292 
L 242.371723 170.53044 
z
" style="fill:#430c22;opacity:0.6;stroke-dasharray:0,0;stroke-dashoffset:0;"/>
   </g>
   <g id="patch_57">
    <path clip-path="url(#p47d70db522)" d="M 248.696296 291.999975 
L 231.961019 195.034566 
L 234.033787 190.155802 
L 298.32338 223.970052 
L 298.648104 224.594387 
L 299.251924 254.721919 
z
" style="fill:#444ffc;opacity:0.6;stroke-dasharray:0,0;stroke-dashoffset:0;"/>
   </g>
   <g id="patch_58">
    <path clip-path="url(#p47d70db522)" d="M 231.961019 195.034566 
L 230.827979 188.469651 
L 234.033787 190.155802 
z
" style="fill:#4593d6;opacity:0.6;stroke-dasharray:0,0;stroke-dashoffset:0;"/>
   </g>
   <g id="patch_59">
    <path clip-path="url(#p47d70db522)" d="M 230.827979 188.469651 
L 230.780593 188.195089 
L 234.487932 189.086861 
L 234.033787 190.155802 
z
" style="fill:#46d7b0;opacity:0.6;stroke-dasharray:0,0;stroke-dashoffset:0;"/>
   </g>
   <g id="patch_60">
    <path clip-path="url(#p47d70db522)" d="M 230.564624 119.314888 
L 243.221486 118.027622 
L 251.933906 134.778678 
L 241.224761 128.926752 
z
" style="fill:#481b8a;opacity:0.6;stroke-dasharray:0,0;stroke-dashoffset:0;"/>
   </g>
   <g id="patch_61">
    <path clip-path="url(#p47d70db522)" d="M 234.033787 190.155802 
L 234.487932 189.086861 
L 286.714198 201.649494 
L 298.32338 223.970052 
z
" style="fill:#495f64;opacity:0.6;stroke-dasharray:0,0;stroke-dashoffset:0;"/>
   </g>
   <g id="patch_62">
    <path clip-path="url(#p47d70db522)" d="M 234.487932 189.086861 
L 242.371723 170.53044 
L 245.300322 170.640376 
L 274.406591 177.986101 
L 286.714198 201.649494 
z
" style="fill:#4aa33e;opacity:0.6;stroke-dasharray:0,0;stroke-dashoffset:0;"/>
   </g>
   <g id="patch_63">
    <path clip-path="url(#p47d70db522)" d="M 243.221486 118.027622 
L 234.334298 100.940544 
L 276.660019 89.824586 
L 265.64681 115.746856 
z
" style="fill:#4be718;opacity:0.6;stroke-dasharray:0,0;stroke-dashoffset:0;"/>
   </g>
   <g id="patch_64">
    <path clip-path="url(#p47d70db522)" d="M 241.224761 128.926752 
L 251.933906 134.778678 
L 255.031093 140.733529 
L 254.833914 141.197639 
z
" style="fill:#4d2af2;opacity:0.6;stroke-dasharray:0,0;stroke-dashoffset:0;"/>
   </g>
   <g id="patch_65">
    <path clip-path="url(#p47d70db522)" d="M 245.300322 170.640376 
L 242.613144 169.962196 
L 245.915276 162.189825 
L 265.361188 160.59483 
L 271.089511 171.608472 
z
" style="fill:#4e6ecc;opacity:0.6;stroke-dasharray:0,0;stroke-dashoffset:0;"/>
   </g>
   <g id="patch_66">
    <path clip-path="url(#p47d70db522)" d="M 251.933908 134.778681 
L 243.221486 118.027622 
L 265.64681 115.746856 
L 257.563647 134.772548 
z
" style="fill:#4fb2a6;opacity:0.6;stroke-dasharray:0,0;stroke-dashoffset:0;"/>
   </g>
   <g id="patch_67">
    <path clip-path="url(#p47d70db522)" d="M 245.300322 170.640376 
L 271.089511 171.608472 
L 274.406591 177.986101 
z
" style="fill:#50f680;opacity:0.6;stroke-dasharray:0,0;stroke-dashoffset:0;"/>
   </g>
   <g id="patch_68">
    <path clip-path="url(#p47d70db522)" d="M 245.915276 162.189825 
L 246.994467 159.649686 
L 264.238668 158.436602 
L 265.361188 160.59483 
z
" style="fill:#523a5a;opacity:0.6;stroke-dasharray:0,0;stroke-dashoffset:0;"/>
   </g>
   <g id="patch_69">
    <path clip-path="url(#p47d70db522)" d="M 246.994467 159.649686 
L 254.833914 141.197639 
L 255.65979 141.942302 
L 264.238668 158.436602 
z
" style="fill:#537e34;opacity:0.6;stroke-dasharray:0,0;stroke-dashoffset:0;"/>
   </g>
   <g id="patch_70">
    <path clip-path="url(#p47d70db522)" d="M 251.933908 134.778681 
L 257.563647 134.772548 
L 255.031093 140.733529 
z
" style="fill:#54c20e;opacity:0.6;stroke-dasharray:0,0;stroke-dashoffset:0;"/>
   </g>
   <g id="patch_71">
    <path clip-path="url(#p47d70db522)" d="M 271.111902 155.874919 
L 255.65979 141.942302 
L 255.031093 140.733529 
L 257.563646 134.772549 
L 282.073698 114.07616 
L 296.403871 112.61871 
L 296.89019 136.883552 
z
" style="fill:#5605e8;opacity:0.6;stroke-dasharray:0,0;stroke-dashoffset:0;"/>
   </g>
   <g id="patch_72">
    <path clip-path="url(#p47d70db522)" d="M 264.238669 158.436604 
L 255.65979 141.942302 
L 271.111902 155.874919 
z
" style="fill:#5749c2;opacity:0.6;stroke-dasharray:0,0;stroke-dashoffset:0;"/>
   </g>
   <g id="patch_73">
    <path clip-path="url(#p47d70db522)" d="M 257.563646 134.772549 
L 265.64681 115.746856 
L 282.073698 114.07616 
z
" style="fill:#588d9c;opacity:0.6;stroke-dasharray:0,0;stroke-dashoffset:0;"/>
   </g>
   <g id="patch_74">
    <path clip-path="url(#p47d70db522)" d="M 271.089511 171.608472 
L 265.361188 160.59483 
L 275.43058 159.768916 
L 289.320362 172.292836 
z
" style="fill:#59d176;opacity:0.6;stroke-dasharray:0,0;stroke-dashoffset:0;"/>
   </g>
   <g id="patch_75">
    <path clip-path="url(#p47d70db522)" d="M 265.361188 160.59483 
L 264.238669 158.436604 
L 271.111902 155.874919 
L 275.43058 159.768916 
z
" style="fill:#5b1550;opacity:0.6;stroke-dasharray:0,0;stroke-dashoffset:0;"/>
   </g>
   <g id="patch_76">
    <path clip-path="url(#p47d70db522)" d="M 282.073699 114.07616 
L 265.64681 115.746856 
L 276.660019 89.824586 
L 295.846039 84.785782 
L 296.142379 99.571612 
z
" style="fill:#5c592a;opacity:0.6;stroke-dasharray:0,0;stroke-dashoffset:0;"/>
   </g>
   <g id="patch_77">
    <path clip-path="url(#p47d70db522)" d="M 274.406591 177.986101 
L 271.089511 171.608472 
L 289.320362 172.292836 
L 297.752243 179.895562 
L 297.832465 183.898231 
z
" style="fill:#5d9d04;opacity:0.6;stroke-dasharray:0,0;stroke-dashoffset:0;"/>
   </g>
   <g id="patch_78">
    <path clip-path="url(#p47d70db522)" d="M 275.43058 159.768916 
L 271.111902 155.874919 
L 296.89019 136.883552 
L 297.31289 157.974082 
z
" style="fill:#5ee0de;opacity:0.6;stroke-dasharray:0,0;stroke-dashoffset:0;"/>
   </g>
   <g id="patch_79">
    <path clip-path="url(#p47d70db522)" d="M 286.714198 201.649494 
L 274.406591 177.986101 
L 297.832465 183.898231 
L 298.243823 204.422858 
z
" style="fill:#6024b8;opacity:0.6;stroke-dasharray:0,0;stroke-dashoffset:0;"/>
   </g>
   <g id="patch_80">
    <path clip-path="url(#p47d70db522)" d="M 289.320362 172.292836 
L 275.43058 159.768916 
L 297.31289 157.974082 
L 297.606102 172.603873 
z
" style="fill:#616892;opacity:0.6;stroke-dasharray:0,0;stroke-dashoffset:0;"/>
   </g>
   <g id="patch_81">
    <path clip-path="url(#p47d70db522)" d="M 276.660019 89.824586 
L 295.078169 46.472985 
L 295.846039 84.785782 
z
" style="fill:#62ac6c;opacity:0.6;stroke-dasharray:0,0;stroke-dashoffset:0;"/>
   </g>
   <g id="patch_82">
    <path clip-path="url(#p47d70db522)" d="M 282.073699 114.07616 
L 296.142379 99.571612 
L 296.403871 112.61871 
z
" style="fill:#63f046;opacity:0.6;stroke-dasharray:0,0;stroke-dashoffset:0;"/>
   </g>
   <g id="patch_83">
    <path clip-path="url(#p47d70db522)" d="M 286.714198 201.649494 
L 298.243823 204.422858 
L 298.638917 224.136014 
L 298.32338 223.970052 
z
" style="fill:#653420;opacity:0.6;stroke-dasharray:0,0;stroke-dashoffset:0;"/>
   </g>
   <g id="patch_84">
    <path clip-path="url(#p47d70db522)" d="M 289.320362 172.292836 
L 297.606102 172.603873 
L 297.752243 179.895562 
z
" style="fill:#6677fa;opacity:0.6;stroke-dasharray:0,0;stroke-dashoffset:0;"/>
   </g>
   <g id="patch_85">
    <path clip-path="url(#p47d70db522)" d="M 296.403871 112.61871 
L 296.142379 99.571613 
L 315.745475 79.559614 
L 362.813667 67.198145 
L 367.208926 81.615539 
L 335.0887 108.684271 
z
" style="fill:#67bbd4;opacity:0.6;stroke-dasharray:0,0;stroke-dashoffset:0;"/>
   </g>
   <g id="patch_86">
    <path clip-path="url(#p47d70db522)" d="M 296.142379 99.571613 
L 295.846039 84.785782 
L 315.745475 79.559614 
z
" style="fill:#68ffae;opacity:0.6;stroke-dasharray:0,0;stroke-dashoffset:0;"/>
   </g>
   <g id="patch_87">
    <path clip-path="url(#p47d70db522)" d="M 315.745476 79.559614 
L 295.846039 84.785782 
L 295.078169 46.472985 
L 330.836655 -37.693321 
L 354.592029 40.229407 
z
" style="fill:#6a4388;opacity:0.6;stroke-dasharray:0,0;stroke-dashoffset:0;"/>
   </g>
   <g id="patch_88">
    <path clip-path="url(#p47d70db522)" d="M 295.078169 46.472985 
L 290.756312 -169.165451 
L 330.836655 -37.693321 
z
" style="fill:#6b8762;opacity:0.6;stroke-dasharray:0,0;stroke-dashoffset:0;"/>
   </g>
   <g id="patch_89">
    <path clip-path="url(#p47d70db522)" d="M 298.243823 204.422858 
L 297.832465 183.898231 
L 303.885765 185.425939 
L 334.672898 213.185597 
z
" style="fill:#6ccb3c;opacity:0.6;stroke-dasharray:0,0;stroke-dashoffset:0;"/>
   </g>
   <g id="patch_90">
    <path clip-path="url(#p47d70db522)" d="M 297.832465 183.898231 
L 297.752243 179.895562 
L 303.885765 185.425939 
z
" style="fill:#6e0f16;opacity:0.6;stroke-dasharray:0,0;stroke-dashoffset:0;"/>
   </g>
   <g id="patch_91">
    <path clip-path="url(#p47d70db522)" d="M 303.885765 185.425939 
L 297.752243 179.895562 
L 297.606102 172.603873 
L 396.074328 176.300254 
L 397.823642 182.03838 
L 370.447618 202.224558 
z
" style="fill:#6f52f0;opacity:0.6;stroke-dasharray:0,0;stroke-dashoffset:0;"/>
   </g>
   <g id="patch_92">
    <path clip-path="url(#p47d70db522)" d="M 297.606102 172.603873 
L 297.31289 157.974082 
L 388.214442 150.51814 
L 396.074328 176.300254 
z
" style="fill:#7096ca;opacity:0.6;stroke-dasharray:0,0;stroke-dashoffset:0;"/>
   </g>
   <g id="patch_93">
    <path clip-path="url(#p47d70db522)" d="M 297.31289 157.974082 
L 296.89019 136.883554 
L 335.0887 108.684271 
L 374.246925 104.701686 
L 388.214442 150.51814 
z
" style="fill:#71daa4;opacity:0.6;stroke-dasharray:0,0;stroke-dashoffset:0;"/>
   </g>
   <g id="patch_94">
    <path clip-path="url(#p47d70db522)" d="M 296.89019 136.883554 
L 296.403871 112.61871 
L 335.0887 108.684271 
z
" style="fill:#731e7e;opacity:0.6;stroke-dasharray:0,0;stroke-dashoffset:0;"/>
   </g>
   <g id="patch_95">
    <path clip-path="url(#p47d70db522)" d="M 299.251924 254.721919 
L 298.648104 224.594387 
L 310.141492 246.69231 
z
" style="fill:#746258;opacity:0.6;stroke-dasharray:0,0;stroke-dashoffset:0;"/>
   </g>
   <g id="patch_96">
    <path clip-path="url(#p47d70db522)" d="M 310.141492 246.69231 
L 298.648104 224.594387 
L 298.638917 224.136014 
L 323.20716 237.058117 
z
" style="fill:#75a632;opacity:0.6;stroke-dasharray:0,0;stroke-dashoffset:0;"/>
   </g>
   <g id="patch_97">
    <path clip-path="url(#p47d70db522)" d="M 298.638917 224.136014 
L 298.243823 204.422858 
L 334.672898 213.185597 
L 344.079711 221.667384 
L 323.20716 237.058117 
z
" style="fill:#76ea0c;opacity:0.6;stroke-dasharray:0,0;stroke-dashoffset:0;"/>
   </g>
   <g id="patch_98">
    <path clip-path="url(#p47d70db522)" d="M 302.943327 252 
L 310.141492 246.69231 
L 312.902083 252 
z
" style="fill:#782de6;opacity:0.6;stroke-dasharray:0,0;stroke-dashoffset:0;"/>
   </g>
   <g id="patch_99">
    <path clip-path="url(#p47d70db522)" d="M 334.672898 213.185597 
L 303.885765 185.425939 
L 370.447618 202.224558 
L 350.439247 216.978073 
z
" style="fill:#7971c0;opacity:0.6;stroke-dasharray:0,0;stroke-dashoffset:0;"/>
   </g>
   <g id="patch_100">
    <path clip-path="url(#p47d70db522)" d="M 310.141492 246.69231 
L 323.20716 237.058117 
L 414.266729 284.952509 
L 434.857957 303.518884 
L 569.631042 745.603541 
z
" style="fill:#7ab59a;opacity:0.6;stroke-dasharray:0,0;stroke-dashoffset:0;"/>
   </g>
   <g id="patch_101">
    <path clip-path="url(#p47d70db522)" d="M 315.745476 79.559614 
L 354.592029 40.229407 
L 362.813667 67.198145 
z
" style="fill:#7bf974;opacity:0.6;stroke-dasharray:0,0;stroke-dashoffset:0;"/>
   </g>
   <g id="patch_102">
    <path clip-path="url(#p47d70db522)" d="M 323.20716 237.058117 
L 344.079711 221.667384 
L 414.266729 284.952509 
z
" style="fill:#7d3d4e;opacity:0.6;stroke-dasharray:0,0;stroke-dashoffset:0;"/>
   </g>
   <g id="patch_103">
    <path clip-path="url(#p47d70db522)" d="M 344.079711 221.667384 
L 334.672898 213.185597 
L 350.439247 216.978073 
z
" style="fill:#7e8128;opacity:0.6;stroke-dasharray:0,0;stroke-dashoffset:0;"/>
   </g>
   <g id="patch_104">
    <path clip-path="url(#p47d70db522)" d="M 335.0887 108.684271 
L 367.208926 81.615539 
L 374.246925 104.701686 
z
" style="fill:#7fc502;opacity:0.6;stroke-dasharray:0,0;stroke-dashoffset:0;"/>
   </g>
   <g id="patch_105">
    <path clip-path="url(#p47d70db522)" d="M 344.079711 221.667384 
L 350.439247 216.978073 
L 413.067934 232.04293 
L 432.049184 294.305507 
L 414.266729 284.952509 
z
" style="fill:#8108dc;opacity:0.6;stroke-dasharray:0,0;stroke-dashoffset:0;"/>
   </g>
   <g id="patch_106">
    <path clip-path="url(#p47d70db522)" d="M 350.439247 216.978073 
L 370.447618 202.224558 
L 406.772346 211.39205 
L 413.067934 232.04293 
z
" style="fill:#824cb6;opacity:0.6;stroke-dasharray:0,0;stroke-dashoffset:0;"/>
   </g>
   <g id="patch_107">
    <path clip-path="url(#p47d70db522)" d="M 354.59203 40.229411 
L 352.863665 34.56 
L 359.907785 34.56 
z
" style="fill:#839090;opacity:0.6;stroke-dasharray:0,0;stroke-dashoffset:0;"/>
   </g>
   <g id="patch_108">
    <path clip-path="url(#p47d70db522)" d="M 362.813667 67.198145 
L 354.59203 40.229411 
L 359.907785 34.56 
L 388.8 34.56 
L 388.8 60.373382 
z
" style="fill:#84d46a;opacity:0.6;stroke-dasharray:0,0;stroke-dashoffset:0;"/>
   </g>
   <g id="patch_109">
    <path clip-path="url(#p47d70db522)" d="M 367.208927 81.61554 
L 362.813667 67.198145 
L 396.830103 58.264445 
z
" style="fill:#861844;opacity:0.6;stroke-dasharray:0,0;stroke-dashoffset:0;"/>
   </g>
   <g id="patch_110">
    <path clip-path="url(#p47d70db522)" d="M 374.246925 104.701686 
L 367.208927 81.61554 
L 396.830103 58.264445 
L 659.093712 -10.613567 
L 523.259092 89.546409 
z
" style="fill:#875c1e;opacity:0.6;stroke-dasharray:0,0;stroke-dashoffset:0;"/>
   </g>
   <g id="patch_111">
    <path clip-path="url(#p47d70db522)" d="M 370.447618 202.224558 
L 397.823642 182.03838 
L 406.772346 211.39205 
z
" style="fill:#889ff8;opacity:0.6;stroke-dasharray:0,0;stroke-dashoffset:0;"/>
   </g>
   <g id="patch_112">
    <path clip-path="url(#p47d70db522)" d="M 388.214442 150.51814 
L 374.246925 104.701686 
L 523.259092 89.546409 
L 447.123494 145.686292 
z
" style="fill:#89e3d2;opacity:0.6;stroke-dasharray:0,0;stroke-dashoffset:0;"/>
   </g>
   <g id="patch_113">
    <path clip-path="url(#p47d70db522)" d="M 405.143832 176.640713 
L 396.074328 176.300254 
L 388.214442 150.51814 
L 447.123494 145.686292 
z
" style="fill:#8b27ac;opacity:0.6;stroke-dasharray:0,0;stroke-dashoffset:0;"/>
   </g>
   <g id="patch_114">
    <path clip-path="url(#p47d70db522)" d="M 360.086198 58.251462 
L 354.59203 40.229411 
L 359.907785 34.56 
L 385.46116 34.56 
z
" style="fill:#ff0000;stroke:#000000;stroke-linejoin:miter;stroke-width:0.5;"/>
   </g>
   <g id="matplotlib.axis_1">
    <g id="xtick_1">
     <g id="line2d_1">
      <defs>
       <path d="M 0 0 
L 0 3.5 
" id="m26a03da97b" style="stroke:#000000;stroke-width:0.8;"/>
      </defs>
      <g>
       <use style="stroke:#000000;stroke-width:0.8;" x="87.48" xlink:href="#m26a03da97b" y="252"/>
      </g>
     </g>
     <g id="text_1">
      <!-- −4 -->
      <defs>
       <path d="M 10.59375 35.5 
L 73.1875 35.5 
L 73.1875 27.203125 
L 10.59375 27.203125 
z
" id="DejaVuSans-2212"/>
       <path d="M 37.796875 64.3125 
L 12.890625 25.390625 
L 37.796875 25.390625 
z
M 35.203125 72.90625 
L 47.609375 72.90625 
L 47.609375 25.390625 
L 58.015625 25.390625 
L 58.015625 17.1875 
L 47.609375 17.1875 
L 47.609375 0 
L 37.796875 0 
L 37.796875 17.1875 
L 4.890625 17.1875 
L 4.890625 26.703125 
z
" id="DejaVuSans-34"/>
      </defs>
      <g transform="translate(80.108906 266.598437)scale(0.1 -0.1)">
       <use xlink:href="#DejaVuSans-2212"/>
       <use x="83.789062" xlink:href="#DejaVuSans-34"/>
      </g>
     </g>
    </g>
    <g id="xtick_2">
     <g id="line2d_2">
      <g>
       <use style="stroke:#000000;stroke-width:0.8;" x="154.44" xlink:href="#m26a03da97b" y="252"/>
      </g>
     </g>
     <g id="text_2">
      <!-- −2 -->
      <defs>
       <path d="M 19.1875 8.296875 
L 53.609375 8.296875 
L 53.609375 0 
L 7.328125 0 
L 7.328125 8.296875 
Q 12.9375 14.109375 22.625 23.890625 
Q 32.328125 33.6875 34.8125 36.53125 
Q 39.546875 41.84375 41.421875 45.53125 
Q 43.3125 49.21875 43.3125 52.78125 
Q 43.3125 58.59375 39.234375 62.25 
Q 35.15625 65.921875 28.609375 65.921875 
Q 23.96875 65.921875 18.8125 64.3125 
Q 13.671875 62.703125 7.8125 59.421875 
L 7.8125 69.390625 
Q 13.765625 71.78125 18.9375 73 
Q 24.125 74.21875 28.421875 74.21875 
Q 39.75 74.21875 46.484375 68.546875 
Q 53.21875 62.890625 53.21875 53.421875 
Q 53.21875 48.921875 51.53125 44.890625 
Q 49.859375 40.875 45.40625 35.40625 
Q 44.1875 33.984375 37.640625 27.21875 
Q 31.109375 20.453125 19.1875 8.296875 
z
" id="DejaVuSans-32"/>
      </defs>
      <g transform="translate(147.068906 266.598437)scale(0.1 -0.1)">
       <use xlink:href="#DejaVuSans-2212"/>
       <use x="83.789062" xlink:href="#DejaVuSans-32"/>
      </g>
     </g>
    </g>
    <g id="xtick_3">
     <g id="line2d_3">
      <g>
       <use style="stroke:#000000;stroke-width:0.8;" x="221.4" xlink:href="#m26a03da97b" y="252"/>
      </g>
     </g>
     <g id="text_3">
      <!-- 0 -->
      <defs>
       <path d="M 31.78125 66.40625 
Q 24.171875 66.40625 20.328125 58.90625 
Q 16.5 51.421875 16.5 36.375 
Q 16.5 21.390625 20.328125 13.890625 
Q 24.171875 6.390625 31.78125 6.390625 
Q 39.453125 6.390625 43.28125 13.890625 
Q 47.125 21.390625 47.125 36.375 
Q 47.125 51.421875 43.28125 58.90625 
Q 39.453125 66.40625 31.78125 66.40625 
z
M 31.78125 74.21875 
Q 44.046875 74.21875 50.515625 64.515625 
Q 56.984375 54.828125 56.984375 36.375 
Q 56.984375 17.96875 50.515625 8.265625 
Q 44.046875 -1.421875 31.78125 -1.421875 
Q 19.53125 -1.421875 13.0625 8.265625 
Q 6.59375 17.96875 6.59375 36.375 
Q 6.59375 54.828125 13.0625 64.515625 
Q 19.53125 74.21875 31.78125 74.21875 
z
" id="DejaVuSans-30"/>
      </defs>
      <g transform="translate(218.21875 266.598437)scale(0.1 -0.1)">
       <use xlink:href="#DejaVuSans-30"/>
      </g>
     </g>
    </g>
    <g id="xtick_4">
     <g id="line2d_4">
      <g>
       <use style="stroke:#000000;stroke-width:0.8;" x="288.36" xlink:href="#m26a03da97b" y="252"/>
      </g>
     </g>
     <g id="text_4">
      <!-- 2 -->
      <g transform="translate(285.17875 266.598437)scale(0.1 -0.1)">
       <use xlink:href="#DejaVuSans-32"/>
      </g>
     </g>
    </g>
    <g id="xtick_5">
     <g id="line2d_5">
      <g>
       <use style="stroke:#000000;stroke-width:0.8;" x="355.32" xlink:href="#m26a03da97b" y="252"/>
      </g>
     </g>
     <g id="text_5">
      <!-- 4 -->
      <g transform="translate(352.13875 266.598437)scale(0.1 -0.1)">
       <use xlink:href="#DejaVuSans-34"/>
      </g>
     </g>
    </g>
   </g>
   <g id="matplotlib.axis_2">
    <g id="ytick_1">
     <g id="line2d_6">
      <defs>
       <path d="M 0 0 
L -3.5 0 
" id="mc696e6aa4e" style="stroke:#000000;stroke-width:0.8;"/>
      </defs>
      <g>
       <use style="stroke:#000000;stroke-width:0.8;" x="54" xlink:href="#mc696e6aa4e" y="230.256"/>
      </g>
     </g>
     <g id="text_6">
      <!-- −4 -->
      <g transform="translate(32.257812 234.055219)scale(0.1 -0.1)">
       <use xlink:href="#DejaVuSans-2212"/>
       <use x="83.789062" xlink:href="#DejaVuSans-34"/>
      </g>
     </g>
    </g>
    <g id="ytick_2">
     <g id="line2d_7">
      <g>
       <use style="stroke:#000000;stroke-width:0.8;" x="54" xlink:href="#mc696e6aa4e" y="186.768"/>
      </g>
     </g>
     <g id="text_7">
      <!-- −2 -->
      <g transform="translate(32.257812 190.567219)scale(0.1 -0.1)">
       <use xlink:href="#DejaVuSans-2212"/>
       <use x="83.789062" xlink:href="#DejaVuSans-32"/>
      </g>
     </g>
    </g>
    <g id="ytick_3">
     <g id="line2d_8">
      <g>
       <use style="stroke:#000000;stroke-width:0.8;" x="54" xlink:href="#mc696e6aa4e" y="143.28"/>
      </g>
     </g>
     <g id="text_8">
      <!-- 0 -->
      <g transform="translate(40.6375 147.079219)scale(0.1 -0.1)">
       <use xlink:href="#DejaVuSans-30"/>
      </g>
     </g>
    </g>
    <g id="ytick_4">
     <g id="line2d_9">
      <g>
       <use style="stroke:#000000;stroke-width:0.8;" x="54" xlink:href="#mc696e6aa4e" y="99.792"/>
      </g>
     </g>
     <g id="text_9">
      <!-- 2 -->
      <g transform="translate(40.6375 103.591219)scale(0.1 -0.1)">
       <use xlink:href="#DejaVuSans-32"/>
      </g>
     </g>
    </g>
    <g id="ytick_5">
     <g id="line2d_10">
      <g>
       <use style="stroke:#000000;stroke-width:0.8;" x="54" xlink:href="#mc696e6aa4e" y="56.304"/>
      </g>
     </g>
     <g id="text_10">
      <!-- 4 -->
      <g transform="translate(40.6375 60.103219)scale(0.1 -0.1)">
       <use xlink:href="#DejaVuSans-34"/>
      </g>
     </g>
    </g>
   </g>
   <g id="line2d_11">
    <path clip-path="url(#p47d70db522)" d="M 82.977346 289 
L 142.930274 199.945827 
" style="fill:none;stroke:#ff0000;stroke-linecap:square;stroke-width:0.5;"/>
   </g>
   <g id="line2d_12">
    <path clip-path="url(#p47d70db522)" d="M 142.930276 199.945834 
L 161.738887 171.587629 
" style="fill:none;stroke:#ff0000;stroke-linecap:square;stroke-width:0.5;"/>
   </g>
   <g id="line2d_13">
    <path clip-path="url(#p47d70db522)" d="M 164.096842 168.90075 
L 165.469712 167.643629 
" style="fill:none;stroke:#ff0000;stroke-linecap:square;stroke-width:0.5;"/>
   </g>
   <g id="line2d_14">
    <path clip-path="url(#p47d70db522)" d="M 165.469713 167.643629 
L 176.280565 159.779473 
" style="fill:none;stroke:#ff0000;stroke-linecap:square;stroke-width:0.5;"/>
   </g>
   <g id="line2d_15">
    <path clip-path="url(#p47d70db522)" d="M 161.738882 171.587627 
L 164.096842 168.90075 
" style="fill:none;stroke:#ff0000;stroke-linecap:square;stroke-width:0.5;"/>
   </g>
   <g id="line2d_16">
    <path clip-path="url(#p47d70db522)" d="M 176.280562 159.779471 
L 182.961496 154.907548 
" style="fill:none;stroke:#ff0000;stroke-linecap:square;stroke-width:0.5;"/>
   </g>
   <g id="line2d_17">
    <path clip-path="url(#p47d70db522)" d="M 182.961498 154.907549 
L 220.321373 127.593609 
" style="fill:none;stroke:#ff0000;stroke-linecap:square;stroke-width:0.5;"/>
   </g>
   <g id="line2d_18">
    <path clip-path="url(#p47d70db522)" d="M 220.321373 127.593609 
L 252.352856 147.037413 
" style="fill:none;stroke:#ff0000;stroke-linecap:square;stroke-width:0.5;"/>
   </g>
   <g id="line2d_19">
    <path clip-path="url(#p47d70db522)" d="M 258.186531 146.800376 
L 252.352856 147.037412 
" style="fill:none;stroke:#ff0000;stroke-linecap:square;stroke-width:0.5;"/>
   </g>
   <g id="line2d_20">
    <path clip-path="url(#p47d70db522)" d="M 260.198047 146.034286 
L 296.492503 117.040995 
" style="fill:none;stroke:#ff0000;stroke-linecap:square;stroke-width:0.5;"/>
   </g>
   <g id="line2d_21">
    <path clip-path="url(#p47d70db522)" d="M 258.186531 146.800376 
L 260.198047 146.034285 
" style="fill:none;stroke:#ff0000;stroke-linecap:square;stroke-width:0.5;"/>
   </g>
   <g id="line2d_22">
    <path clip-path="url(#p47d70db522)" d="M 302.885734 111.959472 
L 345.584061 71.723138 
" style="fill:none;stroke:#ff0000;stroke-linecap:square;stroke-width:0.5;"/>
   </g>
   <g id="line2d_23">
    <path clip-path="url(#p47d70db522)" d="M 296.492503 117.041001 
L 302.885735 111.959472 
" style="fill:none;stroke:#ff0000;stroke-linecap:square;stroke-width:0.5;"/>
   </g>
   <g id="line2d_24">
    <path clip-path="url(#p47d70db522)" d="M 345.584039 71.723144 
L 360.086195 58.251452 
" style="fill:none;stroke:#ff0000;stroke-linecap:square;stroke-width:0.5;"/>
   </g>
   <g id="patch_115">
    <path d="M 54 252 
L 54 34.56 
" style="fill:none;stroke:#000000;stroke-linecap:square;stroke-linejoin:miter;stroke-width:0.8;"/>
   </g>
   <g id="patch_116">
    <path d="M 388.8 252 
L 388.8 34.56 
" style="fill:none;stroke:#000000;stroke-linecap:square;stroke-linejoin:miter;stroke-width:0.8;"/>
   </g>
   <g id="patch_117">
    <path d="M 54 252 
L 388.8 252 
" style="fill:none;stroke:#000000;stroke-linecap:square;stroke-linejoin:miter;stroke-width:0.8;"/>
   </g>
   <g id="patch_118">
    <path d="M 54 34.56 
L 388.8 34.56 
" style="fill:none;stroke:#000000;stroke-linecap:square;stroke-linejoin:miter;stroke-width:0.8;"/>
   </g>
  </g>
 </g>
 <defs>
  <clipPath id="p47d70db522">
   <rect height="217.44" width="334.8" x="54" y="34.56"/>
  </clipPath>
 </defs>
</svg>
