<?xml version="1.0" encoding="utf-8" standalone="no"?>
<!DOCTYPE svg PUBLIC "-//W3C//DTD SVG 1.1//EN"
  "http://www.w3.org/Graphics/SVG/1.1/DTD/svg11.dtd">
<!-- Created with matplotlib (http://matplotlib.org/) -->
<svg height="288pt" version="1.1" viewBox="0 0 432 288" width="432pt" xmlns="http://www.w3.org/2000/svg" xmlns:xlink="http://www.w3.org/1999/xlink">
 <defs>
  <style type="text/css">
*{stroke-linecap:butt;stroke-linejoin:round;}
  </style>
 </defs>
 <g id="figure_1">
  <g id="patch_1">
   <path d="M 0 288 
L 432 288 
L 432 0 
L 0 0 
z
" style="fill:#ffffff;"/>
  </g>
  <g id="axes_1">
   <g id="patch_2">
    <path d="M 54 252 
L 388.8 252 
L 388.8 34.56 
L 54 34.56 
z
" style="fill:#ffffff;"/>
   </g>
   <g id="patch_3">
    <path clip-path="url(#pf2889d5b60)" d="M 54 252 
L 54 198.002809 
L 165.828617 142.462881 
L 182.421482 144.629829 
L 115.595594 252 
z
" style="opacity:0.6;stroke-dasharray:0,0;stroke-dashoffset:0;"/>
   </g>
   <g id="patch_4">
    <path clip-path="url(#pf2889d5b60)" d="M 54 198.002809 
L 54 173.098878 
L 164.948146 142.347896 
L 165.828617 142.462881 
z
" style="fill:#0143da;opacity:0.6;stroke-dasharray:0,0;stroke-dashoffset:0;"/>
   </g>
   <g id="patch_5">
    <path clip-path="url(#pf2889d5b60)" d="M 54 173.098878 
L 54 127.858607 
L 164.948146 142.347896 
z
" style="fill:#0287b4;opacity:0.6;stroke-dasharray:0,0;stroke-dashoffset:0;"/>
   </g>
   <g id="patch_6">
    <path clip-path="url(#pf2889d5b60)" d="M 54 127.858607 
L 54 108.159757 
L 170.588812 140.09872 
L 167.464347 141.650493 
L 164.948146 142.347896 
z
" style="fill:#03cb8e;opacity:0.6;stroke-dasharray:0,0;stroke-dashoffset:0;"/>
   </g>
   <g id="patch_7">
    <path clip-path="url(#pf2889d5b60)" d="M -20.500787 87.750613 
L 164.168996 127.611961 
L 176.553132 137.136528 
L 170.588812 140.09872 
z
" style="fill:#050f68;opacity:0.6;stroke-dasharray:0,0;stroke-dashoffset:0;"/>
   </g>
   <g id="patch_8">
    <path clip-path="url(#pf2889d5b60)" d="M 54 103.831759 
L 54 55.174218 
L 102.562488 80.230751 
L 164.168996 127.611961 
z
" style="fill:#065342;opacity:0.6;stroke-dasharray:0,0;stroke-dashoffset:0;"/>
   </g>
   <g id="patch_9">
    <path clip-path="url(#pf2889d5b60)" d="M 41.451491 48.699629 
L 84.370923 66.239724 
L 102.562488 80.230751 
z
" style="fill:#07971c;opacity:0.6;stroke-dasharray:0,0;stroke-dashoffset:0;"/>
   </g>
   <g id="patch_10">
    <path clip-path="url(#pf2889d5b60)" d="M 41.451362 48.699576 
L -181.476437 -138.221944 
L 84.370923 66.239724 
z
" style="fill:#08daf6;opacity:0.6;stroke-dasharray:0,0;stroke-dashoffset:0;"/>
   </g>
   <g id="patch_11">
    <path clip-path="url(#pf2889d5b60)" d="M 84.370923 66.239724 
L -181.476336 -138.221867 
L 907.556241 -1902.938092 
L 327.898307 -89.11 
L 201.434824 114.080802 
z
" style="fill:#0a1ed0;opacity:0.6;stroke-dasharray:0,0;stroke-dashoffset:0;"/>
   </g>
   <g id="patch_12">
    <path clip-path="url(#pf2889d5b60)" d="M 102.562501 80.230761 
L 84.370923 66.239724 
L 201.434824 114.080802 
L 197.251625 120.802012 
z
" style="fill:#0b62aa;opacity:0.6;stroke-dasharray:0,0;stroke-dashoffset:0;"/>
   </g>
   <g id="patch_13">
    <path clip-path="url(#pf2889d5b60)" d="M 164.168995 127.61196 
L 102.562501 80.230761 
L 197.251625 120.802012 
L 191.797373 129.565442 
L 186.690024 132.102018 
z
" style="fill:#0ca684;opacity:0.6;stroke-dasharray:0,0;stroke-dashoffset:0;"/>
   </g>
   <g id="patch_14">
    <path clip-path="url(#pf2889d5b60)" d="M 115.595594 252 
L 182.421482 144.629829 
L 187.088657 145.239339 
L 240.000653 185.933649 
L 218.887359 252 
z
" style="fill:#0dea5e;opacity:0.6;stroke-dasharray:0,0;stroke-dashoffset:0;"/>
   </g>
   <g id="patch_15">
    <path clip-path="url(#pf2889d5b60)" d="M 176.553132 137.136528 
L 164.168995 127.61196 
L 186.690024 132.102018 
z
" style="fill:#0f2e38;opacity:0.6;stroke-dasharray:0,0;stroke-dashoffset:0;"/>
   </g>
   <g id="patch_16">
    <path clip-path="url(#pf2889d5b60)" d="M 165.828617 142.462881 
L 167.464347 141.650493 
L 171.83317 140.439606 
L 183.1072 143.528075 
L 182.421482 144.629829 
z
" style="fill:#107212;opacity:0.6;stroke-dasharray:0,0;stroke-dashoffset:0;"/>
   </g>
   <g id="patch_17">
    <path clip-path="url(#pf2889d5b60)" d="M 167.464347 141.650493 
L 170.588812 140.09872 
L 171.83317 140.439606 
z
" style="fill:#11b5ec;opacity:0.6;stroke-dasharray:0,0;stroke-dashoffset:0;"/>
   </g>
   <g id="patch_18">
    <path clip-path="url(#pf2889d5b60)" d="M 171.83317 140.439606 
L 178.459799 138.602934 
L 183.675786 142.61452 
L 183.1072 143.528075 
z
" style="fill:#12f9c6;opacity:0.6;stroke-dasharray:0,0;stroke-dashoffset:0;"/>
   </g>
   <g id="patch_19">
    <path clip-path="url(#pf2889d5b60)" d="M 171.83317 140.439606 
L 170.588812 140.09872 
L 176.553132 137.136528 
L 178.459799 138.602934 
z
" style="fill:#143da0;opacity:0.6;stroke-dasharray:0,0;stroke-dashoffset:0;"/>
   </g>
   <g id="patch_20">
    <path clip-path="url(#pf2889d5b60)" d="M 178.459799 138.602934 
L 176.553132 137.136528 
L 186.690024 132.102018 
L 189.847829 132.697804 
L 187.78039 136.01959 
z
" style="fill:#15817a;opacity:0.6;stroke-dasharray:0,0;stroke-dashoffset:0;"/>
   </g>
   <g id="patch_21">
    <path clip-path="url(#pf2889d5b60)" d="M 178.459799 138.602934 
L 187.78039 136.01959 
L 183.675786 142.61452 
z
" style="fill:#16c554;opacity:0.6;stroke-dasharray:0,0;stroke-dashoffset:0;"/>
   </g>
   <g id="patch_22">
    <path clip-path="url(#pf2889d5b60)" d="M 182.421482 144.629829 
L 183.1072 143.528075 
L 185.835371 144.275445 
L 187.088657 145.239339 
z
" style="fill:#18092e;opacity:0.6;stroke-dasharray:0,0;stroke-dashoffset:0;"/>
   </g>
   <g id="patch_23">
    <path clip-path="url(#pf2889d5b60)" d="M 183.1072 143.528075 
L 183.675786 142.61452 
L 185.835371 144.275445 
z
" style="fill:#194d08;opacity:0.6;stroke-dasharray:0,0;stroke-dashoffset:0;"/>
   </g>
   <g id="patch_24">
    <path clip-path="url(#pf2889d5b60)" d="M 191.417657 145.804686 
L 185.835371 144.275445 
L 183.675786 142.61452 
L 187.78039 136.01959 
L 198.337722 133.093463 
L 239.658891 129.702019 
L 255.855647 136.321227 
L 250.36478 153.502894 
z
" style="fill:#1a90e2;opacity:0.6;stroke-dasharray:0,0;stroke-dashoffset:0;"/>
   </g>
   <g id="patch_25">
    <path clip-path="url(#pf2889d5b60)" d="M 187.088657 145.239339 
L 185.835371 144.275445 
L 191.417657 145.804686 
z
" style="fill:#1bd4bc;opacity:0.6;stroke-dasharray:0,0;stroke-dashoffset:0;"/>
   </g>
   <g id="patch_26">
    <path clip-path="url(#pf2889d5b60)" d="M 187.088657 145.239339 
L 191.417657 145.804686 
L 247.881711 161.272751 
L 240.000653 185.933649 
z
" style="fill:#1d1896;opacity:0.6;stroke-dasharray:0,0;stroke-dashoffset:0;"/>
   </g>
   <g id="patch_27">
    <path clip-path="url(#pf2889d5b60)" d="M 187.78039 136.01959 
L 189.847829 132.697804 
L 198.337728 133.093461 
z
" style="fill:#1e5c70;opacity:0.6;stroke-dasharray:0,0;stroke-dashoffset:0;"/>
   </g>
   <g id="patch_28">
    <path clip-path="url(#pf2889d5b60)" d="M 186.690024 132.102018 
L 191.797373 129.565442 
L 189.847829 132.697804 
z
" style="fill:#1fa04a;opacity:0.6;stroke-dasharray:0,0;stroke-dashoffset:0;"/>
   </g>
   <g id="patch_29">
    <path clip-path="url(#pf2889d5b60)" d="M 198.337728 133.093461 
L 189.847829 132.697804 
L 191.797373 129.565442 
L 212.728462 119.169971 
L 213.636312 119.067244 
L 227.904911 124.898463 
z
" style="fill:#20e424;opacity:0.6;stroke-dasharray:0,0;stroke-dashoffset:0;"/>
   </g>
   <g id="patch_30">
    <path clip-path="url(#pf2889d5b60)" d="M 191.797373 129.565442 
L 197.251623 120.802014 
L 212.728458 119.169973 
z
" style="fill:#2227fe;opacity:0.6;stroke-dasharray:0,0;stroke-dashoffset:0;"/>
   </g>
   <g id="patch_31">
    <path clip-path="url(#pf2889d5b60)" d="M 191.417657 145.804686 
L 250.36478 153.502894 
L 247.881711 161.272751 
z
" style="fill:#236bd8;opacity:0.6;stroke-dasharray:0,0;stroke-dashoffset:0;"/>
   </g>
   <g id="patch_32">
    <path clip-path="url(#pf2889d5b60)" d="M 197.251623 120.802014 
L 201.434824 114.080802 
L 213.251745 118.910081 
L 212.728458 119.169973 
z
" style="fill:#24afb2;opacity:0.6;stroke-dasharray:0,0;stroke-dashoffset:0;"/>
   </g>
   <g id="patch_33">
    <path clip-path="url(#pf2889d5b60)" d="M 198.337722 133.093463 
L 227.904911 124.898463 
L 239.658891 129.702019 
z
" style="fill:#25f38c;opacity:0.6;stroke-dasharray:0,0;stroke-dashoffset:0;"/>
   </g>
   <g id="patch_34">
    <path clip-path="url(#pf2889d5b60)" d="M 213.974764 118.550993 
L 213.251745 118.910081 
L 201.434824 114.080802 
L 327.898307 -89.11 
L 311.702938 -38.432503 
z
" style="fill:#273766;opacity:0.6;stroke-dasharray:0,0;stroke-dashoffset:0;"/>
   </g>
   <g id="patch_35">
    <path clip-path="url(#pf2889d5b60)" d="M 213.251745 118.910081 
L 213.974764 118.550993 
L 213.636314 119.067245 
z
" style="fill:#287b40;opacity:0.6;stroke-dasharray:0,0;stroke-dashoffset:0;"/>
   </g>
   <g id="patch_36">
    <path clip-path="url(#pf2889d5b60)" d="M 227.904911 124.898463 
L 213.636314 119.067245 
L 213.974764 118.550993 
L 270.50739 90.47394 
L 262.577226 115.288499 
z
" style="fill:#29bf1a;opacity:0.6;stroke-dasharray:0,0;stroke-dashoffset:0;"/>
   </g>
   <g id="patch_37">
    <path clip-path="url(#pf2889d5b60)" d="M 213.974764 118.550993 
L 311.702938 -38.432503 
L 270.50739 90.47394 
z
" style="fill:#2b02f4;opacity:0.6;stroke-dasharray:0,0;stroke-dashoffset:0;"/>
   </g>
   <g id="patch_38">
    <path clip-path="url(#pf2889d5b60)" d="M 218.887359 252 
L 240.000653 185.933649 
L 325.902157 252 
z
" style="fill:#2c46ce;opacity:0.6;stroke-dasharray:0,0;stroke-dashoffset:0;"/>
   </g>
   <g id="patch_39">
    <path clip-path="url(#pf2889d5b60)" d="M 239.658888 129.702018 
L 227.904911 124.898463 
L 262.577226 115.288499 
L 258.869797 126.889544 
z
" style="fill:#2d8aa8;opacity:0.6;stroke-dasharray:0,0;stroke-dashoffset:0;"/>
   </g>
   <g id="patch_40">
    <path clip-path="url(#pf2889d5b60)" d="M 325.902157 252 
L 240.000653 185.933649 
L 247.881711 161.272751 
L 388.8 199.876661 
L 388.8 252 
z
" style="fill:#2ece82;opacity:0.6;stroke-dasharray:0,0;stroke-dashoffset:0;"/>
   </g>
   <g id="patch_41">
    <path clip-path="url(#pf2889d5b60)" d="M 239.658888 129.702018 
L 258.869797 126.889544 
L 255.855647 136.321227 
z
" style="fill:#30125c;opacity:0.6;stroke-dasharray:0,0;stroke-dashoffset:0;"/>
   </g>
   <g id="patch_42">
    <path clip-path="url(#pf2889d5b60)" d="M 247.881711 161.272751 
L 250.36478 153.502894 
L 320.221161 162.625797 
L 457.266144 218.632643 
z
" style="fill:#315636;opacity:0.6;stroke-dasharray:0,0;stroke-dashoffset:0;"/>
   </g>
   <g id="patch_43">
    <path clip-path="url(#pf2889d5b60)" d="M 250.36478 153.502894 
L 255.855647 136.321227 
L 320.221161 162.625797 
z
" style="fill:#329a10;opacity:0.6;stroke-dasharray:0,0;stroke-dashoffset:0;"/>
   </g>
   <g id="patch_44">
    <path clip-path="url(#pf2889d5b60)" d="M 320.221161 162.625797 
L 255.855647 136.321227 
L 258.869798 126.889542 
L 388.8 86.408356 
L 388.8 171.581861 
z
" style="fill:#33ddea;opacity:0.6;stroke-dasharray:0,0;stroke-dashoffset:0;"/>
   </g>
   <g id="patch_45">
    <path clip-path="url(#pf2889d5b60)" d="M 258.869798 126.889542 
L 262.577226 115.288499 
L 436.503291 67.082221 
L 481.805931 57.431333 
z
" style="fill:#3521c4;opacity:0.6;stroke-dasharray:0,0;stroke-dashoffset:0;"/>
   </g>
   <g id="patch_46">
    <path clip-path="url(#pf2889d5b60)" d="M 262.577226 115.288499 
L 270.50739 90.47394 
L 386.919947 32.65739 
L 436.503317 67.082214 
z
" style="fill:#36659e;opacity:0.6;stroke-dasharray:0,0;stroke-dashoffset:0;"/>
   </g>
   <g id="patch_47">
    <path clip-path="url(#pf2889d5b60)" d="M 270.50739 90.47394 
L 311.70294 -38.432509 
L 386.919947 32.65739 
z
" style="fill:#37a978;opacity:0.6;stroke-dasharray:0,0;stroke-dashoffset:0;"/>
   </g>
   <g id="patch_48">
    <path clip-path="url(#pf2889d5b60)" d="M 320.221161 162.625797 
L 388.8 171.581861 
L 388.8 190.652248 
z
" style="fill:#38ed52;opacity:0.6;stroke-dasharray:0,0;stroke-dashoffset:0;"/>
   </g>
   <g id="patch_49">
    <path clip-path="url(#pf2889d5b60)" d="M 54 118.681537 
L 54 108.159757 
L 170.588812 140.09872 
L 167.464347 141.650493 
L 164.948146 142.347896 
L 158.777507 141.542041 
z
" style="fill:#ff0000;stroke:#000000;stroke-linejoin:miter;stroke-width:0.5;"/>
   </g>
   <g id="matplotlib.axis_1">
    <g id="xtick_1">
     <g id="line2d_1">
      <defs>
       <path d="M 0 0 
L 0 3.5 
" id="m74695ac12e" style="stroke:#000000;stroke-width:0.8;"/>
      </defs>
      <g>
       <use style="stroke:#000000;stroke-width:0.8;" x="87.48" xlink:href="#m74695ac12e" y="252"/>
      </g>
     </g>
     <g id="text_1">
      <!-- −4 -->
      <defs>
       <path d="M 10.59375 35.5 
L 73.1875 35.5 
L 73.1875 27.203125 
L 10.59375 27.203125 
z
" id="DejaVuSans-2212"/>
       <path d="M 37.796875 64.3125 
L 12.890625 25.390625 
L 37.796875 25.390625 
z
M 35.203125 72.90625 
L 47.609375 72.90625 
L 47.609375 25.390625 
L 58.015625 25.390625 
L 58.015625 17.1875 
L 47.609375 17.1875 
L 47.609375 0 
L 37.796875 0 
L 37.796875 17.1875 
L 4.890625 17.1875 
L 4.890625 26.703125 
z
" id="DejaVuSans-34"/>
      </defs>
      <g transform="translate(80.108906 266.598437)scale(0.1 -0.1)">
       <use xlink:href="#DejaVuSans-2212"/>
       <use x="83.789062" xlink:href="#DejaVuSans-34"/>
      </g>
     </g>
    </g>
    <g id="xtick_2">
     <g id="line2d_2">
      <g>
       <use style="stroke:#000000;stroke-width:0.8;" x="154.44" xlink:href="#m74695ac12e" y="252"/>
      </g>
     </g>
     <g id="text_2">
      <!-- −2 -->
      <defs>
       <path d="M 19.1875 8.296875 
L 53.609375 8.296875 
L 53.609375 0 
L 7.328125 0 
L 7.328125 8.296875 
Q 12.9375 14.109375 22.625 23.890625 
Q 32.328125 33.6875 34.8125 36.53125 
Q 39.546875 41.84375 41.421875 45.53125 
Q 43.3125 49.21875 43.3125 52.78125 
Q 43.3125 58.59375 39.234375 62.25 
Q 35.15625 65.921875 28.609375 65.921875 
Q 23.96875 65.921875 18.8125 64.3125 
Q 13.671875 62.703125 7.8125 59.421875 
L 7.8125 69.390625 
Q 13.765625 71.78125 18.9375 73 
Q 24.125 74.21875 28.421875 74.21875 
Q 39.75 74.21875 46.484375 68.546875 
Q 53.21875 62.890625 53.21875 53.421875 
Q 53.21875 48.921875 51.53125 44.890625 
Q 49.859375 40.875 45.40625 35.40625 
Q 44.1875 33.984375 37.640625 27.21875 
Q 31.109375 20.453125 19.1875 8.296875 
z
" id="DejaVuSans-32"/>
      </defs>
      <g transform="translate(147.068906 266.598437)scale(0.1 -0.1)">
       <use xlink:href="#DejaVuSans-2212"/>
       <use x="83.789062" xlink:href="#DejaVuSans-32"/>
      </g>
     </g>
    </g>
    <g id="xtick_3">
     <g id="line2d_3">
      <g>
       <use style="stroke:#000000;stroke-width:0.8;" x="221.4" xlink:href="#m74695ac12e" y="252"/>
      </g>
     </g>
     <g id="text_3">
      <!-- 0 -->
      <defs>
       <path d="M 31.78125 66.40625 
Q 24.171875 66.40625 20.328125 58.90625 
Q 16.5 51.421875 16.5 36.375 
Q 16.5 21.390625 20.328125 13.890625 
Q 24.171875 6.390625 31.78125 6.390625 
Q 39.453125 6.390625 43.28125 13.890625 
Q 47.125 21.390625 47.125 36.375 
Q 47.125 51.421875 43.28125 58.90625 
Q 39.453125 66.40625 31.78125 66.40625 
z
M 31.78125 74.21875 
Q 44.046875 74.21875 50.515625 64.515625 
Q 56.984375 54.828125 56.984375 36.375 
Q 56.984375 17.96875 50.515625 8.265625 
Q 44.046875 -1.421875 31.78125 -1.421875 
Q 19.53125 -1.421875 13.0625 8.265625 
Q 6.59375 17.96875 6.59375 36.375 
Q 6.59375 54.828125 13.0625 64.515625 
Q 19.53125 74.21875 31.78125 74.21875 
z
" id="DejaVuSans-30"/>
      </defs>
      <g transform="translate(218.21875 266.598437)scale(0.1 -0.1)">
       <use xlink:href="#DejaVuSans-30"/>
      </g>
     </g>
    </g>
    <g id="xtick_4">
     <g id="line2d_4">
      <g>
       <use style="stroke:#000000;stroke-width:0.8;" x="288.36" xlink:href="#m74695ac12e" y="252"/>
      </g>
     </g>
     <g id="text_4">
      <!-- 2 -->
      <g transform="translate(285.17875 266.598437)scale(0.1 -0.1)">
       <use xlink:href="#DejaVuSans-32"/>
      </g>
     </g>
    </g>
    <g id="xtick_5">
     <g id="line2d_5">
      <g>
       <use style="stroke:#000000;stroke-width:0.8;" x="355.32" xlink:href="#m74695ac12e" y="252"/>
      </g>
     </g>
     <g id="text_5">
      <!-- 4 -->
      <g transform="translate(352.13875 266.598437)scale(0.1 -0.1)">
       <use xlink:href="#DejaVuSans-34"/>
      </g>
     </g>
    </g>
   </g>
   <g id="matplotlib.axis_2">
    <g id="ytick_1">
     <g id="line2d_6">
      <defs>
       <path d="M 0 0 
L -3.5 0 
" id="ma6838e341a" style="stroke:#000000;stroke-width:0.8;"/>
      </defs>
      <g>
       <use style="stroke:#000000;stroke-width:0.8;" x="54" xlink:href="#ma6838e341a" y="230.256"/>
      </g>
     </g>
     <g id="text_6">
      <!-- −4 -->
      <g transform="translate(32.257812 234.055219)scale(0.1 -0.1)">
       <use xlink:href="#DejaVuSans-2212"/>
       <use x="83.789062" xlink:href="#DejaVuSans-34"/>
      </g>
     </g>
    </g>
    <g id="ytick_2">
     <g id="line2d_7">
      <g>
       <use style="stroke:#000000;stroke-width:0.8;" x="54" xlink:href="#ma6838e341a" y="186.768"/>
      </g>
     </g>
     <g id="text_7">
      <!-- −2 -->
      <g transform="translate(32.257812 190.567219)scale(0.1 -0.1)">
       <use xlink:href="#DejaVuSans-2212"/>
       <use x="83.789062" xlink:href="#DejaVuSans-32"/>
      </g>
     </g>
    </g>
    <g id="ytick_3">
     <g id="line2d_8">
      <g>
       <use style="stroke:#000000;stroke-width:0.8;" x="54" xlink:href="#ma6838e341a" y="143.28"/>
      </g>
     </g>
     <g id="text_8">
      <!-- 0 -->
      <g transform="translate(40.6375 147.079219)scale(0.1 -0.1)">
       <use xlink:href="#DejaVuSans-30"/>
      </g>
     </g>
    </g>
    <g id="ytick_4">
     <g id="line2d_9">
      <g>
       <use style="stroke:#000000;stroke-width:0.8;" x="54" xlink:href="#ma6838e341a" y="99.792"/>
      </g>
     </g>
     <g id="text_9">
      <!-- 2 -->
      <g transform="translate(40.6375 103.591219)scale(0.1 -0.1)">
       <use xlink:href="#DejaVuSans-32"/>
      </g>
     </g>
    </g>
    <g id="ytick_5">
     <g id="line2d_10">
      <g>
       <use style="stroke:#000000;stroke-width:0.8;" x="54" xlink:href="#ma6838e341a" y="56.304"/>
      </g>
     </g>
     <g id="text_10">
      <!-- 4 -->
      <g transform="translate(40.6375 60.103219)scale(0.1 -0.1)">
       <use xlink:href="#DejaVuSans-34"/>
      </g>
     </g>
    </g>
   </g>
   <g id="line2d_11">
    <path clip-path="url(#pf2889d5b60)" d="M 167.717841 142.709605 
L 164.878718 142.934651 
" style="fill:none;stroke:#ff0000;stroke-linecap:square;stroke-width:0.5;"/>
   </g>
   <g id="line2d_12">
    <path clip-path="url(#pf2889d5b60)" d="M 164.878719 142.934651 
L 162.102756 143.13654 
" style="fill:none;stroke:#ff0000;stroke-linecap:square;stroke-width:0.5;"/>
   </g>
   <g id="line2d_13">
    <path clip-path="url(#pf2889d5b60)" d="M 162.102756 143.13654 
L 158.777513 141.542042 
" style="fill:none;stroke:#ff0000;stroke-linecap:square;stroke-width:0.5;"/>
   </g>
   <g id="line2d_14">
    <path clip-path="url(#pf2889d5b60)" d="M 167.717836 142.709604 
L 180.767124 142.887022 
" style="fill:none;stroke:#ff0000;stroke-linecap:square;stroke-width:0.5;"/>
   </g>
   <g id="line2d_15">
    <path clip-path="url(#pf2889d5b60)" d="M 180.767125 142.887022 
L 183.493831 142.906869 
" style="fill:none;stroke:#ff0000;stroke-linecap:square;stroke-width:0.5;"/>
   </g>
   <g id="line2d_16">
    <path clip-path="url(#pf2889d5b60)" d="M 184.009974 142.871542 
L 183.493831 142.906869 
" style="fill:none;stroke:#ff0000;stroke-linecap:square;stroke-width:0.5;"/>
   </g>
   <g id="line2d_17">
    <path clip-path="url(#pf2889d5b60)" d="M 184.009975 142.871543 
L 255.641156 136.992397 
" style="fill:none;stroke:#ff0000;stroke-linecap:square;stroke-width:0.5;"/>
   </g>
   <g id="line2d_18">
    <path clip-path="url(#pf2889d5b60)" d="M 256.825187 136.717454 
L 255.641157 136.992396 
" style="fill:none;stroke:#ff0000;stroke-linecap:square;stroke-width:0.5;"/>
   </g>
   <g id="line2d_19">
    <path clip-path="url(#pf2889d5b60)" d="M 256.825186 136.717453 
L 433 81.828249 
" style="fill:none;stroke:#ff0000;stroke-linecap:square;stroke-width:0.5;"/>
   </g>
   <g id="patch_50">
    <path d="M 54 252 
L 54 34.56 
" style="fill:none;stroke:#000000;stroke-linecap:square;stroke-linejoin:miter;stroke-width:0.8;"/>
   </g>
   <g id="patch_51">
    <path d="M 388.8 252 
L 388.8 34.56 
" style="fill:none;stroke:#000000;stroke-linecap:square;stroke-linejoin:miter;stroke-width:0.8;"/>
   </g>
   <g id="patch_52">
    <path d="M 54 252 
L 388.8 252 
" style="fill:none;stroke:#000000;stroke-linecap:square;stroke-linejoin:miter;stroke-width:0.8;"/>
   </g>
   <g id="patch_53">
    <path d="M 54 34.56 
L 388.8 34.56 
" style="fill:none;stroke:#000000;stroke-linecap:square;stroke-linejoin:miter;stroke-width:0.8;"/>
   </g>
  </g>
 </g>
 <defs>
  <clipPath id="pf2889d5b60">
   <rect height="217.44" width="334.8" x="54" y="34.56"/>
  </clipPath>
 </defs>
</svg>
