<?xml version="1.0" encoding="utf-8" standalone="no"?>
<!DOCTYPE svg PUBLIC "-//W3C//DTD SVG 1.1//EN"
  "http://www.w3.org/Graphics/SVG/1.1/DTD/svg11.dtd">
<!-- Created with matplotlib (http://matplotlib.org/) -->
<svg height="288pt" version="1.1" viewBox="0 0 432 288" width="432pt" xmlns="http://www.w3.org/2000/svg" xmlns:xlink="http://www.w3.org/1999/xlink">
 <defs>
  <style type="text/css">
*{stroke-linecap:butt;stroke-linejoin:round;}
  </style>
 </defs>
 <g id="figure_1">
  <g id="patch_1">
   <path d="M 0 288 
L 432 288 
L 432 0 
L 0 0 
z
" style="fill:#ffffff;"/>
  </g>
  <g id="axes_1">
   <g id="patch_2">
    <path d="M 54 252 
L 388.8 252 
L 388.8 34.56 
L 54 34.56 
z
" style="fill:#ffffff;"/>
   </g>
   <g id="patch_3">
    <path clip-path="url(#pd9ff11deab)" d="M 93.573704 252 
L 54 252 
L 54 152.542919 
L 121.247267 132.718764 
L 153.261132 138.731786 
L 176.115742 148.974058 
L 175.938566 149.795166 
z
" style="opacity:0.6;stroke-dasharray:0,0;stroke-dashoffset:0;"/>
   </g>
   <g id="patch_4">
    <path clip-path="url(#pd9ff11deab)" d="M 54 152.542919 
L 54 120.088008 
L 121.247267 132.718764 
z
" style="fill:#0143da;opacity:0.6;stroke-dasharray:0,0;stroke-dashoffset:0;"/>
   </g>
   <g id="patch_5">
    <path clip-path="url(#pd9ff11deab)" d="M -252.849389 62.45385 
L 17.584266 89.776449 
L 92.131667 111.336673 
L 132.46475 129.411907 
L 121.247267 132.718764 
z
" style="fill:#0287b4;opacity:0.6;stroke-dasharray:0,0;stroke-dashoffset:0;"/>
   </g>
   <g id="patch_6">
    <path clip-path="url(#pd9ff11deab)" d="M 17.584266 89.776449 
L 51.717253 93.224991 
L 92.131667 111.336673 
z
" style="fill:#03cb8e;opacity:0.6;stroke-dasharray:0,0;stroke-dashoffset:0;"/>
   </g>
   <g id="patch_7">
    <path clip-path="url(#pd9ff11deab)" d="M 92.131667 111.336673 
L 51.717253 93.224991 
L 147.964131 102.949058 
L 174.460406 117.031799 
L 143.441108 126.176131 
z
" style="fill:#050f68;opacity:0.6;stroke-dasharray:0,0;stroke-dashoffset:0;"/>
   </g>
   <g id="patch_8">
    <path clip-path="url(#pd9ff11deab)" d="M 54 93.455623 
L 54 53.007225 
L 147.964131 102.949058 
z
" style="fill:#065342;opacity:0.6;stroke-dasharray:0,0;stroke-dashoffset:0;"/>
   </g>
   <g id="patch_9">
    <path clip-path="url(#pd9ff11deab)" d="M 147.964131 102.949058 
L 54 53.007225 
L 54 34.56 
L 200.803565 34.56 
L 185.234333 106.714561 
z
" style="fill:#07971c;opacity:0.6;stroke-dasharray:0,0;stroke-dashoffset:0;"/>
   </g>
   <g id="patch_10">
    <path clip-path="url(#pd9ff11deab)" d="M 56.198125 298.378574 
L 175.938566 149.795166 
L 157.134598 236.940891 
z
" style="fill:#08daf6;opacity:0.6;stroke-dasharray:0,0;stroke-dashoffset:0;"/>
   </g>
   <g id="patch_11">
    <path clip-path="url(#pd9ff11deab)" d="M 132.46475 129.411907 
L 92.131667 111.336673 
L 143.441108 126.176131 
z
" style="fill:#0a1ed0;opacity:0.6;stroke-dasharray:0,0;stroke-dashoffset:0;"/>
   </g>
   <g id="patch_12">
    <path clip-path="url(#pd9ff11deab)" d="M 121.247267 132.718764 
L 132.46475 129.411907 
L 153.261132 138.731786 
z
" style="fill:#0b62aa;opacity:0.6;stroke-dasharray:0,0;stroke-dashoffset:0;"/>
   </g>
   <g id="patch_13">
    <path clip-path="url(#pd9ff11deab)" d="M 132.393865 252 
L 157.134598 236.940891 
L 156.234291 241.113307 
L 148.994687 252 
z
" style="fill:#0ca684;opacity:0.6;stroke-dasharray:0,0;stroke-dashoffset:0;"/>
   </g>
   <g id="patch_14">
    <path clip-path="url(#pd9ff11deab)" d="M 153.261132 138.731786 
L 132.46475 129.411907 
L 143.441108 126.176131 
L 178.826726 136.410182 
L 177.349519 143.256201 
z
" style="fill:#0dea5e;opacity:0.6;stroke-dasharray:0,0;stroke-dashoffset:0;"/>
   </g>
   <g id="patch_15">
    <path clip-path="url(#pd9ff11deab)" d="M 143.441108 126.176131 
L 174.460406 117.031799 
L 182.128684 121.10748 
L 178.826726 136.410182 
z
" style="fill:#0f2e38;opacity:0.6;stroke-dasharray:0,0;stroke-dashoffset:0;"/>
   </g>
   <g id="patch_16">
    <path clip-path="url(#pd9ff11deab)" d="M 148.994687 252 
L 156.234291 241.113307 
L 153.885202 252 
z
" style="fill:#107212;opacity:0.6;stroke-dasharray:0,0;stroke-dashoffset:0;"/>
   </g>
   <g id="patch_17">
    <path clip-path="url(#pd9ff11deab)" d="M 174.460406 117.031799 
L 147.964131 102.949058 
L 185.234333 106.714561 
L 183.588772 114.340802 
z
" style="fill:#11b5ec;opacity:0.6;stroke-dasharray:0,0;stroke-dashoffset:0;"/>
   </g>
   <g id="patch_18">
    <path clip-path="url(#pd9ff11deab)" d="M -337.278115 2528.263407 
L 156.234293 241.113296 
L 160.841258 234.684734 
L 203.083076 208.973122 
z
" style="fill:#12f9c6;opacity:0.6;stroke-dasharray:0,0;stroke-dashoffset:0;"/>
   </g>
   <g id="patch_19">
    <path clip-path="url(#pd9ff11deab)" d="M 153.261132 138.731786 
L 177.349519 143.256201 
L 176.115742 148.974058 
z
" style="fill:#143da0;opacity:0.6;stroke-dasharray:0,0;stroke-dashoffset:0;"/>
   </g>
   <g id="patch_20">
    <path clip-path="url(#pd9ff11deab)" d="M 156.234293 241.113296 
L 157.134598 236.940891 
L 160.841258 234.684734 
z
" style="fill:#15817a;opacity:0.6;stroke-dasharray:0,0;stroke-dashoffset:0;"/>
   </g>
   <g id="patch_21">
    <path clip-path="url(#pd9ff11deab)" d="M 160.841256 234.684735 
L 157.134598 236.940891 
L 175.938566 149.795166 
L 176.409042 149.1055 
L 207.750402 163.151102 
z
" style="fill:#16c554;opacity:0.6;stroke-dasharray:0,0;stroke-dashoffset:0;"/>
   </g>
   <g id="patch_22">
    <path clip-path="url(#pd9ff11deab)" d="M 160.841256 234.684735 
L 207.750402 163.151102 
L 213.190892 165.589252 
L 203.083076 208.973122 
z
" style="fill:#18092e;opacity:0.6;stroke-dasharray:0,0;stroke-dashoffset:0;"/>
   </g>
   <g id="patch_23">
    <path clip-path="url(#pd9ff11deab)" d="M 176.40904 149.105499 
L 176.115742 148.974058 
L 177.349519 143.256201 
L 179.948086 143.744278 
z
" style="fill:#194d08;opacity:0.6;stroke-dasharray:0,0;stroke-dashoffset:0;"/>
   </g>
   <g id="patch_24">
    <path clip-path="url(#pd9ff11deab)" d="M 174.460406 117.031799 
L 183.588772 114.340802 
L 182.128684 121.10748 
z
" style="fill:#1a90e2;opacity:0.6;stroke-dasharray:0,0;stroke-dashoffset:0;"/>
   </g>
   <g id="patch_25">
    <path clip-path="url(#pd9ff11deab)" d="M 176.40904 149.105499 
L 179.948086 143.744278 
L 216.673336 150.642219 
L 215.629044 155.124436 
L 207.750403 163.151102 
z
" style="fill:#1bd4bc;opacity:0.6;stroke-dasharray:0,0;stroke-dashoffset:0;"/>
   </g>
   <g id="patch_26">
    <path clip-path="url(#pd9ff11deab)" d="M 179.948089 143.744279 
L 177.349519 143.256201 
L 178.826726 136.410182 
L 183.783261 137.843686 
z
" style="fill:#1d1896;opacity:0.6;stroke-dasharray:0,0;stroke-dashoffset:0;"/>
   </g>
   <g id="patch_27">
    <path clip-path="url(#pd9ff11deab)" d="M 183.783261 137.843686 
L 178.826726 136.410182 
L 182.128684 121.10748 
L 193.248838 127.01783 
z
" style="fill:#1e5c70;opacity:0.6;stroke-dasharray:0,0;stroke-dashoffset:0;"/>
   </g>
   <g id="patch_28">
    <path clip-path="url(#pd9ff11deab)" d="M 179.948089 143.744279 
L 183.783261 137.843686 
L 217.390646 147.563445 
L 216.673336 150.642219 
z
" style="fill:#1fa04a;opacity:0.6;stroke-dasharray:0,0;stroke-dashoffset:0;"/>
   </g>
   <g id="patch_29">
    <path clip-path="url(#pd9ff11deab)" d="M 182.128684 121.10748 
L 183.588772 114.340802 
L 203.27537 108.537292 
L 222.584032 110.488096 
L 193.248839 127.01783 
z
" style="fill:#20e424;opacity:0.6;stroke-dasharray:0,0;stroke-dashoffset:0;"/>
   </g>
   <g id="patch_30">
    <path clip-path="url(#pd9ff11deab)" d="M 183.783261 137.843686 
L 193.248838 127.01783 
L 218.989919 140.699186 
L 217.390646 147.563445 
z
" style="fill:#2227fe;opacity:0.6;stroke-dasharray:0,0;stroke-dashoffset:0;"/>
   </g>
   <g id="patch_31">
    <path clip-path="url(#pd9ff11deab)" d="M 183.588772 114.340802 
L 185.234333 106.714561 
L 203.27537 108.537292 
z
" style="fill:#236bd8;opacity:0.6;stroke-dasharray:0,0;stroke-dashoffset:0;"/>
   </g>
   <g id="patch_32">
    <path clip-path="url(#pd9ff11deab)" d="M 203.27537 108.537292 
L 185.234333 106.714561 
L 221.127618 -59.630459 
L 242.233282 -21.049028 
L 245.594593 26.508969 
L 228.194711 101.191196 
z
" style="fill:#24afb2;opacity:0.6;stroke-dasharray:0,0;stroke-dashoffset:0;"/>
   </g>
   <g id="patch_33">
    <path clip-path="url(#pd9ff11deab)" d="M 193.058434 252 
L 203.083076 208.973122 
L 248.420423 181.377334 
L 256.806009 185.135326 
L 261.531879 252 
z
" style="fill:#25f38c;opacity:0.6;stroke-dasharray:0,0;stroke-dashoffset:0;"/>
   </g>
   <g id="patch_34">
    <path clip-path="url(#pd9ff11deab)" d="M 193.248839 127.01783 
L 222.584032 110.488096 
L 225.949448 110.828112 
L 218.989919 140.699186 
z
" style="fill:#273766;opacity:0.6;stroke-dasharray:0,0;stroke-dashoffset:0;"/>
   </g>
   <g id="patch_35">
    <path clip-path="url(#pd9ff11deab)" d="M 203.083076 208.973122 
L 213.190892 165.589252 
L 248.420423 181.377334 
z
" style="fill:#287b40;opacity:0.6;stroke-dasharray:0,0;stroke-dashoffset:0;"/>
   </g>
   <g id="patch_36">
    <path clip-path="url(#pd9ff11deab)" d="M 203.27537 108.537292 
L 228.194711 101.191196 
L 226.723776 107.504612 
L 222.58403 110.488095 
z
" style="fill:#29bf1a;opacity:0.6;stroke-dasharray:0,0;stroke-dashoffset:0;"/>
   </g>
   <g id="patch_37">
    <path clip-path="url(#pd9ff11deab)" d="M 207.750403 163.151102 
L 215.629044 155.124436 
L 213.190892 165.589252 
z
" style="fill:#2b02f4;opacity:0.6;stroke-dasharray:0,0;stroke-dashoffset:0;"/>
   </g>
   <g id="patch_38">
    <path clip-path="url(#pd9ff11deab)" d="M 213.190892 165.589252 
L 215.629044 155.124435 
L 255.47838 166.351176 
L 256.205486 176.638747 
L 248.420423 181.377334 
z
" style="fill:#2c46ce;opacity:0.6;stroke-dasharray:0,0;stroke-dashoffset:0;"/>
   </g>
   <g id="patch_39">
    <path clip-path="url(#pd9ff11deab)" d="M 215.629044 155.124435 
L 216.673336 150.642219 
L 249.085305 156.730015 
L 249.230441 156.771991 
L 255.018782 159.848487 
L 255.47838 166.351176 
z
" style="fill:#2d8aa8;opacity:0.6;stroke-dasharray:0,0;stroke-dashoffset:0;"/>
   </g>
   <g id="patch_40">
    <path clip-path="url(#pd9ff11deab)" d="M 216.673336 150.642219 
L 217.390646 147.563445 
L 249.085305 156.730015 
z
" style="fill:#2ece82;opacity:0.6;stroke-dasharray:0,0;stroke-dashoffset:0;"/>
   </g>
   <g id="patch_41">
    <path clip-path="url(#pd9ff11deab)" d="M 217.390646 147.563445 
L 218.989919 140.699186 
L 249.187623 156.749233 
L 249.085305 156.730015 
z
" style="fill:#30125c;opacity:0.6;stroke-dasharray:0,0;stroke-dashoffset:0;"/>
   </g>
   <g id="patch_42">
    <path clip-path="url(#pd9ff11deab)" d="M 218.989919 140.699186 
L 225.949448 110.828112 
L 251.738266 113.433622 
L 254.875236 157.817512 
L 249.187623 156.749233 
z
" style="fill:#315636;opacity:0.6;stroke-dasharray:0,0;stroke-dashoffset:0;"/>
   </g>
   <g id="patch_43">
    <path clip-path="url(#pd9ff11deab)" d="M 222.58403 110.488095 
L 226.723776 107.504612 
L 225.949448 110.828112 
z
" style="fill:#329a10;opacity:0.6;stroke-dasharray:0,0;stroke-dashoffset:0;"/>
   </g>
   <g id="patch_44">
    <path clip-path="url(#pd9ff11deab)" d="M 225.949448 110.828112 
L 226.723777 107.504609 
L 251.496522 110.01328 
L 251.738266 113.433622 
z
" style="fill:#33ddea;opacity:0.6;stroke-dasharray:0,0;stroke-dashoffset:0;"/>
   </g>
   <g id="patch_45">
    <path clip-path="url(#pd9ff11deab)" d="M 226.723777 107.504609 
L 228.194711 101.191196 
L 250.410123 94.642204 
L 251.496522 110.01328 
z
" style="fill:#3521c4;opacity:0.6;stroke-dasharray:0,0;stroke-dashoffset:0;"/>
   </g>
   <g id="patch_46">
    <path clip-path="url(#pd9ff11deab)" d="M 228.194711 101.191196 
L 245.594593 26.508969 
L 250.410123 94.642204 
z
" style="fill:#36659e;opacity:0.6;stroke-dasharray:0,0;stroke-dashoffset:0;"/>
   </g>
   <g id="patch_47">
    <path clip-path="url(#pd9ff11deab)" d="M 250.410123 94.642204 
L 245.594593 26.508969 
L 252.361364 -2.534763 
L 297.867951 80.651876 
z
" style="fill:#37a978;opacity:0.6;stroke-dasharray:0,0;stroke-dashoffset:0;"/>
   </g>
   <g id="patch_48">
    <path clip-path="url(#pd9ff11deab)" d="M 248.420423 181.377334 
L 256.205486 176.638747 
L 256.806009 185.135326 
z
" style="fill:#38ed52;opacity:0.6;stroke-dasharray:0,0;stroke-dashoffset:0;"/>
   </g>
   <g id="patch_49">
    <path clip-path="url(#pd9ff11deab)" d="M 251.496522 110.013278 
L 250.410123 94.642204 
L 297.867951 80.651876 
L 306.604819 96.622985 
z
" style="fill:#3a312c;opacity:0.6;stroke-dasharray:0,0;stroke-dashoffset:0;"/>
   </g>
   <g id="patch_50">
    <path clip-path="url(#pd9ff11deab)" d="M 249.230441 156.771991 
L 254.917593 158.4168 
L 255.018782 159.848487 
z
" style="fill:#3b7506;opacity:0.6;stroke-dasharray:0,0;stroke-dashoffset:0;"/>
   </g>
   <g id="patch_51">
    <path clip-path="url(#pd9ff11deab)" d="M 260.015792 158.78304 
L 254.875236 157.817512 
L 251.738266 113.433622 
L 319.548766 120.284689 
L 323.971419 128.369357 
z
" style="fill:#3cb8e0;opacity:0.6;stroke-dasharray:0,0;stroke-dashoffset:0;"/>
   </g>
   <g id="patch_52">
    <path clip-path="url(#pd9ff11deab)" d="M 251.738266 113.433622 
L 251.496522 110.013278 
L 306.604819 96.622985 
L 319.548766 120.284689 
z
" style="fill:#3dfcba;opacity:0.6;stroke-dasharray:0,0;stroke-dashoffset:0;"/>
   </g>
   <g id="patch_53">
    <path clip-path="url(#pd9ff11deab)" d="M 249.230441 156.771991 
L 249.187623 156.749233 
L 254.875236 157.817512 
L 254.917593 158.4168 
z
" style="fill:#3f4094;opacity:0.6;stroke-dasharray:0,0;stroke-dashoffset:0;"/>
   </g>
   <g id="patch_54">
    <path clip-path="url(#pd9ff11deab)" d="M 256.205486 176.638747 
L 255.47838 166.351185 
L 257.268593 161.044259 
L 270.378327 168.012069 
z
" style="fill:#40846e;opacity:0.6;stroke-dasharray:0,0;stroke-dashoffset:0;"/>
   </g>
   <g id="patch_55">
    <path clip-path="url(#pd9ff11deab)" d="M 255.47838 166.351185 
L 255.018782 159.848487 
L 257.268593 161.044259 
z
" style="fill:#41c848;opacity:0.6;stroke-dasharray:0,0;stroke-dashoffset:0;"/>
   </g>
   <g id="patch_56">
    <path clip-path="url(#pd9ff11deab)" d="M 255.018782 159.848487 
L 254.917593 158.4168 
L 258.84259 159.551968 
L 257.268591 161.044258 
z
" style="fill:#430c22;opacity:0.6;stroke-dasharray:0,0;stroke-dashoffset:0;"/>
   </g>
   <g id="patch_57">
    <path clip-path="url(#pd9ff11deab)" d="M 254.917593 158.4168 
L 254.875236 157.817512 
L 260.015793 158.78304 
L 258.842585 159.551966 
z
" style="fill:#444ffc;opacity:0.6;stroke-dasharray:0,0;stroke-dashoffset:0;"/>
   </g>
   <g id="patch_58">
    <path clip-path="url(#pd9ff11deab)" d="M 261.531879 252 
L 256.806009 185.135326 
L 386.92406 243.44761 
L 388.8 246.876853 
L 388.8 252 
z
" style="fill:#4593d6;opacity:0.6;stroke-dasharray:0,0;stroke-dashoffset:0;"/>
   </g>
   <g id="patch_59">
    <path clip-path="url(#pd9ff11deab)" d="M 256.806009 185.135326 
L 256.205486 176.638747 
L 270.378327 168.012069 
L 376.517994 224.425186 
L 386.92406 243.44761 
z
" style="fill:#46d7b0;opacity:0.6;stroke-dasharray:0,0;stroke-dashoffset:0;"/>
   </g>
   <g id="patch_60">
    <path clip-path="url(#pd9ff11deab)" d="M 257.268591 161.044258 
L 258.84259 159.551968 
L 276.084798 164.538673 
L 270.378327 168.012069 
z
" style="fill:#481b8a;opacity:0.6;stroke-dasharray:0,0;stroke-dashoffset:0;"/>
   </g>
   <g id="patch_61">
    <path clip-path="url(#pd9ff11deab)" d="M 258.842585 159.551966 
L 260.015793 158.78304 
L 279.521653 162.446739 
L 276.084798 164.538673 
z
" style="fill:#495f64;opacity:0.6;stroke-dasharray:0,0;stroke-dashoffset:0;"/>
   </g>
   <g id="patch_62">
    <path clip-path="url(#pd9ff11deab)" d="M 260.015792 158.78304 
L 323.971419 128.369357 
L 326.853133 133.637168 
L 279.521653 162.446739 
z
" style="fill:#4aa33e;opacity:0.6;stroke-dasharray:0,0;stroke-dashoffset:0;"/>
   </g>
   <g id="patch_63">
    <path clip-path="url(#pd9ff11deab)" d="M 270.378327 168.012069 
L 276.084798 164.538673 
L 356.476555 187.789172 
L 376.517994 224.425186 
z
" style="fill:#4be718;opacity:0.6;stroke-dasharray:0,0;stroke-dashoffset:0;"/>
   </g>
   <g id="patch_64">
    <path clip-path="url(#pd9ff11deab)" d="M 297.867951 80.651876 
L 272.653758 34.56 
L 388.8 34.56 
L 388.8 53.845566 
z
" style="fill:#4d2af2;opacity:0.6;stroke-dasharray:0,0;stroke-dashoffset:0;"/>
   </g>
   <g id="patch_65">
    <path clip-path="url(#pd9ff11deab)" d="M 276.084798 164.538673 
L 279.521653 162.446739 
L 349.838085 175.653963 
L 356.476555 187.789172 
z
" style="fill:#4e6ecc;opacity:0.6;stroke-dasharray:0,0;stroke-dashoffset:0;"/>
   </g>
   <g id="patch_66">
    <path clip-path="url(#pd9ff11deab)" d="M 279.521653 162.446739 
L 326.853133 133.637168 
L 349.838085 175.653963 
z
" style="fill:#4fb2a6;opacity:0.6;stroke-dasharray:0,0;stroke-dashoffset:0;"/>
   </g>
   <g id="patch_67">
    <path clip-path="url(#pd9ff11deab)" d="M 306.60482 96.622986 
L 297.867951 80.651876 
L 522.882289 14.318782 
L 487.323603 35.962528 
z
" style="fill:#50f680;opacity:0.6;stroke-dasharray:0,0;stroke-dashoffset:0;"/>
   </g>
   <g id="patch_68">
    <path clip-path="url(#pd9ff11deab)" d="M 319.548766 120.284689 
L 306.60482 96.622986 
L 487.323603 35.962528 
L 428.585642 71.714958 
L 337.860499 122.13477 
z
" style="fill:#523a5a;opacity:0.6;stroke-dasharray:0,0;stroke-dashoffset:0;"/>
   </g>
   <g id="patch_69">
    <path clip-path="url(#pd9ff11deab)" d="M 323.97142 128.369359 
L 319.548766 120.284689 
L 337.8605 122.13477 
z
" style="fill:#537e34;opacity:0.6;stroke-dasharray:0,0;stroke-dashoffset:0;"/>
   </g>
   <g id="patch_70">
    <path clip-path="url(#pd9ff11deab)" d="M 326.853133 133.637168 
L 323.97142 128.369359 
L 337.8605 122.13477 
L 344.627314 122.818438 
z
" style="fill:#54c20e;opacity:0.6;stroke-dasharray:0,0;stroke-dashoffset:0;"/>
   </g>
   <g id="patch_71">
    <path clip-path="url(#pd9ff11deab)" d="M 349.838085 175.653963 
L 326.853133 133.637168 
L 344.627314 122.818438 
L 388.8 127.281317 
L 388.8 182.972006 
z
" style="fill:#5605e8;opacity:0.6;stroke-dasharray:0,0;stroke-dashoffset:0;"/>
   </g>
   <g id="patch_72">
    <path clip-path="url(#pd9ff11deab)" d="M 337.860499 122.13477 
L 428.585642 71.714958 
L 344.627314 122.818438 
z
" style="fill:#5749c2;opacity:0.6;stroke-dasharray:0,0;stroke-dashoffset:0;"/>
   </g>
   <g id="patch_73">
    <path clip-path="url(#pd9ff11deab)" d="M 344.627314 122.818438 
L 388.8 95.931552 
L 388.8 127.281317 
z
" style="fill:#588d9c;opacity:0.6;stroke-dasharray:0,0;stroke-dashoffset:0;"/>
   </g>
   <g id="patch_74">
    <path clip-path="url(#pd9ff11deab)" d="M 356.476555 187.789172 
L 349.838085 175.653963 
L 388.8 182.972006 
L 388.8 197.137597 
z
" style="fill:#59d176;opacity:0.6;stroke-dasharray:0,0;stroke-dashoffset:0;"/>
   </g>
   <g id="patch_75">
    <path clip-path="url(#pd9ff11deab)" d="M 376.517994 224.425186 
L 356.476555 187.789172 
L 388.8 197.137597 
L 388.8 230.953058 
z
" style="fill:#5b1550;opacity:0.6;stroke-dasharray:0,0;stroke-dashoffset:0;"/>
   </g>
   <g id="patch_76">
    <path clip-path="url(#pd9ff11deab)" d="M 386.92406 243.44761 
L 376.517994 224.425186 
L 548.791344 315.988282 
z
" style="fill:#5c592a;opacity:0.6;stroke-dasharray:0,0;stroke-dashoffset:0;"/>
   </g>
   <g id="patch_77">
    <path clip-path="url(#pd9ff11deab)" d="M 386.92406 243.44761 
L 388.8 244.288311 
L 388.8 246.876853 
z
" style="fill:#5d9d04;opacity:0.6;stroke-dasharray:0,0;stroke-dashoffset:0;"/>
   </g>
   <g id="matplotlib.axis_1">
    <g id="xtick_1">
     <g id="line2d_1">
      <defs>
       <path d="M 0 0 
L 0 3.5 
" id="m7e09712008" style="stroke:#000000;stroke-width:0.8;"/>
      </defs>
      <g>
       <use style="stroke:#000000;stroke-width:0.8;" x="87.48" xlink:href="#m7e09712008" y="252"/>
      </g>
     </g>
     <g id="text_1">
      <!-- −4 -->
      <defs>
       <path d="M 10.59375 35.5 
L 73.1875 35.5 
L 73.1875 27.203125 
L 10.59375 27.203125 
z
" id="DejaVuSans-2212"/>
       <path d="M 37.796875 64.3125 
L 12.890625 25.390625 
L 37.796875 25.390625 
z
M 35.203125 72.90625 
L 47.609375 72.90625 
L 47.609375 25.390625 
L 58.015625 25.390625 
L 58.015625 17.1875 
L 47.609375 17.1875 
L 47.609375 0 
L 37.796875 0 
L 37.796875 17.1875 
L 4.890625 17.1875 
L 4.890625 26.703125 
z
" id="DejaVuSans-34"/>
      </defs>
      <g transform="translate(80.108906 266.598437)scale(0.1 -0.1)">
       <use xlink:href="#DejaVuSans-2212"/>
       <use x="83.789062" xlink:href="#DejaVuSans-34"/>
      </g>
     </g>
    </g>
    <g id="xtick_2">
     <g id="line2d_2">
      <g>
       <use style="stroke:#000000;stroke-width:0.8;" x="154.44" xlink:href="#m7e09712008" y="252"/>
      </g>
     </g>
     <g id="text_2">
      <!-- −2 -->
      <defs>
       <path d="M 19.1875 8.296875 
L 53.609375 8.296875 
L 53.609375 0 
L 7.328125 0 
L 7.328125 8.296875 
Q 12.9375 14.109375 22.625 23.890625 
Q 32.328125 33.6875 34.8125 36.53125 
Q 39.546875 41.84375 41.421875 45.53125 
Q 43.3125 49.21875 43.3125 52.78125 
Q 43.3125 58.59375 39.234375 62.25 
Q 35.15625 65.921875 28.609375 65.921875 
Q 23.96875 65.921875 18.8125 64.3125 
Q 13.671875 62.703125 7.8125 59.421875 
L 7.8125 69.390625 
Q 13.765625 71.78125 18.9375 73 
Q 24.125 74.21875 28.421875 74.21875 
Q 39.75 74.21875 46.484375 68.546875 
Q 53.21875 62.890625 53.21875 53.421875 
Q 53.21875 48.921875 51.53125 44.890625 
Q 49.859375 40.875 45.40625 35.40625 
Q 44.1875 33.984375 37.640625 27.21875 
Q 31.109375 20.453125 19.1875 8.296875 
z
" id="DejaVuSans-32"/>
      </defs>
      <g transform="translate(147.068906 266.598437)scale(0.1 -0.1)">
       <use xlink:href="#DejaVuSans-2212"/>
       <use x="83.789062" xlink:href="#DejaVuSans-32"/>
      </g>
     </g>
    </g>
    <g id="xtick_3">
     <g id="line2d_3">
      <g>
       <use style="stroke:#000000;stroke-width:0.8;" x="221.4" xlink:href="#m7e09712008" y="252"/>
      </g>
     </g>
     <g id="text_3">
      <!-- 0 -->
      <defs>
       <path d="M 31.78125 66.40625 
Q 24.171875 66.40625 20.328125 58.90625 
Q 16.5 51.421875 16.5 36.375 
Q 16.5 21.390625 20.328125 13.890625 
Q 24.171875 6.390625 31.78125 6.390625 
Q 39.453125 6.390625 43.28125 13.890625 
Q 47.125 21.390625 47.125 36.375 
Q 47.125 51.421875 43.28125 58.90625 
Q 39.453125 66.40625 31.78125 66.40625 
z
M 31.78125 74.21875 
Q 44.046875 74.21875 50.515625 64.515625 
Q 56.984375 54.828125 56.984375 36.375 
Q 56.984375 17.96875 50.515625 8.265625 
Q 44.046875 -1.421875 31.78125 -1.421875 
Q 19.53125 -1.421875 13.0625 8.265625 
Q 6.59375 17.96875 6.59375 36.375 
Q 6.59375 54.828125 13.0625 64.515625 
Q 19.53125 74.21875 31.78125 74.21875 
z
" id="DejaVuSans-30"/>
      </defs>
      <g transform="translate(218.21875 266.598437)scale(0.1 -0.1)">
       <use xlink:href="#DejaVuSans-30"/>
      </g>
     </g>
    </g>
    <g id="xtick_4">
     <g id="line2d_4">
      <g>
       <use style="stroke:#000000;stroke-width:0.8;" x="288.36" xlink:href="#m7e09712008" y="252"/>
      </g>
     </g>
     <g id="text_4">
      <!-- 2 -->
      <g transform="translate(285.17875 266.598437)scale(0.1 -0.1)">
       <use xlink:href="#DejaVuSans-32"/>
      </g>
     </g>
    </g>
    <g id="xtick_5">
     <g id="line2d_5">
      <g>
       <use style="stroke:#000000;stroke-width:0.8;" x="355.32" xlink:href="#m7e09712008" y="252"/>
      </g>
     </g>
     <g id="text_5">
      <!-- 4 -->
      <g transform="translate(352.13875 266.598437)scale(0.1 -0.1)">
       <use xlink:href="#DejaVuSans-34"/>
      </g>
     </g>
    </g>
   </g>
   <g id="matplotlib.axis_2">
    <g id="ytick_1">
     <g id="line2d_6">
      <defs>
       <path d="M 0 0 
L -3.5 0 
" id="me43d953f70" style="stroke:#000000;stroke-width:0.8;"/>
      </defs>
      <g>
       <use style="stroke:#000000;stroke-width:0.8;" x="54" xlink:href="#me43d953f70" y="230.256"/>
      </g>
     </g>
     <g id="text_6">
      <!-- −4 -->
      <g transform="translate(32.257812 234.055219)scale(0.1 -0.1)">
       <use xlink:href="#DejaVuSans-2212"/>
       <use x="83.789062" xlink:href="#DejaVuSans-34"/>
      </g>
     </g>
    </g>
    <g id="ytick_2">
     <g id="line2d_7">
      <g>
       <use style="stroke:#000000;stroke-width:0.8;" x="54" xlink:href="#me43d953f70" y="186.768"/>
      </g>
     </g>
     <g id="text_7">
      <!-- −2 -->
      <g transform="translate(32.257812 190.567219)scale(0.1 -0.1)">
       <use xlink:href="#DejaVuSans-2212"/>
       <use x="83.789062" xlink:href="#DejaVuSans-32"/>
      </g>
     </g>
    </g>
    <g id="ytick_3">
     <g id="line2d_8">
      <g>
       <use style="stroke:#000000;stroke-width:0.8;" x="54" xlink:href="#me43d953f70" y="143.28"/>
      </g>
     </g>
     <g id="text_8">
      <!-- 0 -->
      <g transform="translate(40.6375 147.079219)scale(0.1 -0.1)">
       <use xlink:href="#DejaVuSans-30"/>
      </g>
     </g>
    </g>
    <g id="ytick_4">
     <g id="line2d_9">
      <g>
       <use style="stroke:#000000;stroke-width:0.8;" x="54" xlink:href="#me43d953f70" y="99.792"/>
      </g>
     </g>
     <g id="text_9">
      <!-- 2 -->
      <g transform="translate(40.6375 103.591219)scale(0.1 -0.1)">
       <use xlink:href="#DejaVuSans-32"/>
      </g>
     </g>
    </g>
    <g id="ytick_5">
     <g id="line2d_10">
      <g>
       <use style="stroke:#000000;stroke-width:0.8;" x="54" xlink:href="#me43d953f70" y="56.304"/>
      </g>
     </g>
     <g id="text_10">
      <!-- 4 -->
      <g transform="translate(40.6375 60.103219)scale(0.1 -0.1)">
       <use xlink:href="#DejaVuSans-34"/>
      </g>
     </g>
    </g>
   </g>
   <g id="line2d_11">
    <path clip-path="url(#pd9ff11deab)" d="M 117.292853 261.191634 
L 167.333281 189.675784 
" style="fill:none;stroke:#ff0000;stroke-linecap:square;stroke-width:0.5;"/>
   </g>
   <g id="line2d_12">
    <path clip-path="url(#pd9ff11deab)" d="M 190.343055 155.350015 
L 167.333279 189.675793 
" style="fill:none;stroke:#ff0000;stroke-linecap:square;stroke-width:0.5;"/>
   </g>
   <g id="line2d_13">
    <path clip-path="url(#pd9ff11deab)" d="M 190.343052 155.350014 
L 197.021829 146.951163 
" style="fill:none;stroke:#ff0000;stroke-linecap:square;stroke-width:0.5;"/>
   </g>
   <g id="line2d_14">
    <path clip-path="url(#pd9ff11deab)" d="M 197.02183 146.951164 
L 201.206065 142.882622 
" style="fill:none;stroke:#ff0000;stroke-linecap:square;stroke-width:0.5;"/>
   </g>
   <g id="line2d_15">
    <path clip-path="url(#pd9ff11deab)" d="M 201.206065 142.882622 
L 210.692601 136.289171 
" style="fill:none;stroke:#ff0000;stroke-linecap:square;stroke-width:0.5;"/>
   </g>
   <g id="line2d_16">
    <path clip-path="url(#pd9ff11deab)" d="M 210.692601 136.289171 
L 220.743181 133.173988 
" style="fill:none;stroke:#ff0000;stroke-linecap:square;stroke-width:0.5;"/>
   </g>
   <g id="line2d_17">
    <path clip-path="url(#pd9ff11deab)" d="M 253.719756 141.469024 
L 220.743181 133.17399 
" style="fill:none;stroke:#ff0000;stroke-linecap:square;stroke-width:0.5;"/>
   </g>
   <g id="line2d_18">
    <path clip-path="url(#pd9ff11deab)" d="M 253.719755 141.469022 
L 315.084529 119.833656 
" style="fill:none;stroke:#ff0000;stroke-linecap:square;stroke-width:0.5;"/>
   </g>
   <g id="line2d_19">
    <path clip-path="url(#pd9ff11deab)" d="M 315.08453 119.833656 
L 318.455332 118.285878 
" style="fill:none;stroke:#ff0000;stroke-linecap:square;stroke-width:0.5;"/>
   </g>
   <g id="line2d_20">
    <path clip-path="url(#pd9ff11deab)" d="M 318.455331 118.285877 
L 433 63.75548 
" style="fill:none;stroke:#ff0000;stroke-linecap:square;stroke-width:0.5;"/>
   </g>
   <g id="patch_78">
    <path d="M 54 252 
L 54 34.56 
" style="fill:none;stroke:#000000;stroke-linecap:square;stroke-linejoin:miter;stroke-width:0.8;"/>
   </g>
   <g id="patch_79">
    <path d="M 388.8 252 
L 388.8 34.56 
" style="fill:none;stroke:#000000;stroke-linecap:square;stroke-linejoin:miter;stroke-width:0.8;"/>
   </g>
   <g id="patch_80">
    <path d="M 54 252 
L 388.8 252 
" style="fill:none;stroke:#000000;stroke-linecap:square;stroke-linejoin:miter;stroke-width:0.8;"/>
   </g>
   <g id="patch_81">
    <path d="M 54 34.56 
L 388.8 34.56 
" style="fill:none;stroke:#000000;stroke-linecap:square;stroke-linejoin:miter;stroke-width:0.8;"/>
   </g>
  </g>
 </g>
 <defs>
  <clipPath id="pd9ff11deab">
   <rect height="217.44" width="334.8" x="54" y="34.56"/>
  </clipPath>
 </defs>
</svg>
