<?xml version="1.0" encoding="utf-8" standalone="no"?>
<!DOCTYPE svg PUBLIC "-//W3C//DTD SVG 1.1//EN"
  "http://www.w3.org/Graphics/SVG/1.1/DTD/svg11.dtd">
<!-- Created with matplotlib (http://matplotlib.org/) -->
<svg height="576pt" version="1.1" viewBox="0 0 576 576" width="576pt" xmlns="http://www.w3.org/2000/svg" xmlns:xlink="http://www.w3.org/1999/xlink">
 <defs>
  <style type="text/css">
*{stroke-linecap:butt;stroke-linejoin:round;}
  </style>
 </defs>
 <g id="figure_1">
  <g id="patch_1">
   <path d="M 0 576 
L 576 576 
L 576 0 
L 0 0 
z
" style="fill:#ffffff;"/>
  </g>
  <g id="axes_1">
   <g id="patch_2">
    <path d="M 72 504 
L 518.4 504 
L 518.4 69.12 
L 72 69.12 
z
" style="fill:#ffffff;"/>
   </g>
   <g id="PathCollection_1">
    <path clip-path="url(#p7b47679721)" d="M 72.629543 495.214545 
L 76.288728 490.821818 
L 76.509091 490.557279 
L 79.947918 486.429091 
L 81.018182 485.144283 
L 83.607102 482.036364 
L 85.527273 479.731256 
L 87.266279 477.643636 
L 90.036364 474.318256 
L 90.925475 473.250909 
L 94.545455 468.90523 
L 94.584646 468.858182 
L 98.243854 464.465455 
L 99.054545 463.492249 
L 101.903037 460.072727 
L 103.563636 458.079237 
L 105.562229 455.68 
L 108.072727 452.666245 
L 109.221424 451.287273 
L 112.581818 447.253233 
L 112.880607 446.894545 
L 116.539779 442.501818 
L 117.090909 441.840206 
L 120.198969 438.109091 
L 121.6 436.427203 
L 123.858156 433.716364 
L 126.109091 431.014193 
L 127.517341 429.323636 
L 130.618182 425.601176 
L 131.176524 424.930909 
L 134.835718 420.538182 
L 135.127273 420.188181 
L 138.494899 416.145455 
L 139.636364 414.775163 
L 142.154094 411.752727 
L 144.145455 409.36217 
L 145.813281 407.36 
L 148.654545 403.949161 
L 149.472469 402.967273 
L 153.131655 398.574545 
L 153.163636 398.536153 
L 156.790845 394.181818 
L 157.672727 393.123149 
L 160.450041 389.789091 
L 162.181818 387.710156 
L 164.10923 385.396364 
L 166.690909 382.297144 
L 167.768412 381.003636 
L 171.2 376.88412 
L 171.427587 376.610909 
L 175.086781 372.218182 
L 175.709091 371.47112 
L 178.745966 367.825455 
L 180.218182 366.058116 
L 182.405157 363.432727 
L 184.727273 360.645106 
L 186.064341 359.04 
L 189.236364 355.232098 
L 189.72353 354.647273 
L 193.382714 350.254545 
L 193.745455 349.826291 
L 197.058232 345.861818 
L 198.254545 344.565328 
L 201.024288 341.469091 
L 202.763636 339.982148 
L 205.776579 337.076364 
L 207.272727 335.855054 
L 210.817045 332.683636 
L 211.781818 331.884729 
L 216.121759 328.290909 
L 216.290909 328.150839 
L 220.8 324.444983 
L 221.42651 323.898182 
L 225.309091 320.683113 
L 226.731251 319.505455 
L 229.818182 316.949239 
L 232.035988 315.112727 
L 234.327273 313.215368 
L 237.340724 310.72 
L 238.836364 309.481496 
L 242.645462 306.327273 
L 243.345455 305.747626 
L 247.854545 302.013748 
L 247.950193 301.934545 
L 252.363636 298.279881 
L 253.254933 297.541818 
L 256.872727 294.546008 
L 258.559671 293.149091 
L 261.381818 291.189069 
L 264.611547 288.756364 
L 265.890909 287.90735 
L 270.4 284.915013 
L 271.230859 284.363636 
L 274.909091 281.922682 
L 277.850178 279.970909 
L 279.418182 278.930346 
L 283.927273 275.938012 
L 284.469493 275.578182 
L 288.436364 272.945678 
L 291.415999 271.185455 
L 292.945455 270.208878 
L 297.454545 270.835595 
L 298.985506 271.185455 
L 301.963636 271.866026 
L 306.472727 272.89646 
L 310.981818 273.926891 
L 315.490909 274.957323 
L 318.207736 275.578182 
L 320 276.003351 
L 324.509091 277.199019 
L 329.018182 278.614813 
L 333.527273 279.886745 
L 338.036364 278.562489 
L 342.545455 277.133512 
L 347.054545 275.747194 
L 347.604269 275.578182 
L 351.563636 274.534379 
L 356.072727 273.201111 
L 360.581818 271.68325 
L 362.121429 271.185455 
L 365.090909 270.430146 
L 369.6 269.260692 
L 374.109091 267.948294 
L 377.67009 266.792727 
L 378.618182 266.528032 
L 383.127273 265.26915 
L 387.636364 264.075382 
L 392.145455 262.786757 
L 393.395561 262.4 
L 396.654545 261.469591 
L 401.163636 260.033935 
L 405.672727 258.410066 
L 406.706609 258.007273 
L 410.181818 256.416498 
L 414.690909 254.352463 
L 416.302968 253.614545 
L 419.2 252.288431 
L 423.709091 250.224379 
L 425.905518 249.221818 
L 428.218182 248.164794 
L 432.727273 246.124979 
L 435.6066 244.829091 
L 437.236364 244.095589 
L 441.745455 242.066206 
L 445.366783 240.436364 
L 446.254545 239.980143 
L 450.763636 237.644853 
L 453.848616 236.043636 
L 455.272727 235.304468 
L 459.781818 232.964061 
L 462.311774 231.650909 
L 464.290909 230.623658 
L 468.8 228.283262 
L 470.774958 227.258182 
L 473.309091 225.942863 
L 477.818182 223.602467 
L 479.238132 222.865455 
L 482.327273 221.262061 
L 486.836364 218.956609 
L 487.701295 218.472727 
L 491.345455 216.581268 
L 495.854545 214.272365 
L 496.164485 214.08 
L 500.363636 211.900478 
L 504.62765 209.687273 
L 504.872727 209.560067 
L 509.381818 207.387089 
L 513.090847 205.294545 
L 513.890909 204.879283 
L 518.4 202.877757 
L 518.4 200.901818 
L 518.4 196.509091 
L 518.4 192.116364 
L 518.4 187.723636 
L 518.4 183.330909 
L 518.4 178.938182 
L 518.4 174.545455 
L 518.4 170.152727 
L 518.4 165.76 
L 518.4 161.367273 
L 518.4 156.974545 
L 518.4 152.581818 
L 518.4 148.189091 
L 518.4 143.796364 
L 518.4 139.403636 
L 518.4 135.010909 
L 518.4 130.618182 
L 518.4 126.225455 
L 518.4 121.832727 
L 518.4 117.44 
L 518.4 113.047273 
L 518.4 108.654545 
L 518.4 104.261818 
L 518.4 99.869091 
L 518.4 95.476364 
L 518.4 91.083636 
L 518.4 86.690909 
L 518.4 82.298182 
L 518.4 77.905455 
L 518.4 73.512727 
L 518.4 69.12 
L 513.890909 69.12 
L 509.381818 69.12 
L 504.872727 69.12 
L 500.363636 69.12 
L 495.854545 69.12 
L 491.345455 69.12 
L 486.836364 69.12 
L 482.327273 69.12 
L 477.818182 69.12 
L 473.309091 69.12 
L 468.8 69.12 
L 464.290909 69.12 
L 459.781818 69.12 
L 455.272727 69.12 
L 450.763636 69.12 
L 446.254545 69.12 
L 441.745455 69.12 
L 437.236364 69.12 
L 432.727273 69.12 
L 428.218182 69.12 
L 423.709091 69.12 
L 419.2 69.12 
L 414.690909 69.12 
L 410.181818 69.12 
L 405.672727 69.12 
L 401.163636 69.12 
L 396.654545 69.12 
L 392.145455 69.12 
L 387.636364 69.12 
L 383.127273 69.12 
L 378.618182 69.12 
L 374.109091 69.12 
L 369.6 69.12 
L 365.090909 69.12 
L 360.581818 69.12 
L 356.072727 69.12 
L 351.563636 69.12 
L 347.054545 69.12 
L 342.545455 69.12 
L 338.036364 69.12 
L 333.527273 69.12 
L 329.018182 69.12 
L 324.509091 69.12 
L 320 69.12 
L 315.490909 69.12 
L 310.981818 69.12 
L 306.472727 69.12 
L 301.963636 69.12 
L 297.454545 69.12 
L 292.945455 69.12 
L 288.436364 69.12 
L 283.927273 69.12 
L 279.418182 69.12 
L 274.909091 69.12 
L 270.4 69.12 
L 265.890909 69.12 
L 261.381818 69.12 
L 256.872727 69.12 
L 252.363636 69.12 
L 247.854545 69.12 
L 243.345455 69.12 
L 238.836364 69.12 
L 234.327273 69.12 
L 229.818182 69.12 
L 225.309091 69.12 
L 220.8 69.12 
L 216.290909 69.12 
L 211.781818 69.12 
L 207.272727 69.12 
L 202.763636 69.12 
L 198.254545 69.12 
L 193.745455 69.12 
L 189.236364 69.12 
L 184.727273 69.12 
L 180.218182 69.12 
L 175.709091 69.12 
L 171.2 69.12 
L 166.690909 69.12 
L 162.181818 69.12 
L 157.672727 69.12 
L 153.163636 69.12 
L 148.654545 69.12 
L 144.145455 69.12 
L 139.636364 69.12 
L 135.127273 69.12 
L 130.618182 69.12 
L 126.109091 69.12 
L 121.6 69.12 
L 117.090909 69.12 
L 112.581818 69.12 
L 108.072727 69.12 
L 103.563636 69.12 
L 99.054545 69.12 
L 94.545455 69.12 
L 90.036364 69.12 
L 85.527273 69.12 
L 81.018182 69.12 
L 76.509091 69.12 
L 72 69.12 
L 72 73.512727 
L 72 77.905455 
L 72 82.298182 
L 72 86.690909 
L 72 91.083636 
L 72 95.476364 
L 72 99.869091 
L 72 104.261818 
L 72 108.654545 
L 72 113.047273 
L 72 117.44 
L 72 121.832727 
L 72 126.225455 
L 72 130.618182 
L 72 135.010909 
L 72 139.403636 
L 72 143.796364 
L 72 148.189091 
L 72 152.581818 
L 72 156.974545 
L 72 161.367273 
L 72 165.76 
L 72 170.152727 
L 72 174.545455 
L 72 178.938182 
L 72 183.330909 
L 72 187.723636 
L 72 192.116364 
L 72 196.509091 
L 72 200.901818 
L 72 205.294545 
L 72 209.687273 
L 72 214.08 
L 72 218.472727 
L 72 222.865455 
L 72 227.258182 
L 72 231.650909 
L 72 236.043636 
L 72 240.436364 
L 72 244.829091 
L 72 249.221818 
L 72 253.614545 
L 72 258.007273 
L 72 262.4 
L 72 266.792727 
L 72 271.185455 
L 72 275.578182 
L 72 279.970909 
L 72 284.363636 
L 72 288.756364 
L 72 293.149091 
L 72 297.541818 
L 72 301.934545 
L 72 306.327273 
L 72 310.72 
L 72 315.112727 
L 72 319.505455 
L 72 323.898182 
L 72 328.290909 
L 72 332.683636 
L 72 337.076364 
L 72 341.469091 
L 72 345.861818 
L 72 350.254545 
L 72 354.647273 
L 72 359.04 
L 72 363.432727 
L 72 367.825455 
L 72 372.218182 
L 72 376.610909 
L 72 381.003636 
L 72 385.396364 
L 72 389.789091 
L 72 394.181818 
L 72 398.574545 
L 72 402.967273 
L 72 407.36 
L 72 411.752727 
L 72 416.145455 
L 72 420.538182 
L 72 424.930909 
L 72 429.323636 
L 72 433.716364 
L 72 438.109091 
L 72 442.501818 
L 72 446.894545 
L 72 451.287273 
L 72 455.68 
L 72 460.072727 
L 72 464.465455 
L 72 468.858182 
L 72 473.250909 
L 72 477.643636 
L 72 482.036364 
L 72 486.429091 
L 72 490.821818 
L 72 495.214545 
L 72 495.970293 
z
" style="fill:#8db0fe;"/>
   </g>
   <g id="PathCollection_2">
    <path clip-path="url(#p7b47679721)" d="M 76.509091 504 
L 81.018182 504 
L 85.527273 504 
L 90.036364 504 
L 94.545455 504 
L 99.054545 504 
L 103.563636 504 
L 108.072727 504 
L 112.581818 504 
L 117.090909 504 
L 121.6 504 
L 126.109091 504 
L 130.618182 504 
L 135.127273 504 
L 139.636364 504 
L 144.145455 504 
L 148.654545 504 
L 153.163636 504 
L 157.672727 504 
L 162.181818 504 
L 166.690909 504 
L 171.2 504 
L 175.709091 504 
L 180.218182 504 
L 184.727273 504 
L 189.236364 504 
L 193.745455 504 
L 198.254545 504 
L 202.763636 504 
L 207.272727 504 
L 211.781818 504 
L 216.290909 504 
L 220.8 504 
L 225.309091 504 
L 229.818182 504 
L 234.327273 504 
L 238.836364 504 
L 243.345455 504 
L 247.854545 504 
L 252.363636 504 
L 256.872727 504 
L 261.381818 504 
L 265.890909 504 
L 270.4 504 
L 274.909091 504 
L 279.418182 504 
L 283.927273 504 
L 288.436364 504 
L 292.945455 504 
L 297.454545 504 
L 301.963636 504 
L 306.472727 504 
L 310.981818 504 
L 315.490909 504 
L 320 504 
L 324.509091 504 
L 329.018182 504 
L 333.527273 504 
L 338.036364 504 
L 342.545455 504 
L 347.054545 504 
L 351.563636 504 
L 356.072727 504 
L 360.581818 504 
L 365.090909 504 
L 369.6 504 
L 374.109091 504 
L 378.618182 504 
L 383.127273 504 
L 387.636364 504 
L 392.145455 504 
L 396.654545 504 
L 401.163636 504 
L 405.672727 504 
L 410.181818 504 
L 414.690909 504 
L 419.2 504 
L 423.709091 504 
L 428.218182 504 
L 432.727273 504 
L 437.236364 504 
L 441.745455 504 
L 446.254545 504 
L 450.763636 504 
L 455.272727 504 
L 459.781818 504 
L 464.290909 504 
L 468.8 504 
L 473.309091 504 
L 477.818182 504 
L 482.327273 504 
L 486.836364 504 
L 491.345455 504 
L 495.854545 504 
L 500.363636 504 
L 504.872727 504 
L 509.381818 504 
L 513.890909 504 
L 518.4 504 
L 518.4 499.607273 
L 518.4 495.214545 
L 518.4 490.821818 
L 518.4 486.429091 
L 518.4 482.036364 
L 518.4 477.643636 
L 518.4 473.250909 
L 518.4 468.858182 
L 518.4 464.465455 
L 518.4 460.072727 
L 518.4 455.68 
L 518.4 451.287273 
L 518.4 446.894545 
L 518.4 442.501818 
L 518.4 438.109091 
L 518.4 433.716364 
L 518.4 429.323636 
L 518.4 424.930909 
L 518.4 420.538182 
L 518.4 416.145455 
L 518.4 411.752727 
L 518.4 407.36 
L 518.4 402.967273 
L 518.4 398.574545 
L 518.4 394.181818 
L 518.4 389.789091 
L 518.4 385.396364 
L 518.4 381.003636 
L 518.4 376.610909 
L 518.4 372.218182 
L 518.4 367.825455 
L 518.4 363.432727 
L 518.4 359.04 
L 518.4 354.647273 
L 518.4 350.254545 
L 518.4 345.861818 
L 518.4 341.469091 
L 518.4 337.076364 
L 518.4 332.683636 
L 518.4 328.290909 
L 518.4 323.898182 
L 518.4 319.505455 
L 518.4 315.112727 
L 518.4 310.72 
L 518.4 306.327273 
L 518.4 301.934545 
L 518.4 297.541818 
L 518.4 293.149091 
L 518.4 288.756364 
L 518.4 284.363636 
L 518.4 279.970909 
L 518.4 275.578182 
L 518.4 271.185455 
L 518.4 266.792727 
L 518.4 262.4 
L 518.4 258.007273 
L 518.4 253.614545 
L 518.4 249.221818 
L 518.4 244.829091 
L 518.4 240.436364 
L 518.4 236.043636 
L 518.4 231.650909 
L 518.4 227.258182 
L 518.4 222.865455 
L 518.4 218.472727 
L 518.4 214.08 
L 518.4 209.687273 
L 518.4 205.294545 
L 518.4 202.877757 
L 513.890909 204.879283 
L 513.090847 205.294545 
L 509.381818 207.387089 
L 504.872727 209.560067 
L 504.62765 209.687273 
L 500.363636 211.900478 
L 496.164485 214.08 
L 495.854545 214.272365 
L 491.345455 216.581268 
L 487.701295 218.472727 
L 486.836364 218.956609 
L 482.327273 221.262061 
L 479.238132 222.865455 
L 477.818182 223.602467 
L 473.309091 225.942863 
L 470.774958 227.258182 
L 468.8 228.283262 
L 464.290909 230.623658 
L 462.311774 231.650909 
L 459.781818 232.964061 
L 455.272727 235.304468 
L 453.848616 236.043636 
L 450.763636 237.644853 
L 446.254545 239.980143 
L 445.366783 240.436364 
L 441.745455 242.066206 
L 437.236364 244.095589 
L 435.6066 244.829091 
L 432.727273 246.124979 
L 428.218182 248.164794 
L 425.905518 249.221818 
L 423.709091 250.224379 
L 419.2 252.288431 
L 416.302968 253.614545 
L 414.690909 254.352463 
L 410.181818 256.416498 
L 406.706609 258.007273 
L 405.672727 258.410066 
L 401.163636 260.033935 
L 396.654545 261.469591 
L 393.395561 262.4 
L 392.145455 262.786757 
L 387.636364 264.075382 
L 383.127273 265.26915 
L 378.618182 266.528032 
L 377.67009 266.792727 
L 374.109091 267.948294 
L 369.6 269.260692 
L 365.090909 270.430146 
L 362.121429 271.185455 
L 360.581818 271.68325 
L 356.072727 273.201111 
L 351.563636 274.534379 
L 347.604269 275.578182 
L 347.054545 275.747194 
L 342.545455 277.133512 
L 338.036364 278.562489 
L 333.527273 279.886745 
L 329.018182 278.614813 
L 324.509091 277.199019 
L 320 276.003351 
L 318.207736 275.578182 
L 315.490909 274.957323 
L 310.981818 273.926891 
L 306.472727 272.89646 
L 301.963636 271.866026 
L 298.985506 271.185455 
L 297.454545 270.835595 
L 292.945455 270.208878 
L 291.415999 271.185455 
L 288.436364 272.945678 
L 284.469493 275.578182 
L 283.927273 275.938012 
L 279.418182 278.930346 
L 277.850178 279.970909 
L 274.909091 281.922682 
L 271.230859 284.363636 
L 270.4 284.915013 
L 265.890909 287.90735 
L 264.611547 288.756364 
L 261.381818 291.189069 
L 258.559671 293.149091 
L 256.872727 294.546008 
L 253.254933 297.541818 
L 252.363636 298.279881 
L 247.950193 301.934545 
L 247.854545 302.013748 
L 243.345455 305.747626 
L 242.645462 306.327273 
L 238.836364 309.481496 
L 237.340724 310.72 
L 234.327273 313.215368 
L 232.035988 315.112727 
L 229.818182 316.949239 
L 226.731251 319.505455 
L 225.309091 320.683113 
L 221.42651 323.898182 
L 220.8 324.444983 
L 216.290909 328.150839 
L 216.121759 328.290909 
L 211.781818 331.884729 
L 210.817045 332.683636 
L 207.272727 335.855054 
L 205.776579 337.076364 
L 202.763636 339.982148 
L 201.024288 341.469091 
L 198.254545 344.565328 
L 197.058232 345.861818 
L 193.745455 349.826291 
L 193.382714 350.254545 
L 189.72353 354.647273 
L 189.236364 355.232098 
L 186.064341 359.04 
L 184.727273 360.645106 
L 182.405157 363.432727 
L 180.218182 366.058116 
L 178.745966 367.825455 
L 175.709091 371.47112 
L 175.086781 372.218182 
L 171.427587 376.610909 
L 171.2 376.88412 
L 167.768412 381.003636 
L 166.690909 382.297144 
L 164.10923 385.396364 
L 162.181818 387.710156 
L 160.450041 389.789091 
L 157.672727 393.123149 
L 156.790845 394.181818 
L 153.163636 398.536153 
L 153.131655 398.574545 
L 149.472469 402.967273 
L 148.654545 403.949161 
L 145.813281 407.36 
L 144.145455 409.36217 
L 142.154094 411.752727 
L 139.636364 414.775163 
L 138.494899 416.145455 
L 135.127273 420.188181 
L 134.835718 420.538182 
L 131.176524 424.930909 
L 130.618182 425.601176 
L 127.517341 429.323636 
L 126.109091 431.014193 
L 123.858156 433.716364 
L 121.6 436.427203 
L 120.198969 438.109091 
L 117.090909 441.840206 
L 116.539779 442.501818 
L 112.880607 446.894545 
L 112.581818 447.253233 
L 109.221424 451.287273 
L 108.072727 452.666245 
L 105.562229 455.68 
L 103.563636 458.079237 
L 101.903037 460.072727 
L 99.054545 463.492249 
L 98.243854 464.465455 
L 94.584646 468.858182 
L 94.545455 468.90523 
L 90.925475 473.250909 
L 90.036364 474.318256 
L 87.266279 477.643636 
L 85.527273 479.731256 
L 83.607102 482.036364 
L 81.018182 485.144283 
L 79.947918 486.429091 
L 76.509091 490.557279 
L 76.288728 490.821818 
L 72.629543 495.214545 
L 72 495.970293 
L 72 499.607273 
L 72 504 
z
" style="fill:#f4987a;"/>
   </g>
   <g id="matplotlib.axis_1">
    <g id="xtick_1">
     <g id="line2d_1">
      <defs>
       <path d="M 0 0 
L 0 3.5 
" id="m8bbade107f" style="stroke:#000000;stroke-width:0.8;"/>
      </defs>
      <g>
       <use style="stroke:#000000;stroke-width:0.8;" x="116.64" xlink:href="#m8bbade107f" y="504"/>
      </g>
     </g>
     <g id="text_1">
      <!-- −4 -->
      <defs>
       <path d="M 10.59375 35.5 
L 73.1875 35.5 
L 73.1875 27.203125 
L 10.59375 27.203125 
z
" id="DejaVuSans-2212"/>
       <path d="M 37.796875 64.3125 
L 12.890625 25.390625 
L 37.796875 25.390625 
z
M 35.203125 72.90625 
L 47.609375 72.90625 
L 47.609375 25.390625 
L 58.015625 25.390625 
L 58.015625 17.1875 
L 47.609375 17.1875 
L 47.609375 0 
L 37.796875 0 
L 37.796875 17.1875 
L 4.890625 17.1875 
L 4.890625 26.703125 
z
" id="DejaVuSans-34"/>
      </defs>
      <g transform="translate(109.268906 518.598438)scale(0.1 -0.1)">
       <use xlink:href="#DejaVuSans-2212"/>
       <use x="83.789062" xlink:href="#DejaVuSans-34"/>
      </g>
     </g>
    </g>
    <g id="xtick_2">
     <g id="line2d_2">
      <g>
       <use style="stroke:#000000;stroke-width:0.8;" x="205.92" xlink:href="#m8bbade107f" y="504"/>
      </g>
     </g>
     <g id="text_2">
      <!-- −2 -->
      <defs>
       <path d="M 19.1875 8.296875 
L 53.609375 8.296875 
L 53.609375 0 
L 7.328125 0 
L 7.328125 8.296875 
Q 12.9375 14.109375 22.625 23.890625 
Q 32.328125 33.6875 34.8125 36.53125 
Q 39.546875 41.84375 41.421875 45.53125 
Q 43.3125 49.21875 43.3125 52.78125 
Q 43.3125 58.59375 39.234375 62.25 
Q 35.15625 65.921875 28.609375 65.921875 
Q 23.96875 65.921875 18.8125 64.3125 
Q 13.671875 62.703125 7.8125 59.421875 
L 7.8125 69.390625 
Q 13.765625 71.78125 18.9375 73 
Q 24.125 74.21875 28.421875 74.21875 
Q 39.75 74.21875 46.484375 68.546875 
Q 53.21875 62.890625 53.21875 53.421875 
Q 53.21875 48.921875 51.53125 44.890625 
Q 49.859375 40.875 45.40625 35.40625 
Q 44.1875 33.984375 37.640625 27.21875 
Q 31.109375 20.453125 19.1875 8.296875 
z
" id="DejaVuSans-32"/>
      </defs>
      <g transform="translate(198.548906 518.598438)scale(0.1 -0.1)">
       <use xlink:href="#DejaVuSans-2212"/>
       <use x="83.789062" xlink:href="#DejaVuSans-32"/>
      </g>
     </g>
    </g>
    <g id="xtick_3">
     <g id="line2d_3">
      <g>
       <use style="stroke:#000000;stroke-width:0.8;" x="295.2" xlink:href="#m8bbade107f" y="504"/>
      </g>
     </g>
     <g id="text_3">
      <!-- 0 -->
      <defs>
       <path d="M 31.78125 66.40625 
Q 24.171875 66.40625 20.328125 58.90625 
Q 16.5 51.421875 16.5 36.375 
Q 16.5 21.390625 20.328125 13.890625 
Q 24.171875 6.390625 31.78125 6.390625 
Q 39.453125 6.390625 43.28125 13.890625 
Q 47.125 21.390625 47.125 36.375 
Q 47.125 51.421875 43.28125 58.90625 
Q 39.453125 66.40625 31.78125 66.40625 
z
M 31.78125 74.21875 
Q 44.046875 74.21875 50.515625 64.515625 
Q 56.984375 54.828125 56.984375 36.375 
Q 56.984375 17.96875 50.515625 8.265625 
Q 44.046875 -1.421875 31.78125 -1.421875 
Q 19.53125 -1.421875 13.0625 8.265625 
Q 6.59375 17.96875 6.59375 36.375 
Q 6.59375 54.828125 13.0625 64.515625 
Q 19.53125 74.21875 31.78125 74.21875 
z
" id="DejaVuSans-30"/>
      </defs>
      <g transform="translate(292.01875 518.598438)scale(0.1 -0.1)">
       <use xlink:href="#DejaVuSans-30"/>
      </g>
     </g>
    </g>
    <g id="xtick_4">
     <g id="line2d_4">
      <g>
       <use style="stroke:#000000;stroke-width:0.8;" x="384.48" xlink:href="#m8bbade107f" y="504"/>
      </g>
     </g>
     <g id="text_4">
      <!-- 2 -->
      <g transform="translate(381.29875 518.598438)scale(0.1 -0.1)">
       <use xlink:href="#DejaVuSans-32"/>
      </g>
     </g>
    </g>
    <g id="xtick_5">
     <g id="line2d_5">
      <g>
       <use style="stroke:#000000;stroke-width:0.8;" x="473.76" xlink:href="#m8bbade107f" y="504"/>
      </g>
     </g>
     <g id="text_5">
      <!-- 4 -->
      <g transform="translate(470.57875 518.598438)scale(0.1 -0.1)">
       <use xlink:href="#DejaVuSans-34"/>
      </g>
     </g>
    </g>
   </g>
   <g id="matplotlib.axis_2">
    <g id="ytick_1">
     <g id="line2d_6">
      <defs>
       <path d="M 0 0 
L -3.5 0 
" id="m39f1953aba" style="stroke:#000000;stroke-width:0.8;"/>
      </defs>
      <g>
       <use style="stroke:#000000;stroke-width:0.8;" x="72" xlink:href="#m39f1953aba" y="460.512"/>
      </g>
     </g>
     <g id="text_6">
      <!-- −4 -->
      <g transform="translate(50.257812 464.311219)scale(0.1 -0.1)">
       <use xlink:href="#DejaVuSans-2212"/>
       <use x="83.789062" xlink:href="#DejaVuSans-34"/>
      </g>
     </g>
    </g>
    <g id="ytick_2">
     <g id="line2d_7">
      <g>
       <use style="stroke:#000000;stroke-width:0.8;" x="72" xlink:href="#m39f1953aba" y="373.536"/>
      </g>
     </g>
     <g id="text_7">
      <!-- −2 -->
      <g transform="translate(50.257812 377.335219)scale(0.1 -0.1)">
       <use xlink:href="#DejaVuSans-2212"/>
       <use x="83.789062" xlink:href="#DejaVuSans-32"/>
      </g>
     </g>
    </g>
    <g id="ytick_3">
     <g id="line2d_8">
      <g>
       <use style="stroke:#000000;stroke-width:0.8;" x="72" xlink:href="#m39f1953aba" y="286.56"/>
      </g>
     </g>
     <g id="text_8">
      <!-- 0 -->
      <g transform="translate(58.6375 290.359219)scale(0.1 -0.1)">
       <use xlink:href="#DejaVuSans-30"/>
      </g>
     </g>
    </g>
    <g id="ytick_4">
     <g id="line2d_9">
      <g>
       <use style="stroke:#000000;stroke-width:0.8;" x="72" xlink:href="#m39f1953aba" y="199.584"/>
      </g>
     </g>
     <g id="text_9">
      <!-- 2 -->
      <g transform="translate(58.6375 203.383219)scale(0.1 -0.1)">
       <use xlink:href="#DejaVuSans-32"/>
      </g>
     </g>
    </g>
    <g id="ytick_5">
     <g id="line2d_10">
      <g>
       <use style="stroke:#000000;stroke-width:0.8;" x="72" xlink:href="#m39f1953aba" y="112.608"/>
      </g>
     </g>
     <g id="text_10">
      <!-- 4 -->
      <g transform="translate(58.6375 116.407219)scale(0.1 -0.1)">
       <use xlink:href="#DejaVuSans-34"/>
      </g>
     </g>
    </g>
   </g>
   <g id="patch_3">
    <path d="M 72 504 
L 72 69.12 
" style="fill:none;stroke:#000000;stroke-linecap:square;stroke-linejoin:miter;stroke-width:0.8;"/>
   </g>
   <g id="patch_4">
    <path d="M 518.4 504 
L 518.4 69.12 
" style="fill:none;stroke:#000000;stroke-linecap:square;stroke-linejoin:miter;stroke-width:0.8;"/>
   </g>
   <g id="patch_5">
    <path d="M 72 504 
L 518.4 504 
" style="fill:none;stroke:#000000;stroke-linecap:square;stroke-linejoin:miter;stroke-width:0.8;"/>
   </g>
   <g id="patch_6">
    <path d="M 72 69.12 
L 518.4 69.12 
" style="fill:none;stroke:#000000;stroke-linecap:square;stroke-linejoin:miter;stroke-width:0.8;"/>
   </g>
  </g>
 </g>
 <defs>
  <clipPath id="p7b47679721">
   <rect height="434.88" width="446.4" x="72" y="69.12"/>
  </clipPath>
 </defs>
</svg>
