<?xml version="1.0" encoding="utf-8" standalone="no"?>
<!DOCTYPE svg PUBLIC "-//W3C//DTD SVG 1.1//EN"
  "http://www.w3.org/Graphics/SVG/1.1/DTD/svg11.dtd">
<!-- Created with matplotlib (http://matplotlib.org/) -->
<svg height="288pt" version="1.1" viewBox="0 0 432 288" width="432pt" xmlns="http://www.w3.org/2000/svg" xmlns:xlink="http://www.w3.org/1999/xlink">
 <defs>
  <style type="text/css">
*{stroke-linecap:butt;stroke-linejoin:round;}
  </style>
 </defs>
 <g id="figure_1">
  <g id="patch_1">
   <path d="M 0 288 
L 432 288 
L 432 0 
L 0 0 
z
" style="fill:#ffffff;"/>
  </g>
  <g id="axes_1">
   <g id="patch_2">
    <path d="M 54 252 
L 388.8 252 
L 388.8 34.56 
L 54 34.56 
z
" style="fill:#ffffff;"/>
   </g>
   <g id="patch_3">
    <path clip-path="url(#p4c13df23ec)" d="M -1570.004647 1566.241265 
L -141.045499 267.81315 
L 86.55324 174.544481 
L 128.519723 196.617496 
L -127.180263 462.589658 
z
" style="opacity:0.6;stroke-dasharray:0,0;stroke-dashoffset:0;"/>
   </g>
   <g id="patch_4">
    <path clip-path="url(#p4c13df23ec)" d="M -141.045499 267.81315 
L -13.820401 152.209674 
L 45.175828 152.781298 
L 86.55324 174.544481 
z
" style="fill:#0143da;opacity:0.6;stroke-dasharray:0,0;stroke-dashoffset:0;"/>
   </g>
   <g id="patch_5">
    <path clip-path="url(#p4c13df23ec)" d="M 86.55324 174.544481 
L 45.175828 152.781298 
L 137.478419 153.675632 
z
" style="fill:#0287b4;opacity:0.6;stroke-dasharray:0,0;stroke-dashoffset:0;"/>
   </g>
   <g id="patch_6">
    <path clip-path="url(#p4c13df23ec)" d="M 45.175828 152.781298 
L 7.410637 132.918027 
L 22.468347 119.235793 
L 104.490859 115.428923 
L 166.623789 140.310827 
L 166.26278 141.879964 
L 137.478419 153.675632 
z
" style="fill:#03cb8e;opacity:0.6;stroke-dasharray:0,0;stroke-dashoffset:0;"/>
   </g>
   <g id="patch_7">
    <path clip-path="url(#p4c13df23ec)" d="M 22.468347 119.235793 
L 24.848863 117.072729 
L 56.498744 96.209885 
L 104.490859 115.428923 
z
" style="fill:#050f68;opacity:0.6;stroke-dasharray:0,0;stroke-dashoffset:0;"/>
   </g>
   <g id="patch_8">
    <path clip-path="url(#p4c13df23ec)" d="M 24.848863 117.072729 
L 50.467254 93.794499 
L 56.498744 96.209885 
z
" style="fill:#065342;opacity:0.6;stroke-dasharray:0,0;stroke-dashoffset:0;"/>
   </g>
   <g id="patch_9">
    <path clip-path="url(#p4c13df23ec)" d="M 56.498744 96.209885 
L 50.467254 93.794499 
L 98.203029 50.419242 
L 111.566535 59.910514 
z
" style="fill:#07971c;opacity:0.6;stroke-dasharray:0,0;stroke-dashoffset:0;"/>
   </g>
   <g id="patch_10">
    <path clip-path="url(#p4c13df23ec)" d="M 54 90.584459 
L 54 34.56 
L 75.873559 34.56 
L 98.203029 50.419242 
z
" style="fill:#08daf6;opacity:0.6;stroke-dasharray:0,0;stroke-dashoffset:0;"/>
   </g>
   <g id="patch_11">
    <path clip-path="url(#p4c13df23ec)" d="M 104.490859 115.428923 
L 56.498744 96.209885 
L 111.566535 59.910514 
L 174.790364 104.81449 
L 173.080726 112.245496 
z
" style="fill:#0a1ed0;opacity:0.6;stroke-dasharray:0,0;stroke-dashoffset:0;"/>
   </g>
   <g id="patch_12">
    <path clip-path="url(#p4c13df23ec)" d="M -127.180263 462.589658 
L 128.519723 196.617496 
L 150.954611 208.417522 
L 150.164686 211.850962 
L 35.427092 338.20732 
z
" style="fill:#0b62aa;opacity:0.6;stroke-dasharray:0,0;stroke-dashoffset:0;"/>
   </g>
   <g id="patch_13">
    <path clip-path="url(#p4c13df23ec)" d="M 75.873559 34.56 
L 115.656601 34.56 
L 98.203029 50.419242 
z
" style="fill:#0ca684;opacity:0.6;stroke-dasharray:0,0;stroke-dashoffset:0;"/>
   </g>
   <g id="patch_14">
    <path clip-path="url(#p4c13df23ec)" d="M 86.55324 174.544481 
L 137.478419 153.675632 
L 163.490987 153.927672 
L 161.59897 162.151399 
L 128.519724 196.617496 
z
" style="fill:#0dea5e;opacity:0.6;stroke-dasharray:0,0;stroke-dashoffset:0;"/>
   </g>
   <g id="patch_15">
    <path clip-path="url(#p4c13df23ec)" d="M 111.566535 59.910514 
L 98.203029 50.419242 
L 118.960566 31.557842 
L 133.038287 45.756848 
z
" style="fill:#0f2e38;opacity:0.6;stroke-dasharray:0,0;stroke-dashoffset:0;"/>
   </g>
   <g id="patch_16">
    <path clip-path="url(#p4c13df23ec)" d="M 104.490859 115.428923 
L 173.080726 112.245496 
L 166.623789 140.310827 
z
" style="fill:#107212;opacity:0.6;stroke-dasharray:0,0;stroke-dashoffset:0;"/>
   </g>
   <g id="patch_17">
    <path clip-path="url(#p4c13df23ec)" d="M 111.566535 59.910514 
L 133.038287 45.756848 
L 177.954764 91.060298 
L 174.790364 104.81449 
z
" style="fill:#11b5ec;opacity:0.6;stroke-dasharray:0,0;stroke-dashoffset:0;"/>
   </g>
   <g id="patch_18">
    <path clip-path="url(#p4c13df23ec)" d="M 35.427092 338.20732 
L 150.164686 211.850962 
L 141.654066 248.842701 
L 137.003207 260.50927 
z
" style="fill:#12f9c6;opacity:0.6;stroke-dasharray:0,0;stroke-dashoffset:0;"/>
   </g>
   <g id="patch_19">
    <path clip-path="url(#p4c13df23ec)" d="M 133.038287 45.756848 
L 118.960566 31.557842 
L 176.448393 -20.678648 
L 190.318282 7.999245 
z
" style="fill:#143da0;opacity:0.6;stroke-dasharray:0,0;stroke-dashoffset:0;"/>
   </g>
   <g id="patch_20">
    <path clip-path="url(#p4c13df23ec)" d="M 128.519724 196.617496 
L 161.59897 162.151399 
L 150.954611 208.417522 
z
" style="fill:#15817a;opacity:0.6;stroke-dasharray:0,0;stroke-dashoffset:0;"/>
   </g>
   <g id="patch_21">
    <path clip-path="url(#p4c13df23ec)" d="M 133.038287 45.756848 
L 190.318282 7.999245 
L 194.889803 17.451491 
L 177.954764 91.060298 
z
" style="fill:#16c554;opacity:0.6;stroke-dasharray:0,0;stroke-dashoffset:0;"/>
   </g>
   <g id="patch_22">
    <path clip-path="url(#p4c13df23ec)" d="M 137.478419 153.675632 
L 166.26278 141.879964 
L 163.490987 153.927672 
z
" style="fill:#18092e;opacity:0.6;stroke-dasharray:0,0;stroke-dashoffset:0;"/>
   </g>
   <g id="patch_23">
    <path clip-path="url(#p4c13df23ec)" d="M 139.39 258.683553 
L 141.654066 248.842701 
L 156.588259 211.380639 
L 183.040931 225.29389 
z
" style="fill:#194d08;opacity:0.6;stroke-dasharray:0,0;stroke-dashoffset:0;"/>
   </g>
   <g id="patch_24">
    <path clip-path="url(#p4c13df23ec)" d="M 141.654066 248.842701 
L 150.164686 211.850962 
L 152.530001 209.246126 
L 156.588259 211.380639 
z
" style="fill:#1a90e2;opacity:0.6;stroke-dasharray:0,0;stroke-dashoffset:0;"/>
   </g>
   <g id="patch_25">
    <path clip-path="url(#p4c13df23ec)" d="M 129.662419 300.964862 
L 139.39 258.683553 
L 183.040931 225.29389 
L 187.102274 227.430025 
z
" style="fill:#1bd4bc;opacity:0.6;stroke-dasharray:0,0;stroke-dashoffset:0;"/>
   </g>
   <g id="patch_26">
    <path clip-path="url(#p4c13df23ec)" d="M 150.164686 211.850962 
L 150.954611 208.417522 
L 152.530001 209.246126 
z
" style="fill:#1d1896;opacity:0.6;stroke-dasharray:0,0;stroke-dashoffset:0;"/>
   </g>
   <g id="patch_27">
    <path clip-path="url(#p4c13df23ec)" d="M 161.281032 199.608932 
L 152.530001 209.246126 
L 150.954611 208.417522 
L 161.598969 162.151402 
L 169.48374 153.985736 
L 179.430229 154.08211 
z
" style="fill:#1e5c70;opacity:0.6;stroke-dasharray:0,0;stroke-dashoffset:0;"/>
   </g>
   <g id="patch_28">
    <path clip-path="url(#p4c13df23ec)" d="M 152.530001 209.246126 
L 161.281032 199.608932 
L 156.588259 211.380639 
z
" style="fill:#1fa04a;opacity:0.6;stroke-dasharray:0,0;stroke-dashoffset:0;"/>
   </g>
   <g id="patch_29">
    <path clip-path="url(#p4c13df23ec)" d="M 156.588259 211.380639 
L 161.281032 199.608932 
L 202.192402 154.55472 
L 224.063287 163.313188 
L 225.53104 178.233296 
L 197.276824 214.404508 
L 183.040931 225.29389 
z
" style="fill:#20e424;opacity:0.6;stroke-dasharray:0,0;stroke-dashoffset:0;"/>
   </g>
   <g id="patch_30">
    <path clip-path="url(#p4c13df23ec)" d="M 161.281032 199.608932 
L 179.430229 154.08211 
L 201.547361 154.296406 
L 202.192402 154.55472 
z
" style="fill:#2227fe;opacity:0.6;stroke-dasharray:0,0;stroke-dashoffset:0;"/>
   </g>
   <g id="patch_31">
    <path clip-path="url(#p4c13df23ec)" d="M 161.598969 162.151402 
L 163.490987 153.927672 
L 169.48374 153.985736 
z
" style="fill:#236bd8;opacity:0.6;stroke-dasharray:0,0;stroke-dashoffset:0;"/>
   </g>
   <g id="patch_32">
    <path clip-path="url(#p4c13df23ec)" d="M 169.483743 153.985736 
L 163.490987 153.927672 
L 166.26278 141.879964 
L 168.377798 141.013242 
L 179.620963 145.515707 
z
" style="fill:#24afb2;opacity:0.6;stroke-dasharray:0,0;stroke-dashoffset:0;"/>
   </g>
   <g id="patch_33">
    <path clip-path="url(#p4c13df23ec)" d="M 166.26278 141.879964 
L 166.623789 140.310827 
L 168.377798 141.013242 
z
" style="fill:#25f38c;opacity:0.6;stroke-dasharray:0,0;stroke-dashoffset:0;"/>
   </g>
   <g id="patch_34">
    <path clip-path="url(#p4c13df23ec)" d="M 25.28129 754.661517 
L 129.662419 300.964862 
L 187.102274 227.430025 
L 215.608267 242.423257 
z
" style="fill:#273766;opacity:0.6;stroke-dasharray:0,0;stroke-dashoffset:0;"/>
   </g>
   <g id="patch_35">
    <path clip-path="url(#p4c13df23ec)" d="M 168.377798 141.013242 
L 166.623789 140.310827 
L 173.080726 112.245496 
L 184.506416 111.715201 
L 193.713017 118.254081 
L 187.815537 133.047767 
z
" style="fill:#287b40;opacity:0.6;stroke-dasharray:0,0;stroke-dashoffset:0;"/>
   </g>
   <g id="patch_36">
    <path clip-path="url(#p4c13df23ec)" d="M 169.483743 153.985736 
L 179.620963 145.515707 
L 182.401342 146.629144 
L 179.430229 154.08211 
z
" style="fill:#29bf1a;opacity:0.6;stroke-dasharray:0,0;stroke-dashoffset:0;"/>
   </g>
   <g id="patch_37">
    <path clip-path="url(#p4c13df23ec)" d="M 168.377798 141.013242 
L 187.815537 133.047767 
L 184.367961 141.695927 
L 179.620963 145.515707 
z
" style="fill:#2b02f4;opacity:0.6;stroke-dasharray:0,0;stroke-dashoffset:0;"/>
   </g>
   <g id="patch_38">
    <path clip-path="url(#p4c13df23ec)" d="M 173.080726 112.245496 
L 174.790364 104.81449 
L 184.506416 111.715201 
z
" style="fill:#2c46ce;opacity:0.6;stroke-dasharray:0,0;stroke-dashoffset:0;"/>
   </g>
   <g id="patch_39">
    <path clip-path="url(#p4c13df23ec)" d="M 174.790364 104.81449 
L 177.954764 91.060298 
L 196.925833 110.19481 
L 196.542424 111.15658 
L 184.506416 111.715201 
z
" style="fill:#2d8aa8;opacity:0.6;stroke-dasharray:0,0;stroke-dashoffset:0;"/>
   </g>
   <g id="patch_40">
    <path clip-path="url(#p4c13df23ec)" d="M 196.925833 110.19481 
L 177.954764 91.060298 
L 194.889803 17.451491 
L 213.499527 55.92964 
L 214.500845 66.108316 
z
" style="fill:#2ece82;opacity:0.6;stroke-dasharray:0,0;stroke-dashoffset:0;"/>
   </g>
   <g id="patch_41">
    <path clip-path="url(#p4c13df23ec)" d="M 179.430229 154.08211 
L 182.401342 146.629144 
L 201.547361 154.296406 
z
" style="fill:#30125c;opacity:0.6;stroke-dasharray:0,0;stroke-dashoffset:0;"/>
   </g>
   <g id="patch_42">
    <path clip-path="url(#p4c13df23ec)" d="M 179.620963 145.515707 
L 184.367961 141.695927 
L 182.401342 146.629144 
z
" style="fill:#315636;opacity:0.6;stroke-dasharray:0,0;stroke-dashoffset:0;"/>
   </g>
   <g id="patch_43">
    <path clip-path="url(#p4c13df23ec)" d="M 182.401342 146.629144 
L 184.367962 141.695926 
L 201.723341 127.348428 
L 204.763529 126.102577 
L 218.906851 136.147704 
L 202.419293 154.304854 
L 201.547361 154.296406 
z
" style="fill:#329a10;opacity:0.6;stroke-dasharray:0,0;stroke-dashoffset:0;"/>
   </g>
   <g id="patch_44">
    <path clip-path="url(#p4c13df23ec)" d="M 183.040931 225.29389 
L 197.276824 214.404508 
L 187.102274 227.430025 
z
" style="fill:#33ddea;opacity:0.6;stroke-dasharray:0,0;stroke-dashoffset:0;"/>
   </g>
   <g id="patch_45">
    <path clip-path="url(#p4c13df23ec)" d="M 184.367962 141.695926 
L 187.815537 133.047767 
L 201.723341 127.348428 
z
" style="fill:#3521c4;opacity:0.6;stroke-dasharray:0,0;stroke-dashoffset:0;"/>
   </g>
   <g id="patch_46">
    <path clip-path="url(#p4c13df23ec)" d="M 184.506416 111.715201 
L 196.542424 111.15658 
L 193.713017 118.254081 
z
" style="fill:#36659e;opacity:0.6;stroke-dasharray:0,0;stroke-dashoffset:0;"/>
   </g>
   <g id="patch_47">
    <path clip-path="url(#p4c13df23ec)" d="M 187.102274 227.430025 
L 197.276824 214.404508 
L 226.863025 191.7733 
L 228.477182 208.181649 
L 215.608267 242.423257 
z
" style="fill:#37a978;opacity:0.6;stroke-dasharray:0,0;stroke-dashoffset:0;"/>
   </g>
   <g id="patch_48">
    <path clip-path="url(#p4c13df23ec)" d="M 187.815537 133.047767 
L 193.713017 118.254081 
L 203.859886 125.460775 
L 201.723346 127.348426 
z
" style="fill:#38ed52;opacity:0.6;stroke-dasharray:0,0;stroke-dashoffset:0;"/>
   </g>
   <g id="patch_49">
    <path clip-path="url(#p4c13df23ec)" d="M 193.713017 118.254081 
L 196.542424 111.15658 
L 197.820573 111.097258 
L 209.35086 122.726883 
L 203.859885 125.460774 
z
" style="fill:#3a312c;opacity:0.6;stroke-dasharray:0,0;stroke-dashoffset:0;"/>
   </g>
   <g id="patch_50">
    <path clip-path="url(#p4c13df23ec)" d="M 196.542424 111.15658 
L 196.925833 110.19481 
L 197.820573 111.097258 
z
" style="fill:#3b7506;opacity:0.6;stroke-dasharray:0,0;stroke-dashoffset:0;"/>
   </g>
   <g id="patch_51">
    <path clip-path="url(#p4c13df23ec)" d="M 197.276824 214.404508 
L 225.53104 178.233296 
L 226.863025 191.7733 
z
" style="fill:#3cb8e0;opacity:0.6;stroke-dasharray:0,0;stroke-dashoffset:0;"/>
   </g>
   <g id="patch_52">
    <path clip-path="url(#p4c13df23ec)" d="M 197.820573 111.097258 
L 196.925833 110.19481 
L 214.500845 66.108316 
L 218.830664 110.122127 
z
" style="fill:#3dfcba;opacity:0.6;stroke-dasharray:0,0;stroke-dashoffset:0;"/>
   </g>
   <g id="patch_53">
    <path clip-path="url(#p4c13df23ec)" d="M 209.350861 122.726884 
L 197.820573 111.097258 
L 218.830664 110.122127 
L 219.796692 119.942071 
L 217.495166 120.885224 
z
" style="fill:#3f4094;opacity:0.6;stroke-dasharray:0,0;stroke-dashoffset:0;"/>
   </g>
   <g id="patch_54">
    <path clip-path="url(#p4c13df23ec)" d="M 202.192402 154.55472 
L 202.419293 154.304854 
L 223.196905 154.506172 
L 224.063287 163.313188 
z
" style="fill:#40846e;opacity:0.6;stroke-dasharray:0,0;stroke-dashoffset:0;"/>
   </g>
   <g id="patch_55">
    <path clip-path="url(#p4c13df23ec)" d="M 202.419293 154.304854 
L 218.906851 136.147704 
L 221.577503 138.044503 
L 223.196905 154.506172 
z
" style="fill:#41c848;opacity:0.6;stroke-dasharray:0,0;stroke-dashoffset:0;"/>
   </g>
   <g id="patch_56">
    <path clip-path="url(#p4c13df23ec)" d="M 201.723346 127.348426 
L 203.859886 125.460775 
L 204.763529 126.102577 
z
" style="fill:#430c22;opacity:0.6;stroke-dasharray:0,0;stroke-dashoffset:0;"/>
   </g>
   <g id="patch_57">
    <path clip-path="url(#p4c13df23ec)" d="M 194.889803 17.451491 
L 198.270453 2.757365 
L 207.659886 -3.431925 
L 213.499527 55.92964 
z
" style="fill:#444ffc;opacity:0.6;stroke-dasharray:0,0;stroke-dashoffset:0;"/>
   </g>
   <g id="patch_58">
    <path clip-path="url(#p4c13df23ec)" d="M 204.763529 126.102577 
L 210.405443 123.790552 
L 220.699608 134.173405 
L 218.906851 136.147704 
z
" style="fill:#4593d6;opacity:0.6;stroke-dasharray:0,0;stroke-dashoffset:0;"/>
   </g>
   <g id="patch_59">
    <path clip-path="url(#p4c13df23ec)" d="M 204.763529 126.102577 
L 203.859885 125.460774 
L 209.35086 122.726883 
L 210.405443 123.790552 
z
" style="fill:#46d7b0;opacity:0.6;stroke-dasharray:0,0;stroke-dashoffset:0;"/>
   </g>
   <g id="patch_60">
    <path clip-path="url(#p4c13df23ec)" d="M 210.405443 123.790552 
L 209.350861 122.726884 
L 217.495166 120.885224 
z
" style="fill:#481b8a;opacity:0.6;stroke-dasharray:0,0;stroke-dashoffset:0;"/>
   </g>
   <g id="patch_61">
    <path clip-path="url(#p4c13df23ec)" d="M 212.049938 252 
L 215.608267 242.423257 
L 232.731661 251.42961 
L 232.787773 252 
z
" style="fill:#495f64;opacity:0.6;stroke-dasharray:0,0;stroke-dashoffset:0;"/>
   </g>
   <g id="patch_62">
    <path clip-path="url(#p4c13df23ec)" d="M 210.405443 123.790552 
L 217.495169 120.885223 
L 219.834144 120.322777 
L 221.148099 133.679497 
L 220.699608 134.173405 
z
" style="fill:#4aa33e;opacity:0.6;stroke-dasharray:0,0;stroke-dashoffset:0;"/>
   </g>
   <g id="patch_63">
    <path clip-path="url(#p4c13df23ec)" d="M 216.272723 61.663602 
L 213.499527 55.92964 
L 207.659886 -3.431925 
L 235.313804 -21.660727 
L 238.396003 6.167888 
z
" style="fill:#4be718;opacity:0.6;stroke-dasharray:0,0;stroke-dashoffset:0;"/>
   </g>
   <g id="patch_64">
    <path clip-path="url(#p4c13df23ec)" d="M 214.500845 66.108316 
L 213.499527 55.92964 
L 216.272723 61.663602 
z
" style="fill:#4d2af2;opacity:0.6;stroke-dasharray:0,0;stroke-dashoffset:0;"/>
   </g>
   <g id="patch_65">
    <path clip-path="url(#p4c13df23ec)" d="M 218.830664 110.122127 
L 214.500845 66.108316 
L 216.272723 61.663602 
L 239.251017 109.174368 
z
" style="fill:#4e6ecc;opacity:0.6;stroke-dasharray:0,0;stroke-dashoffset:0;"/>
   </g>
   <g id="patch_66">
    <path clip-path="url(#p4c13df23ec)" d="M 215.608267 242.423257 
L 228.477182 208.181649 
L 232.731661 251.42961 
z
" style="fill:#4fb2a6;opacity:0.6;stroke-dasharray:0,0;stroke-dashoffset:0;"/>
   </g>
   <g id="patch_67">
    <path clip-path="url(#p4c13df23ec)" d="M 216.272723 61.663602 
L 238.396003 6.167888 
L 249.108367 102.887867 
L 243.582473 108.973334 
L 239.251017 109.174368 
z
" style="fill:#50f680;opacity:0.6;stroke-dasharray:0,0;stroke-dashoffset:0;"/>
   </g>
   <g id="patch_68">
    <path clip-path="url(#p4c13df23ec)" d="M 218.906851 136.147704 
L 220.699608 134.173405 
L 221.251441 134.729992 
L 221.577503 138.044503 
z
" style="fill:#523a5a;opacity:0.6;stroke-dasharray:0,0;stroke-dashoffset:0;"/>
   </g>
   <g id="patch_69">
    <path clip-path="url(#p4c13df23ec)" d="M 221.148099 133.679497 
L 219.834144 120.322778 
L 232.161884 121.550415 
z
" style="fill:#537e34;opacity:0.6;stroke-dasharray:0,0;stroke-dashoffset:0;"/>
   </g>
   <g id="patch_70">
    <path clip-path="url(#p4c13df23ec)" d="M 219.834144 120.322778 
L 219.796692 119.942071 
L 240.379376 111.507405 
L 240.692855 112.155565 
L 232.161884 121.550415 
z
" style="fill:#54c20e;opacity:0.6;stroke-dasharray:0,0;stroke-dashoffset:0;"/>
   </g>
   <g id="patch_71">
    <path clip-path="url(#p4c13df23ec)" d="M 219.796692 119.942071 
L 218.830664 110.122127 
L 239.251017 109.174368 
L 240.379376 111.507405 
z
" style="fill:#5605e8;opacity:0.6;stroke-dasharray:0,0;stroke-dashoffset:0;"/>
   </g>
   <g id="patch_72">
    <path clip-path="url(#p4c13df23ec)" d="M 223.196905 154.506172 
L 221.577503 138.044503 
L 231.583761 145.15133 
L 241.030008 154.678959 
z
" style="fill:#5749c2;opacity:0.6;stroke-dasharray:0,0;stroke-dashoffset:0;"/>
   </g>
   <g id="patch_73">
    <path clip-path="url(#p4c13df23ec)" d="M 221.577503 138.044503 
L 221.251441 134.729992 
L 231.583761 145.15133 
z
" style="fill:#588d9c;opacity:0.6;stroke-dasharray:0,0;stroke-dashoffset:0;"/>
   </g>
   <g id="patch_74">
    <path clip-path="url(#p4c13df23ec)" d="M 231.583761 145.15133 
L 221.251441 134.729992 
L 221.148099 133.679497 
L 232.161886 121.550413 
L 252.122131 135.787158 
L 252.939314 137.476795 
L 253.48915 142.441161 
L 244.311192 154.190836 
z
" style="fill:#59d176;opacity:0.6;stroke-dasharray:0,0;stroke-dashoffset:0;"/>
   </g>
   <g id="patch_75">
    <path clip-path="url(#p4c13df23ec)" d="M 224.063287 163.313188 
L 223.196905 154.506172 
L 241.030008 154.678959 
L 242.652008 156.314933 
L 234.058795 167.316014 
z
" style="fill:#5b1550;opacity:0.6;stroke-dasharray:0,0;stroke-dashoffset:0;"/>
   </g>
   <g id="patch_76">
    <path clip-path="url(#p4c13df23ec)" d="M 226.863025 191.7733 
L 225.53104 178.233296 
L 234.058795 167.316014 
L 250.322121 173.828865 
z
" style="fill:#5c592a;opacity:0.6;stroke-dasharray:0,0;stroke-dashoffset:0;"/>
   </g>
   <g id="patch_77">
    <path clip-path="url(#p4c13df23ec)" d="M 225.53104 178.233296 
L 224.063287 163.313188 
L 234.058795 167.316014 
z
" style="fill:#5d9d04;opacity:0.6;stroke-dasharray:0,0;stroke-dashoffset:0;"/>
   </g>
   <g id="patch_78">
    <path clip-path="url(#p4c13df23ec)" d="M 228.477182 208.181647 
L 226.863025 191.7733 
L 250.322121 173.828865 
L 257.273878 176.612782 
L 257.428214 178.006257 
z
" style="fill:#5ee0de;opacity:0.6;stroke-dasharray:0,0;stroke-dashoffset:0;"/>
   </g>
   <g id="patch_79">
    <path clip-path="url(#p4c13df23ec)" d="M 232.731661 251.42961 
L 228.477182 208.181647 
L 257.428214 178.006257 
L 267.591035 269.764514 
z
" style="fill:#6024b8;opacity:0.6;stroke-dasharray:0,0;stroke-dashoffset:0;"/>
   </g>
   <g id="patch_80">
    <path clip-path="url(#p4c13df23ec)" d="M 241.030008 154.678959 
L 231.583761 145.15133 
L 244.311192 154.190836 
L 243.908124 154.706846 
z
" style="fill:#616892;opacity:0.6;stroke-dasharray:0,0;stroke-dashoffset:0;"/>
   </g>
   <g id="patch_81">
    <path clip-path="url(#p4c13df23ec)" d="M 232.161886 121.550413 
L 240.692855 112.155565 
L 252.122131 135.787158 
z
" style="fill:#62ac6c;opacity:0.6;stroke-dasharray:0,0;stroke-dashoffset:0;"/>
   </g>
   <g id="patch_82">
    <path clip-path="url(#p4c13df23ec)" d="M 234.058795 167.316014 
L 242.652008 156.314933 
L 255.835241 169.611745 
L 250.322121 173.828865 
z
" style="fill:#63f046;opacity:0.6;stroke-dasharray:0,0;stroke-dashoffset:0;"/>
   </g>
   <g id="patch_83">
    <path clip-path="url(#p4c13df23ec)" d="M 240.692855 112.155565 
L 241.816003 110.918683 
L 246.94384 108.817325 
L 249.750664 108.687053 
L 252.77058 135.953329 
L 252.122131 135.787157 
z
" style="fill:#653420;opacity:0.6;stroke-dasharray:0,0;stroke-dashoffset:0;"/>
   </g>
   <g id="patch_84">
    <path clip-path="url(#p4c13df23ec)" d="M 240.379376 111.507405 
L 239.251017 109.174368 
L 243.582473 108.973334 
L 241.816003 110.918683 
z
" style="fill:#6677fa;opacity:0.6;stroke-dasharray:0,0;stroke-dashoffset:0;"/>
   </g>
   <g id="patch_85">
    <path clip-path="url(#p4c13df23ec)" d="M 241.030008 154.678959 
L 243.908124 154.706846 
L 242.652008 156.314933 
z
" style="fill:#67bbd4;opacity:0.6;stroke-dasharray:0,0;stroke-dashoffset:0;"/>
   </g>
   <g id="patch_86">
    <path clip-path="url(#p4c13df23ec)" d="M 249.108367 102.887867 
L 238.396003 6.167888 
L 254.542832 -34.336042 
L 537.022498 -220.539882 
L 501.489547 -175.050391 
z
" style="fill:#68ffae;opacity:0.6;stroke-dasharray:0,0;stroke-dashoffset:0;"/>
   </g>
   <g id="patch_87">
    <path clip-path="url(#p4c13df23ec)" d="M 242.652008 156.314933 
L 243.908124 154.706846 
L 245.053345 154.717942 
L 255.685223 162.269108 
L 256.446667 169.14405 
L 255.835241 169.611745 
z
" style="fill:#6a4388;opacity:0.6;stroke-dasharray:0,0;stroke-dashoffset:0;"/>
   </g>
   <g id="patch_88">
    <path clip-path="url(#p4c13df23ec)" d="M 241.816003 110.918683 
L 243.582473 108.973334 
L 246.94384 108.817325 
z
" style="fill:#6b8762;opacity:0.6;stroke-dasharray:0,0;stroke-dashoffset:0;"/>
   </g>
   <g id="patch_89">
    <path clip-path="url(#p4c13df23ec)" d="M 246.94384 108.817325 
L 243.582473 108.973334 
L 249.108367 102.887867 
L 249.642603 107.711387 
z
" style="fill:#6ccb3c;opacity:0.6;stroke-dasharray:0,0;stroke-dashoffset:0;"/>
   </g>
   <g id="patch_90">
    <path clip-path="url(#p4c13df23ec)" d="M 245.053345 154.717942 
L 254.859406 154.812954 
L 255.685223 162.269108 
z
" style="fill:#6e0f16;opacity:0.6;stroke-dasharray:0,0;stroke-dashoffset:0;"/>
   </g>
   <g id="patch_91">
    <path clip-path="url(#p4c13df23ec)" d="M 245.053345 154.717942 
L 244.311192 154.190836 
L 253.48915 142.441161 
L 254.859406 154.812954 
z
" style="fill:#6f52f0;opacity:0.6;stroke-dasharray:0,0;stroke-dashoffset:0;"/>
   </g>
   <g id="patch_92">
    <path clip-path="url(#p4c13df23ec)" d="M 260.171332 133.886592 
L 252.77058 135.953327 
L 249.750664 108.687053 
L 280.987775 107.237261 
z
" style="fill:#7096ca;opacity:0.6;stroke-dasharray:0,0;stroke-dashoffset:0;"/>
   </g>
   <g id="patch_93">
    <path clip-path="url(#p4c13df23ec)" d="M 249.750664 108.687053 
L 249.642603 107.711387 
L 295.200532 89.042007 
L 280.987775 107.237261 
z
" style="fill:#71daa4;opacity:0.6;stroke-dasharray:0,0;stroke-dashoffset:0;"/>
   </g>
   <g id="patch_94">
    <path clip-path="url(#p4c13df23ec)" d="M 249.642603 107.711387 
L 249.108367 102.887867 
L 501.489547 -175.050391 
L 295.200532 89.042007 
z
" style="fill:#731e7e;opacity:0.6;stroke-dasharray:0,0;stroke-dashoffset:0;"/>
   </g>
   <g id="patch_95">
    <path clip-path="url(#p4c13df23ec)" d="M 250.322121 173.828865 
L 255.835241 169.611745 
L 256.581875 170.364811 
L 257.273878 176.612782 
z
" style="fill:#746258;opacity:0.6;stroke-dasharray:0,0;stroke-dashoffset:0;"/>
   </g>
   <g id="patch_96">
    <path clip-path="url(#p4c13df23ec)" d="M 252.122131 135.787157 
L 252.77058 135.953329 
L 252.939314 137.476795 
z
" style="fill:#75a632;opacity:0.6;stroke-dasharray:0,0;stroke-dashoffset:0;"/>
   </g>
   <g id="patch_97">
    <path clip-path="url(#p4c13df23ec)" d="M 254.859406 154.812954 
L 253.48915 142.441161 
L 254.632425 140.977533 
L 261.354278 154.875884 
z
" style="fill:#76ea0c;opacity:0.6;stroke-dasharray:0,0;stroke-dashoffset:0;"/>
   </g>
   <g id="patch_98">
    <path clip-path="url(#p4c13df23ec)" d="M 253.48915 142.441161 
L 252.939314 137.476795 
L 254.632425 140.977533 
z
" style="fill:#782de6;opacity:0.6;stroke-dasharray:0,0;stroke-dashoffset:0;"/>
   </g>
   <g id="patch_99">
    <path clip-path="url(#p4c13df23ec)" d="M 254.632425 140.977533 
L 252.939314 137.476795 
L 252.77058 135.953327 
L 260.171332 133.886592 
z
" style="fill:#7971c0;opacity:0.6;stroke-dasharray:0,0;stroke-dashoffset:0;"/>
   </g>
   <g id="patch_100">
    <path clip-path="url(#p4c13df23ec)" d="M 256.446667 169.14405 
L 255.685223 162.269108 
L 260.740523 165.859575 
z
" style="fill:#7ab59a;opacity:0.6;stroke-dasharray:0,0;stroke-dashoffset:0;"/>
   </g>
   <g id="patch_101">
    <path clip-path="url(#p4c13df23ec)" d="M 255.685223 162.269108 
L 254.859406 154.812954 
L 261.354278 154.875884 
L 265.066189 162.550767 
L 260.740523 165.859575 
z
" style="fill:#7bf974;opacity:0.6;stroke-dasharray:0,0;stroke-dashoffset:0;"/>
   </g>
   <g id="patch_102">
    <path clip-path="url(#p4c13df23ec)" d="M 261.354278 154.875884 
L 254.632425 140.977533 
L 260.171333 133.88659 
L 309.033685 105.93558 
L 322.927337 105.290741 
L 283.295808 148.606486 
L 274.927774 155.0074 
z
" style="fill:#7d3d4e;opacity:0.6;stroke-dasharray:0,0;stroke-dashoffset:0;"/>
   </g>
   <g id="patch_103">
    <path clip-path="url(#p4c13df23ec)" d="M 267.591035 269.764514 
L 257.428214 178.006259 
L 258.15542 176.965806 
L 266.399881 180.267403 
L 280.525228 194.514446 
L 333.748736 304.561328 
z
" style="fill:#7e8128;opacity:0.6;stroke-dasharray:0,0;stroke-dashoffset:0;"/>
   </g>
   <g id="patch_104">
    <path clip-path="url(#p4c13df23ec)" d="M 257.428214 178.006259 
L 257.273878 176.612782 
L 258.15542 176.965806 
z
" style="fill:#7fc502;opacity:0.6;stroke-dasharray:0,0;stroke-dashoffset:0;"/>
   </g>
   <g id="patch_105">
    <path clip-path="url(#p4c13df23ec)" d="M 258.15542 176.965806 
L 257.273878 176.612782 
L 256.581875 170.364811 
L 260.304557 174.119566 
z
" style="fill:#8108dc;opacity:0.6;stroke-dasharray:0,0;stroke-dashoffset:0;"/>
   </g>
   <g id="patch_106">
    <path clip-path="url(#p4c13df23ec)" d="M 260.304556 174.119565 
L 256.581875 170.364811 
L 256.446667 169.14405 
L 260.740523 165.859575 
L 267.135341 170.401419 
z
" style="fill:#824cb6;opacity:0.6;stroke-dasharray:0,0;stroke-dashoffset:0;"/>
   </g>
   <g id="patch_107">
    <path clip-path="url(#p4c13df23ec)" d="M 258.15542 176.965806 
L 260.304557 174.119566 
L 266.399881 180.267403 
z
" style="fill:#839090;opacity:0.6;stroke-dasharray:0,0;stroke-dashoffset:0;"/>
   </g>
   <g id="patch_108">
    <path clip-path="url(#p4c13df23ec)" d="M 260.304556 174.119565 
L 267.135341 170.401419 
L 269.767137 172.27062 
L 275.372575 183.86063 
L 266.399881 180.267403 
z
" style="fill:#84d46a;opacity:0.6;stroke-dasharray:0,0;stroke-dashoffset:0;"/>
   </g>
   <g id="patch_109">
    <path clip-path="url(#p4c13df23ec)" d="M 260.740523 165.859575 
L 265.066189 162.550767 
L 268.744875 170.156955 
L 267.135338 170.401416 
z
" style="fill:#861844;opacity:0.6;stroke-dasharray:0,0;stroke-dashoffset:0;"/>
   </g>
   <g id="patch_110">
    <path clip-path="url(#p4c13df23ec)" d="M 265.066189 162.550767 
L 261.354278 154.875884 
L 274.927774 155.0074 
z
" style="fill:#875c1e;opacity:0.6;stroke-dasharray:0,0;stroke-dashoffset:0;"/>
   </g>
   <g id="patch_111">
    <path clip-path="url(#p4c13df23ec)" d="M 260.171333 133.88659 
L 280.987775 107.237261 
L 309.033685 105.93558 
z
" style="fill:#889ff8;opacity:0.6;stroke-dasharray:0,0;stroke-dashoffset:0;"/>
   </g>
   <g id="patch_112">
    <path clip-path="url(#p4c13df23ec)" d="M 268.74488 170.156966 
L 265.066189 162.550767 
L 274.927774 155.0074 
L 277.392464 155.031281 
z
" style="fill:#89e3d2;opacity:0.6;stroke-dasharray:0,0;stroke-dashoffset:0;"/>
   </g>
   <g id="patch_113">
    <path clip-path="url(#p4c13df23ec)" d="M 266.399881 180.267403 
L 275.372575 183.86063 
L 280.525228 194.514446 
z
" style="fill:#8b27ac;opacity:0.6;stroke-dasharray:0,0;stroke-dashoffset:0;"/>
   </g>
   <g id="patch_114">
    <path clip-path="url(#p4c13df23ec)" d="M 299.934903 193.696919 
L 269.767137 172.27062 
L 268.74488 170.156966 
L 277.392464 155.031281 
L 388.8 156.110725 
L 388.8 229.284052 
z
" style="fill:#8c6b86;opacity:0.6;stroke-dasharray:0,0;stroke-dashoffset:0;"/>
   </g>
   <g id="patch_115">
    <path clip-path="url(#p4c13df23ec)" d="M 275.372575 183.86063 
L 269.767137 172.27062 
L 299.934903 193.696919 
z
" style="fill:#8daf60;opacity:0.6;stroke-dasharray:0,0;stroke-dashoffset:0;"/>
   </g>
   <g id="patch_116">
    <path clip-path="url(#p4c13df23ec)" d="M 450.531303 365.985187 
L 280.525228 194.514446 
L 275.372575 183.86063 
L 299.934903 193.696919 
L 805.058844 552.455225 
z
" style="fill:#8ef33a;opacity:0.6;stroke-dasharray:0,0;stroke-dashoffset:0;"/>
   </g>
   <g id="patch_117">
    <path clip-path="url(#p4c13df23ec)" d="M 274.927774 155.0074 
L 283.295812 148.606483 
L 277.392466 155.031281 
z
" style="fill:#903714;opacity:0.6;stroke-dasharray:0,0;stroke-dashoffset:0;"/>
   </g>
   <g id="patch_118">
    <path clip-path="url(#p4c13df23ec)" d="M 277.392466 155.031281 
L 283.295812 148.606483 
L 341.021151 104.450962 
L 388.8 102.233426 
L 388.8 156.110725 
z
" style="fill:#917aee;opacity:0.6;stroke-dasharray:0,0;stroke-dashoffset:0;"/>
   </g>
   <g id="patch_119">
    <path clip-path="url(#p4c13df23ec)" d="M 333.748736 304.561328 
L 280.525228 194.514446 
L 450.531303 365.985187 
z
" style="fill:#92bec8;opacity:0.6;stroke-dasharray:0,0;stroke-dashoffset:0;"/>
   </g>
   <g id="patch_120">
    <path clip-path="url(#p4c13df23ec)" d="M 280.987775 107.237261 
L 295.200532 89.042007 
L 369.279478 58.684876 
L 345.061817 83.035098 
L 309.033687 105.93558 
z
" style="fill:#9402a2;opacity:0.6;stroke-dasharray:0,0;stroke-dashoffset:0;"/>
   </g>
   <g id="patch_121">
    <path clip-path="url(#p4c13df23ec)" d="M 283.295808 148.606486 
L 322.927337 105.290741 
L 341.021151 104.450962 
z
" style="fill:#95467c;opacity:0.6;stroke-dasharray:0,0;stroke-dashoffset:0;"/>
   </g>
   <g id="patch_122">
    <path clip-path="url(#p4c13df23ec)" d="M 369.279484 58.684873 
L 295.200532 89.042007 
L 501.489547 -175.050391 
L 551.405023 -230.020499 
L 769.915295 -374.057245 
z
" style="fill:#968a56;opacity:0.6;stroke-dasharray:0,0;stroke-dashoffset:0;"/>
   </g>
   <g id="patch_123">
    <path clip-path="url(#p4c13df23ec)" d="M 299.934903 193.696919 
L 388.8 229.284052 
L 388.8 252 
L 382.02438 252 
z
" style="fill:#97ce30;opacity:0.6;stroke-dasharray:0,0;stroke-dashoffset:0;"/>
   </g>
   <g id="patch_124">
    <path clip-path="url(#p4c13df23ec)" d="M 309.033687 105.93558 
L 345.061817 83.035098 
L 322.927334 105.290741 
z
" style="fill:#99120a;opacity:0.6;stroke-dasharray:0,0;stroke-dashoffset:0;"/>
   </g>
   <g id="patch_125">
    <path clip-path="url(#p4c13df23ec)" d="M 341.021151 104.450962 
L 322.927334 105.290741 
L 345.061817 83.035098 
L 408.940576 42.431983 
L 437.284418 30.816838 
z
" style="fill:#9a55e4;opacity:0.6;stroke-dasharray:0,0;stroke-dashoffset:0;"/>
   </g>
   <g id="patch_126">
    <path clip-path="url(#p4c13df23ec)" d="M 341.021151 104.450962 
L 388.8 67.903753 
L 388.8 102.233426 
z
" style="fill:#9b99be;opacity:0.6;stroke-dasharray:0,0;stroke-dashoffset:0;"/>
   </g>
   <g id="patch_127">
    <path clip-path="url(#p4c13df23ec)" d="M 345.061817 83.035098 
L 369.279478 58.684876 
L 408.940576 42.431983 
z
" style="fill:#9cdd98;opacity:0.6;stroke-dasharray:0,0;stroke-dashoffset:0;"/>
   </g>
   <g id="patch_128">
    <path clip-path="url(#p4c13df23ec)" d="M 513.769176 -27.688222 
L 408.940579 42.431982 
L 369.279484 58.684873 
L 769.915295 -374.057245 
L 2192.506018 -1311.795029 
z
" style="fill:#9e2172;opacity:0.6;stroke-dasharray:0,0;stroke-dashoffset:0;"/>
   </g>
   <g id="matplotlib.axis_1">
    <g id="xtick_1">
     <g id="line2d_1">
      <defs>
       <path d="M 0 0 
L 0 3.5 
" id="m39ba363b85" style="stroke:#000000;stroke-width:0.8;"/>
      </defs>
      <g>
       <use style="stroke:#000000;stroke-width:0.8;" x="87.48" xlink:href="#m39ba363b85" y="252"/>
      </g>
     </g>
     <g id="text_1">
      <!-- −4 -->
      <defs>
       <path d="M 10.59375 35.5 
L 73.1875 35.5 
L 73.1875 27.203125 
L 10.59375 27.203125 
z
" id="DejaVuSans-2212"/>
       <path d="M 37.796875 64.3125 
L 12.890625 25.390625 
L 37.796875 25.390625 
z
M 35.203125 72.90625 
L 47.609375 72.90625 
L 47.609375 25.390625 
L 58.015625 25.390625 
L 58.015625 17.1875 
L 47.609375 17.1875 
L 47.609375 0 
L 37.796875 0 
L 37.796875 17.1875 
L 4.890625 17.1875 
L 4.890625 26.703125 
z
" id="DejaVuSans-34"/>
      </defs>
      <g transform="translate(80.108906 266.598437)scale(0.1 -0.1)">
       <use xlink:href="#DejaVuSans-2212"/>
       <use x="83.789062" xlink:href="#DejaVuSans-34"/>
      </g>
     </g>
    </g>
    <g id="xtick_2">
     <g id="line2d_2">
      <g>
       <use style="stroke:#000000;stroke-width:0.8;" x="154.44" xlink:href="#m39ba363b85" y="252"/>
      </g>
     </g>
     <g id="text_2">
      <!-- −2 -->
      <defs>
       <path d="M 19.1875 8.296875 
L 53.609375 8.296875 
L 53.609375 0 
L 7.328125 0 
L 7.328125 8.296875 
Q 12.9375 14.109375 22.625 23.890625 
Q 32.328125 33.6875 34.8125 36.53125 
Q 39.546875 41.84375 41.421875 45.53125 
Q 43.3125 49.21875 43.3125 52.78125 
Q 43.3125 58.59375 39.234375 62.25 
Q 35.15625 65.921875 28.609375 65.921875 
Q 23.96875 65.921875 18.8125 64.3125 
Q 13.671875 62.703125 7.8125 59.421875 
L 7.8125 69.390625 
Q 13.765625 71.78125 18.9375 73 
Q 24.125 74.21875 28.421875 74.21875 
Q 39.75 74.21875 46.484375 68.546875 
Q 53.21875 62.890625 53.21875 53.421875 
Q 53.21875 48.921875 51.53125 44.890625 
Q 49.859375 40.875 45.40625 35.40625 
Q 44.1875 33.984375 37.640625 27.21875 
Q 31.109375 20.453125 19.1875 8.296875 
z
" id="DejaVuSans-32"/>
      </defs>
      <g transform="translate(147.068906 266.598437)scale(0.1 -0.1)">
       <use xlink:href="#DejaVuSans-2212"/>
       <use x="83.789062" xlink:href="#DejaVuSans-32"/>
      </g>
     </g>
    </g>
    <g id="xtick_3">
     <g id="line2d_3">
      <g>
       <use style="stroke:#000000;stroke-width:0.8;" x="221.4" xlink:href="#m39ba363b85" y="252"/>
      </g>
     </g>
     <g id="text_3">
      <!-- 0 -->
      <defs>
       <path d="M 31.78125 66.40625 
Q 24.171875 66.40625 20.328125 58.90625 
Q 16.5 51.421875 16.5 36.375 
Q 16.5 21.390625 20.328125 13.890625 
Q 24.171875 6.390625 31.78125 6.390625 
Q 39.453125 6.390625 43.28125 13.890625 
Q 47.125 21.390625 47.125 36.375 
Q 47.125 51.421875 43.28125 58.90625 
Q 39.453125 66.40625 31.78125 66.40625 
z
M 31.78125 74.21875 
Q 44.046875 74.21875 50.515625 64.515625 
Q 56.984375 54.828125 56.984375 36.375 
Q 56.984375 17.96875 50.515625 8.265625 
Q 44.046875 -1.421875 31.78125 -1.421875 
Q 19.53125 -1.421875 13.0625 8.265625 
Q 6.59375 17.96875 6.59375 36.375 
Q 6.59375 54.828125 13.0625 64.515625 
Q 19.53125 74.21875 31.78125 74.21875 
z
" id="DejaVuSans-30"/>
      </defs>
      <g transform="translate(218.21875 266.598437)scale(0.1 -0.1)">
       <use xlink:href="#DejaVuSans-30"/>
      </g>
     </g>
    </g>
    <g id="xtick_4">
     <g id="line2d_4">
      <g>
       <use style="stroke:#000000;stroke-width:0.8;" x="288.36" xlink:href="#m39ba363b85" y="252"/>
      </g>
     </g>
     <g id="text_4">
      <!-- 2 -->
      <g transform="translate(285.17875 266.598437)scale(0.1 -0.1)">
       <use xlink:href="#DejaVuSans-32"/>
      </g>
     </g>
    </g>
    <g id="xtick_5">
     <g id="line2d_5">
      <g>
       <use style="stroke:#000000;stroke-width:0.8;" x="355.32" xlink:href="#m39ba363b85" y="252"/>
      </g>
     </g>
     <g id="text_5">
      <!-- 4 -->
      <g transform="translate(352.13875 266.598437)scale(0.1 -0.1)">
       <use xlink:href="#DejaVuSans-34"/>
      </g>
     </g>
    </g>
   </g>
   <g id="matplotlib.axis_2">
    <g id="ytick_1">
     <g id="line2d_6">
      <defs>
       <path d="M 0 0 
L -3.5 0 
" id="m067d26cd2b" style="stroke:#000000;stroke-width:0.8;"/>
      </defs>
      <g>
       <use style="stroke:#000000;stroke-width:0.8;" x="54" xlink:href="#m067d26cd2b" y="230.256"/>
      </g>
     </g>
     <g id="text_6">
      <!-- −4 -->
      <g transform="translate(32.257812 234.055219)scale(0.1 -0.1)">
       <use xlink:href="#DejaVuSans-2212"/>
       <use x="83.789062" xlink:href="#DejaVuSans-34"/>
      </g>
     </g>
    </g>
    <g id="ytick_2">
     <g id="line2d_7">
      <g>
       <use style="stroke:#000000;stroke-width:0.8;" x="54" xlink:href="#m067d26cd2b" y="186.768"/>
      </g>
     </g>
     <g id="text_7">
      <!-- −2 -->
      <g transform="translate(32.257812 190.567219)scale(0.1 -0.1)">
       <use xlink:href="#DejaVuSans-2212"/>
       <use x="83.789062" xlink:href="#DejaVuSans-32"/>
      </g>
     </g>
    </g>
    <g id="ytick_3">
     <g id="line2d_8">
      <g>
       <use style="stroke:#000000;stroke-width:0.8;" x="54" xlink:href="#m067d26cd2b" y="143.28"/>
      </g>
     </g>
     <g id="text_8">
      <!-- 0 -->
      <g transform="translate(40.6375 147.079219)scale(0.1 -0.1)">
       <use xlink:href="#DejaVuSans-30"/>
      </g>
     </g>
    </g>
    <g id="ytick_4">
     <g id="line2d_9">
      <g>
       <use style="stroke:#000000;stroke-width:0.8;" x="54" xlink:href="#m067d26cd2b" y="99.792"/>
      </g>
     </g>
     <g id="text_9">
      <!-- 2 -->
      <g transform="translate(40.6375 103.591219)scale(0.1 -0.1)">
       <use xlink:href="#DejaVuSans-32"/>
      </g>
     </g>
    </g>
    <g id="ytick_5">
     <g id="line2d_10">
      <g>
       <use style="stroke:#000000;stroke-width:0.8;" x="54" xlink:href="#m067d26cd2b" y="56.304"/>
      </g>
     </g>
     <g id="text_10">
      <!-- 4 -->
      <g transform="translate(40.6375 60.103219)scale(0.1 -0.1)">
       <use xlink:href="#DejaVuSans-34"/>
      </g>
     </g>
    </g>
   </g>
   <g id="line2d_11">
    <path clip-path="url(#p4c13df23ec)" d="M 114.640002 250.97301 
L 147.902061 206.811979 
" style="fill:none;stroke:#ff0000;stroke-linecap:square;stroke-width:0.5;"/>
   </g>
   <g id="line2d_12">
    <path clip-path="url(#p4c13df23ec)" d="M 97.248587 289 
L 114.640079 250.972925 
" style="fill:none;stroke:#ff0000;stroke-linecap:square;stroke-width:0.5;"/>
   </g>
   <g id="line2d_13">
    <path clip-path="url(#p4c13df23ec)" d="M 147.902068 206.811983 
L 152.826214 200.282524 
" style="fill:none;stroke:#ff0000;stroke-linecap:square;stroke-width:0.5;"/>
   </g>
   <g id="line2d_14">
    <path clip-path="url(#p4c13df23ec)" d="M 170.058186 177.591651 
L 152.826215 200.28252 
" style="fill:none;stroke:#ff0000;stroke-linecap:square;stroke-width:0.5;"/>
   </g>
   <g id="line2d_15">
    <path clip-path="url(#p4c13df23ec)" d="M 187.741507 154.162639 
L 170.058181 177.591665 
" style="fill:none;stroke:#ff0000;stroke-linecap:square;stroke-width:0.5;"/>
   </g>
   <g id="line2d_16">
    <path clip-path="url(#p4c13df23ec)" d="M 187.741505 154.162639 
L 191.699824 150.352837 
" style="fill:none;stroke:#ff0000;stroke-linecap:square;stroke-width:0.5;"/>
   </g>
   <g id="line2d_17">
    <path clip-path="url(#p4c13df23ec)" d="M 191.699824 150.352837 
L 212.215892 131.39553 
" style="fill:none;stroke:#ff0000;stroke-linecap:square;stroke-width:0.5;"/>
   </g>
   <g id="line2d_18">
    <path clip-path="url(#p4c13df23ec)" d="M 212.215892 131.395529 
L 215.988679 129.421889 
" style="fill:none;stroke:#ff0000;stroke-linecap:square;stroke-width:0.5;"/>
   </g>
   <g id="line2d_19">
    <path clip-path="url(#p4c13df23ec)" d="M 215.988681 129.421892 
L 220.611614 128.225969 
" style="fill:none;stroke:#ff0000;stroke-linecap:square;stroke-width:0.5;"/>
   </g>
   <g id="line2d_20">
    <path clip-path="url(#p4c13df23ec)" d="M 220.611614 128.22597 
L 225.580097 128.798699 
" style="fill:none;stroke:#ff0000;stroke-linecap:square;stroke-width:0.5;"/>
   </g>
   <g id="line2d_21">
    <path clip-path="url(#p4c13df23ec)" d="M 250.141413 146.726953 
L 225.580099 128.798697 
" style="fill:none;stroke:#ff0000;stroke-linecap:square;stroke-width:0.5;"/>
   </g>
   <g id="line2d_22">
    <path clip-path="url(#p4c13df23ec)" d="M 254.043229 147.44384 
L 250.141413 146.726953 
" style="fill:none;stroke:#ff0000;stroke-linecap:square;stroke-width:0.5;"/>
   </g>
   <g id="line2d_23">
    <path clip-path="url(#p4c13df23ec)" d="M 254.043229 147.44384 
L 257.656377 147.229968 
" style="fill:none;stroke:#ff0000;stroke-linecap:square;stroke-width:0.5;"/>
   </g>
   <g id="line2d_24">
    <path clip-path="url(#p4c13df23ec)" d="M 257.656378 147.229971 
L 315.330957 105.643308 
" style="fill:none;stroke:#ff0000;stroke-linecap:square;stroke-width:0.5;"/>
   </g>
   <g id="line2d_25">
    <path clip-path="url(#p4c13df23ec)" d="M 315.330944 105.643308 
L 344.684657 83.414323 
" style="fill:none;stroke:#ff0000;stroke-linecap:square;stroke-width:0.5;"/>
   </g>
   <g id="line2d_26">
    <path clip-path="url(#p4c13df23ec)" d="M 409.558259 42.17886 
L 344.684643 83.414337 
" style="fill:none;stroke:#ff0000;stroke-linecap:square;stroke-width:0.5;"/>
   </g>
   <g id="patch_129">
    <path d="M 54 252 
L 54 34.56 
" style="fill:none;stroke:#000000;stroke-linecap:square;stroke-linejoin:miter;stroke-width:0.8;"/>
   </g>
   <g id="patch_130">
    <path d="M 388.8 252 
L 388.8 34.56 
" style="fill:none;stroke:#000000;stroke-linecap:square;stroke-linejoin:miter;stroke-width:0.8;"/>
   </g>
   <g id="patch_131">
    <path d="M 54 252 
L 388.8 252 
" style="fill:none;stroke:#000000;stroke-linecap:square;stroke-linejoin:miter;stroke-width:0.8;"/>
   </g>
   <g id="patch_132">
    <path d="M 54 34.56 
L 388.8 34.56 
" style="fill:none;stroke:#000000;stroke-linecap:square;stroke-linejoin:miter;stroke-width:0.8;"/>
   </g>
  </g>
 </g>
 <defs>
  <clipPath id="p4c13df23ec">
   <rect height="217.44" width="334.8" x="54" y="34.56"/>
  </clipPath>
 </defs>
</svg>
