<?xml version="1.0" encoding="utf-8" standalone="no"?>
<!DOCTYPE svg PUBLIC "-//W3C//DTD SVG 1.1//EN"
  "http://www.w3.org/Graphics/SVG/1.1/DTD/svg11.dtd">
<!-- Created with matplotlib (http://matplotlib.org/) -->
<svg height="576pt" version="1.1" viewBox="0 0 576 576" width="576pt" xmlns="http://www.w3.org/2000/svg" xmlns:xlink="http://www.w3.org/1999/xlink">
 <defs>
  <style type="text/css">
*{stroke-linecap:butt;stroke-linejoin:round;}
  </style>
 </defs>
 <g id="figure_1">
  <g id="patch_1">
   <path d="M 0 576 
L 576 576 
L 576 0 
L 0 0 
z
" style="fill:#ffffff;"/>
  </g>
  <g id="axes_1">
   <g id="patch_2">
    <path d="M 72 504 
L 429.12 504 
L 429.12 69.12 
L 72 69.12 
z
" style="fill:#ffffff;"/>
   </g>
   <g id="PathCollection_1">
    <path clip-path="url(#p22e9d77728)" d="M 75.607273 504 
L 79.214545 504 
L 82.821818 504 
L 86.429091 504 
L 90.036364 504 
L 93.643636 504 
L 97.250909 504 
L 97.738839 504 
L 97.250909 503.045825 
L 95.49256 499.607273 
L 93.643636 495.991564 
L 93.246299 495.214545 
L 91.000042 490.821818 
L 90.036364 488.937289 
L 88.753763 486.429091 
L 86.507485 482.036364 
L 86.429091 481.883059 
L 84.261214 477.643636 
L 82.821818 474.828781 
L 82.014962 473.250909 
L 79.899448 468.858182 
L 79.214545 467.003012 
L 78.366812 464.465455 
L 76.89936 460.072727 
L 75.607273 456.204922 
L 75.431917 455.68 
L 73.964444 451.287273 
L 72.49697 446.894545 
L 72 445.406885 
L 72 446.894545 
L 72 451.287273 
L 72 455.68 
L 72 460.072727 
L 72 464.465455 
L 72 468.858182 
L 72 473.250909 
L 72 477.643636 
L 72 482.036364 
L 72 486.429091 
L 72 490.821818 
L 72 495.214545 
L 72 499.607273 
L 72 504 
z
" style="fill:#4e68d8;"/>
    <path clip-path="url(#p22e9d77728)" d="M 400.261818 504 
L 403.869091 504 
L 407.476364 504 
L 411.083636 504 
L 414.690909 504 
L 418.298182 504 
L 421.905455 504 
L 425.512727 504 
L 429.12 504 
L 429.12 499.607273 
L 429.12 495.214545 
L 429.12 490.821818 
L 429.12 486.429091 
L 429.12 482.036364 
L 429.12 477.643636 
L 429.12 473.250909 
L 429.12 468.858182 
L 429.12 464.465455 
L 429.12 460.072727 
L 429.12 455.68 
L 429.12 451.287273 
L 429.12 447.222731 
L 427.938999 451.287273 
L 426.662585 455.68 
L 425.512727 459.637325 
L 425.386213 460.072727 
L 424.109822 464.465455 
L 422.525721 468.858182 
L 421.905455 470.229632 
L 420.499535 473.250909 
L 418.455405 477.643636 
L 418.298182 477.981506 
L 416.411297 482.036364 
L 414.690909 485.733317 
L 414.365464 486.429091 
L 411.796665 490.821818 
L 411.083636 491.719179 
L 407.747952 495.214545 
L 407.476364 495.471027 
L 403.869091 498.877616 
L 403.096467 499.607273 
L 400.261818 502.284234 
L 398.444971 504 
z
" style="fill:#4e68d8;"/>
    <path clip-path="url(#p22e9d77728)" d="M 429.12 107.136774 
L 429.12 104.261818 
L 429.12 99.869091 
L 429.12 95.476364 
L 429.12 91.083636 
L 429.12 86.690909 
L 429.12 82.298182 
L 429.12 77.905455 
L 429.12 73.512727 
L 429.12 69.12 
L 425.512727 69.12 
L 421.905455 69.12 
L 418.99271 69.12 
L 420.144945 73.512727 
L 421.297218 77.905455 
L 421.905455 80.224175 
L 422.449507 82.298182 
L 423.601772 86.690909 
L 424.754024 91.083636 
L 425.512727 93.975907 
L 425.906328 95.476364 
L 427.060597 99.869091 
L 428.294605 104.261818 
z
" style="fill:#4e68d8;"/>
    <path clip-path="url(#p22e9d77728)" d="M 73.192786 73.512727 
L 75.607273 70.992837 
L 77.401816 69.12 
L 75.607273 69.12 
L 72 69.12 
L 72 73.512727 
L 72 74.886593 
z
" style="fill:#4e68d8;"/>
   </g>
   <g id="PathCollection_2">
    <path clip-path="url(#p22e9d77728)" d="M 97.250909 503.045825 
L 97.738839 504 
L 100.858182 504 
L 104.465455 504 
L 108.072727 504 
L 111.68 504 
L 115.287273 504 
L 118.894545 504 
L 122.501818 504 
L 126.109091 504 
L 129.716364 504 
L 133.323636 504 
L 136.930909 504 
L 140.538182 504 
L 144.145455 504 
L 147.752727 504 
L 151.36 504 
L 154.967273 504 
L 158.574545 504 
L 162.181818 504 
L 165.789091 504 
L 169.396364 504 
L 173.003636 504 
L 176.610909 504 
L 180.218182 504 
L 183.825455 504 
L 187.432727 504 
L 191.04 504 
L 194.647273 504 
L 198.254545 504 
L 201.861818 504 
L 205.469091 504 
L 209.076364 504 
L 212.683636 504 
L 216.290909 504 
L 219.898182 504 
L 223.505455 504 
L 227.112727 504 
L 230.72 504 
L 234.327273 504 
L 237.934545 504 
L 241.541818 504 
L 245.149091 504 
L 248.756364 504 
L 252.363636 504 
L 255.970909 504 
L 259.578182 504 
L 263.185455 504 
L 266.792727 504 
L 270.4 504 
L 274.007273 504 
L 277.614545 504 
L 281.221818 504 
L 284.829091 504 
L 288.436364 504 
L 292.043636 504 
L 295.650909 504 
L 299.258182 504 
L 302.865455 504 
L 306.472727 504 
L 310.08 504 
L 313.687273 504 
L 317.294545 504 
L 320.901818 504 
L 324.509091 504 
L 328.116364 504 
L 331.723636 504 
L 335.330909 504 
L 338.938182 504 
L 342.545455 504 
L 346.152727 504 
L 349.76 504 
L 353.367273 504 
L 356.974545 504 
L 360.581818 504 
L 364.189091 504 
L 367.796364 504 
L 371.403636 504 
L 375.010909 504 
L 378.618182 504 
L 382.225455 504 
L 385.832727 504 
L 389.44 504 
L 393.047273 504 
L 396.654545 504 
L 398.444971 504 
L 400.261818 502.284234 
L 403.096467 499.607273 
L 403.869091 498.877616 
L 407.476364 495.471027 
L 407.747952 495.214545 
L 411.083636 491.719179 
L 411.796665 490.821818 
L 414.365464 486.429091 
L 414.690909 485.733317 
L 416.411297 482.036364 
L 418.298182 477.981506 
L 418.455405 477.643636 
L 420.499535 473.250909 
L 421.905455 470.229632 
L 422.525721 468.858182 
L 424.109822 464.465455 
L 425.386213 460.072727 
L 425.512727 459.637325 
L 426.662585 455.68 
L 427.938999 451.287273 
L 429.12 447.222731 
L 429.12 446.894545 
L 429.12 442.501818 
L 429.12 438.109091 
L 429.12 433.716364 
L 429.12 429.323636 
L 429.12 424.930909 
L 429.12 420.538182 
L 429.12 416.145455 
L 429.12 411.752727 
L 429.12 407.36 
L 429.12 402.967273 
L 429.12 398.574545 
L 429.12 394.181818 
L 429.12 389.789091 
L 429.12 385.396364 
L 429.12 381.003636 
L 429.12 376.610909 
L 429.12 372.218182 
L 429.12 367.825455 
L 429.12 363.432727 
L 429.12 359.04 
L 429.12 354.647273 
L 429.12 350.254545 
L 429.12 345.861818 
L 429.12 341.469091 
L 429.12 337.076364 
L 429.12 332.683636 
L 429.12 328.290909 
L 429.12 323.898182 
L 429.12 319.505455 
L 429.12 315.112727 
L 429.12 310.72 
L 429.12 308.889772 
L 428.798265 310.72 
L 428.026036 315.112727 
L 427.253816 319.505455 
L 426.481595 323.898182 
L 425.709367 328.290909 
L 425.512727 329.409489 
L 424.937149 332.683636 
L 424.164945 337.076364 
L 423.39271 341.469091 
L 422.620487 345.861818 
L 421.905455 349.929175 
L 421.848256 350.254545 
L 421.076046 354.647273 
L 420.303821 359.04 
L 419.531617 363.432727 
L 418.759389 367.825455 
L 418.298182 369.9186 
L 417.755739 372.218182 
L 416.422584 376.610909 
L 415.120304 381.003636 
L 414.690909 382.462239 
L 413.831548 385.396364 
L 412.555143 389.789091 
L 411.278783 394.181818 
L 411.083636 394.853422 
L 410.002386 398.574545 
L 408.725988 402.967273 
L 407.476364 407.267857 
L 407.44959 407.36 
L 406.173214 411.752727 
L 404.89685 416.145455 
L 403.869091 419.68243 
L 403.620429 420.538182 
L 402.344036 424.930909 
L 401.067648 429.323636 
L 400.261818 432.096937 
L 399.791271 433.716364 
L 398.480652 438.109091 
L 396.664789 442.501818 
L 396.654545 442.523831 
L 394.62068 446.894545 
L 393.047273 450.275747 
L 392.576567 451.287273 
L 390.532447 455.68 
L 389.44 458.027599 
L 388.313955 460.072727 
L 385.832727 463.517622 
L 385.007532 464.465455 
L 382.225455 467.127052 
L 380.39236 468.858182 
L 378.618182 470.533662 
L 375.740892 473.250909 
L 375.010909 473.940284 
L 371.403636 476.607182 
L 369.664443 477.643636 
L 367.796364 478.756911 
L 364.189091 480.90665 
L 362.293426 482.036364 
L 360.581818 483.056368 
L 356.974545 485.206095 
L 354.92231 486.429091 
L 353.367273 487.355794 
L 349.76 489.357094 
L 346.152727 490.007249 
L 342.545455 490.445072 
L 339.441156 490.821818 
L 338.938182 490.88286 
L 335.330909 491.320662 
L 331.723636 491.758468 
L 328.116364 492.196277 
L 324.509091 492.634075 
L 320.901818 493.07187 
L 317.294545 493.509664 
L 313.687273 493.947473 
L 310.08 494.385291 
L 306.472727 494.835094 
L 303.59398 495.214545 
L 302.865455 495.311619 
L 299.258182 495.792236 
L 295.650909 496.272853 
L 292.043636 496.75347 
L 288.436364 497.234108 
L 284.829091 497.714713 
L 281.221818 498.196041 
L 277.614545 498.681454 
L 274.007273 499.166841 
L 270.73453 499.607273 
L 270.4 499.652292 
L 266.792727 500.137672 
L 263.185455 500.623089 
L 259.578182 501.1085 
L 255.970909 501.295572 
L 252.363636 500.925284 
L 248.756364 500.555014 
L 245.149091 500.184707 
L 241.541818 499.814457 
L 239.519548 499.607273 
L 237.934545 499.444922 
L 234.327273 499.075783 
L 230.72 498.70459 
L 227.112727 498.312339 
L 223.505455 497.919961 
L 219.898182 497.527586 
L 216.290909 497.140993 
L 212.683636 496.891755 
L 209.076364 496.646128 
L 205.469091 496.400489 
L 201.861818 496.154871 
L 198.254545 495.909223 
L 194.647273 495.663591 
L 191.04 495.417956 
L 188.052784 495.214545 
L 187.432727 495.172324 
L 183.825455 494.926692 
L 180.218182 494.68106 
L 176.610909 494.435428 
L 173.003636 494.189781 
L 169.396364 493.944169 
L 165.789091 493.698532 
L 162.181818 493.452892 
L 158.574545 493.139586 
L 154.967273 492.323045 
L 151.36 491.372712 
L 149.268855 490.821818 
L 147.752727 490.422404 
L 144.145455 489.472055 
L 140.538182 488.371692 
L 136.930909 486.59309 
L 136.61461 486.429091 
L 133.323636 484.713095 
L 129.748442 482.036364 
L 129.716364 482.00828 
L 126.109091 478.850242 
L 124.730833 477.643636 
L 122.501818 475.016355 
L 121.535113 473.250909 
L 119.288863 468.858182 
L 118.894545 468.087073 
L 117.042566 464.465455 
L 115.287273 461.032847 
L 114.796305 460.072727 
L 112.550033 455.68 
L 111.68 453.978594 
L 110.303762 451.287273 
L 108.072727 446.924381 
L 108.057471 446.894545 
L 105.811212 442.501818 
L 104.465455 439.718111 
L 103.791718 438.109091 
L 102.324246 433.716364 
L 100.858182 429.327806 
L 100.856789 429.323636 
L 99.389345 424.930909 
L 97.921864 420.538182 
L 97.250909 418.529724 
L 96.454417 416.145455 
L 94.986954 411.752727 
L 93.643636 407.731585 
L 93.519502 407.36 
L 92.111348 402.967273 
L 91.1186 398.574545 
L 90.216902 394.181818 
L 90.036364 393.302275 
L 89.315242 389.789091 
L 88.407593 385.396364 
L 87.47518 381.003636 
L 86.523988 376.610909 
L 86.429091 376.172669 
L 85.572769 372.218182 
L 84.621548 367.825455 
L 83.670331 363.432727 
L 82.821818 359.514189 
L 82.719139 359.04 
L 81.806982 354.647273 
L 81.393991 350.254545 
L 81.005441 345.861818 
L 80.615765 341.469091 
L 80.156821 337.076364 
L 79.680336 332.683636 
L 79.214545 328.38968 
L 79.203831 328.290909 
L 78.685214 323.898182 
L 78.162686 319.505455 
L 77.640189 315.112727 
L 77.117692 310.72 
L 76.554577 306.327273 
L 75.842353 301.934545 
L 75.607273 300.491908 
L 75.126555 297.541818 
L 74.410755 293.149091 
L 73.694965 288.756364 
L 72.979169 284.363636 
L 72.263358 279.970909 
L 72 278.354755 
L 72 279.970909 
L 72 284.363636 
L 72 288.756364 
L 72 293.149091 
L 72 297.541818 
L 72 301.934545 
L 72 306.327273 
L 72 310.72 
L 72 315.112727 
L 72 319.505455 
L 72 323.898182 
L 72 328.290909 
L 72 332.683636 
L 72 337.076364 
L 72 341.469091 
L 72 345.861818 
L 72 350.254545 
L 72 354.647273 
L 72 359.04 
L 72 363.432727 
L 72 367.825455 
L 72 372.218182 
L 72 376.610909 
L 72 381.003636 
L 72 385.396364 
L 72 389.789091 
L 72 394.181818 
L 72 398.574545 
L 72 402.967273 
L 72 407.36 
L 72 411.752727 
L 72 416.145455 
L 72 420.538182 
L 72 424.930909 
L 72 429.323636 
L 72 433.716364 
L 72 438.109091 
L 72 442.501818 
L 72 445.406885 
L 72.49697 446.894545 
L 73.964444 451.287273 
L 75.431917 455.68 
L 75.607273 456.204922 
L 76.89936 460.072727 
L 78.366812 464.465455 
L 79.214545 467.003012 
L 79.899448 468.858182 
L 82.014962 473.250909 
L 82.821818 474.828781 
L 84.261214 477.643636 
L 86.429091 481.883059 
L 86.507485 482.036364 
L 88.753763 486.429091 
L 90.036364 488.937289 
L 91.000042 490.821818 
L 93.246299 495.214545 
L 93.643636 495.991564 
L 95.49256 499.607273 
z
" style="fill:#779af7;"/>
    <path clip-path="url(#p22e9d77728)" d="M 429.12 288.522419 
L 429.12 284.363636 
L 429.12 279.970909 
L 429.12 275.578182 
L 429.12 271.185455 
L 429.12 266.792727 
L 429.12 262.4 
L 429.12 258.007273 
L 429.12 253.614545 
L 429.12 249.221818 
L 429.12 244.829091 
L 429.12 240.436364 
L 429.12 236.043636 
L 429.12 231.650909 
L 429.12 227.258182 
L 429.12 222.865455 
L 429.12 218.472727 
L 429.12 214.08 
L 429.12 209.687273 
L 429.12 205.294545 
L 429.12 200.901818 
L 429.12 196.509091 
L 429.12 192.116364 
L 429.12 187.723636 
L 429.12 183.330909 
L 429.12 178.938182 
L 429.12 174.545455 
L 429.12 170.152727 
L 429.12 165.76 
L 429.12 161.367273 
L 429.12 156.974545 
L 429.12 152.581818 
L 429.12 148.189091 
L 429.12 143.796364 
L 429.12 139.403636 
L 429.12 135.010909 
L 429.12 130.618182 
L 429.12 126.225455 
L 429.12 121.832727 
L 429.12 117.44 
L 429.12 113.047273 
L 429.12 108.654545 
L 429.12 107.136774 
L 428.294605 104.261818 
L 427.060597 99.869091 
L 425.906328 95.476364 
L 425.512727 93.975907 
L 424.754024 91.083636 
L 423.601772 86.690909 
L 422.449507 82.298182 
L 421.905455 80.224175 
L 421.297218 77.905455 
L 420.144945 73.512727 
L 418.99271 69.12 
L 418.298182 69.12 
L 414.690909 69.12 
L 411.083636 69.12 
L 407.476364 69.12 
L 403.869091 69.12 
L 400.261818 69.12 
L 396.654545 69.12 
L 393.047273 69.12 
L 389.44 69.12 
L 385.832727 69.12 
L 382.225455 69.12 
L 378.618182 69.12 
L 375.010909 69.12 
L 371.403636 69.12 
L 369.206656 69.12 
L 371.403636 71.089487 
L 374.106783 73.512727 
L 375.010909 74.323244 
L 378.618182 77.557037 
L 379.006842 77.905455 
L 382.225455 80.790831 
L 383.89891 82.298182 
L 385.832727 84.046154 
L 388.269116 86.690909 
L 389.44 88.483284 
L 390.693253 91.083636 
L 392.151841 95.476364 
L 393.047273 98.889962 
L 393.304112 99.869091 
L 394.456381 104.261818 
L 395.608646 108.654545 
L 396.654545 112.641746 
L 396.760921 113.047273 
L 397.91319 117.44 
L 399.096821 121.832727 
L 400.261818 125.896522 
L 400.356255 126.225455 
L 401.617382 130.618182 
L 402.878527 135.010909 
L 403.869091 138.461172 
L 404.139671 139.403636 
L 405.400798 143.796364 
L 406.661942 148.189091 
L 407.476364 151.025827 
L 407.926549 152.581818 
L 409.377124 156.974545 
L 410.871609 161.367273 
L 411.083636 161.990493 
L 412.366049 165.76 
L 413.860499 170.152727 
L 414.690909 172.593585 
L 415.354966 174.545455 
L 416.849421 178.938182 
L 418.058168 183.330909 
L 418.298182 184.603759 
L 418.882529 187.723636 
L 419.705296 192.116364 
L 420.528013 196.509091 
L 421.35079 200.901818 
L 421.905455 203.863246 
L 422.173531 205.294545 
L 422.996305 209.687273 
L 423.819046 214.08 
L 424.641807 218.472727 
L 425.176253 222.865455 
L 425.43954 227.258182 
L 425.512727 228.479176 
L 425.702841 231.650909 
L 425.966084 236.043636 
L 426.229427 240.436364 
L 426.493062 244.829091 
L 426.757168 249.221818 
L 427.021262 253.614545 
L 427.28538 258.007273 
L 427.549469 262.4 
L 427.813546 266.792727 
L 428.077672 271.185455 
L 428.341766 275.578182 
L 428.605861 279.970909 
L 428.869956 284.363636 
z
" style="fill:#779af7;"/>
    <path clip-path="url(#p22e9d77728)" d="M 72.12622 262.4 
L 72.45753 258.007273 
L 72.788816 253.614545 
L 73.12012 249.221818 
L 73.451428 244.829091 
L 73.782726 240.436364 
L 74.114031 236.043636 
L 74.445328 231.650909 
L 74.776637 227.258182 
L 75.107935 222.865455 
L 75.439235 218.472727 
L 75.607273 216.244666 
L 75.770532 214.08 
L 76.101843 209.687273 
L 76.43314 205.294545 
L 76.764442 200.901818 
L 77.095746 196.509091 
L 77.427054 192.116364 
L 77.758352 187.723636 
L 78.276269 183.330909 
L 79.21032 178.938182 
L 79.214545 178.918311 
L 80.144359 174.545455 
L 81.078424 170.152727 
L 82.012475 165.76 
L 82.821818 161.953692 
L 82.94651 161.367273 
L 83.880573 156.974545 
L 84.81463 152.581818 
L 85.748675 148.189091 
L 86.429091 144.989213 
L 86.682731 143.796364 
L 87.616774 139.403636 
L 88.550816 135.010909 
L 89.484868 130.618182 
L 90.036364 128.602768 
L 90.778822 126.225455 
L 92.391363 121.832727 
L 93.643636 118.421396 
L 94.003899 117.44 
L 95.616455 113.047273 
L 97.250909 109.609819 
L 97.800979 108.654545 
L 100.858182 104.6441 
L 101.214184 104.261818 
L 104.465455 100.868643 
L 105.423213 99.869091 
L 108.072727 97.103959 
L 109.632255 95.476364 
L 111.68 93.339214 
L 113.841253 91.083636 
L 115.287273 89.574517 
L 118.05029 86.690909 
L 118.894545 85.809807 
L 122.259316 82.298182 
L 122.501818 82.045096 
L 126.109091 78.280415 
L 126.508764 77.905455 
L 129.716364 75.294184 
L 132.419448 73.512727 
L 133.323636 72.957387 
L 136.930909 71.433185 
L 140.538182 70.173716 
L 143.642331 69.12 
L 140.538182 69.12 
L 136.930909 69.12 
L 133.323636 69.12 
L 129.716364 69.12 
L 126.109091 69.12 
L 122.501818 69.12 
L 118.894545 69.12 
L 115.287273 69.12 
L 111.68 69.12 
L 108.072727 69.12 
L 104.465455 69.12 
L 100.858182 69.12 
L 97.250909 69.12 
L 93.643636 69.12 
L 90.036364 69.12 
L 86.429091 69.12 
L 82.821818 69.12 
L 79.214545 69.12 
L 77.401816 69.12 
L 75.607273 70.992837 
L 73.192786 73.512727 
L 72 74.886593 
L 72 77.905455 
L 72 82.298182 
L 72 86.690909 
L 72 91.083636 
L 72 95.476364 
L 72 99.869091 
L 72 104.261818 
L 72 108.654545 
L 72 113.047273 
L 72 117.44 
L 72 121.832727 
L 72 126.225455 
L 72 130.618182 
L 72 135.010909 
L 72 139.403636 
L 72 143.796364 
L 72 148.189091 
L 72 152.581818 
L 72 156.974545 
L 72 161.367273 
L 72 165.76 
L 72 170.152727 
L 72 174.545455 
L 72 178.938182 
L 72 183.330909 
L 72 187.723636 
L 72 192.116364 
L 72 196.509091 
L 72 200.901818 
L 72 205.294545 
L 72 209.687273 
L 72 214.08 
L 72 218.472727 
L 72 222.865455 
L 72 227.258182 
L 72 231.650909 
L 72 236.043636 
L 72 240.436364 
L 72 244.829091 
L 72 249.221818 
L 72 253.614545 
L 72 258.007273 
L 72 262.4 
L 72 264.073563 
z
" style="fill:#779af7;"/>
   </g>
   <g id="PathCollection_3">
    <path clip-path="url(#p22e9d77728)" d="M 241.541818 499.814457 
L 245.149091 500.184707 
L 248.756364 500.555014 
L 252.363636 500.925284 
L 255.970909 501.295572 
L 259.578182 501.1085 
L 263.185455 500.623089 
L 266.792727 500.137672 
L 270.4 499.652292 
L 270.73453 499.607273 
L 274.007273 499.166841 
L 277.614545 498.681454 
L 281.221818 498.196041 
L 284.829091 497.714713 
L 288.436364 497.234108 
L 292.043636 496.75347 
L 295.650909 496.272853 
L 299.258182 495.792236 
L 302.865455 495.311619 
L 303.59398 495.214545 
L 306.472727 494.835094 
L 310.08 494.385291 
L 313.687273 493.947473 
L 317.294545 493.509664 
L 320.901818 493.07187 
L 324.509091 492.634075 
L 328.116364 492.196277 
L 331.723636 491.758468 
L 335.330909 491.320662 
L 338.938182 490.88286 
L 339.441156 490.821818 
L 342.545455 490.445072 
L 346.152727 490.007249 
L 349.76 489.357094 
L 353.367273 487.355794 
L 354.92231 486.429091 
L 356.974545 485.206095 
L 360.581818 483.056368 
L 362.293426 482.036364 
L 364.189091 480.90665 
L 367.796364 478.756911 
L 369.664443 477.643636 
L 371.403636 476.607182 
L 375.010909 473.940284 
L 375.740892 473.250909 
L 378.618182 470.533662 
L 380.39236 468.858182 
L 382.225455 467.127052 
L 385.007532 464.465455 
L 385.832727 463.517622 
L 388.313955 460.072727 
L 389.44 458.027599 
L 390.532447 455.68 
L 392.576567 451.287273 
L 393.047273 450.275747 
L 394.62068 446.894545 
L 396.654545 442.523831 
L 396.664789 442.501818 
L 398.480652 438.109091 
L 399.791271 433.716364 
L 400.261818 432.096937 
L 401.067648 429.323636 
L 402.344036 424.930909 
L 403.620429 420.538182 
L 403.869091 419.68243 
L 404.89685 416.145455 
L 406.173214 411.752727 
L 407.44959 407.36 
L 407.476364 407.267857 
L 408.725988 402.967273 
L 410.002386 398.574545 
L 411.083636 394.853422 
L 411.278783 394.181818 
L 412.555143 389.789091 
L 413.831548 385.396364 
L 414.690909 382.462239 
L 415.120304 381.003636 
L 416.422584 376.610909 
L 417.755739 372.218182 
L 418.298182 369.9186 
L 418.759389 367.825455 
L 419.531617 363.432727 
L 420.303821 359.04 
L 421.076046 354.647273 
L 421.848256 350.254545 
L 421.905455 349.929175 
L 422.620487 345.861818 
L 423.39271 341.469091 
L 424.164945 337.076364 
L 424.937149 332.683636 
L 425.512727 329.409489 
L 425.709367 328.290909 
L 426.481595 323.898182 
L 427.253816 319.505455 
L 428.026036 315.112727 
L 428.798265 310.72 
L 429.12 308.889772 
L 429.12 306.327273 
L 429.12 301.934545 
L 429.12 297.541818 
L 429.12 293.149091 
L 429.12 288.756364 
L 429.12 288.522419 
L 428.869956 284.363636 
L 428.605861 279.970909 
L 428.341766 275.578182 
L 428.077672 271.185455 
L 427.813546 266.792727 
L 427.549469 262.4 
L 427.28538 258.007273 
L 427.021262 253.614545 
L 426.757168 249.221818 
L 426.493062 244.829091 
L 426.229427 240.436364 
L 425.966084 236.043636 
L 425.702841 231.650909 
L 425.512727 228.479176 
L 425.43954 227.258182 
L 425.176253 222.865455 
L 424.641807 218.472727 
L 423.819046 214.08 
L 422.996305 209.687273 
L 422.173531 205.294545 
L 421.905455 203.863246 
L 421.35079 200.901818 
L 420.528013 196.509091 
L 419.705296 192.116364 
L 418.882529 187.723636 
L 418.298182 184.603759 
L 418.058168 183.330909 
L 416.849421 178.938182 
L 415.354966 174.545455 
L 414.690909 172.593585 
L 413.860499 170.152727 
L 412.366049 165.76 
L 411.083636 161.990493 
L 410.871609 161.367273 
L 409.377124 156.974545 
L 407.926549 152.581818 
L 407.476364 151.025827 
L 406.661942 148.189091 
L 405.400798 143.796364 
L 404.139671 139.403636 
L 403.869091 138.461172 
L 402.878527 135.010909 
L 401.617382 130.618182 
L 400.356255 126.225455 
L 400.261818 125.896522 
L 399.096821 121.832727 
L 397.91319 117.44 
L 396.760921 113.047273 
L 396.654545 112.641746 
L 395.608646 108.654545 
L 394.456381 104.261818 
L 393.304112 99.869091 
L 393.047273 98.889962 
L 392.151841 95.476364 
L 390.693253 91.083636 
L 389.44 88.483284 
L 388.269116 86.690909 
L 385.832727 84.046154 
L 383.89891 82.298182 
L 382.225455 80.790831 
L 379.006842 77.905455 
L 378.618182 77.557037 
L 375.010909 74.323244 
L 374.106783 73.512727 
L 371.403636 71.089487 
L 369.206656 69.12 
L 367.796364 69.12 
L 364.189091 69.12 
L 360.581818 69.12 
L 356.974545 69.12 
L 353.367273 69.12 
L 349.76 69.12 
L 346.152727 69.12 
L 342.545455 69.12 
L 338.938182 69.12 
L 335.330909 69.12 
L 331.723636 69.12 
L 328.116364 69.12 
L 324.509091 69.12 
L 320.901818 69.12 
L 317.294545 69.12 
L 313.687273 69.12 
L 310.08 69.12 
L 306.472727 69.12 
L 302.865455 69.12 
L 299.258182 69.12 
L 295.650909 69.12 
L 292.043636 69.12 
L 288.436364 69.12 
L 284.829091 69.12 
L 281.221818 69.12 
L 277.614545 69.12 
L 274.007273 69.12 
L 270.4 69.12 
L 266.792727 69.12 
L 263.185455 69.12 
L 259.578182 69.12 
L 255.970909 69.12 
L 252.363636 69.12 
L 248.756364 69.12 
L 245.149091 69.12 
L 241.541818 69.12 
L 237.934545 69.12 
L 234.327273 69.12 
L 230.72 69.12 
L 227.112727 69.12 
L 223.505455 69.12 
L 219.898182 69.12 
L 216.290909 69.12 
L 212.683636 69.12 
L 209.076364 69.12 
L 205.469091 69.12 
L 201.861818 69.12 
L 198.254545 69.12 
L 194.647273 69.12 
L 191.04 69.12 
L 187.432727 69.12 
L 183.825455 69.12 
L 180.218182 69.12 
L 176.610909 69.12 
L 173.003636 69.12 
L 169.396364 69.12 
L 165.789091 69.12 
L 162.181818 69.12 
L 158.574545 69.12 
L 154.967273 69.12 
L 151.36 69.12 
L 147.752727 69.12 
L 144.145455 69.12 
L 143.642331 69.12 
L 140.538182 70.173716 
L 136.930909 71.433185 
L 133.323636 72.957387 
L 132.419448 73.512727 
L 129.716364 75.294184 
L 126.508764 77.905455 
L 126.109091 78.280415 
L 122.501818 82.045096 
L 122.259316 82.298182 
L 118.894545 85.809807 
L 118.05029 86.690909 
L 115.287273 89.574517 
L 113.841253 91.083636 
L 111.68 93.339214 
L 109.632255 95.476364 
L 108.072727 97.103959 
L 105.423213 99.869091 
L 104.465455 100.868643 
L 101.214184 104.261818 
L 100.858182 104.6441 
L 97.800979 108.654545 
L 97.250909 109.609819 
L 95.616455 113.047273 
L 94.003899 117.44 
L 93.643636 118.421396 
L 92.391363 121.832727 
L 90.778822 126.225455 
L 90.036364 128.602768 
L 89.484868 130.618182 
L 88.550816 135.010909 
L 87.616774 139.403636 
L 86.682731 143.796364 
L 86.429091 144.989213 
L 85.748675 148.189091 
L 84.81463 152.581818 
L 83.880573 156.974545 
L 82.94651 161.367273 
L 82.821818 161.953692 
L 82.012475 165.76 
L 81.078424 170.152727 
L 80.144359 174.545455 
L 79.214545 178.918311 
L 79.21032 178.938182 
L 78.276269 183.330909 
L 77.758352 187.723636 
L 77.427054 192.116364 
L 77.095746 196.509091 
L 76.764442 200.901818 
L 76.43314 205.294545 
L 76.101843 209.687273 
L 75.770532 214.08 
L 75.607273 216.244666 
L 75.439235 218.472727 
L 75.107935 222.865455 
L 74.776637 227.258182 
L 74.445328 231.650909 
L 74.114031 236.043636 
L 73.782726 240.436364 
L 73.451428 244.829091 
L 73.12012 249.221818 
L 72.788816 253.614545 
L 72.45753 258.007273 
L 72.12622 262.4 
L 72 264.073563 
L 72 266.792727 
L 72 271.185455 
L 72 275.578182 
L 72 278.354755 
L 72.263358 279.970909 
L 72.979169 284.363636 
L 73.694965 288.756364 
L 74.410755 293.149091 
L 75.126555 297.541818 
L 75.607273 300.491908 
L 75.842353 301.934545 
L 76.554577 306.327273 
L 77.117692 310.72 
L 77.640189 315.112727 
L 78.162686 319.505455 
L 78.685214 323.898182 
L 79.203831 328.290909 
L 79.214545 328.38968 
L 79.680336 332.683636 
L 80.156821 337.076364 
L 80.615765 341.469091 
L 81.005441 345.861818 
L 81.393991 350.254545 
L 81.806982 354.647273 
L 82.719139 359.04 
L 82.821818 359.514189 
L 83.670331 363.432727 
L 84.621548 367.825455 
L 85.572769 372.218182 
L 86.429091 376.172669 
L 86.523988 376.610909 
L 87.47518 381.003636 
L 88.407593 385.396364 
L 89.315242 389.789091 
L 90.036364 393.302275 
L 90.216902 394.181818 
L 91.1186 398.574545 
L 92.111348 402.967273 
L 93.519502 407.36 
L 93.643636 407.731585 
L 94.986954 411.752727 
L 96.454417 416.145455 
L 97.250909 418.529724 
L 97.921864 420.538182 
L 99.389345 424.930909 
L 100.856789 429.323636 
L 100.858182 429.327806 
L 102.324246 433.716364 
L 103.791718 438.109091 
L 104.465455 439.718111 
L 105.811212 442.501818 
L 108.057471 446.894545 
L 108.072727 446.924381 
L 110.303762 451.287273 
L 111.68 453.978594 
L 112.550033 455.68 
L 114.796305 460.072727 
L 115.287273 461.032847 
L 117.042566 464.465455 
L 118.894545 468.087073 
L 119.288863 468.858182 
L 121.535113 473.250909 
L 122.501818 475.016355 
L 124.730833 477.643636 
L 126.109091 478.850242 
L 129.716364 482.00828 
L 129.748442 482.036364 
L 133.323636 484.713095 
L 136.61461 486.429091 
L 136.930909 486.59309 
L 140.538182 488.371692 
L 144.145455 489.472055 
L 147.752727 490.422404 
L 149.268855 490.821818 
L 151.36 491.372712 
L 154.967273 492.323045 
L 158.574545 493.139586 
L 162.181818 493.452892 
L 165.789091 493.698532 
L 169.396364 493.944169 
L 173.003636 494.189781 
L 176.610909 494.435428 
L 180.218182 494.68106 
L 183.825455 494.926692 
L 187.432727 495.172324 
L 188.052784 495.214545 
L 191.04 495.417956 
L 194.647273 495.663591 
L 198.254545 495.909223 
L 201.861818 496.154871 
L 205.469091 496.400489 
L 209.076364 496.646128 
L 212.683636 496.891755 
L 216.290909 497.140993 
L 219.898182 497.527586 
L 223.505455 497.919961 
L 227.112727 498.312339 
L 230.72 498.70459 
L 234.327273 499.075783 
L 237.934545 499.444922 
L 239.519548 499.607273 
z
M 217.64045 460.072727 
L 216.290909 459.92594 
L 212.683636 459.533555 
L 209.076364 459.270293 
L 205.469091 459.024659 
L 201.861818 458.779036 
L 198.254545 458.533391 
L 194.647273 458.287775 
L 191.04 458.042134 
L 187.432727 457.796496 
L 183.825455 457.55086 
L 180.218182 457.305231 
L 176.610909 457.041245 
L 173.003636 456.208998 
L 170.995677 455.68 
L 169.396364 455.258662 
L 165.789091 454.308335 
L 162.181818 453.35801 
L 158.574545 452.187538 
L 156.759707 451.287273 
L 154.967273 450.267135 
L 151.36 447.349518 
L 150.840302 446.894545 
L 147.752727 444.191496 
L 146.025048 442.501818 
L 144.145455 440.037365 
L 143.08511 438.109091 
L 140.838832 433.716364 
L 140.538182 433.128418 
L 138.592577 429.323636 
L 136.930909 426.074144 
L 136.3463 424.930909 
L 134.100039 420.538182 
L 133.323636 419.01989 
L 131.853752 416.145455 
L 129.716364 411.965662 
L 129.61011 411.752727 
L 127.749151 407.36 
L 126.281687 402.967273 
L 126.109091 402.46245 
L 124.777184 398.574545 
L 123.209929 394.181818 
L 122.501818 392.19711 
L 121.642681 389.789091 
L 120.075443 385.396364 
L 118.967999 381.003636 
L 118.894545 380.645789 
L 118.06633 376.610909 
L 117.164658 372.218182 
L 116.262978 367.825455 
L 115.36131 363.432727 
L 115.287273 363.072038 
L 114.459632 359.04 
L 113.557942 354.647273 
L 112.631024 350.254545 
L 111.68 345.916808 
L 111.667786 345.861818 
L 110.907826 341.469091 
L 110.473131 337.076364 
L 110.038452 332.683636 
L 109.603758 328.290909 
L 109.169079 323.898182 
L 108.702218 319.505455 
L 108.180967 315.112727 
L 108.072727 314.202748 
L 107.658463 310.72 
L 107.135958 306.327273 
L 106.613464 301.934545 
L 106.090952 297.541818 
L 105.535914 293.149091 
L 104.826829 288.756364 
L 104.465455 286.538695 
L 104.111025 284.363636 
L 103.395219 279.970909 
L 102.89541 275.578182 
L 103.221681 271.185455 
L 103.552984 266.792727 
L 103.884279 262.4 
L 104.215584 258.007273 
L 104.465455 254.694363 
L 104.546898 253.614545 
L 104.878181 249.221818 
L 105.209494 244.829091 
L 105.540792 240.436364 
L 105.872099 236.043636 
L 106.203397 231.650909 
L 106.534702 227.258182 
L 106.866009 222.865455 
L 107.197307 218.472727 
L 107.528613 214.08 
L 107.859912 209.687273 
L 108.072727 206.865656 
L 108.191225 205.294545 
L 108.58444 200.901818 
L 109.518497 196.509091 
L 110.452549 192.116364 
L 111.3866 187.723636 
L 111.68 186.343814 
L 112.320652 183.330909 
L 113.254699 178.938182 
L 114.188735 174.545455 
L 115.122806 170.152727 
L 115.287273 169.37925 
L 116.056841 165.76 
L 116.996142 161.367273 
L 118.347035 156.974545 
L 118.894545 155.48308 
L 119.959586 152.581818 
L 121.572112 148.189091 
L 122.501818 145.656508 
L 123.263104 143.796364 
L 125.747466 139.403636 
L 126.109091 138.859789 
L 129.235611 135.010909 
L 129.716364 134.509176 
L 133.323636 130.744466 
L 133.444638 130.618182 
L 136.930909 126.979762 
L 137.653674 126.225455 
L 140.538182 123.215039 
L 141.862685 121.832727 
L 144.145455 119.450334 
L 146.071715 117.44 
L 147.752727 115.743283 
L 151.36 113.088871 
L 151.423117 113.047273 
L 154.967273 110.711466 
L 158.574545 109.045033 
L 159.692954 108.654545 
L 162.181818 107.82782 
L 165.789091 107.247833 
L 169.396364 106.86803 
L 173.003636 106.488219 
L 176.610909 105.977555 
L 180.218182 105.413886 
L 183.825455 104.844657 
L 187.432727 104.275439 
L 187.519044 104.261818 
L 191.04 103.706218 
L 194.647273 103.137002 
L 198.254545 102.56777 
L 201.861818 101.99856 
L 205.469091 101.429351 
L 209.076364 100.860111 
L 212.683636 100.290902 
L 215.356649 99.869091 
L 216.290909 99.721662 
L 219.898182 99.152456 
L 223.505455 98.583243 
L 227.112727 98.014016 
L 230.72 97.444799 
L 234.327273 96.875574 
L 237.934545 96.306352 
L 241.541818 95.737134 
L 243.194414 95.476364 
L 245.149091 95.167923 
L 248.756364 94.967293 
L 252.363636 95.336947 
L 253.724107 95.476364 
L 255.970909 95.706608 
L 259.578182 96.076272 
L 263.185455 96.445956 
L 266.792727 96.815622 
L 270.4 97.185283 
L 274.007273 97.543444 
L 277.614545 97.861232 
L 281.221818 98.166659 
L 284.829091 98.472117 
L 288.436364 98.777549 
L 292.043636 99.08298 
L 295.650909 99.388438 
L 299.258182 99.690507 
L 301.403815 99.869091 
L 302.865455 99.990746 
L 306.472727 100.290987 
L 310.08 100.591217 
L 313.687273 100.891463 
L 317.294545 101.191674 
L 320.901818 101.491905 
L 324.509091 101.792138 
L 328.116364 102.092383 
L 331.723636 102.392608 
L 335.330909 102.692835 
L 338.938182 103.064288 
L 342.545455 104.192693 
L 342.680589 104.261818 
L 346.152727 106.207853 
L 349.76 108.584723 
L 349.840782 108.654545 
L 353.367273 111.815937 
L 354.740811 113.047273 
L 356.974545 115.049741 
L 359.640892 117.44 
L 360.581818 118.283501 
L 363.879851 121.832727 
L 364.189091 122.359002 
L 365.942999 126.225455 
L 367.597474 130.618182 
L 367.796364 131.307476 
L 368.767813 135.010909 
L 369.920086 139.403636 
L 371.15671 143.796364 
L 371.403636 144.656436 
L 372.417862 148.189091 
L 373.679015 152.581818 
L 374.940151 156.974545 
L 375.010909 157.221006 
L 376.201292 161.367273 
L 377.462439 165.76 
L 378.618182 169.376756 
L 378.871539 170.152727 
L 380.366 174.545455 
L 381.860469 178.938182 
L 382.225455 180.011 
L 383.354923 183.330909 
L 384.849369 187.723636 
L 385.832727 190.614083 
L 386.343821 192.116364 
L 387.838289 196.509091 
L 389.304158 200.901818 
L 389.44 201.571332 
L 390.137368 205.294545 
L 390.960125 209.687273 
L 391.782864 214.08 
L 392.60562 218.472727 
L 393.047273 220.830708 
L 393.428382 222.865455 
L 394.251134 227.258182 
L 395.073886 231.650909 
L 395.415901 236.043636 
L 395.679181 240.436364 
L 395.942459 244.829091 
L 396.205744 249.221818 
L 396.46903 253.614545 
L 396.654545 256.709911 
L 396.732301 258.007273 
L 396.995578 262.4 
L 397.258856 266.792727 
L 397.522136 271.185455 
L 397.78541 275.578182 
L 398.048772 279.970909 
L 398.312484 284.363636 
L 398.576587 288.756364 
L 398.840673 293.149091 
L 399.104778 297.541818 
L 399.145132 301.934545 
L 398.409906 306.327273 
L 397.637695 310.72 
L 396.865473 315.112727 
L 396.654545 316.312596 
L 396.093266 319.505455 
L 395.321041 323.898182 
L 394.54882 328.290909 
L 393.776601 332.683636 
L 393.047273 336.832441 
L 393.004393 337.076364 
L 392.232161 341.469091 
L 391.459933 345.861818 
L 390.687705 350.254545 
L 389.918082 354.647273 
L 389.44 356.312904 
L 388.605612 359.04 
L 387.23797 363.432727 
L 385.870329 367.825455 
L 385.832727 367.94623 
L 384.502713 372.218182 
L 383.135391 376.610909 
L 382.225455 379.733389 
L 381.854695 381.003636 
L 380.57831 385.396364 
L 379.301911 389.789091 
L 378.618182 392.142166 
L 378.025524 394.181818 
L 376.749141 398.574545 
L 375.472755 402.967273 
L 375.010909 404.55672 
L 374.196362 407.36 
L 372.748939 411.752727 
L 371.403636 414.818112 
L 370.785964 416.145455 
L 368.741853 420.538182 
L 367.796364 422.56997 
L 366.697708 424.930909 
L 364.653585 429.323636 
L 364.189091 430.131476 
L 361.702487 433.716364 
L 360.581818 435.110944 
L 357.688233 438.109091 
L 356.974545 438.783076 
L 353.367273 442.042382 
L 352.673543 442.501818 
L 349.76 444.238118 
L 346.152727 446.387839 
L 345.302458 446.894545 
L 342.545455 448.537549 
L 338.938182 450.687284 
L 337.931403 451.287273 
L 335.330909 452.837031 
L 331.723636 454.684944 
L 328.116364 455.359783 
L 325.47789 455.68 
L 324.509091 455.797578 
L 320.901818 456.235382 
L 317.294545 456.673185 
L 313.687273 457.110992 
L 310.08 457.548806 
L 306.472727 457.986601 
L 302.865455 458.424395 
L 299.258182 458.862218 
L 295.650909 459.300008 
L 292.043636 459.73782 
L 289.284248 460.072727 
L 288.436364 460.175634 
L 284.829091 460.613412 
L 281.221818 461.053796 
L 277.614545 461.496321 
L 274.007273 461.938857 
L 270.4 462.381394 
L 266.792727 462.824161 
L 263.185455 463.286421 
L 259.578182 463.763435 
L 255.970909 464.166204 
L 252.363636 463.79704 
L 248.756364 463.427862 
L 245.149091 463.058537 
L 241.541818 462.672594 
L 237.934545 462.280224 
L 234.327273 461.887835 
L 230.72 461.49546 
L 227.112727 461.103082 
L 223.505455 460.710692 
L 219.898182 460.318298 
z
" style="fill:#a3c2fe;"/>
   </g>
   <g id="PathCollection_4">
    <path clip-path="url(#p22e9d77728)" d="M 219.898182 460.318298 
L 223.505455 460.710692 
L 227.112727 461.103082 
L 230.72 461.49546 
L 234.327273 461.887835 
L 237.934545 462.280224 
L 241.541818 462.672594 
L 245.149091 463.058537 
L 248.756364 463.427862 
L 252.363636 463.79704 
L 255.970909 464.166204 
L 259.578182 463.763435 
L 263.185455 463.286421 
L 266.792727 462.824161 
L 270.4 462.381394 
L 274.007273 461.938857 
L 277.614545 461.496321 
L 281.221818 461.053796 
L 284.829091 460.613412 
L 288.436364 460.175634 
L 289.284248 460.072727 
L 292.043636 459.73782 
L 295.650909 459.300008 
L 299.258182 458.862218 
L 302.865455 458.424395 
L 306.472727 457.986601 
L 310.08 457.548806 
L 313.687273 457.110992 
L 317.294545 456.673185 
L 320.901818 456.235382 
L 324.509091 455.797578 
L 325.47789 455.68 
L 328.116364 455.359783 
L 331.723636 454.684944 
L 335.330909 452.837031 
L 337.931403 451.287273 
L 338.938182 450.687284 
L 342.545455 448.537549 
L 345.302458 446.894545 
L 346.152727 446.387839 
L 349.76 444.238118 
L 352.673543 442.501818 
L 353.367273 442.042382 
L 356.974545 438.783076 
L 357.688233 438.109091 
L 360.581818 435.110944 
L 361.702487 433.716364 
L 364.189091 430.131476 
L 364.653585 429.323636 
L 366.697708 424.930909 
L 367.796364 422.56997 
L 368.741853 420.538182 
L 370.785964 416.145455 
L 371.403636 414.818112 
L 372.748939 411.752727 
L 374.196362 407.36 
L 375.010909 404.55672 
L 375.472755 402.967273 
L 376.749141 398.574545 
L 378.025524 394.181818 
L 378.618182 392.142166 
L 379.301911 389.789091 
L 380.57831 385.396364 
L 381.854695 381.003636 
L 382.225455 379.733389 
L 383.135391 376.610909 
L 384.502713 372.218182 
L 385.832727 367.94623 
L 385.870329 367.825455 
L 387.23797 363.432727 
L 388.605612 359.04 
L 389.44 356.312904 
L 389.918082 354.647273 
L 390.687705 350.254545 
L 391.459933 345.861818 
L 392.232161 341.469091 
L 393.004393 337.076364 
L 393.047273 336.832441 
L 393.776601 332.683636 
L 394.54882 328.290909 
L 395.321041 323.898182 
L 396.093266 319.505455 
L 396.654545 316.312596 
L 396.865473 315.112727 
L 397.637695 310.72 
L 398.409906 306.327273 
L 399.145132 301.934545 
L 399.104778 297.541818 
L 398.840673 293.149091 
L 398.576587 288.756364 
L 398.312484 284.363636 
L 398.048772 279.970909 
L 397.78541 275.578182 
L 397.522136 271.185455 
L 397.258856 266.792727 
L 396.995578 262.4 
L 396.732301 258.007273 
L 396.654545 256.709911 
L 396.46903 253.614545 
L 396.205744 249.221818 
L 395.942459 244.829091 
L 395.679181 240.436364 
L 395.415901 236.043636 
L 395.073886 231.650909 
L 394.251134 227.258182 
L 393.428382 222.865455 
L 393.047273 220.830708 
L 392.60562 218.472727 
L 391.782864 214.08 
L 390.960125 209.687273 
L 390.137368 205.294545 
L 389.44 201.571332 
L 389.304158 200.901818 
L 387.838289 196.509091 
L 386.343821 192.116364 
L 385.832727 190.614083 
L 384.849369 187.723636 
L 383.354923 183.330909 
L 382.225455 180.011 
L 381.860469 178.938182 
L 380.366 174.545455 
L 378.871539 170.152727 
L 378.618182 169.376756 
L 377.462439 165.76 
L 376.201292 161.367273 
L 375.010909 157.221006 
L 374.940151 156.974545 
L 373.679015 152.581818 
L 372.417862 148.189091 
L 371.403636 144.656436 
L 371.15671 143.796364 
L 369.920086 139.403636 
L 368.767813 135.010909 
L 367.796364 131.307476 
L 367.597474 130.618182 
L 365.942999 126.225455 
L 364.189091 122.359002 
L 363.879851 121.832727 
L 360.581818 118.283501 
L 359.640892 117.44 
L 356.974545 115.049741 
L 354.740811 113.047273 
L 353.367273 111.815937 
L 349.840782 108.654545 
L 349.76 108.584723 
L 346.152727 106.207853 
L 342.680589 104.261818 
L 342.545455 104.192693 
L 338.938182 103.064288 
L 335.330909 102.692835 
L 331.723636 102.392608 
L 328.116364 102.092383 
L 324.509091 101.792138 
L 320.901818 101.491905 
L 317.294545 101.191674 
L 313.687273 100.891463 
L 310.08 100.591217 
L 306.472727 100.290987 
L 302.865455 99.990746 
L 301.403815 99.869091 
L 299.258182 99.690507 
L 295.650909 99.388438 
L 292.043636 99.08298 
L 288.436364 98.777549 
L 284.829091 98.472117 
L 281.221818 98.166659 
L 277.614545 97.861232 
L 274.007273 97.543444 
L 270.4 97.185283 
L 266.792727 96.815622 
L 263.185455 96.445956 
L 259.578182 96.076272 
L 255.970909 95.706608 
L 253.724107 95.476364 
L 252.363636 95.336947 
L 248.756364 94.967293 
L 245.149091 95.167923 
L 243.194414 95.476364 
L 241.541818 95.737134 
L 237.934545 96.306352 
L 234.327273 96.875574 
L 230.72 97.444799 
L 227.112727 98.014016 
L 223.505455 98.583243 
L 219.898182 99.152456 
L 216.290909 99.721662 
L 215.356649 99.869091 
L 212.683636 100.290902 
L 209.076364 100.860111 
L 205.469091 101.429351 
L 201.861818 101.99856 
L 198.254545 102.56777 
L 194.647273 103.137002 
L 191.04 103.706218 
L 187.519044 104.261818 
L 187.432727 104.275439 
L 183.825455 104.844657 
L 180.218182 105.413886 
L 176.610909 105.977555 
L 173.003636 106.488219 
L 169.396364 106.86803 
L 165.789091 107.247833 
L 162.181818 107.82782 
L 159.692954 108.654545 
L 158.574545 109.045033 
L 154.967273 110.711466 
L 151.423117 113.047273 
L 151.36 113.088871 
L 147.752727 115.743283 
L 146.071715 117.44 
L 144.145455 119.450334 
L 141.862685 121.832727 
L 140.538182 123.215039 
L 137.653674 126.225455 
L 136.930909 126.979762 
L 133.444638 130.618182 
L 133.323636 130.744466 
L 129.716364 134.509176 
L 129.235611 135.010909 
L 126.109091 138.859789 
L 125.747466 139.403636 
L 123.263104 143.796364 
L 122.501818 145.656508 
L 121.572112 148.189091 
L 119.959586 152.581818 
L 118.894545 155.48308 
L 118.347035 156.974545 
L 116.996142 161.367273 
L 116.056841 165.76 
L 115.287273 169.37925 
L 115.122806 170.152727 
L 114.188735 174.545455 
L 113.254699 178.938182 
L 112.320652 183.330909 
L 111.68 186.343814 
L 111.3866 187.723636 
L 110.452549 192.116364 
L 109.518497 196.509091 
L 108.58444 200.901818 
L 108.191225 205.294545 
L 108.072727 206.865656 
L 107.859912 209.687273 
L 107.528613 214.08 
L 107.197307 218.472727 
L 106.866009 222.865455 
L 106.534702 227.258182 
L 106.203397 231.650909 
L 105.872099 236.043636 
L 105.540792 240.436364 
L 105.209494 244.829091 
L 104.878181 249.221818 
L 104.546898 253.614545 
L 104.465455 254.694363 
L 104.215584 258.007273 
L 103.884279 262.4 
L 103.552984 266.792727 
L 103.221681 271.185455 
L 102.89541 275.578182 
L 103.395219 279.970909 
L 104.111025 284.363636 
L 104.465455 286.538695 
L 104.826829 288.756364 
L 105.535914 293.149091 
L 106.090952 297.541818 
L 106.613464 301.934545 
L 107.135958 306.327273 
L 107.658463 310.72 
L 108.072727 314.202748 
L 108.180967 315.112727 
L 108.702218 319.505455 
L 109.169079 323.898182 
L 109.603758 328.290909 
L 110.038452 332.683636 
L 110.473131 337.076364 
L 110.907826 341.469091 
L 111.667786 345.861818 
L 111.68 345.916808 
L 112.631024 350.254545 
L 113.557942 354.647273 
L 114.459632 359.04 
L 115.287273 363.072038 
L 115.36131 363.432727 
L 116.262978 367.825455 
L 117.164658 372.218182 
L 118.06633 376.610909 
L 118.894545 380.645789 
L 118.967999 381.003636 
L 120.075443 385.396364 
L 121.642681 389.789091 
L 122.501818 392.19711 
L 123.209929 394.181818 
L 124.777184 398.574545 
L 126.109091 402.46245 
L 126.281687 402.967273 
L 127.749151 407.36 
L 129.61011 411.752727 
L 129.716364 411.965662 
L 131.853752 416.145455 
L 133.323636 419.01989 
L 134.100039 420.538182 
L 136.3463 424.930909 
L 136.930909 426.074144 
L 138.592577 429.323636 
L 140.538182 433.128418 
L 140.838832 433.716364 
L 143.08511 438.109091 
L 144.145455 440.037365 
L 146.025048 442.501818 
L 147.752727 444.191496 
L 150.840302 446.894545 
L 151.36 447.349518 
L 154.967273 450.267135 
L 156.759707 451.287273 
L 158.574545 452.187538 
L 162.181818 453.35801 
L 165.789091 454.308335 
L 169.396364 455.258662 
L 170.995677 455.68 
L 173.003636 456.208998 
L 176.610909 457.041245 
L 180.218182 457.305231 
L 183.825455 457.55086 
L 187.432727 457.796496 
L 191.04 458.042134 
L 194.647273 458.287775 
L 198.254545 458.533391 
L 201.861818 458.779036 
L 205.469091 459.024659 
L 209.076364 459.270293 
L 212.683636 459.533555 
L 216.290909 459.92594 
L 217.64045 460.072727 
z
M 234.52262 424.930909 
L 234.327273 424.907995 
L 230.72 424.484911 
L 227.112727 424.061804 
L 223.505455 423.638708 
L 219.898182 423.215591 
L 216.290909 422.792497 
L 212.683636 422.369403 
L 209.076364 421.954878 
L 205.469091 421.648846 
L 201.861818 421.403192 
L 198.254545 421.157567 
L 194.647273 420.911926 
L 192.916866 420.538182 
L 191.04 420.094954 
L 187.432727 419.144609 
L 183.825455 418.194278 
L 180.218182 417.243956 
L 177.226795 416.145455 
L 176.610909 415.848773 
L 173.003636 412.690739 
L 171.932185 411.752727 
L 169.396364 409.528216 
L 167.489243 407.36 
L 165.789091 404.935051 
L 164.63509 402.967273 
L 162.388819 398.574545 
L 162.181818 398.181651 
L 160.069604 394.181818 
L 158.574545 391.402939 
L 157.70628 389.789091 
L 155.341983 385.396364 
L 154.967273 384.708327 
L 152.991549 381.003636 
L 151.36 377.082031 
L 151.18785 376.610909 
L 149.579532 372.218182 
L 147.971205 367.825455 
L 147.752727 367.147033 
L 146.654848 363.432727 
L 145.709807 359.04 
L 144.764756 354.647273 
L 144.145455 351.768622 
L 143.819723 350.254545 
L 142.87468 345.861818 
L 141.92964 341.469091 
L 140.984609 337.076364 
L 140.538182 335.001313 
L 140.048225 332.683636 
L 139.565773 328.290909 
L 139.171596 323.898182 
L 138.777428 319.505455 
L 138.38326 315.112727 
L 137.989092 310.72 
L 137.576951 306.327273 
L 137.146356 301.934545 
L 136.930909 300.081818 
L 136.631721 297.541818 
L 136.109224 293.149091 
L 135.586718 288.756364 
L 135.064221 284.363636 
L 134.516632 279.970909 
L 134.648448 275.578182 
L 134.979751 271.185455 
L 135.311054 266.792727 
L 135.642357 262.4 
L 135.97365 258.007273 
L 136.304957 253.614545 
L 136.636255 249.221818 
L 136.930909 245.315042 
L 136.96756 244.829091 
L 137.298866 240.436364 
L 137.630171 236.043636 
L 137.961468 231.650909 
L 138.292769 227.258182 
L 138.624076 222.865455 
L 138.982538 218.472727 
L 139.826667 214.08 
L 140.538182 210.733887 
L 140.760733 209.687273 
L 141.694768 205.294545 
L 142.628828 200.901818 
L 143.562871 196.509091 
L 144.145455 193.769301 
L 144.521202 192.116364 
L 145.915256 187.723636 
L 147.527801 183.330909 
L 147.752727 182.718197 
L 149.140351 178.938182 
L 151.005525 174.545455 
L 151.36 173.908338 
L 153.693917 170.152727 
L 154.967273 168.3757 
L 157.25701 165.76 
L 158.574545 164.384971 
L 161.466042 161.367273 
L 162.181818 160.620253 
L 165.67509 156.974545 
L 165.789091 156.855569 
L 169.396364 153.318535 
L 170.426778 152.581818 
L 173.003636 150.883536 
L 176.610909 148.506146 
L 177.133817 148.189091 
L 180.218182 146.557651 
L 183.825455 145.654212 
L 187.432727 145.1106 
L 191.04 144.566992 
L 194.647273 144.023375 
L 196.153725 143.796364 
L 198.254545 143.479785 
L 201.861818 142.936167 
L 205.469091 142.392143 
L 209.076364 141.838183 
L 212.683636 141.268952 
L 216.290909 140.699728 
L 219.898182 140.130517 
L 223.505455 139.56129 
L 224.504554 139.403636 
L 227.112727 138.99208 
L 230.72 138.422866 
L 234.327273 137.853641 
L 237.934545 137.284416 
L 241.541818 136.715202 
L 245.149091 136.145974 
L 248.756364 135.682241 
L 252.363636 136.002077 
L 255.970909 136.30751 
L 259.578182 136.612963 
L 263.185455 136.918382 
L 266.792727 137.223826 
L 270.4 137.529266 
L 274.007273 137.83472 
L 277.614545 138.140159 
L 281.221818 138.445598 
L 284.829091 138.751051 
L 288.436364 139.056485 
L 292.043636 139.361925 
L 292.536798 139.403636 
L 295.650909 139.667013 
L 299.258182 139.967259 
L 302.865455 140.267471 
L 306.472727 140.567708 
L 310.08 140.867923 
L 313.687273 141.16816 
L 317.294545 141.468399 
L 320.901818 142.432339 
L 323.383604 143.796364 
L 324.509091 144.42717 
L 328.116364 146.448943 
L 330.414991 148.189091 
L 331.723636 149.308575 
L 335.330909 152.542361 
L 335.37072 152.581818 
L 338.938182 156.898568 
L 338.984029 156.974545 
L 341.098259 161.367273 
L 342.545455 164.351707 
L 343.121446 165.76 
L 344.436945 170.152727 
L 345.714616 174.545455 
L 346.152727 176.051736 
L 346.990797 178.938182 
L 348.36395 183.330909 
L 349.76 187.428505 
L 349.860407 187.723636 
L 351.354868 192.116364 
L 352.849329 196.509091 
L 353.367273 198.03151 
L 354.34378 200.901818 
L 355.838244 205.294545 
L 356.974545 208.634515 
L 357.332706 209.687273 
L 358.827162 214.08 
L 360.321618 218.472727 
L 360.581818 219.470739 
L 361.392192 222.865455 
L 362.214949 227.258182 
L 363.037706 231.650909 
L 363.860456 236.043636 
L 364.189091 237.798196 
L 364.683226 240.436364 
L 365.392277 244.829091 
L 365.655547 249.221818 
L 365.918833 253.614545 
L 366.18212 258.007273 
L 366.44539 262.4 
L 366.708669 266.792727 
L 366.971953 271.185455 
L 367.235233 275.578182 
L 367.498497 279.970909 
L 367.761782 284.363636 
L 367.796364 284.940614 
L 368.025061 288.756364 
L 368.28834 293.149091 
L 368.547767 297.541818 
L 368.025334 301.934545 
L 367.796364 303.236066 
L 367.252538 306.327273 
L 366.479722 310.72 
L 365.706915 315.112727 
L 364.934104 319.505455 
L 364.189091 323.740248 
L 364.161419 323.898182 
L 363.407755 328.290909 
L 362.656976 332.683636 
L 361.906305 337.076364 
L 360.887316 341.469091 
L 360.581818 342.450316 
L 359.519667 345.861818 
L 358.152054 350.254545 
L 356.974545 354.036579 
L 356.78441 354.647273 
L 355.416784 359.04 
L 354.049159 363.432727 
L 353.367273 365.622896 
L 352.681528 367.825455 
L 351.3139 372.218182 
L 349.946262 376.610909 
L 349.76 377.220341 
L 348.601461 381.003636 
L 346.951258 385.396364 
L 346.152727 387.112368 
L 344.907136 389.789091 
L 342.863018 394.181818 
L 342.545455 394.864247 
L 340.818888 398.574545 
L 338.938182 401.965965 
L 338.268327 402.967273 
L 335.330909 406.966854 
L 334.943285 407.36 
L 331.723636 409.719334 
L 328.311511 411.752727 
L 328.116364 411.869023 
L 324.509091 414.018762 
L 320.940434 416.145455 
L 320.901818 416.168467 
L 317.294545 418.318207 
L 313.687273 419.954271 
L 310.972942 420.538182 
L 310.08 420.712296 
L 306.472727 421.150102 
L 302.865455 421.587915 
L 299.258182 422.025707 
L 295.650909 422.463832 
L 292.043636 422.902442 
L 288.436364 423.34119 
L 284.829091 423.779936 
L 281.221818 424.223113 
L 277.614545 424.666584 
L 275.464564 424.930909 
L 274.007273 425.110072 
L 270.4 425.553526 
L 266.792727 425.997028 
L 263.185455 426.440481 
L 259.578182 426.883968 
L 255.970909 427.319369 
L 252.363636 427.023522 
L 248.756364 426.600413 
L 245.149091 426.177303 
L 241.541818 425.754214 
L 237.934545 425.331117 
z
" style="fill:#ccd9ed;"/>
   </g>
   <g id="PathCollection_5">
    <path clip-path="url(#p22e9d77728)" d="M 237.934545 425.331117 
L 241.541818 425.754214 
L 245.149091 426.177303 
L 248.756364 426.600413 
L 252.363636 427.023522 
L 255.970909 427.319369 
L 259.578182 426.883968 
L 263.185455 426.440481 
L 266.792727 425.997028 
L 270.4 425.553526 
L 274.007273 425.110072 
L 275.464564 424.930909 
L 277.614545 424.666584 
L 281.221818 424.223113 
L 284.829091 423.779936 
L 288.436364 423.34119 
L 292.043636 422.902442 
L 295.650909 422.463832 
L 299.258182 422.025707 
L 302.865455 421.587915 
L 306.472727 421.150102 
L 310.08 420.712296 
L 310.972942 420.538182 
L 313.687273 419.954271 
L 317.294545 418.318207 
L 320.901818 416.168467 
L 320.940434 416.145455 
L 324.509091 414.018762 
L 328.116364 411.869023 
L 328.311511 411.752727 
L 331.723636 409.719334 
L 334.943285 407.36 
L 335.330909 406.966854 
L 338.268327 402.967273 
L 338.938182 401.965965 
L 340.818888 398.574545 
L 342.545455 394.864247 
L 342.863018 394.181818 
L 344.907136 389.789091 
L 346.152727 387.112368 
L 346.951258 385.396364 
L 348.601461 381.003636 
L 349.76 377.220341 
L 349.946262 376.610909 
L 351.3139 372.218182 
L 352.681528 367.825455 
L 353.367273 365.622896 
L 354.049159 363.432727 
L 355.416784 359.04 
L 356.78441 354.647273 
L 356.974545 354.036579 
L 358.152054 350.254545 
L 359.519667 345.861818 
L 360.581818 342.450316 
L 360.887316 341.469091 
L 361.906305 337.076364 
L 362.656976 332.683636 
L 363.407755 328.290909 
L 364.161419 323.898182 
L 364.189091 323.740248 
L 364.934104 319.505455 
L 365.706915 315.112727 
L 366.479722 310.72 
L 367.252538 306.327273 
L 367.796364 303.236066 
L 368.025334 301.934545 
L 368.547767 297.541818 
L 368.28834 293.149091 
L 368.025061 288.756364 
L 367.796364 284.940614 
L 367.761782 284.363636 
L 367.498497 279.970909 
L 367.235233 275.578182 
L 366.971953 271.185455 
L 366.708669 266.792727 
L 366.44539 262.4 
L 366.18212 258.007273 
L 365.918833 253.614545 
L 365.655547 249.221818 
L 365.392277 244.829091 
L 364.683226 240.436364 
L 364.189091 237.798196 
L 363.860456 236.043636 
L 363.037706 231.650909 
L 362.214949 227.258182 
L 361.392192 222.865455 
L 360.581818 219.470739 
L 360.321618 218.472727 
L 358.827162 214.08 
L 357.332706 209.687273 
L 356.974545 208.634515 
L 355.838244 205.294545 
L 354.34378 200.901818 
L 353.367273 198.03151 
L 352.849329 196.509091 
L 351.354868 192.116364 
L 349.860407 187.723636 
L 349.76 187.428505 
L 348.36395 183.330909 
L 346.990797 178.938182 
L 346.152727 176.051736 
L 345.714616 174.545455 
L 344.436945 170.152727 
L 343.121446 165.76 
L 342.545455 164.351707 
L 341.098259 161.367273 
L 338.984029 156.974545 
L 338.938182 156.898568 
L 335.37072 152.581818 
L 335.330909 152.542361 
L 331.723636 149.308575 
L 330.414991 148.189091 
L 328.116364 146.448943 
L 324.509091 144.42717 
L 323.383604 143.796364 
L 320.901818 142.432339 
L 317.294545 141.468399 
L 313.687273 141.16816 
L 310.08 140.867923 
L 306.472727 140.567708 
L 302.865455 140.267471 
L 299.258182 139.967259 
L 295.650909 139.667013 
L 292.536798 139.403636 
L 292.043636 139.361925 
L 288.436364 139.056485 
L 284.829091 138.751051 
L 281.221818 138.445598 
L 277.614545 138.140159 
L 274.007273 137.83472 
L 270.4 137.529266 
L 266.792727 137.223826 
L 263.185455 136.918382 
L 259.578182 136.612963 
L 255.970909 136.30751 
L 252.363636 136.002077 
L 248.756364 135.682241 
L 245.149091 136.145974 
L 241.541818 136.715202 
L 237.934545 137.284416 
L 234.327273 137.853641 
L 230.72 138.422866 
L 227.112727 138.99208 
L 224.504554 139.403636 
L 223.505455 139.56129 
L 219.898182 140.130517 
L 216.290909 140.699728 
L 212.683636 141.268952 
L 209.076364 141.838183 
L 205.469091 142.392143 
L 201.861818 142.936167 
L 198.254545 143.479785 
L 196.153725 143.796364 
L 194.647273 144.023375 
L 191.04 144.566992 
L 187.432727 145.1106 
L 183.825455 145.654212 
L 180.218182 146.557651 
L 177.133817 148.189091 
L 176.610909 148.506146 
L 173.003636 150.883536 
L 170.426778 152.581818 
L 169.396364 153.318535 
L 165.789091 156.855569 
L 165.67509 156.974545 
L 162.181818 160.620253 
L 161.466042 161.367273 
L 158.574545 164.384971 
L 157.25701 165.76 
L 154.967273 168.3757 
L 153.693917 170.152727 
L 151.36 173.908338 
L 151.005525 174.545455 
L 149.140351 178.938182 
L 147.752727 182.718197 
L 147.527801 183.330909 
L 145.915256 187.723636 
L 144.521202 192.116364 
L 144.145455 193.769301 
L 143.562871 196.509091 
L 142.628828 200.901818 
L 141.694768 205.294545 
L 140.760733 209.687273 
L 140.538182 210.733887 
L 139.826667 214.08 
L 138.982538 218.472727 
L 138.624076 222.865455 
L 138.292769 227.258182 
L 137.961468 231.650909 
L 137.630171 236.043636 
L 137.298866 240.436364 
L 136.96756 244.829091 
L 136.930909 245.315042 
L 136.636255 249.221818 
L 136.304957 253.614545 
L 135.97365 258.007273 
L 135.642357 262.4 
L 135.311054 266.792727 
L 134.979751 271.185455 
L 134.648448 275.578182 
L 134.516632 279.970909 
L 135.064221 284.363636 
L 135.586718 288.756364 
L 136.109224 293.149091 
L 136.631721 297.541818 
L 136.930909 300.081818 
L 137.146356 301.934545 
L 137.576951 306.327273 
L 137.989092 310.72 
L 138.38326 315.112727 
L 138.777428 319.505455 
L 139.171596 323.898182 
L 139.565773 328.290909 
L 140.048225 332.683636 
L 140.538182 335.001313 
L 140.984609 337.076364 
L 141.92964 341.469091 
L 142.87468 345.861818 
L 143.819723 350.254545 
L 144.145455 351.768622 
L 144.764756 354.647273 
L 145.709807 359.04 
L 146.654848 363.432727 
L 147.752727 367.147033 
L 147.971205 367.825455 
L 149.579532 372.218182 
L 151.18785 376.610909 
L 151.36 377.082031 
L 152.991549 381.003636 
L 154.967273 384.708327 
L 155.341983 385.396364 
L 157.70628 389.789091 
L 158.574545 391.402939 
L 160.069604 394.181818 
L 162.181818 398.181651 
L 162.388819 398.574545 
L 164.63509 402.967273 
L 165.789091 404.935051 
L 167.489243 407.36 
L 169.396364 409.528216 
L 171.932185 411.752727 
L 173.003636 412.690739 
L 176.610909 415.848773 
L 177.226795 416.145455 
L 180.218182 417.243956 
L 183.825455 418.194278 
L 187.432727 419.144609 
L 191.04 420.094954 
L 192.916866 420.538182 
L 194.647273 420.911926 
L 198.254545 421.157567 
L 201.861818 421.403192 
L 205.469091 421.648846 
L 209.076364 421.954878 
L 212.683636 422.369403 
L 216.290909 422.792497 
L 219.898182 423.215591 
L 223.505455 423.638708 
L 227.112727 424.061804 
L 230.72 424.484911 
L 234.327273 424.907995 
L 234.52262 424.930909 
z
M 247.812253 389.789091 
L 245.149091 389.48317 
L 241.541818 389.070071 
L 237.934545 388.661691 
L 234.327273 388.255893 
L 230.72 387.850092 
L 227.112727 387.444292 
L 223.505455 387.038485 
L 219.898182 386.632685 
L 216.290909 386.226896 
L 212.683636 385.82109 
L 210.782052 385.396364 
L 209.076364 384.981395 
L 205.469091 383.887844 
L 201.861818 382.882872 
L 198.254545 381.592651 
L 197.251837 381.003636 
L 194.647273 379.20232 
L 191.566536 376.610909 
L 191.04 376.104267 
L 187.914496 372.218182 
L 187.432727 371.589663 
L 184.969275 367.825455 
L 183.825455 365.772927 
L 182.545703 363.432727 
L 180.218182 359.176573 
L 180.143496 359.04 
L 177.741308 354.647273 
L 176.610909 352.569972 
L 175.518375 350.254545 
L 174.083909 345.861818 
L 173.118337 341.469091 
L 173.003636 340.935945 
L 172.173293 337.076364 
L 171.228253 332.683636 
L 170.283212 328.290909 
L 169.396364 324.168682 
L 169.338169 323.898182 
L 168.555978 319.505455 
L 168.161811 315.112727 
L 167.767643 310.72 
L 167.373479 306.327273 
L 166.979302 301.934545 
L 166.585134 297.541818 
L 166.190971 293.149091 
L 165.7968 288.756364 
L 165.789091 288.670449 
L 165.402629 284.363636 
L 165.355869 279.970909 
L 165.789091 276.433423 
L 165.893829 275.578182 
L 166.431789 271.185455 
L 166.969747 266.792727 
L 167.387516 262.4 
L 167.73172 258.007273 
L 168.06302 253.614545 
L 168.394322 249.221818 
L 168.725631 244.829091 
L 169.056925 240.436364 
L 169.388231 236.043636 
L 169.396364 235.992381 
L 170.13485 231.650909 
L 171.068904 227.258182 
L 172.008929 222.865455 
L 173.003636 219.779845 
L 173.483467 218.472727 
L 175.096016 214.08 
L 176.610909 209.953282 
L 176.713557 209.687273 
L 178.910545 205.294545 
L 180.218182 203.190371 
L 181.640405 200.901818 
L 183.825455 198.049929 
L 185.181781 196.509091 
L 187.432727 193.993073 
L 189.297007 192.116364 
L 191.04 190.59527 
L 194.647273 187.994839 
L 195.023478 187.723636 
L 198.254545 185.394385 
L 201.861818 183.711014 
L 204.272811 183.330909 
L 205.469091 183.150635 
L 209.076364 182.607018 
L 212.683636 182.063415 
L 216.290909 181.519807 
L 219.898182 180.964887 
L 223.505455 180.379468 
L 227.112727 179.781463 
L 230.72 179.183475 
L 232.199621 178.938182 
L 234.327273 178.585458 
L 237.934545 177.984105 
L 241.541818 177.36668 
L 245.149091 176.743055 
L 248.756364 176.119437 
L 252.363636 176.280995 
L 255.970909 176.58643 
L 259.578182 176.891875 
L 263.185455 177.197319 
L 266.792727 177.502758 
L 270.4 177.808208 
L 274.007273 178.11364 
L 277.614545 178.419084 
L 281.221818 178.724524 
L 283.745058 178.938182 
L 284.829091 179.029973 
L 288.436364 179.335403 
L 292.043636 179.640851 
L 295.650909 179.949854 
L 299.258182 180.738369 
L 302.865455 182.646475 
L 304.08662 183.330909 
L 306.472727 184.638121 
L 310.08 186.914536 
L 310.852786 187.723636 
L 313.687273 191.357804 
L 314.215172 192.116364 
L 316.722732 196.509091 
L 317.294545 197.546452 
L 319.02609 200.901818 
L 320.743003 205.294545 
L 320.901818 205.755729 
L 322.255707 209.687273 
L 323.768425 214.08 
L 324.509091 216.230795 
L 325.28114 218.472727 
L 326.793836 222.865455 
L 328.116364 226.705894 
L 328.306294 227.258182 
L 329.812482 231.650909 
L 331.310486 236.043636 
L 331.723636 237.320221 
L 332.647026 240.436364 
L 333.469782 244.829091 
L 334.292529 249.221818 
L 335.1153 253.614545 
L 335.330909 255.397262 
L 335.631931 258.007273 
L 335.895209 262.4 
L 336.158488 266.792727 
L 336.421761 271.185455 
L 336.685042 275.578182 
L 336.948323 279.970909 
L 337.211601 284.363636 
L 337.474883 288.756364 
L 337.741168 293.149091 
L 337.66129 297.541818 
L 336.910097 301.934545 
L 336.158911 306.327273 
L 335.407716 310.72 
L 335.330909 311.169145 
L 334.656526 315.112727 
L 333.905339 319.505455 
L 333.110082 323.898182 
L 331.809824 328.290909 
L 331.723636 328.567642 
L 330.441724 332.683636 
L 329.073623 337.076364 
L 328.116364 340.149942 
L 327.705518 341.469091 
L 326.337422 345.861818 
L 324.969325 350.254545 
L 324.509091 351.73228 
L 323.555339 354.647273 
L 321.650832 359.04 
L 320.901818 360.572214 
L 319.503473 363.432727 
L 317.356114 367.825455 
L 317.294545 367.951402 
L 315.018661 372.218182 
L 313.687273 374.009452 
L 310.9262 376.610909 
L 310.08 377.283003 
L 306.472727 379.627537 
L 304.10773 381.003636 
L 302.865455 381.73261 
L 299.258182 383.843313 
L 295.650909 385.214022 
L 294.930676 385.396364 
L 292.043636 386.073614 
L 288.436364 386.512378 
L 284.829091 386.957655 
L 281.221818 387.40455 
L 277.614545 387.849883 
L 274.007273 388.293638 
L 270.4 388.729262 
L 266.792727 389.148966 
L 263.185455 389.567196 
L 261.26643 389.789091 
L 259.578182 389.986721 
L 255.970909 390.409004 
L 252.363636 390.322926 
L 248.756364 389.899832 
z
" style="fill:#ecd3c5;"/>
   </g>
   <g id="PathCollection_6">
    <path clip-path="url(#p22e9d77728)" d="M 248.756364 389.899832 
L 252.363636 390.322926 
L 255.970909 390.409004 
L 259.578182 389.986721 
L 261.26643 389.789091 
L 263.185455 389.567196 
L 266.792727 389.148966 
L 270.4 388.729262 
L 274.007273 388.293638 
L 277.614545 387.849883 
L 281.221818 387.40455 
L 284.829091 386.957655 
L 288.436364 386.512378 
L 292.043636 386.073614 
L 294.930676 385.396364 
L 295.650909 385.214022 
L 299.258182 383.843313 
L 302.865455 381.73261 
L 304.10773 381.003636 
L 306.472727 379.627537 
L 310.08 377.283003 
L 310.9262 376.610909 
L 313.687273 374.009452 
L 315.018661 372.218182 
L 317.294545 367.951402 
L 317.356114 367.825455 
L 319.503473 363.432727 
L 320.901818 360.572214 
L 321.650832 359.04 
L 323.555339 354.647273 
L 324.509091 351.73228 
L 324.969325 350.254545 
L 326.337422 345.861818 
L 327.705518 341.469091 
L 328.116364 340.149942 
L 329.073623 337.076364 
L 330.441724 332.683636 
L 331.723636 328.567642 
L 331.809824 328.290909 
L 333.110082 323.898182 
L 333.905339 319.505455 
L 334.656526 315.112727 
L 335.330909 311.169145 
L 335.407716 310.72 
L 336.158911 306.327273 
L 336.910097 301.934545 
L 337.66129 297.541818 
L 337.741168 293.149091 
L 337.474883 288.756364 
L 337.211601 284.363636 
L 336.948323 279.970909 
L 336.685042 275.578182 
L 336.421761 271.185455 
L 336.158488 266.792727 
L 335.895209 262.4 
L 335.631931 258.007273 
L 335.330909 255.397262 
L 335.1153 253.614545 
L 334.292529 249.221818 
L 333.469782 244.829091 
L 332.647026 240.436364 
L 331.723636 237.320221 
L 331.310486 236.043636 
L 329.812482 231.650909 
L 328.306294 227.258182 
L 328.116364 226.705894 
L 326.793836 222.865455 
L 325.28114 218.472727 
L 324.509091 216.230795 
L 323.768425 214.08 
L 322.255707 209.687273 
L 320.901818 205.755729 
L 320.743003 205.294545 
L 319.02609 200.901818 
L 317.294545 197.546452 
L 316.722732 196.509091 
L 314.215172 192.116364 
L 313.687273 191.357804 
L 310.852786 187.723636 
L 310.08 186.914536 
L 306.472727 184.638121 
L 304.08662 183.330909 
L 302.865455 182.646475 
L 299.258182 180.738369 
L 295.650909 179.949854 
L 292.043636 179.640851 
L 288.436364 179.335403 
L 284.829091 179.029973 
L 283.745058 178.938182 
L 281.221818 178.724524 
L 277.614545 178.419084 
L 274.007273 178.11364 
L 270.4 177.808208 
L 266.792727 177.502758 
L 263.185455 177.197319 
L 259.578182 176.891875 
L 255.970909 176.58643 
L 252.363636 176.280995 
L 248.756364 176.119437 
L 245.149091 176.743055 
L 241.541818 177.36668 
L 237.934545 177.984105 
L 234.327273 178.585458 
L 232.199621 178.938182 
L 230.72 179.183475 
L 227.112727 179.781463 
L 223.505455 180.379468 
L 219.898182 180.964887 
L 216.290909 181.519807 
L 212.683636 182.063415 
L 209.076364 182.607018 
L 205.469091 183.150635 
L 204.272811 183.330909 
L 201.861818 183.711014 
L 198.254545 185.394385 
L 195.023478 187.723636 
L 194.647273 187.994839 
L 191.04 190.59527 
L 189.297007 192.116364 
L 187.432727 193.993073 
L 185.181781 196.509091 
L 183.825455 198.049929 
L 181.640405 200.901818 
L 180.218182 203.190371 
L 178.910545 205.294545 
L 176.713557 209.687273 
L 176.610909 209.953282 
L 175.096016 214.08 
L 173.483467 218.472727 
L 173.003636 219.779845 
L 172.008929 222.865455 
L 171.068904 227.258182 
L 170.13485 231.650909 
L 169.396364 235.992381 
L 169.388231 236.043636 
L 169.056925 240.436364 
L 168.725631 244.829091 
L 168.394322 249.221818 
L 168.06302 253.614545 
L 167.73172 258.007273 
L 167.387516 262.4 
L 166.969747 266.792727 
L 166.431789 271.185455 
L 165.893829 275.578182 
L 165.789091 276.433423 
L 165.355869 279.970909 
L 165.402629 284.363636 
L 165.789091 288.670449 
L 165.7968 288.756364 
L 166.190971 293.149091 
L 166.585134 297.541818 
L 166.979302 301.934545 
L 167.373479 306.327273 
L 167.767643 310.72 
L 168.161811 315.112727 
L 168.555978 319.505455 
L 169.338169 323.898182 
L 169.396364 324.168682 
L 170.283212 328.290909 
L 171.228253 332.683636 
L 172.173293 337.076364 
L 173.003636 340.935945 
L 173.118337 341.469091 
L 174.083909 345.861818 
L 175.518375 350.254545 
L 176.610909 352.569972 
L 177.741308 354.647273 
L 180.143496 359.04 
L 180.218182 359.176573 
L 182.545703 363.432727 
L 183.825455 365.772927 
L 184.969275 367.825455 
L 187.432727 371.589663 
L 187.914496 372.218182 
L 191.04 376.104267 
L 191.566536 376.610909 
L 194.647273 379.20232 
L 197.251837 381.003636 
L 198.254545 381.592651 
L 201.861818 382.882872 
L 205.469091 383.887844 
L 209.076364 384.981395 
L 210.782052 385.396364 
L 212.683636 385.82109 
L 216.290909 386.226896 
L 219.898182 386.632685 
L 223.505455 387.038485 
L 227.112727 387.444292 
L 230.72 387.850092 
L 234.327273 388.255893 
L 237.934545 388.661691 
L 241.541818 389.070071 
L 245.149091 389.48317 
L 247.812253 389.789091 
z
M 223.369394 350.254545 
L 219.898182 348.881928 
L 216.290909 346.826504 
L 214.831724 345.861818 
L 212.683636 344.11609 
L 210.545421 341.469091 
L 209.076364 339.468422 
L 207.319909 337.076364 
L 205.469091 334.192104 
L 204.651599 332.683636 
L 202.329044 328.290909 
L 201.861818 327.087262 
L 200.73537 323.898182 
L 199.504148 319.505455 
L 198.567541 315.112727 
L 198.254545 313.633573 
L 197.629814 310.72 
L 197.092923 306.327273 
L 196.699354 301.934545 
L 196.308986 297.541818 
L 195.912169 293.149091 
L 195.51535 288.756364 
L 195.121985 284.363636 
L 195.647257 279.970909 
L 196.224714 275.578182 
L 196.802168 271.185455 
L 197.379623 266.792727 
L 197.957074 262.4 
L 198.254545 260.045015 
L 198.513567 258.007273 
L 199.065054 253.614545 
L 200.191287 249.221818 
L 201.741931 244.829091 
L 201.861818 244.488637 
L 203.320949 240.436364 
L 205.469091 236.149788 
L 205.531361 236.043636 
L 208.108191 231.650909 
L 209.076364 230.185029 
L 212.181099 227.258182 
L 212.683636 226.890176 
L 216.290909 224.248595 
L 218.294505 222.865455 
L 219.898182 221.885709 
L 223.505455 220.695964 
L 227.112727 220.097967 
L 230.72 219.499971 
L 234.327273 218.901969 
L 236.916553 218.472727 
L 237.934545 218.303968 
L 241.541818 217.705967 
L 245.149091 217.107972 
L 248.756364 216.509967 
L 252.363636 216.442255 
L 255.970909 216.768254 
L 259.578182 217.067385 
L 263.185455 217.345373 
L 266.792727 217.60558 
L 270.4 217.809562 
L 274.007273 217.980902 
L 277.051368 218.472727 
L 277.614545 218.571881 
L 281.221818 219.839148 
L 284.829091 222.178572 
L 285.741102 222.865455 
L 288.436364 224.895399 
L 290.937219 227.258182 
L 292.043636 228.748776 
L 293.660298 231.650909 
L 295.650909 235.22427 
L 296.039562 236.043636 
L 297.6504 240.436364 
L 299.163127 244.829091 
L 299.258182 245.104884 
L 300.676776 249.221818 
L 302.194614 253.614545 
L 302.865455 255.547084 
L 303.689978 258.007273 
L 304.684113 262.4 
L 305.534398 266.792727 
L 305.885256 271.185455 
L 306.174558 275.578182 
L 306.463861 279.970909 
L 306.472727 280.105534 
L 306.753086 284.363636 
L 307.041006 288.756364 
L 307.300878 293.149091 
L 306.656497 297.541818 
L 306.472727 298.616442 
L 305.904859 301.934545 
L 305.154113 306.327273 
L 304.101996 310.72 
L 302.865455 314.690307 
L 302.733893 315.112727 
L 301.365799 319.505455 
L 299.997696 323.898182 
L 299.258182 326.272634 
L 298.55634 328.290909 
L 296.487435 332.683636 
L 295.650909 334.39487 
L 294.340073 337.076364 
L 292.043636 341.102202 
L 291.765693 341.469091 
L 288.436364 344.844265 
L 287.252818 345.861818 
L 284.829091 347.929319 
L 281.221818 350.20366 
L 281.073148 350.254545 
L 277.614545 351.348091 
L 274.007273 352.205853 
L 270.4 352.625935 
L 266.792727 353.046021 
L 263.185455 353.466109 
L 259.578182 353.886194 
L 255.970909 354.30628 
L 252.363636 354.430177 
L 248.756364 354.024377 
L 245.149091 353.618579 
L 241.541818 353.212776 
L 237.934545 352.806976 
L 234.327273 352.401176 
L 230.72 351.995374 
L 227.112727 351.375033 
L 223.505455 350.301452 
z
" style="fill:#f7b093;"/>
   </g>
   <g id="PathCollection_7">
    <path clip-path="url(#p22e9d77728)" d="M 223.505455 350.301452 
L 227.112727 351.375033 
L 230.72 351.995374 
L 234.327273 352.401176 
L 237.934545 352.806976 
L 241.541818 353.212776 
L 245.149091 353.618579 
L 248.756364 354.024377 
L 252.363636 354.430177 
L 255.970909 354.30628 
L 259.578182 353.886194 
L 263.185455 353.466109 
L 266.792727 353.046021 
L 270.4 352.625935 
L 274.007273 352.205853 
L 277.614545 351.348091 
L 281.073148 350.254545 
L 281.221818 350.20366 
L 284.829091 347.929319 
L 287.252818 345.861818 
L 288.436364 344.844265 
L 291.765693 341.469091 
L 292.043636 341.102202 
L 294.340073 337.076364 
L 295.650909 334.39487 
L 296.487435 332.683636 
L 298.55634 328.290909 
L 299.258182 326.272634 
L 299.997696 323.898182 
L 301.365799 319.505455 
L 302.733893 315.112727 
L 302.865455 314.690307 
L 304.101996 310.72 
L 305.154113 306.327273 
L 305.904859 301.934545 
L 306.472727 298.616442 
L 306.656497 297.541818 
L 307.300878 293.149091 
L 307.041006 288.756364 
L 306.753086 284.363636 
L 306.472727 280.105534 
L 306.463861 279.970909 
L 306.174558 275.578182 
L 305.885256 271.185455 
L 305.534398 266.792727 
L 304.684113 262.4 
L 303.689978 258.007273 
L 302.865455 255.547084 
L 302.194614 253.614545 
L 300.676776 249.221818 
L 299.258182 245.104884 
L 299.163127 244.829091 
L 297.6504 240.436364 
L 296.039562 236.043636 
L 295.650909 235.22427 
L 293.660298 231.650909 
L 292.043636 228.748776 
L 290.937219 227.258182 
L 288.436364 224.895399 
L 285.741102 222.865455 
L 284.829091 222.178572 
L 281.221818 219.839148 
L 277.614545 218.571881 
L 277.051368 218.472727 
L 274.007273 217.980902 
L 270.4 217.809562 
L 266.792727 217.60558 
L 263.185455 217.345373 
L 259.578182 217.067385 
L 255.970909 216.768254 
L 252.363636 216.442255 
L 248.756364 216.509967 
L 245.149091 217.107972 
L 241.541818 217.705967 
L 237.934545 218.303968 
L 236.916553 218.472727 
L 234.327273 218.901969 
L 230.72 219.499971 
L 227.112727 220.097967 
L 223.505455 220.695964 
L 219.898182 221.885709 
L 218.294505 222.865455 
L 216.290909 224.248595 
L 212.683636 226.890176 
L 212.181099 227.258182 
L 209.076364 230.185029 
L 208.108191 231.650909 
L 205.531361 236.043636 
L 205.469091 236.149788 
L 203.320949 240.436364 
L 201.861818 244.488637 
L 201.741931 244.829091 
L 200.191287 249.221818 
L 199.065054 253.614545 
L 198.513567 258.007273 
L 198.254545 260.045015 
L 197.957074 262.4 
L 197.379623 266.792727 
L 196.802168 271.185455 
L 196.224714 275.578182 
L 195.647257 279.970909 
L 195.121985 284.363636 
L 195.51535 288.756364 
L 195.912169 293.149091 
L 196.308986 297.541818 
L 196.699354 301.934545 
L 197.092923 306.327273 
L 197.629814 310.72 
L 198.254545 313.633573 
L 198.567541 315.112727 
L 199.504148 319.505455 
L 200.73537 323.898182 
L 201.861818 327.087262 
L 202.329044 328.290909 
L 204.651599 332.683636 
L 205.469091 334.192104 
L 207.319909 337.076364 
L 209.076364 339.468422 
L 210.545421 341.469091 
L 212.683636 344.11609 
L 214.831724 345.861818 
L 216.290909 346.826504 
L 219.898182 348.881928 
L 223.369394 350.254545 
z
M 239.249871 315.112727 
L 237.934545 314.363256 
L 234.327273 312.205688 
L 232.698414 310.72 
L 230.72 308.051281 
L 229.720254 306.327273 
L 227.511136 301.934545 
L 227.112727 301.033246 
L 225.853087 297.541818 
L 224.951925 293.149091 
L 224.359519 288.756364 
L 224.440188 284.363636 
L 225.23339 279.970909 
L 226.342366 275.578182 
L 227.112727 272.52673 
L 227.451342 271.185455 
L 229.020675 266.792727 
L 230.72 264.58839 
L 232.767509 262.4 
L 234.327273 260.732913 
L 237.685281 258.007273 
L 237.934545 257.855707 
L 241.541818 256.328499 
L 245.149091 255.300452 
L 248.756364 254.605156 
L 252.363636 254.212689 
L 255.970909 255.018736 
L 259.578182 256.62081 
L 261.636295 258.007273 
L 263.185455 259.178505 
L 266.792727 261.905762 
L 267.319329 262.4 
L 270.4 265.9814 
L 270.91978 266.792727 
L 273.209784 271.185455 
L 274.007273 273.196726 
L 274.832797 275.578182 
L 275.916691 279.970909 
L 276.205497 284.363636 
L 276.494303 288.756364 
L 276.195303 293.149091 
L 274.876495 297.541818 
L 274.007273 300.115054 
L 273.300002 301.934545 
L 270.692067 306.327273 
L 270.4 306.745493 
L 267.456199 310.72 
L 266.792727 311.571987 
L 263.185455 314.873907 
L 262.7523 315.112727 
L 259.578182 316.787376 
L 255.970909 318.158942 
L 252.363636 318.575466 
L 248.756364 318.169664 
L 245.149091 317.691128 
L 241.541818 316.385685 
z
" style="fill:#eb7d62;"/>
   </g>
   <g id="PathCollection_8">
    <path clip-path="url(#p22e9d77728)" d="M 241.541818 316.385685 
L 245.149091 317.691128 
L 248.756364 318.169664 
L 252.363636 318.575466 
L 255.970909 318.158942 
L 259.578182 316.787376 
L 262.7523 315.112727 
L 263.185455 314.873907 
L 266.792727 311.571987 
L 267.456199 310.72 
L 270.4 306.745493 
L 270.692067 306.327273 
L 273.300002 301.934545 
L 274.007273 300.115054 
L 274.876495 297.541818 
L 276.195303 293.149091 
L 276.494303 288.756364 
L 276.205497 284.363636 
L 275.916691 279.970909 
L 274.832797 275.578182 
L 274.007273 273.196726 
L 273.209784 271.185455 
L 270.91978 266.792727 
L 270.4 265.9814 
L 267.319329 262.4 
L 266.792727 261.905762 
L 263.185455 259.178505 
L 261.636295 258.007273 
L 259.578182 256.62081 
L 255.970909 255.018736 
L 252.363636 254.212689 
L 248.756364 254.605156 
L 245.149091 255.300452 
L 241.541818 256.328499 
L 237.934545 257.855707 
L 237.685281 258.007273 
L 234.327273 260.732913 
L 232.767509 262.4 
L 230.72 264.58839 
L 229.020675 266.792727 
L 227.451342 271.185455 
L 227.112727 272.52673 
L 226.342366 275.578182 
L 225.23339 279.970909 
L 224.440188 284.363636 
L 224.359519 288.756364 
L 224.951925 293.149091 
L 225.853087 297.541818 
L 227.112727 301.033246 
L 227.511136 301.934545 
L 229.720254 306.327273 
L 230.72 308.051281 
L 232.698414 310.72 
L 234.327273 312.205688 
L 237.934545 314.363256 
L 239.249871 315.112727 
z
" style="fill:#ca3b37;"/>
   </g>
   <g id="matplotlib.axis_1">
    <g id="xtick_1">
     <g id="line2d_1">
      <defs>
       <path d="M 0 0 
L 0 3.5 
" id="m7a977d31ce" style="stroke:#000000;stroke-width:0.8;"/>
      </defs>
      <g>
       <use style="stroke:#000000;stroke-width:0.8;" x="107.712" xlink:href="#m7a977d31ce" y="504"/>
      </g>
     </g>
     <g id="text_1">
      <!-- 4 -->
      <defs>
       <path d="M 10.59375 35.5 
L 73.1875 35.5 
L 73.1875 27.203125 
L 10.59375 27.203125 
z
" id="DejaVuSans-2212"/>
       <path d="M 37.796875 64.3125 
L 12.890625 25.390625 
L 37.796875 25.390625 
z
M 35.203125 72.90625 
L 47.609375 72.90625 
L 47.609375 25.390625 
L 58.015625 25.390625 
L 58.015625 17.1875 
L 47.609375 17.1875 
L 47.609375 0 
L 37.796875 0 
L 37.796875 17.1875 
L 4.890625 17.1875 
L 4.890625 26.703125 
z
" id="DejaVuSans-34"/>
      </defs>
      <g transform="translate(100.340906 518.598438)scale(0.1 -0.1)">
       <use xlink:href="#DejaVuSans-2212"/>
       <use x="83.789062" xlink:href="#DejaVuSans-34"/>
      </g>
     </g>
    </g>
    <g id="xtick_2">
     <g id="line2d_2">
      <g>
       <use style="stroke:#000000;stroke-width:0.8;" x="179.136" xlink:href="#m7a977d31ce" y="504"/>
      </g>
     </g>
     <g id="text_2">
      <!-- 2 -->
      <defs>
       <path d="M 19.1875 8.296875 
L 53.609375 8.296875 
L 53.609375 0 
L 7.328125 0 
L 7.328125 8.296875 
Q 12.9375 14.109375 22.625 23.890625 
Q 32.328125 33.6875 34.8125 36.53125 
Q 39.546875 41.84375 41.421875 45.53125 
Q 43.3125 49.21875 43.3125 52.78125 
Q 43.3125 58.59375 39.234375 62.25 
Q 35.15625 65.921875 28.609375 65.921875 
Q 23.96875 65.921875 18.8125 64.3125 
Q 13.671875 62.703125 7.8125 59.421875 
L 7.8125 69.390625 
Q 13.765625 71.78125 18.9375 73 
Q 24.125 74.21875 28.421875 74.21875 
Q 39.75 74.21875 46.484375 68.546875 
Q 53.21875 62.890625 53.21875 53.421875 
Q 53.21875 48.921875 51.53125 44.890625 
Q 49.859375 40.875 45.40625 35.40625 
Q 44.1875 33.984375 37.640625 27.21875 
Q 31.109375 20.453125 19.1875 8.296875 
z
" id="DejaVuSans-32"/>
      </defs>
      <g transform="translate(171.764906 518.598438)scale(0.1 -0.1)">
       <use xlink:href="#DejaVuSans-2212"/>
       <use x="83.789062" xlink:href="#DejaVuSans-32"/>
      </g>
     </g>
    </g>
    <g id="xtick_3">
     <g id="line2d_3">
      <g>
       <use style="stroke:#000000;stroke-width:0.8;" x="250.56" xlink:href="#m7a977d31ce" y="504"/>
      </g>
     </g>
     <g id="text_3">
      <!-- 0 -->
      <defs>
       <path d="M 31.78125 66.40625 
Q 24.171875 66.40625 20.328125 58.90625 
Q 16.5 51.421875 16.5 36.375 
Q 16.5 21.390625 20.328125 13.890625 
Q 24.171875 6.390625 31.78125 6.390625 
Q 39.453125 6.390625 43.28125 13.890625 
Q 47.125 21.390625 47.125 36.375 
Q 47.125 51.421875 43.28125 58.90625 
Q 39.453125 66.40625 31.78125 66.40625 
z
M 31.78125 74.21875 
Q 44.046875 74.21875 50.515625 64.515625 
Q 56.984375 54.828125 56.984375 36.375 
Q 56.984375 17.96875 50.515625 8.265625 
Q 44.046875 -1.421875 31.78125 -1.421875 
Q 19.53125 -1.421875 13.0625 8.265625 
Q 6.59375 17.96875 6.59375 36.375 
Q 6.59375 54.828125 13.0625 64.515625 
Q 19.53125 74.21875 31.78125 74.21875 
z
" id="DejaVuSans-30"/>
      </defs>
      <g transform="translate(247.37875 518.598438)scale(0.1 -0.1)">
       <use xlink:href="#DejaVuSans-30"/>
      </g>
     </g>
    </g>
    <g id="xtick_4">
     <g id="line2d_4">
      <g>
       <use style="stroke:#000000;stroke-width:0.8;" x="321.984" xlink:href="#m7a977d31ce" y="504"/>
      </g>
     </g>
     <g id="text_4">
      <!-- 2 -->
      <g transform="translate(318.80275 518.598438)scale(0.1 -0.1)">
       <use xlink:href="#DejaVuSans-32"/>
      </g>
     </g>
    </g>
    <g id="xtick_5">
     <g id="line2d_5">
      <g>
       <use style="stroke:#000000;stroke-width:0.8;" x="393.408" xlink:href="#m7a977d31ce" y="504"/>
      </g>
     </g>
     <g id="text_5">
      <!-- 4 -->
      <g transform="translate(390.22675 518.598438)scale(0.1 -0.1)">
       <use xlink:href="#DejaVuSans-34"/>
      </g>
     </g>
    </g>
   </g>
   <g id="matplotlib.axis_2">
    <g id="ytick_1">
     <g id="line2d_6">
      <defs>
       <path d="M 0 0 
L -3.5 0 
" id="m51330bc1f7" style="stroke:#000000;stroke-width:0.8;"/>
      </defs>
      <g>
       <use style="stroke:#000000;stroke-width:0.8;" x="72" xlink:href="#m51330bc1f7" y="460.512"/>
      </g>
     </g>
     <g id="text_6">
      <!-- 4 -->
      <g transform="translate(50.257812 464.311219)scale(0.1 -0.1)">
       <use xlink:href="#DejaVuSans-2212"/>
       <use x="83.789062" xlink:href="#DejaVuSans-34"/>
      </g>
     </g>
    </g>
    <g id="ytick_2">
     <g id="line2d_7">
      <g>
       <use style="stroke:#000000;stroke-width:0.8;" x="72" xlink:href="#m51330bc1f7" y="373.536"/>
      </g>
     </g>
     <g id="text_7">
      <!-- 2 -->
      <g transform="translate(50.257812 377.335219)scale(0.1 -0.1)">
       <use xlink:href="#DejaVuSans-2212"/>
       <use x="83.789062" xlink:href="#DejaVuSans-32"/>
      </g>
     </g>
    </g>
    <g id="ytick_3">
     <g id="line2d_8">
      <g>
       <use style="stroke:#000000;stroke-width:0.8;" x="72" xlink:href="#m51330bc1f7" y="286.56"/>
      </g>
     </g>
     <g id="text_8">
      <!-- 0 -->
      <g transform="translate(58.6375 290.359219)scale(0.1 -0.1)">
       <use xlink:href="#DejaVuSans-30"/>
      </g>
     </g>
    </g>
    <g id="ytick_4">
     <g id="line2d_9">
      <g>
       <use style="stroke:#000000;stroke-width:0.8;" x="72" xlink:href="#m51330bc1f7" y="199.584"/>
      </g>
     </g>
     <g id="text_9">
      <!-- 2 -->
      <g transform="translate(58.6375 203.383219)scale(0.1 -0.1)">
       <use xlink:href="#DejaVuSans-32"/>
      </g>
     </g>
    </g>
    <g id="ytick_5">
     <g id="line2d_10">
      <g>
       <use style="stroke:#000000;stroke-width:0.8;" x="72" xlink:href="#m51330bc1f7" y="112.608"/>
      </g>
     </g>
     <g id="text_10">
      <!-- 4 -->
      <g transform="translate(58.6375 116.407219)scale(0.1 -0.1)">
       <use xlink:href="#DejaVuSans-34"/>
      </g>
     </g>
    </g>
   </g>
   <g id="patch_3">
    <path d="M 72 504 
L 72 69.12 
" style="fill:none;stroke:#000000;stroke-linecap:square;stroke-linejoin:miter;stroke-width:0.8;"/>
   </g>
   <g id="patch_4">
    <path d="M 429.12 504 
L 429.12 69.12 
" style="fill:none;stroke:#000000;stroke-linecap:square;stroke-linejoin:miter;stroke-width:0.8;"/>
   </g>
   <g id="patch_5">
    <path d="M 72 504 
L 429.12 504 
" style="fill:none;stroke:#000000;stroke-linecap:square;stroke-linejoin:miter;stroke-width:0.8;"/>
   </g>
   <g id="patch_6">
    <path d="M 72 69.12 
L 429.12 69.12 
" style="fill:none;stroke:#000000;stroke-linecap:square;stroke-linejoin:miter;stroke-width:0.8;"/>
   </g>
  </g>
  <g id="axes_2">
   <g id="patch_7">
    <path clip-path="url(#p74339a3c45)" d="M 451.44 504 
L 451.44 449.64 
L 451.44 123.48 
L 451.44 69.12 
L 473.184 69.12 
L 473.184 123.48 
L 473.184 449.64 
L 473.184 504 
z
" style="fill:#ffffff;stroke:#ffffff;stroke-linejoin:miter;stroke-width:0.01;"/>
   </g>
   <g id="QuadMesh_1">
    <path clip-path="url(#p74339a3c45)" d="M 451.44 504 
L 473.184 504 
L 473.184 449.64 
L 451.44 449.64 
L 451.44 504 
" style="fill:#4e68d8;"/>
    <path clip-path="url(#p74339a3c45)" d="M 451.44 449.64 
L 473.184 449.64 
L 473.184 395.28 
L 451.44 395.28 
L 451.44 449.64 
" style="fill:#779af7;"/>
    <path clip-path="url(#p74339a3c45)" d="M 451.44 395.28 
L 473.184 395.28 
L 473.184 340.92 
L 451.44 340.92 
L 451.44 395.28 
" style="fill:#a3c2fe;"/>
    <path clip-path="url(#p74339a3c45)" d="M 451.44 340.92 
L 473.184 340.92 
L 473.184 286.56 
L 451.44 286.56 
L 451.44 340.92 
" style="fill:#ccd9ed;"/>
    <path clip-path="url(#p74339a3c45)" d="M 451.44 286.56 
L 473.184 286.56 
L 473.184 232.2 
L 451.44 232.2 
L 451.44 286.56 
" style="fill:#ecd3c5;"/>
    <path clip-path="url(#p74339a3c45)" d="M 451.44 232.2 
L 473.184 232.2 
L 473.184 177.84 
L 451.44 177.84 
L 451.44 232.2 
" style="fill:#f7b093;"/>
    <path clip-path="url(#p74339a3c45)" d="M 451.44 177.84 
L 473.184 177.84 
L 473.184 123.48 
L 451.44 123.48 
L 451.44 177.84 
" style="fill:#eb7d62;"/>
    <path clip-path="url(#p74339a3c45)" d="M 451.44 123.48 
L 473.184 123.48 
L 473.184 69.12 
L 451.44 69.12 
L 451.44 123.48 
" style="fill:#ca3b37;"/>
   </g>
   <g id="matplotlib.axis_3"/>
   <g id="matplotlib.axis_4">
    <g id="ytick_6">
     <g id="line2d_11">
      <defs>
       <path d="M 0 0 
L 3.5 0 
" id="m2d0816d67a" style="stroke:#000000;stroke-width:0.8;"/>
      </defs>
      <g>
       <use style="stroke:#000000;stroke-width:0.8;" x="473.184" xlink:href="#m2d0816d67a" y="504"/>
      </g>
     </g>
     <g id="text_11">
      <!-- 210 -->
      <defs>
       <path d="M 12.40625 8.296875 
L 28.515625 8.296875 
L 28.515625 63.921875 
L 10.984375 60.40625 
L 10.984375 69.390625 
L 28.421875 72.90625 
L 38.28125 72.90625 
L 38.28125 8.296875 
L 54.390625 8.296875 
L 54.390625 0 
L 12.40625 0 
z
" id="DejaVuSans-31"/>
      </defs>
      <g transform="translate(480.184 507.799219)scale(0.1 -0.1)">
       <use xlink:href="#DejaVuSans-2212"/>
       <use x="83.789062" xlink:href="#DejaVuSans-32"/>
       <use x="147.412109" xlink:href="#DejaVuSans-31"/>
       <use x="211.035156" xlink:href="#DejaVuSans-30"/>
      </g>
     </g>
    </g>
    <g id="ytick_7">
     <g id="line2d_12">
      <g>
       <use style="stroke:#000000;stroke-width:0.8;" x="473.184" xlink:href="#m2d0816d67a" y="449.64"/>
      </g>
     </g>
     <g id="text_12">
      <!-- 180 -->
      <defs>
       <path d="M 31.78125 34.625 
Q 24.75 34.625 20.71875 30.859375 
Q 16.703125 27.09375 16.703125 20.515625 
Q 16.703125 13.921875 20.71875 10.15625 
Q 24.75 6.390625 31.78125 6.390625 
Q 38.8125 6.390625 42.859375 10.171875 
Q 46.921875 13.96875 46.921875 20.515625 
Q 46.921875 27.09375 42.890625 30.859375 
Q 38.875 34.625 31.78125 34.625 
z
M 21.921875 38.8125 
Q 15.578125 40.375 12.03125 44.71875 
Q 8.5 49.078125 8.5 55.328125 
Q 8.5 64.0625 14.71875 69.140625 
Q 20.953125 74.21875 31.78125 74.21875 
Q 42.671875 74.21875 48.875 69.140625 
Q 55.078125 64.0625 55.078125 55.328125 
Q 55.078125 49.078125 51.53125 44.71875 
Q 48 40.375 41.703125 38.8125 
Q 48.828125 37.15625 52.796875 32.3125 
Q 56.78125 27.484375 56.78125 20.515625 
Q 56.78125 9.90625 50.3125 4.234375 
Q 43.84375 -1.421875 31.78125 -1.421875 
Q 19.734375 -1.421875 13.25 4.234375 
Q 6.78125 9.90625 6.78125 20.515625 
Q 6.78125 27.484375 10.78125 32.3125 
Q 14.796875 37.15625 21.921875 38.8125 
z
M 18.3125 54.390625 
Q 18.3125 48.734375 21.84375 45.5625 
Q 25.390625 42.390625 31.78125 42.390625 
Q 38.140625 42.390625 41.71875 45.5625 
Q 45.3125 48.734375 45.3125 54.390625 
Q 45.3125 60.0625 41.71875 63.234375 
Q 38.140625 66.40625 31.78125 66.40625 
Q 25.390625 66.40625 21.84375 63.234375 
Q 18.3125 60.0625 18.3125 54.390625 
z
" id="DejaVuSans-38"/>
      </defs>
      <g transform="translate(480.184 453.439219)scale(0.1 -0.1)">
       <use xlink:href="#DejaVuSans-2212"/>
       <use x="83.789062" xlink:href="#DejaVuSans-31"/>
       <use x="147.412109" xlink:href="#DejaVuSans-38"/>
       <use x="211.035156" xlink:href="#DejaVuSans-30"/>
      </g>
     </g>
    </g>
    <g id="ytick_8">
     <g id="line2d_13">
      <g>
       <use style="stroke:#000000;stroke-width:0.8;" x="473.184" xlink:href="#m2d0816d67a" y="395.28"/>
      </g>
     </g>
     <g id="text_13">
      <!-- 150 -->
      <defs>
       <path d="M 10.796875 72.90625 
L 49.515625 72.90625 
L 49.515625 64.59375 
L 19.828125 64.59375 
L 19.828125 46.734375 
Q 21.96875 47.46875 24.109375 47.828125 
Q 26.265625 48.1875 28.421875 48.1875 
Q 40.625 48.1875 47.75 41.5 
Q 54.890625 34.8125 54.890625 23.390625 
Q 54.890625 11.625 47.5625 5.09375 
Q 40.234375 -1.421875 26.90625 -1.421875 
Q 22.3125 -1.421875 17.546875 -0.640625 
Q 12.796875 0.140625 7.71875 1.703125 
L 7.71875 11.625 
Q 12.109375 9.234375 16.796875 8.0625 
Q 21.484375 6.890625 26.703125 6.890625 
Q 35.15625 6.890625 40.078125 11.328125 
Q 45.015625 15.765625 45.015625 23.390625 
Q 45.015625 31 40.078125 35.4375 
Q 35.15625 39.890625 26.703125 39.890625 
Q 22.75 39.890625 18.8125 39.015625 
Q 14.890625 38.140625 10.796875 36.28125 
z
" id="DejaVuSans-35"/>
      </defs>
      <g transform="translate(480.184 399.079219)scale(0.1 -0.1)">
       <use xlink:href="#DejaVuSans-2212"/>
       <use x="83.789062" xlink:href="#DejaVuSans-31"/>
       <use x="147.412109" xlink:href="#DejaVuSans-35"/>
       <use x="211.035156" xlink:href="#DejaVuSans-30"/>
      </g>
     </g>
    </g>
    <g id="ytick_9">
     <g id="line2d_14">
      <g>
       <use style="stroke:#000000;stroke-width:0.8;" x="473.184" xlink:href="#m2d0816d67a" y="340.92"/>
      </g>
     </g>
     <g id="text_14">
      <!-- 120 -->
      <g transform="translate(480.184 344.719219)scale(0.1 -0.1)">
       <use xlink:href="#DejaVuSans-2212"/>
       <use x="83.789062" xlink:href="#DejaVuSans-31"/>
       <use x="147.412109" xlink:href="#DejaVuSans-32"/>
       <use x="211.035156" xlink:href="#DejaVuSans-30"/>
      </g>
     </g>
    </g>
    <g id="ytick_10">
     <g id="line2d_15">
      <g>
       <use style="stroke:#000000;stroke-width:0.8;" x="473.184" xlink:href="#m2d0816d67a" y="286.56"/>
      </g>
     </g>
     <g id="text_15">
      <!-- 90 -->
      <defs>
       <path d="M 10.984375 1.515625 
L 10.984375 10.5 
Q 14.703125 8.734375 18.5 7.8125 
Q 22.3125 6.890625 25.984375 6.890625 
Q 35.75 6.890625 40.890625 13.453125 
Q 46.046875 20.015625 46.78125 33.40625 
Q 43.953125 29.203125 39.59375 26.953125 
Q 35.25 24.703125 29.984375 24.703125 
Q 19.046875 24.703125 12.671875 31.3125 
Q 6.296875 37.9375 6.296875 49.421875 
Q 6.296875 60.640625 12.9375 67.421875 
Q 19.578125 74.21875 30.609375 74.21875 
Q 43.265625 74.21875 49.921875 64.515625 
Q 56.59375 54.828125 56.59375 36.375 
Q 56.59375 19.140625 48.40625 8.859375 
Q 40.234375 -1.421875 26.421875 -1.421875 
Q 22.703125 -1.421875 18.890625 -0.6875 
Q 15.09375 0.046875 10.984375 1.515625 
z
M 30.609375 32.421875 
Q 37.25 32.421875 41.125 36.953125 
Q 45.015625 41.5 45.015625 49.421875 
Q 45.015625 57.28125 41.125 61.84375 
Q 37.25 66.40625 30.609375 66.40625 
Q 23.96875 66.40625 20.09375 61.84375 
Q 16.21875 57.28125 16.21875 49.421875 
Q 16.21875 41.5 20.09375 36.953125 
Q 23.96875 32.421875 30.609375 32.421875 
z
" id="DejaVuSans-39"/>
      </defs>
      <g transform="translate(480.184 290.359219)scale(0.1 -0.1)">
       <use xlink:href="#DejaVuSans-2212"/>
       <use x="83.789062" xlink:href="#DejaVuSans-39"/>
       <use x="147.412109" xlink:href="#DejaVuSans-30"/>
      </g>
     </g>
    </g>
    <g id="ytick_11">
     <g id="line2d_16">
      <g>
       <use style="stroke:#000000;stroke-width:0.8;" x="473.184" xlink:href="#m2d0816d67a" y="232.2"/>
      </g>
     </g>
     <g id="text_16">
      <!-- 60 -->
      <defs>
       <path d="M 33.015625 40.375 
Q 26.375 40.375 22.484375 35.828125 
Q 18.609375 31.296875 18.609375 23.390625 
Q 18.609375 15.53125 22.484375 10.953125 
Q 26.375 6.390625 33.015625 6.390625 
Q 39.65625 6.390625 43.53125 10.953125 
Q 47.40625 15.53125 47.40625 23.390625 
Q 47.40625 31.296875 43.53125 35.828125 
Q 39.65625 40.375 33.015625 40.375 
z
M 52.59375 71.296875 
L 52.59375 62.3125 
Q 48.875 64.0625 45.09375 64.984375 
Q 41.3125 65.921875 37.59375 65.921875 
Q 27.828125 65.921875 22.671875 59.328125 
Q 17.53125 52.734375 16.796875 39.40625 
Q 19.671875 43.65625 24.015625 45.921875 
Q 28.375 48.1875 33.59375 48.1875 
Q 44.578125 48.1875 50.953125 41.515625 
Q 57.328125 34.859375 57.328125 23.390625 
Q 57.328125 12.15625 50.6875 5.359375 
Q 44.046875 -1.421875 33.015625 -1.421875 
Q 20.359375 -1.421875 13.671875 8.265625 
Q 6.984375 17.96875 6.984375 36.375 
Q 6.984375 53.65625 15.1875 63.9375 
Q 23.390625 74.21875 37.203125 74.21875 
Q 40.921875 74.21875 44.703125 73.484375 
Q 48.484375 72.75 52.59375 71.296875 
z
" id="DejaVuSans-36"/>
      </defs>
      <g transform="translate(480.184 235.999219)scale(0.1 -0.1)">
       <use xlink:href="#DejaVuSans-2212"/>
       <use x="83.789062" xlink:href="#DejaVuSans-36"/>
       <use x="147.412109" xlink:href="#DejaVuSans-30"/>
      </g>
     </g>
    </g>
    <g id="ytick_12">
     <g id="line2d_17">
      <g>
       <use style="stroke:#000000;stroke-width:0.8;" x="473.184" xlink:href="#m2d0816d67a" y="177.84"/>
      </g>
     </g>
     <g id="text_17">
      <!-- 30 -->
      <defs>
       <path d="M 40.578125 39.3125 
Q 47.65625 37.796875 51.625 33 
Q 55.609375 28.21875 55.609375 21.1875 
Q 55.609375 10.40625 48.1875 4.484375 
Q 40.765625 -1.421875 27.09375 -1.421875 
Q 22.515625 -1.421875 17.65625 -0.515625 
Q 12.796875 0.390625 7.625 2.203125 
L 7.625 11.71875 
Q 11.71875 9.328125 16.59375 8.109375 
Q 21.484375 6.890625 26.8125 6.890625 
Q 36.078125 6.890625 40.9375 10.546875 
Q 45.796875 14.203125 45.796875 21.1875 
Q 45.796875 27.640625 41.28125 31.265625 
Q 36.765625 34.90625 28.71875 34.90625 
L 20.21875 34.90625 
L 20.21875 43.015625 
L 29.109375 43.015625 
Q 36.375 43.015625 40.234375 45.921875 
Q 44.09375 48.828125 44.09375 54.296875 
Q 44.09375 59.90625 40.109375 62.90625 
Q 36.140625 65.921875 28.71875 65.921875 
Q 24.65625 65.921875 20.015625 65.03125 
Q 15.375 64.15625 9.8125 62.3125 
L 9.8125 71.09375 
Q 15.4375 72.65625 20.34375 73.4375 
Q 25.25 74.21875 29.59375 74.21875 
Q 40.828125 74.21875 47.359375 69.109375 
Q 53.90625 64.015625 53.90625 55.328125 
Q 53.90625 49.265625 50.4375 45.09375 
Q 46.96875 40.921875 40.578125 39.3125 
z
" id="DejaVuSans-33"/>
      </defs>
      <g transform="translate(480.184 181.639219)scale(0.1 -0.1)">
       <use xlink:href="#DejaVuSans-2212"/>
       <use x="83.789062" xlink:href="#DejaVuSans-33"/>
       <use x="147.412109" xlink:href="#DejaVuSans-30"/>
      </g>
     </g>
    </g>
    <g id="ytick_13">
     <g id="line2d_18">
      <g>
       <use style="stroke:#000000;stroke-width:0.8;" x="473.184" xlink:href="#m2d0816d67a" y="123.48"/>
      </g>
     </g>
     <g id="text_18">
      <!-- 0 -->
      <g transform="translate(480.184 127.279219)scale(0.1 -0.1)">
       <use xlink:href="#DejaVuSans-30"/>
      </g>
     </g>
    </g>
    <g id="ytick_14">
     <g id="line2d_19">
      <g>
       <use style="stroke:#000000;stroke-width:0.8;" x="473.184" xlink:href="#m2d0816d67a" y="69.12"/>
      </g>
     </g>
     <g id="text_19">
      <!-- 30 -->
      <g transform="translate(480.184 72.919219)scale(0.1 -0.1)">
       <use xlink:href="#DejaVuSans-33"/>
       <use x="63.623047" xlink:href="#DejaVuSans-30"/>
      </g>
     </g>
    </g>
   </g>
   <g id="patch_8">
    <path d="M 451.44 504 
L 451.44 449.64 
L 451.44 123.48 
L 451.44 69.12 
L 473.184 69.12 
L 473.184 123.48 
L 473.184 449.64 
L 473.184 504 
z
" style="fill:none;stroke:#000000;stroke-linejoin:miter;stroke-width:0.8;"/>
   </g>
  </g>
 </g>
 <defs>
  <clipPath id="p22e9d77728">
   <rect height="434.88" width="357.12" x="72" y="69.12"/>
  </clipPath>
  <clipPath id="p74339a3c45">
   <rect height="434.88" width="21.744" x="451.44" y="69.12"/>
  </clipPath>
 </defs>
</svg>
