<?xml version="1.0" encoding="utf-8" standalone="no"?>
<!DOCTYPE svg PUBLIC "-//W3C//DTD SVG 1.1//EN"
  "http://www.w3.org/Graphics/SVG/1.1/DTD/svg11.dtd">
<!-- Created with matplotlib (http://matplotlib.org/) -->
<svg height="576pt" version="1.1" viewBox="0 0 576 576" width="576pt" xmlns="http://www.w3.org/2000/svg" xmlns:xlink="http://www.w3.org/1999/xlink">
 <defs>
  <style type="text/css">
*{stroke-linecap:butt;stroke-linejoin:round;}
  </style>
 </defs>
 <g id="figure_1">
  <g id="patch_1">
   <path d="M 0 576 
L 576 576 
L 576 0 
L 0 0 
z
" style="fill:#ffffff;"/>
  </g>
  <g id="axes_1">
   <g id="patch_2">
    <path d="M 72 504 
L 429.12 504 
L 429.12 69.12 
L 72 69.12 
z
" style="fill:#ffffff;"/>
   </g>
   <g id="PathCollection_1">
    <path clip-path="url(#pae7c5201fe)" d="M 75.102364 82.298182 
L 75.607273 81.755464 
L 79.189114 77.905455 
L 79.214545 77.878119 
L 82.821818 74.000724 
L 83.275818 73.512727 
L 86.429091 70.123329 
L 87.362522 69.12 
L 86.429091 69.12 
L 82.821818 69.12 
L 79.214545 69.12 
L 75.607273 69.12 
L 72 69.12 
L 72 73.512727 
L 72 77.905455 
L 72 82.298182 
L 72 85.63286 
z
" style="fill:#4b64d5;"/>
   </g>
   <g id="PathCollection_2">
    <path clip-path="url(#pae7c5201fe)" d="M 72.6779 139.403636 
L 73.547022 135.010909 
L 75.607273 131.387678 
L 76.273024 130.618182 
L 79.214545 127.456391 
L 80.359727 126.225455 
L 82.821818 123.579025 
L 84.446477 121.832727 
L 86.429091 119.70165 
L 88.533181 117.44 
L 90.036364 115.824255 
L 92.619884 113.047273 
L 93.643636 111.946866 
L 96.706591 108.654545 
L 97.250909 108.069464 
L 100.793314 104.261818 
L 100.858182 104.192093 
L 104.465455 100.314675 
L 104.879995 99.869091 
L 108.072727 96.437317 
L 108.966733 95.476364 
L 111.68 92.559882 
L 113.05341 91.083636 
L 115.287273 88.682498 
L 117.140129 86.690909 
L 118.894545 84.80512 
L 121.226839 82.298182 
L 122.501818 80.927746 
L 125.31354 77.905455 
L 126.109091 77.05033 
L 129.400262 73.512727 
L 129.716364 73.172955 
L 133.323636 69.29556 
L 133.486966 69.12 
L 133.323636 69.12 
L 129.716364 69.12 
L 126.109091 69.12 
L 122.501818 69.12 
L 118.894545 69.12 
L 115.287273 69.12 
L 111.68 69.12 
L 108.072727 69.12 
L 104.465455 69.12 
L 100.858182 69.12 
L 97.250909 69.12 
L 93.643636 69.12 
L 90.036364 69.12 
L 87.362522 69.12 
L 86.429091 70.123329 
L 83.275818 73.512727 
L 82.821818 74.000724 
L 79.214545 77.878119 
L 79.189114 77.905455 
L 75.607273 81.755464 
L 75.102364 82.298182 
L 72 85.63286 
L 72 86.690909 
L 72 91.083636 
L 72 95.476364 
L 72 99.869091 
L 72 104.261818 
L 72 108.654545 
L 72 113.047273 
L 72 117.44 
L 72 121.832727 
L 72 126.225455 
L 72 130.618182 
L 72 135.010909 
L 72 139.403636 
L 72 142.830004 
z
" style="fill:#6f92f3;"/>
   </g>
   <g id="PathCollection_3">
    <path clip-path="url(#pae7c5201fe)" d="M 72 503.560038 
L 72 504 
L 74.076422 504 
z
" style="fill:#97b8ff;"/>
    <path clip-path="url(#pae7c5201fe)" d="M 385.832727 504 
L 389.44 504 
L 393.047273 504 
L 396.654545 504 
L 400.261818 504 
L 403.869091 504 
L 407.476364 504 
L 411.083636 504 
L 414.690909 504 
L 418.298182 504 
L 421.905455 504 
L 425.512727 504 
L 429.12 504 
L 429.12 499.607273 
L 429.12 495.214545 
L 429.12 490.821818 
L 429.12 486.429091 
L 429.12 482.036364 
L 429.12 477.643636 
L 429.12 473.250909 
L 429.12 468.858182 
L 429.12 464.465455 
L 429.12 462.204467 
L 426.663447 464.465455 
L 425.512727 465.524566 
L 421.905455 468.844664 
L 421.890768 468.858182 
L 418.298182 472.164809 
L 417.118133 473.250909 
L 414.690909 475.484861 
L 412.345431 477.643636 
L 411.083636 478.804998 
L 407.572764 482.036364 
L 407.476364 482.125088 
L 403.869091 485.445204 
L 402.800117 486.429091 
L 400.261818 488.765333 
L 398.027451 490.821818 
L 396.654545 492.085415 
L 393.254759 495.214545 
L 393.047273 495.405512 
L 389.44 498.725667 
L 388.482137 499.607273 
L 385.832727 502.045758 
L 383.709447 504 
z
" style="fill:#97b8ff;"/>
    <path clip-path="url(#pae7c5201fe)" d="M 72.573145 293.149091 
L 73.442246 288.756364 
L 74.311371 284.363636 
L 75.180498 279.970909 
L 75.607273 277.813862 
L 76.049605 275.578182 
L 76.918728 271.185455 
L 77.787857 266.792727 
L 78.656973 262.4 
L 79.214545 259.581865 
L 79.526081 258.007273 
L 80.395219 253.614545 
L 81.264333 249.221818 
L 82.133434 244.829091 
L 82.821818 241.349976 
L 83.002586 240.436364 
L 83.871695 236.043636 
L 84.740802 231.650909 
L 85.609932 227.258182 
L 86.429091 223.117946 
L 86.479048 222.865455 
L 87.34817 218.472727 
L 88.21727 214.08 
L 89.086405 209.687273 
L 89.955509 205.294545 
L 90.036364 204.885883 
L 90.824631 200.901818 
L 91.693753 196.509091 
L 92.562885 192.116364 
L 93.431999 187.723636 
L 93.643636 186.653977 
L 94.301119 183.330909 
L 95.170231 178.938182 
L 96.039347 174.545455 
L 96.908462 170.152727 
L 97.250909 168.421914 
L 97.777582 165.76 
L 98.646695 161.367273 
L 99.515837 156.974545 
L 100.858182 154.124743 
L 101.963967 152.581818 
L 104.465455 149.892994 
L 106.050654 148.189091 
L 108.072727 146.015599 
L 110.137384 143.796364 
L 111.68 142.138244 
L 114.224068 139.403636 
L 115.287273 138.260821 
L 118.310772 135.010909 
L 118.894545 134.383416 
L 122.397514 130.618182 
L 122.501818 130.506067 
L 126.109091 126.62867 
L 126.484218 126.225455 
L 129.716364 122.751277 
L 130.570921 121.832727 
L 133.323636 118.873915 
L 134.657654 117.44 
L 136.930909 114.996486 
L 138.74434 113.047273 
L 140.538182 111.119116 
L 142.83104 108.654545 
L 144.145455 107.241719 
L 146.917788 104.261818 
L 147.752727 103.36435 
L 151.004486 99.869091 
L 151.36 99.486955 
L 154.967273 95.609558 
L 155.091189 95.476364 
L 158.574545 91.732164 
L 159.177892 91.083636 
L 162.181818 87.854768 
L 163.264596 86.690909 
L 165.789091 83.977373 
L 167.351299 82.298182 
L 169.396364 80.09999 
L 171.438013 77.905455 
L 173.003636 76.222582 
L 175.524706 73.512727 
L 176.610909 72.3452 
L 180.218182 69.139281 
L 180.48541 69.12 
L 180.218182 69.12 
L 176.610909 69.12 
L 173.003636 69.12 
L 169.396364 69.12 
L 165.789091 69.12 
L 162.181818 69.12 
L 158.574545 69.12 
L 154.967273 69.12 
L 151.36 69.12 
L 147.752727 69.12 
L 144.145455 69.12 
L 140.538182 69.12 
L 136.930909 69.12 
L 133.486966 69.12 
L 133.323636 69.29556 
L 129.716364 73.172955 
L 129.400262 73.512727 
L 126.109091 77.05033 
L 125.31354 77.905455 
L 122.501818 80.927746 
L 121.226839 82.298182 
L 118.894545 84.80512 
L 117.140129 86.690909 
L 115.287273 88.682498 
L 113.05341 91.083636 
L 111.68 92.559882 
L 108.966733 95.476364 
L 108.072727 96.437317 
L 104.879995 99.869091 
L 104.465455 100.314675 
L 100.858182 104.192093 
L 100.793314 104.261818 
L 97.250909 108.069464 
L 96.706591 108.654545 
L 93.643636 111.946866 
L 92.619884 113.047273 
L 90.036364 115.824255 
L 88.533181 117.44 
L 86.429091 119.70165 
L 84.446477 121.832727 
L 82.821818 123.579025 
L 80.359727 126.225455 
L 79.214545 127.456391 
L 76.273024 130.618182 
L 75.607273 131.387678 
L 73.547022 135.010909 
L 72.6779 139.403636 
L 72 142.830004 
L 72 143.796364 
L 72 148.189091 
L 72 152.581818 
L 72 156.974545 
L 72 161.367273 
L 72 165.76 
L 72 170.152727 
L 72 174.545455 
L 72 178.938182 
L 72 183.330909 
L 72 187.723636 
L 72 192.116364 
L 72 196.509091 
L 72 200.901818 
L 72 205.294545 
L 72 209.687273 
L 72 214.08 
L 72 218.472727 
L 72 222.865455 
L 72 227.258182 
L 72 231.650909 
L 72 236.043636 
L 72 240.436364 
L 72 244.829091 
L 72 249.221818 
L 72 253.614545 
L 72 258.007273 
L 72 262.4 
L 72 266.792727 
L 72 271.185455 
L 72 275.578182 
L 72 279.970909 
L 72 284.363636 
L 72 288.756364 
L 72 293.149091 
L 72 296.045884 
z
" style="fill:#97b8ff;"/>
   </g>
   <g id="PathCollection_4">
    <path clip-path="url(#pae7c5201fe)" d="M 75.607273 504 
L 79.214545 504 
L 82.821818 504 
L 86.429091 504 
L 90.036364 504 
L 93.643636 504 
L 97.250909 504 
L 100.858182 504 
L 104.465455 504 
L 108.072727 504 
L 111.68 504 
L 115.287273 504 
L 118.894545 504 
L 122.501818 504 
L 126.109091 504 
L 129.716364 504 
L 133.323636 504 
L 136.930909 504 
L 140.538182 504 
L 144.145455 504 
L 147.752727 504 
L 151.36 504 
L 154.967273 504 
L 158.574545 504 
L 162.181818 504 
L 165.789091 504 
L 169.396364 504 
L 173.003636 504 
L 176.610909 504 
L 180.218182 504 
L 183.825455 504 
L 187.432727 504 
L 191.04 504 
L 194.647273 504 
L 198.254545 504 
L 201.861818 504 
L 205.469091 504 
L 209.076364 504 
L 212.683636 504 
L 216.290909 504 
L 219.898182 504 
L 223.505455 504 
L 227.112727 504 
L 230.72 504 
L 234.327273 504 
L 237.934545 504 
L 241.541818 504 
L 245.149091 504 
L 248.756364 504 
L 252.363636 504 
L 255.970909 504 
L 259.578182 504 
L 263.185455 504 
L 266.792727 504 
L 270.4 504 
L 274.007273 504 
L 277.614545 504 
L 277.970405 504 
L 277.614545 503.918531 
L 274.007273 503.092703 
L 270.4 502.266871 
L 266.792727 501.441046 
L 263.185455 500.615212 
L 259.578182 499.789355 
L 258.782714 499.607273 
L 255.970909 498.963553 
L 252.363636 498.156711 
L 248.756364 497.366293 
L 245.149091 496.574215 
L 241.541818 495.782104 
L 238.956977 495.214545 
L 237.934545 494.990049 
L 234.327273 494.197922 
L 230.72 493.405846 
L 227.112727 492.613754 
L 223.505455 491.82167 
L 219.898182 491.029568 
L 218.952059 490.821818 
L 216.290909 490.237483 
L 212.683636 489.445375 
L 209.076364 488.65329 
L 205.469091 487.861197 
L 201.861818 487.06911 
L 198.861057 486.429091 
L 198.254545 486.300353 
L 194.647273 485.536022 
L 191.04 484.771669 
L 187.432727 484.007344 
L 183.825455 483.243017 
L 180.218182 482.478636 
L 178.130817 482.036364 
L 176.610909 481.714324 
L 173.003636 480.949971 
L 169.396364 480.185627 
L 165.789091 479.421264 
L 162.181818 478.656938 
L 158.574545 477.892585 
L 157.39966 477.643636 
L 154.967273 477.128234 
L 151.36 476.363895 
L 147.752727 475.599572 
L 144.145455 474.835206 
L 140.538182 474.070885 
L 136.930909 473.306537 
L 136.668376 473.250909 
L 133.323636 472.542194 
L 129.716364 471.777847 
L 126.109091 471.013513 
L 122.501818 470.249149 
L 118.894545 469.484819 
L 115.937248 468.858182 
L 115.287273 468.720456 
L 111.68 467.956131 
L 108.072727 467.191788 
L 104.465455 466.427443 
L 100.858182 465.663101 
L 97.250909 464.898781 
L 96.143244 464.465455 
L 93.643636 462.906781 
L 90.570336 460.072727 
L 90.036364 459.580323 
L 86.429091 456.253908 
L 85.806732 455.68 
L 82.821818 452.927463 
L 81.043159 451.287273 
L 79.214545 449.601031 
L 76.916841 446.894545 
L 76.138564 442.501818 
L 75.82839 438.109091 
L 75.607273 434.977729 
L 75.532796 433.716364 
L 75.607273 433.247084 
L 76.195794 429.323636 
L 77.05256 424.930909 
L 77.909322 420.538182 
L 78.766093 416.145455 
L 79.214545 413.846185 
L 79.622854 411.752727 
L 80.479609 407.36 
L 81.336377 402.967273 
L 82.193135 398.574545 
L 82.821818 395.351161 
L 83.049886 394.181818 
L 83.90666 389.789091 
L 84.763416 385.396364 
L 85.620172 381.003636 
L 86.429091 376.856271 
L 86.476947 376.610909 
L 87.333697 372.218182 
L 88.190467 367.825455 
L 89.047211 363.432727 
L 89.903978 359.04 
L 90.036364 358.361247 
L 90.760744 354.647273 
L 91.617494 350.254545 
L 92.47426 345.861818 
L 93.331025 341.469091 
L 93.643636 339.879784 
L 94.19634 337.076364 
L 95.065462 332.683636 
L 95.934587 328.290909 
L 96.803705 323.898182 
L 97.250909 321.637876 
L 97.672814 319.505455 
L 98.541925 315.112727 
L 99.411053 310.72 
L 100.280193 306.327273 
L 100.858182 303.405958 
L 101.149302 301.934545 
L 102.018415 297.541818 
L 102.887531 293.149091 
L 103.756634 288.756364 
L 104.465455 285.173854 
L 104.625763 284.363636 
L 105.494886 279.970909 
L 106.364009 275.578182 
L 107.233125 271.185455 
L 108.072727 266.941961 
L 108.102254 266.792727 
L 108.971354 262.4 
L 109.840469 258.007273 
L 110.709592 253.614545 
L 111.578714 249.221818 
L 111.68 248.7099 
L 112.447834 244.829091 
L 113.316949 240.436364 
L 114.186062 236.043636 
L 115.05519 231.650909 
L 115.287273 230.477894 
L 115.924297 227.258182 
L 116.793425 222.865455 
L 117.662533 218.472727 
L 118.531666 214.08 
L 118.894545 212.245898 
L 119.400773 209.687273 
L 120.269896 205.294545 
L 121.139026 200.901818 
L 122.008137 196.509091 
L 122.501818 194.013929 
L 122.877264 192.116364 
L 123.746382 187.723636 
L 124.615497 183.330909 
L 125.484632 178.938182 
L 126.109091 177.265981 
L 127.654877 174.545455 
L 129.716364 172.329598 
L 131.741568 170.152727 
L 133.323636 168.452192 
L 135.828304 165.76 
L 136.930909 164.574833 
L 139.915021 161.367273 
L 140.538182 160.69745 
L 144.001737 156.974545 
L 144.145455 156.820067 
L 147.752727 152.942648 
L 148.088418 152.581818 
L 151.36 149.065251 
L 152.175124 148.189091 
L 154.967273 145.187868 
L 156.261841 143.796364 
L 158.574545 141.310485 
L 160.34854 139.403636 
L 162.181818 137.433081 
L 164.435274 135.010909 
L 165.789091 133.55572 
L 168.521964 130.618182 
L 169.396364 129.678299 
L 172.608662 126.225455 
L 173.003636 125.800908 
L 176.610909 121.923533 
L 176.695389 121.832727 
L 180.218182 118.046138 
L 180.782094 117.44 
L 183.825455 114.168755 
L 184.868804 113.047273 
L 187.432727 110.291363 
L 188.955523 108.654545 
L 191.04 106.880987 
L 194.647273 106.591079 
L 198.254545 106.358635 
L 201.861818 106.126195 
L 205.469091 105.893752 
L 209.076364 105.661316 
L 212.683636 105.428872 
L 216.290909 105.19642 
L 219.898182 104.96399 
L 223.505455 104.73153 
L 227.112727 104.4991 
L 230.72 104.26664 
L 230.794842 104.261818 
L 234.327273 104.034218 
L 237.934545 103.801761 
L 241.541818 103.569335 
L 245.149091 103.336878 
L 248.756364 103.104438 
L 252.363636 102.872011 
L 255.970909 102.639553 
L 259.578182 102.407105 
L 263.185455 102.174661 
L 266.792727 101.942221 
L 270.4 101.70977 
L 274.007273 101.477338 
L 277.614545 101.244881 
L 281.221818 101.012449 
L 284.829091 100.779996 
L 288.436364 100.547561 
L 292.043636 100.315113 
L 295.650909 100.082673 
L 298.965365 99.869091 
L 299.258182 99.850222 
L 302.865455 99.631303 
L 306.472727 99.425479 
L 310.08 99.219711 
L 313.687273 99.013909 
L 317.294545 98.8081 
L 320.901818 98.602314 
L 324.509091 98.396502 
L 328.116364 98.19071 
L 331.723636 97.984892 
L 335.330909 97.779101 
L 338.938182 97.573316 
L 342.545455 97.367515 
L 346.152727 97.161707 
L 349.76 96.955892 
L 353.367273 96.750117 
L 356.974545 96.544317 
L 360.581818 96.338514 
L 364.189091 96.132706 
L 367.796364 95.926903 
L 371.403636 95.721114 
L 375.010909 95.5153 
L 375.693394 95.476364 
L 378.618182 95.309505 
L 382.225455 95.103717 
L 385.832727 94.897922 
L 389.44 94.692126 
L 393.047273 94.486338 
L 396.654545 94.280515 
L 400.261818 94.074729 
L 403.869091 93.86894 
L 407.476364 93.663118 
L 411.083636 93.457328 
L 414.690909 93.995709 
L 417.191159 95.476364 
L 418.298182 96.407411 
L 421.905455 99.441283 
L 422.414125 99.869091 
L 425.512727 102.475128 
L 427.637119 104.261818 
L 429.12 105.508969 
L 429.12 104.261818 
L 429.12 99.869091 
L 429.12 95.476364 
L 429.12 91.083636 
L 429.12 86.690909 
L 429.12 82.298182 
L 429.12 77.905455 
L 429.12 73.512727 
L 429.12 69.12 
L 425.512727 69.12 
L 421.905455 69.12 
L 418.298182 69.12 
L 414.690909 69.12 
L 411.083636 69.12 
L 407.476364 69.12 
L 403.869091 69.12 
L 400.261818 69.12 
L 396.654545 69.12 
L 393.047273 69.12 
L 389.44 69.12 
L 385.832727 69.12 
L 382.225455 69.12 
L 378.618182 69.12 
L 375.010909 69.12 
L 371.403636 69.12 
L 367.796364 69.12 
L 364.189091 69.12 
L 360.581818 69.12 
L 356.974545 69.12 
L 353.367273 69.12 
L 349.76 69.12 
L 346.152727 69.12 
L 342.545455 69.12 
L 338.938182 69.12 
L 335.330909 69.12 
L 331.723636 69.12 
L 328.116364 69.12 
L 324.509091 69.12 
L 320.901818 69.12 
L 317.294545 69.12 
L 313.687273 69.12 
L 310.08 69.12 
L 306.472727 69.12 
L 302.865455 69.12 
L 299.258182 69.12 
L 295.650909 69.12 
L 292.043636 69.12 
L 288.436364 69.12 
L 284.829091 69.12 
L 281.221818 69.12 
L 277.614545 69.12 
L 274.007273 69.12 
L 270.4 69.12 
L 266.792727 69.12 
L 263.185455 69.12 
L 259.578182 69.12 
L 255.970909 69.12 
L 252.363636 69.12 
L 248.756364 69.12 
L 245.149091 69.12 
L 241.541818 69.12 
L 237.934545 69.12 
L 234.327273 69.12 
L 230.72 69.12 
L 227.112727 69.12 
L 223.505455 69.12 
L 219.898182 69.12 
L 216.290909 69.12 
L 212.683636 69.12 
L 209.076364 69.12 
L 205.469091 69.12 
L 201.861818 69.12 
L 198.254545 69.12 
L 194.647273 69.12 
L 191.04 69.12 
L 187.432727 69.12 
L 183.825455 69.12 
L 180.48541 69.12 
L 180.218182 69.139281 
L 176.610909 72.3452 
L 175.524706 73.512727 
L 173.003636 76.222582 
L 171.438013 77.905455 
L 169.396364 80.09999 
L 167.351299 82.298182 
L 165.789091 83.977373 
L 163.264596 86.690909 
L 162.181818 87.854768 
L 159.177892 91.083636 
L 158.574545 91.732164 
L 155.091189 95.476364 
L 154.967273 95.609558 
L 151.36 99.486955 
L 151.004486 99.869091 
L 147.752727 103.36435 
L 146.917788 104.261818 
L 144.145455 107.241719 
L 142.83104 108.654545 
L 140.538182 111.119116 
L 138.74434 113.047273 
L 136.930909 114.996486 
L 134.657654 117.44 
L 133.323636 118.873915 
L 130.570921 121.832727 
L 129.716364 122.751277 
L 126.484218 126.225455 
L 126.109091 126.62867 
L 122.501818 130.506067 
L 122.397514 130.618182 
L 118.894545 134.383416 
L 118.310772 135.010909 
L 115.287273 138.260821 
L 114.224068 139.403636 
L 111.68 142.138244 
L 110.137384 143.796364 
L 108.072727 146.015599 
L 106.050654 148.189091 
L 104.465455 149.892994 
L 101.963967 152.581818 
L 100.858182 154.124743 
L 99.515837 156.974545 
L 98.646695 161.367273 
L 97.777582 165.76 
L 97.250909 168.421914 
L 96.908462 170.152727 
L 96.039347 174.545455 
L 95.170231 178.938182 
L 94.301119 183.330909 
L 93.643636 186.653977 
L 93.431999 187.723636 
L 92.562885 192.116364 
L 91.693753 196.509091 
L 90.824631 200.901818 
L 90.036364 204.885883 
L 89.955509 205.294545 
L 89.086405 209.687273 
L 88.21727 214.08 
L 87.34817 218.472727 
L 86.479048 222.865455 
L 86.429091 223.117946 
L 85.609932 227.258182 
L 84.740802 231.650909 
L 83.871695 236.043636 
L 83.002586 240.436364 
L 82.821818 241.349976 
L 82.133434 244.829091 
L 81.264333 249.221818 
L 80.395219 253.614545 
L 79.526081 258.007273 
L 79.214545 259.581865 
L 78.656973 262.4 
L 77.787857 266.792727 
L 76.918728 271.185455 
L 76.049605 275.578182 
L 75.607273 277.813862 
L 75.180498 279.970909 
L 74.311371 284.363636 
L 73.442246 288.756364 
L 72.573145 293.149091 
L 72 296.045884 
L 72 297.541818 
L 72 301.934545 
L 72 306.327273 
L 72 310.72 
L 72 315.112727 
L 72 319.505455 
L 72 323.898182 
L 72 328.290909 
L 72 332.683636 
L 72 337.076364 
L 72 341.469091 
L 72 345.861818 
L 72 350.254545 
L 72 354.647273 
L 72 359.04 
L 72 363.432727 
L 72 367.825455 
L 72 372.218182 
L 72 376.610909 
L 72 381.003636 
L 72 385.396364 
L 72 389.789091 
L 72 394.181818 
L 72 398.574545 
L 72 402.967273 
L 72 407.36 
L 72 411.752727 
L 72 416.145455 
L 72 420.538182 
L 72 424.930909 
L 72 429.323636 
L 72 433.716364 
L 72 438.109091 
L 72 442.501818 
L 72 446.894545 
L 72 451.287273 
L 72 455.68 
L 72 460.072727 
L 72 464.465455 
L 72 468.858182 
L 72 473.250909 
L 72 477.643636 
L 72 482.036364 
L 72 486.429091 
L 72 490.821818 
L 72 495.214545 
L 72 499.607273 
L 72 503.560038 
L 74.076422 504 
z
" style="fill:#bcd2f7;"/>
    <path clip-path="url(#pae7c5201fe)" d="M 320.901818 504 
L 324.509091 504 
L 328.116364 504 
L 331.723636 504 
L 335.330909 504 
L 338.938182 504 
L 342.545455 504 
L 346.152727 504 
L 349.76 504 
L 353.367273 504 
L 356.974545 504 
L 360.581818 504 
L 364.189091 504 
L 367.796364 504 
L 371.403636 504 
L 375.010909 504 
L 378.618182 504 
L 382.225455 504 
L 383.709447 504 
L 385.832727 502.045758 
L 388.482137 499.607273 
L 389.44 498.725667 
L 393.047273 495.405512 
L 393.254759 495.214545 
L 396.654545 492.085415 
L 398.027451 490.821818 
L 400.261818 488.765333 
L 402.800117 486.429091 
L 403.869091 485.445204 
L 407.476364 482.125088 
L 407.572764 482.036364 
L 411.083636 478.804998 
L 412.345431 477.643636 
L 414.690909 475.484861 
L 417.118133 473.250909 
L 418.298182 472.164809 
L 421.890768 468.858182 
L 421.905455 468.844664 
L 425.512727 465.524566 
L 426.663447 464.465455 
L 429.12 462.204467 
L 429.12 460.072727 
L 429.12 455.68 
L 429.12 451.287273 
L 429.12 446.894545 
L 429.12 442.501818 
L 429.12 438.109091 
L 429.12 433.716364 
L 429.12 429.323636 
L 429.12 424.930909 
L 429.12 420.538182 
L 429.12 416.145455 
L 429.12 411.752727 
L 429.12 407.36 
L 429.12 402.967273 
L 429.12 398.574545 
L 429.12 394.181818 
L 429.12 389.789091 
L 429.12 385.396364 
L 429.12 381.003636 
L 429.12 376.610909 
L 429.12 372.218182 
L 429.12 367.825455 
L 429.12 363.432727 
L 429.12 359.04 
L 429.12 354.647273 
L 429.12 350.254545 
L 429.12 345.861818 
L 429.12 341.469091 
L 429.12 337.076364 
L 429.12 332.683636 
L 429.12 328.290909 
L 429.12 323.898182 
L 429.12 319.505455 
L 429.12 315.112727 
L 429.12 310.72 
L 429.12 306.327273 
L 429.12 301.934545 
L 429.12 297.541818 
L 429.12 293.149091 
L 429.12 288.756364 
L 429.12 284.363636 
L 429.12 279.970909 
L 429.12 278.793457 
L 428.988129 279.970909 
L 428.496166 284.363636 
L 428.004193 288.756364 
L 427.512208 293.149091 
L 427.020225 297.541818 
L 426.528262 301.934545 
L 426.042587 306.327273 
L 425.573769 310.72 
L 425.512727 311.292022 
L 425.105009 315.112727 
L 424.636192 319.505455 
L 424.167394 323.898182 
L 423.698591 328.290909 
L 423.22979 332.683636 
L 422.760994 337.076364 
L 422.29219 341.469091 
L 421.905455 345.092959 
L 421.823402 345.861818 
L 421.354588 350.254545 
L 420.885785 354.647273 
L 420.416996 359.04 
L 419.948195 363.432727 
L 419.479398 367.825455 
L 419.010592 372.218182 
L 418.541805 376.610909 
L 418.298182 378.893658 
L 418.072997 381.003636 
L 417.604199 385.396364 
L 417.135401 389.789091 
L 416.666594 394.181818 
L 416.197785 398.574545 
L 415.728994 402.967273 
L 415.260198 407.36 
L 414.7914 411.752727 
L 414.690909 412.33221 
L 413.536323 416.145455 
L 411.083636 418.402894 
L 408.763644 420.538182 
L 407.476364 421.722977 
L 403.990991 424.930909 
L 403.869091 425.043106 
L 400.261818 428.363204 
L 399.218313 429.323636 
L 396.654545 431.683319 
L 394.445647 433.716364 
L 393.047273 435.00341 
L 389.672957 438.109091 
L 389.44 438.323501 
L 385.832727 441.643629 
L 384.9003 442.501818 
L 382.225455 444.963723 
L 380.127646 446.894545 
L 378.618182 448.283837 
L 375.35498 451.287273 
L 375.010909 451.603956 
L 371.403636 454.924054 
L 370.582304 455.68 
L 367.796364 458.24417 
L 365.80964 460.072727 
L 364.189091 461.564261 
L 361.03695 464.465455 
L 360.581818 464.884352 
L 356.974545 468.204479 
L 356.260304 468.858182 
L 353.367273 471.501504 
L 351.438769 473.250909 
L 349.76 474.773772 
L 346.596357 477.643636 
L 346.152727 478.046067 
L 342.545455 481.31832 
L 341.753906 482.036364 
L 338.938182 484.590579 
L 336.911446 486.429091 
L 335.330909 487.862858 
L 332.069019 490.821818 
L 331.723636 491.135123 
L 328.116364 494.407361 
L 327.226531 495.214545 
L 324.509091 497.679622 
L 322.384095 499.607273 
L 320.901818 500.951893 
L 317.541659 504 
z
" style="fill:#bcd2f7;"/>
   </g>
   <g id="PathCollection_5">
    <path clip-path="url(#pae7c5201fe)" d="M 259.578182 499.789355 
L 263.185455 500.615212 
L 266.792727 501.441046 
L 270.4 502.266871 
L 274.007273 503.092703 
L 277.614545 503.918531 
L 277.970405 504 
L 281.221818 504 
L 284.829091 504 
L 288.436364 504 
L 292.043636 504 
L 295.650909 504 
L 299.258182 504 
L 302.865455 504 
L 306.472727 504 
L 310.08 504 
L 313.687273 504 
L 317.294545 504 
L 317.541659 504 
L 320.901818 500.951893 
L 322.384095 499.607273 
L 324.509091 497.679622 
L 327.226531 495.214545 
L 328.116364 494.407361 
L 331.723636 491.135123 
L 332.069019 490.821818 
L 335.330909 487.862858 
L 336.911446 486.429091 
L 338.938182 484.590579 
L 341.753906 482.036364 
L 342.545455 481.31832 
L 346.152727 478.046067 
L 346.596357 477.643636 
L 349.76 474.773772 
L 351.438769 473.250909 
L 353.367273 471.501504 
L 356.260304 468.858182 
L 356.974545 468.204479 
L 360.581818 464.884352 
L 361.03695 464.465455 
L 364.189091 461.564261 
L 365.80964 460.072727 
L 367.796364 458.24417 
L 370.582304 455.68 
L 371.403636 454.924054 
L 375.010909 451.603956 
L 375.35498 451.287273 
L 378.618182 448.283837 
L 380.127646 446.894545 
L 382.225455 444.963723 
L 384.9003 442.501818 
L 385.832727 441.643629 
L 389.44 438.323501 
L 389.672957 438.109091 
L 393.047273 435.00341 
L 394.445647 433.716364 
L 396.654545 431.683319 
L 399.218313 429.323636 
L 400.261818 428.363204 
L 403.869091 425.043106 
L 403.990991 424.930909 
L 407.476364 421.722977 
L 408.763644 420.538182 
L 411.083636 418.402894 
L 413.536323 416.145455 
L 414.690909 412.33221 
L 414.7914 411.752727 
L 415.260198 407.36 
L 415.728994 402.967273 
L 416.197785 398.574545 
L 416.666594 394.181818 
L 417.135401 389.789091 
L 417.604199 385.396364 
L 418.072997 381.003636 
L 418.298182 378.893658 
L 418.541805 376.610909 
L 419.010592 372.218182 
L 419.479398 367.825455 
L 419.948195 363.432727 
L 420.416996 359.04 
L 420.885785 354.647273 
L 421.354588 350.254545 
L 421.823402 345.861818 
L 421.905455 345.092959 
L 422.29219 341.469091 
L 422.760994 337.076364 
L 423.22979 332.683636 
L 423.698591 328.290909 
L 424.167394 323.898182 
L 424.636192 319.505455 
L 425.105009 315.112727 
L 425.512727 311.292022 
L 425.573769 310.72 
L 426.042587 306.327273 
L 426.528262 301.934545 
L 427.020225 297.541818 
L 427.512208 293.149091 
L 428.004193 288.756364 
L 428.496166 284.363636 
L 428.988129 279.970909 
L 429.12 278.793457 
L 429.12 275.578182 
L 429.12 271.185455 
L 429.12 266.792727 
L 429.12 262.4 
L 429.12 258.007273 
L 429.12 253.614545 
L 429.12 249.221818 
L 429.12 244.829091 
L 429.12 240.436364 
L 429.12 236.043636 
L 429.12 231.650909 
L 429.12 227.258182 
L 429.12 222.865455 
L 429.12 218.472727 
L 429.12 214.08 
L 429.12 209.687273 
L 429.12 205.294545 
L 429.12 200.901818 
L 429.12 196.509091 
L 429.12 192.116364 
L 429.12 187.723636 
L 429.12 183.330909 
L 429.12 178.938182 
L 429.12 174.545455 
L 429.12 170.152727 
L 429.12 165.76 
L 429.12 161.367273 
L 429.12 156.974545 
L 429.12 152.581818 
L 429.12 148.189091 
L 429.12 143.796364 
L 429.12 139.403636 
L 429.12 135.010909 
L 429.12 130.618182 
L 429.12 126.225455 
L 429.12 121.832727 
L 429.12 117.44 
L 429.12 113.047273 
L 429.12 108.654545 
L 429.12 105.508969 
L 427.637119 104.261818 
L 425.512727 102.475128 
L 422.414125 99.869091 
L 421.905455 99.441283 
L 418.298182 96.407411 
L 417.191159 95.476364 
L 414.690909 93.995709 
L 411.083636 93.457328 
L 407.476364 93.663118 
L 403.869091 93.86894 
L 400.261818 94.074729 
L 396.654545 94.280515 
L 393.047273 94.486338 
L 389.44 94.692126 
L 385.832727 94.897922 
L 382.225455 95.103717 
L 378.618182 95.309505 
L 375.693394 95.476364 
L 375.010909 95.5153 
L 371.403636 95.721114 
L 367.796364 95.926903 
L 364.189091 96.132706 
L 360.581818 96.338514 
L 356.974545 96.544317 
L 353.367273 96.750117 
L 349.76 96.955892 
L 346.152727 97.161707 
L 342.545455 97.367515 
L 338.938182 97.573316 
L 335.330909 97.779101 
L 331.723636 97.984892 
L 328.116364 98.19071 
L 324.509091 98.396502 
L 320.901818 98.602314 
L 317.294545 98.8081 
L 313.687273 99.013909 
L 310.08 99.219711 
L 306.472727 99.425479 
L 302.865455 99.631303 
L 299.258182 99.850222 
L 298.965365 99.869091 
L 295.650909 100.082673 
L 292.043636 100.315113 
L 288.436364 100.547561 
L 284.829091 100.779996 
L 281.221818 101.012449 
L 277.614545 101.244881 
L 274.007273 101.477338 
L 270.4 101.70977 
L 266.792727 101.942221 
L 263.185455 102.174661 
L 259.578182 102.407105 
L 255.970909 102.639553 
L 252.363636 102.872011 
L 248.756364 103.104438 
L 245.149091 103.336878 
L 241.541818 103.569335 
L 237.934545 103.801761 
L 234.327273 104.034218 
L 230.794842 104.261818 
L 230.72 104.26664 
L 227.112727 104.4991 
L 223.505455 104.73153 
L 219.898182 104.96399 
L 216.290909 105.19642 
L 212.683636 105.428872 
L 209.076364 105.661316 
L 205.469091 105.893752 
L 201.861818 106.126195 
L 198.254545 106.358635 
L 194.647273 106.591079 
L 191.04 106.880987 
L 188.955523 108.654545 
L 187.432727 110.291363 
L 184.868804 113.047273 
L 183.825455 114.168755 
L 180.782094 117.44 
L 180.218182 118.046138 
L 176.695389 121.832727 
L 176.610909 121.923533 
L 173.003636 125.800908 
L 172.608662 126.225455 
L 169.396364 129.678299 
L 168.521964 130.618182 
L 165.789091 133.55572 
L 164.435274 135.010909 
L 162.181818 137.433081 
L 160.34854 139.403636 
L 158.574545 141.310485 
L 156.261841 143.796364 
L 154.967273 145.187868 
L 152.175124 148.189091 
L 151.36 149.065251 
L 148.088418 152.581818 
L 147.752727 152.942648 
L 144.145455 156.820067 
L 144.001737 156.974545 
L 140.538182 160.69745 
L 139.915021 161.367273 
L 136.930909 164.574833 
L 135.828304 165.76 
L 133.323636 168.452192 
L 131.741568 170.152727 
L 129.716364 172.329598 
L 127.654877 174.545455 
L 126.109091 177.265981 
L 125.484632 178.938182 
L 124.615497 183.330909 
L 123.746382 187.723636 
L 122.877264 192.116364 
L 122.501818 194.013929 
L 122.008137 196.509091 
L 121.139026 200.901818 
L 120.269896 205.294545 
L 119.400773 209.687273 
L 118.894545 212.245898 
L 118.531666 214.08 
L 117.662533 218.472727 
L 116.793425 222.865455 
L 115.924297 227.258182 
L 115.287273 230.477894 
L 115.05519 231.650909 
L 114.186062 236.043636 
L 113.316949 240.436364 
L 112.447834 244.829091 
L 111.68 248.7099 
L 111.578714 249.221818 
L 110.709592 253.614545 
L 109.840469 258.007273 
L 108.971354 262.4 
L 108.102254 266.792727 
L 108.072727 266.941961 
L 107.233125 271.185455 
L 106.364009 275.578182 
L 105.494886 279.970909 
L 104.625763 284.363636 
L 104.465455 285.173854 
L 103.756634 288.756364 
L 102.887531 293.149091 
L 102.018415 297.541818 
L 101.149302 301.934545 
L 100.858182 303.405958 
L 100.280193 306.327273 
L 99.411053 310.72 
L 98.541925 315.112727 
L 97.672814 319.505455 
L 97.250909 321.637876 
L 96.803705 323.898182 
L 95.934587 328.290909 
L 95.065462 332.683636 
L 94.19634 337.076364 
L 93.643636 339.879784 
L 93.331025 341.469091 
L 92.47426 345.861818 
L 91.617494 350.254545 
L 90.760744 354.647273 
L 90.036364 358.361247 
L 89.903978 359.04 
L 89.047211 363.432727 
L 88.190467 367.825455 
L 87.333697 372.218182 
L 86.476947 376.610909 
L 86.429091 376.856271 
L 85.620172 381.003636 
L 84.763416 385.396364 
L 83.90666 389.789091 
L 83.049886 394.181818 
L 82.821818 395.351161 
L 82.193135 398.574545 
L 81.336377 402.967273 
L 80.479609 407.36 
L 79.622854 411.752727 
L 79.214545 413.846185 
L 78.766093 416.145455 
L 77.909322 420.538182 
L 77.05256 424.930909 
L 76.195794 429.323636 
L 75.607273 433.247084 
L 75.532796 433.716364 
L 75.607273 434.977729 
L 75.82839 438.109091 
L 76.138564 442.501818 
L 76.916841 446.894545 
L 79.214545 449.601031 
L 81.043159 451.287273 
L 82.821818 452.927463 
L 85.806732 455.68 
L 86.429091 456.253908 
L 90.036364 459.580323 
L 90.570336 460.072727 
L 93.643636 462.906781 
L 96.143244 464.465455 
L 97.250909 464.898781 
L 100.858182 465.663101 
L 104.465455 466.427443 
L 108.072727 467.191788 
L 111.68 467.956131 
L 115.287273 468.720456 
L 115.937248 468.858182 
L 118.894545 469.484819 
L 122.501818 470.249149 
L 126.109091 471.013513 
L 129.716364 471.777847 
L 133.323636 472.542194 
L 136.668376 473.250909 
L 136.930909 473.306537 
L 140.538182 474.070885 
L 144.145455 474.835206 
L 147.752727 475.599572 
L 151.36 476.363895 
L 154.967273 477.128234 
L 157.39966 477.643636 
L 158.574545 477.892585 
L 162.181818 478.656938 
L 165.789091 479.421264 
L 169.396364 480.185627 
L 173.003636 480.949971 
L 176.610909 481.714324 
L 178.130817 482.036364 
L 180.218182 482.478636 
L 183.825455 483.243017 
L 187.432727 484.007344 
L 191.04 484.771669 
L 194.647273 485.536022 
L 198.254545 486.300353 
L 198.861057 486.429091 
L 201.861818 487.06911 
L 205.469091 487.861197 
L 209.076364 488.65329 
L 212.683636 489.445375 
L 216.290909 490.237483 
L 218.952059 490.821818 
L 219.898182 491.029568 
L 223.505455 491.82167 
L 227.112727 492.613754 
L 230.72 493.405846 
L 234.327273 494.197922 
L 237.934545 494.990049 
L 238.956977 495.214545 
L 241.541818 495.782104 
L 245.149091 496.574215 
L 248.756364 497.366293 
L 252.363636 498.156711 
L 255.970909 498.963553 
L 258.782714 499.607273 
z
M 280.011865 460.072727 
L 277.614545 459.52389 
L 274.007273 458.698038 
L 270.4 457.87222 
L 266.792727 457.046379 
L 263.185455 456.22055 
L 260.824365 455.68 
L 259.578182 455.394698 
L 255.970909 454.569305 
L 252.363636 453.786683 
L 248.756364 453.004149 
L 245.149091 452.221607 
L 241.541818 451.439064 
L 240.842119 451.287273 
L 237.934545 450.656509 
L 234.327273 449.873974 
L 230.72 449.09144 
L 227.112727 448.323093 
L 223.505455 447.568302 
L 220.285356 446.894545 
L 219.898182 446.813535 
L 216.290909 446.058818 
L 212.683636 445.304065 
L 209.076364 444.549329 
L 205.469091 443.794594 
L 201.861818 443.039858 
L 199.290355 442.501818 
L 198.254545 442.28509 
L 194.647273 441.523084 
L 191.04 440.760026 
L 187.432727 439.995679 
L 183.825455 439.231348 
L 180.218182 438.46699 
L 178.529019 438.109091 
L 176.610909 437.70268 
L 173.003636 436.938307 
L 169.396364 436.173972 
L 165.789091 435.409643 
L 162.181818 434.64529 
L 158.574545 433.880931 
L 157.79788 433.716364 
L 154.967273 433.116589 
L 151.36 432.35224 
L 147.752727 431.587912 
L 144.145455 430.823561 
L 140.538182 430.059229 
L 137.066662 429.323636 
L 136.930909 429.294871 
L 133.323636 428.345601 
L 129.716364 426.018204 
L 128.537285 424.930909 
L 126.109091 422.691764 
L 123.77371 420.538182 
L 122.501818 419.365296 
L 119.010162 416.145455 
L 118.894545 416.038838 
L 115.287273 412.712428 
L 114.246557 411.752727 
L 111.960513 407.36 
L 111.68 403.873356 
L 111.628739 402.967273 
L 111.68 402.692283 
L 112.437143 398.574545 
L 113.293904 394.181818 
L 114.150662 389.789091 
L 115.007412 385.396364 
L 115.287273 383.961474 
L 115.86417 381.003636 
L 116.720934 376.610909 
L 117.577706 372.218182 
L 118.434474 367.825455 
L 118.894545 365.47716 
L 119.296018 363.432727 
L 120.165131 359.04 
L 121.034259 354.647273 
L 121.903367 350.254545 
L 122.501818 347.229858 
L 122.772494 345.861818 
L 123.641612 341.469091 
L 124.510727 337.076364 
L 125.379851 332.683636 
L 126.109091 328.997891 
L 126.248969 328.290909 
L 127.118092 323.898182 
L 127.9872 319.505455 
L 128.856322 315.112727 
L 129.716364 310.765862 
L 129.725438 310.72 
L 130.594561 306.327273 
L 131.463672 301.934545 
L 132.332798 297.541818 
L 133.201921 293.149091 
L 133.323636 292.533905 
L 134.071028 288.756364 
L 134.940163 284.363636 
L 135.809274 279.970909 
L 136.678397 275.578182 
L 136.930909 274.301909 
L 137.547504 271.185455 
L 138.416631 266.792727 
L 139.285744 262.4 
L 140.154872 258.007273 
L 140.538182 256.069912 
L 141.02398 253.614545 
L 141.893102 249.221818 
L 142.762222 244.829091 
L 143.631341 240.436364 
L 144.145455 237.8379 
L 144.500455 236.043636 
L 145.369578 231.650909 
L 146.238704 227.258182 
L 147.10781 222.865455 
L 147.752727 219.605957 
L 147.976944 218.472727 
L 148.846051 214.08 
L 149.715177 209.687273 
L 150.584289 205.294545 
L 151.36 201.37395 
L 151.453414 200.901818 
L 153.345799 196.509091 
L 154.967273 194.766202 
L 157.432491 192.116364 
L 158.574545 190.888781 
L 161.519197 187.723636 
L 162.181818 187.011399 
L 165.605914 183.330909 
L 165.789091 183.134016 
L 169.396364 179.256621 
L 169.692617 178.938182 
L 173.003636 175.379212 
L 173.779312 174.545455 
L 176.610909 171.501847 
L 177.866044 170.152727 
L 180.218182 167.624439 
L 181.952739 165.76 
L 183.825455 163.747075 
L 186.039464 161.367273 
L 187.432727 159.869681 
L 190.126176 156.974545 
L 191.04 155.992294 
L 194.212888 152.581818 
L 194.647273 152.114903 
L 198.254545 148.237507 
L 198.299589 148.189091 
L 201.861818 144.64849 
L 205.469091 144.277379 
L 209.076364 144.044947 
L 212.683636 143.81249 
L 212.933887 143.796364 
L 216.290909 143.58004 
L 219.898182 143.34761 
L 223.505455 143.115168 
L 227.112727 142.882728 
L 230.72 142.650282 
L 234.327273 142.417833 
L 237.934545 142.185393 
L 241.541818 141.95295 
L 245.149091 141.720495 
L 248.756364 141.48806 
L 252.363636 141.255619 
L 255.970909 141.023177 
L 259.578182 140.79073 
L 263.185455 140.558291 
L 266.792727 140.325843 
L 270.4 140.093401 
L 274.007273 139.860953 
L 277.614545 139.62852 
L 281.104272 139.403636 
L 281.221818 139.396061 
L 284.829091 139.16364 
L 288.436364 138.93118 
L 292.043636 138.698743 
L 295.650909 138.466292 
L 299.258182 138.233862 
L 302.865455 138.001411 
L 306.472727 137.769749 
L 310.08 137.562308 
L 313.687273 137.356492 
L 317.294545 137.150717 
L 320.901818 136.944922 
L 324.509091 136.739098 
L 328.116364 136.533313 
L 331.723636 136.327495 
L 335.330909 136.121709 
L 338.938182 135.915934 
L 342.545455 135.710114 
L 346.152727 135.504312 
L 349.76 135.298505 
L 353.367273 135.092739 
L 354.801568 135.010909 
L 356.974545 134.886934 
L 360.581818 134.681129 
L 364.189091 134.475322 
L 367.796364 134.269528 
L 371.403636 134.063717 
L 375.010909 133.993307 
L 377.226502 135.010909 
L 378.618182 136.181369 
L 382.225455 139.215215 
L 382.449489 139.403636 
L 385.832727 142.249044 
L 387.672504 143.796364 
L 389.44 145.282904 
L 392.895455 148.189091 
L 393.047273 148.316775 
L 396.654545 151.35059 
L 398.118493 152.581818 
L 400.261818 154.384432 
L 403.341488 156.974545 
L 403.869091 157.782865 
L 404.874265 161.367273 
L 404.367149 165.76 
L 403.869091 170.074524 
L 403.860063 170.152727 
L 403.352939 174.545455 
L 402.845829 178.938182 
L 402.338715 183.330909 
L 401.831601 187.723636 
L 401.324478 192.116364 
L 400.817378 196.509091 
L 400.310282 200.901818 
L 400.261818 201.321616 
L 399.803158 205.294545 
L 399.296037 209.687273 
L 398.794303 214.08 
L 398.297737 218.472727 
L 397.805753 222.865455 
L 397.313775 227.258182 
L 396.821804 231.650909 
L 396.654545 233.144334 
L 396.329831 236.043636 
L 395.837843 240.436364 
L 395.345871 244.829091 
L 394.853891 249.221818 
L 394.361898 253.614545 
L 393.869943 258.007273 
L 393.377953 262.4 
L 393.047273 265.352548 
L 392.885976 266.792727 
L 392.394006 271.185455 
L 391.902029 275.578182 
L 391.410045 279.970909 
L 390.918073 284.363636 
L 390.426088 288.756364 
L 389.934114 293.149091 
L 389.442141 297.541818 
L 389.44 297.560932 
L 388.950167 301.934545 
L 388.458179 306.327273 
L 387.987425 310.72 
L 387.518619 315.112727 
L 387.049821 319.505455 
L 386.58103 323.898182 
L 386.112241 328.290909 
L 385.832727 330.910029 
L 385.643445 332.683636 
L 385.174628 337.076364 
L 384.70583 341.469091 
L 384.237031 345.861818 
L 383.768231 350.254545 
L 383.299447 354.647273 
L 382.830626 359.04 
L 382.361837 363.432727 
L 382.225455 364.71067 
L 381.89304 367.825455 
L 381.424242 372.218182 
L 380.955425 376.610909 
L 380.486626 381.003636 
L 380.017828 385.396364 
L 378.618182 387.773392 
L 376.545858 389.789091 
L 375.010909 391.201843 
L 371.773209 394.181818 
L 371.403636 394.521971 
L 367.796364 397.84204 
L 367.0005 398.574545 
L 364.189091 401.162157 
L 362.227854 402.967273 
L 360.581818 404.482268 
L 357.455204 407.36 
L 356.974545 407.802397 
L 353.367273 411.122478 
L 352.682509 411.752727 
L 349.76 414.442563 
L 347.902632 416.145455 
L 346.152727 417.747098 
L 343.075897 420.538182 
L 342.545455 421.019357 
L 338.938182 424.291619 
L 338.233436 424.930909 
L 335.330909 427.563871 
L 333.390987 429.323636 
L 331.723636 430.836143 
L 328.548551 433.716364 
L 328.116364 434.108414 
L 324.509091 437.380686 
L 323.706115 438.109091 
L 320.901818 440.652957 
L 318.86366 442.501818 
L 317.294545 443.925203 
L 314.02118 446.894545 
L 313.687273 447.197441 
L 310.08 450.469717 
L 309.178748 451.287273 
L 306.472727 453.741987 
L 304.336317 455.68 
L 302.865455 457.014271 
L 299.493883 460.072727 
L 299.258182 460.286539 
L 295.650909 463.409324 
L 292.043636 462.827222 
L 288.436364 462.001401 
L 284.829091 461.175572 
L 281.221818 460.349729 
z
" style="fill:#dddcdc;"/>
   </g>
   <g id="PathCollection_6">
    <path clip-path="url(#pae7c5201fe)" d="M 281.221818 460.349729 
L 284.829091 461.175572 
L 288.436364 462.001401 
L 292.043636 462.827222 
L 295.650909 463.409324 
L 299.258182 460.286539 
L 299.493883 460.072727 
L 302.865455 457.014271 
L 304.336317 455.68 
L 306.472727 453.741987 
L 309.178748 451.287273 
L 310.08 450.469717 
L 313.687273 447.197441 
L 314.02118 446.894545 
L 317.294545 443.925203 
L 318.86366 442.501818 
L 320.901818 440.652957 
L 323.706115 438.109091 
L 324.509091 437.380686 
L 328.116364 434.108414 
L 328.548551 433.716364 
L 331.723636 430.836143 
L 333.390987 429.323636 
L 335.330909 427.563871 
L 338.233436 424.930909 
L 338.938182 424.291619 
L 342.545455 421.019357 
L 343.075897 420.538182 
L 346.152727 417.747098 
L 347.902632 416.145455 
L 349.76 414.442563 
L 352.682509 411.752727 
L 353.367273 411.122478 
L 356.974545 407.802397 
L 357.455204 407.36 
L 360.581818 404.482268 
L 362.227854 402.967273 
L 364.189091 401.162157 
L 367.0005 398.574545 
L 367.796364 397.84204 
L 371.403636 394.521971 
L 371.773209 394.181818 
L 375.010909 391.201843 
L 376.545858 389.789091 
L 378.618182 387.773392 
L 380.017828 385.396364 
L 380.486626 381.003636 
L 380.955425 376.610909 
L 381.424242 372.218182 
L 381.89304 367.825455 
L 382.225455 364.71067 
L 382.361837 363.432727 
L 382.830626 359.04 
L 383.299447 354.647273 
L 383.768231 350.254545 
L 384.237031 345.861818 
L 384.70583 341.469091 
L 385.174628 337.076364 
L 385.643445 332.683636 
L 385.832727 330.910029 
L 386.112241 328.290909 
L 386.58103 323.898182 
L 387.049821 319.505455 
L 387.518619 315.112727 
L 387.987425 310.72 
L 388.458179 306.327273 
L 388.950167 301.934545 
L 389.44 297.560932 
L 389.442141 297.541818 
L 389.934114 293.149091 
L 390.426088 288.756364 
L 390.918073 284.363636 
L 391.410045 279.970909 
L 391.902029 275.578182 
L 392.394006 271.185455 
L 392.885976 266.792727 
L 393.047273 265.352548 
L 393.377953 262.4 
L 393.869943 258.007273 
L 394.361898 253.614545 
L 394.853891 249.221818 
L 395.345871 244.829091 
L 395.837843 240.436364 
L 396.329831 236.043636 
L 396.654545 233.144334 
L 396.821804 231.650909 
L 397.313775 227.258182 
L 397.805753 222.865455 
L 398.297737 218.472727 
L 398.794303 214.08 
L 399.296037 209.687273 
L 399.803158 205.294545 
L 400.261818 201.321616 
L 400.310282 200.901818 
L 400.817378 196.509091 
L 401.324478 192.116364 
L 401.831601 187.723636 
L 402.338715 183.330909 
L 402.845829 178.938182 
L 403.352939 174.545455 
L 403.860063 170.152727 
L 403.869091 170.074524 
L 404.367149 165.76 
L 404.874265 161.367273 
L 403.869091 157.782865 
L 403.341488 156.974545 
L 400.261818 154.384432 
L 398.118493 152.581818 
L 396.654545 151.35059 
L 393.047273 148.316775 
L 392.895455 148.189091 
L 389.44 145.282904 
L 387.672504 143.796364 
L 385.832727 142.249044 
L 382.449489 139.403636 
L 382.225455 139.215215 
L 378.618182 136.181369 
L 377.226502 135.010909 
L 375.010909 133.993307 
L 371.403636 134.063717 
L 367.796364 134.269528 
L 364.189091 134.475322 
L 360.581818 134.681129 
L 356.974545 134.886934 
L 354.801568 135.010909 
L 353.367273 135.092739 
L 349.76 135.298505 
L 346.152727 135.504312 
L 342.545455 135.710114 
L 338.938182 135.915934 
L 335.330909 136.121709 
L 331.723636 136.327495 
L 328.116364 136.533313 
L 324.509091 136.739098 
L 320.901818 136.944922 
L 317.294545 137.150717 
L 313.687273 137.356492 
L 310.08 137.562308 
L 306.472727 137.769749 
L 302.865455 138.001411 
L 299.258182 138.233862 
L 295.650909 138.466292 
L 292.043636 138.698743 
L 288.436364 138.93118 
L 284.829091 139.16364 
L 281.221818 139.396061 
L 281.104272 139.403636 
L 277.614545 139.62852 
L 274.007273 139.860953 
L 270.4 140.093401 
L 266.792727 140.325843 
L 263.185455 140.558291 
L 259.578182 140.79073 
L 255.970909 141.023177 
L 252.363636 141.255619 
L 248.756364 141.48806 
L 245.149091 141.720495 
L 241.541818 141.95295 
L 237.934545 142.185393 
L 234.327273 142.417833 
L 230.72 142.650282 
L 227.112727 142.882728 
L 223.505455 143.115168 
L 219.898182 143.34761 
L 216.290909 143.58004 
L 212.933887 143.796364 
L 212.683636 143.81249 
L 209.076364 144.044947 
L 205.469091 144.277379 
L 201.861818 144.64849 
L 198.299589 148.189091 
L 198.254545 148.237507 
L 194.647273 152.114903 
L 194.212888 152.581818 
L 191.04 155.992294 
L 190.126176 156.974545 
L 187.432727 159.869681 
L 186.039464 161.367273 
L 183.825455 163.747075 
L 181.952739 165.76 
L 180.218182 167.624439 
L 177.866044 170.152727 
L 176.610909 171.501847 
L 173.779312 174.545455 
L 173.003636 175.379212 
L 169.692617 178.938182 
L 169.396364 179.256621 
L 165.789091 183.134016 
L 165.605914 183.330909 
L 162.181818 187.011399 
L 161.519197 187.723636 
L 158.574545 190.888781 
L 157.432491 192.116364 
L 154.967273 194.766202 
L 153.345799 196.509091 
L 151.453414 200.901818 
L 151.36 201.37395 
L 150.584289 205.294545 
L 149.715177 209.687273 
L 148.846051 214.08 
L 147.976944 218.472727 
L 147.752727 219.605957 
L 147.10781 222.865455 
L 146.238704 227.258182 
L 145.369578 231.650909 
L 144.500455 236.043636 
L 144.145455 237.8379 
L 143.631341 240.436364 
L 142.762222 244.829091 
L 141.893102 249.221818 
L 141.02398 253.614545 
L 140.538182 256.069912 
L 140.154872 258.007273 
L 139.285744 262.4 
L 138.416631 266.792727 
L 137.547504 271.185455 
L 136.930909 274.301909 
L 136.678397 275.578182 
L 135.809274 279.970909 
L 134.940163 284.363636 
L 134.071028 288.756364 
L 133.323636 292.533905 
L 133.201921 293.149091 
L 132.332798 297.541818 
L 131.463672 301.934545 
L 130.594561 306.327273 
L 129.725438 310.72 
L 129.716364 310.765862 
L 128.856322 315.112727 
L 127.9872 319.505455 
L 127.118092 323.898182 
L 126.248969 328.290909 
L 126.109091 328.997891 
L 125.379851 332.683636 
L 124.510727 337.076364 
L 123.641612 341.469091 
L 122.772494 345.861818 
L 122.501818 347.229858 
L 121.903367 350.254545 
L 121.034259 354.647273 
L 120.165131 359.04 
L 119.296018 363.432727 
L 118.894545 365.47716 
L 118.434474 367.825455 
L 117.577706 372.218182 
L 116.720934 376.610909 
L 115.86417 381.003636 
L 115.287273 383.961474 
L 115.007412 385.396364 
L 114.150662 389.789091 
L 113.293904 394.181818 
L 112.437143 398.574545 
L 111.68 402.692283 
L 111.628739 402.967273 
L 111.68 403.873356 
L 111.960513 407.36 
L 114.246557 411.752727 
L 115.287273 412.712428 
L 118.894545 416.038838 
L 119.010162 416.145455 
L 122.501818 419.365296 
L 123.77371 420.538182 
L 126.109091 422.691764 
L 128.537285 424.930909 
L 129.716364 426.018204 
L 133.323636 428.345601 
L 136.930909 429.294871 
L 137.066662 429.323636 
L 140.538182 430.059229 
L 144.145455 430.823561 
L 147.752727 431.587912 
L 151.36 432.35224 
L 154.967273 433.116589 
L 157.79788 433.716364 
L 158.574545 433.880931 
L 162.181818 434.64529 
L 165.789091 435.409643 
L 169.396364 436.173972 
L 173.003636 436.938307 
L 176.610909 437.70268 
L 178.529019 438.109091 
L 180.218182 438.46699 
L 183.825455 439.231348 
L 187.432727 439.995679 
L 191.04 440.760026 
L 194.647273 441.523084 
L 198.254545 442.28509 
L 199.290355 442.501818 
L 201.861818 443.039858 
L 205.469091 443.794594 
L 209.076364 444.549329 
L 212.683636 445.304065 
L 216.290909 446.058818 
L 219.898182 446.813535 
L 220.285356 446.894545 
L 223.505455 447.568302 
L 227.112727 448.323093 
L 230.72 449.09144 
L 234.327273 449.873974 
L 237.934545 450.656509 
L 240.842119 451.287273 
L 241.541818 451.439064 
L 245.149091 452.221607 
L 248.756364 453.004149 
L 252.363636 453.786683 
L 255.970909 454.569305 
L 259.578182 455.394698 
L 260.824365 455.68 
L 263.185455 456.22055 
L 266.792727 457.046379 
L 270.4 457.87222 
L 274.007273 458.698038 
L 277.614545 459.52389 
L 280.011865 460.072727 
z
M 262.865936 411.752727 
L 259.578182 411.000047 
L 255.970909 410.199295 
L 252.363636 409.443277 
L 248.756364 408.688549 
L 245.149091 407.933801 
L 242.406618 407.36 
L 241.541818 407.179059 
L 237.934545 406.424317 
L 234.327273 405.66958 
L 230.72 404.914843 
L 227.112727 404.160096 
L 223.505455 403.405352 
L 221.411668 402.967273 
L 219.898182 402.650609 
L 216.290909 401.89587 
L 212.683636 401.141135 
L 209.076364 400.386388 
L 205.469091 399.631642 
L 201.861818 398.876902 
L 200.416708 398.574545 
L 198.254545 398.122164 
L 194.647273 397.367423 
L 191.04 396.612676 
L 187.432727 395.857934 
L 183.825455 395.103185 
L 180.218182 394.348455 
L 179.421737 394.181818 
L 176.610909 393.593718 
L 173.003636 392.83898 
L 169.396364 391.684935 
L 166.636701 389.789091 
L 165.789091 389.00777 
L 162.181818 385.682613 
L 161.871287 385.396364 
L 158.574545 382.357406 
L 157.105917 381.003636 
L 154.967273 379.032252 
L 152.340507 376.610909 
L 151.36 375.707083 
L 148.018864 372.218182 
L 148.741287 367.825455 
L 149.610398 363.432727 
L 150.479524 359.04 
L 151.348636 354.647273 
L 151.36 354.589838 
L 152.217753 350.254545 
L 153.086874 345.861818 
L 153.955996 341.469091 
L 154.825112 337.076364 
L 154.967273 336.357848 
L 155.694227 332.683636 
L 156.563351 328.290909 
L 157.432465 323.898182 
L 158.301581 319.505455 
L 158.574545 318.125843 
L 159.170708 315.112727 
L 160.039821 310.72 
L 160.908941 306.327273 
L 161.778057 301.934545 
L 162.181818 299.893846 
L 162.647177 297.541818 
L 163.516296 293.149091 
L 164.385418 288.756364 
L 165.254533 284.363636 
L 165.789091 281.661849 
L 166.12365 279.970909 
L 166.992769 275.578182 
L 167.861891 271.185455 
L 168.731012 266.792727 
L 169.396364 263.429881 
L 169.600129 262.4 
L 170.469251 258.007273 
L 171.338368 253.614545 
L 172.207485 249.221818 
L 173.003636 245.197892 
L 173.076605 244.829091 
L 173.945729 240.436364 
L 174.814839 236.043636 
L 175.683967 231.650909 
L 176.553085 227.258182 
L 176.610909 226.965926 
L 177.422204 222.865455 
L 179.078102 218.472727 
L 180.218182 217.202772 
L 183.123411 214.08 
L 183.825455 213.325386 
L 187.210115 209.687273 
L 187.432727 209.447991 
L 191.04 205.570607 
L 191.29683 205.294545 
L 194.647273 201.693212 
L 195.383533 200.901818 
L 198.254545 197.815821 
L 199.470244 196.509091 
L 201.861818 193.938433 
L 203.556949 192.116364 
L 205.469091 190.06104 
L 207.64366 187.723636 
L 209.076364 186.183647 
L 211.73037 183.330909 
L 212.683636 182.470753 
L 216.290909 181.963673 
L 219.898182 181.731231 
L 223.505455 181.498786 
L 227.112727 181.26634 
L 230.72 181.0339 
L 234.327273 180.801458 
L 237.934545 180.569014 
L 241.541818 180.33657 
L 245.149091 180.10413 
L 248.756364 179.871689 
L 252.363636 179.639241 
L 255.970909 179.40681 
L 259.578182 179.174356 
L 263.185455 178.941911 
L 263.243324 178.938182 
L 266.792727 178.709471 
L 270.4 178.477031 
L 274.007273 178.244581 
L 277.614545 178.012142 
L 281.221818 177.779694 
L 284.829091 177.547259 
L 288.436364 177.314816 
L 292.043636 177.082364 
L 295.650909 176.849929 
L 299.258182 176.617482 
L 302.865455 176.385046 
L 306.472727 176.152598 
L 310.08 175.920153 
L 313.687273 175.699099 
L 317.294545 175.493308 
L 320.901818 175.287517 
L 324.509091 175.081712 
L 328.116364 174.875912 
L 331.723636 174.670112 
L 333.908681 174.545455 
L 335.330909 174.464316 
L 335.687781 174.545455 
L 338.938182 175.955267 
L 342.484895 178.938182 
L 342.545455 178.989114 
L 346.152727 182.022961 
L 347.70789 183.330909 
L 349.76 185.056808 
L 352.930874 187.723636 
L 353.367273 188.090664 
L 356.974545 191.124513 
L 358.153871 192.116364 
L 360.581818 194.84088 
L 361.509196 196.509091 
L 362.565521 200.901818 
L 362.43685 205.294545 
L 361.929739 209.687273 
L 361.422625 214.08 
L 360.915508 218.472727 
L 360.581818 221.363237 
L 360.408398 222.865455 
L 359.901288 227.258182 
L 359.394179 231.650909 
L 358.887065 236.043636 
L 358.379949 240.436364 
L 357.872838 244.829091 
L 357.365726 249.221818 
L 356.974545 252.610305 
L 356.858612 253.614545 
L 356.351505 258.007273 
L 355.84439 262.4 
L 355.337279 266.792727 
L 354.830164 271.185455 
L 354.327247 275.578182 
L 353.831943 279.970909 
L 353.367273 284.119852 
L 353.33997 284.363636 
L 352.847988 288.756364 
L 352.356005 293.149091 
L 351.864037 297.541818 
L 351.372059 301.934545 
L 350.880086 306.327273 
L 350.401062 310.72 
L 349.932266 315.112727 
L 349.76 316.726872 
L 349.463461 319.505455 
L 348.994671 323.898182 
L 348.525869 328.290909 
L 348.057067 332.683636 
L 347.588269 337.076364 
L 347.119474 341.469091 
L 346.650662 345.861818 
L 346.181862 350.254545 
L 346.152727 350.527549 
L 345.713071 354.647273 
L 344.32807 359.04 
L 342.545455 360.680704 
L 339.548922 363.432727 
L 338.938182 363.992676 
L 335.330909 367.264922 
L 334.712991 367.825455 
L 331.723636 370.537195 
L 329.870549 372.218182 
L 328.116364 373.80945 
L 325.028092 376.610909 
L 324.509091 377.081711 
L 320.901818 380.353978 
L 320.185648 381.003636 
L 317.294545 383.626247 
L 315.343208 385.396364 
L 313.687273 386.898509 
L 310.500759 389.789091 
L 310.08 390.170774 
L 306.472727 393.443042 
L 305.658313 394.181818 
L 302.865455 396.715303 
L 300.815861 398.574545 
L 299.258182 399.987559 
L 295.973426 402.967273 
L 295.650909 403.259838 
L 292.043636 406.532101 
L 291.130978 407.36 
L 288.436364 409.80435 
L 286.288513 411.752727 
L 284.829091 413.076615 
L 281.221818 415.911447 
L 277.614545 415.129212 
L 274.007273 414.303376 
L 270.4 413.477535 
L 266.792727 412.651711 
L 263.185455 411.825876 
z
" style="fill:#f3c8b2;"/>
   </g>
   <g id="PathCollection_7">
    <path clip-path="url(#pae7c5201fe)" d="M 263.185455 411.825876 
L 266.792727 412.651711 
L 270.4 413.477535 
L 274.007273 414.303376 
L 277.614545 415.129212 
L 281.221818 415.911447 
L 284.829091 413.076615 
L 286.288513 411.752727 
L 288.436364 409.80435 
L 291.130978 407.36 
L 292.043636 406.532101 
L 295.650909 403.259838 
L 295.973426 402.967273 
L 299.258182 399.987559 
L 300.815861 398.574545 
L 302.865455 396.715303 
L 305.658313 394.181818 
L 306.472727 393.443042 
L 310.08 390.170774 
L 310.500759 389.789091 
L 313.687273 386.898509 
L 315.343208 385.396364 
L 317.294545 383.626247 
L 320.185648 381.003636 
L 320.901818 380.353978 
L 324.509091 377.081711 
L 325.028092 376.610909 
L 328.116364 373.80945 
L 329.870549 372.218182 
L 331.723636 370.537195 
L 334.712991 367.825455 
L 335.330909 367.264922 
L 338.938182 363.992676 
L 339.548922 363.432727 
L 342.545455 360.680704 
L 344.32807 359.04 
L 345.713071 354.647273 
L 346.152727 350.527549 
L 346.181862 350.254545 
L 346.650662 345.861818 
L 347.119474 341.469091 
L 347.588269 337.076364 
L 348.057067 332.683636 
L 348.525869 328.290909 
L 348.994671 323.898182 
L 349.463461 319.505455 
L 349.76 316.726872 
L 349.932266 315.112727 
L 350.401062 310.72 
L 350.880086 306.327273 
L 351.372059 301.934545 
L 351.864037 297.541818 
L 352.356005 293.149091 
L 352.847988 288.756364 
L 353.33997 284.363636 
L 353.367273 284.119852 
L 353.831943 279.970909 
L 354.327247 275.578182 
L 354.830164 271.185455 
L 355.337279 266.792727 
L 355.84439 262.4 
L 356.351505 258.007273 
L 356.858612 253.614545 
L 356.974545 252.610305 
L 357.365726 249.221818 
L 357.872838 244.829091 
L 358.379949 240.436364 
L 358.887065 236.043636 
L 359.394179 231.650909 
L 359.901288 227.258182 
L 360.408398 222.865455 
L 360.581818 221.363237 
L 360.915508 218.472727 
L 361.422625 214.08 
L 361.929739 209.687273 
L 362.43685 205.294545 
L 362.565521 200.901818 
L 361.509196 196.509091 
L 360.581818 194.84088 
L 358.153871 192.116364 
L 356.974545 191.124513 
L 353.367273 188.090664 
L 352.930874 187.723636 
L 349.76 185.056808 
L 347.70789 183.330909 
L 346.152727 182.022961 
L 342.545455 178.989114 
L 342.484895 178.938182 
L 338.938182 175.955267 
L 335.687781 174.545455 
L 335.330909 174.464316 
L 333.908681 174.545455 
L 331.723636 174.670112 
L 328.116364 174.875912 
L 324.509091 175.081712 
L 320.901818 175.287517 
L 317.294545 175.493308 
L 313.687273 175.699099 
L 310.08 175.920153 
L 306.472727 176.152598 
L 302.865455 176.385046 
L 299.258182 176.617482 
L 295.650909 176.849929 
L 292.043636 177.082364 
L 288.436364 177.314816 
L 284.829091 177.547259 
L 281.221818 177.779694 
L 277.614545 178.012142 
L 274.007273 178.244581 
L 270.4 178.477031 
L 266.792727 178.709471 
L 263.243324 178.938182 
L 263.185455 178.941911 
L 259.578182 179.174356 
L 255.970909 179.40681 
L 252.363636 179.639241 
L 248.756364 179.871689 
L 245.149091 180.10413 
L 241.541818 180.33657 
L 237.934545 180.569014 
L 234.327273 180.801458 
L 230.72 181.0339 
L 227.112727 181.26634 
L 223.505455 181.498786 
L 219.898182 181.731231 
L 216.290909 181.963673 
L 212.683636 182.470753 
L 211.73037 183.330909 
L 209.076364 186.183647 
L 207.64366 187.723636 
L 205.469091 190.06104 
L 203.556949 192.116364 
L 201.861818 193.938433 
L 199.470244 196.509091 
L 198.254545 197.815821 
L 195.383533 200.901818 
L 194.647273 201.693212 
L 191.29683 205.294545 
L 191.04 205.570607 
L 187.432727 209.447991 
L 187.210115 209.687273 
L 183.825455 213.325386 
L 183.123411 214.08 
L 180.218182 217.202772 
L 179.078102 218.472727 
L 177.422204 222.865455 
L 176.610909 226.965926 
L 176.553085 227.258182 
L 175.683967 231.650909 
L 174.814839 236.043636 
L 173.945729 240.436364 
L 173.076605 244.829091 
L 173.003636 245.197892 
L 172.207485 249.221818 
L 171.338368 253.614545 
L 170.469251 258.007273 
L 169.600129 262.4 
L 169.396364 263.429881 
L 168.731012 266.792727 
L 167.861891 271.185455 
L 166.992769 275.578182 
L 166.12365 279.970909 
L 165.789091 281.661849 
L 165.254533 284.363636 
L 164.385418 288.756364 
L 163.516296 293.149091 
L 162.647177 297.541818 
L 162.181818 299.893846 
L 161.778057 301.934545 
L 160.908941 306.327273 
L 160.039821 310.72 
L 159.170708 315.112727 
L 158.574545 318.125843 
L 158.301581 319.505455 
L 157.432465 323.898182 
L 156.563351 328.290909 
L 155.694227 332.683636 
L 154.967273 336.357848 
L 154.825112 337.076364 
L 153.955996 341.469091 
L 153.086874 345.861818 
L 152.217753 350.254545 
L 151.36 354.589838 
L 151.348636 354.647273 
L 150.479524 359.04 
L 149.610398 363.432727 
L 148.741287 367.825455 
L 148.018864 372.218182 
L 151.36 375.707083 
L 152.340507 376.610909 
L 154.967273 379.032252 
L 157.105917 381.003636 
L 158.574545 382.357406 
L 161.871287 385.396364 
L 162.181818 385.682613 
L 165.789091 389.00777 
L 166.636701 389.789091 
L 169.396364 391.684935 
L 173.003636 392.83898 
L 176.610909 393.593718 
L 179.421737 394.181818 
L 180.218182 394.348455 
L 183.825455 395.103185 
L 187.432727 395.857934 
L 191.04 396.612676 
L 194.647273 397.367423 
L 198.254545 398.122164 
L 200.416708 398.574545 
L 201.861818 398.876902 
L 205.469091 399.631642 
L 209.076364 400.386388 
L 212.683636 401.141135 
L 216.290909 401.89587 
L 219.898182 402.650609 
L 221.411668 402.967273 
L 223.505455 403.405352 
L 227.112727 404.160096 
L 230.72 404.914843 
L 234.327273 405.66958 
L 237.934545 406.424317 
L 241.541818 407.179059 
L 242.406618 407.36 
L 245.149091 407.933801 
L 248.756364 408.688549 
L 252.363636 409.443277 
L 255.970909 410.199295 
L 259.578182 411.000047 
L 262.865936 411.752727 
z
M 264.191044 367.825455 
L 263.185455 367.603465 
L 259.578182 366.807138 
L 255.970909 366.035075 
L 252.363636 365.280334 
L 248.756364 364.525593 
L 245.149091 363.770857 
L 243.53301 363.432727 
L 241.541818 363.016114 
L 237.934545 362.261372 
L 234.327273 361.506632 
L 230.72 360.751885 
L 227.112727 359.997145 
L 223.505455 359.242401 
L 222.538076 359.04 
L 219.898182 358.487666 
L 216.290909 357.732923 
L 212.683636 356.978182 
L 209.076364 356.22344 
L 205.469091 354.934583 
L 205.036028 354.647273 
L 201.861818 351.721299 
L 200.270627 350.254545 
L 198.254545 348.39613 
L 195.505218 345.861818 
L 194.647273 345.070968 
L 191.04 341.745801 
L 190.739814 341.469091 
L 187.464087 337.076364 
L 187.432727 336.977679 
L 186.496013 332.683636 
L 186.877737 328.290909 
L 187.432727 325.485855 
L 187.746855 323.898182 
L 188.615974 319.505455 
L 189.485094 315.112727 
L 190.354214 310.72 
L 191.04 307.253885 
L 191.223334 306.327273 
L 192.092451 301.934545 
L 192.96157 297.541818 
L 193.830685 293.149091 
L 194.647273 289.021888 
L 194.699808 288.756364 
L 195.568924 284.363636 
L 196.438045 279.970909 
L 197.307166 275.578182 
L 198.176284 271.185455 
L 198.254545 270.789902 
L 199.045402 266.792727 
L 199.91452 262.4 
L 200.783639 258.007273 
L 201.652756 253.614545 
L 201.861818 252.557902 
L 202.521879 249.221818 
L 203.390996 244.829091 
L 204.859896 240.436364 
L 205.469091 239.639363 
L 208.81432 236.043636 
L 209.076364 235.761971 
L 212.683636 231.884578 
L 212.901027 231.650909 
L 216.290909 228.007191 
L 216.987739 227.258182 
L 219.898182 224.129797 
L 221.074443 222.865455 
L 223.505455 220.27666 
L 227.112727 219.649976 
L 230.72 219.417533 
L 234.327273 219.18509 
L 237.934545 218.952647 
L 241.541818 218.720202 
L 245.149091 218.48776 
L 245.382383 218.472727 
L 248.756364 218.255318 
L 252.363636 218.022875 
L 255.970909 217.79043 
L 259.578182 217.557992 
L 263.185455 217.325545 
L 266.792727 217.093107 
L 270.4 216.860659 
L 274.007273 216.628216 
L 277.614545 216.395775 
L 281.221818 216.16333 
L 284.829091 215.930888 
L 288.436364 215.698446 
L 292.043636 215.465999 
L 295.650909 215.340909 
L 299.258182 215.991054 
L 302.252585 218.472727 
L 302.865455 218.980654 
L 306.472727 221.970228 
L 307.552919 222.865455 
L 310.08 224.959813 
L 312.853248 227.258182 
L 313.687273 227.949393 
L 317.294545 231.377033 
L 317.47729 231.650909 
L 318.765809 236.043636 
L 320.054023 240.436364 
L 320.440316 244.829091 
L 319.978806 249.221818 
L 319.463444 253.614545 
L 318.94808 258.007273 
L 318.432716 262.4 
L 317.917355 266.792727 
L 317.401994 271.185455 
L 317.294545 272.101302 
L 316.886632 275.578182 
L 316.371266 279.970909 
L 315.855906 284.363636 
L 315.340542 288.756364 
L 314.825182 293.149091 
L 314.309823 297.541818 
L 313.794458 301.934545 
L 313.687273 302.848154 
L 313.279099 306.327273 
L 312.771075 310.72 
L 312.277978 315.112727 
L 311.784884 319.505455 
L 311.291787 323.898182 
L 310.798689 328.290909 
L 310.08 329.57579 
L 307.041814 332.683636 
L 306.472727 333.201733 
L 302.865455 336.485792 
L 302.21676 337.076364 
L 299.258182 339.769861 
L 297.391723 341.469091 
L 295.650909 343.053932 
L 292.566675 345.861818 
L 292.043636 346.337992 
L 288.436364 349.622065 
L 287.741636 350.254545 
L 284.829091 352.906124 
L 282.916591 354.647273 
L 281.221818 356.190197 
L 278.091546 359.04 
L 277.614545 359.474262 
L 274.007273 362.758324 
L 273.266495 363.432727 
L 270.4 366.042384 
L 267.889203 367.825455 
L 266.792727 368.399791 
z
" style="fill:#f6a586;"/>
   </g>
   <g id="PathCollection_8">
    <path clip-path="url(#pae7c5201fe)" d="M 266.792727 368.399791 
L 267.889203 367.825455 
L 270.4 366.042384 
L 273.266495 363.432727 
L 274.007273 362.758324 
L 277.614545 359.474262 
L 278.091546 359.04 
L 281.221818 356.190197 
L 282.916591 354.647273 
L 284.829091 352.906124 
L 287.741636 350.254545 
L 288.436364 349.622065 
L 292.043636 346.337992 
L 292.566675 345.861818 
L 295.650909 343.053932 
L 297.391723 341.469091 
L 299.258182 339.769861 
L 302.21676 337.076364 
L 302.865455 336.485792 
L 306.472727 333.201733 
L 307.041814 332.683636 
L 310.08 329.57579 
L 310.798689 328.290909 
L 311.291787 323.898182 
L 311.784884 319.505455 
L 312.277978 315.112727 
L 312.771075 310.72 
L 313.279099 306.327273 
L 313.687273 302.848154 
L 313.794458 301.934545 
L 314.309823 297.541818 
L 314.825182 293.149091 
L 315.340542 288.756364 
L 315.855906 284.363636 
L 316.371266 279.970909 
L 316.886632 275.578182 
L 317.294545 272.101302 
L 317.401994 271.185455 
L 317.917355 266.792727 
L 318.432716 262.4 
L 318.94808 258.007273 
L 319.463444 253.614545 
L 319.978806 249.221818 
L 320.440316 244.829091 
L 320.054023 240.436364 
L 318.765809 236.043636 
L 317.47729 231.650909 
L 317.294545 231.377033 
L 313.687273 227.949393 
L 312.853248 227.258182 
L 310.08 224.959813 
L 307.552919 222.865455 
L 306.472727 221.970228 
L 302.865455 218.980654 
L 302.252585 218.472727 
L 299.258182 215.991054 
L 295.650909 215.340909 
L 292.043636 215.465999 
L 288.436364 215.698446 
L 284.829091 215.930888 
L 281.221818 216.16333 
L 277.614545 216.395775 
L 274.007273 216.628216 
L 270.4 216.860659 
L 266.792727 217.093107 
L 263.185455 217.325545 
L 259.578182 217.557992 
L 255.970909 217.79043 
L 252.363636 218.022875 
L 248.756364 218.255318 
L 245.382383 218.472727 
L 245.149091 218.48776 
L 241.541818 218.720202 
L 237.934545 218.952647 
L 234.327273 219.18509 
L 230.72 219.417533 
L 227.112727 219.649976 
L 223.505455 220.27666 
L 221.074443 222.865455 
L 219.898182 224.129797 
L 216.987739 227.258182 
L 216.290909 228.007191 
L 212.901027 231.650909 
L 212.683636 231.884578 
L 209.076364 235.761971 
L 208.81432 236.043636 
L 205.469091 239.639363 
L 204.859896 240.436364 
L 203.390996 244.829091 
L 202.521879 249.221818 
L 201.861818 252.557902 
L 201.652756 253.614545 
L 200.783639 258.007273 
L 199.91452 262.4 
L 199.045402 266.792727 
L 198.254545 270.789902 
L 198.176284 271.185455 
L 197.307166 275.578182 
L 196.438045 279.970909 
L 195.568924 284.363636 
L 194.699808 288.756364 
L 194.647273 289.021888 
L 193.830685 293.149091 
L 192.96157 297.541818 
L 192.092451 301.934545 
L 191.223334 306.327273 
L 191.04 307.253885 
L 190.354214 310.72 
L 189.485094 315.112727 
L 188.615974 319.505455 
L 187.746855 323.898182 
L 187.432727 325.485855 
L 186.877737 328.290909 
L 186.496013 332.683636 
L 187.432727 336.977679 
L 187.464087 337.076364 
L 190.739814 341.469091 
L 191.04 341.745801 
L 194.647273 345.070968 
L 195.505218 345.861818 
L 198.254545 348.39613 
L 200.270627 350.254545 
L 201.861818 351.721299 
L 205.036028 354.647273 
L 205.469091 354.934583 
L 209.076364 356.22344 
L 212.683636 356.978182 
L 216.290909 357.732923 
L 219.898182 358.487666 
L 222.538076 359.04 
L 223.505455 359.242401 
L 227.112727 359.997145 
L 230.72 360.751885 
L 234.327273 361.506632 
L 237.934545 362.261372 
L 241.541818 363.016114 
L 243.53301 363.432727 
L 245.149091 363.770857 
L 248.756364 364.525593 
L 252.363636 365.280334 
L 255.970909 366.035075 
L 259.578182 366.807138 
L 263.185455 367.603465 
L 264.191044 367.825455 
z
M 244.83987 319.505455 
L 241.541818 317.760017 
L 238.669936 315.112727 
L 237.934545 314.434847 
L 234.327273 311.109678 
L 233.904535 310.72 
L 230.72 307.78451 
L 229.13913 306.327273 
L 227.121998 301.934545 
L 227.112727 301.903025 
L 225.830062 297.541818 
L 224.553882 293.149091 
L 225.014194 288.756364 
L 225.88331 284.363636 
L 226.752431 279.970909 
L 227.112727 278.149887 
L 227.621549 275.578182 
L 228.490669 271.185455 
L 229.359789 266.792727 
L 230.504347 262.4 
L 230.72 262.075948 
L 234.327273 258.198555 
L 234.979468 258.007273 
L 237.934545 257.336277 
L 241.541818 257.103834 
L 245.149091 256.871392 
L 248.756364 256.638949 
L 252.363636 256.406506 
L 255.970909 256.174062 
L 259.578182 256.841145 
L 261.515992 258.007273 
L 263.185455 259.390868 
L 266.792727 262.380454 
L 266.816312 262.4 
L 270.4 265.370041 
L 272.116635 266.792727 
L 274.007273 270.433257 
L 274.249423 271.185455 
L 275.537633 275.578182 
L 276.825846 279.970909 
L 277.614545 282.66033 
L 277.984506 284.363636 
L 277.705865 288.756364 
L 277.614545 289.53473 
L 277.190503 293.149091 
L 276.675141 297.541818 
L 275.105992 301.934545 
L 274.007273 302.94467 
L 270.4 306.229827 
L 270.293 306.327273 
L 266.792727 309.51498 
L 265.469552 310.72 
L 263.185455 312.800135 
L 260.646107 315.112727 
L 259.578182 316.08529 
L 255.970909 319.370446 
L 255.760329 319.505455 
L 252.363636 321.117398 
L 248.756364 320.362656 
L 245.149091 319.607913 
z
" style="fill:#e7745b;"/>
   </g>
   <g id="PathCollection_9">
    <path clip-path="url(#pae7c5201fe)" d="M 245.149091 319.607913 
L 248.756364 320.362656 
L 252.363636 321.117398 
L 255.760329 319.505455 
L 255.970909 319.370446 
L 259.578182 316.08529 
L 260.646107 315.112727 
L 263.185455 312.800135 
L 265.469552 310.72 
L 266.792727 309.51498 
L 270.293 306.327273 
L 270.4 306.229827 
L 274.007273 302.94467 
L 275.105992 301.934545 
L 276.675141 297.541818 
L 277.190503 293.149091 
L 277.614545 289.53473 
L 277.705865 288.756364 
L 277.984506 284.363636 
L 277.614545 282.66033 
L 276.825846 279.970909 
L 275.537633 275.578182 
L 274.249423 271.185455 
L 274.007273 270.433257 
L 272.116635 266.792727 
L 270.4 265.370041 
L 266.816312 262.4 
L 266.792727 262.380454 
L 263.185455 259.390868 
L 261.515992 258.007273 
L 259.578182 256.841145 
L 255.970909 256.174062 
L 252.363636 256.406506 
L 248.756364 256.638949 
L 245.149091 256.871392 
L 241.541818 257.103834 
L 237.934545 257.336277 
L 234.979468 258.007273 
L 234.327273 258.198555 
L 230.72 262.075948 
L 230.504347 262.4 
L 229.359789 266.792727 
L 228.490669 271.185455 
L 227.621549 275.578182 
L 227.112727 278.149887 
L 226.752431 279.970909 
L 225.88331 284.363636 
L 225.014194 288.756364 
L 224.553882 293.149091 
L 225.830062 297.541818 
L 227.112727 301.903025 
L 227.121998 301.934545 
L 229.13913 306.327273 
L 230.72 307.78451 
L 233.904535 310.72 
L 234.327273 311.109678 
L 237.934545 314.434847 
L 238.669936 315.112727 
L 241.541818 317.760017 
L 244.83987 319.505455 
z
" style="fill:#c83836;"/>
   </g>
   <g id="matplotlib.axis_1">
    <g id="xtick_1">
     <g id="line2d_1">
      <defs>
       <path d="M 0 0 
L 0 3.5 
" id="mb712be41aa" style="stroke:#000000;stroke-width:0.8;"/>
      </defs>
      <g>
       <use style="stroke:#000000;stroke-width:0.8;" x="107.712" xlink:href="#mb712be41aa" y="504"/>
      </g>
     </g>
     <g id="text_1">
      <!-- 4 -->
      <defs>
       <path d="M 10.59375 35.5 
L 73.1875 35.5 
L 73.1875 27.203125 
L 10.59375 27.203125 
z
" id="DejaVuSans-2212"/>
       <path d="M 37.796875 64.3125 
L 12.890625 25.390625 
L 37.796875 25.390625 
z
M 35.203125 72.90625 
L 47.609375 72.90625 
L 47.609375 25.390625 
L 58.015625 25.390625 
L 58.015625 17.1875 
L 47.609375 17.1875 
L 47.609375 0 
L 37.796875 0 
L 37.796875 17.1875 
L 4.890625 17.1875 
L 4.890625 26.703125 
z
" id="DejaVuSans-34"/>
      </defs>
      <g transform="translate(100.340906 518.598438)scale(0.1 -0.1)">
       <use xlink:href="#DejaVuSans-2212"/>
       <use x="83.789062" xlink:href="#DejaVuSans-34"/>
      </g>
     </g>
    </g>
    <g id="xtick_2">
     <g id="line2d_2">
      <g>
       <use style="stroke:#000000;stroke-width:0.8;" x="179.136" xlink:href="#mb712be41aa" y="504"/>
      </g>
     </g>
     <g id="text_2">
      <!-- 2 -->
      <defs>
       <path d="M 19.1875 8.296875 
L 53.609375 8.296875 
L 53.609375 0 
L 7.328125 0 
L 7.328125 8.296875 
Q 12.9375 14.109375 22.625 23.890625 
Q 32.328125 33.6875 34.8125 36.53125 
Q 39.546875 41.84375 41.421875 45.53125 
Q 43.3125 49.21875 43.3125 52.78125 
Q 43.3125 58.59375 39.234375 62.25 
Q 35.15625 65.921875 28.609375 65.921875 
Q 23.96875 65.921875 18.8125 64.3125 
Q 13.671875 62.703125 7.8125 59.421875 
L 7.8125 69.390625 
Q 13.765625 71.78125 18.9375 73 
Q 24.125 74.21875 28.421875 74.21875 
Q 39.75 74.21875 46.484375 68.546875 
Q 53.21875 62.890625 53.21875 53.421875 
Q 53.21875 48.921875 51.53125 44.890625 
Q 49.859375 40.875 45.40625 35.40625 
Q 44.1875 33.984375 37.640625 27.21875 
Q 31.109375 20.453125 19.1875 8.296875 
z
" id="DejaVuSans-32"/>
      </defs>
      <g transform="translate(171.764906 518.598438)scale(0.1 -0.1)">
       <use xlink:href="#DejaVuSans-2212"/>
       <use x="83.789062" xlink:href="#DejaVuSans-32"/>
      </g>
     </g>
    </g>
    <g id="xtick_3">
     <g id="line2d_3">
      <g>
       <use style="stroke:#000000;stroke-width:0.8;" x="250.56" xlink:href="#mb712be41aa" y="504"/>
      </g>
     </g>
     <g id="text_3">
      <!-- 0 -->
      <defs>
       <path d="M 31.78125 66.40625 
Q 24.171875 66.40625 20.328125 58.90625 
Q 16.5 51.421875 16.5 36.375 
Q 16.5 21.390625 20.328125 13.890625 
Q 24.171875 6.390625 31.78125 6.390625 
Q 39.453125 6.390625 43.28125 13.890625 
Q 47.125 21.390625 47.125 36.375 
Q 47.125 51.421875 43.28125 58.90625 
Q 39.453125 66.40625 31.78125 66.40625 
z
M 31.78125 74.21875 
Q 44.046875 74.21875 50.515625 64.515625 
Q 56.984375 54.828125 56.984375 36.375 
Q 56.984375 17.96875 50.515625 8.265625 
Q 44.046875 -1.421875 31.78125 -1.421875 
Q 19.53125 -1.421875 13.0625 8.265625 
Q 6.59375 17.96875 6.59375 36.375 
Q 6.59375 54.828125 13.0625 64.515625 
Q 19.53125 74.21875 31.78125 74.21875 
z
" id="DejaVuSans-30"/>
      </defs>
      <g transform="translate(247.37875 518.598438)scale(0.1 -0.1)">
       <use xlink:href="#DejaVuSans-30"/>
      </g>
     </g>
    </g>
    <g id="xtick_4">
     <g id="line2d_4">
      <g>
       <use style="stroke:#000000;stroke-width:0.8;" x="321.984" xlink:href="#mb712be41aa" y="504"/>
      </g>
     </g>
     <g id="text_4">
      <!-- 2 -->
      <g transform="translate(318.80275 518.598438)scale(0.1 -0.1)">
       <use xlink:href="#DejaVuSans-32"/>
      </g>
     </g>
    </g>
    <g id="xtick_5">
     <g id="line2d_5">
      <g>
       <use style="stroke:#000000;stroke-width:0.8;" x="393.408" xlink:href="#mb712be41aa" y="504"/>
      </g>
     </g>
     <g id="text_5">
      <!-- 4 -->
      <g transform="translate(390.22675 518.598438)scale(0.1 -0.1)">
       <use xlink:href="#DejaVuSans-34"/>
      </g>
     </g>
    </g>
   </g>
   <g id="matplotlib.axis_2">
    <g id="ytick_1">
     <g id="line2d_6">
      <defs>
       <path d="M 0 0 
L -3.5 0 
" id="m0f74c39980" style="stroke:#000000;stroke-width:0.8;"/>
      </defs>
      <g>
       <use style="stroke:#000000;stroke-width:0.8;" x="72" xlink:href="#m0f74c39980" y="460.512"/>
      </g>
     </g>
     <g id="text_6">
      <!-- 4 -->
      <g transform="translate(50.257812 464.311219)scale(0.1 -0.1)">
       <use xlink:href="#DejaVuSans-2212"/>
       <use x="83.789062" xlink:href="#DejaVuSans-34"/>
      </g>
     </g>
    </g>
    <g id="ytick_2">
     <g id="line2d_7">
      <g>
       <use style="stroke:#000000;stroke-width:0.8;" x="72" xlink:href="#m0f74c39980" y="373.536"/>
      </g>
     </g>
     <g id="text_7">
      <!-- 2 -->
      <g transform="translate(50.257812 377.335219)scale(0.1 -0.1)">
       <use xlink:href="#DejaVuSans-2212"/>
       <use x="83.789062" xlink:href="#DejaVuSans-32"/>
      </g>
     </g>
    </g>
    <g id="ytick_3">
     <g id="line2d_8">
      <g>
       <use style="stroke:#000000;stroke-width:0.8;" x="72" xlink:href="#m0f74c39980" y="286.56"/>
      </g>
     </g>
     <g id="text_8">
      <!-- 0 -->
      <g transform="translate(58.6375 290.359219)scale(0.1 -0.1)">
       <use xlink:href="#DejaVuSans-30"/>
      </g>
     </g>
    </g>
    <g id="ytick_4">
     <g id="line2d_9">
      <g>
       <use style="stroke:#000000;stroke-width:0.8;" x="72" xlink:href="#m0f74c39980" y="199.584"/>
      </g>
     </g>
     <g id="text_9">
      <!-- 2 -->
      <g transform="translate(58.6375 203.383219)scale(0.1 -0.1)">
       <use xlink:href="#DejaVuSans-32"/>
      </g>
     </g>
    </g>
    <g id="ytick_5">
     <g id="line2d_10">
      <g>
       <use style="stroke:#000000;stroke-width:0.8;" x="72" xlink:href="#m0f74c39980" y="112.608"/>
      </g>
     </g>
     <g id="text_10">
      <!-- 4 -->
      <g transform="translate(58.6375 116.407219)scale(0.1 -0.1)">
       <use xlink:href="#DejaVuSans-34"/>
      </g>
     </g>
    </g>
   </g>
   <g id="patch_3">
    <path d="M 72 504 
L 72 69.12 
" style="fill:none;stroke:#000000;stroke-linecap:square;stroke-linejoin:miter;stroke-width:0.8;"/>
   </g>
   <g id="patch_4">
    <path d="M 429.12 504 
L 429.12 69.12 
" style="fill:none;stroke:#000000;stroke-linecap:square;stroke-linejoin:miter;stroke-width:0.8;"/>
   </g>
   <g id="patch_5">
    <path d="M 72 504 
L 429.12 504 
" style="fill:none;stroke:#000000;stroke-linecap:square;stroke-linejoin:miter;stroke-width:0.8;"/>
   </g>
   <g id="patch_6">
    <path d="M 72 69.12 
L 429.12 69.12 
" style="fill:none;stroke:#000000;stroke-linecap:square;stroke-linejoin:miter;stroke-width:0.8;"/>
   </g>
  </g>
  <g id="axes_2">
   <g id="patch_7">
    <path clip-path="url(#pe2210d1429)" d="M 451.44 504 
L 451.44 455.68 
L 451.44 117.44 
L 451.44 69.12 
L 473.184 69.12 
L 473.184 117.44 
L 473.184 455.68 
L 473.184 504 
z
" style="fill:#ffffff;stroke:#ffffff;stroke-linejoin:miter;stroke-width:0.01;"/>
   </g>
   <g id="QuadMesh_1">
    <path clip-path="url(#pe2210d1429)" d="M 451.44 504 
L 473.184 504 
L 473.184 455.68 
L 451.44 455.68 
L 451.44 504 
" style="fill:#4b64d5;"/>
    <path clip-path="url(#pe2210d1429)" d="M 451.44 455.68 
L 473.184 455.68 
L 473.184 407.36 
L 451.44 407.36 
L 451.44 455.68 
" style="fill:#6f92f3;"/>
    <path clip-path="url(#pe2210d1429)" d="M 451.44 407.36 
L 473.184 407.36 
L 473.184 359.04 
L 451.44 359.04 
L 451.44 407.36 
" style="fill:#97b8ff;"/>
    <path clip-path="url(#pe2210d1429)" d="M 451.44 359.04 
L 473.184 359.04 
L 473.184 310.72 
L 451.44 310.72 
L 451.44 359.04 
" style="fill:#bcd2f7;"/>
    <path clip-path="url(#pe2210d1429)" d="M 451.44 310.72 
L 473.184 310.72 
L 473.184 262.4 
L 451.44 262.4 
L 451.44 310.72 
" style="fill:#dddcdc;"/>
    <path clip-path="url(#pe2210d1429)" d="M 451.44 262.4 
L 473.184 262.4 
L 473.184 214.08 
L 451.44 214.08 
L 451.44 262.4 
" style="fill:#f3c8b2;"/>
    <path clip-path="url(#pe2210d1429)" d="M 451.44 214.08 
L 473.184 214.08 
L 473.184 165.76 
L 451.44 165.76 
L 451.44 214.08 
" style="fill:#f6a586;"/>
    <path clip-path="url(#pe2210d1429)" d="M 451.44 165.76 
L 473.184 165.76 
L 473.184 117.44 
L 451.44 117.44 
L 451.44 165.76 
" style="fill:#e7745b;"/>
    <path clip-path="url(#pe2210d1429)" d="M 451.44 117.44 
L 473.184 117.44 
L 473.184 69.12 
L 451.44 69.12 
L 451.44 117.44 
" style="fill:#c83836;"/>
   </g>
   <g id="matplotlib.axis_3"/>
   <g id="matplotlib.axis_4">
    <g id="ytick_6">
     <g id="line2d_11">
      <defs>
       <path d="M 0 0 
L 3.5 0 
" id="m0d72789b2c" style="stroke:#000000;stroke-width:0.8;"/>
      </defs>
      <g>
       <use style="stroke:#000000;stroke-width:0.8;" x="473.184" xlink:href="#m0d72789b2c" y="504"/>
      </g>
     </g>
     <g id="text_11">
      <!-- 240 -->
      <g transform="translate(480.184 507.799219)scale(0.1 -0.1)">
       <use xlink:href="#DejaVuSans-2212"/>
       <use x="83.789062" xlink:href="#DejaVuSans-32"/>
       <use x="147.412109" xlink:href="#DejaVuSans-34"/>
       <use x="211.035156" xlink:href="#DejaVuSans-30"/>
      </g>
     </g>
    </g>
    <g id="ytick_7">
     <g id="line2d_12">
      <g>
       <use style="stroke:#000000;stroke-width:0.8;" x="473.184" xlink:href="#m0d72789b2c" y="455.68"/>
      </g>
     </g>
     <g id="text_12">
      <!-- 210 -->
      <defs>
       <path d="M 12.40625 8.296875 
L 28.515625 8.296875 
L 28.515625 63.921875 
L 10.984375 60.40625 
L 10.984375 69.390625 
L 28.421875 72.90625 
L 38.28125 72.90625 
L 38.28125 8.296875 
L 54.390625 8.296875 
L 54.390625 0 
L 12.40625 0 
z
" id="DejaVuSans-31"/>
      </defs>
      <g transform="translate(480.184 459.479219)scale(0.1 -0.1)">
       <use xlink:href="#DejaVuSans-2212"/>
       <use x="83.789062" xlink:href="#DejaVuSans-32"/>
       <use x="147.412109" xlink:href="#DejaVuSans-31"/>
       <use x="211.035156" xlink:href="#DejaVuSans-30"/>
      </g>
     </g>
    </g>
    <g id="ytick_8">
     <g id="line2d_13">
      <g>
       <use style="stroke:#000000;stroke-width:0.8;" x="473.184" xlink:href="#m0d72789b2c" y="407.36"/>
      </g>
     </g>
     <g id="text_13">
      <!-- 180 -->
      <defs>
       <path d="M 31.78125 34.625 
Q 24.75 34.625 20.71875 30.859375 
Q 16.703125 27.09375 16.703125 20.515625 
Q 16.703125 13.921875 20.71875 10.15625 
Q 24.75 6.390625 31.78125 6.390625 
Q 38.8125 6.390625 42.859375 10.171875 
Q 46.921875 13.96875 46.921875 20.515625 
Q 46.921875 27.09375 42.890625 30.859375 
Q 38.875 34.625 31.78125 34.625 
z
M 21.921875 38.8125 
Q 15.578125 40.375 12.03125 44.71875 
Q 8.5 49.078125 8.5 55.328125 
Q 8.5 64.0625 14.71875 69.140625 
Q 20.953125 74.21875 31.78125 74.21875 
Q 42.671875 74.21875 48.875 69.140625 
Q 55.078125 64.0625 55.078125 55.328125 
Q 55.078125 49.078125 51.53125 44.71875 
Q 48 40.375 41.703125 38.8125 
Q 48.828125 37.15625 52.796875 32.3125 
Q 56.78125 27.484375 56.78125 20.515625 
Q 56.78125 9.90625 50.3125 4.234375 
Q 43.84375 -1.421875 31.78125 -1.421875 
Q 19.734375 -1.421875 13.25 4.234375 
Q 6.78125 9.90625 6.78125 20.515625 
Q 6.78125 27.484375 10.78125 32.3125 
Q 14.796875 37.15625 21.921875 38.8125 
z
M 18.3125 54.390625 
Q 18.3125 48.734375 21.84375 45.5625 
Q 25.390625 42.390625 31.78125 42.390625 
Q 38.140625 42.390625 41.71875 45.5625 
Q 45.3125 48.734375 45.3125 54.390625 
Q 45.3125 60.0625 41.71875 63.234375 
Q 38.140625 66.40625 31.78125 66.40625 
Q 25.390625 66.40625 21.84375 63.234375 
Q 18.3125 60.0625 18.3125 54.390625 
z
" id="DejaVuSans-38"/>
      </defs>
      <g transform="translate(480.184 411.159219)scale(0.1 -0.1)">
       <use xlink:href="#DejaVuSans-2212"/>
       <use x="83.789062" xlink:href="#DejaVuSans-31"/>
       <use x="147.412109" xlink:href="#DejaVuSans-38"/>
       <use x="211.035156" xlink:href="#DejaVuSans-30"/>
      </g>
     </g>
    </g>
    <g id="ytick_9">
     <g id="line2d_14">
      <g>
       <use style="stroke:#000000;stroke-width:0.8;" x="473.184" xlink:href="#m0d72789b2c" y="359.04"/>
      </g>
     </g>
     <g id="text_14">
      <!-- 150 -->
      <defs>
       <path d="M 10.796875 72.90625 
L 49.515625 72.90625 
L 49.515625 64.59375 
L 19.828125 64.59375 
L 19.828125 46.734375 
Q 21.96875 47.46875 24.109375 47.828125 
Q 26.265625 48.1875 28.421875 48.1875 
Q 40.625 48.1875 47.75 41.5 
Q 54.890625 34.8125 54.890625 23.390625 
Q 54.890625 11.625 47.5625 5.09375 
Q 40.234375 -1.421875 26.90625 -1.421875 
Q 22.3125 -1.421875 17.546875 -0.640625 
Q 12.796875 0.140625 7.71875 1.703125 
L 7.71875 11.625 
Q 12.109375 9.234375 16.796875 8.0625 
Q 21.484375 6.890625 26.703125 6.890625 
Q 35.15625 6.890625 40.078125 11.328125 
Q 45.015625 15.765625 45.015625 23.390625 
Q 45.015625 31 40.078125 35.4375 
Q 35.15625 39.890625 26.703125 39.890625 
Q 22.75 39.890625 18.8125 39.015625 
Q 14.890625 38.140625 10.796875 36.28125 
z
" id="DejaVuSans-35"/>
      </defs>
      <g transform="translate(480.184 362.839219)scale(0.1 -0.1)">
       <use xlink:href="#DejaVuSans-2212"/>
       <use x="83.789062" xlink:href="#DejaVuSans-31"/>
       <use x="147.412109" xlink:href="#DejaVuSans-35"/>
       <use x="211.035156" xlink:href="#DejaVuSans-30"/>
      </g>
     </g>
    </g>
    <g id="ytick_10">
     <g id="line2d_15">
      <g>
       <use style="stroke:#000000;stroke-width:0.8;" x="473.184" xlink:href="#m0d72789b2c" y="310.72"/>
      </g>
     </g>
     <g id="text_15">
      <!-- 120 -->
      <g transform="translate(480.184 314.519219)scale(0.1 -0.1)">
       <use xlink:href="#DejaVuSans-2212"/>
       <use x="83.789062" xlink:href="#DejaVuSans-31"/>
       <use x="147.412109" xlink:href="#DejaVuSans-32"/>
       <use x="211.035156" xlink:href="#DejaVuSans-30"/>
      </g>
     </g>
    </g>
    <g id="ytick_11">
     <g id="line2d_16">
      <g>
       <use style="stroke:#000000;stroke-width:0.8;" x="473.184" xlink:href="#m0d72789b2c" y="262.4"/>
      </g>
     </g>
     <g id="text_16">
      <!-- 90 -->
      <defs>
       <path d="M 10.984375 1.515625 
L 10.984375 10.5 
Q 14.703125 8.734375 18.5 7.8125 
Q 22.3125 6.890625 25.984375 6.890625 
Q 35.75 6.890625 40.890625 13.453125 
Q 46.046875 20.015625 46.78125 33.40625 
Q 43.953125 29.203125 39.59375 26.953125 
Q 35.25 24.703125 29.984375 24.703125 
Q 19.046875 24.703125 12.671875 31.3125 
Q 6.296875 37.9375 6.296875 49.421875 
Q 6.296875 60.640625 12.9375 67.421875 
Q 19.578125 74.21875 30.609375 74.21875 
Q 43.265625 74.21875 49.921875 64.515625 
Q 56.59375 54.828125 56.59375 36.375 
Q 56.59375 19.140625 48.40625 8.859375 
Q 40.234375 -1.421875 26.421875 -1.421875 
Q 22.703125 -1.421875 18.890625 -0.6875 
Q 15.09375 0.046875 10.984375 1.515625 
z
M 30.609375 32.421875 
Q 37.25 32.421875 41.125 36.953125 
Q 45.015625 41.5 45.015625 49.421875 
Q 45.015625 57.28125 41.125 61.84375 
Q 37.25 66.40625 30.609375 66.40625 
Q 23.96875 66.40625 20.09375 61.84375 
Q 16.21875 57.28125 16.21875 49.421875 
Q 16.21875 41.5 20.09375 36.953125 
Q 23.96875 32.421875 30.609375 32.421875 
z
" id="DejaVuSans-39"/>
      </defs>
      <g transform="translate(480.184 266.199219)scale(0.1 -0.1)">
       <use xlink:href="#DejaVuSans-2212"/>
       <use x="83.789062" xlink:href="#DejaVuSans-39"/>
       <use x="147.412109" xlink:href="#DejaVuSans-30"/>
      </g>
     </g>
    </g>
    <g id="ytick_12">
     <g id="line2d_17">
      <g>
       <use style="stroke:#000000;stroke-width:0.8;" x="473.184" xlink:href="#m0d72789b2c" y="214.08"/>
      </g>
     </g>
     <g id="text_17">
      <!-- 60 -->
      <defs>
       <path d="M 33.015625 40.375 
Q 26.375 40.375 22.484375 35.828125 
Q 18.609375 31.296875 18.609375 23.390625 
Q 18.609375 15.53125 22.484375 10.953125 
Q 26.375 6.390625 33.015625 6.390625 
Q 39.65625 6.390625 43.53125 10.953125 
Q 47.40625 15.53125 47.40625 23.390625 
Q 47.40625 31.296875 43.53125 35.828125 
Q 39.65625 40.375 33.015625 40.375 
z
M 52.59375 71.296875 
L 52.59375 62.3125 
Q 48.875 64.0625 45.09375 64.984375 
Q 41.3125 65.921875 37.59375 65.921875 
Q 27.828125 65.921875 22.671875 59.328125 
Q 17.53125 52.734375 16.796875 39.40625 
Q 19.671875 43.65625 24.015625 45.921875 
Q 28.375 48.1875 33.59375 48.1875 
Q 44.578125 48.1875 50.953125 41.515625 
Q 57.328125 34.859375 57.328125 23.390625 
Q 57.328125 12.15625 50.6875 5.359375 
Q 44.046875 -1.421875 33.015625 -1.421875 
Q 20.359375 -1.421875 13.671875 8.265625 
Q 6.984375 17.96875 6.984375 36.375 
Q 6.984375 53.65625 15.1875 63.9375 
Q 23.390625 74.21875 37.203125 74.21875 
Q 40.921875 74.21875 44.703125 73.484375 
Q 48.484375 72.75 52.59375 71.296875 
z
" id="DejaVuSans-36"/>
      </defs>
      <g transform="translate(480.184 217.879219)scale(0.1 -0.1)">
       <use xlink:href="#DejaVuSans-2212"/>
       <use x="83.789062" xlink:href="#DejaVuSans-36"/>
       <use x="147.412109" xlink:href="#DejaVuSans-30"/>
      </g>
     </g>
    </g>
    <g id="ytick_13">
     <g id="line2d_18">
      <g>
       <use style="stroke:#000000;stroke-width:0.8;" x="473.184" xlink:href="#m0d72789b2c" y="165.76"/>
      </g>
     </g>
     <g id="text_18">
      <!-- 30 -->
      <defs>
       <path d="M 40.578125 39.3125 
Q 47.65625 37.796875 51.625 33 
Q 55.609375 28.21875 55.609375 21.1875 
Q 55.609375 10.40625 48.1875 4.484375 
Q 40.765625 -1.421875 27.09375 -1.421875 
Q 22.515625 -1.421875 17.65625 -0.515625 
Q 12.796875 0.390625 7.625 2.203125 
L 7.625 11.71875 
Q 11.71875 9.328125 16.59375 8.109375 
Q 21.484375 6.890625 26.8125 6.890625 
Q 36.078125 6.890625 40.9375 10.546875 
Q 45.796875 14.203125 45.796875 21.1875 
Q 45.796875 27.640625 41.28125 31.265625 
Q 36.765625 34.90625 28.71875 34.90625 
L 20.21875 34.90625 
L 20.21875 43.015625 
L 29.109375 43.015625 
Q 36.375 43.015625 40.234375 45.921875 
Q 44.09375 48.828125 44.09375 54.296875 
Q 44.09375 59.90625 40.109375 62.90625 
Q 36.140625 65.921875 28.71875 65.921875 
Q 24.65625 65.921875 20.015625 65.03125 
Q 15.375 64.15625 9.8125 62.3125 
L 9.8125 71.09375 
Q 15.4375 72.65625 20.34375 73.4375 
Q 25.25 74.21875 29.59375 74.21875 
Q 40.828125 74.21875 47.359375 69.109375 
Q 53.90625 64.015625 53.90625 55.328125 
Q 53.90625 49.265625 50.4375 45.09375 
Q 46.96875 40.921875 40.578125 39.3125 
z
" id="DejaVuSans-33"/>
      </defs>
      <g transform="translate(480.184 169.559219)scale(0.1 -0.1)">
       <use xlink:href="#DejaVuSans-2212"/>
       <use x="83.789062" xlink:href="#DejaVuSans-33"/>
       <use x="147.412109" xlink:href="#DejaVuSans-30"/>
      </g>
     </g>
    </g>
    <g id="ytick_14">
     <g id="line2d_19">
      <g>
       <use style="stroke:#000000;stroke-width:0.8;" x="473.184" xlink:href="#m0d72789b2c" y="117.44"/>
      </g>
     </g>
     <g id="text_19">
      <!-- 0 -->
      <g transform="translate(480.184 121.239219)scale(0.1 -0.1)">
       <use xlink:href="#DejaVuSans-30"/>
      </g>
     </g>
    </g>
    <g id="ytick_15">
     <g id="line2d_20">
      <g>
       <use style="stroke:#000000;stroke-width:0.8;" x="473.184" xlink:href="#m0d72789b2c" y="69.12"/>
      </g>
     </g>
     <g id="text_20">
      <!-- 30 -->
      <g transform="translate(480.184 72.919219)scale(0.1 -0.1)">
       <use xlink:href="#DejaVuSans-33"/>
       <use x="63.623047" xlink:href="#DejaVuSans-30"/>
      </g>
     </g>
    </g>
   </g>
   <g id="patch_8">
    <path d="M 451.44 504 
L 451.44 455.68 
L 451.44 117.44 
L 451.44 69.12 
L 473.184 69.12 
L 473.184 117.44 
L 473.184 455.68 
L 473.184 504 
z
" style="fill:none;stroke:#000000;stroke-linejoin:miter;stroke-width:0.8;"/>
   </g>
  </g>
 </g>
 <defs>
  <clipPath id="pae7c5201fe">
   <rect height="434.88" width="357.12" x="72" y="69.12"/>
  </clipPath>
  <clipPath id="pe2210d1429">
   <rect height="434.88" width="21.744" x="451.44" y="69.12"/>
  </clipPath>
 </defs>
</svg>
