<?xml version="1.0" encoding="utf-8" standalone="no"?>
<!DOCTYPE svg PUBLIC "-//W3C//DTD SVG 1.1//EN"
  "http://www.w3.org/Graphics/SVG/1.1/DTD/svg11.dtd">
<!-- Created with matplotlib (http://matplotlib.org/) -->
<svg height="576pt" version="1.1" viewBox="0 0 576 576" width="576pt" xmlns="http://www.w3.org/2000/svg" xmlns:xlink="http://www.w3.org/1999/xlink">
 <defs>
  <style type="text/css">
*{stroke-linecap:butt;stroke-linejoin:round;}
  </style>
 </defs>
 <g id="figure_1">
  <g id="patch_1">
   <path d="M 0 576 
L 576 576 
L 576 0 
L 0 0 
z
" style="fill:#ffffff;"/>
  </g>
  <g id="axes_1">
   <g id="patch_2">
    <path d="M 72 504 
L 429.12 504 
L 429.12 69.12 
L 72 69.12 
z
" style="fill:#ffffff;"/>
   </g>
   <g id="PathCollection_1">
    <path clip-path="url(#pb27a10436d)" d="M 72.547439 86.690909 
L 75.607273 83.409199 
L 76.643174 82.298182 
L 79.214545 79.540379 
L 80.738946 77.905455 
L 82.821818 75.671548 
L 84.834662 73.512727 
L 86.429091 71.802695 
L 88.930428 69.12 
L 86.429091 69.12 
L 82.821818 69.12 
L 79.214545 69.12 
L 75.607273 69.12 
L 72 69.12 
L 72 73.512727 
L 72 77.905455 
L 72 82.298182 
L 72 86.690909 
L 72 87.278034 
z
" style="fill:#4b64d5;"/>
   </g>
   <g id="PathCollection_2">
    <path clip-path="url(#pb27a10436d)" d="M 403.869091 504 
L 407.476364 504 
L 411.083636 504 
L 414.690909 504 
L 418.298182 504 
L 421.905455 504 
L 425.512727 504 
L 429.12 504 
L 429.12 499.607273 
L 429.12 495.214545 
L 429.12 490.821818 
L 429.12 486.429091 
L 429.12 482.036364 
L 429.12 480.529989 
L 427.354559 482.036364 
L 425.512727 483.607911 
L 422.206387 486.429091 
L 421.905455 486.685866 
L 418.298182 489.763781 
L 417.058185 490.821818 
L 414.690909 492.841697 
L 411.909939 495.214545 
L 411.083636 495.919597 
L 407.476364 498.997488 
L 406.761715 499.607273 
L 403.869091 502.075448 
L 401.613548 504 
z
" style="fill:#6f92f3;"/>
    <path clip-path="url(#pb27a10436d)" d="M 72.506992 143.796364 
L 73.44407 139.403636 
L 74.560388 135.010909 
L 75.607273 133.442304 
L 78.240489 130.618182 
L 79.214545 129.573503 
L 82.336243 126.225455 
L 82.821818 125.704673 
L 86.429091 121.835819 
L 86.431974 121.832727 
L 90.036364 117.967006 
L 90.527745 117.44 
L 93.643636 114.098168 
L 94.623481 113.047273 
L 97.250909 110.229336 
L 98.71922 108.654545 
L 100.858182 106.360509 
L 102.815014 104.261818 
L 104.465455 102.491699 
L 106.910735 99.869091 
L 108.072727 98.622849 
L 111.006473 95.476364 
L 111.68 94.753999 
L 115.10225 91.083636 
L 115.287273 90.8852 
L 118.894545 87.016364 
L 119.198 86.690909 
L 122.501818 83.147552 
L 123.293765 82.298182 
L 126.109091 79.278707 
L 127.389509 77.905455 
L 129.716364 75.409874 
L 131.485245 73.512727 
L 133.323636 71.541064 
L 135.581007 69.12 
L 133.323636 69.12 
L 129.716364 69.12 
L 126.109091 69.12 
L 122.501818 69.12 
L 118.894545 69.12 
L 115.287273 69.12 
L 111.68 69.12 
L 108.072727 69.12 
L 104.465455 69.12 
L 100.858182 69.12 
L 97.250909 69.12 
L 93.643636 69.12 
L 90.036364 69.12 
L 88.930428 69.12 
L 86.429091 71.802695 
L 84.834662 73.512727 
L 82.821818 75.671548 
L 80.738946 77.905455 
L 79.214545 79.540379 
L 76.643174 82.298182 
L 75.607273 83.409199 
L 72.547439 86.690909 
L 72 87.278034 
L 72 91.083636 
L 72 95.476364 
L 72 99.869091 
L 72 104.261818 
L 72 108.654545 
L 72 113.047273 
L 72 117.44 
L 72 121.832727 
L 72 126.225455 
L 72 130.618182 
L 72 135.010909 
L 72 139.403636 
L 72 143.796364 
L 72 146.172981 
z
" style="fill:#6f92f3;"/>
   </g>
   <g id="PathCollection_3">
    <path clip-path="url(#pb27a10436d)" d="M 75.607273 504 
L 79.214545 504 
L 82.821818 504 
L 86.429091 504 
L 90.036364 504 
L 93.643636 504 
L 97.250909 504 
L 100.858182 504 
L 104.465455 504 
L 108.072727 504 
L 111.68 504 
L 115.287273 504 
L 118.894545 504 
L 122.501818 504 
L 126.109091 504 
L 129.716364 504 
L 133.323636 504 
L 135.725659 504 
L 133.323636 501.845881 
L 130.827419 499.607273 
L 129.716364 498.610878 
L 126.109091 495.375856 
L 125.92922 495.214545 
L 122.501818 492.140882 
L 121.030957 490.821818 
L 118.894545 488.905881 
L 116.132742 486.429091 
L 115.287273 485.670869 
L 111.68 482.435886 
L 111.2345 482.036364 
L 108.072727 479.200872 
L 106.336312 477.643636 
L 104.465455 475.965848 
L 101.438077 473.250909 
L 100.858182 472.730859 
L 97.250909 469.495853 
L 96.539853 468.858182 
L 93.643636 466.260867 
L 91.641605 464.465455 
L 90.036364 462.895226 
L 88.578155 460.072727 
L 87.887072 455.68 
L 87.19597 451.287273 
L 86.504897 446.894545 
L 86.429091 446.412709 
L 85.813798 442.501818 
L 85.122702 438.109091 
L 84.431616 433.716364 
L 83.740514 429.323636 
L 83.049425 424.930909 
L 82.821818 423.484192 
L 82.358338 420.538182 
L 81.667265 416.145455 
L 80.976155 411.752727 
L 80.28507 407.36 
L 79.593987 402.967273 
L 79.214545 400.555448 
L 78.902898 398.574545 
L 78.211808 394.181818 
L 77.520707 389.789091 
L 76.829617 385.396364 
L 76.138529 381.003636 
L 75.607273 377.626862 
L 75.447438 376.610909 
L 74.756341 372.218182 
L 74.065251 367.825455 
L 73.374171 363.432727 
L 72.683053 359.04 
L 72 354.69812 
L 72 359.04 
L 72 363.432727 
L 72 367.825455 
L 72 372.218182 
L 72 376.610909 
L 72 381.003636 
L 72 385.396364 
L 72 389.789091 
L 72 394.181818 
L 72 398.574545 
L 72 402.967273 
L 72 407.36 
L 72 411.752727 
L 72 416.145455 
L 72 420.538182 
L 72 424.930909 
L 72 429.323636 
L 72 433.716364 
L 72 438.109091 
L 72 442.501818 
L 72 446.894545 
L 72 451.287273 
L 72 455.68 
L 72 460.072727 
L 72 464.465455 
L 72 468.858182 
L 72 473.250909 
L 72 477.643636 
L 72 482.036364 
L 72 486.429091 
L 72 490.821818 
L 72 495.214545 
L 72 499.607273 
L 72 504 
z
" style="fill:#97b8ff;"/>
    <path clip-path="url(#pb27a10436d)" d="M 342.545455 504 
L 346.152727 504 
L 349.76 504 
L 353.367273 504 
L 356.974545 504 
L 360.581818 504 
L 364.189091 504 
L 367.796364 504 
L 371.403636 504 
L 375.010909 504 
L 378.618182 504 
L 382.225455 504 
L 385.832727 504 
L 389.44 504 
L 393.047273 504 
L 396.654545 504 
L 400.261818 504 
L 401.613548 504 
L 403.869091 502.075448 
L 406.761715 499.607273 
L 407.476364 498.997488 
L 411.083636 495.919597 
L 411.909939 495.214545 
L 414.690909 492.841697 
L 417.058185 490.821818 
L 418.298182 489.763781 
L 421.905455 486.685866 
L 422.206387 486.429091 
L 425.512727 483.607911 
L 427.354559 482.036364 
L 429.12 480.529989 
L 429.12 477.643636 
L 429.12 473.250909 
L 429.12 468.858182 
L 429.12 464.465455 
L 429.12 460.072727 
L 429.12 455.68 
L 429.12 451.287273 
L 429.12 446.894545 
L 429.12 442.501818 
L 429.12 438.109091 
L 429.12 433.716364 
L 429.12 429.323636 
L 429.12 427.841947 
L 427.611877 429.323636 
L 425.512727 431.114745 
L 422.463673 433.716364 
L 421.905455 434.19267 
L 418.298182 437.270583 
L 417.315468 438.109091 
L 414.690909 440.348517 
L 412.167304 442.501818 
L 411.083636 443.426468 
L 407.476364 446.504349 
L 407.019059 446.894545 
L 403.869091 449.582294 
L 401.870876 451.287273 
L 400.261818 452.660196 
L 396.722674 455.68 
L 396.654545 455.738131 
L 393.047273 458.816046 
L 391.57446 460.072727 
L 389.44 461.893977 
L 386.426253 464.465455 
L 385.832727 464.971876 
L 382.225455 468.049794 
L 381.278037 468.858182 
L 378.618182 471.127736 
L 376.129864 473.250909 
L 375.010909 474.205656 
L 371.403636 477.283556 
L 370.981629 477.643636 
L 367.796364 480.361502 
L 365.833458 482.036364 
L 364.189091 483.439424 
L 360.685244 486.429091 
L 360.581818 486.517339 
L 356.974545 489.595268 
L 355.537062 490.821818 
L 353.367273 492.673192 
L 350.388834 495.214545 
L 349.76 495.751106 
L 346.152727 498.829038 
L 345.240647 499.607273 
L 342.545455 501.906943 
L 340.092442 504 
z
" style="fill:#97b8ff;"/>
    <path clip-path="url(#pb27a10436d)" d="M 72.637732 288.756364 
L 73.574815 284.363636 
L 74.511891 279.970909 
L 75.448949 275.578182 
L 75.607273 274.836019 
L 76.386042 271.185455 
L 77.323105 266.792727 
L 78.260189 262.4 
L 79.197262 258.007273 
L 79.214545 257.926252 
L 80.134334 253.614545 
L 81.071407 249.221818 
L 82.008485 244.829091 
L 82.821818 241.016344 
L 82.945541 240.436364 
L 83.882625 236.043636 
L 84.819703 231.650909 
L 85.75677 227.258182 
L 86.429091 224.106494 
L 86.693831 222.865455 
L 87.630915 218.472727 
L 88.567992 214.08 
L 89.50506 209.687273 
L 90.036364 207.196674 
L 90.442134 205.294545 
L 91.379205 200.901818 
L 92.316281 196.509091 
L 93.253373 192.116364 
L 93.643636 190.286903 
L 94.190435 187.723636 
L 95.127496 183.330909 
L 96.064588 178.938182 
L 97.001642 174.545455 
L 97.250909 173.37697 
L 97.938725 170.152727 
L 98.875796 165.76 
L 99.812887 161.367273 
L 100.749954 156.974545 
L 100.858182 156.78239 
L 104.412298 152.581818 
L 104.465455 152.524808 
L 108.072727 148.655973 
L 108.508047 148.189091 
L 111.68 144.787143 
L 112.603796 143.796364 
L 115.287273 140.918311 
L 116.699559 139.403636 
L 118.894545 137.049506 
L 120.795311 135.010909 
L 122.501818 133.180657 
L 124.891066 130.618182 
L 126.109091 129.31184 
L 128.986805 126.225455 
L 129.716364 125.443 
L 133.082574 121.832727 
L 133.323636 121.574184 
L 136.930909 117.705354 
L 137.178322 117.44 
L 140.538182 113.836518 
L 141.274072 113.047273 
L 144.145455 109.967689 
L 145.369821 108.654545 
L 147.752727 106.098857 
L 149.46557 104.261818 
L 151.36 102.230016 
L 153.561322 99.869091 
L 154.967273 98.361192 
L 157.657045 95.476364 
L 158.574545 94.492349 
L 161.752802 91.083636 
L 162.181818 90.623512 
L 165.789091 86.754714 
L 165.848582 86.690909 
L 169.396364 82.885868 
L 169.944316 82.298182 
L 173.003636 79.017049 
L 176.610909 78.007016 
L 177.192986 77.905455 
L 180.218182 77.377606 
L 183.825455 76.74818 
L 187.432727 76.118782 
L 191.04 75.489378 
L 194.647273 74.859978 
L 198.254545 74.230558 
L 201.861818 73.601163 
L 202.368662 73.512727 
L 205.469091 72.971757 
L 209.076364 72.342351 
L 212.683636 71.712946 
L 216.290909 71.083532 
L 219.898182 70.454149 
L 223.505455 69.824744 
L 227.112727 69.195338 
L 227.544508 69.12 
L 227.112727 69.12 
L 223.505455 69.12 
L 219.898182 69.12 
L 216.290909 69.12 
L 212.683636 69.12 
L 209.076364 69.12 
L 205.469091 69.12 
L 201.861818 69.12 
L 198.254545 69.12 
L 194.647273 69.12 
L 191.04 69.12 
L 187.432727 69.12 
L 183.825455 69.12 
L 180.218182 69.12 
L 176.610909 69.12 
L 173.003636 69.12 
L 169.396364 69.12 
L 165.789091 69.12 
L 162.181818 69.12 
L 158.574545 69.12 
L 154.967273 69.12 
L 151.36 69.12 
L 147.752727 69.12 
L 144.145455 69.12 
L 140.538182 69.12 
L 136.930909 69.12 
L 135.581007 69.12 
L 133.323636 71.541064 
L 131.485245 73.512727 
L 129.716364 75.409874 
L 127.389509 77.905455 
L 126.109091 79.278707 
L 123.293765 82.298182 
L 122.501818 83.147552 
L 119.198 86.690909 
L 118.894545 87.016364 
L 115.287273 90.8852 
L 115.10225 91.083636 
L 111.68 94.753999 
L 111.006473 95.476364 
L 108.072727 98.622849 
L 106.910735 99.869091 
L 104.465455 102.491699 
L 102.815014 104.261818 
L 100.858182 106.360509 
L 98.71922 108.654545 
L 97.250909 110.229336 
L 94.623481 113.047273 
L 93.643636 114.098168 
L 90.527745 117.44 
L 90.036364 117.967006 
L 86.431974 121.832727 
L 86.429091 121.835819 
L 82.821818 125.704673 
L 82.336243 126.225455 
L 79.214545 129.573503 
L 78.240489 130.618182 
L 75.607273 133.442304 
L 74.560388 135.010909 
L 73.44407 139.403636 
L 72.506992 143.796364 
L 72 146.172981 
L 72 148.189091 
L 72 152.581818 
L 72 156.974545 
L 72 161.367273 
L 72 165.76 
L 72 170.152727 
L 72 174.545455 
L 72 178.938182 
L 72 183.330909 
L 72 187.723636 
L 72 192.116364 
L 72 196.509091 
L 72 200.901818 
L 72 205.294545 
L 72 209.687273 
L 72 214.08 
L 72 218.472727 
L 72 222.865455 
L 72 227.258182 
L 72 231.650909 
L 72 236.043636 
L 72 240.436364 
L 72 244.829091 
L 72 249.221818 
L 72 253.614545 
L 72 258.007273 
L 72 262.4 
L 72 266.792727 
L 72 271.185455 
L 72 275.578182 
L 72 279.970909 
L 72 284.363636 
L 72 288.756364 
L 72 291.745897 
z
" style="fill:#97b8ff;"/>
    <path clip-path="url(#pb27a10436d)" d="M 429.12 113.40649 
L 429.12 113.047273 
L 429.12 108.654545 
L 429.12 104.261818 
L 429.12 99.869091 
L 429.12 95.476364 
L 429.12 91.083636 
L 429.12 86.690909 
L 429.12 82.298182 
L 429.12 77.905455 
L 429.12 73.512727 
L 429.12 69.12 
L 425.512727 69.12 
L 421.905455 69.12 
L 419.125029 69.12 
L 420.116407 73.512727 
L 421.107785 77.905455 
L 421.905455 81.439793 
L 422.099185 82.298182 
L 423.090591 86.690909 
L 424.081983 91.083636 
L 425.073368 95.476364 
L 425.512727 97.423073 
L 426.06477 99.869091 
L 427.056149 104.261818 
L 428.047539 108.654545 
L 429.038929 113.047273 
z
" style="fill:#97b8ff;"/>
   </g>
   <g id="PathCollection_4">
    <path clip-path="url(#pb27a10436d)" d="M 133.323636 501.845881 
L 135.725659 504 
L 136.930909 504 
L 140.538182 504 
L 144.145455 504 
L 147.752727 504 
L 151.36 504 
L 154.967273 504 
L 158.574545 504 
L 162.181818 504 
L 165.789091 504 
L 169.396364 504 
L 173.003636 504 
L 176.610909 504 
L 180.218182 504 
L 183.825455 504 
L 187.432727 504 
L 191.04 504 
L 194.647273 504 
L 198.254545 504 
L 201.861818 504 
L 205.469091 504 
L 209.076364 504 
L 212.683636 504 
L 216.290909 504 
L 219.898182 504 
L 223.505455 504 
L 227.112727 504 
L 230.72 504 
L 234.327273 504 
L 237.934545 504 
L 241.541818 504 
L 245.149091 504 
L 248.756364 504 
L 252.363636 504 
L 255.970909 504 
L 259.578182 504 
L 263.185455 504 
L 266.792727 504 
L 270.4 504 
L 274.007273 504 
L 277.614545 504 
L 281.221818 504 
L 284.829091 504 
L 288.436364 504 
L 292.043636 504 
L 295.650909 504 
L 299.258182 504 
L 302.865455 504 
L 306.472727 504 
L 310.08 504 
L 313.687273 504 
L 317.294545 504 
L 320.901818 504 
L 324.509091 504 
L 328.116364 504 
L 331.723636 504 
L 335.330909 504 
L 338.938182 504 
L 340.092442 504 
L 342.545455 501.906943 
L 345.240647 499.607273 
L 346.152727 498.829038 
L 349.76 495.751106 
L 350.388834 495.214545 
L 353.367273 492.673192 
L 355.537062 490.821818 
L 356.974545 489.595268 
L 360.581818 486.517339 
L 360.685244 486.429091 
L 364.189091 483.439424 
L 365.833458 482.036364 
L 367.796364 480.361502 
L 370.981629 477.643636 
L 371.403636 477.283556 
L 375.010909 474.205656 
L 376.129864 473.250909 
L 378.618182 471.127736 
L 381.278037 468.858182 
L 382.225455 468.049794 
L 385.832727 464.971876 
L 386.426253 464.465455 
L 389.44 461.893977 
L 391.57446 460.072727 
L 393.047273 458.816046 
L 396.654545 455.738131 
L 396.722674 455.68 
L 400.261818 452.660196 
L 401.870876 451.287273 
L 403.869091 449.582294 
L 407.019059 446.894545 
L 407.476364 446.504349 
L 411.083636 443.426468 
L 412.167304 442.501818 
L 414.690909 440.348517 
L 417.315468 438.109091 
L 418.298182 437.270583 
L 421.905455 434.19267 
L 422.463673 433.716364 
L 425.512727 431.114745 
L 427.611877 429.323636 
L 429.12 427.841947 
L 429.12 424.930909 
L 429.12 420.538182 
L 429.12 416.145455 
L 429.12 411.752727 
L 429.12 407.36 
L 429.12 402.967273 
L 429.12 398.574545 
L 429.12 394.181818 
L 429.12 389.789091 
L 429.12 385.396364 
L 429.12 381.003636 
L 429.12 376.610909 
L 429.12 372.218182 
L 429.12 367.825455 
L 429.12 363.432727 
L 429.12 359.04 
L 429.12 354.647273 
L 429.12 350.254545 
L 429.12 345.861818 
L 429.12 341.469091 
L 429.12 337.076364 
L 429.12 332.683636 
L 429.12 328.290909 
L 429.12 323.898182 
L 429.12 319.505455 
L 429.12 315.112727 
L 429.12 310.72 
L 429.12 306.327273 
L 429.12 301.934545 
L 429.12 297.541818 
L 429.12 293.149091 
L 429.12 288.756364 
L 429.12 284.363636 
L 429.12 279.970909 
L 429.12 275.578182 
L 429.12 271.185455 
L 429.12 266.792727 
L 429.12 262.4 
L 429.12 258.007273 
L 429.12 253.614545 
L 429.12 249.221818 
L 429.12 244.829091 
L 429.12 240.436364 
L 429.12 236.043636 
L 429.12 231.650909 
L 429.12 227.258182 
L 429.12 222.865455 
L 429.12 218.472727 
L 429.12 214.08 
L 429.12 209.687273 
L 429.12 205.294545 
L 429.12 200.901818 
L 429.12 196.509091 
L 429.12 192.116364 
L 429.12 187.723636 
L 429.12 183.330909 
L 429.12 178.938182 
L 429.12 174.545455 
L 429.12 170.152727 
L 429.12 165.76 
L 429.12 161.367273 
L 429.12 156.974545 
L 429.12 152.581818 
L 429.12 148.189091 
L 429.12 143.796364 
L 429.12 139.403636 
L 429.12 135.010909 
L 429.12 130.618182 
L 429.12 126.225455 
L 429.12 121.832727 
L 429.12 117.44 
L 429.12 113.40649 
L 429.038929 113.047273 
L 428.047539 108.654545 
L 427.056149 104.261818 
L 426.06477 99.869091 
L 425.512727 97.423073 
L 425.073368 95.476364 
L 424.081983 91.083636 
L 423.090591 86.690909 
L 422.099185 82.298182 
L 421.905455 81.439793 
L 421.107785 77.905455 
L 420.116407 73.512727 
L 419.125029 69.12 
L 418.298182 69.12 
L 414.690909 69.12 
L 411.083636 69.12 
L 407.476364 69.12 
L 403.869091 69.12 
L 400.261818 69.12 
L 396.654545 69.12 
L 393.047273 69.12 
L 389.44 69.12 
L 385.832727 69.12 
L 382.225455 69.12 
L 378.618182 69.12 
L 375.010909 69.12 
L 371.403636 69.12 
L 367.796364 69.12 
L 364.189091 69.12 
L 360.581818 69.12 
L 356.974545 69.12 
L 353.367273 69.12 
L 349.76 69.12 
L 346.152727 69.12 
L 342.545455 69.12 
L 338.938182 69.12 
L 335.330909 69.12 
L 331.723636 69.12 
L 328.116364 69.12 
L 324.509091 69.12 
L 320.901818 69.12 
L 317.294545 69.12 
L 313.687273 69.12 
L 310.08 69.12 
L 306.472727 69.12 
L 302.865455 69.12 
L 299.258182 69.12 
L 295.650909 69.12 
L 292.043636 69.12 
L 288.436364 69.12 
L 284.829091 69.12 
L 281.221818 69.12 
L 277.614545 69.12 
L 274.007273 69.12 
L 270.4 69.12 
L 266.792727 69.12 
L 263.185455 69.12 
L 259.578182 69.12 
L 255.970909 69.12 
L 252.363636 69.12 
L 248.756364 69.12 
L 245.149091 69.12 
L 241.541818 69.12 
L 237.934545 69.12 
L 234.327273 69.12 
L 230.72 69.12 
L 227.544508 69.12 
L 227.112727 69.195338 
L 223.505455 69.824744 
L 219.898182 70.454149 
L 216.290909 71.083532 
L 212.683636 71.712946 
L 209.076364 72.342351 
L 205.469091 72.971757 
L 202.368662 73.512727 
L 201.861818 73.601163 
L 198.254545 74.230558 
L 194.647273 74.859978 
L 191.04 75.489378 
L 187.432727 76.118782 
L 183.825455 76.74818 
L 180.218182 77.377606 
L 177.192986 77.905455 
L 176.610909 78.007016 
L 173.003636 79.017049 
L 169.944316 82.298182 
L 169.396364 82.885868 
L 165.848582 86.690909 
L 165.789091 86.754714 
L 162.181818 90.623512 
L 161.752802 91.083636 
L 158.574545 94.492349 
L 157.657045 95.476364 
L 154.967273 98.361192 
L 153.561322 99.869091 
L 151.36 102.230016 
L 149.46557 104.261818 
L 147.752727 106.098857 
L 145.369821 108.654545 
L 144.145455 109.967689 
L 141.274072 113.047273 
L 140.538182 113.836518 
L 137.178322 117.44 
L 136.930909 117.705354 
L 133.323636 121.574184 
L 133.082574 121.832727 
L 129.716364 125.443 
L 128.986805 126.225455 
L 126.109091 129.31184 
L 124.891066 130.618182 
L 122.501818 133.180657 
L 120.795311 135.010909 
L 118.894545 137.049506 
L 116.699559 139.403636 
L 115.287273 140.918311 
L 112.603796 143.796364 
L 111.68 144.787143 
L 108.508047 148.189091 
L 108.072727 148.655973 
L 104.465455 152.524808 
L 104.412298 152.581818 
L 100.858182 156.78239 
L 100.749954 156.974545 
L 99.812887 161.367273 
L 98.875796 165.76 
L 97.938725 170.152727 
L 97.250909 173.37697 
L 97.001642 174.545455 
L 96.064588 178.938182 
L 95.127496 183.330909 
L 94.190435 187.723636 
L 93.643636 190.286903 
L 93.253373 192.116364 
L 92.316281 196.509091 
L 91.379205 200.901818 
L 90.442134 205.294545 
L 90.036364 207.196674 
L 89.50506 209.687273 
L 88.567992 214.08 
L 87.630915 218.472727 
L 86.693831 222.865455 
L 86.429091 224.106494 
L 85.75677 227.258182 
L 84.819703 231.650909 
L 83.882625 236.043636 
L 82.945541 240.436364 
L 82.821818 241.016344 
L 82.008485 244.829091 
L 81.071407 249.221818 
L 80.134334 253.614545 
L 79.214545 257.926252 
L 79.197262 258.007273 
L 78.260189 262.4 
L 77.323105 266.792727 
L 76.386042 271.185455 
L 75.607273 274.836019 
L 75.448949 275.578182 
L 74.511891 279.970909 
L 73.574815 284.363636 
L 72.637732 288.756364 
L 72 291.745897 
L 72 293.149091 
L 72 297.541818 
L 72 301.934545 
L 72 306.327273 
L 72 310.72 
L 72 315.112727 
L 72 319.505455 
L 72 323.898182 
L 72 328.290909 
L 72 332.683636 
L 72 337.076364 
L 72 341.469091 
L 72 345.861818 
L 72 350.254545 
L 72 354.647273 
L 72 354.69812 
L 72.683053 359.04 
L 73.374171 363.432727 
L 74.065251 367.825455 
L 74.756341 372.218182 
L 75.447438 376.610909 
L 75.607273 377.626862 
L 76.138529 381.003636 
L 76.829617 385.396364 
L 77.520707 389.789091 
L 78.211808 394.181818 
L 78.902898 398.574545 
L 79.214545 400.555448 
L 79.593987 402.967273 
L 80.28507 407.36 
L 80.976155 411.752727 
L 81.667265 416.145455 
L 82.358338 420.538182 
L 82.821818 423.484192 
L 83.049425 424.930909 
L 83.740514 429.323636 
L 84.431616 433.716364 
L 85.122702 438.109091 
L 85.813798 442.501818 
L 86.429091 446.412709 
L 86.504897 446.894545 
L 87.19597 451.287273 
L 87.887072 455.68 
L 88.578155 460.072727 
L 90.036364 462.895226 
L 91.641605 464.465455 
L 93.643636 466.260867 
L 96.539853 468.858182 
L 97.250909 469.495853 
L 100.858182 472.730859 
L 101.438077 473.250909 
L 104.465455 475.965848 
L 106.336312 477.643636 
L 108.072727 479.200872 
L 111.2345 482.036364 
L 111.68 482.435886 
L 115.287273 485.670869 
L 116.132742 486.429091 
L 118.894545 488.905881 
L 121.030957 490.821818 
L 122.501818 492.140882 
L 125.92922 495.214545 
L 126.109091 495.375856 
L 129.716364 498.610878 
L 130.827419 499.607273 
z
M 231.736664 477.643636 
L 230.72 477.61444 
L 227.112727 477.510833 
L 223.505455 477.407226 
L 219.898182 477.303618 
L 216.290909 477.200012 
L 212.683636 477.096434 
L 209.076364 476.9928 
L 205.469091 476.889219 
L 201.861818 476.785615 
L 198.254545 476.68202 
L 194.647273 476.5784 
L 191.04 476.474809 
L 187.432727 476.371202 
L 183.825455 476.267595 
L 180.218182 476.163982 
L 176.610909 476.060396 
L 173.003636 475.956795 
L 169.396364 475.744008 
L 165.789091 473.358426 
L 165.669201 473.250909 
L 162.181818 470.123408 
L 160.771012 468.858182 
L 158.574545 466.888397 
L 155.872736 464.465455 
L 154.967273 463.653437 
L 151.36 460.418416 
L 150.97453 460.072727 
L 147.752727 457.183414 
L 146.076307 455.68 
L 144.145455 453.948412 
L 141.178083 451.287273 
L 140.538182 450.713406 
L 136.930909 447.478385 
L 136.279884 446.894545 
L 133.323636 444.243383 
L 131.381647 442.501818 
L 129.716364 441.008402 
L 126.483434 438.109091 
L 126.109091 437.773379 
L 122.501818 434.538393 
L 121.585188 433.716364 
L 118.894545 431.303407 
L 116.911386 429.323636 
L 115.509852 424.930909 
L 115.287273 423.516147 
L 114.81876 420.538182 
L 114.127676 416.145455 
L 113.436576 411.752727 
L 112.745496 407.36 
L 112.054403 402.967273 
L 111.68 400.587439 
L 111.363324 398.574545 
L 110.672223 394.181818 
L 109.981133 389.789091 
L 109.290036 385.396364 
L 108.598952 381.003636 
L 108.072727 377.658817 
L 107.907864 376.610909 
L 107.216768 372.218182 
L 106.525683 367.825455 
L 105.83459 363.432727 
L 105.143501 359.04 
L 104.465455 354.730151 
L 104.452416 354.647273 
L 103.761326 350.254545 
L 103.070241 345.861818 
L 102.379146 341.469091 
L 101.688063 337.076364 
L 100.996966 332.683636 
L 100.858182 331.801486 
L 100.305877 328.290909 
L 99.614775 323.898182 
L 98.923685 319.505455 
L 98.232608 315.112727 
L 99.006556 310.72 
L 99.943641 306.327273 
L 100.858182 302.040167 
L 100.880713 301.934545 
L 101.817783 297.541818 
L 102.754853 293.149091 
L 103.691919 288.756364 
L 104.465455 285.130298 
L 104.629004 284.363636 
L 105.566064 279.970909 
L 106.503144 275.578182 
L 107.440214 271.185455 
L 108.072727 268.220393 
L 108.377281 266.792727 
L 109.314355 262.4 
L 110.251439 258.007273 
L 111.1885 253.614545 
L 111.68 251.310563 
L 112.125584 249.221818 
L 113.062649 244.829091 
L 113.999729 240.436364 
L 114.936813 236.043636 
L 115.287273 234.400765 
L 115.873874 231.650909 
L 116.810949 227.258182 
L 117.748015 222.865455 
L 118.685082 218.472727 
L 118.894545 217.490827 
L 119.622165 214.08 
L 120.559243 209.687273 
L 121.49631 205.294545 
L 122.433394 200.901818 
L 122.501818 200.581063 
L 123.370458 196.509091 
L 124.307539 192.116364 
L 125.244612 187.723636 
L 126.109091 183.671259 
L 126.181696 183.330909 
L 127.262232 178.938182 
L 129.716364 175.476098 
L 130.584094 174.545455 
L 133.323636 171.607287 
L 134.679852 170.152727 
L 136.930909 167.738448 
L 138.7756 165.76 
L 140.538182 163.869632 
L 142.871385 161.367273 
L 144.145455 160.000815 
L 146.967115 156.974545 
L 147.752727 156.13197 
L 151.06288 152.581818 
L 151.36 152.263156 
L 154.967273 148.394304 
L 155.158613 148.189091 
L 158.574545 144.525472 
L 159.254361 143.796364 
L 162.181818 140.656654 
L 163.350134 139.403636 
L 165.789091 136.787834 
L 167.445868 135.010909 
L 169.396364 132.918975 
L 171.541618 130.618182 
L 173.003636 129.050155 
L 175.637369 126.225455 
L 176.610909 125.181334 
L 179.733125 121.832727 
L 180.218182 121.312497 
L 183.825455 117.443665 
L 183.829919 117.44 
L 187.432727 115.134007 
L 191.04 114.504604 
L 194.647273 113.875209 
L 198.254545 113.245813 
L 199.392427 113.047273 
L 201.861818 112.616406 
L 205.469091 111.986998 
L 209.076364 111.357591 
L 212.683636 110.728191 
L 216.290909 110.09878 
L 219.898182 109.469385 
L 223.505455 108.83996 
L 224.568128 108.654545 
L 227.112727 108.210568 
L 230.72 107.581163 
L 234.327273 106.951772 
L 237.934545 106.322374 
L 241.541818 105.692955 
L 245.149091 105.063543 
L 248.756364 104.434151 
L 249.744058 104.261818 
L 252.363636 103.804756 
L 255.970909 103.175349 
L 259.578182 102.545936 
L 263.185455 101.916526 
L 266.792727 101.287126 
L 270.4 100.657721 
L 274.007273 100.028311 
L 274.919839 99.869091 
L 277.614545 99.398933 
L 281.221818 98.76951 
L 284.829091 98.140108 
L 288.436364 97.510703 
L 292.043636 96.881292 
L 295.650909 96.251894 
L 299.258182 95.622486 
L 300.095682 95.476364 
L 302.865455 94.993105 
L 306.472727 94.363671 
L 310.08 93.734272 
L 313.687273 93.104869 
L 317.294545 92.475452 
L 320.901818 91.846057 
L 324.509091 91.216647 
L 325.271403 91.083636 
L 328.116364 90.587243 
L 331.723636 89.95785 
L 335.330909 89.328445 
L 338.938182 88.699039 
L 342.545455 88.069648 
L 346.152727 87.440243 
L 349.76 86.810837 
L 350.447335 86.690909 
L 353.367273 86.181428 
L 356.974545 85.552029 
L 360.581818 84.922614 
L 364.189091 86.243535 
L 364.977135 86.690909 
L 367.796364 88.291384 
L 371.403636 90.339273 
L 372.714828 91.083636 
L 375.010909 92.387127 
L 378.618182 94.435042 
L 380.452447 95.476364 
L 382.225455 96.482904 
L 385.832727 98.530789 
L 386.860255 99.869091 
L 388.032301 104.261818 
L 389.023687 108.654545 
L 389.44 110.499151 
L 390.015091 113.047273 
L 391.00649 117.44 
L 391.997871 121.832727 
L 392.98926 126.225455 
L 393.047273 126.482496 
L 393.980665 130.618182 
L 394.972055 135.010909 
L 395.963417 139.403636 
L 396.654545 142.465954 
L 396.954807 143.796364 
L 397.946218 148.189091 
L 398.937604 152.581818 
L 399.928976 156.974545 
L 400.261818 158.449297 
L 400.920393 161.367273 
L 401.911774 165.76 
L 402.903168 170.152727 
L 403.869091 174.432597 
L 403.894561 174.545455 
L 404.885951 178.938182 
L 405.877334 183.330909 
L 406.868728 187.723636 
L 407.476364 190.416025 
L 407.860105 192.116364 
L 408.85151 196.509091 
L 409.842904 200.901818 
L 410.834303 205.294545 
L 411.083636 206.399307 
L 411.825691 209.687273 
L 412.817068 214.08 
L 413.808451 218.472727 
L 414.690909 222.382768 
L 414.799848 222.865455 
L 415.791247 227.258182 
L 416.782636 231.650909 
L 417.774029 236.043636 
L 418.298182 238.366117 
L 418.76541 240.436364 
L 419.756805 244.829091 
L 420.74819 249.221818 
L 421.73959 253.614545 
L 421.905455 254.34947 
L 422.730983 258.007273 
L 423.722377 262.4 
L 424.713771 266.792727 
L 425.512727 270.332845 
L 425.705149 271.185455 
L 426.651423 275.578182 
L 425.721601 279.970909 
L 425.512727 280.922188 
L 424.757085 284.363636 
L 423.792612 288.756364 
L 422.8281 293.149091 
L 421.905455 297.351297 
L 421.863623 297.541818 
L 420.899136 301.934545 
L 419.934643 306.327273 
L 418.970148 310.72 
L 418.298182 313.780493 
L 418.005672 315.112727 
L 417.041164 319.505455 
L 416.076669 323.898182 
L 415.112185 328.290909 
L 414.690909 330.209597 
L 414.147698 332.683636 
L 413.183194 337.076364 
L 412.218709 341.469091 
L 411.254221 345.861818 
L 411.083636 346.638745 
L 410.289732 350.254545 
L 409.325233 354.647273 
L 408.360732 359.04 
L 407.476364 363.067888 
L 407.396259 363.432727 
L 406.431758 367.825455 
L 405.467271 372.218182 
L 404.502783 376.610909 
L 403.869091 379.497042 
L 403.538296 381.003636 
L 402.573781 385.396364 
L 401.609313 389.789091 
L 400.644808 394.181818 
L 400.261818 395.926126 
L 399.680319 398.574545 
L 396.979983 402.967273 
L 396.654545 403.244955 
L 393.047273 406.322888 
L 391.8318 407.36 
L 389.44 409.400814 
L 386.683596 411.752727 
L 385.832727 412.478731 
L 382.225455 415.556635 
L 381.535368 416.145455 
L 378.618182 418.634579 
L 376.387196 420.538182 
L 375.010909 421.712502 
L 371.403636 424.790417 
L 371.238981 424.930909 
L 367.796364 427.868345 
L 366.09079 429.323636 
L 364.189091 430.946252 
L 360.942529 433.716364 
L 360.581818 434.024142 
L 356.974545 437.102096 
L 355.794354 438.109091 
L 353.367273 440.18 
L 350.646165 442.501818 
L 349.76 443.257949 
L 346.152727 446.335858 
L 345.49796 446.894545 
L 342.545455 449.413795 
L 340.349765 451.287273 
L 338.938182 452.491715 
L 335.330909 455.569625 
L 335.201552 455.68 
L 331.723636 458.647546 
L 330.053347 460.072727 
L 328.116364 461.725482 
L 324.905148 464.465455 
L 324.509091 464.803387 
L 320.901818 467.881304 
L 319.756931 468.858182 
L 317.294545 470.959219 
L 314.608734 473.250909 
L 313.687273 474.03715 
L 310.08 477.115071 
L 309.460525 477.643636 
L 306.472727 479.694224 
L 302.865455 479.686487 
L 299.258182 479.582887 
L 295.650909 479.479288 
L 292.043636 479.37569 
L 288.436364 479.272088 
L 284.829091 479.168475 
L 281.221818 479.064883 
L 277.614545 478.96128 
L 274.007273 478.857668 
L 270.4 478.754064 
L 266.792727 478.650457 
L 263.185455 478.546861 
L 259.578182 478.443256 
L 255.970909 478.339662 
L 252.363636 478.236054 
L 248.756364 478.132448 
L 245.149091 478.028855 
L 241.541818 477.925247 
L 237.934545 477.82164 
L 234.327273 477.718033 
z
" style="fill:#bcd2f7;"/>
   </g>
   <g id="PathCollection_5">
    <path clip-path="url(#pb27a10436d)" d="M 234.327273 477.718033 
L 237.934545 477.82164 
L 241.541818 477.925247 
L 245.149091 478.028855 
L 248.756364 478.132448 
L 252.363636 478.236054 
L 255.970909 478.339662 
L 259.578182 478.443256 
L 263.185455 478.546861 
L 266.792727 478.650457 
L 270.4 478.754064 
L 274.007273 478.857668 
L 277.614545 478.96128 
L 281.221818 479.064883 
L 284.829091 479.168475 
L 288.436364 479.272088 
L 292.043636 479.37569 
L 295.650909 479.479288 
L 299.258182 479.582887 
L 302.865455 479.686487 
L 306.472727 479.694224 
L 309.460525 477.643636 
L 310.08 477.115071 
L 313.687273 474.03715 
L 314.608734 473.250909 
L 317.294545 470.959219 
L 319.756931 468.858182 
L 320.901818 467.881304 
L 324.509091 464.803387 
L 324.905148 464.465455 
L 328.116364 461.725482 
L 330.053347 460.072727 
L 331.723636 458.647546 
L 335.201552 455.68 
L 335.330909 455.569625 
L 338.938182 452.491715 
L 340.349765 451.287273 
L 342.545455 449.413795 
L 345.49796 446.894545 
L 346.152727 446.335858 
L 349.76 443.257949 
L 350.646165 442.501818 
L 353.367273 440.18 
L 355.794354 438.109091 
L 356.974545 437.102096 
L 360.581818 434.024142 
L 360.942529 433.716364 
L 364.189091 430.946252 
L 366.09079 429.323636 
L 367.796364 427.868345 
L 371.238981 424.930909 
L 371.403636 424.790417 
L 375.010909 421.712502 
L 376.387196 420.538182 
L 378.618182 418.634579 
L 381.535368 416.145455 
L 382.225455 415.556635 
L 385.832727 412.478731 
L 386.683596 411.752727 
L 389.44 409.400814 
L 391.8318 407.36 
L 393.047273 406.322888 
L 396.654545 403.244955 
L 396.979983 402.967273 
L 399.680319 398.574545 
L 400.261818 395.926126 
L 400.644808 394.181818 
L 401.609313 389.789091 
L 402.573781 385.396364 
L 403.538296 381.003636 
L 403.869091 379.497042 
L 404.502783 376.610909 
L 405.467271 372.218182 
L 406.431758 367.825455 
L 407.396259 363.432727 
L 407.476364 363.067888 
L 408.360732 359.04 
L 409.325233 354.647273 
L 410.289732 350.254545 
L 411.083636 346.638745 
L 411.254221 345.861818 
L 412.218709 341.469091 
L 413.183194 337.076364 
L 414.147698 332.683636 
L 414.690909 330.209597 
L 415.112185 328.290909 
L 416.076669 323.898182 
L 417.041164 319.505455 
L 418.005672 315.112727 
L 418.298182 313.780493 
L 418.970148 310.72 
L 419.934643 306.327273 
L 420.899136 301.934545 
L 421.863623 297.541818 
L 421.905455 297.351297 
L 422.8281 293.149091 
L 423.792612 288.756364 
L 424.757085 284.363636 
L 425.512727 280.922188 
L 425.721601 279.970909 
L 426.651423 275.578182 
L 425.705149 271.185455 
L 425.512727 270.332845 
L 424.713771 266.792727 
L 423.722377 262.4 
L 422.730983 258.007273 
L 421.905455 254.34947 
L 421.73959 253.614545 
L 420.74819 249.221818 
L 419.756805 244.829091 
L 418.76541 240.436364 
L 418.298182 238.366117 
L 417.774029 236.043636 
L 416.782636 231.650909 
L 415.791247 227.258182 
L 414.799848 222.865455 
L 414.690909 222.382768 
L 413.808451 218.472727 
L 412.817068 214.08 
L 411.825691 209.687273 
L 411.083636 206.399307 
L 410.834303 205.294545 
L 409.842904 200.901818 
L 408.85151 196.509091 
L 407.860105 192.116364 
L 407.476364 190.416025 
L 406.868728 187.723636 
L 405.877334 183.330909 
L 404.885951 178.938182 
L 403.894561 174.545455 
L 403.869091 174.432597 
L 402.903168 170.152727 
L 401.911774 165.76 
L 400.920393 161.367273 
L 400.261818 158.449297 
L 399.928976 156.974545 
L 398.937604 152.581818 
L 397.946218 148.189091 
L 396.954807 143.796364 
L 396.654545 142.465954 
L 395.963417 139.403636 
L 394.972055 135.010909 
L 393.980665 130.618182 
L 393.047273 126.482496 
L 392.98926 126.225455 
L 391.997871 121.832727 
L 391.00649 117.44 
L 390.015091 113.047273 
L 389.44 110.499151 
L 389.023687 108.654545 
L 388.032301 104.261818 
L 386.860255 99.869091 
L 385.832727 98.530789 
L 382.225455 96.482904 
L 380.452447 95.476364 
L 378.618182 94.435042 
L 375.010909 92.387127 
L 372.714828 91.083636 
L 371.403636 90.339273 
L 367.796364 88.291384 
L 364.977135 86.690909 
L 364.189091 86.243535 
L 360.581818 84.922614 
L 356.974545 85.552029 
L 353.367273 86.181428 
L 350.447335 86.690909 
L 349.76 86.810837 
L 346.152727 87.440243 
L 342.545455 88.069648 
L 338.938182 88.699039 
L 335.330909 89.328445 
L 331.723636 89.95785 
L 328.116364 90.587243 
L 325.271403 91.083636 
L 324.509091 91.216647 
L 320.901818 91.846057 
L 317.294545 92.475452 
L 313.687273 93.104869 
L 310.08 93.734272 
L 306.472727 94.363671 
L 302.865455 94.993105 
L 300.095682 95.476364 
L 299.258182 95.622486 
L 295.650909 96.251894 
L 292.043636 96.881292 
L 288.436364 97.510703 
L 284.829091 98.140108 
L 281.221818 98.76951 
L 277.614545 99.398933 
L 274.919839 99.869091 
L 274.007273 100.028311 
L 270.4 100.657721 
L 266.792727 101.287126 
L 263.185455 101.916526 
L 259.578182 102.545936 
L 255.970909 103.175349 
L 252.363636 103.804756 
L 249.744058 104.261818 
L 248.756364 104.434151 
L 245.149091 105.063543 
L 241.541818 105.692955 
L 237.934545 106.322374 
L 234.327273 106.951772 
L 230.72 107.581163 
L 227.112727 108.210568 
L 224.568128 108.654545 
L 223.505455 108.83996 
L 219.898182 109.469385 
L 216.290909 110.09878 
L 212.683636 110.728191 
L 209.076364 111.357591 
L 205.469091 111.986998 
L 201.861818 112.616406 
L 199.392427 113.047273 
L 198.254545 113.245813 
L 194.647273 113.875209 
L 191.04 114.504604 
L 187.432727 115.134007 
L 183.829919 117.44 
L 183.825455 117.443665 
L 180.218182 121.312497 
L 179.733125 121.832727 
L 176.610909 125.181334 
L 175.637369 126.225455 
L 173.003636 129.050155 
L 171.541618 130.618182 
L 169.396364 132.918975 
L 167.445868 135.010909 
L 165.789091 136.787834 
L 163.350134 139.403636 
L 162.181818 140.656654 
L 159.254361 143.796364 
L 158.574545 144.525472 
L 155.158613 148.189091 
L 154.967273 148.394304 
L 151.36 152.263156 
L 151.06288 152.581818 
L 147.752727 156.13197 
L 146.967115 156.974545 
L 144.145455 160.000815 
L 142.871385 161.367273 
L 140.538182 163.869632 
L 138.7756 165.76 
L 136.930909 167.738448 
L 134.679852 170.152727 
L 133.323636 171.607287 
L 130.584094 174.545455 
L 129.716364 175.476098 
L 127.262232 178.938182 
L 126.181696 183.330909 
L 126.109091 183.671259 
L 125.244612 187.723636 
L 124.307539 192.116364 
L 123.370458 196.509091 
L 122.501818 200.581063 
L 122.433394 200.901818 
L 121.49631 205.294545 
L 120.559243 209.687273 
L 119.622165 214.08 
L 118.894545 217.490827 
L 118.685082 218.472727 
L 117.748015 222.865455 
L 116.810949 227.258182 
L 115.873874 231.650909 
L 115.287273 234.400765 
L 114.936813 236.043636 
L 113.999729 240.436364 
L 113.062649 244.829091 
L 112.125584 249.221818 
L 111.68 251.310563 
L 111.1885 253.614545 
L 110.251439 258.007273 
L 109.314355 262.4 
L 108.377281 266.792727 
L 108.072727 268.220393 
L 107.440214 271.185455 
L 106.503144 275.578182 
L 105.566064 279.970909 
L 104.629004 284.363636 
L 104.465455 285.130298 
L 103.691919 288.756364 
L 102.754853 293.149091 
L 101.817783 297.541818 
L 100.880713 301.934545 
L 100.858182 302.040167 
L 99.943641 306.327273 
L 99.006556 310.72 
L 98.232608 315.112727 
L 98.923685 319.505455 
L 99.614775 323.898182 
L 100.305877 328.290909 
L 100.858182 331.801486 
L 100.996966 332.683636 
L 101.688063 337.076364 
L 102.379146 341.469091 
L 103.070241 345.861818 
L 103.761326 350.254545 
L 104.452416 354.647273 
L 104.465455 354.730151 
L 105.143501 359.04 
L 105.83459 363.432727 
L 106.525683 367.825455 
L 107.216768 372.218182 
L 107.907864 376.610909 
L 108.072727 377.658817 
L 108.598952 381.003636 
L 109.290036 385.396364 
L 109.981133 389.789091 
L 110.672223 394.181818 
L 111.363324 398.574545 
L 111.68 400.587439 
L 112.054403 402.967273 
L 112.745496 407.36 
L 113.436576 411.752727 
L 114.127676 416.145455 
L 114.81876 420.538182 
L 115.287273 423.516147 
L 115.509852 424.930909 
L 116.911386 429.323636 
L 118.894545 431.303407 
L 121.585188 433.716364 
L 122.501818 434.538393 
L 126.109091 437.773379 
L 126.483434 438.109091 
L 129.716364 441.008402 
L 131.381647 442.501818 
L 133.323636 444.243383 
L 136.279884 446.894545 
L 136.930909 447.478385 
L 140.538182 450.713406 
L 141.178083 451.287273 
L 144.145455 453.948412 
L 146.076307 455.68 
L 147.752727 457.183414 
L 150.97453 460.072727 
L 151.36 460.418416 
L 154.967273 463.653437 
L 155.872736 464.465455 
L 158.574545 466.888397 
L 160.771012 468.858182 
L 162.181818 470.123408 
L 165.669201 473.250909 
L 165.789091 473.358426 
L 169.396364 475.744008 
L 173.003636 475.956795 
L 176.610909 476.060396 
L 180.218182 476.163982 
L 183.825455 476.267595 
L 187.432727 476.371202 
L 191.04 476.474809 
L 194.647273 476.5784 
L 198.254545 476.68202 
L 201.861818 476.785615 
L 205.469091 476.889219 
L 209.076364 476.9928 
L 212.683636 477.096434 
L 216.290909 477.200012 
L 219.898182 477.303618 
L 223.505455 477.407226 
L 227.112727 477.510833 
L 230.72 477.61444 
L 231.736664 477.643636 
z
M 265.18095 438.109091 
L 263.185455 438.051772 
L 259.578182 437.948173 
L 255.970909 437.844565 
L 252.363636 437.740965 
L 248.756364 437.637366 
L 245.149091 437.533751 
L 241.541818 437.430148 
L 237.934545 437.32654 
L 234.327273 437.222951 
L 230.72 437.119347 
L 227.112727 437.015742 
L 223.505455 436.912129 
L 219.898182 436.808532 
L 216.290909 436.704935 
L 212.683636 436.601325 
L 209.076364 436.49772 
L 205.469091 436.394123 
L 201.861818 436.290515 
L 198.254545 436.186915 
L 194.647273 436.083315 
L 191.04 435.979716 
L 187.432727 435.092878 
L 185.816337 433.716364 
L 183.825455 431.93094 
L 180.918123 429.323636 
L 180.218182 428.695928 
L 176.610909 425.460934 
L 176.019894 424.930909 
L 173.003636 422.225924 
L 171.121666 420.538182 
L 169.396364 418.990938 
L 166.22345 416.145455 
L 165.789091 415.755918 
L 162.181818 412.520926 
L 161.325219 411.752727 
L 158.574545 409.285929 
L 156.426976 407.36 
L 154.967273 406.050939 
L 151.528771 402.967273 
L 151.36 402.815918 
L 147.752727 399.580913 
L 146.630548 398.574545 
L 144.145455 396.142841 
L 143.132658 394.181818 
L 142.441563 389.789091 
L 141.750467 385.396364 
L 141.059386 381.003636 
L 140.538182 377.690821 
L 140.36828 376.610909 
L 139.677202 372.218182 
L 138.986111 367.825455 
L 138.295018 363.432727 
L 137.603932 359.04 
L 136.930909 354.762183 
L 136.91283 354.647273 
L 136.221741 350.254545 
L 135.530655 345.861818 
L 134.839565 341.469091 
L 134.148481 337.076364 
L 133.457382 332.683636 
L 133.323636 331.83352 
L 132.76629 328.290909 
L 132.075208 323.898182 
L 131.384116 319.505455 
L 130.693023 315.112727 
L 130.069054 310.72 
L 130.99781 306.327273 
L 131.934879 301.934545 
L 132.87195 297.541818 
L 133.323636 295.424448 
L 133.809024 293.149091 
L 134.746101 288.756364 
L 135.683169 284.363636 
L 136.620252 279.970909 
L 136.930909 278.514626 
L 137.557315 275.578182 
L 138.494402 271.185455 
L 139.431463 266.792727 
L 140.368549 262.4 
L 140.538182 261.604808 
L 141.305618 258.007273 
L 142.242695 253.614545 
L 143.179773 249.221818 
L 144.11684 244.829091 
L 144.145455 244.694952 
L 145.053902 240.436364 
L 145.990988 236.043636 
L 146.928052 231.650909 
L 147.752727 227.785116 
L 147.865136 227.258182 
L 148.802205 222.865455 
L 149.739275 218.472727 
L 150.676344 214.08 
L 151.36 210.875208 
L 151.613414 209.687273 
L 152.550487 205.294545 
L 153.487565 200.901818 
L 154.967273 198.467709 
L 156.755921 196.509091 
L 158.574545 194.558604 
L 160.851674 192.116364 
L 162.181818 190.689772 
L 164.947443 187.723636 
L 165.789091 186.820958 
L 169.043161 183.330909 
L 169.396364 182.952097 
L 173.003636 179.083293 
L 173.138938 178.938182 
L 176.610909 175.214453 
L 177.234679 174.545455 
L 180.218182 171.345629 
L 181.330435 170.152727 
L 183.825455 167.47679 
L 185.426179 165.76 
L 187.432727 163.607969 
L 189.521946 161.367273 
L 191.04 159.739143 
L 193.617681 156.974545 
L 194.647273 155.870301 
L 197.853476 152.581818 
L 198.254545 152.261041 
L 201.861818 151.631642 
L 205.469091 151.002251 
L 209.076364 150.372834 
L 212.683636 149.743436 
L 216.290909 149.114042 
L 219.898182 148.48464 
L 221.591959 148.189091 
L 223.505455 147.855203 
L 227.112727 147.225804 
L 230.72 146.596402 
L 234.327273 145.967002 
L 237.934545 145.337604 
L 241.541818 144.708206 
L 245.149091 144.078787 
L 246.767753 143.796364 
L 248.756364 143.449393 
L 252.363636 142.819999 
L 255.970909 142.190593 
L 259.578182 141.561177 
L 263.185455 140.931762 
L 266.792727 140.302375 
L 270.4 139.672976 
L 271.943647 139.403636 
L 274.007273 139.043567 
L 277.614545 138.414163 
L 281.221818 137.784757 
L 284.829091 137.155349 
L 288.436364 136.525955 
L 292.043636 135.896531 
L 295.650909 135.26713 
L 297.119417 135.010909 
L 299.258182 134.637742 
L 302.865455 134.008322 
L 306.472727 133.378919 
L 310.08 132.74951 
L 313.687273 132.120108 
L 317.294545 131.490706 
L 320.901818 130.861312 
L 322.295221 130.618182 
L 324.509091 130.231891 
L 328.116364 129.602486 
L 331.723636 128.9731 
L 335.330909 128.343686 
L 338.938182 127.717124 
L 342.545455 128.609926 
L 346.082969 130.618182 
L 346.152727 130.657784 
L 349.76 132.705658 
L 353.367273 134.753562 
L 353.820585 135.010909 
L 356.93695 139.403636 
L 356.974545 139.558574 
L 357.930978 143.796364 
L 358.922371 148.189091 
L 359.913761 152.581818 
L 360.581818 155.541942 
L 360.905137 156.974545 
L 361.896533 161.367273 
L 362.88793 165.76 
L 363.879327 170.152727 
L 364.189091 171.525263 
L 364.870709 174.545455 
L 365.862114 178.938182 
L 366.853489 183.330909 
L 367.796364 187.508611 
L 367.844893 187.723636 
L 368.83627 192.116364 
L 369.827673 196.509091 
L 370.819055 200.901818 
L 371.403636 203.492047 
L 371.810439 205.294545 
L 372.801842 209.687273 
L 373.793226 214.08 
L 374.78462 218.472727 
L 375.010909 219.475383 
L 375.776014 222.865455 
L 376.7674 227.258182 
L 377.75879 231.650909 
L 378.618182 235.458713 
L 378.750194 236.043636 
L 379.741569 240.436364 
L 380.732968 244.829091 
L 381.724363 249.221818 
L 382.225455 251.442092 
L 382.715751 253.614545 
L 383.70714 258.007273 
L 384.698523 262.4 
L 385.689922 266.792727 
L 385.832727 267.425489 
L 386.6813 271.185455 
L 387.672705 275.578182 
L 388.664089 279.970909 
L 387.748018 284.363636 
L 386.783538 288.756364 
L 385.832727 293.086722 
L 385.819033 293.149091 
L 384.854554 297.541818 
L 383.890062 301.934545 
L 382.925571 306.327273 
L 382.225455 309.515934 
L 381.961083 310.72 
L 380.996583 315.112727 
L 380.0321 319.505455 
L 379.067615 323.898182 
L 378.618182 325.945069 
L 378.103107 328.290909 
L 377.138628 332.683636 
L 376.174133 337.076364 
L 375.209632 341.469091 
L 375.010909 342.374179 
L 374.245152 345.861818 
L 373.280654 350.254545 
L 372.316165 354.647273 
L 371.403636 358.803316 
L 371.351668 359.04 
L 370.387181 363.432727 
L 369.422691 367.825455 
L 368.458206 372.218182 
L 367.796364 374.114565 
L 366.348087 376.610909 
L 364.189091 378.453091 
L 361.199889 381.003636 
L 360.581818 381.531003 
L 356.974545 384.608928 
L 356.051688 385.396364 
L 353.367273 387.686858 
L 350.903495 389.789091 
L 349.76 390.764785 
L 346.152727 393.842682 
L 345.755267 394.181818 
L 342.545455 396.920617 
L 340.607086 398.574545 
L 338.938182 399.998552 
L 335.458883 402.967273 
L 335.330909 403.076467 
L 331.723636 406.154381 
L 330.310678 407.36 
L 328.116364 409.232303 
L 325.162461 411.752727 
L 324.509091 412.31022 
L 320.901818 415.388137 
L 320.014248 416.145455 
L 317.294545 418.466051 
L 314.866049 420.538182 
L 313.687273 421.54398 
L 310.08 424.62191 
L 309.717858 424.930909 
L 306.472727 427.699825 
L 304.569643 429.323636 
L 302.865455 430.777743 
L 299.421429 433.716364 
L 299.258182 433.855655 
L 295.650909 436.933587 
L 293.701848 438.109091 
L 292.043636 438.880595 
L 288.436364 438.776986 
L 284.829091 438.673379 
L 281.221818 438.569771 
L 277.614545 438.466179 
L 274.007273 438.362572 
L 270.4 438.258972 
L 266.792727 438.155387 
z
" style="fill:#dddcdc;"/>
   </g>
   <g id="PathCollection_6">
    <path clip-path="url(#pb27a10436d)" d="M 266.792727 438.155387 
L 270.4 438.258972 
L 274.007273 438.362572 
L 277.614545 438.466179 
L 281.221818 438.569771 
L 284.829091 438.673379 
L 288.436364 438.776986 
L 292.043636 438.880595 
L 293.701848 438.109091 
L 295.650909 436.933587 
L 299.258182 433.855655 
L 299.421429 433.716364 
L 302.865455 430.777743 
L 304.569643 429.323636 
L 306.472727 427.699825 
L 309.717858 424.930909 
L 310.08 424.62191 
L 313.687273 421.54398 
L 314.866049 420.538182 
L 317.294545 418.466051 
L 320.014248 416.145455 
L 320.901818 415.388137 
L 324.509091 412.31022 
L 325.162461 411.752727 
L 328.116364 409.232303 
L 330.310678 407.36 
L 331.723636 406.154381 
L 335.330909 403.076467 
L 335.458883 402.967273 
L 338.938182 399.998552 
L 340.607086 398.574545 
L 342.545455 396.920617 
L 345.755267 394.181818 
L 346.152727 393.842682 
L 349.76 390.764785 
L 350.903495 389.789091 
L 353.367273 387.686858 
L 356.051688 385.396364 
L 356.974545 384.608928 
L 360.581818 381.531003 
L 361.199889 381.003636 
L 364.189091 378.453091 
L 366.348087 376.610909 
L 367.796364 374.114565 
L 368.458206 372.218182 
L 369.422691 367.825455 
L 370.387181 363.432727 
L 371.351668 359.04 
L 371.403636 358.803316 
L 372.316165 354.647273 
L 373.280654 350.254545 
L 374.245152 345.861818 
L 375.010909 342.374179 
L 375.209632 341.469091 
L 376.174133 337.076364 
L 377.138628 332.683636 
L 378.103107 328.290909 
L 378.618182 325.945069 
L 379.067615 323.898182 
L 380.0321 319.505455 
L 380.996583 315.112727 
L 381.961083 310.72 
L 382.225455 309.515934 
L 382.925571 306.327273 
L 383.890062 301.934545 
L 384.854554 297.541818 
L 385.819033 293.149091 
L 385.832727 293.086722 
L 386.783538 288.756364 
L 387.748018 284.363636 
L 388.664089 279.970909 
L 387.672705 275.578182 
L 386.6813 271.185455 
L 385.832727 267.425489 
L 385.689922 266.792727 
L 384.698523 262.4 
L 383.70714 258.007273 
L 382.715751 253.614545 
L 382.225455 251.442092 
L 381.724363 249.221818 
L 380.732968 244.829091 
L 379.741569 240.436364 
L 378.750194 236.043636 
L 378.618182 235.458713 
L 377.75879 231.650909 
L 376.7674 227.258182 
L 375.776014 222.865455 
L 375.010909 219.475383 
L 374.78462 218.472727 
L 373.793226 214.08 
L 372.801842 209.687273 
L 371.810439 205.294545 
L 371.403636 203.492047 
L 370.819055 200.901818 
L 369.827673 196.509091 
L 368.83627 192.116364 
L 367.844893 187.723636 
L 367.796364 187.508611 
L 366.853489 183.330909 
L 365.862114 178.938182 
L 364.870709 174.545455 
L 364.189091 171.525263 
L 363.879327 170.152727 
L 362.88793 165.76 
L 361.896533 161.367273 
L 360.905137 156.974545 
L 360.581818 155.541942 
L 359.913761 152.581818 
L 358.922371 148.189091 
L 357.930978 143.796364 
L 356.974545 139.558574 
L 356.93695 139.403636 
L 353.820585 135.010909 
L 353.367273 134.753562 
L 349.76 132.705658 
L 346.152727 130.657784 
L 346.082969 130.618182 
L 342.545455 128.609926 
L 338.938182 127.717124 
L 335.330909 128.343686 
L 331.723636 128.9731 
L 328.116364 129.602486 
L 324.509091 130.231891 
L 322.295221 130.618182 
L 320.901818 130.861312 
L 317.294545 131.490706 
L 313.687273 132.120108 
L 310.08 132.74951 
L 306.472727 133.378919 
L 302.865455 134.008322 
L 299.258182 134.637742 
L 297.119417 135.010909 
L 295.650909 135.26713 
L 292.043636 135.896531 
L 288.436364 136.525955 
L 284.829091 137.155349 
L 281.221818 137.784757 
L 277.614545 138.414163 
L 274.007273 139.043567 
L 271.943647 139.403636 
L 270.4 139.672976 
L 266.792727 140.302375 
L 263.185455 140.931762 
L 259.578182 141.561177 
L 255.970909 142.190593 
L 252.363636 142.819999 
L 248.756364 143.449393 
L 246.767753 143.796364 
L 245.149091 144.078787 
L 241.541818 144.708206 
L 237.934545 145.337604 
L 234.327273 145.967002 
L 230.72 146.596402 
L 227.112727 147.225804 
L 223.505455 147.855203 
L 221.591959 148.189091 
L 219.898182 148.48464 
L 216.290909 149.114042 
L 212.683636 149.743436 
L 209.076364 150.372834 
L 205.469091 151.002251 
L 201.861818 151.631642 
L 198.254545 152.261041 
L 197.853476 152.581818 
L 194.647273 155.870301 
L 193.617681 156.974545 
L 191.04 159.739143 
L 189.521946 161.367273 
L 187.432727 163.607969 
L 185.426179 165.76 
L 183.825455 167.47679 
L 181.330435 170.152727 
L 180.218182 171.345629 
L 177.234679 174.545455 
L 176.610909 175.214453 
L 173.138938 178.938182 
L 173.003636 179.083293 
L 169.396364 182.952097 
L 169.043161 183.330909 
L 165.789091 186.820958 
L 164.947443 187.723636 
L 162.181818 190.689772 
L 160.851674 192.116364 
L 158.574545 194.558604 
L 156.755921 196.509091 
L 154.967273 198.467709 
L 153.487565 200.901818 
L 152.550487 205.294545 
L 151.613414 209.687273 
L 151.36 210.875208 
L 150.676344 214.08 
L 149.739275 218.472727 
L 148.802205 222.865455 
L 147.865136 227.258182 
L 147.752727 227.785116 
L 146.928052 231.650909 
L 145.990988 236.043636 
L 145.053902 240.436364 
L 144.145455 244.694952 
L 144.11684 244.829091 
L 143.179773 249.221818 
L 142.242695 253.614545 
L 141.305618 258.007273 
L 140.538182 261.604808 
L 140.368549 262.4 
L 139.431463 266.792727 
L 138.494402 271.185455 
L 137.557315 275.578182 
L 136.930909 278.514626 
L 136.620252 279.970909 
L 135.683169 284.363636 
L 134.746101 288.756364 
L 133.809024 293.149091 
L 133.323636 295.424448 
L 132.87195 297.541818 
L 131.934879 301.934545 
L 130.99781 306.327273 
L 130.069054 310.72 
L 130.693023 315.112727 
L 131.384116 319.505455 
L 132.075208 323.898182 
L 132.76629 328.290909 
L 133.323636 331.83352 
L 133.457382 332.683636 
L 134.148481 337.076364 
L 134.839565 341.469091 
L 135.530655 345.861818 
L 136.221741 350.254545 
L 136.91283 354.647273 
L 136.930909 354.762183 
L 137.603932 359.04 
L 138.295018 363.432727 
L 138.986111 367.825455 
L 139.677202 372.218182 
L 140.36828 376.610909 
L 140.538182 377.690821 
L 141.059386 381.003636 
L 141.750467 385.396364 
L 142.441563 389.789091 
L 143.132658 394.181818 
L 144.145455 396.142841 
L 146.630548 398.574545 
L 147.752727 399.580913 
L 151.36 402.815918 
L 151.528771 402.967273 
L 154.967273 406.050939 
L 156.426976 407.36 
L 158.574545 409.285929 
L 161.325219 411.752727 
L 162.181818 412.520926 
L 165.789091 415.755918 
L 166.22345 416.145455 
L 169.396364 418.990938 
L 171.121666 420.538182 
L 173.003636 422.225924 
L 176.019894 424.930909 
L 176.610909 425.460934 
L 180.218182 428.695928 
L 180.918123 429.323636 
L 183.825455 431.93094 
L 185.816337 433.716364 
L 187.432727 435.092878 
L 191.04 435.979716 
L 194.647273 436.083315 
L 198.254545 436.186915 
L 201.861818 436.290515 
L 205.469091 436.394123 
L 209.076364 436.49772 
L 212.683636 436.601325 
L 216.290909 436.704935 
L 219.898182 436.808532 
L 223.505455 436.912129 
L 227.112727 437.015742 
L 230.72 437.119347 
L 234.327273 437.222951 
L 237.934545 437.32654 
L 241.541818 437.430148 
L 245.149091 437.533751 
L 248.756364 437.637366 
L 252.363636 437.740965 
L 255.970909 437.844565 
L 259.578182 437.948173 
L 263.185455 438.051772 
L 265.18095 438.109091 
z
M 205.996335 394.181818 
L 205.469091 393.738456 
L 201.861818 390.503445 
L 201.065262 389.789091 
L 198.254545 387.268447 
L 196.167026 385.396364 
L 194.647273 384.033449 
L 191.268802 381.003636 
L 191.04 380.798447 
L 187.432727 377.563453 
L 186.370573 376.610909 
L 183.825455 374.328436 
L 181.472355 372.218182 
L 180.218182 371.093439 
L 176.610909 367.858437 
L 176.574131 367.825455 
L 173.003636 364.623435 
L 171.811344 363.432727 
L 170.064365 359.04 
L 169.396364 354.79406 
L 169.37327 354.647273 
L 168.68218 350.254545 
L 167.991087 345.861818 
L 167.299998 341.469091 
L 166.608911 337.076364 
L 165.917821 332.683636 
L 165.789091 331.865411 
L 165.226721 328.290909 
L 164.535633 323.898182 
L 163.844546 319.505455 
L 163.153454 315.112727 
L 162.46236 310.72 
L 162.181818 307.759457 
L 162.051984 306.327273 
L 162.181818 305.718645 
L 162.989056 301.934545 
L 163.926137 297.541818 
L 164.863207 293.149091 
L 165.789091 288.808841 
L 165.800286 288.756364 
L 166.737357 284.363636 
L 167.674431 279.970909 
L 168.611509 275.578182 
L 169.396364 271.89901 
L 169.548582 271.185455 
L 170.485643 266.792727 
L 171.422722 262.4 
L 172.3598 258.007273 
L 173.003636 254.989131 
L 173.296866 253.614545 
L 174.233939 249.221818 
L 175.171011 244.829091 
L 176.108095 240.436364 
L 176.610909 238.079319 
L 177.045168 236.043636 
L 177.982241 231.650909 
L 178.919313 227.258182 
L 179.856397 222.865455 
L 180.218182 222.131569 
L 182.927763 218.472727 
L 183.825455 217.509941 
L 187.023503 214.08 
L 187.432727 213.641104 
L 191.04 209.772263 
L 191.119245 209.687273 
L 194.647273 205.903442 
L 195.215002 205.294545 
L 198.254545 202.034615 
L 199.31076 200.901818 
L 201.861818 198.165791 
L 203.406521 196.509091 
L 205.469091 194.296967 
L 207.502271 192.116364 
L 209.076364 190.428139 
L 212.683636 188.758682 
L 216.290909 188.129269 
L 218.615731 187.723636 
L 219.898182 187.499876 
L 223.505455 186.870474 
L 227.112727 186.241065 
L 230.72 185.611656 
L 234.327273 184.982252 
L 237.934545 184.35285 
L 241.541818 183.72345 
L 243.791566 183.330909 
L 245.149091 183.094044 
L 248.756364 182.464629 
L 252.363636 181.835233 
L 255.970909 181.205832 
L 259.578182 180.576423 
L 263.185455 179.947018 
L 266.792727 179.317613 
L 268.967352 178.938182 
L 270.4 178.688212 
L 274.007273 178.05881 
L 277.614545 177.429402 
L 281.221818 176.799993 
L 284.829091 176.170589 
L 288.436364 175.54119 
L 292.043636 174.911768 
L 294.14312 174.545455 
L 295.650909 174.28238 
L 299.258182 173.652965 
L 302.865455 173.023575 
L 306.472727 172.394168 
L 310.08 171.764759 
L 313.687273 171.135351 
L 317.294545 170.508356 
L 320.901818 170.976328 
L 324.509091 173.024205 
L 325.676723 174.545455 
L 326.838257 178.938182 
L 327.829644 183.330909 
L 328.116364 184.601319 
L 328.82104 187.723636 
L 329.812427 192.116364 
L 330.803824 196.509091 
L 331.723636 200.584681 
L 331.79521 200.901818 
L 332.786592 205.294545 
L 333.777989 209.687273 
L 334.769372 214.08 
L 335.330909 216.568085 
L 335.760769 218.472727 
L 336.752163 222.865455 
L 337.743548 227.258182 
L 338.734946 231.650909 
L 338.938182 232.551419 
L 339.726342 236.043636 
L 340.717728 240.436364 
L 341.709126 244.829091 
L 342.545455 248.534775 
L 342.700511 249.221818 
L 343.691894 253.614545 
L 344.683291 258.007273 
L 345.674673 262.4 
L 346.152727 264.518185 
L 346.666072 266.792727 
L 347.657458 271.185455 
L 348.64886 275.578182 
L 349.640246 279.970909 
L 349.76 280.501527 
L 350.623072 284.363636 
L 349.774457 288.756364 
L 349.76 288.822206 
L 348.809968 293.149091 
L 347.845475 297.541818 
L 346.880988 301.934545 
L 346.152727 305.251387 
L 345.9165 306.327273 
L 344.952004 310.72 
L 343.987505 315.112727 
L 343.023018 319.505455 
L 342.545455 321.680503 
L 342.058531 323.898182 
L 341.094037 328.290909 
L 340.129549 332.683636 
L 339.165049 337.076364 
L 338.938182 338.109612 
L 338.200555 341.469091 
L 337.236074 345.861818 
L 335.619354 350.254545 
L 335.330909 350.58327 
L 331.723636 353.661211 
L 330.567989 354.647273 
L 328.116364 356.739123 
L 325.41978 359.04 
L 324.509091 359.817051 
L 320.901818 362.894959 
L 320.271564 363.432727 
L 317.294545 365.972887 
L 315.123357 367.825455 
L 313.687273 369.0508 
L 310.08 372.128742 
L 309.975178 372.218182 
L 306.472727 375.20665 
L 304.826957 376.610909 
L 302.865455 378.284572 
L 299.67877 381.003636 
L 299.258182 381.362504 
L 295.650909 384.440411 
L 294.53055 385.396364 
L 292.043636 387.518336 
L 289.382352 389.789091 
L 288.436364 390.596261 
L 284.829091 393.674184 
L 284.234153 394.181818 
L 281.221818 396.7521 
L 277.614545 397.971083 
L 274.007273 397.867489 
L 270.4 397.763882 
L 266.792727 397.660274 
L 263.185455 397.55667 
L 259.578182 397.453074 
L 255.970909 397.349469 
L 252.363636 397.245861 
L 248.756364 397.142256 
L 245.149091 397.038654 
L 241.541818 396.935057 
L 237.934545 396.831455 
L 234.327273 396.727847 
L 230.72 396.624248 
L 227.112727 396.520644 
L 223.505455 396.417037 
L 219.898182 396.313444 
L 216.290909 396.209837 
L 212.683636 396.106229 
L 209.076364 396.002622 
z
" style="fill:#f3c8b2;"/>
   </g>
   <g id="PathCollection_7">
    <path clip-path="url(#pb27a10436d)" d="M 209.076364 396.002622 
L 212.683636 396.106229 
L 216.290909 396.209837 
L 219.898182 396.313444 
L 223.505455 396.417037 
L 227.112727 396.520644 
L 230.72 396.624248 
L 234.327273 396.727847 
L 237.934545 396.831455 
L 241.541818 396.935057 
L 245.149091 397.038654 
L 248.756364 397.142256 
L 252.363636 397.245861 
L 255.970909 397.349469 
L 259.578182 397.453074 
L 263.185455 397.55667 
L 266.792727 397.660274 
L 270.4 397.763882 
L 274.007273 397.867489 
L 277.614545 397.971083 
L 281.221818 396.7521 
L 284.234153 394.181818 
L 284.829091 393.674184 
L 288.436364 390.596261 
L 289.382352 389.789091 
L 292.043636 387.518336 
L 294.53055 385.396364 
L 295.650909 384.440411 
L 299.258182 381.362504 
L 299.67877 381.003636 
L 302.865455 378.284572 
L 304.826957 376.610909 
L 306.472727 375.20665 
L 309.975178 372.218182 
L 310.08 372.128742 
L 313.687273 369.0508 
L 315.123357 367.825455 
L 317.294545 365.972887 
L 320.271564 363.432727 
L 320.901818 362.894959 
L 324.509091 359.817051 
L 325.41978 359.04 
L 328.116364 356.739123 
L 330.567989 354.647273 
L 331.723636 353.661211 
L 335.330909 350.58327 
L 335.619354 350.254545 
L 337.236074 345.861818 
L 338.200555 341.469091 
L 338.938182 338.109612 
L 339.165049 337.076364 
L 340.129549 332.683636 
L 341.094037 328.290909 
L 342.058531 323.898182 
L 342.545455 321.680503 
L 343.023018 319.505455 
L 343.987505 315.112727 
L 344.952004 310.72 
L 345.9165 306.327273 
L 346.152727 305.251387 
L 346.880988 301.934545 
L 347.845475 297.541818 
L 348.809968 293.149091 
L 349.76 288.822206 
L 349.774457 288.756364 
L 350.623072 284.363636 
L 349.76 280.501527 
L 349.640246 279.970909 
L 348.64886 275.578182 
L 347.657458 271.185455 
L 346.666072 266.792727 
L 346.152727 264.518185 
L 345.674673 262.4 
L 344.683291 258.007273 
L 343.691894 253.614545 
L 342.700511 249.221818 
L 342.545455 248.534775 
L 341.709126 244.829091 
L 340.717728 240.436364 
L 339.726342 236.043636 
L 338.938182 232.551419 
L 338.734946 231.650909 
L 337.743548 227.258182 
L 336.752163 222.865455 
L 335.760769 218.472727 
L 335.330909 216.568085 
L 334.769372 214.08 
L 333.777989 209.687273 
L 332.786592 205.294545 
L 331.79521 200.901818 
L 331.723636 200.584681 
L 330.803824 196.509091 
L 329.812427 192.116364 
L 328.82104 187.723636 
L 328.116364 184.601319 
L 327.829644 183.330909 
L 326.838257 178.938182 
L 325.676723 174.545455 
L 324.509091 173.024205 
L 320.901818 170.976328 
L 317.294545 170.508356 
L 313.687273 171.135351 
L 310.08 171.764759 
L 306.472727 172.394168 
L 302.865455 173.023575 
L 299.258182 173.652965 
L 295.650909 174.28238 
L 294.14312 174.545455 
L 292.043636 174.911768 
L 288.436364 175.54119 
L 284.829091 176.170589 
L 281.221818 176.799993 
L 277.614545 177.429402 
L 274.007273 178.05881 
L 270.4 178.688212 
L 268.967352 178.938182 
L 266.792727 179.317613 
L 263.185455 179.947018 
L 259.578182 180.576423 
L 255.970909 181.205832 
L 252.363636 181.835233 
L 248.756364 182.464629 
L 245.149091 183.094044 
L 243.791566 183.330909 
L 241.541818 183.72345 
L 237.934545 184.35285 
L 234.327273 184.982252 
L 230.72 185.611656 
L 227.112727 186.241065 
L 223.505455 186.870474 
L 219.898182 187.499876 
L 218.615731 187.723636 
L 216.290909 188.129269 
L 212.683636 188.758682 
L 209.076364 190.428139 
L 207.502271 192.116364 
L 205.469091 194.296967 
L 203.406521 196.509091 
L 201.861818 198.165791 
L 199.31076 200.901818 
L 198.254545 202.034615 
L 195.215002 205.294545 
L 194.647273 205.903442 
L 191.119245 209.687273 
L 191.04 209.772263 
L 187.432727 213.641104 
L 187.023503 214.08 
L 183.825455 217.509941 
L 182.927763 218.472727 
L 180.218182 222.131569 
L 179.856397 222.865455 
L 178.919313 227.258182 
L 177.982241 231.650909 
L 177.045168 236.043636 
L 176.610909 238.079319 
L 176.108095 240.436364 
L 175.171011 244.829091 
L 174.233939 249.221818 
L 173.296866 253.614545 
L 173.003636 254.989131 
L 172.3598 258.007273 
L 171.422722 262.4 
L 170.485643 266.792727 
L 169.548582 271.185455 
L 169.396364 271.89901 
L 168.611509 275.578182 
L 167.674431 279.970909 
L 166.737357 284.363636 
L 165.800286 288.756364 
L 165.789091 288.808841 
L 164.863207 293.149091 
L 163.926137 297.541818 
L 162.989056 301.934545 
L 162.181818 305.718645 
L 162.051984 306.327273 
L 162.181818 307.759457 
L 162.46236 310.72 
L 163.153454 315.112727 
L 163.844546 319.505455 
L 164.535633 323.898182 
L 165.226721 328.290909 
L 165.789091 331.865411 
L 165.917821 332.683636 
L 166.608911 337.076364 
L 167.299998 341.469091 
L 167.991087 345.861818 
L 168.68218 350.254545 
L 169.37327 354.647273 
L 169.396364 354.79406 
L 170.064365 359.04 
L 171.811344 363.432727 
L 173.003636 364.623435 
L 176.574131 367.825455 
L 176.610909 367.858437 
L 180.218182 371.093439 
L 181.472355 372.218182 
L 183.825455 374.328436 
L 186.370573 376.610909 
L 187.432727 377.563453 
L 191.04 380.798447 
L 191.268802 381.003636 
L 194.647273 384.033449 
L 196.167026 385.396364 
L 198.254545 387.268447 
L 201.065262 389.789091 
L 201.861818 390.503445 
L 205.469091 393.738456 
L 205.996335 394.181818 
z
M 226.110592 354.647273 
L 223.505455 352.310981 
L 221.212373 350.254545 
L 219.898182 349.07598 
L 216.314143 345.861818 
L 216.290909 345.840982 
L 212.683636 342.605972 
L 211.41593 341.469091 
L 209.076364 339.370966 
L 206.517702 337.076364 
L 205.469091 336.135971 
L 201.861818 332.900977 
L 201.619467 332.683636 
L 198.254545 329.389899 
L 197.687147 328.290909 
L 196.99606 323.898182 
L 196.304964 319.505455 
L 195.613875 315.112727 
L 194.922787 310.72 
L 194.647273 308.968765 
L 194.231698 306.327273 
L 194.043239 301.934545 
L 194.647273 299.103019 
L 194.980315 297.541818 
L 195.917388 293.149091 
L 196.854459 288.756364 
L 197.791533 284.363636 
L 198.254545 282.193164 
L 198.728605 279.970909 
L 199.665682 275.578182 
L 200.602753 271.185455 
L 201.539832 266.792727 
L 201.861818 265.283347 
L 202.476904 262.4 
L 203.413977 258.007273 
L 204.351051 253.614545 
L 205.288125 249.221818 
L 205.469091 248.373504 
L 206.255768 244.829091 
L 209.076364 240.461257 
L 209.099574 240.436364 
L 212.683636 236.59242 
L 213.195319 236.043636 
L 216.290909 232.7236 
L 217.291078 231.650909 
L 219.898182 228.854762 
L 221.613974 227.258182 
L 223.505455 225.885704 
L 227.112727 225.256304 
L 230.72 224.626894 
L 234.327273 223.997495 
L 237.934545 223.368088 
L 240.815263 222.865455 
L 241.541818 222.738684 
L 245.149091 222.10928 
L 248.756364 221.479877 
L 252.363636 220.850473 
L 255.970909 220.221068 
L 259.578182 219.591664 
L 263.185455 218.962262 
L 265.991092 218.472727 
L 266.792727 218.332855 
L 270.4 217.703452 
L 274.007273 217.074048 
L 277.614545 216.444644 
L 281.221818 215.815239 
L 284.829091 215.185832 
L 288.436364 214.556431 
L 291.166896 214.08 
L 292.043636 213.927024 
L 292.480141 214.08 
L 295.650909 216.301799 
L 296.736925 218.472727 
L 297.728313 222.865455 
L 298.71971 227.258182 
L 299.258182 229.644081 
L 299.711101 231.650909 
L 300.70249 236.043636 
L 301.693882 240.436364 
L 302.685269 244.829091 
L 302.865455 245.627469 
L 303.676661 249.221818 
L 304.668053 253.614545 
L 305.659447 258.007273 
L 306.472727 261.610821 
L 306.650836 262.4 
L 307.642226 266.792727 
L 308.633617 271.185455 
L 309.625008 275.578182 
L 310.08 277.594187 
L 310.616402 279.970909 
L 311.607791 284.363636 
L 312.599181 288.756364 
L 311.800893 293.149091 
L 310.836405 297.541818 
L 310.08 300.986827 
L 309.871913 301.934545 
L 308.907424 306.327273 
L 307.942928 310.72 
L 306.978436 315.112727 
L 306.472727 317.415956 
L 306.013947 319.505455 
L 304.611215 323.898182 
L 302.865455 325.791404 
L 299.936074 328.290909 
L 299.258182 328.869324 
L 295.650909 331.947243 
L 294.787871 332.683636 
L 292.043636 335.02517 
L 289.639668 337.076364 
L 288.436364 338.103089 
L 284.829091 341.181003 
L 284.491457 341.469091 
L 281.221818 344.258931 
L 279.343262 345.861818 
L 277.614545 347.33685 
L 274.195061 350.254545 
L 274.007273 350.414777 
L 270.4 353.492692 
L 269.046852 354.647273 
L 266.792727 356.570617 
L 263.185455 357.061574 
L 259.578182 356.957976 
L 255.970909 356.854369 
L 252.363636 356.750765 
L 248.756364 356.647166 
L 245.149091 356.543564 
L 241.541818 356.439962 
L 237.934545 356.336359 
L 234.327273 356.232757 
L 230.72 356.129154 
L 227.112727 355.408422 
z
" style="fill:#f6a586;"/>
   </g>
   <g id="PathCollection_8">
    <path clip-path="url(#pb27a10436d)" d="M 227.112727 355.408422 
L 230.72 356.129154 
L 234.327273 356.232757 
L 237.934545 356.336359 
L 241.541818 356.439962 
L 245.149091 356.543564 
L 248.756364 356.647166 
L 252.363636 356.750765 
L 255.970909 356.854369 
L 259.578182 356.957976 
L 263.185455 357.061574 
L 266.792727 356.570617 
L 269.046852 354.647273 
L 270.4 353.492692 
L 274.007273 350.414777 
L 274.195061 350.254545 
L 277.614545 347.33685 
L 279.343262 345.861818 
L 281.221818 344.258931 
L 284.491457 341.469091 
L 284.829091 341.181003 
L 288.436364 338.103089 
L 289.639668 337.076364 
L 292.043636 335.02517 
L 294.787871 332.683636 
L 295.650909 331.947243 
L 299.258182 328.869324 
L 299.936074 328.290909 
L 302.865455 325.791404 
L 304.611215 323.898182 
L 306.013947 319.505455 
L 306.472727 317.415956 
L 306.978436 315.112727 
L 307.942928 310.72 
L 308.907424 306.327273 
L 309.871913 301.934545 
L 310.08 300.986827 
L 310.836405 297.541818 
L 311.800893 293.149091 
L 312.599181 288.756364 
L 311.607791 284.363636 
L 310.616402 279.970909 
L 310.08 277.594187 
L 309.625008 275.578182 
L 308.633617 271.185455 
L 307.642226 266.792727 
L 306.650836 262.4 
L 306.472727 261.610821 
L 305.659447 258.007273 
L 304.668053 253.614545 
L 303.676661 249.221818 
L 302.865455 245.627469 
L 302.685269 244.829091 
L 301.693882 240.436364 
L 300.70249 236.043636 
L 299.711101 231.650909 
L 299.258182 229.644081 
L 298.71971 227.258182 
L 297.728313 222.865455 
L 296.736925 218.472727 
L 295.650909 216.301799 
L 292.480141 214.08 
L 292.043636 213.927024 
L 291.166896 214.08 
L 288.436364 214.556431 
L 284.829091 215.185832 
L 281.221818 215.815239 
L 277.614545 216.444644 
L 274.007273 217.074048 
L 270.4 217.703452 
L 266.792727 218.332855 
L 265.991092 218.472727 
L 263.185455 218.962262 
L 259.578182 219.591664 
L 255.970909 220.221068 
L 252.363636 220.850473 
L 248.756364 221.479877 
L 245.149091 222.10928 
L 241.541818 222.738684 
L 240.815263 222.865455 
L 237.934545 223.368088 
L 234.327273 223.997495 
L 230.72 224.626894 
L 227.112727 225.256304 
L 223.505455 225.885704 
L 221.613974 227.258182 
L 219.898182 228.854762 
L 217.291078 231.650909 
L 216.290909 232.7236 
L 213.195319 236.043636 
L 212.683636 236.59242 
L 209.099574 240.436364 
L 209.076364 240.461257 
L 206.255768 244.829091 
L 205.469091 248.373504 
L 205.288125 249.221818 
L 204.351051 253.614545 
L 203.413977 258.007273 
L 202.476904 262.4 
L 201.861818 265.283347 
L 201.539832 266.792727 
L 200.602753 271.185455 
L 199.665682 275.578182 
L 198.728605 279.970909 
L 198.254545 282.193164 
L 197.791533 284.363636 
L 196.854459 288.756364 
L 195.917388 293.149091 
L 194.980315 297.541818 
L 194.647273 299.103019 
L 194.043239 301.934545 
L 194.231698 306.327273 
L 194.647273 308.968765 
L 194.922787 310.72 
L 195.613875 315.112727 
L 196.304964 319.505455 
L 196.99606 323.898182 
L 197.687147 328.290909 
L 198.254545 329.389899 
L 201.619467 332.683636 
L 201.861818 332.900977 
L 205.469091 336.135971 
L 206.517702 337.076364 
L 209.076364 339.370966 
L 211.41593 341.469091 
L 212.683636 342.605972 
L 216.290909 345.840982 
L 216.314143 345.861818 
L 219.898182 349.07598 
L 221.212373 350.254545 
L 223.505455 352.310981 
L 226.110592 354.647273 
z
M 244.400073 319.505455 
L 241.541818 316.861941 
L 239.650512 315.112727 
L 237.934545 313.52568 
L 234.90095 310.72 
L 234.327273 310.189423 
L 230.72 306.853164 
L 230.151388 306.327273 
L 227.112727 303.516909 
L 225.401822 301.934545 
L 223.505455 298.913356 
L 223.084829 297.541818 
L 223.505455 295.530034 
L 224.003264 293.149091 
L 224.921698 288.756364 
L 225.840133 284.363636 
L 226.758566 279.970909 
L 227.112727 278.277012 
L 227.677 275.578182 
L 228.595435 271.185455 
L 229.513869 266.792727 
L 230.645273 262.4 
L 230.72 262.28567 
L 234.327273 259.132642 
L 237.934545 258.461584 
L 240.556115 258.007273 
L 241.541818 257.836453 
L 245.149091 257.21132 
L 248.756364 256.58619 
L 252.363636 255.961059 
L 255.970909 255.335927 
L 259.578182 255.540164 
L 262.918239 258.007273 
L 263.185455 258.226585 
L 266.792727 261.18719 
L 268.270444 262.4 
L 270.4 264.147794 
L 272.14333 266.792727 
L 273.584318 271.185455 
L 274.007273 272.950301 
L 274.637058 275.578182 
L 275.689796 279.970909 
L 276.742535 284.363636 
L 277.614545 288.002242 
L 277.795275 288.756364 
L 278.807076 293.149091 
L 277.962369 297.541818 
L 277.614545 298.87958 
L 276.276528 301.934545 
L 274.007273 303.865499 
L 271.114197 306.327273 
L 270.4 306.934997 
L 266.792727 310.004496 
L 265.951868 310.72 
L 263.185455 313.073998 
L 260.789541 315.112727 
L 259.578182 316.143497 
L 255.970909 319.213 
L 255.422995 319.505455 
L 252.363636 320.752757 
L 248.756364 320.536846 
L 245.149091 320.034364 
z
" style="fill:#e7745b;"/>
   </g>
   <g id="PathCollection_9">
    <path clip-path="url(#pb27a10436d)" d="M 245.149091 320.034364 
L 248.756364 320.536846 
L 252.363636 320.752757 
L 255.422995 319.505455 
L 255.970909 319.213 
L 259.578182 316.143497 
L 260.789541 315.112727 
L 263.185455 313.073998 
L 265.951868 310.72 
L 266.792727 310.004496 
L 270.4 306.934997 
L 271.114197 306.327273 
L 274.007273 303.865499 
L 276.276528 301.934545 
L 277.614545 298.87958 
L 277.962369 297.541818 
L 278.807076 293.149091 
L 277.795275 288.756364 
L 277.614545 288.002242 
L 276.742535 284.363636 
L 275.689796 279.970909 
L 274.637058 275.578182 
L 274.007273 272.950301 
L 273.584318 271.185455 
L 272.14333 266.792727 
L 270.4 264.147794 
L 268.270444 262.4 
L 266.792727 261.18719 
L 263.185455 258.226585 
L 262.918239 258.007273 
L 259.578182 255.540164 
L 255.970909 255.335927 
L 252.363636 255.961059 
L 248.756364 256.58619 
L 245.149091 257.21132 
L 241.541818 257.836453 
L 240.556115 258.007273 
L 237.934545 258.461584 
L 234.327273 259.132642 
L 230.72 262.28567 
L 230.645273 262.4 
L 229.513869 266.792727 
L 228.595435 271.185455 
L 227.677 275.578182 
L 227.112727 278.277012 
L 226.758566 279.970909 
L 225.840133 284.363636 
L 224.921698 288.756364 
L 224.003264 293.149091 
L 223.505455 295.530034 
L 223.084829 297.541818 
L 223.505455 298.913356 
L 225.401822 301.934545 
L 227.112727 303.516909 
L 230.151388 306.327273 
L 230.72 306.853164 
L 234.327273 310.189423 
L 234.90095 310.72 
L 237.934545 313.52568 
L 239.650512 315.112727 
L 241.541818 316.861941 
L 244.400073 319.505455 
z
" style="fill:#c83836;"/>
   </g>
   <g id="matplotlib.axis_1">
    <g id="xtick_1">
     <g id="line2d_1">
      <defs>
       <path d="M 0 0 
L 0 3.5 
" id="m5042f7f2f9" style="stroke:#000000;stroke-width:0.8;"/>
      </defs>
      <g>
       <use style="stroke:#000000;stroke-width:0.8;" x="107.712" xlink:href="#m5042f7f2f9" y="504"/>
      </g>
     </g>
     <g id="text_1">
      <!-- 4 -->
      <defs>
       <path d="M 10.59375 35.5 
L 73.1875 35.5 
L 73.1875 27.203125 
L 10.59375 27.203125 
z
" id="DejaVuSans-2212"/>
       <path d="M 37.796875 64.3125 
L 12.890625 25.390625 
L 37.796875 25.390625 
z
M 35.203125 72.90625 
L 47.609375 72.90625 
L 47.609375 25.390625 
L 58.015625 25.390625 
L 58.015625 17.1875 
L 47.609375 17.1875 
L 47.609375 0 
L 37.796875 0 
L 37.796875 17.1875 
L 4.890625 17.1875 
L 4.890625 26.703125 
z
" id="DejaVuSans-34"/>
      </defs>
      <g transform="translate(100.340906 518.598438)scale(0.1 -0.1)">
       <use xlink:href="#DejaVuSans-2212"/>
       <use x="83.789062" xlink:href="#DejaVuSans-34"/>
      </g>
     </g>
    </g>
    <g id="xtick_2">
     <g id="line2d_2">
      <g>
       <use style="stroke:#000000;stroke-width:0.8;" x="179.136" xlink:href="#m5042f7f2f9" y="504"/>
      </g>
     </g>
     <g id="text_2">
      <!-- 2 -->
      <defs>
       <path d="M 19.1875 8.296875 
L 53.609375 8.296875 
L 53.609375 0 
L 7.328125 0 
L 7.328125 8.296875 
Q 12.9375 14.109375 22.625 23.890625 
Q 32.328125 33.6875 34.8125 36.53125 
Q 39.546875 41.84375 41.421875 45.53125 
Q 43.3125 49.21875 43.3125 52.78125 
Q 43.3125 58.59375 39.234375 62.25 
Q 35.15625 65.921875 28.609375 65.921875 
Q 23.96875 65.921875 18.8125 64.3125 
Q 13.671875 62.703125 7.8125 59.421875 
L 7.8125 69.390625 
Q 13.765625 71.78125 18.9375 73 
Q 24.125 74.21875 28.421875 74.21875 
Q 39.75 74.21875 46.484375 68.546875 
Q 53.21875 62.890625 53.21875 53.421875 
Q 53.21875 48.921875 51.53125 44.890625 
Q 49.859375 40.875 45.40625 35.40625 
Q 44.1875 33.984375 37.640625 27.21875 
Q 31.109375 20.453125 19.1875 8.296875 
z
" id="DejaVuSans-32"/>
      </defs>
      <g transform="translate(171.764906 518.598438)scale(0.1 -0.1)">
       <use xlink:href="#DejaVuSans-2212"/>
       <use x="83.789062" xlink:href="#DejaVuSans-32"/>
      </g>
     </g>
    </g>
    <g id="xtick_3">
     <g id="line2d_3">
      <g>
       <use style="stroke:#000000;stroke-width:0.8;" x="250.56" xlink:href="#m5042f7f2f9" y="504"/>
      </g>
     </g>
     <g id="text_3">
      <!-- 0 -->
      <defs>
       <path d="M 31.78125 66.40625 
Q 24.171875 66.40625 20.328125 58.90625 
Q 16.5 51.421875 16.5 36.375 
Q 16.5 21.390625 20.328125 13.890625 
Q 24.171875 6.390625 31.78125 6.390625 
Q 39.453125 6.390625 43.28125 13.890625 
Q 47.125 21.390625 47.125 36.375 
Q 47.125 51.421875 43.28125 58.90625 
Q 39.453125 66.40625 31.78125 66.40625 
z
M 31.78125 74.21875 
Q 44.046875 74.21875 50.515625 64.515625 
Q 56.984375 54.828125 56.984375 36.375 
Q 56.984375 17.96875 50.515625 8.265625 
Q 44.046875 -1.421875 31.78125 -1.421875 
Q 19.53125 -1.421875 13.0625 8.265625 
Q 6.59375 17.96875 6.59375 36.375 
Q 6.59375 54.828125 13.0625 64.515625 
Q 19.53125 74.21875 31.78125 74.21875 
z
" id="DejaVuSans-30"/>
      </defs>
      <g transform="translate(247.37875 518.598438)scale(0.1 -0.1)">
       <use xlink:href="#DejaVuSans-30"/>
      </g>
     </g>
    </g>
    <g id="xtick_4">
     <g id="line2d_4">
      <g>
       <use style="stroke:#000000;stroke-width:0.8;" x="321.984" xlink:href="#m5042f7f2f9" y="504"/>
      </g>
     </g>
     <g id="text_4">
      <!-- 2 -->
      <g transform="translate(318.80275 518.598438)scale(0.1 -0.1)">
       <use xlink:href="#DejaVuSans-32"/>
      </g>
     </g>
    </g>
    <g id="xtick_5">
     <g id="line2d_5">
      <g>
       <use style="stroke:#000000;stroke-width:0.8;" x="393.408" xlink:href="#m5042f7f2f9" y="504"/>
      </g>
     </g>
     <g id="text_5">
      <!-- 4 -->
      <g transform="translate(390.22675 518.598438)scale(0.1 -0.1)">
       <use xlink:href="#DejaVuSans-34"/>
      </g>
     </g>
    </g>
   </g>
   <g id="matplotlib.axis_2">
    <g id="ytick_1">
     <g id="line2d_6">
      <defs>
       <path d="M 0 0 
L -3.5 0 
" id="mea1d37fa84" style="stroke:#000000;stroke-width:0.8;"/>
      </defs>
      <g>
       <use style="stroke:#000000;stroke-width:0.8;" x="72" xlink:href="#mea1d37fa84" y="460.512"/>
      </g>
     </g>
     <g id="text_6">
      <!-- 4 -->
      <g transform="translate(50.257812 464.311219)scale(0.1 -0.1)">
       <use xlink:href="#DejaVuSans-2212"/>
       <use x="83.789062" xlink:href="#DejaVuSans-34"/>
      </g>
     </g>
    </g>
    <g id="ytick_2">
     <g id="line2d_7">
      <g>
       <use style="stroke:#000000;stroke-width:0.8;" x="72" xlink:href="#mea1d37fa84" y="373.536"/>
      </g>
     </g>
     <g id="text_7">
      <!-- 2 -->
      <g transform="translate(50.257812 377.335219)scale(0.1 -0.1)">
       <use xlink:href="#DejaVuSans-2212"/>
       <use x="83.789062" xlink:href="#DejaVuSans-32"/>
      </g>
     </g>
    </g>
    <g id="ytick_3">
     <g id="line2d_8">
      <g>
       <use style="stroke:#000000;stroke-width:0.8;" x="72" xlink:href="#mea1d37fa84" y="286.56"/>
      </g>
     </g>
     <g id="text_8">
      <!-- 0 -->
      <g transform="translate(58.6375 290.359219)scale(0.1 -0.1)">
       <use xlink:href="#DejaVuSans-30"/>
      </g>
     </g>
    </g>
    <g id="ytick_4">
     <g id="line2d_9">
      <g>
       <use style="stroke:#000000;stroke-width:0.8;" x="72" xlink:href="#mea1d37fa84" y="199.584"/>
      </g>
     </g>
     <g id="text_9">
      <!-- 2 -->
      <g transform="translate(58.6375 203.383219)scale(0.1 -0.1)">
       <use xlink:href="#DejaVuSans-32"/>
      </g>
     </g>
    </g>
    <g id="ytick_5">
     <g id="line2d_10">
      <g>
       <use style="stroke:#000000;stroke-width:0.8;" x="72" xlink:href="#mea1d37fa84" y="112.608"/>
      </g>
     </g>
     <g id="text_10">
      <!-- 4 -->
      <g transform="translate(58.6375 116.407219)scale(0.1 -0.1)">
       <use xlink:href="#DejaVuSans-34"/>
      </g>
     </g>
    </g>
   </g>
   <g id="patch_3">
    <path d="M 72 504 
L 72 69.12 
" style="fill:none;stroke:#000000;stroke-linecap:square;stroke-linejoin:miter;stroke-width:0.8;"/>
   </g>
   <g id="patch_4">
    <path d="M 429.12 504 
L 429.12 69.12 
" style="fill:none;stroke:#000000;stroke-linecap:square;stroke-linejoin:miter;stroke-width:0.8;"/>
   </g>
   <g id="patch_5">
    <path d="M 72 504 
L 429.12 504 
" style="fill:none;stroke:#000000;stroke-linecap:square;stroke-linejoin:miter;stroke-width:0.8;"/>
   </g>
   <g id="patch_6">
    <path d="M 72 69.12 
L 429.12 69.12 
" style="fill:none;stroke:#000000;stroke-linecap:square;stroke-linejoin:miter;stroke-width:0.8;"/>
   </g>
  </g>
  <g id="axes_2">
   <g id="patch_7">
    <path clip-path="url(#p6344fc44f5)" d="M 451.44 504 
L 451.44 455.68 
L 451.44 117.44 
L 451.44 69.12 
L 473.184 69.12 
L 473.184 117.44 
L 473.184 455.68 
L 473.184 504 
z
" style="fill:#ffffff;stroke:#ffffff;stroke-linejoin:miter;stroke-width:0.01;"/>
   </g>
   <g id="QuadMesh_1">
    <path clip-path="url(#p6344fc44f5)" d="M 451.44 504 
L 473.184 504 
L 473.184 455.68 
L 451.44 455.68 
L 451.44 504 
" style="fill:#4b64d5;"/>
    <path clip-path="url(#p6344fc44f5)" d="M 451.44 455.68 
L 473.184 455.68 
L 473.184 407.36 
L 451.44 407.36 
L 451.44 455.68 
" style="fill:#6f92f3;"/>
    <path clip-path="url(#p6344fc44f5)" d="M 451.44 407.36 
L 473.184 407.36 
L 473.184 359.04 
L 451.44 359.04 
L 451.44 407.36 
" style="fill:#97b8ff;"/>
    <path clip-path="url(#p6344fc44f5)" d="M 451.44 359.04 
L 473.184 359.04 
L 473.184 310.72 
L 451.44 310.72 
L 451.44 359.04 
" style="fill:#bcd2f7;"/>
    <path clip-path="url(#p6344fc44f5)" d="M 451.44 310.72 
L 473.184 310.72 
L 473.184 262.4 
L 451.44 262.4 
L 451.44 310.72 
" style="fill:#dddcdc;"/>
    <path clip-path="url(#p6344fc44f5)" d="M 451.44 262.4 
L 473.184 262.4 
L 473.184 214.08 
L 451.44 214.08 
L 451.44 262.4 
" style="fill:#f3c8b2;"/>
    <path clip-path="url(#p6344fc44f5)" d="M 451.44 214.08 
L 473.184 214.08 
L 473.184 165.76 
L 451.44 165.76 
L 451.44 214.08 
" style="fill:#f6a586;"/>
    <path clip-path="url(#p6344fc44f5)" d="M 451.44 165.76 
L 473.184 165.76 
L 473.184 117.44 
L 451.44 117.44 
L 451.44 165.76 
" style="fill:#e7745b;"/>
    <path clip-path="url(#p6344fc44f5)" d="M 451.44 117.44 
L 473.184 117.44 
L 473.184 69.12 
L 451.44 69.12 
L 451.44 117.44 
" style="fill:#c83836;"/>
   </g>
   <g id="matplotlib.axis_3"/>
   <g id="matplotlib.axis_4">
    <g id="ytick_6">
     <g id="line2d_11">
      <defs>
       <path d="M 0 0 
L 3.5 0 
" id="m6a9773ae9e" style="stroke:#000000;stroke-width:0.8;"/>
      </defs>
      <g>
       <use style="stroke:#000000;stroke-width:0.8;" x="473.184" xlink:href="#m6a9773ae9e" y="504"/>
      </g>
     </g>
     <g id="text_11">
      <!-- 160 -->
      <defs>
       <path d="M 12.40625 8.296875 
L 28.515625 8.296875 
L 28.515625 63.921875 
L 10.984375 60.40625 
L 10.984375 69.390625 
L 28.421875 72.90625 
L 38.28125 72.90625 
L 38.28125 8.296875 
L 54.390625 8.296875 
L 54.390625 0 
L 12.40625 0 
z
" id="DejaVuSans-31"/>
       <path d="M 33.015625 40.375 
Q 26.375 40.375 22.484375 35.828125 
Q 18.609375 31.296875 18.609375 23.390625 
Q 18.609375 15.53125 22.484375 10.953125 
Q 26.375 6.390625 33.015625 6.390625 
Q 39.65625 6.390625 43.53125 10.953125 
Q 47.40625 15.53125 47.40625 23.390625 
Q 47.40625 31.296875 43.53125 35.828125 
Q 39.65625 40.375 33.015625 40.375 
z
M 52.59375 71.296875 
L 52.59375 62.3125 
Q 48.875 64.0625 45.09375 64.984375 
Q 41.3125 65.921875 37.59375 65.921875 
Q 27.828125 65.921875 22.671875 59.328125 
Q 17.53125 52.734375 16.796875 39.40625 
Q 19.671875 43.65625 24.015625 45.921875 
Q 28.375 48.1875 33.59375 48.1875 
Q 44.578125 48.1875 50.953125 41.515625 
Q 57.328125 34.859375 57.328125 23.390625 
Q 57.328125 12.15625 50.6875 5.359375 
Q 44.046875 -1.421875 33.015625 -1.421875 
Q 20.359375 -1.421875 13.671875 8.265625 
Q 6.984375 17.96875 6.984375 36.375 
Q 6.984375 53.65625 15.1875 63.9375 
Q 23.390625 74.21875 37.203125 74.21875 
Q 40.921875 74.21875 44.703125 73.484375 
Q 48.484375 72.75 52.59375 71.296875 
z
" id="DejaVuSans-36"/>
      </defs>
      <g transform="translate(480.184 507.799219)scale(0.1 -0.1)">
       <use xlink:href="#DejaVuSans-2212"/>
       <use x="83.789062" xlink:href="#DejaVuSans-31"/>
       <use x="147.412109" xlink:href="#DejaVuSans-36"/>
       <use x="211.035156" xlink:href="#DejaVuSans-30"/>
      </g>
     </g>
    </g>
    <g id="ytick_7">
     <g id="line2d_12">
      <g>
       <use style="stroke:#000000;stroke-width:0.8;" x="473.184" xlink:href="#m6a9773ae9e" y="455.68"/>
      </g>
     </g>
     <g id="text_12">
      <!-- 140 -->
      <g transform="translate(480.184 459.479219)scale(0.1 -0.1)">
       <use xlink:href="#DejaVuSans-2212"/>
       <use x="83.789062" xlink:href="#DejaVuSans-31"/>
       <use x="147.412109" xlink:href="#DejaVuSans-34"/>
       <use x="211.035156" xlink:href="#DejaVuSans-30"/>
      </g>
     </g>
    </g>
    <g id="ytick_8">
     <g id="line2d_13">
      <g>
       <use style="stroke:#000000;stroke-width:0.8;" x="473.184" xlink:href="#m6a9773ae9e" y="407.36"/>
      </g>
     </g>
     <g id="text_13">
      <!-- 120 -->
      <g transform="translate(480.184 411.159219)scale(0.1 -0.1)">
       <use xlink:href="#DejaVuSans-2212"/>
       <use x="83.789062" xlink:href="#DejaVuSans-31"/>
       <use x="147.412109" xlink:href="#DejaVuSans-32"/>
       <use x="211.035156" xlink:href="#DejaVuSans-30"/>
      </g>
     </g>
    </g>
    <g id="ytick_9">
     <g id="line2d_14">
      <g>
       <use style="stroke:#000000;stroke-width:0.8;" x="473.184" xlink:href="#m6a9773ae9e" y="359.04"/>
      </g>
     </g>
     <g id="text_14">
      <!-- 100 -->
      <g transform="translate(480.184 362.839219)scale(0.1 -0.1)">
       <use xlink:href="#DejaVuSans-2212"/>
       <use x="83.789062" xlink:href="#DejaVuSans-31"/>
       <use x="147.412109" xlink:href="#DejaVuSans-30"/>
       <use x="211.035156" xlink:href="#DejaVuSans-30"/>
      </g>
     </g>
    </g>
    <g id="ytick_10">
     <g id="line2d_15">
      <g>
       <use style="stroke:#000000;stroke-width:0.8;" x="473.184" xlink:href="#m6a9773ae9e" y="310.72"/>
      </g>
     </g>
     <g id="text_15">
      <!-- 80 -->
      <defs>
       <path d="M 31.78125 34.625 
Q 24.75 34.625 20.71875 30.859375 
Q 16.703125 27.09375 16.703125 20.515625 
Q 16.703125 13.921875 20.71875 10.15625 
Q 24.75 6.390625 31.78125 6.390625 
Q 38.8125 6.390625 42.859375 10.171875 
Q 46.921875 13.96875 46.921875 20.515625 
Q 46.921875 27.09375 42.890625 30.859375 
Q 38.875 34.625 31.78125 34.625 
z
M 21.921875 38.8125 
Q 15.578125 40.375 12.03125 44.71875 
Q 8.5 49.078125 8.5 55.328125 
Q 8.5 64.0625 14.71875 69.140625 
Q 20.953125 74.21875 31.78125 74.21875 
Q 42.671875 74.21875 48.875 69.140625 
Q 55.078125 64.0625 55.078125 55.328125 
Q 55.078125 49.078125 51.53125 44.71875 
Q 48 40.375 41.703125 38.8125 
Q 48.828125 37.15625 52.796875 32.3125 
Q 56.78125 27.484375 56.78125 20.515625 
Q 56.78125 9.90625 50.3125 4.234375 
Q 43.84375 -1.421875 31.78125 -1.421875 
Q 19.734375 -1.421875 13.25 4.234375 
Q 6.78125 9.90625 6.78125 20.515625 
Q 6.78125 27.484375 10.78125 32.3125 
Q 14.796875 37.15625 21.921875 38.8125 
z
M 18.3125 54.390625 
Q 18.3125 48.734375 21.84375 45.5625 
Q 25.390625 42.390625 31.78125 42.390625 
Q 38.140625 42.390625 41.71875 45.5625 
Q 45.3125 48.734375 45.3125 54.390625 
Q 45.3125 60.0625 41.71875 63.234375 
Q 38.140625 66.40625 31.78125 66.40625 
Q 25.390625 66.40625 21.84375 63.234375 
Q 18.3125 60.0625 18.3125 54.390625 
z
" id="DejaVuSans-38"/>
      </defs>
      <g transform="translate(480.184 314.519219)scale(0.1 -0.1)">
       <use xlink:href="#DejaVuSans-2212"/>
       <use x="83.789062" xlink:href="#DejaVuSans-38"/>
       <use x="147.412109" xlink:href="#DejaVuSans-30"/>
      </g>
     </g>
    </g>
    <g id="ytick_11">
     <g id="line2d_16">
      <g>
       <use style="stroke:#000000;stroke-width:0.8;" x="473.184" xlink:href="#m6a9773ae9e" y="262.4"/>
      </g>
     </g>
     <g id="text_16">
      <!-- 60 -->
      <g transform="translate(480.184 266.199219)scale(0.1 -0.1)">
       <use xlink:href="#DejaVuSans-2212"/>
       <use x="83.789062" xlink:href="#DejaVuSans-36"/>
       <use x="147.412109" xlink:href="#DejaVuSans-30"/>
      </g>
     </g>
    </g>
    <g id="ytick_12">
     <g id="line2d_17">
      <g>
       <use style="stroke:#000000;stroke-width:0.8;" x="473.184" xlink:href="#m6a9773ae9e" y="214.08"/>
      </g>
     </g>
     <g id="text_17">
      <!-- 40 -->
      <g transform="translate(480.184 217.879219)scale(0.1 -0.1)">
       <use xlink:href="#DejaVuSans-2212"/>
       <use x="83.789062" xlink:href="#DejaVuSans-34"/>
       <use x="147.412109" xlink:href="#DejaVuSans-30"/>
      </g>
     </g>
    </g>
    <g id="ytick_13">
     <g id="line2d_18">
      <g>
       <use style="stroke:#000000;stroke-width:0.8;" x="473.184" xlink:href="#m6a9773ae9e" y="165.76"/>
      </g>
     </g>
     <g id="text_18">
      <!-- 20 -->
      <g transform="translate(480.184 169.559219)scale(0.1 -0.1)">
       <use xlink:href="#DejaVuSans-2212"/>
       <use x="83.789062" xlink:href="#DejaVuSans-32"/>
       <use x="147.412109" xlink:href="#DejaVuSans-30"/>
      </g>
     </g>
    </g>
    <g id="ytick_14">
     <g id="line2d_19">
      <g>
       <use style="stroke:#000000;stroke-width:0.8;" x="473.184" xlink:href="#m6a9773ae9e" y="117.44"/>
      </g>
     </g>
     <g id="text_19">
      <!-- 0 -->
      <g transform="translate(480.184 121.239219)scale(0.1 -0.1)">
       <use xlink:href="#DejaVuSans-30"/>
      </g>
     </g>
    </g>
    <g id="ytick_15">
     <g id="line2d_20">
      <g>
       <use style="stroke:#000000;stroke-width:0.8;" x="473.184" xlink:href="#m6a9773ae9e" y="69.12"/>
      </g>
     </g>
     <g id="text_20">
      <!-- 20 -->
      <g transform="translate(480.184 72.919219)scale(0.1 -0.1)">
       <use xlink:href="#DejaVuSans-32"/>
       <use x="63.623047" xlink:href="#DejaVuSans-30"/>
      </g>
     </g>
    </g>
   </g>
   <g id="patch_8">
    <path d="M 451.44 504 
L 451.44 455.68 
L 451.44 117.44 
L 451.44 69.12 
L 473.184 69.12 
L 473.184 117.44 
L 473.184 455.68 
L 473.184 504 
z
" style="fill:none;stroke:#000000;stroke-linejoin:miter;stroke-width:0.8;"/>
   </g>
  </g>
 </g>
 <defs>
  <clipPath id="pb27a10436d">
   <rect height="434.88" width="357.12" x="72" y="69.12"/>
  </clipPath>
  <clipPath id="p6344fc44f5">
   <rect height="434.88" width="21.744" x="451.44" y="69.12"/>
  </clipPath>
 </defs>
</svg>
