<?xml version="1.0" encoding="utf-8" standalone="no"?>
<!DOCTYPE svg PUBLIC "-//W3C//DTD SVG 1.1//EN"
  "http://www.w3.org/Graphics/SVG/1.1/DTD/svg11.dtd">
<!-- Created with matplotlib (http://matplotlib.org/) -->
<svg height="288pt" version="1.1" viewBox="0 0 432 288" width="432pt" xmlns="http://www.w3.org/2000/svg" xmlns:xlink="http://www.w3.org/1999/xlink">
 <defs>
  <style type="text/css">
*{stroke-linecap:butt;stroke-linejoin:round;}
  </style>
 </defs>
 <g id="figure_1">
  <g id="patch_1">
   <path d="M 0 288 
L 432 288 
L 432 0 
L 0 0 
z
" style="fill:#ffffff;"/>
  </g>
  <g id="axes_1">
   <g id="patch_2">
    <path d="M 54 252 
L 388.8 252 
L 388.8 34.56 
L 54 34.56 
z
" style="fill:#ffffff;"/>
   </g>
   <g id="patch_3">
    <path clip-path="url(#p2ccd5f75ee)" d="M 54 252 
L 54 231.071553 
L 166.315449 169.96121 
L 173.705748 169.21192 
L 199.161968 205.448062 
L 180.799416 252 
z
" style="opacity:0.6;stroke-dasharray:0,0;stroke-dashoffset:0;"/>
   </g>
   <g id="patch_4">
    <path clip-path="url(#p2ccd5f75ee)" d="M 54 231.071553 
L 54 201.523113 
L 102.435498 176.437887 
L 166.315449 169.96121 
z
" style="fill:#0143da;opacity:0.6;stroke-dasharray:0,0;stroke-dashoffset:0;"/>
   </g>
   <g id="patch_5">
    <path clip-path="url(#p2ccd5f75ee)" d="M 54 201.523113 
L 54 181.348678 
L 102.435498 176.437887 
z
" style="fill:#0287b4;opacity:0.6;stroke-dasharray:0,0;stroke-dashoffset:0;"/>
   </g>
   <g id="patch_6">
    <path clip-path="url(#p2ccd5f75ee)" d="M 54 181.348678 
L 54 179.813844 
L 104.820191 175.202831 
L 102.435498 176.437887 
z
" style="fill:#03cb8e;opacity:0.6;stroke-dasharray:0,0;stroke-dashoffset:0;"/>
   </g>
   <g id="patch_7">
    <path clip-path="url(#p2ccd5f75ee)" d="M 54 179.813844 
L 54 168.039478 
L 122.009071 166.300539 
L 104.820191 175.202831 
z
" style="fill:#050f68;opacity:0.6;stroke-dasharray:0,0;stroke-dashoffset:0;"/>
   </g>
   <g id="patch_8">
    <path clip-path="url(#p2ccd5f75ee)" d="M 54 168.039478 
L 54 123.099246 
L 116.650419 135.563021 
L 153.141955 150.17651 
L 122.009071 166.300539 
z
" style="fill:#065342;opacity:0.6;stroke-dasharray:0,0;stroke-dashoffset:0;"/>
   </g>
   <g id="patch_9">
    <path clip-path="url(#p2ccd5f75ee)" d="M 54 123.099246 
L 54 110.473882 
L 116.650419 135.563021 
z
" style="fill:#07971c;opacity:0.6;stroke-dasharray:0,0;stroke-dashoffset:0;"/>
   </g>
   <g id="patch_10">
    <path clip-path="url(#p2ccd5f75ee)" d="M 54 110.473882 
L 54 34.56 
L 56.748045 34.56 
L 100.079824 64.407694 
L 155.431379 143.198921 
L 116.650424 135.563023 
z
" style="fill:#08daf6;opacity:0.6;stroke-dasharray:0,0;stroke-dashoffset:0;"/>
   </g>
   <g id="patch_11">
    <path clip-path="url(#p2ccd5f75ee)" d="M 56.748045 34.56 
L 79.111547 34.56 
L 100.079824 64.407694 
z
" style="fill:#0a1ed0;opacity:0.6;stroke-dasharray:0,0;stroke-dashoffset:0;"/>
   </g>
   <g id="patch_12">
    <path clip-path="url(#p2ccd5f75ee)" d="M 100.079824 64.407694 
L -4078.429931 -5883.571691 
L 208.820757 121.339905 
L 193.92886 129.052566 
z
" style="fill:#0b62aa;opacity:0.6;stroke-dasharray:0,0;stroke-dashoffset:0;"/>
   </g>
   <g id="patch_13">
    <path clip-path="url(#p2ccd5f75ee)" d="M 163.039019 145.050721 
L 155.431379 143.198921 
L 100.079824 64.407694 
L 193.92886 129.052566 
z
" style="fill:#0ca684;opacity:0.6;stroke-dasharray:0,0;stroke-dashoffset:0;"/>
   </g>
   <g id="patch_14">
    <path clip-path="url(#p2ccd5f75ee)" d="M 102.435498 176.437887 
L 104.820191 175.202831 
L 167.060899 169.555613 
L 166.315449 169.96121 
z
" style="fill:#0dea5e;opacity:0.6;stroke-dasharray:0,0;stroke-dashoffset:0;"/>
   </g>
   <g id="patch_15">
    <path clip-path="url(#p2ccd5f75ee)" d="M 104.820191 175.202831 
L 122.009071 166.300539 
L 170.784346 165.053394 
L 172.042911 166.844922 
L 167.060899 169.555613 
z
" style="fill:#0f2e38;opacity:0.6;stroke-dasharray:0,0;stroke-dashoffset:0;"/>
   </g>
   <g id="patch_16">
    <path clip-path="url(#p2ccd5f75ee)" d="M 116.650424 135.563023 
L 155.431379 143.198921 
L 158.41476 147.445671 
L 153.141955 150.17651 
z
" style="fill:#107212;opacity:0.6;stroke-dasharray:0,0;stroke-dashoffset:0;"/>
   </g>
   <g id="patch_17">
    <path clip-path="url(#p2ccd5f75ee)" d="M 122.009071 166.300539 
L 153.141955 150.17651 
L 163.148257 154.183658 
L 170.784346 165.053394 
z
" style="fill:#11b5ec;opacity:0.6;stroke-dasharray:0,0;stroke-dashoffset:0;"/>
   </g>
   <g id="patch_18">
    <path clip-path="url(#p2ccd5f75ee)" d="M 146.863607 34.56 
L 205.919269 34.56 
L 239.797465 102.430732 
L 238.376703 106.032586 
L 208.820757 121.339905 
z
" style="fill:#12f9c6;opacity:0.6;stroke-dasharray:0,0;stroke-dashoffset:0;"/>
   </g>
   <g id="patch_19">
    <path clip-path="url(#p2ccd5f75ee)" d="M 153.141955 150.17651 
L 158.41476 147.445671 
L 163.148257 154.183658 
z
" style="fill:#143da0;opacity:0.6;stroke-dasharray:0,0;stroke-dashoffset:0;"/>
   </g>
   <g id="patch_20">
    <path clip-path="url(#p2ccd5f75ee)" d="M 158.41476 147.445671 
L 155.431379 143.198921 
L 163.039019 145.050721 
z
" style="fill:#15817a;opacity:0.6;stroke-dasharray:0,0;stroke-dashoffset:0;"/>
   </g>
   <g id="patch_21">
    <path clip-path="url(#p2ccd5f75ee)" d="M 163.148257 154.183658 
L 158.41476 147.445671 
L 163.039019 145.050722 
L 200.186196 151.532284 
L 181.676295 161.603441 
z
" style="fill:#16c554;opacity:0.6;stroke-dasharray:0,0;stroke-dashoffset:0;"/>
   </g>
   <g id="patch_22">
    <path clip-path="url(#p2ccd5f75ee)" d="M 163.039019 145.050722 
L 193.92886 129.052566 
L 205.012183 136.686955 
L 200.954405 151.114305 
L 200.186196 151.532284 
z
" style="fill:#18092e;opacity:0.6;stroke-dasharray:0,0;stroke-dashoffset:0;"/>
   </g>
   <g id="patch_23">
    <path clip-path="url(#p2ccd5f75ee)" d="M 170.784346 165.053394 
L 163.148257 154.183658 
L 181.676295 161.603441 
L 175.560011 164.931284 
z
" style="fill:#194d08;opacity:0.6;stroke-dasharray:0,0;stroke-dashoffset:0;"/>
   </g>
   <g id="patch_24">
    <path clip-path="url(#p2ccd5f75ee)" d="M 167.060899 169.555613 
L 172.042911 166.844922 
L 173.534565 168.968245 
z
" style="fill:#1a90e2;opacity:0.6;stroke-dasharray:0,0;stroke-dashoffset:0;"/>
   </g>
   <g id="patch_25">
    <path clip-path="url(#p2ccd5f75ee)" d="M 172.042911 166.844922 
L 170.784346 165.053394 
L 175.560011 164.931284 
z
" style="fill:#1bd4bc;opacity:0.6;stroke-dasharray:0,0;stroke-dashoffset:0;"/>
   </g>
   <g id="patch_26">
    <path clip-path="url(#p2ccd5f75ee)" d="M 173.534565 168.968245 
L 172.042911 166.844922 
L 175.560011 164.931284 
L 189.120471 164.584553 
L 195.166048 167.00558 
z
" style="fill:#1d1896;opacity:0.6;stroke-dasharray:0,0;stroke-dashoffset:0;"/>
   </g>
   <g id="patch_27">
    <path clip-path="url(#p2ccd5f75ee)" d="M 173.705748 169.21192 
L 195.226858 167.029932 
L 210.145564 173.004313 
L 211.230158 174.853316 
L 199.161968 205.448062 
z
" style="fill:#1e5c70;opacity:0.6;stroke-dasharray:0,0;stroke-dashoffset:0;"/>
   </g>
   <g id="patch_28">
    <path clip-path="url(#p2ccd5f75ee)" d="M 173.705748 169.21192 
L 173.534565 168.968245 
L 195.166048 167.00558 
L 195.226858 167.029932 
z
" style="fill:#1fa04a;opacity:0.6;stroke-dasharray:0,0;stroke-dashoffset:0;"/>
   </g>
   <g id="patch_29">
    <path clip-path="url(#p2ccd5f75ee)" d="M 175.560011 164.931284 
L 181.676295 161.603441 
L 189.120471 164.584553 
z
" style="fill:#20e424;opacity:0.6;stroke-dasharray:0,0;stroke-dashoffset:0;"/>
   </g>
   <g id="patch_30">
    <path clip-path="url(#p2ccd5f75ee)" d="M 128.060241 385.702043 
L 199.161968 205.448062 
L 258.317731 289.65446 
z
" style="fill:#2227fe;opacity:0.6;stroke-dasharray:0,0;stroke-dashoffset:0;"/>
   </g>
   <g id="patch_31">
    <path clip-path="url(#p2ccd5f75ee)" d="M 189.120471 164.584553 
L 181.676295 161.603441 
L 200.186197 151.532284 
L 201.1601 151.750552 
L 205.176508 164.174013 
z
" style="fill:#236bd8;opacity:0.6;stroke-dasharray:0,0;stroke-dashoffset:0;"/>
   </g>
   <g id="patch_32">
    <path clip-path="url(#p2ccd5f75ee)" d="M 195.166048 167.00558 
L 189.120471 164.584553 
L 205.176508 164.174013 
L 205.897207 165.948084 
L 198.029828 166.745744 
z
" style="fill:#24afb2;opacity:0.6;stroke-dasharray:0,0;stroke-dashoffset:0;"/>
   </g>
   <g id="patch_33">
    <path clip-path="url(#p2ccd5f75ee)" d="M 205.012183 136.686955 
L 193.92886 129.052566 
L 208.820757 121.339905 
L 215.727679 131.014043 
z
" style="fill:#25f38c;opacity:0.6;stroke-dasharray:0,0;stroke-dashoffset:0;"/>
   </g>
   <g id="patch_34">
    <path clip-path="url(#p2ccd5f75ee)" d="M 195.226858 167.029932 
L 198.029828 166.745744 
L 205.93899 166.02813 
L 210.145565 173.004314 
z
" style="fill:#273766;opacity:0.6;stroke-dasharray:0,0;stroke-dashoffset:0;"/>
   </g>
   <g id="patch_35">
    <path clip-path="url(#p2ccd5f75ee)" d="M 258.317731 289.65446 
L 199.161968 205.448062 
L 211.230158 174.853316 
L 264.412047 199.203507 
L 304.616333 255.515395 
z
" style="fill:#287b40;opacity:0.6;stroke-dasharray:0,0;stroke-dashoffset:0;"/>
   </g>
   <g id="patch_36">
    <path clip-path="url(#p2ccd5f75ee)" d="M 200.186197 151.532284 
L 200.954406 151.114304 
L 201.1601 151.750552 
z
" style="fill:#29bf1a;opacity:0.6;stroke-dasharray:0,0;stroke-dashoffset:0;"/>
   </g>
   <g id="patch_37">
    <path clip-path="url(#p2ccd5f75ee)" d="M 205.176508 164.174013 
L 201.1601 151.750552 
L 218.785007 155.700595 
L 215.547239 163.908842 
z
" style="fill:#2b02f4;opacity:0.6;stroke-dasharray:0,0;stroke-dashoffset:0;"/>
   </g>
   <g id="patch_38">
    <path clip-path="url(#p2ccd5f75ee)" d="M 201.1601 151.750552 
L 200.954406 151.114304 
L 214.923287 143.513898 
L 221.739955 148.209339 
L 218.785007 155.700595 
z
" style="fill:#2c46ce;opacity:0.6;stroke-dasharray:0,0;stroke-dashoffset:0;"/>
   </g>
   <g id="patch_39">
    <path clip-path="url(#p2ccd5f75ee)" d="M 200.954405 151.114305 
L 205.012183 136.686955 
L 214.923287 143.513898 
z
" style="fill:#2d8aa8;opacity:0.6;stroke-dasharray:0,0;stroke-dashoffset:0;"/>
   </g>
   <g id="patch_40">
    <path clip-path="url(#p2ccd5f75ee)" d="M 205.897207 165.948084 
L 205.176508 164.174013 
L 215.547239 163.908842 
L 215.111354 165.013877 
z
" style="fill:#2ece82;opacity:0.6;stroke-dasharray:0,0;stroke-dashoffset:0;"/>
   </g>
   <g id="patch_41">
    <path clip-path="url(#p2ccd5f75ee)" d="M 210.145565 173.004314 
L 205.93899 166.02813 
L 215.036888 165.202661 
L 211.712054 173.631634 
z
" style="fill:#30125c;opacity:0.6;stroke-dasharray:0,0;stroke-dashoffset:0;"/>
   </g>
   <g id="patch_42">
    <path clip-path="url(#p2ccd5f75ee)" d="M 205.012183 136.686955 
L 215.727679 131.014043 
L 221.930149 139.701495 
L 214.923287 143.513898 
z
" style="fill:#315636;opacity:0.6;stroke-dasharray:0,0;stroke-dashoffset:0;"/>
   </g>
   <g id="patch_43">
    <path clip-path="url(#p2ccd5f75ee)" d="M 205.919269 34.56 
L 266.56928 34.56 
L 239.797465 102.430732 
z
" style="fill:#329a10;opacity:0.6;stroke-dasharray:0,0;stroke-dashoffset:0;"/>
   </g>
   <g id="patch_44">
    <path clip-path="url(#p2ccd5f75ee)" d="M 205.938989 166.02813 
L 205.897206 165.948084 
L 215.111354 165.013877 
L 215.036888 165.202661 
z
" style="fill:#33ddea;opacity:0.6;stroke-dasharray:0,0;stroke-dashoffset:0;"/>
   </g>
   <g id="patch_45">
    <path clip-path="url(#p2ccd5f75ee)" d="M 210.145564 173.004313 
L 211.712054 173.631634 
L 211.230158 174.853316 
z
" style="fill:#3521c4;opacity:0.6;stroke-dasharray:0,0;stroke-dashoffset:0;"/>
   </g>
   <g id="patch_46">
    <path clip-path="url(#p2ccd5f75ee)" d="M 215.727678 131.014042 
L 208.820757 121.339905 
L 238.376703 106.032586 
L 228.358312 131.430772 
z
" style="fill:#36659e;opacity:0.6;stroke-dasharray:0,0;stroke-dashoffset:0;"/>
   </g>
   <g id="patch_47">
    <path clip-path="url(#p2ccd5f75ee)" d="M 211.230158 174.853316 
L 211.712054 173.631634 
L 259.945351 192.947257 
L 264.412047 199.203507 
z
" style="fill:#37a978;opacity:0.6;stroke-dasharray:0,0;stroke-dashoffset:0;"/>
   </g>
   <g id="patch_48">
    <path clip-path="url(#p2ccd5f75ee)" d="M 211.712054 173.631634 
L 215.036888 165.202661 
L 234.691846 163.419329 
L 238.788878 163.314571 
L 259.945351 192.947257 
z
" style="fill:#38ed52;opacity:0.6;stroke-dasharray:0,0;stroke-dashoffset:0;"/>
   </g>
   <g id="patch_49">
    <path clip-path="url(#p2ccd5f75ee)" d="M 215.111354 165.013877 
L 215.547239 163.908842 
L 229.539 163.551083 
z
" style="fill:#3a312c;opacity:0.6;stroke-dasharray:0,0;stroke-dashoffset:0;"/>
   </g>
   <g id="patch_50">
    <path clip-path="url(#p2ccd5f75ee)" d="M 214.923287 143.513898 
L 221.930149 139.701495 
L 223.969296 142.557613 
L 221.739955 148.209339 
z
" style="fill:#3b7506;opacity:0.6;stroke-dasharray:0,0;stroke-dashoffset:0;"/>
   </g>
   <g id="patch_51">
    <path clip-path="url(#p2ccd5f75ee)" d="M 215.547239 163.908842 
L 218.785007 155.700595 
L 231.727466 155.088913 
L 234.06633 156.699964 
L 238.321966 162.660594 
L 229.539 163.551083 
z
" style="fill:#3cb8e0;opacity:0.6;stroke-dasharray:0,0;stroke-dashoffset:0;"/>
   </g>
   <g id="patch_52">
    <path clip-path="url(#p2ccd5f75ee)" d="M 221.930149 139.701495 
L 215.727678 131.014042 
L 228.358312 131.430772 
L 225.961003 137.508325 
z
" style="fill:#3dfcba;opacity:0.6;stroke-dasharray:0,0;stroke-dashoffset:0;"/>
   </g>
   <g id="patch_53">
    <path clip-path="url(#p2ccd5f75ee)" d="M 215.036888 165.202661 
L 215.111354 165.013877 
L 229.539 163.551083 
L 234.691846 163.419329 
z
" style="fill:#3f4094;opacity:0.6;stroke-dasharray:0,0;stroke-dashoffset:0;"/>
   </g>
   <g id="patch_54">
    <path clip-path="url(#p2ccd5f75ee)" d="M 218.785007 155.700595 
L 221.739955 148.209339 
L 231.727466 155.088913 
z
" style="fill:#40846e;opacity:0.6;stroke-dasharray:0,0;stroke-dashoffset:0;"/>
   </g>
   <g id="patch_55">
    <path clip-path="url(#p2ccd5f75ee)" d="M 221.739955 148.209339 
L 223.969296 142.557613 
L 232.642367 154.705498 
L 231.727467 155.088913 
z
" style="fill:#41c848;opacity:0.6;stroke-dasharray:0,0;stroke-dashoffset:0;"/>
   </g>
   <g id="patch_56">
    <path clip-path="url(#p2ccd5f75ee)" d="M 221.930149 139.701495 
L 225.961003 137.508325 
L 223.969296 142.557613 
z
" style="fill:#430c22;opacity:0.6;stroke-dasharray:0,0;stroke-dashoffset:0;"/>
   </g>
   <g id="patch_57">
    <path clip-path="url(#p2ccd5f75ee)" d="M 232.642366 154.705497 
L 223.969296 142.557613 
L 225.961003 137.508325 
L 233.439032 133.439562 
L 243.854703 144.767773 
z
" style="fill:#444ffc;opacity:0.6;stroke-dasharray:0,0;stroke-dashoffset:0;"/>
   </g>
   <g id="patch_58">
    <path clip-path="url(#p2ccd5f75ee)" d="M 225.961003 137.508325 
L 228.358311 131.430773 
L 233.439031 133.439562 
z
" style="fill:#4593d6;opacity:0.6;stroke-dasharray:0,0;stroke-dashoffset:0;"/>
   </g>
   <g id="patch_59">
    <path clip-path="url(#p2ccd5f75ee)" d="M 233.439031 133.439562 
L 228.358311 131.430773 
L 238.376703 106.032586 
L 240.934198 104.708034 
L 250.611814 124.095926 
z
" style="fill:#46d7b0;opacity:0.6;stroke-dasharray:0,0;stroke-dashoffset:0;"/>
   </g>
   <g id="patch_60">
    <path clip-path="url(#p2ccd5f75ee)" d="M 234.691846 163.419329 
L 229.539 163.551083 
L 238.321966 162.660594 
L 238.609866 163.06384 
z
" style="fill:#481b8a;opacity:0.6;stroke-dasharray:0,0;stroke-dashoffset:0;"/>
   </g>
   <g id="patch_61">
    <path clip-path="url(#p2ccd5f75ee)" d="M 242.155489 162.271919 
L 234.06633 156.699964 
L 232.642366 154.705497 
L 243.854703 144.767773 
L 258.431541 160.621719 
z
" style="fill:#495f64;opacity:0.6;stroke-dasharray:0,0;stroke-dashoffset:0;"/>
   </g>
   <g id="patch_62">
    <path clip-path="url(#p2ccd5f75ee)" d="M 243.854703 144.767773 
L 233.439032 133.439562 
L 250.611814 124.095926 
L 255.692931 134.275309 
z
" style="fill:#4aa33e;opacity:0.6;stroke-dasharray:0,0;stroke-dashoffset:0;"/>
   </g>
   <g id="patch_63">
    <path clip-path="url(#p2ccd5f75ee)" d="M 238.321966 162.660594 
L 234.06633 156.699964 
L 242.155489 162.271919 
z
" style="fill:#4be718;opacity:0.6;stroke-dasharray:0,0;stroke-dashoffset:0;"/>
   </g>
   <g id="patch_64">
    <path clip-path="url(#p2ccd5f75ee)" d="M 259.945351 192.947257 
L 238.788878 163.314571 
L 243.494498 163.194252 
L 274.083619 184.264579 
L 266.569378 195.599931 
z
" style="fill:#4d2af2;opacity:0.6;stroke-dasharray:0,0;stroke-dashoffset:0;"/>
   </g>
   <g id="patch_65">
    <path clip-path="url(#p2ccd5f75ee)" d="M 238.376703 106.032586 
L 239.797465 102.430732 
L 240.934198 104.708034 
z
" style="fill:#4e6ecc;opacity:0.6;stroke-dasharray:0,0;stroke-dashoffset:0;"/>
   </g>
   <g id="patch_66">
    <path clip-path="url(#p2ccd5f75ee)" d="M 240.934198 104.708034 
L 239.797465 102.430732 
L 266.56928 34.56 
L 373.52046 34.56 
L 369.511204 38.116725 
z
" style="fill:#4fb2a6;opacity:0.6;stroke-dasharray:0,0;stroke-dashoffset:0;"/>
   </g>
   <g id="patch_67">
    <path clip-path="url(#p2ccd5f75ee)" d="M 242.758683 162.68741 
L 242.155489 162.271919 
L 258.431542 160.621718 
L 258.915433 161.221477 
z
" style="fill:#50f680;opacity:0.6;stroke-dasharray:0,0;stroke-dashoffset:0;"/>
   </g>
   <g id="patch_68">
    <path clip-path="url(#p2ccd5f75ee)" d="M 250.611814 124.095926 
L 240.934198 104.708034 
L 369.511215 38.11672 
L 295.813126 99.50209 
z
" style="fill:#523a5a;opacity:0.6;stroke-dasharray:0,0;stroke-dashoffset:0;"/>
   </g>
   <g id="patch_69">
    <path clip-path="url(#p2ccd5f75ee)" d="M 243.494498 163.194252 
L 260.047982 162.770992 
L 274.083623 184.264581 
z
" style="fill:#537e34;opacity:0.6;stroke-dasharray:0,0;stroke-dashoffset:0;"/>
   </g>
   <g id="patch_70">
    <path clip-path="url(#p2ccd5f75ee)" d="M 243.854703 144.767773 
L 255.692931 134.275309 
L 268.342368 159.616877 
L 258.431541 160.621719 
z
" style="fill:#54c20e;opacity:0.6;stroke-dasharray:0,0;stroke-dashoffset:0;"/>
   </g>
   <g id="patch_71">
    <path clip-path="url(#p2ccd5f75ee)" d="M 243.494498 163.194252 
L 242.758683 162.68741 
L 258.915433 161.221477 
L 260.047983 162.770992 
z
" style="fill:#5605e8;opacity:0.6;stroke-dasharray:0,0;stroke-dashoffset:0;"/>
   </g>
   <g id="patch_72">
    <path clip-path="url(#p2ccd5f75ee)" d="M 255.69293 134.275309 
L 250.611814 124.095926 
L 295.813102 99.502104 
z
" style="fill:#5749c2;opacity:0.6;stroke-dasharray:0,0;stroke-dashoffset:0;"/>
   </g>
   <g id="patch_73">
    <path clip-path="url(#p2ccd5f75ee)" d="M 268.342368 159.616877 
L 255.69293 134.275309 
L 295.813102 99.502104 
L 1136.622773 -357.978758 
L 461.188017 140.06459 
z
" style="fill:#588d9c;opacity:0.6;stroke-dasharray:0,0;stroke-dashoffset:0;"/>
   </g>
   <g id="patch_74">
    <path clip-path="url(#p2ccd5f75ee)" d="M 260.047983 162.770992 
L 258.915433 161.221477 
L 268.700171 160.333689 
L 269.792401 162.521835 
z
" style="fill:#59d176;opacity:0.6;stroke-dasharray:0,0;stroke-dashoffset:0;"/>
   </g>
   <g id="patch_75">
    <path clip-path="url(#p2ccd5f75ee)" d="M 259.945351 192.947257 
L 266.569379 195.599931 
L 264.412049 199.203511 
z
" style="fill:#5b1550;opacity:0.6;stroke-dasharray:0,0;stroke-dashoffset:0;"/>
   </g>
   <g id="patch_76">
    <path clip-path="url(#p2ccd5f75ee)" d="M 260.047982 162.770992 
L 269.792401 162.521835 
L 284.083809 191.152886 
L 274.083623 184.264581 
z
" style="fill:#5c592a;opacity:0.6;stroke-dasharray:0,0;stroke-dashoffset:0;"/>
   </g>
   <g id="patch_77">
    <path clip-path="url(#p2ccd5f75ee)" d="M 258.915433 161.221477 
L 258.431542 160.621718 
L 268.342368 159.616877 
L 268.700171 160.333689 
z
" style="fill:#5d9d04;opacity:0.6;stroke-dasharray:0,0;stroke-dashoffset:0;"/>
   </g>
   <g id="patch_78">
    <path clip-path="url(#p2ccd5f75ee)" d="M 264.412049 199.203511 
L 266.569379 195.599931 
L 291.233867 205.477132 
L 313.09147 249.266108 
L 304.616333 255.515395 
z
" style="fill:#5ee0de;opacity:0.6;stroke-dasharray:0,0;stroke-dashoffset:0;"/>
   </g>
   <g id="patch_79">
    <path clip-path="url(#p2ccd5f75ee)" d="M 266.569378 195.599931 
L 274.083619 184.264579 
L 284.083809 191.152886 
L 291.233867 205.477132 
z
" style="fill:#6024b8;opacity:0.6;stroke-dasharray:0,0;stroke-dashoffset:0;"/>
   </g>
   <g id="patch_80">
    <path clip-path="url(#p2ccd5f75ee)" d="M 269.792401 162.521835 
L 268.700171 160.333689 
L 456.851244 143.262385 
L 436.513303 158.258912 
z
" style="fill:#616892;opacity:0.6;stroke-dasharray:0,0;stroke-dashoffset:0;"/>
   </g>
   <g id="patch_81">
    <path clip-path="url(#p2ccd5f75ee)" d="M 268.700171 160.333689 
L 268.342368 159.616877 
L 461.188017 140.06459 
L 456.851244 143.262385 
z
" style="fill:#62ac6c;opacity:0.6;stroke-dasharray:0,0;stroke-dashoffset:0;"/>
   </g>
   <g id="patch_82">
    <path clip-path="url(#p2ccd5f75ee)" d="M 323.829637 218.530513 
L 284.083809 191.152886 
L 269.792401 162.521835 
L 436.513303 158.258912 
L 343.883278 226.561243 
z
" style="fill:#63f046;opacity:0.6;stroke-dasharray:0,0;stroke-dashoffset:0;"/>
   </g>
   <g id="patch_83">
    <path clip-path="url(#p2ccd5f75ee)" d="M 291.233867 205.477132 
L 284.083809 191.152886 
L 323.829637 218.530513 
z
" style="fill:#653420;opacity:0.6;stroke-dasharray:0,0;stroke-dashoffset:0;"/>
   </g>
   <g id="patch_84">
    <path clip-path="url(#p2ccd5f75ee)" d="M 313.09147 249.266108 
L 291.233867 205.477132 
L 323.829637 218.530513 
L 339.828703 229.550952 
z
" style="fill:#6677fa;opacity:0.6;stroke-dasharray:0,0;stroke-dashoffset:0;"/>
   </g>
   <g id="patch_85">
    <path clip-path="url(#p2ccd5f75ee)" d="M 295.813126 99.50209 
L 369.511215 38.11672 
L 1142.087269 -362.008097 
L 1136.622773 -357.978758 
z
" style="fill:#67bbd4;opacity:0.6;stroke-dasharray:0,0;stroke-dashoffset:0;"/>
   </g>
   <g id="patch_86">
    <path clip-path="url(#p2ccd5f75ee)" d="M 304.616333 255.515395 
L 313.09147 249.266108 
L 343.154523 309.493678 
z
" style="fill:#68ffae;opacity:0.6;stroke-dasharray:0,0;stroke-dashoffset:0;"/>
   </g>
   <g id="patch_87">
    <path clip-path="url(#p2ccd5f75ee)" d="M 314.456113 252 
L 313.09147 249.266108 
L 339.828703 229.550952 
L 372.419401 252 
z
" style="fill:#6a4388;opacity:0.6;stroke-dasharray:0,0;stroke-dashoffset:0;"/>
   </g>
   <g id="patch_88">
    <path clip-path="url(#p2ccd5f75ee)" d="M 323.829637 218.530513 
L 343.883278 226.561243 
L 339.828703 229.550952 
z
" style="fill:#6b8762;opacity:0.6;stroke-dasharray:0,0;stroke-dashoffset:0;"/>
   </g>
   <g id="patch_89">
    <path clip-path="url(#p2ccd5f75ee)" d="M 372.419401 252 
L 339.828703 229.550952 
L 343.883278 226.561243 
L 388.8 244.548702 
L 388.8 252 
z
" style="fill:#6ccb3c;opacity:0.6;stroke-dasharray:0,0;stroke-dashoffset:0;"/>
   </g>
   <g id="patch_90">
    <path clip-path="url(#p2ccd5f75ee)" d="M 343.883278 226.561243 
L 388.8 193.441131 
L 388.8 244.548702 
z
" style="fill:#6e0f16;opacity:0.6;stroke-dasharray:0,0;stroke-dashoffset:0;"/>
   </g>
   <g id="patch_91">
    <path clip-path="url(#p2ccd5f75ee)" d="M 369.511204 38.116725 
L 373.52046 34.56 
L 376.378663 34.56 
z
" style="fill:#6f52f0;opacity:0.6;stroke-dasharray:0,0;stroke-dashoffset:0;"/>
   </g>
   <g id="matplotlib.axis_1">
    <g id="xtick_1">
     <g id="line2d_1">
      <defs>
       <path d="M 0 0 
L 0 3.5 
" id="mae3427cce6" style="stroke:#000000;stroke-width:0.8;"/>
      </defs>
      <g>
       <use style="stroke:#000000;stroke-width:0.8;" x="87.48" xlink:href="#mae3427cce6" y="252"/>
      </g>
     </g>
     <g id="text_1">
      <!-- −4 -->
      <defs>
       <path d="M 10.59375 35.5 
L 73.1875 35.5 
L 73.1875 27.203125 
L 10.59375 27.203125 
z
" id="DejaVuSans-2212"/>
       <path d="M 37.796875 64.3125 
L 12.890625 25.390625 
L 37.796875 25.390625 
z
M 35.203125 72.90625 
L 47.609375 72.90625 
L 47.609375 25.390625 
L 58.015625 25.390625 
L 58.015625 17.1875 
L 47.609375 17.1875 
L 47.609375 0 
L 37.796875 0 
L 37.796875 17.1875 
L 4.890625 17.1875 
L 4.890625 26.703125 
z
" id="DejaVuSans-34"/>
      </defs>
      <g transform="translate(80.108906 266.598437)scale(0.1 -0.1)">
       <use xlink:href="#DejaVuSans-2212"/>
       <use x="83.789062" xlink:href="#DejaVuSans-34"/>
      </g>
     </g>
    </g>
    <g id="xtick_2">
     <g id="line2d_2">
      <g>
       <use style="stroke:#000000;stroke-width:0.8;" x="154.44" xlink:href="#mae3427cce6" y="252"/>
      </g>
     </g>
     <g id="text_2">
      <!-- −2 -->
      <defs>
       <path d="M 19.1875 8.296875 
L 53.609375 8.296875 
L 53.609375 0 
L 7.328125 0 
L 7.328125 8.296875 
Q 12.9375 14.109375 22.625 23.890625 
Q 32.328125 33.6875 34.8125 36.53125 
Q 39.546875 41.84375 41.421875 45.53125 
Q 43.3125 49.21875 43.3125 52.78125 
Q 43.3125 58.59375 39.234375 62.25 
Q 35.15625 65.921875 28.609375 65.921875 
Q 23.96875 65.921875 18.8125 64.3125 
Q 13.671875 62.703125 7.8125 59.421875 
L 7.8125 69.390625 
Q 13.765625 71.78125 18.9375 73 
Q 24.125 74.21875 28.421875 74.21875 
Q 39.75 74.21875 46.484375 68.546875 
Q 53.21875 62.890625 53.21875 53.421875 
Q 53.21875 48.921875 51.53125 44.890625 
Q 49.859375 40.875 45.40625 35.40625 
Q 44.1875 33.984375 37.640625 27.21875 
Q 31.109375 20.453125 19.1875 8.296875 
z
" id="DejaVuSans-32"/>
      </defs>
      <g transform="translate(147.068906 266.598437)scale(0.1 -0.1)">
       <use xlink:href="#DejaVuSans-2212"/>
       <use x="83.789062" xlink:href="#DejaVuSans-32"/>
      </g>
     </g>
    </g>
    <g id="xtick_3">
     <g id="line2d_3">
      <g>
       <use style="stroke:#000000;stroke-width:0.8;" x="221.4" xlink:href="#mae3427cce6" y="252"/>
      </g>
     </g>
     <g id="text_3">
      <!-- 0 -->
      <defs>
       <path d="M 31.78125 66.40625 
Q 24.171875 66.40625 20.328125 58.90625 
Q 16.5 51.421875 16.5 36.375 
Q 16.5 21.390625 20.328125 13.890625 
Q 24.171875 6.390625 31.78125 6.390625 
Q 39.453125 6.390625 43.28125 13.890625 
Q 47.125 21.390625 47.125 36.375 
Q 47.125 51.421875 43.28125 58.90625 
Q 39.453125 66.40625 31.78125 66.40625 
z
M 31.78125 74.21875 
Q 44.046875 74.21875 50.515625 64.515625 
Q 56.984375 54.828125 56.984375 36.375 
Q 56.984375 17.96875 50.515625 8.265625 
Q 44.046875 -1.421875 31.78125 -1.421875 
Q 19.53125 -1.421875 13.0625 8.265625 
Q 6.59375 17.96875 6.59375 36.375 
Q 6.59375 54.828125 13.0625 64.515625 
Q 19.53125 74.21875 31.78125 74.21875 
z
" id="DejaVuSans-30"/>
      </defs>
      <g transform="translate(218.21875 266.598437)scale(0.1 -0.1)">
       <use xlink:href="#DejaVuSans-30"/>
      </g>
     </g>
    </g>
    <g id="xtick_4">
     <g id="line2d_4">
      <g>
       <use style="stroke:#000000;stroke-width:0.8;" x="288.36" xlink:href="#mae3427cce6" y="252"/>
      </g>
     </g>
     <g id="text_4">
      <!-- 2 -->
      <g transform="translate(285.17875 266.598437)scale(0.1 -0.1)">
       <use xlink:href="#DejaVuSans-32"/>
      </g>
     </g>
    </g>
    <g id="xtick_5">
     <g id="line2d_5">
      <g>
       <use style="stroke:#000000;stroke-width:0.8;" x="355.32" xlink:href="#mae3427cce6" y="252"/>
      </g>
     </g>
     <g id="text_5">
      <!-- 4 -->
      <g transform="translate(352.13875 266.598437)scale(0.1 -0.1)">
       <use xlink:href="#DejaVuSans-34"/>
      </g>
     </g>
    </g>
   </g>
   <g id="matplotlib.axis_2">
    <g id="ytick_1">
     <g id="line2d_6">
      <defs>
       <path d="M 0 0 
L -3.5 0 
" id="m0a3e69b5d4" style="stroke:#000000;stroke-width:0.8;"/>
      </defs>
      <g>
       <use style="stroke:#000000;stroke-width:0.8;" x="54" xlink:href="#m0a3e69b5d4" y="230.256"/>
      </g>
     </g>
     <g id="text_6">
      <!-- −4 -->
      <g transform="translate(32.257812 234.055219)scale(0.1 -0.1)">
       <use xlink:href="#DejaVuSans-2212"/>
       <use x="83.789062" xlink:href="#DejaVuSans-34"/>
      </g>
     </g>
    </g>
    <g id="ytick_2">
     <g id="line2d_7">
      <g>
       <use style="stroke:#000000;stroke-width:0.8;" x="54" xlink:href="#m0a3e69b5d4" y="186.768"/>
      </g>
     </g>
     <g id="text_7">
      <!-- −2 -->
      <g transform="translate(32.257812 190.567219)scale(0.1 -0.1)">
       <use xlink:href="#DejaVuSans-2212"/>
       <use x="83.789062" xlink:href="#DejaVuSans-32"/>
      </g>
     </g>
    </g>
    <g id="ytick_3">
     <g id="line2d_8">
      <g>
       <use style="stroke:#000000;stroke-width:0.8;" x="54" xlink:href="#m0a3e69b5d4" y="143.28"/>
      </g>
     </g>
     <g id="text_8">
      <!-- 0 -->
      <g transform="translate(40.6375 147.079219)scale(0.1 -0.1)">
       <use xlink:href="#DejaVuSans-30"/>
      </g>
     </g>
    </g>
    <g id="ytick_4">
     <g id="line2d_9">
      <g>
       <use style="stroke:#000000;stroke-width:0.8;" x="54" xlink:href="#m0a3e69b5d4" y="99.792"/>
      </g>
     </g>
     <g id="text_9">
      <!-- 2 -->
      <g transform="translate(40.6375 103.591219)scale(0.1 -0.1)">
       <use xlink:href="#DejaVuSans-32"/>
      </g>
     </g>
    </g>
    <g id="ytick_5">
     <g id="line2d_10">
      <g>
       <use style="stroke:#000000;stroke-width:0.8;" x="54" xlink:href="#m0a3e69b5d4" y="56.304"/>
      </g>
     </g>
     <g id="text_10">
      <!-- 4 -->
      <g transform="translate(40.6375 60.103219)scale(0.1 -0.1)">
       <use xlink:href="#DejaVuSans-34"/>
      </g>
     </g>
    </g>
   </g>
   <g id="line2d_11">
    <path clip-path="url(#p2ccd5f75ee)" d="M 197.91265 152.769311 
L 195.959533 150.794802 
" style="fill:none;stroke:#ff0000;stroke-linecap:square;stroke-width:0.5;"/>
   </g>
   <g id="line2d_12">
    <path clip-path="url(#p2ccd5f75ee)" d="M 200.752666 133.752924 
L 195.959536 150.794802 
" style="fill:none;stroke:#ff0000;stroke-linecap:square;stroke-width:0.5;"/>
   </g>
   <g id="line2d_13">
    <path clip-path="url(#p2ccd5f75ee)" d="M 202.394075 155.567456 
L 197.912653 152.769309 
" style="fill:none;stroke:#ff0000;stroke-linecap:square;stroke-width:0.5;"/>
   </g>
   <g id="line2d_14">
    <path clip-path="url(#p2ccd5f75ee)" d="M 213.03912 127.248329 
L 200.752667 133.752924 
" style="fill:none;stroke:#ff0000;stroke-linecap:square;stroke-width:0.5;"/>
   </g>
   <g id="line2d_15">
    <path clip-path="url(#p2ccd5f75ee)" d="M 202.394075 155.567457 
L 217.501934 158.953386 
" style="fill:none;stroke:#ff0000;stroke-linecap:square;stroke-width:0.5;"/>
   </g>
   <g id="line2d_16">
    <path clip-path="url(#p2ccd5f75ee)" d="M 229.790087 127.800999 
L 213.039117 127.248325 
" style="fill:none;stroke:#ff0000;stroke-linecap:square;stroke-width:0.5;"/>
   </g>
   <g id="line2d_17">
    <path clip-path="url(#p2ccd5f75ee)" d="M 235.081978 158.122524 
L 217.501933 158.953386 
" style="fill:none;stroke:#ff0000;stroke-linecap:square;stroke-width:0.5;"/>
   </g>
   <g id="line2d_18">
    <path clip-path="url(#p2ccd5f75ee)" d="M 237.905227 131.009524 
L 229.790086 127.801 
" style="fill:none;stroke:#ff0000;stroke-linecap:square;stroke-width:0.5;"/>
   </g>
   <g id="line2d_19">
    <path clip-path="url(#p2ccd5f75ee)" d="M 235.832341 157.916423 
L 246.913706 148.094782 
" style="fill:none;stroke:#ff0000;stroke-linecap:square;stroke-width:0.5;"/>
   </g>
   <g id="line2d_20">
    <path clip-path="url(#p2ccd5f75ee)" d="M 247.546584 141.495583 
L 237.905226 131.009525 
" style="fill:none;stroke:#ff0000;stroke-linecap:square;stroke-width:0.5;"/>
   </g>
   <g id="line2d_21">
    <path clip-path="url(#p2ccd5f75ee)" d="M 235.081978 158.122524 
L 235.832341 157.916423 
" style="fill:none;stroke:#ff0000;stroke-linecap:square;stroke-width:0.5;"/>
   </g>
   <g id="line2d_22">
    <path clip-path="url(#p2ccd5f75ee)" d="M 246.913707 148.094782 
L 247.546584 141.495583 
" style="fill:none;stroke:#ff0000;stroke-linecap:square;stroke-width:0.5;"/>
   </g>
   <g id="patch_92">
    <path d="M 54 252 
L 54 34.56 
" style="fill:none;stroke:#000000;stroke-linecap:square;stroke-linejoin:miter;stroke-width:0.8;"/>
   </g>
   <g id="patch_93">
    <path d="M 388.8 252 
L 388.8 34.56 
" style="fill:none;stroke:#000000;stroke-linecap:square;stroke-linejoin:miter;stroke-width:0.8;"/>
   </g>
   <g id="patch_94">
    <path d="M 54 252 
L 388.8 252 
" style="fill:none;stroke:#000000;stroke-linecap:square;stroke-linejoin:miter;stroke-width:0.8;"/>
   </g>
   <g id="patch_95">
    <path d="M 54 34.56 
L 388.8 34.56 
" style="fill:none;stroke:#000000;stroke-linecap:square;stroke-linejoin:miter;stroke-width:0.8;"/>
   </g>
  </g>
 </g>
 <defs>
  <clipPath id="p2ccd5f75ee">
   <rect height="217.44" width="334.8" x="54" y="34.56"/>
  </clipPath>
 </defs>
</svg>
