<?xml version="1.0" encoding="utf-8" standalone="no"?>
<!DOCTYPE svg PUBLIC "-//W3C//DTD SVG 1.1//EN"
  "http://www.w3.org/Graphics/SVG/1.1/DTD/svg11.dtd">
<!-- Created with matplotlib (http://matplotlib.org/) -->
<svg height="576pt" version="1.1" viewBox="0 0 576 576" width="576pt" xmlns="http://www.w3.org/2000/svg" xmlns:xlink="http://www.w3.org/1999/xlink">
 <defs>
  <style type="text/css">
*{stroke-linecap:butt;stroke-linejoin:round;}
  </style>
 </defs>
 <g id="figure_1">
  <g id="patch_1">
   <path d="M 0 576 
L 576 576 
L 576 0 
L 0 0 
z
" style="fill:#ffffff;"/>
  </g>
  <g id="axes_1">
   <g id="patch_2">
    <path d="M 72 504 
L 429.12 504 
L 429.12 69.12 
L 72 69.12 
z
" style="fill:#ffffff;"/>
   </g>
   <g id="PathCollection_1">
    <path clip-path="url(#pbd8b7084a8)" d="M 82.821818 504 
L 86.429091 504 
L 90.036364 504 
L 93.643636 504 
L 97.250909 504 
L 100.858182 504 
L 104.465455 504 
L 108.072727 504 
L 111.68 504 
L 115.287273 504 
L 118.894545 504 
L 122.501818 504 
L 126.109091 504 
L 129.716364 504 
L 133.323636 504 
L 136.930909 504 
L 140.538182 504 
L 144.145455 504 
L 147.752727 504 
L 151.36 504 
L 154.967273 504 
L 158.574545 504 
L 162.181818 504 
L 162.182617 504 
L 165.789091 499.608245 
L 165.789839 499.607273 
L 169.396364 495.215456 
L 169.397067 495.214545 
L 169.409769 490.821818 
L 173.003636 486.445415 
L 173.009922 486.429091 
L 176.610909 482.044018 
L 176.615015 482.036364 
L 180.218182 477.648636 
L 180.22123 477.643636 
L 183.825455 473.254621 
L 183.827879 473.250909 
L 187.432727 468.861134 
L 187.434739 468.858182 
L 191.04 464.467905 
L 191.04172 464.465455 
L 194.647273 460.074822 
L 194.648774 460.072727 
L 198.254545 455.681829 
L 198.255878 455.68 
L 201.861818 451.288895 
L 201.863016 451.287273 
L 205.469091 446.896004 
L 205.470179 446.894545 
L 209.076364 442.503143 
L 209.07736 442.501818 
L 212.683636 438.110304 
L 212.684555 438.109091 
L 216.290909 433.717483 
L 216.291762 433.716364 
L 219.898182 429.324675 
L 219.898977 429.323636 
L 223.505455 424.931878 
L 223.5062 424.930909 
L 227.112727 420.539089 
L 227.113428 420.538182 
L 227.125275 416.145455 
L 230.72 411.768008 
L 230.726091 411.752727 
L 234.327273 407.367418 
L 234.331295 407.36 
L 237.934545 402.97217 
L 237.937547 402.967273 
L 241.541818 398.578201 
L 241.544213 398.574545 
L 245.149091 394.184734 
L 245.151083 394.181818 
L 248.756364 389.791516 
L 248.758068 389.789091 
L 252.363636 385.39844 
L 252.365196 385.396364 
L 255.970909 381.005535 
L 259.578182 381.00531 
L 263.185455 381.008264 
L 266.788927 385.396364 
L 266.792727 385.397428 
L 270.4 385.398976 
L 274.005127 389.789091 
L 274.007273 389.789995 
L 277.614545 389.790911 
L 281.220324 394.181818 
L 281.221818 394.182604 
L 284.829091 394.183214 
L 288.436364 394.188083 
L 292.038492 398.574545 
L 292.043636 398.575678 
L 295.650909 398.57761 
L 299.255665 402.967273 
L 299.258182 402.968225 
L 302.865455 402.969301 
L 306.471062 407.36 
L 306.472727 407.360822 
L 310.08 407.361516 
L 313.687273 407.369691 
L 317.286587 411.752727 
L 317.294545 411.753937 
L 320.901818 411.756432 
L 324.506048 416.145455 
L 324.509091 416.146461 
L 328.116364 416.147745 
L 331.721756 420.538182 
L 331.723636 420.539044 
L 335.330909 420.539839 
L 338.938182 420.55958 
L 342.527883 424.930909 
L 342.545455 424.932208 
L 346.152727 424.933661 
L 346.156741 424.930909 
L 349.76 420.54307 
L 349.763169 420.538182 
L 353.367273 416.149313 
L 353.36989 416.145455 
L 356.974545 411.755914 
L 356.976775 411.752727 
L 360.581818 407.362715 
L 360.58376 407.36 
L 364.189091 402.969637 
L 364.190811 402.967273 
L 367.796364 398.57664 
L 367.797907 398.574545 
L 371.403636 394.183697 
L 371.405036 394.181818 
L 375.010909 389.790795 
L 375.01219 389.789091 
L 378.618182 385.397923 
L 378.619362 385.396364 
L 382.225455 381.005073 
L 382.226549 381.003636 
L 385.832727 376.612242 
L 385.833747 376.610909 
L 389.44 372.219424 
L 389.440955 372.218182 
L 393.047273 367.826618 
L 393.048171 367.825455 
L 396.654545 363.433821 
L 396.655393 363.432727 
L 400.261818 359.041032 
L 400.262621 359.04 
L 403.869091 354.64825 
L 403.869853 354.647273 
L 407.476364 350.255473 
L 407.477089 350.254545 
L 411.083636 345.862701 
L 411.084328 345.861818 
L 414.690909 341.469933 
L 414.69157 341.469091 
L 414.969412 337.076364 
L 418.298182 333.022781 
L 418.312459 332.683636 
L 421.905455 328.308295 
L 421.912779 328.290909 
L 425.512727 323.907101 
L 425.517653 323.898182 
L 429.12 319.511453 
L 429.12 319.505455 
L 429.12 315.112727 
L 429.12 310.72 
L 429.12 306.327273 
L 429.12 301.934545 
L 429.12 297.541818 
L 429.12 293.149091 
L 429.12 288.756364 
L 429.12 284.363636 
L 429.12 279.970909 
L 429.12 275.578182 
L 429.12 271.185455 
L 429.12 266.792727 
L 429.12 262.4 
L 429.12 258.007273 
L 429.12 253.614545 
L 429.12 249.221818 
L 429.12 244.829091 
L 429.12 240.436364 
L 429.12 236.043636 
L 429.12 231.650909 
L 429.12 227.258182 
L 429.12 222.865455 
L 429.12 218.472727 
L 429.12 214.08 
L 429.12 209.687273 
L 429.12 205.294545 
L 429.12 200.901818 
L 429.12 196.509091 
L 429.12 192.116364 
L 429.12 187.723636 
L 429.12 183.330909 
L 429.12 178.938182 
L 429.12 174.545455 
L 429.12 170.152727 
L 429.12 165.76 
L 429.12 161.367273 
L 429.12 156.974545 
L 429.12 152.581818 
L 429.12 148.189091 
L 429.12 143.796364 
L 429.12 139.403636 
L 429.12 135.010909 
L 429.12 130.618182 
L 429.12 126.225455 
L 429.12 121.832727 
L 429.12 117.44 
L 429.12 113.047273 
L 429.12 108.654545 
L 429.12 104.261818 
L 429.12 99.869091 
L 429.12 95.476364 
L 429.12 91.083636 
L 429.12 86.690909 
L 429.12 82.298182 
L 429.12 77.905455 
L 429.12 73.512727 
L 429.12 69.12 
L 425.512727 69.12 
L 421.905455 69.12 
L 418.298182 69.12 
L 414.690909 69.12 
L 411.083636 69.12 
L 407.476364 69.12 
L 403.869091 69.12 
L 400.261818 69.12 
L 396.654545 69.12 
L 393.047273 69.12 
L 389.44 69.12 
L 385.832727 69.12 
L 382.225455 69.12 
L 378.618182 69.12 
L 375.010909 69.12 
L 371.403636 69.12 
L 367.796364 69.12 
L 364.189091 69.12 
L 360.581818 69.12 
L 356.974545 69.12 
L 353.367273 69.12 
L 349.76 69.12 
L 346.152727 69.12 
L 342.545455 69.12 
L 338.938182 69.12 
L 335.330909 69.12 
L 331.723636 69.12 
L 328.116364 69.12 
L 324.509091 69.12 
L 320.901818 69.12 
L 317.294545 69.12 
L 313.687273 69.12 
L 310.08 69.12 
L 306.472727 69.12 
L 302.865455 69.12 
L 299.258182 69.12 
L 295.650909 69.12 
L 292.043636 69.12 
L 288.436364 69.12 
L 284.829091 69.12 
L 281.221818 69.12 
L 277.614545 69.12 
L 274.007273 69.12 
L 270.4 69.12 
L 266.792727 69.12 
L 263.185455 69.12 
L 259.578182 69.12 
L 255.970909 69.12 
L 252.363636 69.12 
L 248.756364 69.12 
L 248.75607 69.12 
L 248.755956 73.512727 
L 248.755697 77.905455 
L 248.754536 82.298182 
L 245.149091 86.688683 
L 245.148792 86.690909 
L 245.148673 91.083636 
L 245.14844 95.476364 
L 245.147804 99.869091 
L 245.092769 104.261818 
L 241.541818 108.58596 
L 241.541493 108.654545 
L 241.541387 113.047273 
L 241.541177 117.44 
L 241.540567 121.832727 
L 241.51694 126.225455 
L 237.934545 130.587887 
L 237.934223 130.618182 
L 237.934118 135.010909 
L 237.933913 139.403636 
L 237.933329 143.796364 
L 237.918574 148.189091 
L 234.327273 152.562369 
L 234.326952 152.581818 
L 234.32685 156.974545 
L 234.326649 161.367273 
L 234.326088 165.76 
L 234.315514 170.152727 
L 230.72 174.531135 
L 230.719706 174.545455 
L 230.719645 178.938182 
L 230.719554 183.330909 
L 230.719397 187.723636 
L 230.719073 192.116364 
L 230.717992 196.509091 
L 227.112727 200.899373 
L 227.112516 200.901818 
L 227.112487 205.294545 
L 227.112448 209.687273 
L 227.112394 214.08 
L 227.112314 218.472727 
L 227.112183 222.865455 
L 227.111932 227.258182 
L 227.111248 231.650909 
L 227.102231 236.043636 
L 223.505455 240.423582 
L 223.505224 240.436364 
L 223.505188 244.829091 
L 223.504462 249.221818 
L 219.898182 253.613337 
L 219.897951 253.614545 
L 219.896992 258.007273 
L 216.290909 262.398551 
L 216.290626 262.4 
L 212.683636 266.792383 
L 212.683453 266.792727 
L 212.682996 271.185455 
L 209.076364 275.577402 
L 209.076067 275.578182 
L 205.469091 279.970548 
L 205.468898 279.970909 
L 205.468194 284.363636 
L 201.861818 288.755272 
L 201.861477 288.756364 
L 198.254545 293.148675 
L 198.254334 293.149091 
L 198.253052 297.541818 
L 194.647273 301.932727 
L 194.64687 301.934545 
L 191.04 306.326782 
L 191.039767 306.327273 
L 191.035542 310.72 
L 187.432727 315.107298 
L 187.432236 315.112727 
L 183.825455 319.504857 
L 183.825195 319.505455 
L 180.218182 323.897865 
L 180.218005 323.898182 
L 180.217553 328.290909 
L 176.610909 332.682871 
L 176.610615 332.683636 
L 173.003636 337.076006 
L 173.003445 337.076364 
L 173.002763 341.469091 
L 169.396364 345.860755 
L 169.396026 345.861818 
L 165.789091 350.254134 
L 165.788881 350.254545 
L 165.787662 354.647273 
L 162.181818 359.038261 
L 162.18142 359.04 
L 158.574545 363.432243 
L 158.574314 363.432727 
L 158.570618 367.825455 
L 154.967273 372.213399 
L 154.966789 372.218182 
L 151.36 376.61032 
L 151.359742 376.610909 
L 147.752727 381.003322 
L 147.752552 381.003636 
L 147.75211 385.396364 
L 144.145455 389.78834 
L 144.145163 389.789091 
L 140.538182 394.181463 
L 140.537991 394.181818 
L 140.537331 398.574545 
L 136.930909 402.966237 
L 136.930574 402.967273 
L 133.323636 407.359592 
L 133.323428 407.36 
L 133.322267 411.752727 
L 129.716364 416.143787 
L 129.71597 416.145455 
L 126.109091 420.537703 
L 126.108861 420.538182 
L 126.105581 424.930909 
L 122.501818 429.319362 
L 122.501341 429.323636 
L 118.894545 433.715783 
L 118.89429 433.716364 
L 115.287273 438.108779 
L 115.287098 438.109091 
L 115.286667 442.501818 
L 111.68 446.893808 
L 111.679711 446.894545 
L 108.072727 451.286921 
L 108.072538 451.287273 
L 108.071898 455.68 
L 104.465455 460.071718 
L 104.465123 460.072727 
L 100.858182 464.465051 
L 100.857975 464.465455 
L 100.856867 468.858182 
L 97.250909 473.249308 
L 97.25052 473.250909 
L 93.643636 477.643163 
L 93.643408 477.643636 
L 93.640464 482.036364 
L 90.036364 486.425227 
L 90.035894 486.429091 
L 86.429091 490.821246 
L 86.42885 490.821818 
L 82.821818 495.214252 
L 82.821668 495.214545 
L 82.821392 499.607273 
L 82.819353 504 
z
" style="fill:#4e68d8;"/>
   </g>
   <g id="PathCollection_2">
    <path clip-path="url(#pbd8b7084a8)" d="M 75.607273 504 
L 79.214545 504 
L 82.819353 504 
L 82.821392 499.607273 
L 82.821668 495.214545 
L 82.821818 495.214252 
L 86.42885 490.821818 
L 86.429091 490.821246 
L 90.035894 486.429091 
L 90.036364 486.425227 
L 93.640464 482.036364 
L 93.643408 477.643636 
L 93.643636 477.643163 
L 97.25052 473.250909 
L 97.250909 473.249308 
L 100.856867 468.858182 
L 100.857975 464.465455 
L 100.858182 464.465051 
L 104.465123 460.072727 
L 104.465455 460.071718 
L 108.071898 455.68 
L 108.072538 451.287273 
L 108.072727 451.286921 
L 111.679711 446.894545 
L 111.68 446.893808 
L 115.286667 442.501818 
L 115.287098 438.109091 
L 115.287273 438.108779 
L 118.89429 433.716364 
L 118.894545 433.715783 
L 122.501341 429.323636 
L 122.501818 429.319362 
L 126.105581 424.930909 
L 126.108861 420.538182 
L 126.109091 420.537703 
L 129.71597 416.145455 
L 129.716364 416.143787 
L 133.322267 411.752727 
L 133.323428 407.36 
L 133.323636 407.359592 
L 136.930574 402.967273 
L 136.930909 402.966237 
L 140.537331 398.574545 
L 140.537991 394.181818 
L 140.538182 394.181463 
L 144.145163 389.789091 
L 144.145455 389.78834 
L 147.75211 385.396364 
L 147.752552 381.003636 
L 147.752727 381.003322 
L 151.359742 376.610909 
L 151.36 376.61032 
L 154.966789 372.218182 
L 154.967273 372.213399 
L 158.570618 367.825455 
L 158.574314 363.432727 
L 158.574545 363.432243 
L 162.18142 359.04 
L 162.181818 359.038261 
L 165.787662 354.647273 
L 165.788881 350.254545 
L 165.789091 350.254134 
L 169.396026 345.861818 
L 169.396364 345.860755 
L 173.002763 341.469091 
L 173.003445 337.076364 
L 173.003636 337.076006 
L 176.610615 332.683636 
L 176.610909 332.682871 
L 180.217553 328.290909 
L 180.218005 323.898182 
L 180.218182 323.897865 
L 183.825195 319.505455 
L 183.825455 319.504857 
L 187.432236 315.112727 
L 187.432727 315.107298 
L 191.035542 310.72 
L 191.039767 306.327273 
L 191.04 306.326782 
L 194.64687 301.934545 
L 194.647273 301.932727 
L 198.253052 297.541818 
L 198.254334 293.149091 
L 198.254545 293.148675 
L 201.861477 288.756364 
L 201.861818 288.755272 
L 205.468194 284.363636 
L 205.468898 279.970909 
L 205.469091 279.970548 
L 209.076067 275.578182 
L 209.076364 275.577402 
L 212.682996 271.185455 
L 212.683453 266.792727 
L 212.683636 266.792383 
L 216.290626 262.4 
L 216.290909 262.398551 
L 219.896992 258.007273 
L 219.897951 253.614545 
L 219.898182 253.613337 
L 223.504462 249.221818 
L 223.505188 244.829091 
L 223.505224 240.436364 
L 223.505455 240.423582 
L 227.102231 236.043636 
L 227.111248 231.650909 
L 227.111932 227.258182 
L 227.112183 222.865455 
L 227.112314 218.472727 
L 227.112394 214.08 
L 227.112448 209.687273 
L 227.112487 205.294545 
L 227.112516 200.901818 
L 227.112727 200.899373 
L 230.717992 196.509091 
L 230.719073 192.116364 
L 230.719397 187.723636 
L 230.719554 183.330909 
L 230.719645 178.938182 
L 230.719706 174.545455 
L 230.72 174.531135 
L 234.315514 170.152727 
L 234.326088 165.76 
L 234.326649 161.367273 
L 234.32685 156.974545 
L 234.326952 152.581818 
L 234.327273 152.562369 
L 237.918574 148.189091 
L 237.933329 143.796364 
L 237.933913 139.403636 
L 237.934118 135.010909 
L 237.934223 130.618182 
L 237.934545 130.587887 
L 241.51694 126.225455 
L 241.540567 121.832727 
L 241.541177 117.44 
L 241.541387 113.047273 
L 241.541493 108.654545 
L 241.541818 108.58596 
L 245.092769 104.261818 
L 245.147804 99.869091 
L 245.14844 95.476364 
L 245.148673 91.083636 
L 245.148792 86.690909 
L 245.149091 86.688683 
L 248.754536 82.298182 
L 248.755697 77.905455 
L 248.755956 73.512727 
L 248.75607 69.12 
L 245.149091 69.12 
L 241.541818 69.12 
L 237.934545 69.12 
L 234.327273 69.12 
L 230.72 69.12 
L 227.112727 69.12 
L 223.505455 69.12 
L 219.898182 69.12 
L 216.290909 69.12 
L 212.683636 69.12 
L 210.17609 69.12 
L 209.53476 73.512727 
L 209.076364 76.657606 
L 208.895253 77.905455 
L 208.311213 82.298182 
L 207.733474 86.690909 
L 207.155728 91.083636 
L 206.57799 95.476364 
L 206.000263 99.869091 
L 205.469091 103.907803 
L 205.422531 104.261818 
L 204.844783 108.654545 
L 204.267051 113.047273 
L 203.68931 117.44 
L 203.147034 121.832727 
L 202.620983 126.225455 
L 201.979959 130.618182 
L 201.861818 131.334994 
L 201.37835 135.010909 
L 200.800616 139.403636 
L 200.370231 143.796364 
L 199.903819 148.189091 
L 199.329809 152.581818 
L 198.606124 156.974545 
L 198.254545 159.085066 
L 197.99391 161.367273 
L 197.672034 165.76 
L 197.280105 170.152727 
L 196.792416 174.545455 
L 196.169018 178.938182 
L 195.663686 183.330909 
L 195.229416 187.723636 
L 194.795149 192.116364 
L 194.647273 193.612174 
L 194.32476 196.509091 
L 193.751014 200.901818 
L 192.859455 205.294545 
L 191.930121 209.687273 
L 191.04 213.894759 
L 191.000811 214.08 
L 190.071482 218.472727 
L 189.142154 222.865455 
L 188.212828 227.258182 
L 187.432727 230.945504 
L 187.283492 231.650909 
L 186.354178 236.043636 
L 185.424843 240.436364 
L 184.495529 244.829091 
L 183.825455 247.996371 
L 183.566196 249.221818 
L 182.636885 253.614545 
L 181.707559 258.007273 
L 180.778228 262.4 
L 180.218182 264.49695 
L 179.643858 266.792727 
L 177.73191 271.185455 
L 176.610909 273.706069 
L 175.77832 275.578182 
L 173.824735 279.970909 
L 173.003636 281.817193 
L 171.87115 284.363636 
L 169.917558 288.756364 
L 169.396364 289.888987 
L 167.920793 293.149091 
L 165.856 297.541818 
L 165.789091 297.684164 
L 163.791206 301.934545 
L 162.181818 305.358413 
L 161.726407 306.327273 
L 159.661611 310.72 
L 158.574545 313.032662 
L 157.596808 315.112727 
L 155.398903 319.505455 
L 154.967273 320.266522 
L 152.916165 323.898182 
L 151.36 326.636988 
L 150.420257 328.290909 
L 147.924352 332.683636 
L 147.752727 332.98569 
L 145.428431 337.076364 
L 144.145455 339.334362 
L 142.93252 341.469091 
L 140.538182 345.683048 
L 140.436605 345.861818 
L 137.940685 350.254545 
L 136.930909 352.03172 
L 135.44478 354.647273 
L 133.323636 358.380413 
L 132.948863 359.04 
L 130.452958 363.432727 
L 129.716364 364.729105 
L 127.957032 367.825455 
L 126.109091 371.077774 
L 125.461121 372.218182 
L 122.965211 376.610909 
L 122.501818 377.426467 
L 120.469296 381.003636 
L 118.894545 383.775151 
L 117.973385 385.396364 
L 115.477466 389.789091 
L 115.287273 390.123825 
L 112.981552 394.181818 
L 111.68 396.472507 
L 110.485639 398.574545 
L 108.072727 402.821204 
L 107.989732 402.967273 
L 105.493812 407.36 
L 104.465455 409.169865 
L 103.007293 411.752727 
L 100.858182 415.524353 
L 100.541945 416.145455 
L 98.223565 420.538182 
L 97.250909 422.281036 
L 95.875185 424.930909 
L 93.643636 429.229252 
L 93.594635 429.323636 
L 91.314065 433.716364 
L 90.036364 436.177407 
L 89.033496 438.109091 
L 86.752924 442.501818 
L 86.429091 443.125572 
L 84.472354 446.894545 
L 82.821818 450.073738 
L 82.191792 451.287273 
L 79.911222 455.68 
L 79.214545 457.021904 
L 77.630648 460.072727 
L 75.607273 463.970064 
L 75.350082 464.465455 
L 73.069514 468.858182 
L 72 470.918246 
L 72 473.250909 
L 72 477.643636 
L 72 482.036364 
L 72 486.429091 
L 72 490.821818 
L 72 495.214545 
L 72 499.607273 
L 72 504 
z
" style="fill:#779af7;"/>
    <path clip-path="url(#pbd8b7084a8)" d="M 165.789091 504 
L 169.396364 504 
L 173.003636 504 
L 176.610909 504 
L 180.218182 504 
L 183.825455 504 
L 187.432727 504 
L 191.04 504 
L 194.647273 504 
L 198.254545 504 
L 201.861818 504 
L 205.469091 504 
L 209.076364 504 
L 212.683636 504 
L 216.290909 504 
L 219.898182 504 
L 223.505455 504 
L 227.112727 504 
L 230.72 504 
L 234.327273 504 
L 237.934545 504 
L 241.541818 504 
L 245.149091 504 
L 248.756364 504 
L 252.363636 504 
L 255.970909 504 
L 259.578182 504 
L 263.185455 504 
L 266.792727 504 
L 270.4 504 
L 274.007273 504 
L 277.614545 504 
L 281.221818 504 
L 284.829091 504 
L 288.436364 504 
L 292.043636 504 
L 295.650909 504 
L 299.258182 504 
L 302.865455 504 
L 306.472727 504 
L 310.08 504 
L 312.828246 504 
L 313.687273 503.693973 
L 317.294545 502.408935 
L 320.901818 501.123844 
L 324.509091 499.83877 
L 325.158903 499.607273 
L 328.116364 498.553663 
L 331.723636 497.268598 
L 335.330909 495.983539 
L 337.489467 495.214545 
L 338.938182 494.698438 
L 342.545455 493.413374 
L 346.152727 492.128237 
L 349.76 490.843195 
L 349.820007 490.821818 
L 353.367273 489.558126 
L 356.974545 488.273028 
L 360.581818 486.987912 
L 362.150491 486.429091 
L 364.189091 485.702863 
L 367.796364 484.417807 
L 371.403636 483.132718 
L 374.481175 482.036364 
L 375.010909 481.847648 
L 378.618182 480.562536 
L 382.225455 479.27745 
L 385.832727 477.992371 
L 386.811662 477.643636 
L 389.44 476.707316 
L 393.047273 475.422198 
L 396.654545 474.137149 
L 399.142264 473.250909 
L 400.261818 472.852072 
L 403.869091 471.566961 
L 407.476364 470.281846 
L 411.083636 468.996795 
L 411.472744 468.858182 
L 414.690909 467.6531 
L 418.298182 465.52886 
L 419.540147 464.465455 
L 421.905455 461.458244 
L 422.995208 460.072727 
L 425.512727 456.871986 
L 426.450279 455.68 
L 429.12 452.285691 
L 429.12 451.287273 
L 429.12 446.894545 
L 429.12 442.501818 
L 429.12 438.109091 
L 429.12 433.716364 
L 429.12 429.323636 
L 429.12 424.930909 
L 429.12 420.538182 
L 429.12 416.145455 
L 429.12 411.752727 
L 429.12 407.36 
L 429.12 402.967273 
L 429.12 398.574545 
L 429.12 394.181818 
L 429.12 389.789091 
L 429.12 385.396364 
L 429.12 381.003636 
L 429.12 376.610909 
L 429.12 372.218182 
L 429.12 367.825455 
L 429.12 363.432727 
L 429.12 359.04 
L 429.12 354.647273 
L 429.12 350.254545 
L 429.12 345.861818 
L 429.12 341.469091 
L 429.12 337.076364 
L 429.12 332.683636 
L 429.12 328.290909 
L 429.12 323.898182 
L 429.12 319.511453 
L 425.517653 323.898182 
L 425.512727 323.907101 
L 421.912779 328.290909 
L 421.905455 328.308295 
L 418.312459 332.683636 
L 418.298182 333.022781 
L 414.969412 337.076364 
L 414.69157 341.469091 
L 414.690909 341.469933 
L 411.084328 345.861818 
L 411.083636 345.862701 
L 407.477089 350.254545 
L 407.476364 350.255473 
L 403.869853 354.647273 
L 403.869091 354.64825 
L 400.262621 359.04 
L 400.261818 359.041032 
L 396.655393 363.432727 
L 396.654545 363.433821 
L 393.048171 367.825455 
L 393.047273 367.826618 
L 389.440955 372.218182 
L 389.44 372.219424 
L 385.833747 376.610909 
L 385.832727 376.612242 
L 382.226549 381.003636 
L 382.225455 381.005073 
L 378.619362 385.396364 
L 378.618182 385.397923 
L 375.01219 389.789091 
L 375.010909 389.790795 
L 371.405036 394.181818 
L 371.403636 394.183697 
L 367.797907 398.574545 
L 367.796364 398.57664 
L 364.190811 402.967273 
L 364.189091 402.969637 
L 360.58376 407.36 
L 360.581818 407.362715 
L 356.976775 411.752727 
L 356.974545 411.755914 
L 353.36989 416.145455 
L 353.367273 416.149313 
L 349.763169 420.538182 
L 349.76 420.54307 
L 346.156741 424.930909 
L 346.152727 424.933661 
L 342.545455 424.932208 
L 342.527883 424.930909 
L 338.938182 420.55958 
L 335.330909 420.539839 
L 331.723636 420.539044 
L 331.721756 420.538182 
L 328.116364 416.147745 
L 324.509091 416.146461 
L 324.506048 416.145455 
L 320.901818 411.756432 
L 317.294545 411.753937 
L 317.286587 411.752727 
L 313.687273 407.369691 
L 310.08 407.361516 
L 306.472727 407.360822 
L 306.471062 407.36 
L 302.865455 402.969301 
L 299.258182 402.968225 
L 299.255665 402.967273 
L 295.650909 398.57761 
L 292.043636 398.575678 
L 292.038492 398.574545 
L 288.436364 394.188083 
L 284.829091 394.183214 
L 281.221818 394.182604 
L 281.220324 394.181818 
L 277.614545 389.790911 
L 274.007273 389.789995 
L 274.005127 389.789091 
L 270.4 385.398976 
L 266.792727 385.397428 
L 266.788927 385.396364 
L 263.185455 381.008264 
L 259.578182 381.00531 
L 255.970909 381.005535 
L 252.365196 385.396364 
L 252.363636 385.39844 
L 248.758068 389.789091 
L 248.756364 389.791516 
L 245.151083 394.181818 
L 245.149091 394.184734 
L 241.544213 398.574545 
L 241.541818 398.578201 
L 237.937547 402.967273 
L 237.934545 402.97217 
L 234.331295 407.36 
L 234.327273 407.367418 
L 230.726091 411.752727 
L 230.72 411.768008 
L 227.125275 416.145455 
L 227.113428 420.538182 
L 227.112727 420.539089 
L 223.5062 424.930909 
L 223.505455 424.931878 
L 219.898977 429.323636 
L 219.898182 429.324675 
L 216.291762 433.716364 
L 216.290909 433.717483 
L 212.684555 438.109091 
L 212.683636 438.110304 
L 209.07736 442.501818 
L 209.076364 442.503143 
L 205.470179 446.894545 
L 205.469091 446.896004 
L 201.863016 451.287273 
L 201.861818 451.288895 
L 198.255878 455.68 
L 198.254545 455.681829 
L 194.648774 460.072727 
L 194.647273 460.074822 
L 191.04172 464.465455 
L 191.04 464.467905 
L 187.434739 468.858182 
L 187.432727 468.861134 
L 183.827879 473.250909 
L 183.825455 473.254621 
L 180.22123 477.643636 
L 180.218182 477.648636 
L 176.615015 482.036364 
L 176.610909 482.044018 
L 173.009922 486.429091 
L 173.003636 486.445415 
L 169.409769 490.821818 
L 169.397067 495.214545 
L 169.396364 495.215456 
L 165.789839 499.607273 
L 165.789091 499.608245 
L 162.182617 504 
z
" style="fill:#779af7;"/>
   </g>
   <g id="PathCollection_3">
    <path clip-path="url(#pbd8b7084a8)" d="M 313.687273 504 
L 317.294545 504 
L 320.901818 504 
L 324.509091 504 
L 328.116364 504 
L 331.723636 504 
L 335.330909 504 
L 338.938182 504 
L 342.545455 504 
L 346.152727 504 
L 349.76 504 
L 353.367273 504 
L 356.974545 504 
L 360.581818 504 
L 364.189091 504 
L 367.796364 504 
L 371.403636 504 
L 375.010909 504 
L 378.618182 504 
L 382.225455 504 
L 385.832727 504 
L 389.44 504 
L 393.047273 504 
L 396.654545 504 
L 400.261818 504 
L 403.869091 504 
L 407.476364 504 
L 411.083636 504 
L 414.690909 504 
L 418.298182 504 
L 421.905455 504 
L 425.512727 504 
L 429.12 504 
L 429.12 499.607273 
L 429.12 495.214545 
L 429.12 490.821818 
L 429.12 486.429091 
L 429.12 482.036364 
L 429.12 477.643636 
L 429.12 473.250909 
L 429.12 468.858182 
L 429.12 464.465455 
L 429.12 460.072727 
L 429.12 455.68 
L 429.12 452.285691 
L 426.450279 455.68 
L 425.512727 456.871986 
L 422.995208 460.072727 
L 421.905455 461.458244 
L 419.540147 464.465455 
L 418.298182 465.52886 
L 414.690909 467.6531 
L 411.472744 468.858182 
L 411.083636 468.996795 
L 407.476364 470.281846 
L 403.869091 471.566961 
L 400.261818 472.852072 
L 399.142264 473.250909 
L 396.654545 474.137149 
L 393.047273 475.422198 
L 389.44 476.707316 
L 386.811662 477.643636 
L 385.832727 477.992371 
L 382.225455 479.27745 
L 378.618182 480.562536 
L 375.010909 481.847648 
L 374.481175 482.036364 
L 371.403636 483.132718 
L 367.796364 484.417807 
L 364.189091 485.702863 
L 362.150491 486.429091 
L 360.581818 486.987912 
L 356.974545 488.273028 
L 353.367273 489.558126 
L 349.820007 490.821818 
L 349.76 490.843195 
L 346.152727 492.128237 
L 342.545455 493.413374 
L 338.938182 494.698438 
L 337.489467 495.214545 
L 335.330909 495.983539 
L 331.723636 497.268598 
L 328.116364 498.553663 
L 325.158903 499.607273 
L 324.509091 499.83877 
L 320.901818 501.123844 
L 317.294545 502.408935 
L 313.687273 503.693973 
L 312.828246 504 
z
" style="fill:#a3c2fe;"/>
    <path clip-path="url(#pbd8b7084a8)" d="M 73.069514 468.858182 
L 75.350082 464.465455 
L 75.607273 463.970064 
L 77.630648 460.072727 
L 79.214545 457.021904 
L 79.911222 455.68 
L 82.191792 451.287273 
L 82.821818 450.073738 
L 84.472354 446.894545 
L 86.429091 443.125572 
L 86.752924 442.501818 
L 89.033496 438.109091 
L 90.036364 436.177407 
L 91.314065 433.716364 
L 93.594635 429.323636 
L 93.643636 429.229252 
L 95.875185 424.930909 
L 97.250909 422.281036 
L 98.223565 420.538182 
L 100.541945 416.145455 
L 100.858182 415.524353 
L 103.007293 411.752727 
L 104.465455 409.169865 
L 105.493812 407.36 
L 107.989732 402.967273 
L 108.072727 402.821204 
L 110.485639 398.574545 
L 111.68 396.472507 
L 112.981552 394.181818 
L 115.287273 390.123825 
L 115.477466 389.789091 
L 117.973385 385.396364 
L 118.894545 383.775151 
L 120.469296 381.003636 
L 122.501818 377.426467 
L 122.965211 376.610909 
L 125.461121 372.218182 
L 126.109091 371.077774 
L 127.957032 367.825455 
L 129.716364 364.729105 
L 130.452958 363.432727 
L 132.948863 359.04 
L 133.323636 358.380413 
L 135.44478 354.647273 
L 136.930909 352.03172 
L 137.940685 350.254545 
L 140.436605 345.861818 
L 140.538182 345.683048 
L 142.93252 341.469091 
L 144.145455 339.334362 
L 145.428431 337.076364 
L 147.752727 332.98569 
L 147.924352 332.683636 
L 150.420257 328.290909 
L 151.36 326.636988 
L 152.916165 323.898182 
L 154.967273 320.266522 
L 155.398903 319.505455 
L 157.596808 315.112727 
L 158.574545 313.032662 
L 159.661611 310.72 
L 161.726407 306.327273 
L 162.181818 305.358413 
L 163.791206 301.934545 
L 165.789091 297.684164 
L 165.856 297.541818 
L 167.920793 293.149091 
L 169.396364 289.888987 
L 169.917558 288.756364 
L 171.87115 284.363636 
L 173.003636 281.817193 
L 173.824735 279.970909 
L 175.77832 275.578182 
L 176.610909 273.706069 
L 177.73191 271.185455 
L 179.643858 266.792727 
L 180.218182 264.49695 
L 180.778228 262.4 
L 181.707559 258.007273 
L 182.636885 253.614545 
L 183.566196 249.221818 
L 183.825455 247.996371 
L 184.495529 244.829091 
L 185.424843 240.436364 
L 186.354178 236.043636 
L 187.283492 231.650909 
L 187.432727 230.945504 
L 188.212828 227.258182 
L 189.142154 222.865455 
L 190.071482 218.472727 
L 191.000811 214.08 
L 191.04 213.894759 
L 191.930121 209.687273 
L 192.859455 205.294545 
L 193.751014 200.901818 
L 194.32476 196.509091 
L 194.647273 193.612174 
L 194.795149 192.116364 
L 195.229416 187.723636 
L 195.663686 183.330909 
L 196.169018 178.938182 
L 196.792416 174.545455 
L 197.280105 170.152727 
L 197.672034 165.76 
L 197.99391 161.367273 
L 198.254545 159.085066 
L 198.606124 156.974545 
L 199.329809 152.581818 
L 199.903819 148.189091 
L 200.370231 143.796364 
L 200.800616 139.403636 
L 201.37835 135.010909 
L 201.861818 131.334994 
L 201.979959 130.618182 
L 202.620983 126.225455 
L 203.147034 121.832727 
L 203.68931 117.44 
L 204.267051 113.047273 
L 204.844783 108.654545 
L 205.422531 104.261818 
L 205.469091 103.907803 
L 206.000263 99.869091 
L 206.57799 95.476364 
L 207.155728 91.083636 
L 207.733474 86.690909 
L 208.311213 82.298182 
L 208.895253 77.905455 
L 209.076364 76.657606 
L 209.53476 73.512727 
L 210.17609 69.12 
L 209.076364 69.12 
L 205.469091 69.12 
L 201.861818 69.12 
L 198.254545 69.12 
L 194.647273 69.12 
L 191.04 69.12 
L 189.979 69.12 
L 189.391408 73.512727 
L 188.813665 77.905455 
L 188.235929 82.298182 
L 187.658198 86.690909 
L 187.432727 88.405209 
L 187.08045 91.083636 
L 186.50272 95.476364 
L 185.924981 99.869091 
L 185.347247 104.261818 
L 184.76951 108.654545 
L 184.191778 113.047273 
L 183.825455 115.832552 
L 183.61404 117.44 
L 183.036296 121.832727 
L 182.458563 126.225455 
L 181.880833 130.618182 
L 181.303085 135.010909 
L 180.725348 139.403636 
L 180.218182 143.25977 
L 180.147608 143.796364 
L 179.554657 148.189091 
L 178.796246 152.581818 
L 177.804782 156.974545 
L 176.610909 160.925951 
L 176.471875 161.367273 
L 175.088011 165.76 
L 173.704147 170.152727 
L 173.003636 172.376296 
L 172.320267 174.545455 
L 170.936381 178.938182 
L 169.552502 183.330909 
L 169.396364 183.826533 
L 168.168638 187.723636 
L 166.784762 192.116364 
L 165.789091 195.276838 
L 165.400885 196.509091 
L 164.017016 200.901818 
L 162.633137 205.294545 
L 162.181818 206.727143 
L 161.249268 209.687273 
L 159.865395 214.08 
L 158.574545 218.177426 
L 158.481514 218.472727 
L 157.097638 222.865455 
L 155.71376 227.258182 
L 154.967273 229.62771 
L 154.329895 231.650909 
L 152.946015 236.043636 
L 151.562144 240.436364 
L 151.36 241.07802 
L 150.178276 244.829091 
L 148.794399 249.221818 
L 147.752727 252.528312 
L 147.410522 253.614545 
L 146.026656 258.007273 
L 144.642784 262.4 
L 144.145455 263.978634 
L 143.258906 266.792727 
L 141.875028 271.185455 
L 140.538182 275.428915 
L 140.491157 275.578182 
L 139.107284 279.970909 
L 137.723398 284.363636 
L 136.930909 286.886821 
L 136.343038 288.756364 
L 134.974031 293.149091 
L 133.605586 297.541818 
L 133.323636 298.446885 
L 132.237145 301.934545 
L 130.868694 306.327273 
L 129.716364 310.026271 
L 129.500249 310.72 
L 127.432701 315.112727 
L 126.109091 317.796741 
L 125.26645 319.505455 
L 123.100217 323.898182 
L 122.501818 325.111623 
L 120.933974 328.290909 
L 118.894545 332.426493 
L 118.767737 332.683636 
L 116.601486 337.076364 
L 115.287273 339.741336 
L 114.435245 341.469091 
L 112.268997 345.861818 
L 111.68 347.056198 
L 110.102768 350.254545 
L 108.072727 354.371083 
L 107.936526 354.647273 
L 105.770279 359.04 
L 104.465455 361.685932 
L 103.604037 363.432727 
L 101.437791 367.825455 
L 100.858182 369.000798 
L 99.271551 372.218182 
L 97.250909 376.315648 
L 97.105304 376.610909 
L 94.93907 381.003636 
L 93.643636 383.630551 
L 92.772837 385.396364 
L 90.600639 389.789091 
L 90.036364 390.915792 
L 88.409108 394.181818 
L 86.429091 398.122412 
L 86.203072 398.574545 
L 83.933239 402.967273 
L 82.821818 405.108041 
L 81.652674 407.36 
L 79.372104 411.752727 
L 79.214545 412.056211 
L 77.091531 416.145455 
L 75.607273 419.004348 
L 74.810954 420.538182 
L 72.530395 424.930909 
L 72 425.95254 
L 72 429.323636 
L 72 433.716364 
L 72 438.109091 
L 72 442.501818 
L 72 446.894545 
L 72 451.287273 
L 72 455.68 
L 72 460.072727 
L 72 464.465455 
L 72 468.858182 
L 72 470.918246 
z
" style="fill:#a3c2fe;"/>
   </g>
   <g id="PathCollection_4">
    <path clip-path="url(#pbd8b7084a8)" d="M 72.530395 424.930909 
L 74.810954 420.538182 
L 75.607273 419.004348 
L 77.091531 416.145455 
L 79.214545 412.056211 
L 79.372104 411.752727 
L 81.652674 407.36 
L 82.821818 405.108041 
L 83.933239 402.967273 
L 86.203072 398.574545 
L 86.429091 398.122412 
L 88.409108 394.181818 
L 90.036364 390.915792 
L 90.600639 389.789091 
L 92.772837 385.396364 
L 93.643636 383.630551 
L 94.93907 381.003636 
L 97.105304 376.610909 
L 97.250909 376.315648 
L 99.271551 372.218182 
L 100.858182 369.000798 
L 101.437791 367.825455 
L 103.604037 363.432727 
L 104.465455 361.685932 
L 105.770279 359.04 
L 107.936526 354.647273 
L 108.072727 354.371083 
L 110.102768 350.254545 
L 111.68 347.056198 
L 112.268997 345.861818 
L 114.435245 341.469091 
L 115.287273 339.741336 
L 116.601486 337.076364 
L 118.767737 332.683636 
L 118.894545 332.426493 
L 120.933974 328.290909 
L 122.501818 325.111623 
L 123.100217 323.898182 
L 125.26645 319.505455 
L 126.109091 317.796741 
L 127.432701 315.112727 
L 129.500249 310.72 
L 129.716364 310.026271 
L 130.868694 306.327273 
L 132.237145 301.934545 
L 133.323636 298.446885 
L 133.605586 297.541818 
L 134.974031 293.149091 
L 136.343038 288.756364 
L 136.930909 286.886821 
L 137.723398 284.363636 
L 139.107284 279.970909 
L 140.491157 275.578182 
L 140.538182 275.428915 
L 141.875028 271.185455 
L 143.258906 266.792727 
L 144.145455 263.978634 
L 144.642784 262.4 
L 146.026656 258.007273 
L 147.410522 253.614545 
L 147.752727 252.528312 
L 148.794399 249.221818 
L 150.178276 244.829091 
L 151.36 241.07802 
L 151.562144 240.436364 
L 152.946015 236.043636 
L 154.329895 231.650909 
L 154.967273 229.62771 
L 155.71376 227.258182 
L 157.097638 222.865455 
L 158.481514 218.472727 
L 158.574545 218.177426 
L 159.865395 214.08 
L 161.249268 209.687273 
L 162.181818 206.727143 
L 162.633137 205.294545 
L 164.017016 200.901818 
L 165.400885 196.509091 
L 165.789091 195.276838 
L 166.784762 192.116364 
L 168.168638 187.723636 
L 169.396364 183.826533 
L 169.552502 183.330909 
L 170.936381 178.938182 
L 172.320267 174.545455 
L 173.003636 172.376296 
L 173.704147 170.152727 
L 175.088011 165.76 
L 176.471875 161.367273 
L 176.610909 160.925951 
L 177.804782 156.974545 
L 178.796246 152.581818 
L 179.554657 148.189091 
L 180.147608 143.796364 
L 180.218182 143.25977 
L 180.725348 139.403636 
L 181.303085 135.010909 
L 181.880833 130.618182 
L 182.458563 126.225455 
L 183.036296 121.832727 
L 183.61404 117.44 
L 183.825455 115.832552 
L 184.191778 113.047273 
L 184.76951 108.654545 
L 185.347247 104.261818 
L 185.924981 99.869091 
L 186.50272 95.476364 
L 187.08045 91.083636 
L 187.432727 88.405209 
L 187.658198 86.690909 
L 188.235929 82.298182 
L 188.813665 77.905455 
L 189.391408 73.512727 
L 189.979 69.12 
L 187.432727 69.12 
L 183.825455 69.12 
L 180.218182 69.12 
L 176.610909 69.12 
L 173.003636 69.12 
L 169.89388 69.12 
L 169.396364 72.902733 
L 169.316136 73.512727 
L 168.7384 77.905455 
L 168.160657 82.298182 
L 167.582921 86.690909 
L 167.005179 91.083636 
L 166.427445 95.476364 
L 165.849712 99.869091 
L 165.789091 100.330017 
L 165.268099 104.261818 
L 164.541715 108.654545 
L 163.596655 113.047273 
L 162.303766 117.44 
L 162.181818 117.827088 
L 160.919877 121.832727 
L 159.536013 126.225455 
L 158.574545 129.277398 
L 158.152154 130.618182 
L 156.768267 135.010909 
L 155.384379 139.403636 
L 154.967273 140.727628 
L 154.000519 143.796364 
L 152.616645 148.189091 
L 151.36 152.177952 
L 151.232767 152.581818 
L 149.848904 156.974545 
L 148.465034 161.367273 
L 147.752727 163.628265 
L 147.081142 165.76 
L 145.697275 170.152727 
L 144.313394 174.545455 
L 144.145455 175.07854 
L 142.92954 178.938182 
L 141.545664 183.330909 
L 140.538182 186.528906 
L 140.161797 187.723636 
L 138.77791 192.116364 
L 137.394016 196.509091 
L 136.930909 197.979102 
L 136.010153 200.901818 
L 134.626285 205.294545 
L 133.323636 209.429442 
L 133.24241 209.687273 
L 131.858535 214.08 
L 130.474681 218.472727 
L 129.716364 220.879768 
L 129.090789 222.865455 
L 127.706913 227.258182 
L 126.323036 231.650909 
L 126.109091 232.330009 
L 124.939149 236.043636 
L 123.555285 240.436364 
L 122.501818 243.780319 
L 122.171418 244.829091 
L 120.787536 249.221818 
L 119.403679 253.614545 
L 118.894545 255.230645 
L 118.019793 258.007273 
L 116.635929 262.4 
L 115.287273 266.680854 
L 115.252028 266.792727 
L 113.868165 271.185455 
L 112.484292 275.578182 
L 111.68 278.131152 
L 111.100406 279.970909 
L 109.716549 284.363636 
L 108.332679 288.756364 
L 108.072727 289.581512 
L 106.948804 293.149091 
L 105.564906 297.541818 
L 104.465455 301.031752 
L 104.181045 301.934545 
L 102.803047 306.327273 
L 101.434596 310.72 
L 100.858182 312.570323 
L 100.066165 315.112727 
L 98.697703 319.505455 
L 97.32926 323.898182 
L 97.250909 324.115659 
L 95.830981 328.290909 
L 93.743462 332.683636 
L 93.643636 332.886064 
L 91.577212 337.076364 
L 90.036364 340.20092 
L 89.410976 341.469091 
L 87.244737 345.861818 
L 86.429091 347.515806 
L 85.0785 350.254545 
L 82.912233 354.647273 
L 82.821818 354.830616 
L 80.746005 359.04 
L 79.214545 362.145521 
L 78.579766 363.432727 
L 76.413518 367.825455 
L 75.607273 369.460366 
L 74.247272 372.218182 
L 72.081032 376.610909 
L 72 376.775226 
L 72 381.003636 
L 72 385.396364 
L 72 389.789091 
L 72 394.181818 
L 72 398.574545 
L 72 402.967273 
L 72 407.36 
L 72 411.752727 
L 72 416.145455 
L 72 420.538182 
L 72 424.930909 
L 72 425.95254 
z
" style="fill:#ccd9ed;"/>
   </g>
   <g id="PathCollection_5">
    <path clip-path="url(#pbd8b7084a8)" d="M 72.081032 376.610909 
L 74.247272 372.218182 
L 75.607273 369.460366 
L 76.413518 367.825455 
L 78.579766 363.432727 
L 79.214545 362.145521 
L 80.746005 359.04 
L 82.821818 354.830616 
L 82.912233 354.647273 
L 85.0785 350.254545 
L 86.429091 347.515806 
L 87.244737 345.861818 
L 89.410976 341.469091 
L 90.036364 340.20092 
L 91.577212 337.076364 
L 93.643636 332.886064 
L 93.743462 332.683636 
L 95.830981 328.290909 
L 97.250909 324.115659 
L 97.32926 323.898182 
L 98.697703 319.505455 
L 100.066165 315.112727 
L 100.858182 312.570323 
L 101.434596 310.72 
L 102.803047 306.327273 
L 104.181045 301.934545 
L 104.465455 301.031752 
L 105.564906 297.541818 
L 106.948804 293.149091 
L 108.072727 289.581512 
L 108.332679 288.756364 
L 109.716549 284.363636 
L 111.100406 279.970909 
L 111.68 278.131152 
L 112.484292 275.578182 
L 113.868165 271.185455 
L 115.252028 266.792727 
L 115.287273 266.680854 
L 116.635929 262.4 
L 118.019793 258.007273 
L 118.894545 255.230645 
L 119.403679 253.614545 
L 120.787536 249.221818 
L 122.171418 244.829091 
L 122.501818 243.780319 
L 123.555285 240.436364 
L 124.939149 236.043636 
L 126.109091 232.330009 
L 126.323036 231.650909 
L 127.706913 227.258182 
L 129.090789 222.865455 
L 129.716364 220.879768 
L 130.474681 218.472727 
L 131.858535 214.08 
L 133.24241 209.687273 
L 133.323636 209.429442 
L 134.626285 205.294545 
L 136.010153 200.901818 
L 136.930909 197.979102 
L 137.394016 196.509091 
L 138.77791 192.116364 
L 140.161797 187.723636 
L 140.538182 186.528906 
L 141.545664 183.330909 
L 142.92954 178.938182 
L 144.145455 175.07854 
L 144.313394 174.545455 
L 145.697275 170.152727 
L 147.081142 165.76 
L 147.752727 163.628265 
L 148.465034 161.367273 
L 149.848904 156.974545 
L 151.232767 152.581818 
L 151.36 152.177952 
L 152.616645 148.189091 
L 154.000519 143.796364 
L 154.967273 140.727628 
L 155.384379 139.403636 
L 156.768267 135.010909 
L 158.152154 130.618182 
L 158.574545 129.277398 
L 159.536013 126.225455 
L 160.919877 121.832727 
L 162.181818 117.827088 
L 162.303766 117.44 
L 163.596655 113.047273 
L 164.541715 108.654545 
L 165.268099 104.261818 
L 165.789091 100.330017 
L 165.849712 99.869091 
L 166.427445 95.476364 
L 167.005179 91.083636 
L 167.582921 86.690909 
L 168.160657 82.298182 
L 168.7384 77.905455 
L 169.316136 73.512727 
L 169.396364 72.902733 
L 169.89388 69.12 
L 169.396364 69.12 
L 165.789091 69.12 
L 162.181818 69.12 
L 158.574545 69.12 
L 154.967273 69.12 
L 151.36 69.12 
L 149.379742 69.12 
L 148.135643 73.512727 
L 147.752727 74.728185 
L 146.751764 77.905455 
L 145.367899 82.298182 
L 144.145455 86.178512 
L 143.98403 86.690909 
L 142.600139 91.083636 
L 141.216277 95.476364 
L 140.538182 97.628805 
L 139.832406 99.869091 
L 138.448526 104.261818 
L 137.064658 108.654545 
L 136.930909 109.079093 
L 135.68078 113.047273 
L 134.2969 117.44 
L 133.323636 120.529364 
L 132.913031 121.832727 
L 131.529158 126.225455 
L 130.145301 130.618182 
L 129.716364 131.979704 
L 128.761404 135.010909 
L 127.377526 139.403636 
L 126.109091 143.429973 
L 125.993665 143.796364 
L 124.609791 148.189091 
L 123.22592 152.581818 
L 122.501818 154.880269 
L 121.842037 156.974545 
L 120.458172 161.367273 
L 119.074277 165.76 
L 118.894545 166.330517 
L 117.690423 170.152727 
L 116.306559 174.545455 
L 115.287273 177.780877 
L 114.922676 178.938182 
L 113.538785 183.330909 
L 112.154915 187.723636 
L 111.68 189.231114 
L 110.771043 192.116364 
L 109.387169 196.509091 
L 108.072727 200.681443 
L 108.003301 200.901818 
L 106.619428 205.294545 
L 105.235553 209.687273 
L 104.465455 212.131747 
L 103.851682 214.08 
L 102.467814 218.472727 
L 101.083927 222.865455 
L 100.858182 223.582029 
L 99.700058 227.258182 
L 98.316176 231.650909 
L 97.250909 235.032322 
L 96.932311 236.043636 
L 95.548432 240.436364 
L 94.164554 244.829091 
L 93.643636 246.482615 
L 92.780688 249.221818 
L 91.396817 253.614545 
L 90.036364 257.932857 
L 90.01292 258.007273 
L 88.629073 262.4 
L 87.24519 266.792727 
L 86.429091 269.383196 
L 85.861309 271.185455 
L 84.477444 275.578182 
L 83.093564 279.970909 
L 82.821818 280.833484 
L 81.709682 284.363636 
L 80.325823 288.756364 
L 79.214545 292.283819 
L 78.94195 293.149091 
L 77.558064 297.541818 
L 76.174191 301.934545 
L 75.607273 303.734037 
L 74.790298 306.327273 
L 73.406424 310.72 
L 72.022554 315.112727 
L 72 315.184321 
L 72 319.505455 
L 72 323.898182 
L 72 328.290909 
L 72 332.683636 
L 72 337.076364 
L 72 341.469091 
L 72 345.861818 
L 72 350.254545 
L 72 354.647273 
L 72 359.04 
L 72 363.432727 
L 72 367.825455 
L 72 372.218182 
L 72 376.610909 
L 72 376.775226 
z
" style="fill:#ecd3c5;"/>
   </g>
   <g id="PathCollection_6">
    <path clip-path="url(#pbd8b7084a8)" d="M 72.022554 315.112727 
L 73.406424 310.72 
L 74.790298 306.327273 
L 75.607273 303.734037 
L 76.174191 301.934545 
L 77.558064 297.541818 
L 78.94195 293.149091 
L 79.214545 292.283819 
L 80.325823 288.756364 
L 81.709682 284.363636 
L 82.821818 280.833484 
L 83.093564 279.970909 
L 84.477444 275.578182 
L 85.861309 271.185455 
L 86.429091 269.383196 
L 87.24519 266.792727 
L 88.629073 262.4 
L 90.01292 258.007273 
L 90.036364 257.932857 
L 91.396817 253.614545 
L 92.780688 249.221818 
L 93.643636 246.482615 
L 94.164554 244.829091 
L 95.548432 240.436364 
L 96.932311 236.043636 
L 97.250909 235.032322 
L 98.316176 231.650909 
L 99.700058 227.258182 
L 100.858182 223.582029 
L 101.083927 222.865455 
L 102.467814 218.472727 
L 103.851682 214.08 
L 104.465455 212.131747 
L 105.235553 209.687273 
L 106.619428 205.294545 
L 108.003301 200.901818 
L 108.072727 200.681443 
L 109.387169 196.509091 
L 110.771043 192.116364 
L 111.68 189.231114 
L 112.154915 187.723636 
L 113.538785 183.330909 
L 114.922676 178.938182 
L 115.287273 177.780877 
L 116.306559 174.545455 
L 117.690423 170.152727 
L 118.894545 166.330517 
L 119.074277 165.76 
L 120.458172 161.367273 
L 121.842037 156.974545 
L 122.501818 154.880269 
L 123.22592 152.581818 
L 124.609791 148.189091 
L 125.993665 143.796364 
L 126.109091 143.429973 
L 127.377526 139.403636 
L 128.761404 135.010909 
L 129.716364 131.979704 
L 130.145301 130.618182 
L 131.529158 126.225455 
L 132.913031 121.832727 
L 133.323636 120.529364 
L 134.2969 117.44 
L 135.68078 113.047273 
L 136.930909 109.079093 
L 137.064658 108.654545 
L 138.448526 104.261818 
L 139.832406 99.869091 
L 140.538182 97.628805 
L 141.216277 95.476364 
L 142.600139 91.083636 
L 143.98403 86.690909 
L 144.145455 86.178512 
L 145.367899 82.298182 
L 146.751764 77.905455 
L 147.752727 74.728185 
L 148.135643 73.512727 
L 149.379742 69.12 
L 147.752727 69.12 
L 144.145455 69.12 
L 140.538182 69.12 
L 136.930909 69.12 
L 133.323636 69.12 
L 129.716364 69.12 
L 126.109091 69.12 
L 122.501818 69.12 
L 121.512669 69.12 
L 120.128779 73.512727 
L 118.894545 77.430491 
L 118.744914 77.905455 
L 117.361025 82.298182 
L 115.977147 86.690909 
L 115.287273 88.880755 
L 114.593292 91.083636 
L 113.209404 95.476364 
L 111.8255 99.869091 
L 111.68 100.330962 
L 110.441685 104.261818 
L 109.057799 108.654545 
L 108.072727 111.781345 
L 107.673904 113.047273 
L 106.290029 117.44 
L 104.906164 121.832727 
L 104.465455 123.231634 
L 103.5223 126.225455 
L 102.138428 130.618182 
L 100.858182 134.681933 
L 100.75454 135.010909 
L 99.37068 139.403636 
L 97.986797 143.796364 
L 97.250909 146.132221 
L 96.602925 148.189091 
L 95.21905 152.581818 
L 93.835176 156.974545 
L 93.643636 157.582533 
L 92.451295 161.367273 
L 91.067433 165.76 
L 90.036364 169.03286 
L 89.683567 170.152727 
L 88.299688 174.545455 
L 86.915818 178.938182 
L 86.429091 180.483161 
L 85.531943 183.330909 
L 84.148071 187.723636 
L 82.821818 191.933372 
L 82.764168 192.116364 
L 81.380301 196.509091 
L 79.996443 200.901818 
L 79.214545 203.383706 
L 78.612549 205.294545 
L 77.228675 209.687273 
L 75.844789 214.08 
L 75.607273 214.833944 
L 74.46095 218.472727 
L 73.077062 222.865455 
L 72 226.28434 
L 72 227.258182 
L 72 231.650909 
L 72 236.043636 
L 72 240.436364 
L 72 244.829091 
L 72 249.221818 
L 72 253.614545 
L 72 258.007273 
L 72 262.4 
L 72 266.792727 
L 72 271.185455 
L 72 275.578182 
L 72 279.970909 
L 72 284.363636 
L 72 288.756364 
L 72 293.149091 
L 72 297.541818 
L 72 301.934545 
L 72 306.327273 
L 72 310.72 
L 72 315.112727 
L 72 315.184321 
z
" style="fill:#f7b093;"/>
   </g>
   <g id="PathCollection_7">
    <path clip-path="url(#pbd8b7084a8)" d="M 73.077062 222.865455 
L 74.46095 218.472727 
L 75.607273 214.833944 
L 75.844789 214.08 
L 77.228675 209.687273 
L 78.612549 205.294545 
L 79.214545 203.383706 
L 79.996443 200.901818 
L 81.380301 196.509091 
L 82.764168 192.116364 
L 82.821818 191.933372 
L 84.148071 187.723636 
L 85.531943 183.330909 
L 86.429091 180.483161 
L 86.915818 178.938182 
L 88.299688 174.545455 
L 89.683567 170.152727 
L 90.036364 169.03286 
L 91.067433 165.76 
L 92.451295 161.367273 
L 93.643636 157.582533 
L 93.835176 156.974545 
L 95.21905 152.581818 
L 96.602925 148.189091 
L 97.250909 146.132221 
L 97.986797 143.796364 
L 99.37068 139.403636 
L 100.75454 135.010909 
L 100.858182 134.681933 
L 102.138428 130.618182 
L 103.5223 126.225455 
L 104.465455 123.231634 
L 104.906164 121.832727 
L 106.290029 117.44 
L 107.673904 113.047273 
L 108.072727 111.781345 
L 109.057799 108.654545 
L 110.441685 104.261818 
L 111.68 100.330962 
L 111.8255 99.869091 
L 113.209404 95.476364 
L 114.593292 91.083636 
L 115.287273 88.880755 
L 115.977147 86.690909 
L 117.361025 82.298182 
L 118.744914 77.905455 
L 118.894545 77.430491 
L 120.128779 73.512727 
L 121.512669 69.12 
L 118.894545 69.12 
L 115.287273 69.12 
L 111.68 69.12 
L 108.072727 69.12 
L 104.465455 69.12 
L 100.858182 69.12 
L 97.250909 69.12 
L 93.643636 69.12 
L 93.505821 69.12 
L 92.121934 73.512727 
L 90.73806 77.905455 
L 90.036364 80.132785 
L 89.354175 82.298182 
L 87.970304 86.690909 
L 86.586416 91.083636 
L 86.429091 91.583031 
L 85.202557 95.476364 
L 83.818682 99.869091 
L 82.821818 103.033359 
L 82.434806 104.261818 
L 81.050932 108.654545 
L 79.667072 113.047273 
L 79.214545 114.483665 
L 78.283162 117.44 
L 76.899298 121.832727 
L 75.607273 125.933927 
L 75.515432 126.225455 
L 74.131551 130.618182 
L 72.747666 135.010909 
L 72 137.384169 
L 72 139.403636 
L 72 143.796364 
L 72 148.189091 
L 72 152.581818 
L 72 156.974545 
L 72 161.367273 
L 72 165.76 
L 72 170.152727 
L 72 174.545455 
L 72 178.938182 
L 72 183.330909 
L 72 187.723636 
L 72 192.116364 
L 72 196.509091 
L 72 200.901818 
L 72 205.294545 
L 72 209.687273 
L 72 214.08 
L 72 218.472727 
L 72 222.865455 
L 72 226.28434 
z
" style="fill:#eb7d62;"/>
   </g>
   <g id="PathCollection_8">
    <path clip-path="url(#pbd8b7084a8)" d="M 72.747666 135.010909 
L 74.131551 130.618182 
L 75.515432 126.225455 
L 75.607273 125.933927 
L 76.899298 121.832727 
L 78.283162 117.44 
L 79.214545 114.483665 
L 79.667072 113.047273 
L 81.050932 108.654545 
L 82.434806 104.261818 
L 82.821818 103.033359 
L 83.818682 99.869091 
L 85.202557 95.476364 
L 86.429091 91.583031 
L 86.586416 91.083636 
L 87.970304 86.690909 
L 89.354175 82.298182 
L 90.036364 80.132785 
L 90.73806 77.905455 
L 92.121934 73.512727 
L 93.505821 69.12 
L 90.036364 69.12 
L 86.429091 69.12 
L 82.821818 69.12 
L 79.214545 69.12 
L 75.607273 69.12 
L 72 69.12 
L 72 73.512727 
L 72 77.905455 
L 72 82.298182 
L 72 86.690909 
L 72 91.083636 
L 72 95.476364 
L 72 99.869091 
L 72 104.261818 
L 72 108.654545 
L 72 113.047273 
L 72 117.44 
L 72 121.832727 
L 72 126.225455 
L 72 130.618182 
L 72 135.010909 
L 72 137.384169 
z
" style="fill:#ca3b37;"/>
   </g>
   <g id="matplotlib.axis_1">
    <g id="xtick_1">
     <g id="line2d_1">
      <defs>
       <path d="M 0 0 
L 0 3.5 
" id="m67c3b47a5a" style="stroke:#000000;stroke-width:0.8;"/>
      </defs>
      <g>
       <use style="stroke:#000000;stroke-width:0.8;" x="107.712" xlink:href="#m67c3b47a5a" y="504"/>
      </g>
     </g>
     <g id="text_1">
      <!-- −4 -->
      <defs>
       <path d="M 10.59375 35.5 
L 73.1875 35.5 
L 73.1875 27.203125 
L 10.59375 27.203125 
z
" id="DejaVuSans-2212"/>
       <path d="M 37.796875 64.3125 
L 12.890625 25.390625 
L 37.796875 25.390625 
z
M 35.203125 72.90625 
L 47.609375 72.90625 
L 47.609375 25.390625 
L 58.015625 25.390625 
L 58.015625 17.1875 
L 47.609375 17.1875 
L 47.609375 0 
L 37.796875 0 
L 37.796875 17.1875 
L 4.890625 17.1875 
L 4.890625 26.703125 
z
" id="DejaVuSans-34"/>
      </defs>
      <g transform="translate(100.340906 518.598438)scale(0.1 -0.1)">
       <use xlink:href="#DejaVuSans-2212"/>
       <use x="83.789062" xlink:href="#DejaVuSans-34"/>
      </g>
     </g>
    </g>
    <g id="xtick_2">
     <g id="line2d_2">
      <g>
       <use style="stroke:#000000;stroke-width:0.8;" x="179.136" xlink:href="#m67c3b47a5a" y="504"/>
      </g>
     </g>
     <g id="text_2">
      <!-- −2 -->
      <defs>
       <path d="M 19.1875 8.296875 
L 53.609375 8.296875 
L 53.609375 0 
L 7.328125 0 
L 7.328125 8.296875 
Q 12.9375 14.109375 22.625 23.890625 
Q 32.328125 33.6875 34.8125 36.53125 
Q 39.546875 41.84375 41.421875 45.53125 
Q 43.3125 49.21875 43.3125 52.78125 
Q 43.3125 58.59375 39.234375 62.25 
Q 35.15625 65.921875 28.609375 65.921875 
Q 23.96875 65.921875 18.8125 64.3125 
Q 13.671875 62.703125 7.8125 59.421875 
L 7.8125 69.390625 
Q 13.765625 71.78125 18.9375 73 
Q 24.125 74.21875 28.421875 74.21875 
Q 39.75 74.21875 46.484375 68.546875 
Q 53.21875 62.890625 53.21875 53.421875 
Q 53.21875 48.921875 51.53125 44.890625 
Q 49.859375 40.875 45.40625 35.40625 
Q 44.1875 33.984375 37.640625 27.21875 
Q 31.109375 20.453125 19.1875 8.296875 
z
" id="DejaVuSans-32"/>
      </defs>
      <g transform="translate(171.764906 518.598438)scale(0.1 -0.1)">
       <use xlink:href="#DejaVuSans-2212"/>
       <use x="83.789062" xlink:href="#DejaVuSans-32"/>
      </g>
     </g>
    </g>
    <g id="xtick_3">
     <g id="line2d_3">
      <g>
       <use style="stroke:#000000;stroke-width:0.8;" x="250.56" xlink:href="#m67c3b47a5a" y="504"/>
      </g>
     </g>
     <g id="text_3">
      <!-- 0 -->
      <defs>
       <path d="M 31.78125 66.40625 
Q 24.171875 66.40625 20.328125 58.90625 
Q 16.5 51.421875 16.5 36.375 
Q 16.5 21.390625 20.328125 13.890625 
Q 24.171875 6.390625 31.78125 6.390625 
Q 39.453125 6.390625 43.28125 13.890625 
Q 47.125 21.390625 47.125 36.375 
Q 47.125 51.421875 43.28125 58.90625 
Q 39.453125 66.40625 31.78125 66.40625 
z
M 31.78125 74.21875 
Q 44.046875 74.21875 50.515625 64.515625 
Q 56.984375 54.828125 56.984375 36.375 
Q 56.984375 17.96875 50.515625 8.265625 
Q 44.046875 -1.421875 31.78125 -1.421875 
Q 19.53125 -1.421875 13.0625 8.265625 
Q 6.59375 17.96875 6.59375 36.375 
Q 6.59375 54.828125 13.0625 64.515625 
Q 19.53125 74.21875 31.78125 74.21875 
z
" id="DejaVuSans-30"/>
      </defs>
      <g transform="translate(247.37875 518.598438)scale(0.1 -0.1)">
       <use xlink:href="#DejaVuSans-30"/>
      </g>
     </g>
    </g>
    <g id="xtick_4">
     <g id="line2d_4">
      <g>
       <use style="stroke:#000000;stroke-width:0.8;" x="321.984" xlink:href="#m67c3b47a5a" y="504"/>
      </g>
     </g>
     <g id="text_4">
      <!-- 2 -->
      <g transform="translate(318.80275 518.598438)scale(0.1 -0.1)">
       <use xlink:href="#DejaVuSans-32"/>
      </g>
     </g>
    </g>
    <g id="xtick_5">
     <g id="line2d_5">
      <g>
       <use style="stroke:#000000;stroke-width:0.8;" x="393.408" xlink:href="#m67c3b47a5a" y="504"/>
      </g>
     </g>
     <g id="text_5">
      <!-- 4 -->
      <g transform="translate(390.22675 518.598438)scale(0.1 -0.1)">
       <use xlink:href="#DejaVuSans-34"/>
      </g>
     </g>
    </g>
   </g>
   <g id="matplotlib.axis_2">
    <g id="ytick_1">
     <g id="line2d_6">
      <defs>
       <path d="M 0 0 
L -3.5 0 
" id="mcd96fb1b83" style="stroke:#000000;stroke-width:0.8;"/>
      </defs>
      <g>
       <use style="stroke:#000000;stroke-width:0.8;" x="72" xlink:href="#mcd96fb1b83" y="460.512"/>
      </g>
     </g>
     <g id="text_6">
      <!-- −4 -->
      <g transform="translate(50.257812 464.311219)scale(0.1 -0.1)">
       <use xlink:href="#DejaVuSans-2212"/>
       <use x="83.789062" xlink:href="#DejaVuSans-34"/>
      </g>
     </g>
    </g>
    <g id="ytick_2">
     <g id="line2d_7">
      <g>
       <use style="stroke:#000000;stroke-width:0.8;" x="72" xlink:href="#mcd96fb1b83" y="373.536"/>
      </g>
     </g>
     <g id="text_7">
      <!-- −2 -->
      <g transform="translate(50.257812 377.335219)scale(0.1 -0.1)">
       <use xlink:href="#DejaVuSans-2212"/>
       <use x="83.789062" xlink:href="#DejaVuSans-32"/>
      </g>
     </g>
    </g>
    <g id="ytick_3">
     <g id="line2d_8">
      <g>
       <use style="stroke:#000000;stroke-width:0.8;" x="72" xlink:href="#mcd96fb1b83" y="286.56"/>
      </g>
     </g>
     <g id="text_8">
      <!-- 0 -->
      <g transform="translate(58.6375 290.359219)scale(0.1 -0.1)">
       <use xlink:href="#DejaVuSans-30"/>
      </g>
     </g>
    </g>
    <g id="ytick_4">
     <g id="line2d_9">
      <g>
       <use style="stroke:#000000;stroke-width:0.8;" x="72" xlink:href="#mcd96fb1b83" y="199.584"/>
      </g>
     </g>
     <g id="text_9">
      <!-- 2 -->
      <g transform="translate(58.6375 203.383219)scale(0.1 -0.1)">
       <use xlink:href="#DejaVuSans-32"/>
      </g>
     </g>
    </g>
    <g id="ytick_5">
     <g id="line2d_10">
      <g>
       <use style="stroke:#000000;stroke-width:0.8;" x="72" xlink:href="#mcd96fb1b83" y="112.608"/>
      </g>
     </g>
     <g id="text_10">
      <!-- 4 -->
      <g transform="translate(58.6375 116.407219)scale(0.1 -0.1)">
       <use xlink:href="#DejaVuSans-34"/>
      </g>
     </g>
    </g>
   </g>
   <g id="patch_3">
    <path d="M 72 504 
L 72 69.12 
" style="fill:none;stroke:#000000;stroke-linecap:square;stroke-linejoin:miter;stroke-width:0.8;"/>
   </g>
   <g id="patch_4">
    <path d="M 429.12 504 
L 429.12 69.12 
" style="fill:none;stroke:#000000;stroke-linecap:square;stroke-linejoin:miter;stroke-width:0.8;"/>
   </g>
   <g id="patch_5">
    <path d="M 72 504 
L 429.12 504 
" style="fill:none;stroke:#000000;stroke-linecap:square;stroke-linejoin:miter;stroke-width:0.8;"/>
   </g>
   <g id="patch_6">
    <path d="M 72 69.12 
L 429.12 69.12 
" style="fill:none;stroke:#000000;stroke-linecap:square;stroke-linejoin:miter;stroke-width:0.8;"/>
   </g>
  </g>
  <g id="axes_2">
   <g id="patch_7">
    <path clip-path="url(#p36d20346f1)" d="M 451.44 504 
L 451.44 449.64 
L 451.44 123.48 
L 451.44 69.12 
L 473.184 69.12 
L 473.184 123.48 
L 473.184 449.64 
L 473.184 504 
z
" style="fill:#ffffff;stroke:#ffffff;stroke-linejoin:miter;stroke-width:0.01;"/>
   </g>
   <g id="QuadMesh_1">
    <path clip-path="url(#p36d20346f1)" d="M 451.44 504 
L 473.184 504 
L 473.184 449.64 
L 451.44 449.64 
L 451.44 504 
" style="fill:#4e68d8;"/>
    <path clip-path="url(#p36d20346f1)" d="M 451.44 449.64 
L 473.184 449.64 
L 473.184 395.28 
L 451.44 395.28 
L 451.44 449.64 
" style="fill:#779af7;"/>
    <path clip-path="url(#p36d20346f1)" d="M 451.44 395.28 
L 473.184 395.28 
L 473.184 340.92 
L 451.44 340.92 
L 451.44 395.28 
" style="fill:#a3c2fe;"/>
    <path clip-path="url(#p36d20346f1)" d="M 451.44 340.92 
L 473.184 340.92 
L 473.184 286.56 
L 451.44 286.56 
L 451.44 340.92 
" style="fill:#ccd9ed;"/>
    <path clip-path="url(#p36d20346f1)" d="M 451.44 286.56 
L 473.184 286.56 
L 473.184 232.2 
L 451.44 232.2 
L 451.44 286.56 
" style="fill:#ecd3c5;"/>
    <path clip-path="url(#p36d20346f1)" d="M 451.44 232.2 
L 473.184 232.2 
L 473.184 177.84 
L 451.44 177.84 
L 451.44 232.2 
" style="fill:#f7b093;"/>
    <path clip-path="url(#p36d20346f1)" d="M 451.44 177.84 
L 473.184 177.84 
L 473.184 123.48 
L 451.44 123.48 
L 451.44 177.84 
" style="fill:#eb7d62;"/>
    <path clip-path="url(#p36d20346f1)" d="M 451.44 123.48 
L 473.184 123.48 
L 473.184 69.12 
L 451.44 69.12 
L 451.44 123.48 
" style="fill:#ca3b37;"/>
   </g>
   <g id="matplotlib.axis_3"/>
   <g id="matplotlib.axis_4">
    <g id="ytick_6">
     <g id="line2d_11">
      <defs>
       <path d="M 0 0 
L 3.5 0 
" id="m126fc5577d" style="stroke:#000000;stroke-width:0.8;"/>
      </defs>
      <g>
       <use style="stroke:#000000;stroke-width:0.8;" x="473.184" xlink:href="#m126fc5577d" y="504"/>
      </g>
     </g>
     <g id="text_11">
      <!-- −0.1 -->
      <defs>
       <path d="M 10.6875 12.40625 
L 21 12.40625 
L 21 0 
L 10.6875 0 
z
" id="DejaVuSans-2e"/>
       <path d="M 12.40625 8.296875 
L 28.515625 8.296875 
L 28.515625 63.921875 
L 10.984375 60.40625 
L 10.984375 69.390625 
L 28.421875 72.90625 
L 38.28125 72.90625 
L 38.28125 8.296875 
L 54.390625 8.296875 
L 54.390625 0 
L 12.40625 0 
z
" id="DejaVuSans-31"/>
      </defs>
      <g transform="translate(480.184 507.799219)scale(0.1 -0.1)">
       <use xlink:href="#DejaVuSans-2212"/>
       <use x="83.789062" xlink:href="#DejaVuSans-30"/>
       <use x="147.412109" xlink:href="#DejaVuSans-2e"/>
       <use x="179.199219" xlink:href="#DejaVuSans-31"/>
      </g>
     </g>
    </g>
    <g id="ytick_7">
     <g id="line2d_12">
      <g>
       <use style="stroke:#000000;stroke-width:0.8;" x="473.184" xlink:href="#m126fc5577d" y="449.64"/>
      </g>
     </g>
     <g id="text_12">
      <!-- 0.0 -->
      <g transform="translate(480.184 453.439219)scale(0.1 -0.1)">
       <use xlink:href="#DejaVuSans-30"/>
       <use x="63.623047" xlink:href="#DejaVuSans-2e"/>
       <use x="95.410156" xlink:href="#DejaVuSans-30"/>
      </g>
     </g>
    </g>
    <g id="ytick_8">
     <g id="line2d_13">
      <g>
       <use style="stroke:#000000;stroke-width:0.8;" x="473.184" xlink:href="#m126fc5577d" y="395.28"/>
      </g>
     </g>
     <g id="text_13">
      <!-- 0.1 -->
      <g transform="translate(480.184 399.079219)scale(0.1 -0.1)">
       <use xlink:href="#DejaVuSans-30"/>
       <use x="63.623047" xlink:href="#DejaVuSans-2e"/>
       <use x="95.410156" xlink:href="#DejaVuSans-31"/>
      </g>
     </g>
    </g>
    <g id="ytick_9">
     <g id="line2d_14">
      <g>
       <use style="stroke:#000000;stroke-width:0.8;" x="473.184" xlink:href="#m126fc5577d" y="340.92"/>
      </g>
     </g>
     <g id="text_14">
      <!-- 0.2 -->
      <g transform="translate(480.184 344.719219)scale(0.1 -0.1)">
       <use xlink:href="#DejaVuSans-30"/>
       <use x="63.623047" xlink:href="#DejaVuSans-2e"/>
       <use x="95.410156" xlink:href="#DejaVuSans-32"/>
      </g>
     </g>
    </g>
    <g id="ytick_10">
     <g id="line2d_15">
      <g>
       <use style="stroke:#000000;stroke-width:0.8;" x="473.184" xlink:href="#m126fc5577d" y="286.56"/>
      </g>
     </g>
     <g id="text_15">
      <!-- 0.3 -->
      <defs>
       <path d="M 40.578125 39.3125 
Q 47.65625 37.796875 51.625 33 
Q 55.609375 28.21875 55.609375 21.1875 
Q 55.609375 10.40625 48.1875 4.484375 
Q 40.765625 -1.421875 27.09375 -1.421875 
Q 22.515625 -1.421875 17.65625 -0.515625 
Q 12.796875 0.390625 7.625 2.203125 
L 7.625 11.71875 
Q 11.71875 9.328125 16.59375 8.109375 
Q 21.484375 6.890625 26.8125 6.890625 
Q 36.078125 6.890625 40.9375 10.546875 
Q 45.796875 14.203125 45.796875 21.1875 
Q 45.796875 27.640625 41.28125 31.265625 
Q 36.765625 34.90625 28.71875 34.90625 
L 20.21875 34.90625 
L 20.21875 43.015625 
L 29.109375 43.015625 
Q 36.375 43.015625 40.234375 45.921875 
Q 44.09375 48.828125 44.09375 54.296875 
Q 44.09375 59.90625 40.109375 62.90625 
Q 36.140625 65.921875 28.71875 65.921875 
Q 24.65625 65.921875 20.015625 65.03125 
Q 15.375 64.15625 9.8125 62.3125 
L 9.8125 71.09375 
Q 15.4375 72.65625 20.34375 73.4375 
Q 25.25 74.21875 29.59375 74.21875 
Q 40.828125 74.21875 47.359375 69.109375 
Q 53.90625 64.015625 53.90625 55.328125 
Q 53.90625 49.265625 50.4375 45.09375 
Q 46.96875 40.921875 40.578125 39.3125 
z
" id="DejaVuSans-33"/>
      </defs>
      <g transform="translate(480.184 290.359219)scale(0.1 -0.1)">
       <use xlink:href="#DejaVuSans-30"/>
       <use x="63.623047" xlink:href="#DejaVuSans-2e"/>
       <use x="95.410156" xlink:href="#DejaVuSans-33"/>
      </g>
     </g>
    </g>
    <g id="ytick_11">
     <g id="line2d_16">
      <g>
       <use style="stroke:#000000;stroke-width:0.8;" x="473.184" xlink:href="#m126fc5577d" y="232.2"/>
      </g>
     </g>
     <g id="text_16">
      <!-- 0.4 -->
      <g transform="translate(480.184 235.999219)scale(0.1 -0.1)">
       <use xlink:href="#DejaVuSans-30"/>
       <use x="63.623047" xlink:href="#DejaVuSans-2e"/>
       <use x="95.410156" xlink:href="#DejaVuSans-34"/>
      </g>
     </g>
    </g>
    <g id="ytick_12">
     <g id="line2d_17">
      <g>
       <use style="stroke:#000000;stroke-width:0.8;" x="473.184" xlink:href="#m126fc5577d" y="177.84"/>
      </g>
     </g>
     <g id="text_17">
      <!-- 0.5 -->
      <defs>
       <path d="M 10.796875 72.90625 
L 49.515625 72.90625 
L 49.515625 64.59375 
L 19.828125 64.59375 
L 19.828125 46.734375 
Q 21.96875 47.46875 24.109375 47.828125 
Q 26.265625 48.1875 28.421875 48.1875 
Q 40.625 48.1875 47.75 41.5 
Q 54.890625 34.8125 54.890625 23.390625 
Q 54.890625 11.625 47.5625 5.09375 
Q 40.234375 -1.421875 26.90625 -1.421875 
Q 22.3125 -1.421875 17.546875 -0.640625 
Q 12.796875 0.140625 7.71875 1.703125 
L 7.71875 11.625 
Q 12.109375 9.234375 16.796875 8.0625 
Q 21.484375 6.890625 26.703125 6.890625 
Q 35.15625 6.890625 40.078125 11.328125 
Q 45.015625 15.765625 45.015625 23.390625 
Q 45.015625 31 40.078125 35.4375 
Q 35.15625 39.890625 26.703125 39.890625 
Q 22.75 39.890625 18.8125 39.015625 
Q 14.890625 38.140625 10.796875 36.28125 
z
" id="DejaVuSans-35"/>
      </defs>
      <g transform="translate(480.184 181.639219)scale(0.1 -0.1)">
       <use xlink:href="#DejaVuSans-30"/>
       <use x="63.623047" xlink:href="#DejaVuSans-2e"/>
       <use x="95.410156" xlink:href="#DejaVuSans-35"/>
      </g>
     </g>
    </g>
    <g id="ytick_13">
     <g id="line2d_18">
      <g>
       <use style="stroke:#000000;stroke-width:0.8;" x="473.184" xlink:href="#m126fc5577d" y="123.48"/>
      </g>
     </g>
     <g id="text_18">
      <!-- 0.6 -->
      <defs>
       <path d="M 33.015625 40.375 
Q 26.375 40.375 22.484375 35.828125 
Q 18.609375 31.296875 18.609375 23.390625 
Q 18.609375 15.53125 22.484375 10.953125 
Q 26.375 6.390625 33.015625 6.390625 
Q 39.65625 6.390625 43.53125 10.953125 
Q 47.40625 15.53125 47.40625 23.390625 
Q 47.40625 31.296875 43.53125 35.828125 
Q 39.65625 40.375 33.015625 40.375 
z
M 52.59375 71.296875 
L 52.59375 62.3125 
Q 48.875 64.0625 45.09375 64.984375 
Q 41.3125 65.921875 37.59375 65.921875 
Q 27.828125 65.921875 22.671875 59.328125 
Q 17.53125 52.734375 16.796875 39.40625 
Q 19.671875 43.65625 24.015625 45.921875 
Q 28.375 48.1875 33.59375 48.1875 
Q 44.578125 48.1875 50.953125 41.515625 
Q 57.328125 34.859375 57.328125 23.390625 
Q 57.328125 12.15625 50.6875 5.359375 
Q 44.046875 -1.421875 33.015625 -1.421875 
Q 20.359375 -1.421875 13.671875 8.265625 
Q 6.984375 17.96875 6.984375 36.375 
Q 6.984375 53.65625 15.1875 63.9375 
Q 23.390625 74.21875 37.203125 74.21875 
Q 40.921875 74.21875 44.703125 73.484375 
Q 48.484375 72.75 52.59375 71.296875 
z
" id="DejaVuSans-36"/>
      </defs>
      <g transform="translate(480.184 127.279219)scale(0.1 -0.1)">
       <use xlink:href="#DejaVuSans-30"/>
       <use x="63.623047" xlink:href="#DejaVuSans-2e"/>
       <use x="95.410156" xlink:href="#DejaVuSans-36"/>
      </g>
     </g>
    </g>
    <g id="ytick_14">
     <g id="line2d_19">
      <g>
       <use style="stroke:#000000;stroke-width:0.8;" x="473.184" xlink:href="#m126fc5577d" y="69.12"/>
      </g>
     </g>
     <g id="text_19">
      <!-- 0.7 -->
      <defs>
       <path d="M 8.203125 72.90625 
L 55.078125 72.90625 
L 55.078125 68.703125 
L 28.609375 0 
L 18.3125 0 
L 43.21875 64.59375 
L 8.203125 64.59375 
z
" id="DejaVuSans-37"/>
      </defs>
      <g transform="translate(480.184 72.919219)scale(0.1 -0.1)">
       <use xlink:href="#DejaVuSans-30"/>
       <use x="63.623047" xlink:href="#DejaVuSans-2e"/>
       <use x="95.410156" xlink:href="#DejaVuSans-37"/>
      </g>
     </g>
    </g>
   </g>
   <g id="patch_8">
    <path d="M 451.44 504 
L 451.44 449.64 
L 451.44 123.48 
L 451.44 69.12 
L 473.184 69.12 
L 473.184 123.48 
L 473.184 449.64 
L 473.184 504 
z
" style="fill:none;stroke:#000000;stroke-linejoin:miter;stroke-width:0.8;"/>
   </g>
  </g>
 </g>
 <defs>
  <clipPath id="pbd8b7084a8">
   <rect height="434.88" width="357.12" x="72" y="69.12"/>
  </clipPath>
  <clipPath id="p36d20346f1">
   <rect height="434.88" width="21.744" x="451.44" y="69.12"/>
  </clipPath>
 </defs>
</svg>
