<?xml version="1.0" encoding="utf-8" standalone="no"?>
<!DOCTYPE svg PUBLIC "-//W3C//DTD SVG 1.1//EN"
  "http://www.w3.org/Graphics/SVG/1.1/DTD/svg11.dtd">
<!-- Created with matplotlib (http://matplotlib.org/) -->
<svg height="576pt" version="1.1" viewBox="0 0 576 576" width="576pt" xmlns="http://www.w3.org/2000/svg" xmlns:xlink="http://www.w3.org/1999/xlink">
 <defs>
  <style type="text/css">
*{stroke-linecap:butt;stroke-linejoin:round;}
  </style>
 </defs>
 <g id="figure_1">
  <g id="patch_1">
   <path d="M 0 576 
L 576 576 
L 576 0 
L 0 0 
z
" style="fill:#ffffff;"/>
  </g>
  <g id="axes_1">
   <g id="patch_2">
    <path d="M 72 504 
L 429.12 504 
L 429.12 69.12 
L 72 69.12 
z
" style="fill:#ffffff;"/>
   </g>
   <g id="PathCollection_1">
    <path clip-path="url(#p1a3b89f02d)" d="M 414.690909 504 
L 418.298182 504 
L 421.905455 504 
L 425.512727 504 
L 429.12 504 
L 429.12 499.607273 
L 429.12 495.214545 
L 429.12 490.821818 
L 429.12 488.956486 
L 427.328964 490.821818 
L 425.512727 492.713412 
L 423.11121 495.214545 
L 421.905455 496.470317 
L 418.893439 499.607273 
L 418.298182 500.227221 
L 414.690909 503.984089 
L 414.675632 504 
z
" style="fill:#4b64d5;"/>
   </g>
   <g id="PathCollection_2">
    <path clip-path="url(#p1a3b89f02d)" d="M 371.403636 504 
L 375.010909 504 
L 378.618182 504 
L 382.225455 504 
L 385.832727 504 
L 389.44 504 
L 393.047273 504 
L 396.654545 504 
L 400.261818 504 
L 403.869091 504 
L 407.476364 504 
L 411.083636 504 
L 414.675632 504 
L 414.690909 503.984089 
L 418.298182 500.227221 
L 418.893439 499.607273 
L 421.905455 496.470317 
L 423.11121 495.214545 
L 425.512727 492.713412 
L 427.328964 490.821818 
L 429.12 488.956486 
L 429.12 486.429091 
L 429.12 482.036364 
L 429.12 477.643636 
L 429.12 473.250909 
L 429.12 468.858182 
L 429.12 464.465455 
L 429.12 460.072727 
L 429.12 455.68 
L 429.12 451.287273 
L 429.12 446.894545 
L 429.12 442.501818 
L 429.12 440.229254 
L 426.937953 442.501818 
L 425.512727 443.986179 
L 422.720199 446.894545 
L 421.905455 447.743083 
L 418.502395 451.287273 
L 418.298182 451.499955 
L 414.690909 455.256811 
L 414.284576 455.68 
L 411.083636 459.013724 
L 410.066799 460.072727 
L 407.476364 462.770615 
L 405.849019 464.465455 
L 403.869091 466.527492 
L 401.631198 468.858182 
L 400.261818 470.28435 
L 397.413455 473.250909 
L 396.654545 474.0413 
L 393.195658 477.643636 
L 393.047273 477.798177 
L 389.44 481.555049 
L 388.977858 482.036364 
L 385.832727 485.31195 
L 384.760067 486.429091 
L 382.225455 489.068831 
L 380.542281 490.821818 
L 378.618182 492.825748 
L 376.324514 495.214545 
L 375.010909 496.582632 
L 372.106733 499.607273 
L 371.403636 500.378283 
L 368.556929 504 
z
" style="fill:#6f92f3;"/>
   </g>
   <g id="PathCollection_3">
    <path clip-path="url(#p1a3b89f02d)" d="M 331.723636 504 
L 335.330909 504 
L 338.938182 504 
L 342.545455 504 
L 346.152727 504 
L 349.76 504 
L 353.367273 504 
L 356.974545 504 
L 360.581818 504 
L 364.189091 504 
L 367.796364 504 
L 368.556929 504 
L 371.403636 500.378283 
L 372.106733 499.607273 
L 375.010909 496.582632 
L 376.324514 495.214545 
L 378.618182 492.825748 
L 380.542281 490.821818 
L 382.225455 489.068831 
L 384.760067 486.429091 
L 385.832727 485.31195 
L 388.977858 482.036364 
L 389.44 481.555049 
L 393.047273 477.798177 
L 393.195658 477.643636 
L 396.654545 474.0413 
L 397.413455 473.250909 
L 400.261818 470.28435 
L 401.631198 468.858182 
L 403.869091 466.527492 
L 405.849019 464.465455 
L 407.476364 462.770615 
L 410.066799 460.072727 
L 411.083636 459.013724 
L 414.284576 455.68 
L 414.690909 455.256811 
L 418.298182 451.499955 
L 418.502395 451.287273 
L 421.905455 447.743083 
L 422.720199 446.894545 
L 425.512727 443.986179 
L 426.937953 442.501818 
L 429.12 440.229254 
L 429.12 438.109091 
L 429.12 433.716364 
L 429.12 429.323636 
L 429.12 424.930909 
L 429.12 420.538182 
L 429.12 416.145455 
L 429.12 411.752727 
L 429.12 407.36 
L 429.12 402.967273 
L 429.12 398.574545 
L 429.12 394.181818 
L 429.12 391.502062 
L 426.546905 394.181818 
L 425.512727 395.258875 
L 422.329119 398.574545 
L 421.905455 399.015787 
L 418.298182 402.772691 
L 418.11135 402.967273 
L 414.690909 406.529545 
L 413.893531 407.36 
L 411.083636 410.286465 
L 409.675773 411.752727 
L 407.476364 414.043331 
L 405.45796 416.145455 
L 403.869091 417.800248 
L 401.240168 420.538182 
L 400.261818 421.557104 
L 397.022387 424.930909 
L 396.654545 425.314009 
L 393.047273 429.070913 
L 392.804615 429.323636 
L 389.44 432.827788 
L 388.586812 433.716364 
L 385.832727 436.584692 
L 384.369029 438.109091 
L 382.225455 440.341562 
L 380.151229 442.501818 
L 378.618182 444.098457 
L 375.933457 446.894545 
L 375.010909 447.855358 
L 371.715668 451.287273 
L 371.403636 451.612246 
L 367.796364 455.369099 
L 367.497843 455.68 
L 364.189091 459.126015 
L 363.280085 460.072727 
L 360.581818 462.882917 
L 359.062317 464.465455 
L 356.974545 466.639801 
L 354.844492 468.858182 
L 353.367273 470.396677 
L 350.626734 473.250909 
L 349.76 474.237703 
L 347.181438 477.643636 
L 346.152727 479.074261 
L 344.022795 482.036364 
L 342.545455 484.090896 
L 340.864149 486.429091 
L 338.938182 489.107524 
L 337.70524 490.821818 
L 335.330909 494.122342 
L 334.544408 495.214545 
L 331.723636 499.13175 
L 331.381209 499.607273 
L 328.217957 504 
z
" style="fill:#97b8ff;"/>
    <path clip-path="url(#p1a3b89f02d)" d="M 73.649293 126.225455 
L 75.607273 124.810263 
L 78.840591 121.832727 
L 79.214545 121.486955 
L 82.821818 118.1515 
L 83.591302 117.44 
L 86.429091 114.816062 
L 88.342024 113.047273 
L 90.036364 111.3754 
L 92.575152 108.654545 
L 93.643636 107.45868 
L 96.499977 104.261818 
L 97.250909 103.421354 
L 100.424758 99.869091 
L 100.858182 99.383996 
L 104.349584 95.476364 
L 104.465455 95.346679 
L 108.072727 91.309315 
L 108.274367 91.083636 
L 111.68 87.272023 
L 112.199215 86.690909 
L 115.287273 83.234688 
L 116.124016 82.298182 
L 118.894545 79.197361 
L 120.048841 77.905455 
L 122.501818 75.160012 
L 123.973622 73.512727 
L 126.109091 71.122677 
L 127.898448 69.12 
L 126.109091 69.12 
L 122.501818 69.12 
L 118.894545 69.12 
L 115.287273 69.12 
L 111.68 69.12 
L 108.072727 69.12 
L 104.465455 69.12 
L 100.858182 69.12 
L 97.250909 69.12 
L 93.643636 69.12 
L 90.036364 69.12 
L 86.429091 69.12 
L 82.821818 69.12 
L 79.214545 69.12 
L 75.607273 69.12 
L 72 69.12 
L 72 73.512727 
L 72 77.905455 
L 72 82.298182 
L 72 86.690909 
L 72 91.083636 
L 72 95.476364 
L 72 99.869091 
L 72 104.261818 
L 72 108.654545 
L 72 113.047273 
L 72 117.44 
L 72 121.832727 
L 72 126.225455 
L 72 127.260513 
z
" style="fill:#97b8ff;"/>
   </g>
   <g id="PathCollection_4">
    <path clip-path="url(#p1a3b89f02d)" d="M 288.436364 504 
L 292.043636 504 
L 295.650909 504 
L 299.258182 504 
L 302.865455 504 
L 306.472727 504 
L 310.08 504 
L 313.687273 504 
L 317.294545 504 
L 320.901818 504 
L 324.509091 504 
L 328.116364 504 
L 328.217957 504 
L 331.381209 499.607273 
L 331.723636 499.13175 
L 334.544408 495.214545 
L 335.330909 494.122342 
L 337.70524 490.821818 
L 338.938182 489.107524 
L 340.864149 486.429091 
L 342.545455 484.090896 
L 344.022795 482.036364 
L 346.152727 479.074261 
L 347.181438 477.643636 
L 349.76 474.237703 
L 350.626734 473.250909 
L 353.367273 470.396677 
L 354.844492 468.858182 
L 356.974545 466.639801 
L 359.062317 464.465455 
L 360.581818 462.882917 
L 363.280085 460.072727 
L 364.189091 459.126015 
L 367.497843 455.68 
L 367.796364 455.369099 
L 371.403636 451.612246 
L 371.715668 451.287273 
L 375.010909 447.855358 
L 375.933457 446.894545 
L 378.618182 444.098457 
L 380.151229 442.501818 
L 382.225455 440.341562 
L 384.369029 438.109091 
L 385.832727 436.584692 
L 388.586812 433.716364 
L 389.44 432.827788 
L 392.804615 429.323636 
L 393.047273 429.070913 
L 396.654545 425.314009 
L 397.022387 424.930909 
L 400.261818 421.557104 
L 401.240168 420.538182 
L 403.869091 417.800248 
L 405.45796 416.145455 
L 407.476364 414.043331 
L 409.675773 411.752727 
L 411.083636 410.286465 
L 413.893531 407.36 
L 414.690909 406.529545 
L 418.11135 402.967273 
L 418.298182 402.772691 
L 421.905455 399.015787 
L 422.329119 398.574545 
L 425.512727 395.258875 
L 426.546905 394.181818 
L 429.12 391.502062 
L 429.12 389.789091 
L 429.12 385.396364 
L 429.12 381.003636 
L 429.12 376.610909 
L 429.12 372.218182 
L 429.12 367.825455 
L 429.12 363.432727 
L 429.12 359.04 
L 429.12 354.647273 
L 429.12 350.254545 
L 429.12 345.861818 
L 429.12 345.27425 
L 428.465245 345.861818 
L 425.512727 348.511377 
L 423.57025 350.254545 
L 421.905455 351.748529 
L 418.675289 354.647273 
L 418.298182 354.985686 
L 414.690909 358.222813 
L 413.780281 359.04 
L 411.083636 361.607062 
L 409.288798 363.432727 
L 407.476364 365.320284 
L 405.070861 367.825455 
L 403.869091 369.077033 
L 400.852935 372.218182 
L 400.261818 372.83379 
L 396.654545 376.590576 
L 396.635021 376.610909 
L 393.047273 380.347327 
L 392.417084 381.003636 
L 389.44 384.104103 
L 388.199158 385.396364 
L 385.832727 387.860878 
L 383.981235 389.789091 
L 382.225455 391.617627 
L 379.763313 394.181818 
L 378.618182 395.374408 
L 375.545375 398.574545 
L 375.010909 399.131159 
L 371.403636 402.887929 
L 371.327449 402.967273 
L 367.796364 406.644693 
L 367.109524 407.36 
L 364.189091 410.401451 
L 362.891581 411.752727 
L 360.581818 414.158202 
L 358.673637 416.145455 
L 356.974545 417.914953 
L 354.455719 420.538182 
L 353.367273 421.671742 
L 350.237801 424.930909 
L 349.76 425.42851 
L 346.152727 429.185245 
L 346.019844 429.323636 
L 342.545455 432.942034 
L 341.801935 433.716364 
L 338.938182 436.698785 
L 337.583998 438.109091 
L 335.330909 440.455565 
L 333.366083 442.501818 
L 331.723636 444.212332 
L 329.146768 446.894545 
L 328.116364 448.113284 
L 325.801762 451.287273 
L 324.509091 453.08226 
L 322.638336 455.68 
L 320.901818 458.091338 
L 319.474926 460.072727 
L 317.294545 463.100401 
L 316.311497 464.465455 
L 313.687273 468.109451 
L 313.148076 468.858182 
L 310.08 473.118528 
L 309.984666 473.250909 
L 306.821325 477.643636 
L 306.472727 478.127729 
L 303.65811 482.036364 
L 302.865455 483.137112 
L 300.494861 486.429091 
L 299.258182 488.14645 
L 297.331635 490.821818 
L 295.650909 493.155819 
L 294.16841 495.214545 
L 292.043636 498.165189 
L 291.005185 499.607273 
L 288.436364 503.592238 
L 288.224282 504 
z
" style="fill:#bcd2f7;"/>
    <path clip-path="url(#p1a3b89f02d)" d="M 75.607273 175.242487 
L 76.71795 174.545455 
L 79.214545 172.978648 
L 82.821818 170.714806 
L 83.717452 170.152727 
L 86.429091 168.450964 
L 90.036364 166.187124 
L 90.716953 165.76 
L 93.643636 163.923289 
L 97.250909 161.659421 
L 97.716433 161.367273 
L 100.858182 159.316606 
L 103.674402 156.974545 
L 104.465455 156.243097 
L 108.072727 152.907622 
L 108.425086 152.581818 
L 111.68 149.572194 
L 113.175809 148.189091 
L 115.287273 146.236731 
L 117.926495 143.796364 
L 118.894545 142.901257 
L 122.501818 139.565797 
L 122.677195 139.403636 
L 126.109091 135.875452 
L 126.883352 135.010909 
L 129.716364 131.840139 
L 130.808155 130.618182 
L 133.323636 127.802783 
L 134.732953 126.225455 
L 136.930909 123.76547 
L 138.657762 121.832727 
L 140.538182 119.728131 
L 142.582587 117.44 
L 144.145455 115.690804 
L 146.50739 113.047273 
L 147.752727 111.599537 
L 149.638924 108.654545 
L 151.36 105.651941 
L 152.15681 104.261818 
L 154.674697 99.869091 
L 154.967273 99.358661 
L 157.192584 95.476364 
L 158.574545 93.065381 
L 159.71047 91.083636 
L 162.181818 86.772101 
L 162.228357 86.690909 
L 164.746234 82.298182 
L 165.789091 80.478821 
L 167.26413 77.905455 
L 169.396364 74.185541 
L 169.782017 73.512727 
L 172.2999 69.12 
L 169.396364 69.12 
L 165.789091 69.12 
L 162.181818 69.12 
L 158.574545 69.12 
L 154.967273 69.12 
L 151.36 69.12 
L 147.752727 69.12 
L 144.145455 69.12 
L 140.538182 69.12 
L 136.930909 69.12 
L 133.323636 69.12 
L 129.716364 69.12 
L 127.898448 69.12 
L 126.109091 71.122677 
L 123.973622 73.512727 
L 122.501818 75.160012 
L 120.048841 77.905455 
L 118.894545 79.197361 
L 116.124016 82.298182 
L 115.287273 83.234688 
L 112.199215 86.690909 
L 111.68 87.272023 
L 108.274367 91.083636 
L 108.072727 91.309315 
L 104.465455 95.346679 
L 104.349584 95.476364 
L 100.858182 99.383996 
L 100.424758 99.869091 
L 97.250909 103.421354 
L 96.499977 104.261818 
L 93.643636 107.45868 
L 92.575152 108.654545 
L 90.036364 111.3754 
L 88.342024 113.047273 
L 86.429091 114.816062 
L 83.591302 117.44 
L 82.821818 118.1515 
L 79.214545 121.486955 
L 78.840591 121.832727 
L 75.607273 124.810263 
L 73.649293 126.225455 
L 72 127.260513 
L 72 130.618182 
L 72 135.010909 
L 72 139.403636 
L 72 143.796364 
L 72 148.189091 
L 72 152.581818 
L 72 156.974545 
L 72 161.367273 
L 72 165.76 
L 72 170.152727 
L 72 174.545455 
L 72 177.506307 
z
" style="fill:#bcd2f7;"/>
   </g>
   <g id="PathCollection_5">
    <path clip-path="url(#p1a3b89f02d)" d="M 255.970909 504 
L 259.578182 504 
L 263.185455 504 
L 266.792727 504 
L 270.4 504 
L 274.007273 504 
L 277.614545 504 
L 281.221818 504 
L 284.829091 504 
L 288.224282 504 
L 288.436364 503.592238 
L 291.005185 499.607273 
L 292.043636 498.165189 
L 294.16841 495.214545 
L 295.650909 493.155819 
L 297.331635 490.821818 
L 299.258182 488.14645 
L 300.494861 486.429091 
L 302.865455 483.137112 
L 303.65811 482.036364 
L 306.472727 478.127729 
L 306.821325 477.643636 
L 309.984666 473.250909 
L 310.08 473.118528 
L 313.148076 468.858182 
L 313.687273 468.109451 
L 316.311497 464.465455 
L 317.294545 463.100401 
L 319.474926 460.072727 
L 320.901818 458.091338 
L 322.638336 455.68 
L 324.509091 453.08226 
L 325.801762 451.287273 
L 328.116364 448.113284 
L 329.146768 446.894545 
L 331.723636 444.212332 
L 333.366083 442.501818 
L 335.330909 440.455565 
L 337.583998 438.109091 
L 338.938182 436.698785 
L 341.801935 433.716364 
L 342.545455 432.942034 
L 346.019844 429.323636 
L 346.152727 429.185245 
L 349.76 425.42851 
L 350.237801 424.930909 
L 353.367273 421.671742 
L 354.455719 420.538182 
L 356.974545 417.914953 
L 358.673637 416.145455 
L 360.581818 414.158202 
L 362.891581 411.752727 
L 364.189091 410.401451 
L 367.109524 407.36 
L 367.796364 406.644693 
L 371.327449 402.967273 
L 371.403636 402.887929 
L 375.010909 399.131159 
L 375.545375 398.574545 
L 378.618182 395.374408 
L 379.763313 394.181818 
L 382.225455 391.617627 
L 383.981235 389.789091 
L 385.832727 387.860878 
L 388.199158 385.396364 
L 389.44 384.104103 
L 392.417084 381.003636 
L 393.047273 380.347327 
L 396.635021 376.610909 
L 396.654545 376.590576 
L 400.261818 372.83379 
L 400.852935 372.218182 
L 403.869091 369.077033 
L 405.070861 367.825455 
L 407.476364 365.320284 
L 409.288798 363.432727 
L 411.083636 361.607062 
L 413.780281 359.04 
L 414.690909 358.222813 
L 418.298182 354.985686 
L 418.675289 354.647273 
L 421.905455 351.748529 
L 423.57025 350.254545 
L 425.512727 348.511377 
L 428.465245 345.861818 
L 429.12 345.27425 
L 429.12 341.469091 
L 429.12 337.076364 
L 429.12 332.683636 
L 429.12 328.290909 
L 429.12 323.898182 
L 429.12 319.505455 
L 429.12 315.112727 
L 429.12 310.72 
L 429.12 306.327273 
L 429.12 301.934545 
L 429.12 300.415269 
L 427.427016 301.934545 
L 425.512727 303.65241 
L 422.532006 306.327273 
L 421.905455 306.889534 
L 418.298182 310.12668 
L 417.63702 310.72 
L 414.690909 313.363804 
L 412.74201 315.112727 
L 411.083636 316.600936 
L 407.847008 319.505455 
L 407.476364 319.838067 
L 403.869091 323.075197 
L 402.952003 323.898182 
L 400.261818 326.312326 
L 398.057009 328.290909 
L 396.654545 329.549472 
L 393.162011 332.683636 
L 393.047273 332.786601 
L 389.44 336.023731 
L 388.267012 337.076364 
L 385.832727 339.292448 
L 383.595041 341.469091 
L 382.225455 342.895424 
L 379.377085 345.861818 
L 378.618182 346.652176 
L 375.159178 350.254545 
L 375.010909 350.408958 
L 371.403636 354.165726 
L 370.941251 354.647273 
L 367.796364 357.922491 
L 366.723324 359.04 
L 364.189091 361.679251 
L 362.505388 363.432727 
L 360.581818 365.436009 
L 358.287457 367.825455 
L 356.974545 369.192777 
L 354.069532 372.218182 
L 353.367273 372.949544 
L 349.851606 376.610909 
L 349.76 376.706311 
L 346.152727 380.463087 
L 345.633688 381.003636 
L 342.545455 384.219839 
L 341.415749 385.396364 
L 338.938182 387.976613 
L 337.197829 389.789091 
L 335.330909 391.733373 
L 332.97988 394.181818 
L 331.723636 395.490123 
L 328.761967 398.574545 
L 328.116364 399.246903 
L 324.544034 402.967273 
L 324.509091 403.003664 
L 320.901818 406.756402 
L 320.321304 407.36 
L 317.294545 410.507127 
L 316.096583 411.752727 
L 313.687273 414.257861 
L 311.871877 416.145455 
L 310.08 418.008586 
L 307.713632 420.538182 
L 306.472727 422.06485 
L 304.408716 424.930909 
L 302.865455 427.073892 
L 301.245313 429.323636 
L 299.258182 432.082953 
L 298.081878 433.716364 
L 295.650909 437.092022 
L 294.918467 438.109091 
L 292.043636 442.101081 
L 291.755048 442.501818 
L 288.591639 446.894545 
L 288.436364 447.110162 
L 285.42823 451.287273 
L 284.829091 452.119239 
L 282.264814 455.68 
L 281.221818 457.12831 
L 279.101401 460.072727 
L 277.614545 462.137373 
L 276.09567 464.465455 
L 274.007273 468.102217 
L 273.620647 468.858182 
L 271.374071 473.250909 
L 270.4 475.155487 
L 269.127467 477.643636 
L 266.880881 482.036364 
L 266.792727 482.208729 
L 264.634289 486.429091 
L 263.185455 489.261989 
L 262.387709 490.821818 
L 260.141129 495.214545 
L 259.578182 496.315266 
L 257.894536 499.607273 
L 255.970909 503.368511 
L 255.647945 504 
z
" style="fill:#dddcdc;"/>
    <path clip-path="url(#p1a3b89f02d)" d="M 72.787027 227.258182 
L 75.607273 225.48826 
L 79.214545 223.224418 
L 79.786529 222.865455 
L 82.821818 220.960577 
L 86.429091 218.696755 
L 86.786062 218.472727 
L 90.036364 216.432912 
L 93.643636 214.16907 
L 93.785563 214.08 
L 97.250909 211.905238 
L 100.785096 209.687273 
L 100.858182 209.641405 
L 104.465455 207.377554 
L 107.784623 205.294545 
L 108.072727 205.11374 
L 111.68 202.84988 
L 114.784126 200.901818 
L 115.287273 200.586055 
L 118.894545 198.322221 
L 121.78361 196.509091 
L 122.501818 196.058355 
L 126.109091 193.794543 
L 128.398462 192.116364 
L 129.716364 190.999206 
L 133.258866 187.723636 
L 133.323636 187.663746 
L 136.930909 184.32829 
L 138.00957 183.330909 
L 140.538182 180.992839 
L 142.760278 178.938182 
L 144.145455 177.657371 
L 147.511009 174.545455 
L 147.752727 174.321953 
L 151.36 170.986446 
L 152.261662 170.152727 
L 154.967273 167.650995 
L 157.012367 165.76 
L 158.574545 164.202001 
L 161.191524 161.367273 
L 162.181818 160.258914 
L 164.850685 156.974545 
L 165.789091 155.63425 
L 167.538736 152.581818 
L 169.396364 149.340989 
L 170.056626 148.189091 
L 172.574516 143.796364 
L 173.003636 143.047714 
L 175.092388 139.403636 
L 176.610909 136.754437 
L 177.610299 135.010909 
L 180.128169 130.618182 
L 180.218182 130.461145 
L 182.646048 126.225455 
L 183.825455 124.167851 
L 185.163934 121.832727 
L 187.432727 117.874571 
L 187.681822 117.44 
L 190.199704 113.047273 
L 191.04 111.581291 
L 192.717602 108.654545 
L 194.647273 105.288051 
L 195.235504 104.261818 
L 197.753374 99.869091 
L 198.254545 98.994743 
L 200.271254 95.476364 
L 201.861818 92.701451 
L 202.789149 91.083636 
L 205.307035 86.690909 
L 205.469091 86.408185 
L 207.824925 82.298182 
L 209.076364 80.11492 
L 210.34282 77.905455 
L 212.683636 73.821601 
L 212.86068 73.512727 
L 215.378584 69.12 
L 212.683636 69.12 
L 209.076364 69.12 
L 205.469091 69.12 
L 201.861818 69.12 
L 198.254545 69.12 
L 194.647273 69.12 
L 191.04 69.12 
L 187.432727 69.12 
L 183.825455 69.12 
L 180.218182 69.12 
L 176.610909 69.12 
L 173.003636 69.12 
L 172.2999 69.12 
L 169.782017 73.512727 
L 169.396364 74.185541 
L 167.26413 77.905455 
L 165.789091 80.478821 
L 164.746234 82.298182 
L 162.228357 86.690909 
L 162.181818 86.772101 
L 159.71047 91.083636 
L 158.574545 93.065381 
L 157.192584 95.476364 
L 154.967273 99.358661 
L 154.674697 99.869091 
L 152.15681 104.261818 
L 151.36 105.651941 
L 149.638924 108.654545 
L 147.752727 111.599537 
L 146.50739 113.047273 
L 144.145455 115.690804 
L 142.582587 117.44 
L 140.538182 119.728131 
L 138.657762 121.832727 
L 136.930909 123.76547 
L 134.732953 126.225455 
L 133.323636 127.802783 
L 130.808155 130.618182 
L 129.716364 131.840139 
L 126.883352 135.010909 
L 126.109091 135.875452 
L 122.677195 139.403636 
L 122.501818 139.565797 
L 118.894545 142.901257 
L 117.926495 143.796364 
L 115.287273 146.236731 
L 113.175809 148.189091 
L 111.68 149.572194 
L 108.425086 152.581818 
L 108.072727 152.907622 
L 104.465455 156.243097 
L 103.674402 156.974545 
L 100.858182 159.316606 
L 97.716433 161.367273 
L 97.250909 161.659421 
L 93.643636 163.923289 
L 90.716953 165.76 
L 90.036364 166.187124 
L 86.429091 168.450964 
L 83.717452 170.152727 
L 82.821818 170.714806 
L 79.214545 172.978648 
L 76.71795 174.545455 
L 75.607273 175.242487 
L 72 177.506307 
L 72 178.938182 
L 72 183.330909 
L 72 187.723636 
L 72 192.116364 
L 72 196.509091 
L 72 200.901818 
L 72 205.294545 
L 72 209.687273 
L 72 214.08 
L 72 218.472727 
L 72 222.865455 
L 72 227.258182 
L 72 227.752102 
z
" style="fill:#dddcdc;"/>
   </g>
   <g id="PathCollection_6">
    <path clip-path="url(#p1a3b89f02d)" d="M 183.825455 504 
L 187.432727 504 
L 191.04 504 
L 194.647273 504 
L 198.254545 504 
L 201.861818 504 
L 205.469091 504 
L 209.076364 504 
L 212.683636 504 
L 216.290909 504 
L 219.898182 504 
L 223.505455 504 
L 227.112727 504 
L 230.72 504 
L 234.327273 504 
L 237.934545 504 
L 241.541818 504 
L 245.149091 504 
L 248.756364 504 
L 252.363636 504 
L 255.647945 504 
L 255.970909 503.368511 
L 257.894536 499.607273 
L 259.578182 496.315266 
L 260.141129 495.214545 
L 262.387709 490.821818 
L 263.185455 489.261989 
L 264.634289 486.429091 
L 266.792727 482.208729 
L 266.880881 482.036364 
L 269.127467 477.643636 
L 270.4 475.155487 
L 271.374071 473.250909 
L 273.620647 468.858182 
L 274.007273 468.102217 
L 276.09567 464.465455 
L 277.614545 462.137373 
L 279.101401 460.072727 
L 281.221818 457.12831 
L 282.264814 455.68 
L 284.829091 452.119239 
L 285.42823 451.287273 
L 288.436364 447.110162 
L 288.591639 446.894545 
L 291.755048 442.501818 
L 292.043636 442.101081 
L 294.918467 438.109091 
L 295.650909 437.092022 
L 298.081878 433.716364 
L 299.258182 432.082953 
L 301.245313 429.323636 
L 302.865455 427.073892 
L 304.408716 424.930909 
L 306.472727 422.06485 
L 307.713632 420.538182 
L 310.08 418.008586 
L 311.871877 416.145455 
L 313.687273 414.257861 
L 316.096583 411.752727 
L 317.294545 410.507127 
L 320.321304 407.36 
L 320.901818 406.756402 
L 324.509091 403.003664 
L 324.544034 402.967273 
L 328.116364 399.246903 
L 328.761967 398.574545 
L 331.723636 395.490123 
L 332.97988 394.181818 
L 335.330909 391.733373 
L 337.197829 389.789091 
L 338.938182 387.976613 
L 341.415749 385.396364 
L 342.545455 384.219839 
L 345.633688 381.003636 
L 346.152727 380.463087 
L 349.76 376.706311 
L 349.851606 376.610909 
L 353.367273 372.949544 
L 354.069532 372.218182 
L 356.974545 369.192777 
L 358.287457 367.825455 
L 360.581818 365.436009 
L 362.505388 363.432727 
L 364.189091 361.679251 
L 366.723324 359.04 
L 367.796364 357.922491 
L 370.941251 354.647273 
L 371.403636 354.165726 
L 375.010909 350.408958 
L 375.159178 350.254545 
L 378.618182 346.652176 
L 379.377085 345.861818 
L 382.225455 342.895424 
L 383.595041 341.469091 
L 385.832727 339.292448 
L 388.267012 337.076364 
L 389.44 336.023731 
L 393.047273 332.786601 
L 393.162011 332.683636 
L 396.654545 329.549472 
L 398.057009 328.290909 
L 400.261818 326.312326 
L 402.952003 323.898182 
L 403.869091 323.075197 
L 407.476364 319.838067 
L 407.847008 319.505455 
L 411.083636 316.600936 
L 412.74201 315.112727 
L 414.690909 313.363804 
L 417.63702 310.72 
L 418.298182 310.12668 
L 421.905455 306.889534 
L 422.532006 306.327273 
L 425.512727 303.65241 
L 427.427016 301.934545 
L 429.12 300.415269 
L 429.12 297.541818 
L 429.12 293.149091 
L 429.12 288.756364 
L 429.12 284.363636 
L 429.12 279.970909 
L 429.12 275.578182 
L 429.12 271.185455 
L 429.12 266.792727 
L 429.12 262.4 
L 429.12 258.007273 
L 429.12 253.614545 
L 429.12 249.221818 
L 429.12 244.829091 
L 429.12 240.436364 
L 429.12 236.043636 
L 429.12 231.650909 
L 429.12 227.258182 
L 429.12 222.865455 
L 429.12 218.472727 
L 429.12 214.08 
L 429.12 209.687273 
L 429.12 205.294545 
L 429.12 200.901818 
L 429.12 196.509091 
L 429.12 192.116364 
L 429.12 187.723636 
L 429.12 185.503517 
L 428.14212 187.723636 
L 426.207301 192.116364 
L 425.512727 193.693286 
L 424.272473 196.509091 
L 422.337645 200.901818 
L 421.905455 201.883036 
L 420.402807 205.294545 
L 418.467979 209.687273 
L 418.298182 210.072771 
L 416.533136 214.08 
L 414.690909 218.262479 
L 414.598303 218.472727 
L 412.663471 222.865455 
L 411.083636 226.452215 
L 410.728635 227.258182 
L 408.793803 231.650909 
L 407.476364 234.641925 
L 406.858958 236.043636 
L 404.924133 240.436364 
L 403.869091 242.831659 
L 402.989291 244.829091 
L 401.054467 249.221818 
L 400.261818 251.021404 
L 399.119639 253.614545 
L 397.184801 258.007273 
L 396.654545 259.211129 
L 395.249962 262.4 
L 393.315136 266.792727 
L 393.047273 267.400867 
L 391.380307 271.185455 
L 389.445469 275.578182 
L 389.44 275.590598 
L 387.510646 279.970909 
L 385.832727 283.780332 
L 385.575802 284.363636 
L 383.640973 288.756364 
L 382.225455 291.97006 
L 381.706139 293.149091 
L 379.771298 297.541818 
L 378.618182 299.554253 
L 377.438755 301.934545 
L 375.010909 304.113262 
L 372.543746 306.327273 
L 371.403636 307.350395 
L 367.796364 310.587517 
L 367.648732 310.72 
L 364.189091 313.824662 
L 362.753748 315.112727 
L 360.581818 317.061796 
L 357.936476 319.505455 
L 356.974545 320.470574 
L 353.683342 323.898182 
L 353.367273 324.22735 
L 349.76 327.98411 
L 349.465408 328.290909 
L 346.152727 331.740876 
L 345.247485 332.683636 
L 342.545455 335.497635 
L 341.029547 337.076364 
L 338.938182 339.254411 
L 336.811631 341.469091 
L 335.330909 343.011172 
L 332.593695 345.861818 
L 331.723636 346.767938 
L 328.37578 350.254545 
L 328.116364 350.524712 
L 324.509091 354.281472 
L 324.157845 354.647273 
L 320.901818 358.038229 
L 319.939911 359.04 
L 317.294545 361.794961 
L 315.719735 363.432727 
L 313.687273 365.546015 
L 311.495008 367.825455 
L 310.08 369.296733 
L 307.270279 372.218182 
L 306.472727 373.047444 
L 303.045562 376.610909 
L 302.865455 376.798179 
L 299.258182 380.548894 
L 298.820832 381.003636 
L 295.650909 384.299624 
L 294.596113 385.396364 
L 292.043636 388.050326 
L 290.371373 389.789091 
L 288.436364 391.801055 
L 286.294489 394.181818 
L 284.829091 396.056457 
L 283.01569 398.574545 
L 281.221818 401.065516 
L 279.852272 402.967273 
L 277.614545 406.074586 
L 276.688857 407.36 
L 274.007273 411.083656 
L 273.525442 411.752727 
L 270.4 416.092716 
L 270.36202 416.145455 
L 267.198606 420.538182 
L 266.792727 421.101782 
L 264.035186 424.930909 
L 263.185455 426.11085 
L 261.290258 429.323636 
L 259.578182 432.621064 
L 259.018008 433.716364 
L 256.771423 438.109091 
L 255.970909 439.67433 
L 254.524836 442.501818 
L 252.363636 446.727574 
L 252.278242 446.894545 
L 250.031659 451.287273 
L 248.756364 453.780835 
L 247.17629 455.68 
L 245.149091 458.1958 
L 243.038876 460.072727 
L 241.541818 461.404283 
L 238.100141 464.465455 
L 237.934545 464.612743 
L 234.327273 467.821222 
L 233.161426 468.858182 
L 230.72 471.029703 
L 228.222713 473.250909 
L 227.112727 474.238177 
L 223.505455 477.446651 
L 223.283984 477.643636 
L 219.898182 480.655127 
L 218.345277 482.036364 
L 216.290909 483.863608 
L 213.406541 486.429091 
L 212.683636 487.072081 
L 209.076364 490.280559 
L 208.467832 490.821818 
L 205.469091 493.48906 
L 203.010784 495.214545 
L 201.861818 496.16782 
L 198.254545 497.841501 
L 194.647273 499.36188 
L 194.065075 499.607273 
L 191.04 500.882322 
L 187.432727 502.40274 
L 183.825455 503.92317 
L 183.643172 504 
z
" style="fill:#f3c8b2;"/>
    <path clip-path="url(#p1a3b89f02d)" d="M 75.607273 275.73405 
L 75.855639 275.578182 
L 79.214545 273.470218 
L 82.821818 271.206376 
L 82.855155 271.185455 
L 86.429091 268.942538 
L 89.8547 266.792727 
L 90.036364 266.67872 
L 93.643636 264.41487 
L 96.854204 262.4 
L 97.250909 262.151036 
L 100.858182 259.887195 
L 103.853693 258.007273 
L 104.465455 257.623344 
L 108.072727 255.359521 
L 110.853223 253.614545 
L 111.68 253.095678 
L 115.287273 250.831827 
L 117.852731 249.221818 
L 118.894545 248.568005 
L 122.501818 246.304176 
L 124.852252 244.829091 
L 126.109091 244.040321 
L 129.716364 241.776498 
L 131.851765 240.436364 
L 133.323636 239.512649 
L 136.930909 237.248814 
L 138.851284 236.043636 
L 140.538182 234.984984 
L 144.145455 232.721148 
L 145.850808 231.650909 
L 147.752727 230.457303 
L 151.36 228.193459 
L 152.850301 227.258182 
L 154.967273 225.733458 
L 158.092649 222.865455 
L 158.574545 222.41987 
L 162.181818 219.084405 
L 162.843344 218.472727 
L 165.789091 215.748958 
L 167.594058 214.08 
L 169.396364 212.413502 
L 172.344761 209.687273 
L 173.003636 209.078042 
L 176.610909 205.742589 
L 177.095467 205.294545 
L 180.218182 202.407136 
L 181.436994 200.901818 
L 183.825455 197.533678 
L 184.532501 196.509091 
L 187.432727 192.306335 
L 187.563822 192.116364 
L 190.463793 187.723636 
L 191.04 186.736743 
L 192.99221 183.330909 
L 194.647273 180.443479 
L 195.510099 178.938182 
L 198.027981 174.545455 
L 198.254545 174.150189 
L 200.545874 170.152727 
L 201.861818 167.856901 
L 203.063744 165.76 
L 205.469091 161.56363 
L 205.581642 161.367273 
L 208.099528 156.974545 
L 209.076364 155.270355 
L 210.617419 152.581818 
L 212.683636 148.97707 
L 213.135303 148.189091 
L 215.653205 143.796364 
L 216.290909 142.683826 
L 218.171087 139.403636 
L 219.898182 136.390519 
L 220.688965 135.010909 
L 223.206846 130.618182 
L 223.505455 130.097227 
L 225.724738 126.225455 
L 227.112727 123.803963 
L 228.242626 121.832727 
L 230.72 117.510685 
L 230.760516 117.44 
L 233.278394 113.047273 
L 234.327273 111.21739 
L 235.796288 108.654545 
L 237.934545 104.924139 
L 238.314186 104.261818 
L 240.832054 99.869091 
L 241.541818 98.630822 
L 243.349941 95.476364 
L 245.149091 92.337579 
L 245.867847 91.083636 
L 248.385721 86.690909 
L 248.756364 86.044283 
L 250.903601 82.298182 
L 252.363636 79.750991 
L 253.421492 77.905455 
L 255.939374 73.512727 
L 255.970909 73.45771 
L 258.958443 69.12 
L 255.970909 69.12 
L 252.363636 69.12 
L 248.756364 69.12 
L 245.149091 69.12 
L 241.541818 69.12 
L 237.934545 69.12 
L 234.327273 69.12 
L 230.72 69.12 
L 227.112727 69.12 
L 223.505455 69.12 
L 219.898182 69.12 
L 216.290909 69.12 
L 215.378584 69.12 
L 212.86068 73.512727 
L 212.683636 73.821601 
L 210.34282 77.905455 
L 209.076364 80.11492 
L 207.824925 82.298182 
L 205.469091 86.408185 
L 205.307035 86.690909 
L 202.789149 91.083636 
L 201.861818 92.701451 
L 200.271254 95.476364 
L 198.254545 98.994743 
L 197.753374 99.869091 
L 195.235504 104.261818 
L 194.647273 105.288051 
L 192.717602 108.654545 
L 191.04 111.581291 
L 190.199704 113.047273 
L 187.681822 117.44 
L 187.432727 117.874571 
L 185.163934 121.832727 
L 183.825455 124.167851 
L 182.646048 126.225455 
L 180.218182 130.461145 
L 180.128169 130.618182 
L 177.610299 135.010909 
L 176.610909 136.754437 
L 175.092388 139.403636 
L 173.003636 143.047714 
L 172.574516 143.796364 
L 170.056626 148.189091 
L 169.396364 149.340989 
L 167.538736 152.581818 
L 165.789091 155.63425 
L 164.850685 156.974545 
L 162.181818 160.258914 
L 161.191524 161.367273 
L 158.574545 164.202001 
L 157.012367 165.76 
L 154.967273 167.650995 
L 152.261662 170.152727 
L 151.36 170.986446 
L 147.752727 174.321953 
L 147.511009 174.545455 
L 144.145455 177.657371 
L 142.760278 178.938182 
L 140.538182 180.992839 
L 138.00957 183.330909 
L 136.930909 184.32829 
L 133.323636 187.663746 
L 133.258866 187.723636 
L 129.716364 190.999206 
L 128.398462 192.116364 
L 126.109091 193.794543 
L 122.501818 196.058355 
L 121.78361 196.509091 
L 118.894545 198.322221 
L 115.287273 200.586055 
L 114.784126 200.901818 
L 111.68 202.84988 
L 108.072727 205.11374 
L 107.784623 205.294545 
L 104.465455 207.377554 
L 100.858182 209.641405 
L 100.785096 209.687273 
L 97.250909 211.905238 
L 93.785563 214.08 
L 93.643636 214.16907 
L 90.036364 216.432912 
L 86.786062 218.472727 
L 86.429091 218.696755 
L 82.821818 220.960577 
L 79.786529 222.865455 
L 79.214545 223.224418 
L 75.607273 225.48826 
L 72.787027 227.258182 
L 72 227.752102 
L 72 231.650909 
L 72 236.043636 
L 72 240.436364 
L 72 244.829091 
L 72 249.221818 
L 72 253.614545 
L 72 258.007273 
L 72 262.4 
L 72 266.792727 
L 72 271.185455 
L 72 275.578182 
L 72 277.997887 
z
" style="fill:#f3c8b2;"/>
    <path clip-path="url(#p1a3b89f02d)" d="M 429.12 135.488153 
L 429.12 135.010909 
L 429.12 130.618182 
L 429.12 126.225455 
L 429.12 121.832727 
L 429.12 117.44 
L 429.12 113.047273 
L 429.12 108.654545 
L 429.12 104.261818 
L 429.12 99.869091 
L 429.12 95.476364 
L 429.12 91.083636 
L 429.12 86.690909 
L 429.12 82.298182 
L 429.12 77.905455 
L 429.12 73.512727 
L 429.12 69.12 
L 425.512727 69.12 
L 421.905455 69.12 
L 418.298182 69.12 
L 414.690909 69.12 
L 411.083636 69.12 
L 407.476364 69.12 
L 403.869091 69.12 
L 400.261818 69.12 
L 396.654545 69.12 
L 393.047273 69.12 
L 389.44 69.12 
L 385.832727 69.12 
L 382.225455 69.12 
L 378.618182 69.12 
L 375.010909 69.12 
L 371.403636 69.12 
L 367.796364 69.12 
L 364.189091 69.12 
L 360.581818 69.12 
L 356.974545 69.12 
L 353.367273 69.12 
L 349.76 69.12 
L 346.152727 69.12 
L 342.545455 69.12 
L 338.938182 69.12 
L 335.330909 69.12 
L 331.723636 69.12 
L 328.116364 69.12 
L 324.509091 69.12 
L 320.901818 69.12 
L 317.294545 69.12 
L 313.687273 69.12 
L 310.08 69.12 
L 306.472727 69.12 
L 302.865455 69.12 
L 299.258182 69.12 
L 295.650909 69.12 
L 292.043636 69.12 
L 291.57227 69.12 
L 292.043636 69.347439 
L 295.650909 71.087979 
L 299.258182 72.828517 
L 300.676195 73.512727 
L 302.865455 74.569075 
L 306.472727 76.309593 
L 309.780081 77.905455 
L 310.08 78.050171 
L 313.687273 79.790709 
L 317.294545 81.53124 
L 318.88402 82.298182 
L 320.901818 83.271786 
L 324.509091 85.012324 
L 327.987926 86.690909 
L 328.116364 86.752882 
L 331.723636 88.49344 
L 335.330909 90.23401 
L 337.091746 91.083636 
L 338.938182 91.974548 
L 342.545455 93.715054 
L 346.152727 95.455632 
L 346.195693 95.476364 
L 349.76 97.196158 
L 353.367273 98.936709 
L 355.299639 99.869091 
L 356.974545 100.677254 
L 360.581818 102.417793 
L 364.189091 104.158363 
L 364.403502 104.261818 
L 367.796364 105.898894 
L 371.403636 107.639444 
L 373.507449 108.654545 
L 375.010909 109.379977 
L 378.618182 111.120504 
L 382.225455 112.861054 
L 382.611395 113.047273 
L 385.832727 114.601591 
L 389.44 116.34216 
L 391.715258 117.44 
L 393.047273 118.082708 
L 396.654545 119.823246 
L 400.261818 121.563784 
L 400.819198 121.832727 
L 403.869091 123.304349 
L 407.476364 125.044886 
L 409.923081 126.225455 
L 411.083636 126.785438 
L 414.690909 128.525957 
L 418.298182 130.266515 
L 419.027005 130.618182 
L 421.905455 132.007079 
L 425.512727 133.747617 
L 428.130918 135.010909 
z
" style="fill:#f3c8b2;"/>
   </g>
   <g id="PathCollection_7">
    <path clip-path="url(#p1a3b89f02d)" d="M 75.607273 504 
L 79.214545 504 
L 82.821818 504 
L 86.429091 504 
L 90.036364 504 
L 93.643636 504 
L 97.250909 504 
L 100.858182 504 
L 104.465455 504 
L 108.072727 504 
L 111.68 504 
L 115.287273 504 
L 118.894545 504 
L 122.501818 504 
L 126.109091 504 
L 129.716364 504 
L 133.323636 504 
L 136.930909 504 
L 140.538182 504 
L 144.145455 504 
L 147.752727 504 
L 151.36 504 
L 154.967273 504 
L 158.574545 504 
L 162.181818 504 
L 165.789091 504 
L 169.396364 504 
L 173.003636 504 
L 176.610909 504 
L 180.218182 504 
L 183.643172 504 
L 183.825455 503.92317 
L 187.432727 502.40274 
L 191.04 500.882322 
L 194.065075 499.607273 
L 194.647273 499.36188 
L 198.254545 497.841501 
L 201.861818 496.16782 
L 203.010784 495.214545 
L 205.469091 493.48906 
L 208.467832 490.821818 
L 209.076364 490.280559 
L 212.683636 487.072081 
L 213.406541 486.429091 
L 216.290909 483.863608 
L 218.345277 482.036364 
L 219.898182 480.655127 
L 223.283984 477.643636 
L 223.505455 477.446651 
L 227.112727 474.238177 
L 228.222713 473.250909 
L 230.72 471.029703 
L 233.161426 468.858182 
L 234.327273 467.821222 
L 237.934545 464.612743 
L 238.100141 464.465455 
L 241.541818 461.404283 
L 243.038876 460.072727 
L 245.149091 458.1958 
L 247.17629 455.68 
L 248.756364 453.780835 
L 250.031659 451.287273 
L 252.278242 446.894545 
L 252.363636 446.727574 
L 254.524836 442.501818 
L 255.970909 439.67433 
L 256.771423 438.109091 
L 259.018008 433.716364 
L 259.578182 432.621064 
L 261.290258 429.323636 
L 263.185455 426.11085 
L 264.035186 424.930909 
L 266.792727 421.101782 
L 267.198606 420.538182 
L 270.36202 416.145455 
L 270.4 416.092716 
L 273.525442 411.752727 
L 274.007273 411.083656 
L 276.688857 407.36 
L 277.614545 406.074586 
L 279.852272 402.967273 
L 281.221818 401.065516 
L 283.01569 398.574545 
L 284.829091 396.056457 
L 286.294489 394.181818 
L 288.436364 391.801055 
L 290.371373 389.789091 
L 292.043636 388.050326 
L 294.596113 385.396364 
L 295.650909 384.299624 
L 298.820832 381.003636 
L 299.258182 380.548894 
L 302.865455 376.798179 
L 303.045562 376.610909 
L 306.472727 373.047444 
L 307.270279 372.218182 
L 310.08 369.296733 
L 311.495008 367.825455 
L 313.687273 365.546015 
L 315.719735 363.432727 
L 317.294545 361.794961 
L 319.939911 359.04 
L 320.901818 358.038229 
L 324.157845 354.647273 
L 324.509091 354.281472 
L 328.116364 350.524712 
L 328.37578 350.254545 
L 331.723636 346.767938 
L 332.593695 345.861818 
L 335.330909 343.011172 
L 336.811631 341.469091 
L 338.938182 339.254411 
L 341.029547 337.076364 
L 342.545455 335.497635 
L 345.247485 332.683636 
L 346.152727 331.740876 
L 349.465408 328.290909 
L 349.76 327.98411 
L 353.367273 324.22735 
L 353.683342 323.898182 
L 356.974545 320.470574 
L 357.936476 319.505455 
L 360.581818 317.061796 
L 362.753748 315.112727 
L 364.189091 313.824662 
L 367.648732 310.72 
L 367.796364 310.587517 
L 371.403636 307.350395 
L 372.543746 306.327273 
L 375.010909 304.113262 
L 377.438755 301.934545 
L 378.618182 299.554253 
L 379.771298 297.541818 
L 381.706139 293.149091 
L 382.225455 291.97006 
L 383.640973 288.756364 
L 385.575802 284.363636 
L 385.832727 283.780332 
L 387.510646 279.970909 
L 389.44 275.590598 
L 389.445469 275.578182 
L 391.380307 271.185455 
L 393.047273 267.400867 
L 393.315136 266.792727 
L 395.249962 262.4 
L 396.654545 259.211129 
L 397.184801 258.007273 
L 399.119639 253.614545 
L 400.261818 251.021404 
L 401.054467 249.221818 
L 402.989291 244.829091 
L 403.869091 242.831659 
L 404.924133 240.436364 
L 406.858958 236.043636 
L 407.476364 234.641925 
L 408.793803 231.650909 
L 410.728635 227.258182 
L 411.083636 226.452215 
L 412.663471 222.865455 
L 414.598303 218.472727 
L 414.690909 218.262479 
L 416.533136 214.08 
L 418.298182 210.072771 
L 418.467979 209.687273 
L 420.402807 205.294545 
L 421.905455 201.883036 
L 422.337645 200.901818 
L 424.272473 196.509091 
L 425.512727 193.693286 
L 426.207301 192.116364 
L 428.14212 187.723636 
L 429.12 185.503517 
L 429.12 183.330909 
L 429.12 178.938182 
L 429.12 174.545455 
L 429.12 170.152727 
L 429.12 165.76 
L 429.12 161.367273 
L 429.12 156.974545 
L 429.12 152.581818 
L 429.12 148.189091 
L 429.12 143.796364 
L 429.12 139.403636 
L 429.12 135.488153 
L 428.130918 135.010909 
L 425.512727 133.747617 
L 421.905455 132.007079 
L 419.027005 130.618182 
L 418.298182 130.266515 
L 414.690909 128.525957 
L 411.083636 126.785438 
L 409.923081 126.225455 
L 407.476364 125.044886 
L 403.869091 123.304349 
L 400.819198 121.832727 
L 400.261818 121.563784 
L 396.654545 119.823246 
L 393.047273 118.082708 
L 391.715258 117.44 
L 389.44 116.34216 
L 385.832727 114.601591 
L 382.611395 113.047273 
L 382.225455 112.861054 
L 378.618182 111.120504 
L 375.010909 109.379977 
L 373.507449 108.654545 
L 371.403636 107.639444 
L 367.796364 105.898894 
L 364.403502 104.261818 
L 364.189091 104.158363 
L 360.581818 102.417793 
L 356.974545 100.677254 
L 355.299639 99.869091 
L 353.367273 98.936709 
L 349.76 97.196158 
L 346.195693 95.476364 
L 346.152727 95.455632 
L 342.545455 93.715054 
L 338.938182 91.974548 
L 337.091746 91.083636 
L 335.330909 90.23401 
L 331.723636 88.49344 
L 328.116364 86.752882 
L 327.987926 86.690909 
L 324.509091 85.012324 
L 320.901818 83.271786 
L 318.88402 82.298182 
L 317.294545 81.53124 
L 313.687273 79.790709 
L 310.08 78.050171 
L 309.780081 77.905455 
L 306.472727 76.309593 
L 302.865455 74.569075 
L 300.676195 73.512727 
L 299.258182 72.828517 
L 295.650909 71.087979 
L 292.043636 69.347439 
L 291.57227 69.12 
L 288.436364 69.12 
L 284.829091 69.12 
L 281.221818 69.12 
L 277.614545 69.12 
L 274.007273 69.12 
L 270.4 69.12 
L 266.792727 69.12 
L 263.185455 69.12 
L 259.578182 69.12 
L 258.958443 69.12 
L 255.970909 73.45771 
L 255.939374 73.512727 
L 253.421492 77.905455 
L 252.363636 79.750991 
L 250.903601 82.298182 
L 248.756364 86.044283 
L 248.385721 86.690909 
L 245.867847 91.083636 
L 245.149091 92.337579 
L 243.349941 95.476364 
L 241.541818 98.630822 
L 240.832054 99.869091 
L 238.314186 104.261818 
L 237.934545 104.924139 
L 235.796288 108.654545 
L 234.327273 111.21739 
L 233.278394 113.047273 
L 230.760516 117.44 
L 230.72 117.510685 
L 228.242626 121.832727 
L 227.112727 123.803963 
L 225.724738 126.225455 
L 223.505455 130.097227 
L 223.206846 130.618182 
L 220.688965 135.010909 
L 219.898182 136.390519 
L 218.171087 139.403636 
L 216.290909 142.683826 
L 215.653205 143.796364 
L 213.135303 148.189091 
L 212.683636 148.97707 
L 210.617419 152.581818 
L 209.076364 155.270355 
L 208.099528 156.974545 
L 205.581642 161.367273 
L 205.469091 161.56363 
L 203.063744 165.76 
L 201.861818 167.856901 
L 200.545874 170.152727 
L 198.254545 174.150189 
L 198.027981 174.545455 
L 195.510099 178.938182 
L 194.647273 180.443479 
L 192.99221 183.330909 
L 191.04 186.736743 
L 190.463793 187.723636 
L 187.563822 192.116364 
L 187.432727 192.306335 
L 184.532501 196.509091 
L 183.825455 197.533678 
L 181.436994 200.901818 
L 180.218182 202.407136 
L 177.095467 205.294545 
L 176.610909 205.742589 
L 173.003636 209.078042 
L 172.344761 209.687273 
L 169.396364 212.413502 
L 167.594058 214.08 
L 165.789091 215.748958 
L 162.843344 218.472727 
L 162.181818 219.084405 
L 158.574545 222.41987 
L 158.092649 222.865455 
L 154.967273 225.733458 
L 152.850301 227.258182 
L 151.36 228.193459 
L 147.752727 230.457303 
L 145.850808 231.650909 
L 144.145455 232.721148 
L 140.538182 234.984984 
L 138.851284 236.043636 
L 136.930909 237.248814 
L 133.323636 239.512649 
L 131.851765 240.436364 
L 129.716364 241.776498 
L 126.109091 244.040321 
L 124.852252 244.829091 
L 122.501818 246.304176 
L 118.894545 248.568005 
L 117.852731 249.221818 
L 115.287273 250.831827 
L 111.68 253.095678 
L 110.853223 253.614545 
L 108.072727 255.359521 
L 104.465455 257.623344 
L 103.853693 258.007273 
L 100.858182 259.887195 
L 97.250909 262.151036 
L 96.854204 262.4 
L 93.643636 264.41487 
L 90.036364 266.67872 
L 89.8547 266.792727 
L 86.429091 268.942538 
L 82.855155 271.185455 
L 82.821818 271.206376 
L 79.214545 273.470218 
L 75.855639 275.578182 
L 75.607273 275.73405 
L 72 277.997887 
L 72 279.970909 
L 72 284.363636 
L 72 288.756364 
L 72 293.149091 
L 72 297.541818 
L 72 301.934545 
L 72 306.327273 
L 72 310.72 
L 72 315.112727 
L 72 319.505455 
L 72 323.898182 
L 72 328.290909 
L 72 332.683636 
L 72 337.076364 
L 72 341.469091 
L 72 345.861818 
L 72 350.254545 
L 72 354.647273 
L 72 359.04 
L 72 361.123466 
L 73.659259 359.04 
L 75.607273 356.593955 
L 77.157602 354.647273 
L 79.214545 352.064466 
L 80.655954 350.254545 
L 82.821818 347.534963 
L 84.154312 345.861818 
L 86.429091 343.005467 
L 87.652647 341.469091 
L 90.036364 338.47597 
L 91.151012 337.076364 
L 93.643636 333.946492 
L 94.649366 332.683636 
L 97.250909 329.41697 
L 98.147702 328.290909 
L 100.858182 324.887487 
L 101.646058 323.898182 
L 104.465455 320.357975 
L 105.144399 319.505455 
L 108.072727 315.828466 
L 108.642737 315.112727 
L 111.68 311.298979 
L 112.141098 310.72 
L 115.287273 306.769483 
L 115.639447 306.327273 
L 118.894545 302.239973 
L 119.137786 301.934545 
L 122.501818 297.714799 
L 122.639583 297.541818 
L 126.109091 295.043548 
L 127.92087 293.149091 
L 129.716364 292.022288 
L 133.323636 289.828436 
L 134.92039 288.756364 
L 136.930909 287.494612 
L 140.538182 285.230772 
L 141.919907 284.363636 
L 144.145455 282.966936 
L 147.752727 280.703097 
L 148.919418 279.970909 
L 151.36 278.439256 
L 154.967273 276.175419 
L 155.918931 275.578182 
L 158.574545 273.911584 
L 162.181818 271.647744 
L 162.918446 271.185455 
L 165.789091 269.383907 
L 169.396364 267.120056 
L 169.917942 266.792727 
L 173.003636 264.856228 
L 176.610909 262.592392 
L 176.917471 262.4 
L 180.218182 260.252387 
L 182.926434 258.007273 
L 183.825455 257.175994 
L 187.432727 253.84054 
L 187.677139 253.614545 
L 191.04 250.505075 
L 192.427839 249.221818 
L 194.647273 247.169628 
L 196.773092 244.829091 
L 198.254545 242.966745 
L 200.000698 240.436364 
L 201.861818 237.739397 
L 203.032027 236.043636 
L 205.469091 232.512048 
L 206.063341 231.650909 
L 209.076364 227.284692 
L 209.094657 227.258182 
L 212.125977 222.865455 
L 212.683636 222.057344 
L 215.157292 218.472727 
L 216.290909 216.829986 
L 218.188617 214.08 
L 219.898182 211.437445 
L 220.963587 209.687273 
L 223.481474 205.294545 
L 223.505455 205.252709 
L 225.999357 200.901818 
L 227.112727 198.959427 
L 228.51725 196.509091 
L 230.72 192.666159 
L 231.03514 192.116364 
L 233.553018 187.723636 
L 234.327273 186.372865 
L 236.070903 183.330909 
L 237.934545 180.079579 
L 238.58879 178.938182 
L 241.106682 174.545455 
L 241.541818 173.786312 
L 243.624565 170.152727 
L 245.149091 167.493016 
L 246.524832 165.76 
L 248.756364 161.9521 
L 249.663297 161.367273 
L 252.363636 159.625977 
L 255.970909 157.299849 
L 259.578182 158.777201 
L 263.185455 160.544976 
L 264.863415 161.367273 
L 266.792727 162.312743 
L 270.4 164.080505 
L 273.827123 165.76 
L 274.007273 165.848284 
L 277.614545 167.616046 
L 281.221818 169.383821 
L 282.79082 170.152727 
L 284.829091 171.1516 
L 288.436364 172.919365 
L 291.79005 174.545455 
L 292.043636 174.668557 
L 295.650909 176.409088 
L 299.258182 178.149652 
L 300.892412 178.938182 
L 302.865455 179.890188 
L 306.472727 181.630735 
L 309.996318 183.330909 
L 310.08 183.371287 
L 313.687273 185.111825 
L 317.294545 186.852373 
L 319.100232 187.723636 
L 320.901818 188.592925 
L 324.509091 190.333469 
L 328.116364 192.074007 
L 328.204147 192.116364 
L 331.723636 193.806571 
L 335.330909 195.520497 
L 337.4294 196.509091 
L 338.938182 197.217573 
L 342.545455 198.911448 
L 346.152727 200.605314 
L 346.784156 200.901818 
L 349.76 202.862769 
L 351.20837 205.294545 
L 351.384123 209.687273 
L 351.559876 214.08 
L 351.735624 218.472727 
L 351.911372 222.865455 
L 352.087124 227.258182 
L 350.986538 231.650909 
L 349.76 234.435566 
L 349.051704 236.043636 
L 347.116873 240.436364 
L 346.152727 242.625305 
L 345.182041 244.829091 
L 343.247207 249.221818 
L 342.545455 250.815032 
L 341.312371 253.614545 
L 339.377545 258.007273 
L 338.938182 259.004774 
L 337.442705 262.4 
L 335.507869 266.792727 
L 335.330909 267.194486 
L 333.573038 271.185455 
L 331.723636 275.384218 
L 331.638202 275.578182 
L 329.703373 279.970909 
L 328.116364 283.573964 
L 327.768541 284.363636 
L 325.8337 288.756364 
L 324.509091 291.768692 
L 323.993517 293.149091 
L 323.203496 297.541818 
L 322.413472 301.934545 
L 321.623441 306.327273 
L 320.901818 307.810953 
L 319.553703 310.72 
L 317.294545 313.072781 
L 315.335782 315.112727 
L 313.687273 316.82956 
L 311.117033 319.505455 
L 310.08 320.584887 
L 306.893416 323.898182 
L 306.472727 324.335601 
L 302.865455 328.086316 
L 302.668686 328.290909 
L 299.258182 331.837039 
L 298.443964 332.683636 
L 295.650909 335.58776 
L 294.219236 337.076364 
L 292.043636 339.338475 
L 289.994509 341.469091 
L 288.436364 343.089198 
L 285.769774 345.861818 
L 284.829091 346.839908 
L 281.545058 350.254545 
L 281.221818 350.590639 
L 277.614545 354.341356 
L 277.320329 354.647273 
L 274.007273 358.092085 
L 273.095608 359.04 
L 270.4 361.84279 
L 268.870872 363.432727 
L 266.792727 365.593513 
L 264.858787 367.825455 
L 263.185455 370.04807 
L 261.622652 372.218182 
L 259.578182 375.057133 
L 258.459233 376.610909 
L 255.970909 380.06621 
L 255.202202 381.003636 
L 252.363636 385.023486 
L 251.527085 385.396364 
L 248.756364 386.86122 
L 245.149091 387.841352 
L 241.541818 389.36177 
L 240.527978 389.789091 
L 237.934545 390.882191 
L 234.327273 392.402604 
L 230.72 393.923017 
L 230.10598 394.181818 
L 227.112727 395.443431 
L 223.505455 396.963856 
L 219.898182 398.484274 
L 219.684008 398.574545 
L 216.290909 400.004687 
L 212.683636 401.5251 
L 209.262014 402.967273 
L 209.076364 403.045522 
L 205.469091 404.565924 
L 201.861818 406.086345 
L 198.840016 407.36 
L 198.254545 407.606769 
L 194.647273 409.127183 
L 191.04 410.647588 
L 188.418005 411.752727 
L 187.432727 412.16801 
L 183.825455 413.688423 
L 180.218182 415.208853 
L 177.996013 416.145455 
L 176.610909 416.729249 
L 173.003636 418.249671 
L 169.396364 419.770094 
L 167.574036 420.538182 
L 165.789091 421.290513 
L 162.181818 422.810919 
L 158.574545 424.331332 
L 157.152013 424.930909 
L 154.967273 425.851745 
L 151.36 427.372166 
L 147.752727 428.89259 
L 146.730046 429.323636 
L 144.145455 430.413008 
L 140.538182 431.933415 
L 136.930909 433.453829 
L 136.308031 433.716364 
L 133.323636 434.97425 
L 129.716364 436.494666 
L 126.109091 438.015085 
L 125.886056 438.109091 
L 122.501818 439.535498 
L 118.894545 441.055917 
L 115.464043 442.501818 
L 115.287273 442.576324 
L 111.68 444.096741 
L 108.072727 445.617168 
L 105.042105 446.894545 
L 104.465455 447.137597 
L 100.858182 448.658011 
L 97.250909 450.178412 
L 94.620088 451.287273 
L 93.643636 451.698837 
L 90.036364 453.219259 
L 86.429091 454.739679 
L 84.198102 455.68 
L 82.821818 456.260077 
L 79.214545 457.780507 
L 75.607273 459.300913 
L 73.776115 460.072727 
L 72 460.821339 
L 72 464.465455 
L 72 468.858182 
L 72 473.250909 
L 72 477.643636 
L 72 482.036364 
L 72 486.429091 
L 72 490.821818 
L 72 495.214545 
L 72 499.607273 
L 72 504 
z
" style="fill:#f6a586;"/>
   </g>
   <g id="PathCollection_8">
    <path clip-path="url(#p1a3b89f02d)" d="M 73.776115 460.072727 
L 75.607273 459.300913 
L 79.214545 457.780507 
L 82.821818 456.260077 
L 84.198102 455.68 
L 86.429091 454.739679 
L 90.036364 453.219259 
L 93.643636 451.698837 
L 94.620088 451.287273 
L 97.250909 450.178412 
L 100.858182 448.658011 
L 104.465455 447.137597 
L 105.042105 446.894545 
L 108.072727 445.617168 
L 111.68 444.096741 
L 115.287273 442.576324 
L 115.464043 442.501818 
L 118.894545 441.055917 
L 122.501818 439.535498 
L 125.886056 438.109091 
L 126.109091 438.015085 
L 129.716364 436.494666 
L 133.323636 434.97425 
L 136.308031 433.716364 
L 136.930909 433.453829 
L 140.538182 431.933415 
L 144.145455 430.413008 
L 146.730046 429.323636 
L 147.752727 428.89259 
L 151.36 427.372166 
L 154.967273 425.851745 
L 157.152013 424.930909 
L 158.574545 424.331332 
L 162.181818 422.810919 
L 165.789091 421.290513 
L 167.574036 420.538182 
L 169.396364 419.770094 
L 173.003636 418.249671 
L 176.610909 416.729249 
L 177.996013 416.145455 
L 180.218182 415.208853 
L 183.825455 413.688423 
L 187.432727 412.16801 
L 188.418005 411.752727 
L 191.04 410.647588 
L 194.647273 409.127183 
L 198.254545 407.606769 
L 198.840016 407.36 
L 201.861818 406.086345 
L 205.469091 404.565924 
L 209.076364 403.045522 
L 209.262014 402.967273 
L 212.683636 401.5251 
L 216.290909 400.004687 
L 219.684008 398.574545 
L 219.898182 398.484274 
L 223.505455 396.963856 
L 227.112727 395.443431 
L 230.10598 394.181818 
L 230.72 393.923017 
L 234.327273 392.402604 
L 237.934545 390.882191 
L 240.527978 389.789091 
L 241.541818 389.36177 
L 245.149091 387.841352 
L 248.756364 386.86122 
L 251.527085 385.396364 
L 252.363636 385.023486 
L 255.202202 381.003636 
L 255.970909 380.06621 
L 258.459233 376.610909 
L 259.578182 375.057133 
L 261.622652 372.218182 
L 263.185455 370.04807 
L 264.858787 367.825455 
L 266.792727 365.593513 
L 268.870872 363.432727 
L 270.4 361.84279 
L 273.095608 359.04 
L 274.007273 358.092085 
L 277.320329 354.647273 
L 277.614545 354.341356 
L 281.221818 350.590639 
L 281.545058 350.254545 
L 284.829091 346.839908 
L 285.769774 345.861818 
L 288.436364 343.089198 
L 289.994509 341.469091 
L 292.043636 339.338475 
L 294.219236 337.076364 
L 295.650909 335.58776 
L 298.443964 332.683636 
L 299.258182 331.837039 
L 302.668686 328.290909 
L 302.865455 328.086316 
L 306.472727 324.335601 
L 306.893416 323.898182 
L 310.08 320.584887 
L 311.117033 319.505455 
L 313.687273 316.82956 
L 315.335782 315.112727 
L 317.294545 313.072781 
L 319.553703 310.72 
L 320.901818 307.810953 
L 321.623441 306.327273 
L 322.413472 301.934545 
L 323.203496 297.541818 
L 323.993517 293.149091 
L 324.509091 291.768692 
L 325.8337 288.756364 
L 327.768541 284.363636 
L 328.116364 283.573964 
L 329.703373 279.970909 
L 331.638202 275.578182 
L 331.723636 275.384218 
L 333.573038 271.185455 
L 335.330909 267.194486 
L 335.507869 266.792727 
L 337.442705 262.4 
L 338.938182 259.004774 
L 339.377545 258.007273 
L 341.312371 253.614545 
L 342.545455 250.815032 
L 343.247207 249.221818 
L 345.182041 244.829091 
L 346.152727 242.625305 
L 347.116873 240.436364 
L 349.051704 236.043636 
L 349.76 234.435566 
L 350.986538 231.650909 
L 352.087124 227.258182 
L 351.911372 222.865455 
L 351.735624 218.472727 
L 351.559876 214.08 
L 351.384123 209.687273 
L 351.20837 205.294545 
L 349.76 202.862769 
L 346.784156 200.901818 
L 346.152727 200.605314 
L 342.545455 198.911448 
L 338.938182 197.217573 
L 337.4294 196.509091 
L 335.330909 195.520497 
L 331.723636 193.806571 
L 328.204147 192.116364 
L 328.116364 192.074007 
L 324.509091 190.333469 
L 320.901818 188.592925 
L 319.100232 187.723636 
L 317.294545 186.852373 
L 313.687273 185.111825 
L 310.08 183.371287 
L 309.996318 183.330909 
L 306.472727 181.630735 
L 302.865455 179.890188 
L 300.892412 178.938182 
L 299.258182 178.149652 
L 295.650909 176.409088 
L 292.043636 174.668557 
L 291.79005 174.545455 
L 288.436364 172.919365 
L 284.829091 171.1516 
L 282.79082 170.152727 
L 281.221818 169.383821 
L 277.614545 167.616046 
L 274.007273 165.848284 
L 273.827123 165.76 
L 270.4 164.080505 
L 266.792727 162.312743 
L 264.863415 161.367273 
L 263.185455 160.544976 
L 259.578182 158.777201 
L 255.970909 157.299849 
L 252.363636 159.625977 
L 249.663297 161.367273 
L 248.756364 161.9521 
L 246.524832 165.76 
L 245.149091 167.493016 
L 243.624565 170.152727 
L 241.541818 173.786312 
L 241.106682 174.545455 
L 238.58879 178.938182 
L 237.934545 180.079579 
L 236.070903 183.330909 
L 234.327273 186.372865 
L 233.553018 187.723636 
L 231.03514 192.116364 
L 230.72 192.666159 
L 228.51725 196.509091 
L 227.112727 198.959427 
L 225.999357 200.901818 
L 223.505455 205.252709 
L 223.481474 205.294545 
L 220.963587 209.687273 
L 219.898182 211.437445 
L 218.188617 214.08 
L 216.290909 216.829986 
L 215.157292 218.472727 
L 212.683636 222.057344 
L 212.125977 222.865455 
L 209.094657 227.258182 
L 209.076364 227.284692 
L 206.063341 231.650909 
L 205.469091 232.512048 
L 203.032027 236.043636 
L 201.861818 237.739397 
L 200.000698 240.436364 
L 198.254545 242.966745 
L 196.773092 244.829091 
L 194.647273 247.169628 
L 192.427839 249.221818 
L 191.04 250.505075 
L 187.677139 253.614545 
L 187.432727 253.84054 
L 183.825455 257.175994 
L 182.926434 258.007273 
L 180.218182 260.252387 
L 176.917471 262.4 
L 176.610909 262.592392 
L 173.003636 264.856228 
L 169.917942 266.792727 
L 169.396364 267.120056 
L 165.789091 269.383907 
L 162.918446 271.185455 
L 162.181818 271.647744 
L 158.574545 273.911584 
L 155.918931 275.578182 
L 154.967273 276.175419 
L 151.36 278.439256 
L 148.919418 279.970909 
L 147.752727 280.703097 
L 144.145455 282.966936 
L 141.919907 284.363636 
L 140.538182 285.230772 
L 136.930909 287.494612 
L 134.92039 288.756364 
L 133.323636 289.828436 
L 129.716364 292.022288 
L 127.92087 293.149091 
L 126.109091 295.043548 
L 122.639583 297.541818 
L 122.501818 297.714799 
L 119.137786 301.934545 
L 118.894545 302.239973 
L 115.639447 306.327273 
L 115.287273 306.769483 
L 112.141098 310.72 
L 111.68 311.298979 
L 108.642737 315.112727 
L 108.072727 315.828466 
L 105.144399 319.505455 
L 104.465455 320.357975 
L 101.646058 323.898182 
L 100.858182 324.887487 
L 98.147702 328.290909 
L 97.250909 329.41697 
L 94.649366 332.683636 
L 93.643636 333.946492 
L 91.151012 337.076364 
L 90.036364 338.47597 
L 87.652647 341.469091 
L 86.429091 343.005467 
L 84.154312 345.861818 
L 82.821818 347.534963 
L 80.655954 350.254545 
L 79.214545 352.064466 
L 77.157602 354.647273 
L 75.607273 356.593955 
L 73.659259 359.04 
L 72 361.123466 
L 72 363.432727 
L 72 367.825455 
L 72 372.218182 
L 72 376.610909 
L 72 381.003636 
L 72 385.396364 
L 72 389.789091 
L 72 394.181818 
L 72 398.574545 
L 72 402.967273 
L 72 407.36 
L 72 411.752727 
L 72 416.145455 
L 72 420.538182 
L 72 424.930909 
L 72 429.323636 
L 72 433.716364 
L 72 438.109091 
L 72 442.501818 
L 72 446.894545 
L 72 451.287273 
L 72 455.68 
L 72 460.072727 
L 72 460.821339 
z
M 240.010207 315.112727 
L 237.934545 314.451152 
L 234.327273 312.465675 
L 232.628563 310.72 
L 230.72 307.87226 
L 229.684544 306.327273 
L 227.112727 302.489904 
L 226.740524 301.934545 
L 225.058273 297.541818 
L 225.3487 293.149091 
L 225.639125 288.756364 
L 225.929552 284.363636 
L 226.219978 279.970909 
L 226.510403 275.578182 
L 226.800829 271.185455 
L 227.112727 269.502084 
L 227.551107 266.792727 
L 230.577514 262.4 
L 230.72 262.194057 
L 234.327273 258.605117 
L 236.824581 258.007273 
L 237.934545 257.741552 
L 241.541818 256.877989 
L 245.149091 256.014427 
L 248.756364 255.150864 
L 252.363636 254.287301 
L 255.970909 255.458533 
L 259.578182 257.492577 
L 260.490969 258.007273 
L 263.185455 259.526621 
L 266.792727 261.560662 
L 268.28125 262.4 
L 270.4 264.220024 
L 271.96582 266.792727 
L 273.293001 271.185455 
L 274.007273 273.549566 
L 274.620181 275.578182 
L 275.947362 279.970909 
L 276.512394 284.363636 
L 275.799299 288.756364 
L 275.01468 293.149091 
L 274.230063 297.541818 
L 274.007273 298.789116 
L 273.445443 301.934545 
L 272.660825 306.327273 
L 271.876207 310.72 
L 270.4 312.590776 
L 268.494013 315.112727 
L 266.792727 316.881667 
L 263.185455 318.148365 
L 259.578182 318.341063 
L 255.970909 318.533761 
L 252.363636 318.726459 
L 248.756364 317.877751 
L 245.149091 316.737343 
L 241.541818 315.596933 
z
" style="fill:#e7745b;"/>
   </g>
   <g id="PathCollection_9">
    <path clip-path="url(#p1a3b89f02d)" d="M 241.541818 315.596933 
L 245.149091 316.737343 
L 248.756364 317.877751 
L 252.363636 318.726459 
L 255.970909 318.533761 
L 259.578182 318.341063 
L 263.185455 318.148365 
L 266.792727 316.881667 
L 268.494013 315.112727 
L 270.4 312.590776 
L 271.876207 310.72 
L 272.660825 306.327273 
L 273.445443 301.934545 
L 274.007273 298.789116 
L 274.230063 297.541818 
L 275.01468 293.149091 
L 275.799299 288.756364 
L 276.512394 284.363636 
L 275.947362 279.970909 
L 274.620181 275.578182 
L 274.007273 273.549566 
L 273.293001 271.185455 
L 271.96582 266.792727 
L 270.4 264.220024 
L 268.28125 262.4 
L 266.792727 261.560662 
L 263.185455 259.526621 
L 260.490969 258.007273 
L 259.578182 257.492577 
L 255.970909 255.458533 
L 252.363636 254.287301 
L 248.756364 255.150864 
L 245.149091 256.014427 
L 241.541818 256.877989 
L 237.934545 257.741552 
L 236.824581 258.007273 
L 234.327273 258.605117 
L 230.72 262.194057 
L 230.577514 262.4 
L 227.551107 266.792727 
L 227.112727 269.502084 
L 226.800829 271.185455 
L 226.510403 275.578182 
L 226.219978 279.970909 
L 225.929552 284.363636 
L 225.639125 288.756364 
L 225.3487 293.149091 
L 225.058273 297.541818 
L 226.740524 301.934545 
L 227.112727 302.489904 
L 229.684544 306.327273 
L 230.72 307.87226 
L 232.628563 310.72 
L 234.327273 312.465675 
L 237.934545 314.451152 
L 240.010207 315.112727 
z
" style="fill:#c83836;"/>
   </g>
   <g id="matplotlib.axis_1">
    <g id="xtick_1">
     <g id="line2d_1">
      <defs>
       <path d="M 0 0 
L 0 3.5 
" id="m0bebabe306" style="stroke:#000000;stroke-width:0.8;"/>
      </defs>
      <g>
       <use style="stroke:#000000;stroke-width:0.8;" x="107.712" xlink:href="#m0bebabe306" y="504"/>
      </g>
     </g>
     <g id="text_1">
      <!-- 4 -->
      <defs>
       <path d="M 10.59375 35.5 
L 73.1875 35.5 
L 73.1875 27.203125 
L 10.59375 27.203125 
z
" id="DejaVuSans-2212"/>
       <path d="M 37.796875 64.3125 
L 12.890625 25.390625 
L 37.796875 25.390625 
z
M 35.203125 72.90625 
L 47.609375 72.90625 
L 47.609375 25.390625 
L 58.015625 25.390625 
L 58.015625 17.1875 
L 47.609375 17.1875 
L 47.609375 0 
L 37.796875 0 
L 37.796875 17.1875 
L 4.890625 17.1875 
L 4.890625 26.703125 
z
" id="DejaVuSans-34"/>
      </defs>
      <g transform="translate(100.340906 518.598438)scale(0.1 -0.1)">
       <use xlink:href="#DejaVuSans-2212"/>
       <use x="83.789062" xlink:href="#DejaVuSans-34"/>
      </g>
     </g>
    </g>
    <g id="xtick_2">
     <g id="line2d_2">
      <g>
       <use style="stroke:#000000;stroke-width:0.8;" x="179.136" xlink:href="#m0bebabe306" y="504"/>
      </g>
     </g>
     <g id="text_2">
      <!-- 2 -->
      <defs>
       <path d="M 19.1875 8.296875 
L 53.609375 8.296875 
L 53.609375 0 
L 7.328125 0 
L 7.328125 8.296875 
Q 12.9375 14.109375 22.625 23.890625 
Q 32.328125 33.6875 34.8125 36.53125 
Q 39.546875 41.84375 41.421875 45.53125 
Q 43.3125 49.21875 43.3125 52.78125 
Q 43.3125 58.59375 39.234375 62.25 
Q 35.15625 65.921875 28.609375 65.921875 
Q 23.96875 65.921875 18.8125 64.3125 
Q 13.671875 62.703125 7.8125 59.421875 
L 7.8125 69.390625 
Q 13.765625 71.78125 18.9375 73 
Q 24.125 74.21875 28.421875 74.21875 
Q 39.75 74.21875 46.484375 68.546875 
Q 53.21875 62.890625 53.21875 53.421875 
Q 53.21875 48.921875 51.53125 44.890625 
Q 49.859375 40.875 45.40625 35.40625 
Q 44.1875 33.984375 37.640625 27.21875 
Q 31.109375 20.453125 19.1875 8.296875 
z
" id="DejaVuSans-32"/>
      </defs>
      <g transform="translate(171.764906 518.598438)scale(0.1 -0.1)">
       <use xlink:href="#DejaVuSans-2212"/>
       <use x="83.789062" xlink:href="#DejaVuSans-32"/>
      </g>
     </g>
    </g>
    <g id="xtick_3">
     <g id="line2d_3">
      <g>
       <use style="stroke:#000000;stroke-width:0.8;" x="250.56" xlink:href="#m0bebabe306" y="504"/>
      </g>
     </g>
     <g id="text_3">
      <!-- 0 -->
      <defs>
       <path d="M 31.78125 66.40625 
Q 24.171875 66.40625 20.328125 58.90625 
Q 16.5 51.421875 16.5 36.375 
Q 16.5 21.390625 20.328125 13.890625 
Q 24.171875 6.390625 31.78125 6.390625 
Q 39.453125 6.390625 43.28125 13.890625 
Q 47.125 21.390625 47.125 36.375 
Q 47.125 51.421875 43.28125 58.90625 
Q 39.453125 66.40625 31.78125 66.40625 
z
M 31.78125 74.21875 
Q 44.046875 74.21875 50.515625 64.515625 
Q 56.984375 54.828125 56.984375 36.375 
Q 56.984375 17.96875 50.515625 8.265625 
Q 44.046875 -1.421875 31.78125 -1.421875 
Q 19.53125 -1.421875 13.0625 8.265625 
Q 6.59375 17.96875 6.59375 36.375 
Q 6.59375 54.828125 13.0625 64.515625 
Q 19.53125 74.21875 31.78125 74.21875 
z
" id="DejaVuSans-30"/>
      </defs>
      <g transform="translate(247.37875 518.598438)scale(0.1 -0.1)">
       <use xlink:href="#DejaVuSans-30"/>
      </g>
     </g>
    </g>
    <g id="xtick_4">
     <g id="line2d_4">
      <g>
       <use style="stroke:#000000;stroke-width:0.8;" x="321.984" xlink:href="#m0bebabe306" y="504"/>
      </g>
     </g>
     <g id="text_4">
      <!-- 2 -->
      <g transform="translate(318.80275 518.598438)scale(0.1 -0.1)">
       <use xlink:href="#DejaVuSans-32"/>
      </g>
     </g>
    </g>
    <g id="xtick_5">
     <g id="line2d_5">
      <g>
       <use style="stroke:#000000;stroke-width:0.8;" x="393.408" xlink:href="#m0bebabe306" y="504"/>
      </g>
     </g>
     <g id="text_5">
      <!-- 4 -->
      <g transform="translate(390.22675 518.598438)scale(0.1 -0.1)">
       <use xlink:href="#DejaVuSans-34"/>
      </g>
     </g>
    </g>
   </g>
   <g id="matplotlib.axis_2">
    <g id="ytick_1">
     <g id="line2d_6">
      <defs>
       <path d="M 0 0 
L -3.5 0 
" id="m13936c29a0" style="stroke:#000000;stroke-width:0.8;"/>
      </defs>
      <g>
       <use style="stroke:#000000;stroke-width:0.8;" x="72" xlink:href="#m13936c29a0" y="460.512"/>
      </g>
     </g>
     <g id="text_6">
      <!-- 4 -->
      <g transform="translate(50.257812 464.311219)scale(0.1 -0.1)">
       <use xlink:href="#DejaVuSans-2212"/>
       <use x="83.789062" xlink:href="#DejaVuSans-34"/>
      </g>
     </g>
    </g>
    <g id="ytick_2">
     <g id="line2d_7">
      <g>
       <use style="stroke:#000000;stroke-width:0.8;" x="72" xlink:href="#m13936c29a0" y="373.536"/>
      </g>
     </g>
     <g id="text_7">
      <!-- 2 -->
      <g transform="translate(50.257812 377.335219)scale(0.1 -0.1)">
       <use xlink:href="#DejaVuSans-2212"/>
       <use x="83.789062" xlink:href="#DejaVuSans-32"/>
      </g>
     </g>
    </g>
    <g id="ytick_3">
     <g id="line2d_8">
      <g>
       <use style="stroke:#000000;stroke-width:0.8;" x="72" xlink:href="#m13936c29a0" y="286.56"/>
      </g>
     </g>
     <g id="text_8">
      <!-- 0 -->
      <g transform="translate(58.6375 290.359219)scale(0.1 -0.1)">
       <use xlink:href="#DejaVuSans-30"/>
      </g>
     </g>
    </g>
    <g id="ytick_4">
     <g id="line2d_9">
      <g>
       <use style="stroke:#000000;stroke-width:0.8;" x="72" xlink:href="#m13936c29a0" y="199.584"/>
      </g>
     </g>
     <g id="text_9">
      <!-- 2 -->
      <g transform="translate(58.6375 203.383219)scale(0.1 -0.1)">
       <use xlink:href="#DejaVuSans-32"/>
      </g>
     </g>
    </g>
    <g id="ytick_5">
     <g id="line2d_10">
      <g>
       <use style="stroke:#000000;stroke-width:0.8;" x="72" xlink:href="#m13936c29a0" y="112.608"/>
      </g>
     </g>
     <g id="text_10">
      <!-- 4 -->
      <g transform="translate(58.6375 116.407219)scale(0.1 -0.1)">
       <use xlink:href="#DejaVuSans-34"/>
      </g>
     </g>
    </g>
   </g>
   <g id="patch_3">
    <path d="M 72 504 
L 72 69.12 
" style="fill:none;stroke:#000000;stroke-linecap:square;stroke-linejoin:miter;stroke-width:0.8;"/>
   </g>
   <g id="patch_4">
    <path d="M 429.12 504 
L 429.12 69.12 
" style="fill:none;stroke:#000000;stroke-linecap:square;stroke-linejoin:miter;stroke-width:0.8;"/>
   </g>
   <g id="patch_5">
    <path d="M 72 504 
L 429.12 504 
" style="fill:none;stroke:#000000;stroke-linecap:square;stroke-linejoin:miter;stroke-width:0.8;"/>
   </g>
   <g id="patch_6">
    <path d="M 72 69.12 
L 429.12 69.12 
" style="fill:none;stroke:#000000;stroke-linecap:square;stroke-linejoin:miter;stroke-width:0.8;"/>
   </g>
  </g>
  <g id="axes_2">
   <g id="patch_7">
    <path clip-path="url(#p760edbca70)" d="M 451.44 504 
L 451.44 455.68 
L 451.44 117.44 
L 451.44 69.12 
L 473.184 69.12 
L 473.184 117.44 
L 473.184 455.68 
L 473.184 504 
z
" style="fill:#ffffff;stroke:#ffffff;stroke-linejoin:miter;stroke-width:0.01;"/>
   </g>
   <g id="QuadMesh_1">
    <path clip-path="url(#p760edbca70)" d="M 451.44 504 
L 473.184 504 
L 473.184 455.68 
L 451.44 455.68 
L 451.44 504 
" style="fill:#4b64d5;"/>
    <path clip-path="url(#p760edbca70)" d="M 451.44 455.68 
L 473.184 455.68 
L 473.184 407.36 
L 451.44 407.36 
L 451.44 455.68 
" style="fill:#6f92f3;"/>
    <path clip-path="url(#p760edbca70)" d="M 451.44 407.36 
L 473.184 407.36 
L 473.184 359.04 
L 451.44 359.04 
L 451.44 407.36 
" style="fill:#97b8ff;"/>
    <path clip-path="url(#p760edbca70)" d="M 451.44 359.04 
L 473.184 359.04 
L 473.184 310.72 
L 451.44 310.72 
L 451.44 359.04 
" style="fill:#bcd2f7;"/>
    <path clip-path="url(#p760edbca70)" d="M 451.44 310.72 
L 473.184 310.72 
L 473.184 262.4 
L 451.44 262.4 
L 451.44 310.72 
" style="fill:#dddcdc;"/>
    <path clip-path="url(#p760edbca70)" d="M 451.44 262.4 
L 473.184 262.4 
L 473.184 214.08 
L 451.44 214.08 
L 451.44 262.4 
" style="fill:#f3c8b2;"/>
    <path clip-path="url(#p760edbca70)" d="M 451.44 214.08 
L 473.184 214.08 
L 473.184 165.76 
L 451.44 165.76 
L 451.44 214.08 
" style="fill:#f6a586;"/>
    <path clip-path="url(#p760edbca70)" d="M 451.44 165.76 
L 473.184 165.76 
L 473.184 117.44 
L 451.44 117.44 
L 451.44 165.76 
" style="fill:#e7745b;"/>
    <path clip-path="url(#p760edbca70)" d="M 451.44 117.44 
L 473.184 117.44 
L 473.184 69.12 
L 451.44 69.12 
L 451.44 117.44 
" style="fill:#c83836;"/>
   </g>
   <g id="matplotlib.axis_3"/>
   <g id="matplotlib.axis_4">
    <g id="ytick_6">
     <g id="line2d_11">
      <defs>
       <path d="M 0 0 
L 3.5 0 
" id="mad036ee7e7" style="stroke:#000000;stroke-width:0.8;"/>
      </defs>
      <g>
       <use style="stroke:#000000;stroke-width:0.8;" x="473.184" xlink:href="#mad036ee7e7" y="504"/>
      </g>
     </g>
     <g id="text_11">
      <!-- 320 -->
      <defs>
       <path d="M 40.578125 39.3125 
Q 47.65625 37.796875 51.625 33 
Q 55.609375 28.21875 55.609375 21.1875 
Q 55.609375 10.40625 48.1875 4.484375 
Q 40.765625 -1.421875 27.09375 -1.421875 
Q 22.515625 -1.421875 17.65625 -0.515625 
Q 12.796875 0.390625 7.625 2.203125 
L 7.625 11.71875 
Q 11.71875 9.328125 16.59375 8.109375 
Q 21.484375 6.890625 26.8125 6.890625 
Q 36.078125 6.890625 40.9375 10.546875 
Q 45.796875 14.203125 45.796875 21.1875 
Q 45.796875 27.640625 41.28125 31.265625 
Q 36.765625 34.90625 28.71875 34.90625 
L 20.21875 34.90625 
L 20.21875 43.015625 
L 29.109375 43.015625 
Q 36.375 43.015625 40.234375 45.921875 
Q 44.09375 48.828125 44.09375 54.296875 
Q 44.09375 59.90625 40.109375 62.90625 
Q 36.140625 65.921875 28.71875 65.921875 
Q 24.65625 65.921875 20.015625 65.03125 
Q 15.375 64.15625 9.8125 62.3125 
L 9.8125 71.09375 
Q 15.4375 72.65625 20.34375 73.4375 
Q 25.25 74.21875 29.59375 74.21875 
Q 40.828125 74.21875 47.359375 69.109375 
Q 53.90625 64.015625 53.90625 55.328125 
Q 53.90625 49.265625 50.4375 45.09375 
Q 46.96875 40.921875 40.578125 39.3125 
z
" id="DejaVuSans-33"/>
      </defs>
      <g transform="translate(480.184 507.799219)scale(0.1 -0.1)">
       <use xlink:href="#DejaVuSans-2212"/>
       <use x="83.789062" xlink:href="#DejaVuSans-33"/>
       <use x="147.412109" xlink:href="#DejaVuSans-32"/>
       <use x="211.035156" xlink:href="#DejaVuSans-30"/>
      </g>
     </g>
    </g>
    <g id="ytick_7">
     <g id="line2d_12">
      <g>
       <use style="stroke:#000000;stroke-width:0.8;" x="473.184" xlink:href="#mad036ee7e7" y="455.68"/>
      </g>
     </g>
     <g id="text_12">
      <!-- 280 -->
      <defs>
       <path d="M 31.78125 34.625 
Q 24.75 34.625 20.71875 30.859375 
Q 16.703125 27.09375 16.703125 20.515625 
Q 16.703125 13.921875 20.71875 10.15625 
Q 24.75 6.390625 31.78125 6.390625 
Q 38.8125 6.390625 42.859375 10.171875 
Q 46.921875 13.96875 46.921875 20.515625 
Q 46.921875 27.09375 42.890625 30.859375 
Q 38.875 34.625 31.78125 34.625 
z
M 21.921875 38.8125 
Q 15.578125 40.375 12.03125 44.71875 
Q 8.5 49.078125 8.5 55.328125 
Q 8.5 64.0625 14.71875 69.140625 
Q 20.953125 74.21875 31.78125 74.21875 
Q 42.671875 74.21875 48.875 69.140625 
Q 55.078125 64.0625 55.078125 55.328125 
Q 55.078125 49.078125 51.53125 44.71875 
Q 48 40.375 41.703125 38.8125 
Q 48.828125 37.15625 52.796875 32.3125 
Q 56.78125 27.484375 56.78125 20.515625 
Q 56.78125 9.90625 50.3125 4.234375 
Q 43.84375 -1.421875 31.78125 -1.421875 
Q 19.734375 -1.421875 13.25 4.234375 
Q 6.78125 9.90625 6.78125 20.515625 
Q 6.78125 27.484375 10.78125 32.3125 
Q 14.796875 37.15625 21.921875 38.8125 
z
M 18.3125 54.390625 
Q 18.3125 48.734375 21.84375 45.5625 
Q 25.390625 42.390625 31.78125 42.390625 
Q 38.140625 42.390625 41.71875 45.5625 
Q 45.3125 48.734375 45.3125 54.390625 
Q 45.3125 60.0625 41.71875 63.234375 
Q 38.140625 66.40625 31.78125 66.40625 
Q 25.390625 66.40625 21.84375 63.234375 
Q 18.3125 60.0625 18.3125 54.390625 
z
" id="DejaVuSans-38"/>
      </defs>
      <g transform="translate(480.184 459.479219)scale(0.1 -0.1)">
       <use xlink:href="#DejaVuSans-2212"/>
       <use x="83.789062" xlink:href="#DejaVuSans-32"/>
       <use x="147.412109" xlink:href="#DejaVuSans-38"/>
       <use x="211.035156" xlink:href="#DejaVuSans-30"/>
      </g>
     </g>
    </g>
    <g id="ytick_8">
     <g id="line2d_13">
      <g>
       <use style="stroke:#000000;stroke-width:0.8;" x="473.184" xlink:href="#mad036ee7e7" y="407.36"/>
      </g>
     </g>
     <g id="text_13">
      <!-- 240 -->
      <g transform="translate(480.184 411.159219)scale(0.1 -0.1)">
       <use xlink:href="#DejaVuSans-2212"/>
       <use x="83.789062" xlink:href="#DejaVuSans-32"/>
       <use x="147.412109" xlink:href="#DejaVuSans-34"/>
       <use x="211.035156" xlink:href="#DejaVuSans-30"/>
      </g>
     </g>
    </g>
    <g id="ytick_9">
     <g id="line2d_14">
      <g>
       <use style="stroke:#000000;stroke-width:0.8;" x="473.184" xlink:href="#mad036ee7e7" y="359.04"/>
      </g>
     </g>
     <g id="text_14">
      <!-- 200 -->
      <g transform="translate(480.184 362.839219)scale(0.1 -0.1)">
       <use xlink:href="#DejaVuSans-2212"/>
       <use x="83.789062" xlink:href="#DejaVuSans-32"/>
       <use x="147.412109" xlink:href="#DejaVuSans-30"/>
       <use x="211.035156" xlink:href="#DejaVuSans-30"/>
      </g>
     </g>
    </g>
    <g id="ytick_10">
     <g id="line2d_15">
      <g>
       <use style="stroke:#000000;stroke-width:0.8;" x="473.184" xlink:href="#mad036ee7e7" y="310.72"/>
      </g>
     </g>
     <g id="text_15">
      <!-- 160 -->
      <defs>
       <path d="M 12.40625 8.296875 
L 28.515625 8.296875 
L 28.515625 63.921875 
L 10.984375 60.40625 
L 10.984375 69.390625 
L 28.421875 72.90625 
L 38.28125 72.90625 
L 38.28125 8.296875 
L 54.390625 8.296875 
L 54.390625 0 
L 12.40625 0 
z
" id="DejaVuSans-31"/>
       <path d="M 33.015625 40.375 
Q 26.375 40.375 22.484375 35.828125 
Q 18.609375 31.296875 18.609375 23.390625 
Q 18.609375 15.53125 22.484375 10.953125 
Q 26.375 6.390625 33.015625 6.390625 
Q 39.65625 6.390625 43.53125 10.953125 
Q 47.40625 15.53125 47.40625 23.390625 
Q 47.40625 31.296875 43.53125 35.828125 
Q 39.65625 40.375 33.015625 40.375 
z
M 52.59375 71.296875 
L 52.59375 62.3125 
Q 48.875 64.0625 45.09375 64.984375 
Q 41.3125 65.921875 37.59375 65.921875 
Q 27.828125 65.921875 22.671875 59.328125 
Q 17.53125 52.734375 16.796875 39.40625 
Q 19.671875 43.65625 24.015625 45.921875 
Q 28.375 48.1875 33.59375 48.1875 
Q 44.578125 48.1875 50.953125 41.515625 
Q 57.328125 34.859375 57.328125 23.390625 
Q 57.328125 12.15625 50.6875 5.359375 
Q 44.046875 -1.421875 33.015625 -1.421875 
Q 20.359375 -1.421875 13.671875 8.265625 
Q 6.984375 17.96875 6.984375 36.375 
Q 6.984375 53.65625 15.1875 63.9375 
Q 23.390625 74.21875 37.203125 74.21875 
Q 40.921875 74.21875 44.703125 73.484375 
Q 48.484375 72.75 52.59375 71.296875 
z
" id="DejaVuSans-36"/>
      </defs>
      <g transform="translate(480.184 314.519219)scale(0.1 -0.1)">
       <use xlink:href="#DejaVuSans-2212"/>
       <use x="83.789062" xlink:href="#DejaVuSans-31"/>
       <use x="147.412109" xlink:href="#DejaVuSans-36"/>
       <use x="211.035156" xlink:href="#DejaVuSans-30"/>
      </g>
     </g>
    </g>
    <g id="ytick_11">
     <g id="line2d_16">
      <g>
       <use style="stroke:#000000;stroke-width:0.8;" x="473.184" xlink:href="#mad036ee7e7" y="262.4"/>
      </g>
     </g>
     <g id="text_16">
      <!-- 120 -->
      <g transform="translate(480.184 266.199219)scale(0.1 -0.1)">
       <use xlink:href="#DejaVuSans-2212"/>
       <use x="83.789062" xlink:href="#DejaVuSans-31"/>
       <use x="147.412109" xlink:href="#DejaVuSans-32"/>
       <use x="211.035156" xlink:href="#DejaVuSans-30"/>
      </g>
     </g>
    </g>
    <g id="ytick_12">
     <g id="line2d_17">
      <g>
       <use style="stroke:#000000;stroke-width:0.8;" x="473.184" xlink:href="#mad036ee7e7" y="214.08"/>
      </g>
     </g>
     <g id="text_17">
      <!-- 80 -->
      <g transform="translate(480.184 217.879219)scale(0.1 -0.1)">
       <use xlink:href="#DejaVuSans-2212"/>
       <use x="83.789062" xlink:href="#DejaVuSans-38"/>
       <use x="147.412109" xlink:href="#DejaVuSans-30"/>
      </g>
     </g>
    </g>
    <g id="ytick_13">
     <g id="line2d_18">
      <g>
       <use style="stroke:#000000;stroke-width:0.8;" x="473.184" xlink:href="#mad036ee7e7" y="165.76"/>
      </g>
     </g>
     <g id="text_18">
      <!-- 40 -->
      <g transform="translate(480.184 169.559219)scale(0.1 -0.1)">
       <use xlink:href="#DejaVuSans-2212"/>
       <use x="83.789062" xlink:href="#DejaVuSans-34"/>
       <use x="147.412109" xlink:href="#DejaVuSans-30"/>
      </g>
     </g>
    </g>
    <g id="ytick_14">
     <g id="line2d_19">
      <g>
       <use style="stroke:#000000;stroke-width:0.8;" x="473.184" xlink:href="#mad036ee7e7" y="117.44"/>
      </g>
     </g>
     <g id="text_19">
      <!-- 0 -->
      <g transform="translate(480.184 121.239219)scale(0.1 -0.1)">
       <use xlink:href="#DejaVuSans-30"/>
      </g>
     </g>
    </g>
    <g id="ytick_15">
     <g id="line2d_20">
      <g>
       <use style="stroke:#000000;stroke-width:0.8;" x="473.184" xlink:href="#mad036ee7e7" y="69.12"/>
      </g>
     </g>
     <g id="text_20">
      <!-- 40 -->
      <g transform="translate(480.184 72.919219)scale(0.1 -0.1)">
       <use xlink:href="#DejaVuSans-34"/>
       <use x="63.623047" xlink:href="#DejaVuSans-30"/>
      </g>
     </g>
    </g>
   </g>
   <g id="patch_8">
    <path d="M 451.44 504 
L 451.44 455.68 
L 451.44 117.44 
L 451.44 69.12 
L 473.184 69.12 
L 473.184 117.44 
L 473.184 455.68 
L 473.184 504 
z
" style="fill:none;stroke:#000000;stroke-linejoin:miter;stroke-width:0.8;"/>
   </g>
  </g>
 </g>
 <defs>
  <clipPath id="p1a3b89f02d">
   <rect height="434.88" width="357.12" x="72" y="69.12"/>
  </clipPath>
  <clipPath id="p760edbca70">
   <rect height="434.88" width="21.744" x="451.44" y="69.12"/>
  </clipPath>
 </defs>
</svg>
