<?xml version="1.0" encoding="utf-8" standalone="no"?>
<!DOCTYPE svg PUBLIC "-//W3C//DTD SVG 1.1//EN"
  "http://www.w3.org/Graphics/SVG/1.1/DTD/svg11.dtd">
<!-- Created with matplotlib (http://matplotlib.org/) -->
<svg height="576pt" version="1.1" viewBox="0 0 576 576" width="576pt" xmlns="http://www.w3.org/2000/svg" xmlns:xlink="http://www.w3.org/1999/xlink">
 <defs>
  <style type="text/css">
*{stroke-linecap:butt;stroke-linejoin:round;}
  </style>
 </defs>
 <g id="figure_1">
  <g id="patch_1">
   <path d="M 0 576 
L 576 576 
L 576 0 
L 0 0 
z
" style="fill:#ffffff;"/>
  </g>
  <g id="axes_1">
   <g id="patch_2">
    <path d="M 72 504 
L 429.12 504 
L 429.12 69.12 
L 72 69.12 
z
" style="fill:#ffffff;"/>
   </g>
   <g id="PathCollection_1">
    <path clip-path="url(#pa36cd05f51)" d="M 100.858182 504 
L 104.465455 504 
L 108.072727 504 
L 111.68 504 
L 115.287273 504 
L 118.894545 504 
L 122.501818 504 
L 126.109091 504 
L 129.716364 504 
L 133.323636 504 
L 136.930909 504 
L 140.538182 504 
L 144.145455 504 
L 147.752727 504 
L 151.36 504 
L 154.967273 504 
L 158.574545 504 
L 162.181818 504 
L 165.789091 504 
L 169.396364 504 
L 173.003636 504 
L 176.610909 504 
L 180.218182 504 
L 183.825455 504 
L 187.432727 504 
L 191.04 504 
L 194.647273 504 
L 198.254545 504 
L 201.861818 504 
L 205.469091 504 
L 209.076364 504 
L 212.683636 504 
L 216.290909 504 
L 219.898182 504 
L 223.505455 504 
L 227.112727 504 
L 230.72 504 
L 234.327273 504 
L 237.934545 504 
L 241.541818 504 
L 245.149091 504 
L 248.756364 504 
L 252.363636 504 
L 255.970909 504 
L 259.578182 504 
L 263.185455 504 
L 266.792727 504 
L 270.4 504 
L 274.007273 504 
L 277.614545 504 
L 281.221818 504 
L 284.829091 504 
L 288.436364 504 
L 292.043636 504 
L 295.650909 504 
L 299.258182 504 
L 302.865455 504 
L 306.472727 504 
L 310.08 504 
L 313.687273 504 
L 317.294545 504 
L 320.901818 504 
L 324.509091 504 
L 328.116364 504 
L 331.723636 504 
L 335.330909 504 
L 338.938182 504 
L 342.545455 504 
L 346.152727 504 
L 349.76 504 
L 353.367273 504 
L 356.974545 504 
L 360.581818 504 
L 364.189091 504 
L 367.796364 504 
L 371.403636 504 
L 375.010909 504 
L 378.618182 504 
L 382.225455 504 
L 385.832727 504 
L 389.44 504 
L 393.047273 504 
L 396.654545 504 
L 400.261818 504 
L 403.869091 504 
L 407.476364 504 
L 411.083636 504 
L 414.690909 504 
L 418.298182 504 
L 421.905455 504 
L 425.512727 504 
L 429.12 504 
L 429.12 499.607273 
L 429.12 495.214545 
L 429.12 490.821818 
L 429.12 486.429091 
L 429.12 482.036364 
L 429.12 477.643636 
L 429.12 473.250909 
L 429.12 468.858182 
L 429.12 464.465455 
L 429.12 460.072727 
L 429.12 455.68 
L 429.12 451.287273 
L 429.12 446.894545 
L 429.12 442.501818 
L 429.12 438.109091 
L 429.12 433.716364 
L 429.12 429.323636 
L 429.12 424.930909 
L 429.12 420.538182 
L 429.12 416.145455 
L 429.12 411.752727 
L 429.12 407.36 
L 429.12 402.967273 
L 429.12 398.574545 
L 429.12 394.181818 
L 429.12 389.789091 
L 429.12 385.396364 
L 429.12 381.003636 
L 429.12 376.610909 
L 429.12 372.218182 
L 429.12 367.825455 
L 429.12 363.432727 
L 429.12 359.04 
L 429.12 354.647273 
L 429.12 350.254545 
L 429.12 345.861818 
L 429.12 341.469091 
L 429.12 337.076364 
L 429.12 332.683636 
L 429.12 328.290909 
L 429.12 323.898182 
L 429.12 319.505455 
L 429.12 315.112727 
L 429.12 310.72 
L 429.12 306.327273 
L 429.12 301.934545 
L 429.12 297.541818 
L 429.12 293.149091 
L 429.12 288.756364 
L 429.12 284.363636 
L 429.12 279.970909 
L 429.12 275.578182 
L 429.12 271.185455 
L 429.12 266.792727 
L 429.12 262.4 
L 429.12 258.007273 
L 429.12 253.614545 
L 429.12 249.221818 
L 429.12 244.829091 
L 429.12 240.436364 
L 429.12 236.043636 
L 429.12 231.650909 
L 429.12 227.258182 
L 429.12 222.865455 
L 429.12 218.472727 
L 429.12 214.08 
L 429.12 209.687273 
L 429.12 205.294545 
L 429.12 200.901818 
L 429.12 196.509091 
L 429.12 192.116364 
L 429.12 187.723636 
L 429.12 183.330909 
L 429.12 178.938182 
L 429.12 174.545455 
L 429.12 170.152727 
L 429.12 165.76 
L 429.12 161.367273 
L 429.12 156.974545 
L 429.12 152.581818 
L 429.12 148.189091 
L 429.12 143.796364 
L 429.12 139.403636 
L 429.12 135.010909 
L 429.12 130.618182 
L 429.12 126.225455 
L 429.12 121.832727 
L 429.12 117.44 
L 429.12 113.047273 
L 429.12 108.654545 
L 429.12 104.261818 
L 429.12 99.869091 
L 429.12 95.476364 
L 429.12 91.083636 
L 429.12 86.690909 
L 429.12 82.298182 
L 429.12 77.905455 
L 429.12 73.512727 
L 429.12 69.12 
L 425.512727 69.12 
L 421.905455 69.12 
L 418.298182 69.12 
L 414.690909 69.12 
L 411.083636 69.12 
L 407.476364 69.12 
L 403.869091 69.12 
L 400.261818 69.12 
L 396.654545 69.12 
L 393.047273 69.12 
L 389.44 69.12 
L 385.832727 69.12 
L 382.225455 69.12 
L 378.618182 69.12 
L 375.010909 69.12 
L 371.403636 69.12 
L 367.796364 69.12 
L 364.189091 69.12 
L 360.581818 69.12 
L 356.974545 69.12 
L 353.367273 69.12 
L 349.76 69.12 
L 346.152727 69.12 
L 342.545455 69.12 
L 338.938182 69.12 
L 335.330909 69.12 
L 331.723636 69.12 
L 328.116364 69.12 
L 324.509091 69.12 
L 320.901818 69.12 
L 320.901761 69.12 
L 317.294545 73.512658 
L 317.294519 73.512727 
L 317.293849 77.905455 
L 313.687273 82.297334 
L 313.687226 82.298182 
L 310.08 86.690853 
L 310.079976 86.690909 
L 310.07982 91.083636 
L 306.472727 95.476145 
L 306.472688 95.476364 
L 302.865455 99.869044 
L 302.865433 99.869091 
L 302.865351 104.261818 
L 299.258182 108.65442 
L 299.258148 108.654545 
L 295.650909 113.047232 
L 295.650889 113.047273 
L 295.650837 117.44 
L 292.043636 121.832639 
L 292.043607 121.832727 
L 288.436364 126.225419 
L 288.436345 126.225455 
L 288.436308 130.618182 
L 284.829091 135.010841 
L 284.829065 135.010909 
L 284.828568 139.403636 
L 281.221818 143.795726 
L 281.221773 143.796364 
L 277.614545 148.189036 
L 277.614522 148.189091 
L 277.61438 152.581818 
L 274.007273 156.974344 
L 274.007235 156.974545 
L 270.4 161.367226 
L 270.399978 161.367273 
L 270.399902 165.76 
L 266.792727 170.152607 
L 266.792694 170.152727 
L 263.185455 174.545414 
L 263.185435 174.545455 
L 263.185385 178.938182 
L 259.578182 183.330824 
L 259.578153 183.330909 
L 255.970909 187.723601 
L 255.970891 187.723636 
L 255.970855 192.116364 
L 252.363636 196.509025 
L 252.36361 196.509091 
L 252.363217 200.901818 
L 248.756364 205.294035 
L 248.756319 205.294545 
L 245.149091 209.687219 
L 245.149067 209.687273 
L 245.148937 214.08 
L 241.541818 218.47254 
L 241.541781 218.472727 
L 237.934545 222.865409 
L 237.934524 222.865455 
L 237.934451 227.258182 
L 234.327273 231.650795 
L 234.32724 231.650909 
L 230.72 236.043597 
L 230.71998 236.043636 
L 230.719932 240.436364 
L 227.112727 244.829008 
L 227.112699 244.829091 
L 223.505455 249.221783 
L 223.505436 249.221818 
L 223.505402 253.614545 
L 219.898182 258.007208 
L 219.898156 258.007273 
L 219.897832 262.4 
L 216.290909 266.792301 
L 216.290866 266.792727 
L 212.683636 271.185402 
L 212.683613 271.185455 
L 212.683493 275.578182 
L 209.076364 279.970735 
L 209.076327 279.970909 
L 205.469091 284.363592 
L 205.46907 284.363636 
L 205.469001 288.756364 
L 201.861818 293.148981 
L 201.861786 293.149091 
L 198.254545 297.541779 
L 198.254526 297.541818 
L 198.25448 301.934545 
L 194.647273 306.327193 
L 194.647244 306.327273 
L 194.647131 310.72 
L 191.04 315.112555 
L 191.039969 315.112727 
L 191.039776 319.505455 
L 187.432727 323.897909 
L 187.432694 323.898182 
L 187.432185 328.290909 
L 183.825455 332.682976 
L 183.825414 332.683636 
L 180.218182 337.076314 
L 180.218161 337.076364 
L 180.218102 341.469091 
L 176.610909 345.861721 
L 176.610881 345.861818 
L 176.607609 350.254545 
L 173.003636 354.643254 
L 173.003593 354.647273 
L 169.396364 359.039947 
L 169.396342 359.04 
L 169.39627 363.432727 
L 165.789091 367.825341 
L 165.789061 367.825455 
L 162.181818 372.218145 
L 162.1818 372.218182 
L 162.181771 376.610909 
L 158.574545 381.003579 
L 158.574523 381.003636 
L 158.574433 385.396364 
L 154.967273 389.788954 
L 154.967241 389.789091 
L 151.36 394.181779 
L 151.359982 394.181818 
L 151.359948 398.574545 
L 147.752727 402.96721 
L 147.752703 402.967273 
L 147.752586 407.36 
L 144.145455 411.752555 
L 144.145421 411.752727 
L 140.538182 416.145413 
L 140.538163 416.145455 
L 140.538125 420.538182 
L 136.930909 424.930839 
L 136.930884 424.930909 
L 136.930718 429.323636 
L 133.323636 433.716131 
L 133.3236 433.716364 
L 129.716364 438.109047 
L 129.716344 438.109091 
L 129.7163 442.501818 
L 126.109091 446.894468 
L 126.109065 446.894545 
L 126.108798 451.287273 
L 122.501818 455.679644 
L 122.50178 455.68 
L 118.894545 460.07268 
L 118.894525 460.072727 
L 118.894473 464.465455 
L 115.287273 468.858094 
L 115.287245 468.858182 
L 115.287085 473.250909 
L 111.68 477.643408 
L 111.679963 477.643636 
L 108.072727 482.036319 
L 108.072707 482.036364 
L 108.072676 486.429091 
L 104.465455 490.821755 
L 104.46543 490.821818 
L 104.46537 495.214545 
L 100.858182 499.60717 
L 100.858152 499.607273 
L 100.857945 504 
z
" style="fill:#4e68d8;"/>
   </g>
   <g id="PathCollection_2">
    <path clip-path="url(#pa36cd05f51)" d="M 75.607273 504 
L 79.214545 504 
L 82.821818 504 
L 86.429091 504 
L 90.036364 504 
L 93.643636 504 
L 97.250909 504 
L 100.857945 504 
L 100.858152 499.607273 
L 100.858182 499.60717 
L 104.46537 495.214545 
L 104.46543 490.821818 
L 104.465455 490.821755 
L 108.072676 486.429091 
L 108.072707 482.036364 
L 108.072727 482.036319 
L 111.679963 477.643636 
L 111.68 477.643408 
L 115.287085 473.250909 
L 115.287245 468.858182 
L 115.287273 468.858094 
L 118.894473 464.465455 
L 118.894525 460.072727 
L 118.894545 460.07268 
L 122.50178 455.68 
L 122.501818 455.679644 
L 126.108798 451.287273 
L 126.109065 446.894545 
L 126.109091 446.894468 
L 129.7163 442.501818 
L 129.716344 438.109091 
L 129.716364 438.109047 
L 133.3236 433.716364 
L 133.323636 433.716131 
L 136.930718 429.323636 
L 136.930884 424.930909 
L 136.930909 424.930839 
L 140.538125 420.538182 
L 140.538163 416.145455 
L 140.538182 416.145413 
L 144.145421 411.752727 
L 144.145455 411.752555 
L 147.752586 407.36 
L 147.752703 402.967273 
L 147.752727 402.96721 
L 151.359948 398.574545 
L 151.359982 394.181818 
L 151.36 394.181779 
L 154.967241 389.789091 
L 154.967273 389.788954 
L 158.574433 385.396364 
L 158.574523 381.003636 
L 158.574545 381.003579 
L 162.181771 376.610909 
L 162.1818 372.218182 
L 162.181818 372.218145 
L 165.789061 367.825455 
L 165.789091 367.825341 
L 169.39627 363.432727 
L 169.396342 359.04 
L 169.396364 359.039947 
L 173.003593 354.647273 
L 173.003636 354.643254 
L 176.607609 350.254545 
L 176.610881 345.861818 
L 176.610909 345.861721 
L 180.218102 341.469091 
L 180.218161 337.076364 
L 180.218182 337.076314 
L 183.825414 332.683636 
L 183.825455 332.682976 
L 187.432185 328.290909 
L 187.432694 323.898182 
L 187.432727 323.897909 
L 191.039776 319.505455 
L 191.039969 315.112727 
L 191.04 315.112555 
L 194.647131 310.72 
L 194.647244 306.327273 
L 194.647273 306.327193 
L 198.25448 301.934545 
L 198.254526 297.541818 
L 198.254545 297.541779 
L 201.861786 293.149091 
L 201.861818 293.148981 
L 205.469001 288.756364 
L 205.46907 284.363636 
L 205.469091 284.363592 
L 209.076327 279.970909 
L 209.076364 279.970735 
L 212.683493 275.578182 
L 212.683613 271.185455 
L 212.683636 271.185402 
L 216.290866 266.792727 
L 216.290909 266.792301 
L 219.897832 262.4 
L 219.898156 258.007273 
L 219.898182 258.007208 
L 223.505402 253.614545 
L 223.505436 249.221818 
L 223.505455 249.221783 
L 227.112699 244.829091 
L 227.112727 244.829008 
L 230.719932 240.436364 
L 230.71998 236.043636 
L 230.72 236.043597 
L 234.32724 231.650909 
L 234.327273 231.650795 
L 237.934451 227.258182 
L 237.934524 222.865455 
L 237.934545 222.865409 
L 241.541781 218.472727 
L 241.541818 218.47254 
L 245.148937 214.08 
L 245.149067 209.687273 
L 245.149091 209.687219 
L 248.756319 205.294545 
L 248.756364 205.294035 
L 252.363217 200.901818 
L 252.36361 196.509091 
L 252.363636 196.509025 
L 255.970855 192.116364 
L 255.970891 187.723636 
L 255.970909 187.723601 
L 259.578153 183.330909 
L 259.578182 183.330824 
L 263.185385 178.938182 
L 263.185435 174.545455 
L 263.185455 174.545414 
L 266.792694 170.152727 
L 266.792727 170.152607 
L 270.399902 165.76 
L 270.399978 161.367273 
L 270.4 161.367226 
L 274.007235 156.974545 
L 274.007273 156.974344 
L 277.61438 152.581818 
L 277.614522 148.189091 
L 277.614545 148.189036 
L 281.221773 143.796364 
L 281.221818 143.795726 
L 284.828568 139.403636 
L 284.829065 135.010909 
L 284.829091 135.010841 
L 288.436308 130.618182 
L 288.436345 126.225455 
L 288.436364 126.225419 
L 292.043607 121.832727 
L 292.043636 121.832639 
L 295.650837 117.44 
L 295.650889 113.047273 
L 295.650909 113.047232 
L 299.258148 108.654545 
L 299.258182 108.65442 
L 302.865351 104.261818 
L 302.865433 99.869091 
L 302.865455 99.869044 
L 306.472688 95.476364 
L 306.472727 95.476145 
L 310.07982 91.083636 
L 310.079976 86.690909 
L 310.08 86.690853 
L 313.687226 82.298182 
L 313.687273 82.297334 
L 317.293849 77.905455 
L 317.294519 73.512727 
L 317.294545 73.512658 
L 320.901761 69.12 
L 317.294545 69.12 
L 313.687273 69.12 
L 310.08 69.12 
L 306.472727 69.12 
L 302.865455 69.12 
L 299.258182 69.12 
L 295.650909 69.12 
L 292.043636 69.12 
L 288.436364 69.12 
L 284.829091 69.12 
L 282.69792 69.12 
L 281.221818 71.918756 
L 280.381133 73.512727 
L 278.064341 77.905455 
L 277.614545 78.758278 
L 275.747544 82.298182 
L 274.007273 85.597775 
L 273.430735 86.690909 
L 271.113956 91.083636 
L 270.4 92.437333 
L 268.797171 95.476364 
L 266.792727 99.276844 
L 266.480367 99.869091 
L 264.163586 104.261818 
L 263.185455 106.1164 
L 261.846796 108.654545 
L 259.578182 112.955922 
L 259.530002 113.047273 
L 257.21319 117.44 
L 255.970909 119.795411 
L 254.896401 121.832727 
L 252.579619 126.225455 
L 252.363636 126.634966 
L 250.262825 130.618182 
L 248.756364 133.47451 
L 247.946049 135.010909 
L 245.629234 139.403636 
L 245.149091 140.31401 
L 243.312442 143.796364 
L 241.541818 147.153532 
L 240.995648 148.189091 
L 238.678868 152.581818 
L 237.934545 153.993077 
L 236.362067 156.974545 
L 234.327273 160.83261 
L 234.045283 161.367273 
L 231.728484 165.76 
L 230.72 167.672117 
L 229.411677 170.152727 
L 227.112727 174.51162 
L 227.094882 174.545455 
L 224.778095 178.938182 
L 223.505455 181.351161 
L 222.461312 183.330909 
L 220.144519 187.723636 
L 219.898182 188.190701 
L 217.827741 192.116364 
L 216.290909 195.030253 
L 215.510947 196.509091 
L 213.194137 200.901818 
L 212.683636 201.869749 
L 210.877349 205.294545 
L 209.076364 208.70929 
L 208.560564 209.687273 
L 206.243787 214.08 
L 205.469091 215.548853 
L 203.926993 218.472727 
L 201.861818 222.388375 
L 201.610198 222.865455 
L 199.2934 227.258182 
L 198.254545 229.227897 
L 196.97661 231.650909 
L 194.659816 236.043636 
L 194.647273 236.067419 
L 192.343015 240.436364 
L 191.04 242.906941 
L 190.026233 244.829091 
L 187.70945 249.221818 
L 187.432727 249.746489 
L 185.392641 253.614545 
L 183.825455 256.585996 
L 183.075845 258.007273 
L 180.759053 262.4 
L 180.218182 263.425507 
L 178.442265 266.792727 
L 176.610909 270.265063 
L 176.12548 271.185455 
L 173.808686 275.578182 
L 173.003636 277.104585 
L 171.491899 279.970909 
L 169.396364 283.94408 
L 169.175079 284.363636 
L 166.858298 288.756364 
L 165.789091 290.783629 
L 164.541509 293.149091 
L 162.224714 297.541818 
L 162.181818 297.623151 
L 159.90792 301.934545 
L 158.574545 304.462673 
L 157.591131 306.327273 
L 155.274332 310.72 
L 154.967273 311.302199 
L 152.957545 315.112727 
L 151.36 318.141717 
L 150.640747 319.505455 
L 148.544385 323.898182 
L 147.752727 325.73713 
L 146.653339 328.290909 
L 144.762312 332.683636 
L 144.145455 334.116541 
L 142.871267 337.076364 
L 140.98024 341.469091 
L 140.538182 342.495942 
L 139.089176 345.861818 
L 137.198132 350.254545 
L 136.930909 350.875282 
L 135.307103 354.647273 
L 133.41498 359.04 
L 133.323636 359.229772 
L 131.399331 363.432727 
L 129.716364 366.812722 
L 129.212102 367.825455 
L 127.02486 372.218182 
L 126.109091 374.057386 
L 124.837657 376.610909 
L 122.650425 381.003636 
L 122.501818 381.302091 
L 120.463208 385.396364 
L 118.894545 388.54681 
L 118.275989 389.789091 
L 116.088749 394.181818 
L 115.287273 395.791472 
L 113.901536 398.574545 
L 111.714327 402.967273 
L 111.68 403.036212 
L 109.527076 407.36 
L 108.072727 410.280863 
L 107.33986 411.752727 
L 105.15263 416.145455 
L 104.465455 417.525547 
L 102.965411 420.538182 
L 100.858182 424.7703 
L 100.778211 424.930909 
L 98.590964 429.323636 
L 97.250909 432.014937 
L 96.403746 433.716364 
L 94.21653 438.109091 
L 93.643636 439.259661 
L 92.029296 442.501818 
L 90.036364 446.504354 
L 89.842081 446.894545 
L 87.654853 451.287273 
L 86.429091 453.749038 
L 85.467627 455.68 
L 83.2804 460.072727 
L 82.821818 460.993715 
L 81.093173 464.465455 
L 79.214545 468.238412 
L 78.905947 468.858182 
L 76.718738 473.250909 
L 75.607273 475.483108 
L 74.531499 477.643636 
L 72.344301 482.036364 
L 72 482.72784 
L 72 486.429091 
L 72 490.821818 
L 72 495.214545 
L 72 499.607273 
L 72 504 
z
" style="fill:#779af7;"/>
   </g>
   <g id="PathCollection_3">
    <path clip-path="url(#pa36cd05f51)" d="M 72.344301 482.036364 
L 74.531499 477.643636 
L 75.607273 475.483108 
L 76.718738 473.250909 
L 78.905947 468.858182 
L 79.214545 468.238412 
L 81.093173 464.465455 
L 82.821818 460.993715 
L 83.2804 460.072727 
L 85.467627 455.68 
L 86.429091 453.749038 
L 87.654853 451.287273 
L 89.842081 446.894545 
L 90.036364 446.504354 
L 92.029296 442.501818 
L 93.643636 439.259661 
L 94.21653 438.109091 
L 96.403746 433.716364 
L 97.250909 432.014937 
L 98.590964 429.323636 
L 100.778211 424.930909 
L 100.858182 424.7703 
L 102.965411 420.538182 
L 104.465455 417.525547 
L 105.15263 416.145455 
L 107.33986 411.752727 
L 108.072727 410.280863 
L 109.527076 407.36 
L 111.68 403.036212 
L 111.714327 402.967273 
L 113.901536 398.574545 
L 115.287273 395.791472 
L 116.088749 394.181818 
L 118.275989 389.789091 
L 118.894545 388.54681 
L 120.463208 385.396364 
L 122.501818 381.302091 
L 122.650425 381.003636 
L 124.837657 376.610909 
L 126.109091 374.057386 
L 127.02486 372.218182 
L 129.212102 367.825455 
L 129.716364 366.812722 
L 131.399331 363.432727 
L 133.323636 359.229772 
L 133.41498 359.04 
L 135.307103 354.647273 
L 136.930909 350.875282 
L 137.198132 350.254545 
L 139.089176 345.861818 
L 140.538182 342.495942 
L 140.98024 341.469091 
L 142.871267 337.076364 
L 144.145455 334.116541 
L 144.762312 332.683636 
L 146.653339 328.290909 
L 147.752727 325.73713 
L 148.544385 323.898182 
L 150.640747 319.505455 
L 151.36 318.141717 
L 152.957545 315.112727 
L 154.967273 311.302199 
L 155.274332 310.72 
L 157.591131 306.327273 
L 158.574545 304.462673 
L 159.90792 301.934545 
L 162.181818 297.623151 
L 162.224714 297.541818 
L 164.541509 293.149091 
L 165.789091 290.783629 
L 166.858298 288.756364 
L 169.175079 284.363636 
L 169.396364 283.94408 
L 171.491899 279.970909 
L 173.003636 277.104585 
L 173.808686 275.578182 
L 176.12548 271.185455 
L 176.610909 270.265063 
L 178.442265 266.792727 
L 180.218182 263.425507 
L 180.759053 262.4 
L 183.075845 258.007273 
L 183.825455 256.585996 
L 185.392641 253.614545 
L 187.432727 249.746489 
L 187.70945 249.221818 
L 190.026233 244.829091 
L 191.04 242.906941 
L 192.343015 240.436364 
L 194.647273 236.067419 
L 194.659816 236.043636 
L 196.97661 231.650909 
L 198.254545 229.227897 
L 199.2934 227.258182 
L 201.610198 222.865455 
L 201.861818 222.388375 
L 203.926993 218.472727 
L 205.469091 215.548853 
L 206.243787 214.08 
L 208.560564 209.687273 
L 209.076364 208.70929 
L 210.877349 205.294545 
L 212.683636 201.869749 
L 213.194137 200.901818 
L 215.510947 196.509091 
L 216.290909 195.030253 
L 217.827741 192.116364 
L 219.898182 188.190701 
L 220.144519 187.723636 
L 222.461312 183.330909 
L 223.505455 181.351161 
L 224.778095 178.938182 
L 227.094882 174.545455 
L 227.112727 174.51162 
L 229.411677 170.152727 
L 230.72 167.672117 
L 231.728484 165.76 
L 234.045283 161.367273 
L 234.327273 160.83261 
L 236.362067 156.974545 
L 237.934545 153.993077 
L 238.678868 152.581818 
L 240.995648 148.189091 
L 241.541818 147.153532 
L 243.312442 143.796364 
L 245.149091 140.31401 
L 245.629234 139.403636 
L 247.946049 135.010909 
L 248.756364 133.47451 
L 250.262825 130.618182 
L 252.363636 126.634966 
L 252.579619 126.225455 
L 254.896401 121.832727 
L 255.970909 119.795411 
L 257.21319 117.44 
L 259.530002 113.047273 
L 259.578182 112.955922 
L 261.846796 108.654545 
L 263.185455 106.1164 
L 264.163586 104.261818 
L 266.480367 99.869091 
L 266.792727 99.276844 
L 268.797171 95.476364 
L 270.4 92.437333 
L 271.113956 91.083636 
L 273.430735 86.690909 
L 274.007273 85.597775 
L 275.747544 82.298182 
L 277.614545 78.758278 
L 278.064341 77.905455 
L 280.381133 73.512727 
L 281.221818 71.918756 
L 282.69792 69.12 
L 281.221818 69.12 
L 277.614545 69.12 
L 274.007273 69.12 
L 270.4 69.12 
L 266.792727 69.12 
L 263.185455 69.12 
L 259.578182 69.12 
L 255.970909 69.12 
L 252.363636 69.12 
L 248.756364 69.12 
L 246.983101 69.12 
L 245.149091 72.597377 
L 244.666322 73.512727 
L 242.34953 77.905455 
L 241.541818 79.436882 
L 240.032715 82.298182 
L 237.934545 86.276397 
L 237.715924 86.690909 
L 235.399122 91.083636 
L 234.327273 93.115898 
L 233.082341 95.476364 
L 230.765576 99.869091 
L 230.72 99.955505 
L 228.448782 104.261818 
L 227.112727 106.795008 
L 226.131975 108.654545 
L 223.815174 113.047273 
L 223.505455 113.634516 
L 221.498372 117.44 
L 219.898182 120.474027 
L 219.181591 121.832727 
L 216.864808 126.225455 
L 216.290909 127.313602 
L 214.548017 130.618182 
L 212.683636 134.153109 
L 212.231224 135.010909 
L 209.914424 139.403636 
L 209.076364 140.992637 
L 207.597626 143.796364 
L 205.469091 147.832157 
L 205.28084 148.189091 
L 202.964058 152.581818 
L 201.861818 154.671683 
L 200.647239 156.974545 
L 198.330474 161.367273 
L 198.254545 161.511236 
L 196.013662 165.76 
L 194.647273 168.350705 
L 193.696855 170.152727 
L 191.38009 174.545455 
L 191.04 175.190281 
L 189.063297 178.938182 
L 187.432727 182.029803 
L 186.746503 183.330909 
L 184.429709 187.723636 
L 183.825455 188.869334 
L 182.112932 192.116364 
L 180.218182 195.708853 
L 179.796122 196.509091 
L 177.479326 200.901818 
L 176.610909 202.548382 
L 175.16255 205.294545 
L 173.003636 209.387893 
L 172.845738 209.687273 
L 170.528961 214.08 
L 169.396364 216.227463 
L 168.212185 218.472727 
L 165.895373 222.865455 
L 165.789091 223.066969 
L 163.578578 227.258182 
L 162.181818 229.906491 
L 161.26178 231.650909 
L 158.94499 236.043636 
L 158.574545 236.746018 
L 156.628204 240.436364 
L 154.967273 243.585535 
L 154.311401 244.829091 
L 151.994622 249.221818 
L 151.36 250.425081 
L 149.677829 253.614545 
L 147.752727 257.264646 
L 147.36105 258.007273 
L 145.044242 262.4 
L 144.145455 264.104134 
L 142.727462 266.792727 
L 140.538182 270.94366 
L 140.410654 271.185455 
L 138.093871 275.578182 
L 136.930909 277.783195 
L 135.777065 279.970909 
L 133.460271 284.363636 
L 133.323636 284.622702 
L 131.143494 288.756364 
L 129.716364 291.462277 
L 128.826709 293.149091 
L 126.509906 297.541818 
L 126.109091 298.301784 
L 124.193129 301.934545 
L 122.501818 305.141334 
L 121.876335 306.327273 
L 119.559523 310.72 
L 118.894545 311.980822 
L 117.242721 315.112727 
L 115.287273 318.820339 
L 114.925936 319.505455 
L 112.609153 323.898182 
L 111.68 325.6599 
L 110.292357 328.290909 
L 108.072727 332.49942 
L 107.97557 332.683636 
L 105.666424 337.076364 
L 104.465455 339.777317 
L 103.684912 341.469091 
L 101.793866 345.861818 
L 100.858182 348.035318 
L 99.902807 350.254545 
L 98.011747 354.647273 
L 97.250909 356.414638 
L 96.12071 359.04 
L 94.229686 363.432727 
L 93.643636 364.794074 
L 92.338637 367.825455 
L 90.4476 372.218182 
L 90.036364 373.173451 
L 88.556563 376.610909 
L 86.665526 381.003636 
L 86.429091 381.552858 
L 84.774482 385.396364 
L 82.883435 389.789091 
L 82.821818 389.926437 
L 80.954005 394.181818 
L 79.214545 397.770157 
L 78.839875 398.574545 
L 76.652653 402.967273 
L 75.607273 405.066775 
L 74.465434 407.36 
L 72.278211 411.752727 
L 72 412.311482 
L 72 416.145455 
L 72 420.538182 
L 72 424.930909 
L 72 429.323636 
L 72 433.716364 
L 72 438.109091 
L 72 442.501818 
L 72 446.894545 
L 72 451.287273 
L 72 455.68 
L 72 460.072727 
L 72 464.465455 
L 72 468.858182 
L 72 473.250909 
L 72 477.643636 
L 72 482.036364 
L 72 482.72784 
z
" style="fill:#a3c2fe;"/>
   </g>
   <g id="PathCollection_4">
    <path clip-path="url(#pa36cd05f51)" d="M 72.278211 411.752727 
L 74.465434 407.36 
L 75.607273 405.066775 
L 76.652653 402.967273 
L 78.839875 398.574545 
L 79.214545 397.770157 
L 80.954005 394.181818 
L 82.821818 389.926437 
L 82.883435 389.789091 
L 84.774482 385.396364 
L 86.429091 381.552858 
L 86.665526 381.003636 
L 88.556563 376.610909 
L 90.036364 373.173451 
L 90.4476 372.218182 
L 92.338637 367.825455 
L 93.643636 364.794074 
L 94.229686 363.432727 
L 96.12071 359.04 
L 97.250909 356.414638 
L 98.011747 354.647273 
L 99.902807 350.254545 
L 100.858182 348.035318 
L 101.793866 345.861818 
L 103.684912 341.469091 
L 104.465455 339.777317 
L 105.666424 337.076364 
L 107.97557 332.683636 
L 108.072727 332.49942 
L 110.292357 328.290909 
L 111.68 325.6599 
L 112.609153 323.898182 
L 114.925936 319.505455 
L 115.287273 318.820339 
L 117.242721 315.112727 
L 118.894545 311.980822 
L 119.559523 310.72 
L 121.876335 306.327273 
L 122.501818 305.141334 
L 124.193129 301.934545 
L 126.109091 298.301784 
L 126.509906 297.541818 
L 128.826709 293.149091 
L 129.716364 291.462277 
L 131.143494 288.756364 
L 133.323636 284.622702 
L 133.460271 284.363636 
L 135.777065 279.970909 
L 136.930909 277.783195 
L 138.093871 275.578182 
L 140.410654 271.185455 
L 140.538182 270.94366 
L 142.727462 266.792727 
L 144.145455 264.104134 
L 145.044242 262.4 
L 147.36105 258.007273 
L 147.752727 257.264646 
L 149.677829 253.614545 
L 151.36 250.425081 
L 151.994622 249.221818 
L 154.311401 244.829091 
L 154.967273 243.585535 
L 156.628204 240.436364 
L 158.574545 236.746018 
L 158.94499 236.043636 
L 161.26178 231.650909 
L 162.181818 229.906491 
L 163.578578 227.258182 
L 165.789091 223.066969 
L 165.895373 222.865455 
L 168.212185 218.472727 
L 169.396364 216.227463 
L 170.528961 214.08 
L 172.845738 209.687273 
L 173.003636 209.387893 
L 175.16255 205.294545 
L 176.610909 202.548382 
L 177.479326 200.901818 
L 179.796122 196.509091 
L 180.218182 195.708853 
L 182.112932 192.116364 
L 183.825455 188.869334 
L 184.429709 187.723636 
L 186.746503 183.330909 
L 187.432727 182.029803 
L 189.063297 178.938182 
L 191.04 175.190281 
L 191.38009 174.545455 
L 193.696855 170.152727 
L 194.647273 168.350705 
L 196.013662 165.76 
L 198.254545 161.511236 
L 198.330474 161.367273 
L 200.647239 156.974545 
L 201.861818 154.671683 
L 202.964058 152.581818 
L 205.28084 148.189091 
L 205.469091 147.832157 
L 207.597626 143.796364 
L 209.076364 140.992637 
L 209.914424 139.403636 
L 212.231224 135.010909 
L 212.683636 134.153109 
L 214.548017 130.618182 
L 216.290909 127.313602 
L 216.864808 126.225455 
L 219.181591 121.832727 
L 219.898182 120.474027 
L 221.498372 117.44 
L 223.505455 113.634516 
L 223.815174 113.047273 
L 226.131975 108.654545 
L 227.112727 106.795008 
L 228.448782 104.261818 
L 230.72 99.955505 
L 230.765576 99.869091 
L 233.082341 95.476364 
L 234.327273 93.115898 
L 235.399122 91.083636 
L 237.715924 86.690909 
L 237.934545 86.276397 
L 240.032715 82.298182 
L 241.541818 79.436882 
L 242.34953 77.905455 
L 244.666322 73.512727 
L 245.149091 72.597377 
L 246.983101 69.12 
L 245.149091 69.12 
L 241.541818 69.12 
L 237.934545 69.12 
L 234.327273 69.12 
L 230.72 69.12 
L 227.112727 69.12 
L 223.505455 69.12 
L 219.898182 69.12 
L 216.290909 69.12 
L 212.683636 69.12 
L 211.268295 69.12 
L 209.076364 73.275946 
L 208.95148 73.512727 
L 206.634704 77.905455 
L 205.469091 80.11549 
L 204.317889 82.298182 
L 202.001098 86.690909 
L 201.861818 86.954989 
L 199.68431 91.083636 
L 198.254545 93.794551 
L 197.367538 95.476364 
L 195.050745 99.869091 
L 194.647273 100.634099 
L 192.733956 104.261818 
L 191.04 107.473571 
L 190.417129 108.654545 
L 188.100345 113.047273 
L 187.432727 114.313119 
L 185.783565 117.44 
L 183.825455 121.152659 
L 183.466777 121.832727 
L 181.149978 126.225455 
L 180.218182 127.992193 
L 178.833202 130.618182 
L 176.610909 134.831775 
L 176.516431 135.010909 
L 174.199593 139.403636 
L 173.003636 141.671239 
L 171.882819 143.796364 
L 169.565988 148.189091 
L 169.396364 148.510705 
L 167.249226 152.581818 
L 165.789091 155.350298 
L 164.932425 156.974545 
L 162.615644 161.367273 
L 162.181818 162.189798 
L 160.298833 165.76 
L 158.574545 169.029369 
L 157.982063 170.152727 
L 155.665237 174.545455 
L 154.967273 175.868829 
L 153.348465 178.938182 
L 151.36 182.708384 
L 151.031666 183.330909 
L 148.714871 187.723636 
L 147.752727 189.547909 
L 146.398098 192.116364 
L 144.145455 196.387491 
L 144.08132 196.509091 
L 141.764506 200.901818 
L 140.538182 203.226954 
L 139.447714 205.294545 
L 137.130913 209.687273 
L 136.930909 210.066484 
L 134.814117 214.08 
L 133.323636 216.906028 
L 132.497351 218.472727 
L 130.180545 222.865455 
L 129.716364 223.745562 
L 127.863752 227.258182 
L 126.109091 230.58511 
L 125.546977 231.650909 
L 123.230197 236.043636 
L 122.501818 237.424647 
L 120.913372 240.436364 
L 118.894545 244.264191 
L 118.596608 244.829091 
L 116.279783 249.221818 
L 115.287273 251.103643 
L 113.962994 253.614545 
L 111.68 257.943239 
L 111.646227 258.007273 
L 109.329413 262.4 
L 108.072727 264.782719 
L 107.01262 266.792727 
L 104.695853 271.185455 
L 104.465455 271.6223 
L 102.379065 275.578182 
L 100.858182 278.461784 
L 100.06223 279.970909 
L 97.745434 284.363636 
L 97.250909 285.301284 
L 95.428659 288.756364 
L 93.643636 292.140833 
L 93.111869 293.149091 
L 90.795072 297.541818 
L 90.036364 298.980349 
L 88.478271 301.934545 
L 86.429091 305.819906 
L 86.161499 306.327273 
L 83.844678 310.72 
L 82.821818 312.659372 
L 81.527894 315.112727 
L 79.214545 319.498988 
L 79.211135 319.505455 
L 76.894326 323.898182 
L 75.607273 326.338486 
L 74.57754 328.290909 
L 72.260743 332.683636 
L 72 333.178015 
L 72 337.076364 
L 72 341.469091 
L 72 345.861818 
L 72 350.254545 
L 72 354.647273 
L 72 359.04 
L 72 363.432727 
L 72 367.825455 
L 72 372.218182 
L 72 376.610909 
L 72 381.003636 
L 72 385.396364 
L 72 389.789091 
L 72 394.181818 
L 72 398.574545 
L 72 402.967273 
L 72 407.36 
L 72 411.752727 
L 72 412.311482 
z
" style="fill:#ccd9ed;"/>
   </g>
   <g id="PathCollection_5">
    <path clip-path="url(#pa36cd05f51)" d="M 72.260743 332.683636 
L 74.57754 328.290909 
L 75.607273 326.338486 
L 76.894326 323.898182 
L 79.211135 319.505455 
L 79.214545 319.498988 
L 81.527894 315.112727 
L 82.821818 312.659372 
L 83.844678 310.72 
L 86.161499 306.327273 
L 86.429091 305.819906 
L 88.478271 301.934545 
L 90.036364 298.980349 
L 90.795072 297.541818 
L 93.111869 293.149091 
L 93.643636 292.140833 
L 95.428659 288.756364 
L 97.250909 285.301284 
L 97.745434 284.363636 
L 100.06223 279.970909 
L 100.858182 278.461784 
L 102.379065 275.578182 
L 104.465455 271.6223 
L 104.695853 271.185455 
L 107.01262 266.792727 
L 108.072727 264.782719 
L 109.329413 262.4 
L 111.646227 258.007273 
L 111.68 257.943239 
L 113.962994 253.614545 
L 115.287273 251.103643 
L 116.279783 249.221818 
L 118.596608 244.829091 
L 118.894545 244.264191 
L 120.913372 240.436364 
L 122.501818 237.424647 
L 123.230197 236.043636 
L 125.546977 231.650909 
L 126.109091 230.58511 
L 127.863752 227.258182 
L 129.716364 223.745562 
L 130.180545 222.865455 
L 132.497351 218.472727 
L 133.323636 216.906028 
L 134.814117 214.08 
L 136.930909 210.066484 
L 137.130913 209.687273 
L 139.447714 205.294545 
L 140.538182 203.226954 
L 141.764506 200.901818 
L 144.08132 196.509091 
L 144.145455 196.387491 
L 146.398098 192.116364 
L 147.752727 189.547909 
L 148.714871 187.723636 
L 151.031666 183.330909 
L 151.36 182.708384 
L 153.348465 178.938182 
L 154.967273 175.868829 
L 155.665237 174.545455 
L 157.982063 170.152727 
L 158.574545 169.029369 
L 160.298833 165.76 
L 162.181818 162.189798 
L 162.615644 161.367273 
L 164.932425 156.974545 
L 165.789091 155.350298 
L 167.249226 152.581818 
L 169.396364 148.510705 
L 169.565988 148.189091 
L 171.882819 143.796364 
L 173.003636 141.671239 
L 174.199593 139.403636 
L 176.516431 135.010909 
L 176.610909 134.831775 
L 178.833202 130.618182 
L 180.218182 127.992193 
L 181.149978 126.225455 
L 183.466777 121.832727 
L 183.825455 121.152659 
L 185.783565 117.44 
L 187.432727 114.313119 
L 188.100345 113.047273 
L 190.417129 108.654545 
L 191.04 107.473571 
L 192.733956 104.261818 
L 194.647273 100.634099 
L 195.050745 99.869091 
L 197.367538 95.476364 
L 198.254545 93.794551 
L 199.68431 91.083636 
L 201.861818 86.954989 
L 202.001098 86.690909 
L 204.317889 82.298182 
L 205.469091 80.11549 
L 206.634704 77.905455 
L 208.95148 73.512727 
L 209.076364 73.275946 
L 211.268295 69.12 
L 209.076364 69.12 
L 205.469091 69.12 
L 201.861818 69.12 
L 198.254545 69.12 
L 194.647273 69.12 
L 191.04 69.12 
L 187.432727 69.12 
L 183.825455 69.12 
L 180.218182 69.12 
L 176.610909 69.12 
L 175.553459 69.12 
L 173.23668 73.512727 
L 173.003636 73.954584 
L 170.919868 77.905455 
L 169.396364 80.794076 
L 168.603074 82.298182 
L 166.286279 86.690909 
L 165.789091 87.633594 
L 163.96949 91.083636 
L 162.181818 94.473153 
L 161.652709 95.476364 
L 159.335917 99.869091 
L 158.574545 101.31267 
L 157.019116 104.261818 
L 154.967273 108.152182 
L 154.702319 108.654545 
L 152.38551 113.047273 
L 151.36 114.991684 
L 150.068732 117.44 
L 147.752727 121.831224 
L 147.751935 121.832727 
L 145.435164 126.225455 
L 144.145455 128.67078 
L 143.118366 130.618182 
L 140.801585 135.010909 
L 140.538182 135.510332 
L 138.484765 139.403636 
L 136.930909 142.349813 
L 136.167981 143.796364 
L 133.851186 148.189091 
L 133.323636 149.18935 
L 131.534397 152.581818 
L 129.716364 156.028895 
L 129.217616 156.974545 
L 126.900838 161.367273 
L 126.109091 162.86844 
L 124.584022 165.76 
L 122.501818 169.707931 
L 122.267225 170.152727 
L 119.950442 174.545455 
L 118.894545 176.547475 
L 117.633651 178.938182 
L 115.316859 183.330909 
L 115.287273 183.387007 
L 113.000072 187.723636 
L 111.68 190.226529 
L 110.683278 192.116364 
L 108.366476 196.509091 
L 108.072727 197.066055 
L 106.0497 200.901818 
L 104.465455 203.905583 
L 103.732888 205.294545 
L 101.41611 209.687273 
L 100.858182 210.745124 
L 99.099313 214.08 
L 97.250909 217.584677 
L 96.782542 218.472727 
L 94.465727 222.865455 
L 93.643636 224.424178 
L 92.14894 227.258182 
L 90.036364 231.263679 
L 89.832133 231.650909 
L 87.515361 236.043636 
L 86.429091 238.103242 
L 85.198558 240.436364 
L 82.881767 244.829091 
L 82.821818 244.942754 
L 80.564982 249.221818 
L 79.214545 251.782318 
L 78.248193 253.614545 
L 75.931385 258.007273 
L 75.607273 258.621804 
L 73.614607 262.4 
L 72 265.461355 
L 72 266.792727 
L 72 271.185455 
L 72 275.578182 
L 72 279.970909 
L 72 284.363636 
L 72 288.756364 
L 72 293.149091 
L 72 297.541818 
L 72 301.934545 
L 72 306.327273 
L 72 310.72 
L 72 315.112727 
L 72 319.505455 
L 72 323.898182 
L 72 328.290909 
L 72 332.683636 
L 72 333.178015 
z
" style="fill:#ecd3c5;"/>
   </g>
   <g id="PathCollection_6">
    <path clip-path="url(#pa36cd05f51)" d="M 73.614607 262.4 
L 75.607273 258.621804 
L 75.931385 258.007273 
L 78.248193 253.614545 
L 79.214545 251.782318 
L 80.564982 249.221818 
L 82.821818 244.942754 
L 82.881767 244.829091 
L 85.198558 240.436364 
L 86.429091 238.103242 
L 87.515361 236.043636 
L 89.832133 231.650909 
L 90.036364 231.263679 
L 92.14894 227.258182 
L 93.643636 224.424178 
L 94.465727 222.865455 
L 96.782542 218.472727 
L 97.250909 217.584677 
L 99.099313 214.08 
L 100.858182 210.745124 
L 101.41611 209.687273 
L 103.732888 205.294545 
L 104.465455 203.905583 
L 106.0497 200.901818 
L 108.072727 197.066055 
L 108.366476 196.509091 
L 110.683278 192.116364 
L 111.68 190.226529 
L 113.000072 187.723636 
L 115.287273 183.387007 
L 115.316859 183.330909 
L 117.633651 178.938182 
L 118.894545 176.547475 
L 119.950442 174.545455 
L 122.267225 170.152727 
L 122.501818 169.707931 
L 124.584022 165.76 
L 126.109091 162.86844 
L 126.900838 161.367273 
L 129.217616 156.974545 
L 129.716364 156.028895 
L 131.534397 152.581818 
L 133.323636 149.18935 
L 133.851186 148.189091 
L 136.167981 143.796364 
L 136.930909 142.349813 
L 138.484765 139.403636 
L 140.538182 135.510332 
L 140.801585 135.010909 
L 143.118366 130.618182 
L 144.145455 128.67078 
L 145.435164 126.225455 
L 147.751935 121.832727 
L 147.752727 121.831224 
L 150.068732 117.44 
L 151.36 114.991684 
L 152.38551 113.047273 
L 154.702319 108.654545 
L 154.967273 108.152182 
L 157.019116 104.261818 
L 158.574545 101.31267 
L 159.335917 99.869091 
L 161.652709 95.476364 
L 162.181818 94.473153 
L 163.96949 91.083636 
L 165.789091 87.633594 
L 166.286279 86.690909 
L 168.603074 82.298182 
L 169.396364 80.794076 
L 170.919868 77.905455 
L 173.003636 73.954584 
L 173.23668 73.512727 
L 175.553459 69.12 
L 173.003636 69.12 
L 169.396364 69.12 
L 165.789091 69.12 
L 162.181818 69.12 
L 158.574545 69.12 
L 154.967273 69.12 
L 151.36 69.12 
L 147.752727 69.12 
L 144.145455 69.12 
L 140.538182 69.12 
L 139.838654 69.12 
L 137.521866 73.512727 
L 136.930909 74.633189 
L 135.205059 77.905455 
L 133.323636 81.472719 
L 132.888272 82.298182 
L 130.571476 86.690909 
L 129.716364 88.312254 
L 128.254689 91.083636 
L 126.109091 95.15173 
L 125.937875 95.476364 
L 123.621104 99.869091 
L 122.501818 101.991303 
L 121.304309 104.261818 
L 118.987474 108.654545 
L 118.894545 108.83074 
L 116.670701 113.047273 
L 115.287273 115.67035 
L 114.353934 117.44 
L 112.037112 121.832727 
L 111.68 122.509823 
L 109.720322 126.225455 
L 108.072727 129.34934 
L 107.403523 130.618182 
L 105.08674 135.010909 
L 104.465455 136.188896 
L 102.769949 139.403636 
L 100.858182 143.028445 
L 100.453173 143.796364 
L 98.136387 148.189091 
L 97.250909 149.867973 
L 95.819591 152.581818 
L 93.643636 156.707529 
L 93.502807 156.974545 
L 91.186001 161.367273 
L 90.036364 163.547017 
L 88.869207 165.76 
L 86.552424 170.152727 
L 86.429091 170.386575 
L 84.235627 174.545455 
L 82.821818 177.226061 
L 81.918823 178.938182 
L 79.602042 183.330909 
L 79.214545 184.065617 
L 77.285248 187.723636 
L 75.607273 190.905139 
L 74.96846 192.116364 
L 72.651677 196.509091 
L 72 197.744704 
L 72 200.901818 
L 72 205.294545 
L 72 209.687273 
L 72 214.08 
L 72 218.472727 
L 72 222.865455 
L 72 227.258182 
L 72 231.650909 
L 72 236.043636 
L 72 240.436364 
L 72 244.829091 
L 72 249.221818 
L 72 253.614545 
L 72 258.007273 
L 72 262.4 
L 72 265.461355 
z
" style="fill:#f7b093;"/>
   </g>
   <g id="PathCollection_7">
    <path clip-path="url(#pa36cd05f51)" d="M 72.651677 196.509091 
L 74.96846 192.116364 
L 75.607273 190.905139 
L 77.285248 187.723636 
L 79.214545 184.065617 
L 79.602042 183.330909 
L 81.918823 178.938182 
L 82.821818 177.226061 
L 84.235627 174.545455 
L 86.429091 170.386575 
L 86.552424 170.152727 
L 88.869207 165.76 
L 90.036364 163.547017 
L 91.186001 161.367273 
L 93.502807 156.974545 
L 93.643636 156.707529 
L 95.819591 152.581818 
L 97.250909 149.867973 
L 98.136387 148.189091 
L 100.453173 143.796364 
L 100.858182 143.028445 
L 102.769949 139.403636 
L 104.465455 136.188896 
L 105.08674 135.010909 
L 107.403523 130.618182 
L 108.072727 129.34934 
L 109.720322 126.225455 
L 111.68 122.509823 
L 112.037112 121.832727 
L 114.353934 117.44 
L 115.287273 115.67035 
L 116.670701 113.047273 
L 118.894545 108.83074 
L 118.987474 108.654545 
L 121.304309 104.261818 
L 122.501818 101.991303 
L 123.621104 99.869091 
L 125.937875 95.476364 
L 126.109091 95.15173 
L 128.254689 91.083636 
L 129.716364 88.312254 
L 130.571476 86.690909 
L 132.888272 82.298182 
L 133.323636 81.472719 
L 135.205059 77.905455 
L 136.930909 74.633189 
L 137.521866 73.512727 
L 139.838654 69.12 
L 136.930909 69.12 
L 133.323636 69.12 
L 129.716364 69.12 
L 126.109091 69.12 
L 122.501818 69.12 
L 118.894545 69.12 
L 115.287273 69.12 
L 111.68 69.12 
L 108.072727 69.12 
L 104.465455 69.12 
L 104.123813 69.12 
L 101.807037 73.512727 
L 100.858182 75.311777 
L 99.490231 77.905455 
L 97.250909 82.151313 
L 97.173448 82.298182 
L 94.856648 86.690909 
L 93.643636 88.990819 
L 92.53986 91.083636 
L 90.223065 95.476364 
L 90.036364 95.830357 
L 87.906282 99.869091 
L 86.429091 102.669913 
L 85.58949 104.261818 
L 83.272667 108.654545 
L 82.821818 109.50938 
L 80.955906 113.047273 
L 79.214545 116.348957 
L 78.639109 117.44 
L 76.322307 121.832727 
L 75.607273 123.188455 
L 74.005523 126.225455 
L 72 130.028001 
L 72 130.618182 
L 72 135.010909 
L 72 139.403636 
L 72 143.796364 
L 72 148.189091 
L 72 152.581818 
L 72 156.974545 
L 72 161.367273 
L 72 165.76 
L 72 170.152727 
L 72 174.545455 
L 72 178.938182 
L 72 183.330909 
L 72 187.723636 
L 72 192.116364 
L 72 196.509091 
L 72 197.744704 
z
" style="fill:#ec7f63;"/>
   </g>
   <g id="PathCollection_8">
    <path clip-path="url(#pa36cd05f51)" d="M 74.005523 126.225455 
L 75.607273 123.188455 
L 76.322307 121.832727 
L 78.639109 117.44 
L 79.214545 116.348957 
L 80.955906 113.047273 
L 82.821818 109.50938 
L 83.272667 108.654545 
L 85.58949 104.261818 
L 86.429091 102.669913 
L 87.906282 99.869091 
L 90.036364 95.830357 
L 90.223065 95.476364 
L 92.53986 91.083636 
L 93.643636 88.990819 
L 94.856648 86.690909 
L 97.173448 82.298182 
L 97.250909 82.151313 
L 99.490231 77.905455 
L 100.858182 75.311777 
L 101.807037 73.512727 
L 104.123813 69.12 
L 100.858182 69.12 
L 97.250909 69.12 
L 93.643636 69.12 
L 90.036364 69.12 
L 86.429091 69.12 
L 82.821818 69.12 
L 79.214545 69.12 
L 75.607273 69.12 
L 72 69.12 
L 72 73.512727 
L 72 77.905455 
L 72 82.298182 
L 72 86.690909 
L 72 91.083636 
L 72 95.476364 
L 72 99.869091 
L 72 104.261818 
L 72 108.654545 
L 72 113.047273 
L 72 117.44 
L 72 121.832727 
L 72 126.225455 
L 72 130.028001 
z
" style="fill:#ca3b37;"/>
   </g>
   <g id="matplotlib.axis_1">
    <g id="xtick_1">
     <g id="line2d_1">
      <defs>
       <path d="M 0 0 
L 0 3.5 
" id="ma450480de5" style="stroke:#000000;stroke-width:0.8;"/>
      </defs>
      <g>
       <use style="stroke:#000000;stroke-width:0.8;" x="107.712" xlink:href="#ma450480de5" y="504"/>
      </g>
     </g>
     <g id="text_1">
      <!-- −4 -->
      <defs>
       <path d="M 10.59375 35.5 
L 73.1875 35.5 
L 73.1875 27.203125 
L 10.59375 27.203125 
z
" id="DejaVuSans-2212"/>
       <path d="M 37.796875 64.3125 
L 12.890625 25.390625 
L 37.796875 25.390625 
z
M 35.203125 72.90625 
L 47.609375 72.90625 
L 47.609375 25.390625 
L 58.015625 25.390625 
L 58.015625 17.1875 
L 47.609375 17.1875 
L 47.609375 0 
L 37.796875 0 
L 37.796875 17.1875 
L 4.890625 17.1875 
L 4.890625 26.703125 
z
" id="DejaVuSans-34"/>
      </defs>
      <g transform="translate(100.340906 518.598438)scale(0.1 -0.1)">
       <use xlink:href="#DejaVuSans-2212"/>
       <use x="83.789062" xlink:href="#DejaVuSans-34"/>
      </g>
     </g>
    </g>
    <g id="xtick_2">
     <g id="line2d_2">
      <g>
       <use style="stroke:#000000;stroke-width:0.8;" x="179.136" xlink:href="#ma450480de5" y="504"/>
      </g>
     </g>
     <g id="text_2">
      <!-- −2 -->
      <defs>
       <path d="M 19.1875 8.296875 
L 53.609375 8.296875 
L 53.609375 0 
L 7.328125 0 
L 7.328125 8.296875 
Q 12.9375 14.109375 22.625 23.890625 
Q 32.328125 33.6875 34.8125 36.53125 
Q 39.546875 41.84375 41.421875 45.53125 
Q 43.3125 49.21875 43.3125 52.78125 
Q 43.3125 58.59375 39.234375 62.25 
Q 35.15625 65.921875 28.609375 65.921875 
Q 23.96875 65.921875 18.8125 64.3125 
Q 13.671875 62.703125 7.8125 59.421875 
L 7.8125 69.390625 
Q 13.765625 71.78125 18.9375 73 
Q 24.125 74.21875 28.421875 74.21875 
Q 39.75 74.21875 46.484375 68.546875 
Q 53.21875 62.890625 53.21875 53.421875 
Q 53.21875 48.921875 51.53125 44.890625 
Q 49.859375 40.875 45.40625 35.40625 
Q 44.1875 33.984375 37.640625 27.21875 
Q 31.109375 20.453125 19.1875 8.296875 
z
" id="DejaVuSans-32"/>
      </defs>
      <g transform="translate(171.764906 518.598438)scale(0.1 -0.1)">
       <use xlink:href="#DejaVuSans-2212"/>
       <use x="83.789062" xlink:href="#DejaVuSans-32"/>
      </g>
     </g>
    </g>
    <g id="xtick_3">
     <g id="line2d_3">
      <g>
       <use style="stroke:#000000;stroke-width:0.8;" x="250.56" xlink:href="#ma450480de5" y="504"/>
      </g>
     </g>
     <g id="text_3">
      <!-- 0 -->
      <defs>
       <path d="M 31.78125 66.40625 
Q 24.171875 66.40625 20.328125 58.90625 
Q 16.5 51.421875 16.5 36.375 
Q 16.5 21.390625 20.328125 13.890625 
Q 24.171875 6.390625 31.78125 6.390625 
Q 39.453125 6.390625 43.28125 13.890625 
Q 47.125 21.390625 47.125 36.375 
Q 47.125 51.421875 43.28125 58.90625 
Q 39.453125 66.40625 31.78125 66.40625 
z
M 31.78125 74.21875 
Q 44.046875 74.21875 50.515625 64.515625 
Q 56.984375 54.828125 56.984375 36.375 
Q 56.984375 17.96875 50.515625 8.265625 
Q 44.046875 -1.421875 31.78125 -1.421875 
Q 19.53125 -1.421875 13.0625 8.265625 
Q 6.59375 17.96875 6.59375 36.375 
Q 6.59375 54.828125 13.0625 64.515625 
Q 19.53125 74.21875 31.78125 74.21875 
z
" id="DejaVuSans-30"/>
      </defs>
      <g transform="translate(247.37875 518.598438)scale(0.1 -0.1)">
       <use xlink:href="#DejaVuSans-30"/>
      </g>
     </g>
    </g>
    <g id="xtick_4">
     <g id="line2d_4">
      <g>
       <use style="stroke:#000000;stroke-width:0.8;" x="321.984" xlink:href="#ma450480de5" y="504"/>
      </g>
     </g>
     <g id="text_4">
      <!-- 2 -->
      <g transform="translate(318.80275 518.598438)scale(0.1 -0.1)">
       <use xlink:href="#DejaVuSans-32"/>
      </g>
     </g>
    </g>
    <g id="xtick_5">
     <g id="line2d_5">
      <g>
       <use style="stroke:#000000;stroke-width:0.8;" x="393.408" xlink:href="#ma450480de5" y="504"/>
      </g>
     </g>
     <g id="text_5">
      <!-- 4 -->
      <g transform="translate(390.22675 518.598438)scale(0.1 -0.1)">
       <use xlink:href="#DejaVuSans-34"/>
      </g>
     </g>
    </g>
   </g>
   <g id="matplotlib.axis_2">
    <g id="ytick_1">
     <g id="line2d_6">
      <defs>
       <path d="M 0 0 
L -3.5 0 
" id="m5d66426f88" style="stroke:#000000;stroke-width:0.8;"/>
      </defs>
      <g>
       <use style="stroke:#000000;stroke-width:0.8;" x="72" xlink:href="#m5d66426f88" y="460.512"/>
      </g>
     </g>
     <g id="text_6">
      <!-- −4 -->
      <g transform="translate(50.257812 464.311219)scale(0.1 -0.1)">
       <use xlink:href="#DejaVuSans-2212"/>
       <use x="83.789062" xlink:href="#DejaVuSans-34"/>
      </g>
     </g>
    </g>
    <g id="ytick_2">
     <g id="line2d_7">
      <g>
       <use style="stroke:#000000;stroke-width:0.8;" x="72" xlink:href="#m5d66426f88" y="373.536"/>
      </g>
     </g>
     <g id="text_7">
      <!-- −2 -->
      <g transform="translate(50.257812 377.335219)scale(0.1 -0.1)">
       <use xlink:href="#DejaVuSans-2212"/>
       <use x="83.789062" xlink:href="#DejaVuSans-32"/>
      </g>
     </g>
    </g>
    <g id="ytick_3">
     <g id="line2d_8">
      <g>
       <use style="stroke:#000000;stroke-width:0.8;" x="72" xlink:href="#m5d66426f88" y="286.56"/>
      </g>
     </g>
     <g id="text_8">
      <!-- 0 -->
      <g transform="translate(58.6375 290.359219)scale(0.1 -0.1)">
       <use xlink:href="#DejaVuSans-30"/>
      </g>
     </g>
    </g>
    <g id="ytick_4">
     <g id="line2d_9">
      <g>
       <use style="stroke:#000000;stroke-width:0.8;" x="72" xlink:href="#m5d66426f88" y="199.584"/>
      </g>
     </g>
     <g id="text_9">
      <!-- 2 -->
      <g transform="translate(58.6375 203.383219)scale(0.1 -0.1)">
       <use xlink:href="#DejaVuSans-32"/>
      </g>
     </g>
    </g>
    <g id="ytick_5">
     <g id="line2d_10">
      <g>
       <use style="stroke:#000000;stroke-width:0.8;" x="72" xlink:href="#m5d66426f88" y="112.608"/>
      </g>
     </g>
     <g id="text_10">
      <!-- 4 -->
      <g transform="translate(58.6375 116.407219)scale(0.1 -0.1)">
       <use xlink:href="#DejaVuSans-34"/>
      </g>
     </g>
    </g>
   </g>
   <g id="patch_3">
    <path d="M 72 504 
L 72 69.12 
" style="fill:none;stroke:#000000;stroke-linecap:square;stroke-linejoin:miter;stroke-width:0.8;"/>
   </g>
   <g id="patch_4">
    <path d="M 429.12 504 
L 429.12 69.12 
" style="fill:none;stroke:#000000;stroke-linecap:square;stroke-linejoin:miter;stroke-width:0.8;"/>
   </g>
   <g id="patch_5">
    <path d="M 72 504 
L 429.12 504 
" style="fill:none;stroke:#000000;stroke-linecap:square;stroke-linejoin:miter;stroke-width:0.8;"/>
   </g>
   <g id="patch_6">
    <path d="M 72 69.12 
L 429.12 69.12 
" style="fill:none;stroke:#000000;stroke-linecap:square;stroke-linejoin:miter;stroke-width:0.8;"/>
   </g>
  </g>
  <g id="axes_2">
   <g id="patch_7">
    <path clip-path="url(#p07bf823291)" d="M 451.44 504 
L 451.44 449.64 
L 451.44 123.48 
L 451.44 69.12 
L 473.184 69.12 
L 473.184 123.48 
L 473.184 449.64 
L 473.184 504 
z
" style="fill:#ffffff;stroke:#ffffff;stroke-linejoin:miter;stroke-width:0.01;"/>
   </g>
   <g id="QuadMesh_1">
    <path clip-path="url(#p07bf823291)" d="M 451.44 504 
L 473.184 504 
L 473.184 449.64 
L 451.44 449.64 
L 451.44 504 
" style="fill:#4e68d8;"/>
    <path clip-path="url(#p07bf823291)" d="M 451.44 449.64 
L 473.184 449.64 
L 473.184 395.28 
L 451.44 395.28 
L 451.44 449.64 
" style="fill:#779af7;"/>
    <path clip-path="url(#p07bf823291)" d="M 451.44 395.28 
L 473.184 395.28 
L 473.184 340.92 
L 451.44 340.92 
L 451.44 395.28 
" style="fill:#a3c2fe;"/>
    <path clip-path="url(#p07bf823291)" d="M 451.44 340.92 
L 473.184 340.92 
L 473.184 286.56 
L 451.44 286.56 
L 451.44 340.92 
" style="fill:#ccd9ed;"/>
    <path clip-path="url(#p07bf823291)" d="M 451.44 286.56 
L 473.184 286.56 
L 473.184 232.2 
L 451.44 232.2 
L 451.44 286.56 
" style="fill:#ecd3c5;"/>
    <path clip-path="url(#p07bf823291)" d="M 451.44 232.2 
L 473.184 232.2 
L 473.184 177.84 
L 451.44 177.84 
L 451.44 232.2 
" style="fill:#f7b093;"/>
    <path clip-path="url(#p07bf823291)" d="M 451.44 177.84 
L 473.184 177.84 
L 473.184 123.48 
L 451.44 123.48 
L 451.44 177.84 
" style="fill:#ec7f63;"/>
    <path clip-path="url(#p07bf823291)" d="M 451.44 123.48 
L 473.184 123.48 
L 473.184 69.12 
L 451.44 69.12 
L 451.44 123.48 
" style="fill:#ca3b37;"/>
   </g>
   <g id="matplotlib.axis_3"/>
   <g id="matplotlib.axis_4">
    <g id="ytick_6">
     <g id="line2d_11">
      <defs>
       <path d="M 0 0 
L 3.5 0 
" id="m3ebd7bda62" style="stroke:#000000;stroke-width:0.8;"/>
      </defs>
      <g>
       <use style="stroke:#000000;stroke-width:0.8;" x="473.184" xlink:href="#m3ebd7bda62" y="504"/>
      </g>
     </g>
     <g id="text_11">
      <!-- −0.06 -->
      <defs>
       <path d="M 10.6875 12.40625 
L 21 12.40625 
L 21 0 
L 10.6875 0 
z
" id="DejaVuSans-2e"/>
       <path d="M 33.015625 40.375 
Q 26.375 40.375 22.484375 35.828125 
Q 18.609375 31.296875 18.609375 23.390625 
Q 18.609375 15.53125 22.484375 10.953125 
Q 26.375 6.390625 33.015625 6.390625 
Q 39.65625 6.390625 43.53125 10.953125 
Q 47.40625 15.53125 47.40625 23.390625 
Q 47.40625 31.296875 43.53125 35.828125 
Q 39.65625 40.375 33.015625 40.375 
z
M 52.59375 71.296875 
L 52.59375 62.3125 
Q 48.875 64.0625 45.09375 64.984375 
Q 41.3125 65.921875 37.59375 65.921875 
Q 27.828125 65.921875 22.671875 59.328125 
Q 17.53125 52.734375 16.796875 39.40625 
Q 19.671875 43.65625 24.015625 45.921875 
Q 28.375 48.1875 33.59375 48.1875 
Q 44.578125 48.1875 50.953125 41.515625 
Q 57.328125 34.859375 57.328125 23.390625 
Q 57.328125 12.15625 50.6875 5.359375 
Q 44.046875 -1.421875 33.015625 -1.421875 
Q 20.359375 -1.421875 13.671875 8.265625 
Q 6.984375 17.96875 6.984375 36.375 
Q 6.984375 53.65625 15.1875 63.9375 
Q 23.390625 74.21875 37.203125 74.21875 
Q 40.921875 74.21875 44.703125 73.484375 
Q 48.484375 72.75 52.59375 71.296875 
z
" id="DejaVuSans-36"/>
      </defs>
      <g transform="translate(480.184 507.799219)scale(0.1 -0.1)">
       <use xlink:href="#DejaVuSans-2212"/>
       <use x="83.789062" xlink:href="#DejaVuSans-30"/>
       <use x="147.412109" xlink:href="#DejaVuSans-2e"/>
       <use x="179.199219" xlink:href="#DejaVuSans-30"/>
       <use x="242.822266" xlink:href="#DejaVuSans-36"/>
      </g>
     </g>
    </g>
    <g id="ytick_7">
     <g id="line2d_12">
      <g>
       <use style="stroke:#000000;stroke-width:0.8;" x="473.184" xlink:href="#m3ebd7bda62" y="449.64"/>
      </g>
     </g>
     <g id="text_12">
      <!-- 0.00 -->
      <g transform="translate(480.184 453.439219)scale(0.1 -0.1)">
       <use xlink:href="#DejaVuSans-30"/>
       <use x="63.623047" xlink:href="#DejaVuSans-2e"/>
       <use x="95.410156" xlink:href="#DejaVuSans-30"/>
       <use x="159.033203" xlink:href="#DejaVuSans-30"/>
      </g>
     </g>
    </g>
    <g id="ytick_8">
     <g id="line2d_13">
      <g>
       <use style="stroke:#000000;stroke-width:0.8;" x="473.184" xlink:href="#m3ebd7bda62" y="395.28"/>
      </g>
     </g>
     <g id="text_13">
      <!-- 0.06 -->
      <g transform="translate(480.184 399.079219)scale(0.1 -0.1)">
       <use xlink:href="#DejaVuSans-30"/>
       <use x="63.623047" xlink:href="#DejaVuSans-2e"/>
       <use x="95.410156" xlink:href="#DejaVuSans-30"/>
       <use x="159.033203" xlink:href="#DejaVuSans-36"/>
      </g>
     </g>
    </g>
    <g id="ytick_9">
     <g id="line2d_14">
      <g>
       <use style="stroke:#000000;stroke-width:0.8;" x="473.184" xlink:href="#m3ebd7bda62" y="340.92"/>
      </g>
     </g>
     <g id="text_14">
      <!-- 0.12 -->
      <defs>
       <path d="M 12.40625 8.296875 
L 28.515625 8.296875 
L 28.515625 63.921875 
L 10.984375 60.40625 
L 10.984375 69.390625 
L 28.421875 72.90625 
L 38.28125 72.90625 
L 38.28125 8.296875 
L 54.390625 8.296875 
L 54.390625 0 
L 12.40625 0 
z
" id="DejaVuSans-31"/>
      </defs>
      <g transform="translate(480.184 344.719219)scale(0.1 -0.1)">
       <use xlink:href="#DejaVuSans-30"/>
       <use x="63.623047" xlink:href="#DejaVuSans-2e"/>
       <use x="95.410156" xlink:href="#DejaVuSans-31"/>
       <use x="159.033203" xlink:href="#DejaVuSans-32"/>
      </g>
     </g>
    </g>
    <g id="ytick_10">
     <g id="line2d_15">
      <g>
       <use style="stroke:#000000;stroke-width:0.8;" x="473.184" xlink:href="#m3ebd7bda62" y="286.56"/>
      </g>
     </g>
     <g id="text_15">
      <!-- 0.18 -->
      <defs>
       <path d="M 31.78125 34.625 
Q 24.75 34.625 20.71875 30.859375 
Q 16.703125 27.09375 16.703125 20.515625 
Q 16.703125 13.921875 20.71875 10.15625 
Q 24.75 6.390625 31.78125 6.390625 
Q 38.8125 6.390625 42.859375 10.171875 
Q 46.921875 13.96875 46.921875 20.515625 
Q 46.921875 27.09375 42.890625 30.859375 
Q 38.875 34.625 31.78125 34.625 
z
M 21.921875 38.8125 
Q 15.578125 40.375 12.03125 44.71875 
Q 8.5 49.078125 8.5 55.328125 
Q 8.5 64.0625 14.71875 69.140625 
Q 20.953125 74.21875 31.78125 74.21875 
Q 42.671875 74.21875 48.875 69.140625 
Q 55.078125 64.0625 55.078125 55.328125 
Q 55.078125 49.078125 51.53125 44.71875 
Q 48 40.375 41.703125 38.8125 
Q 48.828125 37.15625 52.796875 32.3125 
Q 56.78125 27.484375 56.78125 20.515625 
Q 56.78125 9.90625 50.3125 4.234375 
Q 43.84375 -1.421875 31.78125 -1.421875 
Q 19.734375 -1.421875 13.25 4.234375 
Q 6.78125 9.90625 6.78125 20.515625 
Q 6.78125 27.484375 10.78125 32.3125 
Q 14.796875 37.15625 21.921875 38.8125 
z
M 18.3125 54.390625 
Q 18.3125 48.734375 21.84375 45.5625 
Q 25.390625 42.390625 31.78125 42.390625 
Q 38.140625 42.390625 41.71875 45.5625 
Q 45.3125 48.734375 45.3125 54.390625 
Q 45.3125 60.0625 41.71875 63.234375 
Q 38.140625 66.40625 31.78125 66.40625 
Q 25.390625 66.40625 21.84375 63.234375 
Q 18.3125 60.0625 18.3125 54.390625 
z
" id="DejaVuSans-38"/>
      </defs>
      <g transform="translate(480.184 290.359219)scale(0.1 -0.1)">
       <use xlink:href="#DejaVuSans-30"/>
       <use x="63.623047" xlink:href="#DejaVuSans-2e"/>
       <use x="95.410156" xlink:href="#DejaVuSans-31"/>
       <use x="159.033203" xlink:href="#DejaVuSans-38"/>
      </g>
     </g>
    </g>
    <g id="ytick_11">
     <g id="line2d_16">
      <g>
       <use style="stroke:#000000;stroke-width:0.8;" x="473.184" xlink:href="#m3ebd7bda62" y="232.2"/>
      </g>
     </g>
     <g id="text_16">
      <!-- 0.24 -->
      <g transform="translate(480.184 235.999219)scale(0.1 -0.1)">
       <use xlink:href="#DejaVuSans-30"/>
       <use x="63.623047" xlink:href="#DejaVuSans-2e"/>
       <use x="95.410156" xlink:href="#DejaVuSans-32"/>
       <use x="159.033203" xlink:href="#DejaVuSans-34"/>
      </g>
     </g>
    </g>
    <g id="ytick_12">
     <g id="line2d_17">
      <g>
       <use style="stroke:#000000;stroke-width:0.8;" x="473.184" xlink:href="#m3ebd7bda62" y="177.84"/>
      </g>
     </g>
     <g id="text_17">
      <!-- 0.30 -->
      <defs>
       <path d="M 40.578125 39.3125 
Q 47.65625 37.796875 51.625 33 
Q 55.609375 28.21875 55.609375 21.1875 
Q 55.609375 10.40625 48.1875 4.484375 
Q 40.765625 -1.421875 27.09375 -1.421875 
Q 22.515625 -1.421875 17.65625 -0.515625 
Q 12.796875 0.390625 7.625 2.203125 
L 7.625 11.71875 
Q 11.71875 9.328125 16.59375 8.109375 
Q 21.484375 6.890625 26.8125 6.890625 
Q 36.078125 6.890625 40.9375 10.546875 
Q 45.796875 14.203125 45.796875 21.1875 
Q 45.796875 27.640625 41.28125 31.265625 
Q 36.765625 34.90625 28.71875 34.90625 
L 20.21875 34.90625 
L 20.21875 43.015625 
L 29.109375 43.015625 
Q 36.375 43.015625 40.234375 45.921875 
Q 44.09375 48.828125 44.09375 54.296875 
Q 44.09375 59.90625 40.109375 62.90625 
Q 36.140625 65.921875 28.71875 65.921875 
Q 24.65625 65.921875 20.015625 65.03125 
Q 15.375 64.15625 9.8125 62.3125 
L 9.8125 71.09375 
Q 15.4375 72.65625 20.34375 73.4375 
Q 25.25 74.21875 29.59375 74.21875 
Q 40.828125 74.21875 47.359375 69.109375 
Q 53.90625 64.015625 53.90625 55.328125 
Q 53.90625 49.265625 50.4375 45.09375 
Q 46.96875 40.921875 40.578125 39.3125 
z
" id="DejaVuSans-33"/>
      </defs>
      <g transform="translate(480.184 181.639219)scale(0.1 -0.1)">
       <use xlink:href="#DejaVuSans-30"/>
       <use x="63.623047" xlink:href="#DejaVuSans-2e"/>
       <use x="95.410156" xlink:href="#DejaVuSans-33"/>
       <use x="159.033203" xlink:href="#DejaVuSans-30"/>
      </g>
     </g>
    </g>
    <g id="ytick_13">
     <g id="line2d_18">
      <g>
       <use style="stroke:#000000;stroke-width:0.8;" x="473.184" xlink:href="#m3ebd7bda62" y="123.48"/>
      </g>
     </g>
     <g id="text_18">
      <!-- 0.36 -->
      <g transform="translate(480.184 127.279219)scale(0.1 -0.1)">
       <use xlink:href="#DejaVuSans-30"/>
       <use x="63.623047" xlink:href="#DejaVuSans-2e"/>
       <use x="95.410156" xlink:href="#DejaVuSans-33"/>
       <use x="159.033203" xlink:href="#DejaVuSans-36"/>
      </g>
     </g>
    </g>
    <g id="ytick_14">
     <g id="line2d_19">
      <g>
       <use style="stroke:#000000;stroke-width:0.8;" x="473.184" xlink:href="#m3ebd7bda62" y="69.12"/>
      </g>
     </g>
     <g id="text_19">
      <!-- 0.42 -->
      <g transform="translate(480.184 72.919219)scale(0.1 -0.1)">
       <use xlink:href="#DejaVuSans-30"/>
       <use x="63.623047" xlink:href="#DejaVuSans-2e"/>
       <use x="95.410156" xlink:href="#DejaVuSans-34"/>
       <use x="159.033203" xlink:href="#DejaVuSans-32"/>
      </g>
     </g>
    </g>
   </g>
   <g id="patch_8">
    <path d="M 451.44 504 
L 451.44 449.64 
L 451.44 123.48 
L 451.44 69.12 
L 473.184 69.12 
L 473.184 123.48 
L 473.184 449.64 
L 473.184 504 
z
" style="fill:none;stroke:#000000;stroke-linejoin:miter;stroke-width:0.8;"/>
   </g>
  </g>
 </g>
 <defs>
  <clipPath id="pa36cd05f51">
   <rect height="434.88" width="357.12" x="72" y="69.12"/>
  </clipPath>
  <clipPath id="p07bf823291">
   <rect height="434.88" width="21.744" x="451.44" y="69.12"/>
  </clipPath>
 </defs>
</svg>
