<?xml version="1.0" encoding="utf-8" standalone="no"?>
<!DOCTYPE svg PUBLIC "-//W3C//DTD SVG 1.1//EN"
  "http://www.w3.org/Graphics/SVG/1.1/DTD/svg11.dtd">
<!-- Created with matplotlib (http://matplotlib.org/) -->
<svg height="576pt" version="1.1" viewBox="0 0 576 576" width="576pt" xmlns="http://www.w3.org/2000/svg" xmlns:xlink="http://www.w3.org/1999/xlink">
 <defs>
  <style type="text/css">
*{stroke-linecap:butt;stroke-linejoin:round;}
  </style>
 </defs>
 <g id="figure_1">
  <g id="patch_1">
   <path d="M 0 576 
L 576 576 
L 576 0 
L 0 0 
z
" style="fill:#ffffff;"/>
  </g>
  <g id="axes_1">
   <g id="patch_2">
    <path d="M 72 504 
L 429.12 504 
L 429.12 69.12 
L 72 69.12 
z
" style="fill:#ffffff;"/>
   </g>
   <g id="PathCollection_1">
    <path clip-path="url(#p2e06efe374)" d="M 429.12 83.066652 
L 429.12 82.298182 
L 429.12 77.905455 
L 429.12 73.512727 
L 429.12 69.12 
L 425.512727 69.12 
L 424.973798 69.12 
L 425.512727 70.932781 
L 426.279722 73.512727 
L 427.585649 77.905455 
L 428.891537 82.298182 
z
" style="fill:#4b64d5;"/>
   </g>
   <g id="PathCollection_2">
    <path clip-path="url(#p2e06efe374)" d="M 429.12 196.722886 
L 429.12 196.509091 
L 429.12 192.116364 
L 429.12 187.723636 
L 429.12 183.330909 
L 429.12 178.938182 
L 429.12 174.545455 
L 429.12 170.152727 
L 429.12 165.76 
L 429.12 161.367273 
L 429.12 156.974545 
L 429.12 152.581818 
L 429.12 148.189091 
L 429.12 143.796364 
L 429.12 139.403636 
L 429.12 135.010909 
L 429.12 130.618182 
L 429.12 126.225455 
L 429.12 121.832727 
L 429.12 117.44 
L 429.12 113.047273 
L 429.12 108.654545 
L 429.12 104.261818 
L 429.12 99.869091 
L 429.12 95.476364 
L 429.12 91.083636 
L 429.12 86.690909 
L 429.12 83.066652 
L 428.891537 82.298182 
L 427.585649 77.905455 
L 426.279722 73.512727 
L 425.512727 70.932781 
L 424.973798 69.12 
L 421.905455 69.12 
L 418.298182 69.12 
L 414.690909 69.12 
L 411.083636 69.12 
L 407.476364 69.12 
L 403.869091 69.12 
L 400.261818 69.12 
L 396.654545 69.12 
L 393.047273 69.12 
L 392.043452 69.12 
L 393.047273 73.010458 
L 393.176869 73.512727 
L 394.310255 77.905455 
L 395.443649 82.298182 
L 396.577065 86.690909 
L 396.654545 86.991205 
L 397.835904 91.083636 
L 399.087483 95.476364 
L 400.261818 99.652653 
L 400.326163 99.869091 
L 401.632096 104.261818 
L 402.937998 108.654545 
L 403.869091 111.78642 
L 404.243939 113.047273 
L 405.549853 117.44 
L 406.855773 121.832727 
L 407.476364 123.920214 
L 408.161695 126.225455 
L 409.467631 130.618182 
L 410.773562 135.010909 
L 411.083636 136.05389 
L 412.079486 139.403636 
L 413.385396 143.796364 
L 414.690909 148.187773 
L 414.691301 148.189091 
L 415.997234 152.581818 
L 417.303182 156.974545 
L 418.298182 160.321432 
L 418.609096 161.367273 
L 419.915014 165.76 
L 421.220932 170.152727 
L 421.905455 172.455298 
L 422.526836 174.545455 
L 423.832768 178.938182 
L 425.138702 183.330909 
L 425.512727 184.589006 
L 426.444624 187.723636 
L 427.750542 192.116364 
L 429.05644 196.509091 
z
" style="fill:#6f92f3;"/>
   </g>
   <g id="PathCollection_3">
    <path clip-path="url(#p2e06efe374)" d="M 393.047273 504 
L 396.654545 504 
L 400.261818 504 
L 403.869091 504 
L 407.476364 504 
L 411.083636 504 
L 414.690909 504 
L 418.298182 504 
L 421.905455 504 
L 425.512727 504 
L 429.12 504 
L 429.12 499.607273 
L 429.12 495.214545 
L 429.12 490.821818 
L 429.12 486.429091 
L 429.12 482.036364 
L 429.12 477.643636 
L 429.12 473.250909 
L 429.12 468.858182 
L 429.12 464.465455 
L 429.12 460.072727 
L 429.12 455.68 
L 429.12 451.287273 
L 429.12 446.894545 
L 429.12 442.501818 
L 429.12 438.109091 
L 429.12 433.716364 
L 429.12 429.323636 
L 429.12 426.803076 
L 427.920407 429.323636 
L 425.829777 433.716364 
L 425.512727 434.382533 
L 423.73914 438.109091 
L 421.905455 441.96195 
L 421.648515 442.501818 
L 419.557863 446.894545 
L 418.298182 449.541332 
L 417.467239 451.287273 
L 415.376613 455.68 
L 414.690909 457.120776 
L 413.28598 460.072727 
L 411.195366 464.465455 
L 411.083636 464.700217 
L 409.104707 468.858182 
L 407.476364 472.279547 
L 407.014065 473.250909 
L 404.923438 477.643636 
L 403.869091 479.858984 
L 402.832814 482.036364 
L 400.742161 486.429091 
L 400.261818 487.438374 
L 398.651559 490.821818 
L 396.654545 495.017872 
L 396.560942 495.214545 
L 394.470269 499.607273 
L 393.047273 502.597202 
L 392.379637 504 
z
" style="fill:#97b8ff;"/>
    <path clip-path="url(#p2e06efe374)" d="M 429.12 310.379078 
L 429.12 306.327273 
L 429.12 301.934545 
L 429.12 297.541818 
L 429.12 293.149091 
L 429.12 288.756364 
L 429.12 284.363636 
L 429.12 279.970909 
L 429.12 275.578182 
L 429.12 271.185455 
L 429.12 266.792727 
L 429.12 262.4 
L 429.12 258.007273 
L 429.12 253.614545 
L 429.12 249.221818 
L 429.12 244.829091 
L 429.12 240.436364 
L 429.12 236.043636 
L 429.12 231.650909 
L 429.12 227.258182 
L 429.12 222.865455 
L 429.12 218.472727 
L 429.12 214.08 
L 429.12 209.687273 
L 429.12 205.294545 
L 429.12 200.901818 
L 429.12 196.722886 
L 429.05644 196.509091 
L 427.750542 192.116364 
L 426.444624 187.723636 
L 425.512727 184.589006 
L 425.138702 183.330909 
L 423.832768 178.938182 
L 422.526836 174.545455 
L 421.905455 172.455298 
L 421.220932 170.152727 
L 419.915014 165.76 
L 418.609096 161.367273 
L 418.298182 160.321432 
L 417.303182 156.974545 
L 415.997234 152.581818 
L 414.691301 148.189091 
L 414.690909 148.187773 
L 413.385396 143.796364 
L 412.079486 139.403636 
L 411.083636 136.05389 
L 410.773562 135.010909 
L 409.467631 130.618182 
L 408.161695 126.225455 
L 407.476364 123.920214 
L 406.855773 121.832727 
L 405.549853 117.44 
L 404.243939 113.047273 
L 403.869091 111.78642 
L 402.937998 108.654545 
L 401.632096 104.261818 
L 400.326163 99.869091 
L 400.261818 99.652653 
L 399.087483 95.476364 
L 397.835904 91.083636 
L 396.654545 86.991205 
L 396.577065 86.690909 
L 395.443649 82.298182 
L 394.310255 77.905455 
L 393.176869 73.512727 
L 393.047273 73.010458 
L 392.043452 69.12 
L 389.44 69.12 
L 385.832727 69.12 
L 382.225455 69.12 
L 378.618182 69.12 
L 375.010909 69.12 
L 371.403636 69.12 
L 367.796364 69.12 
L 364.189091 69.12 
L 360.581818 69.12 
L 356.974545 69.12 
L 353.367273 69.12 
L 349.76 69.12 
L 346.152727 69.12 
L 342.545455 69.12 
L 338.938182 69.12 
L 336.971817 69.12 
L 338.938182 70.229434 
L 342.545455 72.264641 
L 344.757559 73.512727 
L 346.152727 74.299901 
L 349.76 76.335147 
L 352.543166 77.905455 
L 353.367273 78.255848 
L 356.974545 78.288053 
L 358.629397 77.905455 
L 360.581818 77.454061 
L 364.189091 76.620077 
L 365.44522 77.905455 
L 366.684303 82.298182 
L 367.796364 86.608217 
L 367.8177 86.690909 
L 368.951102 91.083636 
L 370.084509 95.476364 
L 371.217905 99.869091 
L 371.403636 100.588921 
L 372.351317 104.261818 
L 373.484713 108.654545 
L 374.618111 113.047273 
L 375.010909 114.569683 
L 375.751483 117.44 
L 376.884904 121.832727 
L 378.018301 126.225455 
L 378.618182 128.550414 
L 379.151702 130.618182 
L 380.285127 135.010909 
L 381.418491 139.403636 
L 382.225455 142.531288 
L 382.551863 143.796364 
L 383.685273 148.189091 
L 384.818678 152.581818 
L 385.832727 156.511938 
L 385.95209 156.974545 
L 387.085477 161.367273 
L 388.218893 165.76 
L 389.352286 170.152727 
L 389.44 170.492691 
L 390.48566 174.545455 
L 391.619094 178.938182 
L 392.752475 183.330909 
L 393.047273 184.473447 
L 393.885888 187.723636 
L 395.019283 192.116364 
L 396.152682 196.509091 
L 396.654545 198.45421 
L 397.286059 200.901818 
L 398.419451 205.294545 
L 399.552862 209.687273 
L 400.261818 212.43504 
L 400.725815 214.08 
L 401.953703 218.472727 
L 403.165501 222.865455 
L 403.869091 225.442571 
L 404.408858 227.258182 
L 405.714762 231.650909 
L 407.020675 236.043636 
L 407.476364 237.57644 
L 408.326598 240.436364 
L 409.63254 244.829091 
L 410.938469 249.221818 
L 411.083636 249.710115 
L 412.244388 253.614545 
L 413.550303 258.007273 
L 414.690909 261.843929 
L 414.856225 262.4 
L 416.16215 266.792727 
L 417.468073 271.185455 
L 418.298182 273.977673 
L 418.773998 275.578182 
L 420.079916 279.970909 
L 421.385833 284.363636 
L 421.905455 286.111473 
L 422.691767 288.756364 
L 423.997688 293.149091 
L 425.303608 297.541818 
L 425.512727 298.245232 
L 426.609533 301.934545 
L 427.915445 306.327273 
z
" style="fill:#97b8ff;"/>
   </g>
   <g id="PathCollection_4">
    <path clip-path="url(#p2e06efe374)" d="M 346.152727 504 
L 349.76 504 
L 353.367273 504 
L 356.974545 504 
L 360.581818 504 
L 364.189091 504 
L 367.796364 504 
L 371.403636 504 
L 375.010909 504 
L 378.618182 504 
L 382.225455 504 
L 385.832727 504 
L 389.44 504 
L 392.379637 504 
L 393.047273 502.597202 
L 394.470269 499.607273 
L 396.560942 495.214545 
L 396.654545 495.017872 
L 398.651559 490.821818 
L 400.261818 487.438374 
L 400.742161 486.429091 
L 402.832814 482.036364 
L 403.869091 479.858984 
L 404.923438 477.643636 
L 407.014065 473.250909 
L 407.476364 472.279547 
L 409.104707 468.858182 
L 411.083636 464.700217 
L 411.195366 464.465455 
L 413.28598 460.072727 
L 414.690909 457.120776 
L 415.376613 455.68 
L 417.467239 451.287273 
L 418.298182 449.541332 
L 419.557863 446.894545 
L 421.648515 442.501818 
L 421.905455 441.96195 
L 423.73914 438.109091 
L 425.512727 434.382533 
L 425.829777 433.716364 
L 427.920407 429.323636 
L 429.12 426.803076 
L 429.12 424.930909 
L 429.12 420.538182 
L 429.12 416.145455 
L 429.12 411.752727 
L 429.12 407.36 
L 429.12 402.967273 
L 429.12 398.574545 
L 429.12 394.181818 
L 429.12 389.789091 
L 429.12 385.396364 
L 429.12 381.003636 
L 429.12 376.610909 
L 429.12 372.218182 
L 429.12 367.825455 
L 429.12 363.432727 
L 429.12 359.04 
L 429.12 354.647273 
L 429.12 350.254545 
L 429.12 345.861818 
L 429.12 341.469091 
L 429.12 337.076364 
L 429.12 332.683636 
L 429.12 328.290909 
L 429.12 323.898182 
L 429.12 319.505455 
L 429.12 315.112727 
L 429.12 310.72 
L 429.12 310.379078 
L 427.915445 306.327273 
L 426.609533 301.934545 
L 425.512727 298.245232 
L 425.303608 297.541818 
L 423.997688 293.149091 
L 422.691767 288.756364 
L 421.905455 286.111473 
L 421.385833 284.363636 
L 420.079916 279.970909 
L 418.773998 275.578182 
L 418.298182 273.977673 
L 417.468073 271.185455 
L 416.16215 266.792727 
L 414.856225 262.4 
L 414.690909 261.843929 
L 413.550303 258.007273 
L 412.244388 253.614545 
L 411.083636 249.710115 
L 410.938469 249.221818 
L 409.63254 244.829091 
L 408.326598 240.436364 
L 407.476364 237.57644 
L 407.020675 236.043636 
L 405.714762 231.650909 
L 404.408858 227.258182 
L 403.869091 225.442571 
L 403.165501 222.865455 
L 401.953703 218.472727 
L 400.725815 214.08 
L 400.261818 212.43504 
L 399.552862 209.687273 
L 398.419451 205.294545 
L 397.286059 200.901818 
L 396.654545 198.45421 
L 396.152682 196.509091 
L 395.019283 192.116364 
L 393.885888 187.723636 
L 393.047273 184.473447 
L 392.752475 183.330909 
L 391.619094 178.938182 
L 390.48566 174.545455 
L 389.44 170.492691 
L 389.352286 170.152727 
L 388.218893 165.76 
L 387.085477 161.367273 
L 385.95209 156.974545 
L 385.832727 156.511938 
L 384.818678 152.581818 
L 383.685273 148.189091 
L 382.551863 143.796364 
L 382.225455 142.531288 
L 381.418491 139.403636 
L 380.285127 135.010909 
L 379.151702 130.618182 
L 378.618182 128.550414 
L 378.018301 126.225455 
L 376.884904 121.832727 
L 375.751483 117.44 
L 375.010909 114.569683 
L 374.618111 113.047273 
L 373.484713 108.654545 
L 372.351317 104.261818 
L 371.403636 100.588921 
L 371.217905 99.869091 
L 370.084509 95.476364 
L 368.951102 91.083636 
L 367.8177 86.690909 
L 367.796364 86.608217 
L 366.684303 82.298182 
L 365.44522 77.905455 
L 364.189091 76.620077 
L 360.581818 77.454061 
L 358.629397 77.905455 
L 356.974545 78.288053 
L 353.367273 78.255848 
L 352.543166 77.905455 
L 349.76 76.335147 
L 346.152727 74.299901 
L 344.757559 73.512727 
L 342.545455 72.264641 
L 338.938182 70.229434 
L 336.971817 69.12 
L 335.330909 69.12 
L 331.723636 69.12 
L 328.116364 69.12 
L 324.509091 69.12 
L 320.901818 69.12 
L 317.294545 69.12 
L 313.687273 69.12 
L 310.08 69.12 
L 306.472727 69.12 
L 302.865455 69.12 
L 299.258182 69.12 
L 295.650909 69.12 
L 292.043636 69.12 
L 288.436364 69.12 
L 284.829091 69.12 
L 281.221818 69.12 
L 277.614545 69.12 
L 274.007273 69.12 
L 270.4 69.12 
L 266.792727 69.12 
L 263.185455 69.12 
L 259.578182 69.12 
L 255.970909 69.12 
L 252.363636 69.12 
L 248.756364 69.12 
L 245.149091 69.12 
L 244.732935 69.12 
L 245.149091 69.354797 
L 248.756364 71.390055 
L 252.363636 73.425282 
L 252.518626 73.512727 
L 255.970909 75.460522 
L 259.578182 77.495795 
L 260.304264 77.905455 
L 263.185455 79.531031 
L 266.792727 81.566296 
L 268.08994 82.298182 
L 270.4 83.601514 
L 274.007273 85.63678 
L 275.87561 86.690909 
L 277.614545 87.672033 
L 281.221818 89.707279 
L 283.66129 91.083636 
L 284.829091 91.742518 
L 288.436364 93.777763 
L 291.446914 95.476364 
L 292.043636 95.813044 
L 295.650909 97.848262 
L 299.232595 99.869091 
L 299.258182 99.883528 
L 302.865455 101.91877 
L 306.472727 103.954026 
L 307.01826 104.261818 
L 310.08 105.989255 
L 313.687273 108.024513 
L 314.803937 108.654545 
L 317.294545 110.059771 
L 320.901818 112.094994 
L 322.589648 113.047273 
L 324.509091 114.130236 
L 328.116364 115.356364 
L 331.723636 114.93998 
L 335.330909 114.105992 
L 338.938182 113.271986 
L 339.910176 113.047273 
L 342.545455 112.438038 
L 344.923496 113.047273 
L 346.152727 114.186471 
L 346.992165 117.44 
L 348.125595 121.832727 
L 349.258975 126.225455 
L 349.76 128.167248 
L 350.392388 130.618182 
L 351.525787 135.010909 
L 352.659173 139.403636 
L 353.367273 142.148028 
L 353.792568 143.796364 
L 354.925978 148.189091 
L 356.059371 152.581818 
L 356.974545 156.128771 
L 357.192768 156.974545 
L 358.326162 161.367273 
L 359.459572 165.76 
L 360.581818 170.109527 
L 360.592964 170.152727 
L 361.72637 174.545455 
L 362.85978 178.938182 
L 363.993179 183.330909 
L 364.189091 184.090209 
L 365.126568 187.723636 
L 366.259954 192.116364 
L 367.393335 196.509091 
L 367.796364 198.071129 
L 368.526734 200.901818 
L 369.660129 205.294545 
L 370.793548 209.687273 
L 371.403636 212.051776 
L 371.926952 214.08 
L 373.060347 218.472727 
L 374.193742 222.865455 
L 375.010909 226.032535 
L 375.32715 227.258182 
L 376.460534 231.650909 
L 377.593929 236.043636 
L 378.618182 240.013282 
L 378.727346 240.436364 
L 379.860736 244.829091 
L 380.994129 249.221818 
L 382.127525 253.614545 
L 382.225455 253.994093 
L 383.260924 258.007273 
L 384.394322 262.4 
L 385.527707 266.792727 
L 385.832727 267.974911 
L 386.661106 271.185455 
L 387.794511 275.578182 
L 388.927918 279.970909 
L 389.44 281.955562 
L 390.061331 284.363636 
L 391.194715 288.756364 
L 392.328123 293.149091 
L 393.047273 295.93633 
L 393.461512 297.541818 
L 394.594912 301.934545 
L 395.728311 306.327273 
L 396.654545 309.91712 
L 396.861699 310.72 
L 397.995107 315.112727 
L 399.128489 319.505455 
L 400.261818 323.897978 
L 400.261871 323.898182 
L 401.395275 328.290909 
L 402.528683 332.683636 
L 403.6621 337.076364 
L 403.869091 337.878591 
L 404.852865 341.469091 
L 406.042443 345.861818 
L 407.216896 350.254545 
L 407.476364 351.232595 
L 408.491528 354.647273 
L 409.797454 359.04 
L 411.083636 363.366339 
L 411.103373 363.432727 
L 411.083636 363.497294 
L 409.204819 367.825455 
L 407.476364 371.457159 
L 407.114168 372.218182 
L 405.023542 376.610909 
L 403.869091 379.036592 
L 402.932919 381.003636 
L 400.842268 385.396364 
L 400.261818 386.615974 
L 398.751654 389.789091 
L 396.661047 394.181818 
L 396.654545 394.195479 
L 394.570394 398.574545 
L 393.047273 401.774862 
L 392.479768 402.967273 
L 390.389121 407.36 
L 389.44 409.354244 
L 388.298494 411.752727 
L 386.207844 416.145455 
L 385.832727 416.933626 
L 384.117217 420.538182 
L 382.225455 424.51307 
L 382.026593 424.930909 
L 379.935969 429.323636 
L 378.618182 432.092475 
L 377.845319 433.716364 
L 375.754692 438.109091 
L 375.010909 439.671896 
L 373.664069 442.501818 
L 371.573444 446.894545 
L 371.403636 447.25134 
L 369.48279 451.287273 
L 367.796364 454.83066 
L 367.392142 455.68 
L 365.301525 460.072727 
L 364.189091 462.410118 
L 363.210899 464.465455 
L 361.120267 468.858182 
L 360.581818 469.989548 
L 359.029631 473.250909 
L 356.974545 477.568869 
L 356.938962 477.643636 
L 354.848361 482.036364 
L 353.367273 485.148374 
L 352.757743 486.429091 
L 350.66709 490.821818 
L 349.76 492.727756 
L 348.576466 495.214545 
L 346.48584 499.607273 
L 346.152727 500.307195 
L 344.395197 504 
z
" style="fill:#bcd2f7;"/>
   </g>
   <g id="PathCollection_5">
    <path clip-path="url(#p2e06efe374)" d="M 299.258182 504 
L 302.865455 504 
L 306.472727 504 
L 310.08 504 
L 313.687273 504 
L 317.294545 504 
L 320.901818 504 
L 324.509091 504 
L 328.116364 504 
L 331.723636 504 
L 335.330909 504 
L 338.938182 504 
L 342.545455 504 
L 344.395197 504 
L 346.152727 500.307195 
L 346.48584 499.607273 
L 348.576466 495.214545 
L 349.76 492.727756 
L 350.66709 490.821818 
L 352.757743 486.429091 
L 353.367273 485.148374 
L 354.848361 482.036364 
L 356.938962 477.643636 
L 356.974545 477.568869 
L 359.029631 473.250909 
L 360.581818 469.989548 
L 361.120267 468.858182 
L 363.210899 464.465455 
L 364.189091 462.410118 
L 365.301525 460.072727 
L 367.392142 455.68 
L 367.796364 454.83066 
L 369.48279 451.287273 
L 371.403636 447.25134 
L 371.573444 446.894545 
L 373.664069 442.501818 
L 375.010909 439.671896 
L 375.754692 438.109091 
L 377.845319 433.716364 
L 378.618182 432.092475 
L 379.935969 429.323636 
L 382.026593 424.930909 
L 382.225455 424.51307 
L 384.117217 420.538182 
L 385.832727 416.933626 
L 386.207844 416.145455 
L 388.298494 411.752727 
L 389.44 409.354244 
L 390.389121 407.36 
L 392.479768 402.967273 
L 393.047273 401.774862 
L 394.570394 398.574545 
L 396.654545 394.195479 
L 396.661047 394.181818 
L 398.751654 389.789091 
L 400.261818 386.615974 
L 400.842268 385.396364 
L 402.932919 381.003636 
L 403.869091 379.036592 
L 405.023542 376.610909 
L 407.114168 372.218182 
L 407.476364 371.457159 
L 409.204819 367.825455 
L 411.083636 363.497294 
L 411.103373 363.432727 
L 411.083636 363.366339 
L 409.797454 359.04 
L 408.491528 354.647273 
L 407.476364 351.232595 
L 407.216896 350.254545 
L 406.042443 345.861818 
L 404.852865 341.469091 
L 403.869091 337.878591 
L 403.6621 337.076364 
L 402.528683 332.683636 
L 401.395275 328.290909 
L 400.261871 323.898182 
L 400.261818 323.897978 
L 399.128489 319.505455 
L 397.995107 315.112727 
L 396.861699 310.72 
L 396.654545 309.91712 
L 395.728311 306.327273 
L 394.594912 301.934545 
L 393.461512 297.541818 
L 393.047273 295.93633 
L 392.328123 293.149091 
L 391.194715 288.756364 
L 390.061331 284.363636 
L 389.44 281.955562 
L 388.927918 279.970909 
L 387.794511 275.578182 
L 386.661106 271.185455 
L 385.832727 267.974911 
L 385.527707 266.792727 
L 384.394322 262.4 
L 383.260924 258.007273 
L 382.225455 253.994093 
L 382.127525 253.614545 
L 380.994129 249.221818 
L 379.860736 244.829091 
L 378.727346 240.436364 
L 378.618182 240.013282 
L 377.593929 236.043636 
L 376.460534 231.650909 
L 375.32715 227.258182 
L 375.010909 226.032535 
L 374.193742 222.865455 
L 373.060347 218.472727 
L 371.926952 214.08 
L 371.403636 212.051776 
L 370.793548 209.687273 
L 369.660129 205.294545 
L 368.526734 200.901818 
L 367.796364 198.071129 
L 367.393335 196.509091 
L 366.259954 192.116364 
L 365.126568 187.723636 
L 364.189091 184.090209 
L 363.993179 183.330909 
L 362.85978 178.938182 
L 361.72637 174.545455 
L 360.592964 170.152727 
L 360.581818 170.109527 
L 359.459572 165.76 
L 358.326162 161.367273 
L 357.192768 156.974545 
L 356.974545 156.128771 
L 356.059371 152.581818 
L 354.925978 148.189091 
L 353.792568 143.796364 
L 353.367273 142.148028 
L 352.659173 139.403636 
L 351.525787 135.010909 
L 350.392388 130.618182 
L 349.76 128.167248 
L 349.258975 126.225455 
L 348.125595 121.832727 
L 346.992165 117.44 
L 346.152727 114.186471 
L 344.923496 113.047273 
L 342.545455 112.438038 
L 339.910176 113.047273 
L 338.938182 113.271986 
L 335.330909 114.105992 
L 331.723636 114.93998 
L 328.116364 115.356364 
L 324.509091 114.130236 
L 322.589648 113.047273 
L 320.901818 112.094994 
L 317.294545 110.059771 
L 314.803937 108.654545 
L 313.687273 108.024513 
L 310.08 105.989255 
L 307.01826 104.261818 
L 306.472727 103.954026 
L 302.865455 101.91877 
L 299.258182 99.883528 
L 299.232595 99.869091 
L 295.650909 97.848262 
L 292.043636 95.813044 
L 291.446914 95.476364 
L 288.436364 93.777763 
L 284.829091 91.742518 
L 283.66129 91.083636 
L 281.221818 89.707279 
L 277.614545 87.672033 
L 275.87561 86.690909 
L 274.007273 85.63678 
L 270.4 83.601514 
L 268.08994 82.298182 
L 266.792727 81.566296 
L 263.185455 79.531031 
L 260.304264 77.905455 
L 259.578182 77.495795 
L 255.970909 75.460522 
L 252.518626 73.512727 
L 252.363636 73.425282 
L 248.756364 71.390055 
L 245.149091 69.354797 
L 244.732935 69.12 
L 241.541818 69.12 
L 237.934545 69.12 
L 234.327273 69.12 
L 230.72 69.12 
L 227.112727 69.12 
L 223.505455 69.12 
L 219.898182 69.12 
L 216.290909 69.12 
L 212.683636 69.12 
L 209.076364 69.12 
L 205.469091 69.12 
L 201.861818 69.12 
L 198.254545 69.12 
L 194.647273 69.12 
L 191.04 69.12 
L 187.432727 69.12 
L 183.825455 69.12 
L 180.218182 69.12 
L 176.610909 69.12 
L 173.003636 69.12 
L 169.396364 69.12 
L 165.789091 69.12 
L 162.181818 69.12 
L 158.574545 69.12 
L 154.967273 69.12 
L 151.36 69.12 
L 149.139958 69.12 
L 151.36 70.158474 
L 154.967273 71.84586 
L 158.530696 73.512727 
L 158.574545 73.533239 
L 162.181818 75.220623 
L 165.789091 76.908008 
L 167.82373 77.905455 
L 169.396364 78.662449 
L 173.003636 80.691658 
L 175.851048 82.298182 
L 176.610909 82.726899 
L 180.218182 84.762149 
L 183.636714 86.690909 
L 183.825455 86.797397 
L 187.432727 88.832663 
L 191.04 90.867897 
L 191.422377 91.083636 
L 194.647273 92.903146 
L 198.254545 94.938382 
L 199.208059 95.476364 
L 201.861818 96.973646 
L 205.469091 99.008892 
L 206.993712 99.869091 
L 209.076364 101.044133 
L 212.683636 103.079406 
L 214.77935 104.261818 
L 216.290909 105.114641 
L 219.898182 107.149878 
L 222.565051 108.654545 
L 223.505455 109.185126 
L 227.112727 111.220394 
L 230.350684 113.047273 
L 230.72 113.255643 
L 234.327273 115.290861 
L 237.934545 117.326126 
L 238.136373 117.44 
L 241.541818 119.361385 
L 245.149091 121.396626 
L 245.922036 121.832727 
L 248.756364 123.431882 
L 252.363636 125.46711 
L 253.707704 126.225455 
L 255.970909 127.502387 
L 259.578182 129.537637 
L 261.493346 130.618182 
L 263.185455 131.572871 
L 266.792727 133.608119 
L 269.27904 135.010909 
L 270.4 135.64336 
L 274.007273 137.678602 
L 277.06471 139.403636 
L 277.614545 139.713858 
L 281.221818 141.749123 
L 284.829091 143.784357 
L 284.850372 143.796364 
L 288.436364 145.819607 
L 292.043636 147.854842 
L 292.636057 148.189091 
L 295.650909 149.890106 
L 299.258182 151.925372 
L 302.865455 152.390081 
L 306.472727 151.591866 
L 310.08 150.757916 
L 313.687273 149.923921 
L 317.294545 149.08995 
L 320.901818 148.25597 
L 321.1911 148.189091 
L 324.509091 147.422004 
L 325.477924 148.189091 
L 327.300063 152.581818 
L 328.116364 155.745556 
L 328.433462 156.974545 
L 329.566849 161.367273 
L 330.700244 165.76 
L 331.723636 169.726374 
L 331.833643 170.152727 
L 332.967039 174.545455 
L 334.100447 178.938182 
L 335.23384 183.330909 
L 335.330909 183.707123 
L 336.367238 187.723636 
L 337.500649 192.116364 
L 338.634036 196.509091 
L 338.938182 197.687873 
L 339.767433 200.901818 
L 340.90083 205.294545 
L 342.034232 209.687273 
L 342.545455 211.668653 
L 343.167615 214.08 
L 344.30103 218.472727 
L 345.434431 222.865455 
L 346.152727 225.649394 
L 346.567821 227.258182 
L 347.701218 231.650909 
L 348.834636 236.043636 
L 349.76 239.630116 
L 349.968023 240.436364 
L 351.101416 244.829091 
L 352.234839 249.221818 
L 353.367273 253.610872 
L 353.368221 253.614545 
L 354.501614 258.007273 
L 355.634998 262.4 
L 356.768409 266.792727 
L 356.974545 267.591662 
L 357.901803 271.185455 
L 359.035216 275.578182 
L 360.168613 279.970909 
L 360.581818 281.572396 
L 361.301995 284.363636 
L 362.435394 288.756364 
L 363.568794 293.149091 
L 364.189091 295.55317 
L 364.702198 297.541818 
L 365.835587 301.934545 
L 366.968987 306.327273 
L 367.796364 309.533963 
L 368.10238 310.72 
L 369.235776 315.112727 
L 370.369168 319.505455 
L 371.403636 323.514725 
L 371.502575 323.898182 
L 372.635977 328.290909 
L 373.76937 332.683636 
L 374.902763 337.076364 
L 375.010909 337.495499 
L 376.036182 341.469091 
L 377.169575 345.861818 
L 375.010909 349.325758 
L 373.808412 350.254545 
L 371.403636 351.706549 
L 367.796364 354.386993 
L 367.492259 354.647273 
L 365.401629 359.04 
L 364.189091 361.587725 
L 363.311003 363.432727 
L 361.220372 367.825455 
L 360.581818 369.167137 
L 359.12973 372.218182 
L 357.039095 376.610909 
L 356.974545 376.746537 
L 354.948465 381.003636 
L 353.367273 384.325958 
L 352.857835 385.396364 
L 350.767194 389.789091 
L 349.76 391.905364 
L 348.676571 394.181818 
L 346.585947 398.574545 
L 346.152727 399.484801 
L 344.495315 402.967273 
L 342.545455 407.064194 
L 342.40467 407.36 
L 340.314046 411.752727 
L 338.938182 414.643593 
L 338.223396 416.145455 
L 336.132769 420.538182 
L 335.330909 422.223004 
L 334.042136 424.930909 
L 331.95152 429.323636 
L 331.723636 429.802452 
L 329.860869 433.716364 
L 328.116364 437.381816 
L 327.77023 438.109091 
L 325.679592 442.501818 
L 324.509091 444.961224 
L 323.588968 446.894545 
L 321.498344 451.287273 
L 320.901818 452.540667 
L 319.407714 455.68 
L 317.317067 460.072727 
L 317.294545 460.12005 
L 315.226444 464.465455 
L 313.687273 467.699493 
L 313.13582 468.858182 
L 311.045192 473.250909 
L 310.08 475.278909 
L 308.954543 477.643636 
L 306.863905 482.036364 
L 306.472727 482.858283 
L 304.773266 486.429091 
L 302.865455 490.437701 
L 302.682644 490.821818 
L 300.592009 495.214545 
L 299.258182 498.017095 
L 298.501366 499.607273 
L 296.410742 504 
z
" style="fill:#dddcdc;"/>
   </g>
   <g id="PathCollection_6">
    <path clip-path="url(#p2e06efe374)" d="M 248.756364 504 
L 252.363636 504 
L 255.970909 504 
L 259.578182 504 
L 263.185455 504 
L 266.792727 504 
L 270.4 504 
L 274.007273 504 
L 277.614545 504 
L 281.221818 504 
L 284.829091 504 
L 288.436364 504 
L 292.043636 504 
L 295.650909 504 
L 296.410742 504 
L 298.501366 499.607273 
L 299.258182 498.017095 
L 300.592009 495.214545 
L 302.682644 490.821818 
L 302.865455 490.437701 
L 304.773266 486.429091 
L 306.472727 482.858283 
L 306.863905 482.036364 
L 308.954543 477.643636 
L 310.08 475.278909 
L 311.045192 473.250909 
L 313.13582 468.858182 
L 313.687273 467.699493 
L 315.226444 464.465455 
L 317.294545 460.12005 
L 317.317067 460.072727 
L 319.407714 455.68 
L 320.901818 452.540667 
L 321.498344 451.287273 
L 323.588968 446.894545 
L 324.509091 444.961224 
L 325.679592 442.501818 
L 327.77023 438.109091 
L 328.116364 437.381816 
L 329.860869 433.716364 
L 331.723636 429.802452 
L 331.95152 429.323636 
L 334.042136 424.930909 
L 335.330909 422.223004 
L 336.132769 420.538182 
L 338.223396 416.145455 
L 338.938182 414.643593 
L 340.314046 411.752727 
L 342.40467 407.36 
L 342.545455 407.064194 
L 344.495315 402.967273 
L 346.152727 399.484801 
L 346.585947 398.574545 
L 348.676571 394.181818 
L 349.76 391.905364 
L 350.767194 389.789091 
L 352.857835 385.396364 
L 353.367273 384.325958 
L 354.948465 381.003636 
L 356.974545 376.746537 
L 357.039095 376.610909 
L 359.12973 372.218182 
L 360.581818 369.167137 
L 361.220372 367.825455 
L 363.311003 363.432727 
L 364.189091 361.587725 
L 365.401629 359.04 
L 367.492259 354.647273 
L 367.796364 354.386993 
L 371.403636 351.706549 
L 373.808412 350.254545 
L 375.010909 349.325758 
L 377.169575 345.861818 
L 376.036182 341.469091 
L 375.010909 337.495499 
L 374.902763 337.076364 
L 373.76937 332.683636 
L 372.635977 328.290909 
L 371.502575 323.898182 
L 371.403636 323.514725 
L 370.369168 319.505455 
L 369.235776 315.112727 
L 368.10238 310.72 
L 367.796364 309.533963 
L 366.968987 306.327273 
L 365.835587 301.934545 
L 364.702198 297.541818 
L 364.189091 295.55317 
L 363.568794 293.149091 
L 362.435394 288.756364 
L 361.301995 284.363636 
L 360.581818 281.572396 
L 360.168613 279.970909 
L 359.035216 275.578182 
L 357.901803 271.185455 
L 356.974545 267.591662 
L 356.768409 266.792727 
L 355.634998 262.4 
L 354.501614 258.007273 
L 353.368221 253.614545 
L 353.367273 253.610872 
L 352.234839 249.221818 
L 351.101416 244.829091 
L 349.968023 240.436364 
L 349.76 239.630116 
L 348.834636 236.043636 
L 347.701218 231.650909 
L 346.567821 227.258182 
L 346.152727 225.649394 
L 345.434431 222.865455 
L 344.30103 218.472727 
L 343.167615 214.08 
L 342.545455 211.668653 
L 342.034232 209.687273 
L 340.90083 205.294545 
L 339.767433 200.901818 
L 338.938182 197.687873 
L 338.634036 196.509091 
L 337.500649 192.116364 
L 336.367238 187.723636 
L 335.330909 183.707123 
L 335.23384 183.330909 
L 334.100447 178.938182 
L 332.967039 174.545455 
L 331.833643 170.152727 
L 331.723636 169.726374 
L 330.700244 165.76 
L 329.566849 161.367273 
L 328.433462 156.974545 
L 328.116364 155.745556 
L 327.300063 152.581818 
L 325.477924 148.189091 
L 324.509091 147.422004 
L 321.1911 148.189091 
L 320.901818 148.25597 
L 317.294545 149.08995 
L 313.687273 149.923921 
L 310.08 150.757916 
L 306.472727 151.591866 
L 302.865455 152.390081 
L 299.258182 151.925372 
L 295.650909 149.890106 
L 292.636057 148.189091 
L 292.043636 147.854842 
L 288.436364 145.819607 
L 284.850372 143.796364 
L 284.829091 143.784357 
L 281.221818 141.749123 
L 277.614545 139.713858 
L 277.06471 139.403636 
L 274.007273 137.678602 
L 270.4 135.64336 
L 269.27904 135.010909 
L 266.792727 133.608119 
L 263.185455 131.572871 
L 261.493346 130.618182 
L 259.578182 129.537637 
L 255.970909 127.502387 
L 253.707704 126.225455 
L 252.363636 125.46711 
L 248.756364 123.431882 
L 245.922036 121.832727 
L 245.149091 121.396626 
L 241.541818 119.361385 
L 238.136373 117.44 
L 237.934545 117.326126 
L 234.327273 115.290861 
L 230.72 113.255643 
L 230.350684 113.047273 
L 227.112727 111.220394 
L 223.505455 109.185126 
L 222.565051 108.654545 
L 219.898182 107.149878 
L 216.290909 105.114641 
L 214.77935 104.261818 
L 212.683636 103.079406 
L 209.076364 101.044133 
L 206.993712 99.869091 
L 205.469091 99.008892 
L 201.861818 96.973646 
L 199.208059 95.476364 
L 198.254545 94.938382 
L 194.647273 92.903146 
L 191.422377 91.083636 
L 191.04 90.867897 
L 187.432727 88.832663 
L 183.825455 86.797397 
L 183.636714 86.690909 
L 180.218182 84.762149 
L 176.610909 82.726899 
L 175.851048 82.298182 
L 173.003636 80.691658 
L 169.396364 78.662449 
L 167.82373 77.905455 
L 165.789091 76.908008 
L 162.181818 75.220623 
L 158.574545 73.533239 
L 158.530696 73.512727 
L 154.967273 71.84586 
L 151.36 70.158474 
L 149.139958 69.12 
L 147.752727 69.12 
L 144.145455 69.12 
L 140.538182 69.12 
L 136.930909 69.12 
L 133.323636 69.12 
L 129.716364 69.12 
L 126.109091 69.12 
L 122.501818 69.12 
L 118.894545 69.12 
L 115.287273 69.12 
L 111.68 69.12 
L 108.072727 69.12 
L 104.465455 69.12 
L 100.858182 69.12 
L 97.250909 69.12 
L 93.643636 69.12 
L 90.036364 69.12 
L 86.429091 69.12 
L 82.821818 69.12 
L 79.214545 69.12 
L 75.607273 69.12 
L 72 69.12 
L 72 73.512727 
L 72 77.905455 
L 72 82.298182 
L 72 86.463554 
L 72.486035 86.690909 
L 75.607273 88.150937 
L 79.214545 89.838318 
L 81.876765 91.083636 
L 82.821818 91.52571 
L 86.429091 93.213101 
L 90.036364 94.900508 
L 91.267416 95.476364 
L 93.643636 96.587895 
L 97.250909 98.27529 
L 100.658123 99.869091 
L 100.858182 99.962673 
L 104.465455 101.65006 
L 108.072727 103.337461 
L 110.048797 104.261818 
L 111.68 105.024851 
L 115.287273 106.712235 
L 118.894545 108.399612 
L 119.439532 108.654545 
L 122.501818 110.087018 
L 126.109091 111.774391 
L 128.830248 113.047273 
L 129.716364 113.461775 
L 133.323636 115.149166 
L 136.930909 116.836573 
L 138.220904 117.44 
L 140.538182 118.523956 
L 144.145455 120.211339 
L 147.611663 121.832727 
L 147.752727 121.898713 
L 151.36 123.58612 
L 154.967273 125.273511 
L 157.0023 126.225455 
L 158.574545 126.960916 
L 162.181818 128.648296 
L 165.789091 130.335677 
L 166.393025 130.618182 
L 169.396364 132.023069 
L 173.003636 133.710454 
L 175.783736 135.010909 
L 176.610909 135.397839 
L 180.218182 137.085247 
L 183.825455 138.839225 
L 184.825808 139.403636 
L 187.432727 140.874488 
L 191.04 142.909734 
L 192.611469 143.796364 
L 194.647273 144.944979 
L 198.254545 146.980236 
L 200.397136 148.189091 
L 201.861818 149.015467 
L 205.469091 151.050726 
L 208.1828 152.581818 
L 209.076364 153.085971 
L 212.683636 155.121223 
L 215.968462 156.974545 
L 216.290909 157.156472 
L 219.898182 159.191718 
L 223.505455 161.226957 
L 223.754149 161.367273 
L 227.112727 163.262222 
L 230.72 165.297448 
L 231.539821 165.76 
L 234.327273 167.33271 
L 237.934545 169.367952 
L 239.325475 170.152727 
L 241.541818 171.403205 
L 245.149091 173.438454 
L 247.111136 174.545455 
L 248.756364 175.473702 
L 252.363636 177.508943 
L 254.896826 178.938182 
L 255.970909 179.54419 
L 259.578182 181.579442 
L 262.682473 183.330909 
L 263.185455 183.614694 
L 266.792727 185.64994 
L 270.4 187.685186 
L 270.468149 187.723636 
L 274.007273 189.257052 
L 277.614545 189.077774 
L 281.221818 188.24381 
L 283.471714 187.723636 
L 284.829091 187.409812 
L 288.436364 186.575843 
L 292.043636 185.741867 
L 295.650909 184.907874 
L 299.258182 184.073898 
L 302.471923 183.330909 
L 302.865455 183.239928 
L 306.472727 183.328468 
L 306.474526 183.330909 
L 307.60793 187.723636 
L 308.741321 192.116364 
L 309.874719 196.509091 
L 310.08 197.304699 
L 311.00812 200.901818 
L 312.141505 205.294545 
L 313.274912 209.687273 
L 313.687273 211.285469 
L 314.40831 214.08 
L 315.541717 218.472727 
L 316.675107 222.865455 
L 317.294545 225.266219 
L 317.808507 227.258182 
L 318.941905 231.650909 
L 320.075306 236.043636 
L 320.901818 239.246944 
L 321.20871 240.436364 
L 322.342098 244.829091 
L 323.475486 249.221818 
L 324.509091 253.227755 
L 324.60889 253.614545 
L 325.742289 258.007273 
L 326.875685 262.4 
L 328.009091 266.792727 
L 328.116364 267.208487 
L 329.142488 271.185455 
L 330.275895 275.578182 
L 331.409288 279.970909 
L 331.723636 281.189239 
L 332.542684 284.363636 
L 333.676074 288.756364 
L 334.809486 293.149091 
L 335.330909 295.169975 
L 335.942882 297.541818 
L 337.076279 301.934545 
L 338.209683 306.327273 
L 338.938182 309.150717 
L 339.343082 310.72 
L 340.476466 315.112727 
L 341.609853 319.505455 
L 342.545455 323.131544 
L 342.743262 323.898182 
L 343.876661 328.290909 
L 344.420981 332.683636 
L 342.545455 334.138247 
L 338.938182 336.179134 
L 337.352281 337.076364 
L 335.330909 338.219961 
L 331.723636 340.260847 
L 329.588024 341.469091 
L 328.116364 342.394669 
L 324.509091 345.126547 
L 323.689089 345.861818 
L 321.598458 350.254545 
L 320.901818 351.718285 
L 319.507816 354.647273 
L 317.417187 359.04 
L 317.294545 359.297687 
L 315.326559 363.432727 
L 313.687273 366.877096 
L 313.235918 367.825455 
L 311.145291 372.218182 
L 310.08 374.456522 
L 309.05466 376.610909 
L 306.964022 381.003636 
L 306.472727 382.03592 
L 304.873392 385.396364 
L 302.865455 389.615312 
L 302.782747 389.789091 
L 300.692117 394.181818 
L 299.258182 397.194742 
L 298.601491 398.574545 
L 296.510855 402.967273 
L 295.650909 404.774144 
L 294.420225 407.36 
L 292.329584 411.752727 
L 292.043636 412.353544 
L 290.238953 416.145455 
L 288.436364 419.932965 
L 288.148322 420.538182 
L 286.057686 424.930909 
L 284.829091 427.512356 
L 283.967049 429.323636 
L 281.876427 433.716364 
L 281.221818 435.091783 
L 279.785781 438.109091 
L 277.695159 442.501818 
L 277.614545 442.671199 
L 275.604529 446.894545 
L 274.007273 450.25062 
L 273.513897 451.287273 
L 271.423261 455.68 
L 270.4 457.830018 
L 269.332625 460.072727 
L 267.241983 464.465455 
L 266.792727 465.409408 
L 265.151361 468.858182 
L 263.185455 472.988853 
L 263.047119 473.250909 
L 260.613646 477.643636 
L 259.578182 479.507836 
L 258.173728 482.036364 
L 255.970909 486.002187 
L 255.733785 486.429091 
L 253.293863 490.821818 
L 252.363636 492.496545 
L 250.853932 495.214545 
L 248.756364 498.990906 
L 248.414003 499.607273 
L 245.974059 504 
z
" style="fill:#f3c8b2;"/>
   </g>
   <g id="PathCollection_7">
    <path clip-path="url(#p2e06efe374)" d="M 194.647273 504 
L 198.254545 504 
L 201.861818 504 
L 205.469091 504 
L 209.076364 504 
L 212.683636 504 
L 216.290909 504 
L 219.898182 504 
L 223.505455 504 
L 227.112727 504 
L 230.72 504 
L 234.327273 504 
L 237.934545 504 
L 241.541818 504 
L 245.149091 504 
L 245.974059 504 
L 248.414003 499.607273 
L 248.756364 498.990906 
L 250.853932 495.214545 
L 252.363636 492.496545 
L 253.293863 490.821818 
L 255.733785 486.429091 
L 255.970909 486.002187 
L 258.173728 482.036364 
L 259.578182 479.507836 
L 260.613646 477.643636 
L 263.047119 473.250909 
L 263.185455 472.988853 
L 265.151361 468.858182 
L 266.792727 465.409408 
L 267.241983 464.465455 
L 269.332625 460.072727 
L 270.4 457.830018 
L 271.423261 455.68 
L 273.513897 451.287273 
L 274.007273 450.25062 
L 275.604529 446.894545 
L 277.614545 442.671199 
L 277.695159 442.501818 
L 279.785781 438.109091 
L 281.221818 435.091783 
L 281.876427 433.716364 
L 283.967049 429.323636 
L 284.829091 427.512356 
L 286.057686 424.930909 
L 288.148322 420.538182 
L 288.436364 419.932965 
L 290.238953 416.145455 
L 292.043636 412.353544 
L 292.329584 411.752727 
L 294.420225 407.36 
L 295.650909 404.774144 
L 296.510855 402.967273 
L 298.601491 398.574545 
L 299.258182 397.194742 
L 300.692117 394.181818 
L 302.782747 389.789091 
L 302.865455 389.615312 
L 304.873392 385.396364 
L 306.472727 382.03592 
L 306.964022 381.003636 
L 309.05466 376.610909 
L 310.08 374.456522 
L 311.145291 372.218182 
L 313.235918 367.825455 
L 313.687273 366.877096 
L 315.326559 363.432727 
L 317.294545 359.297687 
L 317.417187 359.04 
L 319.507816 354.647273 
L 320.901818 351.718285 
L 321.598458 350.254545 
L 323.689089 345.861818 
L 324.509091 345.126547 
L 328.116364 342.394669 
L 329.588024 341.469091 
L 331.723636 340.260847 
L 335.330909 338.219961 
L 337.352281 337.076364 
L 338.938182 336.179134 
L 342.545455 334.138247 
L 344.420981 332.683636 
L 343.876661 328.290909 
L 342.743262 323.898182 
L 342.545455 323.131544 
L 341.609853 319.505455 
L 340.476466 315.112727 
L 339.343082 310.72 
L 338.938182 309.150717 
L 338.209683 306.327273 
L 337.076279 301.934545 
L 335.942882 297.541818 
L 335.330909 295.169975 
L 334.809486 293.149091 
L 333.676074 288.756364 
L 332.542684 284.363636 
L 331.723636 281.189239 
L 331.409288 279.970909 
L 330.275895 275.578182 
L 329.142488 271.185455 
L 328.116364 267.208487 
L 328.009091 266.792727 
L 326.875685 262.4 
L 325.742289 258.007273 
L 324.60889 253.614545 
L 324.509091 253.227755 
L 323.475486 249.221818 
L 322.342098 244.829091 
L 321.20871 240.436364 
L 320.901818 239.246944 
L 320.075306 236.043636 
L 318.941905 231.650909 
L 317.808507 227.258182 
L 317.294545 225.266219 
L 316.675107 222.865455 
L 315.541717 218.472727 
L 314.40831 214.08 
L 313.687273 211.285469 
L 313.274912 209.687273 
L 312.141505 205.294545 
L 311.00812 200.901818 
L 310.08 197.304699 
L 309.874719 196.509091 
L 308.741321 192.116364 
L 307.60793 187.723636 
L 306.474526 183.330909 
L 306.472727 183.328468 
L 302.865455 183.239928 
L 302.471923 183.330909 
L 299.258182 184.073898 
L 295.650909 184.907874 
L 292.043636 185.741867 
L 288.436364 186.575843 
L 284.829091 187.409812 
L 283.471714 187.723636 
L 281.221818 188.24381 
L 277.614545 189.077774 
L 274.007273 189.257052 
L 270.468149 187.723636 
L 270.4 187.685186 
L 266.792727 185.64994 
L 263.185455 183.614694 
L 262.682473 183.330909 
L 259.578182 181.579442 
L 255.970909 179.54419 
L 254.896826 178.938182 
L 252.363636 177.508943 
L 248.756364 175.473702 
L 247.111136 174.545455 
L 245.149091 173.438454 
L 241.541818 171.403205 
L 239.325475 170.152727 
L 237.934545 169.367952 
L 234.327273 167.33271 
L 231.539821 165.76 
L 230.72 165.297448 
L 227.112727 163.262222 
L 223.754149 161.367273 
L 223.505455 161.226957 
L 219.898182 159.191718 
L 216.290909 157.156472 
L 215.968462 156.974545 
L 212.683636 155.121223 
L 209.076364 153.085971 
L 208.1828 152.581818 
L 205.469091 151.050726 
L 201.861818 149.015467 
L 200.397136 148.189091 
L 198.254545 146.980236 
L 194.647273 144.944979 
L 192.611469 143.796364 
L 191.04 142.909734 
L 187.432727 140.874488 
L 184.825808 139.403636 
L 183.825455 138.839225 
L 180.218182 137.085247 
L 176.610909 135.397839 
L 175.783736 135.010909 
L 173.003636 133.710454 
L 169.396364 132.023069 
L 166.393025 130.618182 
L 165.789091 130.335677 
L 162.181818 128.648296 
L 158.574545 126.960916 
L 157.0023 126.225455 
L 154.967273 125.273511 
L 151.36 123.58612 
L 147.752727 121.898713 
L 147.611663 121.832727 
L 144.145455 120.211339 
L 140.538182 118.523956 
L 138.220904 117.44 
L 136.930909 116.836573 
L 133.323636 115.149166 
L 129.716364 113.461775 
L 128.830248 113.047273 
L 126.109091 111.774391 
L 122.501818 110.087018 
L 119.439532 108.654545 
L 118.894545 108.399612 
L 115.287273 106.712235 
L 111.68 105.024851 
L 110.048797 104.261818 
L 108.072727 103.337461 
L 104.465455 101.65006 
L 100.858182 99.962673 
L 100.658123 99.869091 
L 97.250909 98.27529 
L 93.643636 96.587895 
L 91.267416 95.476364 
L 90.036364 94.900508 
L 86.429091 93.213101 
L 82.821818 91.52571 
L 81.876765 91.083636 
L 79.214545 89.838318 
L 75.607273 88.150937 
L 72.486035 86.690909 
L 72 86.463554 
L 72 86.690909 
L 72 91.083636 
L 72 95.476364 
L 72 99.869091 
L 72 104.261818 
L 72 108.654545 
L 72 113.047273 
L 72 117.44 
L 72 121.832727 
L 72 126.225455 
L 72 130.618182 
L 72 135.010909 
L 72 139.403636 
L 72 139.891208 
L 75.607273 141.5786 
L 79.214545 143.265984 
L 80.348379 143.796364 
L 82.821818 144.953379 
L 86.429091 146.640767 
L 89.739059 148.189091 
L 90.036364 148.328163 
L 93.643636 150.015547 
L 97.250909 151.70294 
L 99.12977 152.581818 
L 100.858182 153.390321 
L 104.465455 155.077714 
L 108.072727 156.765106 
L 108.520463 156.974545 
L 111.68 158.452498 
L 115.287273 160.139882 
L 117.911166 161.367273 
L 118.894545 161.827272 
L 122.501818 163.514659 
L 126.109091 165.202049 
L 127.301872 165.76 
L 129.716364 166.889436 
L 133.323636 168.576824 
L 136.692563 170.152727 
L 136.930909 170.26422 
L 140.538182 171.951607 
L 144.145455 173.639003 
L 146.083257 174.545455 
L 147.752727 175.326385 
L 151.36 177.013774 
L 154.967273 178.701163 
L 155.473968 178.938182 
L 158.574545 180.388553 
L 162.181818 182.075939 
L 164.864671 183.330909 
L 165.789091 183.76333 
L 169.396364 185.45072 
L 173.003636 187.138117 
L 174.255353 187.723636 
L 176.610909 188.8255 
L 180.218182 190.512891 
L 183.64605 192.116364 
L 183.825455 192.200285 
L 187.432727 193.887671 
L 191.04 195.575068 
L 193.03674 196.509091 
L 194.647273 197.262456 
L 198.254545 199.022059 
L 201.586231 200.901818 
L 201.861818 201.057306 
L 205.469091 203.092556 
L 209.076364 205.127801 
L 209.371901 205.294545 
L 212.683636 207.163049 
L 216.290909 209.198293 
L 217.157578 209.687273 
L 219.898182 211.23354 
L 223.505455 213.268791 
L 224.94324 214.08 
L 227.112727 215.304037 
L 230.72 217.339287 
L 232.728906 218.472727 
L 234.327273 219.374538 
L 237.934545 221.409783 
L 240.514575 222.865455 
L 241.541818 223.445033 
L 245.149091 225.480281 
L 248.756364 226.373336 
L 252.363636 225.729693 
L 255.970909 224.895711 
L 259.578182 224.061735 
L 263.185455 223.227756 
L 264.75253 222.865455 
L 266.792727 222.39377 
L 270.4 221.559793 
L 274.007273 220.725819 
L 277.614545 219.891837 
L 281.221818 219.057861 
L 283.752769 218.472727 
L 284.829091 218.22389 
L 285.273244 218.472727 
L 287.915794 222.865455 
L 288.436364 224.883031 
L 289.049192 227.258182 
L 290.182583 231.650909 
L 291.315988 236.043636 
L 292.043636 238.863803 
L 292.44938 240.436364 
L 293.58278 244.829091 
L 294.716182 249.221818 
L 295.650909 252.844577 
L 295.849573 253.614545 
L 296.982975 258.007273 
L 298.116374 262.4 
L 299.249776 266.792727 
L 299.258182 266.825306 
L 300.383176 271.185455 
L 301.516573 275.578182 
L 302.649977 279.970909 
L 302.865455 280.806043 
L 303.783369 284.363636 
L 304.916767 288.756364 
L 306.050165 293.149091 
L 306.472727 294.786829 
L 307.183559 297.541818 
L 308.316963 301.934545 
L 309.450362 306.327273 
L 310.08 308.767586 
L 310.583756 310.72 
L 311.717151 315.112727 
L 310.08 318.211909 
L 308.660367 319.505455 
L 306.472727 320.74314 
L 302.865455 322.784009 
L 300.896142 323.898182 
L 299.258182 324.824886 
L 295.650909 326.865742 
L 293.131912 328.290909 
L 292.043636 328.906621 
L 288.436364 330.947482 
L 285.367687 332.683636 
L 284.829091 333.03709 
L 281.221818 335.818554 
L 279.885909 337.076364 
L 277.795271 341.469091 
L 277.614545 341.848822 
L 275.704642 345.861818 
L 274.007273 349.42824 
L 273.614009 350.254545 
L 271.523375 354.647273 
L 270.4 357.007656 
L 269.432745 359.04 
L 267.342108 363.432727 
L 266.792727 364.587054 
L 265.251473 367.825455 
L 263.185455 372.166475 
L 263.160846 372.218182 
L 261.070212 376.610909 
L 259.578182 379.74587 
L 258.979571 381.003636 
L 256.888943 385.396364 
L 255.970909 387.325287 
L 254.798307 389.789091 
L 252.707676 394.181818 
L 252.363636 394.904693 
L 250.617041 398.574545 
L 248.756364 402.48412 
L 248.518607 402.967273 
L 246.28247 407.36 
L 245.149091 409.486921 
L 243.890546 411.752727 
L 241.541818 415.981249 
L 241.45061 416.145455 
L 239.010684 420.538182 
L 237.934545 422.475609 
L 236.570754 424.930909 
L 234.327273 428.969956 
L 234.130822 429.323636 
L 231.690897 433.716364 
L 230.72 435.464308 
L 229.250953 438.109091 
L 227.112727 441.958648 
L 226.811026 442.501818 
L 224.371099 446.894545 
L 223.505455 448.45301 
L 221.931168 451.287273 
L 219.898182 454.947356 
L 219.491236 455.68 
L 217.051306 460.072727 
L 216.290909 461.44171 
L 214.61137 464.465455 
L 212.683636 467.936046 
L 212.17144 468.858182 
L 209.731514 473.250909 
L 209.076364 474.430406 
L 207.291575 477.643636 
L 205.469091 480.924764 
L 204.851658 482.036364 
L 202.411708 486.429091 
L 201.861818 487.419086 
L 199.971791 490.821818 
L 198.254545 493.913454 
L 197.531854 495.214545 
L 195.091922 499.607273 
L 194.647273 500.407796 
L 192.65199 504 
z
" style="fill:#f6a586;"/>
   </g>
   <g id="PathCollection_8">
    <path clip-path="url(#p2e06efe374)" d="M 75.607273 504 
L 79.214545 504 
L 82.821818 504 
L 86.429091 504 
L 90.036364 504 
L 93.643636 504 
L 97.250909 504 
L 100.858182 504 
L 104.465455 504 
L 108.072727 504 
L 111.68 504 
L 115.287273 504 
L 118.894545 504 
L 122.501818 504 
L 126.109091 504 
L 129.716364 504 
L 133.323636 504 
L 136.930909 504 
L 140.538182 504 
L 144.145455 504 
L 147.752727 504 
L 151.36 504 
L 154.967273 504 
L 158.574545 504 
L 162.181818 504 
L 165.789091 504 
L 169.396364 504 
L 173.003636 504 
L 176.610909 504 
L 180.218182 504 
L 183.825455 504 
L 187.432727 504 
L 191.04 504 
L 192.65199 504 
L 194.647273 500.407796 
L 195.091922 499.607273 
L 197.531854 495.214545 
L 198.254545 493.913454 
L 199.971791 490.821818 
L 201.861818 487.419086 
L 202.411708 486.429091 
L 204.851658 482.036364 
L 205.469091 480.924764 
L 207.291575 477.643636 
L 209.076364 474.430406 
L 209.731514 473.250909 
L 212.17144 468.858182 
L 212.683636 467.936046 
L 214.61137 464.465455 
L 216.290909 461.44171 
L 217.051306 460.072727 
L 219.491236 455.68 
L 219.898182 454.947356 
L 221.931168 451.287273 
L 223.505455 448.45301 
L 224.371099 446.894545 
L 226.811026 442.501818 
L 227.112727 441.958648 
L 229.250953 438.109091 
L 230.72 435.464308 
L 231.690897 433.716364 
L 234.130822 429.323636 
L 234.327273 428.969956 
L 236.570754 424.930909 
L 237.934545 422.475609 
L 239.010684 420.538182 
L 241.45061 416.145455 
L 241.541818 415.981249 
L 243.890546 411.752727 
L 245.149091 409.486921 
L 246.28247 407.36 
L 248.518607 402.967273 
L 248.756364 402.48412 
L 250.617041 398.574545 
L 252.363636 394.904693 
L 252.707676 394.181818 
L 254.798307 389.789091 
L 255.970909 387.325287 
L 256.888943 385.396364 
L 258.979571 381.003636 
L 259.578182 379.74587 
L 261.070212 376.610909 
L 263.160846 372.218182 
L 263.185455 372.166475 
L 265.251473 367.825455 
L 266.792727 364.587054 
L 267.342108 363.432727 
L 269.432745 359.04 
L 270.4 357.007656 
L 271.523375 354.647273 
L 273.614009 350.254545 
L 274.007273 349.42824 
L 275.704642 345.861818 
L 277.614545 341.848822 
L 277.795271 341.469091 
L 279.885909 337.076364 
L 281.221818 335.818554 
L 284.829091 333.03709 
L 285.367687 332.683636 
L 288.436364 330.947482 
L 292.043636 328.906621 
L 293.131912 328.290909 
L 295.650909 326.865742 
L 299.258182 324.824886 
L 300.896142 323.898182 
L 302.865455 322.784009 
L 306.472727 320.74314 
L 308.660367 319.505455 
L 310.08 318.211909 
L 311.717151 315.112727 
L 310.583756 310.72 
L 310.08 308.767586 
L 309.450362 306.327273 
L 308.316963 301.934545 
L 307.183559 297.541818 
L 306.472727 294.786829 
L 306.050165 293.149091 
L 304.916767 288.756364 
L 303.783369 284.363636 
L 302.865455 280.806043 
L 302.649977 279.970909 
L 301.516573 275.578182 
L 300.383176 271.185455 
L 299.258182 266.825306 
L 299.249776 266.792727 
L 298.116374 262.4 
L 296.982975 258.007273 
L 295.849573 253.614545 
L 295.650909 252.844577 
L 294.716182 249.221818 
L 293.58278 244.829091 
L 292.44938 240.436364 
L 292.043636 238.863803 
L 291.315988 236.043636 
L 290.182583 231.650909 
L 289.049192 227.258182 
L 288.436364 224.883031 
L 287.915794 222.865455 
L 285.273244 218.472727 
L 284.829091 218.22389 
L 283.752769 218.472727 
L 281.221818 219.057861 
L 277.614545 219.891837 
L 274.007273 220.725819 
L 270.4 221.559793 
L 266.792727 222.39377 
L 264.75253 222.865455 
L 263.185455 223.227756 
L 259.578182 224.061735 
L 255.970909 224.895711 
L 252.363636 225.729693 
L 248.756364 226.373336 
L 245.149091 225.480281 
L 241.541818 223.445033 
L 240.514575 222.865455 
L 237.934545 221.409783 
L 234.327273 219.374538 
L 232.728906 218.472727 
L 230.72 217.339287 
L 227.112727 215.304037 
L 224.94324 214.08 
L 223.505455 213.268791 
L 219.898182 211.23354 
L 217.157578 209.687273 
L 216.290909 209.198293 
L 212.683636 207.163049 
L 209.371901 205.294545 
L 209.076364 205.127801 
L 205.469091 203.092556 
L 201.861818 201.057306 
L 201.586231 200.901818 
L 198.254545 199.022059 
L 194.647273 197.262456 
L 193.03674 196.509091 
L 191.04 195.575068 
L 187.432727 193.887671 
L 183.825455 192.200285 
L 183.64605 192.116364 
L 180.218182 190.512891 
L 176.610909 188.8255 
L 174.255353 187.723636 
L 173.003636 187.138117 
L 169.396364 185.45072 
L 165.789091 183.76333 
L 164.864671 183.330909 
L 162.181818 182.075939 
L 158.574545 180.388553 
L 155.473968 178.938182 
L 154.967273 178.701163 
L 151.36 177.013774 
L 147.752727 175.326385 
L 146.083257 174.545455 
L 144.145455 173.639003 
L 140.538182 171.951607 
L 136.930909 170.26422 
L 136.692563 170.152727 
L 133.323636 168.576824 
L 129.716364 166.889436 
L 127.301872 165.76 
L 126.109091 165.202049 
L 122.501818 163.514659 
L 118.894545 161.827272 
L 117.911166 161.367273 
L 115.287273 160.139882 
L 111.68 158.452498 
L 108.520463 156.974545 
L 108.072727 156.765106 
L 104.465455 155.077714 
L 100.858182 153.390321 
L 99.12977 152.581818 
L 97.250909 151.70294 
L 93.643636 150.015547 
L 90.036364 148.328163 
L 89.739059 148.189091 
L 86.429091 146.640767 
L 82.821818 144.953379 
L 80.348379 143.796364 
L 79.214545 143.265984 
L 75.607273 141.5786 
L 72 139.891208 
L 72 143.796364 
L 72 148.189091 
L 72 152.581818 
L 72 156.974545 
L 72 161.367273 
L 72 165.76 
L 72 170.152727 
L 72 174.545455 
L 72 178.938182 
L 72 183.330909 
L 72 187.723636 
L 72 192.116364 
L 72 196.509091 
L 72 200.901818 
L 72 205.294545 
L 72 209.687273 
L 72 214.08 
L 72 218.472727 
L 72 222.865455 
L 72 227.258182 
L 72 231.650909 
L 72 236.043636 
L 72 240.436364 
L 72 244.829091 
L 72 249.221818 
L 72 253.614545 
L 72 258.007273 
L 72 262.4 
L 72 266.792727 
L 72 271.185455 
L 72 275.578182 
L 72 279.970909 
L 72 284.363636 
L 72 288.756364 
L 72 293.149091 
L 72 297.541818 
L 72 301.934545 
L 72 306.327273 
L 72 310.72 
L 72 315.112727 
L 72 319.505455 
L 72 323.898182 
L 72 328.290909 
L 72 332.683636 
L 72 337.076364 
L 72 341.469091 
L 72 345.861818 
L 72 350.254545 
L 72 354.647273 
L 72 359.04 
L 72 363.432727 
L 72 367.825455 
L 72 372.218182 
L 72 376.610909 
L 72 381.003636 
L 72 385.396364 
L 72 389.789091 
L 72 394.181818 
L 72 398.574545 
L 72 402.967273 
L 72 407.36 
L 72 411.752727 
L 72 416.145455 
L 72 420.538182 
L 72 424.930909 
L 72 429.323636 
L 72 433.716364 
L 72 438.109091 
L 72 442.501818 
L 72 446.894545 
L 72 451.287273 
L 72 455.68 
L 72 460.072727 
L 72 464.465455 
L 72 468.858182 
L 72 473.250909 
L 72 477.643636 
L 72 482.036364 
L 72 486.429091 
L 72 490.821818 
L 72 495.214545 
L 72 499.607273 
L 72 504 
z
M 248.101571 319.505455 
L 245.149091 318.909934 
L 241.541818 318.157191 
L 237.934545 317.404452 
L 234.327273 316.651715 
L 232.452375 315.112727 
L 230.72 310.875874 
L 230.682759 310.72 
L 229.633256 306.327273 
L 228.583752 301.934545 
L 227.534251 297.541818 
L 227.112727 295.777519 
L 226.484747 293.149091 
L 225.435244 288.756364 
L 224.385742 284.363636 
L 223.505455 280.679171 
L 223.336238 279.970909 
L 222.4465 275.578182 
L 223.505455 273.506916 
L 225.180645 271.185455 
L 227.112727 268.507992 
L 228.350479 266.792727 
L 230.72 263.509069 
L 231.520313 262.4 
L 234.327273 260.776488 
L 237.934545 259.879668 
L 241.541818 259.045687 
L 245.149091 258.21171 
L 246.033359 258.007273 
L 248.756364 257.377732 
L 252.363636 256.543753 
L 255.970909 255.709774 
L 259.578182 254.875793 
L 263.185455 254.041817 
L 265.251341 253.614545 
L 266.792727 253.289242 
L 267.090262 253.614545 
L 268.223656 258.007273 
L 269.357061 262.4 
L 270.4 266.442154 
L 270.490453 266.792727 
L 271.623856 271.185455 
L 272.757252 275.578182 
L 273.890652 279.970909 
L 274.007273 280.422899 
L 275.024049 284.363636 
L 276.157452 288.756364 
L 277.29085 293.149091 
L 277.614545 294.403648 
L 278.424242 297.541818 
L 279.075693 301.934545 
L 277.614545 303.266302 
L 274.007273 305.307172 
L 272.204225 306.327273 
L 270.4 307.348037 
L 266.792727 309.388901 
L 264.439986 310.72 
L 263.185455 311.429772 
L 259.578182 313.47064 
L 256.675765 315.112727 
L 255.970909 315.511511 
L 252.363636 317.552378 
L 248.911536 319.505455 
L 248.756364 319.593246 
z
" style="fill:#e7745b;"/>
   </g>
   <g id="PathCollection_9">
    <path clip-path="url(#p2e06efe374)" d="M 248.756364 319.593246 
L 248.911536 319.505455 
L 252.363636 317.552378 
L 255.970909 315.511511 
L 256.675765 315.112727 
L 259.578182 313.47064 
L 263.185455 311.429772 
L 264.439986 310.72 
L 266.792727 309.388901 
L 270.4 307.348037 
L 272.204225 306.327273 
L 274.007273 305.307172 
L 277.614545 303.266302 
L 279.075693 301.934545 
L 278.424242 297.541818 
L 277.614545 294.403648 
L 277.29085 293.149091 
L 276.157452 288.756364 
L 275.024049 284.363636 
L 274.007273 280.422899 
L 273.890652 279.970909 
L 272.757252 275.578182 
L 271.623856 271.185455 
L 270.490453 266.792727 
L 270.4 266.442154 
L 269.357061 262.4 
L 268.223656 258.007273 
L 267.090262 253.614545 
L 266.792727 253.289242 
L 265.251341 253.614545 
L 263.185455 254.041817 
L 259.578182 254.875793 
L 255.970909 255.709774 
L 252.363636 256.543753 
L 248.756364 257.377732 
L 246.033359 258.007273 
L 245.149091 258.21171 
L 241.541818 259.045687 
L 237.934545 259.879668 
L 234.327273 260.776488 
L 231.520313 262.4 
L 230.72 263.509069 
L 228.350479 266.792727 
L 227.112727 268.507992 
L 225.180645 271.185455 
L 223.505455 273.506916 
L 222.4465 275.578182 
L 223.336238 279.970909 
L 223.505455 280.679171 
L 224.385742 284.363636 
L 225.435244 288.756364 
L 226.484747 293.149091 
L 227.112727 295.777519 
L 227.534251 297.541818 
L 228.583752 301.934545 
L 229.633256 306.327273 
L 230.682759 310.72 
L 230.72 310.875874 
L 232.452375 315.112727 
L 234.327273 316.651715 
L 237.934545 317.404452 
L 241.541818 318.157191 
L 245.149091 318.909934 
L 248.101571 319.505455 
z
" style="fill:#c83836;"/>
   </g>
   <g id="matplotlib.axis_1">
    <g id="xtick_1">
     <g id="line2d_1">
      <defs>
       <path d="M 0 0 
L 0 3.5 
" id="m9d6cc534b2" style="stroke:#000000;stroke-width:0.8;"/>
      </defs>
      <g>
       <use style="stroke:#000000;stroke-width:0.8;" x="107.712" xlink:href="#m9d6cc534b2" y="504"/>
      </g>
     </g>
     <g id="text_1">
      <!-- 4 -->
      <defs>
       <path d="M 10.59375 35.5 
L 73.1875 35.5 
L 73.1875 27.203125 
L 10.59375 27.203125 
z
" id="DejaVuSans-2212"/>
       <path d="M 37.796875 64.3125 
L 12.890625 25.390625 
L 37.796875 25.390625 
z
M 35.203125 72.90625 
L 47.609375 72.90625 
L 47.609375 25.390625 
L 58.015625 25.390625 
L 58.015625 17.1875 
L 47.609375 17.1875 
L 47.609375 0 
L 37.796875 0 
L 37.796875 17.1875 
L 4.890625 17.1875 
L 4.890625 26.703125 
z
" id="DejaVuSans-34"/>
      </defs>
      <g transform="translate(100.340906 518.598438)scale(0.1 -0.1)">
       <use xlink:href="#DejaVuSans-2212"/>
       <use x="83.789062" xlink:href="#DejaVuSans-34"/>
      </g>
     </g>
    </g>
    <g id="xtick_2">
     <g id="line2d_2">
      <g>
       <use style="stroke:#000000;stroke-width:0.8;" x="179.136" xlink:href="#m9d6cc534b2" y="504"/>
      </g>
     </g>
     <g id="text_2">
      <!-- 2 -->
      <defs>
       <path d="M 19.1875 8.296875 
L 53.609375 8.296875 
L 53.609375 0 
L 7.328125 0 
L 7.328125 8.296875 
Q 12.9375 14.109375 22.625 23.890625 
Q 32.328125 33.6875 34.8125 36.53125 
Q 39.546875 41.84375 41.421875 45.53125 
Q 43.3125 49.21875 43.3125 52.78125 
Q 43.3125 58.59375 39.234375 62.25 
Q 35.15625 65.921875 28.609375 65.921875 
Q 23.96875 65.921875 18.8125 64.3125 
Q 13.671875 62.703125 7.8125 59.421875 
L 7.8125 69.390625 
Q 13.765625 71.78125 18.9375 73 
Q 24.125 74.21875 28.421875 74.21875 
Q 39.75 74.21875 46.484375 68.546875 
Q 53.21875 62.890625 53.21875 53.421875 
Q 53.21875 48.921875 51.53125 44.890625 
Q 49.859375 40.875 45.40625 35.40625 
Q 44.1875 33.984375 37.640625 27.21875 
Q 31.109375 20.453125 19.1875 8.296875 
z
" id="DejaVuSans-32"/>
      </defs>
      <g transform="translate(171.764906 518.598438)scale(0.1 -0.1)">
       <use xlink:href="#DejaVuSans-2212"/>
       <use x="83.789062" xlink:href="#DejaVuSans-32"/>
      </g>
     </g>
    </g>
    <g id="xtick_3">
     <g id="line2d_3">
      <g>
       <use style="stroke:#000000;stroke-width:0.8;" x="250.56" xlink:href="#m9d6cc534b2" y="504"/>
      </g>
     </g>
     <g id="text_3">
      <!-- 0 -->
      <defs>
       <path d="M 31.78125 66.40625 
Q 24.171875 66.40625 20.328125 58.90625 
Q 16.5 51.421875 16.5 36.375 
Q 16.5 21.390625 20.328125 13.890625 
Q 24.171875 6.390625 31.78125 6.390625 
Q 39.453125 6.390625 43.28125 13.890625 
Q 47.125 21.390625 47.125 36.375 
Q 47.125 51.421875 43.28125 58.90625 
Q 39.453125 66.40625 31.78125 66.40625 
z
M 31.78125 74.21875 
Q 44.046875 74.21875 50.515625 64.515625 
Q 56.984375 54.828125 56.984375 36.375 
Q 56.984375 17.96875 50.515625 8.265625 
Q 44.046875 -1.421875 31.78125 -1.421875 
Q 19.53125 -1.421875 13.0625 8.265625 
Q 6.59375 17.96875 6.59375 36.375 
Q 6.59375 54.828125 13.0625 64.515625 
Q 19.53125 74.21875 31.78125 74.21875 
z
" id="DejaVuSans-30"/>
      </defs>
      <g transform="translate(247.37875 518.598438)scale(0.1 -0.1)">
       <use xlink:href="#DejaVuSans-30"/>
      </g>
     </g>
    </g>
    <g id="xtick_4">
     <g id="line2d_4">
      <g>
       <use style="stroke:#000000;stroke-width:0.8;" x="321.984" xlink:href="#m9d6cc534b2" y="504"/>
      </g>
     </g>
     <g id="text_4">
      <!-- 2 -->
      <g transform="translate(318.80275 518.598438)scale(0.1 -0.1)">
       <use xlink:href="#DejaVuSans-32"/>
      </g>
     </g>
    </g>
    <g id="xtick_5">
     <g id="line2d_5">
      <g>
       <use style="stroke:#000000;stroke-width:0.8;" x="393.408" xlink:href="#m9d6cc534b2" y="504"/>
      </g>
     </g>
     <g id="text_5">
      <!-- 4 -->
      <g transform="translate(390.22675 518.598438)scale(0.1 -0.1)">
       <use xlink:href="#DejaVuSans-34"/>
      </g>
     </g>
    </g>
   </g>
   <g id="matplotlib.axis_2">
    <g id="ytick_1">
     <g id="line2d_6">
      <defs>
       <path d="M 0 0 
L -3.5 0 
" id="m22c8384459" style="stroke:#000000;stroke-width:0.8;"/>
      </defs>
      <g>
       <use style="stroke:#000000;stroke-width:0.8;" x="72" xlink:href="#m22c8384459" y="460.512"/>
      </g>
     </g>
     <g id="text_6">
      <!-- 4 -->
      <g transform="translate(50.257812 464.311219)scale(0.1 -0.1)">
       <use xlink:href="#DejaVuSans-2212"/>
       <use x="83.789062" xlink:href="#DejaVuSans-34"/>
      </g>
     </g>
    </g>
    <g id="ytick_2">
     <g id="line2d_7">
      <g>
       <use style="stroke:#000000;stroke-width:0.8;" x="72" xlink:href="#m22c8384459" y="373.536"/>
      </g>
     </g>
     <g id="text_7">
      <!-- 2 -->
      <g transform="translate(50.257812 377.335219)scale(0.1 -0.1)">
       <use xlink:href="#DejaVuSans-2212"/>
       <use x="83.789062" xlink:href="#DejaVuSans-32"/>
      </g>
     </g>
    </g>
    <g id="ytick_3">
     <g id="line2d_8">
      <g>
       <use style="stroke:#000000;stroke-width:0.8;" x="72" xlink:href="#m22c8384459" y="286.56"/>
      </g>
     </g>
     <g id="text_8">
      <!-- 0 -->
      <g transform="translate(58.6375 290.359219)scale(0.1 -0.1)">
       <use xlink:href="#DejaVuSans-30"/>
      </g>
     </g>
    </g>
    <g id="ytick_4">
     <g id="line2d_9">
      <g>
       <use style="stroke:#000000;stroke-width:0.8;" x="72" xlink:href="#m22c8384459" y="199.584"/>
      </g>
     </g>
     <g id="text_9">
      <!-- 2 -->
      <g transform="translate(58.6375 203.383219)scale(0.1 -0.1)">
       <use xlink:href="#DejaVuSans-32"/>
      </g>
     </g>
    </g>
    <g id="ytick_5">
     <g id="line2d_10">
      <g>
       <use style="stroke:#000000;stroke-width:0.8;" x="72" xlink:href="#m22c8384459" y="112.608"/>
      </g>
     </g>
     <g id="text_10">
      <!-- 4 -->
      <g transform="translate(58.6375 116.407219)scale(0.1 -0.1)">
       <use xlink:href="#DejaVuSans-34"/>
      </g>
     </g>
    </g>
   </g>
   <g id="patch_3">
    <path d="M 72 504 
L 72 69.12 
" style="fill:none;stroke:#000000;stroke-linecap:square;stroke-linejoin:miter;stroke-width:0.8;"/>
   </g>
   <g id="patch_4">
    <path d="M 429.12 504 
L 429.12 69.12 
" style="fill:none;stroke:#000000;stroke-linecap:square;stroke-linejoin:miter;stroke-width:0.8;"/>
   </g>
   <g id="patch_5">
    <path d="M 72 504 
L 429.12 504 
" style="fill:none;stroke:#000000;stroke-linecap:square;stroke-linejoin:miter;stroke-width:0.8;"/>
   </g>
   <g id="patch_6">
    <path d="M 72 69.12 
L 429.12 69.12 
" style="fill:none;stroke:#000000;stroke-linecap:square;stroke-linejoin:miter;stroke-width:0.8;"/>
   </g>
  </g>
  <g id="axes_2">
   <g id="patch_7">
    <path clip-path="url(#p4f3fff8c8d)" d="M 451.44 504 
L 451.44 455.68 
L 451.44 117.44 
L 451.44 69.12 
L 473.184 69.12 
L 473.184 117.44 
L 473.184 455.68 
L 473.184 504 
z
" style="fill:#ffffff;stroke:#ffffff;stroke-linejoin:miter;stroke-width:0.01;"/>
   </g>
   <g id="QuadMesh_1">
    <path clip-path="url(#p4f3fff8c8d)" d="M 451.44 504 
L 473.184 504 
L 473.184 455.68 
L 451.44 455.68 
L 451.44 504 
" style="fill:#4b64d5;"/>
    <path clip-path="url(#p4f3fff8c8d)" d="M 451.44 455.68 
L 473.184 455.68 
L 473.184 407.36 
L 451.44 407.36 
L 451.44 455.68 
" style="fill:#6f92f3;"/>
    <path clip-path="url(#p4f3fff8c8d)" d="M 451.44 407.36 
L 473.184 407.36 
L 473.184 359.04 
L 451.44 359.04 
L 451.44 407.36 
" style="fill:#97b8ff;"/>
    <path clip-path="url(#p4f3fff8c8d)" d="M 451.44 359.04 
L 473.184 359.04 
L 473.184 310.72 
L 451.44 310.72 
L 451.44 359.04 
" style="fill:#bcd2f7;"/>
    <path clip-path="url(#p4f3fff8c8d)" d="M 451.44 310.72 
L 473.184 310.72 
L 473.184 262.4 
L 451.44 262.4 
L 451.44 310.72 
" style="fill:#dddcdc;"/>
    <path clip-path="url(#p4f3fff8c8d)" d="M 451.44 262.4 
L 473.184 262.4 
L 473.184 214.08 
L 451.44 214.08 
L 451.44 262.4 
" style="fill:#f3c8b2;"/>
    <path clip-path="url(#p4f3fff8c8d)" d="M 451.44 214.08 
L 473.184 214.08 
L 473.184 165.76 
L 451.44 165.76 
L 451.44 214.08 
" style="fill:#f6a586;"/>
    <path clip-path="url(#p4f3fff8c8d)" d="M 451.44 165.76 
L 473.184 165.76 
L 473.184 117.44 
L 451.44 117.44 
L 451.44 165.76 
" style="fill:#e7745b;"/>
    <path clip-path="url(#p4f3fff8c8d)" d="M 451.44 117.44 
L 473.184 117.44 
L 473.184 69.12 
L 451.44 69.12 
L 451.44 117.44 
" style="fill:#c83836;"/>
   </g>
   <g id="matplotlib.axis_3"/>
   <g id="matplotlib.axis_4">
    <g id="ytick_6">
     <g id="line2d_11">
      <defs>
       <path d="M 0 0 
L 3.5 0 
" id="mcdd553a93a" style="stroke:#000000;stroke-width:0.8;"/>
      </defs>
      <g>
       <use style="stroke:#000000;stroke-width:0.8;" x="473.184" xlink:href="#mcdd553a93a" y="504"/>
      </g>
     </g>
     <g id="text_11">
      <!-- 200 -->
      <g transform="translate(480.184 507.799219)scale(0.1 -0.1)">
       <use xlink:href="#DejaVuSans-2212"/>
       <use x="83.789062" xlink:href="#DejaVuSans-32"/>
       <use x="147.412109" xlink:href="#DejaVuSans-30"/>
       <use x="211.035156" xlink:href="#DejaVuSans-30"/>
      </g>
     </g>
    </g>
    <g id="ytick_7">
     <g id="line2d_12">
      <g>
       <use style="stroke:#000000;stroke-width:0.8;" x="473.184" xlink:href="#mcdd553a93a" y="455.68"/>
      </g>
     </g>
     <g id="text_12">
      <!-- 175 -->
      <defs>
       <path d="M 12.40625 8.296875 
L 28.515625 8.296875 
L 28.515625 63.921875 
L 10.984375 60.40625 
L 10.984375 69.390625 
L 28.421875 72.90625 
L 38.28125 72.90625 
L 38.28125 8.296875 
L 54.390625 8.296875 
L 54.390625 0 
L 12.40625 0 
z
" id="DejaVuSans-31"/>
       <path d="M 8.203125 72.90625 
L 55.078125 72.90625 
L 55.078125 68.703125 
L 28.609375 0 
L 18.3125 0 
L 43.21875 64.59375 
L 8.203125 64.59375 
z
" id="DejaVuSans-37"/>
       <path d="M 10.796875 72.90625 
L 49.515625 72.90625 
L 49.515625 64.59375 
L 19.828125 64.59375 
L 19.828125 46.734375 
Q 21.96875 47.46875 24.109375 47.828125 
Q 26.265625 48.1875 28.421875 48.1875 
Q 40.625 48.1875 47.75 41.5 
Q 54.890625 34.8125 54.890625 23.390625 
Q 54.890625 11.625 47.5625 5.09375 
Q 40.234375 -1.421875 26.90625 -1.421875 
Q 22.3125 -1.421875 17.546875 -0.640625 
Q 12.796875 0.140625 7.71875 1.703125 
L 7.71875 11.625 
Q 12.109375 9.234375 16.796875 8.0625 
Q 21.484375 6.890625 26.703125 6.890625 
Q 35.15625 6.890625 40.078125 11.328125 
Q 45.015625 15.765625 45.015625 23.390625 
Q 45.015625 31 40.078125 35.4375 
Q 35.15625 39.890625 26.703125 39.890625 
Q 22.75 39.890625 18.8125 39.015625 
Q 14.890625 38.140625 10.796875 36.28125 
z
" id="DejaVuSans-35"/>
      </defs>
      <g transform="translate(480.184 459.479219)scale(0.1 -0.1)">
       <use xlink:href="#DejaVuSans-2212"/>
       <use x="83.789062" xlink:href="#DejaVuSans-31"/>
       <use x="147.412109" xlink:href="#DejaVuSans-37"/>
       <use x="211.035156" xlink:href="#DejaVuSans-35"/>
      </g>
     </g>
    </g>
    <g id="ytick_8">
     <g id="line2d_13">
      <g>
       <use style="stroke:#000000;stroke-width:0.8;" x="473.184" xlink:href="#mcdd553a93a" y="407.36"/>
      </g>
     </g>
     <g id="text_13">
      <!-- 150 -->
      <g transform="translate(480.184 411.159219)scale(0.1 -0.1)">
       <use xlink:href="#DejaVuSans-2212"/>
       <use x="83.789062" xlink:href="#DejaVuSans-31"/>
       <use x="147.412109" xlink:href="#DejaVuSans-35"/>
       <use x="211.035156" xlink:href="#DejaVuSans-30"/>
      </g>
     </g>
    </g>
    <g id="ytick_9">
     <g id="line2d_14">
      <g>
       <use style="stroke:#000000;stroke-width:0.8;" x="473.184" xlink:href="#mcdd553a93a" y="359.04"/>
      </g>
     </g>
     <g id="text_14">
      <!-- 125 -->
      <g transform="translate(480.184 362.839219)scale(0.1 -0.1)">
       <use xlink:href="#DejaVuSans-2212"/>
       <use x="83.789062" xlink:href="#DejaVuSans-31"/>
       <use x="147.412109" xlink:href="#DejaVuSans-32"/>
       <use x="211.035156" xlink:href="#DejaVuSans-35"/>
      </g>
     </g>
    </g>
    <g id="ytick_10">
     <g id="line2d_15">
      <g>
       <use style="stroke:#000000;stroke-width:0.8;" x="473.184" xlink:href="#mcdd553a93a" y="310.72"/>
      </g>
     </g>
     <g id="text_15">
      <!-- 100 -->
      <g transform="translate(480.184 314.519219)scale(0.1 -0.1)">
       <use xlink:href="#DejaVuSans-2212"/>
       <use x="83.789062" xlink:href="#DejaVuSans-31"/>
       <use x="147.412109" xlink:href="#DejaVuSans-30"/>
       <use x="211.035156" xlink:href="#DejaVuSans-30"/>
      </g>
     </g>
    </g>
    <g id="ytick_11">
     <g id="line2d_16">
      <g>
       <use style="stroke:#000000;stroke-width:0.8;" x="473.184" xlink:href="#mcdd553a93a" y="262.4"/>
      </g>
     </g>
     <g id="text_16">
      <!-- 75 -->
      <g transform="translate(480.184 266.199219)scale(0.1 -0.1)">
       <use xlink:href="#DejaVuSans-2212"/>
       <use x="83.789062" xlink:href="#DejaVuSans-37"/>
       <use x="147.412109" xlink:href="#DejaVuSans-35"/>
      </g>
     </g>
    </g>
    <g id="ytick_12">
     <g id="line2d_17">
      <g>
       <use style="stroke:#000000;stroke-width:0.8;" x="473.184" xlink:href="#mcdd553a93a" y="214.08"/>
      </g>
     </g>
     <g id="text_17">
      <!-- 50 -->
      <g transform="translate(480.184 217.879219)scale(0.1 -0.1)">
       <use xlink:href="#DejaVuSans-2212"/>
       <use x="83.789062" xlink:href="#DejaVuSans-35"/>
       <use x="147.412109" xlink:href="#DejaVuSans-30"/>
      </g>
     </g>
    </g>
    <g id="ytick_13">
     <g id="line2d_18">
      <g>
       <use style="stroke:#000000;stroke-width:0.8;" x="473.184" xlink:href="#mcdd553a93a" y="165.76"/>
      </g>
     </g>
     <g id="text_18">
      <!-- 25 -->
      <g transform="translate(480.184 169.559219)scale(0.1 -0.1)">
       <use xlink:href="#DejaVuSans-2212"/>
       <use x="83.789062" xlink:href="#DejaVuSans-32"/>
       <use x="147.412109" xlink:href="#DejaVuSans-35"/>
      </g>
     </g>
    </g>
    <g id="ytick_14">
     <g id="line2d_19">
      <g>
       <use style="stroke:#000000;stroke-width:0.8;" x="473.184" xlink:href="#mcdd553a93a" y="117.44"/>
      </g>
     </g>
     <g id="text_19">
      <!-- 0 -->
      <g transform="translate(480.184 121.239219)scale(0.1 -0.1)">
       <use xlink:href="#DejaVuSans-30"/>
      </g>
     </g>
    </g>
    <g id="ytick_15">
     <g id="line2d_20">
      <g>
       <use style="stroke:#000000;stroke-width:0.8;" x="473.184" xlink:href="#mcdd553a93a" y="69.12"/>
      </g>
     </g>
     <g id="text_20">
      <!-- 25 -->
      <g transform="translate(480.184 72.919219)scale(0.1 -0.1)">
       <use xlink:href="#DejaVuSans-32"/>
       <use x="63.623047" xlink:href="#DejaVuSans-35"/>
      </g>
     </g>
    </g>
   </g>
   <g id="patch_8">
    <path d="M 451.44 504 
L 451.44 455.68 
L 451.44 117.44 
L 451.44 69.12 
L 473.184 69.12 
L 473.184 117.44 
L 473.184 455.68 
L 473.184 504 
z
" style="fill:none;stroke:#000000;stroke-linejoin:miter;stroke-width:0.8;"/>
   </g>
  </g>
 </g>
 <defs>
  <clipPath id="p2e06efe374">
   <rect height="434.88" width="357.12" x="72" y="69.12"/>
  </clipPath>
  <clipPath id="p4f3fff8c8d">
   <rect height="434.88" width="21.744" x="451.44" y="69.12"/>
  </clipPath>
 </defs>
</svg>
