<?xml version="1.0" encoding="utf-8" standalone="no"?>
<!DOCTYPE svg PUBLIC "-//W3C//DTD SVG 1.1//EN"
  "http://www.w3.org/Graphics/SVG/1.1/DTD/svg11.dtd">
<!-- Created with matplotlib (http://matplotlib.org/) -->
<svg height="576pt" version="1.1" viewBox="0 0 576 576" width="576pt" xmlns="http://www.w3.org/2000/svg" xmlns:xlink="http://www.w3.org/1999/xlink">
 <defs>
  <style type="text/css">
*{stroke-linecap:butt;stroke-linejoin:round;}
  </style>
 </defs>
 <g id="figure_1">
  <g id="patch_1">
   <path d="M 0 576 
L 576 576 
L 576 0 
L 0 0 
z
" style="fill:#ffffff;"/>
  </g>
  <g id="axes_1">
   <g id="patch_2">
    <path d="M 72 504 
L 429.12 504 
L 429.12 69.12 
L 72 69.12 
z
" style="fill:#ffffff;"/>
   </g>
   <g id="PathCollection_1">
    <path clip-path="url(#pe64c16ed37)" d="M 72.43288 99.869091 
L 75.45746 95.476364 
L 75.607273 95.258786 
L 78.482072 91.083636 
L 79.214545 90.019851 
L 81.506713 86.690909 
L 82.821818 84.780955 
L 84.531331 82.298182 
L 86.429091 79.542013 
L 87.555954 77.905455 
L 90.036364 74.303081 
L 90.580555 73.512727 
L 93.605167 69.12 
L 90.036364 69.12 
L 86.429091 69.12 
L 82.821818 69.12 
L 79.214545 69.12 
L 75.607273 69.12 
L 72 69.12 
L 72 73.512727 
L 72 77.905455 
L 72 82.298182 
L 72 86.690909 
L 72 91.083636 
L 72 95.476364 
L 72 99.869091 
L 72 100.497781 
z
" style="fill:#4e68d8;"/>
   </g>
   <g id="PathCollection_2">
    <path clip-path="url(#pe64c16ed37)" d="M 421.905455 504 
L 425.512727 504 
L 429.12 504 
L 429.12 499.607273 
L 429.12 495.214545 
L 429.12 490.821818 
L 429.12 486.429091 
L 429.12 482.036364 
L 429.12 477.643636 
L 429.12 473.250909 
L 429.12 468.858182 
L 429.12 464.465455 
L 429.12 460.072727 
L 429.12 455.68 
L 429.12 451.287273 
L 429.12 446.894545 
L 429.12 442.501818 
L 429.12 440.048723 
L 427.999123 442.501818 
L 426.821514 446.894545 
L 426.259901 451.287273 
L 425.698294 455.68 
L 425.512727 457.131406 
L 425.13667 460.072727 
L 424.575046 464.465455 
L 424.013445 468.858182 
L 423.45182 473.250909 
L 422.89021 477.643636 
L 422.328605 482.036364 
L 421.905455 485.346037 
L 421.766983 486.429091 
L 421.205364 490.821818 
L 420.643749 495.214545 
L 420.082154 499.607273 
L 419.520539 504 
z
" style="fill:#779af7;"/>
    <path clip-path="url(#pe64c16ed37)" d="M 74.232198 165.76 
L 75.607273 163.762945 
L 77.25684 161.367273 
L 79.214545 158.524041 
L 80.281444 156.974545 
L 82.821818 153.285089 
L 83.306058 152.581818 
L 86.330702 148.189091 
L 86.429091 148.046199 
L 89.355282 143.796364 
L 90.036364 142.8072 
L 92.379908 139.403636 
L 93.643636 137.568294 
L 95.40452 135.010909 
L 97.250909 132.329374 
L 98.429144 130.618182 
L 100.858182 127.090427 
L 101.453756 126.225455 
L 104.465455 121.851438 
L 104.478338 121.832727 
L 107.50295 117.44 
L 108.072727 116.612501 
L 110.527579 113.047273 
L 111.68 111.37357 
L 113.552192 108.654545 
L 115.287273 106.134665 
L 116.576814 104.261818 
L 118.894545 100.895676 
L 119.601404 99.869091 
L 122.501818 95.656731 
L 122.62601 95.476364 
L 125.650636 91.083636 
L 126.109091 90.417817 
L 128.675268 86.690909 
L 129.716364 85.178897 
L 131.69988 82.298182 
L 133.323636 80.674648 
L 136.930909 79.141656 
L 140.010482 77.905455 
L 140.538182 77.693625 
L 144.145455 76.245595 
L 147.752727 74.797558 
L 150.953496 73.512727 
L 151.36 73.349552 
L 154.967273 71.901522 
L 158.574545 70.453485 
L 161.896482 69.12 
L 158.574545 69.12 
L 154.967273 69.12 
L 151.36 69.12 
L 147.752727 69.12 
L 144.145455 69.12 
L 140.538182 69.12 
L 136.930909 69.12 
L 133.323636 69.12 
L 129.716364 69.12 
L 126.109091 69.12 
L 122.501818 69.12 
L 118.894545 69.12 
L 115.287273 69.12 
L 111.68 69.12 
L 108.072727 69.12 
L 104.465455 69.12 
L 100.858182 69.12 
L 97.250909 69.12 
L 93.643636 69.12 
L 93.605167 69.12 
L 90.580555 73.512727 
L 90.036364 74.303081 
L 87.555954 77.905455 
L 86.429091 79.542013 
L 84.531331 82.298182 
L 82.821818 84.780955 
L 81.506713 86.690909 
L 79.214545 90.019851 
L 78.482072 91.083636 
L 75.607273 95.258786 
L 75.45746 95.476364 
L 72.43288 99.869091 
L 72 100.497781 
L 72 104.261818 
L 72 108.654545 
L 72 113.047273 
L 72 117.44 
L 72 121.832727 
L 72 126.225455 
L 72 130.618182 
L 72 135.010909 
L 72 139.403636 
L 72 143.796364 
L 72 148.189091 
L 72 152.581818 
L 72 156.974545 
L 72 161.367273 
L 72 165.76 
L 72 169.001877 
z
" style="fill:#779af7;"/>
    <path clip-path="url(#pe64c16ed37)" d="M 429.12 125.121268 
L 429.12 121.832727 
L 429.12 117.44 
L 429.12 113.047273 
L 429.12 108.654545 
L 429.12 104.261818 
L 429.12 99.869091 
L 429.12 95.476364 
L 429.12 91.083636 
L 429.12 86.690909 
L 429.12 82.298182 
L 429.12 77.905455 
L 429.12 73.512727 
L 429.12 69.12 
L 425.512727 69.12 
L 421.905455 69.12 
L 418.298182 69.12 
L 414.690909 69.12 
L 411.083636 69.12 
L 407.476364 69.12 
L 403.869091 69.12 
L 400.261818 69.12 
L 396.654545 69.12 
L 393.047273 69.12 
L 389.44 69.12 
L 385.832727 69.12 
L 382.225455 69.12 
L 378.618182 69.12 
L 375.010909 69.12 
L 371.403636 69.12 
L 367.796364 69.12 
L 364.189091 69.12 
L 360.581818 69.12 
L 356.974545 69.12 
L 353.367273 69.12 
L 349.76 69.12 
L 346.152727 69.12 
L 342.545455 69.12 
L 338.938182 69.12 
L 335.330909 69.12 
L 332.523091 69.12 
L 335.330909 69.56186 
L 338.938182 70.129564 
L 342.545455 70.697256 
L 346.152727 71.264961 
L 349.76 71.832645 
L 353.367273 72.400358 
L 356.974545 72.968044 
L 360.435647 73.512727 
L 360.581818 73.535731 
L 364.189091 74.103449 
L 367.796364 74.671124 
L 371.403636 75.238854 
L 375.010909 75.806541 
L 378.618182 76.374221 
L 382.225455 76.94195 
L 385.832727 77.509629 
L 388.347922 77.905455 
L 389.44 78.077319 
L 393.047273 78.645023 
L 396.654545 79.212702 
L 400.261818 79.780409 
L 403.869091 80.348094 
L 407.476364 80.915792 
L 411.083636 81.483488 
L 414.690909 82.051157 
L 415.236365 82.298182 
L 418.298182 84.788549 
L 419.756622 86.690909 
L 421.905455 89.651245 
L 422.595647 91.083636 
L 423.437639 95.476364 
L 424.279647 99.869091 
L 425.121636 104.261818 
L 425.512727 106.302129 
L 425.963647 108.654545 
L 426.805653 113.047273 
L 427.647656 117.44 
L 428.489662 121.832727 
z
" style="fill:#779af7;"/>
   </g>
   <g id="PathCollection_3">
    <path clip-path="url(#pe64c16ed37)" d="M 382.225455 504 
L 385.832727 504 
L 389.44 504 
L 393.047273 504 
L 396.654545 504 
L 400.261818 504 
L 403.869091 504 
L 407.476364 504 
L 411.083636 504 
L 414.690909 504 
L 418.298182 504 
L 419.520539 504 
L 420.082154 499.607273 
L 420.643749 495.214545 
L 421.205364 490.821818 
L 421.766983 486.429091 
L 421.905455 485.346037 
L 422.328605 482.036364 
L 422.89021 477.643636 
L 423.45182 473.250909 
L 424.013445 468.858182 
L 424.575046 464.465455 
L 425.13667 460.072727 
L 425.512727 457.131406 
L 425.698294 455.68 
L 426.259901 451.287273 
L 426.821514 446.894545 
L 427.999123 442.501818 
L 429.12 440.048723 
L 429.12 438.109091 
L 429.12 433.716364 
L 429.12 429.323636 
L 429.12 424.930909 
L 429.12 420.538182 
L 429.12 416.145455 
L 429.12 411.752727 
L 429.12 407.36 
L 429.12 402.967273 
L 429.12 398.574545 
L 429.12 394.181818 
L 429.12 389.789091 
L 429.12 385.396364 
L 429.12 381.003636 
L 429.12 376.610909 
L 429.12 372.218182 
L 429.12 367.825455 
L 429.12 363.432727 
L 429.12 359.04 
L 429.12 354.647273 
L 429.12 350.254545 
L 429.12 345.861818 
L 429.12 341.469091 
L 429.12 340.50573 
L 428.679814 341.469091 
L 426.672677 345.861818 
L 425.512727 348.400427 
L 424.665529 350.254545 
L 422.658387 354.647273 
L 421.905455 356.295101 
L 420.651244 359.04 
L 418.644085 363.432727 
L 418.298182 364.189759 
L 416.636968 367.825455 
L 414.690909 372.084481 
L 414.629818 372.218182 
L 412.622668 376.610909 
L 411.083636 379.979198 
L 410.615548 381.003636 
L 408.60839 385.396364 
L 407.476364 387.873837 
L 406.601235 389.789091 
L 404.594099 394.181818 
L 403.869091 395.768562 
L 402.586981 398.574545 
L 400.579821 402.967273 
L 400.261818 403.663238 
L 398.572671 407.36 
L 396.654545 411.557925 
L 396.565537 411.752727 
L 394.558387 416.145455 
L 393.047273 419.452616 
L 392.551252 420.538182 
L 391.217466 424.930909 
L 390.655851 429.323636 
L 390.094232 433.716364 
L 389.532636 438.109091 
L 389.44 438.833648 
L 388.971013 442.501818 
L 388.409397 446.894545 
L 387.847793 451.287273 
L 387.286178 455.68 
L 386.724567 460.072727 
L 386.162947 464.465455 
L 385.832727 467.048279 
L 385.601327 468.858182 
L 385.039719 473.250909 
L 384.478115 477.643636 
L 383.916511 482.036364 
L 383.354882 486.429091 
L 382.793275 490.821818 
L 382.231653 495.214545 
L 382.225455 495.263026 
L 381.670048 499.607273 
L 380.698108 504 
z
" style="fill:#a3c2fe;"/>
    <path clip-path="url(#pe64c16ed37)" d="M 429.12 324.384894 
L 429.12 323.898182 
L 429.12 319.505455 
L 429.12 315.112727 
L 429.12 310.72 
L 429.12 306.327273 
L 429.12 301.934545 
L 429.12 297.541818 
L 429.12 293.149091 
L 429.12 288.756364 
L 429.12 284.363636 
L 429.12 279.970909 
L 429.12 275.578182 
L 429.12 271.185455 
L 429.12 266.792727 
L 429.12 262.4 
L 429.12 258.007273 
L 429.12 253.614545 
L 429.12 249.221818 
L 429.12 244.829091 
L 429.12 240.436364 
L 429.12 236.043636 
L 429.12 231.650909 
L 429.12 227.258182 
L 429.12 222.865455 
L 429.12 218.472727 
L 429.12 214.08 
L 429.12 209.687273 
L 429.12 205.294545 
L 429.12 200.901818 
L 429.12 196.509091 
L 429.12 192.116364 
L 429.12 187.723636 
L 429.12 183.330909 
L 429.12 178.938182 
L 429.12 174.545455 
L 429.12 170.152727 
L 429.12 165.76 
L 429.12 161.367273 
L 429.12 156.974545 
L 429.12 152.581818 
L 429.12 148.189091 
L 429.12 143.796364 
L 429.12 139.403636 
L 429.12 135.010909 
L 429.12 130.618182 
L 429.12 126.225455 
L 429.12 125.121268 
L 428.489662 121.832727 
L 427.647656 117.44 
L 426.805653 113.047273 
L 425.963647 108.654545 
L 425.512727 106.302129 
L 425.121636 104.261818 
L 424.279647 99.869091 
L 423.437639 95.476364 
L 422.595647 91.083636 
L 421.905455 89.651245 
L 419.756622 86.690909 
L 418.298182 84.788549 
L 415.236365 82.298182 
L 414.690909 82.051157 
L 411.083636 81.483488 
L 407.476364 80.915792 
L 403.869091 80.348094 
L 400.261818 79.780409 
L 396.654545 79.212702 
L 393.047273 78.645023 
L 389.44 78.077319 
L 388.347922 77.905455 
L 385.832727 77.509629 
L 382.225455 76.94195 
L 378.618182 76.374221 
L 375.010909 75.806541 
L 371.403636 75.238854 
L 367.796364 74.671124 
L 364.189091 74.103449 
L 360.581818 73.535731 
L 360.435647 73.512727 
L 356.974545 72.968044 
L 353.367273 72.400358 
L 349.76 71.832645 
L 346.152727 71.264961 
L 342.545455 70.697256 
L 338.938182 70.129564 
L 335.330909 69.56186 
L 332.523091 69.12 
L 331.723636 69.12 
L 328.116364 69.12 
L 324.509091 69.12 
L 320.901818 69.12 
L 317.294545 69.12 
L 313.687273 69.12 
L 310.08 69.12 
L 306.472727 69.12 
L 302.865455 69.12 
L 299.258182 69.12 
L 295.650909 69.12 
L 292.043636 69.12 
L 288.436364 69.12 
L 284.829091 69.12 
L 281.221818 69.12 
L 277.614545 69.12 
L 274.007273 69.12 
L 270.4 69.12 
L 266.792727 69.12 
L 263.185455 69.12 
L 259.578182 69.12 
L 255.970909 69.12 
L 252.363636 69.12 
L 248.756364 69.12 
L 245.149091 69.12 
L 241.541818 69.12 
L 237.934545 69.12 
L 234.327273 69.12 
L 230.72 69.12 
L 227.112727 69.12 
L 223.505455 69.12 
L 219.898182 69.12 
L 216.290909 69.12 
L 212.683636 69.12 
L 209.076364 69.12 
L 205.469091 69.12 
L 201.861818 69.12 
L 198.254545 69.12 
L 194.647273 69.12 
L 191.04 69.12 
L 187.432727 69.12 
L 183.825455 69.12 
L 180.218182 69.12 
L 176.610909 69.12 
L 173.003636 69.12 
L 169.396364 69.12 
L 165.789091 69.12 
L 162.181818 69.12 
L 161.896482 69.12 
L 158.574545 70.453485 
L 154.967273 71.901522 
L 151.36 73.349552 
L 150.953496 73.512727 
L 147.752727 74.797558 
L 144.145455 76.245595 
L 140.538182 77.693625 
L 140.010482 77.905455 
L 136.930909 79.141656 
L 133.323636 80.674648 
L 131.69988 82.298182 
L 129.716364 85.178897 
L 128.675268 86.690909 
L 126.109091 90.417817 
L 125.650636 91.083636 
L 122.62601 95.476364 
L 122.501818 95.656731 
L 119.601404 99.869091 
L 118.894545 100.895676 
L 116.576814 104.261818 
L 115.287273 106.134665 
L 113.552192 108.654545 
L 111.68 111.37357 
L 110.527579 113.047273 
L 108.072727 116.612501 
L 107.50295 117.44 
L 104.478338 121.832727 
L 104.465455 121.851438 
L 101.453756 126.225455 
L 100.858182 127.090427 
L 98.429144 130.618182 
L 97.250909 132.329374 
L 95.40452 135.010909 
L 93.643636 137.568294 
L 92.379908 139.403636 
L 90.036364 142.8072 
L 89.355282 143.796364 
L 86.429091 148.046199 
L 86.330702 148.189091 
L 83.306058 152.581818 
L 82.821818 153.285089 
L 80.281444 156.974545 
L 79.214545 158.524041 
L 77.25684 161.367273 
L 75.607273 163.762945 
L 74.232198 165.76 
L 72 169.001877 
L 72 170.152727 
L 72 174.545455 
L 72 178.938182 
L 72 183.330909 
L 72 187.723636 
L 72 192.116364 
L 72 196.509091 
L 72 200.901818 
L 72 205.294545 
L 72 209.687273 
L 72 214.08 
L 72 218.472727 
L 72 222.865455 
L 72 227.258182 
L 72 231.650909 
L 72 235.489676 
L 75.607273 232.102437 
L 76.031556 231.650909 
L 79.056203 227.258182 
L 79.214545 227.028215 
L 82.080794 222.865455 
L 82.821818 221.789244 
L 85.105414 218.472727 
L 86.429091 216.550323 
L 88.130013 214.08 
L 90.036364 211.31134 
L 91.154615 209.687273 
L 93.643636 206.072441 
L 94.179257 205.294545 
L 97.203856 200.901818 
L 97.250909 200.833482 
L 100.22845 196.509091 
L 100.858182 195.59452 
L 103.253092 192.116364 
L 104.465455 190.355625 
L 106.277701 187.723636 
L 108.072727 185.116657 
L 109.30231 183.330909 
L 111.68 179.877741 
L 112.326933 178.938182 
L 115.287273 174.638773 
L 115.351527 174.545455 
L 118.376154 170.152727 
L 118.894545 169.399857 
L 121.400769 165.76 
L 122.501818 164.160915 
L 124.42539 161.367273 
L 126.109091 158.921985 
L 127.450005 156.974545 
L 129.716364 153.683084 
L 130.474636 152.581818 
L 133.323636 148.444116 
L 133.499234 148.189091 
L 136.523827 143.796364 
L 136.930909 143.205151 
L 139.54847 139.403636 
L 140.538182 137.966241 
L 142.573061 135.010909 
L 144.145455 132.727303 
L 145.597699 130.618182 
L 147.752727 127.488374 
L 148.622306 126.225455 
L 151.36 122.249382 
L 151.646888 121.832727 
L 154.967273 117.668249 
L 155.406658 117.44 
L 158.574545 116.168358 
L 162.181818 114.720326 
L 165.789091 113.272321 
L 166.34972 113.047273 
L 169.396364 111.824285 
L 173.003636 110.376267 
L 176.610909 108.928232 
L 177.292709 108.654545 
L 180.218182 107.480217 
L 183.825455 106.032194 
L 187.432727 104.584176 
L 188.235777 104.261818 
L 191.04 103.136157 
L 194.647273 101.688131 
L 198.254545 100.240103 
L 199.178791 99.869091 
L 201.861818 98.792071 
L 205.469091 97.344068 
L 209.076364 95.89603 
L 210.121827 95.476364 
L 212.683636 94.448011 
L 216.290909 92.999975 
L 219.898182 93.184814 
L 223.505455 93.752501 
L 227.112727 94.320199 
L 230.72 94.887901 
L 234.327273 95.455592 
L 234.459262 95.476364 
L 237.934545 96.023279 
L 241.541818 96.590993 
L 245.149091 97.158683 
L 248.756364 97.72637 
L 252.363636 98.294088 
L 255.970909 98.861759 
L 259.578182 99.429463 
L 262.371661 99.869091 
L 263.185455 99.997164 
L 266.792727 100.564879 
L 270.4 101.132557 
L 274.007273 101.700248 
L 277.614545 102.26795 
L 281.221818 102.835633 
L 284.829091 103.403343 
L 288.436364 103.971048 
L 290.284013 104.261818 
L 292.043636 104.538735 
L 295.650909 105.106421 
L 299.258182 105.674124 
L 302.865455 106.241812 
L 306.472727 106.809529 
L 310.08 107.377208 
L 313.687273 107.944933 
L 317.294545 108.512588 
L 318.196541 108.654545 
L 320.901818 109.080308 
L 324.509091 109.648002 
L 328.116364 110.215695 
L 331.723636 110.783389 
L 335.330909 111.351084 
L 338.938182 111.918786 
L 342.545455 112.486489 
L 346.108866 113.047273 
L 346.152727 113.054175 
L 349.76 113.621866 
L 353.367273 114.189564 
L 356.974545 114.757267 
L 360.581818 115.324953 
L 364.189091 115.892671 
L 367.796364 116.460367 
L 371.403636 117.028062 
L 374.021241 117.44 
L 375.010909 117.595747 
L 378.618182 118.163423 
L 382.225455 118.731129 
L 385.832727 119.349937 
L 389.159755 121.832727 
L 389.44 122.266792 
L 391.136625 126.225455 
L 391.978612 130.618182 
L 392.820647 135.010909 
L 393.047273 136.193239 
L 393.662633 139.403636 
L 394.504633 143.796364 
L 395.346633 148.189091 
L 396.188643 152.581818 
L 396.654545 155.012374 
L 397.030656 156.974545 
L 397.872628 161.367273 
L 398.714631 165.76 
L 399.556647 170.152727 
L 400.261818 173.831678 
L 400.398634 174.545455 
L 401.240629 178.938182 
L 402.082655 183.330909 
L 402.924651 187.723636 
L 403.766648 192.116364 
L 403.869091 192.650813 
L 404.608648 196.509091 
L 405.450641 200.901818 
L 406.292648 205.294545 
L 407.134649 209.687273 
L 407.476364 211.47001 
L 407.976652 214.08 
L 408.818644 218.472727 
L 409.660665 222.865455 
L 410.502662 227.258182 
L 411.083636 230.28908 
L 411.344677 231.650909 
L 412.186677 236.043636 
L 413.028677 240.436364 
L 413.870692 244.829091 
L 414.690909 249.108252 
L 414.712677 249.221818 
L 415.554692 253.614545 
L 416.396692 258.007273 
L 417.238692 262.4 
L 418.080706 266.792727 
L 418.298182 267.92732 
L 418.922692 271.185455 
L 419.764706 275.578182 
L 420.606692 279.970909 
L 421.448681 284.363636 
L 421.905455 286.746609 
L 422.290692 288.756364 
L 423.132706 293.149091 
L 423.9747 297.541818 
L 424.816707 301.934545 
L 425.512727 305.565634 
L 425.658721 306.327273 
L 426.500707 310.72 
L 427.342692 315.112727 
L 428.184721 319.505455 
L 429.026707 323.898182 
z
" style="fill:#a3c2fe;"/>
   </g>
   <g id="PathCollection_4">
    <path clip-path="url(#pe64c16ed37)" d="M 310.08 504 
L 313.687273 504 
L 317.294545 504 
L 320.901818 504 
L 324.509091 504 
L 328.116364 504 
L 331.723636 504 
L 335.330909 504 
L 338.938182 504 
L 342.545455 504 
L 346.152727 504 
L 349.76 504 
L 353.367273 504 
L 356.974545 504 
L 360.581818 504 
L 364.189091 504 
L 367.796364 504 
L 371.403636 504 
L 375.010909 504 
L 378.618182 504 
L 380.698108 504 
L 381.670048 499.607273 
L 382.225455 495.263026 
L 382.231653 495.214545 
L 382.793275 490.821818 
L 383.354882 486.429091 
L 383.916511 482.036364 
L 384.478115 477.643636 
L 385.039719 473.250909 
L 385.601327 468.858182 
L 385.832727 467.048279 
L 386.162947 464.465455 
L 386.724567 460.072727 
L 387.286178 455.68 
L 387.847793 451.287273 
L 388.409397 446.894545 
L 388.971013 442.501818 
L 389.44 438.833648 
L 389.532636 438.109091 
L 390.094232 433.716364 
L 390.655851 429.323636 
L 391.217466 424.930909 
L 392.551252 420.538182 
L 393.047273 419.452616 
L 394.558387 416.145455 
L 396.565537 411.752727 
L 396.654545 411.557925 
L 398.572671 407.36 
L 400.261818 403.663238 
L 400.579821 402.967273 
L 402.586981 398.574545 
L 403.869091 395.768562 
L 404.594099 394.181818 
L 406.601235 389.789091 
L 407.476364 387.873837 
L 408.60839 385.396364 
L 410.615548 381.003636 
L 411.083636 379.979198 
L 412.622668 376.610909 
L 414.629818 372.218182 
L 414.690909 372.084481 
L 416.636968 367.825455 
L 418.298182 364.189759 
L 418.644085 363.432727 
L 420.651244 359.04 
L 421.905455 356.295101 
L 422.658387 354.647273 
L 424.665529 350.254545 
L 425.512727 348.400427 
L 426.672677 345.861818 
L 428.679814 341.469091 
L 429.12 340.50573 
L 429.12 337.076364 
L 429.12 332.683636 
L 429.12 328.290909 
L 429.12 324.384894 
L 429.026707 323.898182 
L 428.184721 319.505455 
L 427.342692 315.112727 
L 426.500707 310.72 
L 425.658721 306.327273 
L 425.512727 305.565634 
L 424.816707 301.934545 
L 423.9747 297.541818 
L 423.132706 293.149091 
L 422.290692 288.756364 
L 421.905455 286.746609 
L 421.448681 284.363636 
L 420.606692 279.970909 
L 419.764706 275.578182 
L 418.922692 271.185455 
L 418.298182 267.92732 
L 418.080706 266.792727 
L 417.238692 262.4 
L 416.396692 258.007273 
L 415.554692 253.614545 
L 414.712677 249.221818 
L 414.690909 249.108252 
L 413.870692 244.829091 
L 413.028677 240.436364 
L 412.186677 236.043636 
L 411.344677 231.650909 
L 411.083636 230.28908 
L 410.502662 227.258182 
L 409.660665 222.865455 
L 408.818644 218.472727 
L 407.976652 214.08 
L 407.476364 211.47001 
L 407.134649 209.687273 
L 406.292648 205.294545 
L 405.450641 200.901818 
L 404.608648 196.509091 
L 403.869091 192.650813 
L 403.766648 192.116364 
L 402.924651 187.723636 
L 402.082655 183.330909 
L 401.240629 178.938182 
L 400.398634 174.545455 
L 400.261818 173.831678 
L 399.556647 170.152727 
L 398.714631 165.76 
L 397.872628 161.367273 
L 397.030656 156.974545 
L 396.654545 155.012374 
L 396.188643 152.581818 
L 395.346633 148.189091 
L 394.504633 143.796364 
L 393.662633 139.403636 
L 393.047273 136.193239 
L 392.820647 135.010909 
L 391.978612 130.618182 
L 391.136625 126.225455 
L 389.44 122.266792 
L 389.159755 121.832727 
L 385.832727 119.349937 
L 382.225455 118.731129 
L 378.618182 118.163423 
L 375.010909 117.595747 
L 374.021241 117.44 
L 371.403636 117.028062 
L 367.796364 116.460367 
L 364.189091 115.892671 
L 360.581818 115.324953 
L 356.974545 114.757267 
L 353.367273 114.189564 
L 349.76 113.621866 
L 346.152727 113.054175 
L 346.108866 113.047273 
L 342.545455 112.486489 
L 338.938182 111.918786 
L 335.330909 111.351084 
L 331.723636 110.783389 
L 328.116364 110.215695 
L 324.509091 109.648002 
L 320.901818 109.080308 
L 318.196541 108.654545 
L 317.294545 108.512588 
L 313.687273 107.944933 
L 310.08 107.377208 
L 306.472727 106.809529 
L 302.865455 106.241812 
L 299.258182 105.674124 
L 295.650909 105.106421 
L 292.043636 104.538735 
L 290.284013 104.261818 
L 288.436364 103.971048 
L 284.829091 103.403343 
L 281.221818 102.835633 
L 277.614545 102.26795 
L 274.007273 101.700248 
L 270.4 101.132557 
L 266.792727 100.564879 
L 263.185455 99.997164 
L 262.371661 99.869091 
L 259.578182 99.429463 
L 255.970909 98.861759 
L 252.363636 98.294088 
L 248.756364 97.72637 
L 245.149091 97.158683 
L 241.541818 96.590993 
L 237.934545 96.023279 
L 234.459262 95.476364 
L 234.327273 95.455592 
L 230.72 94.887901 
L 227.112727 94.320199 
L 223.505455 93.752501 
L 219.898182 93.184814 
L 216.290909 92.999975 
L 212.683636 94.448011 
L 210.121827 95.476364 
L 209.076364 95.89603 
L 205.469091 97.344068 
L 201.861818 98.792071 
L 199.178791 99.869091 
L 198.254545 100.240103 
L 194.647273 101.688131 
L 191.04 103.136157 
L 188.235777 104.261818 
L 187.432727 104.584176 
L 183.825455 106.032194 
L 180.218182 107.480217 
L 177.292709 108.654545 
L 176.610909 108.928232 
L 173.003636 110.376267 
L 169.396364 111.824285 
L 166.34972 113.047273 
L 165.789091 113.272321 
L 162.181818 114.720326 
L 158.574545 116.168358 
L 155.406658 117.44 
L 154.967273 117.668249 
L 151.646888 121.832727 
L 151.36 122.249382 
L 148.622306 126.225455 
L 147.752727 127.488374 
L 145.597699 130.618182 
L 144.145455 132.727303 
L 142.573061 135.010909 
L 140.538182 137.966241 
L 139.54847 139.403636 
L 136.930909 143.205151 
L 136.523827 143.796364 
L 133.499234 148.189091 
L 133.323636 148.444116 
L 130.474636 152.581818 
L 129.716364 153.683084 
L 127.450005 156.974545 
L 126.109091 158.921985 
L 124.42539 161.367273 
L 122.501818 164.160915 
L 121.400769 165.76 
L 118.894545 169.399857 
L 118.376154 170.152727 
L 115.351527 174.545455 
L 115.287273 174.638773 
L 112.326933 178.938182 
L 111.68 179.877741 
L 109.30231 183.330909 
L 108.072727 185.116657 
L 106.277701 187.723636 
L 104.465455 190.355625 
L 103.253092 192.116364 
L 100.858182 195.59452 
L 100.22845 196.509091 
L 97.250909 200.833482 
L 97.203856 200.901818 
L 94.179257 205.294545 
L 93.643636 206.072441 
L 91.154615 209.687273 
L 90.036364 211.31134 
L 88.130013 214.08 
L 86.429091 216.550323 
L 85.105414 218.472727 
L 82.821818 221.789244 
L 82.080794 222.865455 
L 79.214545 227.028215 
L 79.056203 227.258182 
L 76.031556 231.650909 
L 75.607273 232.102437 
L 72 235.489676 
L 72 236.043636 
L 72 240.436364 
L 72 244.829091 
L 72 249.221818 
L 72 253.614545 
L 72 258.007273 
L 72 262.4 
L 72 266.792727 
L 72 271.185455 
L 72 275.578182 
L 72 279.970909 
L 72 284.363636 
L 72 288.756364 
L 72 293.149091 
L 72 297.541818 
L 72 301.934545 
L 72 306.327273 
L 72 310.72 
L 72 315.112727 
L 72 319.505455 
L 72 323.898182 
L 72 328.290909 
L 72 332.683636 
L 72 337.076364 
L 72 341.469091 
L 72 345.861818 
L 72 350.254545 
L 72 354.647273 
L 72 359.04 
L 72 363.432727 
L 72 367.825455 
L 72 372.218182 
L 72 376.610909 
L 72 381.003636 
L 72 385.396364 
L 72 389.789091 
L 72 394.181818 
L 72 394.246171 
L 72.018842 394.181818 
L 73.304999 389.789091 
L 74.591189 385.396364 
L 75.607273 381.926073 
L 75.877359 381.003636 
L 77.163548 376.610909 
L 78.449723 372.218182 
L 79.214545 369.606066 
L 79.7359 367.825455 
L 81.022077 363.432727 
L 82.308256 359.04 
L 82.821818 357.285997 
L 83.594427 354.647273 
L 84.880606 350.254545 
L 86.16678 345.861818 
L 86.429091 344.965941 
L 87.452965 341.469091 
L 88.739137 337.076364 
L 90.02533 332.683636 
L 90.036364 332.645951 
L 91.311496 328.290909 
L 92.597674 323.898182 
L 93.643636 320.325877 
L 93.883853 319.505455 
L 95.170035 315.112727 
L 96.456211 310.72 
L 97.250909 308.005796 
L 97.742371 306.327273 
L 99.02856 301.934545 
L 100.314747 297.541818 
L 100.858182 295.68582 
L 101.600927 293.149091 
L 102.887097 288.756364 
L 104.173266 284.363636 
L 104.465455 283.365722 
L 105.459453 279.970909 
L 106.745615 275.578182 
L 108.03179 271.185455 
L 108.072727 271.045642 
L 109.317977 266.792727 
L 110.604158 262.4 
L 111.68 258.725632 
L 111.890332 258.007273 
L 112.757401 253.614545 
L 112.676674 249.221818 
L 114.126276 244.829091 
L 115.287273 243.142949 
L 117.150886 240.436364 
L 118.894545 237.904005 
L 120.175505 236.043636 
L 122.501818 232.665056 
L 123.200108 231.650909 
L 126.109091 227.426134 
L 126.224734 227.258182 
L 129.249346 222.865455 
L 129.716364 222.187188 
L 132.273965 218.472727 
L 133.323636 216.948267 
L 135.298574 214.08 
L 136.930909 211.709321 
L 138.323187 209.687273 
L 140.538182 206.470385 
L 141.347809 205.294545 
L 144.145455 201.231437 
L 144.372414 200.901818 
L 147.397018 196.509091 
L 147.752727 195.992482 
L 150.421642 192.116364 
L 151.36 190.753567 
L 153.446258 187.723636 
L 154.967273 185.514618 
L 156.470872 183.330909 
L 158.574545 180.275673 
L 159.49547 178.938182 
L 162.181818 175.036754 
L 162.520101 174.545455 
L 165.544704 170.152727 
L 165.789091 169.797801 
L 168.569335 165.76 
L 169.396364 164.55888 
L 171.593943 161.367273 
L 173.003636 159.319929 
L 174.618544 156.974545 
L 176.610909 154.849883 
L 180.218182 153.195073 
L 181.7459 152.581818 
L 183.825455 151.747048 
L 187.432727 150.299028 
L 191.04 148.851 
L 192.688925 148.189091 
L 194.647273 147.402975 
L 198.254545 145.954963 
L 201.861818 144.506928 
L 203.63197 143.796364 
L 205.469091 143.058916 
L 209.076364 141.610891 
L 212.683636 140.162855 
L 214.574985 139.403636 
L 216.290909 138.714836 
L 219.898182 137.266809 
L 223.505455 135.818782 
L 227.112727 136.109432 
L 230.72 136.67712 
L 234.327273 137.244826 
L 237.934545 137.812517 
L 241.541818 138.380219 
L 245.149091 138.947905 
L 248.044876 139.403636 
L 248.756364 139.515608 
L 252.363636 140.083281 
L 255.970909 140.651003 
L 259.578182 141.218674 
L 263.185455 141.786386 
L 266.792727 142.354088 
L 270.4 142.921781 
L 274.007273 143.489469 
L 275.957302 143.796364 
L 277.614545 144.05718 
L 281.221818 144.624882 
L 284.829091 145.192568 
L 288.436364 145.760262 
L 292.043636 146.327964 
L 295.650909 146.895664 
L 299.258182 147.463361 
L 302.865455 148.031056 
L 303.869644 148.189091 
L 306.472727 148.59875 
L 310.08 149.166441 
L 313.687273 149.734137 
L 317.294545 150.301846 
L 320.901818 150.869538 
L 324.509091 151.437231 
L 328.116364 152.004934 
L 331.723636 152.572636 
L 331.781982 152.581818 
L 335.330909 153.140336 
L 338.938182 153.708019 
L 342.545455 154.275716 
L 346.152727 154.84341 
L 349.76 155.411111 
L 353.367273 155.978819 
L 356.974545 156.546503 
L 357.634801 156.974545 
L 359.677601 161.367273 
L 360.519589 165.76 
L 360.581818 166.084636 
L 361.361628 170.152727 
L 362.203599 174.545455 
L 363.045593 178.938182 
L 363.887603 183.330909 
L 364.189091 184.903747 
L 364.729617 187.723636 
L 365.571616 192.116364 
L 366.413624 196.509091 
L 367.25563 200.901818 
L 367.796364 203.722869 
L 368.097618 205.294545 
L 368.939623 209.687273 
L 369.781629 214.08 
L 370.62363 218.472727 
L 371.403636 222.542018 
L 371.465633 222.865455 
L 372.307638 227.258182 
L 373.149633 231.650909 
L 373.991633 236.043636 
L 374.833647 240.436364 
L 375.010909 241.361132 
L 375.675653 244.829091 
L 376.517652 249.221818 
L 377.359653 253.614545 
L 378.201662 258.007273 
L 378.618182 260.180244 
L 379.043669 262.4 
L 379.885662 266.792727 
L 380.727662 271.185455 
L 381.569671 275.578182 
L 382.225455 278.999393 
L 382.411677 279.970909 
L 383.253676 284.363636 
L 384.09567 288.756364 
L 384.937688 293.149091 
L 385.77967 297.541818 
L 385.832727 297.818618 
L 386.621677 301.934545 
L 387.463684 306.327273 
L 388.305677 310.72 
L 389.147685 315.112727 
L 389.44 316.637742 
L 389.989686 319.505455 
L 390.831688 323.898182 
L 389.44 327.771267 
L 389.217652 328.290909 
L 387.210532 332.683636 
L 385.832727 335.699022 
L 385.203387 337.076364 
L 383.196237 341.469091 
L 382.225455 343.593687 
L 381.189082 345.861818 
L 379.181938 350.254545 
L 378.618182 351.488356 
L 377.174804 354.647273 
L 375.167655 359.04 
L 375.010909 359.383046 
L 373.160517 363.432727 
L 371.403636 367.277754 
L 371.15338 367.825455 
L 369.146239 372.218182 
L 367.796364 375.172463 
L 367.139103 376.610909 
L 365.131943 381.003636 
L 364.189091 383.067114 
L 363.124804 385.396364 
L 361.117666 389.789091 
L 360.581818 390.961818 
L 359.110524 394.181818 
L 357.103383 398.574545 
L 356.974545 398.899702 
L 355.613418 402.967273 
L 355.051816 407.36 
L 354.490199 411.752727 
L 353.928587 416.145455 
L 353.367273 420.535832 
L 353.366972 420.538182 
L 352.805354 424.930909 
L 352.243745 429.323636 
L 351.682135 433.716364 
L 351.12052 438.109091 
L 350.558905 442.501818 
L 349.997299 446.894545 
L 349.76 448.74517 
L 349.136663 451.287273 
L 346.152727 455.117654 
L 345.714647 455.68 
L 342.545455 459.748141 
L 342.292596 460.072727 
L 338.938182 464.378608 
L 338.870526 464.465455 
L 335.448513 468.858182 
L 335.330909 469.009144 
L 332.026458 473.250909 
L 331.723636 473.639626 
L 328.604426 477.643636 
L 328.116364 478.270146 
L 325.1824 482.036364 
L 324.509091 482.900665 
L 321.760351 486.429091 
L 320.901818 487.531157 
L 318.338325 490.821818 
L 317.294545 492.161667 
L 314.916289 495.214545 
L 313.687273 496.792193 
L 311.494249 499.607273 
L 310.08 501.422684 
L 308.072233 504 
z
" style="fill:#ccd9ed;"/>
   </g>
   <g id="PathCollection_5">
    <path clip-path="url(#pe64c16ed37)" d="M 75.607273 504 
L 79.214545 504 
L 82.821818 504 
L 86.429091 504 
L 90.036364 504 
L 93.643636 504 
L 97.250909 504 
L 100.858182 504 
L 104.465455 504 
L 108.072727 504 
L 111.68 504 
L 115.287273 504 
L 118.894545 504 
L 122.501818 504 
L 126.109091 504 
L 129.716364 504 
L 133.323636 504 
L 136.930909 504 
L 140.538182 504 
L 144.145455 504 
L 147.752727 504 
L 151.36 504 
L 154.967273 504 
L 158.574545 504 
L 162.181818 504 
L 165.789091 504 
L 169.396364 504 
L 173.003636 504 
L 176.610909 504 
L 180.218182 504 
L 183.825455 504 
L 187.432727 504 
L 191.04 504 
L 194.647273 504 
L 198.254545 504 
L 201.861818 504 
L 205.469091 504 
L 209.076364 504 
L 212.683636 504 
L 216.290909 504 
L 219.898182 504 
L 223.505455 504 
L 227.112727 504 
L 230.72 504 
L 234.327273 504 
L 237.934545 504 
L 241.541818 504 
L 245.149091 504 
L 248.756364 504 
L 252.363636 504 
L 255.970909 504 
L 259.578182 504 
L 263.185455 504 
L 266.792727 504 
L 270.4 504 
L 274.007273 504 
L 277.614545 504 
L 281.221818 504 
L 284.829091 504 
L 288.436364 504 
L 292.043636 504 
L 295.650909 504 
L 299.258182 504 
L 302.865455 504 
L 306.472727 504 
L 308.072233 504 
L 310.08 501.422684 
L 311.494249 499.607273 
L 313.687273 496.792193 
L 314.916289 495.214545 
L 317.294545 492.161667 
L 318.338325 490.821818 
L 320.901818 487.531157 
L 321.760351 486.429091 
L 324.509091 482.900665 
L 325.1824 482.036364 
L 328.116364 478.270146 
L 328.604426 477.643636 
L 331.723636 473.639626 
L 332.026458 473.250909 
L 335.330909 469.009144 
L 335.448513 468.858182 
L 338.870526 464.465455 
L 338.938182 464.378608 
L 342.292596 460.072727 
L 342.545455 459.748141 
L 345.714647 455.68 
L 346.152727 455.117654 
L 349.136663 451.287273 
L 349.76 448.74517 
L 349.997299 446.894545 
L 350.558905 442.501818 
L 351.12052 438.109091 
L 351.682135 433.716364 
L 352.243745 429.323636 
L 352.805354 424.930909 
L 353.366972 420.538182 
L 353.367273 420.535832 
L 353.928587 416.145455 
L 354.490199 411.752727 
L 355.051816 407.36 
L 355.613418 402.967273 
L 356.974545 398.899702 
L 357.103383 398.574545 
L 359.110524 394.181818 
L 360.581818 390.961818 
L 361.117666 389.789091 
L 363.124804 385.396364 
L 364.189091 383.067114 
L 365.131943 381.003636 
L 367.139103 376.610909 
L 367.796364 375.172463 
L 369.146239 372.218182 
L 371.15338 367.825455 
L 371.403636 367.277754 
L 373.160517 363.432727 
L 375.010909 359.383046 
L 375.167655 359.04 
L 377.174804 354.647273 
L 378.618182 351.488356 
L 379.181938 350.254545 
L 381.189082 345.861818 
L 382.225455 343.593687 
L 383.196237 341.469091 
L 385.203387 337.076364 
L 385.832727 335.699022 
L 387.210532 332.683636 
L 389.217652 328.290909 
L 389.44 327.771267 
L 390.831688 323.898182 
L 389.989686 319.505455 
L 389.44 316.637742 
L 389.147685 315.112727 
L 388.305677 310.72 
L 387.463684 306.327273 
L 386.621677 301.934545 
L 385.832727 297.818618 
L 385.77967 297.541818 
L 384.937688 293.149091 
L 384.09567 288.756364 
L 383.253676 284.363636 
L 382.411677 279.970909 
L 382.225455 278.999393 
L 381.569671 275.578182 
L 380.727662 271.185455 
L 379.885662 266.792727 
L 379.043669 262.4 
L 378.618182 260.180244 
L 378.201662 258.007273 
L 377.359653 253.614545 
L 376.517652 249.221818 
L 375.675653 244.829091 
L 375.010909 241.361132 
L 374.833647 240.436364 
L 373.991633 236.043636 
L 373.149633 231.650909 
L 372.307638 227.258182 
L 371.465633 222.865455 
L 371.403636 222.542018 
L 370.62363 218.472727 
L 369.781629 214.08 
L 368.939623 209.687273 
L 368.097618 205.294545 
L 367.796364 203.722869 
L 367.25563 200.901818 
L 366.413624 196.509091 
L 365.571616 192.116364 
L 364.729617 187.723636 
L 364.189091 184.903747 
L 363.887603 183.330909 
L 363.045593 178.938182 
L 362.203599 174.545455 
L 361.361628 170.152727 
L 360.581818 166.084636 
L 360.519589 165.76 
L 359.677601 161.367273 
L 357.634801 156.974545 
L 356.974545 156.546503 
L 353.367273 155.978819 
L 349.76 155.411111 
L 346.152727 154.84341 
L 342.545455 154.275716 
L 338.938182 153.708019 
L 335.330909 153.140336 
L 331.781982 152.581818 
L 331.723636 152.572636 
L 328.116364 152.004934 
L 324.509091 151.437231 
L 320.901818 150.869538 
L 317.294545 150.301846 
L 313.687273 149.734137 
L 310.08 149.166441 
L 306.472727 148.59875 
L 303.869644 148.189091 
L 302.865455 148.031056 
L 299.258182 147.463361 
L 295.650909 146.895664 
L 292.043636 146.327964 
L 288.436364 145.760262 
L 284.829091 145.192568 
L 281.221818 144.624882 
L 277.614545 144.05718 
L 275.957302 143.796364 
L 274.007273 143.489469 
L 270.4 142.921781 
L 266.792727 142.354088 
L 263.185455 141.786386 
L 259.578182 141.218674 
L 255.970909 140.651003 
L 252.363636 140.083281 
L 248.756364 139.515608 
L 248.044876 139.403636 
L 245.149091 138.947905 
L 241.541818 138.380219 
L 237.934545 137.812517 
L 234.327273 137.244826 
L 230.72 136.67712 
L 227.112727 136.109432 
L 223.505455 135.818782 
L 219.898182 137.266809 
L 216.290909 138.714836 
L 214.574985 139.403636 
L 212.683636 140.162855 
L 209.076364 141.610891 
L 205.469091 143.058916 
L 203.63197 143.796364 
L 201.861818 144.506928 
L 198.254545 145.954963 
L 194.647273 147.402975 
L 192.688925 148.189091 
L 191.04 148.851 
L 187.432727 150.299028 
L 183.825455 151.747048 
L 181.7459 152.581818 
L 180.218182 153.195073 
L 176.610909 154.849883 
L 174.618544 156.974545 
L 173.003636 159.319929 
L 171.593943 161.367273 
L 169.396364 164.55888 
L 168.569335 165.76 
L 165.789091 169.797801 
L 165.544704 170.152727 
L 162.520101 174.545455 
L 162.181818 175.036754 
L 159.49547 178.938182 
L 158.574545 180.275673 
L 156.470872 183.330909 
L 154.967273 185.514618 
L 153.446258 187.723636 
L 151.36 190.753567 
L 150.421642 192.116364 
L 147.752727 195.992482 
L 147.397018 196.509091 
L 144.372414 200.901818 
L 144.145455 201.231437 
L 141.347809 205.294545 
L 140.538182 206.470385 
L 138.323187 209.687273 
L 136.930909 211.709321 
L 135.298574 214.08 
L 133.323636 216.948267 
L 132.273965 218.472727 
L 129.716364 222.187188 
L 129.249346 222.865455 
L 126.224734 227.258182 
L 126.109091 227.426134 
L 123.200108 231.650909 
L 122.501818 232.665056 
L 120.175505 236.043636 
L 118.894545 237.904005 
L 117.150886 240.436364 
L 115.287273 243.142949 
L 114.126276 244.829091 
L 112.676674 249.221818 
L 112.757401 253.614545 
L 111.890332 258.007273 
L 111.68 258.725632 
L 110.604158 262.4 
L 109.317977 266.792727 
L 108.072727 271.045642 
L 108.03179 271.185455 
L 106.745615 275.578182 
L 105.459453 279.970909 
L 104.465455 283.365722 
L 104.173266 284.363636 
L 102.887097 288.756364 
L 101.600927 293.149091 
L 100.858182 295.68582 
L 100.314747 297.541818 
L 99.02856 301.934545 
L 97.742371 306.327273 
L 97.250909 308.005796 
L 96.456211 310.72 
L 95.170035 315.112727 
L 93.883853 319.505455 
L 93.643636 320.325877 
L 92.597674 323.898182 
L 91.311496 328.290909 
L 90.036364 332.645951 
L 90.02533 332.683636 
L 88.739137 337.076364 
L 87.452965 341.469091 
L 86.429091 344.965941 
L 86.16678 345.861818 
L 84.880606 350.254545 
L 83.594427 354.647273 
L 82.821818 357.285997 
L 82.308256 359.04 
L 81.022077 363.432727 
L 79.7359 367.825455 
L 79.214545 369.606066 
L 78.449723 372.218182 
L 77.163548 376.610909 
L 75.877359 381.003636 
L 75.607273 381.926073 
L 74.591189 385.396364 
L 73.304999 389.789091 
L 72.018842 394.181818 
L 72 394.246171 
L 72 398.574545 
L 72 402.967273 
L 72 407.36 
L 72 411.752727 
L 72 416.145455 
L 72 420.538182 
L 72 424.930909 
L 72 429.323636 
L 72 433.716364 
L 72 438.109091 
L 72 442.501818 
L 72 446.894545 
L 72 451.287273 
L 72 455.68 
L 72 460.072727 
L 72 464.465455 
L 72 468.858182 
L 72 473.250909 
L 72 477.643636 
L 72 482.036364 
L 72 486.429091 
L 72 490.821818 
L 72 495.214545 
L 72 499.607273 
L 72 504 
z
M 118.876632 464.465455 
L 117.955057 460.072727 
L 117.235615 455.68 
L 116.516204 451.287273 
L 115.796777 446.894545 
L 115.287273 443.783641 
L 115.077335 442.501818 
L 114.357901 438.109091 
L 113.638482 433.716364 
L 112.91906 429.323636 
L 112.199629 424.930909 
L 111.68 421.758188 
L 111.547128 420.538182 
L 111.68 419.943227 
L 112.472999 416.145455 
L 113.715781 411.752727 
L 115.001956 407.36 
L 115.287273 406.385551 
L 116.288139 402.967273 
L 117.574318 398.574545 
L 118.860497 394.181818 
L 118.894545 394.06553 
L 120.146671 389.789091 
L 121.432849 385.396364 
L 122.501818 381.745486 
L 122.719029 381.003636 
L 124.005206 376.610909 
L 125.291385 372.218182 
L 126.109091 369.425462 
L 126.57757 367.825455 
L 127.863731 363.432727 
L 129.149909 359.04 
L 129.716364 357.105355 
L 130.436081 354.647273 
L 131.722264 350.254545 
L 133.00845 345.861818 
L 133.323636 344.785347 
L 134.29462 341.469091 
L 135.580806 337.076364 
L 136.866975 332.683636 
L 136.930909 332.46528 
L 138.153156 328.290909 
L 139.439336 323.898182 
L 140.538182 320.145236 
L 140.725508 319.505455 
L 142.011691 315.112727 
L 143.297865 310.72 
L 144.145455 307.825232 
L 144.584057 306.327273 
L 145.870223 301.934545 
L 147.156404 297.541818 
L 147.752727 295.505179 
L 148.442581 293.149091 
L 149.728752 288.756364 
L 151.01492 284.363636 
L 151.36 283.185082 
L 152.268741 279.970909 
L 152.537299 275.578182 
L 152.456573 271.185455 
L 152.37584 266.792727 
L 152.295108 262.4 
L 152.339344 258.007273 
L 154.967273 254.018783 
L 155.245611 253.614545 
L 158.270214 249.221818 
L 158.574545 248.779832 
L 161.294822 244.829091 
L 162.181818 243.540875 
L 164.31944 240.436364 
L 165.789091 238.30196 
L 167.344059 236.043636 
L 169.396364 233.063027 
L 170.368682 231.650909 
L 173.003636 227.824079 
L 173.393283 227.258182 
L 176.417894 222.865455 
L 176.610909 222.585135 
L 179.442522 218.472727 
L 180.218182 217.346218 
L 182.46713 214.08 
L 183.825455 212.107263 
L 185.491743 209.687273 
L 187.432727 206.868318 
L 188.516347 205.294545 
L 191.04 201.629392 
L 191.540971 200.901818 
L 194.565583 196.509091 
L 194.647273 196.39045 
L 197.766228 192.116364 
L 198.254545 191.669807 
L 201.861818 190.221775 
L 205.469091 188.773759 
L 208.085123 187.723636 
L 209.076364 187.325735 
L 212.683636 185.877705 
L 216.290909 184.429699 
L 219.028191 183.330909 
L 219.898182 182.981678 
L 223.505455 181.533643 
L 227.112727 180.085618 
L 229.971206 178.938182 
L 230.72 178.650512 
L 233.394192 178.938182 
L 234.327273 179.034053 
L 237.934545 179.601741 
L 241.541818 180.169444 
L 245.149091 180.737132 
L 248.756364 181.304831 
L 252.363636 181.872517 
L 255.970909 182.440216 
L 259.578182 183.007921 
L 261.630552 183.330909 
L 263.185455 183.575608 
L 266.792727 184.143304 
L 270.4 184.711003 
L 274.007273 185.278693 
L 277.614545 185.846391 
L 281.221818 186.414104 
L 284.829091 186.981778 
L 288.436364 187.549478 
L 289.542998 187.723636 
L 292.043636 188.117181 
L 295.650909 188.68487 
L 299.258182 189.252558 
L 302.865455 189.820267 
L 306.472727 190.387962 
L 310.08 190.955654 
L 313.687273 191.523353 
L 317.294545 192.091065 
L 317.455303 192.116364 
L 320.901818 192.658752 
L 324.509091 193.511729 
L 328.116364 196.311755 
L 328.218596 196.509091 
L 329.060599 200.901818 
L 329.902596 205.294545 
L 330.744598 209.687273 
L 331.586603 214.08 
L 331.723636 214.794917 
L 332.428594 218.472727 
L 333.270609 222.865455 
L 334.112623 227.258182 
L 334.954605 231.650909 
L 335.330909 233.614068 
L 335.796618 236.043636 
L 336.638623 240.436364 
L 337.480628 244.829091 
L 338.322618 249.221818 
L 338.938182 252.433169 
L 339.164633 253.614545 
L 340.006633 258.007273 
L 340.848629 262.4 
L 341.690622 266.792727 
L 342.532633 271.185455 
L 342.545455 271.252346 
L 343.374634 275.578182 
L 344.216644 279.970909 
L 345.058647 284.363636 
L 345.900647 288.756364 
L 346.152727 290.071468 
L 346.74265 293.149091 
L 347.584659 297.541818 
L 348.42665 301.934545 
L 349.268649 306.327273 
L 349.76 308.890622 
L 350.110661 310.72 
L 349.76 315.066136 
L 349.755524 315.112727 
L 347.748374 319.505455 
L 346.152727 322.997605 
L 345.741231 323.898182 
L 343.734079 328.290909 
L 342.545455 330.892282 
L 341.726946 332.683636 
L 339.719793 337.076364 
L 338.938182 338.786961 
L 337.712655 341.469091 
L 335.70551 345.861818 
L 335.330909 346.68165 
L 333.698375 350.254545 
L 331.723636 354.576359 
L 331.691234 354.647273 
L 329.684089 359.04 
L 328.116364 362.471067 
L 327.676957 363.432727 
L 325.669798 367.825455 
L 324.509091 370.365719 
L 323.662658 372.218182 
L 321.655521 376.610909 
L 320.901818 378.439656 
L 320.009391 381.003636 
L 319.447779 385.396364 
L 318.886163 389.789091 
L 318.324554 394.181818 
L 317.294545 397.617992 
L 316.746236 398.574545 
L 313.687273 402.501221 
L 313.324207 402.967273 
L 310.08 407.131739 
L 309.902179 407.36 
L 306.480111 411.752727 
L 306.472727 411.762205 
L 303.058097 416.145455 
L 302.865455 416.392741 
L 299.636042 420.538182 
L 299.258182 421.023229 
L 296.214017 424.930909 
L 295.650909 425.653744 
L 292.791963 429.323636 
L 292.043636 430.284235 
L 289.369947 433.716364 
L 288.436364 434.914759 
L 285.947901 438.109091 
L 284.829091 439.545265 
L 282.525856 442.501818 
L 281.221818 444.175762 
L 279.103837 446.894545 
L 277.614545 448.806278 
L 274.208287 451.287273 
L 274.007273 451.409921 
L 270.4 451.713943 
L 266.792727 452.017923 
L 263.185455 452.321946 
L 259.578182 452.625939 
L 255.970909 452.929956 
L 252.363636 453.23397 
L 248.756364 453.537971 
L 245.149091 453.841971 
L 241.541818 454.145994 
L 237.934545 454.449987 
L 234.327273 454.753998 
L 230.72 455.05802 
L 227.112727 455.362025 
L 223.505455 455.666019 
L 223.33957 455.68 
L 219.898182 455.970041 
L 216.290909 456.274059 
L 212.683636 456.578052 
L 209.076364 456.882062 
L 205.469091 457.186054 
L 201.861818 457.490067 
L 198.254545 457.79406 
L 194.647273 458.098075 
L 191.04 458.402058 
L 187.432727 458.706074 
L 183.825455 459.010096 
L 180.218182 459.314113 
L 176.610909 459.618109 
L 173.003636 459.922131 
L 171.216537 460.072727 
L 169.396364 460.226109 
L 165.789091 460.530118 
L 162.181818 460.834141 
L 158.574545 461.138157 
L 154.967273 461.442152 
L 151.36 461.746163 
L 147.752727 462.05016 
L 144.145455 462.354152 
L 140.538182 462.658172 
L 136.930909 462.962182 
L 133.323636 463.266164 
L 129.716364 463.570186 
L 126.109091 463.874169 
L 122.501818 464.178187 
L 119.093321 464.465455 
L 118.894545 464.482207 
z
" style="fill:#ecd3c5;"/>
   </g>
   <g id="PathCollection_6">
    <path clip-path="url(#pe64c16ed37)" d="M 118.894545 464.482207 
L 119.093321 464.465455 
L 122.501818 464.178187 
L 126.109091 463.874169 
L 129.716364 463.570186 
L 133.323636 463.266164 
L 136.930909 462.962182 
L 140.538182 462.658172 
L 144.145455 462.354152 
L 147.752727 462.05016 
L 151.36 461.746163 
L 154.967273 461.442152 
L 158.574545 461.138157 
L 162.181818 460.834141 
L 165.789091 460.530118 
L 169.396364 460.226109 
L 171.216537 460.072727 
L 173.003636 459.922131 
L 176.610909 459.618109 
L 180.218182 459.314113 
L 183.825455 459.010096 
L 187.432727 458.706074 
L 191.04 458.402058 
L 194.647273 458.098075 
L 198.254545 457.79406 
L 201.861818 457.490067 
L 205.469091 457.186054 
L 209.076364 456.882062 
L 212.683636 456.578052 
L 216.290909 456.274059 
L 219.898182 455.970041 
L 223.33957 455.68 
L 223.505455 455.666019 
L 227.112727 455.362025 
L 230.72 455.05802 
L 234.327273 454.753998 
L 237.934545 454.449987 
L 241.541818 454.145994 
L 245.149091 453.841971 
L 248.756364 453.537971 
L 252.363636 453.23397 
L 255.970909 452.929956 
L 259.578182 452.625939 
L 263.185455 452.321946 
L 266.792727 452.017923 
L 270.4 451.713943 
L 274.007273 451.409921 
L 274.208287 451.287273 
L 277.614545 448.806278 
L 279.103837 446.894545 
L 281.221818 444.175762 
L 282.525856 442.501818 
L 284.829091 439.545265 
L 285.947901 438.109091 
L 288.436364 434.914759 
L 289.369947 433.716364 
L 292.043636 430.284235 
L 292.791963 429.323636 
L 295.650909 425.653744 
L 296.214017 424.930909 
L 299.258182 421.023229 
L 299.636042 420.538182 
L 302.865455 416.392741 
L 303.058097 416.145455 
L 306.472727 411.762205 
L 306.480111 411.752727 
L 309.902179 407.36 
L 310.08 407.131739 
L 313.324207 402.967273 
L 313.687273 402.501221 
L 316.746236 398.574545 
L 317.294545 397.617992 
L 318.324554 394.181818 
L 318.886163 389.789091 
L 319.447779 385.396364 
L 320.009391 381.003636 
L 320.901818 378.439656 
L 321.655521 376.610909 
L 323.662658 372.218182 
L 324.509091 370.365719 
L 325.669798 367.825455 
L 327.676957 363.432727 
L 328.116364 362.471067 
L 329.684089 359.04 
L 331.691234 354.647273 
L 331.723636 354.576359 
L 333.698375 350.254545 
L 335.330909 346.68165 
L 335.70551 345.861818 
L 337.712655 341.469091 
L 338.938182 338.786961 
L 339.719793 337.076364 
L 341.726946 332.683636 
L 342.545455 330.892282 
L 343.734079 328.290909 
L 345.741231 323.898182 
L 346.152727 322.997605 
L 347.748374 319.505455 
L 349.755524 315.112727 
L 349.76 315.066136 
L 350.110661 310.72 
L 349.76 308.890622 
L 349.268649 306.327273 
L 348.42665 301.934545 
L 347.584659 297.541818 
L 346.74265 293.149091 
L 346.152727 290.071468 
L 345.900647 288.756364 
L 345.058647 284.363636 
L 344.216644 279.970909 
L 343.374634 275.578182 
L 342.545455 271.252346 
L 342.532633 271.185455 
L 341.690622 266.792727 
L 340.848629 262.4 
L 340.006633 258.007273 
L 339.164633 253.614545 
L 338.938182 252.433169 
L 338.322618 249.221818 
L 337.480628 244.829091 
L 336.638623 240.436364 
L 335.796618 236.043636 
L 335.330909 233.614068 
L 334.954605 231.650909 
L 334.112623 227.258182 
L 333.270609 222.865455 
L 332.428594 218.472727 
L 331.723636 214.794917 
L 331.586603 214.08 
L 330.744598 209.687273 
L 329.902596 205.294545 
L 329.060599 200.901818 
L 328.218596 196.509091 
L 328.116364 196.311755 
L 324.509091 193.511729 
L 320.901818 192.658752 
L 317.455303 192.116364 
L 317.294545 192.091065 
L 313.687273 191.523353 
L 310.08 190.955654 
L 306.472727 190.387962 
L 302.865455 189.820267 
L 299.258182 189.252558 
L 295.650909 188.68487 
L 292.043636 188.117181 
L 289.542998 187.723636 
L 288.436364 187.549478 
L 284.829091 186.981778 
L 281.221818 186.414104 
L 277.614545 185.846391 
L 274.007273 185.278693 
L 270.4 184.711003 
L 266.792727 184.143304 
L 263.185455 183.575608 
L 261.630552 183.330909 
L 259.578182 183.007921 
L 255.970909 182.440216 
L 252.363636 181.872517 
L 248.756364 181.304831 
L 245.149091 180.737132 
L 241.541818 180.169444 
L 237.934545 179.601741 
L 234.327273 179.034053 
L 233.394192 178.938182 
L 230.72 178.650512 
L 229.971206 178.938182 
L 227.112727 180.085618 
L 223.505455 181.533643 
L 219.898182 182.981678 
L 219.028191 183.330909 
L 216.290909 184.429699 
L 212.683636 185.877705 
L 209.076364 187.325735 
L 208.085123 187.723636 
L 205.469091 188.773759 
L 201.861818 190.221775 
L 198.254545 191.669807 
L 197.766228 192.116364 
L 194.647273 196.39045 
L 194.565583 196.509091 
L 191.540971 200.901818 
L 191.04 201.629392 
L 188.516347 205.294545 
L 187.432727 206.868318 
L 185.491743 209.687273 
L 183.825455 212.107263 
L 182.46713 214.08 
L 180.218182 217.346218 
L 179.442522 218.472727 
L 176.610909 222.585135 
L 176.417894 222.865455 
L 173.393283 227.258182 
L 173.003636 227.824079 
L 170.368682 231.650909 
L 169.396364 233.063027 
L 167.344059 236.043636 
L 165.789091 238.30196 
L 164.31944 240.436364 
L 162.181818 243.540875 
L 161.294822 244.829091 
L 158.574545 248.779832 
L 158.270214 249.221818 
L 155.245611 253.614545 
L 154.967273 254.018783 
L 152.339344 258.007273 
L 152.295108 262.4 
L 152.37584 266.792727 
L 152.456573 271.185455 
L 152.537299 275.578182 
L 152.268741 279.970909 
L 151.36 283.185082 
L 151.01492 284.363636 
L 149.728752 288.756364 
L 148.442581 293.149091 
L 147.752727 295.505179 
L 147.156404 297.541818 
L 145.870223 301.934545 
L 144.584057 306.327273 
L 144.145455 307.825232 
L 143.297865 310.72 
L 142.011691 315.112727 
L 140.725508 319.505455 
L 140.538182 320.145236 
L 139.439336 323.898182 
L 138.153156 328.290909 
L 136.930909 332.46528 
L 136.866975 332.683636 
L 135.580806 337.076364 
L 134.29462 341.469091 
L 133.323636 344.785347 
L 133.00845 345.861818 
L 131.722264 350.254545 
L 130.436081 354.647273 
L 129.716364 357.105355 
L 129.149909 359.04 
L 127.863731 363.432727 
L 126.57757 367.825455 
L 126.109091 369.425462 
L 125.291385 372.218182 
L 124.005206 376.610909 
L 122.719029 381.003636 
L 122.501818 381.745486 
L 121.432849 385.396364 
L 120.146671 389.789091 
L 118.894545 394.06553 
L 118.860497 394.181818 
L 117.574318 398.574545 
L 116.288139 402.967273 
L 115.287273 406.385551 
L 115.001956 407.36 
L 113.715781 411.752727 
L 112.472999 416.145455 
L 111.68 419.943227 
L 111.547128 420.538182 
L 111.68 421.758188 
L 112.199629 424.930909 
L 112.91906 429.323636 
L 113.638482 433.716364 
L 114.357901 438.109091 
L 115.077335 442.501818 
L 115.287273 443.783641 
L 115.796777 446.894545 
L 116.516204 451.287273 
L 117.235615 455.68 
L 117.955057 460.072727 
L 118.876632 464.465455 
z
M 184.002417 376.610909 
L 183.825455 375.622907 
L 183.267849 372.218182 
L 182.54841 367.825455 
L 181.828987 363.432727 
L 181.109554 359.04 
L 180.39013 354.647273 
L 180.218182 353.597403 
L 179.707931 350.254545 
L 179.850113 345.861818 
L 180.218182 344.604739 
L 181.136286 341.469091 
L 182.42246 337.076364 
L 183.708638 332.683636 
L 183.825455 332.284669 
L 184.994816 328.290909 
L 186.280995 323.898182 
L 187.432727 319.964627 
L 187.567171 319.505455 
L 188.853349 315.112727 
L 190.139525 310.72 
L 191.04 307.64456 
L 191.425696 306.327273 
L 192.39793 301.934545 
L 192.317201 297.541818 
L 192.236471 293.149091 
L 192.155739 288.756364 
L 192.07501 284.363636 
L 191.994278 279.970909 
L 191.913545 275.578182 
L 191.832819 271.185455 
L 193.340314 266.792727 
L 194.647273 264.894601 
L 196.364934 262.4 
L 198.254545 259.655665 
L 199.389545 258.007273 
L 201.861818 254.416727 
L 202.414162 253.614545 
L 205.438772 249.221818 
L 205.469091 249.177785 
L 208.463392 244.829091 
L 209.076364 243.938854 
L 211.487999 240.436364 
L 212.683636 238.699905 
L 214.512612 236.043636 
L 216.290909 233.460973 
L 217.537228 231.650909 
L 219.898182 228.953656 
L 223.481322 227.258182 
L 223.505455 227.248495 
L 227.112727 225.800478 
L 230.72 224.352455 
L 234.327273 222.90443 
L 234.424368 222.865455 
L 237.934545 221.520311 
L 241.541818 221.958653 
L 245.149091 222.526351 
L 247.303842 222.865455 
L 248.756364 223.094045 
L 252.363636 223.66174 
L 255.970909 224.229439 
L 259.578182 224.79714 
L 263.185455 225.364837 
L 266.792727 225.932533 
L 270.4 226.500228 
L 274.007273 227.067922 
L 275.216222 227.258182 
L 277.614545 227.635621 
L 281.221818 228.203319 
L 284.829091 228.771013 
L 288.436364 229.338712 
L 292.043636 230.850062 
L 293.167896 231.650909 
L 295.650909 233.648205 
L 297.321809 236.043636 
L 298.443583 240.436364 
L 299.258182 244.686111 
L 299.285589 244.829091 
L 300.127589 249.221818 
L 300.96959 253.614545 
L 301.811596 258.007273 
L 302.653596 262.4 
L 302.865455 263.505265 
L 303.495599 266.792727 
L 304.337602 271.185455 
L 305.179608 275.578182 
L 306.021603 279.970909 
L 306.472727 282.32442 
L 306.863607 284.363636 
L 307.705611 288.756364 
L 308.547612 293.149091 
L 309.389614 297.541818 
L 310.08 301.143571 
L 310.231615 301.934545 
L 310.08 302.336246 
L 308.286217 306.327273 
L 306.472727 310.296178 
L 306.279073 310.72 
L 304.271929 315.112727 
L 302.865455 318.190869 
L 302.26479 319.505455 
L 300.257647 323.898182 
L 299.258182 326.085555 
L 298.250501 328.290909 
L 296.243364 332.683636 
L 295.650909 333.980252 
L 294.23622 337.076364 
L 292.229075 341.469091 
L 292.043636 341.874933 
L 290.221936 345.861818 
L 288.436364 348.30552 
L 285.163336 350.254545 
L 284.829091 350.439126 
L 281.221818 352.431178 
L 277.614545 354.563754 
L 277.511737 354.647273 
L 274.089703 359.04 
L 274.007273 359.145812 
L 270.667655 363.432727 
L 270.4 363.776306 
L 267.245621 367.825455 
L 266.792727 368.406815 
L 263.823586 372.218182 
L 263.185455 372.978992 
L 259.578182 373.639216 
L 255.970909 373.943228 
L 252.363636 374.247235 
L 248.756364 374.551239 
L 245.149091 374.855249 
L 241.541818 375.159256 
L 237.934545 375.463261 
L 234.327273 375.767268 
L 230.72 376.071277 
L 227.112727 376.375277 
L 224.316843 376.610909 
L 223.505455 376.679291 
L 219.898182 376.983298 
L 216.290909 377.287299 
L 212.683636 377.591299 
L 209.076364 377.895314 
L 205.469091 378.199314 
L 201.861818 378.503326 
L 198.254545 378.807333 
L 194.647273 379.111341 
L 191.04 379.415355 
L 187.432727 379.719352 
z
" style="fill:#f7b093;"/>
   </g>
   <g id="PathCollection_7">
    <path clip-path="url(#pe64c16ed37)" d="M 187.432727 379.719352 
L 191.04 379.415355 
L 194.647273 379.111341 
L 198.254545 378.807333 
L 201.861818 378.503326 
L 205.469091 378.199314 
L 209.076364 377.895314 
L 212.683636 377.591299 
L 216.290909 377.287299 
L 219.898182 376.983298 
L 223.505455 376.679291 
L 224.316843 376.610909 
L 227.112727 376.375277 
L 230.72 376.071277 
L 234.327273 375.767268 
L 237.934545 375.463261 
L 241.541818 375.159256 
L 245.149091 374.855249 
L 248.756364 374.551239 
L 252.363636 374.247235 
L 255.970909 373.943228 
L 259.578182 373.639216 
L 263.185455 372.978992 
L 263.823586 372.218182 
L 266.792727 368.406815 
L 267.245621 367.825455 
L 270.4 363.776306 
L 270.667655 363.432727 
L 274.007273 359.145812 
L 274.089703 359.04 
L 277.511737 354.647273 
L 277.614545 354.563754 
L 281.221818 352.431178 
L 284.829091 350.439126 
L 285.163336 350.254545 
L 288.436364 348.30552 
L 290.221936 345.861818 
L 292.043636 341.874933 
L 292.229075 341.469091 
L 294.23622 337.076364 
L 295.650909 333.980252 
L 296.243364 332.683636 
L 298.250501 328.290909 
L 299.258182 326.085555 
L 300.257647 323.898182 
L 302.26479 319.505455 
L 302.865455 318.190869 
L 304.271929 315.112727 
L 306.279073 310.72 
L 306.472727 310.296178 
L 308.286217 306.327273 
L 310.08 302.336246 
L 310.231615 301.934545 
L 310.08 301.143571 
L 309.389614 297.541818 
L 308.547612 293.149091 
L 307.705611 288.756364 
L 306.863607 284.363636 
L 306.472727 282.32442 
L 306.021603 279.970909 
L 305.179608 275.578182 
L 304.337602 271.185455 
L 303.495599 266.792727 
L 302.865455 263.505265 
L 302.653596 262.4 
L 301.811596 258.007273 
L 300.96959 253.614545 
L 300.127589 249.221818 
L 299.285589 244.829091 
L 299.258182 244.686111 
L 298.443583 240.436364 
L 297.321809 236.043636 
L 295.650909 233.648205 
L 293.167896 231.650909 
L 292.043636 230.850062 
L 288.436364 229.338712 
L 284.829091 228.771013 
L 281.221818 228.203319 
L 277.614545 227.635621 
L 275.216222 227.258182 
L 274.007273 227.067922 
L 270.4 226.500228 
L 266.792727 225.932533 
L 263.185455 225.364837 
L 259.578182 224.79714 
L 255.970909 224.229439 
L 252.363636 223.66174 
L 248.756364 223.094045 
L 247.303842 222.865455 
L 245.149091 222.526351 
L 241.541818 221.958653 
L 237.934545 221.520311 
L 234.424368 222.865455 
L 234.327273 222.90443 
L 230.72 224.352455 
L 227.112727 225.800478 
L 223.505455 227.248495 
L 223.481322 227.258182 
L 219.898182 228.953656 
L 217.537228 231.650909 
L 216.290909 233.460973 
L 214.512612 236.043636 
L 212.683636 238.699905 
L 211.487999 240.436364 
L 209.076364 243.938854 
L 208.463392 244.829091 
L 205.469091 249.177785 
L 205.438772 249.221818 
L 202.414162 253.614545 
L 201.861818 254.416727 
L 199.389545 258.007273 
L 198.254545 259.655665 
L 196.364934 262.4 
L 194.647273 264.894601 
L 193.340314 266.792727 
L 191.832819 271.185455 
L 191.913545 275.578182 
L 191.994278 279.970909 
L 192.07501 284.363636 
L 192.155739 288.756364 
L 192.236471 293.149091 
L 192.317201 297.541818 
L 192.39793 301.934545 
L 191.425696 306.327273 
L 191.04 307.64456 
L 190.139525 310.72 
L 188.853349 315.112727 
L 187.567171 319.505455 
L 187.432727 319.964627 
L 186.280995 323.898182 
L 184.994816 328.290909 
L 183.825455 332.284669 
L 183.708638 332.683636 
L 182.42246 337.076364 
L 181.136286 341.469091 
L 180.218182 344.604739 
L 179.850113 345.861818 
L 179.707931 350.254545 
L 180.218182 353.597403 
L 180.39013 354.647273 
L 181.109554 359.04 
L 181.828987 363.432727 
L 182.54841 367.825455 
L 183.267849 372.218182 
L 183.825455 375.622907 
L 184.002417 376.610909 
z
M 235.080821 315.112727 
L 234.327273 314.602575 
L 231.996889 310.72 
L 230.72 308.592617 
L 229.360303 306.327273 
L 227.112727 302.582669 
L 226.723713 301.934545 
L 225.098263 297.541818 
L 224.840115 293.149091 
L 224.643016 288.756364 
L 224.445919 284.363636 
L 224.248819 279.970909 
L 225.549625 275.578182 
L 227.112727 272.787233 
L 228.009821 271.185455 
L 230.470014 266.792727 
L 230.72 266.346371 
L 232.930207 262.4 
L 234.327273 259.905508 
L 235.752586 258.007273 
L 237.934545 256.272762 
L 241.541818 254.910071 
L 245.149091 254.496948 
L 248.756364 255.117562 
L 252.363636 255.738172 
L 255.970909 256.358784 
L 259.578182 256.979395 
L 263.185455 257.600005 
L 264.023391 258.007273 
L 266.792727 260.205062 
L 269.099437 262.4 
L 270.4 263.637545 
L 272.877188 266.792727 
L 273.960422 271.185455 
L 274.007273 271.465262 
L 274.69594 275.578182 
L 275.431459 279.970909 
L 276.166978 284.363636 
L 276.902496 288.756364 
L 277.512451 293.149091 
L 275.64234 297.541818 
L 274.007273 301.382451 
L 273.77223 301.934545 
L 271.90212 306.327273 
L 270.4 309.855621 
L 269.986296 310.72 
L 266.792727 314.227467 
L 264.710582 315.112727 
L 263.185455 315.761162 
L 259.578182 317.294855 
L 255.970909 318.82855 
L 252.363636 319.225185 
L 248.756364 318.442773 
L 245.149091 317.660362 
L 241.541818 316.877953 
L 237.934545 316.095543 
z
" style="fill:#eb7d62;"/>
   </g>
   <g id="PathCollection_8">
    <path clip-path="url(#pe64c16ed37)" d="M 237.934545 316.095543 
L 241.541818 316.877953 
L 245.149091 317.660362 
L 248.756364 318.442773 
L 252.363636 319.225185 
L 255.970909 318.82855 
L 259.578182 317.294855 
L 263.185455 315.761162 
L 264.710582 315.112727 
L 266.792727 314.227467 
L 269.986296 310.72 
L 270.4 309.855621 
L 271.90212 306.327273 
L 273.77223 301.934545 
L 274.007273 301.382451 
L 275.64234 297.541818 
L 277.512451 293.149091 
L 276.902496 288.756364 
L 276.166978 284.363636 
L 275.431459 279.970909 
L 274.69594 275.578182 
L 274.007273 271.465262 
L 273.960422 271.185455 
L 272.877188 266.792727 
L 270.4 263.637545 
L 269.099437 262.4 
L 266.792727 260.205062 
L 264.023391 258.007273 
L 263.185455 257.600005 
L 259.578182 256.979395 
L 255.970909 256.358784 
L 252.363636 255.738172 
L 248.756364 255.117562 
L 245.149091 254.496948 
L 241.541818 254.910071 
L 237.934545 256.272762 
L 235.752586 258.007273 
L 234.327273 259.905508 
L 232.930207 262.4 
L 230.72 266.346371 
L 230.470014 266.792727 
L 228.009821 271.185455 
L 227.112727 272.787233 
L 225.549625 275.578182 
L 224.248819 279.970909 
L 224.445919 284.363636 
L 224.643016 288.756364 
L 224.840115 293.149091 
L 225.098263 297.541818 
L 226.723713 301.934545 
L 227.112727 302.582669 
L 229.360303 306.327273 
L 230.72 308.592617 
L 231.996889 310.72 
L 234.327273 314.602575 
L 235.080821 315.112727 
z
" style="fill:#ca3b37;"/>
   </g>
   <g id="matplotlib.axis_1">
    <g id="xtick_1">
     <g id="line2d_1">
      <defs>
       <path d="M 0 0 
L 0 3.5 
" id="m8bc473bdce" style="stroke:#000000;stroke-width:0.8;"/>
      </defs>
      <g>
       <use style="stroke:#000000;stroke-width:0.8;" x="107.712" xlink:href="#m8bc473bdce" y="504"/>
      </g>
     </g>
     <g id="text_1">
      <!-- 4 -->
      <defs>
       <path d="M 10.59375 35.5 
L 73.1875 35.5 
L 73.1875 27.203125 
L 10.59375 27.203125 
z
" id="DejaVuSans-2212"/>
       <path d="M 37.796875 64.3125 
L 12.890625 25.390625 
L 37.796875 25.390625 
z
M 35.203125 72.90625 
L 47.609375 72.90625 
L 47.609375 25.390625 
L 58.015625 25.390625 
L 58.015625 17.1875 
L 47.609375 17.1875 
L 47.609375 0 
L 37.796875 0 
L 37.796875 17.1875 
L 4.890625 17.1875 
L 4.890625 26.703125 
z
" id="DejaVuSans-34"/>
      </defs>
      <g transform="translate(100.340906 518.598438)scale(0.1 -0.1)">
       <use xlink:href="#DejaVuSans-2212"/>
       <use x="83.789062" xlink:href="#DejaVuSans-34"/>
      </g>
     </g>
    </g>
    <g id="xtick_2">
     <g id="line2d_2">
      <g>
       <use style="stroke:#000000;stroke-width:0.8;" x="179.136" xlink:href="#m8bc473bdce" y="504"/>
      </g>
     </g>
     <g id="text_2">
      <!-- 2 -->
      <defs>
       <path d="M 19.1875 8.296875 
L 53.609375 8.296875 
L 53.609375 0 
L 7.328125 0 
L 7.328125 8.296875 
Q 12.9375 14.109375 22.625 23.890625 
Q 32.328125 33.6875 34.8125 36.53125 
Q 39.546875 41.84375 41.421875 45.53125 
Q 43.3125 49.21875 43.3125 52.78125 
Q 43.3125 58.59375 39.234375 62.25 
Q 35.15625 65.921875 28.609375 65.921875 
Q 23.96875 65.921875 18.8125 64.3125 
Q 13.671875 62.703125 7.8125 59.421875 
L 7.8125 69.390625 
Q 13.765625 71.78125 18.9375 73 
Q 24.125 74.21875 28.421875 74.21875 
Q 39.75 74.21875 46.484375 68.546875 
Q 53.21875 62.890625 53.21875 53.421875 
Q 53.21875 48.921875 51.53125 44.890625 
Q 49.859375 40.875 45.40625 35.40625 
Q 44.1875 33.984375 37.640625 27.21875 
Q 31.109375 20.453125 19.1875 8.296875 
z
" id="DejaVuSans-32"/>
      </defs>
      <g transform="translate(171.764906 518.598438)scale(0.1 -0.1)">
       <use xlink:href="#DejaVuSans-2212"/>
       <use x="83.789062" xlink:href="#DejaVuSans-32"/>
      </g>
     </g>
    </g>
    <g id="xtick_3">
     <g id="line2d_3">
      <g>
       <use style="stroke:#000000;stroke-width:0.8;" x="250.56" xlink:href="#m8bc473bdce" y="504"/>
      </g>
     </g>
     <g id="text_3">
      <!-- 0 -->
      <defs>
       <path d="M 31.78125 66.40625 
Q 24.171875 66.40625 20.328125 58.90625 
Q 16.5 51.421875 16.5 36.375 
Q 16.5 21.390625 20.328125 13.890625 
Q 24.171875 6.390625 31.78125 6.390625 
Q 39.453125 6.390625 43.28125 13.890625 
Q 47.125 21.390625 47.125 36.375 
Q 47.125 51.421875 43.28125 58.90625 
Q 39.453125 66.40625 31.78125 66.40625 
z
M 31.78125 74.21875 
Q 44.046875 74.21875 50.515625 64.515625 
Q 56.984375 54.828125 56.984375 36.375 
Q 56.984375 17.96875 50.515625 8.265625 
Q 44.046875 -1.421875 31.78125 -1.421875 
Q 19.53125 -1.421875 13.0625 8.265625 
Q 6.59375 17.96875 6.59375 36.375 
Q 6.59375 54.828125 13.0625 64.515625 
Q 19.53125 74.21875 31.78125 74.21875 
z
" id="DejaVuSans-30"/>
      </defs>
      <g transform="translate(247.37875 518.598438)scale(0.1 -0.1)">
       <use xlink:href="#DejaVuSans-30"/>
      </g>
     </g>
    </g>
    <g id="xtick_4">
     <g id="line2d_4">
      <g>
       <use style="stroke:#000000;stroke-width:0.8;" x="321.984" xlink:href="#m8bc473bdce" y="504"/>
      </g>
     </g>
     <g id="text_4">
      <!-- 2 -->
      <g transform="translate(318.80275 518.598438)scale(0.1 -0.1)">
       <use xlink:href="#DejaVuSans-32"/>
      </g>
     </g>
    </g>
    <g id="xtick_5">
     <g id="line2d_5">
      <g>
       <use style="stroke:#000000;stroke-width:0.8;" x="393.408" xlink:href="#m8bc473bdce" y="504"/>
      </g>
     </g>
     <g id="text_5">
      <!-- 4 -->
      <g transform="translate(390.22675 518.598438)scale(0.1 -0.1)">
       <use xlink:href="#DejaVuSans-34"/>
      </g>
     </g>
    </g>
   </g>
   <g id="matplotlib.axis_2">
    <g id="ytick_1">
     <g id="line2d_6">
      <defs>
       <path d="M 0 0 
L -3.5 0 
" id="me4ff527c13" style="stroke:#000000;stroke-width:0.8;"/>
      </defs>
      <g>
       <use style="stroke:#000000;stroke-width:0.8;" x="72" xlink:href="#me4ff527c13" y="460.512"/>
      </g>
     </g>
     <g id="text_6">
      <!-- 4 -->
      <g transform="translate(50.257812 464.311219)scale(0.1 -0.1)">
       <use xlink:href="#DejaVuSans-2212"/>
       <use x="83.789062" xlink:href="#DejaVuSans-34"/>
      </g>
     </g>
    </g>
    <g id="ytick_2">
     <g id="line2d_7">
      <g>
       <use style="stroke:#000000;stroke-width:0.8;" x="72" xlink:href="#me4ff527c13" y="373.536"/>
      </g>
     </g>
     <g id="text_7">
      <!-- 2 -->
      <g transform="translate(50.257812 377.335219)scale(0.1 -0.1)">
       <use xlink:href="#DejaVuSans-2212"/>
       <use x="83.789062" xlink:href="#DejaVuSans-32"/>
      </g>
     </g>
    </g>
    <g id="ytick_3">
     <g id="line2d_8">
      <g>
       <use style="stroke:#000000;stroke-width:0.8;" x="72" xlink:href="#me4ff527c13" y="286.56"/>
      </g>
     </g>
     <g id="text_8">
      <!-- 0 -->
      <g transform="translate(58.6375 290.359219)scale(0.1 -0.1)">
       <use xlink:href="#DejaVuSans-30"/>
      </g>
     </g>
    </g>
    <g id="ytick_4">
     <g id="line2d_9">
      <g>
       <use style="stroke:#000000;stroke-width:0.8;" x="72" xlink:href="#me4ff527c13" y="199.584"/>
      </g>
     </g>
     <g id="text_9">
      <!-- 2 -->
      <g transform="translate(58.6375 203.383219)scale(0.1 -0.1)">
       <use xlink:href="#DejaVuSans-32"/>
      </g>
     </g>
    </g>
    <g id="ytick_5">
     <g id="line2d_10">
      <g>
       <use style="stroke:#000000;stroke-width:0.8;" x="72" xlink:href="#me4ff527c13" y="112.608"/>
      </g>
     </g>
     <g id="text_10">
      <!-- 4 -->
      <g transform="translate(58.6375 116.407219)scale(0.1 -0.1)">
       <use xlink:href="#DejaVuSans-34"/>
      </g>
     </g>
    </g>
   </g>
   <g id="patch_3">
    <path d="M 72 504 
L 72 69.12 
" style="fill:none;stroke:#000000;stroke-linecap:square;stroke-linejoin:miter;stroke-width:0.8;"/>
   </g>
   <g id="patch_4">
    <path d="M 429.12 504 
L 429.12 69.12 
" style="fill:none;stroke:#000000;stroke-linecap:square;stroke-linejoin:miter;stroke-width:0.8;"/>
   </g>
   <g id="patch_5">
    <path d="M 72 504 
L 429.12 504 
" style="fill:none;stroke:#000000;stroke-linecap:square;stroke-linejoin:miter;stroke-width:0.8;"/>
   </g>
   <g id="patch_6">
    <path d="M 72 69.12 
L 429.12 69.12 
" style="fill:none;stroke:#000000;stroke-linecap:square;stroke-linejoin:miter;stroke-width:0.8;"/>
   </g>
  </g>
  <g id="axes_2">
   <g id="patch_7">
    <path clip-path="url(#p9ea6d2d980)" d="M 451.44 504 
L 451.44 449.64 
L 451.44 123.48 
L 451.44 69.12 
L 473.184 69.12 
L 473.184 123.48 
L 473.184 449.64 
L 473.184 504 
z
" style="fill:#ffffff;stroke:#ffffff;stroke-linejoin:miter;stroke-width:0.01;"/>
   </g>
   <g id="QuadMesh_1">
    <path clip-path="url(#p9ea6d2d980)" d="M 451.44 504 
L 473.184 504 
L 473.184 449.64 
L 451.44 449.64 
L 451.44 504 
" style="fill:#4e68d8;"/>
    <path clip-path="url(#p9ea6d2d980)" d="M 451.44 449.64 
L 473.184 449.64 
L 473.184 395.28 
L 451.44 395.28 
L 451.44 449.64 
" style="fill:#779af7;"/>
    <path clip-path="url(#p9ea6d2d980)" d="M 451.44 395.28 
L 473.184 395.28 
L 473.184 340.92 
L 451.44 340.92 
L 451.44 395.28 
" style="fill:#a3c2fe;"/>
    <path clip-path="url(#p9ea6d2d980)" d="M 451.44 340.92 
L 473.184 340.92 
L 473.184 286.56 
L 451.44 286.56 
L 451.44 340.92 
" style="fill:#ccd9ed;"/>
    <path clip-path="url(#p9ea6d2d980)" d="M 451.44 286.56 
L 473.184 286.56 
L 473.184 232.2 
L 451.44 232.2 
L 451.44 286.56 
" style="fill:#ecd3c5;"/>
    <path clip-path="url(#p9ea6d2d980)" d="M 451.44 232.2 
L 473.184 232.2 
L 473.184 177.84 
L 451.44 177.84 
L 451.44 232.2 
" style="fill:#f7b093;"/>
    <path clip-path="url(#p9ea6d2d980)" d="M 451.44 177.84 
L 473.184 177.84 
L 473.184 123.48 
L 451.44 123.48 
L 451.44 177.84 
" style="fill:#eb7d62;"/>
    <path clip-path="url(#p9ea6d2d980)" d="M 451.44 123.48 
L 473.184 123.48 
L 473.184 69.12 
L 451.44 69.12 
L 451.44 123.48 
" style="fill:#ca3b37;"/>
   </g>
   <g id="matplotlib.axis_3"/>
   <g id="matplotlib.axis_4">
    <g id="ytick_6">
     <g id="line2d_11">
      <defs>
       <path d="M 0 0 
L 3.5 0 
" id="md1275ab448" style="stroke:#000000;stroke-width:0.8;"/>
      </defs>
      <g>
       <use style="stroke:#000000;stroke-width:0.8;" x="473.184" xlink:href="#md1275ab448" y="504"/>
      </g>
     </g>
     <g id="text_11">
      <!-- 140 -->
      <defs>
       <path d="M 12.40625 8.296875 
L 28.515625 8.296875 
L 28.515625 63.921875 
L 10.984375 60.40625 
L 10.984375 69.390625 
L 28.421875 72.90625 
L 38.28125 72.90625 
L 38.28125 8.296875 
L 54.390625 8.296875 
L 54.390625 0 
L 12.40625 0 
z
" id="DejaVuSans-31"/>
      </defs>
      <g transform="translate(480.184 507.799219)scale(0.1 -0.1)">
       <use xlink:href="#DejaVuSans-2212"/>
       <use x="83.789062" xlink:href="#DejaVuSans-31"/>
       <use x="147.412109" xlink:href="#DejaVuSans-34"/>
       <use x="211.035156" xlink:href="#DejaVuSans-30"/>
      </g>
     </g>
    </g>
    <g id="ytick_7">
     <g id="line2d_12">
      <g>
       <use style="stroke:#000000;stroke-width:0.8;" x="473.184" xlink:href="#md1275ab448" y="449.64"/>
      </g>
     </g>
     <g id="text_12">
      <!-- 120 -->
      <g transform="translate(480.184 453.439219)scale(0.1 -0.1)">
       <use xlink:href="#DejaVuSans-2212"/>
       <use x="83.789062" xlink:href="#DejaVuSans-31"/>
       <use x="147.412109" xlink:href="#DejaVuSans-32"/>
       <use x="211.035156" xlink:href="#DejaVuSans-30"/>
      </g>
     </g>
    </g>
    <g id="ytick_8">
     <g id="line2d_13">
      <g>
       <use style="stroke:#000000;stroke-width:0.8;" x="473.184" xlink:href="#md1275ab448" y="395.28"/>
      </g>
     </g>
     <g id="text_13">
      <!-- 100 -->
      <g transform="translate(480.184 399.079219)scale(0.1 -0.1)">
       <use xlink:href="#DejaVuSans-2212"/>
       <use x="83.789062" xlink:href="#DejaVuSans-31"/>
       <use x="147.412109" xlink:href="#DejaVuSans-30"/>
       <use x="211.035156" xlink:href="#DejaVuSans-30"/>
      </g>
     </g>
    </g>
    <g id="ytick_9">
     <g id="line2d_14">
      <g>
       <use style="stroke:#000000;stroke-width:0.8;" x="473.184" xlink:href="#md1275ab448" y="340.92"/>
      </g>
     </g>
     <g id="text_14">
      <!-- 80 -->
      <defs>
       <path d="M 31.78125 34.625 
Q 24.75 34.625 20.71875 30.859375 
Q 16.703125 27.09375 16.703125 20.515625 
Q 16.703125 13.921875 20.71875 10.15625 
Q 24.75 6.390625 31.78125 6.390625 
Q 38.8125 6.390625 42.859375 10.171875 
Q 46.921875 13.96875 46.921875 20.515625 
Q 46.921875 27.09375 42.890625 30.859375 
Q 38.875 34.625 31.78125 34.625 
z
M 21.921875 38.8125 
Q 15.578125 40.375 12.03125 44.71875 
Q 8.5 49.078125 8.5 55.328125 
Q 8.5 64.0625 14.71875 69.140625 
Q 20.953125 74.21875 31.78125 74.21875 
Q 42.671875 74.21875 48.875 69.140625 
Q 55.078125 64.0625 55.078125 55.328125 
Q 55.078125 49.078125 51.53125 44.71875 
Q 48 40.375 41.703125 38.8125 
Q 48.828125 37.15625 52.796875 32.3125 
Q 56.78125 27.484375 56.78125 20.515625 
Q 56.78125 9.90625 50.3125 4.234375 
Q 43.84375 -1.421875 31.78125 -1.421875 
Q 19.734375 -1.421875 13.25 4.234375 
Q 6.78125 9.90625 6.78125 20.515625 
Q 6.78125 27.484375 10.78125 32.3125 
Q 14.796875 37.15625 21.921875 38.8125 
z
M 18.3125 54.390625 
Q 18.3125 48.734375 21.84375 45.5625 
Q 25.390625 42.390625 31.78125 42.390625 
Q 38.140625 42.390625 41.71875 45.5625 
Q 45.3125 48.734375 45.3125 54.390625 
Q 45.3125 60.0625 41.71875 63.234375 
Q 38.140625 66.40625 31.78125 66.40625 
Q 25.390625 66.40625 21.84375 63.234375 
Q 18.3125 60.0625 18.3125 54.390625 
z
" id="DejaVuSans-38"/>
      </defs>
      <g transform="translate(480.184 344.719219)scale(0.1 -0.1)">
       <use xlink:href="#DejaVuSans-2212"/>
       <use x="83.789062" xlink:href="#DejaVuSans-38"/>
       <use x="147.412109" xlink:href="#DejaVuSans-30"/>
      </g>
     </g>
    </g>
    <g id="ytick_10">
     <g id="line2d_15">
      <g>
       <use style="stroke:#000000;stroke-width:0.8;" x="473.184" xlink:href="#md1275ab448" y="286.56"/>
      </g>
     </g>
     <g id="text_15">
      <!-- 60 -->
      <defs>
       <path d="M 33.015625 40.375 
Q 26.375 40.375 22.484375 35.828125 
Q 18.609375 31.296875 18.609375 23.390625 
Q 18.609375 15.53125 22.484375 10.953125 
Q 26.375 6.390625 33.015625 6.390625 
Q 39.65625 6.390625 43.53125 10.953125 
Q 47.40625 15.53125 47.40625 23.390625 
Q 47.40625 31.296875 43.53125 35.828125 
Q 39.65625 40.375 33.015625 40.375 
z
M 52.59375 71.296875 
L 52.59375 62.3125 
Q 48.875 64.0625 45.09375 64.984375 
Q 41.3125 65.921875 37.59375 65.921875 
Q 27.828125 65.921875 22.671875 59.328125 
Q 17.53125 52.734375 16.796875 39.40625 
Q 19.671875 43.65625 24.015625 45.921875 
Q 28.375 48.1875 33.59375 48.1875 
Q 44.578125 48.1875 50.953125 41.515625 
Q 57.328125 34.859375 57.328125 23.390625 
Q 57.328125 12.15625 50.6875 5.359375 
Q 44.046875 -1.421875 33.015625 -1.421875 
Q 20.359375 -1.421875 13.671875 8.265625 
Q 6.984375 17.96875 6.984375 36.375 
Q 6.984375 53.65625 15.1875 63.9375 
Q 23.390625 74.21875 37.203125 74.21875 
Q 40.921875 74.21875 44.703125 73.484375 
Q 48.484375 72.75 52.59375 71.296875 
z
" id="DejaVuSans-36"/>
      </defs>
      <g transform="translate(480.184 290.359219)scale(0.1 -0.1)">
       <use xlink:href="#DejaVuSans-2212"/>
       <use x="83.789062" xlink:href="#DejaVuSans-36"/>
       <use x="147.412109" xlink:href="#DejaVuSans-30"/>
      </g>
     </g>
    </g>
    <g id="ytick_11">
     <g id="line2d_16">
      <g>
       <use style="stroke:#000000;stroke-width:0.8;" x="473.184" xlink:href="#md1275ab448" y="232.2"/>
      </g>
     </g>
     <g id="text_16">
      <!-- 40 -->
      <g transform="translate(480.184 235.999219)scale(0.1 -0.1)">
       <use xlink:href="#DejaVuSans-2212"/>
       <use x="83.789062" xlink:href="#DejaVuSans-34"/>
       <use x="147.412109" xlink:href="#DejaVuSans-30"/>
      </g>
     </g>
    </g>
    <g id="ytick_12">
     <g id="line2d_17">
      <g>
       <use style="stroke:#000000;stroke-width:0.8;" x="473.184" xlink:href="#md1275ab448" y="177.84"/>
      </g>
     </g>
     <g id="text_17">
      <!-- 20 -->
      <g transform="translate(480.184 181.639219)scale(0.1 -0.1)">
       <use xlink:href="#DejaVuSans-2212"/>
       <use x="83.789062" xlink:href="#DejaVuSans-32"/>
       <use x="147.412109" xlink:href="#DejaVuSans-30"/>
      </g>
     </g>
    </g>
    <g id="ytick_13">
     <g id="line2d_18">
      <g>
       <use style="stroke:#000000;stroke-width:0.8;" x="473.184" xlink:href="#md1275ab448" y="123.48"/>
      </g>
     </g>
     <g id="text_18">
      <!-- 0 -->
      <g transform="translate(480.184 127.279219)scale(0.1 -0.1)">
       <use xlink:href="#DejaVuSans-30"/>
      </g>
     </g>
    </g>
    <g id="ytick_14">
     <g id="line2d_19">
      <g>
       <use style="stroke:#000000;stroke-width:0.8;" x="473.184" xlink:href="#md1275ab448" y="69.12"/>
      </g>
     </g>
     <g id="text_19">
      <!-- 20 -->
      <g transform="translate(480.184 72.919219)scale(0.1 -0.1)">
       <use xlink:href="#DejaVuSans-32"/>
       <use x="63.623047" xlink:href="#DejaVuSans-30"/>
      </g>
     </g>
    </g>
   </g>
   <g id="patch_8">
    <path d="M 451.44 504 
L 451.44 449.64 
L 451.44 123.48 
L 451.44 69.12 
L 473.184 69.12 
L 473.184 123.48 
L 473.184 449.64 
L 473.184 504 
z
" style="fill:none;stroke:#000000;stroke-linejoin:miter;stroke-width:0.8;"/>
   </g>
  </g>
 </g>
 <defs>
  <clipPath id="pe64c16ed37">
   <rect height="434.88" width="357.12" x="72" y="69.12"/>
  </clipPath>
  <clipPath id="p9ea6d2d980">
   <rect height="434.88" width="21.744" x="451.44" y="69.12"/>
  </clipPath>
 </defs>
</svg>
