<?xml version="1.0" encoding="utf-8" standalone="no"?>
<!DOCTYPE svg PUBLIC "-//W3C//DTD SVG 1.1//EN"
  "http://www.w3.org/Graphics/SVG/1.1/DTD/svg11.dtd">
<!-- Created with matplotlib (http://matplotlib.org/) -->
<svg height="576pt" version="1.1" viewBox="0 0 576 576" width="576pt" xmlns="http://www.w3.org/2000/svg" xmlns:xlink="http://www.w3.org/1999/xlink">
 <defs>
  <style type="text/css">
*{stroke-linecap:butt;stroke-linejoin:round;}
  </style>
 </defs>
 <g id="figure_1">
  <g id="patch_1">
   <path d="M 0 576 
L 576 576 
L 576 0 
L 0 0 
z
" style="fill:#ffffff;"/>
  </g>
  <g id="axes_1">
   <g id="patch_2">
    <path d="M 72 504 
L 429.12 504 
L 429.12 69.12 
L 72 69.12 
z
" style="fill:#ffffff;"/>
   </g>
   <g id="PathCollection_1">
    <path clip-path="url(#p70adaefba0)" d="M 75.607273 504 
L 79.214545 504 
L 80.536323 504 
L 79.214545 501.206005 
L 78.45822 499.607273 
L 76.380117 495.214545 
L 75.607273 493.580907 
L 74.301998 490.821818 
L 72.223894 486.429091 
L 72 485.955823 
L 72 486.429091 
L 72 490.821818 
L 72 495.214545 
L 72 499.607273 
L 72 504 
z
" style="fill:#4e68d8;"/>
    <path clip-path="url(#p70adaefba0)" d="M 403.869091 504 
L 407.476364 504 
L 411.083636 504 
L 414.690909 504 
L 418.298182 504 
L 421.905455 504 
L 425.512727 504 
L 429.12 504 
L 429.12 499.607273 
L 429.12 495.214545 
L 429.12 490.821818 
L 429.12 486.429091 
L 429.12 482.036364 
L 429.12 477.643636 
L 429.12 473.250909 
L 429.12 468.858182 
L 429.12 464.465455 
L 429.12 460.072727 
L 429.12 458.50752 
L 428.45634 460.072727 
L 426.588907 464.465455 
L 425.512727 466.987425 
L 424.713548 468.858182 
L 422.845696 473.250909 
L 421.905455 475.230177 
L 420.615343 477.643636 
L 418.298182 481.5971 
L 418.040723 482.036364 
L 415.46606 486.429091 
L 414.690909 487.751629 
L 412.891463 490.821818 
L 411.083636 493.463943 
L 409.679099 495.214545 
L 407.476364 497.922969 
L 406.106536 499.607273 
L 403.869091 502.14275 
L 401.964102 504 
z
" style="fill:#4e68d8;"/>
    <path clip-path="url(#p70adaefba0)" d="M 429.12 119.590766 
L 429.12 117.44 
L 429.12 113.047273 
L 429.12 108.654545 
L 429.12 104.261818 
L 429.12 99.869091 
L 429.12 95.476364 
L 429.12 91.083636 
L 429.12 86.690909 
L 429.12 82.298182 
L 429.12 77.905455 
L 429.12 73.512727 
L 429.12 69.12 
L 425.512727 69.12 
L 421.905455 69.12 
L 418.298182 69.12 
L 414.690909 69.12 
L 411.083636 69.12 
L 408.16283 69.12 
L 410.878825 73.512727 
L 411.083636 73.843214 
L 413.605523 77.905455 
L 414.690909 79.64171 
L 416.274923 82.298182 
L 418.298182 86.524318 
L 418.371475 86.690909 
L 420.284814 91.083636 
L 421.781904 95.476364 
L 421.905455 95.882377 
L 423.118636 99.869091 
L 424.455346 104.261818 
L 425.512727 107.73656 
L 425.792074 108.654545 
L 427.128791 113.047273 
L 428.465505 117.44 
z
" style="fill:#4e68d8;"/>
    <path clip-path="url(#p70adaefba0)" d="M 73.645488 86.690909 
L 75.561045 82.298182 
L 75.607273 82.192173 
L 77.645829 77.905455 
L 79.214545 75.235958 
L 80.271529 73.512727 
L 82.821818 69.382036 
L 82.983601 69.12 
L 82.821818 69.12 
L 79.214545 69.12 
L 75.607273 69.12 
L 72 69.12 
L 72 73.512727 
L 72 77.905455 
L 72 82.298182 
L 72 86.690909 
L 72 90.464318 
z
" style="fill:#4e68d8;"/>
   </g>
   <g id="PathCollection_2">
    <path clip-path="url(#p70adaefba0)" d="M 79.214545 501.206005 
L 80.536323 504 
L 82.821818 504 
L 86.429091 504 
L 90.036364 504 
L 93.643636 504 
L 97.250909 504 
L 100.858182 504 
L 104.465455 504 
L 108.072727 504 
L 111.68 504 
L 115.287273 504 
L 118.894545 504 
L 122.501818 504 
L 126.109091 504 
L 129.716364 504 
L 133.323636 504 
L 136.930909 504 
L 140.538182 504 
L 144.145455 504 
L 147.752727 504 
L 151.36 504 
L 154.967273 504 
L 158.574545 504 
L 162.181818 504 
L 165.789091 504 
L 169.396364 504 
L 173.003636 504 
L 176.610909 504 
L 180.218182 504 
L 183.825455 504 
L 187.432727 504 
L 191.04 504 
L 194.352354 504 
L 191.04 503.466797 
L 187.432727 502.886164 
L 183.825455 502.305504 
L 180.218182 501.724855 
L 176.610909 501.144192 
L 173.003636 500.563529 
L 169.396364 499.982866 
L 167.062926 499.607273 
L 165.789091 499.404491 
L 162.181818 498.87365 
L 158.574545 498.34317 
L 154.967273 497.818197 
L 151.36 497.29974 
L 147.752727 496.788423 
L 144.145455 496.277113 
L 140.538182 495.788094 
L 136.930909 495.306927 
L 136.284898 495.214545 
L 133.323636 494.752244 
L 129.716364 493.495051 
L 126.109091 491.736635 
L 124.250085 490.821818 
L 122.501818 489.854528 
L 118.894545 487.105021 
L 118.196353 486.429091 
L 115.287273 482.697534 
L 114.846136 482.036364 
L 111.915301 477.643636 
L 111.68 477.29097 
L 108.984468 473.250909 
L 108.072727 471.575359 
L 106.787128 468.858182 
L 104.709023 464.465455 
L 104.465455 463.950603 
L 102.63089 460.072727 
L 100.858182 456.325515 
L 100.5528 455.68 
L 98.474672 451.287273 
L 97.250909 448.572989 
L 96.583299 446.894545 
L 95.202786 442.501818 
L 93.822298 438.109091 
L 93.643636 437.54059 
L 92.441804 433.716364 
L 91.06132 429.323636 
L 90.036364 426.062286 
L 89.680803 424.930909 
L 88.300328 420.538182 
L 86.910296 416.145455 
L 86.429091 414.631738 
L 85.512665 411.752727 
L 84.114354 407.36 
L 82.821818 403.299484 
L 82.716071 402.967273 
L 81.317796 398.574545 
L 79.896687 394.181818 
L 79.214545 392.086233 
L 78.466789 389.789091 
L 77.036918 385.396364 
L 75.607273 381.004305 
L 75.607055 381.003636 
L 74.177167 376.610909 
L 72.747298 372.218182 
L 72 369.94053 
L 72 372.218182 
L 72 376.610909 
L 72 381.003636 
L 72 385.396364 
L 72 389.789091 
L 72 394.181818 
L 72 398.574545 
L 72 402.967273 
L 72 407.36 
L 72 411.752727 
L 72 416.145455 
L 72 420.538182 
L 72 424.930909 
L 72 429.323636 
L 72 433.716364 
L 72 438.109091 
L 72 442.501818 
L 72 446.894545 
L 72 451.287273 
L 72 455.68 
L 72 460.072727 
L 72 464.465455 
L 72 468.858182 
L 72 473.250909 
L 72 477.643636 
L 72 482.036364 
L 72 485.955823 
L 72.223894 486.429091 
L 74.301998 490.821818 
L 75.607273 493.580907 
L 76.380117 495.214545 
L 78.45822 499.607273 
z
" style="fill:#779af7;"/>
    <path clip-path="url(#p70adaefba0)" d="M 310.08 504 
L 313.687273 504 
L 317.294545 504 
L 320.901818 504 
L 324.509091 504 
L 328.116364 504 
L 331.723636 504 
L 335.330909 504 
L 338.938182 504 
L 342.545455 504 
L 346.152727 504 
L 349.76 504 
L 353.367273 504 
L 356.974545 504 
L 360.581818 504 
L 364.189091 504 
L 367.796364 504 
L 371.403636 504 
L 375.010909 504 
L 378.618182 504 
L 382.225455 504 
L 385.832727 504 
L 389.44 504 
L 393.047273 504 
L 396.654545 504 
L 400.261818 504 
L 401.964102 504 
L 403.869091 502.14275 
L 406.106536 499.607273 
L 407.476364 497.922969 
L 409.679099 495.214545 
L 411.083636 493.463943 
L 412.891463 490.821818 
L 414.690909 487.751629 
L 415.46606 486.429091 
L 418.040723 482.036364 
L 418.298182 481.5971 
L 420.615343 477.643636 
L 421.905455 475.230177 
L 422.845696 473.250909 
L 424.713548 468.858182 
L 425.512727 466.987425 
L 426.588907 464.465455 
L 428.45634 460.072727 
L 429.12 458.50752 
L 429.12 455.68 
L 429.12 451.287273 
L 429.12 446.894545 
L 429.12 442.501818 
L 429.12 438.109091 
L 429.12 433.716364 
L 429.12 429.323636 
L 429.12 424.930909 
L 429.12 420.538182 
L 429.12 416.145455 
L 429.12 411.752727 
L 429.12 407.36 
L 429.12 402.967273 
L 429.12 398.574545 
L 429.12 394.181818 
L 429.12 389.789091 
L 429.12 385.396364 
L 429.12 381.003636 
L 429.12 376.610909 
L 429.12 372.218182 
L 429.12 367.825455 
L 429.12 363.432727 
L 429.12 359.04 
L 429.12 354.647273 
L 429.12 350.254545 
L 429.12 345.861818 
L 429.12 343.040891 
L 428.511848 345.861818 
L 427.564819 350.254545 
L 426.617784 354.647273 
L 425.512727 358.886383 
L 425.47131 359.04 
L 424.137772 363.432727 
L 422.811942 367.825455 
L 421.905455 370.828822 
L 421.486119 372.218182 
L 420.159996 376.610909 
L 418.821534 381.003636 
L 418.298182 382.714986 
L 417.478179 385.396364 
L 416.134842 389.789091 
L 414.791522 394.181818 
L 414.690909 394.510822 
L 413.448175 398.574545 
L 412.104827 402.967273 
L 411.083636 406.306585 
L 410.76149 407.36 
L 409.418159 411.752727 
L 407.868096 416.145455 
L 407.476364 417.074666 
L 406.007795 420.538182 
L 404.144792 424.930909 
L 403.869091 425.57816 
L 402.26886 429.323636 
L 400.396458 433.716364 
L 400.261818 434.033879 
L 398.539419 438.109091 
L 396.682778 442.501818 
L 396.654545 442.566405 
L 394.523139 446.894545 
L 393.047273 449.4126 
L 391.948506 451.287273 
L 389.44 455.567162 
L 389.373864 455.68 
L 386.497356 460.072727 
L 385.832727 460.932654 
L 382.959109 464.465455 
L 382.225455 465.367383 
L 379.190563 468.858182 
L 378.618182 469.442942 
L 375.010909 472.831565 
L 374.568291 473.250909 
L 371.403636 476.264872 
L 369.882678 477.643636 
L 367.796364 479.342004 
L 364.189091 481.90743 
L 364.007796 482.036364 
L 360.581818 484.478705 
L 357.88561 486.429091 
L 356.974545 487.096123 
L 353.367273 489.737185 
L 351.371737 490.821818 
L 349.76 491.610054 
L 346.152727 493.325408 
L 342.545455 495.041801 
L 342.187961 495.214545 
L 338.938182 496.748633 
L 335.330909 498.044033 
L 331.723636 499.26296 
L 330.704672 499.607273 
L 328.116364 500.475237 
L 324.509091 501.24061 
L 320.901818 501.839305 
L 317.294545 502.438 
L 313.687273 503.03674 
L 310.08 503.635439 
L 307.883552 504 
z
" style="fill:#779af7;"/>
    <path clip-path="url(#p70adaefba0)" d="M 429.12 249.319642 
L 429.12 249.221818 
L 429.12 244.829091 
L 429.12 240.436364 
L 429.12 236.043636 
L 429.12 231.650909 
L 429.12 227.258182 
L 429.12 222.865455 
L 429.12 218.472727 
L 429.12 214.08 
L 429.12 209.687273 
L 429.12 205.294545 
L 429.12 200.901818 
L 429.12 196.509091 
L 429.12 192.116364 
L 429.12 187.723636 
L 429.12 183.330909 
L 429.12 178.938182 
L 429.12 174.545455 
L 429.12 170.152727 
L 429.12 165.76 
L 429.12 161.367273 
L 429.12 156.974545 
L 429.12 152.581818 
L 429.12 148.189091 
L 429.12 143.796364 
L 429.12 139.403636 
L 429.12 135.010909 
L 429.12 130.618182 
L 429.12 126.225455 
L 429.12 121.832727 
L 429.12 119.590766 
L 428.465505 117.44 
L 427.128791 113.047273 
L 425.792074 108.654545 
L 425.512727 107.73656 
L 424.455346 104.261818 
L 423.118636 99.869091 
L 421.905455 95.882377 
L 421.781904 95.476364 
L 420.284814 91.083636 
L 418.371475 86.690909 
L 418.298182 86.524318 
L 416.274923 82.298182 
L 414.690909 79.64171 
L 413.605523 77.905455 
L 411.083636 73.843214 
L 410.878825 73.512727 
L 408.16283 69.12 
L 407.476364 69.12 
L 403.869091 69.12 
L 400.261818 69.12 
L 396.654545 69.12 
L 393.047273 69.12 
L 389.44 69.12 
L 385.832727 69.12 
L 382.225455 69.12 
L 378.618182 69.12 
L 375.010909 69.12 
L 371.403636 69.12 
L 367.796364 69.12 
L 364.189091 69.12 
L 360.581818 69.12 
L 356.974545 69.12 
L 353.367273 69.12 
L 349.76 69.12 
L 346.152727 69.12 
L 342.545455 69.12 
L 338.938182 69.12 
L 335.330909 69.12 
L 331.723636 69.12 
L 328.116364 69.12 
L 324.509091 69.12 
L 320.901818 69.12 
L 317.294545 69.12 
L 313.687273 69.12 
L 310.08 69.12 
L 306.472727 69.12 
L 302.865455 69.12 
L 299.258182 69.12 
L 295.650909 69.12 
L 292.043636 69.12 
L 288.902648 69.12 
L 292.043636 69.808942 
L 295.650909 70.596431 
L 299.258182 71.380884 
L 302.865455 72.141056 
L 306.472727 72.889325 
L 309.477981 73.512727 
L 310.08 73.637609 
L 313.687273 74.385874 
L 317.294545 75.134135 
L 320.901818 75.882391 
L 324.509091 76.630668 
L 328.116364 77.378929 
L 330.653829 77.905455 
L 331.723636 78.127435 
L 335.330909 78.8761 
L 338.938182 79.62476 
L 342.545455 80.373414 
L 346.152727 81.122086 
L 349.76 82.166435 
L 350.11121 82.298182 
L 353.367273 83.526425 
L 356.974545 84.887161 
L 360.581818 86.247841 
L 361.756413 86.690909 
L 364.189091 87.608534 
L 367.796364 88.991878 
L 371.403636 90.963586 
L 371.596628 91.083636 
L 375.010909 93.451238 
L 377.376403 95.476364 
L 378.618182 96.63208 
L 381.48834 99.869091 
L 382.225455 100.729383 
L 384.851216 104.261818 
L 385.832727 105.802179 
L 387.615848 108.654545 
L 389.44 111.572601 
L 390.268166 113.047273 
L 392.268247 117.44 
L 393.047273 119.210644 
L 394.190659 121.832727 
L 395.7729 126.225455 
L 396.654545 129.122699 
L 397.109627 130.618182 
L 398.446343 135.010909 
L 399.783074 139.403636 
L 400.261818 140.976882 
L 401.119797 143.796364 
L 402.456488 148.189091 
L 403.794407 152.581818 
L 403.869091 152.826611 
L 405.13465 156.974545 
L 406.474918 161.367273 
L 407.476364 164.649554 
L 407.815172 165.76 
L 409.155444 170.152727 
L 410.493636 174.545455 
L 411.083636 176.506314 
L 411.812566 178.938182 
L 413.129246 183.330909 
L 414.445925 187.723636 
L 414.690909 188.540969 
L 415.762595 192.116364 
L 417.07929 196.509091 
L 418.298182 200.575588 
L 418.395966 200.901818 
L 419.712629 205.294545 
L 421.029308 209.687273 
L 421.905455 212.610244 
L 422.346008 214.08 
L 423.494831 218.472727 
L 424.290473 222.865455 
L 425.092418 227.258182 
L 425.512727 229.560376 
L 425.894387 231.650909 
L 426.6963 236.043636 
L 427.498247 240.436364 
L 428.300201 244.829091 
L 429.102141 249.221818 
z
" style="fill:#779af7;"/>
    <path clip-path="url(#p70adaefba0)" d="M 72.941899 192.116364 
L 74.366809 187.723636 
L 75.607273 183.823017 
L 75.762652 183.330909 
L 77.148723 178.938182 
L 78.518001 174.545455 
L 79.214545 172.308253 
L 79.885654 170.152727 
L 81.253316 165.76 
L 82.620948 161.367273 
L 82.821818 160.781315 
L 84.22955 156.974545 
L 86.145117 152.581818 
L 86.429091 151.930624 
L 88.060684 148.189091 
L 89.976215 143.796364 
L 90.036364 143.658435 
L 91.891796 139.403636 
L 93.643636 135.38639 
L 93.807376 135.010909 
L 95.722911 130.618182 
L 97.250909 127.114215 
L 97.638475 126.225455 
L 99.554032 121.832727 
L 100.858182 118.842144 
L 101.467249 117.44 
L 103.366416 113.047273 
L 104.465455 110.650488 
L 105.499182 108.654545 
L 108.072727 104.371117 
L 108.138395 104.261818 
L 111.143112 99.869091 
L 111.68 99.269437 
L 115.287273 95.900783 
L 115.741755 95.476364 
L 118.894545 92.536165 
L 120.869345 91.083636 
L 122.501818 90.033339 
L 126.109091 87.712529 
L 127.696991 86.690909 
L 129.716364 85.392758 
L 133.323636 83.624312 
L 136.578235 82.298182 
L 136.930909 82.154597 
L 140.538182 80.69863 
L 144.145455 79.242687 
L 147.458659 77.905455 
L 147.752727 77.786764 
L 151.36 76.330815 
L 154.967273 74.87486 
L 158.342198 73.512727 
L 158.574545 73.41895 
L 162.181818 71.962971 
L 165.789091 70.543949 
L 169.396364 69.542097 
L 171.000811 69.12 
L 169.396364 69.12 
L 165.789091 69.12 
L 162.181818 69.12 
L 158.574545 69.12 
L 154.967273 69.12 
L 151.36 69.12 
L 147.752727 69.12 
L 144.145455 69.12 
L 140.538182 69.12 
L 136.930909 69.12 
L 133.323636 69.12 
L 129.716364 69.12 
L 126.109091 69.12 
L 122.501818 69.12 
L 118.894545 69.12 
L 115.287273 69.12 
L 111.68 69.12 
L 108.072727 69.12 
L 104.465455 69.12 
L 100.858182 69.12 
L 97.250909 69.12 
L 93.643636 69.12 
L 90.036364 69.12 
L 86.429091 69.12 
L 82.983601 69.12 
L 82.821818 69.382036 
L 80.271529 73.512727 
L 79.214545 75.235958 
L 77.645829 77.905455 
L 75.607273 82.192173 
L 75.561045 82.298182 
L 73.645488 86.690909 
L 72 90.464318 
L 72 91.083636 
L 72 95.476364 
L 72 99.869091 
L 72 104.261818 
L 72 108.654545 
L 72 113.047273 
L 72 117.44 
L 72 121.832727 
L 72 126.225455 
L 72 130.618182 
L 72 135.010909 
L 72 139.403636 
L 72 143.796364 
L 72 148.189091 
L 72 152.581818 
L 72 156.974545 
L 72 161.367273 
L 72 165.76 
L 72 170.152727 
L 72 174.545455 
L 72 178.938182 
L 72 183.330909 
L 72 187.723636 
L 72 192.116364 
L 72 195.002367 
z
" style="fill:#779af7;"/>
   </g>
   <g id="PathCollection_3">
    <path clip-path="url(#p70adaefba0)" d="M 169.396364 499.982866 
L 173.003636 500.563529 
L 176.610909 501.144192 
L 180.218182 501.724855 
L 183.825455 502.305504 
L 187.432727 502.886164 
L 191.04 503.466797 
L 194.352354 504 
L 194.647273 504 
L 198.254545 504 
L 201.861818 504 
L 205.469091 504 
L 209.076364 504 
L 212.683636 504 
L 216.290909 504 
L 219.898182 504 
L 223.505455 504 
L 227.112727 504 
L 230.72 504 
L 234.327273 504 
L 237.934545 504 
L 241.541818 504 
L 245.149091 504 
L 248.756364 504 
L 252.363636 504 
L 255.970909 504 
L 259.578182 504 
L 263.185455 504 
L 266.792727 504 
L 270.4 504 
L 274.007273 504 
L 277.614545 504 
L 281.221818 504 
L 284.829091 504 
L 288.436364 504 
L 292.043636 504 
L 295.650909 504 
L 299.258182 504 
L 302.865455 504 
L 306.472727 504 
L 307.883552 504 
L 310.08 503.635439 
L 313.687273 503.03674 
L 317.294545 502.438 
L 320.901818 501.839305 
L 324.509091 501.24061 
L 328.116364 500.475237 
L 330.704672 499.607273 
L 331.723636 499.26296 
L 335.330909 498.044033 
L 338.938182 496.748633 
L 342.187961 495.214545 
L 342.545455 495.041801 
L 346.152727 493.325408 
L 349.76 491.610054 
L 351.371737 490.821818 
L 353.367273 489.737185 
L 356.974545 487.096123 
L 357.88561 486.429091 
L 360.581818 484.478705 
L 364.007796 482.036364 
L 364.189091 481.90743 
L 367.796364 479.342004 
L 369.882678 477.643636 
L 371.403636 476.264872 
L 374.568291 473.250909 
L 375.010909 472.831565 
L 378.618182 469.442942 
L 379.190563 468.858182 
L 382.225455 465.367383 
L 382.959109 464.465455 
L 385.832727 460.932654 
L 386.497356 460.072727 
L 389.373864 455.68 
L 389.44 455.567162 
L 391.948506 451.287273 
L 393.047273 449.4126 
L 394.523139 446.894545 
L 396.654545 442.566405 
L 396.682778 442.501818 
L 398.539419 438.109091 
L 400.261818 434.033879 
L 400.396458 433.716364 
L 402.26886 429.323636 
L 403.869091 425.57816 
L 404.144792 424.930909 
L 406.007795 420.538182 
L 407.476364 417.074666 
L 407.868096 416.145455 
L 409.418159 411.752727 
L 410.76149 407.36 
L 411.083636 406.306585 
L 412.104827 402.967273 
L 413.448175 398.574545 
L 414.690909 394.510822 
L 414.791522 394.181818 
L 416.134842 389.789091 
L 417.478179 385.396364 
L 418.298182 382.714986 
L 418.821534 381.003636 
L 420.159996 376.610909 
L 421.486119 372.218182 
L 421.905455 370.828822 
L 422.811942 367.825455 
L 424.137772 363.432727 
L 425.47131 359.04 
L 425.512727 358.886383 
L 426.617784 354.647273 
L 427.564819 350.254545 
L 428.511848 345.861818 
L 429.12 343.040891 
L 429.12 341.469091 
L 429.12 337.076364 
L 429.12 332.683636 
L 429.12 328.290909 
L 429.12 323.898182 
L 429.12 319.505455 
L 429.12 315.112727 
L 429.12 310.72 
L 429.12 306.327273 
L 429.12 301.934545 
L 429.12 297.541818 
L 429.12 293.149091 
L 429.12 288.756364 
L 429.12 284.363636 
L 429.12 279.970909 
L 429.12 275.578182 
L 429.12 271.185455 
L 429.12 266.792727 
L 429.12 262.4 
L 429.12 258.007273 
L 429.12 253.614545 
L 429.12 249.319642 
L 429.102141 249.221818 
L 428.300201 244.829091 
L 427.498247 240.436364 
L 426.6963 236.043636 
L 425.894387 231.650909 
L 425.512727 229.560376 
L 425.092418 227.258182 
L 424.290473 222.865455 
L 423.494831 218.472727 
L 422.346008 214.08 
L 421.905455 212.610244 
L 421.029308 209.687273 
L 419.712629 205.294545 
L 418.395966 200.901818 
L 418.298182 200.575588 
L 417.07929 196.509091 
L 415.762595 192.116364 
L 414.690909 188.540969 
L 414.445925 187.723636 
L 413.129246 183.330909 
L 411.812566 178.938182 
L 411.083636 176.506314 
L 410.493636 174.545455 
L 409.155444 170.152727 
L 407.815172 165.76 
L 407.476364 164.649554 
L 406.474918 161.367273 
L 405.13465 156.974545 
L 403.869091 152.826611 
L 403.794407 152.581818 
L 402.456488 148.189091 
L 401.119797 143.796364 
L 400.261818 140.976882 
L 399.783074 139.403636 
L 398.446343 135.010909 
L 397.109627 130.618182 
L 396.654545 129.122699 
L 395.7729 126.225455 
L 394.190659 121.832727 
L 393.047273 119.210644 
L 392.268247 117.44 
L 390.268166 113.047273 
L 389.44 111.572601 
L 387.615848 108.654545 
L 385.832727 105.802179 
L 384.851216 104.261818 
L 382.225455 100.729383 
L 381.48834 99.869091 
L 378.618182 96.63208 
L 377.376403 95.476364 
L 375.010909 93.451238 
L 371.596628 91.083636 
L 371.403636 90.963586 
L 367.796364 88.991878 
L 364.189091 87.608534 
L 361.756413 86.690909 
L 360.581818 86.247841 
L 356.974545 84.887161 
L 353.367273 83.526425 
L 350.11121 82.298182 
L 349.76 82.166435 
L 346.152727 81.122086 
L 342.545455 80.373414 
L 338.938182 79.62476 
L 335.330909 78.8761 
L 331.723636 78.127435 
L 330.653829 77.905455 
L 328.116364 77.378929 
L 324.509091 76.630668 
L 320.901818 75.882391 
L 317.294545 75.134135 
L 313.687273 74.385874 
L 310.08 73.637609 
L 309.477981 73.512727 
L 306.472727 72.889325 
L 302.865455 72.141056 
L 299.258182 71.380884 
L 295.650909 70.596431 
L 292.043636 69.808942 
L 288.902648 69.12 
L 288.436364 69.12 
L 284.829091 69.12 
L 281.221818 69.12 
L 277.614545 69.12 
L 274.007273 69.12 
L 270.4 69.12 
L 266.792727 69.12 
L 263.185455 69.12 
L 259.578182 69.12 
L 255.970909 69.12 
L 252.363636 69.12 
L 248.756364 69.12 
L 245.149091 69.12 
L 241.541818 69.12 
L 237.934545 69.12 
L 234.327273 69.12 
L 230.72 69.12 
L 227.112727 69.12 
L 223.505455 69.12 
L 219.898182 69.12 
L 216.290909 69.12 
L 212.683636 69.12 
L 209.076364 69.12 
L 205.469091 69.12 
L 201.861818 69.12 
L 198.254545 69.12 
L 194.647273 69.12 
L 191.04 69.12 
L 187.432727 69.12 
L 183.825455 69.12 
L 180.218182 69.12 
L 176.610909 69.12 
L 173.003636 69.12 
L 171.000811 69.12 
L 169.396364 69.542097 
L 165.789091 70.543949 
L 162.181818 71.962971 
L 158.574545 73.41895 
L 158.342198 73.512727 
L 154.967273 74.87486 
L 151.36 76.330815 
L 147.752727 77.786764 
L 147.458659 77.905455 
L 144.145455 79.242687 
L 140.538182 80.69863 
L 136.930909 82.154597 
L 136.578235 82.298182 
L 133.323636 83.624312 
L 129.716364 85.392758 
L 127.696991 86.690909 
L 126.109091 87.712529 
L 122.501818 90.033339 
L 120.869345 91.083636 
L 118.894545 92.536165 
L 115.741755 95.476364 
L 115.287273 95.900783 
L 111.68 99.269437 
L 111.143112 99.869091 
L 108.138395 104.261818 
L 108.072727 104.371117 
L 105.499182 108.654545 
L 104.465455 110.650488 
L 103.366416 113.047273 
L 101.467249 117.44 
L 100.858182 118.842144 
L 99.554032 121.832727 
L 97.638475 126.225455 
L 97.250909 127.114215 
L 95.722911 130.618182 
L 93.807376 135.010909 
L 93.643636 135.38639 
L 91.891796 139.403636 
L 90.036364 143.658435 
L 89.976215 143.796364 
L 88.060684 148.189091 
L 86.429091 151.930624 
L 86.145117 152.581818 
L 84.22955 156.974545 
L 82.821818 160.781315 
L 82.620948 161.367273 
L 81.253316 165.76 
L 79.885654 170.152727 
L 79.214545 172.308253 
L 78.518001 174.545455 
L 77.148723 178.938182 
L 75.762652 183.330909 
L 75.607273 183.823017 
L 74.366809 187.723636 
L 72.941899 192.116364 
L 72 195.002367 
L 72 196.509091 
L 72 200.901818 
L 72 205.294545 
L 72 209.687273 
L 72 214.08 
L 72 218.472727 
L 72 222.865455 
L 72 227.258182 
L 72 231.650909 
L 72 236.043636 
L 72 240.436364 
L 72 244.829091 
L 72 249.221818 
L 72 253.614545 
L 72 258.007273 
L 72 262.4 
L 72 266.792727 
L 72 271.185455 
L 72 275.578182 
L 72 279.970909 
L 72 284.363636 
L 72 288.756364 
L 72 293.149091 
L 72 297.541818 
L 72 301.934545 
L 72 306.327273 
L 72 310.72 
L 72 315.112727 
L 72 319.505455 
L 72 323.898182 
L 72 328.290909 
L 72 332.683636 
L 72 337.076364 
L 72 341.469091 
L 72 345.861818 
L 72 350.254545 
L 72 354.647273 
L 72 359.04 
L 72 363.432727 
L 72 367.825455 
L 72 369.94053 
L 72.747298 372.218182 
L 74.177167 376.610909 
L 75.607055 381.003636 
L 75.607273 381.004305 
L 77.036918 385.396364 
L 78.466789 389.789091 
L 79.214545 392.086233 
L 79.896687 394.181818 
L 81.317796 398.574545 
L 82.716071 402.967273 
L 82.821818 403.299484 
L 84.114354 407.36 
L 85.512665 411.752727 
L 86.429091 414.631738 
L 86.910296 416.145455 
L 88.300328 420.538182 
L 89.680803 424.930909 
L 90.036364 426.062286 
L 91.06132 429.323636 
L 92.441804 433.716364 
L 93.643636 437.54059 
L 93.822298 438.109091 
L 95.202786 442.501818 
L 96.583299 446.894545 
L 97.250909 448.572989 
L 98.474672 451.287273 
L 100.5528 455.68 
L 100.858182 456.325515 
L 102.63089 460.072727 
L 104.465455 463.950603 
L 104.709023 464.465455 
L 106.787128 468.858182 
L 108.072727 471.575359 
L 108.984468 473.250909 
L 111.68 477.29097 
L 111.915301 477.643636 
L 114.846136 482.036364 
L 115.287273 482.697534 
L 118.196353 486.429091 
L 118.894545 487.105021 
L 122.501818 489.854528 
L 124.250085 490.821818 
L 126.109091 491.736635 
L 129.716364 493.495051 
L 133.323636 494.752244 
L 136.284898 495.214545 
L 136.930909 495.306927 
L 140.538182 495.788094 
L 144.145455 496.277113 
L 147.752727 496.788423 
L 151.36 497.29974 
L 154.967273 497.818197 
L 158.574545 498.34317 
L 162.181818 498.87365 
L 165.789091 499.404491 
L 167.062926 499.607273 
z
M 235.300815 468.858182 
L 234.327273 468.694731 
L 230.72 468.089121 
L 227.112727 467.48349 
L 223.505455 466.869506 
L 219.898182 466.252781 
L 216.290909 465.636059 
L 212.683636 465.019315 
L 209.443956 464.465455 
L 209.076364 464.40261 
L 205.469091 463.785872 
L 201.861818 463.171813 
L 198.254545 462.613173 
L 194.647273 462.098701 
L 191.04 461.587383 
L 187.432727 461.076043 
L 183.825455 460.564743 
L 180.354454 460.072727 
L 180.218182 460.053411 
L 176.610909 459.542106 
L 173.003636 459.030773 
L 169.396364 458.519454 
L 165.789091 458.00812 
L 162.181818 457.49681 
L 158.574545 456.980787 
L 154.967273 456.085584 
L 153.663788 455.68 
L 151.36 454.91226 
L 147.752727 453.138725 
L 144.844891 451.287273 
L 144.145455 450.762441 
L 140.678387 446.894545 
L 140.538182 446.695288 
L 137.767729 442.501818 
L 136.930909 441.237511 
L 135.117883 438.109091 
L 133.323636 434.320347 
L 133.037903 433.716364 
L 130.959819 429.323636 
L 129.716364 426.69526 
L 128.881669 424.930909 
L 126.803588 420.538182 
L 126.109091 419.070159 
L 124.837916 416.145455 
L 123.364573 411.752727 
L 122.501818 409.00741 
L 121.984094 407.36 
L 120.60357 402.967273 
L 119.223072 398.574545 
L 118.894545 397.529165 
L 117.842599 394.181818 
L 116.435717 389.789091 
L 115.287273 386.216094 
L 115.023789 385.396364 
L 113.611861 381.003636 
L 112.193826 376.610909 
L 111.68 375.028629 
L 110.765173 372.218182 
L 109.335318 367.825455 
L 108.072727 363.946654 
L 107.905439 363.432727 
L 106.475563 359.04 
L 105.045689 354.647273 
L 104.465455 352.864724 
L 103.61582 350.254545 
L 102.347821 345.861818 
L 101.527983 341.469091 
L 100.858182 337.880224 
L 100.708154 337.076364 
L 99.8883 332.683636 
L 99.068465 328.290909 
L 98.24862 323.898182 
L 97.416625 319.505455 
L 97.250909 318.643822 
L 96.567855 315.112727 
L 95.716487 310.72 
L 94.865132 306.327273 
L 94.088446 301.934545 
L 93.662021 297.541818 
L 93.643636 297.352445 
L 93.235567 293.149091 
L 92.793654 288.756364 
L 92.528442 284.363636 
L 92.495346 279.970909 
L 92.46225 275.578182 
L 92.830611 271.185455 
L 93.263048 266.792727 
L 93.643636 262.926466 
L 93.69546 262.4 
L 94.127872 258.007273 
L 94.560307 253.614545 
L 95.360255 249.221818 
L 96.366608 244.829091 
L 97.250909 240.969199 
L 97.372983 240.436364 
L 98.379335 236.043636 
L 99.385697 231.650909 
L 100.387818 227.258182 
L 100.858182 225.278332 
L 101.446674 222.865455 
L 102.833634 218.472727 
L 104.220608 214.08 
L 104.465455 213.304542 
L 105.607583 209.687273 
L 106.994539 205.294545 
L 108.072727 201.879799 
L 108.381519 200.901818 
L 109.768485 196.509091 
L 111.155441 192.116364 
L 111.68 190.455044 
L 112.542442 187.723636 
L 113.966914 183.330909 
L 115.287273 180.151751 
L 115.821996 178.938182 
L 117.757523 174.545455 
L 118.894545 171.953859 
L 119.676714 170.152727 
L 121.579404 165.76 
L 122.501818 163.610828 
L 123.465868 161.367273 
L 125.349138 156.974545 
L 126.109091 155.201948 
L 127.232405 152.581818 
L 129.115678 148.189091 
L 129.716364 146.78801 
L 130.995708 143.796364 
L 133.240214 139.403636 
L 133.323636 139.262276 
L 136.271266 135.010909 
L 136.930909 134.282602 
L 140.538182 130.836066 
L 140.766536 130.618182 
L 144.145455 127.410446 
L 145.68331 126.225455 
L 147.752727 124.83143 
L 151.36 122.486035 
L 152.815228 121.832727 
L 154.967273 120.962297 
L 158.574545 119.506369 
L 162.181818 118.050444 
L 163.694264 117.44 
L 165.789091 116.594496 
L 169.396364 115.138555 
L 173.003636 113.682631 
L 174.577786 113.047273 
L 176.610909 112.226664 
L 180.218182 110.770723 
L 183.825455 109.578498 
L 187.337394 108.654545 
L 187.432727 108.630383 
L 191.04 108.203766 
L 194.647273 107.856794 
L 198.254545 107.50981 
L 201.861818 107.162812 
L 205.469091 106.815822 
L 209.076364 106.463761 
L 212.683636 106.085538 
L 216.290909 105.695823 
L 219.898182 105.308638 
L 223.505455 104.92148 
L 227.112727 104.534299 
L 229.651341 104.261818 
L 230.72 104.146799 
L 234.327273 103.72382 
L 237.934545 103.284082 
L 241.541818 102.844188 
L 245.149091 102.731748 
L 248.756364 102.89054 
L 252.363636 103.049353 
L 255.970909 103.208165 
L 259.578182 103.963046 
L 260.934898 104.261818 
L 263.185455 104.75743 
L 266.792727 105.551782 
L 270.4 106.346143 
L 274.007273 107.140508 
L 277.614545 107.93487 
L 280.938872 108.654545 
L 281.221818 108.715594 
L 284.829091 109.478486 
L 288.436364 110.233935 
L 292.043636 110.98941 
L 295.650909 111.741231 
L 299.258182 112.490763 
L 301.942481 113.047273 
L 302.865455 113.2381 
L 306.472727 113.983887 
L 310.08 114.729663 
L 313.687273 115.475459 
L 317.294545 116.219838 
L 320.901818 116.95874 
L 323.2521 117.44 
L 324.509091 117.697392 
L 328.116364 118.480573 
L 331.723636 119.713566 
L 335.330909 121.059984 
L 337.400654 121.832727 
L 338.938182 122.406755 
L 342.545455 123.753595 
L 346.152727 125.125552 
L 348.169675 126.225455 
L 349.76 127.218044 
L 353.367273 130.031111 
L 354.053014 130.618182 
L 356.974545 133.333068 
L 358.463499 135.010909 
L 360.581818 137.782083 
L 361.635545 139.403636 
L 364.189091 143.710937 
L 364.233553 143.796364 
L 366.164964 148.189091 
L 367.796364 151.897077 
L 368.095184 152.581818 
L 369.763882 156.974545 
L 371.100626 161.367273 
L 371.403636 162.36304 
L 372.437323 165.76 
L 373.776103 170.152727 
L 375.010909 174.199815 
L 375.116368 174.545455 
L 376.456636 178.938182 
L 377.796891 183.330909 
L 378.618182 186.022686 
L 379.137162 187.723636 
L 380.477409 192.116364 
L 381.817679 196.509091 
L 382.225455 197.845585 
L 383.157929 200.901818 
L 384.490503 205.294545 
L 385.808691 209.687273 
L 385.832727 209.767463 
L 387.125367 214.08 
L 388.442037 218.472727 
L 389.44 221.80218 
L 389.758707 222.865455 
L 391.075402 227.258182 
L 392.155815 231.650909 
L 392.910491 236.043636 
L 393.047273 236.839751 
L 393.665212 240.436364 
L 394.419898 244.829091 
L 395.184737 249.221818 
L 395.979483 253.614545 
L 396.654545 257.313856 
L 396.781137 258.007273 
L 397.586079 262.4 
L 398.390418 266.792727 
L 398.924136 271.185455 
L 399.334727 275.578182 
L 399.745324 279.970909 
L 400.155931 284.363636 
L 400.261818 285.750496 
L 400.491425 288.756364 
L 400.495291 293.149091 
L 400.499191 297.541818 
L 400.436341 301.934545 
L 400.261818 303.709536 
L 400.004436 306.327273 
L 399.57889 310.72 
L 399.163255 315.112727 
L 398.74801 319.505455 
L 398.209543 323.898182 
L 397.257309 328.290909 
L 396.654545 331.071469 
L 396.305063 332.683636 
L 395.351458 337.076364 
L 394.392963 341.469091 
L 393.234572 345.861818 
L 393.047273 346.46833 
L 391.878034 350.254545 
L 390.511956 354.647273 
L 389.44 358.07444 
L 389.137991 359.04 
L 387.763998 363.432727 
L 386.408614 367.825455 
L 385.832727 369.705102 
L 385.062769 372.218182 
L 383.716931 376.610909 
L 382.371094 381.003636 
L 382.225455 381.478993 
L 381.023584 385.396364 
L 379.669808 389.789091 
L 378.618182 392.587311 
L 377.976605 394.181818 
L 376.118778 398.574545 
L 375.010909 401.197459 
L 374.263324 402.967273 
L 372.407776 407.36 
L 371.403636 409.737175 
L 370.552256 411.752727 
L 368.44904 416.145455 
L 367.796364 417.297028 
L 365.902206 420.538182 
L 364.189091 423.469569 
L 363.255799 424.930909 
L 360.581818 428.472237 
L 359.89307 429.323636 
L 356.974545 432.947835 
L 356.335329 433.716364 
L 353.367273 436.889617 
L 352.103755 438.109091 
L 349.76 440.371147 
L 347.552348 442.501818 
L 346.152727 443.770781 
L 342.545455 446.49955 
L 341.995828 446.894545 
L 338.938182 449.091994 
L 335.883533 451.287273 
L 335.330909 451.68442 
L 331.723636 454.009282 
L 328.186066 455.68 
L 328.116364 455.712592 
L 324.509091 457.40296 
L 320.901818 458.823377 
L 317.294545 460.038644 
L 317.19368 460.072727 
L 313.687273 461.231879 
L 310.08 461.939137 
L 306.472727 462.537828 
L 302.865455 463.136545 
L 299.258182 463.735277 
L 295.650909 464.333961 
L 294.858653 464.465455 
L 292.043636 464.932674 
L 288.436364 465.531364 
L 284.829091 466.127795 
L 281.221818 466.722813 
L 277.614545 467.317754 
L 274.007273 467.912724 
L 270.4 468.507686 
L 268.274901 468.858182 
L 266.792727 469.102641 
L 263.185455 469.697622 
L 259.578182 470.293392 
L 255.970909 470.326777 
L 252.363636 470.359335 
L 248.756364 470.391851 
L 245.149091 470.424645 
L 241.541818 469.906011 
L 237.934545 469.300369 
z
" style="fill:#a3c2fe;"/>
   </g>
   <g id="PathCollection_4">
    <path clip-path="url(#p70adaefba0)" d="M 237.934545 469.300369 
L 241.541818 469.906011 
L 245.149091 470.424645 
L 248.756364 470.391851 
L 252.363636 470.359335 
L 255.970909 470.326777 
L 259.578182 470.293392 
L 263.185455 469.697622 
L 266.792727 469.102641 
L 268.274901 468.858182 
L 270.4 468.507686 
L 274.007273 467.912724 
L 277.614545 467.317754 
L 281.221818 466.722813 
L 284.829091 466.127795 
L 288.436364 465.531364 
L 292.043636 464.932674 
L 294.858653 464.465455 
L 295.650909 464.333961 
L 299.258182 463.735277 
L 302.865455 463.136545 
L 306.472727 462.537828 
L 310.08 461.939137 
L 313.687273 461.231879 
L 317.19368 460.072727 
L 317.294545 460.038644 
L 320.901818 458.823377 
L 324.509091 457.40296 
L 328.116364 455.712592 
L 328.186066 455.68 
L 331.723636 454.009282 
L 335.330909 451.68442 
L 335.883533 451.287273 
L 338.938182 449.091994 
L 341.995828 446.894545 
L 342.545455 446.49955 
L 346.152727 443.770781 
L 347.552348 442.501818 
L 349.76 440.371147 
L 352.103755 438.109091 
L 353.367273 436.889617 
L 356.335329 433.716364 
L 356.974545 432.947835 
L 359.89307 429.323636 
L 360.581818 428.472237 
L 363.255799 424.930909 
L 364.189091 423.469569 
L 365.902206 420.538182 
L 367.796364 417.297028 
L 368.44904 416.145455 
L 370.552256 411.752727 
L 371.403636 409.737175 
L 372.407776 407.36 
L 374.263324 402.967273 
L 375.010909 401.197459 
L 376.118778 398.574545 
L 377.976605 394.181818 
L 378.618182 392.587311 
L 379.669808 389.789091 
L 381.023584 385.396364 
L 382.225455 381.478993 
L 382.371094 381.003636 
L 383.716931 376.610909 
L 385.062769 372.218182 
L 385.832727 369.705102 
L 386.408614 367.825455 
L 387.763998 363.432727 
L 389.137991 359.04 
L 389.44 358.07444 
L 390.511956 354.647273 
L 391.878034 350.254545 
L 393.047273 346.46833 
L 393.234572 345.861818 
L 394.392963 341.469091 
L 395.351458 337.076364 
L 396.305063 332.683636 
L 396.654545 331.071469 
L 397.257309 328.290909 
L 398.209543 323.898182 
L 398.74801 319.505455 
L 399.163255 315.112727 
L 399.57889 310.72 
L 400.004436 306.327273 
L 400.261818 303.709536 
L 400.436341 301.934545 
L 400.499191 297.541818 
L 400.495291 293.149091 
L 400.491425 288.756364 
L 400.261818 285.750496 
L 400.155931 284.363636 
L 399.745324 279.970909 
L 399.334727 275.578182 
L 398.924136 271.185455 
L 398.390418 266.792727 
L 397.586079 262.4 
L 396.781137 258.007273 
L 396.654545 257.313856 
L 395.979483 253.614545 
L 395.184737 249.221818 
L 394.419898 244.829091 
L 393.665212 240.436364 
L 393.047273 236.839751 
L 392.910491 236.043636 
L 392.155815 231.650909 
L 391.075402 227.258182 
L 389.758707 222.865455 
L 389.44 221.80218 
L 388.442037 218.472727 
L 387.125367 214.08 
L 385.832727 209.767463 
L 385.808691 209.687273 
L 384.490503 205.294545 
L 383.157929 200.901818 
L 382.225455 197.845585 
L 381.817679 196.509091 
L 380.477409 192.116364 
L 379.137162 187.723636 
L 378.618182 186.022686 
L 377.796891 183.330909 
L 376.456636 178.938182 
L 375.116368 174.545455 
L 375.010909 174.199815 
L 373.776103 170.152727 
L 372.437323 165.76 
L 371.403636 162.36304 
L 371.100626 161.367273 
L 369.763882 156.974545 
L 368.095184 152.581818 
L 367.796364 151.897077 
L 366.164964 148.189091 
L 364.233553 143.796364 
L 364.189091 143.710937 
L 361.635545 139.403636 
L 360.581818 137.782083 
L 358.463499 135.010909 
L 356.974545 133.333068 
L 354.053014 130.618182 
L 353.367273 130.031111 
L 349.76 127.218044 
L 348.169675 126.225455 
L 346.152727 125.125552 
L 342.545455 123.753595 
L 338.938182 122.406755 
L 337.400654 121.832727 
L 335.330909 121.059984 
L 331.723636 119.713566 
L 328.116364 118.480573 
L 324.509091 117.697392 
L 323.2521 117.44 
L 320.901818 116.95874 
L 317.294545 116.219838 
L 313.687273 115.475459 
L 310.08 114.729663 
L 306.472727 113.983887 
L 302.865455 113.2381 
L 301.942481 113.047273 
L 299.258182 112.490763 
L 295.650909 111.741231 
L 292.043636 110.98941 
L 288.436364 110.233935 
L 284.829091 109.478486 
L 281.221818 108.715594 
L 280.938872 108.654545 
L 277.614545 107.93487 
L 274.007273 107.140508 
L 270.4 106.346143 
L 266.792727 105.551782 
L 263.185455 104.75743 
L 260.934898 104.261818 
L 259.578182 103.963046 
L 255.970909 103.208165 
L 252.363636 103.049353 
L 248.756364 102.89054 
L 245.149091 102.731748 
L 241.541818 102.844188 
L 237.934545 103.284082 
L 234.327273 103.72382 
L 230.72 104.146799 
L 229.651341 104.261818 
L 227.112727 104.534299 
L 223.505455 104.92148 
L 219.898182 105.308638 
L 216.290909 105.695823 
L 212.683636 106.085538 
L 209.076364 106.463761 
L 205.469091 106.815822 
L 201.861818 107.162812 
L 198.254545 107.50981 
L 194.647273 107.856794 
L 191.04 108.203766 
L 187.432727 108.630383 
L 187.337394 108.654545 
L 183.825455 109.578498 
L 180.218182 110.770723 
L 176.610909 112.226664 
L 174.577786 113.047273 
L 173.003636 113.682631 
L 169.396364 115.138555 
L 165.789091 116.594496 
L 163.694264 117.44 
L 162.181818 118.050444 
L 158.574545 119.506369 
L 154.967273 120.962297 
L 152.815228 121.832727 
L 151.36 122.486035 
L 147.752727 124.83143 
L 145.68331 126.225455 
L 144.145455 127.410446 
L 140.766536 130.618182 
L 140.538182 130.836066 
L 136.930909 134.282602 
L 136.271266 135.010909 
L 133.323636 139.262276 
L 133.240214 139.403636 
L 130.995708 143.796364 
L 129.716364 146.78801 
L 129.115678 148.189091 
L 127.232405 152.581818 
L 126.109091 155.201948 
L 125.349138 156.974545 
L 123.465868 161.367273 
L 122.501818 163.610828 
L 121.579404 165.76 
L 119.676714 170.152727 
L 118.894545 171.953859 
L 117.757523 174.545455 
L 115.821996 178.938182 
L 115.287273 180.151751 
L 113.966914 183.330909 
L 112.542442 187.723636 
L 111.68 190.455044 
L 111.155441 192.116364 
L 109.768485 196.509091 
L 108.381519 200.901818 
L 108.072727 201.879799 
L 106.994539 205.294545 
L 105.607583 209.687273 
L 104.465455 213.304542 
L 104.220608 214.08 
L 102.833634 218.472727 
L 101.446674 222.865455 
L 100.858182 225.278332 
L 100.387818 227.258182 
L 99.385697 231.650909 
L 98.379335 236.043636 
L 97.372983 240.436364 
L 97.250909 240.969199 
L 96.366608 244.829091 
L 95.360255 249.221818 
L 94.560307 253.614545 
L 94.127872 258.007273 
L 93.69546 262.4 
L 93.643636 262.926466 
L 93.263048 266.792727 
L 92.830611 271.185455 
L 92.46225 275.578182 
L 92.495346 279.970909 
L 92.528442 284.363636 
L 92.793654 288.756364 
L 93.235567 293.149091 
L 93.643636 297.352445 
L 93.662021 297.541818 
L 94.088446 301.934545 
L 94.865132 306.327273 
L 95.716487 310.72 
L 96.567855 315.112727 
L 97.250909 318.643822 
L 97.416625 319.505455 
L 98.24862 323.898182 
L 99.068465 328.290909 
L 99.8883 332.683636 
L 100.708154 337.076364 
L 100.858182 337.880224 
L 101.527983 341.469091 
L 102.347821 345.861818 
L 103.61582 350.254545 
L 104.465455 352.864724 
L 105.045689 354.647273 
L 106.475563 359.04 
L 107.905439 363.432727 
L 108.072727 363.946654 
L 109.335318 367.825455 
L 110.765173 372.218182 
L 111.68 375.028629 
L 112.193826 376.610909 
L 113.611861 381.003636 
L 115.023789 385.396364 
L 115.287273 386.216094 
L 116.435717 389.789091 
L 117.842599 394.181818 
L 118.894545 397.529165 
L 119.223072 398.574545 
L 120.60357 402.967273 
L 121.984094 407.36 
L 122.501818 409.00741 
L 123.364573 411.752727 
L 124.837916 416.145455 
L 126.109091 419.070159 
L 126.803588 420.538182 
L 128.881669 424.930909 
L 129.716364 426.69526 
L 130.959819 429.323636 
L 133.037903 433.716364 
L 133.323636 434.320347 
L 135.117883 438.109091 
L 136.930909 441.237511 
L 137.767729 442.501818 
L 140.538182 446.695288 
L 140.678387 446.894545 
L 144.145455 450.762441 
L 144.844891 451.287273 
L 147.752727 453.138725 
L 151.36 454.91226 
L 153.663788 455.68 
L 154.967273 456.085584 
L 158.574545 456.980787 
L 162.181818 457.49681 
L 165.789091 458.00812 
L 169.396364 458.519454 
L 173.003636 459.030773 
L 176.610909 459.542106 
L 180.218182 460.053411 
L 180.354454 460.072727 
L 183.825455 460.564743 
L 187.432727 461.076043 
L 191.04 461.587383 
L 194.647273 462.098701 
L 198.254545 462.613173 
L 201.861818 463.171813 
L 205.469091 463.785872 
L 209.076364 464.40261 
L 209.443956 464.465455 
L 212.683636 465.019315 
L 216.290909 465.636059 
L 219.898182 466.252781 
L 223.505455 466.869506 
L 227.112727 467.48349 
L 230.72 468.089121 
L 234.327273 468.694731 
L 235.300815 468.858182 
z
M 221.896375 424.930909 
L 219.898182 424.633977 
L 216.290909 424.097706 
L 212.683636 423.55127 
L 209.076364 423.004282 
L 205.469091 422.457294 
L 201.861818 421.910303 
L 198.254545 421.363308 
L 194.647273 420.816329 
L 192.815446 420.538182 
L 191.04 420.267327 
L 187.432727 419.715572 
L 183.825455 419.182755 
L 180.218182 418.525423 
L 176.610909 417.461515 
L 173.003636 416.339093 
L 172.53421 416.145455 
L 169.396364 414.636775 
L 166.264534 411.752727 
L 165.789091 411.146852 
L 163.289901 407.36 
L 162.181818 405.272653 
L 161.114793 402.967273 
L 159.08826 398.574545 
L 158.574545 397.461008 
L 157.053495 394.181818 
L 155.000893 389.789091 
L 154.967273 389.718492 
L 152.938704 385.396364 
L 151.374444 381.003636 
L 151.36 380.958386 
L 149.972241 376.610909 
L 148.570024 372.218182 
L 147.752727 369.657809 
L 147.16782 367.825455 
L 145.765612 363.432727 
L 144.363408 359.04 
L 144.145455 358.357214 
L 142.961196 354.647273 
L 141.558983 350.254545 
L 140.538182 347.056672 
L 140.155485 345.861818 
L 138.749084 341.469091 
L 137.340646 337.076364 
L 136.930909 335.757319 
L 136.016002 332.683636 
L 135.196164 328.290909 
L 134.376319 323.898182 
L 133.552478 319.505455 
L 133.323636 318.333977 
L 132.694383 315.112727 
L 131.836285 310.72 
L 130.978192 306.327273 
L 130.120093 301.934545 
L 129.716364 299.579586 
L 129.370573 297.541818 
L 128.927316 293.149091 
L 128.484059 288.756364 
L 128.257496 284.363636 
L 128.244869 279.970909 
L 128.489631 275.578182 
L 128.935167 271.185455 
L 129.356989 266.792727 
L 129.716364 262.999698 
L 129.773089 262.4 
L 130.467328 258.007273 
L 131.437317 253.614545 
L 132.403103 249.221818 
L 133.323636 245.034911 
L 133.368742 244.829091 
L 134.331114 240.436364 
L 135.443534 236.043636 
L 136.81216 231.650909 
L 136.930909 231.268289 
L 138.163904 227.258182 
L 139.514547 222.865455 
L 140.538182 219.536243 
L 140.865183 218.472727 
L 142.215822 214.08 
L 143.566464 209.687273 
L 144.145455 207.961167 
L 145.108958 205.294545 
L 146.995308 200.901818 
L 147.752727 199.137996 
L 148.881633 196.509091 
L 150.767979 192.116364 
L 151.36 190.73772 
L 152.654327 187.723636 
L 154.540668 183.330909 
L 154.967273 182.337475 
L 156.427014 178.938182 
L 158.314039 174.545455 
L 158.574545 174.002472 
L 161.084151 170.152727 
L 162.181818 168.985038 
L 165.594036 165.76 
L 165.789091 165.575645 
L 169.396364 162.166232 
L 170.408844 161.367273 
L 173.003636 159.753086 
L 176.610909 158.282689 
L 179.837791 156.974545 
L 180.218182 156.820457 
L 183.825455 155.35922 
L 187.432727 153.881449 
L 190.580905 152.581818 
L 191.04 152.392592 
L 194.647273 150.90694 
L 198.254545 149.497448 
L 201.861818 148.481937 
L 204.327981 148.189091 
L 205.469091 148.060855 
L 209.076364 147.675427 
L 212.683636 147.28997 
L 216.290909 146.904529 
L 219.898182 146.51909 
L 223.505455 146.128925 
L 227.112727 145.72807 
L 230.72 145.32582 
L 234.327273 144.910317 
L 237.934545 144.497806 
L 241.541818 144.091312 
L 244.309603 143.796364 
L 245.149091 143.707481 
L 247.098443 143.796364 
L 248.756364 143.872177 
L 252.363636 144.024435 
L 255.970909 144.361523 
L 259.578182 145.129883 
L 263.185455 145.89514 
L 266.792727 146.655764 
L 270.4 147.402402 
L 274.007273 148.148198 
L 274.205066 148.189091 
L 277.614545 148.893985 
L 281.221818 149.639778 
L 284.829091 150.385568 
L 288.436364 151.131363 
L 292.043636 151.87715 
L 295.451951 152.581818 
L 295.650909 152.622953 
L 299.258182 153.368734 
L 302.865455 154.114527 
L 306.472727 154.860319 
L 310.08 155.792414 
L 313.285567 156.974545 
L 313.687273 157.125253 
L 317.294545 158.478588 
L 320.901818 159.831931 
L 324.509091 161.202627 
L 324.811201 161.367273 
L 328.116364 163.54152 
L 330.776334 165.76 
L 331.723636 166.572352 
L 335.330909 169.99238 
L 335.460969 170.152727 
L 338.152125 174.545455 
L 338.938182 176.275429 
L 340.106932 178.938182 
L 342.03501 183.330909 
L 342.545455 184.508137 
L 343.790564 187.723636 
L 345.128725 192.116364 
L 346.152727 195.47569 
L 346.468172 196.509091 
L 347.810599 200.901818 
L 349.15309 205.294545 
L 349.76 207.280387 
L 350.495548 209.687273 
L 351.838 214.08 
L 353.180423 218.472727 
L 353.367273 219.084128 
L 354.522875 222.865455 
L 355.86532 227.258182 
L 356.974545 230.887755 
L 357.207489 231.650909 
L 358.537425 236.043636 
L 359.856322 240.436364 
L 360.581818 243.508581 
L 360.879264 244.829091 
L 361.637106 249.221818 
L 362.394945 253.614545 
L 363.152784 258.007273 
L 363.910633 262.4 
L 364.189091 264.014071 
L 364.668463 266.792727 
L 365.426313 271.185455 
L 365.859037 275.578182 
L 366.232387 279.970909 
L 366.632066 284.363636 
L 366.951938 288.756364 
L 366.955805 293.149091 
L 366.959686 297.541818 
L 366.612885 301.934545 
L 366.180951 306.327273 
L 365.747481 310.72 
L 365.293469 315.112727 
L 364.34231 319.505455 
L 364.189091 320.196293 
L 363.367994 323.898182 
L 362.38815 328.290909 
L 361.20326 332.683636 
L 360.581818 334.648665 
L 359.814057 337.076364 
L 358.429143 341.469091 
L 357.054783 345.861818 
L 356.974545 346.117399 
L 355.671941 350.254545 
L 354.291844 354.647273 
L 353.367273 357.609262 
L 352.921885 359.04 
L 351.554416 363.432727 
L 350.186953 367.825455 
L 349.76 368.928558 
L 348.391228 372.218182 
L 346.537149 376.610909 
L 346.152727 377.521684 
L 344.683069 381.003636 
L 342.695018 385.396364 
L 342.545455 385.67337 
L 340.15741 389.789091 
L 338.938182 391.760087 
L 337.192778 394.181818 
L 335.330909 396.525088 
L 333.702378 398.574545 
L 331.723636 401.040571 
L 329.932753 402.967273 
L 328.116364 404.719469 
L 325.379078 407.36 
L 324.509091 408.199232 
L 320.901818 411.252 
L 320.206592 411.752727 
L 317.294545 413.843513 
L 314.088414 416.145455 
L 313.687273 416.42117 
L 310.08 418.345494 
L 306.472727 419.894755 
L 304.515077 420.538182 
L 302.865455 421.072461 
L 299.258182 422.181232 
L 295.650909 422.792741 
L 292.043636 423.350255 
L 288.436364 423.907761 
L 284.829091 424.465285 
L 281.816379 424.930909 
L 281.221818 425.023186 
L 277.614545 425.587631 
L 274.007273 426.180848 
L 270.4 426.775805 
L 266.792727 427.370784 
L 263.185455 427.965754 
L 259.578182 428.561801 
L 255.970909 428.862588 
L 252.363636 428.858865 
L 248.756364 428.855447 
L 245.149091 428.709654 
L 241.541818 428.080247 
L 237.934545 427.45665 
L 234.327273 426.833071 
L 230.72 426.247035 
L 227.112727 425.706046 
L 223.505455 425.170019 
z
" style="fill:#ccd9ed;"/>
   </g>
   <g id="PathCollection_5">
    <path clip-path="url(#p70adaefba0)" d="M 223.505455 425.170019 
L 227.112727 425.706046 
L 230.72 426.247035 
L 234.327273 426.833071 
L 237.934545 427.45665 
L 241.541818 428.080247 
L 245.149091 428.709654 
L 248.756364 428.855447 
L 252.363636 428.858865 
L 255.970909 428.862588 
L 259.578182 428.561801 
L 263.185455 427.965754 
L 266.792727 427.370784 
L 270.4 426.775805 
L 274.007273 426.180848 
L 277.614545 425.587631 
L 281.221818 425.023186 
L 281.816379 424.930909 
L 284.829091 424.465285 
L 288.436364 423.907761 
L 292.043636 423.350255 
L 295.650909 422.792741 
L 299.258182 422.181232 
L 302.865455 421.072461 
L 304.515077 420.538182 
L 306.472727 419.894755 
L 310.08 418.345494 
L 313.687273 416.42117 
L 314.088414 416.145455 
L 317.294545 413.843513 
L 320.206592 411.752727 
L 320.901818 411.252 
L 324.509091 408.199232 
L 325.379078 407.36 
L 328.116364 404.719469 
L 329.932753 402.967273 
L 331.723636 401.040571 
L 333.702378 398.574545 
L 335.330909 396.525088 
L 337.192778 394.181818 
L 338.938182 391.760087 
L 340.15741 389.789091 
L 342.545455 385.67337 
L 342.695018 385.396364 
L 344.683069 381.003636 
L 346.152727 377.521684 
L 346.537149 376.610909 
L 348.391228 372.218182 
L 349.76 368.928558 
L 350.186953 367.825455 
L 351.554416 363.432727 
L 352.921885 359.04 
L 353.367273 357.609262 
L 354.291844 354.647273 
L 355.671941 350.254545 
L 356.974545 346.117399 
L 357.054783 345.861818 
L 358.429143 341.469091 
L 359.814057 337.076364 
L 360.581818 334.648665 
L 361.20326 332.683636 
L 362.38815 328.290909 
L 363.367994 323.898182 
L 364.189091 320.196293 
L 364.34231 319.505455 
L 365.293469 315.112727 
L 365.747481 310.72 
L 366.180951 306.327273 
L 366.612885 301.934545 
L 366.959686 297.541818 
L 366.955805 293.149091 
L 366.951938 288.756364 
L 366.632066 284.363636 
L 366.232387 279.970909 
L 365.859037 275.578182 
L 365.426313 271.185455 
L 364.668463 266.792727 
L 364.189091 264.014071 
L 363.910633 262.4 
L 363.152784 258.007273 
L 362.394945 253.614545 
L 361.637106 249.221818 
L 360.879264 244.829091 
L 360.581818 243.508581 
L 359.856322 240.436364 
L 358.537425 236.043636 
L 357.207489 231.650909 
L 356.974545 230.887755 
L 355.86532 227.258182 
L 354.522875 222.865455 
L 353.367273 219.084128 
L 353.180423 218.472727 
L 351.838 214.08 
L 350.495548 209.687273 
L 349.76 207.280387 
L 349.15309 205.294545 
L 347.810599 200.901818 
L 346.468172 196.509091 
L 346.152727 195.47569 
L 345.128725 192.116364 
L 343.790564 187.723636 
L 342.545455 184.508137 
L 342.03501 183.330909 
L 340.106932 178.938182 
L 338.938182 176.275429 
L 338.152125 174.545455 
L 335.460969 170.152727 
L 335.330909 169.99238 
L 331.723636 166.572352 
L 330.776334 165.76 
L 328.116364 163.54152 
L 324.811201 161.367273 
L 324.509091 161.202627 
L 320.901818 159.831931 
L 317.294545 158.478588 
L 313.687273 157.125253 
L 313.285567 156.974545 
L 310.08 155.792414 
L 306.472727 154.860319 
L 302.865455 154.114527 
L 299.258182 153.368734 
L 295.650909 152.622953 
L 295.451951 152.581818 
L 292.043636 151.87715 
L 288.436364 151.131363 
L 284.829091 150.385568 
L 281.221818 149.639778 
L 277.614545 148.893985 
L 274.205066 148.189091 
L 274.007273 148.148198 
L 270.4 147.402402 
L 266.792727 146.655764 
L 263.185455 145.89514 
L 259.578182 145.129883 
L 255.970909 144.361523 
L 252.363636 144.024435 
L 248.756364 143.872177 
L 247.098443 143.796364 
L 245.149091 143.707481 
L 244.309603 143.796364 
L 241.541818 144.091312 
L 237.934545 144.497806 
L 234.327273 144.910317 
L 230.72 145.32582 
L 227.112727 145.72807 
L 223.505455 146.128925 
L 219.898182 146.51909 
L 216.290909 146.904529 
L 212.683636 147.28997 
L 209.076364 147.675427 
L 205.469091 148.060855 
L 204.327981 148.189091 
L 201.861818 148.481937 
L 198.254545 149.497448 
L 194.647273 150.90694 
L 191.04 152.392592 
L 190.580905 152.581818 
L 187.432727 153.881449 
L 183.825455 155.35922 
L 180.218182 156.820457 
L 179.837791 156.974545 
L 176.610909 158.282689 
L 173.003636 159.753086 
L 170.408844 161.367273 
L 169.396364 162.166232 
L 165.789091 165.575645 
L 165.594036 165.76 
L 162.181818 168.985038 
L 161.084151 170.152727 
L 158.574545 174.002472 
L 158.314039 174.545455 
L 156.427014 178.938182 
L 154.967273 182.337475 
L 154.540668 183.330909 
L 152.654327 187.723636 
L 151.36 190.73772 
L 150.767979 192.116364 
L 148.881633 196.509091 
L 147.752727 199.137996 
L 146.995308 200.901818 
L 145.108958 205.294545 
L 144.145455 207.961167 
L 143.566464 209.687273 
L 142.215822 214.08 
L 140.865183 218.472727 
L 140.538182 219.536243 
L 139.514547 222.865455 
L 138.163904 227.258182 
L 136.930909 231.268289 
L 136.81216 231.650909 
L 135.443534 236.043636 
L 134.331114 240.436364 
L 133.368742 244.829091 
L 133.323636 245.034911 
L 132.403103 249.221818 
L 131.437317 253.614545 
L 130.467328 258.007273 
L 129.773089 262.4 
L 129.716364 262.999698 
L 129.356989 266.792727 
L 128.935167 271.185455 
L 128.489631 275.578182 
L 128.244869 279.970909 
L 128.257496 284.363636 
L 128.484059 288.756364 
L 128.927316 293.149091 
L 129.370573 297.541818 
L 129.716364 299.579586 
L 130.120093 301.934545 
L 130.978192 306.327273 
L 131.836285 310.72 
L 132.694383 315.112727 
L 133.323636 318.333977 
L 133.552478 319.505455 
L 134.376319 323.898182 
L 135.196164 328.290909 
L 136.016002 332.683636 
L 136.930909 335.757319 
L 137.340646 337.076364 
L 138.749084 341.469091 
L 140.155485 345.861818 
L 140.538182 347.056672 
L 141.558983 350.254545 
L 142.961196 354.647273 
L 144.145455 358.357214 
L 144.363408 359.04 
L 145.765612 363.432727 
L 147.16782 367.825455 
L 147.752727 369.657809 
L 148.570024 372.218182 
L 149.972241 376.610909 
L 151.36 380.958386 
L 151.374444 381.003636 
L 152.938704 385.396364 
L 154.967273 389.718492 
L 155.000893 389.789091 
L 157.053495 394.181818 
L 158.574545 397.461008 
L 159.08826 398.574545 
L 161.114793 402.967273 
L 162.181818 405.272653 
L 163.289901 407.36 
L 165.789091 411.146852 
L 166.264534 411.752727 
L 169.396364 414.636775 
L 172.53421 416.145455 
L 173.003636 416.339093 
L 176.610909 417.461515 
L 180.218182 418.525423 
L 183.825455 419.182755 
L 187.432727 419.715572 
L 191.04 420.267327 
L 192.815446 420.538182 
L 194.647273 420.816329 
L 198.254545 421.363308 
L 201.861818 421.910303 
L 205.469091 422.457294 
L 209.076364 423.004282 
L 212.683636 423.55127 
L 216.290909 424.097706 
L 219.898182 424.633977 
L 221.896375 424.930909 
z
M 230.896526 385.396364 
L 230.72 385.367166 
L 227.112727 384.770918 
L 223.505455 384.17125 
L 219.898182 383.575133 
L 216.290909 382.973787 
L 212.683636 382.382547 
L 209.076364 381.792053 
L 205.469091 381.199914 
L 204.648507 381.003636 
L 201.861818 380.278377 
L 198.254545 379.120873 
L 194.647273 377.973934 
L 192.227504 376.610909 
L 191.04 375.659004 
L 188.785711 372.218182 
L 187.432727 369.332014 
L 186.728421 367.825455 
L 184.674855 363.432727 
L 183.825455 361.615807 
L 182.621281 359.04 
L 180.565513 354.647273 
L 180.218182 353.791202 
L 178.949651 350.254545 
L 177.528209 345.861818 
L 176.610909 343.036828 
L 176.099673 341.469091 
L 174.66273 337.076364 
L 173.221793 332.683636 
L 173.003636 332.020575 
L 171.771839 328.290909 
L 170.32104 323.898182 
L 169.396364 320.988969 
L 168.947419 319.505455 
L 168.085241 315.112727 
L 167.223076 310.72 
L 166.360898 306.327273 
L 165.789091 303.413961 
L 165.498719 301.934545 
L 164.636544 297.541818 
L 163.919209 293.149091 
L 163.452362 288.756364 
L 163.211415 284.363636 
L 163.267223 279.970909 
L 163.664299 275.578182 
L 164.061359 271.185455 
L 164.644844 266.792727 
L 165.594596 262.4 
L 165.789091 261.500442 
L 166.544356 258.007273 
L 167.494127 253.614545 
L 168.625527 249.221818 
L 169.396364 246.731039 
L 169.984973 244.829091 
L 171.344412 240.436364 
L 172.704925 236.043636 
L 173.003636 235.080781 
L 174.083889 231.650909 
L 175.823671 227.258182 
L 176.610909 225.437622 
L 177.723148 222.865455 
L 179.622617 218.472727 
L 180.218182 217.095428 
L 181.522092 214.08 
L 183.421561 209.687273 
L 183.825455 208.823428 
L 185.725312 205.294545 
L 187.432727 203.152339 
L 189.795988 200.901818 
L 191.04 199.717153 
L 194.647273 196.812986 
L 195.221229 196.509091 
L 198.254545 195.082254 
L 201.861818 193.570639 
L 205.332254 192.116364 
L 205.469091 192.059023 
L 209.076364 190.549933 
L 212.683636 189.042488 
L 216.290909 187.927289 
L 218.019718 187.723636 
L 219.898182 187.512241 
L 223.505455 187.1064 
L 227.112727 186.701584 
L 230.72 186.296614 
L 234.327273 185.882559 
L 237.934545 185.46597 
L 241.541818 185.049381 
L 245.149091 184.6328 
L 248.756364 184.530251 
L 252.363636 184.690755 
L 255.970909 185.246633 
L 259.578182 186.01527 
L 263.185455 186.78564 
L 266.792727 187.533057 
L 267.714532 187.723636 
L 270.4 188.278845 
L 274.007273 189.024632 
L 277.614545 189.770423 
L 281.221818 190.516217 
L 284.829091 191.262003 
L 288.436364 192.007804 
L 288.80316 192.116364 
L 292.043636 193.152166 
L 295.650909 194.505498 
L 299.258182 195.858828 
L 300.988064 196.509091 
L 302.865455 197.295635 
L 306.472727 199.935563 
L 307.599507 200.901818 
L 310.08 203.083336 
L 311.916343 205.294545 
L 313.687273 208.688342 
L 314.126683 209.687273 
L 316.058948 214.08 
L 317.294545 216.923356 
L 317.895578 218.472727 
L 319.233718 222.865455 
L 320.571843 227.258182 
L 320.901818 228.341394 
L 321.909983 231.650909 
L 323.248109 236.043636 
L 324.509091 240.18308 
L 324.586248 240.436364 
L 325.92457 244.829091 
L 327.264709 249.221818 
L 328.116364 252.010354 
L 328.606637 253.614545 
L 329.591927 258.007273 
L 330.369836 262.4 
L 331.135363 266.792727 
L 331.723636 270.201866 
L 331.893329 271.185455 
L 332.645967 275.578182 
L 333.02488 279.970909 
L 333.389061 284.363636 
L 333.646703 288.756364 
L 333.606452 293.149091 
L 333.370278 297.541818 
L 332.892036 301.934545 
L 332.40306 306.327273 
L 331.723636 309.697036 
L 331.51143 310.72 
L 330.484831 315.112727 
L 329.287294 319.505455 
L 328.116364 323.178933 
L 327.886826 323.898182 
L 326.501126 328.290909 
L 325.116791 332.683636 
L 324.509091 334.611967 
L 323.732662 337.076364 
L 322.357415 341.469091 
L 320.963318 345.861818 
L 320.901818 346.015772 
L 319.100332 350.254545 
L 317.294545 354.503422 
L 317.226337 354.647273 
L 314.587905 359.04 
L 313.687273 360.299944 
L 311.162892 363.432727 
L 310.08 364.776612 
L 307.623265 367.825455 
L 306.472727 369.107714 
L 303.242945 372.218182 
L 302.865455 372.580766 
L 299.258182 375.971672 
L 298.439267 376.610909 
L 295.650909 378.613904 
L 292.046991 381.003636 
L 292.043636 381.005563 
L 288.436364 382.224209 
L 284.829091 383.28746 
L 281.221818 383.870435 
L 277.614545 384.440706 
L 274.007273 385.015044 
L 271.617631 385.396364 
L 270.4 385.590819 
L 266.792727 386.200987 
L 263.185455 386.812354 
L 259.578182 387.424867 
L 255.970909 388.033124 
L 252.363636 388.067602 
L 248.756364 388.092192 
L 245.149091 387.755715 
L 241.541818 387.158564 
L 237.934545 386.561417 
L 234.327273 385.964278 
z
" style="fill:#ecd3c5;"/>
   </g>
   <g id="PathCollection_6">
    <path clip-path="url(#p70adaefba0)" d="M 234.327273 385.964278 
L 237.934545 386.561417 
L 241.541818 387.158564 
L 245.149091 387.755715 
L 248.756364 388.092192 
L 252.363636 388.067602 
L 255.970909 388.033124 
L 259.578182 387.424867 
L 263.185455 386.812354 
L 266.792727 386.200987 
L 270.4 385.590819 
L 271.617631 385.396364 
L 274.007273 385.015044 
L 277.614545 384.440706 
L 281.221818 383.870435 
L 284.829091 383.28746 
L 288.436364 382.224209 
L 292.043636 381.005563 
L 292.046991 381.003636 
L 295.650909 378.613904 
L 298.439267 376.610909 
L 299.258182 375.971672 
L 302.865455 372.580766 
L 303.242945 372.218182 
L 306.472727 369.107714 
L 307.623265 367.825455 
L 310.08 364.776612 
L 311.162892 363.432727 
L 313.687273 360.299944 
L 314.587905 359.04 
L 317.226337 354.647273 
L 317.294545 354.503422 
L 319.100332 350.254545 
L 320.901818 346.015772 
L 320.963318 345.861818 
L 322.357415 341.469091 
L 323.732662 337.076364 
L 324.509091 334.611967 
L 325.116791 332.683636 
L 326.501126 328.290909 
L 327.886826 323.898182 
L 328.116364 323.178933 
L 329.287294 319.505455 
L 330.484831 315.112727 
L 331.51143 310.72 
L 331.723636 309.697036 
L 332.40306 306.327273 
L 332.892036 301.934545 
L 333.370278 297.541818 
L 333.606452 293.149091 
L 333.646703 288.756364 
L 333.389061 284.363636 
L 333.02488 279.970909 
L 332.645967 275.578182 
L 331.893329 271.185455 
L 331.723636 270.201866 
L 331.135363 266.792727 
L 330.369836 262.4 
L 329.591927 258.007273 
L 328.606637 253.614545 
L 328.116364 252.010354 
L 327.264709 249.221818 
L 325.92457 244.829091 
L 324.586248 240.436364 
L 324.509091 240.18308 
L 323.248109 236.043636 
L 321.909983 231.650909 
L 320.901818 228.341394 
L 320.571843 227.258182 
L 319.233718 222.865455 
L 317.895578 218.472727 
L 317.294545 216.923356 
L 316.058948 214.08 
L 314.126683 209.687273 
L 313.687273 208.688342 
L 311.916343 205.294545 
L 310.08 203.083336 
L 307.599507 200.901818 
L 306.472727 199.935563 
L 302.865455 197.295635 
L 300.988064 196.509091 
L 299.258182 195.858828 
L 295.650909 194.505498 
L 292.043636 193.152166 
L 288.80316 192.116364 
L 288.436364 192.007804 
L 284.829091 191.262003 
L 281.221818 190.516217 
L 277.614545 189.770423 
L 274.007273 189.024632 
L 270.4 188.278845 
L 267.714532 187.723636 
L 266.792727 187.533057 
L 263.185455 186.78564 
L 259.578182 186.01527 
L 255.970909 185.246633 
L 252.363636 184.690755 
L 248.756364 184.530251 
L 245.149091 184.6328 
L 241.541818 185.049381 
L 237.934545 185.46597 
L 234.327273 185.882559 
L 230.72 186.296614 
L 227.112727 186.701584 
L 223.505455 187.1064 
L 219.898182 187.512241 
L 218.019718 187.723636 
L 216.290909 187.927289 
L 212.683636 189.042488 
L 209.076364 190.549933 
L 205.469091 192.059023 
L 205.332254 192.116364 
L 201.861818 193.570639 
L 198.254545 195.082254 
L 195.221229 196.509091 
L 194.647273 196.812986 
L 191.04 199.717153 
L 189.795988 200.901818 
L 187.432727 203.152339 
L 185.725312 205.294545 
L 183.825455 208.823428 
L 183.421561 209.687273 
L 181.522092 214.08 
L 180.218182 217.095428 
L 179.622617 218.472727 
L 177.723148 222.865455 
L 176.610909 225.437622 
L 175.823671 227.258182 
L 174.083889 231.650909 
L 173.003636 235.080781 
L 172.704925 236.043636 
L 171.344412 240.436364 
L 169.984973 244.829091 
L 169.396364 246.731039 
L 168.625527 249.221818 
L 167.494127 253.614545 
L 166.544356 258.007273 
L 165.789091 261.500442 
L 165.594596 262.4 
L 164.644844 266.792727 
L 164.061359 271.185455 
L 163.664299 275.578182 
L 163.267223 279.970909 
L 163.211415 284.363636 
L 163.452362 288.756364 
L 163.919209 293.149091 
L 164.636544 297.541818 
L 165.498719 301.934545 
L 165.789091 303.413961 
L 166.360898 306.327273 
L 167.223076 310.72 
L 168.085241 315.112727 
L 168.947419 319.505455 
L 169.396364 320.988969 
L 170.32104 323.898182 
L 171.771839 328.290909 
L 173.003636 332.020575 
L 173.221793 332.683636 
L 174.66273 337.076364 
L 176.099673 341.469091 
L 176.610909 343.036828 
L 177.528209 345.861818 
L 178.949651 350.254545 
L 180.218182 353.791202 
L 180.565513 354.647273 
L 182.621281 359.04 
L 183.825455 361.615807 
L 184.674855 363.432727 
L 186.728421 367.825455 
L 187.432727 369.332014 
L 188.785711 372.218182 
L 191.04 375.659004 
L 192.227504 376.610909 
L 194.647273 377.973934 
L 198.254545 379.120873 
L 201.861818 380.278377 
L 204.648507 381.003636 
L 205.469091 381.199914 
L 209.076364 381.792053 
L 212.683636 382.382547 
L 216.290909 382.973787 
L 219.898182 383.575133 
L 223.505455 384.17125 
L 227.112727 384.770918 
L 230.72 385.367166 
L 230.896526 385.396364 
z
M 235.642779 345.861818 
L 234.327273 345.63893 
L 230.72 345.027743 
L 227.112727 344.371029 
L 223.505455 343.344052 
L 219.898182 342.154494 
L 218.216891 341.469091 
L 216.290909 340.460823 
L 213.25191 337.076364 
L 212.683636 336.114973 
L 211.043371 332.683636 
L 209.076364 328.568758 
L 208.943546 328.290909 
L 206.855744 323.898182 
L 205.469091 320.09225 
L 205.278472 319.505455 
L 203.851503 315.112727 
L 202.424537 310.72 
L 201.861818 308.915651 
L 201.09304 306.327273 
L 200.250468 301.934545 
L 199.403875 297.541818 
L 198.552509 293.149091 
L 198.254545 291.162003 
L 197.897405 288.756364 
L 197.691801 284.363636 
L 198.065805 279.970909 
L 198.254545 278.274045 
L 198.562976 275.578182 
L 199.528804 271.185455 
L 200.49464 266.792727 
L 201.669994 262.4 
L 201.861818 261.785814 
L 203.042399 258.007273 
L 204.492552 253.614545 
L 205.469091 251.258332 
L 206.349953 249.221818 
L 208.249951 244.829091 
L 209.076364 243.173253 
L 210.622008 240.436364 
L 212.683636 237.335833 
L 213.956916 236.043636 
L 216.290909 234.249181 
L 219.898182 231.898037 
L 220.341216 231.650909 
L 223.505455 230.081942 
L 227.112727 228.540652 
L 230.72 227.270558 
L 230.814591 227.258182 
L 234.327273 226.81857 
L 237.934545 226.367128 
L 241.541818 225.915681 
L 245.149091 225.464234 
L 248.756364 225.034329 
L 252.363636 225.188579 
L 255.970909 225.961892 
L 259.578182 226.7411 
L 261.972164 227.258182 
L 263.185455 227.520036 
L 266.792727 228.297069 
L 270.4 229.163482 
L 274.007273 230.47629 
L 277.068895 231.650909 
L 277.614545 231.860339 
L 281.221818 233.493682 
L 284.056225 236.043636 
L 284.829091 236.925681 
L 287.713979 240.436364 
L 288.436364 241.527798 
L 290.065213 244.829091 
L 291.969955 249.221818 
L 292.043636 249.439376 
L 293.314016 253.614545 
L 294.64879 258.007273 
L 295.650909 261.303051 
L 295.984449 262.4 
L 297.320101 266.792727 
L 298.236462 271.185455 
L 298.998898 275.578182 
L 299.258182 277.178258 
L 299.707861 279.970909 
L 300.085804 284.363636 
L 300.342393 288.756364 
L 300.276393 293.149091 
L 299.822377 297.541818 
L 299.258182 301.028829 
L 299.107678 301.934545 
L 297.958458 306.327273 
L 296.572623 310.72 
L 295.650909 313.641593 
L 295.186791 315.112727 
L 293.800961 319.505455 
L 292.33149 323.898182 
L 292.043636 324.51839 
L 289.651297 328.290909 
L 288.436364 329.797411 
L 286.108724 332.683636 
L 284.829091 334.270357 
L 282.340831 337.076364 
L 281.221818 338.201574 
L 277.810731 341.469091 
L 277.614545 341.649763 
L 274.007273 344.132278 
L 270.4 345.283391 
L 266.98402 345.861818 
L 266.792727 345.89421 
L 263.185455 346.505032 
L 259.578182 347.115855 
L 255.970909 347.721359 
L 252.363636 348.031189 
L 248.756364 348.040088 
L 245.149091 347.47249 
L 241.541818 346.861311 
L 237.934545 346.250116 
z
" style="fill:#f7b093;"/>
   </g>
   <g id="PathCollection_7">
    <path clip-path="url(#p70adaefba0)" d="M 237.934545 346.250116 
L 241.541818 346.861311 
L 245.149091 347.47249 
L 248.756364 348.040088 
L 252.363636 348.031189 
L 255.970909 347.721359 
L 259.578182 347.115855 
L 263.185455 346.505032 
L 266.792727 345.89421 
L 266.98402 345.861818 
L 270.4 345.283391 
L 274.007273 344.132278 
L 277.614545 341.649763 
L 277.810731 341.469091 
L 281.221818 338.201574 
L 282.340831 337.076364 
L 284.829091 334.270357 
L 286.108724 332.683636 
L 288.436364 329.797411 
L 289.651297 328.290909 
L 292.043636 324.51839 
L 292.33149 323.898182 
L 293.800961 319.505455 
L 295.186791 315.112727 
L 295.650909 313.641593 
L 296.572623 310.72 
L 297.958458 306.327273 
L 299.107678 301.934545 
L 299.258182 301.028829 
L 299.822377 297.541818 
L 300.276393 293.149091 
L 300.342393 288.756364 
L 300.085804 284.363636 
L 299.707861 279.970909 
L 299.258182 277.178258 
L 298.998898 275.578182 
L 298.236462 271.185455 
L 297.320101 266.792727 
L 295.984449 262.4 
L 295.650909 261.303051 
L 294.64879 258.007273 
L 293.314016 253.614545 
L 292.043636 249.439376 
L 291.969955 249.221818 
L 290.065213 244.829091 
L 288.436364 241.527798 
L 287.713979 240.436364 
L 284.829091 236.925681 
L 284.056225 236.043636 
L 281.221818 233.493682 
L 277.614545 231.860339 
L 277.068895 231.650909 
L 274.007273 230.47629 
L 270.4 229.163482 
L 266.792727 228.297069 
L 263.185455 227.520036 
L 261.972164 227.258182 
L 259.578182 226.7411 
L 255.970909 225.961892 
L 252.363636 225.188579 
L 248.756364 225.034329 
L 245.149091 225.464234 
L 241.541818 225.915681 
L 237.934545 226.367128 
L 234.327273 226.81857 
L 230.814591 227.258182 
L 230.72 227.270558 
L 227.112727 228.540652 
L 223.505455 230.081942 
L 220.341216 231.650909 
L 219.898182 231.898037 
L 216.290909 234.249181 
L 213.956916 236.043636 
L 212.683636 237.335833 
L 210.622008 240.436364 
L 209.076364 243.173253 
L 208.249951 244.829091 
L 206.349953 249.221818 
L 205.469091 251.258332 
L 204.492552 253.614545 
L 203.042399 258.007273 
L 201.861818 261.785814 
L 201.669994 262.4 
L 200.49464 266.792727 
L 199.528804 271.185455 
L 198.562976 275.578182 
L 198.254545 278.274045 
L 198.065805 279.970909 
L 197.691801 284.363636 
L 197.897405 288.756364 
L 198.254545 291.162003 
L 198.552509 293.149091 
L 199.403875 297.541818 
L 200.250468 301.934545 
L 201.09304 306.327273 
L 201.861818 308.915651 
L 202.424537 310.72 
L 203.851503 315.112727 
L 205.278472 319.505455 
L 205.469091 320.09225 
L 206.855744 323.898182 
L 208.943546 328.290909 
L 209.076364 328.568758 
L 211.043371 332.683636 
L 212.683636 336.114973 
L 213.25191 337.076364 
L 216.290909 340.460823 
L 218.216891 341.469091 
L 219.898182 342.154494 
L 223.505455 343.344052 
L 227.112727 344.371029 
L 230.72 345.027743 
L 234.327273 345.63893 
L 235.642779 345.861818 
z
M 236.943245 315.112727 
L 234.327273 313.122318 
L 231.890118 310.72 
L 230.72 309.203393 
L 229.110894 306.327273 
L 227.112727 302.155423 
L 227.015999 301.934545 
L 225.417994 297.541818 
L 224.509933 293.149091 
L 223.658714 288.756364 
L 223.556318 284.363636 
L 224.167614 279.970909 
L 225.029987 275.578182 
L 226.266783 271.185455 
L 227.112727 269.281183 
L 228.430035 266.792727 
L 230.72 263.427028 
L 231.682014 262.4 
L 234.327273 259.826973 
L 236.524494 258.007273 
L 237.934545 256.947141 
L 241.541818 255.153469 
L 245.149091 254.575175 
L 248.756364 254.015778 
L 252.363636 253.994125 
L 255.970909 254.68841 
L 259.578182 255.838137 
L 263.185455 257.164841 
L 264.553603 258.007273 
L 266.792727 260.017183 
L 268.805249 262.4 
L 270.4 264.325882 
L 272.134432 266.792727 
L 274.007273 270.518302 
L 274.262276 271.185455 
L 275.562714 275.578182 
L 276.463539 279.970909 
L 276.998291 284.363636 
L 277.20889 288.756364 
L 276.897071 293.149091 
L 275.841678 297.541818 
L 274.380885 301.934545 
L 274.007273 302.847366 
L 272.184706 306.327273 
L 270.4 308.715652 
L 268.784313 310.72 
L 266.792727 313.120172 
L 264.635938 315.112727 
L 263.185455 316.242905 
L 259.578182 318.07838 
L 255.970909 318.720871 
L 252.363636 319.074518 
L 248.756364 318.849979 
L 245.149091 318.097707 
L 241.541818 317.118237 
L 237.934545 315.710841 
z
" style="fill:#eb7d62;"/>
   </g>
   <g id="PathCollection_8">
    <path clip-path="url(#p70adaefba0)" d="M 237.934545 315.710841 
L 241.541818 317.118237 
L 245.149091 318.097707 
L 248.756364 318.849979 
L 252.363636 319.074518 
L 255.970909 318.720871 
L 259.578182 318.07838 
L 263.185455 316.242905 
L 264.635938 315.112727 
L 266.792727 313.120172 
L 268.784313 310.72 
L 270.4 308.715652 
L 272.184706 306.327273 
L 274.007273 302.847366 
L 274.380885 301.934545 
L 275.841678 297.541818 
L 276.897071 293.149091 
L 277.20889 288.756364 
L 276.998291 284.363636 
L 276.463539 279.970909 
L 275.562714 275.578182 
L 274.262276 271.185455 
L 274.007273 270.518302 
L 272.134432 266.792727 
L 270.4 264.325882 
L 268.805249 262.4 
L 266.792727 260.017183 
L 264.553603 258.007273 
L 263.185455 257.164841 
L 259.578182 255.838137 
L 255.970909 254.68841 
L 252.363636 253.994125 
L 248.756364 254.015778 
L 245.149091 254.575175 
L 241.541818 255.153469 
L 237.934545 256.947141 
L 236.524494 258.007273 
L 234.327273 259.826973 
L 231.682014 262.4 
L 230.72 263.427028 
L 228.430035 266.792727 
L 227.112727 269.281183 
L 226.266783 271.185455 
L 225.029987 275.578182 
L 224.167614 279.970909 
L 223.556318 284.363636 
L 223.658714 288.756364 
L 224.509933 293.149091 
L 225.417994 297.541818 
L 227.015999 301.934545 
L 227.112727 302.155423 
L 229.110894 306.327273 
L 230.72 309.203393 
L 231.890118 310.72 
L 234.327273 313.122318 
L 236.943245 315.112727 
z
" style="fill:#ca3b37;"/>
   </g>
   <g id="matplotlib.axis_1">
    <g id="xtick_1">
     <g id="line2d_1">
      <defs>
       <path d="M 0 0 
L 0 3.5 
" id="m5afe2cf39c" style="stroke:#000000;stroke-width:0.8;"/>
      </defs>
      <g>
       <use style="stroke:#000000;stroke-width:0.8;" x="107.712" xlink:href="#m5afe2cf39c" y="504"/>
      </g>
     </g>
     <g id="text_1">
      <!-- 4 -->
      <defs>
       <path d="M 10.59375 35.5 
L 73.1875 35.5 
L 73.1875 27.203125 
L 10.59375 27.203125 
z
" id="DejaVuSans-2212"/>
       <path d="M 37.796875 64.3125 
L 12.890625 25.390625 
L 37.796875 25.390625 
z
M 35.203125 72.90625 
L 47.609375 72.90625 
L 47.609375 25.390625 
L 58.015625 25.390625 
L 58.015625 17.1875 
L 47.609375 17.1875 
L 47.609375 0 
L 37.796875 0 
L 37.796875 17.1875 
L 4.890625 17.1875 
L 4.890625 26.703125 
z
" id="DejaVuSans-34"/>
      </defs>
      <g transform="translate(100.340906 518.598438)scale(0.1 -0.1)">
       <use xlink:href="#DejaVuSans-2212"/>
       <use x="83.789062" xlink:href="#DejaVuSans-34"/>
      </g>
     </g>
    </g>
    <g id="xtick_2">
     <g id="line2d_2">
      <g>
       <use style="stroke:#000000;stroke-width:0.8;" x="179.136" xlink:href="#m5afe2cf39c" y="504"/>
      </g>
     </g>
     <g id="text_2">
      <!-- 2 -->
      <defs>
       <path d="M 19.1875 8.296875 
L 53.609375 8.296875 
L 53.609375 0 
L 7.328125 0 
L 7.328125 8.296875 
Q 12.9375 14.109375 22.625 23.890625 
Q 32.328125 33.6875 34.8125 36.53125 
Q 39.546875 41.84375 41.421875 45.53125 
Q 43.3125 49.21875 43.3125 52.78125 
Q 43.3125 58.59375 39.234375 62.25 
Q 35.15625 65.921875 28.609375 65.921875 
Q 23.96875 65.921875 18.8125 64.3125 
Q 13.671875 62.703125 7.8125 59.421875 
L 7.8125 69.390625 
Q 13.765625 71.78125 18.9375 73 
Q 24.125 74.21875 28.421875 74.21875 
Q 39.75 74.21875 46.484375 68.546875 
Q 53.21875 62.890625 53.21875 53.421875 
Q 53.21875 48.921875 51.53125 44.890625 
Q 49.859375 40.875 45.40625 35.40625 
Q 44.1875 33.984375 37.640625 27.21875 
Q 31.109375 20.453125 19.1875 8.296875 
z
" id="DejaVuSans-32"/>
      </defs>
      <g transform="translate(171.764906 518.598438)scale(0.1 -0.1)">
       <use xlink:href="#DejaVuSans-2212"/>
       <use x="83.789062" xlink:href="#DejaVuSans-32"/>
      </g>
     </g>
    </g>
    <g id="xtick_3">
     <g id="line2d_3">
      <g>
       <use style="stroke:#000000;stroke-width:0.8;" x="250.56" xlink:href="#m5afe2cf39c" y="504"/>
      </g>
     </g>
     <g id="text_3">
      <!-- 0 -->
      <defs>
       <path d="M 31.78125 66.40625 
Q 24.171875 66.40625 20.328125 58.90625 
Q 16.5 51.421875 16.5 36.375 
Q 16.5 21.390625 20.328125 13.890625 
Q 24.171875 6.390625 31.78125 6.390625 
Q 39.453125 6.390625 43.28125 13.890625 
Q 47.125 21.390625 47.125 36.375 
Q 47.125 51.421875 43.28125 58.90625 
Q 39.453125 66.40625 31.78125 66.40625 
z
M 31.78125 74.21875 
Q 44.046875 74.21875 50.515625 64.515625 
Q 56.984375 54.828125 56.984375 36.375 
Q 56.984375 17.96875 50.515625 8.265625 
Q 44.046875 -1.421875 31.78125 -1.421875 
Q 19.53125 -1.421875 13.0625 8.265625 
Q 6.59375 17.96875 6.59375 36.375 
Q 6.59375 54.828125 13.0625 64.515625 
Q 19.53125 74.21875 31.78125 74.21875 
z
" id="DejaVuSans-30"/>
      </defs>
      <g transform="translate(247.37875 518.598438)scale(0.1 -0.1)">
       <use xlink:href="#DejaVuSans-30"/>
      </g>
     </g>
    </g>
    <g id="xtick_4">
     <g id="line2d_4">
      <g>
       <use style="stroke:#000000;stroke-width:0.8;" x="321.984" xlink:href="#m5afe2cf39c" y="504"/>
      </g>
     </g>
     <g id="text_4">
      <!-- 2 -->
      <g transform="translate(318.80275 518.598438)scale(0.1 -0.1)">
       <use xlink:href="#DejaVuSans-32"/>
      </g>
     </g>
    </g>
    <g id="xtick_5">
     <g id="line2d_5">
      <g>
       <use style="stroke:#000000;stroke-width:0.8;" x="393.408" xlink:href="#m5afe2cf39c" y="504"/>
      </g>
     </g>
     <g id="text_5">
      <!-- 4 -->
      <g transform="translate(390.22675 518.598438)scale(0.1 -0.1)">
       <use xlink:href="#DejaVuSans-34"/>
      </g>
     </g>
    </g>
   </g>
   <g id="matplotlib.axis_2">
    <g id="ytick_1">
     <g id="line2d_6">
      <defs>
       <path d="M 0 0 
L -3.5 0 
" id="m8f93fe41f9" style="stroke:#000000;stroke-width:0.8;"/>
      </defs>
      <g>
       <use style="stroke:#000000;stroke-width:0.8;" x="72" xlink:href="#m8f93fe41f9" y="460.512"/>
      </g>
     </g>
     <g id="text_6">
      <!-- 4 -->
      <g transform="translate(50.257812 464.311219)scale(0.1 -0.1)">
       <use xlink:href="#DejaVuSans-2212"/>
       <use x="83.789062" xlink:href="#DejaVuSans-34"/>
      </g>
     </g>
    </g>
    <g id="ytick_2">
     <g id="line2d_7">
      <g>
       <use style="stroke:#000000;stroke-width:0.8;" x="72" xlink:href="#m8f93fe41f9" y="373.536"/>
      </g>
     </g>
     <g id="text_7">
      <!-- 2 -->
      <g transform="translate(50.257812 377.335219)scale(0.1 -0.1)">
       <use xlink:href="#DejaVuSans-2212"/>
       <use x="83.789062" xlink:href="#DejaVuSans-32"/>
      </g>
     </g>
    </g>
    <g id="ytick_3">
     <g id="line2d_8">
      <g>
       <use style="stroke:#000000;stroke-width:0.8;" x="72" xlink:href="#m8f93fe41f9" y="286.56"/>
      </g>
     </g>
     <g id="text_8">
      <!-- 0 -->
      <g transform="translate(58.6375 290.359219)scale(0.1 -0.1)">
       <use xlink:href="#DejaVuSans-30"/>
      </g>
     </g>
    </g>
    <g id="ytick_4">
     <g id="line2d_9">
      <g>
       <use style="stroke:#000000;stroke-width:0.8;" x="72" xlink:href="#m8f93fe41f9" y="199.584"/>
      </g>
     </g>
     <g id="text_9">
      <!-- 2 -->
      <g transform="translate(58.6375 203.383219)scale(0.1 -0.1)">
       <use xlink:href="#DejaVuSans-32"/>
      </g>
     </g>
    </g>
    <g id="ytick_5">
     <g id="line2d_10">
      <g>
       <use style="stroke:#000000;stroke-width:0.8;" x="72" xlink:href="#m8f93fe41f9" y="112.608"/>
      </g>
     </g>
     <g id="text_10">
      <!-- 4 -->
      <g transform="translate(58.6375 116.407219)scale(0.1 -0.1)">
       <use xlink:href="#DejaVuSans-34"/>
      </g>
     </g>
    </g>
   </g>
   <g id="patch_3">
    <path d="M 72 504 
L 72 69.12 
" style="fill:none;stroke:#000000;stroke-linecap:square;stroke-linejoin:miter;stroke-width:0.8;"/>
   </g>
   <g id="patch_4">
    <path d="M 429.12 504 
L 429.12 69.12 
" style="fill:none;stroke:#000000;stroke-linecap:square;stroke-linejoin:miter;stroke-width:0.8;"/>
   </g>
   <g id="patch_5">
    <path d="M 72 504 
L 429.12 504 
" style="fill:none;stroke:#000000;stroke-linecap:square;stroke-linejoin:miter;stroke-width:0.8;"/>
   </g>
   <g id="patch_6">
    <path d="M 72 69.12 
L 429.12 69.12 
" style="fill:none;stroke:#000000;stroke-linecap:square;stroke-linejoin:miter;stroke-width:0.8;"/>
   </g>
  </g>
  <g id="axes_2">
   <g id="patch_7">
    <path clip-path="url(#p1123dba9d2)" d="M 451.44 504 
L 451.44 449.64 
L 451.44 123.48 
L 451.44 69.12 
L 473.184 69.12 
L 473.184 123.48 
L 473.184 449.64 
L 473.184 504 
z
" style="fill:#ffffff;stroke:#ffffff;stroke-linejoin:miter;stroke-width:0.01;"/>
   </g>
   <g id="QuadMesh_1">
    <path clip-path="url(#p1123dba9d2)" d="M 451.44 504 
L 473.184 504 
L 473.184 449.64 
L 451.44 449.64 
L 451.44 504 
" style="fill:#4e68d8;"/>
    <path clip-path="url(#p1123dba9d2)" d="M 451.44 449.64 
L 473.184 449.64 
L 473.184 395.28 
L 451.44 395.28 
L 451.44 449.64 
" style="fill:#779af7;"/>
    <path clip-path="url(#p1123dba9d2)" d="M 451.44 395.28 
L 473.184 395.28 
L 473.184 340.92 
L 451.44 340.92 
L 451.44 395.28 
" style="fill:#a3c2fe;"/>
    <path clip-path="url(#p1123dba9d2)" d="M 451.44 340.92 
L 473.184 340.92 
L 473.184 286.56 
L 451.44 286.56 
L 451.44 340.92 
" style="fill:#ccd9ed;"/>
    <path clip-path="url(#p1123dba9d2)" d="M 451.44 286.56 
L 473.184 286.56 
L 473.184 232.2 
L 451.44 232.2 
L 451.44 286.56 
" style="fill:#ecd3c5;"/>
    <path clip-path="url(#p1123dba9d2)" d="M 451.44 232.2 
L 473.184 232.2 
L 473.184 177.84 
L 451.44 177.84 
L 451.44 232.2 
" style="fill:#f7b093;"/>
    <path clip-path="url(#p1123dba9d2)" d="M 451.44 177.84 
L 473.184 177.84 
L 473.184 123.48 
L 451.44 123.48 
L 451.44 177.84 
" style="fill:#eb7d62;"/>
    <path clip-path="url(#p1123dba9d2)" d="M 451.44 123.48 
L 473.184 123.48 
L 473.184 69.12 
L 451.44 69.12 
L 451.44 123.48 
" style="fill:#ca3b37;"/>
   </g>
   <g id="matplotlib.axis_3"/>
   <g id="matplotlib.axis_4">
    <g id="ytick_6">
     <g id="line2d_11">
      <defs>
       <path d="M 0 0 
L 3.5 0 
" id="m6f42024894" style="stroke:#000000;stroke-width:0.8;"/>
      </defs>
      <g>
       <use style="stroke:#000000;stroke-width:0.8;" x="473.184" xlink:href="#m6f42024894" y="504"/>
      </g>
     </g>
     <g id="text_11">
      <!-- 140 -->
      <defs>
       <path d="M 12.40625 8.296875 
L 28.515625 8.296875 
L 28.515625 63.921875 
L 10.984375 60.40625 
L 10.984375 69.390625 
L 28.421875 72.90625 
L 38.28125 72.90625 
L 38.28125 8.296875 
L 54.390625 8.296875 
L 54.390625 0 
L 12.40625 0 
z
" id="DejaVuSans-31"/>
      </defs>
      <g transform="translate(480.184 507.799219)scale(0.1 -0.1)">
       <use xlink:href="#DejaVuSans-2212"/>
       <use x="83.789062" xlink:href="#DejaVuSans-31"/>
       <use x="147.412109" xlink:href="#DejaVuSans-34"/>
       <use x="211.035156" xlink:href="#DejaVuSans-30"/>
      </g>
     </g>
    </g>
    <g id="ytick_7">
     <g id="line2d_12">
      <g>
       <use style="stroke:#000000;stroke-width:0.8;" x="473.184" xlink:href="#m6f42024894" y="449.64"/>
      </g>
     </g>
     <g id="text_12">
      <!-- 120 -->
      <g transform="translate(480.184 453.439219)scale(0.1 -0.1)">
       <use xlink:href="#DejaVuSans-2212"/>
       <use x="83.789062" xlink:href="#DejaVuSans-31"/>
       <use x="147.412109" xlink:href="#DejaVuSans-32"/>
       <use x="211.035156" xlink:href="#DejaVuSans-30"/>
      </g>
     </g>
    </g>
    <g id="ytick_8">
     <g id="line2d_13">
      <g>
       <use style="stroke:#000000;stroke-width:0.8;" x="473.184" xlink:href="#m6f42024894" y="395.28"/>
      </g>
     </g>
     <g id="text_13">
      <!-- 100 -->
      <g transform="translate(480.184 399.079219)scale(0.1 -0.1)">
       <use xlink:href="#DejaVuSans-2212"/>
       <use x="83.789062" xlink:href="#DejaVuSans-31"/>
       <use x="147.412109" xlink:href="#DejaVuSans-30"/>
       <use x="211.035156" xlink:href="#DejaVuSans-30"/>
      </g>
     </g>
    </g>
    <g id="ytick_9">
     <g id="line2d_14">
      <g>
       <use style="stroke:#000000;stroke-width:0.8;" x="473.184" xlink:href="#m6f42024894" y="340.92"/>
      </g>
     </g>
     <g id="text_14">
      <!-- 80 -->
      <defs>
       <path d="M 31.78125 34.625 
Q 24.75 34.625 20.71875 30.859375 
Q 16.703125 27.09375 16.703125 20.515625 
Q 16.703125 13.921875 20.71875 10.15625 
Q 24.75 6.390625 31.78125 6.390625 
Q 38.8125 6.390625 42.859375 10.171875 
Q 46.921875 13.96875 46.921875 20.515625 
Q 46.921875 27.09375 42.890625 30.859375 
Q 38.875 34.625 31.78125 34.625 
z
M 21.921875 38.8125 
Q 15.578125 40.375 12.03125 44.71875 
Q 8.5 49.078125 8.5 55.328125 
Q 8.5 64.0625 14.71875 69.140625 
Q 20.953125 74.21875 31.78125 74.21875 
Q 42.671875 74.21875 48.875 69.140625 
Q 55.078125 64.0625 55.078125 55.328125 
Q 55.078125 49.078125 51.53125 44.71875 
Q 48 40.375 41.703125 38.8125 
Q 48.828125 37.15625 52.796875 32.3125 
Q 56.78125 27.484375 56.78125 20.515625 
Q 56.78125 9.90625 50.3125 4.234375 
Q 43.84375 -1.421875 31.78125 -1.421875 
Q 19.734375 -1.421875 13.25 4.234375 
Q 6.78125 9.90625 6.78125 20.515625 
Q 6.78125 27.484375 10.78125 32.3125 
Q 14.796875 37.15625 21.921875 38.8125 
z
M 18.3125 54.390625 
Q 18.3125 48.734375 21.84375 45.5625 
Q 25.390625 42.390625 31.78125 42.390625 
Q 38.140625 42.390625 41.71875 45.5625 
Q 45.3125 48.734375 45.3125 54.390625 
Q 45.3125 60.0625 41.71875 63.234375 
Q 38.140625 66.40625 31.78125 66.40625 
Q 25.390625 66.40625 21.84375 63.234375 
Q 18.3125 60.0625 18.3125 54.390625 
z
" id="DejaVuSans-38"/>
      </defs>
      <g transform="translate(480.184 344.719219)scale(0.1 -0.1)">
       <use xlink:href="#DejaVuSans-2212"/>
       <use x="83.789062" xlink:href="#DejaVuSans-38"/>
       <use x="147.412109" xlink:href="#DejaVuSans-30"/>
      </g>
     </g>
    </g>
    <g id="ytick_10">
     <g id="line2d_15">
      <g>
       <use style="stroke:#000000;stroke-width:0.8;" x="473.184" xlink:href="#m6f42024894" y="286.56"/>
      </g>
     </g>
     <g id="text_15">
      <!-- 60 -->
      <defs>
       <path d="M 33.015625 40.375 
Q 26.375 40.375 22.484375 35.828125 
Q 18.609375 31.296875 18.609375 23.390625 
Q 18.609375 15.53125 22.484375 10.953125 
Q 26.375 6.390625 33.015625 6.390625 
Q 39.65625 6.390625 43.53125 10.953125 
Q 47.40625 15.53125 47.40625 23.390625 
Q 47.40625 31.296875 43.53125 35.828125 
Q 39.65625 40.375 33.015625 40.375 
z
M 52.59375 71.296875 
L 52.59375 62.3125 
Q 48.875 64.0625 45.09375 64.984375 
Q 41.3125 65.921875 37.59375 65.921875 
Q 27.828125 65.921875 22.671875 59.328125 
Q 17.53125 52.734375 16.796875 39.40625 
Q 19.671875 43.65625 24.015625 45.921875 
Q 28.375 48.1875 33.59375 48.1875 
Q 44.578125 48.1875 50.953125 41.515625 
Q 57.328125 34.859375 57.328125 23.390625 
Q 57.328125 12.15625 50.6875 5.359375 
Q 44.046875 -1.421875 33.015625 -1.421875 
Q 20.359375 -1.421875 13.671875 8.265625 
Q 6.984375 17.96875 6.984375 36.375 
Q 6.984375 53.65625 15.1875 63.9375 
Q 23.390625 74.21875 37.203125 74.21875 
Q 40.921875 74.21875 44.703125 73.484375 
Q 48.484375 72.75 52.59375 71.296875 
z
" id="DejaVuSans-36"/>
      </defs>
      <g transform="translate(480.184 290.359219)scale(0.1 -0.1)">
       <use xlink:href="#DejaVuSans-2212"/>
       <use x="83.789062" xlink:href="#DejaVuSans-36"/>
       <use x="147.412109" xlink:href="#DejaVuSans-30"/>
      </g>
     </g>
    </g>
    <g id="ytick_11">
     <g id="line2d_16">
      <g>
       <use style="stroke:#000000;stroke-width:0.8;" x="473.184" xlink:href="#m6f42024894" y="232.2"/>
      </g>
     </g>
     <g id="text_16">
      <!-- 40 -->
      <g transform="translate(480.184 235.999219)scale(0.1 -0.1)">
       <use xlink:href="#DejaVuSans-2212"/>
       <use x="83.789062" xlink:href="#DejaVuSans-34"/>
       <use x="147.412109" xlink:href="#DejaVuSans-30"/>
      </g>
     </g>
    </g>
    <g id="ytick_12">
     <g id="line2d_17">
      <g>
       <use style="stroke:#000000;stroke-width:0.8;" x="473.184" xlink:href="#m6f42024894" y="177.84"/>
      </g>
     </g>
     <g id="text_17">
      <!-- 20 -->
      <g transform="translate(480.184 181.639219)scale(0.1 -0.1)">
       <use xlink:href="#DejaVuSans-2212"/>
       <use x="83.789062" xlink:href="#DejaVuSans-32"/>
       <use x="147.412109" xlink:href="#DejaVuSans-30"/>
      </g>
     </g>
    </g>
    <g id="ytick_13">
     <g id="line2d_18">
      <g>
       <use style="stroke:#000000;stroke-width:0.8;" x="473.184" xlink:href="#m6f42024894" y="123.48"/>
      </g>
     </g>
     <g id="text_18">
      <!-- 0 -->
      <g transform="translate(480.184 127.279219)scale(0.1 -0.1)">
       <use xlink:href="#DejaVuSans-30"/>
      </g>
     </g>
    </g>
    <g id="ytick_14">
     <g id="line2d_19">
      <g>
       <use style="stroke:#000000;stroke-width:0.8;" x="473.184" xlink:href="#m6f42024894" y="69.12"/>
      </g>
     </g>
     <g id="text_19">
      <!-- 20 -->
      <g transform="translate(480.184 72.919219)scale(0.1 -0.1)">
       <use xlink:href="#DejaVuSans-32"/>
       <use x="63.623047" xlink:href="#DejaVuSans-30"/>
      </g>
     </g>
    </g>
   </g>
   <g id="patch_8">
    <path d="M 451.44 504 
L 451.44 449.64 
L 451.44 123.48 
L 451.44 69.12 
L 473.184 69.12 
L 473.184 123.48 
L 473.184 449.64 
L 473.184 504 
z
" style="fill:none;stroke:#000000;stroke-linejoin:miter;stroke-width:0.8;"/>
   </g>
  </g>
 </g>
 <defs>
  <clipPath id="p70adaefba0">
   <rect height="434.88" width="357.12" x="72" y="69.12"/>
  </clipPath>
  <clipPath id="p1123dba9d2">
   <rect height="434.88" width="21.744" x="451.44" y="69.12"/>
  </clipPath>
 </defs>
</svg>
