<?xml version="1.0" encoding="utf-8" standalone="no"?>
<!DOCTYPE svg PUBLIC "-//W3C//DTD SVG 1.1//EN"
  "http://www.w3.org/Graphics/SVG/1.1/DTD/svg11.dtd">
<!-- Created with matplotlib (http://matplotlib.org/) -->
<svg height="576pt" version="1.1" viewBox="0 0 576 576" width="576pt" xmlns="http://www.w3.org/2000/svg" xmlns:xlink="http://www.w3.org/1999/xlink">
 <defs>
  <style type="text/css">
*{stroke-linecap:butt;stroke-linejoin:round;}
  </style>
 </defs>
 <g id="figure_1">
  <g id="patch_1">
   <path d="M 0 576 
L 576 576 
L 576 0 
L 0 0 
z
" style="fill:#ffffff;"/>
  </g>
  <g id="axes_1">
   <g id="patch_2">
    <path d="M 72 504 
L 429.12 504 
L 429.12 69.12 
L 72 69.12 
z
" style="fill:#ffffff;"/>
   </g>
   <g id="PathCollection_1">
    <path clip-path="url(#p436197f3a5)" d="M 73.380484 73.512727 
L 75.607273 70.641198 
L 76.786929 69.12 
L 75.607273 69.12 
L 72 69.12 
L 72 73.512727 
L 72 75.292895 
z
" style="fill:#4b64d5;"/>
   </g>
   <g id="PathCollection_2">
    <path clip-path="url(#p436197f3a5)" d="M 75.607273 504 
L 79.214545 504 
L 82.821818 504 
L 86.15944 504 
L 83.332154 499.607273 
L 82.821818 498.814385 
L 80.504814 495.214545 
L 79.214545 493.209893 
L 77.677477 490.821818 
L 75.607273 487.605414 
L 74.850148 486.429091 
L 72.02283 482.036364 
L 72 482.000892 
L 72 482.036364 
L 72 486.429091 
L 72 490.821818 
L 72 495.214545 
L 72 499.607273 
L 72 504 
z
" style="fill:#6f92f3;"/>
    <path clip-path="url(#p436197f3a5)" d="M 72.056629 178.938182 
L 72.918685 174.545455 
L 73.780741 170.152727 
L 74.6428 165.76 
L 75.504865 161.367273 
L 75.607273 160.845432 
L 76.366911 156.974545 
L 77.228982 152.581818 
L 78.09104 148.189091 
L 78.953101 143.796364 
L 79.214545 142.464154 
L 79.815165 139.403636 
L 80.677232 135.010909 
L 81.539297 130.618182 
L 82.401339 126.225455 
L 82.821818 124.082862 
L 83.272099 121.832727 
L 85.273201 117.44 
L 86.429091 115.94945 
L 88.679646 113.047273 
L 90.036364 111.29776 
L 92.086122 108.654545 
L 93.643636 106.646091 
L 95.492609 104.261818 
L 97.250909 101.994433 
L 98.899067 99.869091 
L 100.858182 97.342774 
L 102.30553 95.476364 
L 104.465455 92.691058 
L 105.711976 91.083636 
L 108.072727 88.039387 
L 109.118444 86.690909 
L 111.68 83.387716 
L 112.524911 82.298182 
L 115.287273 78.736045 
L 115.931378 77.905455 
L 118.894545 74.084375 
L 119.337844 73.512727 
L 122.501818 69.432744 
L 122.744346 69.12 
L 122.501818 69.12 
L 118.894545 69.12 
L 115.287273 69.12 
L 111.68 69.12 
L 108.072727 69.12 
L 104.465455 69.12 
L 100.858182 69.12 
L 97.250909 69.12 
L 93.643636 69.12 
L 90.036364 69.12 
L 86.429091 69.12 
L 82.821818 69.12 
L 79.214545 69.12 
L 76.786929 69.12 
L 75.607273 70.641198 
L 73.380484 73.512727 
L 72 75.292895 
L 72 77.905455 
L 72 82.298182 
L 72 86.690909 
L 72 91.083636 
L 72 95.476364 
L 72 99.869091 
L 72 104.261818 
L 72 108.654545 
L 72 113.047273 
L 72 117.44 
L 72 121.832727 
L 72 126.225455 
L 72 130.618182 
L 72 135.010909 
L 72 139.403636 
L 72 143.796364 
L 72 148.189091 
L 72 152.581818 
L 72 156.974545 
L 72 161.367273 
L 72 165.76 
L 72 170.152727 
L 72 174.545455 
L 72 178.938182 
L 72 179.226742 
z
" style="fill:#6f92f3;"/>
   </g>
   <g id="PathCollection_3">
    <path clip-path="url(#p436197f3a5)" d="M 86.429091 504 
L 90.036364 504 
L 93.643636 504 
L 97.250909 504 
L 100.858182 504 
L 104.465455 504 
L 108.072727 504 
L 111.68 504 
L 115.287273 504 
L 118.894545 504 
L 122.501818 504 
L 126.109091 504 
L 129.716364 504 
L 133.062589 504 
L 130.235236 499.607273 
L 129.716364 498.801125 
L 127.407905 495.214545 
L 126.109091 493.196593 
L 124.5806 490.821818 
L 122.501818 487.592112 
L 121.753254 486.429091 
L 118.925946 482.036364 
L 118.894545 481.987577 
L 116.09861 477.643636 
L 115.287273 476.383083 
L 113.271282 473.250909 
L 111.68 470.778589 
L 110.443963 468.858182 
L 108.072727 465.174086 
L 107.616623 464.465455 
L 104.789319 460.072727 
L 104.465455 459.569549 
L 101.961985 455.68 
L 100.858182 453.96503 
L 99.134685 451.287273 
L 97.250909 448.36053 
L 96.307349 446.894545 
L 93.643636 442.756008 
L 93.480031 442.501818 
L 90.65268 438.109091 
L 90.036364 437.151542 
L 87.82537 433.716364 
L 86.429091 431.546992 
L 84.998052 429.323636 
L 82.821818 425.942498 
L 82.170726 424.930909 
L 79.343386 420.538182 
L 79.214545 420.281973 
L 77.710688 416.145455 
L 77.114966 411.752727 
L 76.519232 407.36 
L 75.92351 402.967273 
L 75.607273 400.635472 
L 75.32777 398.574545 
L 74.732049 394.181818 
L 74.13631 389.789091 
L 73.540587 385.396364 
L 72.94485 381.003636 
L 72.349133 376.610909 
L 72 374.036395 
L 72 376.610909 
L 72 381.003636 
L 72 385.396364 
L 72 389.789091 
L 72 394.181818 
L 72 398.574545 
L 72 402.967273 
L 72 407.36 
L 72 411.752727 
L 72 416.145455 
L 72 420.538182 
L 72 424.930909 
L 72 429.323636 
L 72 433.716364 
L 72 438.109091 
L 72 442.501818 
L 72 446.894545 
L 72 451.287273 
L 72 455.68 
L 72 460.072727 
L 72 464.465455 
L 72 468.858182 
L 72 473.250909 
L 72 477.643636 
L 72 482.000892 
L 72.02283 482.036364 
L 74.850148 486.429091 
L 75.607273 487.605414 
L 77.677477 490.821818 
L 79.214545 493.209893 
L 80.504814 495.214545 
L 82.821818 498.814385 
L 83.332154 499.607273 
L 86.15944 504 
z
" style="fill:#97b8ff;"/>
    <path clip-path="url(#p436197f3a5)" d="M 72.054503 315.112727 
L 73.079531 310.72 
L 74.104535 306.327273 
L 75.129573 301.934545 
L 75.607273 299.88736 
L 76.154594 297.541818 
L 77.179623 293.149091 
L 78.204639 288.756364 
L 79.214545 284.428467 
L 79.229673 284.363636 
L 80.254684 279.970909 
L 81.279724 275.578182 
L 82.304743 271.185455 
L 82.821818 268.969525 
L 83.329764 266.792727 
L 84.354793 262.4 
L 85.379809 258.007273 
L 86.404844 253.614545 
L 86.429091 253.510634 
L 87.429863 249.221818 
L 88.454876 244.829091 
L 89.479913 240.436364 
L 90.036364 238.051664 
L 90.504924 236.043636 
L 91.529955 231.650909 
L 92.554979 227.258182 
L 93.580013 222.865455 
L 93.643636 222.592799 
L 94.60503 218.472727 
L 95.630046 214.08 
L 96.65507 209.687273 
L 97.250909 207.133807 
L 97.680092 205.294545 
L 98.705122 200.901818 
L 99.730153 196.509091 
L 100.657174 192.116364 
L 100.858182 191.092109 
L 101.519234 187.723636 
L 102.381294 183.330909 
L 103.243337 178.938182 
L 104.10541 174.545455 
L 104.465455 172.710817 
L 104.967475 170.152727 
L 105.829516 165.76 
L 106.691582 161.367273 
L 107.553647 156.974545 
L 108.072727 154.329525 
L 108.415712 152.581818 
L 109.277777 148.189091 
L 110.8656 143.796364 
L 111.68 142.650944 
L 114.198206 139.403636 
L 115.287273 137.999258 
L 117.604663 135.010909 
L 118.894545 133.347566 
L 121.011136 130.618182 
L 122.501818 128.695919 
L 124.417621 126.225455 
L 126.109091 124.04426 
L 127.824088 121.832727 
L 129.716364 119.392602 
L 131.230566 117.44 
L 133.323636 114.740905 
L 134.637006 113.047273 
L 136.930909 110.08924 
L 138.04348 108.654545 
L 140.538182 105.437581 
L 141.449971 104.261818 
L 144.145455 100.785906 
L 144.856422 99.869091 
L 147.752727 97.008961 
L 150.856466 95.476364 
L 151.36 95.234709 
L 154.967273 93.503483 
L 158.574545 91.77229 
L 160.009475 91.083636 
L 162.181818 90.041081 
L 165.789091 88.309872 
L 169.162479 86.690909 
L 169.396364 86.578663 
L 173.003636 84.847454 
L 176.610909 83.116261 
L 178.315502 82.298182 
L 180.218182 81.385035 
L 183.825455 79.653843 
L 187.432727 77.922617 
L 187.468489 77.905455 
L 191.04 76.191425 
L 194.647273 74.460202 
L 196.621512 73.512727 
L 198.254545 72.729006 
L 201.861818 70.9978 
L 205.469091 69.266604 
L 205.774564 69.12 
L 205.469091 69.12 
L 201.861818 69.12 
L 198.254545 69.12 
L 194.647273 69.12 
L 191.04 69.12 
L 187.432727 69.12 
L 183.825455 69.12 
L 180.218182 69.12 
L 176.610909 69.12 
L 173.003636 69.12 
L 169.396364 69.12 
L 165.789091 69.12 
L 162.181818 69.12 
L 158.574545 69.12 
L 154.967273 69.12 
L 151.36 69.12 
L 147.752727 69.12 
L 144.145455 69.12 
L 140.538182 69.12 
L 136.930909 69.12 
L 133.323636 69.12 
L 129.716364 69.12 
L 126.109091 69.12 
L 122.744346 69.12 
L 122.501818 69.432744 
L 119.337844 73.512727 
L 118.894545 74.084375 
L 115.931378 77.905455 
L 115.287273 78.736045 
L 112.524911 82.298182 
L 111.68 83.387716 
L 109.118444 86.690909 
L 108.072727 88.039387 
L 105.711976 91.083636 
L 104.465455 92.691058 
L 102.30553 95.476364 
L 100.858182 97.342774 
L 98.899067 99.869091 
L 97.250909 101.994433 
L 95.492609 104.261818 
L 93.643636 106.646091 
L 92.086122 108.654545 
L 90.036364 111.29776 
L 88.679646 113.047273 
L 86.429091 115.94945 
L 85.273201 117.44 
L 83.272099 121.832727 
L 82.821818 124.082862 
L 82.401339 126.225455 
L 81.539297 130.618182 
L 80.677232 135.010909 
L 79.815165 139.403636 
L 79.214545 142.464154 
L 78.953101 143.796364 
L 78.09104 148.189091 
L 77.228982 152.581818 
L 76.366911 156.974545 
L 75.607273 160.845432 
L 75.504865 161.367273 
L 74.6428 165.76 
L 73.780741 170.152727 
L 72.918685 174.545455 
L 72.056629 178.938182 
L 72 179.226742 
L 72 183.330909 
L 72 187.723636 
L 72 192.116364 
L 72 196.509091 
L 72 200.901818 
L 72 205.294545 
L 72 209.687273 
L 72 214.08 
L 72 218.472727 
L 72 222.865455 
L 72 227.258182 
L 72 231.650909 
L 72 236.043636 
L 72 240.436364 
L 72 244.829091 
L 72 249.221818 
L 72 253.614545 
L 72 258.007273 
L 72 262.4 
L 72 266.792727 
L 72 271.185455 
L 72 275.578182 
L 72 279.970909 
L 72 284.363636 
L 72 288.756364 
L 72 293.149091 
L 72 297.541818 
L 72 301.934545 
L 72 306.327273 
L 72 310.72 
L 72 315.112727 
L 72 315.346299 
z
" style="fill:#97b8ff;"/>
    <path clip-path="url(#p436197f3a5)" d="M 425.512727 95.669679 
L 429.12 98.266024 
L 429.12 95.476364 
L 429.12 91.083636 
L 429.12 86.690909 
L 429.12 82.298182 
L 429.12 77.905455 
L 429.12 73.512727 
L 429.12 69.12 
L 425.512727 69.12 
L 421.905455 69.12 
L 418.298182 69.12 
L 414.690909 69.12 
L 411.083636 69.12 
L 407.476364 69.12 
L 403.869091 69.12 
L 400.261818 69.12 
L 396.654545 69.12 
L 393.047273 69.12 
L 389.44 69.12 
L 388.62556 69.12 
L 389.44 69.706202 
L 393.047273 72.30251 
L 394.728714 73.512727 
L 396.654545 74.898866 
L 400.261818 77.495219 
L 400.831786 77.905455 
L 403.869091 80.091569 
L 406.934875 82.298182 
L 407.476364 82.687919 
L 411.083636 85.284272 
L 413.03793 86.690909 
L 414.690909 87.880657 
L 418.298182 90.476976 
L 419.141053 91.083636 
L 421.905455 93.073317 
L 425.244145 95.476364 
z
" style="fill:#97b8ff;"/>
   </g>
   <g id="PathCollection_4">
    <path clip-path="url(#p436197f3a5)" d="M 133.323636 504 
L 136.930909 504 
L 140.538182 504 
L 144.145455 504 
L 147.752727 504 
L 151.36 504 
L 154.967273 504 
L 158.574545 504 
L 162.181818 504 
L 165.789091 504 
L 169.396364 504 
L 173.003636 504 
L 176.610909 504 
L 179.965725 504 
L 177.13837 499.607273 
L 176.610909 498.787771 
L 174.311075 495.214545 
L 173.003636 493.18322 
L 171.483734 490.821818 
L 169.396364 487.578728 
L 168.656408 486.429091 
L 165.82908 482.036364 
L 165.789091 481.974233 
L 163.00178 477.643636 
L 162.181818 476.3697 
L 160.174436 473.250909 
L 158.574545 470.765206 
L 157.347108 468.858182 
L 154.967273 465.160696 
L 154.519788 464.465455 
L 151.692439 460.072727 
L 151.36 459.556227 
L 148.865148 455.68 
L 147.752727 453.951675 
L 146.0378 451.287273 
L 144.145455 448.347187 
L 143.210487 446.894545 
L 140.538182 442.742663 
L 140.383164 442.501818 
L 137.555846 438.109091 
L 136.930909 437.138143 
L 134.728528 433.716364 
L 133.323636 431.533649 
L 131.901174 429.323636 
L 129.716364 425.929134 
L 129.073871 424.930909 
L 126.246538 420.538182 
L 126.109091 420.324633 
L 123.41922 416.145455 
L 122.501818 414.720112 
L 120.591902 411.752727 
L 118.894545 409.115606 
L 117.764567 407.36 
L 115.287273 403.51112 
L 114.937232 402.967273 
L 112.109911 398.574545 
L 111.68 397.906602 
L 109.282595 394.181818 
L 108.072727 389.923662 
L 108.045085 389.789091 
L 107.449355 385.396364 
L 106.853634 381.003636 
L 106.257896 376.610909 
L 105.66217 372.218182 
L 105.066447 367.825455 
L 104.470719 363.432727 
L 104.465455 363.393908 
L 103.874994 359.04 
L 103.279259 354.647273 
L 102.683543 350.254545 
L 102.087822 345.861818 
L 101.492102 341.469091 
L 100.896366 337.076364 
L 100.858182 336.794808 
L 100.300626 332.683636 
L 99.865162 328.290909 
L 100.858182 324.035317 
L 100.890182 323.898182 
L 101.915193 319.505455 
L 102.940237 315.112727 
L 103.965243 310.72 
L 104.465455 308.576349 
L 104.99027 306.327273 
L 106.015283 301.934545 
L 107.040309 297.541818 
L 108.065328 293.149091 
L 108.072727 293.117382 
L 109.090363 288.756364 
L 110.11539 284.363636 
L 111.140411 279.970909 
L 111.68 277.658517 
L 112.165439 275.578182 
L 113.190467 271.185455 
L 114.215479 266.792727 
L 115.240498 262.4 
L 115.287273 262.199553 
L 116.265538 258.007273 
L 117.290554 253.614545 
L 118.31558 249.221818 
L 118.894545 246.740656 
L 119.340599 244.829091 
L 120.36563 240.436364 
L 121.390641 236.043636 
L 122.415669 231.650909 
L 122.501818 231.281718 
L 123.440696 227.258182 
L 124.465725 222.865455 
L 125.490748 218.472727 
L 126.109091 215.822791 
L 126.51576 214.08 
L 127.540793 209.687273 
L 128.565811 205.294545 
L 129.590839 200.901818 
L 129.716364 200.363873 
L 130.615849 196.509091 
L 131.640883 192.116364 
L 132.665918 187.723636 
L 133.323636 184.512527 
L 133.568022 183.330909 
L 134.430085 178.938182 
L 135.29215 174.545455 
L 136.463737 170.152727 
L 136.930909 169.352484 
L 139.716806 165.76 
L 140.538182 164.70081 
L 143.123258 161.367273 
L 144.145455 160.049118 
L 146.52971 156.974545 
L 147.752727 155.397442 
L 149.936197 152.581818 
L 151.36 150.745779 
L 153.342668 148.189091 
L 154.967273 146.094121 
L 156.749126 143.796364 
L 158.574545 141.442439 
L 160.155602 139.403636 
L 162.181818 136.790779 
L 163.562063 135.010909 
L 165.789091 132.626352 
L 169.396364 130.687 
L 169.53976 130.618182 
L 173.003636 128.955808 
L 176.610909 127.224586 
L 178.692803 126.225455 
L 180.218182 125.493403 
L 183.825455 123.762197 
L 187.432727 122.030971 
L 187.845806 121.832727 
L 191.04 120.299779 
L 194.647273 118.568553 
L 196.99883 117.44 
L 198.254545 116.83736 
L 201.861818 115.106134 
L 205.469091 113.374943 
L 206.15184 113.047273 
L 209.076364 111.643727 
L 212.683636 109.912536 
L 215.304886 108.654545 
L 216.290909 108.181331 
L 219.898182 106.450131 
L 223.505455 104.718913 
L 224.4579 104.261818 
L 227.112727 102.987716 
L 230.72 101.256495 
L 233.610923 99.869091 
L 234.327273 99.525302 
L 237.934545 97.794076 
L 241.541818 96.062884 
L 242.763934 95.476364 
L 245.149091 94.33167 
L 248.756364 92.600455 
L 251.916934 91.083636 
L 252.363636 90.869256 
L 255.970909 89.138038 
L 259.578182 87.406855 
L 261.069964 86.690909 
L 263.185455 85.675629 
L 266.792727 83.944426 
L 270.222948 82.298182 
L 270.4 82.213211 
L 274.007273 80.482018 
L 277.614545 78.750806 
L 280.52503 77.905455 
L 281.221818 77.679478 
L 283.370604 77.905455 
L 284.829091 78.058836 
L 288.436364 78.438191 
L 292.043636 78.817547 
L 295.650909 79.196871 
L 299.258182 79.576228 
L 302.865455 79.955577 
L 306.472727 80.334933 
L 310.08 80.714275 
L 313.687273 81.093634 
L 317.294545 81.472963 
L 320.901818 81.852318 
L 324.509091 82.231656 
L 324.629016 82.298182 
L 328.116364 84.617636 
L 330.99688 86.690909 
L 331.723636 87.213994 
L 335.330909 89.810319 
L 337.100026 91.083636 
L 338.938182 92.406658 
L 342.545455 95.003052 
L 343.203052 95.476364 
L 346.152727 97.599385 
L 349.306204 99.869091 
L 349.76 100.195715 
L 353.367273 102.792087 
L 355.409244 104.261818 
L 356.974545 105.388455 
L 360.581818 107.98479 
L 361.512343 108.654545 
L 364.189091 110.581145 
L 367.615471 113.047273 
L 367.796364 113.177471 
L 371.403636 115.773823 
L 373.71854 117.44 
L 375.010909 118.370192 
L 378.618182 120.966571 
L 379.821608 121.832727 
L 382.225455 123.525669 
L 385.832727 126.004332 
L 386.159738 126.225455 
L 389.44 128.366298 
L 392.890338 130.618182 
L 393.047273 130.720605 
L 396.654545 133.074862 
L 399.620971 135.010909 
L 400.261818 135.429156 
L 403.869091 137.78339 
L 406.351668 139.403636 
L 407.476364 140.394564 
L 409.763803 143.796364 
L 411.083636 146.918579 
L 411.620706 148.189091 
L 413.477588 152.581818 
L 414.690909 155.452083 
L 415.334486 156.974545 
L 417.191392 161.367273 
L 418.298182 163.985524 
L 419.048282 165.76 
L 420.905175 170.152727 
L 421.905455 172.519025 
L 422.76206 174.545455 
L 424.618968 178.938182 
L 425.512727 181.052482 
L 426.475857 183.330909 
L 428.332736 187.723636 
L 429.12 189.58599 
L 429.12 187.723636 
L 429.12 183.330909 
L 429.12 178.938182 
L 429.12 174.545455 
L 429.12 170.152727 
L 429.12 165.76 
L 429.12 161.367273 
L 429.12 156.974545 
L 429.12 152.581818 
L 429.12 148.189091 
L 429.12 143.796364 
L 429.12 139.403636 
L 429.12 135.010909 
L 429.12 130.618182 
L 429.12 126.225455 
L 429.12 121.832727 
L 429.12 117.44 
L 429.12 113.047273 
L 429.12 108.654545 
L 429.12 104.261818 
L 429.12 99.869091 
L 429.12 98.266024 
L 425.512727 95.669679 
L 425.244145 95.476364 
L 421.905455 93.073317 
L 419.141053 91.083636 
L 418.298182 90.476976 
L 414.690909 87.880657 
L 413.03793 86.690909 
L 411.083636 85.284272 
L 407.476364 82.687919 
L 406.934875 82.298182 
L 403.869091 80.091569 
L 400.831786 77.905455 
L 400.261818 77.495219 
L 396.654545 74.898866 
L 394.728714 73.512727 
L 393.047273 72.30251 
L 389.44 69.706202 
L 388.62556 69.12 
L 385.832727 69.12 
L 382.225455 69.12 
L 378.618182 69.12 
L 375.010909 69.12 
L 371.403636 69.12 
L 367.796364 69.12 
L 364.189091 69.12 
L 360.581818 69.12 
L 356.974545 69.12 
L 353.367273 69.12 
L 349.76 69.12 
L 346.152727 69.12 
L 342.545455 69.12 
L 338.938182 69.12 
L 335.330909 69.12 
L 331.723636 69.12 
L 328.116364 69.12 
L 324.509091 69.12 
L 320.901818 69.12 
L 317.294545 69.12 
L 313.687273 69.12 
L 310.08 69.12 
L 306.472727 69.12 
L 302.865455 69.12 
L 299.258182 69.12 
L 295.650909 69.12 
L 292.043636 69.12 
L 288.436364 69.12 
L 284.829091 69.12 
L 281.221818 69.12 
L 277.614545 69.12 
L 274.007273 69.12 
L 270.4 69.12 
L 266.792727 69.12 
L 263.185455 69.12 
L 259.578182 69.12 
L 255.970909 69.12 
L 252.363636 69.12 
L 248.756364 69.12 
L 245.149091 69.12 
L 241.541818 69.12 
L 237.934545 69.12 
L 234.327273 69.12 
L 230.72 69.12 
L 227.112727 69.12 
L 223.505455 69.12 
L 219.898182 69.12 
L 216.290909 69.12 
L 212.683636 69.12 
L 209.076364 69.12 
L 205.774564 69.12 
L 205.469091 69.266604 
L 201.861818 70.9978 
L 198.254545 72.729006 
L 196.621512 73.512727 
L 194.647273 74.460202 
L 191.04 76.191425 
L 187.468489 77.905455 
L 187.432727 77.922617 
L 183.825455 79.653843 
L 180.218182 81.385035 
L 178.315502 82.298182 
L 176.610909 83.116261 
L 173.003636 84.847454 
L 169.396364 86.578663 
L 169.162479 86.690909 
L 165.789091 88.309872 
L 162.181818 90.041081 
L 160.009475 91.083636 
L 158.574545 91.77229 
L 154.967273 93.503483 
L 151.36 95.234709 
L 150.856466 95.476364 
L 147.752727 97.008961 
L 144.856422 99.869091 
L 144.145455 100.785906 
L 141.449971 104.261818 
L 140.538182 105.437581 
L 138.04348 108.654545 
L 136.930909 110.08924 
L 134.637006 113.047273 
L 133.323636 114.740905 
L 131.230566 117.44 
L 129.716364 119.392602 
L 127.824088 121.832727 
L 126.109091 124.04426 
L 124.417621 126.225455 
L 122.501818 128.695919 
L 121.011136 130.618182 
L 118.894545 133.347566 
L 117.604663 135.010909 
L 115.287273 137.999258 
L 114.198206 139.403636 
L 111.68 142.650944 
L 110.8656 143.796364 
L 109.277777 148.189091 
L 108.415712 152.581818 
L 108.072727 154.329525 
L 107.553647 156.974545 
L 106.691582 161.367273 
L 105.829516 165.76 
L 104.967475 170.152727 
L 104.465455 172.710817 
L 104.10541 174.545455 
L 103.243337 178.938182 
L 102.381294 183.330909 
L 101.519234 187.723636 
L 100.858182 191.092109 
L 100.657174 192.116364 
L 99.730153 196.509091 
L 98.705122 200.901818 
L 97.680092 205.294545 
L 97.250909 207.133807 
L 96.65507 209.687273 
L 95.630046 214.08 
L 94.60503 218.472727 
L 93.643636 222.592799 
L 93.580013 222.865455 
L 92.554979 227.258182 
L 91.529955 231.650909 
L 90.504924 236.043636 
L 90.036364 238.051664 
L 89.479913 240.436364 
L 88.454876 244.829091 
L 87.429863 249.221818 
L 86.429091 253.510634 
L 86.404844 253.614545 
L 85.379809 258.007273 
L 84.354793 262.4 
L 83.329764 266.792727 
L 82.821818 268.969525 
L 82.304743 271.185455 
L 81.279724 275.578182 
L 80.254684 279.970909 
L 79.229673 284.363636 
L 79.214545 284.428467 
L 78.204639 288.756364 
L 77.179623 293.149091 
L 76.154594 297.541818 
L 75.607273 299.88736 
L 75.129573 301.934545 
L 74.104535 306.327273 
L 73.079531 310.72 
L 72.054503 315.112727 
L 72 315.346299 
L 72 319.505455 
L 72 323.898182 
L 72 328.290909 
L 72 332.683636 
L 72 337.076364 
L 72 341.469091 
L 72 345.861818 
L 72 350.254545 
L 72 354.647273 
L 72 359.04 
L 72 363.432727 
L 72 367.825455 
L 72 372.218182 
L 72 374.036395 
L 72.349133 376.610909 
L 72.94485 381.003636 
L 73.540587 385.396364 
L 74.13631 389.789091 
L 74.732049 394.181818 
L 75.32777 398.574545 
L 75.607273 400.635472 
L 75.92351 402.967273 
L 76.519232 407.36 
L 77.114966 411.752727 
L 77.710688 416.145455 
L 79.214545 420.281973 
L 79.343386 420.538182 
L 82.170726 424.930909 
L 82.821818 425.942498 
L 84.998052 429.323636 
L 86.429091 431.546992 
L 87.82537 433.716364 
L 90.036364 437.151542 
L 90.65268 438.109091 
L 93.480031 442.501818 
L 93.643636 442.756008 
L 96.307349 446.894545 
L 97.250909 448.36053 
L 99.134685 451.287273 
L 100.858182 453.96503 
L 101.961985 455.68 
L 104.465455 459.569549 
L 104.789319 460.072727 
L 107.616623 464.465455 
L 108.072727 465.174086 
L 110.443963 468.858182 
L 111.68 470.778589 
L 113.271282 473.250909 
L 115.287273 476.383083 
L 116.09861 477.643636 
L 118.894545 481.987577 
L 118.925946 482.036364 
L 121.753254 486.429091 
L 122.501818 487.592112 
L 124.5806 490.821818 
L 126.109091 493.196593 
L 127.407905 495.214545 
L 129.716364 498.801125 
L 130.235236 499.607273 
L 133.062589 504 
z
" style="fill:#bcd2f7;"/>
    <path clip-path="url(#p436197f3a5)" d="M 364.189091 504 
L 367.796364 504 
L 371.403636 504 
L 375.010909 504 
L 378.618182 504 
L 382.225455 504 
L 385.832727 504 
L 389.44 504 
L 393.047273 504 
L 396.654545 504 
L 400.261818 504 
L 403.869091 504 
L 407.476364 504 
L 411.083636 504 
L 414.690909 504 
L 418.298182 504 
L 421.905455 504 
L 425.512727 504 
L 429.12 504 
L 429.12 499.607273 
L 429.12 495.214545 
L 429.12 490.821818 
L 429.12 486.429091 
L 429.12 482.036364 
L 429.12 477.643636 
L 429.12 473.250909 
L 429.12 468.858182 
L 429.12 464.465455 
L 429.12 460.072727 
L 429.12 455.68 
L 429.12 451.287273 
L 429.12 446.894545 
L 429.12 442.501818 
L 429.12 438.109091 
L 429.12 433.716364 
L 429.12 429.323636 
L 429.12 424.930909 
L 429.12 420.538182 
L 429.12 416.145455 
L 429.12 411.752727 
L 429.12 407.36 
L 429.12 402.967273 
L 429.12 402.872161 
L 429.107225 402.967273 
L 428.517191 407.36 
L 427.927157 411.752727 
L 427.337147 416.145455 
L 426.747122 420.538182 
L 426.157087 424.930909 
L 425.567087 429.323636 
L 425.512727 429.728334 
L 424.977052 433.716364 
L 424.387018 438.109091 
L 423.796993 442.501818 
L 423.206983 446.894545 
L 421.905455 450.169503 
L 421.098703 451.287273 
L 418.298182 453.875849 
L 416.346328 455.68 
L 414.690909 457.210158 
L 411.593981 460.072727 
L 411.083636 460.544455 
L 407.476364 463.87879 
L 406.84167 464.465455 
L 403.869091 467.213056 
L 402.089259 468.858182 
L 400.261818 470.547314 
L 397.336898 473.250909 
L 396.654545 473.881629 
L 393.047273 477.215943 
L 392.584563 477.643636 
L 389.44 480.550211 
L 387.832189 482.036364 
L 385.832727 483.884521 
L 383.079815 486.429091 
L 382.225455 487.218808 
L 378.618182 490.553117 
L 378.327482 490.821818 
L 375.010909 493.887423 
L 373.575129 495.214545 
L 371.403636 497.221703 
L 368.822792 499.607273 
L 367.796364 500.556027 
L 364.189091 503.890319 
L 363.831016 504 
z
" style="fill:#bcd2f7;"/>
   </g>
   <g id="PathCollection_5">
    <path clip-path="url(#p436197f3a5)" d="M 180.218182 504 
L 183.825455 504 
L 187.432727 504 
L 191.04 504 
L 194.647273 504 
L 198.254545 504 
L 201.861818 504 
L 205.469091 504 
L 209.076364 504 
L 212.683636 504 
L 216.290909 504 
L 219.898182 504 
L 223.505455 504 
L 227.112727 504 
L 230.72 504 
L 234.327273 504 
L 237.934545 504 
L 241.541818 504 
L 245.149091 504 
L 248.756364 504 
L 252.363636 504 
L 255.970909 504 
L 259.578182 504 
L 263.185455 504 
L 266.792727 504 
L 270.4 504 
L 274.007273 504 
L 277.614545 504 
L 281.221818 504 
L 284.829091 504 
L 288.436364 504 
L 292.043636 504 
L 295.650909 504 
L 299.258182 504 
L 302.865455 504 
L 306.472727 504 
L 310.08 504 
L 313.687273 504 
L 317.294545 504 
L 320.901818 504 
L 324.509091 504 
L 328.116364 504 
L 331.723636 504 
L 335.330909 504 
L 338.938182 504 
L 342.545455 504 
L 346.152727 504 
L 349.76 504 
L 353.367273 504 
L 356.974545 504 
L 360.581818 504 
L 363.831016 504 
L 364.189091 503.890319 
L 367.796364 500.556027 
L 368.822792 499.607273 
L 371.403636 497.221703 
L 373.575129 495.214545 
L 375.010909 493.887423 
L 378.327482 490.821818 
L 378.618182 490.553117 
L 382.225455 487.218808 
L 383.079815 486.429091 
L 385.832727 483.884521 
L 387.832189 482.036364 
L 389.44 480.550211 
L 392.584563 477.643636 
L 393.047273 477.215943 
L 396.654545 473.881629 
L 397.336898 473.250909 
L 400.261818 470.547314 
L 402.089259 468.858182 
L 403.869091 467.213056 
L 406.84167 464.465455 
L 407.476364 463.87879 
L 411.083636 460.544455 
L 411.593981 460.072727 
L 414.690909 457.210158 
L 416.346328 455.68 
L 418.298182 453.875849 
L 421.098703 451.287273 
L 421.905455 450.169503 
L 423.206983 446.894545 
L 423.796993 442.501818 
L 424.387018 438.109091 
L 424.977052 433.716364 
L 425.512727 429.728334 
L 425.567087 429.323636 
L 426.157087 424.930909 
L 426.747122 420.538182 
L 427.337147 416.145455 
L 427.927157 411.752727 
L 428.517191 407.36 
L 429.107225 402.967273 
L 429.12 402.872161 
L 429.12 398.574545 
L 429.12 394.181818 
L 429.12 389.789091 
L 429.12 385.396364 
L 429.12 381.003636 
L 429.12 376.610909 
L 429.12 372.218182 
L 429.12 367.825455 
L 429.12 363.432727 
L 429.12 359.04 
L 429.12 354.647273 
L 429.12 350.254545 
L 429.12 345.861818 
L 429.12 341.469091 
L 429.12 337.076364 
L 429.12 332.683636 
L 429.12 328.290909 
L 429.12 323.898182 
L 429.12 319.505455 
L 429.12 315.112727 
L 429.12 310.72 
L 429.12 306.327273 
L 429.12 301.934545 
L 429.12 297.541818 
L 429.12 293.149091 
L 429.12 288.756364 
L 429.12 284.363636 
L 429.12 279.970909 
L 429.12 275.578182 
L 429.12 271.185455 
L 429.12 266.792727 
L 429.12 262.4 
L 429.12 258.007273 
L 429.12 253.614545 
L 429.12 249.221818 
L 429.12 244.829091 
L 429.12 240.436364 
L 429.12 236.043636 
L 429.12 231.650909 
L 429.12 227.258182 
L 429.12 222.865455 
L 429.12 218.472727 
L 429.12 214.08 
L 429.12 209.687273 
L 429.12 205.294545 
L 429.12 200.901818 
L 429.12 196.509091 
L 429.12 192.116364 
L 429.12 189.58599 
L 428.332736 187.723636 
L 426.475857 183.330909 
L 425.512727 181.052482 
L 424.618968 178.938182 
L 422.76206 174.545455 
L 421.905455 172.519025 
L 420.905175 170.152727 
L 419.048282 165.76 
L 418.298182 163.985524 
L 417.191392 161.367273 
L 415.334486 156.974545 
L 414.690909 155.452083 
L 413.477588 152.581818 
L 411.620706 148.189091 
L 411.083636 146.918579 
L 409.763803 143.796364 
L 407.476364 140.394564 
L 406.351668 139.403636 
L 403.869091 137.78339 
L 400.261818 135.429156 
L 399.620971 135.010909 
L 396.654545 133.074862 
L 393.047273 130.720605 
L 392.890338 130.618182 
L 389.44 128.366298 
L 386.159738 126.225455 
L 385.832727 126.004332 
L 382.225455 123.525669 
L 379.821608 121.832727 
L 378.618182 120.966571 
L 375.010909 118.370192 
L 373.71854 117.44 
L 371.403636 115.773823 
L 367.796364 113.177471 
L 367.615471 113.047273 
L 364.189091 110.581145 
L 361.512343 108.654545 
L 360.581818 107.98479 
L 356.974545 105.388455 
L 355.409244 104.261818 
L 353.367273 102.792087 
L 349.76 100.195715 
L 349.306204 99.869091 
L 346.152727 97.599385 
L 343.203052 95.476364 
L 342.545455 95.003052 
L 338.938182 92.406658 
L 337.100026 91.083636 
L 335.330909 89.810319 
L 331.723636 87.213994 
L 330.99688 86.690909 
L 328.116364 84.617636 
L 324.629016 82.298182 
L 324.509091 82.231656 
L 320.901818 81.852318 
L 317.294545 81.472963 
L 313.687273 81.093634 
L 310.08 80.714275 
L 306.472727 80.334933 
L 302.865455 79.955577 
L 299.258182 79.576228 
L 295.650909 79.196871 
L 292.043636 78.817547 
L 288.436364 78.438191 
L 284.829091 78.058836 
L 283.370604 77.905455 
L 281.221818 77.679478 
L 280.52503 77.905455 
L 277.614545 78.750806 
L 274.007273 80.482018 
L 270.4 82.213211 
L 270.222948 82.298182 
L 266.792727 83.944426 
L 263.185455 85.675629 
L 261.069964 86.690909 
L 259.578182 87.406855 
L 255.970909 89.138038 
L 252.363636 90.869256 
L 251.916934 91.083636 
L 248.756364 92.600455 
L 245.149091 94.33167 
L 242.763934 95.476364 
L 241.541818 96.062884 
L 237.934545 97.794076 
L 234.327273 99.525302 
L 233.610923 99.869091 
L 230.72 101.256495 
L 227.112727 102.987716 
L 224.4579 104.261818 
L 223.505455 104.718913 
L 219.898182 106.450131 
L 216.290909 108.181331 
L 215.304886 108.654545 
L 212.683636 109.912536 
L 209.076364 111.643727 
L 206.15184 113.047273 
L 205.469091 113.374943 
L 201.861818 115.106134 
L 198.254545 116.83736 
L 196.99883 117.44 
L 194.647273 118.568553 
L 191.04 120.299779 
L 187.845806 121.832727 
L 187.432727 122.030971 
L 183.825455 123.762197 
L 180.218182 125.493403 
L 178.692803 126.225455 
L 176.610909 127.224586 
L 173.003636 128.955808 
L 169.53976 130.618182 
L 169.396364 130.687 
L 165.789091 132.626352 
L 163.562063 135.010909 
L 162.181818 136.790779 
L 160.155602 139.403636 
L 158.574545 141.442439 
L 156.749126 143.796364 
L 154.967273 146.094121 
L 153.342668 148.189091 
L 151.36 150.745779 
L 149.936197 152.581818 
L 147.752727 155.397442 
L 146.52971 156.974545 
L 144.145455 160.049118 
L 143.123258 161.367273 
L 140.538182 164.70081 
L 139.716806 165.76 
L 136.930909 169.352484 
L 136.463737 170.152727 
L 135.29215 174.545455 
L 134.430085 178.938182 
L 133.568022 183.330909 
L 133.323636 184.512527 
L 132.665918 187.723636 
L 131.640883 192.116364 
L 130.615849 196.509091 
L 129.716364 200.363873 
L 129.590839 200.901818 
L 128.565811 205.294545 
L 127.540793 209.687273 
L 126.51576 214.08 
L 126.109091 215.822791 
L 125.490748 218.472727 
L 124.465725 222.865455 
L 123.440696 227.258182 
L 122.501818 231.281718 
L 122.415669 231.650909 
L 121.390641 236.043636 
L 120.36563 240.436364 
L 119.340599 244.829091 
L 118.894545 246.740656 
L 118.31558 249.221818 
L 117.290554 253.614545 
L 116.265538 258.007273 
L 115.287273 262.199553 
L 115.240498 262.4 
L 114.215479 266.792727 
L 113.190467 271.185455 
L 112.165439 275.578182 
L 111.68 277.658517 
L 111.140411 279.970909 
L 110.11539 284.363636 
L 109.090363 288.756364 
L 108.072727 293.117382 
L 108.065328 293.149091 
L 107.040309 297.541818 
L 106.015283 301.934545 
L 104.99027 306.327273 
L 104.465455 308.576349 
L 103.965243 310.72 
L 102.940237 315.112727 
L 101.915193 319.505455 
L 100.890182 323.898182 
L 100.858182 324.035317 
L 99.865162 328.290909 
L 100.300626 332.683636 
L 100.858182 336.794808 
L 100.896366 337.076364 
L 101.492102 341.469091 
L 102.087822 345.861818 
L 102.683543 350.254545 
L 103.279259 354.647273 
L 103.874994 359.04 
L 104.465455 363.393908 
L 104.470719 363.432727 
L 105.066447 367.825455 
L 105.66217 372.218182 
L 106.257896 376.610909 
L 106.853634 381.003636 
L 107.449355 385.396364 
L 108.045085 389.789091 
L 108.072727 389.923662 
L 109.282595 394.181818 
L 111.68 397.906602 
L 112.109911 398.574545 
L 114.937232 402.967273 
L 115.287273 403.51112 
L 117.764567 407.36 
L 118.894545 409.115606 
L 120.591902 411.752727 
L 122.501818 414.720112 
L 123.41922 416.145455 
L 126.109091 420.324633 
L 126.246538 420.538182 
L 129.073871 424.930909 
L 129.716364 425.929134 
L 131.901174 429.323636 
L 133.323636 431.533649 
L 134.728528 433.716364 
L 136.930909 437.138143 
L 137.555846 438.109091 
L 140.383164 442.501818 
L 140.538182 442.742663 
L 143.210487 446.894545 
L 144.145455 448.347187 
L 146.0378 451.287273 
L 147.752727 453.951675 
L 148.865148 455.68 
L 151.36 459.556227 
L 151.692439 460.072727 
L 154.519788 464.465455 
L 154.967273 465.160696 
L 157.347108 468.858182 
L 158.574545 470.765206 
L 160.174436 473.250909 
L 162.181818 476.3697 
L 163.00178 477.643636 
L 165.789091 481.974233 
L 165.82908 482.036364 
L 168.656408 486.429091 
L 169.396364 487.578728 
L 171.483734 490.821818 
L 173.003636 493.18322 
L 174.311075 495.214545 
L 176.610909 498.787771 
L 177.13837 499.607273 
L 179.965725 504 
z
M 205.584884 464.465455 
L 205.469091 464.389126 
L 201.861818 462.011293 
L 198.920906 460.072727 
L 198.254545 459.527762 
L 195.76827 455.68 
L 194.647273 453.938332 
L 192.940956 451.287273 
L 191.04 448.333834 
L 190.11362 446.894545 
L 187.432727 442.729281 
L 187.286324 442.501818 
L 184.45898 438.109091 
L 183.825455 437.124797 
L 181.631665 433.716364 
L 180.218182 431.520292 
L 178.804333 429.323636 
L 176.610909 425.915778 
L 175.97701 424.930909 
L 173.149681 420.538182 
L 173.003636 420.311277 
L 170.322367 416.145455 
L 169.396364 414.70674 
L 167.495045 411.752727 
L 165.789091 409.102263 
L 164.6677 407.36 
L 162.181818 403.49774 
L 161.840392 402.967273 
L 159.013046 398.574545 
L 158.574545 397.893256 
L 156.185743 394.181818 
L 154.967273 392.288727 
L 153.358405 389.789091 
L 151.36 386.684215 
L 150.531094 385.396364 
L 147.752727 381.079693 
L 147.703774 381.003636 
L 144.876437 376.610909 
L 144.145455 375.475199 
L 142.04912 372.218182 
L 140.538182 369.870692 
L 139.392318 367.825455 
L 138.379498 363.432727 
L 137.783768 359.04 
L 137.188035 354.647273 
L 136.930909 352.751267 
L 136.592318 350.254545 
L 135.996577 345.861818 
L 135.400858 341.469091 
L 134.805136 337.076364 
L 134.209404 332.683636 
L 133.613669 328.290909 
L 133.323636 326.152298 
L 133.01794 323.898182 
L 132.800919 319.505455 
L 133.323636 317.26534 
L 133.825939 315.112727 
L 134.850968 310.72 
L 135.875987 306.327273 
L 136.901007 301.934545 
L 136.930909 301.806398 
L 137.926033 297.541818 
L 138.951057 293.149091 
L 139.976087 288.756364 
L 140.538182 286.347478 
L 141.001097 284.363636 
L 142.026133 279.970909 
L 143.051157 275.578182 
L 144.076188 271.185455 
L 144.145455 270.888614 
L 145.101206 266.792727 
L 146.126227 262.4 
L 147.151253 258.007273 
L 147.752727 255.429661 
L 148.176276 253.614545 
L 149.201292 249.221818 
L 150.226312 244.829091 
L 151.251347 240.436364 
L 151.36 239.970727 
L 152.276363 236.043636 
L 153.301385 231.650909 
L 154.326415 227.258182 
L 154.967273 224.511755 
L 155.351424 222.865455 
L 156.376455 218.472727 
L 157.401482 214.08 
L 158.426505 209.687273 
L 158.574545 209.052845 
L 159.451524 205.294545 
L 160.476553 200.901818 
L 161.501575 196.509091 
L 162.181818 195.17304 
L 164.464774 192.116364 
L 165.789091 190.504684 
L 168.074271 187.723636 
L 169.396364 186.114655 
L 171.68375 183.330909 
L 173.003636 181.724625 
L 175.293256 178.938182 
L 176.610909 177.301341 
L 178.861251 174.545455 
L 180.218182 172.795654 
L 182.267722 170.152727 
L 183.825455 168.331285 
L 187.432727 166.139332 
L 188.22313 165.76 
L 191.04 164.408121 
L 194.647273 162.676932 
L 197.37616 161.367273 
L 198.254545 160.945714 
L 201.861818 159.214506 
L 205.469091 157.483304 
L 206.529183 156.974545 
L 209.076364 155.752099 
L 212.683636 154.020889 
L 215.682185 152.581818 
L 216.290909 152.289677 
L 219.898182 150.558476 
L 223.505455 148.827267 
L 224.835204 148.189091 
L 227.112727 147.096056 
L 230.72 145.364862 
L 233.988212 143.796364 
L 234.327273 143.633639 
L 237.934545 141.902438 
L 241.541818 140.171223 
L 243.141229 139.403636 
L 245.149091 138.440027 
L 248.756364 136.708806 
L 252.294235 135.010909 
L 252.363636 134.977602 
L 255.970909 133.246395 
L 259.578182 131.515201 
L 261.447257 130.618182 
L 263.185455 129.783976 
L 266.792727 128.052791 
L 270.4 126.321573 
L 272.794022 126.225455 
L 274.007273 126.171065 
L 274.52446 126.225455 
L 277.614545 126.550419 
L 281.221818 126.929761 
L 284.829091 127.309114 
L 288.436364 127.688451 
L 292.043636 128.067807 
L 295.650909 128.447144 
L 299.258182 128.826499 
L 302.865455 129.205852 
L 306.472727 129.585183 
L 309.894544 130.618182 
L 310.08 130.685308 
L 313.687273 133.281637 
L 316.089837 135.010909 
L 317.294545 135.878007 
L 320.901818 138.474328 
L 322.199898 139.403636 
L 324.509091 140.942136 
L 328.116364 143.296399 
L 328.882413 143.796364 
L 331.723636 145.650693 
L 335.330909 148.004953 
L 335.613048 148.189091 
L 338.938182 150.35923 
L 342.343679 152.581818 
L 342.545455 152.713507 
L 346.152727 155.067772 
L 349.07434 156.974545 
L 349.76 157.42204 
L 353.367273 159.776323 
L 355.804942 161.367273 
L 356.974545 162.130611 
L 360.581818 164.484871 
L 362.535598 165.76 
L 364.189091 166.839142 
L 367.796364 169.193408 
L 369.26624 170.152727 
L 371.403636 172.181623 
L 372.878967 174.545455 
L 374.735867 178.938182 
L 375.010909 179.588833 
L 376.592755 183.330909 
L 378.449653 187.723636 
L 378.618182 188.122312 
L 380.30656 192.116364 
L 382.163439 196.509091 
L 382.225455 196.655796 
L 384.020338 200.901818 
L 385.832727 205.189277 
L 385.877227 205.294545 
L 387.73413 209.687273 
L 389.44 213.722755 
L 389.591013 214.08 
L 391.447912 218.472727 
L 393.047273 222.256237 
L 393.304801 222.865455 
L 395.161697 227.258182 
L 396.654545 230.789722 
L 397.018586 231.650909 
L 398.875474 236.043636 
L 400.261818 239.323225 
L 400.732368 240.436364 
L 402.589279 244.829091 
L 403.869091 247.856655 
L 404.446167 249.221818 
L 405.56351 253.614545 
L 404.973473 258.007273 
L 404.383457 262.4 
L 403.869091 266.229503 
L 403.79344 266.792727 
L 403.203415 271.185455 
L 402.613372 275.578182 
L 402.023354 279.970909 
L 401.433326 284.363636 
L 400.843304 288.756364 
L 400.261818 293.085561 
L 400.253285 293.149091 
L 399.663254 297.541818 
L 399.073225 301.934545 
L 398.483207 306.327273 
L 397.893179 310.72 
L 397.303176 315.112727 
L 396.713138 319.505455 
L 396.654545 319.941675 
L 396.123112 323.898182 
L 395.533106 328.290909 
L 394.943077 332.683636 
L 394.353043 337.076364 
L 393.763019 341.469091 
L 393.173008 345.861818 
L 393.047273 346.797911 
L 392.582982 350.254545 
L 391.992968 354.647273 
L 391.402919 359.04 
L 390.812904 363.432727 
L 390.222873 367.825455 
L 389.632844 372.218182 
L 389.44 373.653941 
L 389.042834 376.610909 
L 388.452805 381.003636 
L 387.862778 385.396364 
L 387.272769 389.789091 
L 386.682735 394.181818 
L 386.092714 398.574545 
L 385.832727 400.510164 
L 385.502695 402.967273 
L 384.912668 407.36 
L 383.928925 411.752727 
L 382.225455 414.020929 
L 379.92701 416.145455 
L 378.618182 417.355247 
L 375.17467 420.538182 
L 375.010909 420.68955 
L 371.403636 424.023838 
L 370.422301 424.930909 
L 367.796364 427.358124 
L 365.66993 429.323636 
L 364.189091 430.692411 
L 360.917587 433.716364 
L 360.581818 434.026725 
L 356.974545 437.361 
L 356.165208 438.109091 
L 353.367273 440.695307 
L 351.412872 442.501818 
L 349.76 444.029613 
L 346.660508 446.894545 
L 346.152727 447.363902 
L 342.545455 450.69821 
L 341.908168 451.287273 
L 338.938182 454.032492 
L 335.330909 455.578113 
L 334.203296 455.68 
L 331.723636 455.902873 
L 328.116364 456.227097 
L 324.509091 456.551322 
L 320.901818 456.87555 
L 317.294545 457.199773 
L 313.687273 457.523984 
L 310.08 457.848203 
L 306.472727 458.172428 
L 302.865455 458.496666 
L 299.258182 458.820883 
L 295.650909 459.145106 
L 292.043636 459.469327 
L 288.436364 459.793552 
L 285.330113 460.072727 
L 284.829091 460.117757 
L 281.221818 460.442001 
L 277.614545 460.766223 
L 274.007273 461.090427 
L 270.4 461.41465 
L 266.792727 461.738893 
L 263.185455 462.063106 
L 259.578182 462.38733 
L 255.970909 462.711559 
L 252.363636 463.035776 
L 248.756364 463.36 
L 245.149091 463.684215 
L 241.541818 464.008438 
L 237.934545 464.33266 
L 236.457178 464.465455 
L 234.327273 464.656903 
L 230.72 464.981108 
L 227.112727 465.30533 
L 223.505455 465.629553 
L 219.898182 465.953783 
L 216.290909 466.278 
L 212.683636 466.602223 
L 209.076364 466.711722 
z
" style="fill:#dddcdc;"/>
   </g>
   <g id="PathCollection_6">
    <path clip-path="url(#p436197f3a5)" d="M 209.076364 466.711722 
L 212.683636 466.602223 
L 216.290909 466.278 
L 219.898182 465.953783 
L 223.505455 465.629553 
L 227.112727 465.30533 
L 230.72 464.981108 
L 234.327273 464.656903 
L 236.457178 464.465455 
L 237.934545 464.33266 
L 241.541818 464.008438 
L 245.149091 463.684215 
L 248.756364 463.36 
L 252.363636 463.035776 
L 255.970909 462.711559 
L 259.578182 462.38733 
L 263.185455 462.063106 
L 266.792727 461.738893 
L 270.4 461.41465 
L 274.007273 461.090427 
L 277.614545 460.766223 
L 281.221818 460.442001 
L 284.829091 460.117757 
L 285.330113 460.072727 
L 288.436364 459.793552 
L 292.043636 459.469327 
L 295.650909 459.145106 
L 299.258182 458.820883 
L 302.865455 458.496666 
L 306.472727 458.172428 
L 310.08 457.848203 
L 313.687273 457.523984 
L 317.294545 457.199773 
L 320.901818 456.87555 
L 324.509091 456.551322 
L 328.116364 456.227097 
L 331.723636 455.902873 
L 334.203296 455.68 
L 335.330909 455.578113 
L 338.938182 454.032492 
L 341.908168 451.287273 
L 342.545455 450.69821 
L 346.152727 447.363902 
L 346.660508 446.894545 
L 349.76 444.029613 
L 351.412872 442.501818 
L 353.367273 440.695307 
L 356.165208 438.109091 
L 356.974545 437.361 
L 360.581818 434.026725 
L 360.917587 433.716364 
L 364.189091 430.692411 
L 365.66993 429.323636 
L 367.796364 427.358124 
L 370.422301 424.930909 
L 371.403636 424.023838 
L 375.010909 420.68955 
L 375.17467 420.538182 
L 378.618182 417.355247 
L 379.92701 416.145455 
L 382.225455 414.020929 
L 383.928925 411.752727 
L 384.912668 407.36 
L 385.502695 402.967273 
L 385.832727 400.510164 
L 386.092714 398.574545 
L 386.682735 394.181818 
L 387.272769 389.789091 
L 387.862778 385.396364 
L 388.452805 381.003636 
L 389.042834 376.610909 
L 389.44 373.653941 
L 389.632844 372.218182 
L 390.222873 367.825455 
L 390.812904 363.432727 
L 391.402919 359.04 
L 391.992968 354.647273 
L 392.582982 350.254545 
L 393.047273 346.797911 
L 393.173008 345.861818 
L 393.763019 341.469091 
L 394.353043 337.076364 
L 394.943077 332.683636 
L 395.533106 328.290909 
L 396.123112 323.898182 
L 396.654545 319.941675 
L 396.713138 319.505455 
L 397.303176 315.112727 
L 397.893179 310.72 
L 398.483207 306.327273 
L 399.073225 301.934545 
L 399.663254 297.541818 
L 400.253285 293.149091 
L 400.261818 293.085561 
L 400.843304 288.756364 
L 401.433326 284.363636 
L 402.023354 279.970909 
L 402.613372 275.578182 
L 403.203415 271.185455 
L 403.79344 266.792727 
L 403.869091 266.229503 
L 404.383457 262.4 
L 404.973473 258.007273 
L 405.56351 253.614545 
L 404.446167 249.221818 
L 403.869091 247.856655 
L 402.589279 244.829091 
L 400.732368 240.436364 
L 400.261818 239.323225 
L 398.875474 236.043636 
L 397.018586 231.650909 
L 396.654545 230.789722 
L 395.161697 227.258182 
L 393.304801 222.865455 
L 393.047273 222.256237 
L 391.447912 218.472727 
L 389.591013 214.08 
L 389.44 213.722755 
L 387.73413 209.687273 
L 385.877227 205.294545 
L 385.832727 205.189277 
L 384.020338 200.901818 
L 382.225455 196.655796 
L 382.163439 196.509091 
L 380.30656 192.116364 
L 378.618182 188.122312 
L 378.449653 187.723636 
L 376.592755 183.330909 
L 375.010909 179.588833 
L 374.735867 178.938182 
L 372.878967 174.545455 
L 371.403636 172.181623 
L 369.26624 170.152727 
L 367.796364 169.193408 
L 364.189091 166.839142 
L 362.535598 165.76 
L 360.581818 164.484871 
L 356.974545 162.130611 
L 355.804942 161.367273 
L 353.367273 159.776323 
L 349.76 157.42204 
L 349.07434 156.974545 
L 346.152727 155.067772 
L 342.545455 152.713507 
L 342.343679 152.581818 
L 338.938182 150.35923 
L 335.613048 148.189091 
L 335.330909 148.004953 
L 331.723636 145.650693 
L 328.882413 143.796364 
L 328.116364 143.296399 
L 324.509091 140.942136 
L 322.199898 139.403636 
L 320.901818 138.474328 
L 317.294545 135.878007 
L 316.089837 135.010909 
L 313.687273 133.281637 
L 310.08 130.685308 
L 309.894544 130.618182 
L 306.472727 129.585183 
L 302.865455 129.205852 
L 299.258182 128.826499 
L 295.650909 128.447144 
L 292.043636 128.067807 
L 288.436364 127.688451 
L 284.829091 127.309114 
L 281.221818 126.929761 
L 277.614545 126.550419 
L 274.52446 126.225455 
L 274.007273 126.171065 
L 272.794022 126.225455 
L 270.4 126.321573 
L 266.792727 128.052791 
L 263.185455 129.783976 
L 261.447257 130.618182 
L 259.578182 131.515201 
L 255.970909 133.246395 
L 252.363636 134.977602 
L 252.294235 135.010909 
L 248.756364 136.708806 
L 245.149091 138.440027 
L 243.141229 139.403636 
L 241.541818 140.171223 
L 237.934545 141.902438 
L 234.327273 143.633639 
L 233.988212 143.796364 
L 230.72 145.364862 
L 227.112727 147.096056 
L 224.835204 148.189091 
L 223.505455 148.827267 
L 219.898182 150.558476 
L 216.290909 152.289677 
L 215.682185 152.581818 
L 212.683636 154.020889 
L 209.076364 155.752099 
L 206.529183 156.974545 
L 205.469091 157.483304 
L 201.861818 159.214506 
L 198.254545 160.945714 
L 197.37616 161.367273 
L 194.647273 162.676932 
L 191.04 164.408121 
L 188.22313 165.76 
L 187.432727 166.139332 
L 183.825455 168.331285 
L 182.267722 170.152727 
L 180.218182 172.795654 
L 178.861251 174.545455 
L 176.610909 177.301341 
L 175.293256 178.938182 
L 173.003636 181.724625 
L 171.68375 183.330909 
L 169.396364 186.114655 
L 168.074271 187.723636 
L 165.789091 190.504684 
L 164.464774 192.116364 
L 162.181818 195.17304 
L 161.501575 196.509091 
L 160.476553 200.901818 
L 159.451524 205.294545 
L 158.574545 209.052845 
L 158.426505 209.687273 
L 157.401482 214.08 
L 156.376455 218.472727 
L 155.351424 222.865455 
L 154.967273 224.511755 
L 154.326415 227.258182 
L 153.301385 231.650909 
L 152.276363 236.043636 
L 151.36 239.970727 
L 151.251347 240.436364 
L 150.226312 244.829091 
L 149.201292 249.221818 
L 148.176276 253.614545 
L 147.752727 255.429661 
L 147.151253 258.007273 
L 146.126227 262.4 
L 145.101206 266.792727 
L 144.145455 270.888614 
L 144.076188 271.185455 
L 143.051157 275.578182 
L 142.026133 279.970909 
L 141.001097 284.363636 
L 140.538182 286.347478 
L 139.976087 288.756364 
L 138.951057 293.149091 
L 137.926033 297.541818 
L 136.930909 301.806398 
L 136.901007 301.934545 
L 135.875987 306.327273 
L 134.850968 310.72 
L 133.825939 315.112727 
L 133.323636 317.26534 
L 132.800919 319.505455 
L 133.01794 323.898182 
L 133.323636 326.152298 
L 133.613669 328.290909 
L 134.209404 332.683636 
L 134.805136 337.076364 
L 135.400858 341.469091 
L 135.996577 345.861818 
L 136.592318 350.254545 
L 136.930909 352.751267 
L 137.188035 354.647273 
L 137.783768 359.04 
L 138.379498 363.432727 
L 139.392318 367.825455 
L 140.538182 369.870692 
L 142.04912 372.218182 
L 144.145455 375.475199 
L 144.876437 376.610909 
L 147.703774 381.003636 
L 147.752727 381.079693 
L 150.531094 385.396364 
L 151.36 386.684215 
L 153.358405 389.789091 
L 154.967273 392.288727 
L 156.185743 394.181818 
L 158.574545 397.893256 
L 159.013046 398.574545 
L 161.840392 402.967273 
L 162.181818 403.49774 
L 164.6677 407.36 
L 165.789091 409.102263 
L 167.495045 411.752727 
L 169.396364 414.70674 
L 170.322367 416.145455 
L 173.003636 420.311277 
L 173.149681 420.538182 
L 175.97701 424.930909 
L 176.610909 425.915778 
L 178.804333 429.323636 
L 180.218182 431.520292 
L 181.631665 433.716364 
L 183.825455 437.124797 
L 184.45898 438.109091 
L 187.286324 442.501818 
L 187.432727 442.729281 
L 190.11362 446.894545 
L 191.04 448.333834 
L 192.940956 451.287273 
L 194.647273 453.938332 
L 195.76827 455.68 
L 198.254545 459.527762 
L 198.920906 460.072727 
L 201.861818 462.011293 
L 205.469091 464.389126 
L 205.584884 464.465455 
z
M 214.951193 411.752727 
L 212.683636 409.088864 
L 211.570872 407.36 
L 209.076364 403.484364 
L 208.743544 402.967273 
L 205.916224 398.574545 
L 205.469091 397.87985 
L 203.088901 394.181818 
L 201.861818 392.275336 
L 200.261567 389.789091 
L 198.254545 386.670844 
L 197.434246 385.396364 
L 194.647273 381.066322 
L 194.606926 381.003636 
L 191.779599 376.610909 
L 191.04 375.461818 
L 188.952272 372.218182 
L 187.432727 369.857314 
L 186.124952 367.825455 
L 183.825455 364.252805 
L 183.297618 363.432727 
L 180.470317 359.04 
L 180.218182 358.648267 
L 177.64298 354.647273 
L 176.610909 353.043779 
L 174.815655 350.254545 
L 173.003636 347.439265 
L 171.988328 345.861818 
L 169.396364 341.663438 
L 169.309621 341.469091 
L 168.713893 337.076364 
L 168.118167 332.683636 
L 167.522444 328.290909 
L 166.926714 323.898182 
L 166.330989 319.505455 
L 165.789091 315.509695 
L 165.735255 315.112727 
L 165.736685 310.72 
L 165.789091 310.495414 
L 166.76171 306.327273 
L 167.786735 301.934545 
L 168.811754 297.541818 
L 169.396364 295.036471 
L 169.836775 293.149091 
L 170.861802 288.756364 
L 171.886834 284.363636 
L 172.911855 279.970909 
L 173.003636 279.577579 
L 173.936876 275.578182 
L 174.961897 271.185455 
L 175.986924 266.792727 
L 176.610909 264.118636 
L 177.011945 262.4 
L 178.036975 258.007273 
L 179.061994 253.614545 
L 180.087025 249.221818 
L 180.218182 248.659745 
L 181.112044 244.829091 
L 182.137066 240.436364 
L 183.162093 236.043636 
L 183.825455 233.200802 
L 184.187113 231.650909 
L 185.212137 227.258182 
L 186.237154 222.865455 
L 187.432727 219.702343 
L 188.114493 218.472727 
L 191.04 214.912407 
L 191.723988 214.08 
L 194.647273 210.522384 
L 195.333483 209.687273 
L 198.254545 206.13237 
L 198.942986 205.294545 
L 201.861818 201.746714 
L 203.232513 200.901818 
L 205.469091 199.855855 
L 209.076364 198.168871 
L 212.625427 196.509091 
L 212.683636 196.481868 
L 216.290909 194.794881 
L 219.898182 193.107895 
L 222.018363 192.116364 
L 223.505455 191.420906 
L 227.112727 189.73391 
L 230.72 188.046924 
L 231.411286 187.723636 
L 234.327273 186.359939 
L 237.934545 184.672943 
L 240.804202 183.330909 
L 241.541818 182.985953 
L 245.149091 181.298966 
L 248.756364 179.611979 
L 250.197132 178.938182 
L 252.363636 177.924986 
L 255.970909 176.237995 
L 259.578182 174.551001 
L 259.593683 174.545455 
L 263.185455 173.132846 
L 266.792727 173.424106 
L 270.4 173.728957 
L 274.007273 174.033846 
L 277.614545 174.338703 
L 280.060761 174.545455 
L 281.221818 174.643586 
L 284.829091 174.948451 
L 288.436364 175.253317 
L 292.043636 175.558196 
L 295.650909 177.060704 
L 298.527634 178.938182 
L 299.258182 179.414971 
L 302.865455 181.769238 
L 305.258258 183.330909 
L 306.472727 184.123534 
L 310.08 186.477798 
L 311.988892 187.723636 
L 313.687273 188.832085 
L 317.294545 191.186346 
L 318.719538 192.116364 
L 320.901818 193.540623 
L 324.509091 195.894901 
L 325.450167 196.509091 
L 328.116364 198.249168 
L 331.723636 200.603444 
L 332.180811 200.901818 
L 335.330909 204.142788 
L 335.994122 205.294545 
L 337.851022 209.687273 
L 338.938182 212.259086 
L 339.707916 214.08 
L 341.564809 218.472727 
L 342.545455 220.79258 
L 343.421698 222.865455 
L 345.278601 227.258182 
L 346.152727 229.32607 
L 347.135475 231.650909 
L 348.992385 236.043636 
L 349.76 237.85954 
L 350.849269 240.436364 
L 352.70617 244.829091 
L 353.367273 246.39302 
L 354.563056 249.221818 
L 356.419948 253.614545 
L 356.974545 254.926523 
L 358.276837 258.007273 
L 360.133725 262.4 
L 360.18888 266.792727 
L 359.598866 271.185455 
L 359.008839 275.578182 
L 358.418815 279.970909 
L 357.828791 284.363636 
L 357.238766 288.756364 
L 356.974545 290.723472 
L 356.64874 293.149091 
L 356.058722 297.541818 
L 355.468691 301.934545 
L 354.878675 306.327273 
L 354.288652 310.72 
L 353.698635 315.112727 
L 353.367273 317.579674 
L 353.108601 319.505455 
L 352.518583 323.898182 
L 351.928555 328.290909 
L 351.338536 332.683636 
L 350.748508 337.076364 
L 350.158488 341.469091 
L 349.76 344.435905 
L 349.568478 345.861818 
L 348.978444 350.254545 
L 348.388423 354.647273 
L 347.798392 359.04 
L 347.208375 363.432727 
L 346.618349 367.825455 
L 346.152727 371.291947 
L 346.015526 372.218182 
L 343.50769 376.610909 
L 342.545455 377.50033 
L 338.938182 380.834606 
L 338.755313 381.003636 
L 335.330909 384.168906 
L 334.002957 385.396364 
L 331.723636 387.5032 
L 329.250612 389.789091 
L 328.116364 390.837507 
L 324.509091 394.171794 
L 324.498246 394.181818 
L 320.901818 397.506108 
L 319.745906 398.574545 
L 317.294545 400.840395 
L 314.993535 402.967273 
L 313.687273 404.174689 
L 310.08 406.391832 
L 306.472727 406.782773 
L 302.865455 407.106996 
L 300.050565 407.36 
L 299.258182 407.43122 
L 295.650909 407.755442 
L 292.043636 408.079663 
L 288.436364 408.40389 
L 284.829091 408.728113 
L 281.221818 409.052327 
L 277.614545 409.376555 
L 274.007273 409.700768 
L 270.4 410.024995 
L 266.792727 410.349223 
L 263.185455 410.673438 
L 259.578182 410.997657 
L 255.970909 411.32188 
L 252.363636 411.646103 
L 251.177352 411.752727 
L 248.756364 411.970327 
L 245.149091 412.29455 
L 241.541818 412.618785 
L 237.934545 412.943002 
L 234.327273 413.26722 
L 230.72 413.591448 
L 227.112727 413.915667 
L 223.505455 414.239901 
L 219.898182 414.564114 
L 216.290909 413.016334 
z
" style="fill:#f3c8b2;"/>
   </g>
   <g id="PathCollection_7">
    <path clip-path="url(#p436197f3a5)" d="M 216.290909 413.016334 
L 219.898182 414.564114 
L 223.505455 414.239901 
L 227.112727 413.915667 
L 230.72 413.591448 
L 234.327273 413.26722 
L 237.934545 412.943002 
L 241.541818 412.618785 
L 245.149091 412.29455 
L 248.756364 411.970327 
L 251.177352 411.752727 
L 252.363636 411.646103 
L 255.970909 411.32188 
L 259.578182 410.997657 
L 263.185455 410.673438 
L 266.792727 410.349223 
L 270.4 410.024995 
L 274.007273 409.700768 
L 277.614545 409.376555 
L 281.221818 409.052327 
L 284.829091 408.728113 
L 288.436364 408.40389 
L 292.043636 408.079663 
L 295.650909 407.755442 
L 299.258182 407.43122 
L 300.050565 407.36 
L 302.865455 407.106996 
L 306.472727 406.782773 
L 310.08 406.391832 
L 313.687273 404.174689 
L 314.993535 402.967273 
L 317.294545 400.840395 
L 319.745906 398.574545 
L 320.901818 397.506108 
L 324.498246 394.181818 
L 324.509091 394.171794 
L 328.116364 390.837507 
L 329.250612 389.789091 
L 331.723636 387.5032 
L 334.002957 385.396364 
L 335.330909 384.168906 
L 338.755313 381.003636 
L 338.938182 380.834606 
L 342.545455 377.50033 
L 343.50769 376.610909 
L 346.015526 372.218182 
L 346.152727 371.291947 
L 346.618349 367.825455 
L 347.208375 363.432727 
L 347.798392 359.04 
L 348.388423 354.647273 
L 348.978444 350.254545 
L 349.568478 345.861818 
L 349.76 344.435905 
L 350.158488 341.469091 
L 350.748508 337.076364 
L 351.338536 332.683636 
L 351.928555 328.290909 
L 352.518583 323.898182 
L 353.108601 319.505455 
L 353.367273 317.579674 
L 353.698635 315.112727 
L 354.288652 310.72 
L 354.878675 306.327273 
L 355.468691 301.934545 
L 356.058722 297.541818 
L 356.64874 293.149091 
L 356.974545 290.723472 
L 357.238766 288.756364 
L 357.828791 284.363636 
L 358.418815 279.970909 
L 359.008839 275.578182 
L 359.598866 271.185455 
L 360.18888 266.792727 
L 360.133725 262.4 
L 358.276837 258.007273 
L 356.974545 254.926523 
L 356.419948 253.614545 
L 354.563056 249.221818 
L 353.367273 246.39302 
L 352.70617 244.829091 
L 350.849269 240.436364 
L 349.76 237.85954 
L 348.992385 236.043636 
L 347.135475 231.650909 
L 346.152727 229.32607 
L 345.278601 227.258182 
L 343.421698 222.865455 
L 342.545455 220.79258 
L 341.564809 218.472727 
L 339.707916 214.08 
L 338.938182 212.259086 
L 337.851022 209.687273 
L 335.994122 205.294545 
L 335.330909 204.142788 
L 332.180811 200.901818 
L 331.723636 200.603444 
L 328.116364 198.249168 
L 325.450167 196.509091 
L 324.509091 195.894901 
L 320.901818 193.540623 
L 318.719538 192.116364 
L 317.294545 191.186346 
L 313.687273 188.832085 
L 311.988892 187.723636 
L 310.08 186.477798 
L 306.472727 184.123534 
L 305.258258 183.330909 
L 302.865455 181.769238 
L 299.258182 179.414971 
L 298.527634 178.938182 
L 295.650909 177.060704 
L 292.043636 175.558196 
L 288.436364 175.253317 
L 284.829091 174.948451 
L 281.221818 174.643586 
L 280.060761 174.545455 
L 277.614545 174.338703 
L 274.007273 174.033846 
L 270.4 173.728957 
L 266.792727 173.424106 
L 263.185455 173.132846 
L 259.593683 174.545455 
L 259.578182 174.551001 
L 255.970909 176.237995 
L 252.363636 177.924986 
L 250.197132 178.938182 
L 248.756364 179.611979 
L 245.149091 181.298966 
L 241.541818 182.985953 
L 240.804202 183.330909 
L 237.934545 184.672943 
L 234.327273 186.359939 
L 231.411286 187.723636 
L 230.72 188.046924 
L 227.112727 189.73391 
L 223.505455 191.420906 
L 222.018363 192.116364 
L 219.898182 193.107895 
L 216.290909 194.794881 
L 212.683636 196.481868 
L 212.625427 196.509091 
L 209.076364 198.168871 
L 205.469091 199.855855 
L 203.232513 200.901818 
L 201.861818 201.746714 
L 198.942986 205.294545 
L 198.254545 206.13237 
L 195.333483 209.687273 
L 194.647273 210.522384 
L 191.723988 214.08 
L 191.04 214.912407 
L 188.114493 218.472727 
L 187.432727 219.702343 
L 186.237154 222.865455 
L 185.212137 227.258182 
L 184.187113 231.650909 
L 183.825455 233.200802 
L 183.162093 236.043636 
L 182.137066 240.436364 
L 181.112044 244.829091 
L 180.218182 248.659745 
L 180.087025 249.221818 
L 179.061994 253.614545 
L 178.036975 258.007273 
L 177.011945 262.4 
L 176.610909 264.118636 
L 175.986924 266.792727 
L 174.961897 271.185455 
L 173.936876 275.578182 
L 173.003636 279.577579 
L 172.911855 279.970909 
L 171.886834 284.363636 
L 170.861802 288.756364 
L 169.836775 293.149091 
L 169.396364 295.036471 
L 168.811754 297.541818 
L 167.786735 301.934545 
L 166.76171 306.327273 
L 165.789091 310.495414 
L 165.736685 310.72 
L 165.735255 315.112727 
L 165.789091 315.509695 
L 166.330989 319.505455 
L 166.926714 323.898182 
L 167.522444 328.290909 
L 168.118167 332.683636 
L 168.713893 337.076364 
L 169.309621 341.469091 
L 169.396364 341.663438 
L 171.988328 345.861818 
L 173.003636 347.439265 
L 174.815655 350.254545 
L 176.610909 353.043779 
L 177.64298 354.647273 
L 180.218182 358.648267 
L 180.470317 359.04 
L 183.297618 363.432727 
L 183.825455 364.252805 
L 186.124952 367.825455 
L 187.432727 369.857314 
L 188.952272 372.218182 
L 191.04 375.461818 
L 191.779599 376.610909 
L 194.606926 381.003636 
L 194.647273 381.066322 
L 197.434246 385.396364 
L 198.254545 386.670844 
L 200.261567 389.789091 
L 201.861818 392.275336 
L 203.088901 394.181818 
L 205.469091 397.87985 
L 205.916224 398.574545 
L 208.743544 402.967273 
L 209.076364 403.484364 
L 211.570872 407.36 
L 212.683636 409.088864 
L 214.951193 411.752727 
z
M 227.488987 359.04 
L 227.112727 358.634929 
L 224.546121 354.647273 
L 223.505455 353.030424 
L 221.718787 350.254545 
L 219.898182 347.425922 
L 218.891466 345.861818 
L 216.290909 341.821409 
L 216.064144 341.469091 
L 213.236817 337.076364 
L 212.683636 336.216906 
L 210.409494 332.683636 
L 209.076364 330.612387 
L 207.582176 328.290909 
L 205.469091 325.007879 
L 204.754846 323.898182 
L 201.927518 319.505455 
L 201.861818 319.403379 
L 199.734823 315.112727 
L 199.048298 310.72 
L 198.45257 306.327273 
L 198.672446 301.934545 
L 199.697471 297.541818 
L 200.722498 293.149091 
L 201.747521 288.756364 
L 201.861818 288.266546 
L 202.772546 284.363636 
L 203.797566 279.970909 
L 204.822591 275.578182 
L 205.469091 272.807617 
L 205.847616 271.185455 
L 206.872637 266.792727 
L 207.89766 262.4 
L 208.922686 258.007273 
L 209.076364 257.348688 
L 209.947709 253.614545 
L 210.972731 249.221818 
L 212.046415 244.829091 
L 212.683636 243.710144 
L 215.373694 240.436364 
L 216.290909 239.320121 
L 218.983189 236.043636 
L 219.898182 235.135707 
L 223.505455 233.202596 
L 226.823413 231.650909 
L 227.112727 231.515608 
L 230.72 229.828617 
L 234.327273 228.141631 
L 236.216337 227.258182 
L 237.934545 226.454636 
L 241.541818 224.767644 
L 245.149091 223.080656 
L 245.609253 222.865455 
L 248.756364 221.393665 
L 252.363636 219.706678 
L 255.970909 218.876733 
L 259.578182 219.181607 
L 263.185455 219.486476 
L 266.792727 219.791348 
L 270.4 220.096219 
L 274.007273 220.401092 
L 277.614545 220.705963 
L 281.221818 222.596344 
L 281.634155 222.865455 
L 284.829091 224.950621 
L 288.364785 227.258182 
L 288.436364 227.304897 
L 292.043636 229.659175 
L 295.095421 231.650909 
L 295.650909 232.03259 
L 299.10929 236.043636 
L 299.258182 236.395859 
L 300.966188 240.436364 
L 302.823077 244.829091 
L 302.865455 244.92934 
L 304.679971 249.221818 
L 306.472727 253.462821 
L 306.536864 253.614545 
L 308.393763 258.007273 
L 310.08 261.996301 
L 310.250651 262.4 
L 312.107547 266.792727 
L 313.687273 270.529783 
L 313.964438 271.185455 
L 315.404328 275.578182 
L 314.8143 279.970909 
L 314.224278 284.363636 
L 313.687273 288.361629 
L 313.634252 288.756364 
L 313.044231 293.149091 
L 312.454206 297.541818 
L 311.864183 301.934545 
L 311.274157 306.327273 
L 310.684132 310.72 
L 310.094105 315.112727 
L 310.08 315.217744 
L 309.504088 319.505455 
L 308.914062 323.898182 
L 308.324038 328.290909 
L 307.734013 332.683636 
L 306.846101 337.076364 
L 306.472727 337.645403 
L 302.865455 340.979715 
L 302.336014 341.469091 
L 299.258182 344.314007 
L 297.583654 345.861818 
L 295.650909 347.648306 
L 292.831295 350.254545 
L 292.043636 350.982598 
L 288.436364 354.316904 
L 288.078947 354.647273 
L 284.829091 357.078469 
L 281.221818 357.662693 
L 277.614545 357.986914 
L 274.007273 358.311138 
L 270.4 358.635362 
L 266.792727 358.959581 
L 265.898011 359.04 
L 263.185455 359.28381 
L 259.578182 359.608025 
L 255.970909 359.932257 
L 252.363636 360.256476 
L 248.756364 360.5807 
L 245.149091 360.904921 
L 241.541818 361.229145 
L 237.934545 361.553369 
L 234.327273 361.877591 
L 230.72 361.964979 
z
" style="fill:#f6a586;"/>
   </g>
   <g id="PathCollection_8">
    <path clip-path="url(#p436197f3a5)" d="M 230.72 361.964979 
L 234.327273 361.877591 
L 237.934545 361.553369 
L 241.541818 361.229145 
L 245.149091 360.904921 
L 248.756364 360.5807 
L 252.363636 360.256476 
L 255.970909 359.932257 
L 259.578182 359.608025 
L 263.185455 359.28381 
L 265.898011 359.04 
L 266.792727 358.959581 
L 270.4 358.635362 
L 274.007273 358.311138 
L 277.614545 357.986914 
L 281.221818 357.662693 
L 284.829091 357.078469 
L 288.078947 354.647273 
L 288.436364 354.316904 
L 292.043636 350.982598 
L 292.831295 350.254545 
L 295.650909 347.648306 
L 297.583654 345.861818 
L 299.258182 344.314007 
L 302.336014 341.469091 
L 302.865455 340.979715 
L 306.472727 337.645403 
L 306.846101 337.076364 
L 307.734013 332.683636 
L 308.324038 328.290909 
L 308.914062 323.898182 
L 309.504088 319.505455 
L 310.08 315.217744 
L 310.094105 315.112727 
L 310.684132 310.72 
L 311.274157 306.327273 
L 311.864183 301.934545 
L 312.454206 297.541818 
L 313.044231 293.149091 
L 313.634252 288.756364 
L 313.687273 288.361629 
L 314.224278 284.363636 
L 314.8143 279.970909 
L 315.404328 275.578182 
L 313.964438 271.185455 
L 313.687273 270.529783 
L 312.107547 266.792727 
L 310.250651 262.4 
L 310.08 261.996301 
L 308.393763 258.007273 
L 306.536864 253.614545 
L 306.472727 253.462821 
L 304.679971 249.221818 
L 302.865455 244.92934 
L 302.823077 244.829091 
L 300.966188 240.436364 
L 299.258182 236.395859 
L 299.10929 236.043636 
L 295.650909 232.03259 
L 295.095421 231.650909 
L 292.043636 229.659175 
L 288.436364 227.304897 
L 288.364785 227.258182 
L 284.829091 224.950621 
L 281.634155 222.865455 
L 281.221818 222.596344 
L 277.614545 220.705963 
L 274.007273 220.401092 
L 270.4 220.096219 
L 266.792727 219.791348 
L 263.185455 219.486476 
L 259.578182 219.181607 
L 255.970909 218.876733 
L 252.363636 219.706678 
L 248.756364 221.393665 
L 245.609253 222.865455 
L 245.149091 223.080656 
L 241.541818 224.767644 
L 237.934545 226.454636 
L 236.216337 227.258182 
L 234.327273 228.141631 
L 230.72 229.828617 
L 227.112727 231.515608 
L 226.823413 231.650909 
L 223.505455 233.202596 
L 219.898182 235.135707 
L 218.983189 236.043636 
L 216.290909 239.320121 
L 215.373694 240.436364 
L 212.683636 243.710144 
L 212.046415 244.829091 
L 210.972731 249.221818 
L 209.947709 253.614545 
L 209.076364 257.348688 
L 208.922686 258.007273 
L 207.89766 262.4 
L 206.872637 266.792727 
L 205.847616 271.185455 
L 205.469091 272.807617 
L 204.822591 275.578182 
L 203.797566 279.970909 
L 202.772546 284.363636 
L 201.861818 288.266546 
L 201.747521 288.756364 
L 200.722498 293.149091 
L 199.697471 297.541818 
L 198.672446 301.934545 
L 198.45257 306.327273 
L 199.048298 310.72 
L 199.734823 315.112727 
L 201.861818 319.403379 
L 201.927518 319.505455 
L 204.754846 323.898182 
L 205.469091 325.007879 
L 207.582176 328.290909 
L 209.076364 330.612387 
L 210.409494 332.683636 
L 212.683636 336.216906 
L 213.236817 337.076364 
L 216.064144 341.469091 
L 216.290909 341.821409 
L 218.891466 345.861818 
L 219.898182 347.425922 
L 221.718787 350.254545 
L 223.505455 353.030424 
L 224.546121 354.647273 
L 227.112727 358.634929 
L 227.488987 359.04 
z
M 244.928277 319.505455 
L 241.541818 317.725372 
L 237.934545 315.82922 
L 237.18076 315.112727 
L 234.327273 312.069996 
L 233.255481 310.72 
L 230.72 307.526384 
L 229.767998 306.327273 
L 227.112727 302.982776 
L 226.280514 301.934545 
L 223.505455 298.236282 
L 223.126942 297.541818 
L 223.505455 295.006182 
L 223.75581 293.149091 
L 224.69758 288.756364 
L 225.639349 284.363636 
L 226.581119 279.970909 
L 227.112727 277.491317 
L 227.522891 275.578182 
L 228.464661 271.185455 
L 229.406433 266.792727 
L 230.406406 262.4 
L 230.72 261.864727 
L 234.327273 258.924053 
L 237.138764 258.007273 
L 237.934545 257.756753 
L 241.541818 256.621149 
L 245.149091 255.485547 
L 248.756364 254.740755 
L 252.363636 255.241072 
L 255.970909 255.741391 
L 259.578182 256.241708 
L 263.185455 256.742024 
L 266.792727 257.706597 
L 267.105519 258.007273 
L 269.508313 262.4 
L 270.4 264.587408 
L 271.298989 266.792727 
L 273.089663 271.185455 
L 274.007273 273.43645 
L 274.880341 275.578182 
L 276.671015 279.970909 
L 277.614545 282.340822 
L 278.31328 284.363636 
L 277.614545 288.32914 
L 277.539267 288.756364 
L 276.765255 293.149091 
L 275.991244 297.541818 
L 275.217231 301.934545 
L 274.007273 305.649627 
L 273.638212 306.327273 
L 270.4 309.615308 
L 269.312048 310.72 
L 266.792727 313.278084 
L 264.985884 315.112727 
L 263.185455 316.486003 
L 259.578182 317.272236 
L 255.970909 317.882275 
L 252.363636 318.49231 
L 248.756364 319.102347 
L 245.82585 319.505455 
L 245.149091 319.601023 
z
" style="fill:#e7745b;"/>
   </g>
   <g id="PathCollection_9">
    <path clip-path="url(#p436197f3a5)" d="M 245.149091 319.601023 
L 245.82585 319.505455 
L 248.756364 319.102347 
L 252.363636 318.49231 
L 255.970909 317.882275 
L 259.578182 317.272236 
L 263.185455 316.486003 
L 264.985884 315.112727 
L 266.792727 313.278084 
L 269.312048 310.72 
L 270.4 309.615308 
L 273.638212 306.327273 
L 274.007273 305.649627 
L 275.217231 301.934545 
L 275.991244 297.541818 
L 276.765255 293.149091 
L 277.539267 288.756364 
L 277.614545 288.32914 
L 278.31328 284.363636 
L 277.614545 282.340822 
L 276.671015 279.970909 
L 274.880341 275.578182 
L 274.007273 273.43645 
L 273.089663 271.185455 
L 271.298989 266.792727 
L 270.4 264.587408 
L 269.508313 262.4 
L 267.105519 258.007273 
L 266.792727 257.706597 
L 263.185455 256.742024 
L 259.578182 256.241708 
L 255.970909 255.741391 
L 252.363636 255.241072 
L 248.756364 254.740755 
L 245.149091 255.485547 
L 241.541818 256.621149 
L 237.934545 257.756753 
L 237.138764 258.007273 
L 234.327273 258.924053 
L 230.72 261.864727 
L 230.406406 262.4 
L 229.406433 266.792727 
L 228.464661 271.185455 
L 227.522891 275.578182 
L 227.112727 277.491317 
L 226.581119 279.970909 
L 225.639349 284.363636 
L 224.69758 288.756364 
L 223.75581 293.149091 
L 223.505455 295.006182 
L 223.126942 297.541818 
L 223.505455 298.236282 
L 226.280514 301.934545 
L 227.112727 302.982776 
L 229.767998 306.327273 
L 230.72 307.526384 
L 233.255481 310.72 
L 234.327273 312.069996 
L 237.18076 315.112727 
L 237.934545 315.82922 
L 241.541818 317.725372 
L 244.928277 319.505455 
z
" style="fill:#c83836;"/>
   </g>
   <g id="matplotlib.axis_1">
    <g id="xtick_1">
     <g id="line2d_1">
      <defs>
       <path d="M 0 0 
L 0 3.5 
" id="m277346fd1a" style="stroke:#000000;stroke-width:0.8;"/>
      </defs>
      <g>
       <use style="stroke:#000000;stroke-width:0.8;" x="107.712" xlink:href="#m277346fd1a" y="504"/>
      </g>
     </g>
     <g id="text_1">
      <!-- 4 -->
      <defs>
       <path d="M 10.59375 35.5 
L 73.1875 35.5 
L 73.1875 27.203125 
L 10.59375 27.203125 
z
" id="DejaVuSans-2212"/>
       <path d="M 37.796875 64.3125 
L 12.890625 25.390625 
L 37.796875 25.390625 
z
M 35.203125 72.90625 
L 47.609375 72.90625 
L 47.609375 25.390625 
L 58.015625 25.390625 
L 58.015625 17.1875 
L 47.609375 17.1875 
L 47.609375 0 
L 37.796875 0 
L 37.796875 17.1875 
L 4.890625 17.1875 
L 4.890625 26.703125 
z
" id="DejaVuSans-34"/>
      </defs>
      <g transform="translate(100.340906 518.598438)scale(0.1 -0.1)">
       <use xlink:href="#DejaVuSans-2212"/>
       <use x="83.789062" xlink:href="#DejaVuSans-34"/>
      </g>
     </g>
    </g>
    <g id="xtick_2">
     <g id="line2d_2">
      <g>
       <use style="stroke:#000000;stroke-width:0.8;" x="179.136" xlink:href="#m277346fd1a" y="504"/>
      </g>
     </g>
     <g id="text_2">
      <!-- 2 -->
      <defs>
       <path d="M 19.1875 8.296875 
L 53.609375 8.296875 
L 53.609375 0 
L 7.328125 0 
L 7.328125 8.296875 
Q 12.9375 14.109375 22.625 23.890625 
Q 32.328125 33.6875 34.8125 36.53125 
Q 39.546875 41.84375 41.421875 45.53125 
Q 43.3125 49.21875 43.3125 52.78125 
Q 43.3125 58.59375 39.234375 62.25 
Q 35.15625 65.921875 28.609375 65.921875 
Q 23.96875 65.921875 18.8125 64.3125 
Q 13.671875 62.703125 7.8125 59.421875 
L 7.8125 69.390625 
Q 13.765625 71.78125 18.9375 73 
Q 24.125 74.21875 28.421875 74.21875 
Q 39.75 74.21875 46.484375 68.546875 
Q 53.21875 62.890625 53.21875 53.421875 
Q 53.21875 48.921875 51.53125 44.890625 
Q 49.859375 40.875 45.40625 35.40625 
Q 44.1875 33.984375 37.640625 27.21875 
Q 31.109375 20.453125 19.1875 8.296875 
z
" id="DejaVuSans-32"/>
      </defs>
      <g transform="translate(171.764906 518.598438)scale(0.1 -0.1)">
       <use xlink:href="#DejaVuSans-2212"/>
       <use x="83.789062" xlink:href="#DejaVuSans-32"/>
      </g>
     </g>
    </g>
    <g id="xtick_3">
     <g id="line2d_3">
      <g>
       <use style="stroke:#000000;stroke-width:0.8;" x="250.56" xlink:href="#m277346fd1a" y="504"/>
      </g>
     </g>
     <g id="text_3">
      <!-- 0 -->
      <defs>
       <path d="M 31.78125 66.40625 
Q 24.171875 66.40625 20.328125 58.90625 
Q 16.5 51.421875 16.5 36.375 
Q 16.5 21.390625 20.328125 13.890625 
Q 24.171875 6.390625 31.78125 6.390625 
Q 39.453125 6.390625 43.28125 13.890625 
Q 47.125 21.390625 47.125 36.375 
Q 47.125 51.421875 43.28125 58.90625 
Q 39.453125 66.40625 31.78125 66.40625 
z
M 31.78125 74.21875 
Q 44.046875 74.21875 50.515625 64.515625 
Q 56.984375 54.828125 56.984375 36.375 
Q 56.984375 17.96875 50.515625 8.265625 
Q 44.046875 -1.421875 31.78125 -1.421875 
Q 19.53125 -1.421875 13.0625 8.265625 
Q 6.59375 17.96875 6.59375 36.375 
Q 6.59375 54.828125 13.0625 64.515625 
Q 19.53125 74.21875 31.78125 74.21875 
z
" id="DejaVuSans-30"/>
      </defs>
      <g transform="translate(247.37875 518.598438)scale(0.1 -0.1)">
       <use xlink:href="#DejaVuSans-30"/>
      </g>
     </g>
    </g>
    <g id="xtick_4">
     <g id="line2d_4">
      <g>
       <use style="stroke:#000000;stroke-width:0.8;" x="321.984" xlink:href="#m277346fd1a" y="504"/>
      </g>
     </g>
     <g id="text_4">
      <!-- 2 -->
      <g transform="translate(318.80275 518.598438)scale(0.1 -0.1)">
       <use xlink:href="#DejaVuSans-32"/>
      </g>
     </g>
    </g>
    <g id="xtick_5">
     <g id="line2d_5">
      <g>
       <use style="stroke:#000000;stroke-width:0.8;" x="393.408" xlink:href="#m277346fd1a" y="504"/>
      </g>
     </g>
     <g id="text_5">
      <!-- 4 -->
      <g transform="translate(390.22675 518.598438)scale(0.1 -0.1)">
       <use xlink:href="#DejaVuSans-34"/>
      </g>
     </g>
    </g>
   </g>
   <g id="matplotlib.axis_2">
    <g id="ytick_1">
     <g id="line2d_6">
      <defs>
       <path d="M 0 0 
L -3.5 0 
" id="me54c6215dc" style="stroke:#000000;stroke-width:0.8;"/>
      </defs>
      <g>
       <use style="stroke:#000000;stroke-width:0.8;" x="72" xlink:href="#me54c6215dc" y="460.512"/>
      </g>
     </g>
     <g id="text_6">
      <!-- 4 -->
      <g transform="translate(50.257812 464.311219)scale(0.1 -0.1)">
       <use xlink:href="#DejaVuSans-2212"/>
       <use x="83.789062" xlink:href="#DejaVuSans-34"/>
      </g>
     </g>
    </g>
    <g id="ytick_2">
     <g id="line2d_7">
      <g>
       <use style="stroke:#000000;stroke-width:0.8;" x="72" xlink:href="#me54c6215dc" y="373.536"/>
      </g>
     </g>
     <g id="text_7">
      <!-- 2 -->
      <g transform="translate(50.257812 377.335219)scale(0.1 -0.1)">
       <use xlink:href="#DejaVuSans-2212"/>
       <use x="83.789062" xlink:href="#DejaVuSans-32"/>
      </g>
     </g>
    </g>
    <g id="ytick_3">
     <g id="line2d_8">
      <g>
       <use style="stroke:#000000;stroke-width:0.8;" x="72" xlink:href="#me54c6215dc" y="286.56"/>
      </g>
     </g>
     <g id="text_8">
      <!-- 0 -->
      <g transform="translate(58.6375 290.359219)scale(0.1 -0.1)">
       <use xlink:href="#DejaVuSans-30"/>
      </g>
     </g>
    </g>
    <g id="ytick_4">
     <g id="line2d_9">
      <g>
       <use style="stroke:#000000;stroke-width:0.8;" x="72" xlink:href="#me54c6215dc" y="199.584"/>
      </g>
     </g>
     <g id="text_9">
      <!-- 2 -->
      <g transform="translate(58.6375 203.383219)scale(0.1 -0.1)">
       <use xlink:href="#DejaVuSans-32"/>
      </g>
     </g>
    </g>
    <g id="ytick_5">
     <g id="line2d_10">
      <g>
       <use style="stroke:#000000;stroke-width:0.8;" x="72" xlink:href="#me54c6215dc" y="112.608"/>
      </g>
     </g>
     <g id="text_10">
      <!-- 4 -->
      <g transform="translate(58.6375 116.407219)scale(0.1 -0.1)">
       <use xlink:href="#DejaVuSans-34"/>
      </g>
     </g>
    </g>
   </g>
   <g id="patch_3">
    <path d="M 72 504 
L 72 69.12 
" style="fill:none;stroke:#000000;stroke-linecap:square;stroke-linejoin:miter;stroke-width:0.8;"/>
   </g>
   <g id="patch_4">
    <path d="M 429.12 504 
L 429.12 69.12 
" style="fill:none;stroke:#000000;stroke-linecap:square;stroke-linejoin:miter;stroke-width:0.8;"/>
   </g>
   <g id="patch_5">
    <path d="M 72 504 
L 429.12 504 
" style="fill:none;stroke:#000000;stroke-linecap:square;stroke-linejoin:miter;stroke-width:0.8;"/>
   </g>
   <g id="patch_6">
    <path d="M 72 69.12 
L 429.12 69.12 
" style="fill:none;stroke:#000000;stroke-linecap:square;stroke-linejoin:miter;stroke-width:0.8;"/>
   </g>
  </g>
  <g id="axes_2">
   <g id="patch_7">
    <path clip-path="url(#p7fba24afc6)" d="M 451.44 504 
L 451.44 455.68 
L 451.44 117.44 
L 451.44 69.12 
L 473.184 69.12 
L 473.184 117.44 
L 473.184 455.68 
L 473.184 504 
z
" style="fill:#ffffff;stroke:#ffffff;stroke-linejoin:miter;stroke-width:0.01;"/>
   </g>
   <g id="QuadMesh_1">
    <path clip-path="url(#p7fba24afc6)" d="M 451.44 504 
L 473.184 504 
L 473.184 455.68 
L 451.44 455.68 
L 451.44 504 
" style="fill:#4b64d5;"/>
    <path clip-path="url(#p7fba24afc6)" d="M 451.44 455.68 
L 473.184 455.68 
L 473.184 407.36 
L 451.44 407.36 
L 451.44 455.68 
" style="fill:#6f92f3;"/>
    <path clip-path="url(#p7fba24afc6)" d="M 451.44 407.36 
L 473.184 407.36 
L 473.184 359.04 
L 451.44 359.04 
L 451.44 407.36 
" style="fill:#97b8ff;"/>
    <path clip-path="url(#p7fba24afc6)" d="M 451.44 359.04 
L 473.184 359.04 
L 473.184 310.72 
L 451.44 310.72 
L 451.44 359.04 
" style="fill:#bcd2f7;"/>
    <path clip-path="url(#p7fba24afc6)" d="M 451.44 310.72 
L 473.184 310.72 
L 473.184 262.4 
L 451.44 262.4 
L 451.44 310.72 
" style="fill:#dddcdc;"/>
    <path clip-path="url(#p7fba24afc6)" d="M 451.44 262.4 
L 473.184 262.4 
L 473.184 214.08 
L 451.44 214.08 
L 451.44 262.4 
" style="fill:#f3c8b2;"/>
    <path clip-path="url(#p7fba24afc6)" d="M 451.44 214.08 
L 473.184 214.08 
L 473.184 165.76 
L 451.44 165.76 
L 451.44 214.08 
" style="fill:#f6a586;"/>
    <path clip-path="url(#p7fba24afc6)" d="M 451.44 165.76 
L 473.184 165.76 
L 473.184 117.44 
L 451.44 117.44 
L 451.44 165.76 
" style="fill:#e7745b;"/>
    <path clip-path="url(#p7fba24afc6)" d="M 451.44 117.44 
L 473.184 117.44 
L 473.184 69.12 
L 451.44 69.12 
L 451.44 117.44 
" style="fill:#c83836;"/>
   </g>
   <g id="matplotlib.axis_3"/>
   <g id="matplotlib.axis_4">
    <g id="ytick_6">
     <g id="line2d_11">
      <defs>
       <path d="M 0 0 
L 3.5 0 
" id="m7cad7fe648" style="stroke:#000000;stroke-width:0.8;"/>
      </defs>
      <g>
       <use style="stroke:#000000;stroke-width:0.8;" x="473.184" xlink:href="#m7cad7fe648" y="504"/>
      </g>
     </g>
     <g id="text_11">
      <!-- 160 -->
      <defs>
       <path d="M 12.40625 8.296875 
L 28.515625 8.296875 
L 28.515625 63.921875 
L 10.984375 60.40625 
L 10.984375 69.390625 
L 28.421875 72.90625 
L 38.28125 72.90625 
L 38.28125 8.296875 
L 54.390625 8.296875 
L 54.390625 0 
L 12.40625 0 
z
" id="DejaVuSans-31"/>
       <path d="M 33.015625 40.375 
Q 26.375 40.375 22.484375 35.828125 
Q 18.609375 31.296875 18.609375 23.390625 
Q 18.609375 15.53125 22.484375 10.953125 
Q 26.375 6.390625 33.015625 6.390625 
Q 39.65625 6.390625 43.53125 10.953125 
Q 47.40625 15.53125 47.40625 23.390625 
Q 47.40625 31.296875 43.53125 35.828125 
Q 39.65625 40.375 33.015625 40.375 
z
M 52.59375 71.296875 
L 52.59375 62.3125 
Q 48.875 64.0625 45.09375 64.984375 
Q 41.3125 65.921875 37.59375 65.921875 
Q 27.828125 65.921875 22.671875 59.328125 
Q 17.53125 52.734375 16.796875 39.40625 
Q 19.671875 43.65625 24.015625 45.921875 
Q 28.375 48.1875 33.59375 48.1875 
Q 44.578125 48.1875 50.953125 41.515625 
Q 57.328125 34.859375 57.328125 23.390625 
Q 57.328125 12.15625 50.6875 5.359375 
Q 44.046875 -1.421875 33.015625 -1.421875 
Q 20.359375 -1.421875 13.671875 8.265625 
Q 6.984375 17.96875 6.984375 36.375 
Q 6.984375 53.65625 15.1875 63.9375 
Q 23.390625 74.21875 37.203125 74.21875 
Q 40.921875 74.21875 44.703125 73.484375 
Q 48.484375 72.75 52.59375 71.296875 
z
" id="DejaVuSans-36"/>
      </defs>
      <g transform="translate(480.184 507.799219)scale(0.1 -0.1)">
       <use xlink:href="#DejaVuSans-2212"/>
       <use x="83.789062" xlink:href="#DejaVuSans-31"/>
       <use x="147.412109" xlink:href="#DejaVuSans-36"/>
       <use x="211.035156" xlink:href="#DejaVuSans-30"/>
      </g>
     </g>
    </g>
    <g id="ytick_7">
     <g id="line2d_12">
      <g>
       <use style="stroke:#000000;stroke-width:0.8;" x="473.184" xlink:href="#m7cad7fe648" y="455.68"/>
      </g>
     </g>
     <g id="text_12">
      <!-- 140 -->
      <g transform="translate(480.184 459.479219)scale(0.1 -0.1)">
       <use xlink:href="#DejaVuSans-2212"/>
       <use x="83.789062" xlink:href="#DejaVuSans-31"/>
       <use x="147.412109" xlink:href="#DejaVuSans-34"/>
       <use x="211.035156" xlink:href="#DejaVuSans-30"/>
      </g>
     </g>
    </g>
    <g id="ytick_8">
     <g id="line2d_13">
      <g>
       <use style="stroke:#000000;stroke-width:0.8;" x="473.184" xlink:href="#m7cad7fe648" y="407.36"/>
      </g>
     </g>
     <g id="text_13">
      <!-- 120 -->
      <g transform="translate(480.184 411.159219)scale(0.1 -0.1)">
       <use xlink:href="#DejaVuSans-2212"/>
       <use x="83.789062" xlink:href="#DejaVuSans-31"/>
       <use x="147.412109" xlink:href="#DejaVuSans-32"/>
       <use x="211.035156" xlink:href="#DejaVuSans-30"/>
      </g>
     </g>
    </g>
    <g id="ytick_9">
     <g id="line2d_14">
      <g>
       <use style="stroke:#000000;stroke-width:0.8;" x="473.184" xlink:href="#m7cad7fe648" y="359.04"/>
      </g>
     </g>
     <g id="text_14">
      <!-- 100 -->
      <g transform="translate(480.184 362.839219)scale(0.1 -0.1)">
       <use xlink:href="#DejaVuSans-2212"/>
       <use x="83.789062" xlink:href="#DejaVuSans-31"/>
       <use x="147.412109" xlink:href="#DejaVuSans-30"/>
       <use x="211.035156" xlink:href="#DejaVuSans-30"/>
      </g>
     </g>
    </g>
    <g id="ytick_10">
     <g id="line2d_15">
      <g>
       <use style="stroke:#000000;stroke-width:0.8;" x="473.184" xlink:href="#m7cad7fe648" y="310.72"/>
      </g>
     </g>
     <g id="text_15">
      <!-- 80 -->
      <defs>
       <path d="M 31.78125 34.625 
Q 24.75 34.625 20.71875 30.859375 
Q 16.703125 27.09375 16.703125 20.515625 
Q 16.703125 13.921875 20.71875 10.15625 
Q 24.75 6.390625 31.78125 6.390625 
Q 38.8125 6.390625 42.859375 10.171875 
Q 46.921875 13.96875 46.921875 20.515625 
Q 46.921875 27.09375 42.890625 30.859375 
Q 38.875 34.625 31.78125 34.625 
z
M 21.921875 38.8125 
Q 15.578125 40.375 12.03125 44.71875 
Q 8.5 49.078125 8.5 55.328125 
Q 8.5 64.0625 14.71875 69.140625 
Q 20.953125 74.21875 31.78125 74.21875 
Q 42.671875 74.21875 48.875 69.140625 
Q 55.078125 64.0625 55.078125 55.328125 
Q 55.078125 49.078125 51.53125 44.71875 
Q 48 40.375 41.703125 38.8125 
Q 48.828125 37.15625 52.796875 32.3125 
Q 56.78125 27.484375 56.78125 20.515625 
Q 56.78125 9.90625 50.3125 4.234375 
Q 43.84375 -1.421875 31.78125 -1.421875 
Q 19.734375 -1.421875 13.25 4.234375 
Q 6.78125 9.90625 6.78125 20.515625 
Q 6.78125 27.484375 10.78125 32.3125 
Q 14.796875 37.15625 21.921875 38.8125 
z
M 18.3125 54.390625 
Q 18.3125 48.734375 21.84375 45.5625 
Q 25.390625 42.390625 31.78125 42.390625 
Q 38.140625 42.390625 41.71875 45.5625 
Q 45.3125 48.734375 45.3125 54.390625 
Q 45.3125 60.0625 41.71875 63.234375 
Q 38.140625 66.40625 31.78125 66.40625 
Q 25.390625 66.40625 21.84375 63.234375 
Q 18.3125 60.0625 18.3125 54.390625 
z
" id="DejaVuSans-38"/>
      </defs>
      <g transform="translate(480.184 314.519219)scale(0.1 -0.1)">
       <use xlink:href="#DejaVuSans-2212"/>
       <use x="83.789062" xlink:href="#DejaVuSans-38"/>
       <use x="147.412109" xlink:href="#DejaVuSans-30"/>
      </g>
     </g>
    </g>
    <g id="ytick_11">
     <g id="line2d_16">
      <g>
       <use style="stroke:#000000;stroke-width:0.8;" x="473.184" xlink:href="#m7cad7fe648" y="262.4"/>
      </g>
     </g>
     <g id="text_16">
      <!-- 60 -->
      <g transform="translate(480.184 266.199219)scale(0.1 -0.1)">
       <use xlink:href="#DejaVuSans-2212"/>
       <use x="83.789062" xlink:href="#DejaVuSans-36"/>
       <use x="147.412109" xlink:href="#DejaVuSans-30"/>
      </g>
     </g>
    </g>
    <g id="ytick_12">
     <g id="line2d_17">
      <g>
       <use style="stroke:#000000;stroke-width:0.8;" x="473.184" xlink:href="#m7cad7fe648" y="214.08"/>
      </g>
     </g>
     <g id="text_17">
      <!-- 40 -->
      <g transform="translate(480.184 217.879219)scale(0.1 -0.1)">
       <use xlink:href="#DejaVuSans-2212"/>
       <use x="83.789062" xlink:href="#DejaVuSans-34"/>
       <use x="147.412109" xlink:href="#DejaVuSans-30"/>
      </g>
     </g>
    </g>
    <g id="ytick_13">
     <g id="line2d_18">
      <g>
       <use style="stroke:#000000;stroke-width:0.8;" x="473.184" xlink:href="#m7cad7fe648" y="165.76"/>
      </g>
     </g>
     <g id="text_18">
      <!-- 20 -->
      <g transform="translate(480.184 169.559219)scale(0.1 -0.1)">
       <use xlink:href="#DejaVuSans-2212"/>
       <use x="83.789062" xlink:href="#DejaVuSans-32"/>
       <use x="147.412109" xlink:href="#DejaVuSans-30"/>
      </g>
     </g>
    </g>
    <g id="ytick_14">
     <g id="line2d_19">
      <g>
       <use style="stroke:#000000;stroke-width:0.8;" x="473.184" xlink:href="#m7cad7fe648" y="117.44"/>
      </g>
     </g>
     <g id="text_19">
      <!-- 0 -->
      <g transform="translate(480.184 121.239219)scale(0.1 -0.1)">
       <use xlink:href="#DejaVuSans-30"/>
      </g>
     </g>
    </g>
    <g id="ytick_15">
     <g id="line2d_20">
      <g>
       <use style="stroke:#000000;stroke-width:0.8;" x="473.184" xlink:href="#m7cad7fe648" y="69.12"/>
      </g>
     </g>
     <g id="text_20">
      <!-- 20 -->
      <g transform="translate(480.184 72.919219)scale(0.1 -0.1)">
       <use xlink:href="#DejaVuSans-32"/>
       <use x="63.623047" xlink:href="#DejaVuSans-30"/>
      </g>
     </g>
    </g>
   </g>
   <g id="patch_8">
    <path d="M 451.44 504 
L 451.44 455.68 
L 451.44 117.44 
L 451.44 69.12 
L 473.184 69.12 
L 473.184 117.44 
L 473.184 455.68 
L 473.184 504 
z
" style="fill:none;stroke:#000000;stroke-linejoin:miter;stroke-width:0.8;"/>
   </g>
  </g>
 </g>
 <defs>
  <clipPath id="p436197f3a5">
   <rect height="434.88" width="357.12" x="72" y="69.12"/>
  </clipPath>
  <clipPath id="p7fba24afc6">
   <rect height="434.88" width="21.744" x="451.44" y="69.12"/>
  </clipPath>
 </defs>
</svg>
