<?xml version="1.0" encoding="utf-8" standalone="no"?>
<!DOCTYPE svg PUBLIC "-//W3C//DTD SVG 1.1//EN"
  "http://www.w3.org/Graphics/SVG/1.1/DTD/svg11.dtd">
<!-- Created with matplotlib (http://matplotlib.org/) -->
<svg height="576pt" version="1.1" viewBox="0 0 576 576" width="576pt" xmlns="http://www.w3.org/2000/svg" xmlns:xlink="http://www.w3.org/1999/xlink">
 <defs>
  <style type="text/css">
*{stroke-linecap:butt;stroke-linejoin:round;}
  </style>
 </defs>
 <g id="figure_1">
  <g id="patch_1">
   <path d="M 0 576 
L 576 576 
L 576 0 
L 0 0 
z
" style="fill:#ffffff;"/>
  </g>
  <g id="axes_1">
   <g id="patch_2">
    <path d="M 72 504 
L 429.12 504 
L 429.12 69.12 
L 72 69.12 
z
" style="fill:#ffffff;"/>
   </g>
   <g id="PathCollection_1">
    <path clip-path="url(#p48c29fc85f)" d="M 75.607273 504 
L 79.214545 504 
L 82.821818 504 
L 86.429091 504 
L 90.036364 504 
L 93.347098 504 
L 90.71935 499.607273 
L 90.036364 498.465547 
L 88.091577 495.214545 
L 86.429091 492.43541 
L 85.463841 490.821818 
L 82.836094 486.429091 
L 82.821818 486.405226 
L 80.208342 482.036364 
L 79.214545 480.375041 
L 77.580612 477.643636 
L 75.607273 474.344905 
L 74.952839 473.250909 
L 72.325125 468.858182 
L 72 468.31468 
L 72 468.858182 
L 72 473.250909 
L 72 477.643636 
L 72 482.036364 
L 72 486.429091 
L 72 490.821818 
L 72 495.214545 
L 72 499.607273 
L 72 504 
z
" style="fill:#4b64d5;"/>
   </g>
   <g id="PathCollection_2">
    <path clip-path="url(#p48c29fc85f)" d="M 93.643636 504 
L 97.250909 504 
L 100.858182 504 
L 104.465455 504 
L 108.072727 504 
L 111.68 504 
L 115.287273 504 
L 118.894545 504 
L 122.501818 504 
L 126.109091 504 
L 129.716364 504 
L 131.073037 504 
L 129.716364 501.732106 
L 128.445271 499.607273 
L 126.109091 495.701949 
L 125.817524 495.214545 
L 123.189774 490.821818 
L 122.501818 489.67176 
L 120.562038 486.429091 
L 118.894545 483.641616 
L 117.934279 482.036364 
L 115.306538 477.643636 
L 115.287273 477.611431 
L 112.678797 473.250909 
L 111.68 471.581247 
L 110.051038 468.858182 
L 108.072727 465.551126 
L 107.423282 464.465455 
L 104.795534 460.072727 
L 104.465455 459.520942 
L 102.167805 455.68 
L 100.858182 453.490741 
L 99.540044 451.287273 
L 97.250909 447.460577 
L 96.912312 446.894545 
L 94.284565 442.501818 
L 93.643636 441.203221 
L 92.412121 438.109091 
L 91.126544 433.716364 
L 90.036364 429.991233 
L 89.840989 429.323636 
L 88.55542 424.930909 
L 87.269868 420.538182 
L 86.429091 417.665268 
L 85.984308 416.145455 
L 84.698755 411.752727 
L 83.413186 407.36 
L 82.821818 405.339335 
L 82.12761 402.967273 
L 80.842072 398.574545 
L 79.414537 394.181818 
L 79.214545 393.668735 
L 77.641787 389.789091 
L 75.861082 385.396364 
L 75.607273 384.770275 
L 74.080339 381.003636 
L 72.299652 376.610909 
L 72 375.871718 
L 72 376.610909 
L 72 381.003636 
L 72 385.396364 
L 72 389.789091 
L 72 394.181818 
L 72 398.574545 
L 72 402.967273 
L 72 407.36 
L 72 411.752727 
L 72 416.145455 
L 72 420.538182 
L 72 424.930909 
L 72 429.323636 
L 72 433.716364 
L 72 438.109091 
L 72 442.501818 
L 72 446.894545 
L 72 451.287273 
L 72 455.68 
L 72 460.072727 
L 72 464.465455 
L 72 468.31468 
L 72.325125 468.858182 
L 74.952839 473.250909 
L 75.607273 474.344905 
L 77.580612 477.643636 
L 79.214545 480.375041 
L 80.208342 482.036364 
L 82.821818 486.405226 
L 82.836094 486.429091 
L 85.463841 490.821818 
L 86.429091 492.43541 
L 88.091577 495.214545 
L 90.036364 498.465547 
L 90.71935 499.607273 
L 93.347098 504 
z
" style="fill:#6f92f3;"/>
    <path clip-path="url(#p48c29fc85f)" d="M 429.12 385.198054 
L 429.12 381.003636 
L 429.12 376.610909 
L 429.12 372.218182 
L 429.12 367.825455 
L 429.12 363.432727 
L 429.12 359.04 
L 429.12 354.647273 
L 429.12 350.254545 
L 429.12 345.861818 
L 429.12 341.469091 
L 429.12 337.076364 
L 429.12 332.683636 
L 429.12 328.290909 
L 429.12 323.898182 
L 429.12 319.505455 
L 429.12 315.112727 
L 429.12 310.72 
L 429.12 306.327273 
L 429.12 301.934545 
L 429.12 297.541818 
L 429.12 293.149091 
L 429.12 288.756364 
L 429.12 284.363636 
L 429.12 279.970909 
L 429.12 275.578182 
L 429.12 271.185455 
L 429.12 266.792727 
L 429.12 262.4 
L 429.12 258.007273 
L 429.12 253.614545 
L 429.12 249.221818 
L 429.12 244.829091 
L 429.12 240.436364 
L 429.12 236.043636 
L 429.12 231.650909 
L 429.12 227.258182 
L 429.12 222.865455 
L 429.12 218.472727 
L 429.12 214.08 
L 429.12 209.687273 
L 429.12 205.294545 
L 429.12 200.901818 
L 429.12 196.509091 
L 429.12 192.116364 
L 429.12 187.723636 
L 429.12 183.330909 
L 429.12 178.938182 
L 429.12 174.545455 
L 429.12 170.152727 
L 429.12 165.76 
L 429.12 161.367273 
L 429.12 156.974545 
L 429.12 152.581818 
L 429.12 148.189091 
L 429.12 143.796364 
L 429.12 139.403636 
L 429.12 135.010909 
L 429.12 130.618182 
L 429.12 126.225455 
L 429.12 121.832727 
L 429.12 117.44 
L 429.12 113.047273 
L 429.12 108.654545 
L 429.12 104.261818 
L 429.12 99.869091 
L 429.12 95.476364 
L 429.12 91.083636 
L 429.12 86.690909 
L 429.12 82.298182 
L 429.12 77.905455 
L 429.12 73.512727 
L 429.12 69.12 
L 425.924618 69.12 
L 426.420814 73.512727 
L 426.917025 77.905455 
L 427.413223 82.298182 
L 427.909414 86.690909 
L 428.405615 91.083636 
L 428.901813 95.476364 
L 429.050324 99.869091 
L 428.83167 104.261818 
L 428.608368 108.654545 
L 428.385081 113.047273 
L 428.161831 117.44 
L 427.938535 121.832727 
L 427.715241 126.225455 
L 427.491992 130.618182 
L 427.268678 135.010909 
L 427.045414 139.403636 
L 426.822112 143.796364 
L 426.598816 148.189091 
L 426.375546 152.581818 
L 426.152279 156.974545 
L 425.928992 161.367273 
L 425.70571 165.76 
L 425.512727 169.5566 
L 425.482426 170.152727 
L 425.259152 174.545455 
L 425.035855 178.938182 
L 424.812572 183.330909 
L 424.589306 187.723636 
L 424.365996 192.116364 
L 424.142729 196.509091 
L 423.919441 200.901818 
L 423.696156 205.294545 
L 423.472871 209.687273 
L 423.249582 214.08 
L 423.026304 218.472727 
L 422.803027 222.865455 
L 422.57972 227.258182 
L 422.356433 231.650909 
L 422.133159 236.043636 
L 421.909886 240.436364 
L 421.905455 240.52354 
L 421.686592 244.829091 
L 421.463318 249.221818 
L 421.240047 253.614545 
L 421.016751 258.007273 
L 420.793479 262.4 
L 420.570183 266.792727 
L 420.346907 271.185455 
L 420.123634 275.578182 
L 419.900344 279.970909 
L 419.677063 284.363636 
L 419.453793 288.756364 
L 419.230499 293.149091 
L 419.052935 297.541818 
L 419.150462 301.934545 
L 419.418306 306.327273 
L 419.686158 310.72 
L 419.954008 315.112727 
L 420.23082 319.505455 
L 420.825218 323.898182 
L 421.419615 328.290909 
L 421.905455 331.881292 
L 422.014027 332.683636 
L 422.608422 337.076364 
L 423.20285 341.469091 
L 423.797237 345.861818 
L 424.391646 350.254545 
L 424.986067 354.647273 
L 425.512727 358.539352 
L 425.580472 359.04 
L 426.17487 363.432727 
L 426.769251 367.825455 
L 427.363671 372.218182 
L 427.958058 376.610909 
L 428.552456 381.003636 
z
" style="fill:#6f92f3;"/>
   </g>
   <g id="PathCollection_3">
    <path clip-path="url(#p48c29fc85f)" d="M 129.716364 501.732106 
L 131.073037 504 
L 133.323636 504 
L 136.930909 504 
L 140.538182 504 
L 144.145455 504 
L 147.752727 504 
L 151.36 504 
L 154.967273 504 
L 158.574545 504 
L 162.181818 504 
L 165.789091 504 
L 168.798951 504 
L 166.171171 499.607273 
L 165.789091 498.968559 
L 163.543454 495.214545 
L 162.181818 492.938344 
L 160.915688 490.821818 
L 158.574545 486.90819 
L 158.287948 486.429091 
L 155.660198 482.036364 
L 154.967273 480.878023 
L 153.032446 477.643636 
L 151.36 474.847862 
L 150.404695 473.250909 
L 147.776962 468.858182 
L 147.752727 468.817669 
L 145.149221 464.465455 
L 144.145455 462.787497 
L 142.52146 460.072727 
L 140.538182 456.757332 
L 139.893719 455.68 
L 137.265978 451.287273 
L 136.930909 450.727147 
L 134.638236 446.894545 
L 133.323636 444.696963 
L 132.010481 442.501818 
L 129.716364 438.666815 
L 129.382734 438.109091 
L 126.754974 433.716364 
L 126.109091 432.636658 
L 124.127232 429.323636 
L 122.501818 426.606493 
L 121.499477 424.930909 
L 118.894545 420.576321 
L 118.871731 420.538182 
L 116.527589 416.145455 
L 115.287273 412.318262 
L 115.121764 411.752727 
L 113.836212 407.36 
L 112.550654 402.967273 
L 111.68 399.992294 
L 111.265083 398.574545 
L 109.979529 394.181818 
L 108.693973 389.789091 
L 108.072727 387.666327 
L 107.408399 385.396364 
L 106.122846 381.003636 
L 104.837292 376.610909 
L 104.465455 375.34036 
L 103.490413 372.218182 
L 101.75445 367.825455 
L 100.858182 365.614509 
L 99.973728 363.432727 
L 98.192993 359.04 
L 97.250909 357.057474 
L 96.072682 354.647273 
L 93.643636 350.434207 
L 93.540052 350.254545 
L 91.007414 345.861818 
L 90.036364 344.177581 
L 88.474792 341.469091 
L 86.429091 337.920918 
L 85.942162 337.076364 
L 83.110626 332.683636 
L 82.821818 332.26164 
L 80.104305 328.290909 
L 79.214545 326.990832 
L 77.097957 323.898182 
L 75.607273 321.720059 
L 74.091629 319.505455 
L 72 316.44926 
L 72 319.505455 
L 72 323.898182 
L 72 328.290909 
L 72 332.683636 
L 72 337.076364 
L 72 341.469091 
L 72 345.861818 
L 72 350.254545 
L 72 354.647273 
L 72 359.04 
L 72 363.432727 
L 72 367.825455 
L 72 372.218182 
L 72 375.871718 
L 72.299652 376.610909 
L 74.080339 381.003636 
L 75.607273 384.770275 
L 75.861082 385.396364 
L 77.641787 389.789091 
L 79.214545 393.668735 
L 79.414537 394.181818 
L 80.842072 398.574545 
L 82.12761 402.967273 
L 82.821818 405.339335 
L 83.413186 407.36 
L 84.698755 411.752727 
L 85.984308 416.145455 
L 86.429091 417.665268 
L 87.269868 420.538182 
L 88.55542 424.930909 
L 89.840989 429.323636 
L 90.036364 429.991233 
L 91.126544 433.716364 
L 92.412121 438.109091 
L 93.643636 441.203221 
L 94.284565 442.501818 
L 96.912312 446.894545 
L 97.250909 447.460577 
L 99.540044 451.287273 
L 100.858182 453.490741 
L 102.167805 455.68 
L 104.465455 459.520942 
L 104.795534 460.072727 
L 107.423282 464.465455 
L 108.072727 465.551126 
L 110.051038 468.858182 
L 111.68 471.581247 
L 112.678797 473.250909 
L 115.287273 477.611431 
L 115.306538 477.643636 
L 117.934279 482.036364 
L 118.894545 483.641616 
L 120.562038 486.429091 
L 122.501818 489.67176 
L 123.189774 490.821818 
L 125.817524 495.214545 
L 126.109091 495.701949 
L 128.445271 499.607273 
z
" style="fill:#97b8ff;"/>
    <path clip-path="url(#p48c29fc85f)" d="M 421.905455 504 
L 425.512727 504 
L 429.12 504 
L 429.12 499.607273 
L 429.12 495.214545 
L 429.12 490.821818 
L 429.12 486.429091 
L 429.12 482.036364 
L 429.12 477.643636 
L 429.12 473.250909 
L 429.12 468.858182 
L 429.12 464.465455 
L 429.12 460.072727 
L 429.12 455.68 
L 429.12 451.287273 
L 429.12 446.894545 
L 429.12 442.501818 
L 429.12 438.109091 
L 429.12 433.716364 
L 429.12 429.323636 
L 429.12 424.930909 
L 429.12 420.538182 
L 429.12 416.145455 
L 429.12 411.752727 
L 429.12 407.36 
L 429.12 402.967273 
L 429.12 398.574545 
L 429.12 394.181818 
L 429.12 389.789091 
L 429.12 385.396364 
L 429.12 385.198054 
L 428.552456 381.003636 
L 427.958058 376.610909 
L 427.363671 372.218182 
L 426.769251 367.825455 
L 426.17487 363.432727 
L 425.580472 359.04 
L 425.512727 358.539352 
L 424.986067 354.647273 
L 424.391646 350.254545 
L 423.797237 345.861818 
L 423.20285 341.469091 
L 422.608422 337.076364 
L 422.014027 332.683636 
L 421.905455 331.881292 
L 421.419615 328.290909 
L 420.825218 323.898182 
L 420.23082 319.505455 
L 419.954008 315.112727 
L 419.686158 310.72 
L 419.418306 306.327273 
L 419.150462 301.934545 
L 419.052935 297.541818 
L 419.230499 293.149091 
L 419.453793 288.756364 
L 419.677063 284.363636 
L 419.900344 279.970909 
L 420.123634 275.578182 
L 420.346907 271.185455 
L 420.570183 266.792727 
L 420.793479 262.4 
L 421.016751 258.007273 
L 421.240047 253.614545 
L 421.463318 249.221818 
L 421.686592 244.829091 
L 421.905455 240.52354 
L 421.909886 240.436364 
L 422.133159 236.043636 
L 422.356433 231.650909 
L 422.57972 227.258182 
L 422.803027 222.865455 
L 423.026304 218.472727 
L 423.249582 214.08 
L 423.472871 209.687273 
L 423.696156 205.294545 
L 423.919441 200.901818 
L 424.142729 196.509091 
L 424.365996 192.116364 
L 424.589306 187.723636 
L 424.812572 183.330909 
L 425.035855 178.938182 
L 425.259152 174.545455 
L 425.482426 170.152727 
L 425.512727 169.5566 
L 425.70571 165.76 
L 425.928992 161.367273 
L 426.152279 156.974545 
L 426.375546 152.581818 
L 426.598816 148.189091 
L 426.822112 143.796364 
L 427.045414 139.403636 
L 427.268678 135.010909 
L 427.491992 130.618182 
L 427.715241 126.225455 
L 427.938535 121.832727 
L 428.161831 117.44 
L 428.385081 113.047273 
L 428.608368 108.654545 
L 428.83167 104.261818 
L 429.050324 99.869091 
L 428.901813 95.476364 
L 428.405615 91.083636 
L 427.909414 86.690909 
L 427.413223 82.298182 
L 426.917025 77.905455 
L 426.420814 73.512727 
L 425.924618 69.12 
L 425.512727 69.12 
L 421.905455 69.12 
L 418.298182 69.12 
L 414.690909 69.12 
L 411.083636 69.12 
L 407.476364 69.12 
L 403.869091 69.12 
L 400.261818 69.12 
L 396.654545 69.12 
L 393.047273 69.12 
L 389.44 69.12 
L 385.832727 69.12 
L 384.738269 69.12 
L 385.832727 70.611087 
L 387.962516 73.512727 
L 389.44 75.525714 
L 391.186699 77.905455 
L 393.047273 80.44034 
L 394.410925 82.298182 
L 396.654545 85.354892 
L 397.838682 86.690909 
L 400.261818 89.752738 
L 400.708337 91.083636 
L 401.204526 95.476364 
L 401.700743 99.869091 
L 402.196948 104.261818 
L 402.693142 108.654545 
L 403.189324 113.047273 
L 403.685543 117.44 
L 403.869091 119.064917 
L 404.155213 121.832727 
L 404.167806 126.225455 
L 403.944521 130.618182 
L 403.869091 132.102218 
L 403.721248 135.010909 
L 403.497952 139.403636 
L 403.274668 143.796364 
L 403.051386 148.189091 
L 402.828119 152.581818 
L 402.60483 156.974545 
L 402.381561 161.367273 
L 402.158275 165.76 
L 401.934978 170.152727 
L 401.711707 174.545455 
L 401.488428 178.938182 
L 401.26514 183.330909 
L 401.04184 187.723636 
L 400.818576 192.116364 
L 400.595292 196.509091 
L 400.372005 200.901818 
L 400.261818 203.069437 
L 400.14871 205.294545 
L 399.925437 209.687273 
L 399.702166 214.08 
L 399.47887 218.472727 
L 399.255581 222.865455 
L 399.032302 227.258182 
L 398.809031 231.650909 
L 398.585735 236.043636 
L 398.362457 240.436364 
L 398.139177 244.829091 
L 397.915896 249.221818 
L 397.692612 253.614545 
L 397.469328 258.007273 
L 397.246052 262.4 
L 397.022761 266.792727 
L 396.799488 271.185455 
L 396.654545 274.037122 
L 396.576217 275.578182 
L 396.352921 279.970909 
L 396.129636 284.363636 
L 395.906354 288.756364 
L 395.683058 293.149091 
L 395.459786 297.541818 
L 395.27512 301.934545 
L 395.392082 306.327273 
L 395.659932 310.72 
L 395.927797 315.112727 
L 396.195644 319.505455 
L 396.654545 323.398674 
L 396.713632 323.898182 
L 397.30803 328.290909 
L 397.902436 332.683636 
L 398.496837 337.076364 
L 399.091231 341.469091 
L 399.685622 345.861818 
L 400.261818 350.119873 
L 400.280042 350.254545 
L 400.874444 354.647273 
L 401.468845 359.04 
L 402.063247 363.432727 
L 402.657657 367.825455 
L 403.25206 372.218182 
L 403.846452 376.610909 
L 403.869091 376.778215 
L 404.440854 381.003636 
L 405.035263 385.396364 
L 405.629681 389.789091 
L 406.224075 394.181818 
L 406.818485 398.574545 
L 407.412886 402.967273 
L 407.476364 403.436391 
L 408.007277 407.36 
L 408.601681 411.752727 
L 409.190019 416.145455 
L 409.770142 420.538182 
L 410.349233 424.930909 
L 410.928335 429.323636 
L 411.083636 430.501707 
L 411.507412 433.716364 
L 412.086513 438.109091 
L 412.665595 442.501818 
L 413.244692 446.894545 
L 413.8238 451.287273 
L 414.402879 455.68 
L 414.690909 457.864829 
L 414.981983 460.072727 
L 415.561062 464.465455 
L 416.140179 468.858182 
L 416.719272 473.250909 
L 417.298364 477.643636 
L 417.878203 482.036364 
L 418.298182 485.210247 
L 418.459462 486.429091 
L 419.040707 490.821818 
L 419.621971 495.214545 
L 420.203213 499.607273 
L 420.784459 504 
z
" style="fill:#97b8ff;"/>
   </g>
   <g id="PathCollection_4">
    <path clip-path="url(#p48c29fc85f)" d="M 169.396364 504 
L 173.003636 504 
L 176.610909 504 
L 180.218182 504 
L 183.825455 504 
L 187.432727 504 
L 191.04 504 
L 194.647273 504 
L 198.254545 504 
L 201.861818 504 
L 205.469091 504 
L 207.376658 504 
L 205.469091 502.235111 
L 203.8971 499.607273 
L 201.861818 496.204917 
L 201.269377 495.214545 
L 198.641604 490.821818 
L 198.254545 490.174778 
L 196.013879 486.429091 
L 194.647273 484.144589 
L 193.386116 482.036364 
L 191.04 478.11444 
L 190.758362 477.643636 
L 188.130609 473.250909 
L 187.432727 472.084275 
L 185.50288 468.858182 
L 183.825455 466.054079 
L 182.875131 464.465455 
L 180.247377 460.072727 
L 180.218182 460.023923 
L 177.619633 455.68 
L 176.610909 453.99375 
L 174.991884 451.287273 
L 173.003636 447.963566 
L 172.364143 446.894545 
L 169.736383 442.501818 
L 169.396364 441.933417 
L 167.108641 438.109091 
L 165.789091 435.903233 
L 164.480897 433.716364 
L 162.181818 429.873064 
L 161.853148 429.323636 
L 159.225412 424.930909 
L 158.574545 423.842875 
L 156.597652 420.538182 
L 154.967273 417.812711 
L 153.969913 416.145455 
L 151.36 411.782559 
L 151.342155 411.752727 
L 148.714413 407.36 
L 147.752727 405.752364 
L 146.086672 402.967273 
L 144.145455 399.722225 
L 143.458907 398.574545 
L 140.831152 394.181818 
L 140.538182 393.555663 
L 139.117004 389.789091 
L 137.831437 385.396364 
L 136.930909 382.319258 
L 136.545885 381.003636 
L 135.260318 376.610909 
L 133.974743 372.218182 
L 133.323636 369.993345 
L 132.689195 367.825455 
L 131.403632 363.432727 
L 130.118067 359.04 
L 129.716364 357.667388 
L 128.832507 354.647273 
L 127.388542 350.254545 
L 126.109091 347.832855 
L 124.972688 345.861818 
L 122.501818 341.576211 
L 122.440058 341.469091 
L 119.907438 337.076364 
L 118.894545 335.398885 
L 117.246786 332.683636 
L 115.287273 329.82049 
L 114.240445 328.290909 
L 111.68 324.549681 
L 111.234121 323.898182 
L 108.227775 319.505455 
L 108.072727 319.278906 
L 105.221436 315.112727 
L 104.465455 314.008121 
L 102.215109 310.72 
L 100.858182 308.737315 
L 99.208764 306.327273 
L 97.250909 303.466549 
L 96.202424 301.934545 
L 93.643636 298.19574 
L 93.196098 297.541818 
L 90.189745 293.149091 
L 90.036364 292.924977 
L 87.183408 288.756364 
L 86.429091 287.654199 
L 84.17705 284.363636 
L 82.821818 282.383421 
L 81.170725 279.970909 
L 79.214545 277.112626 
L 78.164388 275.578182 
L 75.607273 271.841837 
L 75.158052 271.185455 
L 72.151705 266.792727 
L 72 266.571062 
L 72 266.792727 
L 72 271.185455 
L 72 275.578182 
L 72 279.970909 
L 72 284.363636 
L 72 288.756364 
L 72 293.149091 
L 72 297.541818 
L 72 301.934545 
L 72 306.327273 
L 72 310.72 
L 72 315.112727 
L 72 316.44926 
L 74.091629 319.505455 
L 75.607273 321.720059 
L 77.097957 323.898182 
L 79.214545 326.990832 
L 80.104305 328.290909 
L 82.821818 332.26164 
L 83.110626 332.683636 
L 85.942162 337.076364 
L 86.429091 337.920918 
L 88.474792 341.469091 
L 90.036364 344.177581 
L 91.007414 345.861818 
L 93.540052 350.254545 
L 93.643636 350.434207 
L 96.072682 354.647273 
L 97.250909 357.057474 
L 98.192993 359.04 
L 99.973728 363.432727 
L 100.858182 365.614509 
L 101.75445 367.825455 
L 103.490413 372.218182 
L 104.465455 375.34036 
L 104.837292 376.610909 
L 106.122846 381.003636 
L 107.408399 385.396364 
L 108.072727 387.666327 
L 108.693973 389.789091 
L 109.979529 394.181818 
L 111.265083 398.574545 
L 111.68 399.992294 
L 112.550654 402.967273 
L 113.836212 407.36 
L 115.121764 411.752727 
L 115.287273 412.318262 
L 116.527589 416.145455 
L 118.871731 420.538182 
L 118.894545 420.576321 
L 121.499477 424.930909 
L 122.501818 426.606493 
L 124.127232 429.323636 
L 126.109091 432.636658 
L 126.754974 433.716364 
L 129.382734 438.109091 
L 129.716364 438.666815 
L 132.010481 442.501818 
L 133.323636 444.696963 
L 134.638236 446.894545 
L 136.930909 450.727147 
L 137.265978 451.287273 
L 139.893719 455.68 
L 140.538182 456.757332 
L 142.52146 460.072727 
L 144.145455 462.787497 
L 145.149221 464.465455 
L 147.752727 468.817669 
L 147.776962 468.858182 
L 150.404695 473.250909 
L 151.36 474.847862 
L 153.032446 477.643636 
L 154.967273 480.878023 
L 155.660198 482.036364 
L 158.287948 486.429091 
L 158.574545 486.90819 
L 160.915688 490.821818 
L 162.181818 492.938344 
L 163.543454 495.214545 
L 165.789091 498.968559 
L 166.171171 499.607273 
L 168.798951 504 
z
" style="fill:#bcd2f7;"/>
    <path clip-path="url(#p48c29fc85f)" d="M 378.618182 504 
L 382.225455 504 
L 385.832727 504 
L 389.44 504 
L 393.047273 504 
L 396.654545 504 
L 400.261818 504 
L 403.869091 504 
L 407.476364 504 
L 411.083636 504 
L 414.690909 504 
L 418.298182 504 
L 420.784459 504 
L 420.203213 499.607273 
L 419.621971 495.214545 
L 419.040707 490.821818 
L 418.459462 486.429091 
L 418.298182 485.210247 
L 417.878203 482.036364 
L 417.298364 477.643636 
L 416.719272 473.250909 
L 416.140179 468.858182 
L 415.561062 464.465455 
L 414.981983 460.072727 
L 414.690909 457.864829 
L 414.402879 455.68 
L 413.8238 451.287273 
L 413.244692 446.894545 
L 412.665595 442.501818 
L 412.086513 438.109091 
L 411.507412 433.716364 
L 411.083636 430.501707 
L 410.928335 429.323636 
L 410.349233 424.930909 
L 409.770142 420.538182 
L 409.190019 416.145455 
L 408.601681 411.752727 
L 408.007277 407.36 
L 407.476364 403.436391 
L 407.412886 402.967273 
L 406.818485 398.574545 
L 406.224075 394.181818 
L 405.629681 389.789091 
L 405.035263 385.396364 
L 404.440854 381.003636 
L 403.869091 376.778215 
L 403.846452 376.610909 
L 403.25206 372.218182 
L 402.657657 367.825455 
L 402.063247 363.432727 
L 401.468845 359.04 
L 400.874444 354.647273 
L 400.280042 350.254545 
L 400.261818 350.119873 
L 399.685622 345.861818 
L 399.091231 341.469091 
L 398.496837 337.076364 
L 397.902436 332.683636 
L 397.30803 328.290909 
L 396.713632 323.898182 
L 396.654545 323.398674 
L 396.195644 319.505455 
L 395.927797 315.112727 
L 395.659932 310.72 
L 395.392082 306.327273 
L 395.27512 301.934545 
L 395.459786 297.541818 
L 395.683058 293.149091 
L 395.906354 288.756364 
L 396.129636 284.363636 
L 396.352921 279.970909 
L 396.576217 275.578182 
L 396.654545 274.037122 
L 396.799488 271.185455 
L 397.022761 266.792727 
L 397.246052 262.4 
L 397.469328 258.007273 
L 397.692612 253.614545 
L 397.915896 249.221818 
L 398.139177 244.829091 
L 398.362457 240.436364 
L 398.585735 236.043636 
L 398.809031 231.650909 
L 399.032302 227.258182 
L 399.255581 222.865455 
L 399.47887 218.472727 
L 399.702166 214.08 
L 399.925437 209.687273 
L 400.14871 205.294545 
L 400.261818 203.069437 
L 400.372005 200.901818 
L 400.595292 196.509091 
L 400.818576 192.116364 
L 401.04184 187.723636 
L 401.26514 183.330909 
L 401.488428 178.938182 
L 401.711707 174.545455 
L 401.934978 170.152727 
L 402.158275 165.76 
L 402.381561 161.367273 
L 402.60483 156.974545 
L 402.828119 152.581818 
L 403.051386 148.189091 
L 403.274668 143.796364 
L 403.497952 139.403636 
L 403.721248 135.010909 
L 403.869091 132.102218 
L 403.944521 130.618182 
L 404.167806 126.225455 
L 404.155213 121.832727 
L 403.869091 119.064917 
L 403.685543 117.44 
L 403.189324 113.047273 
L 402.693142 108.654545 
L 402.196948 104.261818 
L 401.700743 99.869091 
L 401.204526 95.476364 
L 400.708337 91.083636 
L 400.261818 89.752738 
L 397.838682 86.690909 
L 396.654545 85.354892 
L 394.410925 82.298182 
L 393.047273 80.44034 
L 391.186699 77.905455 
L 389.44 75.525714 
L 387.962516 73.512727 
L 385.832727 70.611087 
L 384.738269 69.12 
L 382.225455 69.12 
L 378.618182 69.12 
L 375.010909 69.12 
L 371.403636 69.12 
L 367.796364 69.12 
L 364.189091 69.12 
L 360.581818 69.12 
L 356.974545 69.12 
L 353.367273 69.12 
L 349.76 69.12 
L 346.152727 69.12 
L 342.545455 69.12 
L 338.938182 69.12 
L 335.330909 69.12 
L 331.723636 69.12 
L 330.633444 69.12 
L 331.723636 70.605294 
L 333.857658 73.512727 
L 335.330909 75.51994 
L 337.081846 77.905455 
L 338.938182 80.434545 
L 340.306069 82.298182 
L 342.545455 85.349167 
L 343.530277 86.690909 
L 346.152727 90.263774 
L 346.754501 91.083636 
L 349.76 95.178409 
L 349.978695 95.476364 
L 353.202928 99.869091 
L 353.367273 100.092997 
L 356.427147 104.261818 
L 356.974545 105.007606 
L 359.651332 108.654545 
L 360.581818 109.922248 
L 362.87555 113.047273 
L 364.189091 114.836881 
L 366.351754 117.44 
L 367.796364 118.72801 
L 371.403636 121.460232 
L 371.895431 121.832727 
L 375.010909 124.192432 
L 376.404821 126.225455 
L 377.476855 130.618182 
L 377.973054 135.010909 
L 378.469262 139.403636 
L 378.618182 140.721985 
L 378.96546 143.796364 
L 379.370467 148.189091 
L 379.280671 152.581818 
L 379.057396 156.974545 
L 378.834113 161.367273 
L 378.618182 165.615327 
L 378.610828 165.76 
L 378.387538 170.152727 
L 378.164247 174.545455 
L 377.940977 178.938182 
L 377.717705 183.330909 
L 377.494414 187.723636 
L 377.271125 192.116364 
L 377.047864 196.509091 
L 376.82457 200.901818 
L 376.601303 205.294545 
L 376.378007 209.687273 
L 376.15472 214.08 
L 375.931438 218.472727 
L 375.708166 222.865455 
L 375.484881 227.258182 
L 375.261596 231.650909 
L 375.038312 236.043636 
L 375.010909 236.582743 
L 374.815028 240.436364 
L 374.591733 244.829091 
L 374.368459 249.221818 
L 374.145174 253.614545 
L 373.921894 258.007273 
L 373.698617 262.4 
L 373.475329 266.792727 
L 373.252039 271.185455 
L 373.028764 275.578182 
L 372.805487 279.970909 
L 372.582197 284.363636 
L 372.358915 288.756364 
L 372.135628 293.149091 
L 371.912347 297.541818 
L 371.689069 301.934545 
L 371.4973 306.327273 
L 371.633703 310.72 
L 371.901556 315.112727 
L 372.169402 319.505455 
L 372.602026 323.898182 
L 373.196419 328.290909 
L 373.790817 332.683636 
L 374.385217 337.076364 
L 374.979624 341.469091 
L 375.010909 341.700285 
L 375.574044 345.861818 
L 376.168438 350.254545 
L 376.762844 354.647273 
L 377.357243 359.04 
L 377.951645 363.432727 
L 378.546046 367.825455 
L 378.618182 368.358549 
L 379.14045 372.218182 
L 379.734849 376.610909 
L 380.32926 381.003636 
L 380.923665 385.396364 
L 381.518057 389.789091 
L 382.112468 394.181818 
L 382.225455 395.016806 
L 382.70687 398.574545 
L 383.301276 402.967273 
L 383.895679 407.36 
L 384.490087 411.752727 
L 385.084481 416.145455 
L 385.678878 420.538182 
L 385.832727 421.67513 
L 386.273293 424.930909 
L 386.867681 429.323636 
L 387.462095 433.716364 
L 388.056493 438.109091 
L 388.64915 442.501818 
L 389.230964 446.894545 
L 389.44 448.480206 
L 389.810054 451.287273 
L 390.389149 455.68 
L 390.96849 460.072727 
L 391.549296 464.465455 
L 392.130549 468.858182 
L 392.711811 473.250909 
L 393.047273 475.786103 
L 393.293065 477.643636 
L 393.047273 480.866934 
L 392.837593 482.036364 
L 389.608169 486.429091 
L 389.44 486.657841 
L 386.378814 490.821818 
L 385.832727 491.564616 
L 383.14941 495.214545 
L 382.225455 496.471354 
L 379.920025 499.607273 
L 378.618182 501.378066 
L 376.690616 504 
z
" style="fill:#bcd2f7;"/>
   </g>
   <g id="PathCollection_5">
    <path clip-path="url(#p48c29fc85f)" d="M 205.469091 502.235111 
L 207.376658 504 
L 209.076364 504 
L 212.683636 504 
L 216.290909 504 
L 219.898182 504 
L 223.505455 504 
L 227.112727 504 
L 230.72 504 
L 234.327273 504 
L 237.934545 504 
L 241.541818 504 
L 245.149091 504 
L 248.756364 504 
L 252.363636 504 
L 255.970909 504 
L 259.578182 504 
L 263.185455 504 
L 266.792727 504 
L 270.4 504 
L 274.007273 504 
L 277.614545 504 
L 281.221818 504 
L 284.829091 504 
L 288.436364 504 
L 292.043636 504 
L 295.650909 504 
L 299.258182 504 
L 302.865455 504 
L 306.472727 504 
L 310.08 504 
L 313.687273 504 
L 317.294545 504 
L 320.901818 504 
L 324.509091 504 
L 328.116364 504 
L 331.723636 504 
L 335.330909 504 
L 338.938182 504 
L 342.545455 504 
L 346.152727 504 
L 349.76 504 
L 353.367273 504 
L 356.974545 504 
L 360.581818 504 
L 364.189091 504 
L 367.796364 504 
L 371.403636 504 
L 375.010909 504 
L 376.690616 504 
L 378.618182 501.378066 
L 379.920025 499.607273 
L 382.225455 496.471354 
L 383.14941 495.214545 
L 385.832727 491.564616 
L 386.378814 490.821818 
L 389.44 486.657841 
L 389.608169 486.429091 
L 392.837593 482.036364 
L 393.047273 480.866934 
L 393.293065 477.643636 
L 393.047273 475.786103 
L 392.711811 473.250909 
L 392.130549 468.858182 
L 391.549296 464.465455 
L 390.96849 460.072727 
L 390.389149 455.68 
L 389.810054 451.287273 
L 389.44 448.480206 
L 389.230964 446.894545 
L 388.64915 442.501818 
L 388.056493 438.109091 
L 387.462095 433.716364 
L 386.867681 429.323636 
L 386.273293 424.930909 
L 385.832727 421.67513 
L 385.678878 420.538182 
L 385.084481 416.145455 
L 384.490087 411.752727 
L 383.895679 407.36 
L 383.301276 402.967273 
L 382.70687 398.574545 
L 382.225455 395.016806 
L 382.112468 394.181818 
L 381.518057 389.789091 
L 380.923665 385.396364 
L 380.32926 381.003636 
L 379.734849 376.610909 
L 379.14045 372.218182 
L 378.618182 368.358549 
L 378.546046 367.825455 
L 377.951645 363.432727 
L 377.357243 359.04 
L 376.762844 354.647273 
L 376.168438 350.254545 
L 375.574044 345.861818 
L 375.010909 341.700285 
L 374.979624 341.469091 
L 374.385217 337.076364 
L 373.790817 332.683636 
L 373.196419 328.290909 
L 372.602026 323.898182 
L 372.169402 319.505455 
L 371.901556 315.112727 
L 371.633703 310.72 
L 371.4973 306.327273 
L 371.689069 301.934545 
L 371.912347 297.541818 
L 372.135628 293.149091 
L 372.358915 288.756364 
L 372.582197 284.363636 
L 372.805487 279.970909 
L 373.028764 275.578182 
L 373.252039 271.185455 
L 373.475329 266.792727 
L 373.698617 262.4 
L 373.921894 258.007273 
L 374.145174 253.614545 
L 374.368459 249.221818 
L 374.591733 244.829091 
L 374.815028 240.436364 
L 375.010909 236.582743 
L 375.038312 236.043636 
L 375.261596 231.650909 
L 375.484881 227.258182 
L 375.708166 222.865455 
L 375.931438 218.472727 
L 376.15472 214.08 
L 376.378007 209.687273 
L 376.601303 205.294545 
L 376.82457 200.901818 
L 377.047864 196.509091 
L 377.271125 192.116364 
L 377.494414 187.723636 
L 377.717705 183.330909 
L 377.940977 178.938182 
L 378.164247 174.545455 
L 378.387538 170.152727 
L 378.610828 165.76 
L 378.618182 165.615327 
L 378.834113 161.367273 
L 379.057396 156.974545 
L 379.280671 152.581818 
L 379.370467 148.189091 
L 378.96546 143.796364 
L 378.618182 140.721985 
L 378.469262 139.403636 
L 377.973054 135.010909 
L 377.476855 130.618182 
L 376.404821 126.225455 
L 375.010909 124.192432 
L 371.895431 121.832727 
L 371.403636 121.460232 
L 367.796364 118.72801 
L 366.351754 117.44 
L 364.189091 114.836881 
L 362.87555 113.047273 
L 360.581818 109.922248 
L 359.651332 108.654545 
L 356.974545 105.007606 
L 356.427147 104.261818 
L 353.367273 100.092997 
L 353.202928 99.869091 
L 349.978695 95.476364 
L 349.76 95.178409 
L 346.754501 91.083636 
L 346.152727 90.263774 
L 343.530277 86.690909 
L 342.545455 85.349167 
L 340.306069 82.298182 
L 338.938182 80.434545 
L 337.081846 77.905455 
L 335.330909 75.51994 
L 333.857658 73.512727 
L 331.723636 70.605294 
L 330.633444 69.12 
L 328.116364 69.12 
L 324.509091 69.12 
L 320.901818 69.12 
L 317.294545 69.12 
L 313.687273 69.12 
L 310.08 69.12 
L 306.472727 69.12 
L 302.865455 69.12 
L 299.258182 69.12 
L 295.650909 69.12 
L 292.043636 69.12 
L 288.436364 69.12 
L 284.829091 69.12 
L 281.221818 69.12 
L 277.614545 69.12 
L 274.007273 69.12 
L 270.4 69.12 
L 266.792727 69.12 
L 263.185455 69.12 
L 259.578182 69.12 
L 255.970909 69.12 
L 252.363636 69.12 
L 248.756364 69.12 
L 245.149091 69.12 
L 241.541818 69.12 
L 237.934545 69.12 
L 234.327273 69.12 
L 233.138353 69.12 
L 234.327273 69.558601 
L 237.934545 70.956884 
L 241.541818 72.357175 
L 244.51846 73.512727 
L 245.149091 73.757545 
L 248.756364 75.157833 
L 252.363636 76.558169 
L 255.834254 77.905455 
L 255.970909 77.958502 
L 259.578182 79.358833 
L 263.185455 80.759111 
L 266.792727 82.159461 
L 267.150081 82.298182 
L 270.4 83.559756 
L 274.007273 84.960068 
L 277.614545 86.360402 
L 278.465931 86.690909 
L 281.221818 87.760731 
L 284.829091 89.16104 
L 288.436364 90.561363 
L 289.781748 91.083636 
L 292.043636 91.96169 
L 295.650909 95.172597 
L 295.87387 95.476364 
L 299.098076 99.869091 
L 299.258182 100.087222 
L 302.322308 104.261818 
L 302.865455 105.00181 
L 305.546517 108.654545 
L 306.472727 109.916439 
L 308.770719 113.047273 
L 310.08 114.831036 
L 311.994964 117.44 
L 313.687273 119.745635 
L 315.219173 121.832727 
L 317.294545 124.660282 
L 318.443362 126.225455 
L 320.901818 129.574908 
L 321.667568 130.618182 
L 324.509091 134.489502 
L 324.891801 135.010909 
L 328.116006 139.403636 
L 328.116364 139.404124 
L 331.340214 143.796364 
L 331.723636 144.318746 
L 334.749433 148.189091 
L 335.330909 148.740029 
L 338.938182 151.472201 
L 340.403179 152.581818 
L 342.545455 154.20444 
L 346.152727 156.936664 
L 346.202741 156.974545 
L 349.76 159.668858 
L 352.002368 161.367273 
L 353.367273 163.908997 
L 353.749174 165.76 
L 354.245394 170.152727 
L 354.562566 174.545455 
L 354.39354 178.938182 
L 354.170266 183.330909 
L 353.946997 187.723636 
L 353.723693 192.116364 
L 353.500419 196.509091 
L 353.367273 199.128516 
L 353.277135 200.901818 
L 353.053856 205.294545 
L 352.830568 209.687273 
L 352.607284 214.08 
L 352.384 218.472727 
L 352.160728 222.865455 
L 351.93744 227.258182 
L 351.714163 231.650909 
L 351.490871 236.043636 
L 351.267603 240.436364 
L 351.044314 244.829091 
L 350.821026 249.221818 
L 350.597754 253.614545 
L 350.37447 258.007273 
L 350.151187 262.4 
L 349.927903 266.792727 
L 349.76 270.09602 
L 349.704625 271.185455 
L 349.481335 275.578182 
L 349.258062 279.970909 
L 349.034776 284.363636 
L 348.81149 288.756364 
L 348.5882 293.149091 
L 348.364924 297.541818 
L 348.141645 301.934545 
L 347.918349 306.327273 
L 347.719488 310.72 
L 347.87533 315.112727 
L 348.143185 319.505455 
L 348.490423 323.898182 
L 349.084824 328.290909 
L 349.679218 332.683636 
L 349.76 333.280626 
L 350.27362 337.076364 
L 350.868022 341.469091 
L 351.46243 345.861818 
L 352.056829 350.254545 
L 352.651229 354.647273 
L 353.24564 359.04 
L 353.367273 359.938902 
L 353.840031 363.432727 
L 354.434435 367.825455 
L 355.028839 372.218182 
L 355.623247 376.610909 
L 356.217649 381.003636 
L 356.812056 385.396364 
L 356.974545 386.597173 
L 357.406464 389.789091 
L 358.000858 394.181818 
L 358.595267 398.574545 
L 359.18966 402.967273 
L 359.784068 407.36 
L 360.378473 411.752727 
L 360.581818 413.255488 
L 360.972873 416.145455 
L 361.567274 420.538182 
L 362.161674 424.930909 
L 362.756084 429.323636 
L 363.35048 433.716364 
L 363.943017 438.109091 
L 364.189091 439.910223 
L 364.540353 442.501818 
L 364.189091 443.712092 
L 362.00543 446.894545 
L 360.581818 448.830685 
L 358.77553 451.287273 
L 356.974545 453.736647 
L 355.545636 455.68 
L 353.367273 458.642615 
L 352.315738 460.072727 
L 349.76 463.548594 
L 349.085845 464.465455 
L 346.152727 468.45457 
L 345.85596 468.858182 
L 342.626059 473.250909 
L 342.545455 473.360511 
L 339.387885 477.643636 
L 338.938182 478.253229 
L 336.147322 482.036364 
L 335.330909 483.143023 
L 332.906696 486.429091 
L 331.723636 488.032794 
L 328.116364 488.178954 
L 324.509091 487.052827 
L 322.511128 486.429091 
L 320.901818 485.926692 
L 317.294545 484.800594 
L 313.687273 483.674462 
L 310.08 482.548353 
L 308.439954 482.036364 
L 306.472727 481.422231 
L 302.865455 480.296114 
L 299.258182 479.169983 
L 295.650909 478.043853 
L 294.368911 477.643636 
L 292.043636 476.917729 
L 288.436364 475.791606 
L 284.829091 474.665491 
L 281.221818 473.539372 
L 280.297794 473.250909 
L 277.614545 472.413243 
L 274.007273 471.287129 
L 270.4 470.160995 
L 266.792727 469.03487 
L 266.22675 468.858182 
L 263.185455 467.908746 
L 259.578182 466.782618 
L 255.970909 465.656501 
L 252.363636 464.530389 
L 252.155634 464.465455 
L 248.756364 463.404263 
L 245.149091 462.452281 
L 241.541818 461.915204 
L 237.934545 461.378106 
L 234.327273 460.841013 
L 230.72 460.303924 
L 229.16724 460.072727 
L 227.112727 459.766824 
L 223.505455 459.229743 
L 219.898182 458.692661 
L 216.290909 457.260317 
L 215.345552 455.68 
L 212.717811 451.287273 
L 212.683636 451.230144 
L 210.09005 446.894545 
L 209.076364 445.199992 
L 207.462313 442.501818 
L 205.469091 439.169803 
L 204.834568 438.109091 
L 202.206816 433.716364 
L 201.861818 433.139641 
L 199.579078 429.323636 
L 198.254545 427.109454 
L 196.951321 424.930909 
L 194.647273 421.079288 
L 194.323583 420.538182 
L 191.69583 416.145455 
L 191.04 415.049125 
L 189.068077 411.752727 
L 187.432727 409.018969 
L 186.440326 407.36 
L 183.825455 402.98878 
L 183.812589 402.967273 
L 181.184833 398.574545 
L 180.218182 396.958624 
L 178.557086 394.181818 
L 176.610909 390.928475 
L 175.929324 389.789091 
L 173.301576 385.396364 
L 173.003636 384.898307 
L 170.673834 381.003636 
L 169.396364 378.868122 
L 168.046092 376.610909 
L 165.789091 372.837966 
L 165.418334 372.218182 
L 163.184124 367.825455 
L 162.181818 364.646346 
L 161.826645 363.432727 
L 160.541087 359.04 
L 159.255523 354.647273 
L 158.574545 352.320389 
L 157.969963 350.254545 
L 156.630588 345.861818 
L 154.967273 342.045847 
L 154.712767 341.469091 
L 152.749006 337.076364 
L 151.36 333.969314 
L 150.785241 332.683636 
L 148.342344 328.290909 
L 147.752727 327.379325 
L 145.370268 323.898182 
L 144.145455 322.10854 
L 142.363925 319.505455 
L 140.538182 316.837767 
L 139.357582 315.112727 
L 136.930909 311.56696 
L 136.351258 310.72 
L 133.344906 306.327273 
L 133.323636 306.296195 
L 130.338566 301.934545 
L 129.716364 301.025407 
L 127.332232 297.541818 
L 126.109091 295.754619 
L 124.325895 293.149091 
L 122.501818 290.483831 
L 121.319555 288.756364 
L 118.894545 285.213055 
L 118.313213 284.363636 
L 115.306875 279.970909 
L 115.287273 279.942267 
L 112.300537 275.578182 
L 111.68 274.671479 
L 109.294201 271.185455 
L 108.072727 269.400696 
L 106.287856 266.792727 
L 104.465455 264.129915 
L 103.281521 262.4 
L 100.858182 258.859125 
L 100.27518 258.007273 
L 99.159343 253.614545 
L 99.230426 249.221818 
L 99.301529 244.829091 
L 99.359232 240.436364 
L 99.386309 236.043636 
L 99.411116 231.650909 
L 99.435915 227.258182 
L 99.460716 222.865455 
L 99.485512 218.472727 
L 99.51032 214.08 
L 99.535109 209.687273 
L 99.559916 205.294545 
L 99.584716 200.901818 
L 99.609501 196.509091 
L 99.634332 192.116364 
L 99.659109 187.723636 
L 99.683917 183.330909 
L 99.708713 178.938182 
L 99.733508 174.545455 
L 99.758309 170.152727 
L 99.78311 165.76 
L 99.807924 161.367273 
L 99.832705 156.974545 
L 99.857513 152.581818 
L 99.882304 148.189091 
L 99.907109 143.796364 
L 99.931911 139.403636 
L 99.956701 135.010909 
L 99.981515 130.618182 
L 100.00632 126.225455 
L 100.031122 121.832727 
L 100.055904 117.44 
L 100.080693 113.047273 
L 100.105497 108.654545 
L 100.130325 104.261818 
L 100.858182 101.875178 
L 102.470717 99.869091 
L 104.465455 98.312389 
L 108.072727 95.497234 
L 108.095517 95.476364 
L 111.68 91.981994 
L 112.575747 91.083636 
L 115.287273 88.364223 
L 116.955758 86.690909 
L 118.894545 84.746487 
L 121.335756 82.298182 
L 122.501818 81.128738 
L 125.715712 77.905455 
L 126.109091 77.510929 
L 129.716364 73.89317 
L 130.095708 73.512727 
L 133.323636 70.275482 
L 134.475761 69.12 
L 133.323636 69.12 
L 129.716364 69.12 
L 126.109091 69.12 
L 122.501818 69.12 
L 118.894545 69.12 
L 115.287273 69.12 
L 111.68 69.12 
L 108.072727 69.12 
L 104.465455 69.12 
L 100.858182 69.12 
L 97.250909 69.12 
L 93.643636 69.12 
L 90.036364 69.12 
L 86.429091 69.12 
L 82.821818 69.12 
L 79.214545 69.12 
L 75.607273 69.12 
L 72 69.12 
L 72 73.512727 
L 72 77.905455 
L 72 82.298182 
L 72 86.690909 
L 72 91.083636 
L 72 95.476364 
L 72 99.869091 
L 72 104.261818 
L 72 108.654545 
L 72 113.047273 
L 72 117.44 
L 72 121.832727 
L 72 126.225455 
L 72 130.618182 
L 72 135.010909 
L 72 139.403636 
L 72 143.796364 
L 72 148.189091 
L 72 152.581818 
L 72 156.974545 
L 72 161.367273 
L 72 165.76 
L 72 170.152727 
L 72 174.545455 
L 72 178.938182 
L 72 183.330909 
L 72 187.723636 
L 72 192.116364 
L 72 196.509091 
L 72 200.901818 
L 72 205.294545 
L 72 209.687273 
L 72 214.08 
L 72 218.472727 
L 72 222.865455 
L 72 227.258182 
L 72 231.650909 
L 72 236.043636 
L 72 240.436364 
L 72 244.829091 
L 72 249.221818 
L 72 253.614545 
L 72 258.007273 
L 72 262.4 
L 72 266.571062 
L 72.151705 266.792727 
L 75.158052 271.185455 
L 75.607273 271.841837 
L 78.164388 275.578182 
L 79.214545 277.112626 
L 81.170725 279.970909 
L 82.821818 282.383421 
L 84.17705 284.363636 
L 86.429091 287.654199 
L 87.183408 288.756364 
L 90.036364 292.924977 
L 90.189745 293.149091 
L 93.196098 297.541818 
L 93.643636 298.19574 
L 96.202424 301.934545 
L 97.250909 303.466549 
L 99.208764 306.327273 
L 100.858182 308.737315 
L 102.215109 310.72 
L 104.465455 314.008121 
L 105.221436 315.112727 
L 108.072727 319.278906 
L 108.227775 319.505455 
L 111.234121 323.898182 
L 111.68 324.549681 
L 114.240445 328.290909 
L 115.287273 329.82049 
L 117.246786 332.683636 
L 118.894545 335.398885 
L 119.907438 337.076364 
L 122.440058 341.469091 
L 122.501818 341.576211 
L 124.972688 345.861818 
L 126.109091 347.832855 
L 127.388542 350.254545 
L 128.832507 354.647273 
L 129.716364 357.667388 
L 130.118067 359.04 
L 131.403632 363.432727 
L 132.689195 367.825455 
L 133.323636 369.993345 
L 133.974743 372.218182 
L 135.260318 376.610909 
L 136.545885 381.003636 
L 136.930909 382.319258 
L 137.831437 385.396364 
L 139.117004 389.789091 
L 140.538182 393.555663 
L 140.831152 394.181818 
L 143.458907 398.574545 
L 144.145455 399.722225 
L 146.086672 402.967273 
L 147.752727 405.752364 
L 148.714413 407.36 
L 151.342155 411.752727 
L 151.36 411.782559 
L 153.969913 416.145455 
L 154.967273 417.812711 
L 156.597652 420.538182 
L 158.574545 423.842875 
L 159.225412 424.930909 
L 161.853148 429.323636 
L 162.181818 429.873064 
L 164.480897 433.716364 
L 165.789091 435.903233 
L 167.108641 438.109091 
L 169.396364 441.933417 
L 169.736383 442.501818 
L 172.364143 446.894545 
L 173.003636 447.963566 
L 174.991884 451.287273 
L 176.610909 453.99375 
L 177.619633 455.68 
L 180.218182 460.023923 
L 180.247377 460.072727 
L 182.875131 464.465455 
L 183.825455 466.054079 
L 185.50288 468.858182 
L 187.432727 472.084275 
L 188.130609 473.250909 
L 190.758362 477.643636 
L 191.04 478.11444 
L 193.386116 482.036364 
L 194.647273 484.144589 
L 196.013879 486.429091 
L 198.254545 490.174778 
L 198.641604 490.821818 
L 201.269377 495.214545 
L 201.861818 496.204917 
L 203.8971 499.607273 
z
" style="fill:#dddcdc;"/>
   </g>
   <g id="PathCollection_6">
    <path clip-path="url(#p48c29fc85f)" d="M 324.509091 487.052827 
L 328.116364 488.178954 
L 331.723636 488.032794 
L 332.906696 486.429091 
L 335.330909 483.143023 
L 336.147322 482.036364 
L 338.938182 478.253229 
L 339.387885 477.643636 
L 342.545455 473.360511 
L 342.626059 473.250909 
L 345.85596 468.858182 
L 346.152727 468.45457 
L 349.085845 464.465455 
L 349.76 463.548594 
L 352.315738 460.072727 
L 353.367273 458.642615 
L 355.545636 455.68 
L 356.974545 453.736647 
L 358.77553 451.287273 
L 360.581818 448.830685 
L 362.00543 446.894545 
L 364.189091 443.712092 
L 364.540353 442.501818 
L 364.189091 439.910223 
L 363.943017 438.109091 
L 363.35048 433.716364 
L 362.756084 429.323636 
L 362.161674 424.930909 
L 361.567274 420.538182 
L 360.972873 416.145455 
L 360.581818 413.255488 
L 360.378473 411.752727 
L 359.784068 407.36 
L 359.18966 402.967273 
L 358.595267 398.574545 
L 358.000858 394.181818 
L 357.406464 389.789091 
L 356.974545 386.597173 
L 356.812056 385.396364 
L 356.217649 381.003636 
L 355.623247 376.610909 
L 355.028839 372.218182 
L 354.434435 367.825455 
L 353.840031 363.432727 
L 353.367273 359.938902 
L 353.24564 359.04 
L 352.651229 354.647273 
L 352.056829 350.254545 
L 351.46243 345.861818 
L 350.868022 341.469091 
L 350.27362 337.076364 
L 349.76 333.280626 
L 349.679218 332.683636 
L 349.084824 328.290909 
L 348.490423 323.898182 
L 348.143185 319.505455 
L 347.87533 315.112727 
L 347.719488 310.72 
L 347.918349 306.327273 
L 348.141645 301.934545 
L 348.364924 297.541818 
L 348.5882 293.149091 
L 348.81149 288.756364 
L 349.034776 284.363636 
L 349.258062 279.970909 
L 349.481335 275.578182 
L 349.704625 271.185455 
L 349.76 270.09602 
L 349.927903 266.792727 
L 350.151187 262.4 
L 350.37447 258.007273 
L 350.597754 253.614545 
L 350.821026 249.221818 
L 351.044314 244.829091 
L 351.267603 240.436364 
L 351.490871 236.043636 
L 351.714163 231.650909 
L 351.93744 227.258182 
L 352.160728 222.865455 
L 352.384 218.472727 
L 352.607284 214.08 
L 352.830568 209.687273 
L 353.053856 205.294545 
L 353.277135 200.901818 
L 353.367273 199.128516 
L 353.500419 196.509091 
L 353.723693 192.116364 
L 353.946997 187.723636 
L 354.170266 183.330909 
L 354.39354 178.938182 
L 354.562566 174.545455 
L 354.245394 170.152727 
L 353.749174 165.76 
L 353.367273 163.908997 
L 352.002368 161.367273 
L 349.76 159.668858 
L 346.202741 156.974545 
L 346.152727 156.936664 
L 342.545455 154.20444 
L 340.403179 152.581818 
L 338.938182 151.472201 
L 335.330909 148.740029 
L 334.749433 148.189091 
L 331.723636 144.318746 
L 331.340214 143.796364 
L 328.116364 139.404124 
L 328.116006 139.403636 
L 324.891801 135.010909 
L 324.509091 134.489502 
L 321.667568 130.618182 
L 320.901818 129.574908 
L 318.443362 126.225455 
L 317.294545 124.660282 
L 315.219173 121.832727 
L 313.687273 119.745635 
L 311.994964 117.44 
L 310.08 114.831036 
L 308.770719 113.047273 
L 306.472727 109.916439 
L 305.546517 108.654545 
L 302.865455 105.00181 
L 302.322308 104.261818 
L 299.258182 100.087222 
L 299.098076 99.869091 
L 295.87387 95.476364 
L 295.650909 95.172597 
L 292.043636 91.96169 
L 289.781748 91.083636 
L 288.436364 90.561363 
L 284.829091 89.16104 
L 281.221818 87.760731 
L 278.465931 86.690909 
L 277.614545 86.360402 
L 274.007273 84.960068 
L 270.4 83.559756 
L 267.150081 82.298182 
L 266.792727 82.159461 
L 263.185455 80.759111 
L 259.578182 79.358833 
L 255.970909 77.958502 
L 255.834254 77.905455 
L 252.363636 76.558169 
L 248.756364 75.157833 
L 245.149091 73.757545 
L 244.51846 73.512727 
L 241.541818 72.357175 
L 237.934545 70.956884 
L 234.327273 69.558601 
L 233.138353 69.12 
L 230.72 69.12 
L 227.112727 69.12 
L 223.505455 69.12 
L 219.898182 69.12 
L 216.290909 69.12 
L 212.683636 69.12 
L 209.076364 69.12 
L 205.469091 69.12 
L 201.861818 69.12 
L 198.254545 69.12 
L 194.647273 69.12 
L 191.04 69.12 
L 187.432727 69.12 
L 183.825455 69.12 
L 180.218182 69.12 
L 176.610909 69.12 
L 173.003636 69.12 
L 169.396364 69.12 
L 165.789091 69.12 
L 162.181818 69.12 
L 158.574545 69.12 
L 154.967273 69.12 
L 151.36 69.12 
L 147.752727 69.12 
L 144.145455 69.12 
L 140.538182 69.12 
L 136.930909 69.12 
L 134.475761 69.12 
L 133.323636 70.275482 
L 130.095708 73.512727 
L 129.716364 73.89317 
L 126.109091 77.510929 
L 125.715712 77.905455 
L 122.501818 81.128738 
L 121.335756 82.298182 
L 118.894545 84.746487 
L 116.955758 86.690909 
L 115.287273 88.364223 
L 112.575747 91.083636 
L 111.68 91.981994 
L 108.095517 95.476364 
L 108.072727 95.497234 
L 104.465455 98.312389 
L 102.470717 99.869091 
L 100.858182 101.875178 
L 100.130325 104.261818 
L 100.105497 108.654545 
L 100.080693 113.047273 
L 100.055904 117.44 
L 100.031122 121.832727 
L 100.00632 126.225455 
L 99.981515 130.618182 
L 99.956701 135.010909 
L 99.931911 139.403636 
L 99.907109 143.796364 
L 99.882304 148.189091 
L 99.857513 152.581818 
L 99.832705 156.974545 
L 99.807924 161.367273 
L 99.78311 165.76 
L 99.758309 170.152727 
L 99.733508 174.545455 
L 99.708713 178.938182 
L 99.683917 183.330909 
L 99.659109 187.723636 
L 99.634332 192.116364 
L 99.609501 196.509091 
L 99.584716 200.901818 
L 99.559916 205.294545 
L 99.535109 209.687273 
L 99.51032 214.08 
L 99.485512 218.472727 
L 99.460716 222.865455 
L 99.435915 227.258182 
L 99.411116 231.650909 
L 99.386309 236.043636 
L 99.359232 240.436364 
L 99.301529 244.829091 
L 99.230426 249.221818 
L 99.159343 253.614545 
L 100.27518 258.007273 
L 100.858182 258.859125 
L 103.281521 262.4 
L 104.465455 264.129915 
L 106.287856 266.792727 
L 108.072727 269.400696 
L 109.294201 271.185455 
L 111.68 274.671479 
L 112.300537 275.578182 
L 115.287273 279.942267 
L 115.306875 279.970909 
L 118.313213 284.363636 
L 118.894545 285.213055 
L 121.319555 288.756364 
L 122.501818 290.483831 
L 124.325895 293.149091 
L 126.109091 295.754619 
L 127.332232 297.541818 
L 129.716364 301.025407 
L 130.338566 301.934545 
L 133.323636 306.296195 
L 133.344906 306.327273 
L 136.351258 310.72 
L 136.930909 311.56696 
L 139.357582 315.112727 
L 140.538182 316.837767 
L 142.363925 319.505455 
L 144.145455 322.10854 
L 145.370268 323.898182 
L 147.752727 327.379325 
L 148.342344 328.290909 
L 150.785241 332.683636 
L 151.36 333.969314 
L 152.749006 337.076364 
L 154.712767 341.469091 
L 154.967273 342.045847 
L 156.630588 345.861818 
L 157.969963 350.254545 
L 158.574545 352.320389 
L 159.255523 354.647273 
L 160.541087 359.04 
L 161.826645 363.432727 
L 162.181818 364.646346 
L 163.184124 367.825455 
L 165.418334 372.218182 
L 165.789091 372.837966 
L 168.046092 376.610909 
L 169.396364 378.868122 
L 170.673834 381.003636 
L 173.003636 384.898307 
L 173.301576 385.396364 
L 175.929324 389.789091 
L 176.610909 390.928475 
L 178.557086 394.181818 
L 180.218182 396.958624 
L 181.184833 398.574545 
L 183.812589 402.967273 
L 183.825455 402.98878 
L 186.440326 407.36 
L 187.432727 409.018969 
L 189.068077 411.752727 
L 191.04 415.049125 
L 191.69583 416.145455 
L 194.323583 420.538182 
L 194.647273 421.079288 
L 196.951321 424.930909 
L 198.254545 427.109454 
L 199.579078 429.323636 
L 201.861818 433.139641 
L 202.206816 433.716364 
L 204.834568 438.109091 
L 205.469091 439.169803 
L 207.462313 442.501818 
L 209.076364 445.199992 
L 210.09005 446.894545 
L 212.683636 451.230144 
L 212.717811 451.287273 
L 215.345552 455.68 
L 216.290909 457.260317 
L 219.898182 458.692661 
L 223.505455 459.229743 
L 227.112727 459.766824 
L 229.16724 460.072727 
L 230.72 460.303924 
L 234.327273 460.841013 
L 237.934545 461.378106 
L 241.541818 461.915204 
L 245.149091 462.452281 
L 248.756364 463.404263 
L 252.155634 464.465455 
L 252.363636 464.530389 
L 255.970909 465.656501 
L 259.578182 466.782618 
L 263.185455 467.908746 
L 266.22675 468.858182 
L 266.792727 469.03487 
L 270.4 470.160995 
L 274.007273 471.287129 
L 277.614545 472.413243 
L 280.297794 473.250909 
L 281.221818 473.539372 
L 284.829091 474.665491 
L 288.436364 475.791606 
L 292.043636 476.917729 
L 294.368911 477.643636 
L 295.650909 478.043853 
L 299.258182 479.169983 
L 302.865455 480.296114 
L 306.472727 481.422231 
L 308.439954 482.036364 
L 310.08 482.548353 
L 313.687273 483.674462 
L 317.294545 484.800594 
L 320.901818 485.926692 
L 322.511128 486.429091 
z
M 297.807208 433.716364 
L 295.650909 433.043212 
L 292.043636 431.917095 
L 288.436364 430.790965 
L 284.829091 429.664847 
L 283.7361 429.323636 
L 281.221818 428.538727 
L 277.614545 427.412598 
L 274.007273 426.286482 
L 270.4 425.160366 
L 269.664989 424.930909 
L 266.792727 424.034238 
L 263.185455 422.908109 
L 259.578182 421.781979 
L 255.970909 420.655863 
L 255.593942 420.538182 
L 252.363636 419.529746 
L 248.756364 418.403614 
L 245.149091 417.277493 
L 241.541818 416.151383 
L 241.522829 416.145455 
L 237.934545 415.025247 
L 234.327273 413.899125 
L 230.72 412.773004 
L 227.427713 411.752727 
L 227.112727 411.642461 
L 224.126353 407.36 
L 223.505455 406.255391 
L 221.538491 402.967273 
L 219.898182 400.225217 
L 218.910743 398.574545 
L 216.290909 394.195042 
L 216.282999 394.181818 
L 213.655256 389.789091 
L 212.683636 388.164861 
L 211.027506 385.396364 
L 209.076364 382.134705 
L 208.399752 381.003636 
L 205.772004 376.610909 
L 205.469091 376.104539 
L 203.144255 372.218182 
L 201.861818 370.074364 
L 200.51651 367.825455 
L 198.254545 364.044198 
L 197.888762 363.432727 
L 195.261013 359.04 
L 194.647273 358.014029 
L 192.633264 354.647273 
L 191.04 351.983861 
L 190.005513 350.254545 
L 187.432727 345.953702 
L 187.384658 345.861818 
L 185.821866 341.469091 
L 183.976032 337.076364 
L 183.825455 336.739538 
L 182.012267 332.683636 
L 180.218182 329.122978 
L 179.796994 328.290909 
L 177.400505 323.898182 
L 176.610909 322.450859 
L 175.004032 319.505455 
L 173.003636 315.838732 
L 172.60756 315.112727 
L 170.211083 310.72 
L 169.396364 309.330103 
L 167.481051 306.327273 
L 165.789091 303.855068 
L 164.474704 301.934545 
L 162.181818 298.584268 
L 161.468377 297.541818 
L 158.574545 293.313472 
L 158.462044 293.149091 
L 155.455692 288.756364 
L 154.967273 288.042711 
L 152.449357 284.363636 
L 151.36 282.772143 
L 149.44282 279.970909 
L 147.752727 277.502554 
L 146.435579 275.578182 
L 144.942203 271.185455 
L 144.967004 266.792727 
L 144.991807 262.4 
L 145.016599 258.007273 
L 145.04141 253.614545 
L 145.066209 249.221818 
L 145.091006 244.829091 
L 145.115813 240.436364 
L 145.140612 236.043636 
L 145.165404 231.650909 
L 145.190212 227.258182 
L 145.215009 222.865455 
L 145.239798 218.472727 
L 145.264597 214.08 
L 145.289397 209.687273 
L 145.314204 205.294545 
L 145.339001 200.901818 
L 145.331786 196.509091 
L 145.315077 192.116364 
L 145.253741 187.723636 
L 145.156756 183.330909 
L 145.059785 178.938182 
L 144.962809 174.545455 
L 144.865838 170.152727 
L 144.768851 165.76 
L 144.822788 161.367273 
L 146.770187 156.974545 
L 147.752727 155.989144 
L 151.15016 152.581818 
L 151.36 152.371367 
L 154.967273 148.753587 
L 155.530137 148.189091 
L 158.574545 145.135847 
L 159.910144 143.796364 
L 162.181818 141.518074 
L 164.290139 139.403636 
L 165.789091 137.900336 
L 168.670128 135.010909 
L 169.396364 134.282561 
L 173.003636 130.66482 
L 173.050139 130.618182 
L 176.610909 127.047041 
L 177.430121 126.225455 
L 180.218182 123.429304 
L 181.810123 121.832727 
L 183.825455 119.811545 
L 186.190134 117.44 
L 187.432727 116.193796 
L 191.04 115.986297 
L 194.647273 117.312588 
L 194.993816 117.44 
L 198.254545 118.638856 
L 201.861818 119.965135 
L 205.469091 121.291429 
L 206.941343 121.832727 
L 209.076364 122.617701 
L 212.683636 123.943991 
L 216.290909 125.270276 
L 218.888849 126.225455 
L 219.898182 126.596552 
L 223.505455 127.922828 
L 227.112727 129.249111 
L 230.72 130.57537 
L 230.836438 130.618182 
L 234.327273 131.901673 
L 237.934545 133.227957 
L 241.541818 134.554222 
L 242.783933 135.010909 
L 245.149091 135.880508 
L 248.756364 137.206781 
L 252.363636 138.536572 
L 254.607019 139.403636 
L 255.970909 139.929697 
L 259.578182 141.33001 
L 263.185455 142.730321 
L 265.931614 143.796364 
L 266.792727 144.130643 
L 270.4 145.530981 
L 274.007273 146.931288 
L 277.247375 148.189091 
L 277.614545 148.331624 
L 281.221818 149.742507 
L 283.683833 152.581818 
L 284.829091 154.142149 
L 286.908037 156.974545 
L 288.436364 159.056753 
L 290.132256 161.367273 
L 292.043636 163.971389 
L 293.356459 165.76 
L 295.650909 168.885983 
L 296.580687 170.152727 
L 299.258182 173.800605 
L 299.804892 174.545455 
L 302.865455 178.688463 
L 303.111249 178.938182 
L 306.472727 181.48423 
L 308.91086 183.330909 
L 310.08 184.216432 
L 313.687273 186.94866 
L 314.710453 187.723636 
L 317.294545 189.68088 
L 320.51007 192.116364 
L 320.901818 192.41308 
L 324.509091 195.145298 
L 326.309661 196.509091 
L 328.116364 197.883244 
L 329.53762 200.901818 
L 329.506426 205.294545 
L 329.283146 209.687273 
L 329.05986 214.08 
L 328.836583 218.472727 
L 328.6133 222.865455 
L 328.390011 227.258182 
L 328.166732 231.650909 
L 328.116364 232.641797 
L 327.943442 236.043636 
L 327.720167 240.436364 
L 327.49688 244.829091 
L 327.2736 249.221818 
L 327.050315 253.614545 
L 326.827035 258.007273 
L 326.603749 262.4 
L 326.38047 266.792727 
L 326.157185 271.185455 
L 325.933902 275.578182 
L 325.710623 279.970909 
L 325.48734 284.363636 
L 325.264055 288.756364 
L 325.040767 293.149091 
L 324.817492 297.541818 
L 324.59421 301.934545 
L 324.509091 303.609099 
L 324.370923 306.327273 
L 324.147642 310.72 
L 323.944016 315.112727 
L 324.116955 319.505455 
L 324.384807 323.898182 
L 324.509091 324.828613 
L 324.973218 328.290909 
L 325.567616 332.683636 
L 326.162019 337.076364 
L 326.756422 341.469091 
L 327.350824 345.861818 
L 327.945234 350.254545 
L 328.116364 351.519217 
L 328.539637 354.647273 
L 329.134036 359.04 
L 329.728441 363.432727 
L 330.322849 367.825455 
L 330.917245 372.218182 
L 331.511653 376.610909 
L 331.723636 378.177521 
L 332.106046 381.003636 
L 332.700458 385.396364 
L 333.29486 389.789091 
L 333.889266 394.181818 
L 334.483666 398.574545 
L 334.983818 402.967273 
L 334.103191 407.36 
L 331.723636 410.587415 
L 330.864452 411.752727 
L 328.116364 415.484279 
L 327.629288 416.145455 
L 324.509091 420.379779 
L 324.392235 420.538182 
L 321.151685 424.930909 
L 320.901818 425.269613 
L 317.911093 429.323636 
L 317.294545 430.159389 
L 314.670503 433.716364 
L 313.687273 435.049162 
L 310.08 437.518805 
L 306.472727 436.421582 
L 302.865455 435.295457 
L 299.258182 434.169328 
z
" style="fill:#f3c8b2;"/>
   </g>
   <g id="PathCollection_7">
    <path clip-path="url(#p48c29fc85f)" d="M 299.258182 434.169328 
L 302.865455 435.295457 
L 306.472727 436.421582 
L 310.08 437.518805 
L 313.687273 435.049162 
L 314.670503 433.716364 
L 317.294545 430.159389 
L 317.911093 429.323636 
L 320.901818 425.269613 
L 321.151685 424.930909 
L 324.392235 420.538182 
L 324.509091 420.379779 
L 327.629288 416.145455 
L 328.116364 415.484279 
L 330.864452 411.752727 
L 331.723636 410.587415 
L 334.103191 407.36 
L 334.983818 402.967273 
L 334.483666 398.574545 
L 333.889266 394.181818 
L 333.29486 389.789091 
L 332.700458 385.396364 
L 332.106046 381.003636 
L 331.723636 378.177521 
L 331.511653 376.610909 
L 330.917245 372.218182 
L 330.322849 367.825455 
L 329.728441 363.432727 
L 329.134036 359.04 
L 328.539637 354.647273 
L 328.116364 351.519217 
L 327.945234 350.254545 
L 327.350824 345.861818 
L 326.756422 341.469091 
L 326.162019 337.076364 
L 325.567616 332.683636 
L 324.973218 328.290909 
L 324.509091 324.828613 
L 324.384807 323.898182 
L 324.116955 319.505455 
L 323.944016 315.112727 
L 324.147642 310.72 
L 324.370923 306.327273 
L 324.509091 303.609099 
L 324.59421 301.934545 
L 324.817492 297.541818 
L 325.040767 293.149091 
L 325.264055 288.756364 
L 325.48734 284.363636 
L 325.710623 279.970909 
L 325.933902 275.578182 
L 326.157185 271.185455 
L 326.38047 266.792727 
L 326.603749 262.4 
L 326.827035 258.007273 
L 327.050315 253.614545 
L 327.2736 249.221818 
L 327.49688 244.829091 
L 327.720167 240.436364 
L 327.943442 236.043636 
L 328.116364 232.641797 
L 328.166732 231.650909 
L 328.390011 227.258182 
L 328.6133 222.865455 
L 328.836583 218.472727 
L 329.05986 214.08 
L 329.283146 209.687273 
L 329.506426 205.294545 
L 329.53762 200.901818 
L 328.116364 197.883244 
L 326.309661 196.509091 
L 324.509091 195.145298 
L 320.901818 192.41308 
L 320.51007 192.116364 
L 317.294545 189.68088 
L 314.710453 187.723636 
L 313.687273 186.94866 
L 310.08 184.216432 
L 308.91086 183.330909 
L 306.472727 181.48423 
L 303.111249 178.938182 
L 302.865455 178.688463 
L 299.804892 174.545455 
L 299.258182 173.800605 
L 296.580687 170.152727 
L 295.650909 168.885983 
L 293.356459 165.76 
L 292.043636 163.971389 
L 290.132256 161.367273 
L 288.436364 159.056753 
L 286.908037 156.974545 
L 284.829091 154.142149 
L 283.683833 152.581818 
L 281.221818 149.742507 
L 277.614545 148.331624 
L 277.247375 148.189091 
L 274.007273 146.931288 
L 270.4 145.530981 
L 266.792727 144.130643 
L 265.931614 143.796364 
L 263.185455 142.730321 
L 259.578182 141.33001 
L 255.970909 139.929697 
L 254.607019 139.403636 
L 252.363636 138.536572 
L 248.756364 137.206781 
L 245.149091 135.880508 
L 242.783933 135.010909 
L 241.541818 134.554222 
L 237.934545 133.227957 
L 234.327273 131.901673 
L 230.836438 130.618182 
L 230.72 130.57537 
L 227.112727 129.249111 
L 223.505455 127.922828 
L 219.898182 126.596552 
L 218.888849 126.225455 
L 216.290909 125.270276 
L 212.683636 123.943991 
L 209.076364 122.617701 
L 206.941343 121.832727 
L 205.469091 121.291429 
L 201.861818 119.965135 
L 198.254545 118.638856 
L 194.993816 117.44 
L 194.647273 117.312588 
L 191.04 115.986297 
L 187.432727 116.193796 
L 186.190134 117.44 
L 183.825455 119.811545 
L 181.810123 121.832727 
L 180.218182 123.429304 
L 177.430121 126.225455 
L 176.610909 127.047041 
L 173.050139 130.618182 
L 173.003636 130.66482 
L 169.396364 134.282561 
L 168.670128 135.010909 
L 165.789091 137.900336 
L 164.290139 139.403636 
L 162.181818 141.518074 
L 159.910144 143.796364 
L 158.574545 145.135847 
L 155.530137 148.189091 
L 154.967273 148.753587 
L 151.36 152.371367 
L 151.15016 152.581818 
L 147.752727 155.989144 
L 146.770187 156.974545 
L 144.822788 161.367273 
L 144.768851 165.76 
L 144.865838 170.152727 
L 144.962809 174.545455 
L 145.059785 178.938182 
L 145.156756 183.330909 
L 145.253741 187.723636 
L 145.315077 192.116364 
L 145.331786 196.509091 
L 145.339001 200.901818 
L 145.314204 205.294545 
L 145.289397 209.687273 
L 145.264597 214.08 
L 145.239798 218.472727 
L 145.215009 222.865455 
L 145.190212 227.258182 
L 145.165404 231.650909 
L 145.140612 236.043636 
L 145.115813 240.436364 
L 145.091006 244.829091 
L 145.066209 249.221818 
L 145.04141 253.614545 
L 145.016599 258.007273 
L 144.991807 262.4 
L 144.967004 266.792727 
L 144.942203 271.185455 
L 146.435579 275.578182 
L 147.752727 277.502554 
L 149.44282 279.970909 
L 151.36 282.772143 
L 152.449357 284.363636 
L 154.967273 288.042711 
L 155.455692 288.756364 
L 158.462044 293.149091 
L 158.574545 293.313472 
L 161.468377 297.541818 
L 162.181818 298.584268 
L 164.474704 301.934545 
L 165.789091 303.855068 
L 167.481051 306.327273 
L 169.396364 309.330103 
L 170.211083 310.72 
L 172.60756 315.112727 
L 173.003636 315.838732 
L 175.004032 319.505455 
L 176.610909 322.450859 
L 177.400505 323.898182 
L 179.796994 328.290909 
L 180.218182 329.122978 
L 182.012267 332.683636 
L 183.825455 336.739538 
L 183.976032 337.076364 
L 185.821866 341.469091 
L 187.384658 345.861818 
L 187.432727 345.953702 
L 190.005513 350.254545 
L 191.04 351.983861 
L 192.633264 354.647273 
L 194.647273 358.014029 
L 195.261013 359.04 
L 197.888762 363.432727 
L 198.254545 364.044198 
L 200.51651 367.825455 
L 201.861818 370.074364 
L 203.144255 372.218182 
L 205.469091 376.104539 
L 205.772004 376.610909 
L 208.399752 381.003636 
L 209.076364 382.134705 
L 211.027506 385.396364 
L 212.683636 388.164861 
L 213.655256 389.789091 
L 216.282999 394.181818 
L 216.290909 394.195042 
L 218.910743 398.574545 
L 219.898182 400.225217 
L 221.538491 402.967273 
L 223.505455 406.255391 
L 224.126353 407.36 
L 227.112727 411.642461 
L 227.427713 411.752727 
L 230.72 412.773004 
L 234.327273 413.899125 
L 237.934545 415.025247 
L 241.522829 416.145455 
L 241.541818 416.151383 
L 245.149091 417.277493 
L 248.756364 418.403614 
L 252.363636 419.529746 
L 255.593942 420.538182 
L 255.970909 420.655863 
L 259.578182 421.781979 
L 263.185455 422.908109 
L 266.792727 424.034238 
L 269.664989 424.930909 
L 270.4 425.160366 
L 274.007273 426.286482 
L 277.614545 427.412598 
L 281.221818 428.538727 
L 283.7361 429.323636 
L 284.829091 429.664847 
L 288.436364 430.790965 
L 292.043636 431.917095 
L 295.650909 433.043212 
L 297.807208 433.716364 
z
M 273.103283 381.003636 
L 270.4 380.159721 
L 266.792727 379.033598 
L 263.185455 377.907474 
L 259.578182 376.781346 
L 259.032229 376.610909 
L 255.970909 375.655224 
L 252.363636 374.529111 
L 248.756364 373.402984 
L 245.149091 372.276862 
L 244.96112 372.218182 
L 241.541818 371.150744 
L 237.934545 370.024613 
L 235.08463 367.825455 
L 234.327273 367.074612 
L 232.25176 363.432727 
L 230.72 360.744956 
L 229.748346 359.04 
L 227.244934 354.647273 
L 227.112727 354.41529 
L 224.741518 350.254545 
L 223.505455 348.085635 
L 222.238103 345.861818 
L 219.898182 341.755972 
L 219.734688 341.469091 
L 217.231281 337.076364 
L 216.290909 335.646476 
L 214.286494 332.683636 
L 212.683636 330.602481 
L 210.894376 328.290909 
L 209.076364 326.161819 
L 207.35464 323.898182 
L 205.469091 320.599548 
L 204.892223 319.505455 
L 202.574924 315.112727 
L 201.861818 313.761009 
L 200.257517 310.72 
L 198.254545 306.923294 
L 197.940111 306.327273 
L 195.622703 301.934545 
L 194.647273 300.085584 
L 193.305297 297.541818 
L 191.04 293.24786 
L 190.987894 293.149091 
L 189.735224 288.756364 
L 189.806362 284.363636 
L 189.70939 279.970909 
L 189.612408 275.578182 
L 189.515435 271.185455 
L 189.418455 266.792727 
L 189.321479 262.4 
L 189.224508 258.007273 
L 189.127526 253.614545 
L 189.030552 249.221818 
L 188.933575 244.829091 
L 188.836598 240.436364 
L 188.739625 236.043636 
L 188.642647 231.650909 
L 188.545673 227.258182 
L 188.448695 222.865455 
L 188.426001 218.472727 
L 189.724552 214.08 
L 191.04 212.760724 
L 194.104546 209.687273 
L 194.647273 209.142969 
L 198.254545 205.525213 
L 198.484544 205.294545 
L 201.861818 201.907467 
L 202.864552 200.901818 
L 205.469091 198.289701 
L 207.244535 196.509091 
L 209.076364 194.671932 
L 211.624536 192.116364 
L 212.683636 191.054186 
L 216.117734 187.723636 
L 216.290909 187.619113 
L 216.575197 187.723636 
L 219.898182 188.945391 
L 223.505455 190.271665 
L 227.112727 191.597949 
L 228.52274 192.116364 
L 230.72 192.924227 
L 234.327273 194.250508 
L 237.934545 195.576789 
L 240.470276 196.509091 
L 241.541818 196.903061 
L 245.149091 198.22935 
L 248.756364 199.555633 
L 252.363636 200.881911 
L 252.417781 200.901818 
L 255.970909 202.208187 
L 259.578182 203.534467 
L 263.185455 204.860747 
L 264.365324 205.294545 
L 266.792727 206.187025 
L 270.4 208.216338 
L 271.750403 209.687273 
L 274.007273 211.496228 
L 277.418562 214.08 
L 277.614545 214.228441 
L 281.221818 216.960659 
L 283.218166 218.472727 
L 284.829091 219.692868 
L 288.436364 222.425076 
L 289.017782 222.865455 
L 292.043636 225.157305 
L 294.817376 227.258182 
L 295.650909 227.889516 
L 299.258182 231.12373 
L 299.644335 231.650909 
L 301.781781 236.043636 
L 302.865455 238.270726 
L 303.551183 240.436364 
L 303.949454 244.829091 
L 303.726171 249.221818 
L 303.502889 253.614545 
L 303.279605 258.007273 
L 303.056323 262.4 
L 302.865455 266.155063 
L 302.833042 266.792727 
L 302.609759 271.185455 
L 302.386474 275.578182 
L 302.163191 279.970909 
L 301.93991 284.363636 
L 301.716627 288.756364 
L 301.493345 293.149091 
L 301.270062 297.541818 
L 301.04678 301.934545 
L 300.823496 306.327273 
L 300.600213 310.72 
L 300.376743 315.112727 
L 300.162742 319.505455 
L 300.356727 323.898182 
L 300.859378 328.290909 
L 301.45319 332.683636 
L 302.047005 337.076364 
L 302.640812 341.469091 
L 302.865455 343.130885 
L 303.234624 345.861818 
L 303.82844 350.254545 
L 304.422253 354.647273 
L 304.88005 359.04 
L 305.224898 363.432727 
L 305.276211 367.825455 
L 302.865455 370.232002 
L 300.713934 372.218182 
L 299.258182 373.562064 
L 295.955539 376.610909 
L 295.650909 376.892129 
L 292.043636 380.222189 
L 290.737601 381.003636 
L 288.436364 382.036457 
L 284.829091 382.216585 
L 281.221818 382.357407 
L 277.614545 382.038488 
L 274.007273 381.285846 
z
" style="fill:#f6a586;"/>
   </g>
   <g id="PathCollection_8">
    <path clip-path="url(#p48c29fc85f)" d="M 274.007273 381.285846 
L 277.614545 382.038488 
L 281.221818 382.357407 
L 284.829091 382.216585 
L 288.436364 382.036457 
L 290.737601 381.003636 
L 292.043636 380.222189 
L 295.650909 376.892129 
L 295.955539 376.610909 
L 299.258182 373.562064 
L 300.713934 372.218182 
L 302.865455 370.232002 
L 305.276211 367.825455 
L 305.224898 363.432727 
L 304.88005 359.04 
L 304.422253 354.647273 
L 303.82844 350.254545 
L 303.234624 345.861818 
L 302.865455 343.130885 
L 302.640812 341.469091 
L 302.047005 337.076364 
L 301.45319 332.683636 
L 300.859378 328.290909 
L 300.356727 323.898182 
L 300.162742 319.505455 
L 300.376743 315.112727 
L 300.600213 310.72 
L 300.823496 306.327273 
L 301.04678 301.934545 
L 301.270062 297.541818 
L 301.493345 293.149091 
L 301.716627 288.756364 
L 301.93991 284.363636 
L 302.163191 279.970909 
L 302.386474 275.578182 
L 302.609759 271.185455 
L 302.833042 266.792727 
L 302.865455 266.155063 
L 303.056323 262.4 
L 303.279605 258.007273 
L 303.502889 253.614545 
L 303.726171 249.221818 
L 303.949454 244.829091 
L 303.551183 240.436364 
L 302.865455 238.270726 
L 301.781781 236.043636 
L 299.644335 231.650909 
L 299.258182 231.12373 
L 295.650909 227.889516 
L 294.817376 227.258182 
L 292.043636 225.157305 
L 289.017782 222.865455 
L 288.436364 222.425076 
L 284.829091 219.692868 
L 283.218166 218.472727 
L 281.221818 216.960659 
L 277.614545 214.228441 
L 277.418562 214.08 
L 274.007273 211.496228 
L 271.750403 209.687273 
L 270.4 208.216338 
L 266.792727 206.187025 
L 264.365324 205.294545 
L 263.185455 204.860747 
L 259.578182 203.534467 
L 255.970909 202.208187 
L 252.417781 200.901818 
L 252.363636 200.881911 
L 248.756364 199.555633 
L 245.149091 198.22935 
L 241.541818 196.903061 
L 240.470276 196.509091 
L 237.934545 195.576789 
L 234.327273 194.250508 
L 230.72 192.924227 
L 228.52274 192.116364 
L 227.112727 191.597949 
L 223.505455 190.271665 
L 219.898182 188.945391 
L 216.575197 187.723636 
L 216.290909 187.619113 
L 216.117734 187.723636 
L 212.683636 191.054186 
L 211.624536 192.116364 
L 209.076364 194.671932 
L 207.244535 196.509091 
L 205.469091 198.289701 
L 202.864552 200.901818 
L 201.861818 201.907467 
L 198.484544 205.294545 
L 198.254545 205.525213 
L 194.647273 209.142969 
L 194.104546 209.687273 
L 191.04 212.760724 
L 189.724552 214.08 
L 188.426001 218.472727 
L 188.448695 222.865455 
L 188.545673 227.258182 
L 188.642647 231.650909 
L 188.739625 236.043636 
L 188.836598 240.436364 
L 188.933575 244.829091 
L 189.030552 249.221818 
L 189.127526 253.614545 
L 189.224508 258.007273 
L 189.321479 262.4 
L 189.418455 266.792727 
L 189.515435 271.185455 
L 189.612408 275.578182 
L 189.70939 279.970909 
L 189.806362 284.363636 
L 189.735224 288.756364 
L 190.987894 293.149091 
L 191.04 293.24786 
L 193.305297 297.541818 
L 194.647273 300.085584 
L 195.622703 301.934545 
L 197.940111 306.327273 
L 198.254545 306.923294 
L 200.257517 310.72 
L 201.861818 313.761009 
L 202.574924 315.112727 
L 204.892223 319.505455 
L 205.469091 320.599548 
L 207.35464 323.898182 
L 209.076364 326.161819 
L 210.894376 328.290909 
L 212.683636 330.602481 
L 214.286494 332.683636 
L 216.290909 335.646476 
L 217.231281 337.076364 
L 219.734688 341.469091 
L 219.898182 341.755972 
L 222.238103 345.861818 
L 223.505455 348.085635 
L 224.741518 350.254545 
L 227.112727 354.41529 
L 227.244934 354.647273 
L 229.748346 359.04 
L 230.72 360.744956 
L 232.25176 363.432727 
L 234.327273 367.074612 
L 235.08463 367.825455 
L 237.934545 370.024613 
L 241.541818 371.150744 
L 244.96112 372.218182 
L 245.149091 372.276862 
L 248.756364 373.402984 
L 252.363636 374.529111 
L 255.970909 375.655224 
L 259.032229 376.610909 
L 259.578182 376.781346 
L 263.185455 377.907474 
L 266.792727 379.033598 
L 270.4 380.159721 
L 273.103283 381.003636 
z
M 239.753042 315.112727 
L 237.934545 314.34856 
L 234.327273 312.832712 
L 230.72 311.286217 
L 230.234357 310.72 
L 227.112727 307.41869 
L 226.244514 306.327273 
L 223.623735 301.934545 
L 224.030685 297.541818 
L 224.689608 293.149091 
L 225.348531 288.756364 
L 226.007454 284.363636 
L 226.666377 279.970909 
L 227.112727 276.995303 
L 227.3253 275.578182 
L 227.984223 271.185455 
L 229.522821 266.792727 
L 230.72 265.338079 
L 233.679841 262.4 
L 234.327273 261.757328 
L 237.934545 258.176578 
L 238.105105 258.007273 
L 241.541818 254.782891 
L 245.149091 254.713629 
L 248.756364 254.936785 
L 252.363636 255.159943 
L 255.970909 255.383099 
L 259.578182 255.772199 
L 262.753965 258.007273 
L 263.185455 258.327148 
L 266.792727 261.001319 
L 268.119475 262.4 
L 270.4 266.575652 
L 270.506447 266.792727 
L 272.660514 271.185455 
L 274.007273 273.931862 
L 274.81458 275.578182 
L 276.968645 279.970909 
L 277.614545 281.288077 
L 278.375863 284.363636 
L 278.154817 288.756364 
L 277.930136 293.149091 
L 277.614545 295.316249 
L 276.960922 297.541818 
L 274.317646 301.934545 
L 274.007273 302.450339 
L 271.67437 306.327273 
L 270.4 308.445084 
L 269.031096 310.72 
L 266.792727 314.439838 
L 266.02088 315.112727 
L 263.185455 316.419505 
L 259.578182 316.739165 
L 255.970909 317.058826 
L 252.363636 317.378488 
L 248.756364 317.698148 
L 245.149091 317.380254 
L 241.541818 315.864405 
z
" style="fill:#e7745b;"/>
   </g>
   <g id="PathCollection_9">
    <path clip-path="url(#p48c29fc85f)" d="M 241.541818 315.864405 
L 245.149091 317.380254 
L 248.756364 317.698148 
L 252.363636 317.378488 
L 255.970909 317.058826 
L 259.578182 316.739165 
L 263.185455 316.419505 
L 266.02088 315.112727 
L 266.792727 314.439838 
L 269.031096 310.72 
L 270.4 308.445084 
L 271.67437 306.327273 
L 274.007273 302.450339 
L 274.317646 301.934545 
L 276.960922 297.541818 
L 277.614545 295.316249 
L 277.930136 293.149091 
L 278.154817 288.756364 
L 278.375863 284.363636 
L 277.614545 281.288077 
L 276.968645 279.970909 
L 274.81458 275.578182 
L 274.007273 273.931862 
L 272.660514 271.185455 
L 270.506447 266.792727 
L 270.4 266.575652 
L 268.119475 262.4 
L 266.792727 261.001319 
L 263.185455 258.327148 
L 262.753965 258.007273 
L 259.578182 255.772199 
L 255.970909 255.383099 
L 252.363636 255.159943 
L 248.756364 254.936785 
L 245.149091 254.713629 
L 241.541818 254.782891 
L 238.105105 258.007273 
L 237.934545 258.176578 
L 234.327273 261.757328 
L 233.679841 262.4 
L 230.72 265.338079 
L 229.522821 266.792727 
L 227.984223 271.185455 
L 227.3253 275.578182 
L 227.112727 276.995303 
L 226.666377 279.970909 
L 226.007454 284.363636 
L 225.348531 288.756364 
L 224.689608 293.149091 
L 224.030685 297.541818 
L 223.623735 301.934545 
L 226.244514 306.327273 
L 227.112727 307.41869 
L 230.234357 310.72 
L 230.72 311.286217 
L 234.327273 312.832712 
L 237.934545 314.34856 
L 239.753042 315.112727 
z
" style="fill:#c83836;"/>
   </g>
   <g id="matplotlib.axis_1">
    <g id="xtick_1">
     <g id="line2d_1">
      <defs>
       <path d="M 0 0 
L 0 3.5 
" id="mb4acde5850" style="stroke:#000000;stroke-width:0.8;"/>
      </defs>
      <g>
       <use style="stroke:#000000;stroke-width:0.8;" x="107.712" xlink:href="#mb4acde5850" y="504"/>
      </g>
     </g>
     <g id="text_1">
      <!-- 4 -->
      <defs>
       <path d="M 10.59375 35.5 
L 73.1875 35.5 
L 73.1875 27.203125 
L 10.59375 27.203125 
z
" id="DejaVuSans-2212"/>
       <path d="M 37.796875 64.3125 
L 12.890625 25.390625 
L 37.796875 25.390625 
z
M 35.203125 72.90625 
L 47.609375 72.90625 
L 47.609375 25.390625 
L 58.015625 25.390625 
L 58.015625 17.1875 
L 47.609375 17.1875 
L 47.609375 0 
L 37.796875 0 
L 37.796875 17.1875 
L 4.890625 17.1875 
L 4.890625 26.703125 
z
" id="DejaVuSans-34"/>
      </defs>
      <g transform="translate(100.340906 518.598438)scale(0.1 -0.1)">
       <use xlink:href="#DejaVuSans-2212"/>
       <use x="83.789062" xlink:href="#DejaVuSans-34"/>
      </g>
     </g>
    </g>
    <g id="xtick_2">
     <g id="line2d_2">
      <g>
       <use style="stroke:#000000;stroke-width:0.8;" x="179.136" xlink:href="#mb4acde5850" y="504"/>
      </g>
     </g>
     <g id="text_2">
      <!-- 2 -->
      <defs>
       <path d="M 19.1875 8.296875 
L 53.609375 8.296875 
L 53.609375 0 
L 7.328125 0 
L 7.328125 8.296875 
Q 12.9375 14.109375 22.625 23.890625 
Q 32.328125 33.6875 34.8125 36.53125 
Q 39.546875 41.84375 41.421875 45.53125 
Q 43.3125 49.21875 43.3125 52.78125 
Q 43.3125 58.59375 39.234375 62.25 
Q 35.15625 65.921875 28.609375 65.921875 
Q 23.96875 65.921875 18.8125 64.3125 
Q 13.671875 62.703125 7.8125 59.421875 
L 7.8125 69.390625 
Q 13.765625 71.78125 18.9375 73 
Q 24.125 74.21875 28.421875 74.21875 
Q 39.75 74.21875 46.484375 68.546875 
Q 53.21875 62.890625 53.21875 53.421875 
Q 53.21875 48.921875 51.53125 44.890625 
Q 49.859375 40.875 45.40625 35.40625 
Q 44.1875 33.984375 37.640625 27.21875 
Q 31.109375 20.453125 19.1875 8.296875 
z
" id="DejaVuSans-32"/>
      </defs>
      <g transform="translate(171.764906 518.598438)scale(0.1 -0.1)">
       <use xlink:href="#DejaVuSans-2212"/>
       <use x="83.789062" xlink:href="#DejaVuSans-32"/>
      </g>
     </g>
    </g>
    <g id="xtick_3">
     <g id="line2d_3">
      <g>
       <use style="stroke:#000000;stroke-width:0.8;" x="250.56" xlink:href="#mb4acde5850" y="504"/>
      </g>
     </g>
     <g id="text_3">
      <!-- 0 -->
      <defs>
       <path d="M 31.78125 66.40625 
Q 24.171875 66.40625 20.328125 58.90625 
Q 16.5 51.421875 16.5 36.375 
Q 16.5 21.390625 20.328125 13.890625 
Q 24.171875 6.390625 31.78125 6.390625 
Q 39.453125 6.390625 43.28125 13.890625 
Q 47.125 21.390625 47.125 36.375 
Q 47.125 51.421875 43.28125 58.90625 
Q 39.453125 66.40625 31.78125 66.40625 
z
M 31.78125 74.21875 
Q 44.046875 74.21875 50.515625 64.515625 
Q 56.984375 54.828125 56.984375 36.375 
Q 56.984375 17.96875 50.515625 8.265625 
Q 44.046875 -1.421875 31.78125 -1.421875 
Q 19.53125 -1.421875 13.0625 8.265625 
Q 6.59375 17.96875 6.59375 36.375 
Q 6.59375 54.828125 13.0625 64.515625 
Q 19.53125 74.21875 31.78125 74.21875 
z
" id="DejaVuSans-30"/>
      </defs>
      <g transform="translate(247.37875 518.598438)scale(0.1 -0.1)">
       <use xlink:href="#DejaVuSans-30"/>
      </g>
     </g>
    </g>
    <g id="xtick_4">
     <g id="line2d_4">
      <g>
       <use style="stroke:#000000;stroke-width:0.8;" x="321.984" xlink:href="#mb4acde5850" y="504"/>
      </g>
     </g>
     <g id="text_4">
      <!-- 2 -->
      <g transform="translate(318.80275 518.598438)scale(0.1 -0.1)">
       <use xlink:href="#DejaVuSans-32"/>
      </g>
     </g>
    </g>
    <g id="xtick_5">
     <g id="line2d_5">
      <g>
       <use style="stroke:#000000;stroke-width:0.8;" x="393.408" xlink:href="#mb4acde5850" y="504"/>
      </g>
     </g>
     <g id="text_5">
      <!-- 4 -->
      <g transform="translate(390.22675 518.598438)scale(0.1 -0.1)">
       <use xlink:href="#DejaVuSans-34"/>
      </g>
     </g>
    </g>
   </g>
   <g id="matplotlib.axis_2">
    <g id="ytick_1">
     <g id="line2d_6">
      <defs>
       <path d="M 0 0 
L -3.5 0 
" id="m8f10e01ceb" style="stroke:#000000;stroke-width:0.8;"/>
      </defs>
      <g>
       <use style="stroke:#000000;stroke-width:0.8;" x="72" xlink:href="#m8f10e01ceb" y="460.512"/>
      </g>
     </g>
     <g id="text_6">
      <!-- 4 -->
      <g transform="translate(50.257812 464.311219)scale(0.1 -0.1)">
       <use xlink:href="#DejaVuSans-2212"/>
       <use x="83.789062" xlink:href="#DejaVuSans-34"/>
      </g>
     </g>
    </g>
    <g id="ytick_2">
     <g id="line2d_7">
      <g>
       <use style="stroke:#000000;stroke-width:0.8;" x="72" xlink:href="#m8f10e01ceb" y="373.536"/>
      </g>
     </g>
     <g id="text_7">
      <!-- 2 -->
      <g transform="translate(50.257812 377.335219)scale(0.1 -0.1)">
       <use xlink:href="#DejaVuSans-2212"/>
       <use x="83.789062" xlink:href="#DejaVuSans-32"/>
      </g>
     </g>
    </g>
    <g id="ytick_3">
     <g id="line2d_8">
      <g>
       <use style="stroke:#000000;stroke-width:0.8;" x="72" xlink:href="#m8f10e01ceb" y="286.56"/>
      </g>
     </g>
     <g id="text_8">
      <!-- 0 -->
      <g transform="translate(58.6375 290.359219)scale(0.1 -0.1)">
       <use xlink:href="#DejaVuSans-30"/>
      </g>
     </g>
    </g>
    <g id="ytick_4">
     <g id="line2d_9">
      <g>
       <use style="stroke:#000000;stroke-width:0.8;" x="72" xlink:href="#m8f10e01ceb" y="199.584"/>
      </g>
     </g>
     <g id="text_9">
      <!-- 2 -->
      <g transform="translate(58.6375 203.383219)scale(0.1 -0.1)">
       <use xlink:href="#DejaVuSans-32"/>
      </g>
     </g>
    </g>
    <g id="ytick_5">
     <g id="line2d_10">
      <g>
       <use style="stroke:#000000;stroke-width:0.8;" x="72" xlink:href="#m8f10e01ceb" y="112.608"/>
      </g>
     </g>
     <g id="text_10">
      <!-- 4 -->
      <g transform="translate(58.6375 116.407219)scale(0.1 -0.1)">
       <use xlink:href="#DejaVuSans-34"/>
      </g>
     </g>
    </g>
   </g>
   <g id="patch_3">
    <path d="M 72 504 
L 72 69.12 
" style="fill:none;stroke:#000000;stroke-linecap:square;stroke-linejoin:miter;stroke-width:0.8;"/>
   </g>
   <g id="patch_4">
    <path d="M 429.12 504 
L 429.12 69.12 
" style="fill:none;stroke:#000000;stroke-linecap:square;stroke-linejoin:miter;stroke-width:0.8;"/>
   </g>
   <g id="patch_5">
    <path d="M 72 504 
L 429.12 504 
" style="fill:none;stroke:#000000;stroke-linecap:square;stroke-linejoin:miter;stroke-width:0.8;"/>
   </g>
   <g id="patch_6">
    <path d="M 72 69.12 
L 429.12 69.12 
" style="fill:none;stroke:#000000;stroke-linecap:square;stroke-linejoin:miter;stroke-width:0.8;"/>
   </g>
  </g>
  <g id="axes_2">
   <g id="patch_7">
    <path clip-path="url(#p274eb75f2d)" d="M 451.44 504 
L 451.44 455.68 
L 451.44 117.44 
L 451.44 69.12 
L 473.184 69.12 
L 473.184 117.44 
L 473.184 455.68 
L 473.184 504 
z
" style="fill:#ffffff;stroke:#ffffff;stroke-linejoin:miter;stroke-width:0.01;"/>
   </g>
   <g id="QuadMesh_1">
    <path clip-path="url(#p274eb75f2d)" d="M 451.44 504 
L 473.184 504 
L 473.184 455.68 
L 451.44 455.68 
L 451.44 504 
" style="fill:#4b64d5;"/>
    <path clip-path="url(#p274eb75f2d)" d="M 451.44 455.68 
L 473.184 455.68 
L 473.184 407.36 
L 451.44 407.36 
L 451.44 455.68 
" style="fill:#6f92f3;"/>
    <path clip-path="url(#p274eb75f2d)" d="M 451.44 407.36 
L 473.184 407.36 
L 473.184 359.04 
L 451.44 359.04 
L 451.44 407.36 
" style="fill:#97b8ff;"/>
    <path clip-path="url(#p274eb75f2d)" d="M 451.44 359.04 
L 473.184 359.04 
L 473.184 310.72 
L 451.44 310.72 
L 451.44 359.04 
" style="fill:#bcd2f7;"/>
    <path clip-path="url(#p274eb75f2d)" d="M 451.44 310.72 
L 473.184 310.72 
L 473.184 262.4 
L 451.44 262.4 
L 451.44 310.72 
" style="fill:#dddcdc;"/>
    <path clip-path="url(#p274eb75f2d)" d="M 451.44 262.4 
L 473.184 262.4 
L 473.184 214.08 
L 451.44 214.08 
L 451.44 262.4 
" style="fill:#f3c8b2;"/>
    <path clip-path="url(#p274eb75f2d)" d="M 451.44 214.08 
L 473.184 214.08 
L 473.184 165.76 
L 451.44 165.76 
L 451.44 214.08 
" style="fill:#f6a586;"/>
    <path clip-path="url(#p274eb75f2d)" d="M 451.44 165.76 
L 473.184 165.76 
L 473.184 117.44 
L 451.44 117.44 
L 451.44 165.76 
" style="fill:#e7745b;"/>
    <path clip-path="url(#p274eb75f2d)" d="M 451.44 117.44 
L 473.184 117.44 
L 473.184 69.12 
L 451.44 69.12 
L 451.44 117.44 
" style="fill:#c83836;"/>
   </g>
   <g id="matplotlib.axis_3"/>
   <g id="matplotlib.axis_4">
    <g id="ytick_6">
     <g id="line2d_11">
      <defs>
       <path d="M 0 0 
L 3.5 0 
" id="mae7d436e32" style="stroke:#000000;stroke-width:0.8;"/>
      </defs>
      <g>
       <use style="stroke:#000000;stroke-width:0.8;" x="473.184" xlink:href="#mae7d436e32" y="504"/>
      </g>
     </g>
     <g id="text_11">
      <!-- 240 -->
      <g transform="translate(480.184 507.799219)scale(0.1 -0.1)">
       <use xlink:href="#DejaVuSans-2212"/>
       <use x="83.789062" xlink:href="#DejaVuSans-32"/>
       <use x="147.412109" xlink:href="#DejaVuSans-34"/>
       <use x="211.035156" xlink:href="#DejaVuSans-30"/>
      </g>
     </g>
    </g>
    <g id="ytick_7">
     <g id="line2d_12">
      <g>
       <use style="stroke:#000000;stroke-width:0.8;" x="473.184" xlink:href="#mae7d436e32" y="455.68"/>
      </g>
     </g>
     <g id="text_12">
      <!-- 210 -->
      <defs>
       <path d="M 12.40625 8.296875 
L 28.515625 8.296875 
L 28.515625 63.921875 
L 10.984375 60.40625 
L 10.984375 69.390625 
L 28.421875 72.90625 
L 38.28125 72.90625 
L 38.28125 8.296875 
L 54.390625 8.296875 
L 54.390625 0 
L 12.40625 0 
z
" id="DejaVuSans-31"/>
      </defs>
      <g transform="translate(480.184 459.479219)scale(0.1 -0.1)">
       <use xlink:href="#DejaVuSans-2212"/>
       <use x="83.789062" xlink:href="#DejaVuSans-32"/>
       <use x="147.412109" xlink:href="#DejaVuSans-31"/>
       <use x="211.035156" xlink:href="#DejaVuSans-30"/>
      </g>
     </g>
    </g>
    <g id="ytick_8">
     <g id="line2d_13">
      <g>
       <use style="stroke:#000000;stroke-width:0.8;" x="473.184" xlink:href="#mae7d436e32" y="407.36"/>
      </g>
     </g>
     <g id="text_13">
      <!-- 180 -->
      <defs>
       <path d="M 31.78125 34.625 
Q 24.75 34.625 20.71875 30.859375 
Q 16.703125 27.09375 16.703125 20.515625 
Q 16.703125 13.921875 20.71875 10.15625 
Q 24.75 6.390625 31.78125 6.390625 
Q 38.8125 6.390625 42.859375 10.171875 
Q 46.921875 13.96875 46.921875 20.515625 
Q 46.921875 27.09375 42.890625 30.859375 
Q 38.875 34.625 31.78125 34.625 
z
M 21.921875 38.8125 
Q 15.578125 40.375 12.03125 44.71875 
Q 8.5 49.078125 8.5 55.328125 
Q 8.5 64.0625 14.71875 69.140625 
Q 20.953125 74.21875 31.78125 74.21875 
Q 42.671875 74.21875 48.875 69.140625 
Q 55.078125 64.0625 55.078125 55.328125 
Q 55.078125 49.078125 51.53125 44.71875 
Q 48 40.375 41.703125 38.8125 
Q 48.828125 37.15625 52.796875 32.3125 
Q 56.78125 27.484375 56.78125 20.515625 
Q 56.78125 9.90625 50.3125 4.234375 
Q 43.84375 -1.421875 31.78125 -1.421875 
Q 19.734375 -1.421875 13.25 4.234375 
Q 6.78125 9.90625 6.78125 20.515625 
Q 6.78125 27.484375 10.78125 32.3125 
Q 14.796875 37.15625 21.921875 38.8125 
z
M 18.3125 54.390625 
Q 18.3125 48.734375 21.84375 45.5625 
Q 25.390625 42.390625 31.78125 42.390625 
Q 38.140625 42.390625 41.71875 45.5625 
Q 45.3125 48.734375 45.3125 54.390625 
Q 45.3125 60.0625 41.71875 63.234375 
Q 38.140625 66.40625 31.78125 66.40625 
Q 25.390625 66.40625 21.84375 63.234375 
Q 18.3125 60.0625 18.3125 54.390625 
z
" id="DejaVuSans-38"/>
      </defs>
      <g transform="translate(480.184 411.159219)scale(0.1 -0.1)">
       <use xlink:href="#DejaVuSans-2212"/>
       <use x="83.789062" xlink:href="#DejaVuSans-31"/>
       <use x="147.412109" xlink:href="#DejaVuSans-38"/>
       <use x="211.035156" xlink:href="#DejaVuSans-30"/>
      </g>
     </g>
    </g>
    <g id="ytick_9">
     <g id="line2d_14">
      <g>
       <use style="stroke:#000000;stroke-width:0.8;" x="473.184" xlink:href="#mae7d436e32" y="359.04"/>
      </g>
     </g>
     <g id="text_14">
      <!-- 150 -->
      <defs>
       <path d="M 10.796875 72.90625 
L 49.515625 72.90625 
L 49.515625 64.59375 
L 19.828125 64.59375 
L 19.828125 46.734375 
Q 21.96875 47.46875 24.109375 47.828125 
Q 26.265625 48.1875 28.421875 48.1875 
Q 40.625 48.1875 47.75 41.5 
Q 54.890625 34.8125 54.890625 23.390625 
Q 54.890625 11.625 47.5625 5.09375 
Q 40.234375 -1.421875 26.90625 -1.421875 
Q 22.3125 -1.421875 17.546875 -0.640625 
Q 12.796875 0.140625 7.71875 1.703125 
L 7.71875 11.625 
Q 12.109375 9.234375 16.796875 8.0625 
Q 21.484375 6.890625 26.703125 6.890625 
Q 35.15625 6.890625 40.078125 11.328125 
Q 45.015625 15.765625 45.015625 23.390625 
Q 45.015625 31 40.078125 35.4375 
Q 35.15625 39.890625 26.703125 39.890625 
Q 22.75 39.890625 18.8125 39.015625 
Q 14.890625 38.140625 10.796875 36.28125 
z
" id="DejaVuSans-35"/>
      </defs>
      <g transform="translate(480.184 362.839219)scale(0.1 -0.1)">
       <use xlink:href="#DejaVuSans-2212"/>
       <use x="83.789062" xlink:href="#DejaVuSans-31"/>
       <use x="147.412109" xlink:href="#DejaVuSans-35"/>
       <use x="211.035156" xlink:href="#DejaVuSans-30"/>
      </g>
     </g>
    </g>
    <g id="ytick_10">
     <g id="line2d_15">
      <g>
       <use style="stroke:#000000;stroke-width:0.8;" x="473.184" xlink:href="#mae7d436e32" y="310.72"/>
      </g>
     </g>
     <g id="text_15">
      <!-- 120 -->
      <g transform="translate(480.184 314.519219)scale(0.1 -0.1)">
       <use xlink:href="#DejaVuSans-2212"/>
       <use x="83.789062" xlink:href="#DejaVuSans-31"/>
       <use x="147.412109" xlink:href="#DejaVuSans-32"/>
       <use x="211.035156" xlink:href="#DejaVuSans-30"/>
      </g>
     </g>
    </g>
    <g id="ytick_11">
     <g id="line2d_16">
      <g>
       <use style="stroke:#000000;stroke-width:0.8;" x="473.184" xlink:href="#mae7d436e32" y="262.4"/>
      </g>
     </g>
     <g id="text_16">
      <!-- 90 -->
      <defs>
       <path d="M 10.984375 1.515625 
L 10.984375 10.5 
Q 14.703125 8.734375 18.5 7.8125 
Q 22.3125 6.890625 25.984375 6.890625 
Q 35.75 6.890625 40.890625 13.453125 
Q 46.046875 20.015625 46.78125 33.40625 
Q 43.953125 29.203125 39.59375 26.953125 
Q 35.25 24.703125 29.984375 24.703125 
Q 19.046875 24.703125 12.671875 31.3125 
Q 6.296875 37.9375 6.296875 49.421875 
Q 6.296875 60.640625 12.9375 67.421875 
Q 19.578125 74.21875 30.609375 74.21875 
Q 43.265625 74.21875 49.921875 64.515625 
Q 56.59375 54.828125 56.59375 36.375 
Q 56.59375 19.140625 48.40625 8.859375 
Q 40.234375 -1.421875 26.421875 -1.421875 
Q 22.703125 -1.421875 18.890625 -0.6875 
Q 15.09375 0.046875 10.984375 1.515625 
z
M 30.609375 32.421875 
Q 37.25 32.421875 41.125 36.953125 
Q 45.015625 41.5 45.015625 49.421875 
Q 45.015625 57.28125 41.125 61.84375 
Q 37.25 66.40625 30.609375 66.40625 
Q 23.96875 66.40625 20.09375 61.84375 
Q 16.21875 57.28125 16.21875 49.421875 
Q 16.21875 41.5 20.09375 36.953125 
Q 23.96875 32.421875 30.609375 32.421875 
z
" id="DejaVuSans-39"/>
      </defs>
      <g transform="translate(480.184 266.199219)scale(0.1 -0.1)">
       <use xlink:href="#DejaVuSans-2212"/>
       <use x="83.789062" xlink:href="#DejaVuSans-39"/>
       <use x="147.412109" xlink:href="#DejaVuSans-30"/>
      </g>
     </g>
    </g>
    <g id="ytick_12">
     <g id="line2d_17">
      <g>
       <use style="stroke:#000000;stroke-width:0.8;" x="473.184" xlink:href="#mae7d436e32" y="214.08"/>
      </g>
     </g>
     <g id="text_17">
      <!-- 60 -->
      <defs>
       <path d="M 33.015625 40.375 
Q 26.375 40.375 22.484375 35.828125 
Q 18.609375 31.296875 18.609375 23.390625 
Q 18.609375 15.53125 22.484375 10.953125 
Q 26.375 6.390625 33.015625 6.390625 
Q 39.65625 6.390625 43.53125 10.953125 
Q 47.40625 15.53125 47.40625 23.390625 
Q 47.40625 31.296875 43.53125 35.828125 
Q 39.65625 40.375 33.015625 40.375 
z
M 52.59375 71.296875 
L 52.59375 62.3125 
Q 48.875 64.0625 45.09375 64.984375 
Q 41.3125 65.921875 37.59375 65.921875 
Q 27.828125 65.921875 22.671875 59.328125 
Q 17.53125 52.734375 16.796875 39.40625 
Q 19.671875 43.65625 24.015625 45.921875 
Q 28.375 48.1875 33.59375 48.1875 
Q 44.578125 48.1875 50.953125 41.515625 
Q 57.328125 34.859375 57.328125 23.390625 
Q 57.328125 12.15625 50.6875 5.359375 
Q 44.046875 -1.421875 33.015625 -1.421875 
Q 20.359375 -1.421875 13.671875 8.265625 
Q 6.984375 17.96875 6.984375 36.375 
Q 6.984375 53.65625 15.1875 63.9375 
Q 23.390625 74.21875 37.203125 74.21875 
Q 40.921875 74.21875 44.703125 73.484375 
Q 48.484375 72.75 52.59375 71.296875 
z
" id="DejaVuSans-36"/>
      </defs>
      <g transform="translate(480.184 217.879219)scale(0.1 -0.1)">
       <use xlink:href="#DejaVuSans-2212"/>
       <use x="83.789062" xlink:href="#DejaVuSans-36"/>
       <use x="147.412109" xlink:href="#DejaVuSans-30"/>
      </g>
     </g>
    </g>
    <g id="ytick_13">
     <g id="line2d_18">
      <g>
       <use style="stroke:#000000;stroke-width:0.8;" x="473.184" xlink:href="#mae7d436e32" y="165.76"/>
      </g>
     </g>
     <g id="text_18">
      <!-- 30 -->
      <defs>
       <path d="M 40.578125 39.3125 
Q 47.65625 37.796875 51.625 33 
Q 55.609375 28.21875 55.609375 21.1875 
Q 55.609375 10.40625 48.1875 4.484375 
Q 40.765625 -1.421875 27.09375 -1.421875 
Q 22.515625 -1.421875 17.65625 -0.515625 
Q 12.796875 0.390625 7.625 2.203125 
L 7.625 11.71875 
Q 11.71875 9.328125 16.59375 8.109375 
Q 21.484375 6.890625 26.8125 6.890625 
Q 36.078125 6.890625 40.9375 10.546875 
Q 45.796875 14.203125 45.796875 21.1875 
Q 45.796875 27.640625 41.28125 31.265625 
Q 36.765625 34.90625 28.71875 34.90625 
L 20.21875 34.90625 
L 20.21875 43.015625 
L 29.109375 43.015625 
Q 36.375 43.015625 40.234375 45.921875 
Q 44.09375 48.828125 44.09375 54.296875 
Q 44.09375 59.90625 40.109375 62.90625 
Q 36.140625 65.921875 28.71875 65.921875 
Q 24.65625 65.921875 20.015625 65.03125 
Q 15.375 64.15625 9.8125 62.3125 
L 9.8125 71.09375 
Q 15.4375 72.65625 20.34375 73.4375 
Q 25.25 74.21875 29.59375 74.21875 
Q 40.828125 74.21875 47.359375 69.109375 
Q 53.90625 64.015625 53.90625 55.328125 
Q 53.90625 49.265625 50.4375 45.09375 
Q 46.96875 40.921875 40.578125 39.3125 
z
" id="DejaVuSans-33"/>
      </defs>
      <g transform="translate(480.184 169.559219)scale(0.1 -0.1)">
       <use xlink:href="#DejaVuSans-2212"/>
       <use x="83.789062" xlink:href="#DejaVuSans-33"/>
       <use x="147.412109" xlink:href="#DejaVuSans-30"/>
      </g>
     </g>
    </g>
    <g id="ytick_14">
     <g id="line2d_19">
      <g>
       <use style="stroke:#000000;stroke-width:0.8;" x="473.184" xlink:href="#mae7d436e32" y="117.44"/>
      </g>
     </g>
     <g id="text_19">
      <!-- 0 -->
      <g transform="translate(480.184 121.239219)scale(0.1 -0.1)">
       <use xlink:href="#DejaVuSans-30"/>
      </g>
     </g>
    </g>
    <g id="ytick_15">
     <g id="line2d_20">
      <g>
       <use style="stroke:#000000;stroke-width:0.8;" x="473.184" xlink:href="#mae7d436e32" y="69.12"/>
      </g>
     </g>
     <g id="text_20">
      <!-- 30 -->
      <g transform="translate(480.184 72.919219)scale(0.1 -0.1)">
       <use xlink:href="#DejaVuSans-33"/>
       <use x="63.623047" xlink:href="#DejaVuSans-30"/>
      </g>
     </g>
    </g>
   </g>
   <g id="patch_8">
    <path d="M 451.44 504 
L 451.44 455.68 
L 451.44 117.44 
L 451.44 69.12 
L 473.184 69.12 
L 473.184 117.44 
L 473.184 455.68 
L 473.184 504 
z
" style="fill:none;stroke:#000000;stroke-linejoin:miter;stroke-width:0.8;"/>
   </g>
  </g>
 </g>
 <defs>
  <clipPath id="p48c29fc85f">
   <rect height="434.88" width="357.12" x="72" y="69.12"/>
  </clipPath>
  <clipPath id="p274eb75f2d">
   <rect height="434.88" width="21.744" x="451.44" y="69.12"/>
  </clipPath>
 </defs>
</svg>
