<?xml version="1.0" encoding="utf-8" standalone="no"?>
<!DOCTYPE svg PUBLIC "-//W3C//DTD SVG 1.1//EN"
  "http://www.w3.org/Graphics/SVG/1.1/DTD/svg11.dtd">
<!-- Created with matplotlib (http://matplotlib.org/) -->
<svg height="576pt" version="1.1" viewBox="0 0 576 576" width="576pt" xmlns="http://www.w3.org/2000/svg" xmlns:xlink="http://www.w3.org/1999/xlink">
 <defs>
  <style type="text/css">
*{stroke-linecap:butt;stroke-linejoin:round;}
  </style>
 </defs>
 <g id="figure_1">
  <g id="patch_1">
   <path d="M 0 576 
L 576 576 
L 576 0 
L 0 0 
z
" style="fill:#ffffff;"/>
  </g>
  <g id="axes_1">
   <g id="patch_2">
    <path d="M 72 504 
L 429.12 504 
L 429.12 69.12 
L 72 69.12 
z
" style="fill:#ffffff;"/>
   </g>
   <g id="PathCollection_1">
    <path clip-path="url(#p7bb1a6bfab)" d="M 75.607273 504 
L 79.214545 504 
L 81.831837 504 
L 79.214545 499.648853 
L 79.189534 499.607273 
L 76.547196 495.214545 
L 75.607273 493.585227 
L 74.35557 490.821818 
L 72.997718 486.429091 
L 72 483.201416 
L 72 486.429091 
L 72 490.821818 
L 72 495.214545 
L 72 499.607273 
L 72 504 
z
" style="fill:#4e68d8;"/>
    <path clip-path="url(#p7bb1a6bfab)" d="M 429.12 150.276759 
L 429.12 148.189091 
L 429.12 143.796364 
L 429.12 139.403636 
L 429.12 135.010909 
L 429.12 130.618182 
L 429.12 126.225455 
L 429.12 121.832727 
L 429.12 117.44 
L 429.12 113.047273 
L 429.12 108.654545 
L 429.12 104.261818 
L 429.12 99.869091 
L 429.12 95.476364 
L 429.12 91.083636 
L 429.12 86.690909 
L 429.12 82.298182 
L 429.12 77.905455 
L 429.12 73.512727 
L 429.12 69.12 
L 425.512727 69.12 
L 421.905455 69.12 
L 418.298182 69.12 
L 414.690909 69.12 
L 411.083636 69.12 
L 407.476364 69.12 
L 403.869091 69.12 
L 400.261818 69.12 
L 396.654545 69.12 
L 393.047273 69.12 
L 389.44 69.12 
L 388.124214 69.12 
L 389.44 69.589325 
L 393.047273 70.876009 
L 396.654545 72.904146 
L 397.494841 73.512727 
L 400.261818 75.516702 
L 403.560108 77.905455 
L 403.869091 78.129231 
L 407.476364 81.136523 
L 408.428454 82.298182 
L 411.083636 86.085079 
L 411.508414 86.690909 
L 414.588375 91.083636 
L 414.690909 91.229871 
L 417.668383 95.476364 
L 418.298182 96.620242 
L 419.713543 99.869091 
L 420.934854 104.261818 
L 421.71682 108.654545 
L 421.905455 109.715095 
L 422.498132 113.047273 
L 423.279444 117.44 
L 424.060772 121.832727 
L 424.842097 126.225455 
L 425.512727 129.995959 
L 425.623397 130.618182 
L 426.404725 135.010909 
L 427.186053 139.403636 
L 427.96737 143.796364 
L 428.748677 148.189091 
z
" style="fill:#4e68d8;"/>
    <path clip-path="url(#p7bb1a6bfab)" d="M 73.618872 77.905455 
L 75.607273 75.175392 
L 77.04977 73.512727 
L 79.214545 71.01762 
L 80.860935 69.12 
L 79.214545 69.12 
L 75.607273 69.12 
L 72 69.12 
L 72 73.512727 
L 72 77.905455 
L 72 81.053509 
z
" style="fill:#4e68d8;"/>
   </g>
   <g id="PathCollection_2">
    <path clip-path="url(#p7bb1a6bfab)" d="M 79.214545 499.648853 
L 81.831837 504 
L 82.821818 504 
L 86.429091 504 
L 90.036364 504 
L 93.643636 504 
L 97.250909 504 
L 100.858182 504 
L 104.465455 504 
L 108.072727 504 
L 111.68 504 
L 115.287273 504 
L 118.894545 504 
L 122.501818 504 
L 126.109091 504 
L 129.716364 504 
L 133.323636 504 
L 136.930909 504 
L 140.538182 504 
L 144.145455 504 
L 147.752727 504 
L 151.36 504 
L 154.967273 504 
L 158.574545 504 
L 162.181818 504 
L 165.789091 504 
L 169.396364 504 
L 173.003636 504 
L 176.610909 504 
L 180.218182 504 
L 183.825455 504 
L 187.432727 504 
L 191.04 504 
L 194.647273 504 
L 198.254545 504 
L 201.861818 504 
L 205.469091 504 
L 209.076364 504 
L 212.683636 504 
L 216.290909 504 
L 219.898182 504 
L 223.505455 504 
L 227.112727 504 
L 230.72 504 
L 234.327273 504 
L 237.934545 504 
L 241.541818 504 
L 245.149091 504 
L 248.756364 504 
L 252.363636 504 
L 255.970909 504 
L 259.578182 504 
L 263.185455 504 
L 266.792727 504 
L 269.78487 504 
L 266.792727 503.604425 
L 263.185455 503.127539 
L 259.578182 502.650649 
L 255.970909 502.173754 
L 252.363636 501.696891 
L 248.756364 501.219981 
L 245.149091 500.743096 
L 241.541818 500.266201 
L 237.934545 499.78932 
L 236.557537 499.607273 
L 234.327273 499.312419 
L 230.72 498.835536 
L 227.112727 498.358654 
L 223.505455 497.881763 
L 219.898182 497.404849 
L 216.290909 496.927966 
L 212.683636 496.451055 
L 209.076364 495.974181 
L 205.469091 495.497279 
L 203.330417 495.214545 
L 201.861818 495.020397 
L 198.254545 494.543517 
L 194.647273 494.066637 
L 191.04 493.589736 
L 187.432727 493.112845 
L 183.825455 492.635947 
L 180.218182 492.159069 
L 176.610909 491.682159 
L 173.003636 491.205293 
L 170.103144 490.821818 
L 169.396364 490.728374 
L 165.789091 490.251511 
L 162.181818 489.774609 
L 158.574545 489.297706 
L 154.967273 488.820824 
L 151.36 488.343933 
L 147.752727 487.867039 
L 144.145455 487.390152 
L 140.538182 486.913236 
L 136.930909 486.436371 
L 136.875841 486.429091 
L 133.323636 485.959471 
L 129.716364 485.482571 
L 126.109091 485.00569 
L 122.501818 484.409028 
L 118.894545 483.195688 
L 117.234821 482.036364 
L 115.287273 480.267766 
L 113.170013 477.643636 
L 111.68 475.166547 
L 110.527702 473.250909 
L 108.072727 469.169597 
L 107.885406 468.858182 
L 105.243105 464.465455 
L 104.465455 463.17264 
L 102.600802 460.072727 
L 100.858182 456.49174 
L 100.548011 455.68 
L 99.190152 451.287273 
L 97.832294 446.894545 
L 97.250909 445.013742 
L 96.474443 442.501818 
L 95.52839 438.109091 
L 95.046403 433.716364 
L 94.564419 429.323636 
L 94.082428 424.930909 
L 93.643636 420.931861 
L 93.60044 420.538182 
L 93.118451 416.145455 
L 92.636461 411.752727 
L 92.154455 407.36 
L 91.67248 402.967273 
L 91.190492 398.574545 
L 90.708499 394.181818 
L 90.226497 389.789091 
L 90.036364 388.056209 
L 89.744524 385.396364 
L 89.262518 381.003636 
L 88.780538 376.610909 
L 88.298546 372.218182 
L 87.816552 367.825455 
L 87.334571 363.432727 
L 86.852569 359.04 
L 86.429091 355.1804 
L 86.370596 354.647273 
L 85.888579 350.254545 
L 85.406612 345.861818 
L 84.924618 341.469091 
L 84.442621 337.076364 
L 83.960632 332.683636 
L 83.478645 328.290909 
L 82.996652 323.898182 
L 82.821818 322.304788 
L 82.514663 319.505455 
L 82.032664 315.112727 
L 81.550669 310.72 
L 81.068694 306.327273 
L 80.586714 301.934545 
L 80.104723 297.541818 
L 79.751806 293.149091 
L 80.09903 288.756364 
L 80.385962 284.363636 
L 80.611604 279.970909 
L 80.837268 275.578182 
L 81.062946 271.185455 
L 81.288601 266.792727 
L 81.514247 262.4 
L 81.739925 258.007273 
L 81.965591 253.614545 
L 82.191247 249.221818 
L 82.41691 244.829091 
L 82.64256 240.436364 
L 82.821818 236.946896 
L 82.868221 236.043636 
L 83.093899 231.650909 
L 83.319562 227.258182 
L 83.543647 222.865455 
L 83.764991 218.472727 
L 83.987091 214.08 
L 84.208488 209.687273 
L 84.429143 205.294545 
L 84.64981 200.901818 
L 84.870479 196.509091 
L 85.091139 192.116364 
L 85.311775 187.723636 
L 85.520525 183.330909 
L 85.722195 178.938182 
L 85.926758 174.545455 
L 86.13456 170.152727 
L 86.342359 165.76 
L 86.429091 163.926968 
L 86.550205 161.367273 
L 86.758004 156.974545 
L 86.975208 152.581818 
L 87.596821 148.189091 
L 88.561796 143.796364 
L 89.526769 139.403636 
L 90.036364 137.083891 
L 90.49175 135.010909 
L 91.605681 130.618182 
L 93.42691 126.225455 
L 93.643636 125.755042 
L 95.450689 121.832727 
L 97.250909 117.925242 
L 97.474465 117.44 
L 99.498242 113.047273 
L 100.858182 110.883569 
L 102.720961 108.654545 
L 104.465455 106.643808 
L 106.532058 104.261818 
L 108.072727 102.48604 
L 110.34318 99.869091 
L 111.68 98.328268 
L 114.154317 95.476364 
L 115.287273 94.170507 
L 117.965406 91.083636 
L 118.894545 90.057535 
L 122.501818 87.67746 
L 125.220513 86.690909 
L 126.109091 86.39445 
L 129.716364 85.722823 
L 133.323636 85.519231 
L 136.930909 85.315643 
L 140.538182 85.112036 
L 144.145455 84.908406 
L 147.752727 84.704801 
L 151.36 84.501196 
L 154.967273 84.297601 
L 158.574545 84.093985 
L 162.181818 83.890387 
L 165.789091 83.686781 
L 169.396364 83.483142 
L 173.003636 83.279573 
L 176.610909 83.07595 
L 180.218182 82.872356 
L 183.825455 82.668733 
L 187.432727 82.465144 
L 190.390785 82.298182 
L 191.04 82.261538 
L 194.647273 82.058309 
L 198.254545 81.862156 
L 201.861818 81.668043 
L 205.469091 81.473945 
L 209.076364 81.279802 
L 212.683636 81.085671 
L 216.290909 80.927445 
L 219.898182 81.391413 
L 223.505455 81.861386 
L 226.857837 82.298182 
L 227.112727 82.331393 
L 230.72 82.80135 
L 234.327273 83.271344 
L 237.934545 83.741332 
L 241.541818 84.211324 
L 245.149091 84.681316 
L 248.756364 85.151301 
L 252.363636 85.621281 
L 255.970909 86.091271 
L 259.578182 86.561229 
L 260.573467 86.690909 
L 263.185455 87.031239 
L 266.792727 87.501212 
L 270.4 87.971199 
L 274.007273 88.441178 
L 277.614545 88.911169 
L 281.221818 89.381143 
L 284.829091 89.851122 
L 288.436364 90.321112 
L 292.043636 90.791085 
L 294.288955 91.083636 
L 295.650909 91.261092 
L 299.258182 91.731066 
L 302.865455 92.201081 
L 306.472727 92.671038 
L 310.08 93.141005 
L 313.687273 93.611008 
L 317.294545 94.080989 
L 320.901818 94.550995 
L 324.509091 95.012121 
L 328.116364 95.470033 
L 328.166235 95.476364 
L 331.723636 95.927941 
L 335.330909 96.385849 
L 338.938182 96.843756 
L 342.545455 97.301682 
L 346.152727 97.759581 
L 349.76 98.217473 
L 353.367273 98.675392 
L 356.974545 99.133323 
L 359.561336 99.869091 
L 360.581818 100.197204 
L 364.189091 101.483876 
L 367.796364 102.770573 
L 370.979353 104.261818 
L 371.403636 104.50427 
L 375.010909 107.116836 
L 377.134106 108.654545 
L 378.618182 109.729377 
L 382.225455 112.341943 
L 382.996423 113.047273 
L 385.832727 116.502568 
L 386.490008 117.44 
L 389.44 121.647298 
L 389.570015 121.832727 
L 392.65 126.225455 
L 393.047273 126.891545 
L 394.530974 130.618182 
L 395.312279 135.010909 
L 396.093594 139.403636 
L 396.654545 142.557392 
L 396.87492 143.796364 
L 397.656232 148.189091 
L 398.437536 152.581818 
L 399.218856 156.974545 
L 400.000185 161.367273 
L 400.261818 162.838273 
L 400.781487 165.76 
L 401.562804 170.152727 
L 402.344121 174.545455 
L 403.125465 178.938182 
L 403.869091 183.11903 
L 403.906777 183.330909 
L 404.688089 187.723636 
L 405.469417 192.116364 
L 406.250719 196.509091 
L 407.032055 200.901818 
L 407.476364 203.399868 
L 407.813356 205.294545 
L 408.594671 209.687273 
L 409.372449 214.08 
L 410.147725 218.472727 
L 410.923 222.865455 
L 411.083636 223.775636 
L 411.698258 227.258182 
L 412.473515 231.650909 
L 413.248775 236.043636 
L 414.024041 240.436364 
L 414.690909 244.215002 
L 414.799287 244.829091 
L 415.57455 249.221818 
L 416.349829 253.614545 
L 417.125087 258.007273 
L 417.900354 262.4 
L 418.298182 264.65417 
L 418.675604 266.792727 
L 419.450873 271.185455 
L 420.226139 275.578182 
L 421.001398 279.970909 
L 421.776658 284.363636 
L 421.905455 287.332592 
L 421.966943 288.756364 
L 421.93365 293.149091 
L 421.905455 296.928438 
L 421.900878 297.541818 
L 421.868091 301.934545 
L 421.835335 306.327273 
L 421.794143 310.72 
L 421.746261 315.112727 
L 421.698346 319.505455 
L 421.650463 323.898182 
L 421.602566 328.290909 
L 421.554682 332.683636 
L 421.506769 337.076364 
L 421.458885 341.469091 
L 421.411002 345.861818 
L 421.363104 350.254545 
L 421.315192 354.647273 
L 421.266367 359.04 
L 421.212809 363.432727 
L 421.157309 367.825455 
L 421.101785 372.218182 
L 421.046288 376.610909 
L 420.9908 381.003636 
L 420.935296 385.396364 
L 420.879779 389.789091 
L 420.824288 394.181818 
L 420.768786 398.574545 
L 420.713285 402.967273 
L 420.657773 407.36 
L 420.602271 411.752727 
L 420.226227 416.145455 
L 419.444755 420.538182 
L 418.663273 424.930909 
L 418.298182 426.983093 
L 417.881793 429.323636 
L 417.100333 433.716364 
L 416.318855 438.109091 
L 415.537381 442.501818 
L 414.755899 446.894545 
L 414.690909 447.259871 
L 413.974453 451.287273 
L 413.192968 455.68 
L 412.453368 460.072727 
L 411.815374 464.465455 
L 411.177416 468.858182 
L 411.083636 469.503873 
L 410.539417 473.250909 
L 409.901463 477.643636 
L 409.114176 482.036364 
L 407.476364 485.353852 
L 406.663616 486.429091 
L 403.869091 489.916995 
L 402.8149 490.821818 
L 400.261818 492.605689 
L 396.654545 495.018088 
L 396.091428 495.214545 
L 393.047273 496.076579 
L 389.44 497.098111 
L 385.832727 497.974189 
L 382.225455 498.337953 
L 378.618182 498.584939 
L 375.010909 498.831942 
L 371.403636 499.078935 
L 367.796364 499.325939 
L 364.189091 499.572905 
L 363.687186 499.607273 
L 360.581818 499.819911 
L 356.974545 500.066917 
L 353.367273 500.313905 
L 349.76 500.560907 
L 346.152727 500.807898 
L 342.545455 501.054884 
L 338.938182 501.301883 
L 335.330909 501.548869 
L 331.723636 501.795864 
L 328.116364 502.042859 
L 324.509091 502.289853 
L 320.901818 502.536837 
L 317.294545 502.783841 
L 313.687273 503.03082 
L 310.08 503.277826 
L 306.472727 503.524811 
L 302.865455 503.771816 
L 299.532792 504 
L 302.865455 504 
L 306.472727 504 
L 310.08 504 
L 313.687273 504 
L 317.294545 504 
L 320.901818 504 
L 324.509091 504 
L 328.116364 504 
L 331.723636 504 
L 335.330909 504 
L 338.938182 504 
L 342.545455 504 
L 346.152727 504 
L 349.76 504 
L 353.367273 504 
L 356.974545 504 
L 360.581818 504 
L 364.189091 504 
L 367.796364 504 
L 371.403636 504 
L 375.010909 504 
L 378.618182 504 
L 382.225455 504 
L 385.832727 504 
L 389.44 504 
L 393.047273 504 
L 396.654545 504 
L 400.261818 504 
L 403.869091 504 
L 407.476364 504 
L 411.083636 504 
L 414.690909 504 
L 418.298182 504 
L 421.905455 504 
L 425.512727 504 
L 429.12 504 
L 429.12 499.607273 
L 429.12 495.214545 
L 429.12 490.821818 
L 429.12 486.429091 
L 429.12 482.036364 
L 429.12 477.643636 
L 429.12 473.250909 
L 429.12 468.858182 
L 429.12 464.465455 
L 429.12 460.072727 
L 429.12 455.68 
L 429.12 451.287273 
L 429.12 446.894545 
L 429.12 442.501818 
L 429.12 438.109091 
L 429.12 433.716364 
L 429.12 429.323636 
L 429.12 424.930909 
L 429.12 420.538182 
L 429.12 416.145455 
L 429.12 411.752727 
L 429.12 407.36 
L 429.12 402.967273 
L 429.12 398.574545 
L 429.12 394.181818 
L 429.12 389.789091 
L 429.12 385.396364 
L 429.12 381.003636 
L 429.12 376.610909 
L 429.12 372.218182 
L 429.12 367.825455 
L 429.12 363.432727 
L 429.12 359.04 
L 429.12 354.647273 
L 429.12 350.254545 
L 429.12 345.861818 
L 429.12 341.469091 
L 429.12 337.076364 
L 429.12 332.683636 
L 429.12 328.290909 
L 429.12 323.898182 
L 429.12 319.505455 
L 429.12 315.112727 
L 429.12 310.72 
L 429.12 306.327273 
L 429.12 301.934545 
L 429.12 297.541818 
L 429.12 293.149091 
L 429.12 288.756364 
L 429.12 284.363636 
L 429.12 279.970909 
L 429.12 275.578182 
L 429.12 271.185455 
L 429.12 266.792727 
L 429.12 262.4 
L 429.12 258.007273 
L 429.12 253.614545 
L 429.12 249.221818 
L 429.12 244.829091 
L 429.12 240.436364 
L 429.12 236.043636 
L 429.12 231.650909 
L 429.12 227.258182 
L 429.12 222.865455 
L 429.12 218.472727 
L 429.12 214.08 
L 429.12 209.687273 
L 429.12 205.294545 
L 429.12 200.901818 
L 429.12 196.509091 
L 429.12 192.116364 
L 429.12 187.723636 
L 429.12 183.330909 
L 429.12 178.938182 
L 429.12 174.545455 
L 429.12 170.152727 
L 429.12 165.76 
L 429.12 161.367273 
L 429.12 156.974545 
L 429.12 152.581818 
L 429.12 150.276759 
L 428.748677 148.189091 
L 427.96737 143.796364 
L 427.186053 139.403636 
L 426.404725 135.010909 
L 425.623397 130.618182 
L 425.512727 129.995959 
L 424.842097 126.225455 
L 424.060772 121.832727 
L 423.279444 117.44 
L 422.498132 113.047273 
L 421.905455 109.715095 
L 421.71682 108.654545 
L 420.934854 104.261818 
L 419.713543 99.869091 
L 418.298182 96.620242 
L 417.668383 95.476364 
L 414.690909 91.229871 
L 414.588375 91.083636 
L 411.508414 86.690909 
L 411.083636 86.085079 
L 408.428454 82.298182 
L 407.476364 81.136523 
L 403.869091 78.129231 
L 403.560108 77.905455 
L 400.261818 75.516702 
L 397.494841 73.512727 
L 396.654545 72.904146 
L 393.047273 70.876009 
L 389.44 69.589325 
L 388.124214 69.12 
L 385.832727 69.12 
L 382.225455 69.12 
L 378.618182 69.12 
L 375.010909 69.12 
L 371.403636 69.12 
L 367.796364 69.12 
L 364.189091 69.12 
L 360.581818 69.12 
L 356.974545 69.12 
L 353.367273 69.12 
L 349.76 69.12 
L 346.152727 69.12 
L 342.545455 69.12 
L 338.938182 69.12 
L 335.330909 69.12 
L 331.723636 69.12 
L 328.116364 69.12 
L 324.509091 69.12 
L 320.901818 69.12 
L 317.294545 69.12 
L 313.687273 69.12 
L 310.08 69.12 
L 306.472727 69.12 
L 302.865455 69.12 
L 299.258182 69.12 
L 295.650909 69.12 
L 292.043636 69.12 
L 288.436364 69.12 
L 284.829091 69.12 
L 281.221818 69.12 
L 277.614545 69.12 
L 274.007273 69.12 
L 270.4 69.12 
L 266.792727 69.12 
L 263.185455 69.12 
L 259.578182 69.12 
L 255.970909 69.12 
L 252.363636 69.12 
L 248.756364 69.12 
L 245.149091 69.12 
L 241.541818 69.12 
L 237.934545 69.12 
L 234.327273 69.12 
L 230.72 69.12 
L 227.112727 69.12 
L 223.505455 69.12 
L 219.898182 69.12 
L 216.290909 69.12 
L 212.683636 69.12 
L 209.076364 69.12 
L 205.469091 69.12 
L 201.861818 69.12 
L 198.254545 69.12 
L 194.647273 69.12 
L 191.04 69.12 
L 187.432727 69.12 
L 183.825455 69.12 
L 180.218182 69.12 
L 176.610909 69.12 
L 173.003636 69.12 
L 169.396364 69.12 
L 165.789091 69.12 
L 162.181818 69.12 
L 158.574545 69.12 
L 154.967273 69.12 
L 151.36 69.12 
L 147.752727 69.12 
L 144.145455 69.12 
L 140.538182 69.12 
L 136.930909 69.12 
L 133.323636 69.12 
L 129.716364 69.12 
L 126.109091 69.12 
L 122.501818 69.12 
L 118.894545 69.12 
L 115.287273 69.12 
L 111.68 69.12 
L 108.072727 69.12 
L 104.465455 69.12 
L 100.858182 69.12 
L 97.250909 69.12 
L 93.643636 69.12 
L 90.036364 69.12 
L 86.429091 69.12 
L 82.821818 69.12 
L 80.860935 69.12 
L 79.214545 71.01762 
L 77.04977 73.512727 
L 75.607273 75.175392 
L 73.618872 77.905455 
L 72 81.053509 
L 72 82.298182 
L 72 86.690909 
L 72 91.083636 
L 72 95.476364 
L 72 99.869091 
L 72 104.261818 
L 72 108.654545 
L 72 113.047273 
L 72 117.44 
L 72 121.832727 
L 72 126.225455 
L 72 130.618182 
L 72 135.010909 
L 72 139.403636 
L 72 143.796364 
L 72 148.189091 
L 72 152.581818 
L 72 156.974545 
L 72 161.367273 
L 72 165.76 
L 72 170.152727 
L 72 174.545455 
L 72 178.938182 
L 72 183.330909 
L 72 187.723636 
L 72 192.116364 
L 72 196.509091 
L 72 200.901818 
L 72 205.294545 
L 72 209.687273 
L 72 214.08 
L 72 218.472727 
L 72 222.865455 
L 72 227.258182 
L 72 231.650909 
L 72 236.043636 
L 72 240.436364 
L 72 244.829091 
L 72 249.221818 
L 72 253.614545 
L 72 258.007273 
L 72 262.4 
L 72 266.792727 
L 72 271.185455 
L 72 275.578182 
L 72 279.970909 
L 72 284.363636 
L 72 288.756364 
L 72 293.149091 
L 72 297.541818 
L 72 301.934545 
L 72 306.327273 
L 72 310.72 
L 72 315.112727 
L 72 319.505455 
L 72 323.898182 
L 72 328.290909 
L 72 332.683636 
L 72 337.076364 
L 72 341.469091 
L 72 345.861818 
L 72 350.254545 
L 72 354.647273 
L 72 359.04 
L 72 363.432727 
L 72 367.825455 
L 72 372.218182 
L 72 376.610909 
L 72 381.003636 
L 72 385.396364 
L 72 389.789091 
L 72 394.181818 
L 72 398.574545 
L 72 402.967273 
L 72 407.36 
L 72 411.752727 
L 72 416.145455 
L 72 420.538182 
L 72 424.930909 
L 72 429.323636 
L 72 433.716364 
L 72 438.109091 
L 72 442.501818 
L 72 446.894545 
L 72 451.287273 
L 72 455.68 
L 72 460.072727 
L 72 464.465455 
L 72 468.858182 
L 72 473.250909 
L 72 477.643636 
L 72 482.036364 
L 72 483.201416 
L 72.997718 486.429091 
L 74.35557 490.821818 
L 75.607273 493.585227 
L 76.547196 495.214545 
L 79.189534 499.607273 
z
" style="fill:#779af7;"/>
   </g>
   <g id="PathCollection_3">
    <path clip-path="url(#p7bb1a6bfab)" d="M 237.934545 499.78932 
L 241.541818 500.266201 
L 245.149091 500.743096 
L 248.756364 501.219981 
L 252.363636 501.696891 
L 255.970909 502.173754 
L 259.578182 502.650649 
L 263.185455 503.127539 
L 266.792727 503.604425 
L 269.78487 504 
L 270.4 504 
L 274.007273 504 
L 277.614545 504 
L 281.221818 504 
L 284.829091 504 
L 288.436364 504 
L 292.043636 504 
L 295.650909 504 
L 299.258182 504 
L 299.532792 504 
L 302.865455 503.771816 
L 306.472727 503.524811 
L 310.08 503.277826 
L 313.687273 503.03082 
L 317.294545 502.783841 
L 320.901818 502.536837 
L 324.509091 502.289853 
L 328.116364 502.042859 
L 331.723636 501.795864 
L 335.330909 501.548869 
L 338.938182 501.301883 
L 342.545455 501.054884 
L 346.152727 500.807898 
L 349.76 500.560907 
L 353.367273 500.313905 
L 356.974545 500.066917 
L 360.581818 499.819911 
L 363.687186 499.607273 
L 364.189091 499.572905 
L 367.796364 499.325939 
L 371.403636 499.078935 
L 375.010909 498.831942 
L 378.618182 498.584939 
L 382.225455 498.337953 
L 385.832727 497.974189 
L 389.44 497.098111 
L 393.047273 496.076579 
L 396.091428 495.214545 
L 396.654545 495.018088 
L 400.261818 492.605689 
L 402.8149 490.821818 
L 403.869091 489.916995 
L 406.663616 486.429091 
L 407.476364 485.353852 
L 409.114176 482.036364 
L 409.901463 477.643636 
L 410.539417 473.250909 
L 411.083636 469.503873 
L 411.177416 468.858182 
L 411.815374 464.465455 
L 412.453368 460.072727 
L 413.192968 455.68 
L 413.974453 451.287273 
L 414.690909 447.259871 
L 414.755899 446.894545 
L 415.537381 442.501818 
L 416.318855 438.109091 
L 417.100333 433.716364 
L 417.881793 429.323636 
L 418.298182 426.983093 
L 418.663273 424.930909 
L 419.444755 420.538182 
L 420.226227 416.145455 
L 420.602271 411.752727 
L 420.657773 407.36 
L 420.713285 402.967273 
L 420.768786 398.574545 
L 420.824288 394.181818 
L 420.879779 389.789091 
L 420.935296 385.396364 
L 420.9908 381.003636 
L 421.046288 376.610909 
L 421.101785 372.218182 
L 421.157309 367.825455 
L 421.212809 363.432727 
L 421.266367 359.04 
L 421.315192 354.647273 
L 421.363104 350.254545 
L 421.411002 345.861818 
L 421.458885 341.469091 
L 421.506769 337.076364 
L 421.554682 332.683636 
L 421.602566 328.290909 
L 421.650463 323.898182 
L 421.698346 319.505455 
L 421.746261 315.112727 
L 421.794143 310.72 
L 421.835335 306.327273 
L 421.868091 301.934545 
L 421.900878 297.541818 
L 421.905455 296.928438 
L 421.93365 293.149091 
L 421.966943 288.756364 
L 421.905455 287.332592 
L 421.776658 284.363636 
L 421.001398 279.970909 
L 420.226139 275.578182 
L 419.450873 271.185455 
L 418.675604 266.792727 
L 418.298182 264.65417 
L 417.900354 262.4 
L 417.125087 258.007273 
L 416.349829 253.614545 
L 415.57455 249.221818 
L 414.799287 244.829091 
L 414.690909 244.215002 
L 414.024041 240.436364 
L 413.248775 236.043636 
L 412.473515 231.650909 
L 411.698258 227.258182 
L 411.083636 223.775636 
L 410.923 222.865455 
L 410.147725 218.472727 
L 409.372449 214.08 
L 408.594671 209.687273 
L 407.813356 205.294545 
L 407.476364 203.399868 
L 407.032055 200.901818 
L 406.250719 196.509091 
L 405.469417 192.116364 
L 404.688089 187.723636 
L 403.906777 183.330909 
L 403.869091 183.11903 
L 403.125465 178.938182 
L 402.344121 174.545455 
L 401.562804 170.152727 
L 400.781487 165.76 
L 400.261818 162.838273 
L 400.000185 161.367273 
L 399.218856 156.974545 
L 398.437536 152.581818 
L 397.656232 148.189091 
L 396.87492 143.796364 
L 396.654545 142.557392 
L 396.093594 139.403636 
L 395.312279 135.010909 
L 394.530974 130.618182 
L 393.047273 126.891545 
L 392.65 126.225455 
L 389.570015 121.832727 
L 389.44 121.647298 
L 386.490008 117.44 
L 385.832727 116.502568 
L 382.996423 113.047273 
L 382.225455 112.341943 
L 378.618182 109.729377 
L 377.134106 108.654545 
L 375.010909 107.116836 
L 371.403636 104.50427 
L 370.979353 104.261818 
L 367.796364 102.770573 
L 364.189091 101.483876 
L 360.581818 100.197204 
L 359.561336 99.869091 
L 356.974545 99.133323 
L 353.367273 98.675392 
L 349.76 98.217473 
L 346.152727 97.759581 
L 342.545455 97.301682 
L 338.938182 96.843756 
L 335.330909 96.385849 
L 331.723636 95.927941 
L 328.166235 95.476364 
L 328.116364 95.470033 
L 324.509091 95.012121 
L 320.901818 94.550995 
L 317.294545 94.080989 
L 313.687273 93.611008 
L 310.08 93.141005 
L 306.472727 92.671038 
L 302.865455 92.201081 
L 299.258182 91.731066 
L 295.650909 91.261092 
L 294.288955 91.083636 
L 292.043636 90.791085 
L 288.436364 90.321112 
L 284.829091 89.851122 
L 281.221818 89.381143 
L 277.614545 88.911169 
L 274.007273 88.441178 
L 270.4 87.971199 
L 266.792727 87.501212 
L 263.185455 87.031239 
L 260.573467 86.690909 
L 259.578182 86.561229 
L 255.970909 86.091271 
L 252.363636 85.621281 
L 248.756364 85.151301 
L 245.149091 84.681316 
L 241.541818 84.211324 
L 237.934545 83.741332 
L 234.327273 83.271344 
L 230.72 82.80135 
L 227.112727 82.331393 
L 226.857837 82.298182 
L 223.505455 81.861386 
L 219.898182 81.391413 
L 216.290909 80.927445 
L 212.683636 81.085671 
L 209.076364 81.279802 
L 205.469091 81.473945 
L 201.861818 81.668043 
L 198.254545 81.862156 
L 194.647273 82.058309 
L 191.04 82.261538 
L 190.390785 82.298182 
L 187.432727 82.465144 
L 183.825455 82.668733 
L 180.218182 82.872356 
L 176.610909 83.07595 
L 173.003636 83.279573 
L 169.396364 83.483142 
L 165.789091 83.686781 
L 162.181818 83.890387 
L 158.574545 84.093985 
L 154.967273 84.297601 
L 151.36 84.501196 
L 147.752727 84.704801 
L 144.145455 84.908406 
L 140.538182 85.112036 
L 136.930909 85.315643 
L 133.323636 85.519231 
L 129.716364 85.722823 
L 126.109091 86.39445 
L 125.220513 86.690909 
L 122.501818 87.67746 
L 118.894545 90.057535 
L 117.965406 91.083636 
L 115.287273 94.170507 
L 114.154317 95.476364 
L 111.68 98.328268 
L 110.34318 99.869091 
L 108.072727 102.48604 
L 106.532058 104.261818 
L 104.465455 106.643808 
L 102.720961 108.654545 
L 100.858182 110.883569 
L 99.498242 113.047273 
L 97.474465 117.44 
L 97.250909 117.925242 
L 95.450689 121.832727 
L 93.643636 125.755042 
L 93.42691 126.225455 
L 91.605681 130.618182 
L 90.49175 135.010909 
L 90.036364 137.083891 
L 89.526769 139.403636 
L 88.561796 143.796364 
L 87.596821 148.189091 
L 86.975208 152.581818 
L 86.758004 156.974545 
L 86.550205 161.367273 
L 86.429091 163.926968 
L 86.342359 165.76 
L 86.13456 170.152727 
L 85.926758 174.545455 
L 85.722195 178.938182 
L 85.520525 183.330909 
L 85.311775 187.723636 
L 85.091139 192.116364 
L 84.870479 196.509091 
L 84.64981 200.901818 
L 84.429143 205.294545 
L 84.208488 209.687273 
L 83.987091 214.08 
L 83.764991 218.472727 
L 83.543647 222.865455 
L 83.319562 227.258182 
L 83.093899 231.650909 
L 82.868221 236.043636 
L 82.821818 236.946896 
L 82.64256 240.436364 
L 82.41691 244.829091 
L 82.191247 249.221818 
L 81.965591 253.614545 
L 81.739925 258.007273 
L 81.514247 262.4 
L 81.288601 266.792727 
L 81.062946 271.185455 
L 80.837268 275.578182 
L 80.611604 279.970909 
L 80.385962 284.363636 
L 80.09903 288.756364 
L 79.751806 293.149091 
L 80.104723 297.541818 
L 80.586714 301.934545 
L 81.068694 306.327273 
L 81.550669 310.72 
L 82.032664 315.112727 
L 82.514663 319.505455 
L 82.821818 322.304788 
L 82.996652 323.898182 
L 83.478645 328.290909 
L 83.960632 332.683636 
L 84.442621 337.076364 
L 84.924618 341.469091 
L 85.406612 345.861818 
L 85.888579 350.254545 
L 86.370596 354.647273 
L 86.429091 355.1804 
L 86.852569 359.04 
L 87.334571 363.432727 
L 87.816552 367.825455 
L 88.298546 372.218182 
L 88.780538 376.610909 
L 89.262518 381.003636 
L 89.744524 385.396364 
L 90.036364 388.056209 
L 90.226497 389.789091 
L 90.708499 394.181818 
L 91.190492 398.574545 
L 91.67248 402.967273 
L 92.154455 407.36 
L 92.636461 411.752727 
L 93.118451 416.145455 
L 93.60044 420.538182 
L 93.643636 420.931861 
L 94.082428 424.930909 
L 94.564419 429.323636 
L 95.046403 433.716364 
L 95.52839 438.109091 
L 96.474443 442.501818 
L 97.250909 445.013742 
L 97.832294 446.894545 
L 99.190152 451.287273 
L 100.548011 455.68 
L 100.858182 456.49174 
L 102.600802 460.072727 
L 104.465455 463.17264 
L 105.243105 464.465455 
L 107.885406 468.858182 
L 108.072727 469.169597 
L 110.527702 473.250909 
L 111.68 475.166547 
L 113.170013 477.643636 
L 115.287273 480.267766 
L 117.234821 482.036364 
L 118.894545 483.195688 
L 122.501818 484.409028 
L 126.109091 485.00569 
L 129.716364 485.482571 
L 133.323636 485.959471 
L 136.875841 486.429091 
L 136.930909 486.436371 
L 140.538182 486.913236 
L 144.145455 487.390152 
L 147.752727 487.867039 
L 151.36 488.343933 
L 154.967273 488.820824 
L 158.574545 489.297706 
L 162.181818 489.774609 
L 165.789091 490.251511 
L 169.396364 490.728374 
L 170.103144 490.821818 
L 173.003636 491.205293 
L 176.610909 491.682159 
L 180.218182 492.159069 
L 183.825455 492.635947 
L 187.432727 493.112845 
L 191.04 493.589736 
L 194.647273 494.066637 
L 198.254545 494.543517 
L 201.861818 495.020397 
L 203.330417 495.214545 
L 205.469091 495.497279 
L 209.076364 495.974181 
L 212.683636 496.451055 
L 216.290909 496.927966 
L 219.898182 497.404849 
L 223.505455 497.881763 
L 227.112727 498.358654 
L 230.72 498.835536 
L 234.327273 499.312419 
L 236.557537 499.607273 
z
M 268.187239 464.465455 
L 266.792727 464.281096 
L 263.185455 463.804186 
L 259.578182 463.327306 
L 255.970909 462.850418 
L 252.363636 462.373525 
L 248.756364 461.896629 
L 245.149091 461.419745 
L 241.541818 460.942848 
L 237.934545 460.465966 
L 234.960104 460.072727 
L 234.327273 459.989063 
L 230.72 459.512183 
L 227.112727 459.035283 
L 223.505455 458.558416 
L 219.898182 458.081508 
L 216.290909 457.604611 
L 212.683636 457.127722 
L 209.076364 456.650841 
L 205.469091 456.173933 
L 201.861818 455.697061 
L 201.732771 455.68 
L 198.254545 455.22016 
L 194.647273 454.74328 
L 191.04 454.266387 
L 187.432727 453.789484 
L 183.825455 453.312599 
L 180.218182 452.835719 
L 176.610909 452.358813 
L 173.003636 451.881921 
L 169.396364 451.405038 
L 168.505552 451.287273 
L 165.789091 450.928157 
L 162.181818 450.451263 
L 158.574545 449.974357 
L 154.967273 449.497488 
L 151.36 449.020586 
L 147.752727 448.543693 
L 144.145455 447.888261 
L 142.601556 446.894545 
L 140.538182 444.546146 
L 139.223599 442.501818 
L 136.930909 438.6903 
L 136.581304 438.109091 
L 133.938992 433.716364 
L 133.323636 432.693361 
L 131.296681 429.323636 
L 129.716364 426.696404 
L 128.65439 424.930909 
L 126.752447 420.538182 
L 126.109091 418.495756 
L 125.382576 416.145455 
L 124.081796 411.752727 
L 123.389122 407.36 
L 122.90713 402.967273 
L 122.501818 399.273426 
L 122.425133 398.574545 
L 121.943136 394.181818 
L 121.461169 389.789091 
L 120.979164 385.396364 
L 120.497174 381.003636 
L 120.01519 376.610909 
L 119.533206 372.218182 
L 119.051205 367.825455 
L 118.894545 366.397699 
L 118.569217 363.432727 
L 118.087217 359.04 
L 117.605239 354.647273 
L 117.123247 350.254545 
L 116.641249 345.861818 
L 116.159267 341.469091 
L 115.677292 337.076364 
L 115.287273 333.521932 
L 115.195289 332.683636 
L 114.713306 328.290909 
L 114.231309 323.898182 
L 113.749315 319.505455 
L 113.26733 315.112727 
L 112.785335 310.72 
L 112.30335 306.327273 
L 111.795787 301.934545 
L 111.68 301.076299 
L 111.203162 297.541818 
L 110.610859 293.149091 
L 110.825964 288.756364 
L 111.051615 284.363636 
L 111.277277 279.970909 
L 111.502953 275.578182 
L 111.68 272.13159 
L 111.728601 271.185455 
L 111.954272 266.792727 
L 112.179941 262.4 
L 112.405591 258.007273 
L 112.631262 253.614545 
L 112.856928 249.221818 
L 113.082577 244.829091 
L 113.308249 240.436364 
L 113.533918 236.043636 
L 113.759586 231.650909 
L 113.985249 227.258182 
L 114.210906 222.865455 
L 114.436559 218.472727 
L 114.662238 214.08 
L 114.887901 209.687273 
L 115.113549 205.294545 
L 115.287273 201.912862 
L 115.339212 200.901818 
L 115.564875 196.509091 
L 115.776753 192.116364 
L 115.983508 187.723636 
L 116.190251 183.330909 
L 116.39836 178.938182 
L 116.681592 174.545455 
L 117.473799 170.152727 
L 118.422077 165.76 
L 118.894545 163.603265 
L 119.470267 161.367273 
L 121.386019 156.974545 
L 122.501818 154.547542 
L 123.405542 152.581818 
L 125.425065 148.189091 
L 126.109091 146.867821 
L 128.219005 143.796364 
L 129.716364 142.061271 
L 132.009853 139.403636 
L 133.323636 137.881242 
L 135.800653 135.010909 
L 136.930909 133.701203 
L 139.591509 130.618182 
L 140.538182 129.52119 
L 143.419064 126.225455 
L 144.145455 125.525901 
L 147.752727 123.51443 
L 151.36 122.214995 
L 153.263566 121.832727 
L 154.967273 121.549109 
L 158.574545 121.345484 
L 162.181818 121.141898 
L 165.789091 120.938289 
L 169.396364 120.73468 
L 173.003636 120.531077 
L 176.610909 120.327474 
L 180.218182 120.123872 
L 183.825455 119.920271 
L 187.432727 119.716652 
L 191.04 119.513042 
L 194.647273 119.309458 
L 198.254545 119.105827 
L 201.861818 118.902234 
L 205.469091 118.698616 
L 209.076364 118.49503 
L 212.683636 118.291409 
L 216.290909 118.087794 
L 219.898182 117.884197 
L 223.505455 118.01868 
L 227.112727 118.486363 
L 230.72 118.95602 
L 234.327273 119.42599 
L 237.934545 119.895979 
L 241.541818 120.365966 
L 245.149091 120.835943 
L 248.756364 121.30593 
L 252.363636 121.775914 
L 252.799699 121.832727 
L 255.970909 122.245896 
L 259.578182 122.715885 
L 263.185455 123.185875 
L 266.792727 123.655854 
L 270.4 124.125846 
L 274.007273 124.595826 
L 277.614545 125.065809 
L 281.221818 125.535794 
L 284.829091 126.005777 
L 286.515223 126.225455 
L 288.436364 126.47575 
L 292.043636 126.945742 
L 295.650909 127.415734 
L 299.258182 127.885708 
L 302.865455 128.3557 
L 306.472727 128.825688 
L 310.08 129.295662 
L 313.687273 129.765657 
L 317.294545 130.235632 
L 320.230694 130.618182 
L 320.901818 130.705623 
L 324.509091 131.175598 
L 328.116364 131.645602 
L 331.723636 132.110207 
L 335.330909 132.568122 
L 338.938182 133.378456 
L 342.545455 134.665135 
L 343.514856 135.010909 
L 346.152727 136.144561 
L 349.76 138.716956 
L 350.708126 139.403636 
L 353.367273 141.329511 
L 356.77334 143.796364 
L 356.974545 143.942089 
L 360.581818 147.061056 
L 361.471634 148.189091 
L 364.189091 152.064803 
L 364.551599 152.581818 
L 367.609378 156.974545 
L 367.796364 157.42067 
L 368.907739 161.367273 
L 369.689067 165.76 
L 370.470379 170.152727 
L 371.251691 174.545455 
L 371.403636 175.39971 
L 372.033019 178.938182 
L 372.814331 183.330909 
L 373.595653 187.723636 
L 374.376956 192.116364 
L 375.010909 195.680531 
L 375.158284 196.509091 
L 375.939616 200.901818 
L 376.720924 205.294545 
L 377.500043 209.687273 
L 378.27529 214.08 
L 378.618182 216.022853 
L 379.050559 218.472727 
L 379.825826 222.865455 
L 380.60109 227.258182 
L 381.37635 231.650909 
L 382.151621 236.043636 
L 382.225455 236.461996 
L 382.926863 240.436364 
L 383.702137 244.829091 
L 384.477387 249.221818 
L 385.252656 253.614545 
L 385.832727 256.901283 
L 386.027922 258.007273 
L 386.803185 262.4 
L 387.578446 266.792727 
L 388.353714 271.185455 
L 389.12897 275.578182 
L 389.44 277.330523 
L 389.908078 279.970909 
L 390.701149 284.363636 
L 391.049063 288.756364 
L 391.015944 293.149091 
L 390.970336 297.541818 
L 390.922453 301.934545 
L 390.87453 306.327273 
L 390.826641 310.72 
L 390.778758 315.112727 
L 390.730854 319.505455 
L 390.679172 323.898182 
L 390.624312 328.290909 
L 390.568813 332.683636 
L 390.513309 337.076364 
L 390.457789 341.469091 
L 390.4023 345.861818 
L 390.34679 350.254545 
L 390.291294 354.647273 
L 390.235784 359.04 
L 390.180285 363.432727 
L 390.124779 367.825455 
L 390.069275 372.218182 
L 390.013778 376.610909 
L 389.958267 381.003636 
L 389.902776 385.396364 
L 389.823518 389.789091 
L 389.44 392.205737 
L 389.08925 394.181818 
L 388.31054 398.574545 
L 387.534487 402.967273 
L 386.758844 407.36 
L 385.98322 411.752727 
L 385.832727 412.605013 
L 385.207578 416.145455 
L 384.431951 420.538182 
L 383.656315 424.930909 
L 382.880684 429.323636 
L 382.225455 433.034499 
L 382.105057 433.716364 
L 381.329428 438.109091 
L 380.48117 442.501818 
L 379.174067 446.894545 
L 378.618182 447.953421 
L 376.015251 451.287273 
L 375.010909 452.172775 
L 371.403636 454.693195 
L 369.991343 455.68 
L 367.796364 457.007745 
L 364.189091 458.29272 
L 360.581818 459.207277 
L 356.974545 459.533235 
L 353.367273 459.780221 
L 349.76 460.027226 
L 349.09551 460.072727 
L 346.152727 460.274232 
L 342.545455 460.521199 
L 338.938182 460.768204 
L 335.330909 461.015197 
L 331.723636 461.262194 
L 328.116364 461.509165 
L 324.509091 461.756176 
L 320.901818 462.003179 
L 317.294545 462.25017 
L 313.687273 462.497151 
L 310.08 462.744152 
L 306.472727 462.991131 
L 302.865455 463.238144 
L 299.258182 463.485138 
L 295.650909 463.732119 
L 292.043636 463.979112 
L 288.436364 464.226108 
L 284.940797 464.465455 
L 284.829091 464.473103 
L 281.221818 464.720098 
L 277.614545 464.967094 
L 274.007273 465.198938 
L 270.4 464.757986 
z
" style="fill:#a3c2fe;"/>
   </g>
   <g id="PathCollection_4">
    <path clip-path="url(#p7bb1a6bfab)" d="M 270.4 464.757986 
L 274.007273 465.198938 
L 277.614545 464.967094 
L 281.221818 464.720098 
L 284.829091 464.473103 
L 284.940797 464.465455 
L 288.436364 464.226108 
L 292.043636 463.979112 
L 295.650909 463.732119 
L 299.258182 463.485138 
L 302.865455 463.238144 
L 306.472727 462.991131 
L 310.08 462.744152 
L 313.687273 462.497151 
L 317.294545 462.25017 
L 320.901818 462.003179 
L 324.509091 461.756176 
L 328.116364 461.509165 
L 331.723636 461.262194 
L 335.330909 461.015197 
L 338.938182 460.768204 
L 342.545455 460.521199 
L 346.152727 460.274232 
L 349.09551 460.072727 
L 349.76 460.027226 
L 353.367273 459.780221 
L 356.974545 459.533235 
L 360.581818 459.207277 
L 364.189091 458.29272 
L 367.796364 457.007745 
L 369.991343 455.68 
L 371.403636 454.693195 
L 375.010909 452.172775 
L 376.015251 451.287273 
L 378.618182 447.953421 
L 379.174067 446.894545 
L 380.48117 442.501818 
L 381.329428 438.109091 
L 382.105057 433.716364 
L 382.225455 433.034499 
L 382.880684 429.323636 
L 383.656315 424.930909 
L 384.431951 420.538182 
L 385.207578 416.145455 
L 385.832727 412.605013 
L 385.98322 411.752727 
L 386.758844 407.36 
L 387.534487 402.967273 
L 388.31054 398.574545 
L 389.08925 394.181818 
L 389.44 392.205737 
L 389.823518 389.789091 
L 389.902776 385.396364 
L 389.958267 381.003636 
L 390.013778 376.610909 
L 390.069275 372.218182 
L 390.124779 367.825455 
L 390.180285 363.432727 
L 390.235784 359.04 
L 390.291294 354.647273 
L 390.34679 350.254545 
L 390.4023 345.861818 
L 390.457789 341.469091 
L 390.513309 337.076364 
L 390.568813 332.683636 
L 390.624312 328.290909 
L 390.679172 323.898182 
L 390.730854 319.505455 
L 390.778758 315.112727 
L 390.826641 310.72 
L 390.87453 306.327273 
L 390.922453 301.934545 
L 390.970336 297.541818 
L 391.015944 293.149091 
L 391.049063 288.756364 
L 390.701149 284.363636 
L 389.908078 279.970909 
L 389.44 277.330523 
L 389.12897 275.578182 
L 388.353714 271.185455 
L 387.578446 266.792727 
L 386.803185 262.4 
L 386.027922 258.007273 
L 385.832727 256.901283 
L 385.252656 253.614545 
L 384.477387 249.221818 
L 383.702137 244.829091 
L 382.926863 240.436364 
L 382.225455 236.461996 
L 382.151621 236.043636 
L 381.37635 231.650909 
L 380.60109 227.258182 
L 379.825826 222.865455 
L 379.050559 218.472727 
L 378.618182 216.022853 
L 378.27529 214.08 
L 377.500043 209.687273 
L 376.720924 205.294545 
L 375.939616 200.901818 
L 375.158284 196.509091 
L 375.010909 195.680531 
L 374.376956 192.116364 
L 373.595653 187.723636 
L 372.814331 183.330909 
L 372.033019 178.938182 
L 371.403636 175.39971 
L 371.251691 174.545455 
L 370.470379 170.152727 
L 369.689067 165.76 
L 368.907739 161.367273 
L 367.796364 157.42067 
L 367.609378 156.974545 
L 364.551599 152.581818 
L 364.189091 152.064803 
L 361.471634 148.189091 
L 360.581818 147.061056 
L 356.974545 143.942089 
L 356.77334 143.796364 
L 353.367273 141.329511 
L 350.708126 139.403636 
L 349.76 138.716956 
L 346.152727 136.144561 
L 343.514856 135.010909 
L 342.545455 134.665135 
L 338.938182 133.378456 
L 335.330909 132.568122 
L 331.723636 132.110207 
L 328.116364 131.645602 
L 324.509091 131.175598 
L 320.901818 130.705623 
L 320.230694 130.618182 
L 317.294545 130.235632 
L 313.687273 129.765657 
L 310.08 129.295662 
L 306.472727 128.825688 
L 302.865455 128.3557 
L 299.258182 127.885708 
L 295.650909 127.415734 
L 292.043636 126.945742 
L 288.436364 126.47575 
L 286.515223 126.225455 
L 284.829091 126.005777 
L 281.221818 125.535794 
L 277.614545 125.065809 
L 274.007273 124.595826 
L 270.4 124.125846 
L 266.792727 123.655854 
L 263.185455 123.185875 
L 259.578182 122.715885 
L 255.970909 122.245896 
L 252.799699 121.832727 
L 252.363636 121.775914 
L 248.756364 121.30593 
L 245.149091 120.835943 
L 241.541818 120.365966 
L 237.934545 119.895979 
L 234.327273 119.42599 
L 230.72 118.95602 
L 227.112727 118.486363 
L 223.505455 118.01868 
L 219.898182 117.884197 
L 216.290909 118.087794 
L 212.683636 118.291409 
L 209.076364 118.49503 
L 205.469091 118.698616 
L 201.861818 118.902234 
L 198.254545 119.105827 
L 194.647273 119.309458 
L 191.04 119.513042 
L 187.432727 119.716652 
L 183.825455 119.920271 
L 180.218182 120.123872 
L 176.610909 120.327474 
L 173.003636 120.531077 
L 169.396364 120.73468 
L 165.789091 120.938289 
L 162.181818 121.141898 
L 158.574545 121.345484 
L 154.967273 121.549109 
L 153.263566 121.832727 
L 151.36 122.214995 
L 147.752727 123.51443 
L 144.145455 125.525901 
L 143.419064 126.225455 
L 140.538182 129.52119 
L 139.591509 130.618182 
L 136.930909 133.701203 
L 135.800653 135.010909 
L 133.323636 137.881242 
L 132.009853 139.403636 
L 129.716364 142.061271 
L 128.219005 143.796364 
L 126.109091 146.867821 
L 125.425065 148.189091 
L 123.405542 152.581818 
L 122.501818 154.547542 
L 121.386019 156.974545 
L 119.470267 161.367273 
L 118.894545 163.603265 
L 118.422077 165.76 
L 117.473799 170.152727 
L 116.681592 174.545455 
L 116.39836 178.938182 
L 116.190251 183.330909 
L 115.983508 187.723636 
L 115.776753 192.116364 
L 115.564875 196.509091 
L 115.339212 200.901818 
L 115.287273 201.912862 
L 115.113549 205.294545 
L 114.887901 209.687273 
L 114.662238 214.08 
L 114.436559 218.472727 
L 114.210906 222.865455 
L 113.985249 227.258182 
L 113.759586 231.650909 
L 113.533918 236.043636 
L 113.308249 240.436364 
L 113.082577 244.829091 
L 112.856928 249.221818 
L 112.631262 253.614545 
L 112.405591 258.007273 
L 112.179941 262.4 
L 111.954272 266.792727 
L 111.728601 271.185455 
L 111.68 272.13159 
L 111.502953 275.578182 
L 111.277277 279.970909 
L 111.051615 284.363636 
L 110.825964 288.756364 
L 110.610859 293.149091 
L 111.203162 297.541818 
L 111.68 301.076299 
L 111.795787 301.934545 
L 112.30335 306.327273 
L 112.785335 310.72 
L 113.26733 315.112727 
L 113.749315 319.505455 
L 114.231309 323.898182 
L 114.713306 328.290909 
L 115.195289 332.683636 
L 115.287273 333.521932 
L 115.677292 337.076364 
L 116.159267 341.469091 
L 116.641249 345.861818 
L 117.123247 350.254545 
L 117.605239 354.647273 
L 118.087217 359.04 
L 118.569217 363.432727 
L 118.894545 366.397699 
L 119.051205 367.825455 
L 119.533206 372.218182 
L 120.01519 376.610909 
L 120.497174 381.003636 
L 120.979164 385.396364 
L 121.461169 389.789091 
L 121.943136 394.181818 
L 122.425133 398.574545 
L 122.501818 399.273426 
L 122.90713 402.967273 
L 123.389122 407.36 
L 124.081796 411.752727 
L 125.382576 416.145455 
L 126.109091 418.495756 
L 126.752447 420.538182 
L 128.65439 424.930909 
L 129.716364 426.696404 
L 131.296681 429.323636 
L 133.323636 432.693361 
L 133.938992 433.716364 
L 136.581304 438.109091 
L 136.930909 438.6903 
L 139.223599 442.501818 
L 140.538182 444.546146 
L 142.601556 446.894545 
L 144.145455 447.888261 
L 147.752727 448.543693 
L 151.36 449.020586 
L 154.967273 449.497488 
L 158.574545 449.974357 
L 162.181818 450.451263 
L 165.789091 450.928157 
L 168.505552 451.287273 
L 169.396364 451.405038 
L 173.003636 451.881921 
L 176.610909 452.358813 
L 180.218182 452.835719 
L 183.825455 453.312599 
L 187.432727 453.789484 
L 191.04 454.266387 
L 194.647273 454.74328 
L 198.254545 455.22016 
L 201.732771 455.68 
L 201.861818 455.697061 
L 205.469091 456.173933 
L 209.076364 456.650841 
L 212.683636 457.127722 
L 216.290909 457.604611 
L 219.898182 458.081508 
L 223.505455 458.558416 
L 227.112727 459.035283 
L 230.72 459.512183 
L 234.327273 459.989063 
L 234.960104 460.072727 
L 237.934545 460.465966 
L 241.541818 460.942848 
L 245.149091 461.419745 
L 248.756364 461.896629 
L 252.363636 462.373525 
L 255.970909 462.850418 
L 259.578182 463.327306 
L 263.185455 463.804186 
L 266.792727 464.281096 
L 268.187239 464.465455 
z
M 266.589848 424.930909 
L 263.185455 424.480839 
L 259.578182 424.00393 
L 255.970909 423.527056 
L 252.363636 423.05016 
L 248.756364 422.573283 
L 245.149091 422.096388 
L 241.541818 421.61949 
L 237.934545 421.142608 
L 234.327273 420.665708 
L 233.36263 420.538182 
L 230.72 420.188826 
L 227.112727 419.711935 
L 223.505455 419.235029 
L 219.898182 418.758158 
L 216.290909 418.28126 
L 212.683636 417.804373 
L 209.076364 417.32747 
L 205.469091 416.850586 
L 201.861818 416.373685 
L 200.135417 416.145455 
L 198.254545 415.896803 
L 194.647273 415.41992 
L 191.04 414.943018 
L 187.432727 414.466135 
L 183.825455 413.989233 
L 180.218182 413.512352 
L 176.610909 413.035448 
L 173.003636 412.558573 
L 169.396364 412.081681 
L 168.832412 411.752727 
L 165.789091 408.211019 
L 165.277188 407.36 
L 162.634879 402.967273 
L 162.181818 402.214075 
L 159.992582 398.574545 
L 158.574545 396.217118 
L 157.350278 394.181818 
L 154.967273 390.220139 
L 154.732961 389.789091 
L 152.932856 385.396364 
L 151.775117 381.003636 
L 151.36 377.614725 
L 151.249857 376.610909 
L 150.767867 372.218182 
L 150.285878 367.825455 
L 149.803883 363.432727 
L 149.321899 359.04 
L 148.839906 354.647273 
L 148.357916 350.254545 
L 147.875921 345.861818 
L 147.752727 344.739059 
L 147.393933 341.469091 
L 146.911952 337.076364 
L 146.429955 332.683636 
L 145.947971 328.290909 
L 145.465981 323.898182 
L 144.968688 319.505455 
L 144.376071 315.112727 
L 144.145455 313.403296 
L 143.783455 310.72 
L 143.190829 306.327273 
L 142.598219 301.934545 
L 142.005611 297.541818 
L 141.412988 293.149091 
L 141.491647 288.756364 
L 141.717304 284.363636 
L 141.942962 279.970909 
L 142.16863 275.578182 
L 142.394288 271.185455 
L 142.619958 266.792727 
L 142.845615 262.4 
L 143.071287 258.007273 
L 143.296942 253.614545 
L 143.522606 249.221818 
L 143.748268 244.829091 
L 143.973931 240.436364 
L 144.145455 237.09749 
L 144.199593 236.043636 
L 144.425256 231.650909 
L 144.650926 227.258182 
L 144.876595 222.865455 
L 145.102254 218.472727 
L 145.327914 214.08 
L 145.55358 209.687273 
L 145.779244 205.294545 
L 145.989229 200.901818 
L 146.383447 196.509091 
L 147.359767 192.116364 
L 147.752727 191.088462 
L 149.273977 187.723636 
L 151.260618 183.330909 
L 151.36 183.11278 
L 153.697301 178.938182 
L 154.967273 177.345643 
L 157.383784 174.545455 
L 158.574545 173.165637 
L 161.17461 170.152727 
L 162.181818 168.985588 
L 164.965441 165.76 
L 165.789091 164.80558 
L 169.395141 161.367273 
L 169.396364 161.366304 
L 173.003636 159.355313 
L 176.610909 158.055882 
L 180.218182 157.391491 
L 183.825455 157.171794 
L 187.31978 156.974545 
L 187.432727 156.96817 
L 191.04 156.764574 
L 194.647273 156.56097 
L 198.254545 156.357364 
L 201.861818 156.153758 
L 205.469091 155.950153 
L 209.076364 155.746548 
L 212.683636 155.542943 
L 216.290909 155.339334 
L 219.898182 155.135728 
L 223.505455 154.932118 
L 227.112727 154.74836 
L 230.72 155.169632 
L 234.327273 155.631708 
L 237.934545 156.093789 
L 241.541818 156.555872 
L 244.810264 156.974545 
L 245.149091 157.017948 
L 248.756364 157.480033 
L 252.363636 157.942125 
L 255.970909 158.404199 
L 259.578182 158.87085 
L 263.185455 159.340536 
L 266.792727 159.810521 
L 270.4 160.280508 
L 274.007273 160.750487 
L 277.614545 161.220472 
L 278.741315 161.367273 
L 281.221818 161.690445 
L 284.829091 162.160434 
L 288.436364 162.630424 
L 292.043636 163.100406 
L 295.650909 163.57039 
L 299.258182 164.040372 
L 302.865455 164.51036 
L 306.472727 164.980337 
L 310.08 165.450326 
L 312.456902 165.76 
L 313.687273 165.920299 
L 317.294545 166.479885 
L 320.901818 167.926929 
L 324.375484 170.152727 
L 324.509091 170.250024 
L 328.116364 172.876953 
L 330.407533 174.545455 
L 331.723636 175.503888 
L 335.330909 178.130812 
L 336.173029 178.938182 
L 338.938182 182.467102 
L 339.536659 183.330909 
L 341.772614 187.723636 
L 342.545455 189.756455 
L 343.286706 192.116364 
L 344.069091 196.509091 
L 344.850233 200.901818 
L 345.629869 205.294545 
L 346.152727 208.254906 
L 346.406209 209.687273 
L 347.182763 214.08 
L 347.958067 218.472727 
L 348.733263 222.865455 
L 349.509113 227.258182 
L 349.76 228.678673 
L 350.285442 231.650909 
L 351.06097 236.043636 
L 351.836663 240.436364 
L 352.612502 244.829091 
L 353.367273 249.102485 
L 353.388364 249.221818 
L 354.1642 253.614545 
L 354.94005 258.007273 
L 355.715901 262.4 
L 356.491743 266.792727 
L 356.974545 269.494118 
L 357.276432 271.185455 
L 358.07011 275.578182 
L 358.858722 279.970909 
L 359.636912 284.363636 
L 360.105477 288.756364 
L 360.053009 293.149091 
L 360.00054 297.541818 
L 359.948078 301.934545 
L 359.895604 306.327273 
L 359.843134 310.72 
L 359.790672 315.112727 
L 359.738199 319.505455 
L 359.685728 323.898182 
L 359.633266 328.290909 
L 359.580791 332.683636 
L 359.528323 337.076364 
L 359.475859 341.469091 
L 359.423385 345.861818 
L 359.370917 350.254545 
L 359.318453 354.647273 
L 359.265979 359.04 
L 359.213521 363.432727 
L 358.810977 367.825455 
L 358.035337 372.218182 
L 357.259718 376.610909 
L 356.974545 378.225973 
L 356.484089 381.003636 
L 355.708446 385.396364 
L 354.932814 389.789091 
L 354.157185 394.181818 
L 353.381556 398.574545 
L 353.367273 398.655439 
L 352.509915 402.967273 
L 351.004544 407.36 
L 349.76 410.214992 
L 348.948975 411.752727 
L 346.152727 414.689248 
L 343.962963 416.145455 
L 342.545455 417.053217 
L 338.938182 419.300968 
L 335.330909 420.475878 
L 334.503198 420.538182 
L 331.723636 420.728502 
L 328.116364 420.975497 
L 324.509091 421.222474 
L 320.901818 421.469479 
L 317.294545 421.71648 
L 313.687273 421.963459 
L 310.08 422.210455 
L 306.472727 422.45745 
L 302.865455 422.704445 
L 299.258182 422.951431 
L 295.650909 423.198422 
L 292.043636 423.445421 
L 288.436364 423.692424 
L 284.829091 423.939404 
L 281.221818 424.186406 
L 277.614545 424.433402 
L 274.007273 424.680398 
L 270.4 424.927384 
L 269.992035 424.930909 
L 266.792727 424.95773 
z
" style="fill:#ccd9ed;"/>
   </g>
   <g id="PathCollection_5">
    <path clip-path="url(#p7bb1a6bfab)" d="M 266.792727 424.95773 
L 269.992035 424.930909 
L 270.4 424.927384 
L 274.007273 424.680398 
L 277.614545 424.433402 
L 281.221818 424.186406 
L 284.829091 423.939404 
L 288.436364 423.692424 
L 292.043636 423.445421 
L 295.650909 423.198422 
L 299.258182 422.951431 
L 302.865455 422.704445 
L 306.472727 422.45745 
L 310.08 422.210455 
L 313.687273 421.963459 
L 317.294545 421.71648 
L 320.901818 421.469479 
L 324.509091 421.222474 
L 328.116364 420.975497 
L 331.723636 420.728502 
L 334.503198 420.538182 
L 335.330909 420.475878 
L 338.938182 419.300968 
L 342.545455 417.053217 
L 343.962963 416.145455 
L 346.152727 414.689248 
L 348.948975 411.752727 
L 349.76 410.214992 
L 351.004544 407.36 
L 352.509915 402.967273 
L 353.367273 398.655439 
L 353.381556 398.574545 
L 354.157185 394.181818 
L 354.932814 389.789091 
L 355.708446 385.396364 
L 356.484089 381.003636 
L 356.974545 378.225973 
L 357.259718 376.610909 
L 358.035337 372.218182 
L 358.810977 367.825455 
L 359.213521 363.432727 
L 359.265979 359.04 
L 359.318453 354.647273 
L 359.370917 350.254545 
L 359.423385 345.861818 
L 359.475859 341.469091 
L 359.528323 337.076364 
L 359.580791 332.683636 
L 359.633266 328.290909 
L 359.685728 323.898182 
L 359.738199 319.505455 
L 359.790672 315.112727 
L 359.843134 310.72 
L 359.895604 306.327273 
L 359.948078 301.934545 
L 360.00054 297.541818 
L 360.053009 293.149091 
L 360.105477 288.756364 
L 359.636912 284.363636 
L 358.858722 279.970909 
L 358.07011 275.578182 
L 357.276432 271.185455 
L 356.974545 269.494118 
L 356.491743 266.792727 
L 355.715901 262.4 
L 354.94005 258.007273 
L 354.1642 253.614545 
L 353.388364 249.221818 
L 353.367273 249.102485 
L 352.612502 244.829091 
L 351.836663 240.436364 
L 351.06097 236.043636 
L 350.285442 231.650909 
L 349.76 228.678673 
L 349.509113 227.258182 
L 348.733263 222.865455 
L 347.958067 218.472727 
L 347.182763 214.08 
L 346.406209 209.687273 
L 346.152727 208.254906 
L 345.629869 205.294545 
L 344.850233 200.901818 
L 344.069091 196.509091 
L 343.286706 192.116364 
L 342.545455 189.756455 
L 341.772614 187.723636 
L 339.536659 183.330909 
L 338.938182 182.467102 
L 336.173029 178.938182 
L 335.330909 178.130812 
L 331.723636 175.503888 
L 330.407533 174.545455 
L 328.116364 172.876953 
L 324.509091 170.250024 
L 324.375484 170.152727 
L 320.901818 167.926929 
L 317.294545 166.479885 
L 313.687273 165.920299 
L 312.456902 165.76 
L 310.08 165.450326 
L 306.472727 164.980337 
L 302.865455 164.51036 
L 299.258182 164.040372 
L 295.650909 163.57039 
L 292.043636 163.100406 
L 288.436364 162.630424 
L 284.829091 162.160434 
L 281.221818 161.690445 
L 278.741315 161.367273 
L 277.614545 161.220472 
L 274.007273 160.750487 
L 270.4 160.280508 
L 266.792727 159.810521 
L 263.185455 159.340536 
L 259.578182 158.87085 
L 255.970909 158.404199 
L 252.363636 157.942125 
L 248.756364 157.480033 
L 245.149091 157.017948 
L 244.810264 156.974545 
L 241.541818 156.555872 
L 237.934545 156.093789 
L 234.327273 155.631708 
L 230.72 155.169632 
L 227.112727 154.74836 
L 223.505455 154.932118 
L 219.898182 155.135728 
L 216.290909 155.339334 
L 212.683636 155.542943 
L 209.076364 155.746548 
L 205.469091 155.950153 
L 201.861818 156.153758 
L 198.254545 156.357364 
L 194.647273 156.56097 
L 191.04 156.764574 
L 187.432727 156.96817 
L 187.31978 156.974545 
L 183.825455 157.171794 
L 180.218182 157.391491 
L 176.610909 158.055882 
L 173.003636 159.355313 
L 169.396364 161.366304 
L 169.395141 161.367273 
L 165.789091 164.80558 
L 164.965441 165.76 
L 162.181818 168.985588 
L 161.17461 170.152727 
L 158.574545 173.165637 
L 157.383784 174.545455 
L 154.967273 177.345643 
L 153.697301 178.938182 
L 151.36 183.11278 
L 151.260618 183.330909 
L 149.273977 187.723636 
L 147.752727 191.088462 
L 147.359767 192.116364 
L 146.383447 196.509091 
L 145.989229 200.901818 
L 145.779244 205.294545 
L 145.55358 209.687273 
L 145.327914 214.08 
L 145.102254 218.472727 
L 144.876595 222.865455 
L 144.650926 227.258182 
L 144.425256 231.650909 
L 144.199593 236.043636 
L 144.145455 237.09749 
L 143.973931 240.436364 
L 143.748268 244.829091 
L 143.522606 249.221818 
L 143.296942 253.614545 
L 143.071287 258.007273 
L 142.845615 262.4 
L 142.619958 266.792727 
L 142.394288 271.185455 
L 142.16863 275.578182 
L 141.942962 279.970909 
L 141.717304 284.363636 
L 141.491647 288.756364 
L 141.412988 293.149091 
L 142.005611 297.541818 
L 142.598219 301.934545 
L 143.190829 306.327273 
L 143.783455 310.72 
L 144.145455 313.403296 
L 144.376071 315.112727 
L 144.968688 319.505455 
L 145.465981 323.898182 
L 145.947971 328.290909 
L 146.429955 332.683636 
L 146.911952 337.076364 
L 147.393933 341.469091 
L 147.752727 344.739059 
L 147.875921 345.861818 
L 148.357916 350.254545 
L 148.839906 354.647273 
L 149.321899 359.04 
L 149.803883 363.432727 
L 150.285878 367.825455 
L 150.767867 372.218182 
L 151.249857 376.610909 
L 151.36 377.614725 
L 151.775117 381.003636 
L 152.932856 385.396364 
L 154.732961 389.789091 
L 154.967273 390.220139 
L 157.350278 394.181818 
L 158.574545 396.217118 
L 159.992582 398.574545 
L 162.181818 402.214075 
L 162.634879 402.967273 
L 165.277188 407.36 
L 165.789091 408.211019 
L 168.832412 411.752727 
L 169.396364 412.081681 
L 173.003636 412.558573 
L 176.610909 413.035448 
L 180.218182 413.512352 
L 183.825455 413.989233 
L 187.432727 414.466135 
L 191.04 414.943018 
L 194.647273 415.41992 
L 198.254545 415.896803 
L 200.135417 416.145455 
L 201.861818 416.373685 
L 205.469091 416.850586 
L 209.076364 417.32747 
L 212.683636 417.804373 
L 216.290909 418.28126 
L 219.898182 418.758158 
L 223.505455 419.235029 
L 227.112727 419.711935 
L 230.72 420.188826 
L 233.36263 420.538182 
L 234.327273 420.665708 
L 237.934545 421.142608 
L 241.541818 421.61949 
L 245.149091 422.096388 
L 248.756364 422.573283 
L 252.363636 423.05016 
L 255.970909 423.527056 
L 259.578182 424.00393 
L 263.185455 424.480839 
L 266.589848 424.930909 
z
M 231.765006 381.003636 
L 230.72 380.865485 
L 227.112727 380.388599 
L 223.505455 379.911707 
L 219.898182 379.434816 
L 216.290909 378.957919 
L 212.683636 378.481029 
L 209.076364 378.004143 
L 205.469091 377.52725 
L 201.861818 377.050364 
L 198.537757 376.610909 
L 198.254545 376.57151 
L 194.647273 375.406596 
L 191.453154 372.218182 
L 191.04 371.704321 
L 188.68847 367.825455 
L 187.432727 365.73782 
L 186.046173 363.432727 
L 183.825455 359.740869 
L 183.40387 359.04 
L 180.761575 354.647273 
L 180.218182 353.043803 
L 179.592562 350.254545 
L 179.110579 345.861818 
L 178.628584 341.469091 
L 178.132181 337.076364 
L 177.548941 332.683636 
L 176.956325 328.290909 
L 176.610909 325.730553 
L 176.363705 323.898182 
L 175.771091 319.505455 
L 175.178476 315.112727 
L 174.585862 310.72 
L 173.993243 306.327273 
L 173.400621 301.934545 
L 173.003636 298.991893 
L 172.808012 297.541818 
L 172.215397 293.149091 
L 172.157304 288.756364 
L 172.382964 284.363636 
L 172.608625 279.970909 
L 172.834288 275.578182 
L 173.003636 272.281777 
L 173.059958 271.185455 
L 173.285614 266.792727 
L 173.51128 262.4 
L 173.736946 258.007273 
L 173.962612 253.614545 
L 174.188277 249.221818 
L 174.413934 244.829091 
L 174.639597 240.436364 
L 174.86526 236.043636 
L 175.090926 231.650909 
L 175.316583 227.258182 
L 175.731321 222.865455 
L 176.610909 220.026919 
L 177.224084 218.472727 
L 179.378377 214.08 
L 180.218182 212.840474 
L 182.903381 209.687273 
L 183.825455 208.604487 
L 186.644108 205.294545 
L 187.432727 204.368474 
L 190.384834 200.901818 
L 191.04 200.198042 
L 194.647273 197.228463 
L 195.779537 196.509091 
L 198.254545 195.209266 
L 201.861818 193.906402 
L 205.469091 193.224167 
L 209.076364 193.003227 
L 212.683636 192.798616 
L 216.290909 192.594019 
L 219.898182 192.389406 
L 223.505455 192.184797 
L 224.712062 192.116364 
L 227.112727 191.980424 
L 230.72 191.776423 
L 234.327273 191.858475 
L 236.340467 192.116364 
L 237.934545 192.320828 
L 241.541818 192.783408 
L 245.149091 193.245853 
L 248.756364 193.708166 
L 252.363636 194.170348 
L 255.970909 194.632387 
L 259.578182 195.0943 
L 263.185455 195.556073 
L 266.792727 196.017715 
L 270.4 196.479287 
L 270.632665 196.509091 
L 274.007273 196.942011 
L 277.614545 197.40464 
L 281.221818 197.86714 
L 284.829091 198.32951 
L 288.436364 198.791742 
L 292.043636 199.257115 
L 295.650909 199.726967 
L 298.066939 200.901818 
L 299.258182 201.701601 
L 302.865455 204.333577 
L 304.182513 205.294545 
L 306.472727 206.965565 
L 310.08 209.597549 
L 310.202971 209.687273 
L 313.687273 213.012878 
L 314.301531 214.08 
L 315.986701 218.472727 
L 317.294545 221.881896 
L 317.616523 222.865455 
L 318.503792 227.258182 
L 319.279641 231.650909 
L 320.053829 236.043636 
L 320.824185 240.436364 
L 320.901818 240.879272 
L 321.594147 244.829091 
L 322.36411 249.221818 
L 323.134074 253.614545 
L 323.904035 258.007273 
L 324.509091 261.399107 
L 324.687426 262.4 
L 325.461663 266.792727 
L 326.235631 271.185455 
L 327.009606 275.578182 
L 327.783576 279.970909 
L 328.116364 281.859665 
L 328.557549 284.363636 
L 329.16443 288.756364 
L 329.111962 293.149091 
L 329.059493 297.541818 
L 329.00703 301.934545 
L 328.954558 306.327273 
L 328.902087 310.72 
L 328.849618 315.112727 
L 328.797145 319.505455 
L 328.744682 323.898182 
L 328.692212 328.290909 
L 328.639747 332.683636 
L 328.587269 337.076364 
L 328.493153 341.469091 
L 328.116364 343.846936 
L 327.760591 345.861818 
L 326.984963 350.254545 
L 326.209334 354.647273 
L 325.433702 359.04 
L 324.658069 363.432727 
L 324.509091 363.9448 
L 323.048405 367.825455 
L 321.133534 372.218182 
L 320.901818 372.600455 
L 317.673823 376.610909 
L 317.294545 377.059523 
L 313.687273 380.241119 
L 312.496552 381.003636 
L 310.08 382.206556 
L 306.472727 382.665379 
L 302.865455 382.840528 
L 299.258182 383.015676 
L 295.650909 383.190828 
L 292.043636 383.365973 
L 288.436364 383.541122 
L 284.829091 383.716265 
L 281.221818 383.891425 
L 277.614545 384.066567 
L 274.007273 384.241717 
L 270.4 384.425349 
L 266.792727 384.6538 
L 263.185455 384.889065 
L 259.578182 384.680611 
L 255.970909 384.203723 
L 252.363636 383.726829 
L 248.756364 383.249932 
L 245.149091 382.773042 
L 241.541818 382.296154 
L 237.934545 381.819263 
L 234.327273 381.342372 
z
" style="fill:#ecd3c5;"/>
   </g>
   <g id="PathCollection_6">
    <path clip-path="url(#p7bb1a6bfab)" d="M 234.327273 381.342372 
L 237.934545 381.819263 
L 241.541818 382.296154 
L 245.149091 382.773042 
L 248.756364 383.249932 
L 252.363636 383.726829 
L 255.970909 384.203723 
L 259.578182 384.680611 
L 263.185455 384.889065 
L 266.792727 384.6538 
L 270.4 384.425349 
L 274.007273 384.241717 
L 277.614545 384.066567 
L 281.221818 383.891425 
L 284.829091 383.716265 
L 288.436364 383.541122 
L 292.043636 383.365973 
L 295.650909 383.190828 
L 299.258182 383.015676 
L 302.865455 382.840528 
L 306.472727 382.665379 
L 310.08 382.206556 
L 312.496552 381.003636 
L 313.687273 380.241119 
L 317.294545 377.059523 
L 317.673823 376.610909 
L 320.901818 372.600455 
L 321.133534 372.218182 
L 323.048405 367.825455 
L 324.509091 363.9448 
L 324.658069 363.432727 
L 325.433702 359.04 
L 326.209334 354.647273 
L 326.984963 350.254545 
L 327.760591 345.861818 
L 328.116364 343.846936 
L 328.493153 341.469091 
L 328.587269 337.076364 
L 328.639747 332.683636 
L 328.692212 328.290909 
L 328.744682 323.898182 
L 328.797145 319.505455 
L 328.849618 315.112727 
L 328.902087 310.72 
L 328.954558 306.327273 
L 329.00703 301.934545 
L 329.059493 297.541818 
L 329.111962 293.149091 
L 329.16443 288.756364 
L 328.557549 284.363636 
L 328.116364 281.859665 
L 327.783576 279.970909 
L 327.009606 275.578182 
L 326.235631 271.185455 
L 325.461663 266.792727 
L 324.687426 262.4 
L 324.509091 261.399107 
L 323.904035 258.007273 
L 323.134074 253.614545 
L 322.36411 249.221818 
L 321.594147 244.829091 
L 320.901818 240.879272 
L 320.824185 240.436364 
L 320.053829 236.043636 
L 319.279641 231.650909 
L 318.503792 227.258182 
L 317.616523 222.865455 
L 317.294545 221.881896 
L 315.986701 218.472727 
L 314.301531 214.08 
L 313.687273 213.012878 
L 310.202971 209.687273 
L 310.08 209.597549 
L 306.472727 206.965565 
L 304.182513 205.294545 
L 302.865455 204.333577 
L 299.258182 201.701601 
L 298.066939 200.901818 
L 295.650909 199.726967 
L 292.043636 199.257115 
L 288.436364 198.791742 
L 284.829091 198.32951 
L 281.221818 197.86714 
L 277.614545 197.40464 
L 274.007273 196.942011 
L 270.632665 196.509091 
L 270.4 196.479287 
L 266.792727 196.017715 
L 263.185455 195.556073 
L 259.578182 195.0943 
L 255.970909 194.632387 
L 252.363636 194.170348 
L 248.756364 193.708166 
L 245.149091 193.245853 
L 241.541818 192.783408 
L 237.934545 192.320828 
L 236.340467 192.116364 
L 234.327273 191.858475 
L 230.72 191.776423 
L 227.112727 191.980424 
L 224.712062 192.116364 
L 223.505455 192.184797 
L 219.898182 192.389406 
L 216.290909 192.594019 
L 212.683636 192.798616 
L 209.076364 193.003227 
L 205.469091 193.224167 
L 201.861818 193.906402 
L 198.254545 195.209266 
L 195.779537 196.509091 
L 194.647273 197.228463 
L 191.04 200.198042 
L 190.384834 200.901818 
L 187.432727 204.368474 
L 186.644108 205.294545 
L 183.825455 208.604487 
L 182.903381 209.687273 
L 180.218182 212.840474 
L 179.378377 214.08 
L 177.224084 218.472727 
L 176.610909 220.026919 
L 175.731321 222.865455 
L 175.316583 227.258182 
L 175.090926 231.650909 
L 174.86526 236.043636 
L 174.639597 240.436364 
L 174.413934 244.829091 
L 174.188277 249.221818 
L 173.962612 253.614545 
L 173.736946 258.007273 
L 173.51128 262.4 
L 173.285614 266.792727 
L 173.059958 271.185455 
L 173.003636 272.281777 
L 172.834288 275.578182 
L 172.608625 279.970909 
L 172.382964 284.363636 
L 172.157304 288.756364 
L 172.215397 293.149091 
L 172.808012 297.541818 
L 173.003636 298.991893 
L 173.400621 301.934545 
L 173.993243 306.327273 
L 174.585862 310.72 
L 175.178476 315.112727 
L 175.771091 319.505455 
L 176.363705 323.898182 
L 176.610909 325.730553 
L 176.956325 328.290909 
L 177.548941 332.683636 
L 178.132181 337.076364 
L 178.628584 341.469091 
L 179.110579 345.861818 
L 179.592562 350.254545 
L 180.218182 353.043803 
L 180.761575 354.647273 
L 183.40387 359.04 
L 183.825455 359.740869 
L 186.046173 363.432727 
L 187.432727 365.73782 
L 188.68847 367.825455 
L 191.04 371.704321 
L 191.453154 372.218182 
L 194.647273 375.406596 
L 198.254545 376.57151 
L 198.537757 376.610909 
L 201.861818 377.050364 
L 205.469091 377.52725 
L 209.076364 378.004143 
L 212.683636 378.481029 
L 216.290909 378.957919 
L 219.898182 379.434816 
L 223.505455 379.911707 
L 227.112727 380.388599 
L 230.72 380.865485 
L 231.765006 381.003636 
z
M 255.312295 345.861818 
L 252.363636 345.436125 
L 248.756364 344.913325 
L 245.149091 344.390527 
L 241.541818 343.867731 
L 237.934545 343.34493 
L 234.327273 342.822134 
L 230.72 342.299339 
L 227.112727 341.776539 
L 225.136821 341.469091 
L 223.505455 341.162796 
L 219.898182 339.05184 
L 217.865659 337.076364 
L 216.290909 335.536754 
L 213.891428 332.683636 
L 212.683636 330.911095 
L 211.035308 328.290909 
L 209.076364 325.176972 
L 208.361251 323.898182 
L 206.759429 319.505455 
L 205.980886 315.112727 
L 205.469091 311.319072 
L 205.388271 310.72 
L 204.795656 306.327273 
L 204.203038 301.934545 
L 203.610422 297.541818 
L 203.017806 293.149091 
L 202.822971 288.756364 
L 203.048633 284.363636 
L 203.274296 279.970909 
L 203.499961 275.578182 
L 203.725624 271.185455 
L 203.951285 266.792727 
L 204.17695 262.4 
L 204.402611 258.007273 
L 204.992981 253.614545 
L 205.469091 251.425057 
L 206.054555 249.221818 
L 208.368729 244.829091 
L 209.076364 243.972029 
L 212.121546 240.436364 
L 212.683636 239.783739 
L 216.108146 236.043636 
L 216.290909 235.875631 
L 219.898182 233.227955 
L 222.552308 231.650909 
L 223.505455 231.181934 
L 227.112727 229.8744 
L 230.72 229.133736 
L 234.327273 228.923654 
L 237.934545 228.711266 
L 241.541818 229.092142 
L 245.149091 229.549326 
L 248.756364 230.006505 
L 252.363636 230.464651 
L 255.970909 230.922599 
L 259.578182 231.379124 
L 261.700919 231.650909 
L 263.185455 231.841451 
L 266.792727 232.303805 
L 270.4 232.811047 
L 274.007273 233.800872 
L 277.614545 236.003074 
L 277.670244 236.043636 
L 281.221818 238.630093 
L 283.702085 240.436364 
L 284.829091 241.335705 
L 288.088615 244.829091 
L 288.436364 245.428522 
L 290.057362 249.221818 
L 291.742921 253.614545 
L 292.043636 254.663529 
L 292.833455 258.007273 
L 293.607426 262.4 
L 294.381397 266.792727 
L 295.155368 271.185455 
L 295.650909 273.99793 
L 295.92934 275.578182 
L 296.703312 279.970909 
L 297.477282 284.363636 
L 298.223379 288.756364 
L 298.170908 293.149091 
L 298.118441 297.541818 
L 298.065974 301.934545 
L 298.013503 306.327273 
L 297.961037 310.72 
L 297.908565 315.112727 
L 297.485846 319.505455 
L 296.702396 323.898182 
L 295.650909 327.009391 
L 295.092272 328.290909 
L 293.007187 332.683636 
L 292.043636 334.161833 
L 289.683341 337.076364 
L 288.436364 338.616155 
L 286.12595 341.469091 
L 284.829091 342.736961 
L 281.221818 344.507152 
L 277.614545 344.908839 
L 274.007273 345.083988 
L 270.4 345.259135 
L 266.792727 345.434287 
L 263.185455 345.609437 
L 259.578182 345.784586 
L 257.987495 345.861818 
L 255.970909 345.956945 
z
" style="fill:#f7b093;"/>
   </g>
   <g id="PathCollection_7">
    <path clip-path="url(#p7bb1a6bfab)" d="M 255.970909 345.956945 
L 257.987495 345.861818 
L 259.578182 345.784586 
L 263.185455 345.609437 
L 266.792727 345.434287 
L 270.4 345.259135 
L 274.007273 345.083988 
L 277.614545 344.908839 
L 281.221818 344.507152 
L 284.829091 342.736961 
L 286.12595 341.469091 
L 288.436364 338.616155 
L 289.683341 337.076364 
L 292.043636 334.161833 
L 293.007187 332.683636 
L 295.092272 328.290909 
L 295.650909 327.009391 
L 296.702396 323.898182 
L 297.485846 319.505455 
L 297.908565 315.112727 
L 297.961037 310.72 
L 298.013503 306.327273 
L 298.065974 301.934545 
L 298.118441 297.541818 
L 298.170908 293.149091 
L 298.223379 288.756364 
L 297.477282 284.363636 
L 296.703312 279.970909 
L 295.92934 275.578182 
L 295.650909 273.99793 
L 295.155368 271.185455 
L 294.381397 266.792727 
L 293.607426 262.4 
L 292.833455 258.007273 
L 292.043636 254.663529 
L 291.742921 253.614545 
L 290.057362 249.221818 
L 288.436364 245.428522 
L 288.088615 244.829091 
L 284.829091 241.335705 
L 283.702085 240.436364 
L 281.221818 238.630093 
L 277.670244 236.043636 
L 277.614545 236.003074 
L 274.007273 233.800872 
L 270.4 232.811047 
L 266.792727 232.303805 
L 263.185455 231.841451 
L 261.700919 231.650909 
L 259.578182 231.379124 
L 255.970909 230.922599 
L 252.363636 230.464651 
L 248.756364 230.006505 
L 245.149091 229.549326 
L 241.541818 229.092142 
L 237.934545 228.711266 
L 234.327273 228.923654 
L 230.72 229.133736 
L 227.112727 229.8744 
L 223.505455 231.181934 
L 222.552308 231.650909 
L 219.898182 233.227955 
L 216.290909 235.875631 
L 216.108146 236.043636 
L 212.683636 239.783739 
L 212.121546 240.436364 
L 209.076364 243.972029 
L 208.368729 244.829091 
L 206.054555 249.221818 
L 205.469091 251.425057 
L 204.992981 253.614545 
L 204.402611 258.007273 
L 204.17695 262.4 
L 203.951285 266.792727 
L 203.725624 271.185455 
L 203.499961 275.578182 
L 203.274296 279.970909 
L 203.048633 284.363636 
L 202.822971 288.756364 
L 203.017806 293.149091 
L 203.610422 297.541818 
L 204.203038 301.934545 
L 204.795656 306.327273 
L 205.388271 310.72 
L 205.469091 311.319072 
L 205.980886 315.112727 
L 206.759429 319.505455 
L 208.361251 323.898182 
L 209.076364 325.176972 
L 211.035308 328.290909 
L 212.683636 330.911095 
L 213.891428 332.683636 
L 216.290909 335.536754 
L 217.865659 337.076364 
L 219.898182 339.05184 
L 223.505455 341.162796 
L 225.136821 341.469091 
L 227.112727 341.776539 
L 230.72 342.299339 
L 234.327273 342.822134 
L 237.934545 343.34493 
L 241.541818 343.867731 
L 245.149091 344.390527 
L 248.756364 344.913325 
L 252.363636 345.436125 
L 255.312295 345.861818 
z
M 237.101953 315.112727 
L 234.327273 312.408619 
L 232.594585 310.72 
L 230.72 308.823072 
L 228.830166 306.327273 
L 227.112727 303.316242 
L 226.472396 301.934545 
L 224.967563 297.541818 
L 224.007606 293.149091 
L 223.70603 288.756364 
L 223.941243 284.363636 
L 224.194809 279.970909 
L 224.80801 275.578182 
L 226.537918 271.185455 
L 227.112727 270.075172 
L 228.828526 266.792727 
L 230.72 263.659087 
L 231.719677 262.4 
L 234.327273 260.019639 
L 236.820435 258.007273 
L 237.934545 257.139563 
L 241.541818 254.999676 
L 245.149091 254.036847 
L 248.756364 254.009596 
L 252.363636 254.268622 
L 255.970909 254.718888 
L 259.578182 256.022231 
L 263.185455 257.912501 
L 263.32227 258.007273 
L 266.792727 260.509225 
L 268.700511 262.4 
L 270.4 264.613547 
L 271.980242 266.792727 
L 274.007273 271.155636 
L 274.01787 271.185455 
L 275.423163 275.578182 
L 276.205322 279.970909 
L 276.72953 284.363636 
L 277.253738 288.756364 
L 277.003788 293.149091 
L 276.484299 297.541818 
L 274.86878 301.934545 
L 274.007273 303.536959 
L 272.128698 306.327273 
L 270.4 308.416479 
L 268.493969 310.72 
L 266.792727 312.764557 
L 264.316279 315.112727 
L 263.185455 316.037503 
L 259.578182 318.045034 
L 255.970909 318.605576 
L 252.363636 318.937848 
L 248.756364 318.631147 
L 245.149091 318.23463 
L 241.541818 317.498206 
L 237.934545 315.778211 
z
" style="fill:#eb7d62;"/>
   </g>
   <g id="PathCollection_8">
    <path clip-path="url(#p7bb1a6bfab)" d="M 237.934545 315.778211 
L 241.541818 317.498206 
L 245.149091 318.23463 
L 248.756364 318.631147 
L 252.363636 318.937848 
L 255.970909 318.605576 
L 259.578182 318.045034 
L 263.185455 316.037503 
L 264.316279 315.112727 
L 266.792727 312.764557 
L 268.493969 310.72 
L 270.4 308.416479 
L 272.128698 306.327273 
L 274.007273 303.536959 
L 274.86878 301.934545 
L 276.484299 297.541818 
L 277.003788 293.149091 
L 277.253738 288.756364 
L 276.72953 284.363636 
L 276.205322 279.970909 
L 275.423163 275.578182 
L 274.01787 271.185455 
L 274.007273 271.155636 
L 271.980242 266.792727 
L 270.4 264.613547 
L 268.700511 262.4 
L 266.792727 260.509225 
L 263.32227 258.007273 
L 263.185455 257.912501 
L 259.578182 256.022231 
L 255.970909 254.718888 
L 252.363636 254.268622 
L 248.756364 254.009596 
L 245.149091 254.036847 
L 241.541818 254.999676 
L 237.934545 257.139563 
L 236.820435 258.007273 
L 234.327273 260.019639 
L 231.719677 262.4 
L 230.72 263.659087 
L 228.828526 266.792727 
L 227.112727 270.075172 
L 226.537918 271.185455 
L 224.80801 275.578182 
L 224.194809 279.970909 
L 223.941243 284.363636 
L 223.70603 288.756364 
L 224.007606 293.149091 
L 224.967563 297.541818 
L 226.472396 301.934545 
L 227.112727 303.316242 
L 228.830166 306.327273 
L 230.72 308.823072 
L 232.594585 310.72 
L 234.327273 312.408619 
L 237.101953 315.112727 
z
" style="fill:#ca3b37;"/>
   </g>
   <g id="matplotlib.axis_1">
    <g id="xtick_1">
     <g id="line2d_1">
      <defs>
       <path d="M 0 0 
L 0 3.5 
" id="m3bc9212898" style="stroke:#000000;stroke-width:0.8;"/>
      </defs>
      <g>
       <use style="stroke:#000000;stroke-width:0.8;" x="107.712" xlink:href="#m3bc9212898" y="504"/>
      </g>
     </g>
     <g id="text_1">
      <!-- 4 -->
      <defs>
       <path d="M 10.59375 35.5 
L 73.1875 35.5 
L 73.1875 27.203125 
L 10.59375 27.203125 
z
" id="DejaVuSans-2212"/>
       <path d="M 37.796875 64.3125 
L 12.890625 25.390625 
L 37.796875 25.390625 
z
M 35.203125 72.90625 
L 47.609375 72.90625 
L 47.609375 25.390625 
L 58.015625 25.390625 
L 58.015625 17.1875 
L 47.609375 17.1875 
L 47.609375 0 
L 37.796875 0 
L 37.796875 17.1875 
L 4.890625 17.1875 
L 4.890625 26.703125 
z
" id="DejaVuSans-34"/>
      </defs>
      <g transform="translate(100.340906 518.598438)scale(0.1 -0.1)">
       <use xlink:href="#DejaVuSans-2212"/>
       <use x="83.789062" xlink:href="#DejaVuSans-34"/>
      </g>
     </g>
    </g>
    <g id="xtick_2">
     <g id="line2d_2">
      <g>
       <use style="stroke:#000000;stroke-width:0.8;" x="179.136" xlink:href="#m3bc9212898" y="504"/>
      </g>
     </g>
     <g id="text_2">
      <!-- 2 -->
      <defs>
       <path d="M 19.1875 8.296875 
L 53.609375 8.296875 
L 53.609375 0 
L 7.328125 0 
L 7.328125 8.296875 
Q 12.9375 14.109375 22.625 23.890625 
Q 32.328125 33.6875 34.8125 36.53125 
Q 39.546875 41.84375 41.421875 45.53125 
Q 43.3125 49.21875 43.3125 52.78125 
Q 43.3125 58.59375 39.234375 62.25 
Q 35.15625 65.921875 28.609375 65.921875 
Q 23.96875 65.921875 18.8125 64.3125 
Q 13.671875 62.703125 7.8125 59.421875 
L 7.8125 69.390625 
Q 13.765625 71.78125 18.9375 73 
Q 24.125 74.21875 28.421875 74.21875 
Q 39.75 74.21875 46.484375 68.546875 
Q 53.21875 62.890625 53.21875 53.421875 
Q 53.21875 48.921875 51.53125 44.890625 
Q 49.859375 40.875 45.40625 35.40625 
Q 44.1875 33.984375 37.640625 27.21875 
Q 31.109375 20.453125 19.1875 8.296875 
z
" id="DejaVuSans-32"/>
      </defs>
      <g transform="translate(171.764906 518.598438)scale(0.1 -0.1)">
       <use xlink:href="#DejaVuSans-2212"/>
       <use x="83.789062" xlink:href="#DejaVuSans-32"/>
      </g>
     </g>
    </g>
    <g id="xtick_3">
     <g id="line2d_3">
      <g>
       <use style="stroke:#000000;stroke-width:0.8;" x="250.56" xlink:href="#m3bc9212898" y="504"/>
      </g>
     </g>
     <g id="text_3">
      <!-- 0 -->
      <defs>
       <path d="M 31.78125 66.40625 
Q 24.171875 66.40625 20.328125 58.90625 
Q 16.5 51.421875 16.5 36.375 
Q 16.5 21.390625 20.328125 13.890625 
Q 24.171875 6.390625 31.78125 6.390625 
Q 39.453125 6.390625 43.28125 13.890625 
Q 47.125 21.390625 47.125 36.375 
Q 47.125 51.421875 43.28125 58.90625 
Q 39.453125 66.40625 31.78125 66.40625 
z
M 31.78125 74.21875 
Q 44.046875 74.21875 50.515625 64.515625 
Q 56.984375 54.828125 56.984375 36.375 
Q 56.984375 17.96875 50.515625 8.265625 
Q 44.046875 -1.421875 31.78125 -1.421875 
Q 19.53125 -1.421875 13.0625 8.265625 
Q 6.59375 17.96875 6.59375 36.375 
Q 6.59375 54.828125 13.0625 64.515625 
Q 19.53125 74.21875 31.78125 74.21875 
z
" id="DejaVuSans-30"/>
      </defs>
      <g transform="translate(247.37875 518.598438)scale(0.1 -0.1)">
       <use xlink:href="#DejaVuSans-30"/>
      </g>
     </g>
    </g>
    <g id="xtick_4">
     <g id="line2d_4">
      <g>
       <use style="stroke:#000000;stroke-width:0.8;" x="321.984" xlink:href="#m3bc9212898" y="504"/>
      </g>
     </g>
     <g id="text_4">
      <!-- 2 -->
      <g transform="translate(318.80275 518.598438)scale(0.1 -0.1)">
       <use xlink:href="#DejaVuSans-32"/>
      </g>
     </g>
    </g>
    <g id="xtick_5">
     <g id="line2d_5">
      <g>
       <use style="stroke:#000000;stroke-width:0.8;" x="393.408" xlink:href="#m3bc9212898" y="504"/>
      </g>
     </g>
     <g id="text_5">
      <!-- 4 -->
      <g transform="translate(390.22675 518.598438)scale(0.1 -0.1)">
       <use xlink:href="#DejaVuSans-34"/>
      </g>
     </g>
    </g>
   </g>
   <g id="matplotlib.axis_2">
    <g id="ytick_1">
     <g id="line2d_6">
      <defs>
       <path d="M 0 0 
L -3.5 0 
" id="m8b1162c716" style="stroke:#000000;stroke-width:0.8;"/>
      </defs>
      <g>
       <use style="stroke:#000000;stroke-width:0.8;" x="72" xlink:href="#m8b1162c716" y="460.512"/>
      </g>
     </g>
     <g id="text_6">
      <!-- 4 -->
      <g transform="translate(50.257812 464.311219)scale(0.1 -0.1)">
       <use xlink:href="#DejaVuSans-2212"/>
       <use x="83.789062" xlink:href="#DejaVuSans-34"/>
      </g>
     </g>
    </g>
    <g id="ytick_2">
     <g id="line2d_7">
      <g>
       <use style="stroke:#000000;stroke-width:0.8;" x="72" xlink:href="#m8b1162c716" y="373.536"/>
      </g>
     </g>
     <g id="text_7">
      <!-- 2 -->
      <g transform="translate(50.257812 377.335219)scale(0.1 -0.1)">
       <use xlink:href="#DejaVuSans-2212"/>
       <use x="83.789062" xlink:href="#DejaVuSans-32"/>
      </g>
     </g>
    </g>
    <g id="ytick_3">
     <g id="line2d_8">
      <g>
       <use style="stroke:#000000;stroke-width:0.8;" x="72" xlink:href="#m8b1162c716" y="286.56"/>
      </g>
     </g>
     <g id="text_8">
      <!-- 0 -->
      <g transform="translate(58.6375 290.359219)scale(0.1 -0.1)">
       <use xlink:href="#DejaVuSans-30"/>
      </g>
     </g>
    </g>
    <g id="ytick_4">
     <g id="line2d_9">
      <g>
       <use style="stroke:#000000;stroke-width:0.8;" x="72" xlink:href="#m8b1162c716" y="199.584"/>
      </g>
     </g>
     <g id="text_9">
      <!-- 2 -->
      <g transform="translate(58.6375 203.383219)scale(0.1 -0.1)">
       <use xlink:href="#DejaVuSans-32"/>
      </g>
     </g>
    </g>
    <g id="ytick_5">
     <g id="line2d_10">
      <g>
       <use style="stroke:#000000;stroke-width:0.8;" x="72" xlink:href="#m8b1162c716" y="112.608"/>
      </g>
     </g>
     <g id="text_10">
      <!-- 4 -->
      <g transform="translate(58.6375 116.407219)scale(0.1 -0.1)">
       <use xlink:href="#DejaVuSans-34"/>
      </g>
     </g>
    </g>
   </g>
   <g id="patch_3">
    <path d="M 72 504 
L 72 69.12 
" style="fill:none;stroke:#000000;stroke-linecap:square;stroke-linejoin:miter;stroke-width:0.8;"/>
   </g>
   <g id="patch_4">
    <path d="M 429.12 504 
L 429.12 69.12 
" style="fill:none;stroke:#000000;stroke-linecap:square;stroke-linejoin:miter;stroke-width:0.8;"/>
   </g>
   <g id="patch_5">
    <path d="M 72 504 
L 429.12 504 
" style="fill:none;stroke:#000000;stroke-linecap:square;stroke-linejoin:miter;stroke-width:0.8;"/>
   </g>
   <g id="patch_6">
    <path d="M 72 69.12 
L 429.12 69.12 
" style="fill:none;stroke:#000000;stroke-linecap:square;stroke-linejoin:miter;stroke-width:0.8;"/>
   </g>
  </g>
  <g id="axes_2">
   <g id="patch_7">
    <path clip-path="url(#pffbe66657d)" d="M 451.44 504 
L 451.44 449.64 
L 451.44 123.48 
L 451.44 69.12 
L 473.184 69.12 
L 473.184 123.48 
L 473.184 449.64 
L 473.184 504 
z
" style="fill:#ffffff;stroke:#ffffff;stroke-linejoin:miter;stroke-width:0.01;"/>
   </g>
   <g id="QuadMesh_1">
    <path clip-path="url(#pffbe66657d)" d="M 451.44 504 
L 473.184 504 
L 473.184 449.64 
L 451.44 449.64 
L 451.44 504 
" style="fill:#4e68d8;"/>
    <path clip-path="url(#pffbe66657d)" d="M 451.44 449.64 
L 473.184 449.64 
L 473.184 395.28 
L 451.44 395.28 
L 451.44 449.64 
" style="fill:#779af7;"/>
    <path clip-path="url(#pffbe66657d)" d="M 451.44 395.28 
L 473.184 395.28 
L 473.184 340.92 
L 451.44 340.92 
L 451.44 395.28 
" style="fill:#a3c2fe;"/>
    <path clip-path="url(#pffbe66657d)" d="M 451.44 340.92 
L 473.184 340.92 
L 473.184 286.56 
L 451.44 286.56 
L 451.44 340.92 
" style="fill:#ccd9ed;"/>
    <path clip-path="url(#pffbe66657d)" d="M 451.44 286.56 
L 473.184 286.56 
L 473.184 232.2 
L 451.44 232.2 
L 451.44 286.56 
" style="fill:#ecd3c5;"/>
    <path clip-path="url(#pffbe66657d)" d="M 451.44 232.2 
L 473.184 232.2 
L 473.184 177.84 
L 451.44 177.84 
L 451.44 232.2 
" style="fill:#f7b093;"/>
    <path clip-path="url(#pffbe66657d)" d="M 451.44 177.84 
L 473.184 177.84 
L 473.184 123.48 
L 451.44 123.48 
L 451.44 177.84 
" style="fill:#eb7d62;"/>
    <path clip-path="url(#pffbe66657d)" d="M 451.44 123.48 
L 473.184 123.48 
L 473.184 69.12 
L 451.44 69.12 
L 451.44 123.48 
" style="fill:#ca3b37;"/>
   </g>
   <g id="matplotlib.axis_3"/>
   <g id="matplotlib.axis_4">
    <g id="ytick_6">
     <g id="line2d_11">
      <defs>
       <path d="M 0 0 
L 3.5 0 
" id="m92185bc307" style="stroke:#000000;stroke-width:0.8;"/>
      </defs>
      <g>
       <use style="stroke:#000000;stroke-width:0.8;" x="473.184" xlink:href="#m92185bc307" y="504"/>
      </g>
     </g>
     <g id="text_11">
      <!-- 105 -->
      <defs>
       <path d="M 12.40625 8.296875 
L 28.515625 8.296875 
L 28.515625 63.921875 
L 10.984375 60.40625 
L 10.984375 69.390625 
L 28.421875 72.90625 
L 38.28125 72.90625 
L 38.28125 8.296875 
L 54.390625 8.296875 
L 54.390625 0 
L 12.40625 0 
z
" id="DejaVuSans-31"/>
       <path d="M 10.796875 72.90625 
L 49.515625 72.90625 
L 49.515625 64.59375 
L 19.828125 64.59375 
L 19.828125 46.734375 
Q 21.96875 47.46875 24.109375 47.828125 
Q 26.265625 48.1875 28.421875 48.1875 
Q 40.625 48.1875 47.75 41.5 
Q 54.890625 34.8125 54.890625 23.390625 
Q 54.890625 11.625 47.5625 5.09375 
Q 40.234375 -1.421875 26.90625 -1.421875 
Q 22.3125 -1.421875 17.546875 -0.640625 
Q 12.796875 0.140625 7.71875 1.703125 
L 7.71875 11.625 
Q 12.109375 9.234375 16.796875 8.0625 
Q 21.484375 6.890625 26.703125 6.890625 
Q 35.15625 6.890625 40.078125 11.328125 
Q 45.015625 15.765625 45.015625 23.390625 
Q 45.015625 31 40.078125 35.4375 
Q 35.15625 39.890625 26.703125 39.890625 
Q 22.75 39.890625 18.8125 39.015625 
Q 14.890625 38.140625 10.796875 36.28125 
z
" id="DejaVuSans-35"/>
      </defs>
      <g transform="translate(480.184 507.799219)scale(0.1 -0.1)">
       <use xlink:href="#DejaVuSans-2212"/>
       <use x="83.789062" xlink:href="#DejaVuSans-31"/>
       <use x="147.412109" xlink:href="#DejaVuSans-30"/>
       <use x="211.035156" xlink:href="#DejaVuSans-35"/>
      </g>
     </g>
    </g>
    <g id="ytick_7">
     <g id="line2d_12">
      <g>
       <use style="stroke:#000000;stroke-width:0.8;" x="473.184" xlink:href="#m92185bc307" y="449.64"/>
      </g>
     </g>
     <g id="text_12">
      <!-- 90 -->
      <defs>
       <path d="M 10.984375 1.515625 
L 10.984375 10.5 
Q 14.703125 8.734375 18.5 7.8125 
Q 22.3125 6.890625 25.984375 6.890625 
Q 35.75 6.890625 40.890625 13.453125 
Q 46.046875 20.015625 46.78125 33.40625 
Q 43.953125 29.203125 39.59375 26.953125 
Q 35.25 24.703125 29.984375 24.703125 
Q 19.046875 24.703125 12.671875 31.3125 
Q 6.296875 37.9375 6.296875 49.421875 
Q 6.296875 60.640625 12.9375 67.421875 
Q 19.578125 74.21875 30.609375 74.21875 
Q 43.265625 74.21875 49.921875 64.515625 
Q 56.59375 54.828125 56.59375 36.375 
Q 56.59375 19.140625 48.40625 8.859375 
Q 40.234375 -1.421875 26.421875 -1.421875 
Q 22.703125 -1.421875 18.890625 -0.6875 
Q 15.09375 0.046875 10.984375 1.515625 
z
M 30.609375 32.421875 
Q 37.25 32.421875 41.125 36.953125 
Q 45.015625 41.5 45.015625 49.421875 
Q 45.015625 57.28125 41.125 61.84375 
Q 37.25 66.40625 30.609375 66.40625 
Q 23.96875 66.40625 20.09375 61.84375 
Q 16.21875 57.28125 16.21875 49.421875 
Q 16.21875 41.5 20.09375 36.953125 
Q 23.96875 32.421875 30.609375 32.421875 
z
" id="DejaVuSans-39"/>
      </defs>
      <g transform="translate(480.184 453.439219)scale(0.1 -0.1)">
       <use xlink:href="#DejaVuSans-2212"/>
       <use x="83.789062" xlink:href="#DejaVuSans-39"/>
       <use x="147.412109" xlink:href="#DejaVuSans-30"/>
      </g>
     </g>
    </g>
    <g id="ytick_8">
     <g id="line2d_13">
      <g>
       <use style="stroke:#000000;stroke-width:0.8;" x="473.184" xlink:href="#m92185bc307" y="395.28"/>
      </g>
     </g>
     <g id="text_13">
      <!-- 75 -->
      <defs>
       <path d="M 8.203125 72.90625 
L 55.078125 72.90625 
L 55.078125 68.703125 
L 28.609375 0 
L 18.3125 0 
L 43.21875 64.59375 
L 8.203125 64.59375 
z
" id="DejaVuSans-37"/>
      </defs>
      <g transform="translate(480.184 399.079219)scale(0.1 -0.1)">
       <use xlink:href="#DejaVuSans-2212"/>
       <use x="83.789062" xlink:href="#DejaVuSans-37"/>
       <use x="147.412109" xlink:href="#DejaVuSans-35"/>
      </g>
     </g>
    </g>
    <g id="ytick_9">
     <g id="line2d_14">
      <g>
       <use style="stroke:#000000;stroke-width:0.8;" x="473.184" xlink:href="#m92185bc307" y="340.92"/>
      </g>
     </g>
     <g id="text_14">
      <!-- 60 -->
      <defs>
       <path d="M 33.015625 40.375 
Q 26.375 40.375 22.484375 35.828125 
Q 18.609375 31.296875 18.609375 23.390625 
Q 18.609375 15.53125 22.484375 10.953125 
Q 26.375 6.390625 33.015625 6.390625 
Q 39.65625 6.390625 43.53125 10.953125 
Q 47.40625 15.53125 47.40625 23.390625 
Q 47.40625 31.296875 43.53125 35.828125 
Q 39.65625 40.375 33.015625 40.375 
z
M 52.59375 71.296875 
L 52.59375 62.3125 
Q 48.875 64.0625 45.09375 64.984375 
Q 41.3125 65.921875 37.59375 65.921875 
Q 27.828125 65.921875 22.671875 59.328125 
Q 17.53125 52.734375 16.796875 39.40625 
Q 19.671875 43.65625 24.015625 45.921875 
Q 28.375 48.1875 33.59375 48.1875 
Q 44.578125 48.1875 50.953125 41.515625 
Q 57.328125 34.859375 57.328125 23.390625 
Q 57.328125 12.15625 50.6875 5.359375 
Q 44.046875 -1.421875 33.015625 -1.421875 
Q 20.359375 -1.421875 13.671875 8.265625 
Q 6.984375 17.96875 6.984375 36.375 
Q 6.984375 53.65625 15.1875 63.9375 
Q 23.390625 74.21875 37.203125 74.21875 
Q 40.921875 74.21875 44.703125 73.484375 
Q 48.484375 72.75 52.59375 71.296875 
z
" id="DejaVuSans-36"/>
      </defs>
      <g transform="translate(480.184 344.719219)scale(0.1 -0.1)">
       <use xlink:href="#DejaVuSans-2212"/>
       <use x="83.789062" xlink:href="#DejaVuSans-36"/>
       <use x="147.412109" xlink:href="#DejaVuSans-30"/>
      </g>
     </g>
    </g>
    <g id="ytick_10">
     <g id="line2d_15">
      <g>
       <use style="stroke:#000000;stroke-width:0.8;" x="473.184" xlink:href="#m92185bc307" y="286.56"/>
      </g>
     </g>
     <g id="text_15">
      <!-- 45 -->
      <g transform="translate(480.184 290.359219)scale(0.1 -0.1)">
       <use xlink:href="#DejaVuSans-2212"/>
       <use x="83.789062" xlink:href="#DejaVuSans-34"/>
       <use x="147.412109" xlink:href="#DejaVuSans-35"/>
      </g>
     </g>
    </g>
    <g id="ytick_11">
     <g id="line2d_16">
      <g>
       <use style="stroke:#000000;stroke-width:0.8;" x="473.184" xlink:href="#m92185bc307" y="232.2"/>
      </g>
     </g>
     <g id="text_16">
      <!-- 30 -->
      <defs>
       <path d="M 40.578125 39.3125 
Q 47.65625 37.796875 51.625 33 
Q 55.609375 28.21875 55.609375 21.1875 
Q 55.609375 10.40625 48.1875 4.484375 
Q 40.765625 -1.421875 27.09375 -1.421875 
Q 22.515625 -1.421875 17.65625 -0.515625 
Q 12.796875 0.390625 7.625 2.203125 
L 7.625 11.71875 
Q 11.71875 9.328125 16.59375 8.109375 
Q 21.484375 6.890625 26.8125 6.890625 
Q 36.078125 6.890625 40.9375 10.546875 
Q 45.796875 14.203125 45.796875 21.1875 
Q 45.796875 27.640625 41.28125 31.265625 
Q 36.765625 34.90625 28.71875 34.90625 
L 20.21875 34.90625 
L 20.21875 43.015625 
L 29.109375 43.015625 
Q 36.375 43.015625 40.234375 45.921875 
Q 44.09375 48.828125 44.09375 54.296875 
Q 44.09375 59.90625 40.109375 62.90625 
Q 36.140625 65.921875 28.71875 65.921875 
Q 24.65625 65.921875 20.015625 65.03125 
Q 15.375 64.15625 9.8125 62.3125 
L 9.8125 71.09375 
Q 15.4375 72.65625 20.34375 73.4375 
Q 25.25 74.21875 29.59375 74.21875 
Q 40.828125 74.21875 47.359375 69.109375 
Q 53.90625 64.015625 53.90625 55.328125 
Q 53.90625 49.265625 50.4375 45.09375 
Q 46.96875 40.921875 40.578125 39.3125 
z
" id="DejaVuSans-33"/>
      </defs>
      <g transform="translate(480.184 235.999219)scale(0.1 -0.1)">
       <use xlink:href="#DejaVuSans-2212"/>
       <use x="83.789062" xlink:href="#DejaVuSans-33"/>
       <use x="147.412109" xlink:href="#DejaVuSans-30"/>
      </g>
     </g>
    </g>
    <g id="ytick_12">
     <g id="line2d_17">
      <g>
       <use style="stroke:#000000;stroke-width:0.8;" x="473.184" xlink:href="#m92185bc307" y="177.84"/>
      </g>
     </g>
     <g id="text_17">
      <!-- 15 -->
      <g transform="translate(480.184 181.639219)scale(0.1 -0.1)">
       <use xlink:href="#DejaVuSans-2212"/>
       <use x="83.789062" xlink:href="#DejaVuSans-31"/>
       <use x="147.412109" xlink:href="#DejaVuSans-35"/>
      </g>
     </g>
    </g>
    <g id="ytick_13">
     <g id="line2d_18">
      <g>
       <use style="stroke:#000000;stroke-width:0.8;" x="473.184" xlink:href="#m92185bc307" y="123.48"/>
      </g>
     </g>
     <g id="text_18">
      <!-- 0 -->
      <g transform="translate(480.184 127.279219)scale(0.1 -0.1)">
       <use xlink:href="#DejaVuSans-30"/>
      </g>
     </g>
    </g>
    <g id="ytick_14">
     <g id="line2d_19">
      <g>
       <use style="stroke:#000000;stroke-width:0.8;" x="473.184" xlink:href="#m92185bc307" y="69.12"/>
      </g>
     </g>
     <g id="text_19">
      <!-- 15 -->
      <g transform="translate(480.184 72.919219)scale(0.1 -0.1)">
       <use xlink:href="#DejaVuSans-31"/>
       <use x="63.623047" xlink:href="#DejaVuSans-35"/>
      </g>
     </g>
    </g>
   </g>
   <g id="patch_8">
    <path d="M 451.44 504 
L 451.44 449.64 
L 451.44 123.48 
L 451.44 69.12 
L 473.184 69.12 
L 473.184 123.48 
L 473.184 449.64 
L 473.184 504 
z
" style="fill:none;stroke:#000000;stroke-linejoin:miter;stroke-width:0.8;"/>
   </g>
  </g>
 </g>
 <defs>
  <clipPath id="p7bb1a6bfab">
   <rect height="434.88" width="357.12" x="72" y="69.12"/>
  </clipPath>
  <clipPath id="pffbe66657d">
   <rect height="434.88" width="21.744" x="451.44" y="69.12"/>
  </clipPath>
 </defs>
</svg>
