<?xml version="1.0" encoding="utf-8" standalone="no"?>
<!DOCTYPE svg PUBLIC "-//W3C//DTD SVG 1.1//EN"
  "http://www.w3.org/Graphics/SVG/1.1/DTD/svg11.dtd">
<!-- Created with matplotlib (http://matplotlib.org/) -->
<svg height="288pt" version="1.1" viewBox="0 0 432 288" width="432pt" xmlns="http://www.w3.org/2000/svg" xmlns:xlink="http://www.w3.org/1999/xlink">
 <defs>
  <style type="text/css">
*{stroke-linecap:butt;stroke-linejoin:round;}
  </style>
 </defs>
 <g id="figure_1">
  <g id="patch_1">
   <path d="M 0 288 
L 432 288 
L 432 0 
L 0 0 
z
" style="fill:#ffffff;"/>
  </g>
  <g id="axes_1">
   <g id="patch_2">
    <path d="M 54 252 
L 388.8 252 
L 388.8 34.56 
L 54 34.56 
z
" style="fill:#ffffff;"/>
   </g>
   <g id="patch_3">
    <path clip-path="url(#p17110d6272)" d="M 54 252 
L 54 211.781795 
L 184.922507 153.108049 
L 206.386013 164.014338 
L 197.555055 189.913207 
L 158.539634 252 
z
" style="opacity:0.6;stroke-dasharray:0,0;stroke-dashoffset:0;"/>
   </g>
   <g id="patch_4">
    <path clip-path="url(#p17110d6272)" d="M 54 211.781795 
L 54 167.830544 
L 182.45911 150.715236 
L 184.922505 153.10805 
z
" style="fill:#0143da;opacity:0.6;stroke-dasharray:0,0;stroke-dashoffset:0;"/>
   </g>
   <g id="patch_5">
    <path clip-path="url(#p17110d6272)" d="M 54 167.830544 
L 54 100.861722 
L 125.940304 91.36409 
L 191.172631 125.248514 
L 182.45911 150.715236 
z
" style="fill:#0287b4;opacity:0.6;stroke-dasharray:0,0;stroke-dashoffset:0;"/>
   </g>
   <g id="patch_6">
    <path clip-path="url(#p17110d6272)" d="M 54 100.861722 
L 54 53.99526 
L 125.940304 91.36409 
z
" style="fill:#03cb8e;opacity:0.6;stroke-dasharray:0,0;stroke-dashoffset:0;"/>
   </g>
   <g id="patch_7">
    <path clip-path="url(#p17110d6272)" d="M 54 53.99526 
L 54 34.56 
L 109.896508 34.56 
L 161.911769 86.6151 
L 125.940304 91.36409 
z
" style="fill:#050f68;opacity:0.6;stroke-dasharray:0,0;stroke-dashoffset:0;"/>
   </g>
   <g id="patch_8">
    <path clip-path="url(#p17110d6272)" d="M 161.911769 86.6151 
L 109.896508 34.56 
L 250.527162 34.56 
L 236.117982 76.818321 
z
" style="fill:#065342;opacity:0.6;stroke-dasharray:0,0;stroke-dashoffset:0;"/>
   </g>
   <g id="patch_9">
    <path clip-path="url(#p17110d6272)" d="M 125.940304 91.36409 
L 161.911769 86.6151 
L 197.300484 122.03092 
L 191.172631 125.248514 
z
" style="fill:#07971c;opacity:0.6;stroke-dasharray:0,0;stroke-dashoffset:0;"/>
   </g>
   <g id="patch_10">
    <path clip-path="url(#p17110d6272)" d="M 158.539634 252 
L 197.555055 189.913207 
L 176.384793 252 
z
" style="fill:#08daf6;opacity:0.6;stroke-dasharray:0,0;stroke-dashoffset:0;"/>
   </g>
   <g id="patch_11">
    <path clip-path="url(#p17110d6272)" d="M 197.300486 122.030922 
L 161.911769 86.6151 
L 236.117982 76.818321 
L 221.119994 120.803463 
z
" style="fill:#0a1ed0;opacity:0.6;stroke-dasharray:0,0;stroke-dashoffset:0;"/>
   </g>
   <g id="patch_12">
    <path clip-path="url(#p17110d6272)" d="M 176.384793 252 
L 197.555055 189.913207 
L 212.69544 165.81971 
L 237.672906 162.434264 
L 327.170095 252 
z
" style="fill:#0b62aa;opacity:0.6;stroke-dasharray:0,0;stroke-dashoffset:0;"/>
   </g>
   <g id="patch_13">
    <path clip-path="url(#p17110d6272)" d="M 184.922505 153.10805 
L 182.45911 150.715236 
L 193.56285 149.235825 
z
" style="fill:#0ca684;opacity:0.6;stroke-dasharray:0,0;stroke-dashoffset:0;"/>
   </g>
   <g id="patch_14">
    <path clip-path="url(#p17110d6272)" d="M 193.56285 149.235825 
L 182.45911 150.715236 
L 191.172631 125.248514 
L 209.027335 134.523001 
L 204.791916 144.203448 
z
" style="fill:#0dea5e;opacity:0.6;stroke-dasharray:0,0;stroke-dashoffset:0;"/>
   </g>
   <g id="patch_15">
    <path clip-path="url(#p17110d6272)" d="M 184.922507 153.108049 
L 193.56285 149.235825 
L 205.37278 147.662323 
L 210.510167 151.919284 
L 206.386013 164.014338 
z
" style="fill:#0f2e38;opacity:0.6;stroke-dasharray:0,0;stroke-dashoffset:0;"/>
   </g>
   <g id="patch_16">
    <path clip-path="url(#p17110d6272)" d="M 191.172631 125.248514 
L 197.300484 122.03092 
L 209.485715 134.225484 
L 209.027335 134.523001 
z
" style="fill:#107212;opacity:0.6;stroke-dasharray:0,0;stroke-dashoffset:0;"/>
   </g>
   <g id="patch_17">
    <path clip-path="url(#p17110d6272)" d="M 193.56285 149.235825 
L 204.791915 144.203448 
L 205.372779 147.662323 
z
" style="fill:#11b5ec;opacity:0.6;stroke-dasharray:0,0;stroke-dashoffset:0;"/>
   </g>
   <g id="patch_18">
    <path clip-path="url(#p17110d6272)" d="M 197.555055 189.913207 
L 206.386012 164.014342 
L 212.695439 165.819713 
z
" style="fill:#12f9c6;opacity:0.6;stroke-dasharray:0,0;stroke-dashoffset:0;"/>
   </g>
   <g id="patch_19">
    <path clip-path="url(#p17110d6272)" d="M 209.485714 134.225483 
L 197.300486 122.030922 
L 221.119994 120.803463 
L 217.199399 132.301532 
z
" style="fill:#143da0;opacity:0.6;stroke-dasharray:0,0;stroke-dashoffset:0;"/>
   </g>
   <g id="patch_20">
    <path clip-path="url(#p17110d6272)" d="M 205.372779 147.662323 
L 204.791915 144.203448 
L 214.647087 139.786791 
L 212.275283 146.742665 
z
" style="fill:#15817a;opacity:0.6;stroke-dasharray:0,0;stroke-dashoffset:0;"/>
   </g>
   <g id="patch_21">
    <path clip-path="url(#p17110d6272)" d="M 204.791916 144.203448 
L 209.027335 134.523001 
L 210.598519 135.33914 
L 214.747756 139.491555 
L 214.647087 139.786791 
z
" style="fill:#16c554;opacity:0.6;stroke-dasharray:0,0;stroke-dashoffset:0;"/>
   </g>
   <g id="patch_22">
    <path clip-path="url(#p17110d6272)" d="M 212.695439 165.819713 
L 206.386012 164.014342 
L 210.510167 151.919284 
L 219.819998 154.482117 
z
" style="fill:#18092e;opacity:0.6;stroke-dasharray:0,0;stroke-dashoffset:0;"/>
   </g>
   <g id="patch_23">
    <path clip-path="url(#p17110d6272)" d="M 205.37278 147.662323 
L 212.275283 146.742665 
L 210.510167 151.919284 
z
" style="fill:#194d08;opacity:0.6;stroke-dasharray:0,0;stroke-dashoffset:0;"/>
   </g>
   <g id="patch_24">
    <path clip-path="url(#p17110d6272)" d="M 210.598519 135.33914 
L 209.485714 134.225483 
L 217.199399 132.301532 
L 215.326268 137.794932 
z
" style="fill:#1a90e2;opacity:0.6;stroke-dasharray:0,0;stroke-dashoffset:0;"/>
   </g>
   <g id="patch_25">
    <path clip-path="url(#p17110d6272)" d="M 210.510167 151.919284 
L 212.275283 146.742665 
L 220.851531 145.600005 
L 223.644856 148.39547 
L 219.819998 154.482117 
z
" style="fill:#1bd4bc;opacity:0.6;stroke-dasharray:0,0;stroke-dashoffset:0;"/>
   </g>
   <g id="patch_26">
    <path clip-path="url(#p17110d6272)" d="M 210.598519 135.33914 
L 215.326268 137.794932 
L 214.747756 139.491555 
z
" style="fill:#1d1896;opacity:0.6;stroke-dasharray:0,0;stroke-dashoffset:0;"/>
   </g>
   <g id="patch_27">
    <path clip-path="url(#p17110d6272)" d="M 212.69544 165.81971 
L 219.819998 154.482117 
L 229.274004 154.028929 
L 237.672906 162.434264 
z
" style="fill:#1e5c70;opacity:0.6;stroke-dasharray:0,0;stroke-dashoffset:0;"/>
   </g>
   <g id="patch_28">
    <path clip-path="url(#p17110d6272)" d="M 212.275283 146.742665 
L 214.647087 139.786791 
L 214.920381 139.664312 
L 220.851531 145.600005 
z
" style="fill:#1fa04a;opacity:0.6;stroke-dasharray:0,0;stroke-dashoffset:0;"/>
   </g>
   <g id="patch_29">
    <path clip-path="url(#p17110d6272)" d="M 220.851531 145.600005 
L 214.920381 139.664312 
L 217.070255 138.700833 
L 226.619825 143.661283 
L 225.817289 144.93839 
z
" style="fill:#20e424;opacity:0.6;stroke-dasharray:0,0;stroke-dashoffset:0;"/>
   </g>
   <g id="patch_30">
    <path clip-path="url(#p17110d6272)" d="M 214.920381 139.664312 
L 214.747756 139.491555 
L 215.326268 137.794932 
L 217.070255 138.700833 
z
" style="fill:#2227fe;opacity:0.6;stroke-dasharray:0,0;stroke-dashoffset:0;"/>
   </g>
   <g id="patch_31">
    <path clip-path="url(#p17110d6272)" d="M 217.070255 138.700833 
L 215.326268 137.794932 
L 217.199399 132.301531 
L 230.056298 132.881056 
z
" style="fill:#236bd8;opacity:0.6;stroke-dasharray:0,0;stroke-dashoffset:0;"/>
   </g>
   <g id="patch_32">
    <path clip-path="url(#p17110d6272)" d="M 217.070255 138.700833 
L 230.056297 132.881056 
L 232.65833 134.051969 
L 226.619825 143.661283 
z
" style="fill:#24afb2;opacity:0.6;stroke-dasharray:0,0;stroke-dashoffset:0;"/>
   </g>
   <g id="patch_33">
    <path clip-path="url(#p17110d6272)" d="M 217.199399 132.301531 
L 221.119995 120.80346 
L 239.663825 122.903847 
L 234.702648 130.798765 
L 230.056298 132.881056 
z
" style="fill:#25f38c;opacity:0.6;stroke-dasharray:0,0;stroke-dashoffset:0;"/>
   </g>
   <g id="patch_34">
    <path clip-path="url(#p17110d6272)" d="M 219.819998 154.482117 
L 223.644856 148.39547 
L 229.274004 154.028929 
z
" style="fill:#273766;opacity:0.6;stroke-dasharray:0,0;stroke-dashoffset:0;"/>
   </g>
   <g id="patch_35">
    <path clip-path="url(#p17110d6272)" d="M 220.851531 145.600005 
L 225.817289 144.93839 
L 223.644856 148.39547 
z
" style="fill:#287b40;opacity:0.6;stroke-dasharray:0,0;stroke-dashoffset:0;"/>
   </g>
   <g id="patch_36">
    <path clip-path="url(#p17110d6272)" d="M 239.663825 122.903847 
L 221.119995 120.80346 
L 236.117982 76.818321 
L 271.564772 72.1386 
z
" style="fill:#29bf1a;opacity:0.6;stroke-dasharray:0,0;stroke-dashoffset:0;"/>
   </g>
   <g id="patch_37">
    <path clip-path="url(#p17110d6272)" d="M 229.274002 154.028927 
L 223.644856 148.39547 
L 225.817289 144.93839 
L 228.412718 144.592587 
L 238.152715 149.651953 
z
" style="fill:#2b02f4;opacity:0.6;stroke-dasharray:0,0;stroke-dashoffset:0;"/>
   </g>
   <g id="patch_38">
    <path clip-path="url(#p17110d6272)" d="M 228.412718 144.592587 
L 226.619825 143.661283 
L 232.65833 134.05197 
L 239.809316 143.074156 
z
" style="fill:#2c46ce;opacity:0.6;stroke-dasharray:0,0;stroke-dashoffset:0;"/>
   </g>
   <g id="patch_39">
    <path clip-path="url(#p17110d6272)" d="M 237.672906 162.434264 
L 229.274002 154.028927 
L 238.152715 149.651953 
L 249.388814 155.488457 
z
" style="fill:#2d8aa8;opacity:0.6;stroke-dasharray:0,0;stroke-dashoffset:0;"/>
   </g>
   <g id="patch_40">
    <path clip-path="url(#p17110d6272)" d="M 228.412718 144.592587 
L 239.809315 143.074156 
L 238.152717 149.651954 
z
" style="fill:#2ece82;opacity:0.6;stroke-dasharray:0,0;stroke-dashoffset:0;"/>
   </g>
   <g id="patch_41">
    <path clip-path="url(#p17110d6272)" d="M 230.056297 132.881056 
L 234.702648 130.798765 
L 232.65833 134.051969 
z
" style="fill:#30125c;opacity:0.6;stroke-dasharray:0,0;stroke-dashoffset:0;"/>
   </g>
   <g id="patch_42">
    <path clip-path="url(#p17110d6272)" d="M 239.809316 143.074156 
L 232.65833 134.05197 
L 234.702648 130.798765 
L 244.593865 126.365953 
L 255.34845 141.003792 
z
" style="fill:#315636;opacity:0.6;stroke-dasharray:0,0;stroke-dashoffset:0;"/>
   </g>
   <g id="patch_43">
    <path clip-path="url(#p17110d6272)" d="M 234.702648 130.798765 
L 239.663824 122.903849 
L 244.593865 126.365953 
z
" style="fill:#329a10;opacity:0.6;stroke-dasharray:0,0;stroke-dashoffset:0;"/>
   </g>
   <g id="patch_44">
    <path clip-path="url(#p17110d6272)" d="M 236.117982 76.818321 
L 250.527162 34.56 
L 295.179213 34.56 
L 271.564772 72.1386 
z
" style="fill:#33ddea;opacity:0.6;stroke-dasharray:0,0;stroke-dashoffset:0;"/>
   </g>
   <g id="patch_45">
    <path clip-path="url(#p17110d6272)" d="M 327.170095 252 
L 237.672906 162.434264 
L 249.388814 155.488457 
L 388.8 227.904511 
L 388.8 252 
z
" style="fill:#3521c4;opacity:0.6;stroke-dasharray:0,0;stroke-dashoffset:0;"/>
   </g>
   <g id="patch_46">
    <path clip-path="url(#p17110d6272)" d="M 238.152717 149.651954 
L 239.809315 143.074156 
L 255.34845 141.003792 
L 249.388813 155.488456 
z
" style="fill:#36659e;opacity:0.6;stroke-dasharray:0,0;stroke-dashoffset:0;"/>
   </g>
   <g id="patch_47">
    <path clip-path="url(#p17110d6272)" d="M 244.593865 126.365953 
L 239.663824 122.903849 
L 271.564772 72.1386 
L 404.862677 54.540475 
z
" style="fill:#37a978;opacity:0.6;stroke-dasharray:0,0;stroke-dashoffset:0;"/>
   </g>
   <g id="patch_48">
    <path clip-path="url(#p17110d6272)" d="M 255.34845 141.003792 
L 244.593865 126.365953 
L 404.862677 54.540475 
L 55197.995426 -7179.304511 
z
" style="fill:#38ed52;opacity:0.6;stroke-dasharray:0,0;stroke-dashoffset:0;"/>
   </g>
   <g id="patch_49">
    <path clip-path="url(#p17110d6272)" d="M 249.388813 155.488456 
L 255.34845 141.003792 
L 388.8 123.223315 
L 388.8 227.904511 
z
" style="fill:#3a312c;opacity:0.6;stroke-dasharray:0,0;stroke-dashoffset:0;"/>
   </g>
   <g id="patch_50">
    <path clip-path="url(#p17110d6272)" d="M 271.564772 72.1386 
L 295.179213 34.56 
L 388.8 34.56 
L 388.8 56.661086 
z
" style="fill:#3b7506;opacity:0.6;stroke-dasharray:0,0;stroke-dashoffset:0;"/>
   </g>
   <g id="matplotlib.axis_1">
    <g id="xtick_1">
     <g id="line2d_1">
      <defs>
       <path d="M 0 0 
L 0 3.5 
" id="me43b878d8a" style="stroke:#000000;stroke-width:0.8;"/>
      </defs>
      <g>
       <use style="stroke:#000000;stroke-width:0.8;" x="87.48" xlink:href="#me43b878d8a" y="252"/>
      </g>
     </g>
     <g id="text_1">
      <!-- −4 -->
      <defs>
       <path d="M 10.59375 35.5 
L 73.1875 35.5 
L 73.1875 27.203125 
L 10.59375 27.203125 
z
" id="DejaVuSans-2212"/>
       <path d="M 37.796875 64.3125 
L 12.890625 25.390625 
L 37.796875 25.390625 
z
M 35.203125 72.90625 
L 47.609375 72.90625 
L 47.609375 25.390625 
L 58.015625 25.390625 
L 58.015625 17.1875 
L 47.609375 17.1875 
L 47.609375 0 
L 37.796875 0 
L 37.796875 17.1875 
L 4.890625 17.1875 
L 4.890625 26.703125 
z
" id="DejaVuSans-34"/>
      </defs>
      <g transform="translate(80.108906 266.598437)scale(0.1 -0.1)">
       <use xlink:href="#DejaVuSans-2212"/>
       <use x="83.789062" xlink:href="#DejaVuSans-34"/>
      </g>
     </g>
    </g>
    <g id="xtick_2">
     <g id="line2d_2">
      <g>
       <use style="stroke:#000000;stroke-width:0.8;" x="154.44" xlink:href="#me43b878d8a" y="252"/>
      </g>
     </g>
     <g id="text_2">
      <!-- −2 -->
      <defs>
       <path d="M 19.1875 8.296875 
L 53.609375 8.296875 
L 53.609375 0 
L 7.328125 0 
L 7.328125 8.296875 
Q 12.9375 14.109375 22.625 23.890625 
Q 32.328125 33.6875 34.8125 36.53125 
Q 39.546875 41.84375 41.421875 45.53125 
Q 43.3125 49.21875 43.3125 52.78125 
Q 43.3125 58.59375 39.234375 62.25 
Q 35.15625 65.921875 28.609375 65.921875 
Q 23.96875 65.921875 18.8125 64.3125 
Q 13.671875 62.703125 7.8125 59.421875 
L 7.8125 69.390625 
Q 13.765625 71.78125 18.9375 73 
Q 24.125 74.21875 28.421875 74.21875 
Q 39.75 74.21875 46.484375 68.546875 
Q 53.21875 62.890625 53.21875 53.421875 
Q 53.21875 48.921875 51.53125 44.890625 
Q 49.859375 40.875 45.40625 35.40625 
Q 44.1875 33.984375 37.640625 27.21875 
Q 31.109375 20.453125 19.1875 8.296875 
z
" id="DejaVuSans-32"/>
      </defs>
      <g transform="translate(147.068906 266.598437)scale(0.1 -0.1)">
       <use xlink:href="#DejaVuSans-2212"/>
       <use x="83.789062" xlink:href="#DejaVuSans-32"/>
      </g>
     </g>
    </g>
    <g id="xtick_3">
     <g id="line2d_3">
      <g>
       <use style="stroke:#000000;stroke-width:0.8;" x="221.4" xlink:href="#me43b878d8a" y="252"/>
      </g>
     </g>
     <g id="text_3">
      <!-- 0 -->
      <defs>
       <path d="M 31.78125 66.40625 
Q 24.171875 66.40625 20.328125 58.90625 
Q 16.5 51.421875 16.5 36.375 
Q 16.5 21.390625 20.328125 13.890625 
Q 24.171875 6.390625 31.78125 6.390625 
Q 39.453125 6.390625 43.28125 13.890625 
Q 47.125 21.390625 47.125 36.375 
Q 47.125 51.421875 43.28125 58.90625 
Q 39.453125 66.40625 31.78125 66.40625 
z
M 31.78125 74.21875 
Q 44.046875 74.21875 50.515625 64.515625 
Q 56.984375 54.828125 56.984375 36.375 
Q 56.984375 17.96875 50.515625 8.265625 
Q 44.046875 -1.421875 31.78125 -1.421875 
Q 19.53125 -1.421875 13.0625 8.265625 
Q 6.59375 17.96875 6.59375 36.375 
Q 6.59375 54.828125 13.0625 64.515625 
Q 19.53125 74.21875 31.78125 74.21875 
z
" id="DejaVuSans-30"/>
      </defs>
      <g transform="translate(218.21875 266.598437)scale(0.1 -0.1)">
       <use xlink:href="#DejaVuSans-30"/>
      </g>
     </g>
    </g>
    <g id="xtick_4">
     <g id="line2d_4">
      <g>
       <use style="stroke:#000000;stroke-width:0.8;" x="288.36" xlink:href="#me43b878d8a" y="252"/>
      </g>
     </g>
     <g id="text_4">
      <!-- 2 -->
      <g transform="translate(285.17875 266.598437)scale(0.1 -0.1)">
       <use xlink:href="#DejaVuSans-32"/>
      </g>
     </g>
    </g>
    <g id="xtick_5">
     <g id="line2d_5">
      <g>
       <use style="stroke:#000000;stroke-width:0.8;" x="355.32" xlink:href="#me43b878d8a" y="252"/>
      </g>
     </g>
     <g id="text_5">
      <!-- 4 -->
      <g transform="translate(352.13875 266.598437)scale(0.1 -0.1)">
       <use xlink:href="#DejaVuSans-34"/>
      </g>
     </g>
    </g>
   </g>
   <g id="matplotlib.axis_2">
    <g id="ytick_1">
     <g id="line2d_6">
      <defs>
       <path d="M 0 0 
L -3.5 0 
" id="m563038dbb5" style="stroke:#000000;stroke-width:0.8;"/>
      </defs>
      <g>
       <use style="stroke:#000000;stroke-width:0.8;" x="54" xlink:href="#m563038dbb5" y="230.256"/>
      </g>
     </g>
     <g id="text_6">
      <!-- −4 -->
      <g transform="translate(32.257812 234.055219)scale(0.1 -0.1)">
       <use xlink:href="#DejaVuSans-2212"/>
       <use x="83.789062" xlink:href="#DejaVuSans-34"/>
      </g>
     </g>
    </g>
    <g id="ytick_2">
     <g id="line2d_7">
      <g>
       <use style="stroke:#000000;stroke-width:0.8;" x="54" xlink:href="#m563038dbb5" y="186.768"/>
      </g>
     </g>
     <g id="text_7">
      <!-- −2 -->
      <g transform="translate(32.257812 190.567219)scale(0.1 -0.1)">
       <use xlink:href="#DejaVuSans-2212"/>
       <use x="83.789062" xlink:href="#DejaVuSans-32"/>
      </g>
     </g>
    </g>
    <g id="ytick_3">
     <g id="line2d_8">
      <g>
       <use style="stroke:#000000;stroke-width:0.8;" x="54" xlink:href="#m563038dbb5" y="143.28"/>
      </g>
     </g>
     <g id="text_8">
      <!-- 0 -->
      <g transform="translate(40.6375 147.079219)scale(0.1 -0.1)">
       <use xlink:href="#DejaVuSans-30"/>
      </g>
     </g>
    </g>
    <g id="ytick_4">
     <g id="line2d_9">
      <g>
       <use style="stroke:#000000;stroke-width:0.8;" x="54" xlink:href="#m563038dbb5" y="99.792"/>
      </g>
     </g>
     <g id="text_9">
      <!-- 2 -->
      <g transform="translate(40.6375 103.591219)scale(0.1 -0.1)">
       <use xlink:href="#DejaVuSans-32"/>
      </g>
     </g>
    </g>
    <g id="ytick_5">
     <g id="line2d_10">
      <g>
       <use style="stroke:#000000;stroke-width:0.8;" x="54" xlink:href="#m563038dbb5" y="56.304"/>
      </g>
     </g>
     <g id="text_10">
      <!-- 4 -->
      <g transform="translate(40.6375 60.103219)scale(0.1 -0.1)">
       <use xlink:href="#DejaVuSans-34"/>
      </g>
     </g>
    </g>
   </g>
   <g id="line2d_11">
    <path clip-path="url(#p17110d6272)" d="M 202.482299 131.123233 
L 195.561296 148.340208 
" style="fill:none;stroke:#ff0000;stroke-linecap:square;stroke-width:0.5;"/>
   </g>
   <g id="line2d_12">
    <path clip-path="url(#p17110d6272)" d="M 208.56167 157.633712 
L 195.647153 148.958122 
" style="fill:none;stroke:#ff0000;stroke-linecap:square;stroke-width:0.5;"/>
   </g>
   <g id="line2d_13">
    <path clip-path="url(#p17110d6272)" d="M 204.92151 129.657783 
L 202.482301 131.123234 
" style="fill:none;stroke:#ff0000;stroke-linecap:square;stroke-width:0.5;"/>
   </g>
   <g id="line2d_14">
    <path clip-path="url(#p17110d6272)" d="M 195.647151 148.958122 
L 195.561297 148.340208 
" style="fill:none;stroke:#ff0000;stroke-linecap:square;stroke-width:0.5;"/>
   </g>
   <g id="line2d_15">
    <path clip-path="url(#p17110d6272)" d="M 218.901194 127.310617 
L 204.921509 129.657783 
" style="fill:none;stroke:#ff0000;stroke-linecap:square;stroke-width:0.5;"/>
   </g>
   <g id="line2d_16">
    <path clip-path="url(#p17110d6272)" d="M 216.449871 159.845135 
L 208.561669 157.633714 
" style="fill:none;stroke:#ff0000;stroke-linecap:square;stroke-width:0.5;"/>
   </g>
   <g id="line2d_17">
    <path clip-path="url(#p17110d6272)" d="M 233.545061 158.303257 
L 216.449873 159.845133 
" style="fill:none;stroke:#ff0000;stroke-linecap:square;stroke-width:0.5;"/>
   </g>
   <g id="line2d_18">
    <path clip-path="url(#p17110d6272)" d="M 236.095354 128.582497 
L 218.901194 127.310616 
" style="fill:none;stroke:#ff0000;stroke-linecap:square;stroke-width:0.5;"/>
   </g>
   <g id="line2d_19">
    <path clip-path="url(#p17110d6272)" d="M 233.54506 158.303256 
L 243.954964 152.665885 
" style="fill:none;stroke:#ff0000;stroke-linecap:square;stroke-width:0.5;"/>
   </g>
   <g id="line2d_20">
    <path clip-path="url(#p17110d6272)" d="M 247.460688 142.054722 
L 237.797314 129.411871 
" style="fill:none;stroke:#ff0000;stroke-linecap:square;stroke-width:0.5;"/>
   </g>
   <g id="line2d_21">
    <path clip-path="url(#p17110d6272)" d="M 237.797315 129.41187 
L 236.095354 128.582496 
" style="fill:none;stroke:#ff0000;stroke-linecap:square;stroke-width:0.5;"/>
   </g>
   <g id="line2d_22">
    <path clip-path="url(#p17110d6272)" d="M 243.954965 152.665886 
L 247.460689 142.054722 
" style="fill:none;stroke:#ff0000;stroke-linecap:square;stroke-width:0.5;"/>
   </g>
   <g id="patch_51">
    <path d="M 54 252 
L 54 34.56 
" style="fill:none;stroke:#000000;stroke-linecap:square;stroke-linejoin:miter;stroke-width:0.8;"/>
   </g>
   <g id="patch_52">
    <path d="M 388.8 252 
L 388.8 34.56 
" style="fill:none;stroke:#000000;stroke-linecap:square;stroke-linejoin:miter;stroke-width:0.8;"/>
   </g>
   <g id="patch_53">
    <path d="M 54 252 
L 388.8 252 
" style="fill:none;stroke:#000000;stroke-linecap:square;stroke-linejoin:miter;stroke-width:0.8;"/>
   </g>
   <g id="patch_54">
    <path d="M 54 34.56 
L 388.8 34.56 
" style="fill:none;stroke:#000000;stroke-linecap:square;stroke-linejoin:miter;stroke-width:0.8;"/>
   </g>
  </g>
 </g>
 <defs>
  <clipPath id="p17110d6272">
   <rect height="217.44" width="334.8" x="54" y="34.56"/>
  </clipPath>
 </defs>
</svg>
