<?xml version="1.0" encoding="utf-8" standalone="no"?>
<!DOCTYPE svg PUBLIC "-//W3C//DTD SVG 1.1//EN"
  "http://www.w3.org/Graphics/SVG/1.1/DTD/svg11.dtd">
<!-- Created with matplotlib (http://matplotlib.org/) -->
<svg height="576pt" version="1.1" viewBox="0 0 576 576" width="576pt" xmlns="http://www.w3.org/2000/svg" xmlns:xlink="http://www.w3.org/1999/xlink">
 <defs>
  <style type="text/css">
*{stroke-linecap:butt;stroke-linejoin:round;}
  </style>
 </defs>
 <g id="figure_1">
  <g id="patch_1">
   <path d="M 0 576 
L 576 576 
L 576 0 
L 0 0 
z
" style="fill:#ffffff;"/>
  </g>
  <g id="axes_1">
   <g id="patch_2">
    <path d="M 72 504 
L 429.12 504 
L 429.12 69.12 
L 72 69.12 
z
" style="fill:#ffffff;"/>
   </g>
   <g id="PathCollection_1">
    <path clip-path="url(#p8edf84d565)" d="M 75.607273 504 
L 79.214545 504 
L 82.330685 504 
L 81.294246 499.607273 
L 80.257819 495.214545 
L 79.221371 490.821818 
L 79.214545 490.792888 
L 78.184945 486.429091 
L 77.148511 482.036364 
L 76.112063 477.643636 
L 75.607273 475.504172 
L 75.075637 473.250909 
L 74.039206 468.858182 
L 73.002747 464.465455 
L 72 460.215456 
L 72 464.465455 
L 72 468.858182 
L 72 473.250909 
L 72 477.643636 
L 72 482.036364 
L 72 486.429091 
L 72 490.821818 
L 72 495.214545 
L 72 499.607273 
L 72 504 
z
" style="fill:#506bda;"/>
    <path clip-path="url(#p8edf84d565)" d="M 421.905455 504 
L 425.512727 504 
L 429.12 504 
L 429.12 499.607273 
L 429.12 495.214545 
L 429.12 490.821818 
L 429.12 486.429091 
L 429.12 482.290441 
L 427.375802 486.429091 
L 425.524581 490.821818 
L 425.512727 490.849946 
L 423.673295 495.214545 
L 421.905455 499.409358 
L 421.822047 499.607273 
L 419.970808 504 
z
" style="fill:#506bda;"/>
    <path clip-path="url(#p8edf84d565)" d="M 72.418108 143.796364 
L 74.40945 139.403636 
L 75.607273 136.761326 
L 76.400783 135.010909 
L 78.392091 130.618182 
L 79.214545 128.803923 
L 80.383432 126.225455 
L 82.374737 121.832727 
L 82.821818 120.846489 
L 84.366069 117.44 
L 86.357407 113.047273 
L 86.429091 112.889143 
L 88.34872 108.654545 
L 90.036364 104.931725 
L 90.340051 104.261818 
L 92.331393 99.869091 
L 93.643636 96.974393 
L 94.322723 95.476364 
L 96.314036 91.083636 
L 97.250909 89.016944 
L 98.305358 86.690909 
L 100.296694 82.298182 
L 100.858182 81.05959 
L 102.288033 77.905455 
L 104.279337 73.512727 
L 104.465455 73.102164 
L 106.270681 69.12 
L 104.465455 69.12 
L 100.858182 69.12 
L 97.250909 69.12 
L 93.643636 69.12 
L 90.036364 69.12 
L 86.429091 69.12 
L 82.821818 69.12 
L 79.214545 69.12 
L 75.607273 69.12 
L 72 69.12 
L 72 73.512727 
L 72 77.905455 
L 72 82.298182 
L 72 86.690909 
L 72 91.083636 
L 72 95.476364 
L 72 99.869091 
L 72 104.261818 
L 72 108.654545 
L 72 113.047273 
L 72 117.44 
L 72 121.832727 
L 72 126.225455 
L 72 130.618182 
L 72 135.010909 
L 72 139.403636 
L 72 143.796364 
L 72 144.718416 
z
" style="fill:#506bda;"/>
    <path clip-path="url(#p8edf84d565)" d="M 429.12 85.352344 
L 429.12 82.298182 
L 429.12 77.905455 
L 429.12 73.512727 
L 429.12 69.12 
L 425.512727 69.12 
L 424.425988 69.12 
L 425.512727 72.87804 
L 425.696263 73.512727 
L 426.966544 77.905455 
L 428.236821 82.298182 
z
" style="fill:#506bda;"/>
   </g>
   <g id="PathCollection_2">
    <path clip-path="url(#p8edf84d565)" d="M 82.821818 504 
L 86.429091 504 
L 90.036364 504 
L 93.643636 504 
L 97.250909 504 
L 100.858182 504 
L 104.465455 504 
L 108.072727 504 
L 111.68 504 
L 115.287273 504 
L 118.894545 504 
L 122.501818 504 
L 126.109091 504 
L 129.716364 504 
L 133.323636 504 
L 136.930909 504 
L 140.538182 504 
L 144.145455 504 
L 147.752727 504 
L 151.36 504 
L 154.967273 504 
L 158.574545 504 
L 162.181818 504 
L 165.789091 504 
L 169.396364 504 
L 173.003636 504 
L 176.610909 504 
L 180.218182 504 
L 183.825455 504 
L 187.432727 504 
L 191.04 504 
L 194.647273 504 
L 198.254545 504 
L 198.406706 504 
L 198.254545 503.99283 
L 194.647273 503.822825 
L 191.04 503.653776 
L 187.432727 503.491353 
L 183.825455 503.33335 
L 180.218182 503.179584 
L 176.610909 503.069195 
L 173.003636 502.96724 
L 169.396364 502.865719 
L 165.789091 502.764175 
L 162.181818 502.662653 
L 158.574545 502.561124 
L 154.967273 502.459602 
L 151.36 502.358067 
L 147.752727 502.256543 
L 144.145455 502.155004 
L 140.538182 502.05348 
L 136.930909 501.951935 
L 133.323636 501.850419 
L 129.716364 501.748903 
L 126.109091 501.647349 
L 123.03358 499.607273 
L 122.501818 499.058833 
L 120.044984 495.214545 
L 118.894545 491.188236 
L 118.808092 490.821818 
L 117.771669 486.429091 
L 116.735226 482.036364 
L 115.698781 477.643636 
L 115.287273 475.899525 
L 114.662362 473.250909 
L 113.625911 468.858182 
L 112.589482 464.465455 
L 111.68 460.610745 
L 111.55306 460.072727 
L 110.516627 455.68 
L 109.480185 451.287273 
L 108.443734 446.894545 
L 108.072727 445.322093 
L 107.40731 442.501818 
L 106.370865 438.109091 
L 105.334435 433.716364 
L 104.465455 430.033367 
L 104.297999 429.323636 
L 103.261581 424.930909 
L 102.225138 420.538182 
L 101.188714 416.145455 
L 100.858182 414.744554 
L 100.152275 411.752727 
L 99.115826 407.36 
L 98.079392 402.967273 
L 97.250909 399.455933 
L 97.042952 398.574545 
L 96.006514 394.181818 
L 94.970086 389.789091 
L 93.933654 385.396364 
L 93.643636 384.167183 
L 92.897217 381.003636 
L 91.860779 376.610909 
L 90.824345 372.218182 
L 90.036364 368.878498 
L 89.787905 367.825455 
L 88.751472 363.432727 
L 87.715045 359.04 
L 86.678592 354.647273 
L 86.429091 353.589797 
L 85.64217 350.254545 
L 84.605732 345.861818 
L 83.569295 341.469091 
L 82.821818 338.301017 
L 82.532873 337.076364 
L 81.496426 332.683636 
L 80.459993 328.290909 
L 79.42356 323.898182 
L 79.214545 323.012314 
L 78.387123 319.505455 
L 77.345639 315.112727 
L 76.299696 310.72 
L 75.607273 307.812083 
L 75.253715 306.327273 
L 74.206945 301.934545 
L 73.155251 297.541818 
L 72.103558 293.149091 
L 72.224012 288.756364 
L 72.727298 284.363636 
L 73.230599 279.970909 
L 73.733893 275.578182 
L 74.237171 271.185455 
L 74.740472 266.792727 
L 75.243759 262.4 
L 75.607273 259.227301 
L 75.747059 258.007273 
L 76.250332 253.614545 
L 76.753635 249.221818 
L 77.256932 244.829091 
L 77.760211 240.436364 
L 78.263518 236.043636 
L 78.766804 231.650909 
L 79.214545 227.742983 
L 79.27009 227.258182 
L 80.394614 222.865455 
L 82.389813 218.472727 
L 82.821818 217.521614 
L 84.385027 214.08 
L 86.380238 209.687273 
L 86.429091 209.579716 
L 88.375426 205.294545 
L 90.036364 201.637754 
L 90.37063 200.901818 
L 92.365829 196.509091 
L 93.643636 193.695852 
L 94.361053 192.116364 
L 96.356231 187.723636 
L 97.250909 185.753883 
L 98.351453 183.330909 
L 100.34665 178.938182 
L 100.858182 177.811968 
L 102.34184 174.545455 
L 104.33437 170.152727 
L 104.465455 169.863565 
L 106.325715 165.76 
L 108.072727 161.90625 
L 108.317061 161.367273 
L 110.308383 156.974545 
L 111.68 153.948822 
L 112.299691 152.581818 
L 114.291031 148.189091 
L 115.287273 145.991435 
L 116.282343 143.796364 
L 118.273689 139.403636 
L 118.894545 138.034072 
L 120.265012 135.010909 
L 122.256313 130.618182 
L 122.501818 130.076621 
L 124.247659 126.225455 
L 126.109091 122.119168 
L 126.238921 121.832727 
L 128.229884 117.44 
L 129.716364 114.160303 
L 130.220828 113.047273 
L 132.211781 108.654545 
L 133.323636 106.20141 
L 134.202734 104.261818 
L 136.193671 99.869091 
L 136.930909 98.581401 
L 139.895926 95.476364 
L 140.538182 94.905244 
L 144.145455 91.697486 
L 144.835756 91.083636 
L 147.752727 88.489757 
L 149.775637 86.690909 
L 151.36 85.282026 
L 154.860383 82.298182 
L 154.967273 82.233041 
L 158.574545 81.998556 
L 162.181818 81.764076 
L 165.789091 81.529623 
L 169.396364 81.295147 
L 173.003636 81.060707 
L 176.610909 80.826246 
L 180.218182 80.591791 
L 183.825455 80.357317 
L 187.432727 80.122849 
L 191.04 79.888373 
L 194.647273 79.653917 
L 198.254545 79.419469 
L 201.861818 79.18499 
L 205.469091 78.950541 
L 209.076364 78.716057 
L 212.683636 78.481608 
L 216.290909 78.247158 
L 219.898182 78.012675 
L 221.547876 77.905455 
L 223.505455 77.778224 
L 227.112727 77.543737 
L 230.72 77.309286 
L 234.327273 77.074832 
L 237.934545 76.840349 
L 241.541818 76.605898 
L 245.149091 76.371418 
L 248.756364 76.13696 
L 252.363636 75.902509 
L 255.970909 75.668032 
L 259.578182 75.433572 
L 263.185455 75.199092 
L 266.792727 74.964635 
L 270.4 74.730184 
L 274.007273 74.495711 
L 277.614545 74.261246 
L 281.221818 74.026795 
L 284.829091 73.792309 
L 288.436364 73.55784 
L 289.130469 73.512727 
L 292.043636 73.32339 
L 295.650909 73.088922 
L 299.258182 72.854454 
L 302.865455 72.619986 
L 306.472727 72.385536 
L 310.08 72.151062 
L 313.687273 71.916594 
L 317.294545 71.682123 
L 320.901818 71.447674 
L 324.509091 71.213206 
L 328.116364 70.978747 
L 331.723636 70.744284 
L 335.330909 70.509812 
L 338.938182 70.275331 
L 342.545455 70.04088 
L 346.152727 69.806424 
L 349.76 69.571974 
L 353.367273 69.337491 
L 356.713355 69.12 
L 353.367273 69.12 
L 349.76 69.12 
L 346.152727 69.12 
L 342.545455 69.12 
L 338.938182 69.12 
L 335.330909 69.12 
L 331.723636 69.12 
L 328.116364 69.12 
L 324.509091 69.12 
L 320.901818 69.12 
L 317.294545 69.12 
L 313.687273 69.12 
L 310.08 69.12 
L 306.472727 69.12 
L 302.865455 69.12 
L 299.258182 69.12 
L 295.650909 69.12 
L 292.043636 69.12 
L 288.436364 69.12 
L 284.829091 69.12 
L 281.221818 69.12 
L 277.614545 69.12 
L 274.007273 69.12 
L 270.4 69.12 
L 266.792727 69.12 
L 263.185455 69.12 
L 259.578182 69.12 
L 255.970909 69.12 
L 252.363636 69.12 
L 248.756364 69.12 
L 245.149091 69.12 
L 241.541818 69.12 
L 237.934545 69.12 
L 234.327273 69.12 
L 230.72 69.12 
L 227.112727 69.12 
L 223.505455 69.12 
L 219.898182 69.12 
L 216.290909 69.12 
L 212.683636 69.12 
L 209.076364 69.12 
L 205.469091 69.12 
L 201.861818 69.12 
L 198.254545 69.12 
L 194.647273 69.12 
L 191.04 69.12 
L 187.432727 69.12 
L 183.825455 69.12 
L 180.218182 69.12 
L 176.610909 69.12 
L 173.003636 69.12 
L 169.396364 69.12 
L 165.789091 69.12 
L 162.181818 69.12 
L 158.574545 69.12 
L 154.967273 69.12 
L 151.36 69.12 
L 147.752727 69.12 
L 144.145455 69.12 
L 140.538182 69.12 
L 136.930909 69.12 
L 133.323636 69.12 
L 129.716364 69.12 
L 126.109091 69.12 
L 122.501818 69.12 
L 118.894545 69.12 
L 115.287273 69.12 
L 111.68 69.12 
L 108.072727 69.12 
L 106.270681 69.12 
L 104.465455 73.102164 
L 104.279337 73.512727 
L 102.288033 77.905455 
L 100.858182 81.05959 
L 100.296694 82.298182 
L 98.305358 86.690909 
L 97.250909 89.016944 
L 96.314036 91.083636 
L 94.322723 95.476364 
L 93.643636 96.974393 
L 92.331393 99.869091 
L 90.340051 104.261818 
L 90.036364 104.931725 
L 88.34872 108.654545 
L 86.429091 112.889143 
L 86.357407 113.047273 
L 84.366069 117.44 
L 82.821818 120.846489 
L 82.374737 121.832727 
L 80.383432 126.225455 
L 79.214545 128.803923 
L 78.392091 130.618182 
L 76.400783 135.010909 
L 75.607273 136.761326 
L 74.40945 139.403636 
L 72.418108 143.796364 
L 72 144.718416 
L 72 148.189091 
L 72 152.581818 
L 72 156.974545 
L 72 161.367273 
L 72 165.76 
L 72 170.152727 
L 72 174.545455 
L 72 178.938182 
L 72 183.330909 
L 72 187.723636 
L 72 192.116364 
L 72 196.509091 
L 72 200.901818 
L 72 205.294545 
L 72 209.687273 
L 72 214.08 
L 72 218.472727 
L 72 222.865455 
L 72 227.258182 
L 72 231.650909 
L 72 236.043636 
L 72 240.436364 
L 72 244.829091 
L 72 249.221818 
L 72 253.614545 
L 72 258.007273 
L 72 262.4 
L 72 266.792727 
L 72 271.185455 
L 72 275.578182 
L 72 279.970909 
L 72 284.363636 
L 72 288.756364 
L 72 293.149091 
L 72 297.541818 
L 72 301.934545 
L 72 306.327273 
L 72 310.72 
L 72 315.112727 
L 72 319.505455 
L 72 323.898182 
L 72 328.290909 
L 72 332.683636 
L 72 337.076364 
L 72 341.469091 
L 72 345.861818 
L 72 350.254545 
L 72 354.647273 
L 72 359.04 
L 72 363.432727 
L 72 367.825455 
L 72 372.218182 
L 72 376.610909 
L 72 381.003636 
L 72 385.396364 
L 72 389.789091 
L 72 394.181818 
L 72 398.574545 
L 72 402.967273 
L 72 407.36 
L 72 411.752727 
L 72 416.145455 
L 72 420.538182 
L 72 424.930909 
L 72 429.323636 
L 72 433.716364 
L 72 438.109091 
L 72 442.501818 
L 72 446.894545 
L 72 451.287273 
L 72 455.68 
L 72 460.072727 
L 72 460.215456 
L 73.002747 464.465455 
L 74.039206 468.858182 
L 75.075637 473.250909 
L 75.607273 475.504172 
L 76.112063 477.643636 
L 77.148511 482.036364 
L 78.184945 486.429091 
L 79.214545 490.792888 
L 79.221371 490.821818 
L 80.257819 495.214545 
L 81.294246 499.607273 
L 82.330685 504 
z
" style="fill:#80a3fa;"/>
    <path clip-path="url(#p8edf84d565)" d="M 371.403636 504 
L 375.010909 504 
L 378.618182 504 
L 382.225455 504 
L 385.832727 504 
L 389.44 504 
L 393.047273 504 
L 396.654545 504 
L 400.261818 504 
L 403.869091 504 
L 407.476364 504 
L 411.083636 504 
L 414.690909 504 
L 418.298182 504 
L 419.970808 504 
L 421.822047 499.607273 
L 421.905455 499.409358 
L 423.673295 495.214545 
L 425.512727 490.849946 
L 425.524581 490.821818 
L 427.375802 486.429091 
L 429.12 482.290441 
L 429.12 482.036364 
L 429.12 477.643636 
L 429.12 473.250909 
L 429.12 468.858182 
L 429.12 464.465455 
L 429.12 460.072727 
L 429.12 455.68 
L 429.12 451.287273 
L 429.12 446.894545 
L 429.12 442.501818 
L 429.12 438.109091 
L 429.12 433.716364 
L 429.12 429.323636 
L 429.12 424.930909 
L 429.12 420.538182 
L 429.12 416.145455 
L 429.12 411.752727 
L 429.12 407.36 
L 429.12 402.967273 
L 429.12 398.574545 
L 429.12 394.181818 
L 429.12 389.789091 
L 429.12 385.396364 
L 429.12 381.003636 
L 429.12 376.610909 
L 429.12 372.218182 
L 429.12 370.908674 
L 428.518342 372.218182 
L 426.500077 376.610909 
L 425.512727 378.759894 
L 424.481832 381.003636 
L 422.463546 385.396364 
L 421.905455 386.611057 
L 420.445322 389.789091 
L 418.427031 394.181818 
L 418.298182 394.462256 
L 416.408775 398.574545 
L 414.690909 402.313477 
L 414.390523 402.967273 
L 412.372265 407.36 
L 411.083636 410.164697 
L 410.35401 411.752727 
L 408.336394 416.145455 
L 407.476364 418.018667 
L 406.319614 420.538182 
L 404.433281 424.930909 
L 403.869091 426.269637 
L 402.582009 429.323636 
L 400.730749 433.716364 
L 400.261818 434.829063 
L 398.879507 438.109091 
L 397.028232 442.501818 
L 396.654545 443.38851 
L 395.176972 446.894545 
L 393.325734 451.287273 
L 393.047273 451.948013 
L 391.474475 455.68 
L 389.623219 460.072727 
L 389.44 460.507471 
L 387.771951 464.465455 
L 385.920701 468.858182 
L 385.832727 469.06693 
L 384.069434 473.250909 
L 382.225455 477.626432 
L 382.218204 477.643636 
L 380.366928 482.036364 
L 378.618182 486.185847 
L 378.515669 486.429091 
L 376.664429 490.821818 
L 375.010909 494.745305 
L 374.813214 495.214545 
L 372.963244 499.607273 
L 371.403636 503.310997 
L 371.113504 504 
z
" style="fill:#80a3fa;"/>
    <path clip-path="url(#p8edf84d565)" d="M 429.12 233.108391 
L 429.12 231.650909 
L 429.12 227.258182 
L 429.12 222.865455 
L 429.12 218.472727 
L 429.12 214.08 
L 429.12 209.687273 
L 429.12 205.294545 
L 429.12 200.901818 
L 429.12 196.509091 
L 429.12 192.116364 
L 429.12 187.723636 
L 429.12 183.330909 
L 429.12 178.938182 
L 429.12 174.545455 
L 429.12 170.152727 
L 429.12 165.76 
L 429.12 161.367273 
L 429.12 156.974545 
L 429.12 152.581818 
L 429.12 148.189091 
L 429.12 143.796364 
L 429.12 139.403636 
L 429.12 135.010909 
L 429.12 130.618182 
L 429.12 126.225455 
L 429.12 121.832727 
L 429.12 117.44 
L 429.12 113.047273 
L 429.12 108.654545 
L 429.12 104.261818 
L 429.12 99.869091 
L 429.12 95.476364 
L 429.12 91.083636 
L 429.12 86.690909 
L 429.12 85.352344 
L 428.236821 82.298182 
L 426.966544 77.905455 
L 425.696263 73.512727 
L 425.512727 72.87804 
L 424.425988 69.12 
L 421.905455 69.12 
L 418.298182 69.12 
L 414.690909 69.12 
L 411.083636 69.12 
L 407.476364 69.12 
L 403.869091 69.12 
L 400.261818 69.12 
L 396.654545 69.12 
L 393.047273 69.12 
L 389.44 69.12 
L 385.832727 69.12 
L 382.225455 69.12 
L 378.618182 69.12 
L 375.010909 69.12 
L 371.403636 69.12 
L 367.796364 69.12 
L 364.189091 69.12 
L 360.581818 69.12 
L 357.059799 69.12 
L 360.581818 70.189257 
L 364.189091 73.326223 
L 364.403556 73.512727 
L 367.796364 76.463227 
L 369.454823 77.905455 
L 371.403636 79.600158 
L 374.506158 82.298182 
L 375.010909 82.73713 
L 378.618182 85.874108 
L 379.557437 86.690909 
L 382.225455 89.011058 
L 384.608761 91.083636 
L 385.832727 92.148025 
L 388.920954 95.476364 
L 389.44 96.648196 
L 390.371389 99.869091 
L 391.64167 104.261818 
L 392.91195 108.654545 
L 393.047273 109.122508 
L 394.182205 113.047273 
L 395.452493 117.44 
L 396.654545 121.596823 
L 396.722763 121.832727 
L 397.993018 126.225455 
L 399.263293 130.618182 
L 400.261818 134.071156 
L 400.533574 135.010909 
L 401.803837 139.403636 
L 403.074117 143.796364 
L 403.869091 146.545465 
L 404.344386 148.189091 
L 405.615555 152.581818 
L 406.895225 156.974545 
L 407.476364 158.967946 
L 408.175852 161.367273 
L 409.456504 165.76 
L 410.737172 170.152727 
L 411.083636 171.34114 
L 412.017897 174.545455 
L 413.299718 178.938182 
L 414.582616 183.330909 
L 414.690909 183.701717 
L 415.8655 187.723636 
L 417.148384 192.116364 
L 418.298182 196.05334 
L 418.431283 196.509091 
L 419.714146 200.901818 
L 420.99704 205.294545 
L 421.905455 208.405063 
L 422.27992 209.687273 
L 423.562821 214.08 
L 424.845678 218.472727 
L 425.512727 220.756734 
L 426.128583 222.865455 
L 427.411465 227.258182 
L 428.694343 231.650909 
z
" style="fill:#80a3fa;"/>
   </g>
   <g id="PathCollection_3">
    <path clip-path="url(#p8edf84d565)" d="M 126.109091 501.647349 
L 129.716364 501.748903 
L 133.323636 501.850419 
L 136.930909 501.951935 
L 140.538182 502.05348 
L 144.145455 502.155004 
L 147.752727 502.256543 
L 151.36 502.358067 
L 154.967273 502.459602 
L 158.574545 502.561124 
L 162.181818 502.662653 
L 165.789091 502.764175 
L 169.396364 502.865719 
L 173.003636 502.96724 
L 176.610909 503.069195 
L 180.218182 503.179584 
L 183.825455 503.33335 
L 187.432727 503.491353 
L 191.04 503.653776 
L 194.647273 503.822825 
L 198.254545 503.99283 
L 198.406706 504 
L 201.861818 504 
L 205.469091 504 
L 209.076364 504 
L 212.683636 504 
L 216.290909 504 
L 219.898182 504 
L 223.505455 504 
L 227.112727 504 
L 230.72 504 
L 234.327273 504 
L 237.934545 504 
L 241.541818 504 
L 245.149091 504 
L 248.756364 504 
L 252.363636 504 
L 255.970909 504 
L 259.578182 504 
L 263.185455 504 
L 266.792727 504 
L 270.4 504 
L 274.007273 504 
L 277.614545 504 
L 281.221818 504 
L 284.829091 504 
L 288.436364 504 
L 292.043636 504 
L 295.650909 504 
L 299.258182 504 
L 302.865455 504 
L 306.472727 504 
L 310.08 504 
L 313.687273 504 
L 317.294545 504 
L 320.901818 504 
L 324.509091 504 
L 328.116364 504 
L 331.723636 504 
L 335.330909 504 
L 338.938182 504 
L 342.545455 504 
L 346.152727 504 
L 349.76 504 
L 353.367273 504 
L 356.974545 504 
L 360.581818 504 
L 364.189091 504 
L 367.796364 504 
L 371.113504 504 
L 371.403636 503.310997 
L 372.963244 499.607273 
L 374.813214 495.214545 
L 375.010909 494.745305 
L 376.664429 490.821818 
L 378.515669 486.429091 
L 378.618182 486.185847 
L 380.366928 482.036364 
L 382.218204 477.643636 
L 382.225455 477.626432 
L 384.069434 473.250909 
L 385.832727 469.06693 
L 385.920701 468.858182 
L 387.771951 464.465455 
L 389.44 460.507471 
L 389.623219 460.072727 
L 391.474475 455.68 
L 393.047273 451.948013 
L 393.325734 451.287273 
L 395.176972 446.894545 
L 396.654545 443.38851 
L 397.028232 442.501818 
L 398.879507 438.109091 
L 400.261818 434.829063 
L 400.730749 433.716364 
L 402.582009 429.323636 
L 403.869091 426.269637 
L 404.433281 424.930909 
L 406.319614 420.538182 
L 407.476364 418.018667 
L 408.336394 416.145455 
L 410.35401 411.752727 
L 411.083636 410.164697 
L 412.372265 407.36 
L 414.390523 402.967273 
L 414.690909 402.313477 
L 416.408775 398.574545 
L 418.298182 394.462256 
L 418.427031 394.181818 
L 420.445322 389.789091 
L 421.905455 386.611057 
L 422.463546 385.396364 
L 424.481832 381.003636 
L 425.512727 378.759894 
L 426.500077 376.610909 
L 428.518342 372.218182 
L 429.12 370.908674 
L 429.12 367.825455 
L 429.12 363.432727 
L 429.12 359.04 
L 429.12 354.647273 
L 429.12 350.254545 
L 429.12 345.861818 
L 429.12 341.469091 
L 429.12 337.076364 
L 429.12 332.683636 
L 429.12 328.290909 
L 429.12 323.898182 
L 429.12 319.505455 
L 429.12 315.112727 
L 429.12 310.72 
L 429.12 306.327273 
L 429.12 301.934545 
L 429.12 297.541818 
L 429.12 293.149091 
L 429.12 288.756364 
L 429.12 284.363636 
L 429.12 279.970909 
L 429.12 275.578182 
L 429.12 271.185455 
L 429.12 266.792727 
L 429.12 262.4 
L 429.12 258.007273 
L 429.12 253.614545 
L 429.12 249.221818 
L 429.12 244.829091 
L 429.12 240.436364 
L 429.12 236.043636 
L 429.12 233.108391 
L 428.694343 231.650909 
L 427.411465 227.258182 
L 426.128583 222.865455 
L 425.512727 220.756734 
L 424.845678 218.472727 
L 423.562821 214.08 
L 422.27992 209.687273 
L 421.905455 208.405063 
L 420.99704 205.294545 
L 419.714146 200.901818 
L 418.431283 196.509091 
L 418.298182 196.05334 
L 417.148384 192.116364 
L 415.8655 187.723636 
L 414.690909 183.701717 
L 414.582616 183.330909 
L 413.299718 178.938182 
L 412.017897 174.545455 
L 411.083636 171.34114 
L 410.737172 170.152727 
L 409.456504 165.76 
L 408.175852 161.367273 
L 407.476364 158.967946 
L 406.895225 156.974545 
L 405.615555 152.581818 
L 404.344386 148.189091 
L 403.869091 146.545465 
L 403.074117 143.796364 
L 401.803837 139.403636 
L 400.533574 135.010909 
L 400.261818 134.071156 
L 399.263293 130.618182 
L 397.993018 126.225455 
L 396.722763 121.832727 
L 396.654545 121.596823 
L 395.452493 117.44 
L 394.182205 113.047273 
L 393.047273 109.122508 
L 392.91195 108.654545 
L 391.64167 104.261818 
L 390.371389 99.869091 
L 389.44 96.648196 
L 388.920954 95.476364 
L 385.832727 92.148025 
L 384.608761 91.083636 
L 382.225455 89.011058 
L 379.557437 86.690909 
L 378.618182 85.874108 
L 375.010909 82.73713 
L 374.506158 82.298182 
L 371.403636 79.600158 
L 369.454823 77.905455 
L 367.796364 76.463227 
L 364.403556 73.512727 
L 364.189091 73.326223 
L 360.581818 70.189257 
L 357.059799 69.12 
L 356.974545 69.12 
L 356.713355 69.12 
L 353.367273 69.337491 
L 349.76 69.571974 
L 346.152727 69.806424 
L 342.545455 70.04088 
L 338.938182 70.275331 
L 335.330909 70.509812 
L 331.723636 70.744284 
L 328.116364 70.978747 
L 324.509091 71.213206 
L 320.901818 71.447674 
L 317.294545 71.682123 
L 313.687273 71.916594 
L 310.08 72.151062 
L 306.472727 72.385536 
L 302.865455 72.619986 
L 299.258182 72.854454 
L 295.650909 73.088922 
L 292.043636 73.32339 
L 289.130469 73.512727 
L 288.436364 73.55784 
L 284.829091 73.792309 
L 281.221818 74.026795 
L 277.614545 74.261246 
L 274.007273 74.495711 
L 270.4 74.730184 
L 266.792727 74.964635 
L 263.185455 75.199092 
L 259.578182 75.433572 
L 255.970909 75.668032 
L 252.363636 75.902509 
L 248.756364 76.13696 
L 245.149091 76.371418 
L 241.541818 76.605898 
L 237.934545 76.840349 
L 234.327273 77.074832 
L 230.72 77.309286 
L 227.112727 77.543737 
L 223.505455 77.778224 
L 221.547876 77.905455 
L 219.898182 78.012675 
L 216.290909 78.247158 
L 212.683636 78.481608 
L 209.076364 78.716057 
L 205.469091 78.950541 
L 201.861818 79.18499 
L 198.254545 79.419469 
L 194.647273 79.653917 
L 191.04 79.888373 
L 187.432727 80.122849 
L 183.825455 80.357317 
L 180.218182 80.591791 
L 176.610909 80.826246 
L 173.003636 81.060707 
L 169.396364 81.295147 
L 165.789091 81.529623 
L 162.181818 81.764076 
L 158.574545 81.998556 
L 154.967273 82.233041 
L 154.860383 82.298182 
L 151.36 85.282026 
L 149.775637 86.690909 
L 147.752727 88.489757 
L 144.835756 91.083636 
L 144.145455 91.697486 
L 140.538182 94.905244 
L 139.895926 95.476364 
L 136.930909 98.581401 
L 136.193671 99.869091 
L 134.202734 104.261818 
L 133.323636 106.20141 
L 132.211781 108.654545 
L 130.220828 113.047273 
L 129.716364 114.160303 
L 128.229884 117.44 
L 126.238921 121.832727 
L 126.109091 122.119168 
L 124.247659 126.225455 
L 122.501818 130.076621 
L 122.256313 130.618182 
L 120.265012 135.010909 
L 118.894545 138.034072 
L 118.273689 139.403636 
L 116.282343 143.796364 
L 115.287273 145.991435 
L 114.291031 148.189091 
L 112.299691 152.581818 
L 111.68 153.948822 
L 110.308383 156.974545 
L 108.317061 161.367273 
L 108.072727 161.90625 
L 106.325715 165.76 
L 104.465455 169.863565 
L 104.33437 170.152727 
L 102.34184 174.545455 
L 100.858182 177.811968 
L 100.34665 178.938182 
L 98.351453 183.330909 
L 97.250909 185.753883 
L 96.356231 187.723636 
L 94.361053 192.116364 
L 93.643636 193.695852 
L 92.365829 196.509091 
L 90.37063 200.901818 
L 90.036364 201.637754 
L 88.375426 205.294545 
L 86.429091 209.579716 
L 86.380238 209.687273 
L 84.385027 214.08 
L 82.821818 217.521614 
L 82.389813 218.472727 
L 80.394614 222.865455 
L 79.27009 227.258182 
L 79.214545 227.742983 
L 78.766804 231.650909 
L 78.263518 236.043636 
L 77.760211 240.436364 
L 77.256932 244.829091 
L 76.753635 249.221818 
L 76.250332 253.614545 
L 75.747059 258.007273 
L 75.607273 259.227301 
L 75.243759 262.4 
L 74.740472 266.792727 
L 74.237171 271.185455 
L 73.733893 275.578182 
L 73.230599 279.970909 
L 72.727298 284.363636 
L 72.224012 288.756364 
L 72.103558 293.149091 
L 73.155251 297.541818 
L 74.206945 301.934545 
L 75.253715 306.327273 
L 75.607273 307.812083 
L 76.299696 310.72 
L 77.345639 315.112727 
L 78.387123 319.505455 
L 79.214545 323.012314 
L 79.42356 323.898182 
L 80.459993 328.290909 
L 81.496426 332.683636 
L 82.532873 337.076364 
L 82.821818 338.301017 
L 83.569295 341.469091 
L 84.605732 345.861818 
L 85.64217 350.254545 
L 86.429091 353.589797 
L 86.678592 354.647273 
L 87.715045 359.04 
L 88.751472 363.432727 
L 89.787905 367.825455 
L 90.036364 368.878498 
L 90.824345 372.218182 
L 91.860779 376.610909 
L 92.897217 381.003636 
L 93.643636 384.167183 
L 93.933654 385.396364 
L 94.970086 389.789091 
L 96.006514 394.181818 
L 97.042952 398.574545 
L 97.250909 399.455933 
L 98.079392 402.967273 
L 99.115826 407.36 
L 100.152275 411.752727 
L 100.858182 414.744554 
L 101.188714 416.145455 
L 102.225138 420.538182 
L 103.261581 424.930909 
L 104.297999 429.323636 
L 104.465455 430.033367 
L 105.334435 433.716364 
L 106.370865 438.109091 
L 107.40731 442.501818 
L 108.072727 445.322093 
L 108.443734 446.894545 
L 109.480185 451.287273 
L 110.516627 455.68 
L 111.55306 460.072727 
L 111.68 460.610745 
L 112.589482 464.465455 
L 113.625911 468.858182 
L 114.662362 473.250909 
L 115.287273 475.899525 
L 115.698781 477.643636 
L 116.735226 482.036364 
L 117.771669 486.429091 
L 118.808092 490.821818 
L 118.894545 491.188236 
L 120.044984 495.214545 
L 122.501818 499.058833 
L 123.03358 499.607273 
z
M 207.033234 455.68 
L 205.469091 455.635978 
L 201.861818 455.534451 
L 198.254545 455.432908 
L 194.647273 455.331374 
L 191.04 455.229856 
L 187.432727 455.12833 
L 183.825455 455.026787 
L 180.218182 454.925269 
L 176.610909 454.823734 
L 173.003636 454.722209 
L 169.396364 454.620681 
L 165.789091 454.519148 
L 162.181818 454.417625 
L 158.574545 454.31609 
L 154.967273 454.214567 
L 151.36 453.904342 
L 149.229926 451.287273 
L 148.030467 446.894545 
L 147.752727 445.717383 
L 146.994045 442.501818 
L 145.957604 438.109091 
L 144.921165 433.716364 
L 144.145455 430.428659 
L 143.884734 429.323636 
L 142.848296 424.930909 
L 141.811871 420.538182 
L 140.775436 416.145455 
L 140.538182 415.139909 
L 139.738993 411.752727 
L 138.702557 407.36 
L 137.666122 402.967273 
L 136.930909 399.851193 
L 136.629694 398.574545 
L 135.593254 394.181818 
L 134.556817 389.789091 
L 133.520389 385.396364 
L 133.323636 384.562473 
L 132.483946 381.003636 
L 131.447511 376.610909 
L 130.411077 372.218182 
L 129.716364 369.273782 
L 129.374641 367.825455 
L 128.338202 363.432727 
L 127.30177 359.04 
L 126.265342 354.647273 
L 126.109091 353.985037 
L 125.228896 350.254545 
L 124.192464 345.861818 
L 123.156029 341.469091 
L 122.501818 338.696347 
L 122.119592 337.076364 
L 121.083156 332.683636 
L 120.046716 328.290909 
L 119.010281 323.898182 
L 118.894545 323.407662 
L 117.973845 319.505455 
L 116.937417 315.112727 
L 115.900984 310.72 
L 115.287273 308.118913 
L 114.864546 306.327273 
L 113.828104 301.934545 
L 112.786073 297.541818 
L 111.734379 293.149091 
L 111.68 292.627987 
L 111.281822 288.756364 
L 111.68 285.281026 
L 111.785107 284.363636 
L 112.288401 279.970909 
L 112.791697 275.578182 
L 113.294985 271.185455 
L 113.798274 266.792727 
L 114.301569 262.4 
L 114.804862 258.007273 
L 115.287273 253.796736 
L 115.308147 253.614545 
L 115.811448 249.221818 
L 116.314734 244.829091 
L 116.81802 240.436364 
L 118.296686 236.043636 
L 118.894545 234.727366 
L 120.291895 231.650909 
L 122.287088 227.258182 
L 122.501818 226.785422 
L 124.282292 222.865455 
L 126.109091 218.843514 
L 126.277505 218.472727 
L 128.272701 214.08 
L 129.716364 210.901571 
L 130.267906 209.687273 
L 132.263093 205.294545 
L 133.323636 202.959628 
L 134.258219 200.901818 
L 136.250684 196.509091 
L 136.930909 195.008571 
L 138.242013 192.116364 
L 140.23322 187.723636 
L 140.538182 187.050842 
L 142.224185 183.330909 
L 144.145455 179.091927 
L 144.215138 178.938182 
L 146.206084 174.545455 
L 147.752727 171.133044 
L 148.197042 170.152727 
L 150.187981 165.76 
L 151.36 163.174123 
L 152.178934 161.367273 
L 154.169864 156.974545 
L 154.967273 155.215192 
L 156.160824 152.581818 
L 158.151763 148.189091 
L 158.574545 147.256282 
L 160.142718 143.796364 
L 162.181818 140.726529 
L 163.647408 139.403636 
L 165.789091 137.499178 
L 168.587294 135.010909 
L 169.396364 134.291451 
L 173.003636 131.083715 
L 173.527153 130.618182 
L 176.610909 127.87599 
L 180.218182 127.095818 
L 183.825455 126.861341 
L 187.432727 126.626888 
L 191.04 126.392413 
L 193.608747 126.225455 
L 194.647273 126.157954 
L 198.254545 125.923487 
L 201.861818 125.689034 
L 205.469091 125.454576 
L 209.076364 125.220097 
L 212.683636 124.98564 
L 216.290909 124.75118 
L 219.898182 124.516703 
L 223.505455 124.282245 
L 227.112727 124.047775 
L 230.72 123.813311 
L 234.327273 123.578857 
L 237.934545 123.344383 
L 241.541818 123.109926 
L 245.149091 122.875461 
L 248.756364 122.640991 
L 252.363636 122.406541 
L 255.970909 122.172065 
L 259.578182 121.937606 
L 261.191725 121.832727 
L 263.185455 121.703137 
L 266.792727 121.468678 
L 270.4 121.234217 
L 274.007273 120.999749 
L 277.614545 120.765284 
L 281.221818 120.530814 
L 284.829091 120.296351 
L 288.436364 120.061895 
L 292.043636 119.827423 
L 295.650909 119.592954 
L 299.258182 119.358491 
L 302.865455 119.124028 
L 306.472727 118.889572 
L 310.08 118.65511 
L 313.687273 118.420642 
L 317.294545 118.186174 
L 320.901818 117.951706 
L 324.509091 117.717239 
L 328.116364 117.482789 
L 328.774663 117.44 
L 331.723636 117.24832 
L 332.255943 117.44 
L 335.330909 119.128082 
L 338.441022 121.832727 
L 338.938182 122.265072 
L 342.545455 125.402033 
L 343.492325 126.225455 
L 346.152727 128.538998 
L 348.543643 130.618182 
L 349.76 131.675958 
L 353.367273 134.812937 
L 353.594924 135.010909 
L 356.974545 137.949915 
L 358.193908 139.403636 
L 360.127582 143.796364 
L 360.581818 145.367151 
L 361.39786 148.189091 
L 362.668122 152.581818 
L 363.938394 156.974545 
L 364.189091 157.841477 
L 365.208677 161.367273 
L 366.478948 165.76 
L 367.74923 170.152727 
L 367.796364 170.314954 
L 369.02676 174.545455 
L 370.307401 178.938182 
L 371.403636 182.698398 
L 371.588036 183.330909 
L 372.868682 187.723636 
L 374.149311 192.116364 
L 375.010909 195.071719 
L 375.429955 196.509091 
L 376.710579 200.901818 
L 377.991233 205.294545 
L 378.618182 207.445062 
L 379.271861 209.687273 
L 380.552508 214.08 
L 381.833183 218.472727 
L 382.225455 219.816552 
L 383.115886 222.865455 
L 384.398764 227.258182 
L 385.681658 231.650909 
L 385.832727 232.168186 
L 386.964539 236.043636 
L 388.247426 240.436364 
L 389.44 244.519859 
L 389.53031 244.829091 
L 390.813208 249.221818 
L 392.096097 253.614545 
L 393.047273 256.871456 
L 393.378985 258.007273 
L 394.661856 262.4 
L 395.94475 266.792727 
L 396.654545 269.223149 
L 397.227626 271.185455 
L 398.510515 275.578182 
L 399.251312 279.970909 
L 398.849668 284.363636 
L 398.448027 288.756364 
L 398.046382 293.149091 
L 397.644733 297.541818 
L 397.243092 301.934545 
L 396.841451 306.327273 
L 396.654545 308.37801 
L 396.441111 310.72 
L 396.043413 315.112727 
L 395.645746 319.505455 
L 395.248058 323.898182 
L 394.850384 328.290909 
L 394.45271 332.683636 
L 394.055028 337.076364 
L 393.657354 341.469091 
L 393.047273 344.034625 
L 392.553886 345.861818 
L 390.535631 350.254545 
L 389.44 352.639174 
L 388.517367 354.647273 
L 386.499101 359.04 
L 385.832727 360.490366 
L 384.480848 363.432727 
L 382.462592 367.825455 
L 382.225455 368.341586 
L 380.444338 372.218182 
L 378.618182 376.192771 
L 378.426065 376.610909 
L 376.40781 381.003636 
L 375.010909 384.043988 
L 374.389555 385.396364 
L 372.371291 389.789091 
L 371.403636 391.896031 
L 370.354011 394.181818 
L 368.337217 398.574545 
L 367.796364 399.752572 
L 366.320432 402.967273 
L 364.303635 407.36 
L 364.189091 407.609485 
L 362.28684 411.752727 
L 360.581818 415.466406 
L 360.270052 416.145455 
L 358.253256 420.538182 
L 356.974545 423.323306 
L 356.236462 424.930909 
L 354.219685 429.323636 
L 353.367273 431.180258 
L 352.202892 433.716364 
L 350.186105 438.109091 
L 349.76 439.048654 
L 348.183483 442.501818 
L 346.318297 446.894545 
L 346.152727 447.28774 
L 344.468558 451.287273 
L 342.618807 455.68 
L 342.545455 455.813075 
L 338.938182 458.818811 
L 335.330909 459.914457 
L 331.723636 459.759436 
L 328.116364 459.589458 
L 324.509091 459.419471 
L 320.901818 459.249485 
L 317.294545 459.079516 
L 313.687273 458.909528 
L 310.08 458.750044 
L 306.472727 458.601859 
L 302.865455 458.457688 
L 299.258182 458.325463 
L 295.650909 458.221908 
L 292.043636 458.118362 
L 288.436364 458.014813 
L 284.829091 457.911253 
L 281.221818 457.807699 
L 277.614545 457.704162 
L 274.007273 457.600613 
L 270.4 457.497057 
L 266.792727 457.393522 
L 263.185455 457.289962 
L 259.578182 457.186404 
L 255.970909 457.082871 
L 252.363636 456.979307 
L 248.756364 456.875762 
L 245.149091 456.772212 
L 241.541818 456.668671 
L 237.934545 456.565107 
L 234.327273 456.461562 
L 230.72 456.358016 
L 227.112727 456.254469 
L 223.505455 456.150926 
L 219.898182 456.047371 
L 216.290909 455.943816 
L 212.683636 455.840271 
L 209.076364 455.737516 
z
" style="fill:#b2ccfb;"/>
   </g>
   <g id="PathCollection_4">
    <path clip-path="url(#p8edf84d565)" d="M 209.076364 455.737516 
L 212.683636 455.840271 
L 216.290909 455.943816 
L 219.898182 456.047371 
L 223.505455 456.150926 
L 227.112727 456.254469 
L 230.72 456.358016 
L 234.327273 456.461562 
L 237.934545 456.565107 
L 241.541818 456.668671 
L 245.149091 456.772212 
L 248.756364 456.875762 
L 252.363636 456.979307 
L 255.970909 457.082871 
L 259.578182 457.186404 
L 263.185455 457.289962 
L 266.792727 457.393522 
L 270.4 457.497057 
L 274.007273 457.600613 
L 277.614545 457.704162 
L 281.221818 457.807699 
L 284.829091 457.911253 
L 288.436364 458.014813 
L 292.043636 458.118362 
L 295.650909 458.221908 
L 299.258182 458.325463 
L 302.865455 458.457688 
L 306.472727 458.601859 
L 310.08 458.750044 
L 313.687273 458.909528 
L 317.294545 459.079516 
L 320.901818 459.249485 
L 324.509091 459.419471 
L 328.116364 459.589458 
L 331.723636 459.759436 
L 335.330909 459.914457 
L 338.938182 458.818811 
L 342.545455 455.813075 
L 342.618807 455.68 
L 344.468558 451.287273 
L 346.152727 447.28774 
L 346.318297 446.894545 
L 348.183483 442.501818 
L 349.76 439.048654 
L 350.186105 438.109091 
L 352.202892 433.716364 
L 353.367273 431.180258 
L 354.219685 429.323636 
L 356.236462 424.930909 
L 356.974545 423.323306 
L 358.253256 420.538182 
L 360.270052 416.145455 
L 360.581818 415.466406 
L 362.28684 411.752727 
L 364.189091 407.609485 
L 364.303635 407.36 
L 366.320432 402.967273 
L 367.796364 399.752572 
L 368.337217 398.574545 
L 370.354011 394.181818 
L 371.403636 391.896031 
L 372.371291 389.789091 
L 374.389555 385.396364 
L 375.010909 384.043988 
L 376.40781 381.003636 
L 378.426065 376.610909 
L 378.618182 376.192771 
L 380.444338 372.218182 
L 382.225455 368.341586 
L 382.462592 367.825455 
L 384.480848 363.432727 
L 385.832727 360.490366 
L 386.499101 359.04 
L 388.517367 354.647273 
L 389.44 352.639174 
L 390.535631 350.254545 
L 392.553886 345.861818 
L 393.047273 344.034625 
L 393.657354 341.469091 
L 394.055028 337.076364 
L 394.45271 332.683636 
L 394.850384 328.290909 
L 395.248058 323.898182 
L 395.645746 319.505455 
L 396.043413 315.112727 
L 396.441111 310.72 
L 396.654545 308.37801 
L 396.841451 306.327273 
L 397.243092 301.934545 
L 397.644733 297.541818 
L 398.046382 293.149091 
L 398.448027 288.756364 
L 398.849668 284.363636 
L 399.251312 279.970909 
L 398.510515 275.578182 
L 397.227626 271.185455 
L 396.654545 269.223149 
L 395.94475 266.792727 
L 394.661856 262.4 
L 393.378985 258.007273 
L 393.047273 256.871456 
L 392.096097 253.614545 
L 390.813208 249.221818 
L 389.53031 244.829091 
L 389.44 244.519859 
L 388.247426 240.436364 
L 386.964539 236.043636 
L 385.832727 232.168186 
L 385.681658 231.650909 
L 384.398764 227.258182 
L 383.115886 222.865455 
L 382.225455 219.816552 
L 381.833183 218.472727 
L 380.552508 214.08 
L 379.271861 209.687273 
L 378.618182 207.445062 
L 377.991233 205.294545 
L 376.710579 200.901818 
L 375.429955 196.509091 
L 375.010909 195.071719 
L 374.149311 192.116364 
L 372.868682 187.723636 
L 371.588036 183.330909 
L 371.403636 182.698398 
L 370.307401 178.938182 
L 369.02676 174.545455 
L 367.796364 170.314954 
L 367.74923 170.152727 
L 366.478948 165.76 
L 365.208677 161.367273 
L 364.189091 157.841477 
L 363.938394 156.974545 
L 362.668122 152.581818 
L 361.39786 148.189091 
L 360.581818 145.367151 
L 360.127582 143.796364 
L 358.193908 139.403636 
L 356.974545 137.949915 
L 353.594924 135.010909 
L 353.367273 134.812937 
L 349.76 131.675958 
L 348.543643 130.618182 
L 346.152727 128.538998 
L 343.492325 126.225455 
L 342.545455 125.402033 
L 338.938182 122.265072 
L 338.441022 121.832727 
L 335.330909 119.128082 
L 332.255943 117.44 
L 331.723636 117.24832 
L 328.774663 117.44 
L 328.116364 117.482789 
L 324.509091 117.717239 
L 320.901818 117.951706 
L 317.294545 118.186174 
L 313.687273 118.420642 
L 310.08 118.65511 
L 306.472727 118.889572 
L 302.865455 119.124028 
L 299.258182 119.358491 
L 295.650909 119.592954 
L 292.043636 119.827423 
L 288.436364 120.061895 
L 284.829091 120.296351 
L 281.221818 120.530814 
L 277.614545 120.765284 
L 274.007273 120.999749 
L 270.4 121.234217 
L 266.792727 121.468678 
L 263.185455 121.703137 
L 261.191725 121.832727 
L 259.578182 121.937606 
L 255.970909 122.172065 
L 252.363636 122.406541 
L 248.756364 122.640991 
L 245.149091 122.875461 
L 241.541818 123.109926 
L 237.934545 123.344383 
L 234.327273 123.578857 
L 230.72 123.813311 
L 227.112727 124.047775 
L 223.505455 124.282245 
L 219.898182 124.516703 
L 216.290909 124.75118 
L 212.683636 124.98564 
L 209.076364 125.220097 
L 205.469091 125.454576 
L 201.861818 125.689034 
L 198.254545 125.923487 
L 194.647273 126.157954 
L 193.608747 126.225455 
L 191.04 126.392413 
L 187.432727 126.626888 
L 183.825455 126.861341 
L 180.218182 127.095818 
L 176.610909 127.87599 
L 173.527153 130.618182 
L 173.003636 131.083715 
L 169.396364 134.291451 
L 168.587294 135.010909 
L 165.789091 137.499178 
L 163.647408 139.403636 
L 162.181818 140.726529 
L 160.142718 143.796364 
L 158.574545 147.256282 
L 158.151763 148.189091 
L 156.160824 152.581818 
L 154.967273 155.215192 
L 154.169864 156.974545 
L 152.178934 161.367273 
L 151.36 163.174123 
L 150.187981 165.76 
L 148.197042 170.152727 
L 147.752727 171.133044 
L 146.206084 174.545455 
L 144.215138 178.938182 
L 144.145455 179.091927 
L 142.224185 183.330909 
L 140.538182 187.050842 
L 140.23322 187.723636 
L 138.242013 192.116364 
L 136.930909 195.008571 
L 136.250684 196.509091 
L 134.258219 200.901818 
L 133.323636 202.959628 
L 132.263093 205.294545 
L 130.267906 209.687273 
L 129.716364 210.901571 
L 128.272701 214.08 
L 126.277505 218.472727 
L 126.109091 218.843514 
L 124.282292 222.865455 
L 122.501818 226.785422 
L 122.287088 227.258182 
L 120.291895 231.650909 
L 118.894545 234.727366 
L 118.296686 236.043636 
L 116.81802 240.436364 
L 116.314734 244.829091 
L 115.811448 249.221818 
L 115.308147 253.614545 
L 115.287273 253.796736 
L 114.804862 258.007273 
L 114.301569 262.4 
L 113.798274 266.792727 
L 113.294985 271.185455 
L 112.791697 275.578182 
L 112.288401 279.970909 
L 111.785107 284.363636 
L 111.68 285.281026 
L 111.281822 288.756364 
L 111.68 292.627987 
L 111.734379 293.149091 
L 112.786073 297.541818 
L 113.828104 301.934545 
L 114.864546 306.327273 
L 115.287273 308.118913 
L 115.900984 310.72 
L 116.937417 315.112727 
L 117.973845 319.505455 
L 118.894545 323.407662 
L 119.010281 323.898182 
L 120.046716 328.290909 
L 121.083156 332.683636 
L 122.119592 337.076364 
L 122.501818 338.696347 
L 123.156029 341.469091 
L 124.192464 345.861818 
L 125.228896 350.254545 
L 126.109091 353.985037 
L 126.265342 354.647273 
L 127.30177 359.04 
L 128.338202 363.432727 
L 129.374641 367.825455 
L 129.716364 369.273782 
L 130.411077 372.218182 
L 131.447511 376.610909 
L 132.483946 381.003636 
L 133.323636 384.562473 
L 133.520389 385.396364 
L 134.556817 389.789091 
L 135.593254 394.181818 
L 136.629694 398.574545 
L 136.930909 399.851193 
L 137.666122 402.967273 
L 138.702557 407.36 
L 139.738993 411.752727 
L 140.538182 415.139909 
L 140.775436 416.145455 
L 141.811871 420.538182 
L 142.848296 424.930909 
L 143.884734 429.323636 
L 144.145455 430.428659 
L 144.921165 433.716364 
L 145.957604 438.109091 
L 146.994045 442.501818 
L 147.752727 445.717383 
L 148.030467 446.894545 
L 149.229926 451.287273 
L 151.36 453.904342 
L 154.967273 454.214567 
L 158.574545 454.31609 
L 162.181818 454.417625 
L 165.789091 454.519148 
L 169.396364 454.620681 
L 173.003636 454.722209 
L 176.610909 454.823734 
L 180.218182 454.925269 
L 183.825455 455.026787 
L 187.432727 455.12833 
L 191.04 455.229856 
L 194.647273 455.331374 
L 198.254545 455.432908 
L 201.861818 455.534451 
L 205.469091 455.635978 
L 207.033234 455.68 
z
M 204.369321 407.36 
L 201.861818 407.289421 
L 198.254545 407.187904 
L 194.647273 407.086369 
L 191.04 406.984851 
L 187.432727 406.883315 
L 183.825455 406.781782 
L 180.218182 406.376122 
L 177.510389 402.967273 
L 176.610909 400.246563 
L 176.216407 398.574545 
L 175.179975 394.181818 
L 174.143537 389.789091 
L 173.107094 385.396364 
L 173.003636 384.957878 
L 172.070661 381.003636 
L 171.034231 376.610909 
L 169.997796 372.218182 
L 169.396364 369.669129 
L 168.96136 367.825455 
L 167.924922 363.432727 
L 166.888488 359.04 
L 165.852048 354.647273 
L 165.789091 354.380444 
L 164.815614 350.254545 
L 163.779181 345.861818 
L 162.742748 341.469091 
L 162.181818 339.091694 
L 161.706313 337.076364 
L 160.669876 332.683636 
L 159.633438 328.290909 
L 158.597001 323.898182 
L 158.574545 323.803009 
L 157.560563 319.505455 
L 156.52413 315.112727 
L 155.487689 310.72 
L 154.967273 308.514292 
L 154.451266 306.327273 
L 153.41482 301.934545 
L 152.378392 297.541818 
L 151.36 293.225575 
L 151.341954 293.149091 
L 150.326033 288.756364 
L 150.836586 284.363636 
L 151.346188 279.970909 
L 151.36 279.850363 
L 151.849488 275.578182 
L 152.352781 271.185455 
L 152.856076 266.792727 
L 153.359362 262.4 
L 153.862648 258.007273 
L 154.365787 253.614545 
L 154.967273 252.057633 
L 156.198221 249.221818 
L 158.193049 244.829091 
L 158.574545 243.989014 
L 160.187877 240.436364 
L 162.181818 236.04559 
L 162.182705 236.043636 
L 164.17753 231.650909 
L 165.789091 228.102136 
L 166.172256 227.258182 
L 168.164181 222.865455 
L 169.396364 220.146836 
L 170.155133 218.472727 
L 172.146075 214.08 
L 173.003636 212.187908 
L 174.137018 209.687273 
L 176.127976 205.294545 
L 176.610909 204.229028 
L 178.118919 200.901818 
L 180.109867 196.509091 
L 180.218182 196.27011 
L 182.100804 192.116364 
L 183.825455 188.311191 
L 184.12118 187.723636 
L 187.400597 183.330909 
L 187.432727 183.300822 
L 191.04 180.093094 
L 192.33877 178.938182 
L 194.647273 176.885379 
L 197.278651 174.545455 
L 198.254545 173.677649 
L 201.861818 172.19306 
L 205.469091 171.958605 
L 209.076364 171.724128 
L 212.683636 171.489674 
L 216.290909 171.255207 
L 219.898182 171.020742 
L 223.505455 170.78628 
L 227.112727 170.551812 
L 230.72 170.317353 
L 233.25276 170.152727 
L 234.327273 170.082885 
L 237.934545 169.848418 
L 241.541818 169.61395 
L 245.149091 169.379489 
L 248.756364 169.14503 
L 252.363636 168.910562 
L 255.970909 168.676102 
L 259.578182 168.441643 
L 263.185455 168.207174 
L 266.792727 167.972702 
L 270.4 167.738247 
L 274.007273 167.503779 
L 277.614545 167.269314 
L 281.221818 167.034851 
L 284.829091 166.80039 
L 288.436364 166.565922 
L 292.043636 166.331457 
L 295.650909 166.096995 
L 299.258182 165.862536 
L 300.835698 165.76 
L 302.865455 165.628069 
L 306.472727 165.393602 
L 307.175916 165.76 
L 310.08 168.066925 
L 312.478509 170.152727 
L 313.687273 171.203898 
L 317.294545 174.340858 
L 317.529816 174.545455 
L 320.901818 177.477843 
L 322.581101 178.938182 
L 324.509091 180.614807 
L 327.632412 183.330909 
L 328.116364 183.884639 
L 329.88381 187.723636 
L 331.158304 192.116364 
L 331.723636 194.055511 
L 332.438944 196.509091 
L 333.719576 200.901818 
L 335.000223 205.294545 
L 335.330909 206.428842 
L 336.28085 209.687273 
L 337.561493 214.08 
L 338.842128 218.472727 
L 338.938182 218.8022 
L 340.122771 222.865455 
L 341.403409 227.258182 
L 342.545455 231.175516 
L 342.684049 231.650909 
L 343.964684 236.043636 
L 345.245321 240.436364 
L 346.152727 243.548841 
L 346.525969 244.829091 
L 347.8066 249.221818 
L 349.08724 253.614545 
L 349.76 255.922192 
L 350.367873 258.007273 
L 351.649303 262.4 
L 352.932051 266.792727 
L 353.367273 268.282982 
L 354.21493 271.185455 
L 355.497823 275.578182 
L 356.780701 279.970909 
L 356.509243 284.363636 
L 356.107601 288.756364 
L 355.705959 293.149091 
L 355.304313 297.541818 
L 354.902676 301.934545 
L 354.501885 306.327273 
L 354.104209 310.72 
L 353.706525 315.112727 
L 353.367273 318.860032 
L 353.308841 319.505455 
L 352.911167 323.898182 
L 352.437766 328.290909 
L 350.534664 332.683636 
L 349.76 334.369688 
L 348.516399 337.076364 
L 346.498156 341.469091 
L 346.152727 342.220913 
L 344.479888 345.861818 
L 342.545455 350.072097 
L 342.461628 350.254545 
L 340.443369 354.647273 
L 338.938182 357.923288 
L 338.425101 359.04 
L 336.40686 363.432727 
L 335.330909 365.774528 
L 334.388664 367.825455 
L 332.371641 372.218182 
L 331.723636 373.629588 
L 330.354845 376.610909 
L 328.338053 381.003636 
L 328.116364 381.48649 
L 326.321253 385.396364 
L 324.509091 389.343414 
L 324.304471 389.789091 
L 322.28805 394.181818 
L 320.901818 397.202902 
L 320.272563 398.574545 
L 318.257361 402.967273 
L 317.294545 405.066 
L 314.851163 407.36 
L 313.687273 408.025401 
L 310.08 409.953166 
L 306.472727 410.268374 
L 302.865455 410.164829 
L 299.258182 410.061274 
L 295.650909 409.957726 
L 292.043636 409.854175 
L 288.436364 409.75062 
L 284.829091 409.647085 
L 281.221818 409.543526 
L 277.614545 409.439981 
L 274.007273 409.336432 
L 270.4 409.232887 
L 266.792727 409.129327 
L 263.185455 409.025778 
L 259.578182 408.922233 
L 255.970909 408.818685 
L 252.363636 408.715141 
L 248.756364 408.611589 
L 245.149091 408.508185 
L 241.541818 408.406246 
L 237.934545 408.304711 
L 234.327273 408.203195 
L 230.72 408.101653 
L 227.112727 408.000127 
L 223.505455 407.898602 
L 219.898182 407.797067 
L 216.290909 407.695541 
L 212.683636 407.594024 
L 209.076364 407.492473 
L 205.469091 407.390956 
z
" style="fill:#dddcdc;"/>
   </g>
   <g id="PathCollection_5">
    <path clip-path="url(#p8edf84d565)" d="M 205.469091 407.390956 
L 209.076364 407.492473 
L 212.683636 407.594024 
L 216.290909 407.695541 
L 219.898182 407.797067 
L 223.505455 407.898602 
L 227.112727 408.000127 
L 230.72 408.101653 
L 234.327273 408.203195 
L 237.934545 408.304711 
L 241.541818 408.406246 
L 245.149091 408.508185 
L 248.756364 408.611589 
L 252.363636 408.715141 
L 255.970909 408.818685 
L 259.578182 408.922233 
L 263.185455 409.025778 
L 266.792727 409.129327 
L 270.4 409.232887 
L 274.007273 409.336432 
L 277.614545 409.439981 
L 281.221818 409.543526 
L 284.829091 409.647085 
L 288.436364 409.75062 
L 292.043636 409.854175 
L 295.650909 409.957726 
L 299.258182 410.061274 
L 302.865455 410.164829 
L 306.472727 410.268374 
L 310.08 409.953166 
L 313.687273 408.025401 
L 314.851163 407.36 
L 317.294545 405.066 
L 318.257361 402.967273 
L 320.272563 398.574545 
L 320.901818 397.202902 
L 322.28805 394.181818 
L 324.304471 389.789091 
L 324.509091 389.343414 
L 326.321253 385.396364 
L 328.116364 381.48649 
L 328.338053 381.003636 
L 330.354845 376.610909 
L 331.723636 373.629588 
L 332.371641 372.218182 
L 334.388664 367.825455 
L 335.330909 365.774528 
L 336.40686 363.432727 
L 338.425101 359.04 
L 338.938182 357.923288 
L 340.443369 354.647273 
L 342.461628 350.254545 
L 342.545455 350.072097 
L 344.479888 345.861818 
L 346.152727 342.220913 
L 346.498156 341.469091 
L 348.516399 337.076364 
L 349.76 334.369688 
L 350.534664 332.683636 
L 352.437766 328.290909 
L 352.911167 323.898182 
L 353.308841 319.505455 
L 353.367273 318.860032 
L 353.706525 315.112727 
L 354.104209 310.72 
L 354.501885 306.327273 
L 354.902676 301.934545 
L 355.304313 297.541818 
L 355.705959 293.149091 
L 356.107601 288.756364 
L 356.509243 284.363636 
L 356.780701 279.970909 
L 355.497823 275.578182 
L 354.21493 271.185455 
L 353.367273 268.282982 
L 352.932051 266.792727 
L 351.649303 262.4 
L 350.367873 258.007273 
L 349.76 255.922192 
L 349.08724 253.614545 
L 347.8066 249.221818 
L 346.525969 244.829091 
L 346.152727 243.548841 
L 345.245321 240.436364 
L 343.964684 236.043636 
L 342.684049 231.650909 
L 342.545455 231.175516 
L 341.403409 227.258182 
L 340.122771 222.865455 
L 338.938182 218.8022 
L 338.842128 218.472727 
L 337.561493 214.08 
L 336.28085 209.687273 
L 335.330909 206.428842 
L 335.000223 205.294545 
L 333.719576 200.901818 
L 332.438944 196.509091 
L 331.723636 194.055511 
L 331.158304 192.116364 
L 329.88381 187.723636 
L 328.116364 183.884639 
L 327.632412 183.330909 
L 324.509091 180.614807 
L 322.581101 178.938182 
L 320.901818 177.477843 
L 317.529816 174.545455 
L 317.294545 174.340858 
L 313.687273 171.203898 
L 312.478509 170.152727 
L 310.08 168.066925 
L 307.175916 165.76 
L 306.472727 165.393602 
L 302.865455 165.628069 
L 300.835698 165.76 
L 299.258182 165.862536 
L 295.650909 166.096995 
L 292.043636 166.331457 
L 288.436364 166.565922 
L 284.829091 166.80039 
L 281.221818 167.034851 
L 277.614545 167.269314 
L 274.007273 167.503779 
L 270.4 167.738247 
L 266.792727 167.972702 
L 263.185455 168.207174 
L 259.578182 168.441643 
L 255.970909 168.676102 
L 252.363636 168.910562 
L 248.756364 169.14503 
L 245.149091 169.379489 
L 241.541818 169.61395 
L 237.934545 169.848418 
L 234.327273 170.082885 
L 233.25276 170.152727 
L 230.72 170.317353 
L 227.112727 170.551812 
L 223.505455 170.78628 
L 219.898182 171.020742 
L 216.290909 171.255207 
L 212.683636 171.489674 
L 209.076364 171.724128 
L 205.469091 171.958605 
L 201.861818 172.19306 
L 198.254545 173.677649 
L 197.278651 174.545455 
L 194.647273 176.885379 
L 192.33877 178.938182 
L 191.04 180.093094 
L 187.432727 183.300822 
L 187.400597 183.330909 
L 184.12118 187.723636 
L 183.825455 188.311191 
L 182.100804 192.116364 
L 180.218182 196.27011 
L 180.109867 196.509091 
L 178.118919 200.901818 
L 176.610909 204.229028 
L 176.127976 205.294545 
L 174.137018 209.687273 
L 173.003636 212.187908 
L 172.146075 214.08 
L 170.155133 218.472727 
L 169.396364 220.146836 
L 168.164181 222.865455 
L 166.172256 227.258182 
L 165.789091 228.102136 
L 164.17753 231.650909 
L 162.182705 236.043636 
L 162.181818 236.04559 
L 160.187877 240.436364 
L 158.574545 243.989014 
L 158.193049 244.829091 
L 156.198221 249.221818 
L 154.967273 252.057633 
L 154.365787 253.614545 
L 153.862648 258.007273 
L 153.359362 262.4 
L 152.856076 266.792727 
L 152.352781 271.185455 
L 151.849488 275.578182 
L 151.36 279.850363 
L 151.346188 279.970909 
L 150.836586 284.363636 
L 150.326033 288.756364 
L 151.341954 293.149091 
L 151.36 293.225575 
L 152.378392 297.541818 
L 153.41482 301.934545 
L 154.451266 306.327273 
L 154.967273 308.514292 
L 155.487689 310.72 
L 156.52413 315.112727 
L 157.560563 319.505455 
L 158.574545 323.803009 
L 158.597001 323.898182 
L 159.633438 328.290909 
L 160.669876 332.683636 
L 161.706313 337.076364 
L 162.181818 339.091694 
L 162.742748 341.469091 
L 163.779181 345.861818 
L 164.815614 350.254545 
L 165.789091 354.380444 
L 165.852048 354.647273 
L 166.888488 359.04 
L 167.924922 363.432727 
L 168.96136 367.825455 
L 169.396364 369.669129 
L 169.997796 372.218182 
L 171.034231 376.610909 
L 172.070661 381.003636 
L 173.003636 384.957878 
L 173.107094 385.396364 
L 174.143537 389.789091 
L 175.179975 394.181818 
L 176.216407 398.574545 
L 176.610909 400.246563 
L 177.510389 402.967273 
L 180.218182 406.376122 
L 183.825455 406.781782 
L 187.432727 406.883315 
L 191.04 406.984851 
L 194.647273 407.086369 
L 198.254545 407.187904 
L 201.861818 407.289421 
L 204.369321 407.36 
z
M 212.043142 359.04 
L 209.076364 356.818896 
L 206.57615 354.647273 
L 205.469091 353.229581 
L 204.40221 350.254545 
L 203.36576 345.861818 
L 202.329401 341.469091 
L 201.861818 339.487233 
L 201.292956 337.076364 
L 200.25646 332.683636 
L 199.220053 328.290909 
L 198.254545 324.198357 
L 198.183721 323.898182 
L 197.147179 319.505455 
L 195.99914 315.112727 
L 194.864449 310.72 
L 194.647273 309.943765 
L 193.635347 306.327273 
L 192.406227 301.934545 
L 191.177195 297.541818 
L 191.04 297.051442 
L 189.948121 293.149091 
L 188.718984 288.756364 
L 188.554343 284.363636 
L 188.936582 279.970909 
L 189.318821 275.578182 
L 189.701063 271.185455 
L 190.140985 266.792727 
L 191.04 264.512502 
L 191.959564 262.4 
L 193.872563 258.007273 
L 194.647273 256.230042 
L 195.787389 253.614545 
L 197.700526 249.221818 
L 198.254545 247.9486 
L 199.611954 244.829091 
L 201.523384 240.436364 
L 201.861818 239.658597 
L 203.434812 236.043636 
L 205.346231 231.650909 
L 205.469091 231.36856 
L 207.420698 227.258182 
L 209.076364 224.980834 
L 211.501388 222.865455 
L 212.683636 221.834168 
L 216.290909 218.687515 
L 216.537139 218.472727 
L 219.898182 215.540861 
L 223.505455 214.554318 
L 227.112727 214.413641 
L 230.72 214.272966 
L 234.327273 214.132286 
L 235.667986 214.08 
L 237.934545 213.991607 
L 241.541818 213.850927 
L 245.149091 213.710247 
L 248.756364 213.569575 
L 252.363636 213.428892 
L 255.970909 213.288216 
L 259.578182 213.147539 
L 263.185455 213.006859 
L 266.792727 212.866183 
L 270.4 212.725503 
L 274.007273 212.584825 
L 277.614545 212.444149 
L 281.221818 212.562607 
L 283.57787 214.08 
L 284.829091 215.18929 
L 288.436364 218.388478 
L 288.531359 218.472727 
L 292.043636 221.587692 
L 293.484382 222.865455 
L 295.650909 224.786895 
L 298.437418 227.258182 
L 299.258182 228.387409 
L 300.482512 231.650909 
L 301.617167 236.043636 
L 302.751814 240.436364 
L 302.865455 240.876313 
L 303.913097 244.829091 
L 305.048029 249.221818 
L 306.155779 253.614545 
L 306.472727 254.841591 
L 307.420251 258.007273 
L 308.701248 262.4 
L 309.944532 266.792727 
L 310.08 267.279302 
L 311.218785 271.185455 
L 312.499425 275.578182 
L 313.687273 279.65263 
L 313.780063 279.970909 
L 314.178913 284.363636 
L 313.775893 288.756364 
L 313.687273 289.722271 
L 313.372869 293.149091 
L 312.969851 297.541818 
L 312.566828 301.934545 
L 312.167705 306.327273 
L 311.768856 310.72 
L 310.534608 315.112727 
L 310.08 316.101959 
L 308.51599 319.505455 
L 306.497196 323.898182 
L 306.472727 323.951437 
L 304.478931 328.290909 
L 302.865455 331.802644 
L 302.460695 332.683636 
L 300.442417 337.076364 
L 299.258182 339.653849 
L 298.42416 341.469091 
L 296.406514 345.861818 
L 295.650909 347.508369 
L 294.391072 350.254545 
L 292.375862 354.647273 
L 292.043636 355.20882 
L 288.436364 357.995324 
L 286.517517 359.04 
L 284.829091 359.959229 
L 281.221818 361.250794 
L 277.614545 361.176615 
L 274.007273 361.074997 
L 270.4 360.973464 
L 266.792727 360.871936 
L 263.185455 360.770401 
L 259.578182 360.668876 
L 255.970909 360.567347 
L 252.363636 360.465821 
L 248.756364 360.364286 
L 245.149091 360.262754 
L 241.541818 360.161228 
L 237.934545 360.059702 
L 234.327273 359.958167 
L 230.72 359.856636 
L 227.112727 359.755114 
L 223.505455 359.653581 
L 219.898182 359.552051 
L 216.290909 359.450524 
L 212.683636 359.348994 
z
" style="fill:#f6bfa6;"/>
   </g>
   <g id="PathCollection_6">
    <path clip-path="url(#p8edf84d565)" d="M 212.683636 359.348994 
L 216.290909 359.450524 
L 219.898182 359.552051 
L 223.505455 359.653581 
L 227.112727 359.755114 
L 230.72 359.856636 
L 234.327273 359.958167 
L 237.934545 360.059702 
L 241.541818 360.161228 
L 245.149091 360.262754 
L 248.756364 360.364286 
L 252.363636 360.465821 
L 255.970909 360.567347 
L 259.578182 360.668876 
L 263.185455 360.770401 
L 266.792727 360.871936 
L 270.4 360.973464 
L 274.007273 361.074997 
L 277.614545 361.176615 
L 281.221818 361.250794 
L 284.829091 359.959229 
L 286.517517 359.04 
L 288.436364 357.995324 
L 292.043636 355.20882 
L 292.375862 354.647273 
L 294.391072 350.254545 
L 295.650909 347.508369 
L 296.406514 345.861818 
L 298.42416 341.469091 
L 299.258182 339.653849 
L 300.442417 337.076364 
L 302.460695 332.683636 
L 302.865455 331.802644 
L 304.478931 328.290909 
L 306.472727 323.951437 
L 306.497196 323.898182 
L 308.51599 319.505455 
L 310.08 316.101959 
L 310.534608 315.112727 
L 311.768856 310.72 
L 312.167705 306.327273 
L 312.566828 301.934545 
L 312.969851 297.541818 
L 313.372869 293.149091 
L 313.687273 289.722271 
L 313.775893 288.756364 
L 314.178913 284.363636 
L 313.780063 279.970909 
L 313.687273 279.65263 
L 312.499425 275.578182 
L 311.218785 271.185455 
L 310.08 267.279302 
L 309.944532 266.792727 
L 308.701248 262.4 
L 307.420251 258.007273 
L 306.472727 254.841591 
L 306.155779 253.614545 
L 305.048029 249.221818 
L 303.913097 244.829091 
L 302.865455 240.876313 
L 302.751814 240.436364 
L 301.617167 236.043636 
L 300.482512 231.650909 
L 299.258182 228.387409 
L 298.437418 227.258182 
L 295.650909 224.786895 
L 293.484382 222.865455 
L 292.043636 221.587692 
L 288.531359 218.472727 
L 288.436364 218.388478 
L 284.829091 215.18929 
L 283.57787 214.08 
L 281.221818 212.562607 
L 277.614545 212.444149 
L 274.007273 212.584825 
L 270.4 212.725503 
L 266.792727 212.866183 
L 263.185455 213.006859 
L 259.578182 213.147539 
L 255.970909 213.288216 
L 252.363636 213.428892 
L 248.756364 213.569575 
L 245.149091 213.710247 
L 241.541818 213.850927 
L 237.934545 213.991607 
L 235.667986 214.08 
L 234.327273 214.132286 
L 230.72 214.272966 
L 227.112727 214.413641 
L 223.505455 214.554318 
L 219.898182 215.540861 
L 216.537139 218.472727 
L 216.290909 218.687515 
L 212.683636 221.834168 
L 211.501388 222.865455 
L 209.076364 224.980834 
L 207.420698 227.258182 
L 205.469091 231.36856 
L 205.346231 231.650909 
L 203.434812 236.043636 
L 201.861818 239.658597 
L 201.523384 240.436364 
L 199.611954 244.829091 
L 198.254545 247.9486 
L 197.700526 249.221818 
L 195.787389 253.614545 
L 194.647273 256.230042 
L 193.872563 258.007273 
L 191.959564 262.4 
L 191.04 264.512502 
L 190.140985 266.792727 
L 189.701063 271.185455 
L 189.318821 275.578182 
L 188.936582 279.970909 
L 188.554343 284.363636 
L 188.718984 288.756364 
L 189.948121 293.149091 
L 191.04 297.051442 
L 191.177195 297.541818 
L 192.406227 301.934545 
L 193.635347 306.327273 
L 194.647273 309.943765 
L 194.864449 310.72 
L 195.99914 315.112727 
L 197.147179 319.505455 
L 198.183721 323.898182 
L 198.254545 324.198357 
L 199.220053 328.290909 
L 200.25646 332.683636 
L 201.292956 337.076364 
L 201.861818 339.487233 
L 202.329401 341.469091 
L 203.36576 345.861818 
L 204.40221 350.254545 
L 205.469091 353.229581 
L 206.57615 354.647273 
L 209.076364 356.818896 
L 212.043142 359.04 
z
M 236.997987 315.112727 
L 234.327273 312.884504 
L 231.732929 310.72 
L 230.72 309.874895 
L 228.688536 306.327273 
L 227.44044 301.934545 
L 227.112727 300.763284 
L 226.21138 297.541818 
L 224.982319 293.149091 
L 223.753258 288.756364 
L 223.505455 287.19059 
L 223.064754 284.363636 
L 223.449137 279.970909 
L 223.505455 279.808002 
L 225.154369 275.578182 
L 227.063634 271.185455 
L 227.112727 271.072505 
L 229.098061 266.792727 
L 230.72 264.510445 
L 233.138409 262.4 
L 234.327273 261.362527 
L 237.934545 258.214609 
L 238.172137 258.007273 
L 241.541818 255.592298 
L 245.149091 255.184549 
L 248.756364 255.044994 
L 252.363636 254.905438 
L 255.970909 254.765885 
L 259.578182 255.519963 
L 262.382756 258.007273 
L 263.185455 258.719167 
L 266.792727 261.918371 
L 267.335789 262.4 
L 270.4 265.117573 
L 272.224288 266.792727 
L 274.007273 270.48163 
L 274.189072 271.185455 
L 275.323726 275.578182 
L 276.458379 279.970909 
L 277.297039 284.363636 
L 276.753019 288.756364 
L 276.209 293.149091 
L 275.664982 297.541818 
L 274.087531 301.934545 
L 274.007273 302.097636 
L 271.925832 306.327273 
L 270.4 309.427876 
L 269.447044 310.72 
L 266.792727 312.999481 
L 263.185455 314.994377 
L 262.971447 315.112727 
L 259.578182 316.989276 
L 255.970909 317.687758 
L 252.363636 317.656333 
L 248.756364 317.624911 
L 245.149091 317.593488 
L 241.541818 317.561119 
L 237.934545 315.894115 
z
" style="fill:#f08a6c;"/>
   </g>
   <g id="PathCollection_7">
    <path clip-path="url(#p8edf84d565)" d="M 237.934545 315.894115 
L 241.541818 317.561119 
L 245.149091 317.593488 
L 248.756364 317.624911 
L 252.363636 317.656333 
L 255.970909 317.687758 
L 259.578182 316.989276 
L 262.971447 315.112727 
L 263.185455 314.994377 
L 266.792727 312.999481 
L 269.447044 310.72 
L 270.4 309.427876 
L 271.925832 306.327273 
L 274.007273 302.097636 
L 274.087531 301.934545 
L 275.664982 297.541818 
L 276.209 293.149091 
L 276.753019 288.756364 
L 277.297039 284.363636 
L 276.458379 279.970909 
L 275.323726 275.578182 
L 274.189072 271.185455 
L 274.007273 270.48163 
L 272.224288 266.792727 
L 270.4 265.117573 
L 267.335789 262.4 
L 266.792727 261.918371 
L 263.185455 258.719167 
L 262.382756 258.007273 
L 259.578182 255.519963 
L 255.970909 254.765885 
L 252.363636 254.905438 
L 248.756364 255.044994 
L 245.149091 255.184549 
L 241.541818 255.592298 
L 238.172137 258.007273 
L 237.934545 258.214609 
L 234.327273 261.362527 
L 233.138409 262.4 
L 230.72 264.510445 
L 229.098061 266.792727 
L 227.112727 271.072505 
L 227.063634 271.185455 
L 225.154369 275.578182 
L 223.505455 279.808002 
L 223.449137 279.970909 
L 223.064754 284.363636 
L 223.505455 287.19059 
L 223.753258 288.756364 
L 224.982319 293.149091 
L 226.21138 297.541818 
L 227.112727 300.763284 
L 227.44044 301.934545 
L 228.688536 306.327273 
L 230.72 309.874895 
L 231.732929 310.72 
L 234.327273 312.884504 
L 236.997987 315.112727 
z
" style="fill:#cd423b;"/>
   </g>
   <g id="matplotlib.axis_1">
    <g id="xtick_1">
     <g id="line2d_1">
      <defs>
       <path d="M 0 0 
L 0 3.5 
" id="md91775d7fb" style="stroke:#000000;stroke-width:0.8;"/>
      </defs>
      <g>
       <use style="stroke:#000000;stroke-width:0.8;" x="107.712" xlink:href="#md91775d7fb" y="504"/>
      </g>
     </g>
     <g id="text_1">
      <!-- 4 -->
      <defs>
       <path d="M 10.59375 35.5 
L 73.1875 35.5 
L 73.1875 27.203125 
L 10.59375 27.203125 
z
" id="DejaVuSans-2212"/>
       <path d="M 37.796875 64.3125 
L 12.890625 25.390625 
L 37.796875 25.390625 
z
M 35.203125 72.90625 
L 47.609375 72.90625 
L 47.609375 25.390625 
L 58.015625 25.390625 
L 58.015625 17.1875 
L 47.609375 17.1875 
L 47.609375 0 
L 37.796875 0 
L 37.796875 17.1875 
L 4.890625 17.1875 
L 4.890625 26.703125 
z
" id="DejaVuSans-34"/>
      </defs>
      <g transform="translate(100.340906 518.598438)scale(0.1 -0.1)">
       <use xlink:href="#DejaVuSans-2212"/>
       <use x="83.789062" xlink:href="#DejaVuSans-34"/>
      </g>
     </g>
    </g>
    <g id="xtick_2">
     <g id="line2d_2">
      <g>
       <use style="stroke:#000000;stroke-width:0.8;" x="179.136" xlink:href="#md91775d7fb" y="504"/>
      </g>
     </g>
     <g id="text_2">
      <!-- 2 -->
      <defs>
       <path d="M 19.1875 8.296875 
L 53.609375 8.296875 
L 53.609375 0 
L 7.328125 0 
L 7.328125 8.296875 
Q 12.9375 14.109375 22.625 23.890625 
Q 32.328125 33.6875 34.8125 36.53125 
Q 39.546875 41.84375 41.421875 45.53125 
Q 43.3125 49.21875 43.3125 52.78125 
Q 43.3125 58.59375 39.234375 62.25 
Q 35.15625 65.921875 28.609375 65.921875 
Q 23.96875 65.921875 18.8125 64.3125 
Q 13.671875 62.703125 7.8125 59.421875 
L 7.8125 69.390625 
Q 13.765625 71.78125 18.9375 73 
Q 24.125 74.21875 28.421875 74.21875 
Q 39.75 74.21875 46.484375 68.546875 
Q 53.21875 62.890625 53.21875 53.421875 
Q 53.21875 48.921875 51.53125 44.890625 
Q 49.859375 40.875 45.40625 35.40625 
Q 44.1875 33.984375 37.640625 27.21875 
Q 31.109375 20.453125 19.1875 8.296875 
z
" id="DejaVuSans-32"/>
      </defs>
      <g transform="translate(171.764906 518.598438)scale(0.1 -0.1)">
       <use xlink:href="#DejaVuSans-2212"/>
       <use x="83.789062" xlink:href="#DejaVuSans-32"/>
      </g>
     </g>
    </g>
    <g id="xtick_3">
     <g id="line2d_3">
      <g>
       <use style="stroke:#000000;stroke-width:0.8;" x="250.56" xlink:href="#md91775d7fb" y="504"/>
      </g>
     </g>
     <g id="text_3">
      <!-- 0 -->
      <defs>
       <path d="M 31.78125 66.40625 
Q 24.171875 66.40625 20.328125 58.90625 
Q 16.5 51.421875 16.5 36.375 
Q 16.5 21.390625 20.328125 13.890625 
Q 24.171875 6.390625 31.78125 6.390625 
Q 39.453125 6.390625 43.28125 13.890625 
Q 47.125 21.390625 47.125 36.375 
Q 47.125 51.421875 43.28125 58.90625 
Q 39.453125 66.40625 31.78125 66.40625 
z
M 31.78125 74.21875 
Q 44.046875 74.21875 50.515625 64.515625 
Q 56.984375 54.828125 56.984375 36.375 
Q 56.984375 17.96875 50.515625 8.265625 
Q 44.046875 -1.421875 31.78125 -1.421875 
Q 19.53125 -1.421875 13.0625 8.265625 
Q 6.59375 17.96875 6.59375 36.375 
Q 6.59375 54.828125 13.0625 64.515625 
Q 19.53125 74.21875 31.78125 74.21875 
z
" id="DejaVuSans-30"/>
      </defs>
      <g transform="translate(247.37875 518.598438)scale(0.1 -0.1)">
       <use xlink:href="#DejaVuSans-30"/>
      </g>
     </g>
    </g>
    <g id="xtick_4">
     <g id="line2d_4">
      <g>
       <use style="stroke:#000000;stroke-width:0.8;" x="321.984" xlink:href="#md91775d7fb" y="504"/>
      </g>
     </g>
     <g id="text_4">
      <!-- 2 -->
      <g transform="translate(318.80275 518.598438)scale(0.1 -0.1)">
       <use xlink:href="#DejaVuSans-32"/>
      </g>
     </g>
    </g>
    <g id="xtick_5">
     <g id="line2d_5">
      <g>
       <use style="stroke:#000000;stroke-width:0.8;" x="393.408" xlink:href="#md91775d7fb" y="504"/>
      </g>
     </g>
     <g id="text_5">
      <!-- 4 -->
      <g transform="translate(390.22675 518.598438)scale(0.1 -0.1)">
       <use xlink:href="#DejaVuSans-34"/>
      </g>
     </g>
    </g>
   </g>
   <g id="matplotlib.axis_2">
    <g id="ytick_1">
     <g id="line2d_6">
      <defs>
       <path d="M 0 0 
L -3.5 0 
" id="mdb25b056b3" style="stroke:#000000;stroke-width:0.8;"/>
      </defs>
      <g>
       <use style="stroke:#000000;stroke-width:0.8;" x="72" xlink:href="#mdb25b056b3" y="460.512"/>
      </g>
     </g>
     <g id="text_6">
      <!-- 4 -->
      <g transform="translate(50.257812 464.311219)scale(0.1 -0.1)">
       <use xlink:href="#DejaVuSans-2212"/>
       <use x="83.789062" xlink:href="#DejaVuSans-34"/>
      </g>
     </g>
    </g>
    <g id="ytick_2">
     <g id="line2d_7">
      <g>
       <use style="stroke:#000000;stroke-width:0.8;" x="72" xlink:href="#mdb25b056b3" y="373.536"/>
      </g>
     </g>
     <g id="text_7">
      <!-- 2 -->
      <g transform="translate(50.257812 377.335219)scale(0.1 -0.1)">
       <use xlink:href="#DejaVuSans-2212"/>
       <use x="83.789062" xlink:href="#DejaVuSans-32"/>
      </g>
     </g>
    </g>
    <g id="ytick_3">
     <g id="line2d_8">
      <g>
       <use style="stroke:#000000;stroke-width:0.8;" x="72" xlink:href="#mdb25b056b3" y="286.56"/>
      </g>
     </g>
     <g id="text_8">
      <!-- 0 -->
      <g transform="translate(58.6375 290.359219)scale(0.1 -0.1)">
       <use xlink:href="#DejaVuSans-30"/>
      </g>
     </g>
    </g>
    <g id="ytick_4">
     <g id="line2d_9">
      <g>
       <use style="stroke:#000000;stroke-width:0.8;" x="72" xlink:href="#mdb25b056b3" y="199.584"/>
      </g>
     </g>
     <g id="text_9">
      <!-- 2 -->
      <g transform="translate(58.6375 203.383219)scale(0.1 -0.1)">
       <use xlink:href="#DejaVuSans-32"/>
      </g>
     </g>
    </g>
    <g id="ytick_5">
     <g id="line2d_10">
      <g>
       <use style="stroke:#000000;stroke-width:0.8;" x="72" xlink:href="#mdb25b056b3" y="112.608"/>
      </g>
     </g>
     <g id="text_10">
      <!-- 4 -->
      <g transform="translate(58.6375 116.407219)scale(0.1 -0.1)">
       <use xlink:href="#DejaVuSans-34"/>
      </g>
     </g>
    </g>
   </g>
   <g id="patch_3">
    <path d="M 72 504 
L 72 69.12 
" style="fill:none;stroke:#000000;stroke-linecap:square;stroke-linejoin:miter;stroke-width:0.8;"/>
   </g>
   <g id="patch_4">
    <path d="M 429.12 504 
L 429.12 69.12 
" style="fill:none;stroke:#000000;stroke-linecap:square;stroke-linejoin:miter;stroke-width:0.8;"/>
   </g>
   <g id="patch_5">
    <path d="M 72 504 
L 429.12 504 
" style="fill:none;stroke:#000000;stroke-linecap:square;stroke-linejoin:miter;stroke-width:0.8;"/>
   </g>
   <g id="patch_6">
    <path d="M 72 69.12 
L 429.12 69.12 
" style="fill:none;stroke:#000000;stroke-linecap:square;stroke-linejoin:miter;stroke-width:0.8;"/>
   </g>
  </g>
  <g id="axes_2">
   <g id="patch_7">
    <path clip-path="url(#pc8792a2bd1)" d="M 451.44 504 
L 451.44 441.874286 
L 451.44 131.245714 
L 451.44 69.12 
L 473.184 69.12 
L 473.184 131.245714 
L 473.184 441.874286 
L 473.184 504 
z
" style="fill:#ffffff;stroke:#ffffff;stroke-linejoin:miter;stroke-width:0.01;"/>
   </g>
   <g id="QuadMesh_1">
    <path clip-path="url(#pc8792a2bd1)" d="M 451.44 504 
L 473.184 504 
L 473.184 441.874286 
L 451.44 441.874286 
L 451.44 504 
" style="fill:#506bda;"/>
    <path clip-path="url(#pc8792a2bd1)" d="M 451.44 441.874286 
L 473.184 441.874286 
L 473.184 379.748571 
L 451.44 379.748571 
L 451.44 441.874286 
" style="fill:#80a3fa;"/>
    <path clip-path="url(#pc8792a2bd1)" d="M 451.44 379.748571 
L 473.184 379.748571 
L 473.184 317.622857 
L 451.44 317.622857 
L 451.44 379.748571 
" style="fill:#b2ccfb;"/>
    <path clip-path="url(#pc8792a2bd1)" d="M 451.44 317.622857 
L 473.184 317.622857 
L 473.184 255.497143 
L 451.44 255.497143 
L 451.44 317.622857 
" style="fill:#dddcdc;"/>
    <path clip-path="url(#pc8792a2bd1)" d="M 451.44 255.497143 
L 473.184 255.497143 
L 473.184 193.371429 
L 451.44 193.371429 
L 451.44 255.497143 
" style="fill:#f6bfa6;"/>
    <path clip-path="url(#pc8792a2bd1)" d="M 451.44 193.371429 
L 473.184 193.371429 
L 473.184 131.245714 
L 451.44 131.245714 
L 451.44 193.371429 
" style="fill:#f08a6c;"/>
    <path clip-path="url(#pc8792a2bd1)" d="M 451.44 131.245714 
L 473.184 131.245714 
L 473.184 69.12 
L 451.44 69.12 
L 451.44 131.245714 
" style="fill:#cd423b;"/>
   </g>
   <g id="matplotlib.axis_3"/>
   <g id="matplotlib.axis_4">
    <g id="ytick_6">
     <g id="line2d_11">
      <defs>
       <path d="M 0 0 
L 3.5 0 
" id="m0a0402e008" style="stroke:#000000;stroke-width:0.8;"/>
      </defs>
      <g>
       <use style="stroke:#000000;stroke-width:0.8;" x="473.184" xlink:href="#m0a0402e008" y="504"/>
      </g>
     </g>
     <g id="text_11">
      <!-- 240 -->
      <g transform="translate(480.184 507.799219)scale(0.1 -0.1)">
       <use xlink:href="#DejaVuSans-2212"/>
       <use x="83.789062" xlink:href="#DejaVuSans-32"/>
       <use x="147.412109" xlink:href="#DejaVuSans-34"/>
       <use x="211.035156" xlink:href="#DejaVuSans-30"/>
      </g>
     </g>
    </g>
    <g id="ytick_7">
     <g id="line2d_12">
      <g>
       <use style="stroke:#000000;stroke-width:0.8;" x="473.184" xlink:href="#m0a0402e008" y="441.874286"/>
      </g>
     </g>
     <g id="text_12">
      <!-- 200 -->
      <g transform="translate(480.184 445.673504)scale(0.1 -0.1)">
       <use xlink:href="#DejaVuSans-2212"/>
       <use x="83.789062" xlink:href="#DejaVuSans-32"/>
       <use x="147.412109" xlink:href="#DejaVuSans-30"/>
       <use x="211.035156" xlink:href="#DejaVuSans-30"/>
      </g>
     </g>
    </g>
    <g id="ytick_8">
     <g id="line2d_13">
      <g>
       <use style="stroke:#000000;stroke-width:0.8;" x="473.184" xlink:href="#m0a0402e008" y="379.748571"/>
      </g>
     </g>
     <g id="text_13">
      <!-- 160 -->
      <defs>
       <path d="M 12.40625 8.296875 
L 28.515625 8.296875 
L 28.515625 63.921875 
L 10.984375 60.40625 
L 10.984375 69.390625 
L 28.421875 72.90625 
L 38.28125 72.90625 
L 38.28125 8.296875 
L 54.390625 8.296875 
L 54.390625 0 
L 12.40625 0 
z
" id="DejaVuSans-31"/>
       <path d="M 33.015625 40.375 
Q 26.375 40.375 22.484375 35.828125 
Q 18.609375 31.296875 18.609375 23.390625 
Q 18.609375 15.53125 22.484375 10.953125 
Q 26.375 6.390625 33.015625 6.390625 
Q 39.65625 6.390625 43.53125 10.953125 
Q 47.40625 15.53125 47.40625 23.390625 
Q 47.40625 31.296875 43.53125 35.828125 
Q 39.65625 40.375 33.015625 40.375 
z
M 52.59375 71.296875 
L 52.59375 62.3125 
Q 48.875 64.0625 45.09375 64.984375 
Q 41.3125 65.921875 37.59375 65.921875 
Q 27.828125 65.921875 22.671875 59.328125 
Q 17.53125 52.734375 16.796875 39.40625 
Q 19.671875 43.65625 24.015625 45.921875 
Q 28.375 48.1875 33.59375 48.1875 
Q 44.578125 48.1875 50.953125 41.515625 
Q 57.328125 34.859375 57.328125 23.390625 
Q 57.328125 12.15625 50.6875 5.359375 
Q 44.046875 -1.421875 33.015625 -1.421875 
Q 20.359375 -1.421875 13.671875 8.265625 
Q 6.984375 17.96875 6.984375 36.375 
Q 6.984375 53.65625 15.1875 63.9375 
Q 23.390625 74.21875 37.203125 74.21875 
Q 40.921875 74.21875 44.703125 73.484375 
Q 48.484375 72.75 52.59375 71.296875 
z
" id="DejaVuSans-36"/>
      </defs>
      <g transform="translate(480.184 383.54779)scale(0.1 -0.1)">
       <use xlink:href="#DejaVuSans-2212"/>
       <use x="83.789062" xlink:href="#DejaVuSans-31"/>
       <use x="147.412109" xlink:href="#DejaVuSans-36"/>
       <use x="211.035156" xlink:href="#DejaVuSans-30"/>
      </g>
     </g>
    </g>
    <g id="ytick_9">
     <g id="line2d_14">
      <g>
       <use style="stroke:#000000;stroke-width:0.8;" x="473.184" xlink:href="#m0a0402e008" y="317.622857"/>
      </g>
     </g>
     <g id="text_14">
      <!-- 120 -->
      <g transform="translate(480.184 321.422076)scale(0.1 -0.1)">
       <use xlink:href="#DejaVuSans-2212"/>
       <use x="83.789062" xlink:href="#DejaVuSans-31"/>
       <use x="147.412109" xlink:href="#DejaVuSans-32"/>
       <use x="211.035156" xlink:href="#DejaVuSans-30"/>
      </g>
     </g>
    </g>
    <g id="ytick_10">
     <g id="line2d_15">
      <g>
       <use style="stroke:#000000;stroke-width:0.8;" x="473.184" xlink:href="#m0a0402e008" y="255.497143"/>
      </g>
     </g>
     <g id="text_15">
      <!-- 80 -->
      <defs>
       <path d="M 31.78125 34.625 
Q 24.75 34.625 20.71875 30.859375 
Q 16.703125 27.09375 16.703125 20.515625 
Q 16.703125 13.921875 20.71875 10.15625 
Q 24.75 6.390625 31.78125 6.390625 
Q 38.8125 6.390625 42.859375 10.171875 
Q 46.921875 13.96875 46.921875 20.515625 
Q 46.921875 27.09375 42.890625 30.859375 
Q 38.875 34.625 31.78125 34.625 
z
M 21.921875 38.8125 
Q 15.578125 40.375 12.03125 44.71875 
Q 8.5 49.078125 8.5 55.328125 
Q 8.5 64.0625 14.71875 69.140625 
Q 20.953125 74.21875 31.78125 74.21875 
Q 42.671875 74.21875 48.875 69.140625 
Q 55.078125 64.0625 55.078125 55.328125 
Q 55.078125 49.078125 51.53125 44.71875 
Q 48 40.375 41.703125 38.8125 
Q 48.828125 37.15625 52.796875 32.3125 
Q 56.78125 27.484375 56.78125 20.515625 
Q 56.78125 9.90625 50.3125 4.234375 
Q 43.84375 -1.421875 31.78125 -1.421875 
Q 19.734375 -1.421875 13.25 4.234375 
Q 6.78125 9.90625 6.78125 20.515625 
Q 6.78125 27.484375 10.78125 32.3125 
Q 14.796875 37.15625 21.921875 38.8125 
z
M 18.3125 54.390625 
Q 18.3125 48.734375 21.84375 45.5625 
Q 25.390625 42.390625 31.78125 42.390625 
Q 38.140625 42.390625 41.71875 45.5625 
Q 45.3125 48.734375 45.3125 54.390625 
Q 45.3125 60.0625 41.71875 63.234375 
Q 38.140625 66.40625 31.78125 66.40625 
Q 25.390625 66.40625 21.84375 63.234375 
Q 18.3125 60.0625 18.3125 54.390625 
z
" id="DejaVuSans-38"/>
      </defs>
      <g transform="translate(480.184 259.296362)scale(0.1 -0.1)">
       <use xlink:href="#DejaVuSans-2212"/>
       <use x="83.789062" xlink:href="#DejaVuSans-38"/>
       <use x="147.412109" xlink:href="#DejaVuSans-30"/>
      </g>
     </g>
    </g>
    <g id="ytick_11">
     <g id="line2d_16">
      <g>
       <use style="stroke:#000000;stroke-width:0.8;" x="473.184" xlink:href="#m0a0402e008" y="193.371429"/>
      </g>
     </g>
     <g id="text_16">
      <!-- 40 -->
      <g transform="translate(480.184 197.170647)scale(0.1 -0.1)">
       <use xlink:href="#DejaVuSans-2212"/>
       <use x="83.789062" xlink:href="#DejaVuSans-34"/>
       <use x="147.412109" xlink:href="#DejaVuSans-30"/>
      </g>
     </g>
    </g>
    <g id="ytick_12">
     <g id="line2d_17">
      <g>
       <use style="stroke:#000000;stroke-width:0.8;" x="473.184" xlink:href="#m0a0402e008" y="131.245714"/>
      </g>
     </g>
     <g id="text_17">
      <!-- 0 -->
      <g transform="translate(480.184 135.044933)scale(0.1 -0.1)">
       <use xlink:href="#DejaVuSans-30"/>
      </g>
     </g>
    </g>
    <g id="ytick_13">
     <g id="line2d_18">
      <g>
       <use style="stroke:#000000;stroke-width:0.8;" x="473.184" xlink:href="#m0a0402e008" y="69.12"/>
      </g>
     </g>
     <g id="text_18">
      <!-- 40 -->
      <g transform="translate(480.184 72.919219)scale(0.1 -0.1)">
       <use xlink:href="#DejaVuSans-34"/>
       <use x="63.623047" xlink:href="#DejaVuSans-30"/>
      </g>
     </g>
    </g>
   </g>
   <g id="patch_8">
    <path d="M 451.44 504 
L 451.44 441.874286 
L 451.44 131.245714 
L 451.44 69.12 
L 473.184 69.12 
L 473.184 131.245714 
L 473.184 441.874286 
L 473.184 504 
z
" style="fill:none;stroke:#000000;stroke-linejoin:miter;stroke-width:0.8;"/>
   </g>
  </g>
 </g>
 <defs>
  <clipPath id="p8edf84d565">
   <rect height="434.88" width="357.12" x="72" y="69.12"/>
  </clipPath>
  <clipPath id="pc8792a2bd1">
   <rect height="434.88" width="21.744" x="451.44" y="69.12"/>
  </clipPath>
 </defs>
</svg>
