<?xml version="1.0" encoding="utf-8" standalone="no"?>
<!DOCTYPE svg PUBLIC "-//W3C//DTD SVG 1.1//EN"
  "http://www.w3.org/Graphics/SVG/1.1/DTD/svg11.dtd">
<!-- Created with matplotlib (http://matplotlib.org/) -->
<svg height="576pt" version="1.1" viewBox="0 0 576 576" width="576pt" xmlns="http://www.w3.org/2000/svg" xmlns:xlink="http://www.w3.org/1999/xlink">
 <defs>
  <style type="text/css">
*{stroke-linecap:butt;stroke-linejoin:round;}
  </style>
 </defs>
 <g id="figure_1">
  <g id="patch_1">
   <path d="M 0 576 
L 576 576 
L 576 0 
L 0 0 
z
" style="fill:#ffffff;"/>
  </g>
  <g id="axes_1">
   <g id="patch_2">
    <path d="M 72 504 
L 429.12 504 
L 429.12 69.12 
L 72 69.12 
z
" style="fill:#ffffff;"/>
   </g>
   <g id="PathCollection_1">
    <path clip-path="url(#p91ebd36eb1)" d="M 421.905455 504 
L 425.512727 504 
L 429.12 504 
L 429.12 499.607273 
L 429.12 495.713766 
L 425.512727 498.495547 
L 424.07107 499.607273 
L 421.905455 501.277275 
L 418.374661 504 
z
" style="fill:#4b64d5;"/>
   </g>
   <g id="PathCollection_2">
    <path clip-path="url(#p91ebd36eb1)" d="M 360.581818 504 
L 364.189091 504 
L 367.796364 504 
L 371.403636 504 
L 375.010909 504 
L 378.618182 504 
L 382.225455 504 
L 385.832727 504 
L 389.44 504 
L 393.047273 504 
L 396.654545 504 
L 400.261818 504 
L 403.869091 504 
L 407.476364 504 
L 411.083636 504 
L 414.690909 504 
L 418.298182 504 
L 418.374661 504 
L 421.905455 501.277275 
L 424.07107 499.607273 
L 425.512727 498.495547 
L 429.12 495.713766 
L 429.12 495.214545 
L 429.12 490.821818 
L 429.12 486.429091 
L 429.12 482.036364 
L 429.12 477.643636 
L 429.12 473.250909 
L 429.12 468.858182 
L 429.12 464.465455 
L 429.12 460.072727 
L 429.12 455.68 
L 429.12 451.287273 
L 429.12 446.894545 
L 429.12 443.365031 
L 427.817735 446.894545 
L 426.196933 451.287273 
L 425.512727 452.391359 
L 422.096761 455.68 
L 421.905455 455.827524 
L 418.298182 458.609317 
L 416.400458 460.072727 
L 414.690909 461.391028 
L 411.083636 464.172795 
L 410.704117 464.465455 
L 407.476364 466.954494 
L 405.007736 468.858182 
L 403.869091 469.73625 
L 400.261818 472.518002 
L 399.311409 473.250909 
L 396.654545 475.299709 
L 393.614994 477.643636 
L 393.047273 478.081436 
L 389.44 480.863172 
L 387.918642 482.036364 
L 385.832727 483.644911 
L 382.225455 486.42665 
L 382.222289 486.429091 
L 378.618182 489.208409 
L 376.525957 490.821818 
L 375.010909 491.990155 
L 371.403636 494.771869 
L 370.829589 495.214545 
L 367.796364 497.553648 
L 365.133303 499.607273 
L 364.189091 500.33539 
L 360.581818 503.117105 
L 359.436903 504 
z
" style="fill:#6f92f3;"/>
   </g>
   <g id="PathCollection_3">
    <path clip-path="url(#p91ebd36eb1)" d="M 302.865455 504 
L 306.472727 504 
L 310.08 504 
L 313.687273 504 
L 317.294545 504 
L 320.901818 504 
L 324.509091 504 
L 328.116364 504 
L 331.723636 504 
L 335.330909 504 
L 338.938182 504 
L 342.545455 504 
L 346.152727 504 
L 349.76 504 
L 353.367273 504 
L 356.974545 504 
L 359.436903 504 
L 360.581818 503.117105 
L 364.189091 500.33539 
L 365.133303 499.607273 
L 367.796364 497.553648 
L 370.829589 495.214545 
L 371.403636 494.771869 
L 375.010909 491.990155 
L 376.525957 490.821818 
L 378.618182 489.208409 
L 382.222289 486.429091 
L 382.225455 486.42665 
L 385.832727 483.644911 
L 387.918642 482.036364 
L 389.44 480.863172 
L 393.047273 478.081436 
L 393.614994 477.643636 
L 396.654545 475.299709 
L 399.311409 473.250909 
L 400.261818 472.518002 
L 403.869091 469.73625 
L 405.007736 468.858182 
L 407.476364 466.954494 
L 410.704117 464.465455 
L 411.083636 464.172795 
L 414.690909 461.391028 
L 416.400458 460.072727 
L 418.298182 458.609317 
L 421.905455 455.827524 
L 422.096761 455.68 
L 425.512727 452.391359 
L 426.196933 451.287273 
L 427.817735 446.894545 
L 429.12 443.365031 
L 429.12 442.501818 
L 429.12 438.109091 
L 429.12 433.716364 
L 429.12 429.323636 
L 429.12 424.930909 
L 429.12 420.538182 
L 429.12 416.145455 
L 429.12 411.752727 
L 429.12 407.36 
L 429.12 402.967273 
L 429.12 398.574545 
L 429.12 394.181818 
L 429.12 389.789091 
L 429.12 385.396364 
L 429.12 381.003636 
L 429.12 376.610909 
L 429.12 372.218182 
L 429.12 367.825455 
L 429.12 363.432727 
L 429.12 359.04 
L 429.12 354.647273 
L 429.12 350.254545 
L 429.12 345.861818 
L 429.12 341.469091 
L 429.12 337.076364 
L 429.12 332.683636 
L 429.12 328.290909 
L 429.12 323.898182 
L 429.12 319.505455 
L 429.12 315.112727 
L 429.12 310.72 
L 429.12 306.327273 
L 429.12 301.934545 
L 429.12 297.541818 
L 429.12 293.149091 
L 429.12 288.756364 
L 429.12 284.363636 
L 429.12 279.970909 
L 429.12 275.578182 
L 429.12 271.185455 
L 429.12 266.792727 
L 429.12 262.4 
L 429.12 258.007273 
L 429.12 253.614545 
L 429.12 249.221818 
L 429.12 244.829091 
L 429.12 240.436364 
L 429.12 236.043636 
L 429.12 231.650909 
L 429.12 227.258182 
L 429.12 222.865455 
L 429.12 218.472727 
L 429.12 214.08 
L 429.12 209.687273 
L 429.12 205.294545 
L 429.12 200.901818 
L 429.12 196.509091 
L 429.12 192.116364 
L 429.12 187.723636 
L 429.12 183.330909 
L 429.12 178.938182 
L 429.12 174.545455 
L 429.12 170.152727 
L 429.12 165.76 
L 429.12 161.367273 
L 429.12 156.974545 
L 429.12 152.581818 
L 429.12 148.189091 
L 429.12 143.796364 
L 429.12 139.403636 
L 429.12 135.010909 
L 429.12 130.618182 
L 429.12 126.225455 
L 429.12 121.832727 
L 429.12 117.44 
L 429.12 113.047273 
L 429.12 108.654545 
L 429.12 104.261818 
L 429.12 99.869091 
L 429.12 95.476364 
L 429.12 91.083636 
L 429.12 86.690909 
L 429.12 82.298182 
L 429.12 77.905455 
L 429.12 73.512727 
L 429.12 69.12 
L 425.512727 69.12 
L 421.905455 69.12 
L 418.298182 69.12 
L 414.690909 69.12 
L 411.083636 69.12 
L 407.476364 69.12 
L 403.869091 69.12 
L 400.261818 69.12 
L 396.654545 69.12 
L 393.047273 69.12 
L 389.44 69.12 
L 385.832727 69.12 
L 382.225455 69.12 
L 378.618182 69.12 
L 375.010909 69.12 
L 371.403636 69.12 
L 367.796364 69.12 
L 364.189091 69.12 
L 360.581818 69.12 
L 356.974545 69.12 
L 353.367273 69.12 
L 349.76 69.12 
L 346.152727 69.12 
L 342.545455 69.12 
L 338.938182 69.12 
L 335.330909 69.12 
L 331.723636 69.12 
L 328.116364 69.12 
L 324.509091 69.12 
L 320.901818 69.12 
L 317.294545 69.12 
L 313.687273 69.12 
L 310.08 69.12 
L 306.472727 69.12 
L 302.865455 69.12 
L 299.258182 69.12 
L 295.650909 69.12 
L 292.043636 69.12 
L 288.436364 69.12 
L 284.829091 69.12 
L 281.221818 69.12 
L 277.614545 69.12 
L 274.007273 69.12 
L 270.524409 69.12 
L 274.007273 69.827388 
L 277.614545 70.560043 
L 281.221818 71.292711 
L 284.829091 72.025347 
L 288.436364 72.758014 
L 292.043636 73.490642 
L 292.152376 73.512727 
L 295.650909 74.223299 
L 299.258182 74.955961 
L 302.865455 75.688615 
L 306.472727 76.421273 
L 310.08 77.153924 
L 313.687273 77.886588 
L 313.780166 77.905455 
L 317.294545 78.619226 
L 320.901818 79.351879 
L 324.509091 80.084531 
L 328.116364 80.817182 
L 331.723636 81.549828 
L 335.330909 82.282486 
L 335.40819 82.298182 
L 338.938182 83.015135 
L 342.545455 83.747789 
L 346.152727 84.480429 
L 349.76 85.213092 
L 353.367273 85.945744 
L 356.974545 86.678408 
L 357.0361 86.690909 
L 360.581818 87.411027 
L 364.189091 88.143699 
L 367.796364 88.876363 
L 371.403636 89.609002 
L 375.010909 90.341654 
L 378.618182 91.074281 
L 378.664242 91.083636 
L 382.225455 91.806937 
L 385.832727 92.539609 
L 389.44 93.27226 
L 393.047273 94.004912 
L 396.654545 94.737594 
L 400.261818 95.470239 
L 400.291972 95.476364 
L 403.869091 96.953944 
L 405.612328 99.869091 
L 407.476364 103.084321 
L 407.931375 104.261818 
L 408.402422 108.654545 
L 408.603153 113.047273 
L 408.803878 117.44 
L 409.004609 121.832727 
L 409.20532 126.225455 
L 409.406058 130.618182 
L 409.606793 135.010909 
L 409.807528 139.403636 
L 410.008248 143.796364 
L 410.208977 148.189091 
L 410.396078 152.581818 
L 410.571058 156.974545 
L 410.746027 161.367273 
L 410.921031 165.76 
L 411.083636 169.842284 
L 411.096002 170.152727 
L 411.27102 174.545455 
L 411.467332 178.938182 
L 411.675062 183.330909 
L 411.882792 187.723636 
L 412.090509 192.116364 
L 412.298222 196.509091 
L 412.505953 200.901818 
L 412.713684 205.294545 
L 412.921397 209.687273 
L 413.129128 214.08 
L 413.336848 218.472727 
L 413.544578 222.865455 
L 413.752299 227.258182 
L 413.960016 231.650909 
L 414.167733 236.043636 
L 414.375477 240.436364 
L 414.583209 244.829091 
L 414.690909 247.106633 
L 414.790931 249.221818 
L 414.998652 253.614545 
L 415.206367 258.007273 
L 415.414098 262.4 
L 415.621829 266.792727 
L 415.829542 271.185455 
L 416.037273 275.578182 
L 416.244999 279.970909 
L 416.452717 284.363636 
L 416.660458 288.756364 
L 416.868172 293.149091 
L 417.07591 297.541818 
L 417.283632 301.934545 
L 417.491352 306.327273 
L 417.699075 310.72 
L 417.906806 315.112727 
L 418.114538 319.505455 
L 418.298182 323.389329 
L 418.322242 323.898182 
L 418.52998 328.290909 
L 418.737695 332.683636 
L 418.945432 337.076364 
L 419.153144 341.469091 
L 419.360861 345.861818 
L 419.568595 350.254545 
L 419.776316 354.647273 
L 419.984045 359.04 
L 420.191768 363.432727 
L 420.399488 367.825455 
L 420.207964 372.218182 
L 418.587176 376.610909 
L 418.298182 377.394154 
L 416.966377 381.003636 
L 415.345592 385.396364 
L 414.690909 387.170713 
L 413.724799 389.789091 
L 412.103999 394.181818 
L 411.083636 396.94726 
L 410.483213 398.574545 
L 408.862416 402.967273 
L 407.476364 406.723726 
L 407.241593 407.36 
L 405.620811 411.752727 
L 404.000008 416.145455 
L 403.869091 416.500277 
L 402.379225 420.538182 
L 400.758416 424.930909 
L 400.261818 425.90411 
L 397.337138 429.323636 
L 396.654545 429.85001 
L 393.047273 432.631747 
L 391.640775 433.716364 
L 389.44 435.413486 
L 385.944423 438.109091 
L 385.832727 438.195225 
L 382.225455 440.976958 
L 380.24809 442.501818 
L 378.618182 443.758722 
L 375.010909 446.540441 
L 374.551717 446.894545 
L 371.403636 449.32218 
L 368.855365 451.287273 
L 367.796364 452.103919 
L 364.189091 454.885669 
L 363.159025 455.68 
L 360.581818 457.667396 
L 357.462659 460.072727 
L 356.974545 460.449134 
L 353.367273 463.230874 
L 351.766315 464.465455 
L 349.76 466.012612 
L 346.152727 468.794351 
L 346.069954 468.858182 
L 342.545455 471.576068 
L 340.373587 473.250909 
L 338.938182 474.357826 
L 335.330909 477.139556 
L 334.677227 477.643636 
L 331.723636 479.921293 
L 328.980869 482.036364 
L 328.116364 482.703018 
L 324.509091 485.484763 
L 323.284507 486.429091 
L 320.901818 488.266507 
L 317.588174 490.821818 
L 317.294545 491.048247 
L 313.687273 493.829991 
L 311.891829 495.214545 
L 310.08 496.61174 
L 306.472727 499.393438 
L 306.195434 499.607273 
L 302.865455 502.175195 
L 300.499097 504 
z
" style="fill:#97b8ff;"/>
    <path clip-path="url(#p91ebd36eb1)" d="M 75.607273 100.695597 
L 79.214545 100.074531 
L 80.419528 99.869091 
L 82.821818 99.459518 
L 86.429091 98.844464 
L 90.036364 98.229447 
L 93.643636 97.614405 
L 97.250909 96.999375 
L 100.858182 96.384336 
L 104.465455 95.7693 
L 106.183514 95.476364 
L 108.072727 95.154244 
L 111.68 94.53923 
L 115.287273 93.924178 
L 118.894545 93.185364 
L 122.501818 91.828135 
L 124.401571 91.083636 
L 126.109091 90.414476 
L 129.716364 89.000837 
L 133.323636 87.587199 
L 135.610747 86.690909 
L 136.930909 86.173554 
L 140.538182 84.759915 
L 144.145455 83.346258 
L 146.819921 82.298182 
L 147.752727 81.932633 
L 151.36 80.518973 
L 154.967273 79.105331 
L 158.029091 77.905455 
L 158.574545 77.691698 
L 162.181818 76.278055 
L 165.789091 74.864383 
L 169.23825 73.512727 
L 169.396364 73.450766 
L 173.003636 72.037113 
L 176.610909 70.623486 
L 180.218182 69.209819 
L 180.447378 69.12 
L 180.218182 69.12 
L 176.610909 69.12 
L 173.003636 69.12 
L 169.396364 69.12 
L 165.789091 69.12 
L 162.181818 69.12 
L 158.574545 69.12 
L 154.967273 69.12 
L 151.36 69.12 
L 147.752727 69.12 
L 144.145455 69.12 
L 140.538182 69.12 
L 136.930909 69.12 
L 133.323636 69.12 
L 129.716364 69.12 
L 126.109091 69.12 
L 122.501818 69.12 
L 118.894545 69.12 
L 115.287273 69.12 
L 111.68 69.12 
L 108.072727 69.12 
L 104.465455 69.12 
L 100.858182 69.12 
L 97.250909 69.12 
L 93.643636 69.12 
L 90.036364 69.12 
L 86.429091 69.12 
L 82.821818 69.12 
L 79.214545 69.12 
L 75.607273 69.12 
L 72 69.12 
L 72 73.512727 
L 72 77.905455 
L 72 82.298182 
L 72 86.690909 
L 72 91.083636 
L 72 95.476364 
L 72 99.869091 
L 72 102.216151 
z
" style="fill:#97b8ff;"/>
   </g>
   <g id="PathCollection_4">
    <path clip-path="url(#p91ebd36eb1)" d="M 180.218182 504 
L 183.825455 504 
L 187.432727 504 
L 191.04 504 
L 194.647273 504 
L 198.254545 504 
L 201.861818 504 
L 205.469091 504 
L 209.076364 504 
L 212.683636 504 
L 216.290909 504 
L 219.898182 504 
L 223.505455 504 
L 227.112727 504 
L 230.72 504 
L 234.327273 504 
L 237.934545 504 
L 241.541818 504 
L 245.149091 504 
L 248.756364 504 
L 252.363636 504 
L 255.970909 504 
L 259.578182 504 
L 263.185455 504 
L 266.792727 504 
L 270.4 504 
L 274.007273 504 
L 277.614545 504 
L 281.221818 504 
L 284.829091 504 
L 288.436364 504 
L 292.043636 504 
L 295.650909 504 
L 299.258182 504 
L 300.499097 504 
L 302.865455 502.175195 
L 306.195434 499.607273 
L 306.472727 499.393438 
L 310.08 496.61174 
L 311.891829 495.214545 
L 313.687273 493.829991 
L 317.294545 491.048247 
L 317.588174 490.821818 
L 320.901818 488.266507 
L 323.284507 486.429091 
L 324.509091 485.484763 
L 328.116364 482.703018 
L 328.980869 482.036364 
L 331.723636 479.921293 
L 334.677227 477.643636 
L 335.330909 477.139556 
L 338.938182 474.357826 
L 340.373587 473.250909 
L 342.545455 471.576068 
L 346.069954 468.858182 
L 346.152727 468.794351 
L 349.76 466.012612 
L 351.766315 464.465455 
L 353.367273 463.230874 
L 356.974545 460.449134 
L 357.462659 460.072727 
L 360.581818 457.667396 
L 363.159025 455.68 
L 364.189091 454.885669 
L 367.796364 452.103919 
L 368.855365 451.287273 
L 371.403636 449.32218 
L 374.551717 446.894545 
L 375.010909 446.540441 
L 378.618182 443.758722 
L 380.24809 442.501818 
L 382.225455 440.976958 
L 385.832727 438.195225 
L 385.944423 438.109091 
L 389.44 435.413486 
L 391.640775 433.716364 
L 393.047273 432.631747 
L 396.654545 429.85001 
L 397.337138 429.323636 
L 400.261818 425.90411 
L 400.758416 424.930909 
L 402.379225 420.538182 
L 403.869091 416.500277 
L 404.000008 416.145455 
L 405.620811 411.752727 
L 407.241593 407.36 
L 407.476364 406.723726 
L 408.862416 402.967273 
L 410.483213 398.574545 
L 411.083636 396.94726 
L 412.103999 394.181818 
L 413.724799 389.789091 
L 414.690909 387.170713 
L 415.345592 385.396364 
L 416.966377 381.003636 
L 418.298182 377.394154 
L 418.587176 376.610909 
L 420.207964 372.218182 
L 420.399488 367.825455 
L 420.191768 363.432727 
L 419.984045 359.04 
L 419.776316 354.647273 
L 419.568595 350.254545 
L 419.360861 345.861818 
L 419.153144 341.469091 
L 418.945432 337.076364 
L 418.737695 332.683636 
L 418.52998 328.290909 
L 418.322242 323.898182 
L 418.298182 323.389329 
L 418.114538 319.505455 
L 417.906806 315.112727 
L 417.699075 310.72 
L 417.491352 306.327273 
L 417.283632 301.934545 
L 417.07591 297.541818 
L 416.868172 293.149091 
L 416.660458 288.756364 
L 416.452717 284.363636 
L 416.244999 279.970909 
L 416.037273 275.578182 
L 415.829542 271.185455 
L 415.621829 266.792727 
L 415.414098 262.4 
L 415.206367 258.007273 
L 414.998652 253.614545 
L 414.790931 249.221818 
L 414.690909 247.106633 
L 414.583209 244.829091 
L 414.375477 240.436364 
L 414.167733 236.043636 
L 413.960016 231.650909 
L 413.752299 227.258182 
L 413.544578 222.865455 
L 413.336848 218.472727 
L 413.129128 214.08 
L 412.921397 209.687273 
L 412.713684 205.294545 
L 412.505953 200.901818 
L 412.298222 196.509091 
L 412.090509 192.116364 
L 411.882792 187.723636 
L 411.675062 183.330909 
L 411.467332 178.938182 
L 411.27102 174.545455 
L 411.096002 170.152727 
L 411.083636 169.842284 
L 410.921031 165.76 
L 410.746027 161.367273 
L 410.571058 156.974545 
L 410.396078 152.581818 
L 410.208977 148.189091 
L 410.008248 143.796364 
L 409.807528 139.403636 
L 409.606793 135.010909 
L 409.406058 130.618182 
L 409.20532 126.225455 
L 409.004609 121.832727 
L 408.803878 117.44 
L 408.603153 113.047273 
L 408.402422 108.654545 
L 407.931375 104.261818 
L 407.476364 103.084321 
L 405.612328 99.869091 
L 403.869091 96.953944 
L 400.291972 95.476364 
L 400.261818 95.470239 
L 396.654545 94.737594 
L 393.047273 94.004912 
L 389.44 93.27226 
L 385.832727 92.539609 
L 382.225455 91.806937 
L 378.664242 91.083636 
L 378.618182 91.074281 
L 375.010909 90.341654 
L 371.403636 89.609002 
L 367.796364 88.876363 
L 364.189091 88.143699 
L 360.581818 87.411027 
L 357.0361 86.690909 
L 356.974545 86.678408 
L 353.367273 85.945744 
L 349.76 85.213092 
L 346.152727 84.480429 
L 342.545455 83.747789 
L 338.938182 83.015135 
L 335.40819 82.298182 
L 335.330909 82.282486 
L 331.723636 81.549828 
L 328.116364 80.817182 
L 324.509091 80.084531 
L 320.901818 79.351879 
L 317.294545 78.619226 
L 313.780166 77.905455 
L 313.687273 77.886588 
L 310.08 77.153924 
L 306.472727 76.421273 
L 302.865455 75.688615 
L 299.258182 74.955961 
L 295.650909 74.223299 
L 292.152376 73.512727 
L 292.043636 73.490642 
L 288.436364 72.758014 
L 284.829091 72.025347 
L 281.221818 71.292711 
L 277.614545 70.560043 
L 274.007273 69.827388 
L 270.524409 69.12 
L 270.4 69.12 
L 266.792727 69.12 
L 263.185455 69.12 
L 259.578182 69.12 
L 255.970909 69.12 
L 252.363636 69.12 
L 248.756364 69.12 
L 245.149091 69.12 
L 241.541818 69.12 
L 237.934545 69.12 
L 234.327273 69.12 
L 230.72 69.12 
L 227.112727 69.12 
L 223.505455 69.12 
L 219.898182 69.12 
L 216.290909 69.12 
L 212.683636 69.12 
L 209.076364 69.12 
L 205.469091 69.12 
L 201.861818 69.12 
L 198.254545 69.12 
L 194.647273 69.12 
L 191.04 69.12 
L 187.432727 69.12 
L 183.825455 69.12 
L 180.447378 69.12 
L 180.218182 69.209819 
L 176.610909 70.623486 
L 173.003636 72.037113 
L 169.396364 73.450766 
L 169.23825 73.512727 
L 165.789091 74.864383 
L 162.181818 76.278055 
L 158.574545 77.691698 
L 158.029091 77.905455 
L 154.967273 79.105331 
L 151.36 80.518973 
L 147.752727 81.932633 
L 146.819921 82.298182 
L 144.145455 83.346258 
L 140.538182 84.759915 
L 136.930909 86.173554 
L 135.610747 86.690909 
L 133.323636 87.587199 
L 129.716364 89.000837 
L 126.109091 90.414476 
L 124.401571 91.083636 
L 122.501818 91.828135 
L 118.894545 93.185364 
L 115.287273 93.924178 
L 111.68 94.53923 
L 108.072727 95.154244 
L 106.183514 95.476364 
L 104.465455 95.7693 
L 100.858182 96.384336 
L 97.250909 96.999375 
L 93.643636 97.614405 
L 90.036364 98.229447 
L 86.429091 98.844464 
L 82.821818 99.459518 
L 80.419528 99.869091 
L 79.214545 100.074531 
L 75.607273 100.695597 
L 72 102.216151 
L 72 104.261818 
L 72 108.654545 
L 72 113.047273 
L 72 117.44 
L 72 121.832727 
L 72 126.225455 
L 72 130.618182 
L 72 135.010909 
L 72 139.403636 
L 72 143.796364 
L 72 148.189091 
L 72 152.581818 
L 72 156.974545 
L 72 161.367273 
L 72 165.76 
L 72 170.152727 
L 72 174.545455 
L 72 177.608794 
L 74.580086 174.545455 
L 75.607273 173.325868 
L 78.27984 170.152727 
L 79.214545 169.042962 
L 81.979637 165.76 
L 82.821818 164.760078 
L 85.679396 161.367273 
L 86.429091 160.47716 
L 89.379155 156.974545 
L 90.036364 156.19425 
L 93.078937 152.581818 
L 93.643636 151.911346 
L 96.778709 148.189091 
L 97.250909 147.628451 
L 100.478506 143.796364 
L 100.858182 143.345574 
L 104.17823 139.403636 
L 104.465455 139.062614 
L 108.072727 135.862418 
L 111.557858 135.010909 
L 111.68 134.990084 
L 115.287273 134.37506 
L 118.894545 133.760024 
L 122.501818 133.14498 
L 126.109091 132.529951 
L 129.716364 131.914908 
L 133.323636 131.299854 
L 135.415655 130.618182 
L 136.930909 130.08224 
L 140.538182 128.668604 
L 144.145455 127.254965 
L 146.772488 126.225455 
L 147.752727 125.841306 
L 151.36 124.427676 
L 154.967273 123.014016 
L 157.981631 121.832727 
L 158.574545 121.600374 
L 162.181818 120.186746 
L 165.789091 118.773094 
L 169.190861 117.44 
L 169.396364 117.359467 
L 173.003636 115.945809 
L 176.610909 114.532178 
L 180.218182 113.118533 
L 180.400023 113.047273 
L 183.825455 111.70489 
L 187.432727 110.291236 
L 191.04 108.877587 
L 191.609145 108.654545 
L 194.647273 107.463945 
L 198.254545 106.050318 
L 201.861818 104.636667 
L 202.818346 104.261818 
L 205.469091 103.223031 
L 209.076364 101.809375 
L 212.683636 100.395734 
L 214.027508 99.869091 
L 216.290909 98.982104 
L 219.898182 98.340585 
L 223.505455 99.073225 
L 227.112727 99.805873 
L 227.423988 99.869091 
L 230.72 100.538524 
L 234.327273 101.271176 
L 237.934545 102.003828 
L 241.541818 102.736479 
L 245.149091 103.469131 
L 248.756364 104.201783 
L 249.051954 104.261818 
L 252.363636 104.934434 
L 255.970909 105.667098 
L 259.578182 106.399737 
L 263.185455 107.132397 
L 266.792727 107.865045 
L 270.4 108.597693 
L 270.679921 108.654545 
L 274.007273 109.330344 
L 277.614545 110.062996 
L 281.221818 110.795647 
L 284.829091 111.528299 
L 288.436364 112.260951 
L 292.043636 112.993602 
L 292.307887 113.047273 
L 295.650909 113.726254 
L 299.258182 114.458914 
L 302.865455 115.19157 
L 306.472727 115.924213 
L 310.08 116.656863 
L 313.687273 117.3895 
L 313.935905 117.44 
L 317.294545 118.122174 
L 320.901818 118.854832 
L 324.509091 119.587473 
L 328.116364 120.320119 
L 331.723636 121.052782 
L 335.330909 121.785422 
L 335.563816 121.832727 
L 338.938182 122.518084 
L 342.545455 123.250738 
L 346.152727 123.983377 
L 349.76 124.716049 
L 353.367273 125.44869 
L 356.974545 126.181356 
L 357.191668 126.225455 
L 360.581818 126.914004 
L 364.189091 127.646643 
L 367.796364 128.379311 
L 371.403636 129.111954 
L 375.010909 130.264986 
L 375.395765 130.618182 
L 377.942478 135.010909 
L 378.618182 136.176399 
L 380.068976 139.403636 
L 380.73144 143.796364 
L 380.932178 148.189091 
L 381.132893 152.581818 
L 381.333625 156.974545 
L 381.534363 161.367273 
L 381.728248 165.76 
L 381.903571 170.152727 
L 382.07854 174.545455 
L 382.225455 178.233494 
L 382.253526 178.938182 
L 382.428505 183.330909 
L 382.61206 187.723636 
L 382.817231 192.116364 
L 383.022387 196.509091 
L 383.227563 200.901818 
L 383.432728 205.294545 
L 383.637877 209.687273 
L 383.843236 214.08 
L 384.049661 218.472727 
L 384.257397 222.865455 
L 384.46511 227.258182 
L 384.672846 231.650909 
L 384.880572 236.043636 
L 385.088289 240.436364 
L 385.296017 244.829091 
L 385.503747 249.221818 
L 385.711478 253.614545 
L 385.832727 256.178734 
L 385.919191 258.007273 
L 386.126922 262.4 
L 386.334651 266.792727 
L 386.54238 271.185455 
L 386.750097 275.578182 
L 386.957823 279.970909 
L 387.165547 284.363636 
L 387.373272 288.756364 
L 387.580995 293.149091 
L 387.78872 297.541818 
L 387.996447 301.934545 
L 388.204167 306.327273 
L 388.411894 310.72 
L 388.619623 315.112727 
L 388.827346 319.505455 
L 389.035067 323.898182 
L 389.24279 328.290909 
L 389.44 332.461004 
L 389.450529 332.683636 
L 389.658259 337.076364 
L 389.865973 341.469091 
L 390.073704 345.861818 
L 390.281431 350.254545 
L 390.489154 354.647273 
L 389.907106 359.04 
L 389.44 360.305971 
L 388.286309 363.432727 
L 386.665513 367.825455 
L 385.832727 370.082501 
L 385.044719 372.218182 
L 383.423915 376.610909 
L 382.225455 379.859023 
L 381.803126 381.003636 
L 380.182331 385.396364 
L 378.618182 389.635589 
L 378.561544 389.789091 
L 376.940741 394.181818 
L 375.31993 398.574545 
L 375.010909 399.345457 
L 372.577504 402.967273 
L 371.403636 403.872493 
L 367.796364 406.65423 
L 366.881141 407.36 
L 364.189091 409.435964 
L 361.184793 411.752727 
L 360.581818 412.217707 
L 356.974545 414.999435 
L 355.488415 416.145455 
L 353.367273 417.78117 
L 349.79207 420.538182 
L 349.76 420.562912 
L 346.152727 423.344646 
L 344.095717 424.930909 
L 342.545455 426.126386 
L 338.938182 428.908115 
L 338.399346 429.323636 
L 335.330909 431.689854 
L 332.702994 433.716364 
L 331.723636 434.471592 
L 328.116364 437.253331 
L 327.006641 438.109091 
L 324.509091 440.035076 
L 321.31029 442.501818 
L 320.901818 442.816809 
L 317.294545 445.598548 
L 315.613927 446.894545 
L 313.687273 448.380277 
L 310.08 451.162025 
L 309.917582 451.287273 
L 306.472727 453.94377 
L 304.221244 455.68 
L 302.865455 456.725503 
L 299.258182 459.50724 
L 298.524874 460.072727 
L 295.650909 462.288974 
L 292.828525 464.465455 
L 292.043636 465.070716 
L 288.436364 467.852458 
L 286.871606 468.858182 
L 284.829091 470.035116 
L 281.221818 470.461452 
L 277.614545 470.887767 
L 274.007273 471.499017 
L 270.4 472.696325 
L 268.753452 473.250909 
L 266.792727 473.911311 
L 263.185455 475.126302 
L 259.578182 476.341285 
L 255.970909 477.556279 
L 255.711551 477.643636 
L 252.363636 478.771282 
L 248.756364 479.98627 
L 245.149091 481.201259 
L 242.669712 482.036364 
L 241.541818 482.416259 
L 237.934545 483.631236 
L 234.327273 484.84623 
L 230.72 486.061191 
L 229.627738 486.429091 
L 227.112727 487.276211 
L 223.505455 488.491191 
L 219.898182 489.70619 
L 216.585881 490.821818 
L 216.290909 490.921169 
L 212.683636 492.136163 
L 209.076364 493.351157 
L 205.469091 494.566137 
L 203.543996 495.214545 
L 201.861818 495.781135 
L 198.254545 496.996125 
L 194.647273 498.211128 
L 191.04 499.426103 
L 190.502117 499.607273 
L 187.432727 500.641099 
L 183.825455 501.856087 
L 180.218182 503.071088 
L 177.460217 504 
z
" style="fill:#bcd2f7;"/>
   </g>
   <g id="PathCollection_5">
    <path clip-path="url(#p91ebd36eb1)" d="M 75.607273 504 
L 79.214545 504 
L 82.821818 504 
L 86.429091 504 
L 90.036364 504 
L 93.643636 504 
L 97.250909 504 
L 100.858182 504 
L 104.465455 504 
L 108.072727 504 
L 111.68 504 
L 115.287273 504 
L 118.894545 504 
L 122.501818 504 
L 126.109091 504 
L 129.716364 504 
L 133.323636 504 
L 136.930909 504 
L 140.538182 504 
L 144.145455 504 
L 147.752727 504 
L 151.36 504 
L 154.967273 504 
L 158.574545 504 
L 162.181818 504 
L 165.789091 504 
L 169.396364 504 
L 173.003636 504 
L 176.610909 504 
L 177.460217 504 
L 180.218182 503.071088 
L 183.825455 501.856087 
L 187.432727 500.641099 
L 190.502117 499.607273 
L 191.04 499.426103 
L 194.647273 498.211128 
L 198.254545 496.996125 
L 201.861818 495.781135 
L 203.543996 495.214545 
L 205.469091 494.566137 
L 209.076364 493.351157 
L 212.683636 492.136163 
L 216.290909 490.921169 
L 216.585881 490.821818 
L 219.898182 489.70619 
L 223.505455 488.491191 
L 227.112727 487.276211 
L 229.627738 486.429091 
L 230.72 486.061191 
L 234.327273 484.84623 
L 237.934545 483.631236 
L 241.541818 482.416259 
L 242.669712 482.036364 
L 245.149091 481.201259 
L 248.756364 479.98627 
L 252.363636 478.771282 
L 255.711551 477.643636 
L 255.970909 477.556279 
L 259.578182 476.341285 
L 263.185455 475.126302 
L 266.792727 473.911311 
L 268.753452 473.250909 
L 270.4 472.696325 
L 274.007273 471.499017 
L 277.614545 470.887767 
L 281.221818 470.461452 
L 284.829091 470.035116 
L 286.871606 468.858182 
L 288.436364 467.852458 
L 292.043636 465.070716 
L 292.828525 464.465455 
L 295.650909 462.288974 
L 298.524874 460.072727 
L 299.258182 459.50724 
L 302.865455 456.725503 
L 304.221244 455.68 
L 306.472727 453.94377 
L 309.917582 451.287273 
L 310.08 451.162025 
L 313.687273 448.380277 
L 315.613927 446.894545 
L 317.294545 445.598548 
L 320.901818 442.816809 
L 321.31029 442.501818 
L 324.509091 440.035076 
L 327.006641 438.109091 
L 328.116364 437.253331 
L 331.723636 434.471592 
L 332.702994 433.716364 
L 335.330909 431.689854 
L 338.399346 429.323636 
L 338.938182 428.908115 
L 342.545455 426.126386 
L 344.095717 424.930909 
L 346.152727 423.344646 
L 349.76 420.562912 
L 349.79207 420.538182 
L 353.367273 417.78117 
L 355.488415 416.145455 
L 356.974545 414.999435 
L 360.581818 412.217707 
L 361.184793 411.752727 
L 364.189091 409.435964 
L 366.881141 407.36 
L 367.796364 406.65423 
L 371.403636 403.872493 
L 372.577504 402.967273 
L 375.010909 399.345457 
L 375.31993 398.574545 
L 376.940741 394.181818 
L 378.561544 389.789091 
L 378.618182 389.635589 
L 380.182331 385.396364 
L 381.803126 381.003636 
L 382.225455 379.859023 
L 383.423915 376.610909 
L 385.044719 372.218182 
L 385.832727 370.082501 
L 386.665513 367.825455 
L 388.286309 363.432727 
L 389.44 360.305971 
L 389.907106 359.04 
L 390.489154 354.647273 
L 390.281431 350.254545 
L 390.073704 345.861818 
L 389.865973 341.469091 
L 389.658259 337.076364 
L 389.450529 332.683636 
L 389.44 332.461004 
L 389.24279 328.290909 
L 389.035067 323.898182 
L 388.827346 319.505455 
L 388.619623 315.112727 
L 388.411894 310.72 
L 388.204167 306.327273 
L 387.996447 301.934545 
L 387.78872 297.541818 
L 387.580995 293.149091 
L 387.373272 288.756364 
L 387.165547 284.363636 
L 386.957823 279.970909 
L 386.750097 275.578182 
L 386.54238 271.185455 
L 386.334651 266.792727 
L 386.126922 262.4 
L 385.919191 258.007273 
L 385.832727 256.178734 
L 385.711478 253.614545 
L 385.503747 249.221818 
L 385.296017 244.829091 
L 385.088289 240.436364 
L 384.880572 236.043636 
L 384.672846 231.650909 
L 384.46511 227.258182 
L 384.257397 222.865455 
L 384.049661 218.472727 
L 383.843236 214.08 
L 383.637877 209.687273 
L 383.432728 205.294545 
L 383.227563 200.901818 
L 383.022387 196.509091 
L 382.817231 192.116364 
L 382.61206 187.723636 
L 382.428505 183.330909 
L 382.253526 178.938182 
L 382.225455 178.233494 
L 382.07854 174.545455 
L 381.903571 170.152727 
L 381.728248 165.76 
L 381.534363 161.367273 
L 381.333625 156.974545 
L 381.132893 152.581818 
L 380.932178 148.189091 
L 380.73144 143.796364 
L 380.068976 139.403636 
L 378.618182 136.176399 
L 377.942478 135.010909 
L 375.395765 130.618182 
L 375.010909 130.264986 
L 371.403636 129.111954 
L 367.796364 128.379311 
L 364.189091 127.646643 
L 360.581818 126.914004 
L 357.191668 126.225455 
L 356.974545 126.181356 
L 353.367273 125.44869 
L 349.76 124.716049 
L 346.152727 123.983377 
L 342.545455 123.250738 
L 338.938182 122.518084 
L 335.563816 121.832727 
L 335.330909 121.785422 
L 331.723636 121.052782 
L 328.116364 120.320119 
L 324.509091 119.587473 
L 320.901818 118.854832 
L 317.294545 118.122174 
L 313.935905 117.44 
L 313.687273 117.3895 
L 310.08 116.656863 
L 306.472727 115.924213 
L 302.865455 115.19157 
L 299.258182 114.458914 
L 295.650909 113.726254 
L 292.307887 113.047273 
L 292.043636 112.993602 
L 288.436364 112.260951 
L 284.829091 111.528299 
L 281.221818 110.795647 
L 277.614545 110.062996 
L 274.007273 109.330344 
L 270.679921 108.654545 
L 270.4 108.597693 
L 266.792727 107.865045 
L 263.185455 107.132397 
L 259.578182 106.399737 
L 255.970909 105.667098 
L 252.363636 104.934434 
L 249.051954 104.261818 
L 248.756364 104.201783 
L 245.149091 103.469131 
L 241.541818 102.736479 
L 237.934545 102.003828 
L 234.327273 101.271176 
L 230.72 100.538524 
L 227.423988 99.869091 
L 227.112727 99.805873 
L 223.505455 99.073225 
L 219.898182 98.340585 
L 216.290909 98.982104 
L 214.027508 99.869091 
L 212.683636 100.395734 
L 209.076364 101.809375 
L 205.469091 103.223031 
L 202.818346 104.261818 
L 201.861818 104.636667 
L 198.254545 106.050318 
L 194.647273 107.463945 
L 191.609145 108.654545 
L 191.04 108.877587 
L 187.432727 110.291236 
L 183.825455 111.70489 
L 180.400023 113.047273 
L 180.218182 113.118533 
L 176.610909 114.532178 
L 173.003636 115.945809 
L 169.396364 117.359467 
L 169.190861 117.44 
L 165.789091 118.773094 
L 162.181818 120.186746 
L 158.574545 121.600374 
L 157.981631 121.832727 
L 154.967273 123.014016 
L 151.36 124.427676 
L 147.752727 125.841306 
L 146.772488 126.225455 
L 144.145455 127.254965 
L 140.538182 128.668604 
L 136.930909 130.08224 
L 135.415655 130.618182 
L 133.323636 131.299854 
L 129.716364 131.914908 
L 126.109091 132.529951 
L 122.501818 133.14498 
L 118.894545 133.760024 
L 115.287273 134.37506 
L 111.68 134.990084 
L 111.557858 135.010909 
L 108.072727 135.862418 
L 104.465455 139.062614 
L 104.17823 139.403636 
L 100.858182 143.345574 
L 100.478506 143.796364 
L 97.250909 147.628451 
L 96.778709 148.189091 
L 93.643636 151.911346 
L 93.078937 152.581818 
L 90.036364 156.19425 
L 89.379155 156.974545 
L 86.429091 160.47716 
L 85.679396 161.367273 
L 82.821818 164.760078 
L 81.979637 165.76 
L 79.214545 169.042962 
L 78.27984 170.152727 
L 75.607273 173.325868 
L 74.580086 174.545455 
L 72 177.608794 
L 72 178.938182 
L 72 183.330909 
L 72 187.723636 
L 72 192.116364 
L 72 196.509091 
L 72 200.901818 
L 72 205.294545 
L 72 209.687273 
L 72 214.08 
L 72 218.472727 
L 72 222.865455 
L 72 227.258182 
L 72 231.650909 
L 72 236.043636 
L 72 240.436364 
L 72 244.829091 
L 72 249.221818 
L 72 253.614545 
L 72 258.007273 
L 72 262.4 
L 72 266.792727 
L 72 271.185455 
L 72 275.578182 
L 72 279.970909 
L 72 284.363636 
L 72 288.756364 
L 72 293.149091 
L 72 297.541818 
L 72 301.934545 
L 72 306.327273 
L 72 310.72 
L 72 315.112727 
L 72 319.505455 
L 72 323.898182 
L 72 328.290909 
L 72 332.683636 
L 72 337.076364 
L 72 341.469091 
L 72 345.861818 
L 72 350.254545 
L 72 354.647273 
L 72 359.04 
L 72 363.432727 
L 72 367.825455 
L 72 372.218182 
L 72 376.610909 
L 72 381.003636 
L 72 385.396364 
L 72 389.789091 
L 72 394.181818 
L 72 398.574545 
L 72 402.967273 
L 72 407.36 
L 72 411.752727 
L 72 416.145455 
L 72 420.538182 
L 72 424.930909 
L 72 429.323636 
L 72 433.716364 
L 72 438.109091 
L 72 442.501818 
L 72 446.894545 
L 72 451.287273 
L 72 455.68 
L 72 460.072727 
L 72 464.465455 
L 72 468.858182 
L 72 473.250909 
L 72 477.643636 
L 72 482.036364 
L 72 486.429091 
L 72 490.821818 
L 72 495.214545 
L 72 499.607273 
L 72 504 
z
M 100.449613 477.643636 
L 97.250909 476.136235 
L 93.643636 474.43625 
L 91.128323 473.250909 
L 90.036364 472.736324 
L 86.727694 468.858182 
L 86.861441 464.465455 
L 87.09556 460.072727 
L 87.329692 455.68 
L 87.563835 451.287273 
L 87.797957 446.894545 
L 88.03209 442.501818 
L 88.26623 438.109091 
L 88.500361 433.716364 
L 88.734483 429.323636 
L 88.968621 424.930909 
L 89.202761 420.538182 
L 89.436888 416.145455 
L 89.671019 411.752727 
L 89.905151 407.36 
L 90.036364 404.89823 
L 90.139284 402.967273 
L 90.373418 398.574545 
L 90.607551 394.181818 
L 90.841685 389.789091 
L 91.075818 385.396364 
L 91.309947 381.003636 
L 91.544086 376.610909 
L 91.778219 372.218182 
L 92.012337 367.825455 
L 92.246477 363.432727 
L 92.48062 359.04 
L 92.714753 354.647273 
L 92.948864 350.254545 
L 93.18302 345.861818 
L 93.417141 341.469091 
L 93.643636 337.219645 
L 93.651273 337.076364 
L 93.885406 332.683636 
L 94.119555 328.290909 
L 94.353674 323.898182 
L 94.587818 319.505455 
L 94.821927 315.112727 
L 95.056069 310.72 
L 95.311853 306.327273 
L 95.585043 301.934545 
L 95.858254 297.541818 
L 96.131451 293.149091 
L 96.374352 288.756364 
L 96.601118 284.363636 
L 96.827894 279.970909 
L 97.054672 275.578182 
L 97.250909 271.776826 
L 97.281437 271.185455 
L 97.508201 266.792727 
L 97.734939 262.4 
L 97.96173 258.007273 
L 98.188498 253.614545 
L 98.415254 249.221818 
L 98.642018 244.829091 
L 98.868794 240.436364 
L 99.095545 236.043636 
L 99.322318 231.650909 
L 99.549089 227.258182 
L 99.775854 222.865455 
L 100.858182 219.537883 
L 101.330646 218.472727 
L 104.465455 214.750726 
L 105.030371 214.08 
L 108.072727 210.467846 
L 108.730166 209.687273 
L 111.68 206.184931 
L 112.429928 205.294545 
L 115.287273 201.902035 
L 116.129711 200.901818 
L 118.894545 197.619145 
L 119.82948 196.509091 
L 122.501818 193.336204 
L 123.52923 192.116364 
L 126.109091 189.053309 
L 127.229003 187.723636 
L 129.716364 184.77039 
L 130.928761 183.330909 
L 133.323636 180.487472 
L 134.628534 178.938182 
L 136.930909 176.2046 
L 138.328326 174.545455 
L 140.538182 171.921705 
L 143.398017 170.152727 
L 144.145455 169.905636 
L 147.752727 169.29058 
L 151.36 168.336371 
L 154.967273 166.922729 
L 157.934251 165.76 
L 158.574545 165.509075 
L 162.181818 164.095448 
L 165.789091 162.681795 
L 169.143469 161.367273 
L 169.396364 161.268167 
L 173.003636 159.854527 
L 176.610909 158.440869 
L 180.218182 157.027234 
L 180.352628 156.974545 
L 183.825455 155.613576 
L 187.432727 154.199941 
L 191.04 152.7863 
L 191.561792 152.581818 
L 194.647273 151.372665 
L 198.254545 149.959008 
L 201.861818 148.545393 
L 202.771005 148.189091 
L 205.469091 147.131732 
L 209.076364 145.718096 
L 212.683636 144.304446 
L 213.980162 143.796364 
L 216.290909 142.89082 
L 219.898182 141.477157 
L 223.505455 140.063526 
L 226.6159 139.403636 
L 227.112727 139.308809 
L 227.579602 139.403636 
L 230.72 140.041485 
L 234.327273 140.774133 
L 237.934545 141.506788 
L 241.541818 142.239431 
L 245.149091 142.972091 
L 248.756364 143.704743 
L 249.207466 143.796364 
L 252.363636 144.437393 
L 255.970909 145.170046 
L 259.578182 145.902692 
L 263.185455 146.63535 
L 266.792727 147.367982 
L 270.4 148.100653 
L 270.835432 148.189091 
L 274.007273 148.833303 
L 277.614545 149.565956 
L 281.221818 150.298608 
L 284.829091 151.031264 
L 288.436364 151.763909 
L 292.043636 152.496575 
L 292.463346 152.581818 
L 295.650909 153.229211 
L 299.258182 153.96185 
L 302.865455 154.694518 
L 306.472727 155.427169 
L 310.08 156.159821 
L 313.687273 156.892473 
L 314.091365 156.974545 
L 317.294545 157.625124 
L 320.901818 158.357776 
L 324.509091 159.090422 
L 328.116364 159.823071 
L 331.723636 160.555729 
L 335.330909 161.288383 
L 335.719332 161.367273 
L 338.938182 162.021031 
L 342.545455 162.753678 
L 346.152727 164.094948 
L 347.725939 165.76 
L 349.76 169.268476 
L 350.272648 170.152727 
L 352.595373 174.545455 
L 353.06024 178.938182 
L 353.236082 183.330909 
L 353.367273 186.62456 
L 353.411051 187.723636 
L 353.586038 192.116364 
L 353.76148 196.509091 
L 353.962523 200.901818 
L 354.167684 205.294545 
L 354.372849 209.687273 
L 354.578015 214.08 
L 354.783189 218.472727 
L 354.988346 222.865455 
L 355.193509 227.258182 
L 355.39869 231.650909 
L 355.603847 236.043636 
L 355.809018 240.436364 
L 356.01418 244.829091 
L 356.21935 249.221818 
L 356.424686 253.614545 
L 356.632027 258.007273 
L 356.839746 262.4 
L 356.974545 265.250614 
L 357.047469 266.792727 
L 357.255191 271.185455 
L 357.462922 275.578182 
L 357.670638 279.970909 
L 357.87837 284.363636 
L 358.086097 288.756364 
L 358.293824 293.149091 
L 358.501541 297.541818 
L 358.709272 301.934545 
L 358.916999 306.327273 
L 359.12472 310.72 
L 359.332447 315.112727 
L 359.540175 319.505455 
L 359.747891 323.898182 
L 359.955622 328.290909 
L 360.163345 332.683636 
L 360.371075 337.076364 
L 360.578744 341.469091 
L 359.606219 345.861818 
L 357.985407 350.254545 
L 356.974545 352.99422 
L 356.36462 354.647273 
L 354.743839 359.04 
L 353.367273 362.770794 
L 353.123036 363.432727 
L 351.502245 367.825455 
L 349.881453 372.218182 
L 349.76 372.547348 
L 347.590304 376.610909 
L 346.152727 377.894941 
L 342.545455 380.676689 
L 342.12148 381.003636 
L 338.938182 383.458428 
L 336.425127 385.396364 
L 335.330909 386.240167 
L 331.723636 389.021906 
L 330.728775 389.789091 
L 328.116364 391.803638 
L 325.032419 394.181818 
L 324.509091 394.585384 
L 320.901818 397.367099 
L 319.336033 398.574545 
L 317.294545 400.148843 
L 313.687273 402.930586 
L 313.639699 402.967273 
L 310.08 405.712311 
L 307.943328 407.36 
L 306.472727 408.494057 
L 302.865455 411.275789 
L 302.246976 411.752727 
L 299.258182 414.057528 
L 296.550623 416.145455 
L 295.650909 416.839266 
L 292.043636 419.620994 
L 290.854258 420.538182 
L 288.436364 422.402744 
L 285.157918 424.930909 
L 284.829091 425.184483 
L 281.221818 427.966222 
L 279.064899 429.323636 
L 277.614545 430.141923 
L 274.007273 430.568251 
L 270.4 430.99456 
L 266.792727 431.420896 
L 263.185455 431.847199 
L 259.578182 432.273525 
L 255.970909 433.299813 
L 254.734187 433.716364 
L 252.363636 434.514813 
L 248.756364 435.729808 
L 245.149091 436.94479 
L 241.692348 438.109091 
L 241.541818 438.159793 
L 237.934545 439.374768 
L 234.327273 440.58977 
L 230.72 441.804747 
L 228.65043 442.501818 
L 227.112727 443.019746 
L 223.505455 444.234739 
L 219.898182 445.449787 
L 216.290909 446.665619 
L 215.612967 446.894545 
L 212.683636 447.883716 
L 209.076364 449.101833 
L 205.469091 450.319934 
L 202.604421 451.287273 
L 201.861818 451.538035 
L 198.254545 452.756157 
L 194.647273 453.974262 
L 191.04 455.192377 
L 189.595956 455.68 
L 187.432727 456.410475 
L 183.825455 457.628587 
L 180.218182 458.846672 
L 176.610909 460.064792 
L 176.587411 460.072727 
L 173.003636 461.282912 
L 169.396364 462.501013 
L 165.789091 463.71913 
L 163.578896 464.465455 
L 162.181818 464.937208 
L 158.574545 466.15533 
L 154.967273 467.373432 
L 151.36 468.591526 
L 150.570337 468.858182 
L 147.752727 469.809648 
L 144.145455 471.027765 
L 140.538182 472.245869 
L 137.561887 473.250909 
L 136.930909 473.46398 
L 133.323636 474.682089 
L 129.716364 475.900186 
L 126.109091 477.118296 
L 124.553366 477.643636 
L 122.501818 478.336409 
L 118.894545 479.554515 
L 115.287273 480.77262 
L 111.68 481.966753 
L 108.072727 481.236105 
L 104.465455 479.536129 
L 100.858182 477.836178 
z
" style="fill:#dddcdc;"/>
   </g>
   <g id="PathCollection_6">
    <path clip-path="url(#p91ebd36eb1)" d="M 100.858182 477.836178 
L 104.465455 479.536129 
L 108.072727 481.236105 
L 111.68 481.966753 
L 115.287273 480.77262 
L 118.894545 479.554515 
L 122.501818 478.336409 
L 124.553366 477.643636 
L 126.109091 477.118296 
L 129.716364 475.900186 
L 133.323636 474.682089 
L 136.930909 473.46398 
L 137.561887 473.250909 
L 140.538182 472.245869 
L 144.145455 471.027765 
L 147.752727 469.809648 
L 150.570337 468.858182 
L 151.36 468.591526 
L 154.967273 467.373432 
L 158.574545 466.15533 
L 162.181818 464.937208 
L 163.578896 464.465455 
L 165.789091 463.71913 
L 169.396364 462.501013 
L 173.003636 461.282912 
L 176.587411 460.072727 
L 176.610909 460.064792 
L 180.218182 458.846672 
L 183.825455 457.628587 
L 187.432727 456.410475 
L 189.595956 455.68 
L 191.04 455.192377 
L 194.647273 453.974262 
L 198.254545 452.756157 
L 201.861818 451.538035 
L 202.604421 451.287273 
L 205.469091 450.319934 
L 209.076364 449.101833 
L 212.683636 447.883716 
L 215.612967 446.894545 
L 216.290909 446.665619 
L 219.898182 445.449787 
L 223.505455 444.234739 
L 227.112727 443.019746 
L 228.65043 442.501818 
L 230.72 441.804747 
L 234.327273 440.58977 
L 237.934545 439.374768 
L 241.541818 438.159793 
L 241.692348 438.109091 
L 245.149091 436.94479 
L 248.756364 435.729808 
L 252.363636 434.514813 
L 254.734187 433.716364 
L 255.970909 433.299813 
L 259.578182 432.273525 
L 263.185455 431.847199 
L 266.792727 431.420896 
L 270.4 430.99456 
L 274.007273 430.568251 
L 277.614545 430.141923 
L 279.064899 429.323636 
L 281.221818 427.966222 
L 284.829091 425.184483 
L 285.157918 424.930909 
L 288.436364 422.402744 
L 290.854258 420.538182 
L 292.043636 419.620994 
L 295.650909 416.839266 
L 296.550623 416.145455 
L 299.258182 414.057528 
L 302.246976 411.752727 
L 302.865455 411.275789 
L 306.472727 408.494057 
L 307.943328 407.36 
L 310.08 405.712311 
L 313.639699 402.967273 
L 313.687273 402.930586 
L 317.294545 400.148843 
L 319.336033 398.574545 
L 320.901818 397.367099 
L 324.509091 394.585384 
L 325.032419 394.181818 
L 328.116364 391.803638 
L 330.728775 389.789091 
L 331.723636 389.021906 
L 335.330909 386.240167 
L 336.425127 385.396364 
L 338.938182 383.458428 
L 342.12148 381.003636 
L 342.545455 380.676689 
L 346.152727 377.894941 
L 347.590304 376.610909 
L 349.76 372.547348 
L 349.881453 372.218182 
L 351.502245 367.825455 
L 353.123036 363.432727 
L 353.367273 362.770794 
L 354.743839 359.04 
L 356.36462 354.647273 
L 356.974545 352.99422 
L 357.985407 350.254545 
L 359.606219 345.861818 
L 360.578744 341.469091 
L 360.371075 337.076364 
L 360.163345 332.683636 
L 359.955622 328.290909 
L 359.747891 323.898182 
L 359.540175 319.505455 
L 359.332447 315.112727 
L 359.12472 310.72 
L 358.916999 306.327273 
L 358.709272 301.934545 
L 358.501541 297.541818 
L 358.293824 293.149091 
L 358.086097 288.756364 
L 357.87837 284.363636 
L 357.670638 279.970909 
L 357.462922 275.578182 
L 357.255191 271.185455 
L 357.047469 266.792727 
L 356.974545 265.250614 
L 356.839746 262.4 
L 356.632027 258.007273 
L 356.424686 253.614545 
L 356.21935 249.221818 
L 356.01418 244.829091 
L 355.809018 240.436364 
L 355.603847 236.043636 
L 355.39869 231.650909 
L 355.193509 227.258182 
L 354.988346 222.865455 
L 354.783189 218.472727 
L 354.578015 214.08 
L 354.372849 209.687273 
L 354.167684 205.294545 
L 353.962523 200.901818 
L 353.76148 196.509091 
L 353.586038 192.116364 
L 353.411051 187.723636 
L 353.367273 186.62456 
L 353.236082 183.330909 
L 353.06024 178.938182 
L 352.595373 174.545455 
L 350.272648 170.152727 
L 349.76 169.268476 
L 347.725939 165.76 
L 346.152727 164.094948 
L 342.545455 162.753678 
L 338.938182 162.021031 
L 335.719332 161.367273 
L 335.330909 161.288383 
L 331.723636 160.555729 
L 328.116364 159.823071 
L 324.509091 159.090422 
L 320.901818 158.357776 
L 317.294545 157.625124 
L 314.091365 156.974545 
L 313.687273 156.892473 
L 310.08 156.159821 
L 306.472727 155.427169 
L 302.865455 154.694518 
L 299.258182 153.96185 
L 295.650909 153.229211 
L 292.463346 152.581818 
L 292.043636 152.496575 
L 288.436364 151.763909 
L 284.829091 151.031264 
L 281.221818 150.298608 
L 277.614545 149.565956 
L 274.007273 148.833303 
L 270.835432 148.189091 
L 270.4 148.100653 
L 266.792727 147.367982 
L 263.185455 146.63535 
L 259.578182 145.902692 
L 255.970909 145.170046 
L 252.363636 144.437393 
L 249.207466 143.796364 
L 248.756364 143.704743 
L 245.149091 142.972091 
L 241.541818 142.239431 
L 237.934545 141.506788 
L 234.327273 140.774133 
L 230.72 140.041485 
L 227.579602 139.403636 
L 227.112727 139.308809 
L 226.6159 139.403636 
L 223.505455 140.063526 
L 219.898182 141.477157 
L 216.290909 142.89082 
L 213.980162 143.796364 
L 212.683636 144.304446 
L 209.076364 145.718096 
L 205.469091 147.131732 
L 202.771005 148.189091 
L 201.861818 148.545393 
L 198.254545 149.959008 
L 194.647273 151.372665 
L 191.561792 152.581818 
L 191.04 152.7863 
L 187.432727 154.199941 
L 183.825455 155.613576 
L 180.352628 156.974545 
L 180.218182 157.027234 
L 176.610909 158.440869 
L 173.003636 159.854527 
L 169.396364 161.268167 
L 169.143469 161.367273 
L 165.789091 162.681795 
L 162.181818 164.095448 
L 158.574545 165.509075 
L 157.934251 165.76 
L 154.967273 166.922729 
L 151.36 168.336371 
L 147.752727 169.29058 
L 144.145455 169.905636 
L 143.398017 170.152727 
L 140.538182 171.921705 
L 138.328326 174.545455 
L 136.930909 176.2046 
L 134.628534 178.938182 
L 133.323636 180.487472 
L 130.928761 183.330909 
L 129.716364 184.77039 
L 127.229003 187.723636 
L 126.109091 189.053309 
L 123.52923 192.116364 
L 122.501818 193.336204 
L 119.82948 196.509091 
L 118.894545 197.619145 
L 116.129711 200.901818 
L 115.287273 201.902035 
L 112.429928 205.294545 
L 111.68 206.184931 
L 108.730166 209.687273 
L 108.072727 210.467846 
L 105.030371 214.08 
L 104.465455 214.750726 
L 101.330646 218.472727 
L 100.858182 219.537883 
L 99.775854 222.865455 
L 99.549089 227.258182 
L 99.322318 231.650909 
L 99.095545 236.043636 
L 98.868794 240.436364 
L 98.642018 244.829091 
L 98.415254 249.221818 
L 98.188498 253.614545 
L 97.96173 258.007273 
L 97.734939 262.4 
L 97.508201 266.792727 
L 97.281437 271.185455 
L 97.250909 271.776826 
L 97.054672 275.578182 
L 96.827894 279.970909 
L 96.601118 284.363636 
L 96.374352 288.756364 
L 96.131451 293.149091 
L 95.858254 297.541818 
L 95.585043 301.934545 
L 95.311853 306.327273 
L 95.056069 310.72 
L 94.821927 315.112727 
L 94.587818 319.505455 
L 94.353674 323.898182 
L 94.119555 328.290909 
L 93.885406 332.683636 
L 93.651273 337.076364 
L 93.643636 337.219645 
L 93.417141 341.469091 
L 93.18302 345.861818 
L 92.948864 350.254545 
L 92.714753 354.647273 
L 92.48062 359.04 
L 92.246477 363.432727 
L 92.012337 367.825455 
L 91.778219 372.218182 
L 91.544086 376.610909 
L 91.309947 381.003636 
L 91.075818 385.396364 
L 90.841685 389.789091 
L 90.607551 394.181818 
L 90.373418 398.574545 
L 90.139284 402.967273 
L 90.036364 404.89823 
L 89.905151 407.36 
L 89.671019 411.752727 
L 89.436888 416.145455 
L 89.202761 420.538182 
L 88.968621 424.930909 
L 88.734483 429.323636 
L 88.500361 433.716364 
L 88.26623 438.109091 
L 88.03209 442.501818 
L 87.797957 446.894545 
L 87.563835 451.287273 
L 87.329692 455.68 
L 87.09556 460.072727 
L 86.861441 464.465455 
L 86.727694 468.858182 
L 90.036364 472.736324 
L 91.128323 473.250909 
L 93.643636 474.43625 
L 97.250909 476.136235 
L 100.449613 477.643636 
z
M 154.530888 420.538182 
L 151.36 419.043891 
L 147.752727 417.343927 
L 145.209585 416.145455 
L 144.145455 415.643979 
L 140.538182 413.944018 
L 136.930909 412.244072 
L 136.635751 411.752727 
L 136.680388 407.36 
L 136.914507 402.967273 
L 136.930909 402.65957 
L 137.148654 398.574545 
L 137.382781 394.181818 
L 137.616908 389.789091 
L 137.851042 385.396364 
L 138.08518 381.003636 
L 138.319309 376.610909 
L 138.553439 372.218182 
L 138.787579 367.825455 
L 139.021705 363.432727 
L 139.255841 359.04 
L 139.489977 354.647273 
L 139.72411 350.254545 
L 139.958244 345.861818 
L 140.192364 341.469091 
L 140.426504 337.076364 
L 140.538182 334.981101 
L 140.660637 332.683636 
L 140.89477 328.290909 
L 141.128903 323.898182 
L 141.363036 319.505455 
L 141.597162 315.112727 
L 141.831295 310.72 
L 142.065428 306.327273 
L 142.299558 301.934545 
L 142.533691 297.541818 
L 142.767828 293.149091 
L 143.001961 288.756364 
L 143.239718 284.363636 
L 143.511289 279.970909 
L 143.784481 275.578182 
L 144.026609 271.185455 
L 144.145455 268.883397 
L 144.253387 266.792727 
L 144.480151 262.4 
L 144.70691 258.007273 
L 144.933667 253.614545 
L 145.160442 249.221818 
L 145.387209 244.829091 
L 146.58001 240.436364 
L 147.752727 239.043999 
L 150.279766 236.043636 
L 151.36 234.761073 
L 153.979524 231.650909 
L 154.967273 230.478158 
L 157.679315 227.258182 
L 158.574545 226.195283 
L 161.379081 222.865455 
L 162.181818 221.912367 
L 165.07885 218.472727 
L 165.789091 217.629457 
L 168.568255 214.08 
L 169.396364 212.839593 
L 171.137418 209.687273 
L 173.003636 206.308342 
L 173.563565 205.294545 
L 176.610909 202.424369 
L 180.218182 200.935934 
L 180.305238 200.901818 
L 183.825455 199.52229 
L 187.432727 198.108645 
L 191.04 196.695001 
L 191.514395 196.509091 
L 194.647273 195.281356 
L 198.254545 193.867714 
L 201.861818 192.454074 
L 202.723571 192.116364 
L 205.469091 191.040427 
L 209.076364 189.626788 
L 212.683636 188.213146 
L 213.93274 187.723636 
L 216.290909 186.799495 
L 219.898182 185.385851 
L 223.505455 183.972213 
L 225.141904 183.330909 
L 227.112727 182.558568 
L 230.72 181.144927 
L 234.327273 180.277077 
L 237.934545 181.009722 
L 241.541818 181.742376 
L 245.149091 182.475027 
L 248.756364 183.20768 
L 249.363096 183.330909 
L 252.363636 183.940331 
L 255.970909 184.672989 
L 259.578182 185.405637 
L 263.185455 186.138282 
L 266.792727 186.87095 
L 270.4 187.603589 
L 270.991067 187.723636 
L 274.007273 188.336236 
L 277.614545 189.068894 
L 281.221818 189.801544 
L 284.829091 190.534204 
L 288.436364 191.266847 
L 292.043636 191.999499 
L 292.619024 192.116364 
L 295.650909 192.732155 
L 299.258182 193.464804 
L 302.865455 194.197454 
L 306.472727 194.930101 
L 310.08 195.662759 
L 313.687273 196.395415 
L 314.246966 196.509091 
L 317.294545 197.459902 
L 320.006795 200.901818 
L 320.901818 202.478588 
L 322.50025 205.294545 
L 324.509091 208.803986 
L 324.845512 209.687273 
L 325.313 214.08 
L 325.518159 218.472727 
L 325.723328 222.865455 
L 325.928493 227.258182 
L 326.133657 231.650909 
L 326.338821 236.043636 
L 326.543993 240.436364 
L 326.749154 244.829091 
L 326.954319 249.221818 
L 327.159483 253.614545 
L 327.364652 258.007273 
L 327.569814 262.4 
L 327.774986 266.792727 
L 327.980148 271.185455 
L 328.116364 274.101956 
L 328.185311 275.578182 
L 328.390473 279.970909 
L 328.595644 284.363636 
L 328.800874 288.756364 
L 329.006652 293.149091 
L 329.214374 297.541818 
L 329.422096 301.934545 
L 329.629825 306.327273 
L 329.837547 310.72 
L 330.045271 315.112727 
L 330.253002 319.505455 
L 330.460722 323.898182 
L 330.602611 328.290909 
L 329.305335 332.683636 
L 328.116364 335.90604 
L 327.684549 337.076364 
L 326.063752 341.469091 
L 324.509091 345.682577 
L 324.442956 345.861818 
L 322.462564 350.254545 
L 320.901818 351.917408 
L 317.361806 354.647273 
L 317.294545 354.69914 
L 313.687273 357.480881 
L 311.665453 359.04 
L 310.08 360.26262 
L 306.472727 363.044362 
L 305.969107 363.432727 
L 302.865455 365.826092 
L 300.272741 367.825455 
L 299.258182 368.607827 
L 295.650909 371.389565 
L 294.576383 372.218182 
L 292.043636 374.171301 
L 288.880033 376.610909 
L 288.436364 376.953044 
L 284.829091 379.734779 
L 283.183676 381.003636 
L 281.221818 382.516512 
L 277.614545 385.29826 
L 277.487327 385.396364 
L 274.007273 388.079985 
L 271.232403 389.789091 
L 270.4 390.248725 
L 266.792727 390.675047 
L 263.185455 391.101365 
L 259.578182 391.527687 
L 255.970909 391.955208 
L 252.363636 392.384512 
L 248.756364 392.814302 
L 245.149091 393.244101 
L 241.541818 393.924218 
L 240.763452 394.181818 
L 237.934545 395.137085 
L 234.327273 396.355197 
L 230.72 397.573298 
L 227.754918 398.574545 
L 227.112727 398.791401 
L 223.505455 400.009515 
L 219.898182 401.227619 
L 216.290909 402.445725 
L 214.746414 402.967273 
L 212.683636 403.663837 
L 209.076364 404.881948 
L 205.469091 406.100054 
L 201.861818 407.318153 
L 201.737893 407.36 
L 198.254545 408.536268 
L 194.647273 409.754373 
L 191.04 410.972471 
L 188.729358 411.752727 
L 187.432727 412.190574 
L 183.825455 413.408691 
L 180.218182 414.626794 
L 176.610909 415.844904 
L 175.720865 416.145455 
L 173.003636 417.063008 
L 169.396364 418.281118 
L 165.789091 419.499222 
L 162.712366 420.538182 
L 162.181818 420.717339 
L 158.574545 421.654233 
L 154.967273 420.743831 
z
" style="fill:#f3c8b2;"/>
   </g>
   <g id="PathCollection_7">
    <path clip-path="url(#p91ebd36eb1)" d="M 154.967273 420.743831 
L 158.574545 421.654233 
L 162.181818 420.717339 
L 162.712366 420.538182 
L 165.789091 419.499222 
L 169.396364 418.281118 
L 173.003636 417.063008 
L 175.720865 416.145455 
L 176.610909 415.844904 
L 180.218182 414.626794 
L 183.825455 413.408691 
L 187.432727 412.190574 
L 188.729358 411.752727 
L 191.04 410.972471 
L 194.647273 409.754373 
L 198.254545 408.536268 
L 201.737893 407.36 
L 201.861818 407.318153 
L 205.469091 406.100054 
L 209.076364 404.881948 
L 212.683636 403.663837 
L 214.746414 402.967273 
L 216.290909 402.445725 
L 219.898182 401.227619 
L 223.505455 400.009515 
L 227.112727 398.791401 
L 227.754918 398.574545 
L 230.72 397.573298 
L 234.327273 396.355197 
L 237.934545 395.137085 
L 240.763452 394.181818 
L 241.541818 393.924218 
L 245.149091 393.244101 
L 248.756364 392.814302 
L 252.363636 392.384512 
L 255.970909 391.955208 
L 259.578182 391.527687 
L 263.185455 391.101365 
L 266.792727 390.675047 
L 270.4 390.248725 
L 271.232403 389.789091 
L 274.007273 388.079985 
L 277.487327 385.396364 
L 277.614545 385.29826 
L 281.221818 382.516512 
L 283.183676 381.003636 
L 284.829091 379.734779 
L 288.436364 376.953044 
L 288.880033 376.610909 
L 292.043636 374.171301 
L 294.576383 372.218182 
L 295.650909 371.389565 
L 299.258182 368.607827 
L 300.272741 367.825455 
L 302.865455 365.826092 
L 305.969107 363.432727 
L 306.472727 363.044362 
L 310.08 360.26262 
L 311.665453 359.04 
L 313.687273 357.480881 
L 317.294545 354.69914 
L 317.361806 354.647273 
L 320.901818 351.917408 
L 322.462564 350.254545 
L 324.442956 345.861818 
L 324.509091 345.682577 
L 326.063752 341.469091 
L 327.684549 337.076364 
L 328.116364 335.90604 
L 329.305335 332.683636 
L 330.602611 328.290909 
L 330.460722 323.898182 
L 330.253002 319.505455 
L 330.045271 315.112727 
L 329.837547 310.72 
L 329.629825 306.327273 
L 329.422096 301.934545 
L 329.214374 297.541818 
L 329.006652 293.149091 
L 328.800874 288.756364 
L 328.595644 284.363636 
L 328.390473 279.970909 
L 328.185311 275.578182 
L 328.116364 274.101956 
L 327.980148 271.185455 
L 327.774986 266.792727 
L 327.569814 262.4 
L 327.364652 258.007273 
L 327.159483 253.614545 
L 326.954319 249.221818 
L 326.749154 244.829091 
L 326.543993 240.436364 
L 326.338821 236.043636 
L 326.133657 231.650909 
L 325.928493 227.258182 
L 325.723328 222.865455 
L 325.518159 218.472727 
L 325.313 214.08 
L 324.845512 209.687273 
L 324.509091 208.803986 
L 322.50025 205.294545 
L 320.901818 202.478588 
L 320.006795 200.901818 
L 317.294545 197.459902 
L 314.246966 196.509091 
L 313.687273 196.395415 
L 310.08 195.662759 
L 306.472727 194.930101 
L 302.865455 194.197454 
L 299.258182 193.464804 
L 295.650909 192.732155 
L 292.619024 192.116364 
L 292.043636 191.999499 
L 288.436364 191.266847 
L 284.829091 190.534204 
L 281.221818 189.801544 
L 277.614545 189.068894 
L 274.007273 188.336236 
L 270.991067 187.723636 
L 270.4 187.603589 
L 266.792727 186.87095 
L 263.185455 186.138282 
L 259.578182 185.405637 
L 255.970909 184.672989 
L 252.363636 183.940331 
L 249.363096 183.330909 
L 248.756364 183.20768 
L 245.149091 182.475027 
L 241.541818 181.742376 
L 237.934545 181.009722 
L 234.327273 180.277077 
L 230.72 181.144927 
L 227.112727 182.558568 
L 225.141904 183.330909 
L 223.505455 183.972213 
L 219.898182 185.385851 
L 216.290909 186.799495 
L 213.93274 187.723636 
L 212.683636 188.213146 
L 209.076364 189.626788 
L 205.469091 191.040427 
L 202.723571 192.116364 
L 201.861818 192.454074 
L 198.254545 193.867714 
L 194.647273 195.281356 
L 191.514395 196.509091 
L 191.04 196.695001 
L 187.432727 198.108645 
L 183.825455 199.52229 
L 180.305238 200.901818 
L 180.218182 200.935934 
L 176.610909 202.424369 
L 173.563565 205.294545 
L 173.003636 206.308342 
L 171.137418 209.687273 
L 169.396364 212.839593 
L 168.568255 214.08 
L 165.789091 217.629457 
L 165.07885 218.472727 
L 162.181818 221.912367 
L 161.379081 222.865455 
L 158.574545 226.195283 
L 157.679315 227.258182 
L 154.967273 230.478158 
L 153.979524 231.650909 
L 151.36 234.761073 
L 150.279766 236.043636 
L 147.752727 239.043999 
L 146.58001 240.436364 
L 145.387209 244.829091 
L 145.160442 249.221818 
L 144.933667 253.614545 
L 144.70691 258.007273 
L 144.480151 262.4 
L 144.253387 266.792727 
L 144.145455 268.883397 
L 144.026609 271.185455 
L 143.784481 275.578182 
L 143.511289 279.970909 
L 143.239718 284.363636 
L 143.001961 288.756364 
L 142.767828 293.149091 
L 142.533691 297.541818 
L 142.299558 301.934545 
L 142.065428 306.327273 
L 141.831295 310.72 
L 141.597162 315.112727 
L 141.363036 319.505455 
L 141.128903 323.898182 
L 140.89477 328.290909 
L 140.660637 332.683636 
L 140.538182 334.981101 
L 140.426504 337.076364 
L 140.192364 341.469091 
L 139.958244 345.861818 
L 139.72411 350.254545 
L 139.489977 354.647273 
L 139.255841 359.04 
L 139.021705 363.432727 
L 138.787579 367.825455 
L 138.553439 372.218182 
L 138.319309 376.610909 
L 138.08518 381.003636 
L 137.851042 385.396364 
L 137.616908 389.789091 
L 137.382781 394.181818 
L 137.148654 398.574545 
L 136.930909 402.65957 
L 136.914507 402.967273 
L 136.680388 407.36 
L 136.635751 411.752727 
L 136.930909 412.244072 
L 140.538182 413.944018 
L 144.145455 415.643979 
L 145.209585 416.145455 
L 147.752727 417.343927 
L 151.36 419.043891 
L 154.530888 420.538182 
z
M 199.290837 359.04 
L 198.254545 358.551642 
L 194.647273 356.851692 
L 191.04 355.151743 
L 189.969526 354.647273 
L 187.432727 352.800523 
L 186.499318 350.254545 
L 186.733448 345.861818 
L 186.967583 341.469091 
L 187.201714 337.076364 
L 187.432727 332.742154 
L 187.435846 332.683636 
L 187.669979 328.290909 
L 187.904112 323.898182 
L 188.138248 319.505455 
L 188.372379 315.112727 
L 188.606509 310.72 
L 188.840643 306.327273 
L 189.074773 301.934545 
L 189.308913 297.541818 
L 189.543041 293.149091 
L 189.777171 288.756364 
L 190.011308 284.363636 
L 190.245439 279.970909 
L 190.479569 275.578182 
L 190.713703 271.185455 
L 190.790891 266.792727 
L 191.008652 262.4 
L 191.04 262.338436 
L 193.453555 258.007273 
L 194.647273 255.862294 
L 195.903395 253.614545 
L 198.254545 249.357593 
L 198.329535 249.221818 
L 200.755672 244.829091 
L 201.861818 242.826325 
L 203.181813 240.436364 
L 205.469091 236.295051 
L 205.6395 236.043636 
L 209.076364 233.535481 
L 212.683636 232.121844 
L 213.885343 231.650909 
L 216.290909 230.708195 
L 219.898182 229.294554 
L 223.505455 227.880908 
L 225.094502 227.258182 
L 227.112727 226.467268 
L 230.72 225.053628 
L 234.327273 223.639981 
L 236.303675 222.865455 
L 237.934545 222.226337 
L 241.541818 221.245324 
L 245.149091 221.977976 
L 248.756364 222.710631 
L 249.518655 222.865455 
L 252.363636 223.443279 
L 255.970909 224.175929 
L 259.578182 224.912888 
L 263.185455 225.656042 
L 266.792727 226.404646 
L 270.4 227.157198 
L 270.889572 227.258182 
L 274.007273 227.895399 
L 277.614545 228.628993 
L 281.221818 229.362581 
L 284.829091 230.096174 
L 288.436364 230.829769 
L 289.536855 231.650909 
L 292.043636 235.568749 
L 292.319575 236.043636 
L 294.872023 240.436364 
L 295.650909 241.776818 
L 297.016753 244.829091 
L 297.689287 249.221818 
L 297.894454 253.614545 
L 298.099619 258.007273 
L 298.304787 262.4 
L 298.509954 266.792727 
L 298.715116 271.185455 
L 298.920283 275.578182 
L 299.125445 279.970909 
L 299.258182 282.812868 
L 299.330612 284.363636 
L 299.535779 288.756364 
L 299.740942 293.149091 
L 299.946106 297.541818 
L 300.151276 301.934545 
L 300.35644 306.327273 
L 300.561604 310.72 
L 300.53337 315.112727 
L 299.258182 318.843095 
L 299.013577 319.505455 
L 297.308674 323.898182 
L 295.650909 325.950127 
L 292.617491 328.290909 
L 292.043636 328.733733 
L 288.436364 331.517349 
L 286.924975 332.683636 
L 284.829091 334.300956 
L 281.232441 337.076364 
L 281.221818 337.084561 
L 277.614545 339.868168 
L 275.539914 341.469091 
L 274.007273 342.651779 
L 270.4 345.435389 
L 269.847392 345.861818 
L 266.792727 348.218997 
L 263.417992 350.254545 
L 263.185455 350.380301 
L 259.578182 350.810094 
L 255.970909 351.239887 
L 252.363636 351.669676 
L 248.756364 352.099461 
L 245.149091 352.529253 
L 241.541818 352.959047 
L 237.934545 353.388835 
L 234.327273 353.818627 
L 230.72 354.248421 
L 227.372375 354.647273 
L 227.112727 354.680055 
L 223.505455 355.789633 
L 219.898182 357.007737 
L 216.290909 358.225844 
L 213.87988 359.04 
L 212.683636 359.443948 
L 209.076364 360.66206 
L 205.469091 361.240805 
L 201.861818 360.251592 
z
" style="fill:#f6a586;"/>
   </g>
   <g id="PathCollection_8">
    <path clip-path="url(#p91ebd36eb1)" d="M 201.861818 360.251592 
L 205.469091 361.240805 
L 209.076364 360.66206 
L 212.683636 359.443948 
L 213.87988 359.04 
L 216.290909 358.225844 
L 219.898182 357.007737 
L 223.505455 355.789633 
L 227.112727 354.680055 
L 227.372375 354.647273 
L 230.72 354.248421 
L 234.327273 353.818627 
L 237.934545 353.388835 
L 241.541818 352.959047 
L 245.149091 352.529253 
L 248.756364 352.099461 
L 252.363636 351.669676 
L 255.970909 351.239887 
L 259.578182 350.810094 
L 263.185455 350.380301 
L 263.417992 350.254545 
L 266.792727 348.218997 
L 269.847392 345.861818 
L 270.4 345.435389 
L 274.007273 342.651779 
L 275.539914 341.469091 
L 277.614545 339.868168 
L 281.221818 337.084561 
L 281.232441 337.076364 
L 284.829091 334.300956 
L 286.924975 332.683636 
L 288.436364 331.517349 
L 292.043636 328.733733 
L 292.617491 328.290909 
L 295.650909 325.950127 
L 297.308674 323.898182 
L 299.013577 319.505455 
L 299.258182 318.843095 
L 300.53337 315.112727 
L 300.561604 310.72 
L 300.35644 306.327273 
L 300.151276 301.934545 
L 299.946106 297.541818 
L 299.740942 293.149091 
L 299.535779 288.756364 
L 299.330612 284.363636 
L 299.258182 282.812868 
L 299.125445 279.970909 
L 298.920283 275.578182 
L 298.715116 271.185455 
L 298.509954 266.792727 
L 298.304787 262.4 
L 298.099619 258.007273 
L 297.894454 253.614545 
L 297.689287 249.221818 
L 297.016753 244.829091 
L 295.650909 241.776818 
L 294.872023 240.436364 
L 292.319575 236.043636 
L 292.043636 235.568749 
L 289.536855 231.650909 
L 288.436364 230.829769 
L 284.829091 230.096174 
L 281.221818 229.362581 
L 277.614545 228.628993 
L 274.007273 227.895399 
L 270.889572 227.258182 
L 270.4 227.157198 
L 266.792727 226.404646 
L 263.185455 225.656042 
L 259.578182 224.912888 
L 255.970909 224.175929 
L 252.363636 223.443279 
L 249.518655 222.865455 
L 248.756364 222.710631 
L 245.149091 221.977976 
L 241.541818 221.245324 
L 237.934545 222.226337 
L 236.303675 222.865455 
L 234.327273 223.639981 
L 230.72 225.053628 
L 227.112727 226.467268 
L 225.094502 227.258182 
L 223.505455 227.880908 
L 219.898182 229.294554 
L 216.290909 230.708195 
L 213.885343 231.650909 
L 212.683636 232.121844 
L 209.076364 233.535481 
L 205.6395 236.043636 
L 205.469091 236.295051 
L 203.181813 240.436364 
L 201.861818 242.826325 
L 200.755672 244.829091 
L 198.329535 249.221818 
L 198.254545 249.357593 
L 195.903395 253.614545 
L 194.647273 255.862294 
L 193.453555 258.007273 
L 191.04 262.338436 
L 191.008652 262.4 
L 190.790891 266.792727 
L 190.713703 271.185455 
L 190.479569 275.578182 
L 190.245439 279.970909 
L 190.011308 284.363636 
L 189.777171 288.756364 
L 189.543041 293.149091 
L 189.308913 297.541818 
L 189.074773 301.934545 
L 188.840643 306.327273 
L 188.606509 310.72 
L 188.372379 315.112727 
L 188.138248 319.505455 
L 187.904112 323.898182 
L 187.669979 328.290909 
L 187.435846 332.683636 
L 187.432727 332.742154 
L 187.201714 337.076364 
L 186.967583 341.469091 
L 186.733448 345.861818 
L 186.499318 350.254545 
L 187.432727 352.800523 
L 189.969526 354.647273 
L 191.04 355.151743 
L 194.647273 356.851692 
L 198.254545 358.551642 
L 199.290837 359.04 
z
M 237.316916 315.112727 
L 234.327273 312.567866 
L 232.156444 310.72 
L 230.72 309.497262 
L 227.112727 306.426659 
L 227.045585 306.327273 
L 225.973742 301.934545 
L 225.622426 297.541818 
L 225.271112 293.149091 
L 224.919795 288.756364 
L 224.56848 284.363636 
L 224.227911 279.970909 
L 225.491118 275.578182 
L 227.112727 271.923575 
L 227.440244 271.185455 
L 229.38937 266.792727 
L 230.72 263.7939 
L 231.338496 262.4 
L 234.327273 259.415313 
L 237.505443 258.007273 
L 237.934545 257.817265 
L 241.541818 256.219952 
L 245.149091 254.622637 
L 248.756364 254.375728 
L 252.363636 255.19562 
L 255.970909 256.015514 
L 259.578182 256.835403 
L 263.185455 257.655295 
L 264.541257 258.007273 
L 266.792727 259.200436 
L 268.679275 262.4 
L 270.4 265.31833 
L 271.269345 266.792727 
L 273.859419 271.185455 
L 274.007273 271.484726 
L 275.231237 275.578182 
L 275.433206 279.970909 
L 275.635175 284.363636 
L 275.837144 288.756364 
L 276.039114 293.149091 
L 276.241082 297.541818 
L 276.443051 301.934545 
L 274.007273 305.716928 
L 273.180202 306.327273 
L 270.4 308.311899 
L 267.026563 310.72 
L 266.792727 310.886921 
L 263.185455 313.461947 
L 260.872928 315.112727 
L 259.578182 316.036972 
L 255.970909 317.128895 
L 252.363636 317.241064 
L 248.756364 317.353233 
L 245.149091 317.465402 
L 241.541818 317.403145 
L 237.934545 315.638471 
z
" style="fill:#e7745b;"/>
   </g>
   <g id="PathCollection_9">
    <path clip-path="url(#p91ebd36eb1)" d="M 237.934545 315.638471 
L 241.541818 317.403145 
L 245.149091 317.465402 
L 248.756364 317.353233 
L 252.363636 317.241064 
L 255.970909 317.128895 
L 259.578182 316.036972 
L 260.872928 315.112727 
L 263.185455 313.461947 
L 266.792727 310.886921 
L 267.026563 310.72 
L 270.4 308.311899 
L 273.180202 306.327273 
L 274.007273 305.716928 
L 276.443051 301.934545 
L 276.241082 297.541818 
L 276.039114 293.149091 
L 275.837144 288.756364 
L 275.635175 284.363636 
L 275.433206 279.970909 
L 275.231237 275.578182 
L 274.007273 271.484726 
L 273.859419 271.185455 
L 271.269345 266.792727 
L 270.4 265.31833 
L 268.679275 262.4 
L 266.792727 259.200436 
L 264.541257 258.007273 
L 263.185455 257.655295 
L 259.578182 256.835403 
L 255.970909 256.015514 
L 252.363636 255.19562 
L 248.756364 254.375728 
L 245.149091 254.622637 
L 241.541818 256.219952 
L 237.934545 257.817265 
L 237.505443 258.007273 
L 234.327273 259.415313 
L 231.338496 262.4 
L 230.72 263.7939 
L 229.38937 266.792727 
L 227.440244 271.185455 
L 227.112727 271.923575 
L 225.491118 275.578182 
L 224.227911 279.970909 
L 224.56848 284.363636 
L 224.919795 288.756364 
L 225.271112 293.149091 
L 225.622426 297.541818 
L 225.973742 301.934545 
L 227.045585 306.327273 
L 227.112727 306.426659 
L 230.72 309.497262 
L 232.156444 310.72 
L 234.327273 312.567866 
L 237.316916 315.112727 
z
" style="fill:#c83836;"/>
   </g>
   <g id="matplotlib.axis_1">
    <g id="xtick_1">
     <g id="line2d_1">
      <defs>
       <path d="M 0 0 
L 0 3.5 
" id="m4b9b8dbf7a" style="stroke:#000000;stroke-width:0.8;"/>
      </defs>
      <g>
       <use style="stroke:#000000;stroke-width:0.8;" x="107.712" xlink:href="#m4b9b8dbf7a" y="504"/>
      </g>
     </g>
     <g id="text_1">
      <!-- 4 -->
      <defs>
       <path d="M 10.59375 35.5 
L 73.1875 35.5 
L 73.1875 27.203125 
L 10.59375 27.203125 
z
" id="DejaVuSans-2212"/>
       <path d="M 37.796875 64.3125 
L 12.890625 25.390625 
L 37.796875 25.390625 
z
M 35.203125 72.90625 
L 47.609375 72.90625 
L 47.609375 25.390625 
L 58.015625 25.390625 
L 58.015625 17.1875 
L 47.609375 17.1875 
L 47.609375 0 
L 37.796875 0 
L 37.796875 17.1875 
L 4.890625 17.1875 
L 4.890625 26.703125 
z
" id="DejaVuSans-34"/>
      </defs>
      <g transform="translate(100.340906 518.598438)scale(0.1 -0.1)">
       <use xlink:href="#DejaVuSans-2212"/>
       <use x="83.789062" xlink:href="#DejaVuSans-34"/>
      </g>
     </g>
    </g>
    <g id="xtick_2">
     <g id="line2d_2">
      <g>
       <use style="stroke:#000000;stroke-width:0.8;" x="179.136" xlink:href="#m4b9b8dbf7a" y="504"/>
      </g>
     </g>
     <g id="text_2">
      <!-- 2 -->
      <defs>
       <path d="M 19.1875 8.296875 
L 53.609375 8.296875 
L 53.609375 0 
L 7.328125 0 
L 7.328125 8.296875 
Q 12.9375 14.109375 22.625 23.890625 
Q 32.328125 33.6875 34.8125 36.53125 
Q 39.546875 41.84375 41.421875 45.53125 
Q 43.3125 49.21875 43.3125 52.78125 
Q 43.3125 58.59375 39.234375 62.25 
Q 35.15625 65.921875 28.609375 65.921875 
Q 23.96875 65.921875 18.8125 64.3125 
Q 13.671875 62.703125 7.8125 59.421875 
L 7.8125 69.390625 
Q 13.765625 71.78125 18.9375 73 
Q 24.125 74.21875 28.421875 74.21875 
Q 39.75 74.21875 46.484375 68.546875 
Q 53.21875 62.890625 53.21875 53.421875 
Q 53.21875 48.921875 51.53125 44.890625 
Q 49.859375 40.875 45.40625 35.40625 
Q 44.1875 33.984375 37.640625 27.21875 
Q 31.109375 20.453125 19.1875 8.296875 
z
" id="DejaVuSans-32"/>
      </defs>
      <g transform="translate(171.764906 518.598438)scale(0.1 -0.1)">
       <use xlink:href="#DejaVuSans-2212"/>
       <use x="83.789062" xlink:href="#DejaVuSans-32"/>
      </g>
     </g>
    </g>
    <g id="xtick_3">
     <g id="line2d_3">
      <g>
       <use style="stroke:#000000;stroke-width:0.8;" x="250.56" xlink:href="#m4b9b8dbf7a" y="504"/>
      </g>
     </g>
     <g id="text_3">
      <!-- 0 -->
      <defs>
       <path d="M 31.78125 66.40625 
Q 24.171875 66.40625 20.328125 58.90625 
Q 16.5 51.421875 16.5 36.375 
Q 16.5 21.390625 20.328125 13.890625 
Q 24.171875 6.390625 31.78125 6.390625 
Q 39.453125 6.390625 43.28125 13.890625 
Q 47.125 21.390625 47.125 36.375 
Q 47.125 51.421875 43.28125 58.90625 
Q 39.453125 66.40625 31.78125 66.40625 
z
M 31.78125 74.21875 
Q 44.046875 74.21875 50.515625 64.515625 
Q 56.984375 54.828125 56.984375 36.375 
Q 56.984375 17.96875 50.515625 8.265625 
Q 44.046875 -1.421875 31.78125 -1.421875 
Q 19.53125 -1.421875 13.0625 8.265625 
Q 6.59375 17.96875 6.59375 36.375 
Q 6.59375 54.828125 13.0625 64.515625 
Q 19.53125 74.21875 31.78125 74.21875 
z
" id="DejaVuSans-30"/>
      </defs>
      <g transform="translate(247.37875 518.598438)scale(0.1 -0.1)">
       <use xlink:href="#DejaVuSans-30"/>
      </g>
     </g>
    </g>
    <g id="xtick_4">
     <g id="line2d_4">
      <g>
       <use style="stroke:#000000;stroke-width:0.8;" x="321.984" xlink:href="#m4b9b8dbf7a" y="504"/>
      </g>
     </g>
     <g id="text_4">
      <!-- 2 -->
      <g transform="translate(318.80275 518.598438)scale(0.1 -0.1)">
       <use xlink:href="#DejaVuSans-32"/>
      </g>
     </g>
    </g>
    <g id="xtick_5">
     <g id="line2d_5">
      <g>
       <use style="stroke:#000000;stroke-width:0.8;" x="393.408" xlink:href="#m4b9b8dbf7a" y="504"/>
      </g>
     </g>
     <g id="text_5">
      <!-- 4 -->
      <g transform="translate(390.22675 518.598438)scale(0.1 -0.1)">
       <use xlink:href="#DejaVuSans-34"/>
      </g>
     </g>
    </g>
   </g>
   <g id="matplotlib.axis_2">
    <g id="ytick_1">
     <g id="line2d_6">
      <defs>
       <path d="M 0 0 
L -3.5 0 
" id="mc9e775656f" style="stroke:#000000;stroke-width:0.8;"/>
      </defs>
      <g>
       <use style="stroke:#000000;stroke-width:0.8;" x="72" xlink:href="#mc9e775656f" y="460.512"/>
      </g>
     </g>
     <g id="text_6">
      <!-- 4 -->
      <g transform="translate(50.257812 464.311219)scale(0.1 -0.1)">
       <use xlink:href="#DejaVuSans-2212"/>
       <use x="83.789062" xlink:href="#DejaVuSans-34"/>
      </g>
     </g>
    </g>
    <g id="ytick_2">
     <g id="line2d_7">
      <g>
       <use style="stroke:#000000;stroke-width:0.8;" x="72" xlink:href="#mc9e775656f" y="373.536"/>
      </g>
     </g>
     <g id="text_7">
      <!-- 2 -->
      <g transform="translate(50.257812 377.335219)scale(0.1 -0.1)">
       <use xlink:href="#DejaVuSans-2212"/>
       <use x="83.789062" xlink:href="#DejaVuSans-32"/>
      </g>
     </g>
    </g>
    <g id="ytick_3">
     <g id="line2d_8">
      <g>
       <use style="stroke:#000000;stroke-width:0.8;" x="72" xlink:href="#mc9e775656f" y="286.56"/>
      </g>
     </g>
     <g id="text_8">
      <!-- 0 -->
      <g transform="translate(58.6375 290.359219)scale(0.1 -0.1)">
       <use xlink:href="#DejaVuSans-30"/>
      </g>
     </g>
    </g>
    <g id="ytick_4">
     <g id="line2d_9">
      <g>
       <use style="stroke:#000000;stroke-width:0.8;" x="72" xlink:href="#mc9e775656f" y="199.584"/>
      </g>
     </g>
     <g id="text_9">
      <!-- 2 -->
      <g transform="translate(58.6375 203.383219)scale(0.1 -0.1)">
       <use xlink:href="#DejaVuSans-32"/>
      </g>
     </g>
    </g>
    <g id="ytick_5">
     <g id="line2d_10">
      <g>
       <use style="stroke:#000000;stroke-width:0.8;" x="72" xlink:href="#mc9e775656f" y="112.608"/>
      </g>
     </g>
     <g id="text_10">
      <!-- 4 -->
      <g transform="translate(58.6375 116.407219)scale(0.1 -0.1)">
       <use xlink:href="#DejaVuSans-34"/>
      </g>
     </g>
    </g>
   </g>
   <g id="patch_3">
    <path d="M 72 504 
L 72 69.12 
" style="fill:none;stroke:#000000;stroke-linecap:square;stroke-linejoin:miter;stroke-width:0.8;"/>
   </g>
   <g id="patch_4">
    <path d="M 429.12 504 
L 429.12 69.12 
" style="fill:none;stroke:#000000;stroke-linecap:square;stroke-linejoin:miter;stroke-width:0.8;"/>
   </g>
   <g id="patch_5">
    <path d="M 72 504 
L 429.12 504 
" style="fill:none;stroke:#000000;stroke-linecap:square;stroke-linejoin:miter;stroke-width:0.8;"/>
   </g>
   <g id="patch_6">
    <path d="M 72 69.12 
L 429.12 69.12 
" style="fill:none;stroke:#000000;stroke-linecap:square;stroke-linejoin:miter;stroke-width:0.8;"/>
   </g>
  </g>
  <g id="axes_2">
   <g id="patch_7">
    <path clip-path="url(#p54d1390a95)" d="M 451.44 504 
L 451.44 455.68 
L 451.44 117.44 
L 451.44 69.12 
L 473.184 69.12 
L 473.184 117.44 
L 473.184 455.68 
L 473.184 504 
z
" style="fill:#ffffff;stroke:#ffffff;stroke-linejoin:miter;stroke-width:0.01;"/>
   </g>
   <g id="QuadMesh_1">
    <path clip-path="url(#p54d1390a95)" d="M 451.44 504 
L 473.184 504 
L 473.184 455.68 
L 451.44 455.68 
L 451.44 504 
" style="fill:#4b64d5;"/>
    <path clip-path="url(#p54d1390a95)" d="M 451.44 455.68 
L 473.184 455.68 
L 473.184 407.36 
L 451.44 407.36 
L 451.44 455.68 
" style="fill:#6f92f3;"/>
    <path clip-path="url(#p54d1390a95)" d="M 451.44 407.36 
L 473.184 407.36 
L 473.184 359.04 
L 451.44 359.04 
L 451.44 407.36 
" style="fill:#97b8ff;"/>
    <path clip-path="url(#p54d1390a95)" d="M 451.44 359.04 
L 473.184 359.04 
L 473.184 310.72 
L 451.44 310.72 
L 451.44 359.04 
" style="fill:#bcd2f7;"/>
    <path clip-path="url(#p54d1390a95)" d="M 451.44 310.72 
L 473.184 310.72 
L 473.184 262.4 
L 451.44 262.4 
L 451.44 310.72 
" style="fill:#dddcdc;"/>
    <path clip-path="url(#p54d1390a95)" d="M 451.44 262.4 
L 473.184 262.4 
L 473.184 214.08 
L 451.44 214.08 
L 451.44 262.4 
" style="fill:#f3c8b2;"/>
    <path clip-path="url(#p54d1390a95)" d="M 451.44 214.08 
L 473.184 214.08 
L 473.184 165.76 
L 451.44 165.76 
L 451.44 214.08 
" style="fill:#f6a586;"/>
    <path clip-path="url(#p54d1390a95)" d="M 451.44 165.76 
L 473.184 165.76 
L 473.184 117.44 
L 451.44 117.44 
L 451.44 165.76 
" style="fill:#e7745b;"/>
    <path clip-path="url(#p54d1390a95)" d="M 451.44 117.44 
L 473.184 117.44 
L 473.184 69.12 
L 451.44 69.12 
L 451.44 117.44 
" style="fill:#c83836;"/>
   </g>
   <g id="matplotlib.axis_3"/>
   <g id="matplotlib.axis_4">
    <g id="ytick_6">
     <g id="line2d_11">
      <defs>
       <path d="M 0 0 
L 3.5 0 
" id="mdde99dff7e" style="stroke:#000000;stroke-width:0.8;"/>
      </defs>
      <g>
       <use style="stroke:#000000;stroke-width:0.8;" x="473.184" xlink:href="#mdde99dff7e" y="504"/>
      </g>
     </g>
     <g id="text_11">
      <!-- 200 -->
      <g transform="translate(480.184 507.799219)scale(0.1 -0.1)">
       <use xlink:href="#DejaVuSans-2212"/>
       <use x="83.789062" xlink:href="#DejaVuSans-32"/>
       <use x="147.412109" xlink:href="#DejaVuSans-30"/>
       <use x="211.035156" xlink:href="#DejaVuSans-30"/>
      </g>
     </g>
    </g>
    <g id="ytick_7">
     <g id="line2d_12">
      <g>
       <use style="stroke:#000000;stroke-width:0.8;" x="473.184" xlink:href="#mdde99dff7e" y="455.68"/>
      </g>
     </g>
     <g id="text_12">
      <!-- 175 -->
      <defs>
       <path d="M 12.40625 8.296875 
L 28.515625 8.296875 
L 28.515625 63.921875 
L 10.984375 60.40625 
L 10.984375 69.390625 
L 28.421875 72.90625 
L 38.28125 72.90625 
L 38.28125 8.296875 
L 54.390625 8.296875 
L 54.390625 0 
L 12.40625 0 
z
" id="DejaVuSans-31"/>
       <path d="M 8.203125 72.90625 
L 55.078125 72.90625 
L 55.078125 68.703125 
L 28.609375 0 
L 18.3125 0 
L 43.21875 64.59375 
L 8.203125 64.59375 
z
" id="DejaVuSans-37"/>
       <path d="M 10.796875 72.90625 
L 49.515625 72.90625 
L 49.515625 64.59375 
L 19.828125 64.59375 
L 19.828125 46.734375 
Q 21.96875 47.46875 24.109375 47.828125 
Q 26.265625 48.1875 28.421875 48.1875 
Q 40.625 48.1875 47.75 41.5 
Q 54.890625 34.8125 54.890625 23.390625 
Q 54.890625 11.625 47.5625 5.09375 
Q 40.234375 -1.421875 26.90625 -1.421875 
Q 22.3125 -1.421875 17.546875 -0.640625 
Q 12.796875 0.140625 7.71875 1.703125 
L 7.71875 11.625 
Q 12.109375 9.234375 16.796875 8.0625 
Q 21.484375 6.890625 26.703125 6.890625 
Q 35.15625 6.890625 40.078125 11.328125 
Q 45.015625 15.765625 45.015625 23.390625 
Q 45.015625 31 40.078125 35.4375 
Q 35.15625 39.890625 26.703125 39.890625 
Q 22.75 39.890625 18.8125 39.015625 
Q 14.890625 38.140625 10.796875 36.28125 
z
" id="DejaVuSans-35"/>
      </defs>
      <g transform="translate(480.184 459.479219)scale(0.1 -0.1)">
       <use xlink:href="#DejaVuSans-2212"/>
       <use x="83.789062" xlink:href="#DejaVuSans-31"/>
       <use x="147.412109" xlink:href="#DejaVuSans-37"/>
       <use x="211.035156" xlink:href="#DejaVuSans-35"/>
      </g>
     </g>
    </g>
    <g id="ytick_8">
     <g id="line2d_13">
      <g>
       <use style="stroke:#000000;stroke-width:0.8;" x="473.184" xlink:href="#mdde99dff7e" y="407.36"/>
      </g>
     </g>
     <g id="text_13">
      <!-- 150 -->
      <g transform="translate(480.184 411.159219)scale(0.1 -0.1)">
       <use xlink:href="#DejaVuSans-2212"/>
       <use x="83.789062" xlink:href="#DejaVuSans-31"/>
       <use x="147.412109" xlink:href="#DejaVuSans-35"/>
       <use x="211.035156" xlink:href="#DejaVuSans-30"/>
      </g>
     </g>
    </g>
    <g id="ytick_9">
     <g id="line2d_14">
      <g>
       <use style="stroke:#000000;stroke-width:0.8;" x="473.184" xlink:href="#mdde99dff7e" y="359.04"/>
      </g>
     </g>
     <g id="text_14">
      <!-- 125 -->
      <g transform="translate(480.184 362.839219)scale(0.1 -0.1)">
       <use xlink:href="#DejaVuSans-2212"/>
       <use x="83.789062" xlink:href="#DejaVuSans-31"/>
       <use x="147.412109" xlink:href="#DejaVuSans-32"/>
       <use x="211.035156" xlink:href="#DejaVuSans-35"/>
      </g>
     </g>
    </g>
    <g id="ytick_10">
     <g id="line2d_15">
      <g>
       <use style="stroke:#000000;stroke-width:0.8;" x="473.184" xlink:href="#mdde99dff7e" y="310.72"/>
      </g>
     </g>
     <g id="text_15">
      <!-- 100 -->
      <g transform="translate(480.184 314.519219)scale(0.1 -0.1)">
       <use xlink:href="#DejaVuSans-2212"/>
       <use x="83.789062" xlink:href="#DejaVuSans-31"/>
       <use x="147.412109" xlink:href="#DejaVuSans-30"/>
       <use x="211.035156" xlink:href="#DejaVuSans-30"/>
      </g>
     </g>
    </g>
    <g id="ytick_11">
     <g id="line2d_16">
      <g>
       <use style="stroke:#000000;stroke-width:0.8;" x="473.184" xlink:href="#mdde99dff7e" y="262.4"/>
      </g>
     </g>
     <g id="text_16">
      <!-- 75 -->
      <g transform="translate(480.184 266.199219)scale(0.1 -0.1)">
       <use xlink:href="#DejaVuSans-2212"/>
       <use x="83.789062" xlink:href="#DejaVuSans-37"/>
       <use x="147.412109" xlink:href="#DejaVuSans-35"/>
      </g>
     </g>
    </g>
    <g id="ytick_12">
     <g id="line2d_17">
      <g>
       <use style="stroke:#000000;stroke-width:0.8;" x="473.184" xlink:href="#mdde99dff7e" y="214.08"/>
      </g>
     </g>
     <g id="text_17">
      <!-- 50 -->
      <g transform="translate(480.184 217.879219)scale(0.1 -0.1)">
       <use xlink:href="#DejaVuSans-2212"/>
       <use x="83.789062" xlink:href="#DejaVuSans-35"/>
       <use x="147.412109" xlink:href="#DejaVuSans-30"/>
      </g>
     </g>
    </g>
    <g id="ytick_13">
     <g id="line2d_18">
      <g>
       <use style="stroke:#000000;stroke-width:0.8;" x="473.184" xlink:href="#mdde99dff7e" y="165.76"/>
      </g>
     </g>
     <g id="text_18">
      <!-- 25 -->
      <g transform="translate(480.184 169.559219)scale(0.1 -0.1)">
       <use xlink:href="#DejaVuSans-2212"/>
       <use x="83.789062" xlink:href="#DejaVuSans-32"/>
       <use x="147.412109" xlink:href="#DejaVuSans-35"/>
      </g>
     </g>
    </g>
    <g id="ytick_14">
     <g id="line2d_19">
      <g>
       <use style="stroke:#000000;stroke-width:0.8;" x="473.184" xlink:href="#mdde99dff7e" y="117.44"/>
      </g>
     </g>
     <g id="text_19">
      <!-- 0 -->
      <g transform="translate(480.184 121.239219)scale(0.1 -0.1)">
       <use xlink:href="#DejaVuSans-30"/>
      </g>
     </g>
    </g>
    <g id="ytick_15">
     <g id="line2d_20">
      <g>
       <use style="stroke:#000000;stroke-width:0.8;" x="473.184" xlink:href="#mdde99dff7e" y="69.12"/>
      </g>
     </g>
     <g id="text_20">
      <!-- 25 -->
      <g transform="translate(480.184 72.919219)scale(0.1 -0.1)">
       <use xlink:href="#DejaVuSans-32"/>
       <use x="63.623047" xlink:href="#DejaVuSans-35"/>
      </g>
     </g>
    </g>
   </g>
   <g id="patch_8">
    <path d="M 451.44 504 
L 451.44 455.68 
L 451.44 117.44 
L 451.44 69.12 
L 473.184 69.12 
L 473.184 117.44 
L 473.184 455.68 
L 473.184 504 
z
" style="fill:none;stroke:#000000;stroke-linejoin:miter;stroke-width:0.8;"/>
   </g>
  </g>
 </g>
 <defs>
  <clipPath id="p91ebd36eb1">
   <rect height="434.88" width="357.12" x="72" y="69.12"/>
  </clipPath>
  <clipPath id="p54d1390a95">
   <rect height="434.88" width="21.744" x="451.44" y="69.12"/>
  </clipPath>
 </defs>
</svg>
