<?xml version="1.0" encoding="utf-8" standalone="no"?>
<!DOCTYPE svg PUBLIC "-//W3C//DTD SVG 1.1//EN"
  "http://www.w3.org/Graphics/SVG/1.1/DTD/svg11.dtd">
<!-- Created with matplotlib (http://matplotlib.org/) -->
<svg height="576pt" version="1.1" viewBox="0 0 576 576" width="576pt" xmlns="http://www.w3.org/2000/svg" xmlns:xlink="http://www.w3.org/1999/xlink">
 <defs>
  <style type="text/css">
*{stroke-linecap:butt;stroke-linejoin:round;}
  </style>
 </defs>
 <g id="figure_1">
  <g id="patch_1">
   <path d="M 0 576 
L 576 576 
L 576 0 
L 0 0 
z
" style="fill:#ffffff;"/>
  </g>
  <g id="axes_1">
   <g id="patch_2">
    <path d="M 72 504 
L 429.12 504 
L 429.12 69.12 
L 72 69.12 
z
" style="fill:#ffffff;"/>
   </g>
   <g id="PathCollection_1">
    <path clip-path="url(#pf700bca86e)" d="M 418.298182 504 
L 421.905455 504 
L 425.512727 504 
L 429.12 504 
L 429.12 499.607273 
L 429.12 495.214545 
L 429.12 490.821818 
L 429.12 486.429091 
L 429.12 482.036364 
L 429.12 477.643636 
L 429.12 473.250909 
L 429.12 468.858182 
L 429.12 464.465455 
L 429.12 460.072727 
L 429.12 455.68 
L 429.12 451.287273 
L 429.12 449.966854 
L 428.702405 451.287273 
L 427.313179 455.68 
L 426.018521 460.072727 
L 425.512727 462.148232 
L 424.977592 464.465455 
L 423.963134 468.858182 
L 422.948671 473.250909 
L 421.934246 477.643636 
L 421.905455 477.768307 
L 420.919795 482.036364 
L 419.905358 486.429091 
L 418.890907 490.821818 
L 418.298182 493.38841 
L 417.876455 495.214545 
L 416.862025 499.607273 
L 415.847564 504 
z
" style="fill:#4b64d5;"/>
    <path clip-path="url(#pf700bca86e)" d="M 74.162296 113.047273 
L 75.607273 110.450472 
L 76.606612 108.654545 
L 79.050987 104.261818 
L 79.214545 103.967885 
L 81.49533 99.869091 
L 82.821818 97.485246 
L 83.939653 95.476364 
L 86.383803 91.083636 
L 86.429091 91.002226 
L 88.827116 86.690909 
L 90.036364 84.516864 
L 91.472073 82.298182 
L 93.643636 80.581281 
L 97.250909 79.631033 
L 100.858182 78.680824 
L 103.801534 77.905455 
L 104.465455 77.730556 
L 108.072727 76.780311 
L 111.68 75.830066 
L 115.287273 74.879821 
L 118.894545 73.929576 
L 120.476966 73.512727 
L 122.501818 72.979333 
L 126.109091 72.029091 
L 129.716364 71.078841 
L 133.323636 70.128593 
L 136.706145 69.12 
L 133.323636 69.12 
L 129.716364 69.12 
L 126.109091 69.12 
L 122.501818 69.12 
L 118.894545 69.12 
L 115.287273 69.12 
L 111.68 69.12 
L 108.072727 69.12 
L 104.465455 69.12 
L 100.858182 69.12 
L 97.250909 69.12 
L 93.643636 69.12 
L 90.036364 69.12 
L 86.429091 69.12 
L 82.821818 69.12 
L 79.214545 69.12 
L 75.607273 69.12 
L 72 69.12 
L 72 73.512727 
L 72 77.905455 
L 72 82.298182 
L 72 86.690909 
L 72 91.083636 
L 72 95.476364 
L 72 99.869091 
L 72 104.261818 
L 72 108.654545 
L 72 113.047273 
L 72 116.933077 
z
" style="fill:#4b64d5;"/>
    <path clip-path="url(#pf700bca86e)" d="M 429.12 84.379712 
L 429.12 82.298182 
L 429.12 77.905455 
L 429.12 73.512727 
L 429.12 69.12 
L 425.512727 69.12 
L 421.905455 69.12 
L 419.527492 69.12 
L 421.905455 72.902843 
L 422.288839 73.512727 
L 425.050183 77.905455 
L 425.512727 78.641257 
L 427.811539 82.298182 
z
" style="fill:#4b64d5;"/>
   </g>
   <g id="PathCollection_2">
    <path clip-path="url(#pf700bca86e)" d="M 375.010909 504 
L 378.618182 504 
L 382.225455 504 
L 385.832727 504 
L 389.44 504 
L 393.047273 504 
L 396.654545 504 
L 400.261818 504 
L 403.869091 504 
L 407.476364 504 
L 411.083636 504 
L 414.690909 504 
L 415.847564 504 
L 416.862025 499.607273 
L 417.876455 495.214545 
L 418.298182 493.38841 
L 418.890907 490.821818 
L 419.905358 486.429091 
L 420.919795 482.036364 
L 421.905455 477.768307 
L 421.934246 477.643636 
L 422.948671 473.250909 
L 423.963134 468.858182 
L 424.977592 464.465455 
L 425.512727 462.148232 
L 426.018521 460.072727 
L 427.313179 455.68 
L 428.702405 451.287273 
L 429.12 449.966854 
L 429.12 446.894545 
L 429.12 442.501818 
L 429.12 438.109091 
L 429.12 433.716364 
L 429.12 429.323636 
L 429.12 424.930909 
L 429.12 420.538182 
L 429.12 416.145455 
L 429.12 411.752727 
L 429.12 407.36 
L 429.12 402.967273 
L 429.12 398.574545 
L 429.12 394.181818 
L 429.12 389.789091 
L 429.12 385.396364 
L 429.12 381.003636 
L 429.12 376.610909 
L 429.12 372.218182 
L 429.12 367.825455 
L 429.12 363.432727 
L 429.12 359.04 
L 429.12 357.686389 
L 428.691658 359.04 
L 427.301606 363.432727 
L 425.911567 367.825455 
L 425.512727 369.085828 
L 424.521576 372.218182 
L 423.132274 376.610909 
L 421.905455 380.490109 
L 421.743048 381.003636 
L 420.353837 385.396364 
L 418.964611 389.789091 
L 418.298182 391.896361 
L 417.575397 394.181818 
L 416.186172 398.574545 
L 414.796934 402.967273 
L 414.690909 403.302528 
L 413.407726 407.36 
L 412.0185 411.752727 
L 411.083636 414.708782 
L 410.629279 416.145455 
L 409.240037 420.538182 
L 407.850806 424.930909 
L 407.476364 426.114911 
L 406.461603 429.323636 
L 405.248871 433.716364 
L 404.224008 438.109091 
L 403.869091 439.645966 
L 403.209582 442.501818 
L 402.195146 446.894545 
L 401.180694 451.287273 
L 400.261818 455.266146 
L 400.166244 455.68 
L 399.151815 460.072727 
L 398.137383 464.465455 
L 397.12293 468.858182 
L 396.654545 470.88634 
L 396.10847 473.250909 
L 395.094038 477.643636 
L 394.079607 482.036364 
L 393.047273 485.393189 
L 392.294516 486.429091 
L 389.44 488.259211 
L 385.832727 490.571948 
L 385.442994 490.821818 
L 382.225455 492.884665 
L 378.810199 495.214545 
L 378.618182 495.406259 
L 375.763181 499.607273 
L 375.010909 500.714232 
L 372.777954 504 
z
" style="fill:#6f92f3;"/>
    <path clip-path="url(#pf700bca86e)" d="M 75.607273 162.550256 
L 76.979896 161.367273 
L 79.214545 159.441342 
L 82.076778 156.974545 
L 82.821818 156.227609 
L 85.376447 152.581818 
L 86.429091 150.690118 
L 87.820797 148.189091 
L 90.036364 144.207509 
L 90.265147 143.796364 
L 92.709497 139.403636 
L 93.643636 137.724901 
L 95.153841 135.010909 
L 97.250909 131.242288 
L 97.5982 130.618182 
L 100.042527 126.225455 
L 100.858182 124.759664 
L 102.486898 121.832727 
L 104.465455 118.276732 
L 104.930923 117.44 
L 107.374243 113.047273 
L 108.072727 111.791483 
L 109.817536 108.654545 
L 111.68 106.687376 
L 115.287273 105.423843 
L 118.894545 104.473628 
L 119.698612 104.261818 
L 122.501818 103.523379 
L 126.109091 102.573108 
L 129.716364 101.622863 
L 133.323636 100.672634 
L 136.373957 99.869091 
L 136.930909 99.722374 
L 140.538182 98.772136 
L 144.145455 97.821891 
L 147.752727 96.87166 
L 151.36 95.921392 
L 153.049402 95.476364 
L 154.967273 94.936913 
L 158.574545 93.582377 
L 162.181818 92.208418 
L 165.134922 91.083636 
L 165.789091 90.834477 
L 169.396364 89.460534 
L 173.003636 88.086575 
L 176.610909 86.712632 
L 176.667944 86.690909 
L 180.218182 85.33869 
L 183.825455 83.964758 
L 187.432727 82.590805 
L 188.20099 82.298182 
L 191.04 81.216843 
L 194.647273 79.842907 
L 198.254545 78.468973 
L 199.734074 77.905455 
L 201.861818 77.095037 
L 205.469091 75.721095 
L 209.076364 74.347129 
L 211.267095 73.512727 
L 212.683636 72.973196 
L 216.290909 71.59924 
L 219.898182 70.225301 
L 222.800125 69.12 
L 219.898182 69.12 
L 216.290909 69.12 
L 212.683636 69.12 
L 209.076364 69.12 
L 205.469091 69.12 
L 201.861818 69.12 
L 198.254545 69.12 
L 194.647273 69.12 
L 191.04 69.12 
L 187.432727 69.12 
L 183.825455 69.12 
L 180.218182 69.12 
L 176.610909 69.12 
L 173.003636 69.12 
L 169.396364 69.12 
L 165.789091 69.12 
L 162.181818 69.12 
L 158.574545 69.12 
L 154.967273 69.12 
L 151.36 69.12 
L 147.752727 69.12 
L 144.145455 69.12 
L 140.538182 69.12 
L 136.930909 69.12 
L 136.706145 69.12 
L 133.323636 70.128593 
L 129.716364 71.078841 
L 126.109091 72.029091 
L 122.501818 72.979333 
L 120.476966 73.512727 
L 118.894545 73.929576 
L 115.287273 74.879821 
L 111.68 75.830066 
L 108.072727 76.780311 
L 104.465455 77.730556 
L 103.801534 77.905455 
L 100.858182 78.680824 
L 97.250909 79.631033 
L 93.643636 80.581281 
L 91.472073 82.298182 
L 90.036364 84.516864 
L 88.827116 86.690909 
L 86.429091 91.002226 
L 86.383803 91.083636 
L 83.939653 95.476364 
L 82.821818 97.485246 
L 81.49533 99.869091 
L 79.214545 103.967885 
L 79.050987 104.261818 
L 76.606612 108.654545 
L 75.607273 110.450472 
L 74.162296 113.047273 
L 72 116.933077 
L 72 117.44 
L 72 121.832727 
L 72 126.225455 
L 72 130.618182 
L 72 135.010909 
L 72 139.403636 
L 72 143.796364 
L 72 148.189091 
L 72 152.581818 
L 72 156.974545 
L 72 161.367273 
L 72 165.659152 
z
" style="fill:#6f92f3;"/>
    <path clip-path="url(#pf700bca86e)" d="M 429.12 145.457045 
L 429.12 143.796364 
L 429.12 139.403636 
L 429.12 135.010909 
L 429.12 130.618182 
L 429.12 126.225455 
L 429.12 121.832727 
L 429.12 117.44 
L 429.12 113.047273 
L 429.12 108.654545 
L 429.12 104.261818 
L 429.12 99.869091 
L 429.12 95.476364 
L 429.12 91.083636 
L 429.12 86.690909 
L 429.12 84.379712 
L 427.811539 82.298182 
L 425.512727 78.641257 
L 425.050183 77.905455 
L 422.288839 73.512727 
L 421.905455 72.902843 
L 419.527492 69.12 
L 418.298182 69.12 
L 414.690909 69.12 
L 411.083636 69.12 
L 407.476364 69.12 
L 403.869091 69.12 
L 400.261818 69.12 
L 396.654545 69.12 
L 393.047273 69.12 
L 389.44 69.12 
L 385.832727 69.12 
L 382.225455 69.12 
L 381.194131 69.12 
L 382.225455 70.761493 
L 383.954019 73.512727 
L 385.832727 76.502997 
L 386.713859 77.905455 
L 389.44 82.244497 
L 389.473729 82.298182 
L 392.233579 86.690909 
L 393.047273 87.986027 
L 394.993409 91.083636 
L 396.654545 93.727471 
L 397.75367 95.476364 
L 400.261818 99.466348 
L 400.51499 99.869091 
L 403.276317 104.261818 
L 403.869091 105.204792 
L 406.037659 108.654545 
L 407.476364 110.943266 
L 408.798985 113.047273 
L 411.083636 116.681613 
L 411.56037 117.44 
L 414.321667 121.832727 
L 414.690909 122.420124 
L 417.083016 126.225455 
L 418.298182 128.158523 
L 419.844365 130.618182 
L 421.905455 133.896952 
L 422.605707 135.010909 
L 425.367049 139.403636 
L 425.512727 139.636506 
L 428.100446 143.796364 
z
" style="fill:#6f92f3;"/>
   </g>
   <g id="PathCollection_3">
    <path clip-path="url(#pf700bca86e)" d="M 335.330909 504 
L 338.938182 504 
L 342.545455 504 
L 346.152727 504 
L 349.76 504 
L 353.367273 504 
L 356.974545 504 
L 360.581818 504 
L 364.189091 504 
L 367.796364 504 
L 371.403636 504 
L 372.777954 504 
L 375.010909 500.714232 
L 375.763181 499.607273 
L 378.618182 495.406259 
L 378.810199 495.214545 
L 382.225455 492.884665 
L 385.442994 490.821818 
L 385.832727 490.571948 
L 389.44 488.259211 
L 392.294516 486.429091 
L 393.047273 485.393189 
L 394.079607 482.036364 
L 395.094038 477.643636 
L 396.10847 473.250909 
L 396.654545 470.88634 
L 397.12293 468.858182 
L 398.137383 464.465455 
L 399.151815 460.072727 
L 400.166244 455.68 
L 400.261818 455.266146 
L 401.180694 451.287273 
L 402.195146 446.894545 
L 403.209582 442.501818 
L 403.869091 439.645966 
L 404.224008 438.109091 
L 405.248871 433.716364 
L 406.461603 429.323636 
L 407.476364 426.114911 
L 407.850806 424.930909 
L 409.240037 420.538182 
L 410.629279 416.145455 
L 411.083636 414.708782 
L 412.0185 411.752727 
L 413.407726 407.36 
L 414.690909 403.302528 
L 414.796934 402.967273 
L 416.186172 398.574545 
L 417.575397 394.181818 
L 418.298182 391.896361 
L 418.964611 389.789091 
L 420.353837 385.396364 
L 421.743048 381.003636 
L 421.905455 380.490109 
L 423.132274 376.610909 
L 424.521576 372.218182 
L 425.512727 369.085828 
L 425.911567 367.825455 
L 427.301606 363.432727 
L 428.691658 359.04 
L 429.12 357.686389 
L 429.12 354.647273 
L 429.12 350.254545 
L 429.12 345.861818 
L 429.12 341.469091 
L 429.12 337.076364 
L 429.12 332.683636 
L 429.12 328.290909 
L 429.12 323.898182 
L 429.12 319.505455 
L 429.12 315.112727 
L 429.12 310.72 
L 429.12 306.327273 
L 429.12 301.934545 
L 429.12 297.541818 
L 429.12 293.149091 
L 429.12 288.756364 
L 429.12 284.363636 
L 429.12 279.970909 
L 429.12 275.578182 
L 429.12 271.185455 
L 429.12 266.792727 
L 429.12 265.443198 
L 428.692946 266.792727 
L 427.30289 271.185455 
L 425.912843 275.578182 
L 425.512727 276.84259 
L 424.522771 279.970909 
L 423.132712 284.363636 
L 421.905455 288.241874 
L 421.742645 288.756364 
L 420.3526 293.149091 
L 418.962545 297.541818 
L 418.298182 299.641297 
L 417.572499 301.934545 
L 416.182429 306.327273 
L 414.792372 310.72 
L 414.690909 311.040633 
L 413.402314 315.112727 
L 412.012268 319.505455 
L 411.083636 322.44007 
L 410.622227 323.898182 
L 409.232149 328.290909 
L 407.842099 332.683636 
L 407.476364 333.839385 
L 406.45203 337.076364 
L 405.061984 341.469091 
L 403.869091 345.238756 
L 403.671926 345.861818 
L 402.281862 350.254545 
L 400.891798 354.647273 
L 400.261818 356.638685 
L 399.50225 359.04 
L 398.11303 363.432727 
L 396.723813 367.825455 
L 396.654545 368.044481 
L 395.334591 372.218182 
L 393.945354 376.610909 
L 393.047273 379.450675 
L 392.556146 381.003636 
L 391.166908 385.396364 
L 389.777699 389.789091 
L 389.44 390.856891 
L 388.388468 394.181818 
L 386.999246 398.574545 
L 385.832727 402.263105 
L 385.620372 402.967273 
L 384.484954 407.36 
L 383.470508 411.752727 
L 382.456058 416.145455 
L 382.225455 417.144014 
L 381.441617 420.538182 
L 380.42717 424.930909 
L 379.412733 429.323636 
L 378.618182 432.764209 
L 378.398293 433.716364 
L 377.383831 438.109091 
L 376.369391 442.501818 
L 375.354944 446.894545 
L 375.010909 448.384286 
L 374.340506 451.287273 
L 373.326055 455.68 
L 371.403636 459.026446 
L 369.983411 460.072727 
L 367.796364 461.474912 
L 364.189091 463.787649 
L 363.131889 464.465455 
L 360.581818 466.10037 
L 356.974545 468.413085 
L 356.489752 468.858182 
L 353.367273 473.053867 
L 353.233365 473.250909 
L 350.248094 477.643636 
L 349.76 478.36186 
L 347.262849 482.036364 
L 346.152727 483.669883 
L 344.277601 486.429091 
L 342.545455 488.977907 
L 341.292361 490.821818 
L 338.938182 494.28589 
L 338.307069 495.214545 
L 335.330909 499.593925 
L 335.321838 499.607273 
L 332.336566 504 
z
" style="fill:#97b8ff;"/>
    <path clip-path="url(#pf700bca86e)" d="M 73.289837 205.294545 
L 75.607273 203.297297 
L 78.386745 200.901818 
L 79.214545 200.188381 
L 82.821818 197.079485 
L 83.48365 196.509091 
L 86.429091 193.970589 
L 88.580546 192.116364 
L 90.036364 190.861666 
L 93.643636 187.752776 
L 93.677447 187.723636 
L 97.250909 184.643873 
L 98.774347 183.330909 
L 100.858182 181.534971 
L 103.730293 178.938182 
L 104.465455 177.964516 
L 106.368001 174.545455 
L 108.072727 171.481936 
L 108.812372 170.152727 
L 111.256694 165.76 
L 111.68 164.999281 
L 113.701069 161.367273 
L 115.287273 158.516689 
L 116.145401 156.974545 
L 118.589758 152.581818 
L 118.894545 152.034086 
L 121.034093 148.189091 
L 122.501818 145.551196 
L 123.478019 143.796364 
L 125.921342 139.403636 
L 126.109091 139.066087 
L 128.364627 135.010909 
L 129.716364 133.054784 
L 133.323636 131.216668 
L 135.59552 130.618182 
L 136.930909 130.266397 
L 140.538182 129.316173 
L 144.145455 128.365937 
L 147.752727 127.415661 
L 151.36 126.465416 
L 152.270945 126.225455 
L 154.967273 125.515184 
L 158.574545 124.564942 
L 162.181818 123.614681 
L 165.789091 122.664436 
L 168.946383 121.832727 
L 169.396364 121.714191 
L 173.003636 120.730637 
L 176.610909 119.490635 
L 180.218182 118.116704 
L 181.994855 117.44 
L 183.825455 116.742753 
L 187.432727 115.368808 
L 191.04 113.994863 
L 193.527898 113.047273 
L 194.647273 112.620924 
L 198.254545 111.246962 
L 201.861818 109.873018 
L 205.060881 108.654545 
L 205.469091 108.499065 
L 209.076364 107.125139 
L 212.683636 105.751202 
L 216.290909 104.377253 
L 216.593981 104.261818 
L 219.898182 103.003295 
L 223.505455 101.629353 
L 227.112727 100.255411 
L 228.126994 99.869091 
L 230.72 98.881459 
L 234.327273 97.507511 
L 237.934545 96.133562 
L 239.660027 95.476364 
L 241.541818 94.759625 
L 245.149091 93.385674 
L 248.756364 92.011724 
L 251.193049 91.083636 
L 252.363636 90.637783 
L 255.970909 89.263839 
L 259.578182 87.889893 
L 262.726114 86.690909 
L 263.185455 86.515955 
L 266.792727 85.141996 
L 270.4 83.768048 
L 274.007273 82.394127 
L 274.259173 82.298182 
L 277.614545 81.020162 
L 281.221818 79.646214 
L 284.829091 78.272267 
L 285.792145 77.905455 
L 288.436364 76.898317 
L 292.043636 75.524393 
L 295.650909 74.150425 
L 297.325178 73.512727 
L 299.258182 72.776491 
L 302.865455 71.402556 
L 306.472727 70.028608 
L 308.858258 69.12 
L 306.472727 69.12 
L 302.865455 69.12 
L 299.258182 69.12 
L 295.650909 69.12 
L 292.043636 69.12 
L 288.436364 69.12 
L 284.829091 69.12 
L 281.221818 69.12 
L 277.614545 69.12 
L 274.007273 69.12 
L 270.4 69.12 
L 266.792727 69.12 
L 263.185455 69.12 
L 259.578182 69.12 
L 255.970909 69.12 
L 252.363636 69.12 
L 248.756364 69.12 
L 245.149091 69.12 
L 241.541818 69.12 
L 237.934545 69.12 
L 234.327273 69.12 
L 230.72 69.12 
L 227.112727 69.12 
L 223.505455 69.12 
L 222.800125 69.12 
L 219.898182 70.225301 
L 216.290909 71.59924 
L 212.683636 72.973196 
L 211.267095 73.512727 
L 209.076364 74.347129 
L 205.469091 75.721095 
L 201.861818 77.095037 
L 199.734074 77.905455 
L 198.254545 78.468973 
L 194.647273 79.842907 
L 191.04 81.216843 
L 188.20099 82.298182 
L 187.432727 82.590805 
L 183.825455 83.964758 
L 180.218182 85.33869 
L 176.667944 86.690909 
L 176.610909 86.712632 
L 173.003636 88.086575 
L 169.396364 89.460534 
L 165.789091 90.834477 
L 165.134922 91.083636 
L 162.181818 92.208418 
L 158.574545 93.582377 
L 154.967273 94.936913 
L 153.049402 95.476364 
L 151.36 95.921392 
L 147.752727 96.87166 
L 144.145455 97.821891 
L 140.538182 98.772136 
L 136.930909 99.722374 
L 136.373957 99.869091 
L 133.323636 100.672634 
L 129.716364 101.622863 
L 126.109091 102.573108 
L 122.501818 103.523379 
L 119.698612 104.261818 
L 118.894545 104.473628 
L 115.287273 105.423843 
L 111.68 106.687376 
L 109.817536 108.654545 
L 108.072727 111.791483 
L 107.374243 113.047273 
L 104.930923 117.44 
L 104.465455 118.276732 
L 102.486898 121.832727 
L 100.858182 124.759664 
L 100.042527 126.225455 
L 97.5982 130.618182 
L 97.250909 131.242288 
L 95.153841 135.010909 
L 93.643636 137.724901 
L 92.709497 139.403636 
L 90.265147 143.796364 
L 90.036364 144.207509 
L 87.820797 148.189091 
L 86.429091 150.690118 
L 85.376447 152.581818 
L 82.821818 156.227609 
L 82.076778 156.974545 
L 79.214545 159.441342 
L 76.979896 161.367273 
L 75.607273 162.550256 
L 72 165.659152 
L 72 165.76 
L 72 170.152727 
L 72 174.545455 
L 72 178.938182 
L 72 183.330909 
L 72 187.723636 
L 72 192.116364 
L 72 196.509091 
L 72 200.901818 
L 72 205.294545 
L 72 206.406173 
z
" style="fill:#97b8ff;"/>
    <path clip-path="url(#pf700bca86e)" d="M 429.12 207.438592 
L 429.12 205.294545 
L 429.12 200.901818 
L 429.12 196.509091 
L 429.12 192.116364 
L 429.12 187.723636 
L 429.12 183.330909 
L 429.12 178.938182 
L 429.12 174.545455 
L 429.12 170.152727 
L 429.12 165.76 
L 429.12 161.367273 
L 429.12 156.974545 
L 429.12 152.581818 
L 429.12 148.189091 
L 429.12 145.457045 
L 428.100446 143.796364 
L 425.512727 139.636506 
L 425.367049 139.403636 
L 422.605707 135.010909 
L 421.905455 133.896952 
L 419.844365 130.618182 
L 418.298182 128.158523 
L 417.083016 126.225455 
L 414.690909 122.420124 
L 414.321667 121.832727 
L 411.56037 117.44 
L 411.083636 116.681613 
L 408.798985 113.047273 
L 407.476364 110.943266 
L 406.037659 108.654545 
L 403.869091 105.204792 
L 403.276317 104.261818 
L 400.51499 99.869091 
L 400.261818 99.466348 
L 397.75367 95.476364 
L 396.654545 93.727471 
L 394.993409 91.083636 
L 393.047273 87.986027 
L 392.233579 86.690909 
L 389.473729 82.298182 
L 389.44 82.244497 
L 386.713859 77.905455 
L 385.832727 76.502997 
L 383.954019 73.512727 
L 382.225455 70.761493 
L 381.194131 69.12 
L 378.618182 69.12 
L 375.010909 69.12 
L 371.403636 69.12 
L 367.796364 69.12 
L 364.189091 69.12 
L 360.581818 69.12 
L 356.974545 69.12 
L 353.367273 69.12 
L 349.76 69.12 
L 346.152727 69.12 
L 342.545455 69.12 
L 338.938182 69.12 
L 335.330909 69.12 
L 331.723636 69.12 
L 328.116364 69.12 
L 327.480869 69.12 
L 328.116364 69.326957 
L 331.723636 70.501688 
L 335.330909 71.676462 
L 338.938182 72.851212 
L 340.969537 73.512727 
L 342.545455 74.025931 
L 346.152727 75.316941 
L 348.382069 77.905455 
L 349.76 80.098622 
L 351.14194 82.298182 
L 353.367273 85.840149 
L 353.901787 86.690909 
L 356.661642 91.083636 
L 356.974545 91.581661 
L 359.421493 95.476364 
L 360.581818 97.323217 
L 362.181335 99.869091 
L 364.189091 103.064738 
L 364.941186 104.261818 
L 367.701026 108.654545 
L 367.796364 108.80629 
L 370.4609 113.047273 
L 371.403636 114.547781 
L 373.220764 117.44 
L 375.010909 120.289291 
L 375.980604 121.832727 
L 378.618182 126.029787 
L 378.741179 126.225455 
L 381.502494 130.618182 
L 382.225455 131.768265 
L 384.263853 135.010909 
L 385.832727 137.50668 
L 387.02518 139.403636 
L 389.44 143.24514 
L 389.786507 143.796364 
L 392.547873 148.189091 
L 393.047273 148.983538 
L 395.3092 152.581818 
L 396.654545 154.721983 
L 398.063227 156.974545 
L 400.261818 160.554048 
L 400.761092 161.367273 
L 403.457936 165.76 
L 403.869091 166.429701 
L 406.154787 170.152727 
L 407.476364 172.305359 
L 408.851652 174.545455 
L 411.083636 178.180092 
L 411.550055 178.938182 
L 414.258103 183.330909 
L 414.690909 184.032964 
L 416.966139 187.723636 
L 418.298182 189.884355 
L 419.674173 192.116364 
L 421.905455 195.735747 
L 422.382207 196.509091 
L 425.090221 200.901818 
L 425.512727 201.587169 
L 427.798243 205.294545 
z
" style="fill:#97b8ff;"/>
   </g>
   <g id="PathCollection_4">
    <path clip-path="url(#pf700bca86e)" d="M 292.043636 504 
L 295.650909 504 
L 299.258182 504 
L 302.865455 504 
L 306.472727 504 
L 310.08 504 
L 313.687273 504 
L 317.294545 504 
L 320.901818 504 
L 324.509091 504 
L 328.116364 504 
L 331.723636 504 
L 332.336566 504 
L 335.321838 499.607273 
L 335.330909 499.593925 
L 338.307069 495.214545 
L 338.938182 494.28589 
L 341.292361 490.821818 
L 342.545455 488.977907 
L 344.277601 486.429091 
L 346.152727 483.669883 
L 347.262849 482.036364 
L 349.76 478.36186 
L 350.248094 477.643636 
L 353.233365 473.250909 
L 353.367273 473.053867 
L 356.489752 468.858182 
L 356.974545 468.413085 
L 360.581818 466.10037 
L 363.131889 464.465455 
L 364.189091 463.787649 
L 367.796364 461.474912 
L 369.983411 460.072727 
L 371.403636 459.026446 
L 373.326055 455.68 
L 374.340506 451.287273 
L 375.010909 448.384286 
L 375.354944 446.894545 
L 376.369391 442.501818 
L 377.383831 438.109091 
L 378.398293 433.716364 
L 378.618182 432.764209 
L 379.412733 429.323636 
L 380.42717 424.930909 
L 381.441617 420.538182 
L 382.225455 417.144014 
L 382.456058 416.145455 
L 383.470508 411.752727 
L 384.484954 407.36 
L 385.620372 402.967273 
L 385.832727 402.263105 
L 386.999246 398.574545 
L 388.388468 394.181818 
L 389.44 390.856891 
L 389.777699 389.789091 
L 391.166908 385.396364 
L 392.556146 381.003636 
L 393.047273 379.450675 
L 393.945354 376.610909 
L 395.334591 372.218182 
L 396.654545 368.044481 
L 396.723813 367.825455 
L 398.11303 363.432727 
L 399.50225 359.04 
L 400.261818 356.638685 
L 400.891798 354.647273 
L 402.281862 350.254545 
L 403.671926 345.861818 
L 403.869091 345.238756 
L 405.061984 341.469091 
L 406.45203 337.076364 
L 407.476364 333.839385 
L 407.842099 332.683636 
L 409.232149 328.290909 
L 410.622227 323.898182 
L 411.083636 322.44007 
L 412.012268 319.505455 
L 413.402314 315.112727 
L 414.690909 311.040633 
L 414.792372 310.72 
L 416.182429 306.327273 
L 417.572499 301.934545 
L 418.298182 299.641297 
L 418.962545 297.541818 
L 420.3526 293.149091 
L 421.742645 288.756364 
L 421.905455 288.241874 
L 423.132712 284.363636 
L 424.522771 279.970909 
L 425.512727 276.84259 
L 425.912843 275.578182 
L 427.30289 271.185455 
L 428.692946 266.792727 
L 429.12 265.443198 
L 429.12 262.4 
L 429.12 258.007273 
L 429.12 253.614545 
L 429.12 249.221818 
L 429.12 244.829091 
L 429.12 240.436364 
L 429.12 236.043636 
L 429.12 231.650909 
L 429.12 227.258182 
L 429.12 222.865455 
L 429.12 218.472727 
L 429.12 214.08 
L 429.12 209.687273 
L 429.12 207.438592 
L 427.798243 205.294545 
L 425.512727 201.587169 
L 425.090221 200.901818 
L 422.382207 196.509091 
L 421.905455 195.735747 
L 419.674173 192.116364 
L 418.298182 189.884355 
L 416.966139 187.723636 
L 414.690909 184.032964 
L 414.258103 183.330909 
L 411.550055 178.938182 
L 411.083636 178.180092 
L 408.851652 174.545455 
L 407.476364 172.305359 
L 406.154787 170.152727 
L 403.869091 166.429701 
L 403.457936 165.76 
L 400.761092 161.367273 
L 400.261818 160.554048 
L 398.063227 156.974545 
L 396.654545 154.721983 
L 395.3092 152.581818 
L 393.047273 148.983538 
L 392.547873 148.189091 
L 389.786507 143.796364 
L 389.44 143.24514 
L 387.02518 139.403636 
L 385.832727 137.50668 
L 384.263853 135.010909 
L 382.225455 131.768265 
L 381.502494 130.618182 
L 378.741179 126.225455 
L 378.618182 126.029787 
L 375.980604 121.832727 
L 375.010909 120.289291 
L 373.220764 117.44 
L 371.403636 114.547781 
L 370.4609 113.047273 
L 367.796364 108.80629 
L 367.701026 108.654545 
L 364.941186 104.261818 
L 364.189091 103.064738 
L 362.181335 99.869091 
L 360.581818 97.323217 
L 359.421493 95.476364 
L 356.974545 91.581661 
L 356.661642 91.083636 
L 353.901787 86.690909 
L 353.367273 85.840149 
L 351.14194 82.298182 
L 349.76 80.098622 
L 348.382069 77.905455 
L 346.152727 75.316941 
L 342.545455 74.025931 
L 340.969537 73.512727 
L 338.938182 72.851212 
L 335.330909 71.676462 
L 331.723636 70.501688 
L 328.116364 69.326957 
L 327.480869 69.12 
L 324.509091 69.12 
L 320.901818 69.12 
L 317.294545 69.12 
L 313.687273 69.12 
L 310.08 69.12 
L 308.858258 69.12 
L 306.472727 70.028608 
L 302.865455 71.402556 
L 299.258182 72.776491 
L 297.325178 73.512727 
L 295.650909 74.150425 
L 292.043636 75.524393 
L 288.436364 76.898317 
L 285.792145 77.905455 
L 284.829091 78.272267 
L 281.221818 79.646214 
L 277.614545 81.020162 
L 274.259173 82.298182 
L 274.007273 82.394127 
L 270.4 83.768048 
L 266.792727 85.141996 
L 263.185455 86.515955 
L 262.726114 86.690909 
L 259.578182 87.889893 
L 255.970909 89.263839 
L 252.363636 90.637783 
L 251.193049 91.083636 
L 248.756364 92.011724 
L 245.149091 93.385674 
L 241.541818 94.759625 
L 239.660027 95.476364 
L 237.934545 96.133562 
L 234.327273 97.507511 
L 230.72 98.881459 
L 228.126994 99.869091 
L 227.112727 100.255411 
L 223.505455 101.629353 
L 219.898182 103.003295 
L 216.593981 104.261818 
L 216.290909 104.377253 
L 212.683636 105.751202 
L 209.076364 107.125139 
L 205.469091 108.499065 
L 205.060881 108.654545 
L 201.861818 109.873018 
L 198.254545 111.246962 
L 194.647273 112.620924 
L 193.527898 113.047273 
L 191.04 113.994863 
L 187.432727 115.368808 
L 183.825455 116.742753 
L 181.994855 117.44 
L 180.218182 118.116704 
L 176.610909 119.490635 
L 173.003636 120.730637 
L 169.396364 121.714191 
L 168.946383 121.832727 
L 165.789091 122.664436 
L 162.181818 123.614681 
L 158.574545 124.564942 
L 154.967273 125.515184 
L 152.270945 126.225455 
L 151.36 126.465416 
L 147.752727 127.415661 
L 144.145455 128.365937 
L 140.538182 129.316173 
L 136.930909 130.266397 
L 135.59552 130.618182 
L 133.323636 131.216668 
L 129.716364 133.054784 
L 128.364627 135.010909 
L 126.109091 139.066087 
L 125.921342 139.403636 
L 123.478019 143.796364 
L 122.501818 145.551196 
L 121.034093 148.189091 
L 118.894545 152.034086 
L 118.589758 152.581818 
L 116.145401 156.974545 
L 115.287273 158.516689 
L 113.701069 161.367273 
L 111.68 164.999281 
L 111.256694 165.76 
L 108.812372 170.152727 
L 108.072727 171.481936 
L 106.368001 174.545455 
L 104.465455 177.964516 
L 103.730293 178.938182 
L 100.858182 181.534971 
L 98.774347 183.330909 
L 97.250909 184.643873 
L 93.677447 187.723636 
L 93.643636 187.752776 
L 90.036364 190.861666 
L 88.580546 192.116364 
L 86.429091 193.970589 
L 83.48365 196.509091 
L 82.821818 197.079485 
L 79.214545 200.188381 
L 78.386745 200.901818 
L 75.607273 203.297297 
L 73.289837 205.294545 
L 72 206.406173 
L 72 209.687273 
L 72 214.08 
L 72 218.472727 
L 72 222.865455 
L 72 227.258182 
L 72 231.650909 
L 72 236.043636 
L 72 240.436364 
L 72 244.829091 
L 72 247.153255 
L 74.696743 244.829091 
L 75.607273 244.044357 
L 79.214545 240.935454 
L 79.79364 240.436364 
L 82.821818 237.82654 
L 84.890522 236.043636 
L 86.429091 234.71763 
L 89.987427 231.650909 
L 90.036364 231.608734 
L 93.643636 228.499817 
L 95.084314 227.258182 
L 97.250909 225.390917 
L 100.181242 222.865455 
L 100.858182 222.282043 
L 104.465455 219.173103 
L 105.278107 218.472727 
L 108.072727 216.06421 
L 110.375013 214.08 
L 111.68 212.955316 
L 115.287273 209.846389 
L 115.471897 209.687273 
L 118.894545 206.737489 
L 120.568806 205.294545 
L 122.501818 203.628599 
L 124.848561 200.901818 
L 126.109091 198.756351 
L 127.359587 196.509091 
L 129.716364 192.273728 
L 129.803929 192.116364 
L 132.248278 187.723636 
L 133.323636 185.791107 
L 134.692611 183.330909 
L 136.930909 179.308495 
L 137.136971 178.938182 
L 139.581317 174.545455 
L 140.538182 172.825697 
L 142.025123 170.152727 
L 144.145455 166.340683 
L 144.46844 165.76 
L 146.911746 161.367273 
L 147.752727 159.8553 
L 151.36 157.011706 
L 151.492515 156.974545 
L 154.967273 156.059197 
L 158.574545 155.108957 
L 162.181818 154.158709 
L 165.789091 153.208467 
L 168.167922 152.581818 
L 169.396364 152.258216 
L 173.003636 151.307973 
L 176.610909 150.357735 
L 180.218182 149.407481 
L 183.825455 148.457249 
L 184.843424 148.189091 
L 187.432727 147.507006 
L 191.04 146.556759 
L 194.647273 145.398918 
L 198.254545 144.024983 
L 198.854773 143.796364 
L 201.861818 142.651018 
L 205.469091 141.277076 
L 209.076364 139.903139 
L 210.387809 139.403636 
L 212.683636 138.529196 
L 216.290909 137.155236 
L 219.898182 135.781302 
L 221.920815 135.010909 
L 223.505455 134.407343 
L 227.112727 133.033404 
L 230.72 131.65945 
L 233.453851 130.618182 
L 234.327273 130.285513 
L 237.934545 128.911573 
L 241.541818 127.537612 
L 244.986895 126.225455 
L 245.149091 126.163677 
L 248.756364 124.789729 
L 252.363636 123.415778 
L 255.970909 122.041826 
L 256.519901 121.832727 
L 259.578182 120.667898 
L 263.185455 119.293946 
L 266.792727 117.919982 
L 268.052931 117.44 
L 270.4 116.54606 
L 274.007273 115.172106 
L 277.614545 113.798152 
L 279.586005 113.047273 
L 281.221818 112.42423 
L 284.829091 111.050266 
L 288.436364 109.676338 
L 291.119041 108.654545 
L 292.043636 108.302381 
L 295.650909 106.928447 
L 299.258182 105.554508 
L 302.652112 104.261818 
L 302.865455 104.18056 
L 306.472727 103.917378 
L 307.530369 104.261818 
L 310.08 105.092142 
L 313.687273 106.266864 
L 317.294545 107.441638 
L 320.901818 108.616361 
L 321.019071 108.654545 
L 324.509091 109.791124 
L 328.116364 110.965882 
L 331.723636 112.554506 
L 332.129126 113.047273 
L 334.888962 117.44 
L 335.330909 118.143432 
L 337.648803 121.832727 
L 338.938182 123.884957 
L 340.408679 126.225455 
L 342.545455 129.626463 
L 343.168527 130.618182 
L 345.92839 135.010909 
L 346.152727 135.367977 
L 348.688221 139.403636 
L 349.76 141.10955 
L 351.44807 143.796364 
L 353.367273 146.85106 
L 354.207925 148.189091 
L 356.96778 152.581818 
L 356.974545 152.592585 
L 359.728659 156.974545 
L 360.581818 158.331758 
L 362.489993 161.367273 
L 364.189091 164.070189 
L 365.25134 165.76 
L 367.796364 169.808588 
L 368.012474 170.152727 
L 370.724884 174.545455 
L 371.403636 175.651036 
L 373.421718 178.938182 
L 375.010909 181.526685 
L 376.118596 183.330909 
L 378.618182 187.402334 
L 378.81544 187.723636 
L 381.5123 192.116364 
L 382.225455 193.277972 
L 384.209159 196.509091 
L 385.832727 199.153629 
L 386.905995 200.901818 
L 389.44 205.029309 
L 389.602958 205.294545 
L 392.30698 209.687273 
L 393.047273 210.888111 
L 395.014998 214.08 
L 396.654545 216.739526 
L 397.723032 218.472727 
L 400.261818 222.590961 
L 400.431037 222.865455 
L 403.139072 227.258182 
L 403.869091 228.44236 
L 405.847105 231.650909 
L 406.487337 236.043636 
L 406.574639 240.436364 
L 406.430685 244.829091 
L 405.063248 249.221818 
L 403.869091 252.995512 
L 403.673203 253.614545 
L 402.283143 258.007273 
L 400.893084 262.4 
L 400.261818 264.394843 
L 399.503021 266.792727 
L 398.112977 271.185455 
L 396.722915 275.578182 
L 396.654545 275.794241 
L 395.332881 279.970909 
L 393.942816 284.363636 
L 393.047273 287.193627 
L 392.552749 288.756364 
L 391.162695 293.149091 
L 389.772642 297.541818 
L 389.44 298.593001 
L 388.38258 301.934545 
L 386.992522 306.327273 
L 385.832727 309.992359 
L 385.60247 310.72 
L 384.212418 315.112727 
L 382.822354 319.505455 
L 382.225455 321.391728 
L 381.432305 323.898182 
L 380.042246 328.290909 
L 378.652196 332.683636 
L 378.618182 332.791123 
L 377.262123 337.076364 
L 375.872254 341.469091 
L 375.010909 344.192577 
L 374.483004 345.861818 
L 373.093788 350.254545 
L 371.70455 354.647273 
L 371.403636 355.598764 
L 370.315337 359.04 
L 368.926113 363.432727 
L 367.796364 367.004965 
L 367.536877 367.825455 
L 366.14766 372.218182 
L 364.788539 376.610909 
L 364.189091 379.021812 
L 363.731413 381.003636 
L 362.716967 385.396364 
L 361.702524 389.789091 
L 360.688069 394.181818 
L 360.581818 394.641905 
L 359.673628 398.574545 
L 358.659191 402.967273 
L 357.644746 407.36 
L 356.974545 410.2621 
L 356.630305 411.752727 
L 355.615856 416.145455 
L 354.601412 420.538182 
L 353.586969 424.930909 
L 353.367273 425.88223 
L 352.347339 429.323636 
L 349.76 432.377877 
L 347.672296 433.716364 
L 346.152727 434.690603 
L 342.545455 437.003317 
L 340.820727 438.109091 
L 338.938182 439.316053 
L 335.330909 441.62879 
L 334.225456 442.501818 
L 331.723636 445.393447 
L 330.703502 446.894545 
L 328.116364 450.701447 
L 327.718239 451.287273 
L 324.732991 455.68 
L 324.509091 456.009462 
L 321.747723 460.072727 
L 320.901818 461.317467 
L 318.762484 464.465455 
L 317.294545 466.625482 
L 315.777228 468.858182 
L 313.687273 471.933495 
L 312.791973 473.250909 
L 310.08 477.241488 
L 309.806704 477.643636 
L 306.821454 482.036364 
L 306.472727 482.549506 
L 303.836181 486.429091 
L 302.865455 487.857491 
L 300.850944 490.821818 
L 299.258182 493.165532 
L 297.865687 495.214545 
L 295.650909 498.473511 
L 294.880421 499.607273 
L 292.043636 503.781545 
L 291.895175 504 
z
" style="fill:#bcd2f7;"/>
   </g>
   <g id="PathCollection_5">
    <path clip-path="url(#pf700bca86e)" d="M 75.607273 504 
L 79.214545 504 
L 82.821818 504 
L 86.429091 504 
L 90.036364 504 
L 93.643636 504 
L 97.250909 504 
L 100.858182 504 
L 104.465455 504 
L 108.072727 504 
L 111.68 504 
L 111.948056 504 
L 111.68 503.414244 
L 109.93785 499.607273 
L 108.072727 495.531619 
L 107.927626 495.214545 
L 105.917381 490.821818 
L 104.465455 487.64908 
L 103.907165 486.429091 
L 101.896941 482.036364 
L 100.858182 479.766438 
L 99.886719 477.643636 
L 97.876477 473.250909 
L 97.250909 471.883941 
L 95.866225 468.858182 
L 93.855992 464.465455 
L 93.643636 464.001411 
L 91.845795 460.072727 
L 90.036364 456.118789 
L 89.835562 455.68 
L 87.825321 451.287273 
L 86.429091 448.236239 
L 85.815101 446.894545 
L 83.804875 442.501818 
L 82.821818 440.353668 
L 81.794639 438.109091 
L 79.784426 433.716364 
L 79.214545 432.47107 
L 77.773818 429.323636 
L 75.760736 424.930909 
L 75.607273 424.596118 
L 73.747151 420.538182 
L 72 416.726801 
L 72 420.538182 
L 72 424.930909 
L 72 429.323636 
L 72 433.716364 
L 72 438.109091 
L 72 442.501818 
L 72 446.894545 
L 72 451.287273 
L 72 455.68 
L 72 460.072727 
L 72 464.465455 
L 72 468.858182 
L 72 473.250909 
L 72 477.643636 
L 72 482.036364 
L 72 486.429091 
L 72 490.821818 
L 72 495.214545 
L 72 499.607273 
L 72 504 
z
" style="fill:#dddcdc;"/>
    <path clip-path="url(#pf700bca86e)" d="M 234.327273 504 
L 237.934545 504 
L 241.541818 504 
L 245.149091 504 
L 248.756364 504 
L 252.363636 504 
L 255.970909 504 
L 259.578182 504 
L 263.185455 504 
L 266.792727 504 
L 270.4 504 
L 274.007273 504 
L 277.614545 504 
L 281.221818 504 
L 284.829091 504 
L 288.436364 504 
L 291.895175 504 
L 292.043636 503.781545 
L 294.880421 499.607273 
L 295.650909 498.473511 
L 297.865687 495.214545 
L 299.258182 493.165532 
L 300.850944 490.821818 
L 302.865455 487.857491 
L 303.836181 486.429091 
L 306.472727 482.549506 
L 306.821454 482.036364 
L 309.806704 477.643636 
L 310.08 477.241488 
L 312.791973 473.250909 
L 313.687273 471.933495 
L 315.777228 468.858182 
L 317.294545 466.625482 
L 318.762484 464.465455 
L 320.901818 461.317467 
L 321.747723 460.072727 
L 324.509091 456.009462 
L 324.732991 455.68 
L 327.718239 451.287273 
L 328.116364 450.701447 
L 330.703502 446.894545 
L 331.723636 445.393447 
L 334.225456 442.501818 
L 335.330909 441.62879 
L 338.938182 439.316053 
L 340.820727 438.109091 
L 342.545455 437.003317 
L 346.152727 434.690603 
L 347.672296 433.716364 
L 349.76 432.377877 
L 352.347339 429.323636 
L 353.367273 425.88223 
L 353.586969 424.930909 
L 354.601412 420.538182 
L 355.615856 416.145455 
L 356.630305 411.752727 
L 356.974545 410.2621 
L 357.644746 407.36 
L 358.659191 402.967273 
L 359.673628 398.574545 
L 360.581818 394.641905 
L 360.688069 394.181818 
L 361.702524 389.789091 
L 362.716967 385.396364 
L 363.731413 381.003636 
L 364.189091 379.021812 
L 364.788539 376.610909 
L 366.14766 372.218182 
L 367.536877 367.825455 
L 367.796364 367.004965 
L 368.926113 363.432727 
L 370.315337 359.04 
L 371.403636 355.598764 
L 371.70455 354.647273 
L 373.093788 350.254545 
L 374.483004 345.861818 
L 375.010909 344.192577 
L 375.872254 341.469091 
L 377.262123 337.076364 
L 378.618182 332.791123 
L 378.652196 332.683636 
L 380.042246 328.290909 
L 381.432305 323.898182 
L 382.225455 321.391728 
L 382.822354 319.505455 
L 384.212418 315.112727 
L 385.60247 310.72 
L 385.832727 309.992359 
L 386.992522 306.327273 
L 388.38258 301.934545 
L 389.44 298.593001 
L 389.772642 297.541818 
L 391.162695 293.149091 
L 392.552749 288.756364 
L 393.047273 287.193627 
L 393.942816 284.363636 
L 395.332881 279.970909 
L 396.654545 275.794241 
L 396.722915 275.578182 
L 398.112977 271.185455 
L 399.503021 266.792727 
L 400.261818 264.394843 
L 400.893084 262.4 
L 402.283143 258.007273 
L 403.673203 253.614545 
L 403.869091 252.995512 
L 405.063248 249.221818 
L 406.430685 244.829091 
L 406.574639 240.436364 
L 406.487337 236.043636 
L 405.847105 231.650909 
L 403.869091 228.44236 
L 403.139072 227.258182 
L 400.431037 222.865455 
L 400.261818 222.590961 
L 397.723032 218.472727 
L 396.654545 216.739526 
L 395.014998 214.08 
L 393.047273 210.888111 
L 392.30698 209.687273 
L 389.602958 205.294545 
L 389.44 205.029309 
L 386.905995 200.901818 
L 385.832727 199.153629 
L 384.209159 196.509091 
L 382.225455 193.277972 
L 381.5123 192.116364 
L 378.81544 187.723636 
L 378.618182 187.402334 
L 376.118596 183.330909 
L 375.010909 181.526685 
L 373.421718 178.938182 
L 371.403636 175.651036 
L 370.724884 174.545455 
L 368.012474 170.152727 
L 367.796364 169.808588 
L 365.25134 165.76 
L 364.189091 164.070189 
L 362.489993 161.367273 
L 360.581818 158.331758 
L 359.728659 156.974545 
L 356.974545 152.592585 
L 356.96778 152.581818 
L 354.207925 148.189091 
L 353.367273 146.85106 
L 351.44807 143.796364 
L 349.76 141.10955 
L 348.688221 139.403636 
L 346.152727 135.367977 
L 345.92839 135.010909 
L 343.168527 130.618182 
L 342.545455 129.626463 
L 340.408679 126.225455 
L 338.938182 123.884957 
L 337.648803 121.832727 
L 335.330909 118.143432 
L 334.888962 117.44 
L 332.129126 113.047273 
L 331.723636 112.554506 
L 328.116364 110.965882 
L 324.509091 109.791124 
L 321.019071 108.654545 
L 320.901818 108.616361 
L 317.294545 107.441638 
L 313.687273 106.266864 
L 310.08 105.092142 
L 307.530369 104.261818 
L 306.472727 103.917378 
L 302.865455 104.18056 
L 302.652112 104.261818 
L 299.258182 105.554508 
L 295.650909 106.928447 
L 292.043636 108.302381 
L 291.119041 108.654545 
L 288.436364 109.676338 
L 284.829091 111.050266 
L 281.221818 112.42423 
L 279.586005 113.047273 
L 277.614545 113.798152 
L 274.007273 115.172106 
L 270.4 116.54606 
L 268.052931 117.44 
L 266.792727 117.919982 
L 263.185455 119.293946 
L 259.578182 120.667898 
L 256.519901 121.832727 
L 255.970909 122.041826 
L 252.363636 123.415778 
L 248.756364 124.789729 
L 245.149091 126.163677 
L 244.986895 126.225455 
L 241.541818 127.537612 
L 237.934545 128.911573 
L 234.327273 130.285513 
L 233.453851 130.618182 
L 230.72 131.65945 
L 227.112727 133.033404 
L 223.505455 134.407343 
L 221.920815 135.010909 
L 219.898182 135.781302 
L 216.290909 137.155236 
L 212.683636 138.529196 
L 210.387809 139.403636 
L 209.076364 139.903139 
L 205.469091 141.277076 
L 201.861818 142.651018 
L 198.854773 143.796364 
L 198.254545 144.024983 
L 194.647273 145.398918 
L 191.04 146.556759 
L 187.432727 147.507006 
L 184.843424 148.189091 
L 183.825455 148.457249 
L 180.218182 149.407481 
L 176.610909 150.357735 
L 173.003636 151.307973 
L 169.396364 152.258216 
L 168.167922 152.581818 
L 165.789091 153.208467 
L 162.181818 154.158709 
L 158.574545 155.108957 
L 154.967273 156.059197 
L 151.492515 156.974545 
L 151.36 157.011706 
L 147.752727 159.8553 
L 146.911746 161.367273 
L 144.46844 165.76 
L 144.145455 166.340683 
L 142.025123 170.152727 
L 140.538182 172.825697 
L 139.581317 174.545455 
L 137.136971 178.938182 
L 136.930909 179.308495 
L 134.692611 183.330909 
L 133.323636 185.791107 
L 132.248278 187.723636 
L 129.803929 192.116364 
L 129.716364 192.273728 
L 127.359587 196.509091 
L 126.109091 198.756351 
L 124.848561 200.901818 
L 122.501818 203.628599 
L 120.568806 205.294545 
L 118.894545 206.737489 
L 115.471897 209.687273 
L 115.287273 209.846389 
L 111.68 212.955316 
L 110.375013 214.08 
L 108.072727 216.06421 
L 105.278107 218.472727 
L 104.465455 219.173103 
L 100.858182 222.282043 
L 100.181242 222.865455 
L 97.250909 225.390917 
L 95.084314 227.258182 
L 93.643636 228.499817 
L 90.036364 231.608734 
L 89.987427 231.650909 
L 86.429091 234.71763 
L 84.890522 236.043636 
L 82.821818 237.82654 
L 79.79364 240.436364 
L 79.214545 240.935454 
L 75.607273 244.044357 
L 74.696743 244.829091 
L 72 247.153255 
L 72 249.221818 
L 72 253.614545 
L 72 258.007273 
L 72 262.4 
L 72 266.792727 
L 72 271.185455 
L 72 275.578182 
L 72 279.970909 
L 72 284.363636 
L 72 288.756364 
L 72 293.149091 
L 72 297.541818 
L 72 301.934545 
L 72 302.745759 
L 72.577815 301.934545 
L 75.607273 297.681389 
L 75.706686 297.541818 
L 78.83553 293.149091 
L 79.214545 292.616978 
L 81.964379 288.756364 
L 82.821818 287.552572 
L 85.093254 284.363636 
L 86.429091 282.488209 
L 88.222117 279.970909 
L 90.036364 277.423795 
L 91.350962 275.578182 
L 93.643636 272.359427 
L 94.479831 271.185455 
L 97.250909 267.295028 
L 97.608693 266.792727 
L 100.858182 263.242374 
L 101.588111 262.4 
L 104.465455 259.92017 
L 106.685002 258.007273 
L 108.072727 256.811274 
L 111.68 253.702378 
L 111.781912 253.614545 
L 115.287273 250.593461 
L 116.878794 249.221818 
L 118.894545 247.484559 
L 121.975689 244.829091 
L 122.501818 244.375648 
L 126.109091 241.266744 
L 127.072585 240.436364 
L 129.716364 238.157841 
L 132.1695 236.043636 
L 133.323636 235.048956 
L 136.930909 231.940034 
L 137.266382 231.650909 
L 140.538182 228.831137 
L 142.363286 227.258182 
L 144.145455 225.433092 
L 145.906795 222.865455 
L 147.752727 219.548148 
L 148.351146 218.472727 
L 150.795474 214.08 
L 151.36 213.065497 
L 153.239828 209.687273 
L 154.967273 206.582875 
L 155.684169 205.294545 
L 158.128523 200.901818 
L 158.574545 200.100188 
L 160.572231 196.509091 
L 162.181818 193.615259 
L 163.015523 192.116364 
L 165.458842 187.723636 
L 165.789091 187.129892 
L 168.624981 183.330909 
L 169.396364 182.802238 
L 173.003636 181.852006 
L 176.610909 180.901754 
L 180.218182 179.951501 
L 183.825455 179.001264 
L 184.064921 178.938182 
L 187.432727 178.051014 
L 191.04 177.100777 
L 194.647273 176.150524 
L 198.254545 175.200285 
L 200.740356 174.545455 
L 201.861818 174.250032 
L 205.469091 173.299802 
L 209.076364 172.349553 
L 212.683636 171.272017 
L 215.714636 170.152727 
L 216.290909 169.933236 
L 219.898182 168.55929 
L 223.505455 167.185342 
L 227.112727 165.811407 
L 227.247696 165.76 
L 230.72 164.437456 
L 234.327273 163.063513 
L 237.934545 161.68957 
L 238.780741 161.367273 
L 241.541818 160.315632 
L 245.149091 158.941681 
L 248.756364 157.567727 
L 250.313762 156.974545 
L 252.363636 156.19379 
L 255.970909 154.819836 
L 259.578182 153.445898 
L 261.8468 152.581818 
L 263.185455 152.071947 
L 266.792727 150.698004 
L 270.4 149.324053 
L 273.379812 148.189091 
L 274.007273 147.950102 
L 277.614545 146.576181 
L 281.221818 145.202222 
L 284.829091 143.828273 
L 284.91287 143.796364 
L 288.436364 142.454336 
L 292.043636 141.249457 
L 295.650909 142.032044 
L 299.258182 143.206814 
L 301.068517 143.796364 
L 302.865455 144.381551 
L 306.472727 145.556318 
L 310.08 146.731054 
L 313.687273 147.905807 
L 314.247502 148.189091 
L 317.294545 150.446664 
L 318.636026 152.581818 
L 320.901818 156.18817 
L 321.395878 156.974545 
L 324.155707 161.367273 
L 324.509091 161.929736 
L 326.915577 165.76 
L 328.116364 167.671235 
L 329.675434 170.152727 
L 331.723636 173.412757 
L 332.435278 174.545455 
L 335.195135 178.938182 
L 335.330909 179.154288 
L 337.95507 183.330909 
L 338.938182 184.905242 
L 340.688683 187.723636 
L 342.545455 190.748008 
L 343.385535 192.116364 
L 346.082392 196.509091 
L 346.152727 196.623657 
L 348.77925 200.901818 
L 349.76 202.499306 
L 351.47608 205.294545 
L 353.367273 208.374973 
L 354.172944 209.687273 
L 356.869788 214.08 
L 356.974545 214.250632 
L 359.566647 218.472727 
L 360.581818 220.12627 
L 362.263497 222.865455 
L 364.189091 226.001917 
L 364.96036 227.258182 
L 367.657205 231.650909 
L 367.796364 231.877576 
L 370.356743 236.043636 
L 371.403636 237.74327 
L 373.063871 240.436364 
L 374.133214 244.829091 
L 374.220521 249.221818 
L 374.307823 253.614545 
L 373.093231 258.007273 
L 371.703184 262.4 
L 371.403636 263.346604 
L 370.313127 266.792727 
L 368.923067 271.185455 
L 367.796364 274.745963 
L 367.533012 275.578182 
L 366.142958 279.970909 
L 364.752897 284.363636 
L 364.189091 286.145312 
L 363.362833 288.756364 
L 361.972781 293.149091 
L 360.582739 297.541818 
L 360.581818 297.544727 
L 359.192666 301.934545 
L 357.802609 306.327273 
L 356.974545 308.944039 
L 356.412553 310.72 
L 355.022501 315.112727 
L 353.632443 319.505455 
L 353.367273 320.343421 
L 352.242411 323.898182 
L 350.852991 328.290909 
L 349.76 331.746941 
L 349.463763 332.683636 
L 348.074539 337.076364 
L 346.685317 341.469091 
L 346.152727 343.153133 
L 345.296092 345.861818 
L 344.031521 350.254545 
L 342.97789 354.647273 
L 342.545455 356.519821 
L 341.963456 359.04 
L 340.949003 363.432727 
L 339.934546 367.825455 
L 338.938182 372.139914 
L 338.920107 372.218182 
L 337.905661 376.610909 
L 336.891214 381.003636 
L 335.876771 385.396364 
L 335.330909 387.760019 
L 334.86232 389.789091 
L 333.847886 394.181818 
L 332.833448 398.574545 
L 331.819006 402.967273 
L 331.723636 403.117534 
L 328.116364 405.593551 
L 325.361164 407.36 
L 324.509091 407.906289 
L 320.901818 410.219004 
L 318.509582 411.752727 
L 317.294545 412.531722 
L 313.687273 414.844455 
L 311.720165 416.145455 
L 310.08 417.733047 
L 308.173655 420.538182 
L 306.472727 423.041041 
L 305.188392 424.930909 
L 302.865455 428.349067 
L 302.203146 429.323636 
L 299.258182 433.65707 
L 299.217886 433.716364 
L 296.232635 438.109091 
L 295.650909 438.965087 
L 293.247377 442.501818 
L 292.043636 444.273089 
L 290.262117 446.894545 
L 288.436364 449.581101 
L 287.276868 451.287273 
L 284.829091 454.889109 
L 284.291608 455.68 
L 281.306359 460.072727 
L 281.221818 460.197127 
L 278.321091 464.465455 
L 277.614545 465.505114 
L 274.931722 468.858182 
L 274.007273 470.054922 
L 270.4 472.916682 
L 269.978704 473.250909 
L 266.792727 475.778425 
L 264.441583 477.643636 
L 263.185455 478.640164 
L 259.578182 481.501902 
L 258.904488 482.036364 
L 255.970909 484.363662 
L 253.367391 486.429091 
L 252.363636 487.225397 
L 248.756364 490.087178 
L 247.830341 490.821818 
L 245.149091 492.948913 
L 242.293211 495.214545 
L 241.541818 495.810649 
L 237.934545 498.672428 
L 236.756161 499.607273 
L 234.327273 501.534164 
L 231.219032 504 
z
" style="fill:#dddcdc;"/>
   </g>
   <g id="PathCollection_6">
    <path clip-path="url(#pf700bca86e)" d="M 111.68 503.414244 
L 111.948056 504 
L 115.287273 504 
L 118.894545 504 
L 122.501818 504 
L 126.109091 504 
L 129.716364 504 
L 133.323636 504 
L 136.930909 504 
L 140.538182 504 
L 144.145455 504 
L 147.752727 504 
L 151.36 504 
L 154.967273 504 
L 158.574545 504 
L 162.181818 504 
L 165.789091 504 
L 169.396364 504 
L 173.003636 504 
L 176.610909 504 
L 180.218182 504 
L 183.825455 504 
L 187.432727 504 
L 191.04 504 
L 194.647273 504 
L 198.254545 504 
L 201.861818 504 
L 205.469091 504 
L 209.076364 504 
L 212.683636 504 
L 216.290909 504 
L 219.898182 504 
L 223.505455 504 
L 227.112727 504 
L 230.72 504 
L 231.219032 504 
L 234.327273 501.534164 
L 236.756161 499.607273 
L 237.934545 498.672428 
L 241.541818 495.810649 
L 242.293211 495.214545 
L 245.149091 492.948913 
L 247.830341 490.821818 
L 248.756364 490.087178 
L 252.363636 487.225397 
L 253.367391 486.429091 
L 255.970909 484.363662 
L 258.904488 482.036364 
L 259.578182 481.501902 
L 263.185455 478.640164 
L 264.441583 477.643636 
L 266.792727 475.778425 
L 269.978704 473.250909 
L 270.4 472.916682 
L 274.007273 470.054922 
L 274.931722 468.858182 
L 277.614545 465.505114 
L 278.321091 464.465455 
L 281.221818 460.197127 
L 281.306359 460.072727 
L 284.291608 455.68 
L 284.829091 454.889109 
L 287.276868 451.287273 
L 288.436364 449.581101 
L 290.262117 446.894545 
L 292.043636 444.273089 
L 293.247377 442.501818 
L 295.650909 438.965087 
L 296.232635 438.109091 
L 299.217886 433.716364 
L 299.258182 433.65707 
L 302.203146 429.323636 
L 302.865455 428.349067 
L 305.188392 424.930909 
L 306.472727 423.041041 
L 308.173655 420.538182 
L 310.08 417.733047 
L 311.720165 416.145455 
L 313.687273 414.844455 
L 317.294545 412.531722 
L 318.509582 411.752727 
L 320.901818 410.219004 
L 324.509091 407.906289 
L 325.361164 407.36 
L 328.116364 405.593551 
L 331.723636 403.117534 
L 331.819006 402.967273 
L 332.833448 398.574545 
L 333.847886 394.181818 
L 334.86232 389.789091 
L 335.330909 387.760019 
L 335.876771 385.396364 
L 336.891214 381.003636 
L 337.905661 376.610909 
L 338.920107 372.218182 
L 338.938182 372.139914 
L 339.934546 367.825455 
L 340.949003 363.432727 
L 341.963456 359.04 
L 342.545455 356.519821 
L 342.97789 354.647273 
L 344.031521 350.254545 
L 345.296092 345.861818 
L 346.152727 343.153133 
L 346.685317 341.469091 
L 348.074539 337.076364 
L 349.463763 332.683636 
L 349.76 331.746941 
L 350.852991 328.290909 
L 352.242411 323.898182 
L 353.367273 320.343421 
L 353.632443 319.505455 
L 355.022501 315.112727 
L 356.412553 310.72 
L 356.974545 308.944039 
L 357.802609 306.327273 
L 359.192666 301.934545 
L 360.581818 297.544727 
L 360.582739 297.541818 
L 361.972781 293.149091 
L 363.362833 288.756364 
L 364.189091 286.145312 
L 364.752897 284.363636 
L 366.142958 279.970909 
L 367.533012 275.578182 
L 367.796364 274.745963 
L 368.923067 271.185455 
L 370.313127 266.792727 
L 371.403636 263.346604 
L 371.703184 262.4 
L 373.093231 258.007273 
L 374.307823 253.614545 
L 374.220521 249.221818 
L 374.133214 244.829091 
L 373.063871 240.436364 
L 371.403636 237.74327 
L 370.356743 236.043636 
L 367.796364 231.877576 
L 367.657205 231.650909 
L 364.96036 227.258182 
L 364.189091 226.001917 
L 362.263497 222.865455 
L 360.581818 220.12627 
L 359.566647 218.472727 
L 356.974545 214.250632 
L 356.869788 214.08 
L 354.172944 209.687273 
L 353.367273 208.374973 
L 351.47608 205.294545 
L 349.76 202.499306 
L 348.77925 200.901818 
L 346.152727 196.623657 
L 346.082392 196.509091 
L 343.385535 192.116364 
L 342.545455 190.748008 
L 340.688683 187.723636 
L 338.938182 184.905242 
L 337.95507 183.330909 
L 335.330909 179.154288 
L 335.195135 178.938182 
L 332.435278 174.545455 
L 331.723636 173.412757 
L 329.675434 170.152727 
L 328.116364 167.671235 
L 326.915577 165.76 
L 324.509091 161.929736 
L 324.155707 161.367273 
L 321.395878 156.974545 
L 320.901818 156.18817 
L 318.636026 152.581818 
L 317.294545 150.446664 
L 314.247502 148.189091 
L 313.687273 147.905807 
L 310.08 146.731054 
L 306.472727 145.556318 
L 302.865455 144.381551 
L 301.068517 143.796364 
L 299.258182 143.206814 
L 295.650909 142.032044 
L 292.043636 141.249457 
L 288.436364 142.454336 
L 284.91287 143.796364 
L 284.829091 143.828273 
L 281.221818 145.202222 
L 277.614545 146.576181 
L 274.007273 147.950102 
L 273.379812 148.189091 
L 270.4 149.324053 
L 266.792727 150.698004 
L 263.185455 152.071947 
L 261.8468 152.581818 
L 259.578182 153.445898 
L 255.970909 154.819836 
L 252.363636 156.19379 
L 250.313762 156.974545 
L 248.756364 157.567727 
L 245.149091 158.941681 
L 241.541818 160.315632 
L 238.780741 161.367273 
L 237.934545 161.68957 
L 234.327273 163.063513 
L 230.72 164.437456 
L 227.247696 165.76 
L 227.112727 165.811407 
L 223.505455 167.185342 
L 219.898182 168.55929 
L 216.290909 169.933236 
L 215.714636 170.152727 
L 212.683636 171.272017 
L 209.076364 172.349553 
L 205.469091 173.299802 
L 201.861818 174.250032 
L 200.740356 174.545455 
L 198.254545 175.200285 
L 194.647273 176.150524 
L 191.04 177.100777 
L 187.432727 178.051014 
L 184.064921 178.938182 
L 183.825455 179.001264 
L 180.218182 179.951501 
L 176.610909 180.901754 
L 173.003636 181.852006 
L 169.396364 182.802238 
L 168.624981 183.330909 
L 165.789091 187.129892 
L 165.458842 187.723636 
L 163.015523 192.116364 
L 162.181818 193.615259 
L 160.572231 196.509091 
L 158.574545 200.100188 
L 158.128523 200.901818 
L 155.684169 205.294545 
L 154.967273 206.582875 
L 153.239828 209.687273 
L 151.36 213.065497 
L 150.795474 214.08 
L 148.351146 218.472727 
L 147.752727 219.548148 
L 145.906795 222.865455 
L 144.145455 225.433092 
L 142.363286 227.258182 
L 140.538182 228.831137 
L 137.266382 231.650909 
L 136.930909 231.940034 
L 133.323636 235.048956 
L 132.1695 236.043636 
L 129.716364 238.157841 
L 127.072585 240.436364 
L 126.109091 241.266744 
L 122.501818 244.375648 
L 121.975689 244.829091 
L 118.894545 247.484559 
L 116.878794 249.221818 
L 115.287273 250.593461 
L 111.781912 253.614545 
L 111.68 253.702378 
L 108.072727 256.811274 
L 106.685002 258.007273 
L 104.465455 259.92017 
L 101.588111 262.4 
L 100.858182 263.242374 
L 97.608693 266.792727 
L 97.250909 267.295028 
L 94.479831 271.185455 
L 93.643636 272.359427 
L 91.350962 275.578182 
L 90.036364 277.423795 
L 88.222117 279.970909 
L 86.429091 282.488209 
L 85.093254 284.363636 
L 82.821818 287.552572 
L 81.964379 288.756364 
L 79.214545 292.616978 
L 78.83553 293.149091 
L 75.706686 297.541818 
L 75.607273 297.681389 
L 72.577815 301.934545 
L 72 302.745759 
L 72 306.327273 
L 72 310.72 
L 72 315.112727 
L 72 319.505455 
L 72 323.898182 
L 72 328.290909 
L 72 332.683636 
L 72 337.076364 
L 72 341.469091 
L 72 345.861818 
L 72 350.254545 
L 72 354.647273 
L 72 359.04 
L 72 363.432727 
L 72 367.825455 
L 72 372.218182 
L 72 376.610909 
L 72 381.003636 
L 72 385.396364 
L 72 389.789091 
L 72 394.181818 
L 72 398.574545 
L 72 402.967273 
L 72 407.36 
L 72 411.752727 
L 72 416.145455 
L 72 416.726801 
L 73.747151 420.538182 
L 75.607273 424.596118 
L 75.760736 424.930909 
L 77.773818 429.323636 
L 79.214545 432.47107 
L 79.784426 433.716364 
L 81.794639 438.109091 
L 82.821818 440.353668 
L 83.804875 442.501818 
L 85.815101 446.894545 
L 86.429091 448.236239 
L 87.825321 451.287273 
L 89.835562 455.68 
L 90.036364 456.118789 
L 91.845795 460.072727 
L 93.643636 464.001411 
L 93.855992 464.465455 
L 95.866225 468.858182 
L 97.250909 471.883941 
L 97.876477 473.250909 
L 99.886719 477.643636 
L 100.858182 479.766438 
L 101.896941 482.036364 
L 103.907165 486.429091 
L 104.465455 487.64908 
L 105.917381 490.821818 
L 107.927626 495.214545 
L 108.072727 495.531619 
L 109.93785 499.607273 
z
M 174.468768 482.036364 
L 173.003636 478.834744 
L 172.458558 477.643636 
L 170.448316 473.250909 
L 169.396364 470.952209 
L 168.43808 468.858182 
L 166.427855 464.465455 
L 165.789091 463.069638 
L 164.417632 460.072727 
L 162.407404 455.68 
L 162.181818 455.187053 
L 160.397173 451.287273 
L 158.574545 447.304476 
L 158.38695 446.894545 
L 156.376715 442.501818 
L 154.967273 439.421928 
L 154.366484 438.109091 
L 152.356243 433.716364 
L 151.36 431.539378 
L 150.34602 429.323636 
L 148.335814 424.930909 
L 147.752727 423.656754 
L 146.32558 420.538182 
L 144.315342 416.145455 
L 144.145455 415.774218 
L 142.305119 411.752727 
L 140.538182 407.891681 
L 140.294869 407.36 
L 138.284654 402.967273 
L 136.930909 400.009105 
L 136.274412 398.574545 
L 134.264201 394.181818 
L 133.323636 392.126518 
L 132.253963 389.789091 
L 130.243727 385.396364 
L 129.716364 384.244148 
L 128.232469 381.003636 
L 126.218848 376.610909 
L 126.109091 376.371472 
L 124.205244 372.218182 
L 122.501818 368.502148 
L 122.191623 367.825455 
L 120.178016 363.432727 
L 118.894545 360.632822 
L 118.164399 359.04 
L 116.150794 354.647273 
L 115.287273 352.763496 
L 114.137172 350.254545 
L 112.12358 345.861818 
L 111.68 344.894154 
L 110.109951 341.469091 
L 108.096335 337.076364 
L 108.16449 332.683636 
L 108.884749 328.290909 
L 109.605001 323.898182 
L 110.492869 319.505455 
L 111.68 317.79212 
L 113.448642 315.112727 
L 115.287273 312.482166 
L 116.518934 310.72 
L 118.894545 307.321165 
L 119.589229 306.327273 
L 122.501818 302.160195 
L 122.659535 301.934545 
L 125.729826 297.541818 
L 126.109091 296.999368 
L 128.800363 293.149091 
L 129.716364 291.861075 
L 131.902106 288.756364 
L 133.323636 286.760633 
L 135.03098 284.363636 
L 136.930909 281.696251 
L 138.159834 279.970909 
L 140.538182 276.631854 
L 141.288695 275.578182 
L 144.145455 271.567473 
L 144.41756 271.185455 
L 147.546419 266.792727 
L 147.752727 266.503082 
L 150.675271 262.4 
L 151.36 261.524388 
L 153.963948 258.007273 
L 154.967273 257.142562 
L 158.574545 254.041552 
L 159.060848 253.614545 
L 162.181818 250.924761 
L 164.020554 249.221818 
L 165.789091 246.822538 
L 166.898352 244.829091 
L 169.342698 240.436364 
L 169.396364 240.339922 
L 171.787042 236.043636 
L 173.003636 233.857295 
L 174.231386 231.650909 
L 176.610909 227.374683 
L 176.67573 227.258182 
L 179.119333 222.865455 
L 180.218182 220.889873 
L 181.562636 218.472727 
L 183.825455 214.404503 
L 184.005949 214.08 
L 186.449247 209.687273 
L 187.432727 208.742296 
L 191.04 207.644796 
L 194.647273 206.694547 
L 198.254545 205.744313 
L 199.961927 205.294545 
L 201.861818 204.794066 
L 205.469091 203.843819 
L 209.076364 202.893579 
L 212.683636 201.943332 
L 216.290909 200.993082 
L 216.637358 200.901818 
L 219.898182 200.042839 
L 223.505455 199.092596 
L 227.112727 198.142355 
L 230.72 197.171046 
L 232.574537 196.509091 
L 234.327273 195.841505 
L 237.934545 194.467566 
L 241.541818 193.093626 
L 244.107583 192.116364 
L 245.149091 191.719668 
L 248.756364 190.345734 
L 252.363636 188.97178 
L 255.64063 187.723636 
L 255.970909 187.59784 
L 259.578182 186.223887 
L 263.185455 184.849949 
L 266.792727 183.475999 
L 267.173658 183.330909 
L 270.4 182.102054 
L 274.007273 180.728104 
L 277.614545 179.354159 
L 281.221818 178.971988 
L 284.829091 180.146728 
L 288.436364 181.321489 
L 292.043636 182.496234 
L 294.606626 183.330909 
L 295.650909 183.670996 
L 299.258182 184.845751 
L 302.309818 187.723636 
L 302.865455 188.491426 
L 305.14291 192.116364 
L 306.472727 194.232979 
L 307.902762 196.509091 
L 310.08 199.977802 
L 310.656737 200.901818 
L 313.352267 205.294545 
L 313.687273 205.840479 
L 316.047802 209.687273 
L 317.294545 211.719006 
L 318.743428 214.08 
L 320.901818 217.59632 
L 321.439876 218.472727 
L 324.136721 222.865455 
L 324.509091 223.471982 
L 326.833584 227.258182 
L 328.116364 229.347616 
L 329.530438 231.650909 
L 331.723636 235.223251 
L 332.2273 236.043636 
L 334.924147 240.436364 
L 335.330909 241.098915 
L 337.621 244.829091 
L 338.938182 246.974556 
L 340.317855 249.221818 
L 341.803242 253.614545 
L 341.885258 258.007273 
L 341.967284 262.4 
L 341.132011 266.792727 
L 339.739357 271.185455 
L 338.938182 273.712522 
L 338.346698 275.578182 
L 336.9549 279.970909 
L 335.562994 284.363636 
L 335.330909 285.097044 
L 334.172931 288.756364 
L 332.782878 293.149091 
L 331.723636 296.496398 
L 331.392817 297.541818 
L 330.002763 301.934545 
L 328.61271 306.327273 
L 328.116364 307.896012 
L 327.222952 310.72 
L 325.833724 315.112727 
L 324.509091 319.301261 
L 324.446286 319.505455 
L 323.238793 323.898182 
L 322.224355 328.290909 
L 321.209908 332.683636 
L 320.901818 334.017715 
L 320.195461 337.076364 
L 319.181016 341.469091 
L 318.166577 345.861818 
L 317.294545 349.637882 
L 317.152135 350.254545 
L 316.137689 354.647273 
L 315.123251 359.04 
L 314.108807 363.432727 
L 313.687273 365.258029 
L 313.094352 367.825455 
L 312.079905 372.218182 
L 310.08 376.45108 
L 309.901568 376.610909 
L 306.472727 378.809227 
L 303.050006 381.003636 
L 302.865455 381.121958 
L 299.258182 383.434683 
L 296.198472 385.396364 
L 295.650909 385.747425 
L 292.043636 388.060144 
L 289.346922 389.789091 
L 288.436364 390.545223 
L 285.643809 394.181818 
L 284.829091 395.380655 
L 282.658556 398.574545 
L 281.221818 400.688672 
L 279.501401 402.967273 
L 277.614545 405.55572 
L 275.34023 407.36 
L 274.007273 408.417471 
L 270.4 411.279198 
L 269.803112 411.752727 
L 266.792727 414.140971 
L 264.266032 416.145455 
L 263.185455 417.002701 
L 259.578182 419.864461 
L 258.728947 420.538182 
L 255.970909 422.726206 
L 253.191863 424.930909 
L 252.363636 425.587966 
L 248.756364 428.44971 
L 247.654769 429.323636 
L 245.149091 431.31145 
L 242.117658 433.716364 
L 241.541818 434.173195 
L 237.934545 437.034953 
L 236.580584 438.109091 
L 234.327273 439.896705 
L 231.043473 442.501818 
L 230.72 442.758438 
L 227.112727 445.6202 
L 225.506393 446.894545 
L 223.505455 448.481943 
L 219.969304 451.287273 
L 219.898182 451.343696 
L 216.290909 454.205449 
L 214.432215 455.68 
L 212.683636 457.067191 
L 209.076364 459.92937 
L 208.896172 460.072727 
L 205.469091 462.796946 
L 203.37281 464.465455 
L 201.861818 465.667095 
L 198.254545 468.540047 
L 197.855368 468.858182 
L 194.647273 471.414973 
L 192.343652 473.250909 
L 191.04 474.289887 
L 187.432727 477.164807 
L 186.831921 477.643636 
L 183.825455 480.039735 
L 181.320223 482.036364 
L 180.218182 482.914666 
L 176.610909 484.900975 
z
" style="fill:#f3c8b2;"/>
   </g>
   <g id="PathCollection_7">
    <path clip-path="url(#pf700bca86e)" d="M 176.610909 484.900975 
L 180.218182 482.914666 
L 181.320223 482.036364 
L 183.825455 480.039735 
L 186.831921 477.643636 
L 187.432727 477.164807 
L 191.04 474.289887 
L 192.343652 473.250909 
L 194.647273 471.414973 
L 197.855368 468.858182 
L 198.254545 468.540047 
L 201.861818 465.667095 
L 203.37281 464.465455 
L 205.469091 462.796946 
L 208.896172 460.072727 
L 209.076364 459.92937 
L 212.683636 457.067191 
L 214.432215 455.68 
L 216.290909 454.205449 
L 219.898182 451.343696 
L 219.969304 451.287273 
L 223.505455 448.481943 
L 225.506393 446.894545 
L 227.112727 445.6202 
L 230.72 442.758438 
L 231.043473 442.501818 
L 234.327273 439.896705 
L 236.580584 438.109091 
L 237.934545 437.034953 
L 241.541818 434.173195 
L 242.117658 433.716364 
L 245.149091 431.31145 
L 247.654769 429.323636 
L 248.756364 428.44971 
L 252.363636 425.587966 
L 253.191863 424.930909 
L 255.970909 422.726206 
L 258.728947 420.538182 
L 259.578182 419.864461 
L 263.185455 417.002701 
L 264.266032 416.145455 
L 266.792727 414.140971 
L 269.803112 411.752727 
L 270.4 411.279198 
L 274.007273 408.417471 
L 275.34023 407.36 
L 277.614545 405.55572 
L 279.501401 402.967273 
L 281.221818 400.688672 
L 282.658556 398.574545 
L 284.829091 395.380655 
L 285.643809 394.181818 
L 288.436364 390.545223 
L 289.346922 389.789091 
L 292.043636 388.060144 
L 295.650909 385.747425 
L 296.198472 385.396364 
L 299.258182 383.434683 
L 302.865455 381.121958 
L 303.050006 381.003636 
L 306.472727 378.809227 
L 309.901568 376.610909 
L 310.08 376.45108 
L 312.079905 372.218182 
L 313.094352 367.825455 
L 313.687273 365.258029 
L 314.108807 363.432727 
L 315.123251 359.04 
L 316.137689 354.647273 
L 317.152135 350.254545 
L 317.294545 349.637882 
L 318.166577 345.861818 
L 319.181016 341.469091 
L 320.195461 337.076364 
L 320.901818 334.017715 
L 321.209908 332.683636 
L 322.224355 328.290909 
L 323.238793 323.898182 
L 324.446286 319.505455 
L 324.509091 319.301261 
L 325.833724 315.112727 
L 327.222952 310.72 
L 328.116364 307.896012 
L 328.61271 306.327273 
L 330.002763 301.934545 
L 331.392817 297.541818 
L 331.723636 296.496398 
L 332.782878 293.149091 
L 334.172931 288.756364 
L 335.330909 285.097044 
L 335.562994 284.363636 
L 336.9549 279.970909 
L 338.346698 275.578182 
L 338.938182 273.712522 
L 339.739357 271.185455 
L 341.132011 266.792727 
L 341.967284 262.4 
L 341.885258 258.007273 
L 341.803242 253.614545 
L 340.317855 249.221818 
L 338.938182 246.974556 
L 337.621 244.829091 
L 335.330909 241.098915 
L 334.924147 240.436364 
L 332.2273 236.043636 
L 331.723636 235.223251 
L 329.530438 231.650909 
L 328.116364 229.347616 
L 326.833584 227.258182 
L 324.509091 223.471982 
L 324.136721 222.865455 
L 321.439876 218.472727 
L 320.901818 217.59632 
L 318.743428 214.08 
L 317.294545 211.719006 
L 316.047802 209.687273 
L 313.687273 205.840479 
L 313.352267 205.294545 
L 310.656737 200.901818 
L 310.08 199.977802 
L 307.902762 196.509091 
L 306.472727 194.232979 
L 305.14291 192.116364 
L 302.865455 188.491426 
L 302.309818 187.723636 
L 299.258182 184.845751 
L 295.650909 183.670996 
L 294.606626 183.330909 
L 292.043636 182.496234 
L 288.436364 181.321489 
L 284.829091 180.146728 
L 281.221818 178.971988 
L 277.614545 179.354159 
L 274.007273 180.728104 
L 270.4 182.102054 
L 267.173658 183.330909 
L 266.792727 183.475999 
L 263.185455 184.849949 
L 259.578182 186.223887 
L 255.970909 187.59784 
L 255.64063 187.723636 
L 252.363636 188.97178 
L 248.756364 190.345734 
L 245.149091 191.719668 
L 244.107583 192.116364 
L 241.541818 193.093626 
L 237.934545 194.467566 
L 234.327273 195.841505 
L 232.574537 196.509091 
L 230.72 197.171046 
L 227.112727 198.142355 
L 223.505455 199.092596 
L 219.898182 200.042839 
L 216.637358 200.901818 
L 216.290909 200.993082 
L 212.683636 201.943332 
L 209.076364 202.893579 
L 205.469091 203.843819 
L 201.861818 204.794066 
L 199.961927 205.294545 
L 198.254545 205.744313 
L 194.647273 206.694547 
L 191.04 207.644796 
L 187.432727 208.742296 
L 186.449247 209.687273 
L 184.005949 214.08 
L 183.825455 214.404503 
L 181.562636 218.472727 
L 180.218182 220.889873 
L 179.119333 222.865455 
L 176.67573 227.258182 
L 176.610909 227.374683 
L 174.231386 231.650909 
L 173.003636 233.857295 
L 171.787042 236.043636 
L 169.396364 240.339922 
L 169.342698 240.436364 
L 166.898352 244.829091 
L 165.789091 246.822538 
L 164.020554 249.221818 
L 162.181818 250.924761 
L 159.060848 253.614545 
L 158.574545 254.041552 
L 154.967273 257.142562 
L 153.963948 258.007273 
L 151.36 261.524388 
L 150.675271 262.4 
L 147.752727 266.503082 
L 147.546419 266.792727 
L 144.41756 271.185455 
L 144.145455 271.567473 
L 141.288695 275.578182 
L 140.538182 276.631854 
L 138.159834 279.970909 
L 136.930909 281.696251 
L 135.03098 284.363636 
L 133.323636 286.760633 
L 131.902106 288.756364 
L 129.716364 291.861075 
L 128.800363 293.149091 
L 126.109091 296.999368 
L 125.729826 297.541818 
L 122.659535 301.934545 
L 122.501818 302.160195 
L 119.589229 306.327273 
L 118.894545 307.321165 
L 116.518934 310.72 
L 115.287273 312.482166 
L 113.448642 315.112727 
L 111.68 317.79212 
L 110.492869 319.505455 
L 109.605001 323.898182 
L 108.884749 328.290909 
L 108.16449 332.683636 
L 108.096335 337.076364 
L 110.109951 341.469091 
L 111.68 344.894154 
L 112.12358 345.861818 
L 114.137172 350.254545 
L 115.287273 352.763496 
L 116.150794 354.647273 
L 118.164399 359.04 
L 118.894545 360.632822 
L 120.178016 363.432727 
L 122.191623 367.825455 
L 122.501818 368.502148 
L 124.205244 372.218182 
L 126.109091 376.371472 
L 126.218848 376.610909 
L 128.232469 381.003636 
L 129.716364 384.244148 
L 130.243727 385.396364 
L 132.253963 389.789091 
L 133.323636 392.126518 
L 134.264201 394.181818 
L 136.274412 398.574545 
L 136.930909 400.009105 
L 138.284654 402.967273 
L 140.294869 407.36 
L 140.538182 407.891681 
L 142.305119 411.752727 
L 144.145455 415.774218 
L 144.315342 416.145455 
L 146.32558 420.538182 
L 147.752727 423.656754 
L 148.335814 424.930909 
L 150.34602 429.323636 
L 151.36 431.539378 
L 152.356243 433.716364 
L 154.366484 438.109091 
L 154.967273 439.421928 
L 156.376715 442.501818 
L 158.38695 446.894545 
L 158.574545 447.304476 
L 160.397173 451.287273 
L 162.181818 455.187053 
L 162.407404 455.68 
L 164.417632 460.072727 
L 165.789091 463.069638 
L 166.427855 464.465455 
L 168.43808 468.858182 
L 169.396364 470.952209 
L 170.448316 473.250909 
L 172.458558 477.643636 
L 173.003636 478.834744 
L 174.468768 482.036364 
z
M 207.601122 394.181818 
L 205.469091 391.194768 
L 204.825816 389.789091 
L 202.815578 385.396364 
L 201.861818 383.312218 
L 200.805353 381.003636 
L 198.795126 376.610909 
L 198.254545 375.42964 
L 196.784894 372.218182 
L 194.774661 367.825455 
L 194.647273 367.547087 
L 192.764437 363.432727 
L 191.04 359.664508 
L 190.754209 359.04 
L 188.743977 354.647273 
L 187.432727 351.781938 
L 186.733752 350.254545 
L 184.723515 345.861818 
L 183.825455 343.899383 
L 182.713292 341.469091 
L 180.703057 337.076364 
L 180.218182 336.017605 
L 178.690577 332.683636 
L 176.676968 328.290909 
L 176.610909 328.146801 
L 174.663353 323.898182 
L 173.003636 320.277478 
L 172.649742 319.505455 
L 171.490063 315.112727 
L 172.210314 310.72 
L 172.930559 306.327273 
L 173.003636 305.881578 
L 173.650807 301.934545 
L 176.189329 297.541818 
L 176.610909 296.938657 
L 179.259629 293.149091 
L 180.218182 291.777672 
L 182.329931 288.756364 
L 183.825455 286.61669 
L 185.400222 284.363636 
L 187.432727 281.455694 
L 188.470517 279.970909 
L 190.516116 275.578182 
L 191.04 273.573717 
L 191.632578 271.185455 
L 192.722511 266.792727 
L 193.812439 262.4 
L 194.647273 259.067803 
L 194.912195 258.007273 
L 196.057266 253.614545 
L 197.666436 249.221818 
L 198.254545 248.164483 
L 200.10975 244.829091 
L 201.861818 241.679101 
L 202.553047 240.436364 
L 204.996358 236.043636 
L 205.469091 235.441429 
L 209.076364 233.437599 
L 212.683636 232.487352 
L 215.858902 231.650909 
L 216.290909 231.537108 
L 219.898182 230.586866 
L 223.505455 229.636617 
L 227.112727 228.686375 
L 230.72 227.736128 
L 232.534363 227.258182 
L 234.327273 226.785887 
L 237.934545 225.835643 
L 241.541818 224.885399 
L 245.149091 223.935154 
L 248.756364 222.984907 
L 249.128119 222.865455 
L 252.363636 221.74978 
L 255.970909 220.375835 
L 259.578182 219.001888 
L 260.967482 218.472727 
L 263.185455 217.62794 
L 266.792727 216.359262 
L 270.4 217.086668 
L 274.007273 218.261423 
L 274.646346 218.472727 
L 277.614545 219.466216 
L 281.221818 220.677742 
L 284.829091 221.889274 
L 285.793464 222.865455 
L 288.436364 226.807911 
L 288.712666 227.258182 
L 291.408207 231.650909 
L 292.043636 232.686422 
L 294.103743 236.043636 
L 295.650909 238.564942 
L 296.799281 240.436364 
L 299.258182 244.443466 
L 299.494831 244.829091 
L 302.191079 249.221818 
L 302.865455 250.320267 
L 304.887931 253.614545 
L 306.472727 256.195917 
L 307.584783 258.007273 
L 309.491159 262.4 
L 309.573187 266.792727 
L 309.655213 271.185455 
L 309.199171 275.578182 
L 307.806515 279.970909 
L 306.472727 284.177968 
L 306.413864 284.363636 
L 305.021215 288.756364 
L 303.628765 293.149091 
L 302.865455 296.080232 
L 302.515413 297.541818 
L 301.498066 301.934545 
L 300.48072 306.327273 
L 299.46337 310.72 
L 299.258182 311.605963 
L 298.446018 315.112727 
L 297.428674 319.505455 
L 296.411321 323.898182 
L 295.650909 327.181502 
L 295.393973 328.290909 
L 294.376624 332.683636 
L 293.35928 337.076364 
L 292.342204 341.469091 
L 292.043636 342.760568 
L 291.250214 345.861818 
L 288.436364 349.712594 
L 287.59192 350.254545 
L 284.829091 352.027333 
L 281.221818 353.574792 
L 277.614545 354.35181 
L 276.242858 354.647273 
L 274.007273 355.12882 
L 270.4 355.905837 
L 266.792727 356.682855 
L 263.185455 357.459865 
L 259.578182 358.559218 
L 258.788889 359.04 
L 255.970909 361.285873 
L 253.277175 363.432727 
L 252.363636 364.160798 
L 248.756364 367.035717 
L 247.765451 367.825455 
L 245.149091 369.910638 
L 242.25373 372.218182 
L 241.541818 372.785562 
L 237.934545 375.660483 
L 236.742012 376.610909 
L 234.327273 378.535408 
L 231.230289 381.003636 
L 230.72 381.410325 
L 227.112727 384.285249 
L 225.718573 385.396364 
L 223.505455 387.160175 
L 220.206849 389.789091 
L 219.898182 390.035092 
L 216.290909 392.910016 
L 214.035443 394.181818 
L 212.683636 395.124523 
L 209.076364 395.370768 
z
" style="fill:#f6a586;"/>
   </g>
   <g id="PathCollection_8">
    <path clip-path="url(#pf700bca86e)" d="M 209.076364 395.370768 
L 212.683636 395.124523 
L 214.035443 394.181818 
L 216.290909 392.910016 
L 219.898182 390.035092 
L 220.206849 389.789091 
L 223.505455 387.160175 
L 225.718573 385.396364 
L 227.112727 384.285249 
L 230.72 381.410325 
L 231.230289 381.003636 
L 234.327273 378.535408 
L 236.742012 376.610909 
L 237.934545 375.660483 
L 241.541818 372.785562 
L 242.25373 372.218182 
L 245.149091 369.910638 
L 247.765451 367.825455 
L 248.756364 367.035717 
L 252.363636 364.160798 
L 253.277175 363.432727 
L 255.970909 361.285873 
L 258.788889 359.04 
L 259.578182 358.559218 
L 263.185455 357.459865 
L 266.792727 356.682855 
L 270.4 355.905837 
L 274.007273 355.12882 
L 276.242858 354.647273 
L 277.614545 354.35181 
L 281.221818 353.574792 
L 284.829091 352.027333 
L 287.59192 350.254545 
L 288.436364 349.712594 
L 291.250214 345.861818 
L 292.043636 342.760568 
L 292.342204 341.469091 
L 293.35928 337.076364 
L 294.376624 332.683636 
L 295.393973 328.290909 
L 295.650909 327.181502 
L 296.411321 323.898182 
L 297.428674 319.505455 
L 298.446018 315.112727 
L 299.258182 311.605963 
L 299.46337 310.72 
L 300.48072 306.327273 
L 301.498066 301.934545 
L 302.515413 297.541818 
L 302.865455 296.080232 
L 303.628765 293.149091 
L 305.021215 288.756364 
L 306.413864 284.363636 
L 306.472727 284.177968 
L 307.806515 279.970909 
L 309.199171 275.578182 
L 309.655213 271.185455 
L 309.573187 266.792727 
L 309.491159 262.4 
L 307.584783 258.007273 
L 306.472727 256.195917 
L 304.887931 253.614545 
L 302.865455 250.320267 
L 302.191079 249.221818 
L 299.494831 244.829091 
L 299.258182 244.443466 
L 296.799281 240.436364 
L 295.650909 238.564942 
L 294.103743 236.043636 
L 292.043636 232.686422 
L 291.408207 231.650909 
L 288.712666 227.258182 
L 288.436364 226.807911 
L 285.793464 222.865455 
L 284.829091 221.889274 
L 281.221818 220.677742 
L 277.614545 219.466216 
L 274.646346 218.472727 
L 274.007273 218.261423 
L 270.4 217.086668 
L 266.792727 216.359262 
L 263.185455 217.62794 
L 260.967482 218.472727 
L 259.578182 219.001888 
L 255.970909 220.375835 
L 252.363636 221.74978 
L 249.128119 222.865455 
L 248.756364 222.984907 
L 245.149091 223.935154 
L 241.541818 224.885399 
L 237.934545 225.835643 
L 234.327273 226.785887 
L 232.534363 227.258182 
L 230.72 227.736128 
L 227.112727 228.686375 
L 223.505455 229.636617 
L 219.898182 230.586866 
L 216.290909 231.537108 
L 215.858902 231.650909 
L 212.683636 232.487352 
L 209.076364 233.437599 
L 205.469091 235.441429 
L 204.996358 236.043636 
L 202.553047 240.436364 
L 201.861818 241.679101 
L 200.10975 244.829091 
L 198.254545 248.164483 
L 197.666436 249.221818 
L 196.057266 253.614545 
L 194.912195 258.007273 
L 194.647273 259.067803 
L 193.812439 262.4 
L 192.722511 266.792727 
L 191.632578 271.185455 
L 191.04 273.573717 
L 190.516116 275.578182 
L 188.470517 279.970909 
L 187.432727 281.455694 
L 185.400222 284.363636 
L 183.825455 286.61669 
L 182.329931 288.756364 
L 180.218182 291.777672 
L 179.259629 293.149091 
L 176.610909 296.938657 
L 176.189329 297.541818 
L 173.650807 301.934545 
L 173.003636 305.881578 
L 172.930559 306.327273 
L 172.210314 310.72 
L 171.490063 315.112727 
L 172.649742 319.505455 
L 173.003636 320.277478 
L 174.663353 323.898182 
L 176.610909 328.146801 
L 176.676968 328.290909 
L 178.690577 332.683636 
L 180.218182 336.017605 
L 180.703057 337.076364 
L 182.713292 341.469091 
L 183.825455 343.899383 
L 184.723515 345.861818 
L 186.733752 350.254545 
L 187.432727 351.781938 
L 188.743977 354.647273 
L 190.754209 359.04 
L 191.04 359.664508 
L 192.764437 363.432727 
L 194.647273 367.547087 
L 194.774661 367.825455 
L 196.784894 372.218182 
L 198.254545 375.42964 
L 198.795126 376.610909 
L 200.805353 381.003636 
L 201.861818 383.312218 
L 202.815578 385.396364 
L 204.825816 389.789091 
L 205.469091 391.194768 
L 207.601122 394.181818 
z
M 238.065464 315.112727 
L 237.934545 315.055482 
L 234.327273 312.968508 
L 232.917169 310.72 
L 230.72 307.111266 
L 230.242667 306.327273 
L 227.568167 301.934545 
L 227.112727 300.898526 
L 225.803612 297.541818 
L 225.045217 293.149091 
L 224.286822 288.756364 
L 224.315275 284.363636 
L 225.404451 279.970909 
L 226.493626 275.578182 
L 227.112727 273.081301 
L 227.582802 271.185455 
L 228.795299 266.792727 
L 230.72 263.972438 
L 232.777776 262.4 
L 234.327273 261.21596 
L 237.934545 258.459483 
L 238.526331 258.007273 
L 241.541818 256.316924 
L 245.149091 255.098062 
L 248.756364 254.639634 
L 252.363636 254.596684 
L 255.970909 255.43748 
L 259.578182 257.429578 
L 260.624265 258.007273 
L 263.185455 259.440936 
L 266.792727 261.413776 
L 268.018522 262.4 
L 270.4 265.0922 
L 271.563381 266.792727 
L 274.007273 270.187399 
L 274.634666 271.185455 
L 275.687493 275.578182 
L 276.611562 279.970909 
L 277.395316 284.363636 
L 277.222048 288.756364 
L 276.585058 293.149091 
L 275.302274 297.541818 
L 274.007273 300.702554 
L 273.207805 301.934545 
L 270.4 306.261417 
L 270.357265 306.327273 
L 267.506721 310.72 
L 266.792727 311.820275 
L 263.185455 314.473804 
L 260.341305 315.112727 
L 259.578182 315.277106 
L 255.970909 316.054122 
L 252.363636 316.831135 
L 248.756364 317.608149 
L 245.149091 318.101044 
L 241.541818 316.632803 
z
" style="fill:#e7745b;"/>
   </g>
   <g id="PathCollection_9">
    <path clip-path="url(#pf700bca86e)" d="M 241.541818 316.632803 
L 245.149091 318.101044 
L 248.756364 317.608149 
L 252.363636 316.831135 
L 255.970909 316.054122 
L 259.578182 315.277106 
L 260.341305 315.112727 
L 263.185455 314.473804 
L 266.792727 311.820275 
L 267.506721 310.72 
L 270.357265 306.327273 
L 270.4 306.261417 
L 273.207805 301.934545 
L 274.007273 300.702554 
L 275.302274 297.541818 
L 276.585058 293.149091 
L 277.222048 288.756364 
L 277.395316 284.363636 
L 276.611562 279.970909 
L 275.687493 275.578182 
L 274.634666 271.185455 
L 274.007273 270.187399 
L 271.563381 266.792727 
L 270.4 265.0922 
L 268.018522 262.4 
L 266.792727 261.413776 
L 263.185455 259.440936 
L 260.624265 258.007273 
L 259.578182 257.429578 
L 255.970909 255.43748 
L 252.363636 254.596684 
L 248.756364 254.639634 
L 245.149091 255.098062 
L 241.541818 256.316924 
L 238.526331 258.007273 
L 237.934545 258.459483 
L 234.327273 261.21596 
L 232.777776 262.4 
L 230.72 263.972438 
L 228.795299 266.792727 
L 227.582802 271.185455 
L 227.112727 273.081301 
L 226.493626 275.578182 
L 225.404451 279.970909 
L 224.315275 284.363636 
L 224.286822 288.756364 
L 225.045217 293.149091 
L 225.803612 297.541818 
L 227.112727 300.898526 
L 227.568167 301.934545 
L 230.242667 306.327273 
L 230.72 307.111266 
L 232.917169 310.72 
L 234.327273 312.968508 
L 237.934545 315.055482 
L 238.065464 315.112727 
z
" style="fill:#c83836;"/>
   </g>
   <g id="matplotlib.axis_1">
    <g id="xtick_1">
     <g id="line2d_1">
      <defs>
       <path d="M 0 0 
L 0 3.5 
" id="mc85d16261e" style="stroke:#000000;stroke-width:0.8;"/>
      </defs>
      <g>
       <use style="stroke:#000000;stroke-width:0.8;" x="107.712" xlink:href="#mc85d16261e" y="504"/>
      </g>
     </g>
     <g id="text_1">
      <!-- 4 -->
      <defs>
       <path d="M 10.59375 35.5 
L 73.1875 35.5 
L 73.1875 27.203125 
L 10.59375 27.203125 
z
" id="DejaVuSans-2212"/>
       <path d="M 37.796875 64.3125 
L 12.890625 25.390625 
L 37.796875 25.390625 
z
M 35.203125 72.90625 
L 47.609375 72.90625 
L 47.609375 25.390625 
L 58.015625 25.390625 
L 58.015625 17.1875 
L 47.609375 17.1875 
L 47.609375 0 
L 37.796875 0 
L 37.796875 17.1875 
L 4.890625 17.1875 
L 4.890625 26.703125 
z
" id="DejaVuSans-34"/>
      </defs>
      <g transform="translate(100.340906 518.598438)scale(0.1 -0.1)">
       <use xlink:href="#DejaVuSans-2212"/>
       <use x="83.789062" xlink:href="#DejaVuSans-34"/>
      </g>
     </g>
    </g>
    <g id="xtick_2">
     <g id="line2d_2">
      <g>
       <use style="stroke:#000000;stroke-width:0.8;" x="179.136" xlink:href="#mc85d16261e" y="504"/>
      </g>
     </g>
     <g id="text_2">
      <!-- 2 -->
      <defs>
       <path d="M 19.1875 8.296875 
L 53.609375 8.296875 
L 53.609375 0 
L 7.328125 0 
L 7.328125 8.296875 
Q 12.9375 14.109375 22.625 23.890625 
Q 32.328125 33.6875 34.8125 36.53125 
Q 39.546875 41.84375 41.421875 45.53125 
Q 43.3125 49.21875 43.3125 52.78125 
Q 43.3125 58.59375 39.234375 62.25 
Q 35.15625 65.921875 28.609375 65.921875 
Q 23.96875 65.921875 18.8125 64.3125 
Q 13.671875 62.703125 7.8125 59.421875 
L 7.8125 69.390625 
Q 13.765625 71.78125 18.9375 73 
Q 24.125 74.21875 28.421875 74.21875 
Q 39.75 74.21875 46.484375 68.546875 
Q 53.21875 62.890625 53.21875 53.421875 
Q 53.21875 48.921875 51.53125 44.890625 
Q 49.859375 40.875 45.40625 35.40625 
Q 44.1875 33.984375 37.640625 27.21875 
Q 31.109375 20.453125 19.1875 8.296875 
z
" id="DejaVuSans-32"/>
      </defs>
      <g transform="translate(171.764906 518.598438)scale(0.1 -0.1)">
       <use xlink:href="#DejaVuSans-2212"/>
       <use x="83.789062" xlink:href="#DejaVuSans-32"/>
      </g>
     </g>
    </g>
    <g id="xtick_3">
     <g id="line2d_3">
      <g>
       <use style="stroke:#000000;stroke-width:0.8;" x="250.56" xlink:href="#mc85d16261e" y="504"/>
      </g>
     </g>
     <g id="text_3">
      <!-- 0 -->
      <defs>
       <path d="M 31.78125 66.40625 
Q 24.171875 66.40625 20.328125 58.90625 
Q 16.5 51.421875 16.5 36.375 
Q 16.5 21.390625 20.328125 13.890625 
Q 24.171875 6.390625 31.78125 6.390625 
Q 39.453125 6.390625 43.28125 13.890625 
Q 47.125 21.390625 47.125 36.375 
Q 47.125 51.421875 43.28125 58.90625 
Q 39.453125 66.40625 31.78125 66.40625 
z
M 31.78125 74.21875 
Q 44.046875 74.21875 50.515625 64.515625 
Q 56.984375 54.828125 56.984375 36.375 
Q 56.984375 17.96875 50.515625 8.265625 
Q 44.046875 -1.421875 31.78125 -1.421875 
Q 19.53125 -1.421875 13.0625 8.265625 
Q 6.59375 17.96875 6.59375 36.375 
Q 6.59375 54.828125 13.0625 64.515625 
Q 19.53125 74.21875 31.78125 74.21875 
z
" id="DejaVuSans-30"/>
      </defs>
      <g transform="translate(247.37875 518.598438)scale(0.1 -0.1)">
       <use xlink:href="#DejaVuSans-30"/>
      </g>
     </g>
    </g>
    <g id="xtick_4">
     <g id="line2d_4">
      <g>
       <use style="stroke:#000000;stroke-width:0.8;" x="321.984" xlink:href="#mc85d16261e" y="504"/>
      </g>
     </g>
     <g id="text_4">
      <!-- 2 -->
      <g transform="translate(318.80275 518.598438)scale(0.1 -0.1)">
       <use xlink:href="#DejaVuSans-32"/>
      </g>
     </g>
    </g>
    <g id="xtick_5">
     <g id="line2d_5">
      <g>
       <use style="stroke:#000000;stroke-width:0.8;" x="393.408" xlink:href="#mc85d16261e" y="504"/>
      </g>
     </g>
     <g id="text_5">
      <!-- 4 -->
      <g transform="translate(390.22675 518.598438)scale(0.1 -0.1)">
       <use xlink:href="#DejaVuSans-34"/>
      </g>
     </g>
    </g>
   </g>
   <g id="matplotlib.axis_2">
    <g id="ytick_1">
     <g id="line2d_6">
      <defs>
       <path d="M 0 0 
L -3.5 0 
" id="m9e65d366fc" style="stroke:#000000;stroke-width:0.8;"/>
      </defs>
      <g>
       <use style="stroke:#000000;stroke-width:0.8;" x="72" xlink:href="#m9e65d366fc" y="460.512"/>
      </g>
     </g>
     <g id="text_6">
      <!-- 4 -->
      <g transform="translate(50.257812 464.311219)scale(0.1 -0.1)">
       <use xlink:href="#DejaVuSans-2212"/>
       <use x="83.789062" xlink:href="#DejaVuSans-34"/>
      </g>
     </g>
    </g>
    <g id="ytick_2">
     <g id="line2d_7">
      <g>
       <use style="stroke:#000000;stroke-width:0.8;" x="72" xlink:href="#m9e65d366fc" y="373.536"/>
      </g>
     </g>
     <g id="text_7">
      <!-- 2 -->
      <g transform="translate(50.257812 377.335219)scale(0.1 -0.1)">
       <use xlink:href="#DejaVuSans-2212"/>
       <use x="83.789062" xlink:href="#DejaVuSans-32"/>
      </g>
     </g>
    </g>
    <g id="ytick_3">
     <g id="line2d_8">
      <g>
       <use style="stroke:#000000;stroke-width:0.8;" x="72" xlink:href="#m9e65d366fc" y="286.56"/>
      </g>
     </g>
     <g id="text_8">
      <!-- 0 -->
      <g transform="translate(58.6375 290.359219)scale(0.1 -0.1)">
       <use xlink:href="#DejaVuSans-30"/>
      </g>
     </g>
    </g>
    <g id="ytick_4">
     <g id="line2d_9">
      <g>
       <use style="stroke:#000000;stroke-width:0.8;" x="72" xlink:href="#m9e65d366fc" y="199.584"/>
      </g>
     </g>
     <g id="text_9">
      <!-- 2 -->
      <g transform="translate(58.6375 203.383219)scale(0.1 -0.1)">
       <use xlink:href="#DejaVuSans-32"/>
      </g>
     </g>
    </g>
    <g id="ytick_5">
     <g id="line2d_10">
      <g>
       <use style="stroke:#000000;stroke-width:0.8;" x="72" xlink:href="#m9e65d366fc" y="112.608"/>
      </g>
     </g>
     <g id="text_10">
      <!-- 4 -->
      <g transform="translate(58.6375 116.407219)scale(0.1 -0.1)">
       <use xlink:href="#DejaVuSans-34"/>
      </g>
     </g>
    </g>
   </g>
   <g id="patch_3">
    <path d="M 72 504 
L 72 69.12 
" style="fill:none;stroke:#000000;stroke-linecap:square;stroke-linejoin:miter;stroke-width:0.8;"/>
   </g>
   <g id="patch_4">
    <path d="M 429.12 504 
L 429.12 69.12 
" style="fill:none;stroke:#000000;stroke-linecap:square;stroke-linejoin:miter;stroke-width:0.8;"/>
   </g>
   <g id="patch_5">
    <path d="M 72 504 
L 429.12 504 
" style="fill:none;stroke:#000000;stroke-linecap:square;stroke-linejoin:miter;stroke-width:0.8;"/>
   </g>
   <g id="patch_6">
    <path d="M 72 69.12 
L 429.12 69.12 
" style="fill:none;stroke:#000000;stroke-linecap:square;stroke-linejoin:miter;stroke-width:0.8;"/>
   </g>
  </g>
  <g id="axes_2">
   <g id="patch_7">
    <path clip-path="url(#p69ab757289)" d="M 451.44 504 
L 451.44 455.68 
L 451.44 117.44 
L 451.44 69.12 
L 473.184 69.12 
L 473.184 117.44 
L 473.184 455.68 
L 473.184 504 
z
" style="fill:#ffffff;stroke:#ffffff;stroke-linejoin:miter;stroke-width:0.01;"/>
   </g>
   <g id="QuadMesh_1">
    <path clip-path="url(#p69ab757289)" d="M 451.44 504 
L 473.184 504 
L 473.184 455.68 
L 451.44 455.68 
L 451.44 504 
" style="fill:#4b64d5;"/>
    <path clip-path="url(#p69ab757289)" d="M 451.44 455.68 
L 473.184 455.68 
L 473.184 407.36 
L 451.44 407.36 
L 451.44 455.68 
" style="fill:#6f92f3;"/>
    <path clip-path="url(#p69ab757289)" d="M 451.44 407.36 
L 473.184 407.36 
L 473.184 359.04 
L 451.44 359.04 
L 451.44 407.36 
" style="fill:#97b8ff;"/>
    <path clip-path="url(#p69ab757289)" d="M 451.44 359.04 
L 473.184 359.04 
L 473.184 310.72 
L 451.44 310.72 
L 451.44 359.04 
" style="fill:#bcd2f7;"/>
    <path clip-path="url(#p69ab757289)" d="M 451.44 310.72 
L 473.184 310.72 
L 473.184 262.4 
L 451.44 262.4 
L 451.44 310.72 
" style="fill:#dddcdc;"/>
    <path clip-path="url(#p69ab757289)" d="M 451.44 262.4 
L 473.184 262.4 
L 473.184 214.08 
L 451.44 214.08 
L 451.44 262.4 
" style="fill:#f3c8b2;"/>
    <path clip-path="url(#p69ab757289)" d="M 451.44 214.08 
L 473.184 214.08 
L 473.184 165.76 
L 451.44 165.76 
L 451.44 214.08 
" style="fill:#f6a586;"/>
    <path clip-path="url(#p69ab757289)" d="M 451.44 165.76 
L 473.184 165.76 
L 473.184 117.44 
L 451.44 117.44 
L 451.44 165.76 
" style="fill:#e7745b;"/>
    <path clip-path="url(#p69ab757289)" d="M 451.44 117.44 
L 473.184 117.44 
L 473.184 69.12 
L 451.44 69.12 
L 451.44 117.44 
" style="fill:#c83836;"/>
   </g>
   <g id="matplotlib.axis_3"/>
   <g id="matplotlib.axis_4">
    <g id="ytick_6">
     <g id="line2d_11">
      <defs>
       <path d="M 0 0 
L 3.5 0 
" id="m08e8ac763d" style="stroke:#000000;stroke-width:0.8;"/>
      </defs>
      <g>
       <use style="stroke:#000000;stroke-width:0.8;" x="473.184" xlink:href="#m08e8ac763d" y="504"/>
      </g>
     </g>
     <g id="text_11">
      <!-- 240 -->
      <g transform="translate(480.184 507.799219)scale(0.1 -0.1)">
       <use xlink:href="#DejaVuSans-2212"/>
       <use x="83.789062" xlink:href="#DejaVuSans-32"/>
       <use x="147.412109" xlink:href="#DejaVuSans-34"/>
       <use x="211.035156" xlink:href="#DejaVuSans-30"/>
      </g>
     </g>
    </g>
    <g id="ytick_7">
     <g id="line2d_12">
      <g>
       <use style="stroke:#000000;stroke-width:0.8;" x="473.184" xlink:href="#m08e8ac763d" y="455.68"/>
      </g>
     </g>
     <g id="text_12">
      <!-- 210 -->
      <defs>
       <path d="M 12.40625 8.296875 
L 28.515625 8.296875 
L 28.515625 63.921875 
L 10.984375 60.40625 
L 10.984375 69.390625 
L 28.421875 72.90625 
L 38.28125 72.90625 
L 38.28125 8.296875 
L 54.390625 8.296875 
L 54.390625 0 
L 12.40625 0 
z
" id="DejaVuSans-31"/>
      </defs>
      <g transform="translate(480.184 459.479219)scale(0.1 -0.1)">
       <use xlink:href="#DejaVuSans-2212"/>
       <use x="83.789062" xlink:href="#DejaVuSans-32"/>
       <use x="147.412109" xlink:href="#DejaVuSans-31"/>
       <use x="211.035156" xlink:href="#DejaVuSans-30"/>
      </g>
     </g>
    </g>
    <g id="ytick_8">
     <g id="line2d_13">
      <g>
       <use style="stroke:#000000;stroke-width:0.8;" x="473.184" xlink:href="#m08e8ac763d" y="407.36"/>
      </g>
     </g>
     <g id="text_13">
      <!-- 180 -->
      <defs>
       <path d="M 31.78125 34.625 
Q 24.75 34.625 20.71875 30.859375 
Q 16.703125 27.09375 16.703125 20.515625 
Q 16.703125 13.921875 20.71875 10.15625 
Q 24.75 6.390625 31.78125 6.390625 
Q 38.8125 6.390625 42.859375 10.171875 
Q 46.921875 13.96875 46.921875 20.515625 
Q 46.921875 27.09375 42.890625 30.859375 
Q 38.875 34.625 31.78125 34.625 
z
M 21.921875 38.8125 
Q 15.578125 40.375 12.03125 44.71875 
Q 8.5 49.078125 8.5 55.328125 
Q 8.5 64.0625 14.71875 69.140625 
Q 20.953125 74.21875 31.78125 74.21875 
Q 42.671875 74.21875 48.875 69.140625 
Q 55.078125 64.0625 55.078125 55.328125 
Q 55.078125 49.078125 51.53125 44.71875 
Q 48 40.375 41.703125 38.8125 
Q 48.828125 37.15625 52.796875 32.3125 
Q 56.78125 27.484375 56.78125 20.515625 
Q 56.78125 9.90625 50.3125 4.234375 
Q 43.84375 -1.421875 31.78125 -1.421875 
Q 19.734375 -1.421875 13.25 4.234375 
Q 6.78125 9.90625 6.78125 20.515625 
Q 6.78125 27.484375 10.78125 32.3125 
Q 14.796875 37.15625 21.921875 38.8125 
z
M 18.3125 54.390625 
Q 18.3125 48.734375 21.84375 45.5625 
Q 25.390625 42.390625 31.78125 42.390625 
Q 38.140625 42.390625 41.71875 45.5625 
Q 45.3125 48.734375 45.3125 54.390625 
Q 45.3125 60.0625 41.71875 63.234375 
Q 38.140625 66.40625 31.78125 66.40625 
Q 25.390625 66.40625 21.84375 63.234375 
Q 18.3125 60.0625 18.3125 54.390625 
z
" id="DejaVuSans-38"/>
      </defs>
      <g transform="translate(480.184 411.159219)scale(0.1 -0.1)">
       <use xlink:href="#DejaVuSans-2212"/>
       <use x="83.789062" xlink:href="#DejaVuSans-31"/>
       <use x="147.412109" xlink:href="#DejaVuSans-38"/>
       <use x="211.035156" xlink:href="#DejaVuSans-30"/>
      </g>
     </g>
    </g>
    <g id="ytick_9">
     <g id="line2d_14">
      <g>
       <use style="stroke:#000000;stroke-width:0.8;" x="473.184" xlink:href="#m08e8ac763d" y="359.04"/>
      </g>
     </g>
     <g id="text_14">
      <!-- 150 -->
      <defs>
       <path d="M 10.796875 72.90625 
L 49.515625 72.90625 
L 49.515625 64.59375 
L 19.828125 64.59375 
L 19.828125 46.734375 
Q 21.96875 47.46875 24.109375 47.828125 
Q 26.265625 48.1875 28.421875 48.1875 
Q 40.625 48.1875 47.75 41.5 
Q 54.890625 34.8125 54.890625 23.390625 
Q 54.890625 11.625 47.5625 5.09375 
Q 40.234375 -1.421875 26.90625 -1.421875 
Q 22.3125 -1.421875 17.546875 -0.640625 
Q 12.796875 0.140625 7.71875 1.703125 
L 7.71875 11.625 
Q 12.109375 9.234375 16.796875 8.0625 
Q 21.484375 6.890625 26.703125 6.890625 
Q 35.15625 6.890625 40.078125 11.328125 
Q 45.015625 15.765625 45.015625 23.390625 
Q 45.015625 31 40.078125 35.4375 
Q 35.15625 39.890625 26.703125 39.890625 
Q 22.75 39.890625 18.8125 39.015625 
Q 14.890625 38.140625 10.796875 36.28125 
z
" id="DejaVuSans-35"/>
      </defs>
      <g transform="translate(480.184 362.839219)scale(0.1 -0.1)">
       <use xlink:href="#DejaVuSans-2212"/>
       <use x="83.789062" xlink:href="#DejaVuSans-31"/>
       <use x="147.412109" xlink:href="#DejaVuSans-35"/>
       <use x="211.035156" xlink:href="#DejaVuSans-30"/>
      </g>
     </g>
    </g>
    <g id="ytick_10">
     <g id="line2d_15">
      <g>
       <use style="stroke:#000000;stroke-width:0.8;" x="473.184" xlink:href="#m08e8ac763d" y="310.72"/>
      </g>
     </g>
     <g id="text_15">
      <!-- 120 -->
      <g transform="translate(480.184 314.519219)scale(0.1 -0.1)">
       <use xlink:href="#DejaVuSans-2212"/>
       <use x="83.789062" xlink:href="#DejaVuSans-31"/>
       <use x="147.412109" xlink:href="#DejaVuSans-32"/>
       <use x="211.035156" xlink:href="#DejaVuSans-30"/>
      </g>
     </g>
    </g>
    <g id="ytick_11">
     <g id="line2d_16">
      <g>
       <use style="stroke:#000000;stroke-width:0.8;" x="473.184" xlink:href="#m08e8ac763d" y="262.4"/>
      </g>
     </g>
     <g id="text_16">
      <!-- 90 -->
      <defs>
       <path d="M 10.984375 1.515625 
L 10.984375 10.5 
Q 14.703125 8.734375 18.5 7.8125 
Q 22.3125 6.890625 25.984375 6.890625 
Q 35.75 6.890625 40.890625 13.453125 
Q 46.046875 20.015625 46.78125 33.40625 
Q 43.953125 29.203125 39.59375 26.953125 
Q 35.25 24.703125 29.984375 24.703125 
Q 19.046875 24.703125 12.671875 31.3125 
Q 6.296875 37.9375 6.296875 49.421875 
Q 6.296875 60.640625 12.9375 67.421875 
Q 19.578125 74.21875 30.609375 74.21875 
Q 43.265625 74.21875 49.921875 64.515625 
Q 56.59375 54.828125 56.59375 36.375 
Q 56.59375 19.140625 48.40625 8.859375 
Q 40.234375 -1.421875 26.421875 -1.421875 
Q 22.703125 -1.421875 18.890625 -0.6875 
Q 15.09375 0.046875 10.984375 1.515625 
z
M 30.609375 32.421875 
Q 37.25 32.421875 41.125 36.953125 
Q 45.015625 41.5 45.015625 49.421875 
Q 45.015625 57.28125 41.125 61.84375 
Q 37.25 66.40625 30.609375 66.40625 
Q 23.96875 66.40625 20.09375 61.84375 
Q 16.21875 57.28125 16.21875 49.421875 
Q 16.21875 41.5 20.09375 36.953125 
Q 23.96875 32.421875 30.609375 32.421875 
z
" id="DejaVuSans-39"/>
      </defs>
      <g transform="translate(480.184 266.199219)scale(0.1 -0.1)">
       <use xlink:href="#DejaVuSans-2212"/>
       <use x="83.789062" xlink:href="#DejaVuSans-39"/>
       <use x="147.412109" xlink:href="#DejaVuSans-30"/>
      </g>
     </g>
    </g>
    <g id="ytick_12">
     <g id="line2d_17">
      <g>
       <use style="stroke:#000000;stroke-width:0.8;" x="473.184" xlink:href="#m08e8ac763d" y="214.08"/>
      </g>
     </g>
     <g id="text_17">
      <!-- 60 -->
      <defs>
       <path d="M 33.015625 40.375 
Q 26.375 40.375 22.484375 35.828125 
Q 18.609375 31.296875 18.609375 23.390625 
Q 18.609375 15.53125 22.484375 10.953125 
Q 26.375 6.390625 33.015625 6.390625 
Q 39.65625 6.390625 43.53125 10.953125 
Q 47.40625 15.53125 47.40625 23.390625 
Q 47.40625 31.296875 43.53125 35.828125 
Q 39.65625 40.375 33.015625 40.375 
z
M 52.59375 71.296875 
L 52.59375 62.3125 
Q 48.875 64.0625 45.09375 64.984375 
Q 41.3125 65.921875 37.59375 65.921875 
Q 27.828125 65.921875 22.671875 59.328125 
Q 17.53125 52.734375 16.796875 39.40625 
Q 19.671875 43.65625 24.015625 45.921875 
Q 28.375 48.1875 33.59375 48.1875 
Q 44.578125 48.1875 50.953125 41.515625 
Q 57.328125 34.859375 57.328125 23.390625 
Q 57.328125 12.15625 50.6875 5.359375 
Q 44.046875 -1.421875 33.015625 -1.421875 
Q 20.359375 -1.421875 13.671875 8.265625 
Q 6.984375 17.96875 6.984375 36.375 
Q 6.984375 53.65625 15.1875 63.9375 
Q 23.390625 74.21875 37.203125 74.21875 
Q 40.921875 74.21875 44.703125 73.484375 
Q 48.484375 72.75 52.59375 71.296875 
z
" id="DejaVuSans-36"/>
      </defs>
      <g transform="translate(480.184 217.879219)scale(0.1 -0.1)">
       <use xlink:href="#DejaVuSans-2212"/>
       <use x="83.789062" xlink:href="#DejaVuSans-36"/>
       <use x="147.412109" xlink:href="#DejaVuSans-30"/>
      </g>
     </g>
    </g>
    <g id="ytick_13">
     <g id="line2d_18">
      <g>
       <use style="stroke:#000000;stroke-width:0.8;" x="473.184" xlink:href="#m08e8ac763d" y="165.76"/>
      </g>
     </g>
     <g id="text_18">
      <!-- 30 -->
      <defs>
       <path d="M 40.578125 39.3125 
Q 47.65625 37.796875 51.625 33 
Q 55.609375 28.21875 55.609375 21.1875 
Q 55.609375 10.40625 48.1875 4.484375 
Q 40.765625 -1.421875 27.09375 -1.421875 
Q 22.515625 -1.421875 17.65625 -0.515625 
Q 12.796875 0.390625 7.625 2.203125 
L 7.625 11.71875 
Q 11.71875 9.328125 16.59375 8.109375 
Q 21.484375 6.890625 26.8125 6.890625 
Q 36.078125 6.890625 40.9375 10.546875 
Q 45.796875 14.203125 45.796875 21.1875 
Q 45.796875 27.640625 41.28125 31.265625 
Q 36.765625 34.90625 28.71875 34.90625 
L 20.21875 34.90625 
L 20.21875 43.015625 
L 29.109375 43.015625 
Q 36.375 43.015625 40.234375 45.921875 
Q 44.09375 48.828125 44.09375 54.296875 
Q 44.09375 59.90625 40.109375 62.90625 
Q 36.140625 65.921875 28.71875 65.921875 
Q 24.65625 65.921875 20.015625 65.03125 
Q 15.375 64.15625 9.8125 62.3125 
L 9.8125 71.09375 
Q 15.4375 72.65625 20.34375 73.4375 
Q 25.25 74.21875 29.59375 74.21875 
Q 40.828125 74.21875 47.359375 69.109375 
Q 53.90625 64.015625 53.90625 55.328125 
Q 53.90625 49.265625 50.4375 45.09375 
Q 46.96875 40.921875 40.578125 39.3125 
z
" id="DejaVuSans-33"/>
      </defs>
      <g transform="translate(480.184 169.559219)scale(0.1 -0.1)">
       <use xlink:href="#DejaVuSans-2212"/>
       <use x="83.789062" xlink:href="#DejaVuSans-33"/>
       <use x="147.412109" xlink:href="#DejaVuSans-30"/>
      </g>
     </g>
    </g>
    <g id="ytick_14">
     <g id="line2d_19">
      <g>
       <use style="stroke:#000000;stroke-width:0.8;" x="473.184" xlink:href="#m08e8ac763d" y="117.44"/>
      </g>
     </g>
     <g id="text_19">
      <!-- 0 -->
      <g transform="translate(480.184 121.239219)scale(0.1 -0.1)">
       <use xlink:href="#DejaVuSans-30"/>
      </g>
     </g>
    </g>
    <g id="ytick_15">
     <g id="line2d_20">
      <g>
       <use style="stroke:#000000;stroke-width:0.8;" x="473.184" xlink:href="#m08e8ac763d" y="69.12"/>
      </g>
     </g>
     <g id="text_20">
      <!-- 30 -->
      <g transform="translate(480.184 72.919219)scale(0.1 -0.1)">
       <use xlink:href="#DejaVuSans-33"/>
       <use x="63.623047" xlink:href="#DejaVuSans-30"/>
      </g>
     </g>
    </g>
   </g>
   <g id="patch_8">
    <path d="M 451.44 504 
L 451.44 455.68 
L 451.44 117.44 
L 451.44 69.12 
L 473.184 69.12 
L 473.184 117.44 
L 473.184 455.68 
L 473.184 504 
z
" style="fill:none;stroke:#000000;stroke-linejoin:miter;stroke-width:0.8;"/>
   </g>
  </g>
 </g>
 <defs>
  <clipPath id="pf700bca86e">
   <rect height="434.88" width="357.12" x="72" y="69.12"/>
  </clipPath>
  <clipPath id="p69ab757289">
   <rect height="434.88" width="21.744" x="451.44" y="69.12"/>
  </clipPath>
 </defs>
</svg>
