<?xml version="1.0" encoding="utf-8" standalone="no"?>
<!DOCTYPE svg PUBLIC "-//W3C//DTD SVG 1.1//EN"
  "http://www.w3.org/Graphics/SVG/1.1/DTD/svg11.dtd">
<!-- Created with matplotlib (http://matplotlib.org/) -->
<svg height="288pt" version="1.1" viewBox="0 0 432 288" width="432pt" xmlns="http://www.w3.org/2000/svg" xmlns:xlink="http://www.w3.org/1999/xlink">
 <defs>
  <style type="text/css">
*{stroke-linecap:butt;stroke-linejoin:round;}
  </style>
 </defs>
 <g id="figure_1">
  <g id="patch_1">
   <path d="M 0 288 
L 432 288 
L 432 0 
L 0 0 
z
" style="fill:#ffffff;"/>
  </g>
  <g id="axes_1">
   <g id="patch_2">
    <path d="M 54 252 
L 388.8 252 
L 388.8 34.56 
L 54 34.56 
z
" style="fill:#ffffff;"/>
   </g>
   <g id="patch_3">
    <path clip-path="url(#p372e5d1e8d)" d="M -95.957228 389.820525 
L -90.225694 314.018486 
L 147.671 179.26603 
L 155.616488 198.250677 
z
" style="opacity:0.6;stroke-dasharray:0,0;stroke-dashoffset:0;"/>
   </g>
   <g id="patch_4">
    <path clip-path="url(#p372e5d1e8d)" d="M -90.225694 314.018486 
L -83.635654 226.862322 
L 67.652542 171.38267 
L 139.086595 158.754778 
L 147.671 179.26603 
z
" style="fill:#0143da;opacity:0.6;stroke-dasharray:0,0;stroke-dashoffset:0;"/>
   </g>
   <g id="patch_5">
    <path clip-path="url(#p372e5d1e8d)" d="M -83.635654 226.862322 
L -81.433482 197.737638 
L 67.652542 171.38267 
z
" style="fill:#0287b4;opacity:0.6;stroke-dasharray:0,0;stroke-dashoffset:0;"/>
   </g>
   <g id="patch_6">
    <path clip-path="url(#p372e5d1e8d)" d="M -81.433482 197.737638 
L -73.005505 86.273967 
L 125.422788 126.106996 
L 134.163639 146.992053 
L 67.652542 171.38267 
z
" style="fill:#03cb8e;opacity:0.6;stroke-dasharray:0,0;stroke-dashoffset:0;"/>
   </g>
   <g id="patch_7">
    <path clip-path="url(#p372e5d1e8d)" d="M -73.005505 86.273967 
L -70.408292 51.924695 
L 118.293706 109.073035 
L 125.422788 126.106996 
z
" style="fill:#050f68;opacity:0.6;stroke-dasharray:0,0;stroke-dashoffset:0;"/>
   </g>
   <g id="patch_8">
    <path clip-path="url(#p372e5d1e8d)" d="M -70.408292 51.924695 
L -54.192811 -162.532113 
L 55.793409 -40.262807 
L 118.293706 109.073035 
z
" style="fill:#065342;opacity:0.6;stroke-dasharray:0,0;stroke-dashoffset:0;"/>
   </g>
   <g id="patch_9">
    <path clip-path="url(#p372e5d1e8d)" d="M 67.652542 171.38267 
L 134.163639 146.992053 
L 139.086595 158.754778 
z
" style="fill:#07971c;opacity:0.6;stroke-dasharray:0,0;stroke-dashoffset:0;"/>
   </g>
   <g id="patch_10">
    <path clip-path="url(#p372e5d1e8d)" d="M 85.031701 252 
L 155.616488 198.250677 
L 178.111748 252 
z
" style="fill:#08daf6;opacity:0.6;stroke-dasharray:0,0;stroke-dashoffset:0;"/>
   </g>
   <g id="patch_11">
    <path clip-path="url(#p372e5d1e8d)" d="M 118.293706 109.073035 
L 55.793409 -40.262807 
L 200.689716 120.81529 
L 181.875296 128.3287 
z
" style="fill:#0a1ed0;opacity:0.6;stroke-dasharray:0,0;stroke-dashoffset:0;"/>
   </g>
   <g id="patch_12">
    <path clip-path="url(#p372e5d1e8d)" d="M 125.422788 126.106996 
L 118.293706 109.073035 
L 181.875292 128.328699 
L 180.623242 129.954619 
L 167.876099 134.629187 
z
" style="fill:#0b62aa;opacity:0.6;stroke-dasharray:0,0;stroke-dashoffset:0;"/>
   </g>
   <g id="patch_13">
    <path clip-path="url(#p372e5d1e8d)" d="M 55.793409 -40.262807 
L -45.193169 -281.556312 
L 1918.259687 -26249.076802 
L 224.227444 113.964303 
L 208.172809 119.851779 
L 200.689716 120.81529 
z
" style="fill:#0ca684;opacity:0.6;stroke-dasharray:0,0;stroke-dashoffset:0;"/>
   </g>
   <g id="patch_14">
    <path clip-path="url(#p372e5d1e8d)" d="M 134.163639 146.992053 
L 125.422788 126.106996 
L 167.876099 134.629187 
z
" style="fill:#0dea5e;opacity:0.6;stroke-dasharray:0,0;stroke-dashoffset:0;"/>
   </g>
   <g id="patch_15">
    <path clip-path="url(#p372e5d1e8d)" d="M 139.086595 158.754778 
L 134.163639 146.992053 
L 167.876099 134.629187 
L 176.671136 136.394727 
L 165.238217 154.131775 
z
" style="fill:#0f2e38;opacity:0.6;stroke-dasharray:0,0;stroke-dashoffset:0;"/>
   </g>
   <g id="patch_16">
    <path clip-path="url(#p372e5d1e8d)" d="M 147.671 179.26603 
L 139.086595 158.754778 
L 165.23822 154.131775 
L 170.324098 166.434576 
z
" style="fill:#107212;opacity:0.6;stroke-dasharray:0,0;stroke-dashoffset:0;"/>
   </g>
   <g id="patch_17">
    <path clip-path="url(#p372e5d1e8d)" d="M 155.616488 198.250677 
L 147.671 179.26603 
L 170.32409 166.43458 
L 179.483119 180.076573 
z
" style="fill:#11b5ec;opacity:0.6;stroke-dasharray:0,0;stroke-dashoffset:0;"/>
   </g>
   <g id="patch_18">
    <path clip-path="url(#p372e5d1e8d)" d="M 155.616488 198.250677 
L 179.483125 180.076568 
L 219.791659 182.995332 
L 210.400158 329.148706 
z
" style="fill:#12f9c6;opacity:0.6;stroke-dasharray:0,0;stroke-dashoffset:0;"/>
   </g>
   <g id="patch_19">
    <path clip-path="url(#p372e5d1e8d)" d="M 170.324098 166.434576 
L 165.23822 154.131775 
L 201.99654 147.633752 
L 202.428783 148.249433 
z
" style="fill:#143da0;opacity:0.6;stroke-dasharray:0,0;stroke-dashoffset:0;"/>
   </g>
   <g id="patch_20">
    <path clip-path="url(#p372e5d1e8d)" d="M 165.238217 154.131775 
L 176.671136 136.394727 
L 201.705648 141.420222 
L 201.99654 147.633752 
z
" style="fill:#15817a;opacity:0.6;stroke-dasharray:0,0;stroke-dashoffset:0;"/>
   </g>
   <g id="patch_21">
    <path clip-path="url(#p372e5d1e8d)" d="M 167.876099 134.629187 
L 180.623244 129.954618 
L 176.671138 136.394727 
z
" style="fill:#16c554;opacity:0.6;stroke-dasharray:0,0;stroke-dashoffset:0;"/>
   </g>
   <g id="patch_22">
    <path clip-path="url(#p372e5d1e8d)" d="M 179.483119 180.076573 
L 170.32409 166.43458 
L 202.428783 148.249434 
L 212.475006 154.953715 
z
" style="fill:#18092e;opacity:0.6;stroke-dasharray:0,0;stroke-dashoffset:0;"/>
   </g>
   <g id="patch_23">
    <path clip-path="url(#p372e5d1e8d)" d="M 176.671138 136.394727 
L 180.623244 129.954618 
L 183.617879 128.85644 
L 205.233426 135.402702 
L 201.705648 141.420222 
z
" style="fill:#194d08;opacity:0.6;stroke-dasharray:0,0;stroke-dashoffset:0;"/>
   </g>
   <g id="patch_24">
    <path clip-path="url(#p372e5d1e8d)" d="M 179.483125 180.076568 
L 212.475006 154.953715 
L 221.496956 156.456986 
L 219.791659 182.995332 
z
" style="fill:#1a90e2;opacity:0.6;stroke-dasharray:0,0;stroke-dashoffset:0;"/>
   </g>
   <g id="patch_25">
    <path clip-path="url(#p372e5d1e8d)" d="M 180.623242 129.954619 
L 181.875292 128.328699 
L 183.617879 128.85644 
z
" style="fill:#1bd4bc;opacity:0.6;stroke-dasharray:0,0;stroke-dashoffset:0;"/>
   </g>
   <g id="patch_26">
    <path clip-path="url(#p372e5d1e8d)" d="M 183.617879 128.85644 
L 181.875296 128.3287 
L 200.689716 120.81529 
L 201.894167 122.154251 
z
" style="fill:#1d1896;opacity:0.6;stroke-dasharray:0,0;stroke-dashoffset:0;"/>
   </g>
   <g id="patch_27">
    <path clip-path="url(#p372e5d1e8d)" d="M 183.617879 128.85644 
L 201.894167 122.154251 
L 210.828803 132.086694 
L 205.233427 135.402702 
z
" style="fill:#1e5c70;opacity:0.6;stroke-dasharray:0,0;stroke-dashoffset:0;"/>
   </g>
   <g id="patch_28">
    <path clip-path="url(#p372e5d1e8d)" d="M 204.204946 147.243357 
L 201.99654 147.633752 
L 201.705648 141.420222 
L 211.141325 143.314365 
z
" style="fill:#1fa04a;opacity:0.6;stroke-dasharray:0,0;stroke-dashoffset:0;"/>
   </g>
   <g id="patch_29">
    <path clip-path="url(#p372e5d1e8d)" d="M 201.894167 122.154251 
L 200.689716 120.81529 
L 208.172809 119.851779 
z
" style="fill:#20e424;opacity:0.6;stroke-dasharray:0,0;stroke-dashoffset:0;"/>
   </g>
   <g id="patch_30">
    <path clip-path="url(#p372e5d1e8d)" d="M 202.428783 148.249434 
L 204.204946 147.243357 
L 218.300688 144.751555 
L 222.198839 145.53408 
L 222.062692 147.652827 
L 212.475006 154.953715 
z
" style="fill:#2227fe;opacity:0.6;stroke-dasharray:0,0;stroke-dashoffset:0;"/>
   </g>
   <g id="patch_31">
    <path clip-path="url(#p372e5d1e8d)" d="M 201.705648 141.420222 
L 205.233426 135.402702 
L 217.023645 138.973366 
L 217.624953 139.641827 
L 211.141325 143.314365 
z
" style="fill:#236bd8;opacity:0.6;stroke-dasharray:0,0;stroke-dashoffset:0;"/>
   </g>
   <g id="patch_32">
    <path clip-path="url(#p372e5d1e8d)" d="M 210.828803 132.086694 
L 201.894167 122.154251 
L 208.172818 119.851776 
L 223.954569 118.210876 
L 223.174972 130.343205 
z
" style="fill:#24afb2;opacity:0.6;stroke-dasharray:0,0;stroke-dashoffset:0;"/>
   </g>
   <g id="patch_33">
    <path clip-path="url(#p372e5d1e8d)" d="M 204.204946 147.243357 
L 211.141325 143.314365 
L 218.300688 144.751555 
z
" style="fill:#25f38c;opacity:0.6;stroke-dasharray:0,0;stroke-dashoffset:0;"/>
   </g>
   <g id="patch_34">
    <path clip-path="url(#p372e5d1e8d)" d="M 205.233427 135.402702 
L 210.828803 132.086694 
L 217.023645 138.973366 
z
" style="fill:#273766;opacity:0.6;stroke-dasharray:0,0;stroke-dashoffset:0;"/>
   </g>
   <g id="patch_35">
    <path clip-path="url(#p372e5d1e8d)" d="M 208.172818 119.851776 
L 224.227444 113.964303 
L 223.954569 118.210876 
z
" style="fill:#287b40;opacity:0.6;stroke-dasharray:0,0;stroke-dashoffset:0;"/>
   </g>
   <g id="patch_36">
    <path clip-path="url(#p372e5d1e8d)" d="M 218.184443 139.324913 
L 217.023645 138.973366 
L 210.828803 132.086694 
L 223.174972 130.343205 
L 222.764531 136.730602 
z
" style="fill:#29bf1a;opacity:0.6;stroke-dasharray:0,0;stroke-dashoffset:0;"/>
   </g>
   <g id="patch_37">
    <path clip-path="url(#p372e5d1e8d)" d="M 212.475006 154.953715 
L 222.062692 147.652827 
L 221.496956 156.456986 
z
" style="fill:#2b02f4;opacity:0.6;stroke-dasharray:0,0;stroke-dashoffset:0;"/>
   </g>
   <g id="patch_38">
    <path clip-path="url(#p372e5d1e8d)" d="M 211.141325 143.314365 
L 217.624953 139.641827 
L 221.683443 144.153562 
L 218.300688 144.751555 
z
" style="fill:#2c46ce;opacity:0.6;stroke-dasharray:0,0;stroke-dashoffset:0;"/>
   </g>
   <g id="patch_39">
    <path clip-path="url(#p372e5d1e8d)" d="M 215.357568 252 
L 219.791659 182.995336 
L 250.597814 176.297044 
L 318.695705 252 
z
" style="fill:#2d8aa8;opacity:0.6;stroke-dasharray:0,0;stroke-dashoffset:0;"/>
   </g>
   <g id="patch_40">
    <path clip-path="url(#p372e5d1e8d)" d="M 217.624953 139.641827 
L 218.184443 139.324913 
L 222.513579 140.635991 
L 222.294489 144.045543 
L 221.683443 144.153562 
z
" style="fill:#2ece82;opacity:0.6;stroke-dasharray:0,0;stroke-dashoffset:0;"/>
   </g>
   <g id="patch_41">
    <path clip-path="url(#p372e5d1e8d)" d="M 218.184443 139.324913 
L 222.764531 136.730602 
L 222.513579 140.635991 
z
" style="fill:#30125c;opacity:0.6;stroke-dasharray:0,0;stroke-dashoffset:0;"/>
   </g>
   <g id="patch_42">
    <path clip-path="url(#p372e5d1e8d)" d="M 219.791659 182.995336 
L 221.496956 156.456986 
L 231.066214 154.584186 
L 250.597814 176.297044 
z
" style="fill:#315636;opacity:0.6;stroke-dasharray:0,0;stroke-dashoffset:0;"/>
   </g>
   <g id="patch_43">
    <path clip-path="url(#p372e5d1e8d)" d="M 218.300688 144.751555 
L 221.683443 144.153562 
L 222.247271 144.780358 
L 222.198839 145.53408 
z
" style="fill:#329a10;opacity:0.6;stroke-dasharray:0,0;stroke-dashoffset:0;"/>
   </g>
   <g id="patch_44">
    <path clip-path="url(#p372e5d1e8d)" d="M 221.496956 156.456986 
L 222.062692 147.652827 
L 223.70572 146.401684 
L 231.066214 154.584186 
z
" style="fill:#33ddea;opacity:0.6;stroke-dasharray:0,0;stroke-dashoffset:0;"/>
   </g>
   <g id="patch_45">
    <path clip-path="url(#p372e5d1e8d)" d="M 222.062692 147.652827 
L 222.198839 145.53408 
L 223.085359 145.712043 
L 223.70572 146.401684 
z
" style="fill:#3521c4;opacity:0.6;stroke-dasharray:0,0;stroke-dashoffset:0;"/>
   </g>
   <g id="patch_46">
    <path clip-path="url(#p372e5d1e8d)" d="M 222.198839 145.53408 
L 222.247271 144.780358 
L 223.085359 145.712043 
z
" style="fill:#36659e;opacity:0.6;stroke-dasharray:0,0;stroke-dashoffset:0;"/>
   </g>
   <g id="patch_47">
    <path clip-path="url(#p372e5d1e8d)" d="M 223.70572 146.401684 
L 223.085359 145.712043 
L 224.293012 145.95447 
z
" style="fill:#37a978;opacity:0.6;stroke-dasharray:0,0;stroke-dashoffset:0;"/>
   </g>
   <g id="patch_48">
    <path clip-path="url(#p372e5d1e8d)" d="M 223.085359 145.712043 
L 222.247271 144.780358 
L 222.294489 144.045543 
L 228.161978 143.008307 
L 224.293012 145.95447 
z
" style="fill:#38ed52;opacity:0.6;stroke-dasharray:0,0;stroke-dashoffset:0;"/>
   </g>
   <g id="patch_49">
    <path clip-path="url(#p372e5d1e8d)" d="M 222.294489 144.045543 
L 222.513579 140.635991 
L 228.78368 142.534889 
L 228.161978 143.008307 
z
" style="fill:#3a312c;opacity:0.6;stroke-dasharray:0,0;stroke-dashoffset:0;"/>
   </g>
   <g id="patch_50">
    <path clip-path="url(#p372e5d1e8d)" d="M 222.513579 140.635991 
L 222.764531 136.730602 
L 230.940978 132.099195 
L 237.969068 135.540345 
L 228.78368 142.534889 
z
" style="fill:#3b7506;opacity:0.6;stroke-dasharray:0,0;stroke-dashoffset:0;"/>
   </g>
   <g id="patch_51">
    <path clip-path="url(#p372e5d1e8d)" d="M 222.764531 136.730602 
L 223.174972 130.343204 
L 230.940978 132.099195 
z
" style="fill:#3cb8e0;opacity:0.6;stroke-dasharray:0,0;stroke-dashoffset:0;"/>
   </g>
   <g id="patch_52">
    <path clip-path="url(#p372e5d1e8d)" d="M 230.940978 132.099195 
L 223.174972 130.343204 
L 223.954569 118.210876 
L 251.392346 120.514873 
z
" style="fill:#3dfcba;opacity:0.6;stroke-dasharray:0,0;stroke-dashoffset:0;"/>
   </g>
   <g id="patch_53">
    <path clip-path="url(#p372e5d1e8d)" d="M 231.066213 154.584186 
L 223.70572 146.401684 
L 224.293012 145.95447 
L 239.507961 149.00876 
z
" style="fill:#3f4094;opacity:0.6;stroke-dasharray:0,0;stroke-dashoffset:0;"/>
   </g>
   <g id="patch_54">
    <path clip-path="url(#p372e5d1e8d)" d="M 224.293012 145.95447 
L 228.161978 143.008307 
L 229.541593 142.764422 
L 241.344429 146.338908 
L 239.50796 149.00876 
z
" style="fill:#40846e;opacity:0.6;stroke-dasharray:0,0;stroke-dashoffset:0;"/>
   </g>
   <g id="patch_55">
    <path clip-path="url(#p372e5d1e8d)" d="M 223.954569 118.210876 
L 224.227444 113.964303 
L 305.388676 84.201261 
L 276.02067 106.564585 
L 251.392346 120.514873 
z
" style="fill:#41c848;opacity:0.6;stroke-dasharray:0,0;stroke-dashoffset:0;"/>
   </g>
   <g id="patch_56">
    <path clip-path="url(#p372e5d1e8d)" d="M 224.227444 113.964303 
L 229.329794 34.56 
L 370.578667 34.56 
L 305.388676 84.201261 
z
" style="fill:#430c22;opacity:0.6;stroke-dasharray:0,0;stroke-dashoffset:0;"/>
   </g>
   <g id="patch_57">
    <path clip-path="url(#p372e5d1e8d)" d="M 228.161978 143.008307 
L 228.78368 142.534889 
L 229.541593 142.764422 
z
" style="fill:#444ffc;opacity:0.6;stroke-dasharray:0,0;stroke-dashoffset:0;"/>
   </g>
   <g id="patch_58">
    <path clip-path="url(#p372e5d1e8d)" d="M 229.541593 142.764422 
L 241.184095 140.706297 
L 241.34443 146.338908 
z
" style="fill:#4593d6;opacity:0.6;stroke-dasharray:0,0;stroke-dashoffset:0;"/>
   </g>
   <g id="patch_59">
    <path clip-path="url(#p372e5d1e8d)" d="M 229.541593 142.764422 
L 228.78368 142.534889 
L 237.969067 135.540346 
L 241.184093 140.706297 
z
" style="fill:#46d7b0;opacity:0.6;stroke-dasharray:0,0;stroke-dashoffset:0;"/>
   </g>
   <g id="patch_60">
    <path clip-path="url(#p372e5d1e8d)" d="M 250.597809 176.297039 
L 231.066213 154.584186 
L 239.507961 149.00876 
L 271.102523 155.351137 
L 275.195937 156.590826 
z
" style="fill:#481b8a;opacity:0.6;stroke-dasharray:0,0;stroke-dashoffset:0;"/>
   </g>
   <g id="patch_61">
    <path clip-path="url(#p372e5d1e8d)" d="M 230.940978 132.099195 
L 251.392345 120.514873 
L 256.744083 121.243435 
L 237.969068 135.540345 
z
" style="fill:#495f64;opacity:0.6;stroke-dasharray:0,0;stroke-dashoffset:0;"/>
   </g>
   <g id="patch_62">
    <path clip-path="url(#p372e5d1e8d)" d="M 241.184093 140.706297 
L 237.969067 135.540346 
L 256.744082 121.243436 
L 273.26331 135.035432 
z
" style="fill:#4aa33e;opacity:0.6;stroke-dasharray:0,0;stroke-dashoffset:0;"/>
   </g>
   <g id="patch_63">
    <path clip-path="url(#p372e5d1e8d)" d="M 239.50796 149.00876 
L 241.344429 146.338908 
L 271.102523 155.351137 
z
" style="fill:#4be718;opacity:0.6;stroke-dasharray:0,0;stroke-dashoffset:0;"/>
   </g>
   <g id="patch_64">
    <path clip-path="url(#p372e5d1e8d)" d="M 241.34443 146.338908 
L 241.184095 140.706297 
L 273.263309 135.035432 
L 275.147121 156.163061 
L 271.102523 155.351137 
z
" style="fill:#4d2af2;opacity:0.6;stroke-dasharray:0,0;stroke-dashoffset:0;"/>
   </g>
   <g id="patch_65">
    <path clip-path="url(#p372e5d1e8d)" d="M 318.695705 252 
L 250.597809 176.297039 
L 275.195937 156.590826 
L 388.8 190.995781 
L 388.8 252 
z
" style="fill:#4e6ecc;opacity:0.6;stroke-dasharray:0,0;stroke-dashoffset:0;"/>
   </g>
   <g id="patch_66">
    <path clip-path="url(#p372e5d1e8d)" d="M 251.392345 120.514873 
L 276.02067 106.564585 
L 256.744083 121.243435 
z
" style="fill:#4fb2a6;opacity:0.6;stroke-dasharray:0,0;stroke-dashoffset:0;"/>
   </g>
   <g id="patch_67">
    <path clip-path="url(#p372e5d1e8d)" d="M 273.26331 135.035432 
L 256.744082 121.243436 
L 276.02067 106.564585 
L 334.070799 73.683097 
L 388.8 53.613077 
L 388.8 114.611212 
z
" style="fill:#50f680;opacity:0.6;stroke-dasharray:0,0;stroke-dashoffset:0;"/>
   </g>
   <g id="patch_68">
    <path clip-path="url(#p372e5d1e8d)" d="M 275.147121 156.163061 
L 273.263309 135.035432 
L 388.8 114.611212 
L 388.8 178.978045 
z
" style="fill:#523a5a;opacity:0.6;stroke-dasharray:0,0;stroke-dashoffset:0;"/>
   </g>
   <g id="patch_69">
    <path clip-path="url(#p372e5d1e8d)" d="M 275.195936 156.590826 
L 275.147123 156.163061 
L 388.8 178.978045 
L 388.8 190.995781 
z
" style="fill:#537e34;opacity:0.6;stroke-dasharray:0,0;stroke-dashoffset:0;"/>
   </g>
   <g id="patch_70">
    <path clip-path="url(#p372e5d1e8d)" d="M 276.02067 106.564585 
L 305.388676 84.201261 
L 334.070799 73.683097 
z
" style="fill:#54c20e;opacity:0.6;stroke-dasharray:0,0;stroke-dashoffset:0;"/>
   </g>
   <g id="patch_71">
    <path clip-path="url(#p372e5d1e8d)" d="M 334.070799 73.683097 
L 305.388676 84.201261 
L 370.578667 34.56 
L 388.8 34.56 
L 388.8 42.68269 
z
" style="fill:#5605e8;opacity:0.6;stroke-dasharray:0,0;stroke-dashoffset:0;"/>
   </g>
   <g id="patch_72">
    <path clip-path="url(#p372e5d1e8d)" d="M 334.070799 73.683097 
L 388.8 42.68269 
L 388.8 53.613077 
z
" style="fill:#5749c2;opacity:0.6;stroke-dasharray:0,0;stroke-dashoffset:0;"/>
   </g>
   <g id="matplotlib.axis_1">
    <g id="xtick_1">
     <g id="line2d_1">
      <defs>
       <path d="M 0 0 
L 0 3.5 
" id="m8df47ec00c" style="stroke:#000000;stroke-width:0.8;"/>
      </defs>
      <g>
       <use style="stroke:#000000;stroke-width:0.8;" x="87.48" xlink:href="#m8df47ec00c" y="252"/>
      </g>
     </g>
     <g id="text_1">
      <!-- −4 -->
      <defs>
       <path d="M 10.59375 35.5 
L 73.1875 35.5 
L 73.1875 27.203125 
L 10.59375 27.203125 
z
" id="DejaVuSans-2212"/>
       <path d="M 37.796875 64.3125 
L 12.890625 25.390625 
L 37.796875 25.390625 
z
M 35.203125 72.90625 
L 47.609375 72.90625 
L 47.609375 25.390625 
L 58.015625 25.390625 
L 58.015625 17.1875 
L 47.609375 17.1875 
L 47.609375 0 
L 37.796875 0 
L 37.796875 17.1875 
L 4.890625 17.1875 
L 4.890625 26.703125 
z
" id="DejaVuSans-34"/>
      </defs>
      <g transform="translate(80.108906 266.598437)scale(0.1 -0.1)">
       <use xlink:href="#DejaVuSans-2212"/>
       <use x="83.789062" xlink:href="#DejaVuSans-34"/>
      </g>
     </g>
    </g>
    <g id="xtick_2">
     <g id="line2d_2">
      <g>
       <use style="stroke:#000000;stroke-width:0.8;" x="154.44" xlink:href="#m8df47ec00c" y="252"/>
      </g>
     </g>
     <g id="text_2">
      <!-- −2 -->
      <defs>
       <path d="M 19.1875 8.296875 
L 53.609375 8.296875 
L 53.609375 0 
L 7.328125 0 
L 7.328125 8.296875 
Q 12.9375 14.109375 22.625 23.890625 
Q 32.328125 33.6875 34.8125 36.53125 
Q 39.546875 41.84375 41.421875 45.53125 
Q 43.3125 49.21875 43.3125 52.78125 
Q 43.3125 58.59375 39.234375 62.25 
Q 35.15625 65.921875 28.609375 65.921875 
Q 23.96875 65.921875 18.8125 64.3125 
Q 13.671875 62.703125 7.8125 59.421875 
L 7.8125 69.390625 
Q 13.765625 71.78125 18.9375 73 
Q 24.125 74.21875 28.421875 74.21875 
Q 39.75 74.21875 46.484375 68.546875 
Q 53.21875 62.890625 53.21875 53.421875 
Q 53.21875 48.921875 51.53125 44.890625 
Q 49.859375 40.875 45.40625 35.40625 
Q 44.1875 33.984375 37.640625 27.21875 
Q 31.109375 20.453125 19.1875 8.296875 
z
" id="DejaVuSans-32"/>
      </defs>
      <g transform="translate(147.068906 266.598437)scale(0.1 -0.1)">
       <use xlink:href="#DejaVuSans-2212"/>
       <use x="83.789062" xlink:href="#DejaVuSans-32"/>
      </g>
     </g>
    </g>
    <g id="xtick_3">
     <g id="line2d_3">
      <g>
       <use style="stroke:#000000;stroke-width:0.8;" x="221.4" xlink:href="#m8df47ec00c" y="252"/>
      </g>
     </g>
     <g id="text_3">
      <!-- 0 -->
      <defs>
       <path d="M 31.78125 66.40625 
Q 24.171875 66.40625 20.328125 58.90625 
Q 16.5 51.421875 16.5 36.375 
Q 16.5 21.390625 20.328125 13.890625 
Q 24.171875 6.390625 31.78125 6.390625 
Q 39.453125 6.390625 43.28125 13.890625 
Q 47.125 21.390625 47.125 36.375 
Q 47.125 51.421875 43.28125 58.90625 
Q 39.453125 66.40625 31.78125 66.40625 
z
M 31.78125 74.21875 
Q 44.046875 74.21875 50.515625 64.515625 
Q 56.984375 54.828125 56.984375 36.375 
Q 56.984375 17.96875 50.515625 8.265625 
Q 44.046875 -1.421875 31.78125 -1.421875 
Q 19.53125 -1.421875 13.0625 8.265625 
Q 6.59375 17.96875 6.59375 36.375 
Q 6.59375 54.828125 13.0625 64.515625 
Q 19.53125 74.21875 31.78125 74.21875 
z
" id="DejaVuSans-30"/>
      </defs>
      <g transform="translate(218.21875 266.598437)scale(0.1 -0.1)">
       <use xlink:href="#DejaVuSans-30"/>
      </g>
     </g>
    </g>
    <g id="xtick_4">
     <g id="line2d_4">
      <g>
       <use style="stroke:#000000;stroke-width:0.8;" x="288.36" xlink:href="#m8df47ec00c" y="252"/>
      </g>
     </g>
     <g id="text_4">
      <!-- 2 -->
      <g transform="translate(285.17875 266.598437)scale(0.1 -0.1)">
       <use xlink:href="#DejaVuSans-32"/>
      </g>
     </g>
    </g>
    <g id="xtick_5">
     <g id="line2d_5">
      <g>
       <use style="stroke:#000000;stroke-width:0.8;" x="355.32" xlink:href="#m8df47ec00c" y="252"/>
      </g>
     </g>
     <g id="text_5">
      <!-- 4 -->
      <g transform="translate(352.13875 266.598437)scale(0.1 -0.1)">
       <use xlink:href="#DejaVuSans-34"/>
      </g>
     </g>
    </g>
   </g>
   <g id="matplotlib.axis_2">
    <g id="ytick_1">
     <g id="line2d_6">
      <defs>
       <path d="M 0 0 
L -3.5 0 
" id="m24ac7652fa" style="stroke:#000000;stroke-width:0.8;"/>
      </defs>
      <g>
       <use style="stroke:#000000;stroke-width:0.8;" x="54" xlink:href="#m24ac7652fa" y="230.256"/>
      </g>
     </g>
     <g id="text_6">
      <!-- −4 -->
      <g transform="translate(32.257812 234.055219)scale(0.1 -0.1)">
       <use xlink:href="#DejaVuSans-2212"/>
       <use x="83.789062" xlink:href="#DejaVuSans-34"/>
      </g>
     </g>
    </g>
    <g id="ytick_2">
     <g id="line2d_7">
      <g>
       <use style="stroke:#000000;stroke-width:0.8;" x="54" xlink:href="#m24ac7652fa" y="186.768"/>
      </g>
     </g>
     <g id="text_7">
      <!-- −2 -->
      <g transform="translate(32.257812 190.567219)scale(0.1 -0.1)">
       <use xlink:href="#DejaVuSans-2212"/>
       <use x="83.789062" xlink:href="#DejaVuSans-32"/>
      </g>
     </g>
    </g>
    <g id="ytick_3">
     <g id="line2d_8">
      <g>
       <use style="stroke:#000000;stroke-width:0.8;" x="54" xlink:href="#m24ac7652fa" y="143.28"/>
      </g>
     </g>
     <g id="text_8">
      <!-- 0 -->
      <g transform="translate(40.6375 147.079219)scale(0.1 -0.1)">
       <use xlink:href="#DejaVuSans-30"/>
      </g>
     </g>
    </g>
    <g id="ytick_4">
     <g id="line2d_9">
      <g>
       <use style="stroke:#000000;stroke-width:0.8;" x="54" xlink:href="#m24ac7652fa" y="99.792"/>
      </g>
     </g>
     <g id="text_9">
      <!-- 2 -->
      <g transform="translate(40.6375 103.591219)scale(0.1 -0.1)">
       <use xlink:href="#DejaVuSans-32"/>
      </g>
     </g>
    </g>
    <g id="ytick_5">
     <g id="line2d_10">
      <g>
       <use style="stroke:#000000;stroke-width:0.8;" x="54" xlink:href="#m24ac7652fa" y="56.304"/>
      </g>
     </g>
     <g id="text_10">
      <!-- 4 -->
      <g transform="translate(40.6375 60.103219)scale(0.1 -0.1)">
       <use xlink:href="#DejaVuSans-34"/>
      </g>
     </g>
    </g>
   </g>
   <g id="line2d_11">
    <path clip-path="url(#p372e5d1e8d)" d="M 198.729568 150.344789 
L 197.397092 148.446828 
" style="fill:none;stroke:#ff0000;stroke-linecap:square;stroke-width:0.5;"/>
   </g>
   <g id="line2d_12">
    <path clip-path="url(#p372e5d1e8d)" d="M 197.397092 148.446828 
L 197.024139 140.480443 
" style="fill:none;stroke:#ff0000;stroke-linecap:square;stroke-width:0.5;"/>
   </g>
   <g id="line2d_13">
    <path clip-path="url(#p372e5d1e8d)" d="M 209.280781 157.386073 
L 198.729568 150.34479 
" style="fill:none;stroke:#ff0000;stroke-linecap:square;stroke-width:0.5;"/>
   </g>
   <g id="line2d_14">
    <path clip-path="url(#p372e5d1e8d)" d="M 200.789901 134.056982 
L 197.024139 140.480443 
" style="fill:none;stroke:#ff0000;stroke-linecap:square;stroke-width:0.5;"/>
   </g>
   <g id="line2d_15">
    <path clip-path="url(#p372e5d1e8d)" d="M 221.308476 159.390172 
L 209.280781 157.386072 
" style="fill:none;stroke:#ff0000;stroke-linecap:square;stroke-width:0.5;"/>
   </g>
   <g id="line2d_16">
    <path clip-path="url(#p372e5d1e8d)" d="M 208.494077 129.491229 
L 200.789903 134.056982 
" style="fill:none;stroke:#ff0000;stroke-linecap:square;stroke-width:0.5;"/>
   </g>
   <g id="line2d_17">
    <path clip-path="url(#p372e5d1e8d)" d="M 223.364658 127.391251 
L 208.494078 129.49123 
" style="fill:none;stroke:#ff0000;stroke-linecap:square;stroke-width:0.5;"/>
   </g>
   <g id="line2d_18">
    <path clip-path="url(#p372e5d1e8d)" d="M 233.281545 157.046923 
L 221.308476 159.390172 
" style="fill:none;stroke:#ff0000;stroke-linecap:square;stroke-width:0.5;"/>
   </g>
   <g id="line2d_19">
    <path clip-path="url(#p372e5d1e8d)" d="M 234.719748 129.958776 
L 223.364658 127.391248 
" style="fill:none;stroke:#ff0000;stroke-linecap:square;stroke-width:0.5;"/>
   </g>
   <g id="line2d_20">
    <path clip-path="url(#p372e5d1e8d)" d="M 233.281544 157.046921 
L 244.066556 149.923864 
" style="fill:none;stroke:#ff0000;stroke-linecap:square;stroke-width:0.5;"/>
   </g>
   <g id="line2d_21">
    <path clip-path="url(#p372e5d1e8d)" d="M 241.158715 133.111474 
L 234.719749 129.958776 
" style="fill:none;stroke:#ff0000;stroke-linecap:square;stroke-width:0.5;"/>
   </g>
   <g id="line2d_22">
    <path clip-path="url(#p372e5d1e8d)" d="M 245.419389 139.957595 
L 241.158712 133.111477 
" style="fill:none;stroke:#ff0000;stroke-linecap:square;stroke-width:0.5;"/>
   </g>
   <g id="line2d_23">
    <path clip-path="url(#p372e5d1e8d)" d="M 244.066558 149.923865 
L 245.638053 147.639231 
" style="fill:none;stroke:#ff0000;stroke-linecap:square;stroke-width:0.5;"/>
   </g>
   <g id="line2d_24">
    <path clip-path="url(#p372e5d1e8d)" d="M 245.638053 147.639231 
L 245.419391 139.957594 
" style="fill:none;stroke:#ff0000;stroke-linecap:square;stroke-width:0.5;"/>
   </g>
   <g id="patch_73">
    <path d="M 54 252 
L 54 34.56 
" style="fill:none;stroke:#000000;stroke-linecap:square;stroke-linejoin:miter;stroke-width:0.8;"/>
   </g>
   <g id="patch_74">
    <path d="M 388.8 252 
L 388.8 34.56 
" style="fill:none;stroke:#000000;stroke-linecap:square;stroke-linejoin:miter;stroke-width:0.8;"/>
   </g>
   <g id="patch_75">
    <path d="M 54 252 
L 388.8 252 
" style="fill:none;stroke:#000000;stroke-linecap:square;stroke-linejoin:miter;stroke-width:0.8;"/>
   </g>
   <g id="patch_76">
    <path d="M 54 34.56 
L 388.8 34.56 
" style="fill:none;stroke:#000000;stroke-linecap:square;stroke-linejoin:miter;stroke-width:0.8;"/>
   </g>
  </g>
 </g>
 <defs>
  <clipPath id="p372e5d1e8d">
   <rect height="217.44" width="334.8" x="54" y="34.56"/>
  </clipPath>
 </defs>
</svg>
