<?xml version="1.0" encoding="utf-8" standalone="no"?>
<!DOCTYPE svg PUBLIC "-//W3C//DTD SVG 1.1//EN"
  "http://www.w3.org/Graphics/SVG/1.1/DTD/svg11.dtd">
<!-- Created with matplotlib (http://matplotlib.org/) -->
<svg height="576pt" version="1.1" viewBox="0 0 576 576" width="576pt" xmlns="http://www.w3.org/2000/svg" xmlns:xlink="http://www.w3.org/1999/xlink">
 <defs>
  <style type="text/css">
*{stroke-linecap:butt;stroke-linejoin:round;}
  </style>
 </defs>
 <g id="figure_1">
  <g id="patch_1">
   <path d="M 0 576 
L 576 576 
L 576 0 
L 0 0 
z
" style="fill:#ffffff;"/>
  </g>
  <g id="axes_1">
   <g id="patch_2">
    <path d="M 72 504 
L 429.12 504 
L 429.12 69.12 
L 72 69.12 
z
" style="fill:#ffffff;"/>
   </g>
   <g id="PathCollection_1">
    <path clip-path="url(#p5325745184)" d="M 73.865685 73.512727 
L 75.607273 71.386173 
L 77.463238 69.12 
L 75.607273 69.12 
L 72 69.12 
L 72 73.512727 
L 72 75.790823 
z
" style="fill:#4e68d8;"/>
   </g>
   <g id="PathCollection_2">
    <path clip-path="url(#p5325745184)" d="M 72.249223 143.796364 
L 75.607273 139.696064 
L 75.846764 139.403636 
L 79.214545 135.291503 
L 79.444346 135.010909 
L 82.821818 130.886869 
L 83.041867 130.618182 
L 86.429091 126.482284 
L 86.639428 126.225455 
L 90.036364 122.077674 
L 90.236969 121.832727 
L 93.643636 117.673064 
L 93.83451 117.44 
L 97.250909 113.268454 
L 97.432052 113.047273 
L 100.858182 108.863845 
L 101.029183 108.654545 
L 104.465455 104.373174 
L 104.552868 104.261818 
L 108.001055 99.869091 
L 108.072727 99.777788 
L 111.449246 95.476364 
L 111.68 95.182401 
L 115.287273 91.258444 
L 115.557578 91.083636 
L 118.894545 89.31741 
L 122.501818 87.40806 
L 123.856726 86.690909 
L 126.109091 85.498736 
L 129.716364 83.589405 
L 132.155818 82.298182 
L 133.323636 81.680051 
L 136.930909 79.770768 
L 140.45496 77.905455 
L 140.538182 77.861404 
L 144.145455 75.952082 
L 147.752727 74.042724 
L 148.754028 73.512727 
L 151.36 72.133377 
L 154.967273 70.371067 
L 157.877765 69.12 
L 154.967273 69.12 
L 151.36 69.12 
L 147.752727 69.12 
L 144.145455 69.12 
L 140.538182 69.12 
L 136.930909 69.12 
L 133.323636 69.12 
L 129.716364 69.12 
L 126.109091 69.12 
L 122.501818 69.12 
L 118.894545 69.12 
L 115.287273 69.12 
L 111.68 69.12 
L 108.072727 69.12 
L 104.465455 69.12 
L 100.858182 69.12 
L 97.250909 69.12 
L 93.643636 69.12 
L 90.036364 69.12 
L 86.429091 69.12 
L 82.821818 69.12 
L 79.214545 69.12 
L 77.463238 69.12 
L 75.607273 71.386173 
L 73.865685 73.512727 
L 72 75.790823 
L 72 77.905455 
L 72 82.298182 
L 72 86.690909 
L 72 91.083636 
L 72 95.476364 
L 72 99.869091 
L 72 104.261818 
L 72 108.654545 
L 72 113.047273 
L 72 117.44 
L 72 121.832727 
L 72 126.225455 
L 72 130.618182 
L 72 135.010909 
L 72 139.403636 
L 72 143.796364 
L 72 144.100671 
z
" style="fill:#779af7;"/>
   </g>
   <g id="PathCollection_3">
    <path clip-path="url(#p5325745184)" d="M 367.796364 504 
L 371.403636 504 
L 375.010909 504 
L 378.618182 504 
L 382.225455 504 
L 385.832727 504 
L 389.44 504 
L 393.047273 504 
L 396.654545 504 
L 400.261818 504 
L 403.869091 504 
L 407.476364 504 
L 411.083636 504 
L 414.690909 504 
L 418.298182 504 
L 421.905455 504 
L 425.512727 504 
L 429.12 504 
L 429.12 499.607273 
L 429.12 495.214545 
L 429.12 490.821818 
L 429.12 486.429091 
L 429.12 482.036364 
L 429.12 477.643636 
L 429.12 473.250909 
L 429.12 468.858182 
L 429.12 464.465455 
L 429.12 460.072727 
L 429.12 455.68 
L 429.12 451.287273 
L 429.12 446.894545 
L 429.12 442.501818 
L 429.12 438.109091 
L 429.12 433.716364 
L 429.12 429.323636 
L 429.12 424.930909 
L 429.12 420.538182 
L 429.12 416.145455 
L 429.12 414.477751 
L 428.520047 416.145455 
L 426.939812 420.538182 
L 425.512727 424.505087 
L 425.359536 424.930909 
L 423.779257 429.323636 
L 422.198977 433.716364 
L 421.905455 434.532273 
L 420.618711 438.109091 
L 419.038468 442.501818 
L 418.298182 444.559625 
L 417.458201 446.894545 
L 415.836928 451.287273 
L 414.690909 453.996472 
L 413.92835 455.68 
L 411.938655 460.072727 
L 411.083636 461.96039 
L 409.355444 464.465455 
L 407.476364 466.042224 
L 403.869091 468.739697 
L 403.710643 468.858182 
L 400.261818 471.437136 
L 397.836291 473.250909 
L 396.654545 474.134606 
L 393.047273 476.83206 
L 391.961951 477.643636 
L 389.44 479.529488 
L 386.087619 482.036364 
L 385.832727 482.226968 
L 382.225455 485.25661 
L 381.053181 486.429091 
L 378.618182 489.015594 
L 376.917714 490.821818 
L 375.010909 492.847241 
L 372.782282 495.214545 
L 371.403636 496.678957 
L 368.646823 499.607273 
L 367.796364 500.510639 
L 364.51139 504 
z
" style="fill:#a3c2fe;"/>
    <path clip-path="url(#p5325745184)" d="M 75.607273 205.56421 
L 75.895719 205.294545 
L 79.214545 202.191807 
L 80.594366 200.901818 
L 82.821818 198.81937 
L 85.013847 196.509091 
L 86.429091 194.792171 
L 88.620515 192.116364 
L 90.036364 190.387551 
L 92.218048 187.723636 
L 93.643636 185.982952 
L 95.815597 183.330909 
L 97.250909 181.578342 
L 99.413139 178.938182 
L 100.858182 177.173753 
L 103.010697 174.545455 
L 104.465455 172.769122 
L 106.608246 170.152727 
L 108.072727 168.364543 
L 110.205788 165.76 
L 111.68 163.959944 
L 113.803337 161.367273 
L 115.287273 159.555345 
L 117.400887 156.974545 
L 118.894545 155.150735 
L 120.998429 152.581818 
L 122.501818 150.746136 
L 124.595991 148.189091 
L 126.109091 146.32094 
L 128.104168 143.796364 
L 129.716364 141.742539 
L 131.552369 139.403636 
L 133.323636 137.14719 
L 135.000567 135.010909 
L 136.930909 132.551801 
L 138.448755 130.618182 
L 140.538182 127.956444 
L 142.376152 126.225455 
L 144.145455 125.048939 
L 147.752727 123.139634 
L 150.221785 121.832727 
L 151.36 121.230257 
L 154.967273 119.320949 
L 158.520903 117.44 
L 158.574545 117.411607 
L 162.181818 115.502285 
L 165.789091 113.592927 
L 166.819993 113.047273 
L 169.396364 111.683617 
L 173.003636 109.77427 
L 175.119113 108.654545 
L 176.610909 107.865592 
L 180.218182 106.142726 
L 183.825455 104.603663 
L 184.626659 104.261818 
L 187.432727 103.064567 
L 191.04 101.524021 
L 194.647273 99.981333 
L 194.909728 99.869091 
L 198.254545 98.438646 
L 201.861818 96.895971 
L 205.181266 95.476364 
L 205.469091 95.353272 
L 209.076364 93.810601 
L 212.683636 92.267909 
L 215.452773 91.083636 
L 216.290909 90.725195 
L 219.898182 89.182536 
L 223.505455 87.639847 
L 225.724395 86.690909 
L 227.112727 86.097181 
L 230.72 84.554476 
L 234.327273 83.011806 
L 235.995943 82.298182 
L 237.934545 81.469122 
L 241.541818 79.92645 
L 245.149091 78.383757 
L 246.267517 77.905455 
L 248.756364 76.841078 
L 252.363636 75.298386 
L 255.970909 73.755681 
L 256.539014 73.512727 
L 259.578182 72.213011 
L 263.185455 70.670317 
L 266.792727 69.127653 
L 266.810623 69.12 
L 266.792727 69.12 
L 263.185455 69.12 
L 259.578182 69.12 
L 255.970909 69.12 
L 252.363636 69.12 
L 248.756364 69.12 
L 245.149091 69.12 
L 241.541818 69.12 
L 237.934545 69.12 
L 234.327273 69.12 
L 230.72 69.12 
L 227.112727 69.12 
L 223.505455 69.12 
L 219.898182 69.12 
L 216.290909 69.12 
L 212.683636 69.12 
L 209.076364 69.12 
L 205.469091 69.12 
L 201.861818 69.12 
L 198.254545 69.12 
L 194.647273 69.12 
L 191.04 69.12 
L 187.432727 69.12 
L 183.825455 69.12 
L 180.218182 69.12 
L 176.610909 69.12 
L 173.003636 69.12 
L 169.396364 69.12 
L 165.789091 69.12 
L 162.181818 69.12 
L 158.574545 69.12 
L 157.877765 69.12 
L 154.967273 70.371067 
L 151.36 72.133377 
L 148.754028 73.512727 
L 147.752727 74.042724 
L 144.145455 75.952082 
L 140.538182 77.861404 
L 140.45496 77.905455 
L 136.930909 79.770768 
L 133.323636 81.680051 
L 132.155818 82.298182 
L 129.716364 83.589405 
L 126.109091 85.498736 
L 123.856726 86.690909 
L 122.501818 87.40806 
L 118.894545 89.31741 
L 115.557578 91.083636 
L 115.287273 91.258444 
L 111.68 95.182401 
L 111.449246 95.476364 
L 108.072727 99.777788 
L 108.001055 99.869091 
L 104.552868 104.261818 
L 104.465455 104.373174 
L 101.029183 108.654545 
L 100.858182 108.863845 
L 97.432052 113.047273 
L 97.250909 113.268454 
L 93.83451 117.44 
L 93.643636 117.673064 
L 90.236969 121.832727 
L 90.036364 122.077674 
L 86.639428 126.225455 
L 86.429091 126.482284 
L 83.041867 130.618182 
L 82.821818 130.886869 
L 79.444346 135.010909 
L 79.214545 135.291503 
L 75.846764 139.403636 
L 75.607273 139.696064 
L 72.249223 143.796364 
L 72 144.100671 
L 72 148.189091 
L 72 152.581818 
L 72 156.974545 
L 72 161.367273 
L 72 165.76 
L 72 170.152727 
L 72 174.545455 
L 72 178.938182 
L 72 183.330909 
L 72 187.723636 
L 72 192.116364 
L 72 196.509091 
L 72 200.901818 
L 72 205.294545 
L 72 208.936588 
z
" style="fill:#a3c2fe;"/>
   </g>
   <g id="PathCollection_4">
    <path clip-path="url(#p5325745184)" d="M 288.436364 504 
L 292.043636 504 
L 295.650909 504 
L 299.258182 504 
L 302.865455 504 
L 306.472727 504 
L 310.08 504 
L 313.687273 504 
L 317.294545 504 
L 320.901818 504 
L 324.509091 504 
L 328.116364 504 
L 331.723636 504 
L 335.330909 504 
L 338.938182 504 
L 342.545455 504 
L 346.152727 504 
L 349.76 504 
L 353.367273 504 
L 356.974545 504 
L 360.581818 504 
L 364.189091 504 
L 364.51139 504 
L 367.796364 500.510639 
L 368.646823 499.607273 
L 371.403636 496.678957 
L 372.782282 495.214545 
L 375.010909 492.847241 
L 376.917714 490.821818 
L 378.618182 489.015594 
L 381.053181 486.429091 
L 382.225455 485.25661 
L 385.832727 482.226968 
L 386.087619 482.036364 
L 389.44 479.529488 
L 391.961951 477.643636 
L 393.047273 476.83206 
L 396.654545 474.134606 
L 397.836291 473.250909 
L 400.261818 471.437136 
L 403.710643 468.858182 
L 403.869091 468.739697 
L 407.476364 466.042224 
L 409.355444 464.465455 
L 411.083636 461.96039 
L 411.938655 460.072727 
L 413.92835 455.68 
L 414.690909 453.996472 
L 415.836928 451.287273 
L 417.458201 446.894545 
L 418.298182 444.559625 
L 419.038468 442.501818 
L 420.618711 438.109091 
L 421.905455 434.532273 
L 422.198977 433.716364 
L 423.779257 429.323636 
L 425.359536 424.930909 
L 425.512727 424.505087 
L 426.939812 420.538182 
L 428.520047 416.145455 
L 429.12 414.477751 
L 429.12 411.752727 
L 429.12 407.36 
L 429.12 402.967273 
L 429.12 398.574545 
L 429.12 394.181818 
L 429.12 389.789091 
L 429.12 385.396364 
L 429.12 381.003636 
L 429.12 376.610909 
L 429.12 372.218182 
L 429.12 367.825455 
L 429.12 363.432727 
L 429.12 359.04 
L 429.12 354.647273 
L 429.12 350.254545 
L 429.12 345.861818 
L 429.12 341.469091 
L 429.12 337.076364 
L 429.12 332.683636 
L 429.12 328.290909 
L 429.12 323.898182 
L 429.12 319.505455 
L 429.12 315.112727 
L 429.12 310.72 
L 429.12 306.327273 
L 429.12 301.934545 
L 429.12 297.541818 
L 429.12 293.149091 
L 429.12 288.756364 
L 429.12 284.363636 
L 429.12 279.970909 
L 429.12 275.578182 
L 429.12 271.185455 
L 429.12 266.792727 
L 429.12 262.4 
L 429.12 258.007273 
L 429.12 253.614545 
L 429.12 249.221818 
L 429.12 244.829091 
L 429.12 240.436364 
L 429.12 236.043636 
L 429.12 231.650909 
L 429.12 227.258182 
L 429.12 222.865455 
L 429.12 218.472727 
L 429.12 214.08 
L 429.12 209.687273 
L 429.12 205.294545 
L 429.12 200.901818 
L 429.12 196.509091 
L 429.12 192.116364 
L 429.12 187.723636 
L 429.12 183.330909 
L 429.12 178.938182 
L 429.12 174.545455 
L 429.12 170.152727 
L 429.12 165.76 
L 429.12 161.367273 
L 429.12 156.974545 
L 429.12 152.581818 
L 429.12 148.189091 
L 429.12 143.796364 
L 429.12 139.403636 
L 429.12 135.010909 
L 429.12 130.618182 
L 429.12 126.225455 
L 429.12 121.832727 
L 429.12 117.44 
L 429.12 113.047273 
L 429.12 108.654545 
L 429.12 104.261818 
L 429.12 99.869091 
L 429.12 95.476364 
L 429.12 91.083636 
L 429.12 86.690909 
L 429.12 82.298182 
L 429.12 77.905455 
L 429.12 73.512727 
L 429.12 69.12 
L 425.512727 69.12 
L 421.905455 69.12 
L 418.298182 69.12 
L 414.690909 69.12 
L 411.083636 69.12 
L 407.476364 69.12 
L 403.869091 69.12 
L 400.261818 69.12 
L 396.654545 69.12 
L 393.047273 69.12 
L 389.44 69.12 
L 385.832727 69.12 
L 382.225455 69.12 
L 378.618182 69.12 
L 375.010909 69.12 
L 371.403636 69.12 
L 367.796364 69.12 
L 364.189091 69.12 
L 360.581818 69.12 
L 356.974545 69.12 
L 353.367273 69.12 
L 349.76 69.12 
L 346.152727 69.12 
L 342.545455 69.12 
L 338.938182 69.12 
L 335.330909 69.12 
L 331.723636 69.12 
L 328.116364 69.12 
L 324.509091 69.12 
L 320.901818 69.12 
L 317.294545 69.12 
L 313.687273 69.12 
L 310.08 69.12 
L 306.472727 69.12 
L 302.865455 69.12 
L 299.258182 69.12 
L 295.650909 69.12 
L 292.043636 69.12 
L 288.436364 69.12 
L 284.829091 69.12 
L 281.221818 69.12 
L 277.614545 69.12 
L 274.007273 69.12 
L 270.4 69.12 
L 266.810623 69.12 
L 266.792727 69.127653 
L 263.185455 70.670317 
L 259.578182 72.213011 
L 256.539014 73.512727 
L 255.970909 73.755681 
L 252.363636 75.298386 
L 248.756364 76.841078 
L 246.267517 77.905455 
L 245.149091 78.383757 
L 241.541818 79.92645 
L 237.934545 81.469122 
L 235.995943 82.298182 
L 234.327273 83.011806 
L 230.72 84.554476 
L 227.112727 86.097181 
L 225.724395 86.690909 
L 223.505455 87.639847 
L 219.898182 89.182536 
L 216.290909 90.725195 
L 215.452773 91.083636 
L 212.683636 92.267909 
L 209.076364 93.810601 
L 205.469091 95.353272 
L 205.181266 95.476364 
L 201.861818 96.895971 
L 198.254545 98.438646 
L 194.909728 99.869091 
L 194.647273 99.981333 
L 191.04 101.524021 
L 187.432727 103.064567 
L 184.626659 104.261818 
L 183.825455 104.603663 
L 180.218182 106.142726 
L 176.610909 107.865592 
L 175.119113 108.654545 
L 173.003636 109.77427 
L 169.396364 111.683617 
L 166.819993 113.047273 
L 165.789091 113.592927 
L 162.181818 115.502285 
L 158.574545 117.411607 
L 158.520903 117.44 
L 154.967273 119.320949 
L 151.36 121.230257 
L 150.221785 121.832727 
L 147.752727 123.139634 
L 144.145455 125.048939 
L 142.376152 126.225455 
L 140.538182 127.956444 
L 138.448755 130.618182 
L 136.930909 132.551801 
L 135.000567 135.010909 
L 133.323636 137.14719 
L 131.552369 139.403636 
L 129.716364 141.742539 
L 128.104168 143.796364 
L 126.109091 146.32094 
L 124.595991 148.189091 
L 122.501818 150.746136 
L 120.998429 152.581818 
L 118.894545 155.150735 
L 117.400887 156.974545 
L 115.287273 159.555345 
L 113.803337 161.367273 
L 111.68 163.959944 
L 110.205788 165.76 
L 108.072727 168.364543 
L 106.608246 170.152727 
L 104.465455 172.769122 
L 103.010697 174.545455 
L 100.858182 177.173753 
L 99.413139 178.938182 
L 97.250909 181.578342 
L 95.815597 183.330909 
L 93.643636 185.982952 
L 92.218048 187.723636 
L 90.036364 190.387551 
L 88.620515 192.116364 
L 86.429091 194.792171 
L 85.013847 196.509091 
L 82.821818 198.81937 
L 80.594366 200.901818 
L 79.214545 202.191807 
L 75.895719 205.294545 
L 75.607273 205.56421 
L 72 208.936588 
L 72 209.687273 
L 72 214.08 
L 72 218.472727 
L 72 222.865455 
L 72 227.258182 
L 72 231.650909 
L 72 236.043636 
L 72 240.436364 
L 72 244.829091 
L 72 249.221818 
L 72 253.614545 
L 72 258.007273 
L 72 262.4 
L 72 263.653718 
L 73.436184 262.4 
L 75.607273 260.504757 
L 78.468286 258.007273 
L 79.214545 257.355833 
L 82.821818 254.206851 
L 83.500335 253.614545 
L 86.429091 251.471031 
L 89.473297 249.221818 
L 90.036364 248.836263 
L 93.643636 246.366211 
L 95.888451 244.829091 
L 97.250909 243.82362 
L 100.858182 241.13352 
L 101.78413 240.436364 
L 104.465455 237.929613 
L 106.482781 236.043636 
L 108.072727 234.557212 
L 111.181441 231.650909 
L 111.68 231.18481 
L 115.287273 227.788783 
L 115.784412 227.258182 
L 118.894545 223.460619 
L 119.381971 222.865455 
L 122.501818 219.055998 
L 122.979506 218.472727 
L 126.109091 214.651403 
L 126.577057 214.08 
L 129.716364 210.246793 
L 130.174601 209.687273 
L 133.323636 205.842198 
L 133.772151 205.294545 
L 136.930909 201.4376 
L 137.369702 200.901818 
L 140.538182 197.03299 
L 140.967246 196.509091 
L 144.145455 192.628395 
L 144.564795 192.116364 
L 147.752727 188.223772 
L 148.158549 187.723636 
L 151.36 183.707291 
L 151.655452 183.330909 
L 154.967273 179.111916 
L 155.103651 178.938182 
L 158.55187 174.545455 
L 158.574545 174.516567 
L 162.000058 170.152727 
L 162.181818 169.921179 
L 165.448256 165.76 
L 165.789091 165.325806 
L 168.896466 161.367273 
L 169.396364 160.903147 
L 173.003636 158.871166 
L 176.586901 156.974545 
L 176.610909 156.961838 
L 180.218182 155.052501 
L 183.825455 153.143173 
L 184.884619 152.581818 
L 187.432727 151.231439 
L 191.04 149.318054 
L 193.168422 148.189091 
L 194.647273 147.404675 
L 198.254545 145.491291 
L 201.449998 143.796364 
L 201.861818 143.582216 
L 205.469091 141.902376 
L 209.076364 140.359706 
L 211.311936 139.403636 
L 212.683636 138.817015 
L 216.290909 137.274323 
L 219.898182 135.731635 
L 221.583461 135.010909 
L 223.505455 134.188954 
L 227.112727 132.646271 
L 230.72 131.103579 
L 231.85502 130.618182 
L 234.327273 129.56091 
L 237.934545 128.018227 
L 241.541818 126.475545 
L 242.126602 126.225455 
L 245.149091 124.932846 
L 248.756364 123.390165 
L 252.140178 121.832727 
L 252.363636 121.73256 
L 255.970909 119.675729 
L 259.578182 117.611099 
L 259.877125 117.44 
L 263.185455 115.546489 
L 266.792727 113.481882 
L 267.55207 113.047273 
L 270.4 111.417256 
L 274.007273 109.352638 
L 275.226967 108.654545 
L 277.614545 107.288017 
L 281.221818 105.223392 
L 283.414602 104.261818 
L 284.829091 103.564955 
L 288.436364 102.80357 
L 292.043636 102.093385 
L 295.650909 101.383196 
L 299.258182 100.672994 
L 302.865455 99.962791 
L 303.341397 99.869091 
L 306.472727 99.252622 
L 310.08 98.542416 
L 313.687273 97.832229 
L 317.294545 97.12205 
L 320.901818 96.41186 
L 324.509091 95.701669 
L 325.653489 95.476364 
L 328.116364 94.99148 
L 331.723636 94.281284 
L 335.330909 93.571091 
L 338.938182 92.860902 
L 342.545455 92.15072 
L 346.152727 91.440512 
L 347.9654 91.083636 
L 349.76 90.730322 
L 353.367273 90.020142 
L 356.974545 89.309948 
L 360.581818 88.599772 
L 364.189091 87.889574 
L 367.796364 87.179387 
L 370.277505 86.690909 
L 371.403636 86.469199 
L 375.010909 85.759017 
L 378.618182 85.437346 
L 382.225455 85.380138 
L 385.832727 85.840079 
L 387.682051 86.690909 
L 389.44 87.682134 
L 393.047273 89.716148 
L 395.472484 91.083636 
L 396.654545 92.763282 
L 397.382374 95.476364 
L 398.400588 99.869091 
L 399.418838 104.261818 
L 400.261818 107.89855 
L 400.437055 108.654545 
L 401.455279 113.047273 
L 402.473524 117.44 
L 403.491749 121.832727 
L 403.869091 123.460599 
L 404.509983 126.225455 
L 405.444979 130.618182 
L 406.236022 135.010909 
L 406.916623 139.403636 
L 407.476364 143.016186 
L 407.597248 143.796364 
L 408.277856 148.189091 
L 408.971061 152.581818 
L 409.687864 156.974545 
L 410.404699 161.367273 
L 411.083636 165.528118 
L 411.121473 165.76 
L 411.838303 170.152727 
L 412.553678 174.545455 
L 413.260585 178.938182 
L 413.960087 183.330909 
L 414.659574 187.723636 
L 414.690909 187.920418 
L 415.359063 192.116364 
L 416.058564 196.509091 
L 416.758074 200.901818 
L 417.457538 205.294545 
L 418.157056 209.687273 
L 418.298182 210.573527 
L 418.856539 214.08 
L 419.556017 218.472727 
L 420.255521 222.865455 
L 420.955002 227.258182 
L 421.659898 231.650909 
L 421.905455 233.178188 
L 422.366167 236.043636 
L 423.045621 240.436364 
L 422.150968 244.829091 
L 421.905455 245.838187 
L 421.082224 249.221818 
L 420.013499 253.614545 
L 418.944774 258.007273 
L 418.298182 260.664932 
L 417.876048 262.4 
L 416.807304 266.792727 
L 415.738571 271.185455 
L 414.690909 275.491586 
L 414.669841 275.578182 
L 413.601108 279.970909 
L 412.53237 284.363636 
L 411.463633 288.756364 
L 411.083636 290.318214 
L 410.394886 293.149091 
L 409.326147 297.541818 
L 408.257426 301.934545 
L 407.476364 305.144841 
L 407.188681 306.327273 
L 406.124864 310.72 
L 405.808053 315.112727 
L 405.616353 319.505455 
L 405.424653 323.898182 
L 405.232955 328.290909 
L 405.041238 332.683636 
L 404.849537 337.076364 
L 404.657843 341.469091 
L 403.869091 343.944932 
L 403.26585 345.861818 
L 401.685572 350.254545 
L 400.261818 354.212175 
L 400.105294 354.647273 
L 398.525041 359.04 
L 396.94478 363.432727 
L 396.654545 364.239504 
L 395.364511 367.825455 
L 393.784262 372.218182 
L 393.047273 374.266812 
L 392.203988 376.610909 
L 390.623724 381.003636 
L 389.44 384.294109 
L 389.043468 385.396364 
L 387.463187 389.789091 
L 385.88291 394.181818 
L 385.832727 394.321313 
L 384.302639 398.574545 
L 382.722388 402.967273 
L 382.225455 404.165036 
L 380.782025 407.36 
L 378.792343 411.752727 
L 378.618182 412.137231 
L 376.802647 416.145455 
L 375.010909 419.682242 
L 374.269799 420.538182 
L 371.403636 422.681454 
L 368.395462 424.930909 
L 367.796364 425.378905 
L 364.189091 428.076349 
L 362.521102 429.323636 
L 360.581818 430.773788 
L 356.974545 433.471251 
L 356.646757 433.716364 
L 353.367273 436.168687 
L 350.772376 438.109091 
L 349.76 438.866125 
L 346.152727 441.563601 
L 344.898055 442.501818 
L 342.545455 444.355617 
L 339.859364 446.894545 
L 338.938182 447.873042 
L 335.723937 451.287273 
L 335.330909 451.704754 
L 331.723636 455.53645 
L 331.588493 455.68 
L 328.116364 459.368154 
L 327.453059 460.072727 
L 324.509091 463.199836 
L 323.3176 464.465455 
L 320.901818 467.031521 
L 319.182145 468.858182 
L 317.294545 470.863224 
L 315.090469 473.250909 
L 313.687273 474.804427 
L 311.160066 477.643636 
L 310.08 478.85704 
L 307.250055 482.036364 
L 306.472727 482.909662 
L 303.340075 486.429091 
L 302.865455 486.962309 
L 299.43007 490.821818 
L 299.258182 491.014927 
L 295.650909 495.067546 
L 295.520063 495.214545 
L 292.043636 499.120177 
L 291.610071 499.607273 
L 288.436364 503.172812 
L 287.700076 504 
z
" style="fill:#ccd9ed;"/>
   </g>
   <g id="PathCollection_5">
    <path clip-path="url(#p5325745184)" d="M 212.683636 504 
L 216.290909 504 
L 219.898182 504 
L 223.505455 504 
L 227.112727 504 
L 230.72 504 
L 234.327273 504 
L 237.934545 504 
L 241.541818 504 
L 245.149091 504 
L 248.756364 504 
L 252.363636 504 
L 255.970909 504 
L 259.578182 504 
L 263.185455 504 
L 266.792727 504 
L 270.4 504 
L 274.007273 504 
L 277.614545 504 
L 281.221818 504 
L 284.829091 504 
L 287.700076 504 
L 288.436364 503.172812 
L 291.610071 499.607273 
L 292.043636 499.120177 
L 295.520063 495.214545 
L 295.650909 495.067546 
L 299.258182 491.014927 
L 299.43007 490.821818 
L 302.865455 486.962309 
L 303.340075 486.429091 
L 306.472727 482.909662 
L 307.250055 482.036364 
L 310.08 478.85704 
L 311.160066 477.643636 
L 313.687273 474.804427 
L 315.090469 473.250909 
L 317.294545 470.863224 
L 319.182145 468.858182 
L 320.901818 467.031521 
L 323.3176 464.465455 
L 324.509091 463.199836 
L 327.453059 460.072727 
L 328.116364 459.368154 
L 331.588493 455.68 
L 331.723636 455.53645 
L 335.330909 451.704754 
L 335.723937 451.287273 
L 338.938182 447.873042 
L 339.859364 446.894545 
L 342.545455 444.355617 
L 344.898055 442.501818 
L 346.152727 441.563601 
L 349.76 438.866125 
L 350.772376 438.109091 
L 353.367273 436.168687 
L 356.646757 433.716364 
L 356.974545 433.471251 
L 360.581818 430.773788 
L 362.521102 429.323636 
L 364.189091 428.076349 
L 367.796364 425.378905 
L 368.395462 424.930909 
L 371.403636 422.681454 
L 374.269799 420.538182 
L 375.010909 419.682242 
L 376.802647 416.145455 
L 378.618182 412.137231 
L 378.792343 411.752727 
L 380.782025 407.36 
L 382.225455 404.165036 
L 382.722388 402.967273 
L 384.302639 398.574545 
L 385.832727 394.321313 
L 385.88291 394.181818 
L 387.463187 389.789091 
L 389.043468 385.396364 
L 389.44 384.294109 
L 390.623724 381.003636 
L 392.203988 376.610909 
L 393.047273 374.266812 
L 393.784262 372.218182 
L 395.364511 367.825455 
L 396.654545 364.239504 
L 396.94478 363.432727 
L 398.525041 359.04 
L 400.105294 354.647273 
L 400.261818 354.212175 
L 401.685572 350.254545 
L 403.26585 345.861818 
L 403.869091 343.944932 
L 404.657843 341.469091 
L 404.849537 337.076364 
L 405.041238 332.683636 
L 405.232955 328.290909 
L 405.424653 323.898182 
L 405.616353 319.505455 
L 405.808053 315.112727 
L 406.124864 310.72 
L 407.188681 306.327273 
L 407.476364 305.144841 
L 408.257426 301.934545 
L 409.326147 297.541818 
L 410.394886 293.149091 
L 411.083636 290.318214 
L 411.463633 288.756364 
L 412.53237 284.363636 
L 413.601108 279.970909 
L 414.669841 275.578182 
L 414.690909 275.491586 
L 415.738571 271.185455 
L 416.807304 266.792727 
L 417.876048 262.4 
L 418.298182 260.664932 
L 418.944774 258.007273 
L 420.013499 253.614545 
L 421.082224 249.221818 
L 421.905455 245.838187 
L 422.150968 244.829091 
L 423.045621 240.436364 
L 422.366167 236.043636 
L 421.905455 233.178188 
L 421.659898 231.650909 
L 420.955002 227.258182 
L 420.255521 222.865455 
L 419.556017 218.472727 
L 418.856539 214.08 
L 418.298182 210.573527 
L 418.157056 209.687273 
L 417.457538 205.294545 
L 416.758074 200.901818 
L 416.058564 196.509091 
L 415.359063 192.116364 
L 414.690909 187.920418 
L 414.659574 187.723636 
L 413.960087 183.330909 
L 413.260585 178.938182 
L 412.553678 174.545455 
L 411.838303 170.152727 
L 411.121473 165.76 
L 411.083636 165.528118 
L 410.404699 161.367273 
L 409.687864 156.974545 
L 408.971061 152.581818 
L 408.277856 148.189091 
L 407.597248 143.796364 
L 407.476364 143.016186 
L 406.916623 139.403636 
L 406.236022 135.010909 
L 405.444979 130.618182 
L 404.509983 126.225455 
L 403.869091 123.460599 
L 403.491749 121.832727 
L 402.473524 117.44 
L 401.455279 113.047273 
L 400.437055 108.654545 
L 400.261818 107.89855 
L 399.418838 104.261818 
L 398.400588 99.869091 
L 397.382374 95.476364 
L 396.654545 92.763282 
L 395.472484 91.083636 
L 393.047273 89.716148 
L 389.44 87.682134 
L 387.682051 86.690909 
L 385.832727 85.840079 
L 382.225455 85.380138 
L 378.618182 85.437346 
L 375.010909 85.759017 
L 371.403636 86.469199 
L 370.277505 86.690909 
L 367.796364 87.179387 
L 364.189091 87.889574 
L 360.581818 88.599772 
L 356.974545 89.309948 
L 353.367273 90.020142 
L 349.76 90.730322 
L 347.9654 91.083636 
L 346.152727 91.440512 
L 342.545455 92.15072 
L 338.938182 92.860902 
L 335.330909 93.571091 
L 331.723636 94.281284 
L 328.116364 94.99148 
L 325.653489 95.476364 
L 324.509091 95.701669 
L 320.901818 96.41186 
L 317.294545 97.12205 
L 313.687273 97.832229 
L 310.08 98.542416 
L 306.472727 99.252622 
L 303.341397 99.869091 
L 302.865455 99.962791 
L 299.258182 100.672994 
L 295.650909 101.383196 
L 292.043636 102.093385 
L 288.436364 102.80357 
L 284.829091 103.564955 
L 283.414602 104.261818 
L 281.221818 105.223392 
L 277.614545 107.288017 
L 275.226967 108.654545 
L 274.007273 109.352638 
L 270.4 111.417256 
L 267.55207 113.047273 
L 266.792727 113.481882 
L 263.185455 115.546489 
L 259.877125 117.44 
L 259.578182 117.611099 
L 255.970909 119.675729 
L 252.363636 121.73256 
L 252.140178 121.832727 
L 248.756364 123.390165 
L 245.149091 124.932846 
L 242.126602 126.225455 
L 241.541818 126.475545 
L 237.934545 128.018227 
L 234.327273 129.56091 
L 231.85502 130.618182 
L 230.72 131.103579 
L 227.112727 132.646271 
L 223.505455 134.188954 
L 221.583461 135.010909 
L 219.898182 135.731635 
L 216.290909 137.274323 
L 212.683636 138.817015 
L 211.311936 139.403636 
L 209.076364 140.359706 
L 205.469091 141.902376 
L 201.861818 143.582216 
L 201.449998 143.796364 
L 198.254545 145.491291 
L 194.647273 147.404675 
L 193.168422 148.189091 
L 191.04 149.318054 
L 187.432727 151.231439 
L 184.884619 152.581818 
L 183.825455 153.143173 
L 180.218182 155.052501 
L 176.610909 156.961838 
L 176.586901 156.974545 
L 173.003636 158.871166 
L 169.396364 160.903147 
L 168.896466 161.367273 
L 165.789091 165.325806 
L 165.448256 165.76 
L 162.181818 169.921179 
L 162.000058 170.152727 
L 158.574545 174.516567 
L 158.55187 174.545455 
L 155.103651 178.938182 
L 154.967273 179.111916 
L 151.655452 183.330909 
L 151.36 183.707291 
L 148.158549 187.723636 
L 147.752727 188.223772 
L 144.564795 192.116364 
L 144.145455 192.628395 
L 140.967246 196.509091 
L 140.538182 197.03299 
L 137.369702 200.901818 
L 136.930909 201.4376 
L 133.772151 205.294545 
L 133.323636 205.842198 
L 130.174601 209.687273 
L 129.716364 210.246793 
L 126.577057 214.08 
L 126.109091 214.651403 
L 122.979506 218.472727 
L 122.501818 219.055998 
L 119.381971 222.865455 
L 118.894545 223.460619 
L 115.784412 227.258182 
L 115.287273 227.788783 
L 111.68 231.18481 
L 111.181441 231.650909 
L 108.072727 234.557212 
L 106.482781 236.043636 
L 104.465455 237.929613 
L 101.78413 240.436364 
L 100.858182 241.13352 
L 97.250909 243.82362 
L 95.888451 244.829091 
L 93.643636 246.366211 
L 90.036364 248.836263 
L 89.473297 249.221818 
L 86.429091 251.471031 
L 83.500335 253.614545 
L 82.821818 254.206851 
L 79.214545 257.355833 
L 78.468286 258.007273 
L 75.607273 260.504757 
L 73.436184 262.4 
L 72 263.653718 
L 72 266.792727 
L 72 271.185455 
L 72 275.578182 
L 72 279.970909 
L 72 284.363636 
L 72 288.756364 
L 72 293.149091 
L 72 297.541818 
L 72 301.934545 
L 72 306.327273 
L 72 310.72 
L 72 315.112727 
L 72 319.505455 
L 72 323.898182 
L 72 328.290909 
L 72 332.683636 
L 72 336.20561 
L 73.300144 332.683636 
L 74.921717 328.290909 
L 75.607273 326.433774 
L 76.543295 323.898182 
L 79.214545 320.463933 
L 79.852467 319.505455 
L 82.821818 316.302498 
L 83.924806 315.112727 
L 86.429091 312.389735 
L 87.97508 310.72 
L 90.036364 308.479237 
L 92.015969 306.327273 
L 93.643636 304.557882 
L 96.056861 301.934545 
L 97.250909 300.636531 
L 100.097735 297.541818 
L 100.858182 296.715161 
L 104.138631 293.149091 
L 104.465455 292.81533 
L 108.072727 288.872434 
L 108.1795 288.756364 
L 111.68 285.744457 
L 113.157986 284.363636 
L 115.287273 282.504896 
L 118.190072 279.970909 
L 118.894545 279.355939 
L 122.501818 276.20698 
L 123.222139 275.578182 
L 126.109091 273.058042 
L 128.254223 271.185455 
L 129.716364 269.909086 
L 133.286288 266.792727 
L 133.323636 266.760124 
L 136.930909 263.611186 
L 138.318382 262.4 
L 140.538182 260.462243 
L 143.350466 258.007273 
L 144.145455 257.236071 
L 146.982416 253.614545 
L 147.752727 252.607572 
L 150.416638 249.221818 
L 151.36 248.210037 
L 154.512324 244.829091 
L 154.967273 244.341146 
L 158.574545 240.472258 
L 158.608012 240.436364 
L 162.181818 236.603367 
L 162.703701 236.043636 
L 165.789091 232.734471 
L 166.799382 231.650909 
L 169.396364 228.865583 
L 170.892336 227.258182 
L 173.003636 224.763431 
L 174.408245 222.865455 
L 176.610909 219.889108 
L 177.65911 218.472727 
L 180.218182 215.014767 
L 180.909958 214.08 
L 183.825455 210.140428 
L 184.160814 209.687273 
L 187.411679 205.294545 
L 187.432727 205.266104 
L 190.658014 200.901818 
L 191.04 200.384736 
L 193.90277 196.509091 
L 194.647273 195.560909 
L 198.254545 192.752295 
L 199.497577 192.116364 
L 201.861818 190.906821 
L 205.469091 189.061344 
L 208.083855 187.723636 
L 209.076364 187.215871 
L 212.683636 185.370376 
L 216.290909 183.524904 
L 216.670102 183.330909 
L 219.898182 181.679424 
L 223.505455 179.833952 
L 225.256374 178.938182 
L 227.112727 177.967569 
L 230.72 175.93282 
L 233.143972 174.545455 
L 234.327273 173.868192 
L 237.934545 171.803584 
L 240.818915 170.152727 
L 241.541818 169.738974 
L 245.149091 167.674344 
L 248.493786 165.76 
L 248.756364 165.609714 
L 252.363636 163.545094 
L 255.970909 161.48049 
L 256.16872 161.367273 
L 259.578182 159.415866 
L 263.185455 158.191083 
L 266.792727 157.480901 
L 269.364599 156.974545 
L 270.4 156.770694 
L 274.007273 156.060515 
L 277.614545 155.350317 
L 281.221818 154.640128 
L 284.829091 153.929943 
L 288.436364 153.21975 
L 291.676584 152.581818 
L 292.043636 152.509553 
L 295.650909 151.799366 
L 299.258182 151.08917 
L 302.865455 150.378993 
L 306.472727 149.668802 
L 310.08 148.958612 
L 313.687273 148.248403 
L 313.988542 148.189091 
L 317.294545 147.538224 
L 320.901818 146.828049 
L 324.509091 146.117852 
L 328.116364 145.633218 
L 331.723636 145.514557 
L 335.330909 145.513651 
L 338.938182 145.512737 
L 342.545455 146.074245 
L 346.152727 147.97922 
L 346.524927 148.189091 
L 349.76 150.01323 
L 353.342441 152.581818 
L 353.367273 152.633743 
L 354.373478 156.974545 
L 355.391713 161.367273 
L 356.409934 165.76 
L 356.974545 168.19575 
L 357.42818 170.152727 
L 358.446396 174.545455 
L 359.506705 178.938182 
L 360.581818 183.29265 
L 360.591264 183.330909 
L 361.675817 187.723636 
L 362.760359 192.116364 
L 363.844921 196.509091 
L 364.189091 197.90308 
L 364.928146 200.901818 
L 365.877954 205.294545 
L 366.656709 209.687273 
L 367.373502 214.08 
L 367.796364 216.671363 
L 368.090314 218.472727 
L 368.807135 222.865455 
L 369.523952 227.258182 
L 370.240746 231.650909 
L 370.949813 236.043636 
L 371.403636 238.887912 
L 371.650208 240.436364 
L 372.349699 244.829091 
L 373.049187 249.221818 
L 373.300828 253.614545 
L 372.228069 258.007273 
L 371.403636 261.383181 
L 371.155319 262.4 
L 370.082906 266.792727 
L 369.013181 271.185455 
L 367.94443 275.578182 
L 367.796364 276.186771 
L 366.875701 279.970909 
L 365.806971 284.363636 
L 364.738232 288.756364 
L 364.189091 291.013462 
L 363.669504 293.149091 
L 362.600777 297.541818 
L 361.532029 301.934545 
L 360.581818 305.840152 
L 360.463304 306.327273 
L 359.394562 310.72 
L 358.325823 315.112727 
L 357.257097 319.505455 
L 356.974545 320.666797 
L 356.188356 323.898182 
L 355.119615 328.290909 
L 354.069675 332.683636 
L 353.687252 337.076364 
L 353.495547 341.469091 
L 353.367273 342.195127 
L 352.727349 345.861818 
L 351.147091 350.254545 
L 349.76 354.110297 
L 349.553972 354.647273 
L 347.635692 359.04 
L 346.152727 362.314025 
L 345.646008 363.432727 
L 343.656305 367.825455 
L 342.545455 370.277914 
L 341.666603 372.218182 
L 338.950233 376.610909 
L 338.938182 376.623198 
L 335.330909 379.320652 
L 333.080275 381.003636 
L 331.723636 382.018109 
L 328.116364 384.715538 
L 327.205903 385.396364 
L 324.509091 387.413008 
L 321.331578 389.789091 
L 320.901818 390.110457 
L 317.294545 392.807897 
L 315.457208 394.181818 
L 313.687273 395.50535 
L 310.08 398.202806 
L 309.582877 398.574545 
L 306.472727 400.900274 
L 303.708545 402.967273 
L 302.865455 403.597718 
L 299.258182 406.754981 
L 298.665564 407.36 
L 295.650909 410.562198 
L 294.530105 411.752727 
L 292.043636 414.393899 
L 290.394675 416.145455 
L 288.436364 418.225608 
L 286.265833 420.538182 
L 284.829091 422.102611 
L 282.311606 424.930909 
L 281.221818 426.155244 
L 278.401614 429.323636 
L 277.614545 430.207871 
L 274.491592 433.716364 
L 274.007273 434.260478 
L 270.4 436.936097 
L 268.647373 438.109091 
L 266.792727 439.350368 
L 263.185455 442.459394 
L 263.148686 442.501818 
L 259.578182 446.621482 
L 259.341519 446.894545 
L 255.970909 450.78357 
L 255.534355 451.287273 
L 252.363636 454.945664 
L 251.727189 455.68 
L 248.756364 459.107766 
L 247.920034 460.072727 
L 245.149091 463.269866 
L 244.112877 464.465455 
L 241.541818 467.431954 
L 240.305705 468.858182 
L 237.934545 471.594026 
L 236.498534 473.250909 
L 234.327273 475.75613 
L 232.691369 477.643636 
L 230.72 479.918211 
L 228.884222 482.036364 
L 227.112727 484.080323 
L 225.077041 486.429091 
L 223.505455 488.242407 
L 221.2699 490.821818 
L 219.898182 492.404502 
L 217.462724 495.214545 
L 216.290909 496.566606 
L 213.655579 499.607273 
L 212.683636 500.728701 
L 209.84842 504 
z
" style="fill:#ecd3c5;"/>
   </g>
   <g id="PathCollection_6">
    <path clip-path="url(#p5325745184)" d="M 75.607273 504 
L 79.214545 504 
L 82.821818 504 
L 86.429091 504 
L 90.036364 504 
L 93.643636 504 
L 97.250909 504 
L 100.858182 504 
L 104.465455 504 
L 108.072727 504 
L 111.68 504 
L 115.287273 504 
L 118.894545 504 
L 122.501818 504 
L 126.109091 504 
L 129.716364 504 
L 133.323636 504 
L 136.930909 504 
L 140.538182 504 
L 144.145455 504 
L 147.752727 504 
L 151.36 504 
L 154.967273 504 
L 158.574545 504 
L 162.181818 504 
L 165.789091 504 
L 169.396364 504 
L 173.003636 504 
L 176.610909 504 
L 180.218182 504 
L 183.825455 504 
L 187.432727 504 
L 191.04 504 
L 194.647273 504 
L 198.254545 504 
L 201.861818 504 
L 205.469091 504 
L 209.076364 504 
L 209.84842 504 
L 212.683636 500.728701 
L 213.655579 499.607273 
L 216.290909 496.566606 
L 217.462724 495.214545 
L 219.898182 492.404502 
L 221.2699 490.821818 
L 223.505455 488.242407 
L 225.077041 486.429091 
L 227.112727 484.080323 
L 228.884222 482.036364 
L 230.72 479.918211 
L 232.691369 477.643636 
L 234.327273 475.75613 
L 236.498534 473.250909 
L 237.934545 471.594026 
L 240.305705 468.858182 
L 241.541818 467.431954 
L 244.112877 464.465455 
L 245.149091 463.269866 
L 247.920034 460.072727 
L 248.756364 459.107766 
L 251.727189 455.68 
L 252.363636 454.945664 
L 255.534355 451.287273 
L 255.970909 450.78357 
L 259.341519 446.894545 
L 259.578182 446.621482 
L 263.148686 442.501818 
L 263.185455 442.459394 
L 266.792727 439.350368 
L 268.647373 438.109091 
L 270.4 436.936097 
L 274.007273 434.260478 
L 274.491592 433.716364 
L 277.614545 430.207871 
L 278.401614 429.323636 
L 281.221818 426.155244 
L 282.311606 424.930909 
L 284.829091 422.102611 
L 286.265833 420.538182 
L 288.436364 418.225608 
L 290.394675 416.145455 
L 292.043636 414.393899 
L 294.530105 411.752727 
L 295.650909 410.562198 
L 298.665564 407.36 
L 299.258182 406.754981 
L 302.865455 403.597718 
L 303.708545 402.967273 
L 306.472727 400.900274 
L 309.582877 398.574545 
L 310.08 398.202806 
L 313.687273 395.50535 
L 315.457208 394.181818 
L 317.294545 392.807897 
L 320.901818 390.110457 
L 321.331578 389.789091 
L 324.509091 387.413008 
L 327.205903 385.396364 
L 328.116364 384.715538 
L 331.723636 382.018109 
L 333.080275 381.003636 
L 335.330909 379.320652 
L 338.938182 376.623198 
L 338.950233 376.610909 
L 341.666603 372.218182 
L 342.545455 370.277914 
L 343.656305 367.825455 
L 345.646008 363.432727 
L 346.152727 362.314025 
L 347.635692 359.04 
L 349.553972 354.647273 
L 349.76 354.110297 
L 351.147091 350.254545 
L 352.727349 345.861818 
L 353.367273 342.195127 
L 353.495547 341.469091 
L 353.687252 337.076364 
L 354.069675 332.683636 
L 355.119615 328.290909 
L 356.188356 323.898182 
L 356.974545 320.666797 
L 357.257097 319.505455 
L 358.325823 315.112727 
L 359.394562 310.72 
L 360.463304 306.327273 
L 360.581818 305.840152 
L 361.532029 301.934545 
L 362.600777 297.541818 
L 363.669504 293.149091 
L 364.189091 291.013462 
L 364.738232 288.756364 
L 365.806971 284.363636 
L 366.875701 279.970909 
L 367.796364 276.186771 
L 367.94443 275.578182 
L 369.013181 271.185455 
L 370.082906 266.792727 
L 371.155319 262.4 
L 371.403636 261.383181 
L 372.228069 258.007273 
L 373.300828 253.614545 
L 373.049187 249.221818 
L 372.349699 244.829091 
L 371.650208 240.436364 
L 371.403636 238.887912 
L 370.949813 236.043636 
L 370.240746 231.650909 
L 369.523952 227.258182 
L 368.807135 222.865455 
L 368.090314 218.472727 
L 367.796364 216.671363 
L 367.373502 214.08 
L 366.656709 209.687273 
L 365.877954 205.294545 
L 364.928146 200.901818 
L 364.189091 197.90308 
L 363.844921 196.509091 
L 362.760359 192.116364 
L 361.675817 187.723636 
L 360.591264 183.330909 
L 360.581818 183.29265 
L 359.506705 178.938182 
L 358.446396 174.545455 
L 357.42818 170.152727 
L 356.974545 168.19575 
L 356.409934 165.76 
L 355.391713 161.367273 
L 354.373478 156.974545 
L 353.367273 152.633743 
L 353.342441 152.581818 
L 349.76 150.01323 
L 346.524927 148.189091 
L 346.152727 147.97922 
L 342.545455 146.074245 
L 338.938182 145.512737 
L 335.330909 145.513651 
L 331.723636 145.514557 
L 328.116364 145.633218 
L 324.509091 146.117852 
L 320.901818 146.828049 
L 317.294545 147.538224 
L 313.988542 148.189091 
L 313.687273 148.248403 
L 310.08 148.958612 
L 306.472727 149.668802 
L 302.865455 150.378993 
L 299.258182 151.08917 
L 295.650909 151.799366 
L 292.043636 152.509553 
L 291.676584 152.581818 
L 288.436364 153.21975 
L 284.829091 153.929943 
L 281.221818 154.640128 
L 277.614545 155.350317 
L 274.007273 156.060515 
L 270.4 156.770694 
L 269.364599 156.974545 
L 266.792727 157.480901 
L 263.185455 158.191083 
L 259.578182 159.415866 
L 256.16872 161.367273 
L 255.970909 161.48049 
L 252.363636 163.545094 
L 248.756364 165.609714 
L 248.493786 165.76 
L 245.149091 167.674344 
L 241.541818 169.738974 
L 240.818915 170.152727 
L 237.934545 171.803584 
L 234.327273 173.868192 
L 233.143972 174.545455 
L 230.72 175.93282 
L 227.112727 177.967569 
L 225.256374 178.938182 
L 223.505455 179.833952 
L 219.898182 181.679424 
L 216.670102 183.330909 
L 216.290909 183.524904 
L 212.683636 185.370376 
L 209.076364 187.215871 
L 208.083855 187.723636 
L 205.469091 189.061344 
L 201.861818 190.906821 
L 199.497577 192.116364 
L 198.254545 192.752295 
L 194.647273 195.560909 
L 193.90277 196.509091 
L 191.04 200.384736 
L 190.658014 200.901818 
L 187.432727 205.266104 
L 187.411679 205.294545 
L 184.160814 209.687273 
L 183.825455 210.140428 
L 180.909958 214.08 
L 180.218182 215.014767 
L 177.65911 218.472727 
L 176.610909 219.889108 
L 174.408245 222.865455 
L 173.003636 224.763431 
L 170.892336 227.258182 
L 169.396364 228.865583 
L 166.799382 231.650909 
L 165.789091 232.734471 
L 162.703701 236.043636 
L 162.181818 236.603367 
L 158.608012 240.436364 
L 158.574545 240.472258 
L 154.967273 244.341146 
L 154.512324 244.829091 
L 151.36 248.210037 
L 150.416638 249.221818 
L 147.752727 252.607572 
L 146.982416 253.614545 
L 144.145455 257.236071 
L 143.350466 258.007273 
L 140.538182 260.462243 
L 138.318382 262.4 
L 136.930909 263.611186 
L 133.323636 266.760124 
L 133.286288 266.792727 
L 129.716364 269.909086 
L 128.254223 271.185455 
L 126.109091 273.058042 
L 123.222139 275.578182 
L 122.501818 276.20698 
L 118.894545 279.355939 
L 118.190072 279.970909 
L 115.287273 282.504896 
L 113.157986 284.363636 
L 111.68 285.744457 
L 108.1795 288.756364 
L 108.072727 288.872434 
L 104.465455 292.81533 
L 104.138631 293.149091 
L 100.858182 296.715161 
L 100.097735 297.541818 
L 97.250909 300.636531 
L 96.056861 301.934545 
L 93.643636 304.557882 
L 92.015969 306.327273 
L 90.036364 308.479237 
L 87.97508 310.72 
L 86.429091 312.389735 
L 83.924806 315.112727 
L 82.821818 316.302498 
L 79.852467 319.505455 
L 79.214545 320.463933 
L 76.543295 323.898182 
L 75.607273 326.433774 
L 74.921717 328.290909 
L 73.300144 332.683636 
L 72 336.20561 
L 72 337.076364 
L 72 341.469091 
L 72 345.861818 
L 72 350.254545 
L 72 354.647273 
L 72 359.04 
L 72 363.432727 
L 72 367.825455 
L 72 372.218182 
L 72 376.610909 
L 72 381.003636 
L 72 385.396364 
L 72 389.789091 
L 72 394.181818 
L 72 398.574545 
L 72 402.967273 
L 72 407.36 
L 72 411.752727 
L 72 416.145455 
L 72 420.538182 
L 72 424.930909 
L 72 429.323636 
L 72 433.716364 
L 72 438.109091 
L 72 442.501818 
L 72 446.894545 
L 72 451.287273 
L 72 455.68 
L 72 460.072727 
L 72 464.465455 
L 72 468.858182 
L 72 473.250909 
L 72 477.643636 
L 72 482.036364 
L 72 486.429091 
L 72 490.821818 
L 72 495.214545 
L 72 499.607273 
L 72 504 
z
M 109.033258 486.429091 
L 108.072727 485.033598 
L 106.009649 482.036364 
L 104.465455 479.792892 
L 103.213052 477.643636 
L 103.283591 473.250909 
L 104.465455 469.869964 
L 104.854918 468.858182 
L 106.427566 464.465455 
L 108.051008 460.072727 
L 108.072727 460.013961 
L 109.674439 455.68 
L 111.297534 451.287273 
L 111.68 450.252068 
L 112.920031 446.894545 
L 114.542889 442.501818 
L 115.287273 440.485368 
L 116.164336 438.109091 
L 117.786057 433.716364 
L 118.894545 430.713587 
L 119.407651 429.323636 
L 121.029234 424.930909 
L 122.501818 420.941846 
L 122.650833 420.538182 
L 124.272401 416.145455 
L 125.893985 411.752727 
L 126.109091 411.170028 
L 127.515583 407.36 
L 129.13718 402.967273 
L 129.716364 401.398321 
L 130.758761 398.574545 
L 132.380337 394.181818 
L 133.323636 391.626493 
L 134.001921 389.789091 
L 135.623523 385.396364 
L 136.930909 381.854775 
L 137.245108 381.003636 
L 138.866702 376.610909 
L 140.488282 372.218182 
L 140.538182 372.083006 
L 142.109865 367.825455 
L 143.731462 363.432727 
L 144.145455 362.311263 
L 145.353047 359.04 
L 146.974623 354.647273 
L 147.752727 352.539476 
L 148.59622 350.254545 
L 150.217802 345.861818 
L 151.36 342.767691 
L 151.839381 341.469091 
L 153.460967 337.076364 
L 154.967273 332.995945 
L 155.082563 332.683636 
L 156.704146 328.290909 
L 158.32573 323.898182 
L 158.574545 323.224162 
L 159.947316 319.505455 
L 161.568903 315.112727 
L 162.181818 313.452406 
L 163.190498 310.72 
L 164.812079 306.327273 
L 165.789091 303.680633 
L 166.433664 301.934545 
L 169.396364 298.591506 
L 170.192355 297.541818 
L 173.003636 294.509365 
L 174.264697 293.149091 
L 176.610909 290.618287 
L 178.162049 288.756364 
L 180.202455 284.363636 
L 180.218182 284.321128 
L 181.827617 279.970909 
L 183.452779 275.578182 
L 183.825455 274.710758 
L 185.30544 271.185455 
L 187.432727 267.796175 
L 188.062543 266.792727 
L 190.819646 262.4 
L 191.04 262.037789 
L 193.016923 258.007273 
L 194.647273 255.416858 
L 195.916982 253.614545 
L 198.254545 250.453989 
L 199.164697 249.221818 
L 201.861818 245.570447 
L 202.409427 244.829091 
L 205.469091 240.686888 
L 205.654142 240.436364 
L 208.898865 236.043636 
L 209.076364 235.803338 
L 212.143575 231.650909 
L 212.683636 230.919767 
L 215.3883 227.258182 
L 216.290909 226.036223 
L 219.075032 222.865455 
L 219.898182 222.23014 
L 223.505455 220.384661 
L 227.112727 218.539182 
L 227.242623 218.472727 
L 230.72 216.693708 
L 234.327273 214.848231 
L 235.828901 214.08 
L 237.934545 213.002755 
L 241.541818 211.157277 
L 245.149091 210.9931 
L 248.756364 211.122771 
L 252.363636 210.737826 
L 255.970909 210.027631 
L 257.699728 209.687273 
L 259.578182 209.317455 
L 263.185455 208.607258 
L 266.792727 207.897062 
L 270.4 207.186874 
L 274.007273 206.476689 
L 277.614545 205.831979 
L 281.221818 205.648999 
L 284.829091 205.648081 
L 288.436364 205.647175 
L 292.043636 205.646253 
L 295.650909 205.655875 
L 299.258182 206.22719 
L 302.865455 208.198721 
L 305.606387 209.687273 
L 306.472727 210.157767 
L 310.08 213.155474 
L 310.529572 214.08 
L 311.614124 218.472727 
L 312.698674 222.865455 
L 313.687273 226.869536 
L 313.783229 227.258182 
L 314.867781 231.650909 
L 315.952336 236.043636 
L 317.036896 240.436364 
L 317.294545 241.479918 
L 318.121441 244.829091 
L 319.205997 249.221818 
L 320.290544 253.614545 
L 320.901818 256.090368 
L 321.3751 258.007273 
L 322.459657 262.4 
L 322.724749 266.792727 
L 322.153351 271.185455 
L 321.174469 275.578182 
L 320.901818 276.703588 
L 320.110251 279.970909 
L 319.046029 284.363636 
L 317.981812 288.756364 
L 317.294545 291.593153 
L 316.917591 293.149091 
L 315.853371 297.541818 
L 314.789148 301.934545 
L 314.109411 306.327273 
L 313.752628 310.72 
L 313.687273 311.608639 
L 313.429372 315.112727 
L 313.102709 319.505455 
L 312.775538 323.898182 
L 312.448363 328.290909 
L 312.029652 332.683636 
L 310.124231 337.076364 
L 310.08 337.135834 
L 306.472727 340.005114 
L 304.323778 341.469091 
L 302.865455 342.46258 
L 299.258182 344.920051 
L 297.875782 345.861818 
L 295.650909 347.377525 
L 292.043636 349.834993 
L 291.427787 350.254545 
L 288.436364 352.292479 
L 284.979803 354.647273 
L 284.829091 354.749946 
L 281.221818 357.200626 
L 278.510715 359.04 
L 277.614545 359.648417 
L 274.007273 362.093849 
L 272.032019 363.432727 
L 270.4 364.483179 
L 266.792727 365.33267 
L 263.185455 366.080085 
L 259.578182 367.255527 
L 258.449572 367.825455 
L 255.970909 369.448505 
L 253.248412 372.218182 
L 252.363636 373.2381 
L 249.196992 376.610909 
L 248.756364 377.116616 
L 245.149091 380.097711 
L 244.036414 381.003636 
L 241.541818 383.034702 
L 238.641188 385.396364 
L 237.934545 385.971702 
L 234.327273 388.908688 
L 233.245945 389.789091 
L 230.72 391.845677 
L 227.850726 394.181818 
L 227.112727 394.78269 
L 223.505455 397.719667 
L 222.455476 398.574545 
L 219.898182 400.65666 
L 217.06025 402.967273 
L 216.290909 403.593662 
L 212.683636 406.530645 
L 211.66501 407.36 
L 209.076364 409.467639 
L 206.269752 411.752727 
L 205.469091 412.404613 
L 201.861818 415.341615 
L 200.874526 416.145455 
L 198.254545 418.278612 
L 195.479295 420.538182 
L 194.647273 421.215601 
L 191.04 424.152595 
L 190.084057 424.930909 
L 187.432727 427.089577 
L 184.688809 429.323636 
L 183.825455 430.026569 
L 180.218182 432.963565 
L 179.293577 433.716364 
L 176.610909 435.900551 
L 173.898348 438.109091 
L 173.003636 438.837555 
L 169.396364 441.774552 
L 168.503114 442.501818 
L 165.789091 444.711525 
L 163.107888 446.894545 
L 162.181818 447.648543 
L 158.574545 450.585514 
L 157.712631 451.287273 
L 154.967273 453.522513 
L 152.317413 455.68 
L 151.36 456.459515 
L 147.752727 459.396507 
L 146.922184 460.072727 
L 144.145455 462.333505 
L 141.526939 464.465455 
L 140.538182 465.270481 
L 136.930909 468.207471 
L 136.131693 468.858182 
L 133.323636 471.144475 
L 130.736462 473.250909 
L 129.716364 474.081451 
L 126.109091 477.019875 
L 125.343789 477.643636 
L 122.501818 479.960003 
L 119.954289 482.036364 
L 118.894545 482.900104 
L 115.287273 485.651383 
L 113.736491 486.429091 
L 111.68 487.644458 
z
" style="fill:#f7b093;"/>
   </g>
   <g id="PathCollection_7">
    <path clip-path="url(#p5325745184)" d="M 111.68 487.644458 
L 113.736491 486.429091 
L 115.287273 485.651383 
L 118.894545 482.900104 
L 119.954289 482.036364 
L 122.501818 479.960003 
L 125.343789 477.643636 
L 126.109091 477.019875 
L 129.716364 474.081451 
L 130.736462 473.250909 
L 133.323636 471.144475 
L 136.131693 468.858182 
L 136.930909 468.207471 
L 140.538182 465.270481 
L 141.526939 464.465455 
L 144.145455 462.333505 
L 146.922184 460.072727 
L 147.752727 459.396507 
L 151.36 456.459515 
L 152.317413 455.68 
L 154.967273 453.522513 
L 157.712631 451.287273 
L 158.574545 450.585514 
L 162.181818 447.648543 
L 163.107888 446.894545 
L 165.789091 444.711525 
L 168.503114 442.501818 
L 169.396364 441.774552 
L 173.003636 438.837555 
L 173.898348 438.109091 
L 176.610909 435.900551 
L 179.293577 433.716364 
L 180.218182 432.963565 
L 183.825455 430.026569 
L 184.688809 429.323636 
L 187.432727 427.089577 
L 190.084057 424.930909 
L 191.04 424.152595 
L 194.647273 421.215601 
L 195.479295 420.538182 
L 198.254545 418.278612 
L 200.874526 416.145455 
L 201.861818 415.341615 
L 205.469091 412.404613 
L 206.269752 411.752727 
L 209.076364 409.467639 
L 211.66501 407.36 
L 212.683636 406.530645 
L 216.290909 403.593662 
L 217.06025 402.967273 
L 219.898182 400.65666 
L 222.455476 398.574545 
L 223.505455 397.719667 
L 227.112727 394.78269 
L 227.850726 394.181818 
L 230.72 391.845677 
L 233.245945 389.789091 
L 234.327273 388.908688 
L 237.934545 385.971702 
L 238.641188 385.396364 
L 241.541818 383.034702 
L 244.036414 381.003636 
L 245.149091 380.097711 
L 248.756364 377.116616 
L 249.196992 376.610909 
L 252.363636 373.2381 
L 253.248412 372.218182 
L 255.970909 369.448505 
L 258.449572 367.825455 
L 259.578182 367.255527 
L 263.185455 366.080085 
L 266.792727 365.33267 
L 270.4 364.483179 
L 272.032019 363.432727 
L 274.007273 362.093849 
L 277.614545 359.648417 
L 278.510715 359.04 
L 281.221818 357.200626 
L 284.829091 354.749946 
L 284.979803 354.647273 
L 288.436364 352.292479 
L 291.427787 350.254545 
L 292.043636 349.834993 
L 295.650909 347.377525 
L 297.875782 345.861818 
L 299.258182 344.920051 
L 302.865455 342.46258 
L 304.323778 341.469091 
L 306.472727 340.005114 
L 310.08 337.135834 
L 310.124231 337.076364 
L 312.029652 332.683636 
L 312.448363 328.290909 
L 312.775538 323.898182 
L 313.102709 319.505455 
L 313.429372 315.112727 
L 313.687273 311.608639 
L 313.752628 310.72 
L 314.109411 306.327273 
L 314.789148 301.934545 
L 315.853371 297.541818 
L 316.917591 293.149091 
L 317.294545 291.593153 
L 317.981812 288.756364 
L 319.046029 284.363636 
L 320.110251 279.970909 
L 320.901818 276.703588 
L 321.174469 275.578182 
L 322.153351 271.185455 
L 322.724749 266.792727 
L 322.459657 262.4 
L 321.3751 258.007273 
L 320.901818 256.090368 
L 320.290544 253.614545 
L 319.205997 249.221818 
L 318.121441 244.829091 
L 317.294545 241.479918 
L 317.036896 240.436364 
L 315.952336 236.043636 
L 314.867781 231.650909 
L 313.783229 227.258182 
L 313.687273 226.869536 
L 312.698674 222.865455 
L 311.614124 218.472727 
L 310.529572 214.08 
L 310.08 213.155474 
L 306.472727 210.157767 
L 305.606387 209.687273 
L 302.865455 208.198721 
L 299.258182 206.22719 
L 295.650909 205.655875 
L 292.043636 205.646253 
L 288.436364 205.647175 
L 284.829091 205.648081 
L 281.221818 205.648999 
L 277.614545 205.831979 
L 274.007273 206.476689 
L 270.4 207.186874 
L 266.792727 207.897062 
L 263.185455 208.607258 
L 259.578182 209.317455 
L 257.699728 209.687273 
L 255.970909 210.027631 
L 252.363636 210.737826 
L 248.756364 211.122771 
L 245.149091 210.9931 
L 241.541818 211.157277 
L 237.934545 213.002755 
L 235.828901 214.08 
L 234.327273 214.848231 
L 230.72 216.693708 
L 227.242623 218.472727 
L 227.112727 218.539182 
L 223.505455 220.384661 
L 219.898182 222.23014 
L 219.075032 222.865455 
L 216.290909 226.036223 
L 215.3883 227.258182 
L 212.683636 230.919767 
L 212.143575 231.650909 
L 209.076364 235.803338 
L 208.898865 236.043636 
L 205.654142 240.436364 
L 205.469091 240.686888 
L 202.409427 244.829091 
L 201.861818 245.570447 
L 199.164697 249.221818 
L 198.254545 250.453989 
L 195.916982 253.614545 
L 194.647273 255.416858 
L 193.016923 258.007273 
L 191.04 262.037789 
L 190.819646 262.4 
L 188.062543 266.792727 
L 187.432727 267.796175 
L 185.30544 271.185455 
L 183.825455 274.710758 
L 183.452779 275.578182 
L 181.827617 279.970909 
L 180.218182 284.321128 
L 180.202455 284.363636 
L 178.162049 288.756364 
L 176.610909 290.618287 
L 174.264697 293.149091 
L 173.003636 294.509365 
L 170.192355 297.541818 
L 169.396364 298.591506 
L 166.433664 301.934545 
L 165.789091 303.680633 
L 164.812079 306.327273 
L 163.190498 310.72 
L 162.181818 313.452406 
L 161.568903 315.112727 
L 159.947316 319.505455 
L 158.574545 323.224162 
L 158.32573 323.898182 
L 156.704146 328.290909 
L 155.082563 332.683636 
L 154.967273 332.995945 
L 153.460967 337.076364 
L 151.839381 341.469091 
L 151.36 342.767691 
L 150.217802 345.861818 
L 148.59622 350.254545 
L 147.752727 352.539476 
L 146.974623 354.647273 
L 145.353047 359.04 
L 144.145455 362.311263 
L 143.731462 363.432727 
L 142.109865 367.825455 
L 140.538182 372.083006 
L 140.488282 372.218182 
L 138.866702 376.610909 
L 137.245108 381.003636 
L 136.930909 381.854775 
L 135.623523 385.396364 
L 134.001921 389.789091 
L 133.323636 391.626493 
L 132.380337 394.181818 
L 130.758761 398.574545 
L 129.716364 401.398321 
L 129.13718 402.967273 
L 127.515583 407.36 
L 126.109091 411.170028 
L 125.893985 411.752727 
L 124.272401 416.145455 
L 122.650833 420.538182 
L 122.501818 420.941846 
L 121.029234 424.930909 
L 119.407651 429.323636 
L 118.894545 430.713587 
L 117.786057 433.716364 
L 116.164336 438.109091 
L 115.287273 440.485368 
L 114.542889 442.501818 
L 112.920031 446.894545 
L 111.68 450.252068 
L 111.297534 451.287273 
L 109.674439 455.68 
L 108.072727 460.013961 
L 108.051008 460.072727 
L 106.427566 464.465455 
L 104.854918 468.858182 
L 104.465455 469.869964 
L 103.283591 473.250909 
L 103.213052 477.643636 
L 104.465455 479.792892 
L 106.009649 482.036364 
L 108.072727 485.033598 
L 109.033258 486.429091 
z
M 236.32308 315.112727 
L 234.327273 313.474235 
L 232.22137 310.72 
L 230.72 308.756413 
L 228.862666 306.327273 
L 227.112727 303.382555 
L 226.56608 301.934545 
L 225.593514 297.541818 
L 224.620948 293.149091 
L 223.648383 288.756364 
L 223.887888 284.363636 
L 224.39915 279.970909 
L 225.519796 275.578182 
L 227.112727 271.479397 
L 227.226963 271.185455 
L 230.059472 266.792727 
L 230.72 265.907891 
L 233.338631 262.4 
L 234.327273 261.075627 
L 236.735563 258.007273 
L 237.934545 256.467521 
L 241.541818 254.910452 
L 245.149091 254.225843 
L 248.756364 254.277652 
L 252.363636 254.403032 
L 255.970909 255.288799 
L 259.578182 256.412581 
L 262.412312 258.007273 
L 263.185455 258.567663 
L 266.792727 261.449679 
L 267.982195 262.4 
L 270.4 264.331694 
L 272.186523 266.792727 
L 273.903558 271.185455 
L 274.007273 271.464409 
L 275.492963 275.578182 
L 276.028259 279.970909 
L 276.500835 284.363636 
L 276.973411 288.756364 
L 276.647036 293.149091 
L 275.670406 297.541818 
L 274.007273 301.160308 
L 273.651417 301.934545 
L 271.63243 306.327273 
L 270.4 309.008683 
L 269.551714 310.72 
L 266.792727 313.198597 
L 263.965614 315.112727 
L 263.185455 315.640943 
L 259.578182 317.309836 
L 255.970909 318.057561 
L 252.363636 318.805283 
L 248.756364 318.213487 
L 245.149091 317.442249 
L 241.541818 316.671013 
L 237.934545 315.899774 
z
" style="fill:#eb7d62;"/>
   </g>
   <g id="PathCollection_8">
    <path clip-path="url(#p5325745184)" d="M 237.934545 315.899774 
L 241.541818 316.671013 
L 245.149091 317.442249 
L 248.756364 318.213487 
L 252.363636 318.805283 
L 255.970909 318.057561 
L 259.578182 317.309836 
L 263.185455 315.640943 
L 263.965614 315.112727 
L 266.792727 313.198597 
L 269.551714 310.72 
L 270.4 309.008683 
L 271.63243 306.327273 
L 273.651417 301.934545 
L 274.007273 301.160308 
L 275.670406 297.541818 
L 276.647036 293.149091 
L 276.973411 288.756364 
L 276.500835 284.363636 
L 276.028259 279.970909 
L 275.492963 275.578182 
L 274.007273 271.464409 
L 273.903558 271.185455 
L 272.186523 266.792727 
L 270.4 264.331694 
L 267.982195 262.4 
L 266.792727 261.449679 
L 263.185455 258.567663 
L 262.412312 258.007273 
L 259.578182 256.412581 
L 255.970909 255.288799 
L 252.363636 254.403032 
L 248.756364 254.277652 
L 245.149091 254.225843 
L 241.541818 254.910452 
L 237.934545 256.467521 
L 236.735563 258.007273 
L 234.327273 261.075627 
L 233.338631 262.4 
L 230.72 265.907891 
L 230.059472 266.792727 
L 227.226963 271.185455 
L 227.112727 271.479397 
L 225.519796 275.578182 
L 224.39915 279.970909 
L 223.887888 284.363636 
L 223.648383 288.756364 
L 224.620948 293.149091 
L 225.593514 297.541818 
L 226.56608 301.934545 
L 227.112727 303.382555 
L 228.862666 306.327273 
L 230.72 308.756413 
L 232.22137 310.72 
L 234.327273 313.474235 
L 236.32308 315.112727 
z
" style="fill:#ca3b37;"/>
   </g>
   <g id="matplotlib.axis_1">
    <g id="xtick_1">
     <g id="line2d_1">
      <defs>
       <path d="M 0 0 
L 0 3.5 
" id="m978956fe99" style="stroke:#000000;stroke-width:0.8;"/>
      </defs>
      <g>
       <use style="stroke:#000000;stroke-width:0.8;" x="107.712" xlink:href="#m978956fe99" y="504"/>
      </g>
     </g>
     <g id="text_1">
      <!-- 4 -->
      <defs>
       <path d="M 10.59375 35.5 
L 73.1875 35.5 
L 73.1875 27.203125 
L 10.59375 27.203125 
z
" id="DejaVuSans-2212"/>
       <path d="M 37.796875 64.3125 
L 12.890625 25.390625 
L 37.796875 25.390625 
z
M 35.203125 72.90625 
L 47.609375 72.90625 
L 47.609375 25.390625 
L 58.015625 25.390625 
L 58.015625 17.1875 
L 47.609375 17.1875 
L 47.609375 0 
L 37.796875 0 
L 37.796875 17.1875 
L 4.890625 17.1875 
L 4.890625 26.703125 
z
" id="DejaVuSans-34"/>
      </defs>
      <g transform="translate(100.340906 518.598438)scale(0.1 -0.1)">
       <use xlink:href="#DejaVuSans-2212"/>
       <use x="83.789062" xlink:href="#DejaVuSans-34"/>
      </g>
     </g>
    </g>
    <g id="xtick_2">
     <g id="line2d_2">
      <g>
       <use style="stroke:#000000;stroke-width:0.8;" x="179.136" xlink:href="#m978956fe99" y="504"/>
      </g>
     </g>
     <g id="text_2">
      <!-- 2 -->
      <defs>
       <path d="M 19.1875 8.296875 
L 53.609375 8.296875 
L 53.609375 0 
L 7.328125 0 
L 7.328125 8.296875 
Q 12.9375 14.109375 22.625 23.890625 
Q 32.328125 33.6875 34.8125 36.53125 
Q 39.546875 41.84375 41.421875 45.53125 
Q 43.3125 49.21875 43.3125 52.78125 
Q 43.3125 58.59375 39.234375 62.25 
Q 35.15625 65.921875 28.609375 65.921875 
Q 23.96875 65.921875 18.8125 64.3125 
Q 13.671875 62.703125 7.8125 59.421875 
L 7.8125 69.390625 
Q 13.765625 71.78125 18.9375 73 
Q 24.125 74.21875 28.421875 74.21875 
Q 39.75 74.21875 46.484375 68.546875 
Q 53.21875 62.890625 53.21875 53.421875 
Q 53.21875 48.921875 51.53125 44.890625 
Q 49.859375 40.875 45.40625 35.40625 
Q 44.1875 33.984375 37.640625 27.21875 
Q 31.109375 20.453125 19.1875 8.296875 
z
" id="DejaVuSans-32"/>
      </defs>
      <g transform="translate(171.764906 518.598438)scale(0.1 -0.1)">
       <use xlink:href="#DejaVuSans-2212"/>
       <use x="83.789062" xlink:href="#DejaVuSans-32"/>
      </g>
     </g>
    </g>
    <g id="xtick_3">
     <g id="line2d_3">
      <g>
       <use style="stroke:#000000;stroke-width:0.8;" x="250.56" xlink:href="#m978956fe99" y="504"/>
      </g>
     </g>
     <g id="text_3">
      <!-- 0 -->
      <defs>
       <path d="M 31.78125 66.40625 
Q 24.171875 66.40625 20.328125 58.90625 
Q 16.5 51.421875 16.5 36.375 
Q 16.5 21.390625 20.328125 13.890625 
Q 24.171875 6.390625 31.78125 6.390625 
Q 39.453125 6.390625 43.28125 13.890625 
Q 47.125 21.390625 47.125 36.375 
Q 47.125 51.421875 43.28125 58.90625 
Q 39.453125 66.40625 31.78125 66.40625 
z
M 31.78125 74.21875 
Q 44.046875 74.21875 50.515625 64.515625 
Q 56.984375 54.828125 56.984375 36.375 
Q 56.984375 17.96875 50.515625 8.265625 
Q 44.046875 -1.421875 31.78125 -1.421875 
Q 19.53125 -1.421875 13.0625 8.265625 
Q 6.59375 17.96875 6.59375 36.375 
Q 6.59375 54.828125 13.0625 64.515625 
Q 19.53125 74.21875 31.78125 74.21875 
z
" id="DejaVuSans-30"/>
      </defs>
      <g transform="translate(247.37875 518.598438)scale(0.1 -0.1)">
       <use xlink:href="#DejaVuSans-30"/>
      </g>
     </g>
    </g>
    <g id="xtick_4">
     <g id="line2d_4">
      <g>
       <use style="stroke:#000000;stroke-width:0.8;" x="321.984" xlink:href="#m978956fe99" y="504"/>
      </g>
     </g>
     <g id="text_4">
      <!-- 2 -->
      <g transform="translate(318.80275 518.598438)scale(0.1 -0.1)">
       <use xlink:href="#DejaVuSans-32"/>
      </g>
     </g>
    </g>
    <g id="xtick_5">
     <g id="line2d_5">
      <g>
       <use style="stroke:#000000;stroke-width:0.8;" x="393.408" xlink:href="#m978956fe99" y="504"/>
      </g>
     </g>
     <g id="text_5">
      <!-- 4 -->
      <g transform="translate(390.22675 518.598438)scale(0.1 -0.1)">
       <use xlink:href="#DejaVuSans-34"/>
      </g>
     </g>
    </g>
   </g>
   <g id="matplotlib.axis_2">
    <g id="ytick_1">
     <g id="line2d_6">
      <defs>
       <path d="M 0 0 
L -3.5 0 
" id="md08af20681" style="stroke:#000000;stroke-width:0.8;"/>
      </defs>
      <g>
       <use style="stroke:#000000;stroke-width:0.8;" x="72" xlink:href="#md08af20681" y="460.512"/>
      </g>
     </g>
     <g id="text_6">
      <!-- 4 -->
      <g transform="translate(50.257812 464.311219)scale(0.1 -0.1)">
       <use xlink:href="#DejaVuSans-2212"/>
       <use x="83.789062" xlink:href="#DejaVuSans-34"/>
      </g>
     </g>
    </g>
    <g id="ytick_2">
     <g id="line2d_7">
      <g>
       <use style="stroke:#000000;stroke-width:0.8;" x="72" xlink:href="#md08af20681" y="373.536"/>
      </g>
     </g>
     <g id="text_7">
      <!-- 2 -->
      <g transform="translate(50.257812 377.335219)scale(0.1 -0.1)">
       <use xlink:href="#DejaVuSans-2212"/>
       <use x="83.789062" xlink:href="#DejaVuSans-32"/>
      </g>
     </g>
    </g>
    <g id="ytick_3">
     <g id="line2d_8">
      <g>
       <use style="stroke:#000000;stroke-width:0.8;" x="72" xlink:href="#md08af20681" y="286.56"/>
      </g>
     </g>
     <g id="text_8">
      <!-- 0 -->
      <g transform="translate(58.6375 290.359219)scale(0.1 -0.1)">
       <use xlink:href="#DejaVuSans-30"/>
      </g>
     </g>
    </g>
    <g id="ytick_4">
     <g id="line2d_9">
      <g>
       <use style="stroke:#000000;stroke-width:0.8;" x="72" xlink:href="#md08af20681" y="199.584"/>
      </g>
     </g>
     <g id="text_9">
      <!-- 2 -->
      <g transform="translate(58.6375 203.383219)scale(0.1 -0.1)">
       <use xlink:href="#DejaVuSans-32"/>
      </g>
     </g>
    </g>
    <g id="ytick_5">
     <g id="line2d_10">
      <g>
       <use style="stroke:#000000;stroke-width:0.8;" x="72" xlink:href="#md08af20681" y="112.608"/>
      </g>
     </g>
     <g id="text_10">
      <!-- 4 -->
      <g transform="translate(58.6375 116.407219)scale(0.1 -0.1)">
       <use xlink:href="#DejaVuSans-34"/>
      </g>
     </g>
    </g>
   </g>
   <g id="patch_3">
    <path d="M 72 504 
L 72 69.12 
" style="fill:none;stroke:#000000;stroke-linecap:square;stroke-linejoin:miter;stroke-width:0.8;"/>
   </g>
   <g id="patch_4">
    <path d="M 429.12 504 
L 429.12 69.12 
" style="fill:none;stroke:#000000;stroke-linecap:square;stroke-linejoin:miter;stroke-width:0.8;"/>
   </g>
   <g id="patch_5">
    <path d="M 72 504 
L 429.12 504 
" style="fill:none;stroke:#000000;stroke-linecap:square;stroke-linejoin:miter;stroke-width:0.8;"/>
   </g>
   <g id="patch_6">
    <path d="M 72 69.12 
L 429.12 69.12 
" style="fill:none;stroke:#000000;stroke-linecap:square;stroke-linejoin:miter;stroke-width:0.8;"/>
   </g>
  </g>
  <g id="axes_2">
   <g id="patch_7">
    <path clip-path="url(#p4d78a7d7b9)" d="M 451.44 504 
L 451.44 449.64 
L 451.44 123.48 
L 451.44 69.12 
L 473.184 69.12 
L 473.184 123.48 
L 473.184 449.64 
L 473.184 504 
z
" style="fill:#ffffff;stroke:#ffffff;stroke-linejoin:miter;stroke-width:0.01;"/>
   </g>
   <g id="QuadMesh_1">
    <path clip-path="url(#p4d78a7d7b9)" d="M 451.44 504 
L 473.184 504 
L 473.184 449.64 
L 451.44 449.64 
L 451.44 504 
" style="fill:#4e68d8;"/>
    <path clip-path="url(#p4d78a7d7b9)" d="M 451.44 449.64 
L 473.184 449.64 
L 473.184 395.28 
L 451.44 395.28 
L 451.44 449.64 
" style="fill:#779af7;"/>
    <path clip-path="url(#p4d78a7d7b9)" d="M 451.44 395.28 
L 473.184 395.28 
L 473.184 340.92 
L 451.44 340.92 
L 451.44 395.28 
" style="fill:#a3c2fe;"/>
    <path clip-path="url(#p4d78a7d7b9)" d="M 451.44 340.92 
L 473.184 340.92 
L 473.184 286.56 
L 451.44 286.56 
L 451.44 340.92 
" style="fill:#ccd9ed;"/>
    <path clip-path="url(#p4d78a7d7b9)" d="M 451.44 286.56 
L 473.184 286.56 
L 473.184 232.2 
L 451.44 232.2 
L 451.44 286.56 
" style="fill:#ecd3c5;"/>
    <path clip-path="url(#p4d78a7d7b9)" d="M 451.44 232.2 
L 473.184 232.2 
L 473.184 177.84 
L 451.44 177.84 
L 451.44 232.2 
" style="fill:#f7b093;"/>
    <path clip-path="url(#p4d78a7d7b9)" d="M 451.44 177.84 
L 473.184 177.84 
L 473.184 123.48 
L 451.44 123.48 
L 451.44 177.84 
" style="fill:#eb7d62;"/>
    <path clip-path="url(#p4d78a7d7b9)" d="M 451.44 123.48 
L 473.184 123.48 
L 473.184 69.12 
L 451.44 69.12 
L 451.44 123.48 
" style="fill:#ca3b37;"/>
   </g>
   <g id="matplotlib.axis_3"/>
   <g id="matplotlib.axis_4">
    <g id="ytick_6">
     <g id="line2d_11">
      <defs>
       <path d="M 0 0 
L 3.5 0 
" id="mb9217ccf21" style="stroke:#000000;stroke-width:0.8;"/>
      </defs>
      <g>
       <use style="stroke:#000000;stroke-width:0.8;" x="473.184" xlink:href="#mb9217ccf21" y="504"/>
      </g>
     </g>
     <g id="text_11">
      <!-- 280 -->
      <defs>
       <path d="M 31.78125 34.625 
Q 24.75 34.625 20.71875 30.859375 
Q 16.703125 27.09375 16.703125 20.515625 
Q 16.703125 13.921875 20.71875 10.15625 
Q 24.75 6.390625 31.78125 6.390625 
Q 38.8125 6.390625 42.859375 10.171875 
Q 46.921875 13.96875 46.921875 20.515625 
Q 46.921875 27.09375 42.890625 30.859375 
Q 38.875 34.625 31.78125 34.625 
z
M 21.921875 38.8125 
Q 15.578125 40.375 12.03125 44.71875 
Q 8.5 49.078125 8.5 55.328125 
Q 8.5 64.0625 14.71875 69.140625 
Q 20.953125 74.21875 31.78125 74.21875 
Q 42.671875 74.21875 48.875 69.140625 
Q 55.078125 64.0625 55.078125 55.328125 
Q 55.078125 49.078125 51.53125 44.71875 
Q 48 40.375 41.703125 38.8125 
Q 48.828125 37.15625 52.796875 32.3125 
Q 56.78125 27.484375 56.78125 20.515625 
Q 56.78125 9.90625 50.3125 4.234375 
Q 43.84375 -1.421875 31.78125 -1.421875 
Q 19.734375 -1.421875 13.25 4.234375 
Q 6.78125 9.90625 6.78125 20.515625 
Q 6.78125 27.484375 10.78125 32.3125 
Q 14.796875 37.15625 21.921875 38.8125 
z
M 18.3125 54.390625 
Q 18.3125 48.734375 21.84375 45.5625 
Q 25.390625 42.390625 31.78125 42.390625 
Q 38.140625 42.390625 41.71875 45.5625 
Q 45.3125 48.734375 45.3125 54.390625 
Q 45.3125 60.0625 41.71875 63.234375 
Q 38.140625 66.40625 31.78125 66.40625 
Q 25.390625 66.40625 21.84375 63.234375 
Q 18.3125 60.0625 18.3125 54.390625 
z
" id="DejaVuSans-38"/>
      </defs>
      <g transform="translate(480.184 507.799219)scale(0.1 -0.1)">
       <use xlink:href="#DejaVuSans-2212"/>
       <use x="83.789062" xlink:href="#DejaVuSans-32"/>
       <use x="147.412109" xlink:href="#DejaVuSans-38"/>
       <use x="211.035156" xlink:href="#DejaVuSans-30"/>
      </g>
     </g>
    </g>
    <g id="ytick_7">
     <g id="line2d_12">
      <g>
       <use style="stroke:#000000;stroke-width:0.8;" x="473.184" xlink:href="#mb9217ccf21" y="449.64"/>
      </g>
     </g>
     <g id="text_12">
      <!-- 240 -->
      <g transform="translate(480.184 453.439219)scale(0.1 -0.1)">
       <use xlink:href="#DejaVuSans-2212"/>
       <use x="83.789062" xlink:href="#DejaVuSans-32"/>
       <use x="147.412109" xlink:href="#DejaVuSans-34"/>
       <use x="211.035156" xlink:href="#DejaVuSans-30"/>
      </g>
     </g>
    </g>
    <g id="ytick_8">
     <g id="line2d_13">
      <g>
       <use style="stroke:#000000;stroke-width:0.8;" x="473.184" xlink:href="#mb9217ccf21" y="395.28"/>
      </g>
     </g>
     <g id="text_13">
      <!-- 200 -->
      <g transform="translate(480.184 399.079219)scale(0.1 -0.1)">
       <use xlink:href="#DejaVuSans-2212"/>
       <use x="83.789062" xlink:href="#DejaVuSans-32"/>
       <use x="147.412109" xlink:href="#DejaVuSans-30"/>
       <use x="211.035156" xlink:href="#DejaVuSans-30"/>
      </g>
     </g>
    </g>
    <g id="ytick_9">
     <g id="line2d_14">
      <g>
       <use style="stroke:#000000;stroke-width:0.8;" x="473.184" xlink:href="#mb9217ccf21" y="340.92"/>
      </g>
     </g>
     <g id="text_14">
      <!-- 160 -->
      <defs>
       <path d="M 12.40625 8.296875 
L 28.515625 8.296875 
L 28.515625 63.921875 
L 10.984375 60.40625 
L 10.984375 69.390625 
L 28.421875 72.90625 
L 38.28125 72.90625 
L 38.28125 8.296875 
L 54.390625 8.296875 
L 54.390625 0 
L 12.40625 0 
z
" id="DejaVuSans-31"/>
       <path d="M 33.015625 40.375 
Q 26.375 40.375 22.484375 35.828125 
Q 18.609375 31.296875 18.609375 23.390625 
Q 18.609375 15.53125 22.484375 10.953125 
Q 26.375 6.390625 33.015625 6.390625 
Q 39.65625 6.390625 43.53125 10.953125 
Q 47.40625 15.53125 47.40625 23.390625 
Q 47.40625 31.296875 43.53125 35.828125 
Q 39.65625 40.375 33.015625 40.375 
z
M 52.59375 71.296875 
L 52.59375 62.3125 
Q 48.875 64.0625 45.09375 64.984375 
Q 41.3125 65.921875 37.59375 65.921875 
Q 27.828125 65.921875 22.671875 59.328125 
Q 17.53125 52.734375 16.796875 39.40625 
Q 19.671875 43.65625 24.015625 45.921875 
Q 28.375 48.1875 33.59375 48.1875 
Q 44.578125 48.1875 50.953125 41.515625 
Q 57.328125 34.859375 57.328125 23.390625 
Q 57.328125 12.15625 50.6875 5.359375 
Q 44.046875 -1.421875 33.015625 -1.421875 
Q 20.359375 -1.421875 13.671875 8.265625 
Q 6.984375 17.96875 6.984375 36.375 
Q 6.984375 53.65625 15.1875 63.9375 
Q 23.390625 74.21875 37.203125 74.21875 
Q 40.921875 74.21875 44.703125 73.484375 
Q 48.484375 72.75 52.59375 71.296875 
z
" id="DejaVuSans-36"/>
      </defs>
      <g transform="translate(480.184 344.719219)scale(0.1 -0.1)">
       <use xlink:href="#DejaVuSans-2212"/>
       <use x="83.789062" xlink:href="#DejaVuSans-31"/>
       <use x="147.412109" xlink:href="#DejaVuSans-36"/>
       <use x="211.035156" xlink:href="#DejaVuSans-30"/>
      </g>
     </g>
    </g>
    <g id="ytick_10">
     <g id="line2d_15">
      <g>
       <use style="stroke:#000000;stroke-width:0.8;" x="473.184" xlink:href="#mb9217ccf21" y="286.56"/>
      </g>
     </g>
     <g id="text_15">
      <!-- 120 -->
      <g transform="translate(480.184 290.359219)scale(0.1 -0.1)">
       <use xlink:href="#DejaVuSans-2212"/>
       <use x="83.789062" xlink:href="#DejaVuSans-31"/>
       <use x="147.412109" xlink:href="#DejaVuSans-32"/>
       <use x="211.035156" xlink:href="#DejaVuSans-30"/>
      </g>
     </g>
    </g>
    <g id="ytick_11">
     <g id="line2d_16">
      <g>
       <use style="stroke:#000000;stroke-width:0.8;" x="473.184" xlink:href="#mb9217ccf21" y="232.2"/>
      </g>
     </g>
     <g id="text_16">
      <!-- 80 -->
      <g transform="translate(480.184 235.999219)scale(0.1 -0.1)">
       <use xlink:href="#DejaVuSans-2212"/>
       <use x="83.789062" xlink:href="#DejaVuSans-38"/>
       <use x="147.412109" xlink:href="#DejaVuSans-30"/>
      </g>
     </g>
    </g>
    <g id="ytick_12">
     <g id="line2d_17">
      <g>
       <use style="stroke:#000000;stroke-width:0.8;" x="473.184" xlink:href="#mb9217ccf21" y="177.84"/>
      </g>
     </g>
     <g id="text_17">
      <!-- 40 -->
      <g transform="translate(480.184 181.639219)scale(0.1 -0.1)">
       <use xlink:href="#DejaVuSans-2212"/>
       <use x="83.789062" xlink:href="#DejaVuSans-34"/>
       <use x="147.412109" xlink:href="#DejaVuSans-30"/>
      </g>
     </g>
    </g>
    <g id="ytick_13">
     <g id="line2d_18">
      <g>
       <use style="stroke:#000000;stroke-width:0.8;" x="473.184" xlink:href="#mb9217ccf21" y="123.48"/>
      </g>
     </g>
     <g id="text_18">
      <!-- 0 -->
      <g transform="translate(480.184 127.279219)scale(0.1 -0.1)">
       <use xlink:href="#DejaVuSans-30"/>
      </g>
     </g>
    </g>
    <g id="ytick_14">
     <g id="line2d_19">
      <g>
       <use style="stroke:#000000;stroke-width:0.8;" x="473.184" xlink:href="#mb9217ccf21" y="69.12"/>
      </g>
     </g>
     <g id="text_19">
      <!-- 40 -->
      <g transform="translate(480.184 72.919219)scale(0.1 -0.1)">
       <use xlink:href="#DejaVuSans-34"/>
       <use x="63.623047" xlink:href="#DejaVuSans-30"/>
      </g>
     </g>
    </g>
   </g>
   <g id="patch_8">
    <path d="M 451.44 504 
L 451.44 449.64 
L 451.44 123.48 
L 451.44 69.12 
L 473.184 69.12 
L 473.184 123.48 
L 473.184 449.64 
L 473.184 504 
z
" style="fill:none;stroke:#000000;stroke-linejoin:miter;stroke-width:0.8;"/>
   </g>
  </g>
 </g>
 <defs>
  <clipPath id="p5325745184">
   <rect height="434.88" width="357.12" x="72" y="69.12"/>
  </clipPath>
  <clipPath id="p4d78a7d7b9">
   <rect height="434.88" width="21.744" x="451.44" y="69.12"/>
  </clipPath>
 </defs>
</svg>
