<?xml version="1.0" encoding="utf-8" standalone="no"?>
<!DOCTYPE svg PUBLIC "-//W3C//DTD SVG 1.1//EN"
  "http://www.w3.org/Graphics/SVG/1.1/DTD/svg11.dtd">
<!-- Created with matplotlib (http://matplotlib.org/) -->
<svg height="576pt" version="1.1" viewBox="0 0 576 576" width="576pt" xmlns="http://www.w3.org/2000/svg" xmlns:xlink="http://www.w3.org/1999/xlink">
 <defs>
  <style type="text/css">
*{stroke-linecap:butt;stroke-linejoin:round;}
  </style>
 </defs>
 <g id="figure_1">
  <g id="patch_1">
   <path d="M 0 576 
L 576 576 
L 576 0 
L 0 0 
z
" style="fill:#ffffff;"/>
  </g>
  <g id="axes_1">
   <g id="patch_2">
    <path d="M 72 504 
L 429.12 504 
L 429.12 69.12 
L 72 69.12 
z
" style="fill:#ffffff;"/>
   </g>
   <g id="PathCollection_1">
    <path clip-path="url(#pa712425fbd)" d="M 75.607273 504 
L 79.214545 504 
L 82.821818 504 
L 86.429091 504 
L 90.036364 504 
L 93.643636 504 
L 97.250909 504 
L 100.858182 504 
L 101.46178 504 
L 100.858182 502.999723 
L 98.811071 499.607273 
L 97.250909 497.02179 
L 96.160361 495.214545 
L 93.643636 491.043856 
L 93.50965 490.821818 
L 90.858943 486.429091 
L 90.036364 485.065933 
L 88.208223 482.036364 
L 86.429091 479.087988 
L 85.557524 477.643636 
L 82.906814 473.250909 
L 82.821818 473.110054 
L 80.256105 468.858182 
L 79.214545 467.13212 
L 77.605396 464.465455 
L 75.607273 461.154187 
L 74.954686 460.072727 
L 72.303977 455.68 
L 72 455.176249 
L 72 455.68 
L 72 460.072727 
L 72 464.465455 
L 72 468.858182 
L 72 473.250909 
L 72 477.643636 
L 72 482.036364 
L 72 486.429091 
L 72 490.821818 
L 72 495.214545 
L 72 499.607273 
L 72 504 
z
" style="fill:#4e68d8;"/>
    <path clip-path="url(#pa712425fbd)" d="M 400.261818 504 
L 403.869091 504 
L 407.476364 504 
L 411.083636 504 
L 414.690909 504 
L 418.298182 504 
L 421.905455 504 
L 425.512727 504 
L 429.12 504 
L 429.12 499.607273 
L 429.12 495.214545 
L 429.12 490.821818 
L 429.12 486.429091 
L 429.12 482.036364 
L 429.12 477.643636 
L 429.12 473.250909 
L 429.12 468.858182 
L 429.12 464.465455 
L 429.12 460.072727 
L 429.12 455.68 
L 429.12 451.287273 
L 429.12 446.894545 
L 429.12 442.501818 
L 429.12 438.109091 
L 429.12 433.716364 
L 429.12 429.323636 
L 429.12 424.930909 
L 429.12 420.538182 
L 429.12 416.409719 
L 427.768249 420.538182 
L 426.32998 424.930909 
L 425.512727 427.426963 
L 424.891723 429.323636 
L 423.453432 433.716364 
L 422.015141 438.109091 
L 421.905455 438.444097 
L 420.576885 442.501818 
L 419.13862 446.894545 
L 418.298182 449.461378 
L 417.700337 451.287273 
L 416.262064 455.68 
L 414.823789 460.072727 
L 414.690909 460.478562 
L 413.385511 464.465455 
L 411.947234 468.858182 
L 411.083636 471.495747 
L 410.508957 473.250909 
L 409.070687 477.643636 
L 407.632404 482.036364 
L 407.476364 482.512932 
L 406.194126 486.429091 
L 404.755857 490.821818 
L 403.869091 493.530181 
L 403.317598 495.214545 
L 401.879309 499.607273 
L 400.261818 502.978606 
L 399.624209 504 
z
" style="fill:#4e68d8;"/>
    <path clip-path="url(#pa712425fbd)" d="M 429.12 139.460887 
L 429.12 139.403636 
L 429.12 135.010909 
L 429.12 130.618182 
L 429.12 126.225455 
L 429.12 121.832727 
L 429.12 117.44 
L 429.12 113.047273 
L 429.12 108.654545 
L 429.12 104.261818 
L 429.12 99.869091 
L 429.12 95.476364 
L 429.12 91.083636 
L 429.12 86.690909 
L 429.12 82.298182 
L 429.12 77.905455 
L 429.12 73.512727 
L 429.12 69.12 
L 425.512727 69.12 
L 421.905455 69.12 
L 418.298182 69.12 
L 414.690909 69.12 
L 411.083636 69.12 
L 407.476364 69.12 
L 403.869091 69.12 
L 400.261818 69.12 
L 396.654545 69.12 
L 393.047273 69.12 
L 389.44 69.12 
L 388.750766 69.12 
L 389.44 69.498909 
L 393.047273 72.680369 
L 393.529612 73.512727 
L 395.900231 77.905455 
L 396.654545 79.303187 
L 398.270855 82.298182 
L 400.261818 85.987373 
L 400.641501 86.690909 
L 403.012168 91.083636 
L 403.869091 92.6715 
L 405.382767 95.476364 
L 407.476364 99.355763 
L 407.753394 99.869091 
L 410.124015 104.261818 
L 411.083636 106.03995 
L 412.494679 108.654545 
L 414.690909 112.724123 
L 414.865303 113.047273 
L 417.235927 117.44 
L 418.298182 119.40834 
L 419.606566 121.832727 
L 421.905455 126.092554 
L 421.977177 126.225455 
L 424.3478 130.618182 
L 425.512727 132.776737 
L 426.718464 135.010909 
L 429.089088 139.403636 
z
" style="fill:#4e68d8;"/>
    <path clip-path="url(#pa712425fbd)" d="M 72.376905 108.654545 
L 73.874216 104.261818 
L 75.371529 99.869091 
L 75.607273 99.177479 
L 76.868854 95.476364 
L 78.366182 91.083636 
L 79.214545 88.594784 
L 79.863504 86.690909 
L 81.360809 82.298182 
L 82.821818 78.011981 
L 82.861634 77.905455 
L 85.182337 73.512727 
L 86.429091 71.743429 
L 88.277728 69.12 
L 86.429091 69.12 
L 82.821818 69.12 
L 79.214545 69.12 
L 75.607273 69.12 
L 72 69.12 
L 72 73.512727 
L 72 77.905455 
L 72 82.298182 
L 72 86.690909 
L 72 91.083636 
L 72 95.476364 
L 72 99.869091 
L 72 104.261818 
L 72 108.654545 
L 72 109.760282 
z
" style="fill:#4e68d8;"/>
   </g>
   <g id="PathCollection_2">
    <path clip-path="url(#pa712425fbd)" d="M 100.858182 502.999723 
L 101.46178 504 
L 104.465455 504 
L 108.072727 504 
L 111.68 504 
L 115.287273 504 
L 118.894545 504 
L 122.501818 504 
L 126.109091 504 
L 129.716364 504 
L 133.323636 504 
L 136.930909 504 
L 140.538182 504 
L 144.145455 504 
L 147.752727 504 
L 151.36 504 
L 154.967273 504 
L 158.574545 504 
L 162.181818 504 
L 165.789091 504 
L 169.396364 504 
L 173.003636 504 
L 176.610909 504 
L 180.218182 504 
L 183.825455 504 
L 184.860485 504 
L 183.825455 503.551497 
L 180.218182 501.988347 
L 176.610909 500.434884 
L 174.67136 499.607273 
L 173.003636 498.896532 
L 169.396364 497.359262 
L 165.789091 495.821968 
L 164.363757 495.214545 
L 162.181818 494.284686 
L 158.574545 492.747405 
L 154.967273 491.210121 
L 154.056132 490.821818 
L 151.36 489.672796 
L 147.752727 488.135501 
L 144.145455 486.598211 
L 143.748605 486.429091 
L 140.538182 485.057668 
L 136.930909 483.460963 
L 133.733339 482.036364 
L 133.323636 481.853831 
L 129.716364 479.860999 
L 127.949598 477.643636 
L 126.109091 474.593568 
L 125.298888 473.250909 
L 122.64818 468.858182 
L 122.501818 468.615634 
L 119.99747 464.465455 
L 118.894545 462.6377 
L 117.34676 460.072727 
L 115.287273 456.659767 
L 114.696047 455.68 
L 112.045341 451.287273 
L 111.68 450.681833 
L 109.394632 446.894545 
L 108.072727 444.703881 
L 106.743936 442.501818 
L 104.465455 438.725965 
L 104.093213 438.109091 
L 101.442526 433.716364 
L 100.858182 432.747988 
L 98.791813 429.323636 
L 97.250909 426.770077 
L 96.1411 424.930909 
L 93.643636 420.792096 
L 93.490417 420.538182 
L 90.839676 416.145455 
L 90.036364 414.814219 
L 88.188968 411.752727 
L 86.429091 408.836296 
L 85.538248 407.36 
L 82.88756 402.967273 
L 82.821818 402.858326 
L 80.236872 398.574545 
L 79.214545 396.880371 
L 77.586141 394.181818 
L 75.607273 390.902485 
L 74.935414 389.789091 
L 72.284742 385.396364 
L 72 384.924489 
L 72 385.396364 
L 72 389.789091 
L 72 394.181818 
L 72 398.574545 
L 72 402.967273 
L 72 407.36 
L 72 411.752727 
L 72 416.145455 
L 72 420.538182 
L 72 424.930909 
L 72 429.323636 
L 72 433.716364 
L 72 438.109091 
L 72 442.501818 
L 72 446.894545 
L 72 451.287273 
L 72 455.176249 
L 72.303977 455.68 
L 74.954686 460.072727 
L 75.607273 461.154187 
L 77.605396 464.465455 
L 79.214545 467.13212 
L 80.256105 468.858182 
L 82.821818 473.110054 
L 82.906814 473.250909 
L 85.557524 477.643636 
L 86.429091 479.087988 
L 88.208223 482.036364 
L 90.036364 485.065933 
L 90.858943 486.429091 
L 93.50965 490.821818 
L 93.643636 491.043856 
L 96.160361 495.214545 
L 97.250909 497.02179 
L 98.811071 499.607273 
z
" style="fill:#779af7;"/>
    <path clip-path="url(#pa712425fbd)" d="M 292.043636 504 
L 295.650909 504 
L 299.258182 504 
L 302.865455 504 
L 306.472727 504 
L 310.08 504 
L 313.687273 504 
L 317.294545 504 
L 320.901818 504 
L 324.509091 504 
L 328.116364 504 
L 331.723636 504 
L 335.330909 504 
L 338.938182 504 
L 342.545455 504 
L 346.152727 504 
L 349.76 504 
L 353.367273 504 
L 356.974545 504 
L 360.581818 504 
L 364.189091 504 
L 367.796364 504 
L 371.403636 504 
L 375.010909 504 
L 378.618182 504 
L 382.225455 504 
L 385.832727 504 
L 389.44 504 
L 393.047273 504 
L 396.654545 504 
L 399.624209 504 
L 400.261818 502.978606 
L 401.879309 499.607273 
L 403.317598 495.214545 
L 403.869091 493.530181 
L 404.755857 490.821818 
L 406.194126 486.429091 
L 407.476364 482.512932 
L 407.632404 482.036364 
L 409.070687 477.643636 
L 410.508957 473.250909 
L 411.083636 471.495747 
L 411.947234 468.858182 
L 413.385511 464.465455 
L 414.690909 460.478562 
L 414.823789 460.072727 
L 416.262064 455.68 
L 417.700337 451.287273 
L 418.298182 449.461378 
L 419.13862 446.894545 
L 420.576885 442.501818 
L 421.905455 438.444097 
L 422.015141 438.109091 
L 423.453432 433.716364 
L 424.891723 429.323636 
L 425.512727 427.426963 
L 426.32998 424.930909 
L 427.768249 420.538182 
L 429.12 416.409719 
L 429.12 416.145455 
L 429.12 411.752727 
L 429.12 407.36 
L 429.12 402.967273 
L 429.12 398.574545 
L 429.12 394.181818 
L 429.12 389.789091 
L 429.12 385.396364 
L 429.12 381.003636 
L 429.12 376.610909 
L 429.12 372.218182 
L 429.12 367.825455 
L 429.12 363.432727 
L 429.12 359.04 
L 429.12 354.647273 
L 429.12 350.254545 
L 429.12 345.861818 
L 429.12 341.469091 
L 429.12 337.076364 
L 429.12 332.683636 
L 429.12 328.290909 
L 429.12 323.898182 
L 429.12 319.505455 
L 429.12 315.112727 
L 429.12 314.45331 
L 428.904092 315.112727 
L 427.465833 319.505455 
L 426.027557 323.898182 
L 425.512727 325.470565 
L 424.589286 328.290909 
L 423.150995 332.683636 
L 421.905455 336.48777 
L 421.712738 337.076364 
L 420.274463 341.469091 
L 418.836171 345.861818 
L 418.298182 347.504936 
L 417.3979 350.254545 
L 415.959627 354.647273 
L 414.690909 358.522147 
L 414.521353 359.04 
L 413.083077 363.432727 
L 411.6448 367.825455 
L 411.083636 369.539338 
L 410.206519 372.218182 
L 408.768236 376.610909 
L 407.476364 380.556512 
L 407.329969 381.003636 
L 405.891701 385.396364 
L 404.45342 389.789091 
L 403.869091 391.57375 
L 403.015163 394.181818 
L 401.576872 398.574545 
L 400.261818 402.59094 
L 400.138599 402.967273 
L 398.70034 407.36 
L 397.262063 411.752727 
L 396.654545 413.608181 
L 395.823781 416.145455 
L 394.385515 420.538182 
L 393.047273 424.625366 
L 392.947231 424.930909 
L 391.508964 429.323636 
L 390.070697 433.716364 
L 389.44 435.642603 
L 388.632413 438.109091 
L 387.194135 442.501818 
L 385.832727 446.659834 
L 385.755878 446.894545 
L 384.317588 451.287273 
L 382.879297 455.68 
L 382.225455 457.676968 
L 381.44104 460.072727 
L 380.002771 464.465455 
L 378.618182 468.694209 
L 378.556965 468.858182 
L 376.19887 473.250909 
L 375.010909 475.0764 
L 373.172223 477.643636 
L 371.403636 479.162107 
L 367.796364 480.291022 
L 364.189091 481.419901 
L 362.21922 482.036364 
L 360.581818 482.548781 
L 356.974545 483.677661 
L 353.367273 484.806548 
L 349.76 485.935422 
L 348.182502 486.429091 
L 346.152727 487.064303 
L 342.545455 488.193192 
L 338.938182 489.322094 
L 335.330909 490.450979 
L 334.14594 490.821818 
L 331.723636 491.579877 
L 328.116364 492.708752 
L 324.509091 493.837633 
L 320.901818 494.966521 
L 320.109281 495.214545 
L 317.294545 496.095421 
L 313.687273 497.2243 
L 310.08 498.35318 
L 306.472727 499.48206 
L 306.072623 499.607273 
L 302.865455 500.610955 
L 299.258182 501.739841 
L 295.650909 502.86874 
L 292.043636 503.99762 
L 292.036032 504 
z
" style="fill:#779af7;"/>
    <path clip-path="url(#pa712425fbd)" d="M 72.718479 214.08 
L 74.176664 209.687273 
L 75.607273 205.377571 
L 75.634833 205.294545 
L 77.100975 200.901818 
L 78.595932 196.509091 
L 79.214545 194.694258 
L 80.093251 192.116364 
L 81.590551 187.723636 
L 82.821818 184.111455 
L 83.087879 183.330909 
L 84.58517 178.938182 
L 86.082535 174.545455 
L 86.429091 173.528734 
L 87.57982 170.152727 
L 89.077136 165.76 
L 90.036364 162.945868 
L 90.574448 161.367273 
L 92.071773 156.974545 
L 93.569101 152.581818 
L 93.643636 152.363156 
L 95.06644 148.189091 
L 96.563727 143.796364 
L 97.250909 141.78035 
L 98.061048 139.403636 
L 99.558376 135.010909 
L 100.858182 131.197608 
L 101.055686 130.618182 
L 102.553005 126.225455 
L 104.050325 121.832727 
L 104.465455 120.614852 
L 105.547646 117.44 
L 107.044947 113.047273 
L 108.072727 110.032049 
L 108.697213 108.654545 
L 111.68 104.406821 
L 111.782178 104.261818 
L 114.877556 99.869091 
L 115.287273 99.287656 
L 117.972958 95.476364 
L 118.894545 94.168517 
L 121.068336 91.083636 
L 122.501818 89.049379 
L 124.163752 86.690909 
L 126.109091 83.930256 
L 127.259158 82.298182 
L 129.716364 79.684408 
L 133.323636 78.550042 
L 136.229341 77.905455 
L 136.930909 77.749821 
L 140.538182 76.949597 
L 144.145455 76.14936 
L 147.752727 75.349149 
L 151.36 74.548925 
L 154.967273 73.748701 
L 156.03103 73.512727 
L 158.574545 72.948498 
L 162.181818 72.148281 
L 165.789091 71.348071 
L 169.396364 70.547834 
L 173.003636 69.747617 
L 175.832855 69.12 
L 173.003636 69.12 
L 169.396364 69.12 
L 165.789091 69.12 
L 162.181818 69.12 
L 158.574545 69.12 
L 154.967273 69.12 
L 151.36 69.12 
L 147.752727 69.12 
L 144.145455 69.12 
L 140.538182 69.12 
L 136.930909 69.12 
L 133.323636 69.12 
L 129.716364 69.12 
L 126.109091 69.12 
L 122.501818 69.12 
L 118.894545 69.12 
L 115.287273 69.12 
L 111.68 69.12 
L 108.072727 69.12 
L 104.465455 69.12 
L 100.858182 69.12 
L 97.250909 69.12 
L 93.643636 69.12 
L 90.036364 69.12 
L 88.277728 69.12 
L 86.429091 71.743429 
L 85.182337 73.512727 
L 82.861634 77.905455 
L 82.821818 78.011981 
L 81.360809 82.298182 
L 79.863504 86.690909 
L 79.214545 88.594784 
L 78.366182 91.083636 
L 76.868854 95.476364 
L 75.607273 99.177479 
L 75.371529 99.869091 
L 73.874216 104.261818 
L 72.376905 108.654545 
L 72 109.760282 
L 72 113.047273 
L 72 117.44 
L 72 121.832727 
L 72 126.225455 
L 72 130.618182 
L 72 135.010909 
L 72 139.403636 
L 72 143.796364 
L 72 148.189091 
L 72 152.581818 
L 72 156.974545 
L 72 161.367273 
L 72 165.76 
L 72 170.152727 
L 72 174.545455 
L 72 178.938182 
L 72 183.330909 
L 72 187.723636 
L 72 192.116364 
L 72 196.509091 
L 72 200.901818 
L 72 205.294545 
L 72 209.687273 
L 72 214.08 
L 72 216.24443 
z
" style="fill:#779af7;"/>
    <path clip-path="url(#pa712425fbd)" d="M 429.12 211.196722 
L 429.12 209.687273 
L 429.12 205.294545 
L 429.12 200.901818 
L 429.12 196.509091 
L 429.12 192.116364 
L 429.12 187.723636 
L 429.12 183.330909 
L 429.12 178.938182 
L 429.12 174.545455 
L 429.12 170.152727 
L 429.12 165.76 
L 429.12 161.367273 
L 429.12 156.974545 
L 429.12 152.581818 
L 429.12 148.189091 
L 429.12 143.796364 
L 429.12 139.460887 
L 429.089088 139.403636 
L 426.718464 135.010909 
L 425.512727 132.776737 
L 424.3478 130.618182 
L 421.977177 126.225455 
L 421.905455 126.092554 
L 419.606566 121.832727 
L 418.298182 119.40834 
L 417.235927 117.44 
L 414.865303 113.047273 
L 414.690909 112.724123 
L 412.494679 108.654545 
L 411.083636 106.03995 
L 410.124015 104.261818 
L 407.753394 99.869091 
L 407.476364 99.355763 
L 405.382767 95.476364 
L 403.869091 92.6715 
L 403.012168 91.083636 
L 400.641501 86.690909 
L 400.261818 85.987373 
L 398.270855 82.298182 
L 396.654545 79.303187 
L 395.900231 77.905455 
L 393.529612 73.512727 
L 393.047273 72.680369 
L 389.44 69.498909 
L 388.750766 69.12 
L 385.832727 69.12 
L 382.225455 69.12 
L 378.618182 69.12 
L 375.010909 69.12 
L 371.403636 69.12 
L 367.796364 69.12 
L 364.189091 69.12 
L 360.581818 69.12 
L 356.974545 69.12 
L 353.367273 69.12 
L 349.76 69.12 
L 346.152727 69.12 
L 342.545455 69.12 
L 338.938182 69.12 
L 335.330909 69.12 
L 331.723636 69.12 
L 328.116364 69.12 
L 324.509091 69.12 
L 320.901818 69.12 
L 317.294545 69.12 
L 313.687273 69.12 
L 310.08 69.12 
L 308.033481 69.12 
L 310.08 70.24508 
L 313.687273 72.228205 
L 316.023805 73.512727 
L 317.294545 74.211324 
L 320.901818 76.194471 
L 324.014047 77.905455 
L 324.509091 78.177608 
L 328.116364 80.160727 
L 331.723636 82.143846 
L 332.004372 82.298182 
L 335.330909 84.126975 
L 338.938182 86.110126 
L 339.994614 86.690909 
L 342.545455 88.093249 
L 346.152727 90.076368 
L 347.984938 91.083636 
L 349.76 92.059497 
L 353.367273 94.042637 
L 355.97515 95.476364 
L 356.974545 96.02579 
L 360.581818 98.008903 
L 363.965463 99.869091 
L 364.189091 99.992032 
L 367.796364 101.975173 
L 371.332914 104.261818 
L 371.403636 104.335828 
L 373.734346 108.654545 
L 375.010909 111.020009 
L 376.104969 113.047273 
L 378.475587 117.44 
L 378.618182 117.704223 
L 380.846231 121.832727 
L 382.225455 124.388406 
L 383.216855 126.225455 
L 385.587479 130.618182 
L 385.832727 131.072622 
L 387.958127 135.010909 
L 389.44 137.756788 
L 390.328752 139.403636 
L 392.699389 143.796364 
L 393.047273 144.440982 
L 395.070038 148.189091 
L 396.654545 151.125174 
L 397.44064 152.581818 
L 399.811851 156.974545 
L 400.261818 157.807549 
L 402.184753 161.367273 
L 403.869091 164.485333 
L 404.557639 165.76 
L 406.930515 170.152727 
L 407.476364 171.16321 
L 409.303406 174.545455 
L 411.083636 177.838796 
L 411.680564 178.938182 
L 414.074521 183.330909 
L 414.690909 184.472527 
L 416.446273 187.723636 
L 418.298182 191.153526 
L 418.818043 192.116364 
L 421.189769 196.509091 
L 421.905455 197.834618 
L 423.561521 200.901818 
L 425.512727 204.515646 
L 425.933275 205.294545 
L 428.305017 209.687273 
z
" style="fill:#779af7;"/>
   </g>
   <g id="PathCollection_3">
    <path clip-path="url(#pa712425fbd)" d="M 176.610909 500.434884 
L 180.218182 501.988347 
L 183.825455 503.551497 
L 184.860485 504 
L 187.432727 504 
L 191.04 504 
L 194.647273 504 
L 198.254545 504 
L 201.861818 504 
L 205.469091 504 
L 209.076364 504 
L 212.683636 504 
L 216.290909 504 
L 219.898182 504 
L 223.505455 504 
L 227.112727 504 
L 230.72 504 
L 234.327273 504 
L 237.934545 504 
L 241.541818 504 
L 245.149091 504 
L 248.756364 504 
L 252.363636 504 
L 255.970909 504 
L 259.578182 504 
L 263.185455 504 
L 266.792727 504 
L 270.4 504 
L 274.007273 504 
L 277.614545 504 
L 281.221818 504 
L 284.829091 504 
L 288.436364 504 
L 292.036032 504 
L 292.043636 503.99762 
L 295.650909 502.86874 
L 299.258182 501.739841 
L 302.865455 500.610955 
L 306.072623 499.607273 
L 306.472727 499.48206 
L 310.08 498.35318 
L 313.687273 497.2243 
L 317.294545 496.095421 
L 320.109281 495.214545 
L 320.901818 494.966521 
L 324.509091 493.837633 
L 328.116364 492.708752 
L 331.723636 491.579877 
L 334.14594 490.821818 
L 335.330909 490.450979 
L 338.938182 489.322094 
L 342.545455 488.193192 
L 346.152727 487.064303 
L 348.182502 486.429091 
L 349.76 485.935422 
L 353.367273 484.806548 
L 356.974545 483.677661 
L 360.581818 482.548781 
L 362.21922 482.036364 
L 364.189091 481.419901 
L 367.796364 480.291022 
L 371.403636 479.162107 
L 373.172223 477.643636 
L 375.010909 475.0764 
L 376.19887 473.250909 
L 378.556965 468.858182 
L 378.618182 468.694209 
L 380.002771 464.465455 
L 381.44104 460.072727 
L 382.225455 457.676968 
L 382.879297 455.68 
L 384.317588 451.287273 
L 385.755878 446.894545 
L 385.832727 446.659834 
L 387.194135 442.501818 
L 388.632413 438.109091 
L 389.44 435.642603 
L 390.070697 433.716364 
L 391.508964 429.323636 
L 392.947231 424.930909 
L 393.047273 424.625366 
L 394.385515 420.538182 
L 395.823781 416.145455 
L 396.654545 413.608181 
L 397.262063 411.752727 
L 398.70034 407.36 
L 400.138599 402.967273 
L 400.261818 402.59094 
L 401.576872 398.574545 
L 403.015163 394.181818 
L 403.869091 391.57375 
L 404.45342 389.789091 
L 405.891701 385.396364 
L 407.329969 381.003636 
L 407.476364 380.556512 
L 408.768236 376.610909 
L 410.206519 372.218182 
L 411.083636 369.539338 
L 411.6448 367.825455 
L 413.083077 363.432727 
L 414.521353 359.04 
L 414.690909 358.522147 
L 415.959627 354.647273 
L 417.3979 350.254545 
L 418.298182 347.504936 
L 418.836171 345.861818 
L 420.274463 341.469091 
L 421.712738 337.076364 
L 421.905455 336.48777 
L 423.150995 332.683636 
L 424.589286 328.290909 
L 425.512727 325.470565 
L 426.027557 323.898182 
L 427.465833 319.505455 
L 428.904092 315.112727 
L 429.12 314.45331 
L 429.12 310.72 
L 429.12 306.327273 
L 429.12 301.934545 
L 429.12 297.541818 
L 429.12 293.149091 
L 429.12 288.756364 
L 429.12 284.363636 
L 429.12 279.970909 
L 429.12 275.578182 
L 429.12 271.185455 
L 429.12 266.792727 
L 429.12 262.4 
L 429.12 258.007273 
L 429.12 253.614545 
L 429.12 249.221818 
L 429.12 244.829091 
L 429.12 240.436364 
L 429.12 236.043636 
L 429.12 231.650909 
L 429.12 227.258182 
L 429.12 222.865455 
L 429.12 218.472727 
L 429.12 214.08 
L 429.12 211.196722 
L 428.305017 209.687273 
L 425.933275 205.294545 
L 425.512727 204.515646 
L 423.561521 200.901818 
L 421.905455 197.834618 
L 421.189769 196.509091 
L 418.818043 192.116364 
L 418.298182 191.153526 
L 416.446273 187.723636 
L 414.690909 184.472527 
L 414.074521 183.330909 
L 411.680564 178.938182 
L 411.083636 177.838796 
L 409.303406 174.545455 
L 407.476364 171.16321 
L 406.930515 170.152727 
L 404.557639 165.76 
L 403.869091 164.485333 
L 402.184753 161.367273 
L 400.261818 157.807549 
L 399.811851 156.974545 
L 397.44064 152.581818 
L 396.654545 151.125174 
L 395.070038 148.189091 
L 393.047273 144.440982 
L 392.699389 143.796364 
L 390.328752 139.403636 
L 389.44 137.756788 
L 387.958127 135.010909 
L 385.832727 131.072622 
L 385.587479 130.618182 
L 383.216855 126.225455 
L 382.225455 124.388406 
L 380.846231 121.832727 
L 378.618182 117.704223 
L 378.475587 117.44 
L 376.104969 113.047273 
L 375.010909 111.020009 
L 373.734346 108.654545 
L 371.403636 104.335828 
L 371.332914 104.261818 
L 367.796364 101.975173 
L 364.189091 99.992032 
L 363.965463 99.869091 
L 360.581818 98.008903 
L 356.974545 96.02579 
L 355.97515 95.476364 
L 353.367273 94.042637 
L 349.76 92.059497 
L 347.984938 91.083636 
L 346.152727 90.076368 
L 342.545455 88.093249 
L 339.994614 86.690909 
L 338.938182 86.110126 
L 335.330909 84.126975 
L 332.004372 82.298182 
L 331.723636 82.143846 
L 328.116364 80.160727 
L 324.509091 78.177608 
L 324.014047 77.905455 
L 320.901818 76.194471 
L 317.294545 74.211324 
L 316.023805 73.512727 
L 313.687273 72.228205 
L 310.08 70.24508 
L 308.033481 69.12 
L 306.472727 69.12 
L 302.865455 69.12 
L 299.258182 69.12 
L 295.650909 69.12 
L 292.043636 69.12 
L 288.436364 69.12 
L 284.829091 69.12 
L 281.221818 69.12 
L 277.614545 69.12 
L 274.007273 69.12 
L 270.4 69.12 
L 266.792727 69.12 
L 263.185455 69.12 
L 259.578182 69.12 
L 255.970909 69.12 
L 252.363636 69.12 
L 248.756364 69.12 
L 245.149091 69.12 
L 241.541818 69.12 
L 237.934545 69.12 
L 234.327273 69.12 
L 230.72 69.12 
L 227.112727 69.12 
L 223.505455 69.12 
L 219.898182 69.12 
L 216.290909 69.12 
L 212.683636 69.12 
L 209.076364 69.12 
L 205.469091 69.12 
L 201.861818 69.12 
L 198.254545 69.12 
L 194.647273 69.12 
L 191.04 69.12 
L 187.432727 69.12 
L 183.825455 69.12 
L 180.218182 69.12 
L 176.610909 69.12 
L 175.832855 69.12 
L 173.003636 69.747617 
L 169.396364 70.547834 
L 165.789091 71.348071 
L 162.181818 72.148281 
L 158.574545 72.948498 
L 156.03103 73.512727 
L 154.967273 73.748701 
L 151.36 74.548925 
L 147.752727 75.349149 
L 144.145455 76.14936 
L 140.538182 76.949597 
L 136.930909 77.749821 
L 136.229341 77.905455 
L 133.323636 78.550042 
L 129.716364 79.684408 
L 127.259158 82.298182 
L 126.109091 83.930256 
L 124.163752 86.690909 
L 122.501818 89.049379 
L 121.068336 91.083636 
L 118.894545 94.168517 
L 117.972958 95.476364 
L 115.287273 99.287656 
L 114.877556 99.869091 
L 111.782178 104.261818 
L 111.68 104.406821 
L 108.697213 108.654545 
L 108.072727 110.032049 
L 107.044947 113.047273 
L 105.547646 117.44 
L 104.465455 120.614852 
L 104.050325 121.832727 
L 102.553005 126.225455 
L 101.055686 130.618182 
L 100.858182 131.197608 
L 99.558376 135.010909 
L 98.061048 139.403636 
L 97.250909 141.78035 
L 96.563727 143.796364 
L 95.06644 148.189091 
L 93.643636 152.363156 
L 93.569101 152.581818 
L 92.071773 156.974545 
L 90.574448 161.367273 
L 90.036364 162.945868 
L 89.077136 165.76 
L 87.57982 170.152727 
L 86.429091 173.528734 
L 86.082535 174.545455 
L 84.58517 178.938182 
L 83.087879 183.330909 
L 82.821818 184.111455 
L 81.590551 187.723636 
L 80.093251 192.116364 
L 79.214545 194.694258 
L 78.595932 196.509091 
L 77.100975 200.901818 
L 75.634833 205.294545 
L 75.607273 205.377571 
L 74.176664 209.687273 
L 72.718479 214.08 
L 72 216.24443 
L 72 218.472727 
L 72 222.865455 
L 72 227.258182 
L 72 231.650909 
L 72 236.043636 
L 72 240.436364 
L 72 244.829091 
L 72 249.221818 
L 72 253.614545 
L 72 258.007273 
L 72 262.4 
L 72 266.792727 
L 72 271.185455 
L 72 275.578182 
L 72 279.970909 
L 72 284.363636 
L 72 288.756364 
L 72 293.149091 
L 72 297.541818 
L 72 301.934545 
L 72 306.327273 
L 72 310.72 
L 72 315.112727 
L 72 319.505455 
L 72 323.898182 
L 72 328.290909 
L 72 332.683636 
L 72 337.076364 
L 72 341.469091 
L 72 345.861818 
L 72 350.254545 
L 72 354.647273 
L 72 359.04 
L 72 363.432727 
L 72 367.825455 
L 72 372.218182 
L 72 376.610909 
L 72 381.003636 
L 72 384.924489 
L 72.284742 385.396364 
L 74.935414 389.789091 
L 75.607273 390.902485 
L 77.586141 394.181818 
L 79.214545 396.880371 
L 80.236872 398.574545 
L 82.821818 402.858326 
L 82.88756 402.967273 
L 85.538248 407.36 
L 86.429091 408.836296 
L 88.188968 411.752727 
L 90.036364 414.814219 
L 90.839676 416.145455 
L 93.490417 420.538182 
L 93.643636 420.792096 
L 96.1411 424.930909 
L 97.250909 426.770077 
L 98.791813 429.323636 
L 100.858182 432.747988 
L 101.442526 433.716364 
L 104.093213 438.109091 
L 104.465455 438.725965 
L 106.743936 442.501818 
L 108.072727 444.703881 
L 109.394632 446.894545 
L 111.68 450.681833 
L 112.045341 451.287273 
L 114.696047 455.68 
L 115.287273 456.659767 
L 117.34676 460.072727 
L 118.894545 462.6377 
L 119.99747 464.465455 
L 122.501818 468.615634 
L 122.64818 468.858182 
L 125.298888 473.250909 
L 126.109091 474.593568 
L 127.949598 477.643636 
L 129.716364 479.860999 
L 133.323636 481.853831 
L 133.733339 482.036364 
L 136.930909 483.460963 
L 140.538182 485.057668 
L 143.748605 486.429091 
L 144.145455 486.598211 
L 147.752727 488.135501 
L 151.36 489.672796 
L 154.056132 490.821818 
L 154.967273 491.210121 
L 158.574545 492.747405 
L 162.181818 494.284686 
L 164.363757 495.214545 
L 165.789091 495.821968 
L 169.396364 497.359262 
L 173.003636 498.896532 
L 174.67136 499.607273 
z
M 224.856855 477.643636 
L 223.505455 477.058041 
L 219.898182 475.494909 
L 216.290909 473.931765 
L 214.719695 473.250909 
L 212.683636 472.368617 
L 209.076364 470.805493 
L 205.469091 469.242338 
L 204.582573 468.858182 
L 201.861818 467.682628 
L 198.254545 466.14199 
L 194.647273 464.604705 
L 194.320519 464.465455 
L 191.04 463.067412 
L 187.432727 461.530116 
L 184.012944 460.072727 
L 183.825455 459.992827 
L 180.218182 458.455545 
L 176.610909 456.918241 
L 173.705345 455.68 
L 173.003636 455.380959 
L 169.396364 453.843667 
L 165.789091 452.306378 
L 163.39778 451.287273 
L 162.181818 450.769071 
L 158.574545 449.231793 
L 154.967273 447.694509 
L 153.130502 446.894545 
L 151.36 445.78544 
L 149.136029 442.501818 
L 147.752727 440.209435 
L 146.485309 438.109091 
L 144.145455 434.231509 
L 143.834598 433.716364 
L 141.183903 429.323636 
L 140.538182 428.253553 
L 138.533196 424.930909 
L 136.930909 422.275613 
L 135.882487 420.538182 
L 133.323636 416.297673 
L 133.231784 416.145455 
L 130.581074 411.752727 
L 129.716364 410.319744 
L 127.930349 407.36 
L 126.109091 404.341828 
L 125.279642 402.967273 
L 122.628936 398.574545 
L 122.501818 398.363887 
L 119.978225 394.181818 
L 118.894545 392.385958 
L 117.327523 389.789091 
L 115.287273 386.407993 
L 114.676827 385.396364 
L 112.026108 381.003636 
L 111.68 380.430069 
L 109.375399 376.610909 
L 108.072727 374.452135 
L 106.724686 372.218182 
L 104.465455 368.474204 
L 104.07398 367.825455 
L 101.423271 363.432727 
L 100.858182 362.496268 
L 98.772562 359.04 
L 97.250909 356.518334 
L 96.121852 354.647273 
L 93.643636 350.5404 
L 93.471142 350.254545 
L 90.820438 345.861818 
L 90.036364 344.562461 
L 88.169729 341.469091 
L 86.429091 338.584521 
L 85.519023 337.076364 
L 82.868327 332.683636 
L 82.821818 332.566383 
L 81.270304 328.290909 
L 80.610387 323.898182 
L 79.950475 319.505455 
L 79.289904 315.112727 
L 79.214545 314.612525 
L 78.628095 310.72 
L 78.048962 306.327273 
L 79.214545 302.773854 
L 79.487656 301.934545 
L 80.945826 297.541818 
L 82.404004 293.149091 
L 82.821818 291.890424 
L 83.862168 288.756364 
L 85.320345 284.363636 
L 86.429091 281.023545 
L 86.778514 279.970909 
L 88.236684 275.578182 
L 89.694854 271.185455 
L 90.036364 270.156652 
L 91.153023 266.792727 
L 92.611213 262.4 
L 93.643636 259.289854 
L 94.069389 258.007273 
L 95.527556 253.614545 
L 96.98573 249.221818 
L 97.250909 248.422963 
L 98.4439 244.829091 
L 99.902079 240.436364 
L 100.858182 237.556145 
L 101.360267 236.043636 
L 102.818423 231.650909 
L 104.281036 227.258182 
L 104.465455 226.714352 
L 105.77741 222.865455 
L 107.274729 218.472727 
L 108.072727 216.131602 
L 108.772038 214.08 
L 110.269366 209.687273 
L 111.68 205.54883 
L 111.766676 205.294545 
L 113.263989 200.901818 
L 114.761315 196.509091 
L 115.287273 194.966078 
L 116.258636 192.116364 
L 117.755942 187.723636 
L 118.894545 184.383322 
L 119.253279 183.330909 
L 120.750588 178.938182 
L 122.247906 174.545455 
L 122.501818 173.800548 
L 123.745226 170.152727 
L 125.242542 165.76 
L 126.109091 163.217788 
L 126.73986 161.367273 
L 128.237173 156.974545 
L 129.716364 152.635027 
L 129.734501 152.581818 
L 131.23181 148.189091 
L 132.729135 143.796364 
L 133.323636 142.531915 
L 135.286629 139.403636 
L 136.930909 137.070232 
L 138.382038 135.010909 
L 140.538182 131.951085 
L 141.47743 130.618182 
L 144.145455 126.831954 
L 144.572835 126.225455 
L 147.668213 121.832727 
L 147.752727 121.712791 
L 150.7636 117.44 
L 151.36 116.8309 
L 154.967273 115.447594 
L 158.574545 114.647374 
L 162.181818 113.847154 
L 165.787561 113.047273 
L 165.789091 113.046933 
L 169.396364 112.246705 
L 173.003636 111.446485 
L 176.610909 110.646268 
L 180.218182 109.846053 
L 183.825455 109.045813 
L 185.589246 108.654545 
L 187.432727 108.245601 
L 191.04 107.445379 
L 194.647273 106.645157 
L 198.254545 105.844941 
L 201.861818 105.04471 
L 205.39098 104.261818 
L 205.469091 104.24449 
L 209.076364 103.444275 
L 212.683636 102.644057 
L 216.290909 101.843835 
L 219.898182 101.04361 
L 223.505455 100.24339 
L 225.192737 99.869091 
L 227.112727 99.443169 
L 230.72 98.642949 
L 234.327273 97.842729 
L 237.934545 97.042509 
L 241.541818 96.242289 
L 244.994494 95.476364 
L 245.149091 95.442068 
L 248.756364 94.641853 
L 252.363636 93.84162 
L 255.970909 93.04139 
L 259.578182 92.241172 
L 263.185455 91.440948 
L 266.792727 91.108981 
L 270.4 93.068133 
L 274.007273 95.027296 
L 274.834109 95.476364 
L 277.614545 96.986444 
L 281.221818 98.945582 
L 282.92222 99.869091 
L 284.829091 100.904738 
L 288.436364 102.863893 
L 291.010282 104.261818 
L 292.043636 104.823042 
L 295.650909 106.782195 
L 299.098357 108.654545 
L 299.258182 108.741348 
L 302.865455 110.700501 
L 306.472727 112.659634 
L 307.185247 113.047273 
L 310.08 114.620943 
L 313.687273 116.603273 
L 315.209262 117.44 
L 317.294545 118.586406 
L 320.901818 120.569527 
L 323.199554 121.832727 
L 324.509091 122.552653 
L 328.116364 124.535786 
L 331.189837 126.225455 
L 331.723636 126.518915 
L 335.330909 128.50205 
L 338.938182 130.485175 
L 339.180117 130.618182 
L 342.545455 132.468312 
L 346.152727 134.451437 
L 347.170392 135.010909 
L 349.76 136.800751 
L 351.568407 139.403636 
L 353.367273 142.73689 
L 353.939043 143.796364 
L 356.309674 148.189091 
L 356.974545 149.421084 
L 358.6803 152.581818 
L 360.581818 156.105271 
L 361.050946 156.974545 
L 363.421581 161.367273 
L 364.189091 162.78945 
L 365.792206 165.76 
L 367.796364 169.473661 
L 368.162852 170.152727 
L 370.535192 174.545455 
L 371.403636 176.15313 
L 372.908079 178.938182 
L 375.010909 182.832225 
L 375.280166 183.330909 
L 377.624944 187.723636 
L 378.618182 189.584376 
L 379.969722 192.116364 
L 382.225455 196.342271 
L 382.314501 196.509091 
L 384.659279 200.901818 
L 385.832727 203.100167 
L 387.00406 205.294545 
L 389.353396 209.687273 
L 389.44 209.848249 
L 391.724828 214.08 
L 393.047273 216.529312 
L 394.096577 218.472727 
L 396.468314 222.865455 
L 396.654545 223.210374 
L 398.840064 227.258182 
L 400.261818 229.89144 
L 401.21181 231.650909 
L 403.583568 236.043636 
L 403.869091 236.572454 
L 405.955295 240.436364 
L 407.476364 243.253562 
L 408.327037 244.829091 
L 410.698788 249.221818 
L 411.083636 249.934596 
L 413.070544 253.614545 
L 413.404222 258.007273 
L 412.780651 262.4 
L 411.342384 266.792727 
L 411.083636 267.582985 
L 409.904098 271.185455 
L 408.46581 275.578182 
L 407.476364 278.600088 
L 407.027525 279.970909 
L 405.58927 284.363636 
L 404.150998 288.756364 
L 403.869091 289.61736 
L 402.712726 293.149091 
L 401.274435 297.541818 
L 400.261818 300.63452 
L 399.836165 301.934545 
L 398.397897 306.327273 
L 396.959621 310.72 
L 396.654545 311.651757 
L 395.521352 315.112727 
L 394.083073 319.505455 
L 393.047273 322.668949 
L 392.644793 323.898182 
L 391.206524 328.290909 
L 389.768244 332.683636 
L 389.44 333.686153 
L 388.329975 337.076364 
L 386.891692 341.469091 
L 385.832727 344.703358 
L 385.453425 345.861818 
L 384.015151 350.254545 
L 382.576875 354.647273 
L 382.225455 355.720563 
L 381.138594 359.04 
L 379.700327 363.432727 
L 378.618182 366.737748 
L 378.262041 367.825455 
L 376.823782 372.218182 
L 375.385507 376.610909 
L 375.010909 377.754985 
L 373.947228 381.003636 
L 372.508956 385.396364 
L 371.403636 388.772209 
L 371.070688 389.789091 
L 369.632414 394.181818 
L 368.194139 398.574545 
L 367.796364 399.789421 
L 366.755869 402.967273 
L 365.317593 407.36 
L 364.189091 410.806611 
L 363.879312 411.752727 
L 362.441045 416.145455 
L 361.002769 420.538182 
L 360.581818 421.823835 
L 359.564487 424.930909 
L 358.12621 429.323636 
L 356.974545 432.841002 
L 356.687935 433.716364 
L 355.179101 438.109091 
L 353.367273 441.589385 
L 352.681499 442.501818 
L 349.76 444.892044 
L 346.152727 446.020935 
L 343.361153 446.894545 
L 342.545455 447.149815 
L 338.938182 448.278701 
L 335.330909 449.407595 
L 331.723636 450.536478 
L 329.324547 451.287273 
L 328.116364 451.665375 
L 324.509091 452.794255 
L 320.901818 453.923145 
L 317.294545 455.052032 
L 315.287918 455.68 
L 313.687273 456.180912 
L 310.08 457.3098 
L 306.472727 458.438682 
L 302.865455 459.567556 
L 301.251231 460.072727 
L 299.258182 460.696451 
L 295.650909 461.825334 
L 292.043636 462.954228 
L 288.436364 464.083105 
L 287.214583 464.465455 
L 284.829091 465.211982 
L 281.221818 466.340874 
L 277.614545 467.469753 
L 274.007273 468.598634 
L 273.177914 468.858182 
L 270.4 469.727534 
L 266.792727 470.856423 
L 263.185455 471.985318 
L 259.578182 473.114193 
L 259.141323 473.250909 
L 255.970909 474.243085 
L 252.363636 475.371964 
L 248.756364 476.500843 
L 245.149091 477.629733 
L 245.104664 477.643636 
L 241.541818 478.758613 
L 237.934545 479.887503 
L 234.327273 481.016393 
L 230.72 480.184314 
L 227.112727 478.621167 
z
" style="fill:#a3c2fe;"/>
   </g>
   <g id="PathCollection_4">
    <path clip-path="url(#pa712425fbd)" d="M 227.112727 478.621167 
L 230.72 480.184314 
L 234.327273 481.016393 
L 237.934545 479.887503 
L 241.541818 478.758613 
L 245.104664 477.643636 
L 245.149091 477.629733 
L 248.756364 476.500843 
L 252.363636 475.371964 
L 255.970909 474.243085 
L 259.141323 473.250909 
L 259.578182 473.114193 
L 263.185455 471.985318 
L 266.792727 470.856423 
L 270.4 469.727534 
L 273.177914 468.858182 
L 274.007273 468.598634 
L 277.614545 467.469753 
L 281.221818 466.340874 
L 284.829091 465.211982 
L 287.214583 464.465455 
L 288.436364 464.083105 
L 292.043636 462.954228 
L 295.650909 461.825334 
L 299.258182 460.696451 
L 301.251231 460.072727 
L 302.865455 459.567556 
L 306.472727 458.438682 
L 310.08 457.3098 
L 313.687273 456.180912 
L 315.287918 455.68 
L 317.294545 455.052032 
L 320.901818 453.923145 
L 324.509091 452.794255 
L 328.116364 451.665375 
L 329.324547 451.287273 
L 331.723636 450.536478 
L 335.330909 449.407595 
L 338.938182 448.278701 
L 342.545455 447.149815 
L 343.361153 446.894545 
L 346.152727 446.020935 
L 349.76 444.892044 
L 352.681499 442.501818 
L 353.367273 441.589385 
L 355.179101 438.109091 
L 356.687935 433.716364 
L 356.974545 432.841002 
L 358.12621 429.323636 
L 359.564487 424.930909 
L 360.581818 421.823835 
L 361.002769 420.538182 
L 362.441045 416.145455 
L 363.879312 411.752727 
L 364.189091 410.806611 
L 365.317593 407.36 
L 366.755869 402.967273 
L 367.796364 399.789421 
L 368.194139 398.574545 
L 369.632414 394.181818 
L 371.070688 389.789091 
L 371.403636 388.772209 
L 372.508956 385.396364 
L 373.947228 381.003636 
L 375.010909 377.754985 
L 375.385507 376.610909 
L 376.823782 372.218182 
L 378.262041 367.825455 
L 378.618182 366.737748 
L 379.700327 363.432727 
L 381.138594 359.04 
L 382.225455 355.720563 
L 382.576875 354.647273 
L 384.015151 350.254545 
L 385.453425 345.861818 
L 385.832727 344.703358 
L 386.891692 341.469091 
L 388.329975 337.076364 
L 389.44 333.686153 
L 389.768244 332.683636 
L 391.206524 328.290909 
L 392.644793 323.898182 
L 393.047273 322.668949 
L 394.083073 319.505455 
L 395.521352 315.112727 
L 396.654545 311.651757 
L 396.959621 310.72 
L 398.397897 306.327273 
L 399.836165 301.934545 
L 400.261818 300.63452 
L 401.274435 297.541818 
L 402.712726 293.149091 
L 403.869091 289.61736 
L 404.150998 288.756364 
L 405.58927 284.363636 
L 407.027525 279.970909 
L 407.476364 278.600088 
L 408.46581 275.578182 
L 409.904098 271.185455 
L 411.083636 267.582985 
L 411.342384 266.792727 
L 412.780651 262.4 
L 413.404222 258.007273 
L 413.070544 253.614545 
L 411.083636 249.934596 
L 410.698788 249.221818 
L 408.327037 244.829091 
L 407.476364 243.253562 
L 405.955295 240.436364 
L 403.869091 236.572454 
L 403.583568 236.043636 
L 401.21181 231.650909 
L 400.261818 229.89144 
L 398.840064 227.258182 
L 396.654545 223.210374 
L 396.468314 222.865455 
L 394.096577 218.472727 
L 393.047273 216.529312 
L 391.724828 214.08 
L 389.44 209.848249 
L 389.353396 209.687273 
L 387.00406 205.294545 
L 385.832727 203.100167 
L 384.659279 200.901818 
L 382.314501 196.509091 
L 382.225455 196.342271 
L 379.969722 192.116364 
L 378.618182 189.584376 
L 377.624944 187.723636 
L 375.280166 183.330909 
L 375.010909 182.832225 
L 372.908079 178.938182 
L 371.403636 176.15313 
L 370.535192 174.545455 
L 368.162852 170.152727 
L 367.796364 169.473661 
L 365.792206 165.76 
L 364.189091 162.78945 
L 363.421581 161.367273 
L 361.050946 156.974545 
L 360.581818 156.105271 
L 358.6803 152.581818 
L 356.974545 149.421084 
L 356.309674 148.189091 
L 353.939043 143.796364 
L 353.367273 142.73689 
L 351.568407 139.403636 
L 349.76 136.800751 
L 347.170392 135.010909 
L 346.152727 134.451437 
L 342.545455 132.468312 
L 339.180117 130.618182 
L 338.938182 130.485175 
L 335.330909 128.50205 
L 331.723636 126.518915 
L 331.189837 126.225455 
L 328.116364 124.535786 
L 324.509091 122.552653 
L 323.199554 121.832727 
L 320.901818 120.569527 
L 317.294545 118.586406 
L 315.209262 117.44 
L 313.687273 116.603273 
L 310.08 114.620943 
L 307.185247 113.047273 
L 306.472727 112.659634 
L 302.865455 110.700501 
L 299.258182 108.741348 
L 299.098357 108.654545 
L 295.650909 106.782195 
L 292.043636 104.823042 
L 291.010282 104.261818 
L 288.436364 102.863893 
L 284.829091 100.904738 
L 282.92222 99.869091 
L 281.221818 98.945582 
L 277.614545 96.986444 
L 274.834109 95.476364 
L 274.007273 95.027296 
L 270.4 93.068133 
L 266.792727 91.108981 
L 263.185455 91.440948 
L 259.578182 92.241172 
L 255.970909 93.04139 
L 252.363636 93.84162 
L 248.756364 94.641853 
L 245.149091 95.442068 
L 244.994494 95.476364 
L 241.541818 96.242289 
L 237.934545 97.042509 
L 234.327273 97.842729 
L 230.72 98.642949 
L 227.112727 99.443169 
L 225.192737 99.869091 
L 223.505455 100.24339 
L 219.898182 101.04361 
L 216.290909 101.843835 
L 212.683636 102.644057 
L 209.076364 103.444275 
L 205.469091 104.24449 
L 205.39098 104.261818 
L 201.861818 105.04471 
L 198.254545 105.844941 
L 194.647273 106.645157 
L 191.04 107.445379 
L 187.432727 108.245601 
L 185.589246 108.654545 
L 183.825455 109.045813 
L 180.218182 109.846053 
L 176.610909 110.646268 
L 173.003636 111.446485 
L 169.396364 112.246705 
L 165.789091 113.046933 
L 165.787561 113.047273 
L 162.181818 113.847154 
L 158.574545 114.647374 
L 154.967273 115.447594 
L 151.36 116.8309 
L 150.7636 117.44 
L 147.752727 121.712791 
L 147.668213 121.832727 
L 144.572835 126.225455 
L 144.145455 126.831954 
L 141.47743 130.618182 
L 140.538182 131.951085 
L 138.382038 135.010909 
L 136.930909 137.070232 
L 135.286629 139.403636 
L 133.323636 142.531915 
L 132.729135 143.796364 
L 131.23181 148.189091 
L 129.734501 152.581818 
L 129.716364 152.635027 
L 128.237173 156.974545 
L 126.73986 161.367273 
L 126.109091 163.217788 
L 125.242542 165.76 
L 123.745226 170.152727 
L 122.501818 173.800548 
L 122.247906 174.545455 
L 120.750588 178.938182 
L 119.253279 183.330909 
L 118.894545 184.383322 
L 117.755942 187.723636 
L 116.258636 192.116364 
L 115.287273 194.966078 
L 114.761315 196.509091 
L 113.263989 200.901818 
L 111.766676 205.294545 
L 111.68 205.54883 
L 110.269366 209.687273 
L 108.772038 214.08 
L 108.072727 216.131602 
L 107.274729 218.472727 
L 105.77741 222.865455 
L 104.465455 226.714352 
L 104.281036 227.258182 
L 102.818423 231.650909 
L 101.360267 236.043636 
L 100.858182 237.556145 
L 99.902079 240.436364 
L 98.4439 244.829091 
L 97.250909 248.422963 
L 96.98573 249.221818 
L 95.527556 253.614545 
L 94.069389 258.007273 
L 93.643636 259.289854 
L 92.611213 262.4 
L 91.153023 266.792727 
L 90.036364 270.156652 
L 89.694854 271.185455 
L 88.236684 275.578182 
L 86.778514 279.970909 
L 86.429091 281.023545 
L 85.320345 284.363636 
L 83.862168 288.756364 
L 82.821818 291.890424 
L 82.404004 293.149091 
L 80.945826 297.541818 
L 79.487656 301.934545 
L 79.214545 302.773854 
L 78.048962 306.327273 
L 78.628095 310.72 
L 79.214545 314.612525 
L 79.289904 315.112727 
L 79.950475 319.505455 
L 80.610387 323.898182 
L 81.270304 328.290909 
L 82.821818 332.566383 
L 82.868327 332.683636 
L 85.519023 337.076364 
L 86.429091 338.584521 
L 88.169729 341.469091 
L 90.036364 344.562461 
L 90.820438 345.861818 
L 93.471142 350.254545 
L 93.643636 350.5404 
L 96.121852 354.647273 
L 97.250909 356.518334 
L 98.772562 359.04 
L 100.858182 362.496268 
L 101.423271 363.432727 
L 104.07398 367.825455 
L 104.465455 368.474204 
L 106.724686 372.218182 
L 108.072727 374.452135 
L 109.375399 376.610909 
L 111.68 380.430069 
L 112.026108 381.003636 
L 114.676827 385.396364 
L 115.287273 386.407993 
L 117.327523 389.789091 
L 118.894545 392.385958 
L 119.978225 394.181818 
L 122.501818 398.363887 
L 122.628936 398.574545 
L 125.279642 402.967273 
L 126.109091 404.341828 
L 127.930349 407.36 
L 129.716364 410.319744 
L 130.581074 411.752727 
L 133.231784 416.145455 
L 133.323636 416.297673 
L 135.882487 420.538182 
L 136.930909 422.275613 
L 138.533196 424.930909 
L 140.538182 428.253553 
L 141.183903 429.323636 
L 143.834598 433.716364 
L 144.145455 434.231509 
L 146.485309 438.109091 
L 147.752727 440.209435 
L 149.136029 442.501818 
L 151.36 445.78544 
L 153.130502 446.894545 
L 154.967273 447.694509 
L 158.574545 449.231793 
L 162.181818 450.769071 
L 163.39778 451.287273 
L 165.789091 452.306378 
L 169.396364 453.843667 
L 173.003636 455.380959 
L 173.705345 455.68 
L 176.610909 456.918241 
L 180.218182 458.455545 
L 183.825455 459.992827 
L 184.012944 460.072727 
L 187.432727 461.530116 
L 191.04 463.067412 
L 194.320519 464.465455 
L 194.647273 464.604705 
L 198.254545 466.14199 
L 201.861818 467.682628 
L 204.582573 468.858182 
L 205.469091 469.242338 
L 209.076364 470.805493 
L 212.683636 472.368617 
L 214.719695 473.250909 
L 216.290909 473.931765 
L 219.898182 475.494909 
L 223.505455 477.058041 
L 224.856855 477.643636 
z
M 234.542452 438.109091 
L 234.327273 438.059461 
L 230.72 436.496324 
L 227.112727 434.933188 
L 224.275442 433.716364 
L 223.505455 433.387443 
L 219.898182 431.850156 
L 216.290909 430.312857 
L 213.969711 429.323636 
L 212.683636 428.775555 
L 209.076364 427.238271 
L 205.469091 425.700978 
L 203.662118 424.930909 
L 201.861818 424.163685 
L 198.254545 422.626403 
L 194.647273 421.08911 
L 193.354515 420.538182 
L 191.04 419.551817 
L 187.432727 418.01453 
L 183.825455 416.477231 
L 183.046944 416.145455 
L 180.218182 414.939933 
L 176.610909 413.402645 
L 173.200843 411.752727 
L 173.003636 411.599095 
L 170.41299 407.36 
L 169.396364 405.696472 
L 167.728471 402.967273 
L 165.789091 399.793846 
L 165.045115 398.574545 
L 162.371539 394.181818 
L 162.181818 393.869451 
L 159.719601 389.789091 
L 158.574545 387.891509 
L 157.068898 385.396364 
L 154.967273 381.913583 
L 154.418181 381.003636 
L 151.767473 376.610909 
L 151.36 375.935649 
L 149.11677 372.218182 
L 147.752727 369.957688 
L 146.466068 367.825455 
L 144.145455 363.979781 
L 143.815345 363.432727 
L 141.164657 359.04 
L 140.538182 358.001816 
L 138.513937 354.647273 
L 136.930909 352.023885 
L 135.863232 350.254545 
L 133.323636 346.045963 
L 133.212518 345.861818 
L 130.561811 341.469091 
L 129.716364 340.068028 
L 127.911099 337.076364 
L 126.109091 334.090082 
L 125.260398 332.683636 
L 122.609691 328.290909 
L 122.501818 328.112144 
L 119.958979 323.898182 
L 118.894545 320.127072 
L 118.734023 319.505455 
L 118.074108 315.112727 
L 117.414194 310.72 
L 116.754283 306.327273 
L 116.094375 301.934545 
L 116.878326 297.541818 
L 118.336627 293.149091 
L 118.894545 291.468354 
L 119.794792 288.756364 
L 121.252975 284.363636 
L 122.501818 280.601505 
L 122.711146 279.970909 
L 124.169323 275.578182 
L 125.627502 271.185455 
L 126.109091 269.734664 
L 127.085663 266.792727 
L 128.543836 262.4 
L 129.716364 258.867782 
L 130.002013 258.007273 
L 131.466669 253.614545 
L 132.958888 249.221818 
L 133.323636 248.151739 
L 134.456198 244.829091 
L 135.953526 240.436364 
L 136.930909 237.569003 
L 137.450852 236.043636 
L 138.948153 231.650909 
L 140.445473 227.258182 
L 140.538182 226.9862 
L 141.942797 222.865455 
L 143.44011 218.472727 
L 144.145455 216.403438 
L 144.937427 214.08 
L 146.434751 209.687273 
L 147.752727 205.820678 
L 147.932066 205.294545 
L 149.429381 200.901818 
L 150.926696 196.509091 
L 151.36 195.23789 
L 152.424008 192.116364 
L 153.921326 187.723636 
L 154.967273 184.655122 
L 155.418651 183.330909 
L 156.91596 178.938182 
L 158.574545 174.936858 
L 158.791078 174.545455 
L 161.886478 170.152727 
L 162.181818 169.733607 
L 164.981861 165.76 
L 165.789091 164.614445 
L 168.077261 161.367273 
L 169.396364 159.495316 
L 171.172663 156.974545 
L 173.003636 154.376167 
L 175.968517 152.581818 
L 176.610909 152.345144 
L 180.218182 151.54492 
L 183.825455 150.744696 
L 187.432727 149.944472 
L 191.04 149.144248 
L 194.647273 148.344025 
L 195.345686 148.189091 
L 198.254545 147.543803 
L 201.861818 146.743583 
L 205.469091 145.943363 
L 209.076364 145.143143 
L 212.683636 144.342923 
L 215.147443 143.796364 
L 216.290909 143.542703 
L 219.898182 142.742482 
L 223.505455 141.942262 
L 227.112727 141.142046 
L 230.72 140.341822 
L 234.327273 139.541591 
L 234.949152 139.403636 
L 237.934545 138.741369 
L 241.541818 137.941147 
L 245.149091 137.140941 
L 248.756364 136.340714 
L 252.363636 135.54049 
L 254.750909 135.010909 
L 255.970909 134.74027 
L 259.578182 133.94005 
L 263.185455 133.581251 
L 265.8178 135.010909 
L 266.792727 135.540404 
L 270.4 137.499557 
L 273.905869 139.403636 
L 274.007273 139.45871 
L 277.614545 141.417863 
L 281.221818 143.377016 
L 281.993942 143.796364 
L 284.829091 145.336154 
L 288.436364 147.295305 
L 290.082038 148.189091 
L 292.043636 149.254467 
L 295.650909 151.213621 
L 298.170081 152.581818 
L 299.258182 153.172779 
L 302.865455 155.131918 
L 306.258185 156.974545 
L 306.472727 157.091066 
L 310.08 159.050219 
L 313.687273 161.009372 
L 314.346254 161.367273 
L 317.294545 162.968521 
L 320.901818 164.944579 
L 322.385043 165.76 
L 324.509091 166.927718 
L 328.116364 168.91084 
L 329.265258 170.152727 
L 331.723636 174.453744 
L 331.77313 174.545455 
L 334.14376 178.938182 
L 335.330909 181.139737 
L 336.513095 183.330909 
L 338.86232 187.723636 
L 338.938182 187.865746 
L 341.207104 192.116364 
L 342.545455 194.623642 
L 343.551879 196.509091 
L 345.89666 200.901818 
L 346.152727 201.381535 
L 348.241442 205.294545 
L 349.76 208.139433 
L 350.586216 209.687273 
L 352.930986 214.08 
L 353.367273 214.897343 
L 355.275777 218.472727 
L 356.974545 221.655219 
L 357.620552 222.865455 
L 359.965346 227.258182 
L 360.581818 228.413088 
L 362.310121 231.650909 
L 364.189091 235.170993 
L 364.654895 236.043636 
L 367.005585 240.436364 
L 367.796364 241.90504 
L 369.375129 244.829091 
L 371.403636 248.586098 
L 371.746878 249.221818 
L 374.118611 253.614545 
L 375.010909 255.267173 
L 376.490367 258.007273 
L 377.452937 262.4 
L 377.563349 266.792727 
L 376.521342 271.185455 
L 375.083071 275.578182 
L 375.010909 275.798577 
L 373.644796 279.970909 
L 372.206529 284.363636 
L 371.403636 286.815801 
L 370.768252 288.756364 
L 369.329986 293.149091 
L 367.891702 297.541818 
L 367.796364 297.832997 
L 366.453419 301.934545 
L 365.015158 306.327273 
L 364.189091 308.850223 
L 363.576885 310.72 
L 362.138604 315.112727 
L 360.700334 319.505455 
L 360.581818 319.867418 
L 359.26205 323.898182 
L 357.823776 328.290909 
L 356.974545 330.884623 
L 356.385513 332.683636 
L 354.947232 337.076364 
L 353.508949 341.469091 
L 353.367273 341.901793 
L 352.070681 345.861818 
L 350.632414 350.254545 
L 349.76 352.919056 
L 349.194146 354.647273 
L 347.755867 359.04 
L 346.317596 363.432727 
L 346.152727 363.936265 
L 344.879318 367.825455 
L 343.441039 372.218182 
L 342.545455 374.953453 
L 342.002769 376.610909 
L 340.564495 381.003636 
L 339.126211 385.396364 
L 338.938182 385.970641 
L 337.687949 389.789091 
L 336.249662 394.181818 
L 335.330909 396.987866 
L 334.8114 398.574545 
L 333.373126 402.967273 
L 331.934858 407.36 
L 331.723636 407.812806 
L 328.116364 410.621974 
L 324.509091 411.750869 
L 324.503154 411.752727 
L 320.901818 412.879746 
L 317.294545 414.008629 
L 313.687273 415.137516 
L 310.466466 416.145455 
L 310.08 416.266398 
L 306.472727 417.395286 
L 302.865455 418.524173 
L 299.258182 419.653061 
L 296.429845 420.538182 
L 295.650909 420.781949 
L 292.043636 421.910832 
L 288.436364 423.039717 
L 284.829091 424.168591 
L 282.39318 424.930909 
L 281.221818 425.297487 
L 277.614545 426.426375 
L 274.007273 427.555262 
L 270.4 428.684139 
L 268.356536 429.323636 
L 266.792727 429.813028 
L 263.185455 430.941918 
L 259.578182 432.070801 
L 255.970909 433.199688 
L 254.319915 433.716364 
L 252.363636 434.328575 
L 248.756364 435.457464 
L 245.149091 436.586334 
L 241.541818 437.715229 
L 240.283248 438.109091 
L 237.934545 438.844105 
z
" style="fill:#ccd9ed;"/>
   </g>
   <g id="PathCollection_5">
    <path clip-path="url(#pa712425fbd)" d="M 237.934545 438.844105 
L 240.283248 438.109091 
L 241.541818 437.715229 
L 245.149091 436.586334 
L 248.756364 435.457464 
L 252.363636 434.328575 
L 254.319915 433.716364 
L 255.970909 433.199688 
L 259.578182 432.070801 
L 263.185455 430.941918 
L 266.792727 429.813028 
L 268.356536 429.323636 
L 270.4 428.684139 
L 274.007273 427.555262 
L 277.614545 426.426375 
L 281.221818 425.297487 
L 282.39318 424.930909 
L 284.829091 424.168591 
L 288.436364 423.039717 
L 292.043636 421.910832 
L 295.650909 420.781949 
L 296.429845 420.538182 
L 299.258182 419.653061 
L 302.865455 418.524173 
L 306.472727 417.395286 
L 310.08 416.266398 
L 310.466466 416.145455 
L 313.687273 415.137516 
L 317.294545 414.008629 
L 320.901818 412.879746 
L 324.503154 411.752727 
L 324.509091 411.750869 
L 328.116364 410.621974 
L 331.723636 407.812806 
L 331.934858 407.36 
L 333.373126 402.967273 
L 334.8114 398.574545 
L 335.330909 396.987866 
L 336.249662 394.181818 
L 337.687949 389.789091 
L 338.938182 385.970641 
L 339.126211 385.396364 
L 340.564495 381.003636 
L 342.002769 376.610909 
L 342.545455 374.953453 
L 343.441039 372.218182 
L 344.879318 367.825455 
L 346.152727 363.936265 
L 346.317596 363.432727 
L 347.755867 359.04 
L 349.194146 354.647273 
L 349.76 352.919056 
L 350.632414 350.254545 
L 352.070681 345.861818 
L 353.367273 341.901793 
L 353.508949 341.469091 
L 354.947232 337.076364 
L 356.385513 332.683636 
L 356.974545 330.884623 
L 357.823776 328.290909 
L 359.26205 323.898182 
L 360.581818 319.867418 
L 360.700334 319.505455 
L 362.138604 315.112727 
L 363.576885 310.72 
L 364.189091 308.850223 
L 365.015158 306.327273 
L 366.453419 301.934545 
L 367.796364 297.832997 
L 367.891702 297.541818 
L 369.329986 293.149091 
L 370.768252 288.756364 
L 371.403636 286.815801 
L 372.206529 284.363636 
L 373.644796 279.970909 
L 375.010909 275.798577 
L 375.083071 275.578182 
L 376.521342 271.185455 
L 377.563349 266.792727 
L 377.452937 262.4 
L 376.490367 258.007273 
L 375.010909 255.267173 
L 374.118611 253.614545 
L 371.746878 249.221818 
L 371.403636 248.586098 
L 369.375129 244.829091 
L 367.796364 241.90504 
L 367.005585 240.436364 
L 364.654895 236.043636 
L 364.189091 235.170993 
L 362.310121 231.650909 
L 360.581818 228.413088 
L 359.965346 227.258182 
L 357.620552 222.865455 
L 356.974545 221.655219 
L 355.275777 218.472727 
L 353.367273 214.897343 
L 352.930986 214.08 
L 350.586216 209.687273 
L 349.76 208.139433 
L 348.241442 205.294545 
L 346.152727 201.381535 
L 345.89666 200.901818 
L 343.551879 196.509091 
L 342.545455 194.623642 
L 341.207104 192.116364 
L 338.938182 187.865746 
L 338.86232 187.723636 
L 336.513095 183.330909 
L 335.330909 181.139737 
L 334.14376 178.938182 
L 331.77313 174.545455 
L 331.723636 174.453744 
L 329.265258 170.152727 
L 328.116364 168.91084 
L 324.509091 166.927718 
L 322.385043 165.76 
L 320.901818 164.944579 
L 317.294545 162.968521 
L 314.346254 161.367273 
L 313.687273 161.009372 
L 310.08 159.050219 
L 306.472727 157.091066 
L 306.258185 156.974545 
L 302.865455 155.131918 
L 299.258182 153.172779 
L 298.170081 152.581818 
L 295.650909 151.213621 
L 292.043636 149.254467 
L 290.082038 148.189091 
L 288.436364 147.295305 
L 284.829091 145.336154 
L 281.993942 143.796364 
L 281.221818 143.377016 
L 277.614545 141.417863 
L 274.007273 139.45871 
L 273.905869 139.403636 
L 270.4 137.499557 
L 266.792727 135.540404 
L 265.8178 135.010909 
L 263.185455 133.581251 
L 259.578182 133.94005 
L 255.970909 134.74027 
L 254.750909 135.010909 
L 252.363636 135.54049 
L 248.756364 136.340714 
L 245.149091 137.140941 
L 241.541818 137.941147 
L 237.934545 138.741369 
L 234.949152 139.403636 
L 234.327273 139.541591 
L 230.72 140.341822 
L 227.112727 141.142046 
L 223.505455 141.942262 
L 219.898182 142.742482 
L 216.290909 143.542703 
L 215.147443 143.796364 
L 212.683636 144.342923 
L 209.076364 145.143143 
L 205.469091 145.943363 
L 201.861818 146.743583 
L 198.254545 147.543803 
L 195.345686 148.189091 
L 194.647273 148.344025 
L 191.04 149.144248 
L 187.432727 149.944472 
L 183.825455 150.744696 
L 180.218182 151.54492 
L 176.610909 152.345144 
L 175.968517 152.581818 
L 173.003636 154.376167 
L 171.172663 156.974545 
L 169.396364 159.495316 
L 168.077261 161.367273 
L 165.789091 164.614445 
L 164.981861 165.76 
L 162.181818 169.733607 
L 161.886478 170.152727 
L 158.791078 174.545455 
L 158.574545 174.936858 
L 156.91596 178.938182 
L 155.418651 183.330909 
L 154.967273 184.655122 
L 153.921326 187.723636 
L 152.424008 192.116364 
L 151.36 195.23789 
L 150.926696 196.509091 
L 149.429381 200.901818 
L 147.932066 205.294545 
L 147.752727 205.820678 
L 146.434751 209.687273 
L 144.937427 214.08 
L 144.145455 216.403438 
L 143.44011 218.472727 
L 141.942797 222.865455 
L 140.538182 226.9862 
L 140.445473 227.258182 
L 138.948153 231.650909 
L 137.450852 236.043636 
L 136.930909 237.569003 
L 135.953526 240.436364 
L 134.456198 244.829091 
L 133.323636 248.151739 
L 132.958888 249.221818 
L 131.466669 253.614545 
L 130.002013 258.007273 
L 129.716364 258.867782 
L 128.543836 262.4 
L 127.085663 266.792727 
L 126.109091 269.734664 
L 125.627502 271.185455 
L 124.169323 275.578182 
L 122.711146 279.970909 
L 122.501818 280.601505 
L 121.252975 284.363636 
L 119.794792 288.756364 
L 118.894545 291.468354 
L 118.336627 293.149091 
L 116.878326 297.541818 
L 116.094375 301.934545 
L 116.754283 306.327273 
L 117.414194 310.72 
L 118.074108 315.112727 
L 118.734023 319.505455 
L 118.894545 320.127072 
L 119.958979 323.898182 
L 122.501818 328.112144 
L 122.609691 328.290909 
L 125.260398 332.683636 
L 126.109091 334.090082 
L 127.911099 337.076364 
L 129.716364 340.068028 
L 130.561811 341.469091 
L 133.212518 345.861818 
L 133.323636 346.045963 
L 135.863232 350.254545 
L 136.930909 352.023885 
L 138.513937 354.647273 
L 140.538182 358.001816 
L 141.164657 359.04 
L 143.815345 363.432727 
L 144.145455 363.979781 
L 146.466068 367.825455 
L 147.752727 369.957688 
L 149.11677 372.218182 
L 151.36 375.935649 
L 151.767473 376.610909 
L 154.418181 381.003636 
L 154.967273 381.913583 
L 157.068898 385.396364 
L 158.574545 387.891509 
L 159.719601 389.789091 
L 162.181818 393.869451 
L 162.371539 394.181818 
L 165.045115 398.574545 
L 165.789091 399.793846 
L 167.728471 402.967273 
L 169.396364 405.696472 
L 170.41299 407.36 
L 173.003636 411.599095 
L 173.200843 411.752727 
L 176.610909 413.402645 
L 180.218182 414.939933 
L 183.046944 416.145455 
L 183.825455 416.477231 
L 187.432727 418.01453 
L 191.04 419.551817 
L 193.354515 420.538182 
L 194.647273 421.08911 
L 198.254545 422.626403 
L 201.861818 424.163685 
L 203.662118 424.930909 
L 205.469091 425.700978 
L 209.076364 427.238271 
L 212.683636 428.775555 
L 213.969711 429.323636 
L 216.290909 430.312857 
L 219.898182 431.850156 
L 223.505455 433.387443 
L 224.275442 433.716364 
L 227.112727 434.933188 
L 230.72 436.496324 
L 234.327273 438.059461 
L 234.542452 438.109091 
z
M 233.618844 394.181818 
L 230.72 392.946434 
L 227.112727 391.40914 
L 223.505455 389.871858 
L 223.311242 389.789091 
L 219.898182 388.334559 
L 216.290909 386.797266 
L 213.003665 385.396364 
L 212.683636 385.259979 
L 209.076364 383.722686 
L 205.469091 382.185393 
L 202.696068 381.003636 
L 201.861818 380.64811 
L 198.254545 379.110813 
L 194.647273 376.864038 
L 194.440882 376.610909 
L 191.75636 372.218182 
L 191.04 371.045994 
L 189.071833 367.825455 
L 187.432727 365.143361 
L 186.387309 363.432727 
L 183.825455 359.240728 
L 183.702784 359.04 
L 181.018261 354.647273 
L 180.218182 353.338087 
L 178.333748 350.254545 
L 176.610909 347.435444 
L 175.649219 345.861818 
L 173.003636 341.532793 
L 172.964975 341.469091 
L 170.304237 337.076364 
L 169.396364 335.57359 
L 167.652475 332.683636 
L 165.789091 329.595657 
L 165.001765 328.290909 
L 162.351051 323.898182 
L 162.181818 323.61773 
L 159.70035 319.505455 
L 158.574545 317.639789 
L 157.049635 315.112727 
L 156.197745 310.72 
L 155.537838 306.327273 
L 154.967273 302.529335 
L 154.877917 301.934545 
L 154.218004 297.541818 
L 154.263966 293.149091 
L 154.967273 291.032374 
L 155.723508 288.756364 
L 157.183051 284.363636 
L 158.574545 280.184553 
L 158.646192 279.970909 
L 160.140584 275.578182 
L 161.637668 271.185455 
L 162.181818 269.589071 
L 163.134993 266.792727 
L 164.632311 262.4 
L 165.789091 259.006314 
L 166.129627 258.007273 
L 167.626944 253.614545 
L 169.124261 249.221818 
L 169.396364 248.423543 
L 170.621579 244.829091 
L 172.1189 240.436364 
L 173.003636 237.84078 
L 173.616216 236.043636 
L 175.113532 231.650909 
L 176.610845 227.258182 
L 176.610909 227.257993 
L 178.108166 222.865455 
L 179.605488 218.472727 
L 180.218182 216.675252 
L 181.102807 214.08 
L 182.653455 209.687273 
L 183.825455 207.516124 
L 185.390924 205.294545 
L 187.432727 202.396984 
L 188.486314 200.901818 
L 191.04 197.277827 
L 191.5817 196.509091 
L 194.647273 192.158685 
L 194.679326 192.116364 
L 198.254545 189.242669 
L 201.861818 188.442446 
L 205.102123 187.723636 
L 205.469091 187.64223 
L 209.076364 186.842013 
L 212.683636 186.041785 
L 216.290909 185.241568 
L 219.898182 184.441344 
L 223.505455 183.641124 
L 224.903858 183.330909 
L 227.112727 182.840904 
L 230.72 182.040681 
L 234.327273 181.240459 
L 237.934545 180.440237 
L 241.541818 179.640015 
L 244.705568 178.938182 
L 245.149091 178.839793 
L 248.756364 178.039577 
L 252.363636 177.23935 
L 255.970909 176.439129 
L 259.578182 176.05352 
L 263.185455 178.012673 
L 264.889548 178.938182 
L 266.792727 179.971815 
L 270.4 181.930974 
L 272.977618 183.330909 
L 274.007273 183.890126 
L 277.614545 185.84928 
L 281.065686 187.723636 
L 281.221818 187.808433 
L 284.829091 189.767581 
L 288.436364 191.726734 
L 289.153769 192.116364 
L 292.043636 193.685876 
L 295.650909 195.64503 
L 297.241846 196.509091 
L 299.258182 197.604191 
L 302.865455 199.563335 
L 305.329938 200.901818 
L 306.472727 201.572289 
L 309.478819 205.294545 
L 310.08 206.420793 
L 311.82361 209.687273 
L 313.687273 213.178682 
L 314.168384 214.08 
L 316.513159 218.472727 
L 317.294545 219.936582 
L 318.857941 222.865455 
L 320.901818 226.694455 
L 321.202729 227.258182 
L 323.5475 231.650909 
L 324.509091 233.452359 
L 325.892281 236.043636 
L 328.116364 240.210245 
L 328.237063 240.436364 
L 330.581838 244.829091 
L 331.723636 246.968145 
L 332.926621 249.221818 
L 335.271397 253.614545 
L 335.330909 253.726035 
L 337.616182 258.007273 
L 338.938182 260.483927 
L 339.960955 262.4 
L 341.527194 266.792727 
L 341.622817 271.185455 
L 341.656778 275.578182 
L 340.262061 279.970909 
L 338.938182 284.014246 
L 338.823784 284.363636 
L 337.385508 288.756364 
L 335.947242 293.149091 
L 335.330909 295.03147 
L 334.508965 297.541818 
L 333.070688 301.934545 
L 331.723636 306.048655 
L 331.632411 306.327273 
L 330.194144 310.72 
L 328.755865 315.112727 
L 328.116364 317.065872 
L 327.317592 319.505455 
L 325.879316 323.898182 
L 324.509091 328.083089 
L 324.441046 328.290909 
L 323.002767 332.683636 
L 321.564497 337.076364 
L 320.901818 339.100288 
L 320.126218 341.469091 
L 318.687943 345.861818 
L 317.294545 350.117485 
L 317.249669 350.254545 
L 315.811394 354.647273 
L 314.373123 359.04 
L 313.687273 361.134703 
L 312.93485 363.432727 
L 311.496571 367.825455 
L 310.08 372.151933 
L 310.053901 372.218182 
L 306.472727 376.320558 
L 305.645108 376.610909 
L 302.865455 377.480791 
L 299.258182 378.609679 
L 295.650909 379.738559 
L 292.043636 380.867448 
L 291.608458 381.003636 
L 288.436364 381.996334 
L 284.829091 383.125218 
L 281.221818 384.254103 
L 277.614545 385.382988 
L 277.571803 385.396364 
L 274.007273 386.511879 
L 270.4 387.640762 
L 266.792727 388.769649 
L 263.535167 389.789091 
L 263.185455 389.898532 
L 259.578182 391.027419 
L 255.970909 392.161616 
L 252.363636 393.30222 
L 249.588128 394.181818 
L 248.756364 394.445416 
L 245.149091 395.588603 
L 241.541818 396.731801 
L 237.934545 396.021019 
L 234.327273 394.483726 
z
" style="fill:#ecd3c5;"/>
   </g>
   <g id="PathCollection_6">
    <path clip-path="url(#pa712425fbd)" d="M 234.327273 394.483726 
L 237.934545 396.021019 
L 241.541818 396.731801 
L 245.149091 395.588603 
L 248.756364 394.445416 
L 249.588128 394.181818 
L 252.363636 393.30222 
L 255.970909 392.161616 
L 259.578182 391.027419 
L 263.185455 389.898532 
L 263.535167 389.789091 
L 266.792727 388.769649 
L 270.4 387.640762 
L 274.007273 386.511879 
L 277.571803 385.396364 
L 277.614545 385.382988 
L 281.221818 384.254103 
L 284.829091 383.125218 
L 288.436364 381.996334 
L 291.608458 381.003636 
L 292.043636 380.867448 
L 295.650909 379.738559 
L 299.258182 378.609679 
L 302.865455 377.480791 
L 305.645108 376.610909 
L 306.472727 376.320558 
L 310.053901 372.218182 
L 310.08 372.151933 
L 311.496571 367.825455 
L 312.93485 363.432727 
L 313.687273 361.134703 
L 314.373123 359.04 
L 315.811394 354.647273 
L 317.249669 350.254545 
L 317.294545 350.117485 
L 318.687943 345.861818 
L 320.126218 341.469091 
L 320.901818 339.100288 
L 321.564497 337.076364 
L 323.002767 332.683636 
L 324.441046 328.290909 
L 324.509091 328.083089 
L 325.879316 323.898182 
L 327.317592 319.505455 
L 328.116364 317.065872 
L 328.755865 315.112727 
L 330.194144 310.72 
L 331.632411 306.327273 
L 331.723636 306.048655 
L 333.070688 301.934545 
L 334.508965 297.541818 
L 335.330909 295.03147 
L 335.947242 293.149091 
L 337.385508 288.756364 
L 338.823784 284.363636 
L 338.938182 284.014246 
L 340.262061 279.970909 
L 341.656778 275.578182 
L 341.622817 271.185455 
L 341.527194 266.792727 
L 339.960955 262.4 
L 338.938182 260.483927 
L 337.616182 258.007273 
L 335.330909 253.726035 
L 335.271397 253.614545 
L 332.926621 249.221818 
L 331.723636 246.968145 
L 330.581838 244.829091 
L 328.237063 240.436364 
L 328.116364 240.210245 
L 325.892281 236.043636 
L 324.509091 233.452359 
L 323.5475 231.650909 
L 321.202729 227.258182 
L 320.901818 226.694455 
L 318.857941 222.865455 
L 317.294545 219.936582 
L 316.513159 218.472727 
L 314.168384 214.08 
L 313.687273 213.178682 
L 311.82361 209.687273 
L 310.08 206.420793 
L 309.478819 205.294545 
L 306.472727 201.572289 
L 305.329938 200.901818 
L 302.865455 199.563335 
L 299.258182 197.604191 
L 297.241846 196.509091 
L 295.650909 195.64503 
L 292.043636 193.685876 
L 289.153769 192.116364 
L 288.436364 191.726734 
L 284.829091 189.767581 
L 281.221818 187.808433 
L 281.065686 187.723636 
L 277.614545 185.84928 
L 274.007273 183.890126 
L 272.977618 183.330909 
L 270.4 181.930974 
L 266.792727 179.971815 
L 264.889548 178.938182 
L 263.185455 178.012673 
L 259.578182 176.05352 
L 255.970909 176.439129 
L 252.363636 177.23935 
L 248.756364 178.039577 
L 245.149091 178.839793 
L 244.705568 178.938182 
L 241.541818 179.640015 
L 237.934545 180.440237 
L 234.327273 181.240459 
L 230.72 182.040681 
L 227.112727 182.840904 
L 224.903858 183.330909 
L 223.505455 183.641124 
L 219.898182 184.441344 
L 216.290909 185.241568 
L 212.683636 186.041785 
L 209.076364 186.842013 
L 205.469091 187.64223 
L 205.102123 187.723636 
L 201.861818 188.442446 
L 198.254545 189.242669 
L 194.679326 192.116364 
L 194.647273 192.158685 
L 191.5817 196.509091 
L 191.04 197.277827 
L 188.486314 200.901818 
L 187.432727 202.396984 
L 185.390924 205.294545 
L 183.825455 207.516124 
L 182.653455 209.687273 
L 181.102807 214.08 
L 180.218182 216.675252 
L 179.605488 218.472727 
L 178.108166 222.865455 
L 176.610909 227.257993 
L 176.610845 227.258182 
L 175.113532 231.650909 
L 173.616216 236.043636 
L 173.003636 237.84078 
L 172.1189 240.436364 
L 170.621579 244.829091 
L 169.396364 248.423543 
L 169.124261 249.221818 
L 167.626944 253.614545 
L 166.129627 258.007273 
L 165.789091 259.006314 
L 164.632311 262.4 
L 163.134993 266.792727 
L 162.181818 269.589071 
L 161.637668 271.185455 
L 160.140584 275.578182 
L 158.646192 279.970909 
L 158.574545 280.184553 
L 157.183051 284.363636 
L 155.723508 288.756364 
L 154.967273 291.032374 
L 154.263966 293.149091 
L 154.218004 297.541818 
L 154.877917 301.934545 
L 154.967273 302.529335 
L 155.537838 306.327273 
L 156.197745 310.72 
L 157.049635 315.112727 
L 158.574545 317.639789 
L 159.70035 319.505455 
L 162.181818 323.61773 
L 162.351051 323.898182 
L 165.001765 328.290909 
L 165.789091 329.595657 
L 167.652475 332.683636 
L 169.396364 335.57359 
L 170.304237 337.076364 
L 172.964975 341.469091 
L 173.003636 341.532793 
L 175.649219 345.861818 
L 176.610909 347.435444 
L 178.333748 350.254545 
L 180.218182 353.338087 
L 181.018261 354.647273 
L 183.702784 359.04 
L 183.825455 359.240728 
L 186.387309 363.432727 
L 187.432727 365.143361 
L 189.071833 367.825455 
L 191.04 371.045994 
L 191.75636 372.218182 
L 194.440882 376.610909 
L 194.647273 376.864038 
L 198.254545 379.110813 
L 201.861818 380.64811 
L 202.696068 381.003636 
L 205.469091 382.185393 
L 209.076364 383.722686 
L 212.683636 385.259979 
L 213.003665 385.396364 
L 216.290909 386.797266 
L 219.898182 388.334559 
L 223.311242 389.789091 
L 223.505455 389.871858 
L 227.112727 391.40914 
L 230.72 392.946434 
L 233.618844 394.181818 
z
M 244.856547 354.647273 
L 241.541818 354.042724 
L 237.934545 352.505433 
L 234.327273 350.968141 
L 232.652813 350.254545 
L 230.72 349.430849 
L 227.112727 347.893561 
L 223.505455 346.35627 
L 222.345217 345.861818 
L 219.898182 344.818977 
L 216.290909 342.199885 
L 215.784239 341.469091 
L 213.099716 337.076364 
L 212.683636 336.395526 
L 210.415196 332.683636 
L 209.076364 330.492883 
L 207.730673 328.290909 
L 205.469091 324.590237 
L 205.046156 323.898182 
L 202.240906 319.505455 
L 201.861818 318.93399 
L 199.326941 315.112727 
L 198.254545 313.496121 
L 196.412973 310.72 
L 194.647273 307.894891 
L 193.759794 306.327273 
L 193.07358 301.934545 
L 192.387357 297.541818 
L 191.70114 293.149091 
L 191.04 288.807827 
L 191.032777 288.756364 
L 191.04 288.736175 
L 192.604338 284.363636 
L 194.175896 279.970909 
L 194.647273 278.653351 
L 195.74746 275.578182 
L 197.312735 271.185455 
L 198.254545 268.570522 
L 198.890578 266.792727 
L 200.431313 262.4 
L 201.861818 258.487704 
L 202.033699 258.007273 
L 203.535482 253.614545 
L 205.150542 249.221818 
L 205.469091 248.33783 
L 206.635795 244.829091 
L 208.91057 240.436364 
L 209.076364 240.179496 
L 211.990748 236.043636 
L 212.683636 235.060347 
L 215.08615 231.650909 
L 216.290909 229.941216 
L 218.432395 227.258182 
L 219.898182 226.14021 
L 223.505455 225.339989 
L 227.112727 224.539771 
L 230.72 223.739551 
L 234.327273 222.938194 
L 234.660285 222.865455 
L 237.934545 222.139105 
L 241.541818 221.338884 
L 245.149091 220.538663 
L 248.756364 219.738441 
L 252.363636 218.93822 
L 255.970909 218.525784 
L 259.578182 220.484937 
L 263.185455 222.444088 
L 263.961081 222.865455 
L 266.792727 224.405677 
L 270.4 226.369502 
L 272.032378 227.258182 
L 274.007273 228.259261 
L 277.614545 230.269044 
L 280.124116 231.650909 
L 281.221818 232.167736 
L 284.829091 233.957731 
L 287.024622 236.043636 
L 288.436364 237.950014 
L 289.909414 240.436364 
L 292.043636 244.038707 
L 292.511902 244.829091 
L 295.114392 249.221818 
L 295.650909 250.127404 
L 297.716876 253.614545 
L 299.258182 256.216107 
L 300.319365 258.007273 
L 302.865455 262.30481 
L 302.92185 262.4 
L 305.524345 266.792727 
L 306.472727 268.559811 
L 307.768966 271.185455 
L 307.910727 275.578182 
L 308.05249 279.970909 
L 307.522595 284.363636 
L 306.472727 287.32108 
L 305.963213 288.756364 
L 304.403824 293.149091 
L 302.865455 297.48262 
L 302.84444 297.541818 
L 301.285054 301.934545 
L 299.725669 306.327273 
L 299.258182 307.644167 
L 298.166285 310.72 
L 296.606905 315.112727 
L 295.650909 317.805728 
L 295.047518 319.505455 
L 293.488136 323.898182 
L 292.043636 327.967272 
L 291.928748 328.290909 
L 290.369367 332.683636 
L 288.809986 337.076364 
L 288.436364 337.980845 
L 285.397169 341.469091 
L 284.829091 341.882255 
L 281.221818 343.680791 
L 277.614545 344.657395 
L 274.007273 345.608299 
L 273.05173 345.861818 
L 270.4 346.71672 
L 266.792727 347.890745 
L 263.185455 349.028399 
L 259.578182 350.131343 
L 259.168286 350.254545 
L 255.970909 351.267836 
L 252.363636 352.411031 
L 248.756364 353.554222 
L 245.307296 354.647273 
L 245.149091 354.69741 
z
" style="fill:#f7b093;"/>
   </g>
   <g id="PathCollection_7">
    <path clip-path="url(#pa712425fbd)" d="M 245.149091 354.69741 
L 245.307296 354.647273 
L 248.756364 353.554222 
L 252.363636 352.411031 
L 255.970909 351.267836 
L 259.168286 350.254545 
L 259.578182 350.131343 
L 263.185455 349.028399 
L 266.792727 347.890745 
L 270.4 346.71672 
L 273.05173 345.861818 
L 274.007273 345.608299 
L 277.614545 344.657395 
L 281.221818 343.680791 
L 284.829091 341.882255 
L 285.397169 341.469091 
L 288.436364 337.980845 
L 288.809986 337.076364 
L 290.369367 332.683636 
L 291.928748 328.290909 
L 292.043636 327.967272 
L 293.488136 323.898182 
L 295.047518 319.505455 
L 295.650909 317.805728 
L 296.606905 315.112727 
L 298.166285 310.72 
L 299.258182 307.644167 
L 299.725669 306.327273 
L 301.285054 301.934545 
L 302.84444 297.541818 
L 302.865455 297.48262 
L 304.403824 293.149091 
L 305.963213 288.756364 
L 306.472727 287.32108 
L 307.522595 284.363636 
L 308.05249 279.970909 
L 307.910727 275.578182 
L 307.768966 271.185455 
L 306.472727 268.559811 
L 305.524345 266.792727 
L 302.92185 262.4 
L 302.865455 262.30481 
L 300.319365 258.007273 
L 299.258182 256.216107 
L 297.716876 253.614545 
L 295.650909 250.127404 
L 295.114392 249.221818 
L 292.511902 244.829091 
L 292.043636 244.038707 
L 289.909414 240.436364 
L 288.436364 237.950014 
L 287.024622 236.043636 
L 284.829091 233.957731 
L 281.221818 232.167736 
L 280.124116 231.650909 
L 277.614545 230.269044 
L 274.007273 228.259261 
L 272.032378 227.258182 
L 270.4 226.369502 
L 266.792727 224.405677 
L 263.961081 222.865455 
L 263.185455 222.444088 
L 259.578182 220.484937 
L 255.970909 218.525784 
L 252.363636 218.93822 
L 248.756364 219.738441 
L 245.149091 220.538663 
L 241.541818 221.338884 
L 237.934545 222.139105 
L 234.660285 222.865455 
L 234.327273 222.938194 
L 230.72 223.739551 
L 227.112727 224.539771 
L 223.505455 225.339989 
L 219.898182 226.14021 
L 218.432395 227.258182 
L 216.290909 229.941216 
L 215.08615 231.650909 
L 212.683636 235.060347 
L 211.990748 236.043636 
L 209.076364 240.179496 
L 208.91057 240.436364 
L 206.635795 244.829091 
L 205.469091 248.33783 
L 205.150542 249.221818 
L 203.535482 253.614545 
L 202.033699 258.007273 
L 201.861818 258.487704 
L 200.431313 262.4 
L 198.890578 266.792727 
L 198.254545 268.570522 
L 197.312735 271.185455 
L 195.74746 275.578182 
L 194.647273 278.653351 
L 194.175896 279.970909 
L 192.604338 284.363636 
L 191.04 288.736175 
L 191.032777 288.756364 
L 191.04 288.807827 
L 191.70114 293.149091 
L 192.387357 297.541818 
L 193.07358 301.934545 
L 193.759794 306.327273 
L 194.647273 307.894891 
L 196.412973 310.72 
L 198.254545 313.496121 
L 199.326941 315.112727 
L 201.861818 318.93399 
L 202.240906 319.505455 
L 205.046156 323.898182 
L 205.469091 324.590237 
L 207.730673 328.290909 
L 209.076364 330.492883 
L 210.415196 332.683636 
L 212.683636 336.395526 
L 213.099716 337.076364 
L 215.784239 341.469091 
L 216.290909 342.199885 
L 219.898182 344.818977 
L 222.345217 345.861818 
L 223.505455 346.35627 
L 227.112727 347.893561 
L 230.72 349.430849 
L 232.652813 350.254545 
L 234.327273 350.968141 
L 237.934545 352.505433 
L 241.541818 354.042724 
L 244.856547 354.647273 
z
M 236.330464 315.112727 
L 234.327273 313.297663 
L 232.617351 310.72 
L 230.72 307.859797 
L 229.703382 306.327273 
L 227.112727 302.42193 
L 226.789415 301.934545 
L 225.181497 297.541818 
L 224.495279 293.149091 
L 223.80906 288.756364 
L 223.505455 286.812874 
L 223.122843 284.363636 
L 223.505455 283.120004 
L 224.398317 279.970909 
L 225.969879 275.578182 
L 227.112727 272.383764 
L 227.58561 271.185455 
L 230.142448 266.792727 
L 230.72 266.01065 
L 233.386408 262.4 
L 234.327273 261.125951 
L 236.630367 258.007273 
L 237.934545 256.8974 
L 241.541818 256.093114 
L 245.149091 255.350599 
L 248.756364 254.608083 
L 252.363636 253.875356 
L 255.970909 255.607838 
L 259.578182 257.426839 
L 260.729242 258.007273 
L 263.185455 259.245843 
L 266.792727 261.064847 
L 268.747923 262.4 
L 270.4 264.175911 
L 271.950344 266.792727 
L 274.007273 270.264606 
L 274.552833 271.185455 
L 277.006261 275.578182 
L 277.168956 279.970909 
L 277.310716 284.363636 
L 277.452475 288.756364 
L 276.036642 293.149091 
L 274.477258 297.541818 
L 274.007273 298.86575 
L 272.917873 301.934545 
L 271.358488 306.327273 
L 270.4 309.027298 
L 269.211091 310.72 
L 266.792727 312.529637 
L 263.185455 315.061731 
L 263.070622 315.112727 
L 259.578182 316.33789 
L 255.970909 317.322716 
L 252.363636 318.307546 
L 248.756364 319.29237 
L 245.149091 319.051481 
L 241.541818 317.55006 
L 237.934545 316.048637 
z
" style="fill:#eb7d62;"/>
   </g>
   <g id="PathCollection_8">
    <path clip-path="url(#pa712425fbd)" d="M 237.934545 316.048637 
L 241.541818 317.55006 
L 245.149091 319.051481 
L 248.756364 319.29237 
L 252.363636 318.307546 
L 255.970909 317.322716 
L 259.578182 316.33789 
L 263.070622 315.112727 
L 263.185455 315.061731 
L 266.792727 312.529637 
L 269.211091 310.72 
L 270.4 309.027298 
L 271.358488 306.327273 
L 272.917873 301.934545 
L 274.007273 298.86575 
L 274.477258 297.541818 
L 276.036642 293.149091 
L 277.452475 288.756364 
L 277.310716 284.363636 
L 277.168956 279.970909 
L 277.006261 275.578182 
L 274.552833 271.185455 
L 274.007273 270.264606 
L 271.950344 266.792727 
L 270.4 264.175911 
L 268.747923 262.4 
L 266.792727 261.064847 
L 263.185455 259.245843 
L 260.729242 258.007273 
L 259.578182 257.426839 
L 255.970909 255.607838 
L 252.363636 253.875356 
L 248.756364 254.608083 
L 245.149091 255.350599 
L 241.541818 256.093114 
L 237.934545 256.8974 
L 236.630367 258.007273 
L 234.327273 261.125951 
L 233.386408 262.4 
L 230.72 266.01065 
L 230.142448 266.792727 
L 227.58561 271.185455 
L 227.112727 272.383764 
L 225.969879 275.578182 
L 224.398317 279.970909 
L 223.505455 283.120004 
L 223.122843 284.363636 
L 223.505455 286.812874 
L 223.80906 288.756364 
L 224.495279 293.149091 
L 225.181497 297.541818 
L 226.789415 301.934545 
L 227.112727 302.42193 
L 229.703382 306.327273 
L 230.72 307.859797 
L 232.617351 310.72 
L 234.327273 313.297663 
L 236.330464 315.112727 
z
" style="fill:#ca3b37;"/>
   </g>
   <g id="matplotlib.axis_1">
    <g id="xtick_1">
     <g id="line2d_1">
      <defs>
       <path d="M 0 0 
L 0 3.5 
" id="m412fa9dbca" style="stroke:#000000;stroke-width:0.8;"/>
      </defs>
      <g>
       <use style="stroke:#000000;stroke-width:0.8;" x="107.712" xlink:href="#m412fa9dbca" y="504"/>
      </g>
     </g>
     <g id="text_1">
      <!-- 4 -->
      <defs>
       <path d="M 10.59375 35.5 
L 73.1875 35.5 
L 73.1875 27.203125 
L 10.59375 27.203125 
z
" id="DejaVuSans-2212"/>
       <path d="M 37.796875 64.3125 
L 12.890625 25.390625 
L 37.796875 25.390625 
z
M 35.203125 72.90625 
L 47.609375 72.90625 
L 47.609375 25.390625 
L 58.015625 25.390625 
L 58.015625 17.1875 
L 47.609375 17.1875 
L 47.609375 0 
L 37.796875 0 
L 37.796875 17.1875 
L 4.890625 17.1875 
L 4.890625 26.703125 
z
" id="DejaVuSans-34"/>
      </defs>
      <g transform="translate(100.340906 518.598438)scale(0.1 -0.1)">
       <use xlink:href="#DejaVuSans-2212"/>
       <use x="83.789062" xlink:href="#DejaVuSans-34"/>
      </g>
     </g>
    </g>
    <g id="xtick_2">
     <g id="line2d_2">
      <g>
       <use style="stroke:#000000;stroke-width:0.8;" x="179.136" xlink:href="#m412fa9dbca" y="504"/>
      </g>
     </g>
     <g id="text_2">
      <!-- 2 -->
      <defs>
       <path d="M 19.1875 8.296875 
L 53.609375 8.296875 
L 53.609375 0 
L 7.328125 0 
L 7.328125 8.296875 
Q 12.9375 14.109375 22.625 23.890625 
Q 32.328125 33.6875 34.8125 36.53125 
Q 39.546875 41.84375 41.421875 45.53125 
Q 43.3125 49.21875 43.3125 52.78125 
Q 43.3125 58.59375 39.234375 62.25 
Q 35.15625 65.921875 28.609375 65.921875 
Q 23.96875 65.921875 18.8125 64.3125 
Q 13.671875 62.703125 7.8125 59.421875 
L 7.8125 69.390625 
Q 13.765625 71.78125 18.9375 73 
Q 24.125 74.21875 28.421875 74.21875 
Q 39.75 74.21875 46.484375 68.546875 
Q 53.21875 62.890625 53.21875 53.421875 
Q 53.21875 48.921875 51.53125 44.890625 
Q 49.859375 40.875 45.40625 35.40625 
Q 44.1875 33.984375 37.640625 27.21875 
Q 31.109375 20.453125 19.1875 8.296875 
z
" id="DejaVuSans-32"/>
      </defs>
      <g transform="translate(171.764906 518.598438)scale(0.1 -0.1)">
       <use xlink:href="#DejaVuSans-2212"/>
       <use x="83.789062" xlink:href="#DejaVuSans-32"/>
      </g>
     </g>
    </g>
    <g id="xtick_3">
     <g id="line2d_3">
      <g>
       <use style="stroke:#000000;stroke-width:0.8;" x="250.56" xlink:href="#m412fa9dbca" y="504"/>
      </g>
     </g>
     <g id="text_3">
      <!-- 0 -->
      <defs>
       <path d="M 31.78125 66.40625 
Q 24.171875 66.40625 20.328125 58.90625 
Q 16.5 51.421875 16.5 36.375 
Q 16.5 21.390625 20.328125 13.890625 
Q 24.171875 6.390625 31.78125 6.390625 
Q 39.453125 6.390625 43.28125 13.890625 
Q 47.125 21.390625 47.125 36.375 
Q 47.125 51.421875 43.28125 58.90625 
Q 39.453125 66.40625 31.78125 66.40625 
z
M 31.78125 74.21875 
Q 44.046875 74.21875 50.515625 64.515625 
Q 56.984375 54.828125 56.984375 36.375 
Q 56.984375 17.96875 50.515625 8.265625 
Q 44.046875 -1.421875 31.78125 -1.421875 
Q 19.53125 -1.421875 13.0625 8.265625 
Q 6.59375 17.96875 6.59375 36.375 
Q 6.59375 54.828125 13.0625 64.515625 
Q 19.53125 74.21875 31.78125 74.21875 
z
" id="DejaVuSans-30"/>
      </defs>
      <g transform="translate(247.37875 518.598438)scale(0.1 -0.1)">
       <use xlink:href="#DejaVuSans-30"/>
      </g>
     </g>
    </g>
    <g id="xtick_4">
     <g id="line2d_4">
      <g>
       <use style="stroke:#000000;stroke-width:0.8;" x="321.984" xlink:href="#m412fa9dbca" y="504"/>
      </g>
     </g>
     <g id="text_4">
      <!-- 2 -->
      <g transform="translate(318.80275 518.598438)scale(0.1 -0.1)">
       <use xlink:href="#DejaVuSans-32"/>
      </g>
     </g>
    </g>
    <g id="xtick_5">
     <g id="line2d_5">
      <g>
       <use style="stroke:#000000;stroke-width:0.8;" x="393.408" xlink:href="#m412fa9dbca" y="504"/>
      </g>
     </g>
     <g id="text_5">
      <!-- 4 -->
      <g transform="translate(390.22675 518.598438)scale(0.1 -0.1)">
       <use xlink:href="#DejaVuSans-34"/>
      </g>
     </g>
    </g>
   </g>
   <g id="matplotlib.axis_2">
    <g id="ytick_1">
     <g id="line2d_6">
      <defs>
       <path d="M 0 0 
L -3.5 0 
" id="m92f2019f36" style="stroke:#000000;stroke-width:0.8;"/>
      </defs>
      <g>
       <use style="stroke:#000000;stroke-width:0.8;" x="72" xlink:href="#m92f2019f36" y="460.512"/>
      </g>
     </g>
     <g id="text_6">
      <!-- 4 -->
      <g transform="translate(50.257812 464.311219)scale(0.1 -0.1)">
       <use xlink:href="#DejaVuSans-2212"/>
       <use x="83.789062" xlink:href="#DejaVuSans-34"/>
      </g>
     </g>
    </g>
    <g id="ytick_2">
     <g id="line2d_7">
      <g>
       <use style="stroke:#000000;stroke-width:0.8;" x="72" xlink:href="#m92f2019f36" y="373.536"/>
      </g>
     </g>
     <g id="text_7">
      <!-- 2 -->
      <g transform="translate(50.257812 377.335219)scale(0.1 -0.1)">
       <use xlink:href="#DejaVuSans-2212"/>
       <use x="83.789062" xlink:href="#DejaVuSans-32"/>
      </g>
     </g>
    </g>
    <g id="ytick_3">
     <g id="line2d_8">
      <g>
       <use style="stroke:#000000;stroke-width:0.8;" x="72" xlink:href="#m92f2019f36" y="286.56"/>
      </g>
     </g>
     <g id="text_8">
      <!-- 0 -->
      <g transform="translate(58.6375 290.359219)scale(0.1 -0.1)">
       <use xlink:href="#DejaVuSans-30"/>
      </g>
     </g>
    </g>
    <g id="ytick_4">
     <g id="line2d_9">
      <g>
       <use style="stroke:#000000;stroke-width:0.8;" x="72" xlink:href="#m92f2019f36" y="199.584"/>
      </g>
     </g>
     <g id="text_9">
      <!-- 2 -->
      <g transform="translate(58.6375 203.383219)scale(0.1 -0.1)">
       <use xlink:href="#DejaVuSans-32"/>
      </g>
     </g>
    </g>
    <g id="ytick_5">
     <g id="line2d_10">
      <g>
       <use style="stroke:#000000;stroke-width:0.8;" x="72" xlink:href="#m92f2019f36" y="112.608"/>
      </g>
     </g>
     <g id="text_10">
      <!-- 4 -->
      <g transform="translate(58.6375 116.407219)scale(0.1 -0.1)">
       <use xlink:href="#DejaVuSans-34"/>
      </g>
     </g>
    </g>
   </g>
   <g id="patch_3">
    <path d="M 72 504 
L 72 69.12 
" style="fill:none;stroke:#000000;stroke-linecap:square;stroke-linejoin:miter;stroke-width:0.8;"/>
   </g>
   <g id="patch_4">
    <path d="M 429.12 504 
L 429.12 69.12 
" style="fill:none;stroke:#000000;stroke-linecap:square;stroke-linejoin:miter;stroke-width:0.8;"/>
   </g>
   <g id="patch_5">
    <path d="M 72 504 
L 429.12 504 
" style="fill:none;stroke:#000000;stroke-linecap:square;stroke-linejoin:miter;stroke-width:0.8;"/>
   </g>
   <g id="patch_6">
    <path d="M 72 69.12 
L 429.12 69.12 
" style="fill:none;stroke:#000000;stroke-linecap:square;stroke-linejoin:miter;stroke-width:0.8;"/>
   </g>
  </g>
  <g id="axes_2">
   <g id="patch_7">
    <path clip-path="url(#paf6f4b4006)" d="M 451.44 504 
L 451.44 449.64 
L 451.44 123.48 
L 451.44 69.12 
L 473.184 69.12 
L 473.184 123.48 
L 473.184 449.64 
L 473.184 504 
z
" style="fill:#ffffff;stroke:#ffffff;stroke-linejoin:miter;stroke-width:0.01;"/>
   </g>
   <g id="QuadMesh_1">
    <path clip-path="url(#paf6f4b4006)" d="M 451.44 504 
L 473.184 504 
L 473.184 449.64 
L 451.44 449.64 
L 451.44 504 
" style="fill:#4e68d8;"/>
    <path clip-path="url(#paf6f4b4006)" d="M 451.44 449.64 
L 473.184 449.64 
L 473.184 395.28 
L 451.44 395.28 
L 451.44 449.64 
" style="fill:#779af7;"/>
    <path clip-path="url(#paf6f4b4006)" d="M 451.44 395.28 
L 473.184 395.28 
L 473.184 340.92 
L 451.44 340.92 
L 451.44 395.28 
" style="fill:#a3c2fe;"/>
    <path clip-path="url(#paf6f4b4006)" d="M 451.44 340.92 
L 473.184 340.92 
L 473.184 286.56 
L 451.44 286.56 
L 451.44 340.92 
" style="fill:#ccd9ed;"/>
    <path clip-path="url(#paf6f4b4006)" d="M 451.44 286.56 
L 473.184 286.56 
L 473.184 232.2 
L 451.44 232.2 
L 451.44 286.56 
" style="fill:#ecd3c5;"/>
    <path clip-path="url(#paf6f4b4006)" d="M 451.44 232.2 
L 473.184 232.2 
L 473.184 177.84 
L 451.44 177.84 
L 451.44 232.2 
" style="fill:#f7b093;"/>
    <path clip-path="url(#paf6f4b4006)" d="M 451.44 177.84 
L 473.184 177.84 
L 473.184 123.48 
L 451.44 123.48 
L 451.44 177.84 
" style="fill:#eb7d62;"/>
    <path clip-path="url(#paf6f4b4006)" d="M 451.44 123.48 
L 473.184 123.48 
L 473.184 69.12 
L 451.44 69.12 
L 451.44 123.48 
" style="fill:#ca3b37;"/>
   </g>
   <g id="matplotlib.axis_3"/>
   <g id="matplotlib.axis_4">
    <g id="ytick_6">
     <g id="line2d_11">
      <defs>
       <path d="M 0 0 
L 3.5 0 
" id="md6aa545205" style="stroke:#000000;stroke-width:0.8;"/>
      </defs>
      <g>
       <use style="stroke:#000000;stroke-width:0.8;" x="473.184" xlink:href="#md6aa545205" y="504"/>
      </g>
     </g>
     <g id="text_11">
      <!-- 210 -->
      <defs>
       <path d="M 12.40625 8.296875 
L 28.515625 8.296875 
L 28.515625 63.921875 
L 10.984375 60.40625 
L 10.984375 69.390625 
L 28.421875 72.90625 
L 38.28125 72.90625 
L 38.28125 8.296875 
L 54.390625 8.296875 
L 54.390625 0 
L 12.40625 0 
z
" id="DejaVuSans-31"/>
      </defs>
      <g transform="translate(480.184 507.799219)scale(0.1 -0.1)">
       <use xlink:href="#DejaVuSans-2212"/>
       <use x="83.789062" xlink:href="#DejaVuSans-32"/>
       <use x="147.412109" xlink:href="#DejaVuSans-31"/>
       <use x="211.035156" xlink:href="#DejaVuSans-30"/>
      </g>
     </g>
    </g>
    <g id="ytick_7">
     <g id="line2d_12">
      <g>
       <use style="stroke:#000000;stroke-width:0.8;" x="473.184" xlink:href="#md6aa545205" y="449.64"/>
      </g>
     </g>
     <g id="text_12">
      <!-- 180 -->
      <defs>
       <path d="M 31.78125 34.625 
Q 24.75 34.625 20.71875 30.859375 
Q 16.703125 27.09375 16.703125 20.515625 
Q 16.703125 13.921875 20.71875 10.15625 
Q 24.75 6.390625 31.78125 6.390625 
Q 38.8125 6.390625 42.859375 10.171875 
Q 46.921875 13.96875 46.921875 20.515625 
Q 46.921875 27.09375 42.890625 30.859375 
Q 38.875 34.625 31.78125 34.625 
z
M 21.921875 38.8125 
Q 15.578125 40.375 12.03125 44.71875 
Q 8.5 49.078125 8.5 55.328125 
Q 8.5 64.0625 14.71875 69.140625 
Q 20.953125 74.21875 31.78125 74.21875 
Q 42.671875 74.21875 48.875 69.140625 
Q 55.078125 64.0625 55.078125 55.328125 
Q 55.078125 49.078125 51.53125 44.71875 
Q 48 40.375 41.703125 38.8125 
Q 48.828125 37.15625 52.796875 32.3125 
Q 56.78125 27.484375 56.78125 20.515625 
Q 56.78125 9.90625 50.3125 4.234375 
Q 43.84375 -1.421875 31.78125 -1.421875 
Q 19.734375 -1.421875 13.25 4.234375 
Q 6.78125 9.90625 6.78125 20.515625 
Q 6.78125 27.484375 10.78125 32.3125 
Q 14.796875 37.15625 21.921875 38.8125 
z
M 18.3125 54.390625 
Q 18.3125 48.734375 21.84375 45.5625 
Q 25.390625 42.390625 31.78125 42.390625 
Q 38.140625 42.390625 41.71875 45.5625 
Q 45.3125 48.734375 45.3125 54.390625 
Q 45.3125 60.0625 41.71875 63.234375 
Q 38.140625 66.40625 31.78125 66.40625 
Q 25.390625 66.40625 21.84375 63.234375 
Q 18.3125 60.0625 18.3125 54.390625 
z
" id="DejaVuSans-38"/>
      </defs>
      <g transform="translate(480.184 453.439219)scale(0.1 -0.1)">
       <use xlink:href="#DejaVuSans-2212"/>
       <use x="83.789062" xlink:href="#DejaVuSans-31"/>
       <use x="147.412109" xlink:href="#DejaVuSans-38"/>
       <use x="211.035156" xlink:href="#DejaVuSans-30"/>
      </g>
     </g>
    </g>
    <g id="ytick_8">
     <g id="line2d_13">
      <g>
       <use style="stroke:#000000;stroke-width:0.8;" x="473.184" xlink:href="#md6aa545205" y="395.28"/>
      </g>
     </g>
     <g id="text_13">
      <!-- 150 -->
      <defs>
       <path d="M 10.796875 72.90625 
L 49.515625 72.90625 
L 49.515625 64.59375 
L 19.828125 64.59375 
L 19.828125 46.734375 
Q 21.96875 47.46875 24.109375 47.828125 
Q 26.265625 48.1875 28.421875 48.1875 
Q 40.625 48.1875 47.75 41.5 
Q 54.890625 34.8125 54.890625 23.390625 
Q 54.890625 11.625 47.5625 5.09375 
Q 40.234375 -1.421875 26.90625 -1.421875 
Q 22.3125 -1.421875 17.546875 -0.640625 
Q 12.796875 0.140625 7.71875 1.703125 
L 7.71875 11.625 
Q 12.109375 9.234375 16.796875 8.0625 
Q 21.484375 6.890625 26.703125 6.890625 
Q 35.15625 6.890625 40.078125 11.328125 
Q 45.015625 15.765625 45.015625 23.390625 
Q 45.015625 31 40.078125 35.4375 
Q 35.15625 39.890625 26.703125 39.890625 
Q 22.75 39.890625 18.8125 39.015625 
Q 14.890625 38.140625 10.796875 36.28125 
z
" id="DejaVuSans-35"/>
      </defs>
      <g transform="translate(480.184 399.079219)scale(0.1 -0.1)">
       <use xlink:href="#DejaVuSans-2212"/>
       <use x="83.789062" xlink:href="#DejaVuSans-31"/>
       <use x="147.412109" xlink:href="#DejaVuSans-35"/>
       <use x="211.035156" xlink:href="#DejaVuSans-30"/>
      </g>
     </g>
    </g>
    <g id="ytick_9">
     <g id="line2d_14">
      <g>
       <use style="stroke:#000000;stroke-width:0.8;" x="473.184" xlink:href="#md6aa545205" y="340.92"/>
      </g>
     </g>
     <g id="text_14">
      <!-- 120 -->
      <g transform="translate(480.184 344.719219)scale(0.1 -0.1)">
       <use xlink:href="#DejaVuSans-2212"/>
       <use x="83.789062" xlink:href="#DejaVuSans-31"/>
       <use x="147.412109" xlink:href="#DejaVuSans-32"/>
       <use x="211.035156" xlink:href="#DejaVuSans-30"/>
      </g>
     </g>
    </g>
    <g id="ytick_10">
     <g id="line2d_15">
      <g>
       <use style="stroke:#000000;stroke-width:0.8;" x="473.184" xlink:href="#md6aa545205" y="286.56"/>
      </g>
     </g>
     <g id="text_15">
      <!-- 90 -->
      <defs>
       <path d="M 10.984375 1.515625 
L 10.984375 10.5 
Q 14.703125 8.734375 18.5 7.8125 
Q 22.3125 6.890625 25.984375 6.890625 
Q 35.75 6.890625 40.890625 13.453125 
Q 46.046875 20.015625 46.78125 33.40625 
Q 43.953125 29.203125 39.59375 26.953125 
Q 35.25 24.703125 29.984375 24.703125 
Q 19.046875 24.703125 12.671875 31.3125 
Q 6.296875 37.9375 6.296875 49.421875 
Q 6.296875 60.640625 12.9375 67.421875 
Q 19.578125 74.21875 30.609375 74.21875 
Q 43.265625 74.21875 49.921875 64.515625 
Q 56.59375 54.828125 56.59375 36.375 
Q 56.59375 19.140625 48.40625 8.859375 
Q 40.234375 -1.421875 26.421875 -1.421875 
Q 22.703125 -1.421875 18.890625 -0.6875 
Q 15.09375 0.046875 10.984375 1.515625 
z
M 30.609375 32.421875 
Q 37.25 32.421875 41.125 36.953125 
Q 45.015625 41.5 45.015625 49.421875 
Q 45.015625 57.28125 41.125 61.84375 
Q 37.25 66.40625 30.609375 66.40625 
Q 23.96875 66.40625 20.09375 61.84375 
Q 16.21875 57.28125 16.21875 49.421875 
Q 16.21875 41.5 20.09375 36.953125 
Q 23.96875 32.421875 30.609375 32.421875 
z
" id="DejaVuSans-39"/>
      </defs>
      <g transform="translate(480.184 290.359219)scale(0.1 -0.1)">
       <use xlink:href="#DejaVuSans-2212"/>
       <use x="83.789062" xlink:href="#DejaVuSans-39"/>
       <use x="147.412109" xlink:href="#DejaVuSans-30"/>
      </g>
     </g>
    </g>
    <g id="ytick_11">
     <g id="line2d_16">
      <g>
       <use style="stroke:#000000;stroke-width:0.8;" x="473.184" xlink:href="#md6aa545205" y="232.2"/>
      </g>
     </g>
     <g id="text_16">
      <!-- 60 -->
      <defs>
       <path d="M 33.015625 40.375 
Q 26.375 40.375 22.484375 35.828125 
Q 18.609375 31.296875 18.609375 23.390625 
Q 18.609375 15.53125 22.484375 10.953125 
Q 26.375 6.390625 33.015625 6.390625 
Q 39.65625 6.390625 43.53125 10.953125 
Q 47.40625 15.53125 47.40625 23.390625 
Q 47.40625 31.296875 43.53125 35.828125 
Q 39.65625 40.375 33.015625 40.375 
z
M 52.59375 71.296875 
L 52.59375 62.3125 
Q 48.875 64.0625 45.09375 64.984375 
Q 41.3125 65.921875 37.59375 65.921875 
Q 27.828125 65.921875 22.671875 59.328125 
Q 17.53125 52.734375 16.796875 39.40625 
Q 19.671875 43.65625 24.015625 45.921875 
Q 28.375 48.1875 33.59375 48.1875 
Q 44.578125 48.1875 50.953125 41.515625 
Q 57.328125 34.859375 57.328125 23.390625 
Q 57.328125 12.15625 50.6875 5.359375 
Q 44.046875 -1.421875 33.015625 -1.421875 
Q 20.359375 -1.421875 13.671875 8.265625 
Q 6.984375 17.96875 6.984375 36.375 
Q 6.984375 53.65625 15.1875 63.9375 
Q 23.390625 74.21875 37.203125 74.21875 
Q 40.921875 74.21875 44.703125 73.484375 
Q 48.484375 72.75 52.59375 71.296875 
z
" id="DejaVuSans-36"/>
      </defs>
      <g transform="translate(480.184 235.999219)scale(0.1 -0.1)">
       <use xlink:href="#DejaVuSans-2212"/>
       <use x="83.789062" xlink:href="#DejaVuSans-36"/>
       <use x="147.412109" xlink:href="#DejaVuSans-30"/>
      </g>
     </g>
    </g>
    <g id="ytick_12">
     <g id="line2d_17">
      <g>
       <use style="stroke:#000000;stroke-width:0.8;" x="473.184" xlink:href="#md6aa545205" y="177.84"/>
      </g>
     </g>
     <g id="text_17">
      <!-- 30 -->
      <defs>
       <path d="M 40.578125 39.3125 
Q 47.65625 37.796875 51.625 33 
Q 55.609375 28.21875 55.609375 21.1875 
Q 55.609375 10.40625 48.1875 4.484375 
Q 40.765625 -1.421875 27.09375 -1.421875 
Q 22.515625 -1.421875 17.65625 -0.515625 
Q 12.796875 0.390625 7.625 2.203125 
L 7.625 11.71875 
Q 11.71875 9.328125 16.59375 8.109375 
Q 21.484375 6.890625 26.8125 6.890625 
Q 36.078125 6.890625 40.9375 10.546875 
Q 45.796875 14.203125 45.796875 21.1875 
Q 45.796875 27.640625 41.28125 31.265625 
Q 36.765625 34.90625 28.71875 34.90625 
L 20.21875 34.90625 
L 20.21875 43.015625 
L 29.109375 43.015625 
Q 36.375 43.015625 40.234375 45.921875 
Q 44.09375 48.828125 44.09375 54.296875 
Q 44.09375 59.90625 40.109375 62.90625 
Q 36.140625 65.921875 28.71875 65.921875 
Q 24.65625 65.921875 20.015625 65.03125 
Q 15.375 64.15625 9.8125 62.3125 
L 9.8125 71.09375 
Q 15.4375 72.65625 20.34375 73.4375 
Q 25.25 74.21875 29.59375 74.21875 
Q 40.828125 74.21875 47.359375 69.109375 
Q 53.90625 64.015625 53.90625 55.328125 
Q 53.90625 49.265625 50.4375 45.09375 
Q 46.96875 40.921875 40.578125 39.3125 
z
" id="DejaVuSans-33"/>
      </defs>
      <g transform="translate(480.184 181.639219)scale(0.1 -0.1)">
       <use xlink:href="#DejaVuSans-2212"/>
       <use x="83.789062" xlink:href="#DejaVuSans-33"/>
       <use x="147.412109" xlink:href="#DejaVuSans-30"/>
      </g>
     </g>
    </g>
    <g id="ytick_13">
     <g id="line2d_18">
      <g>
       <use style="stroke:#000000;stroke-width:0.8;" x="473.184" xlink:href="#md6aa545205" y="123.48"/>
      </g>
     </g>
     <g id="text_18">
      <!-- 0 -->
      <g transform="translate(480.184 127.279219)scale(0.1 -0.1)">
       <use xlink:href="#DejaVuSans-30"/>
      </g>
     </g>
    </g>
    <g id="ytick_14">
     <g id="line2d_19">
      <g>
       <use style="stroke:#000000;stroke-width:0.8;" x="473.184" xlink:href="#md6aa545205" y="69.12"/>
      </g>
     </g>
     <g id="text_19">
      <!-- 30 -->
      <g transform="translate(480.184 72.919219)scale(0.1 -0.1)">
       <use xlink:href="#DejaVuSans-33"/>
       <use x="63.623047" xlink:href="#DejaVuSans-30"/>
      </g>
     </g>
    </g>
   </g>
   <g id="patch_8">
    <path d="M 451.44 504 
L 451.44 449.64 
L 451.44 123.48 
L 451.44 69.12 
L 473.184 69.12 
L 473.184 123.48 
L 473.184 449.64 
L 473.184 504 
z
" style="fill:none;stroke:#000000;stroke-linejoin:miter;stroke-width:0.8;"/>
   </g>
  </g>
 </g>
 <defs>
  <clipPath id="pa712425fbd">
   <rect height="434.88" width="357.12" x="72" y="69.12"/>
  </clipPath>
  <clipPath id="paf6f4b4006">
   <rect height="434.88" width="21.744" x="451.44" y="69.12"/>
  </clipPath>
 </defs>
</svg>
