<?xml version="1.0" encoding="utf-8" standalone="no"?>
<!DOCTYPE svg PUBLIC "-//W3C//DTD SVG 1.1//EN"
  "http://www.w3.org/Graphics/SVG/1.1/DTD/svg11.dtd">
<!-- Created with matplotlib (http://matplotlib.org/) -->
<svg height="288pt" version="1.1" viewBox="0 0 432 288" width="432pt" xmlns="http://www.w3.org/2000/svg" xmlns:xlink="http://www.w3.org/1999/xlink">
 <defs>
  <style type="text/css">
*{stroke-linecap:butt;stroke-linejoin:round;}
  </style>
 </defs>
 <g id="figure_1">
  <g id="patch_1">
   <path d="M 0 288 
L 432 288 
L 432 0 
L 0 0 
z
" style="fill:#ffffff;"/>
  </g>
  <g id="axes_1">
   <g id="patch_2">
    <path d="M 54 252 
L 388.8 252 
L 388.8 34.56 
L 54 34.56 
z
" style="fill:#ffffff;"/>
   </g>
   <g id="patch_3">
    <path clip-path="url(#pf7d36b1ad9)" d="M 58.283616 252 
L 54 252 
L 54 161.861213 
L 162.058133 148.25132 
L 174.522352 154.627824 
z
" style="opacity:0.6;stroke-dasharray:0,0;stroke-dashoffset:0;"/>
   </g>
   <g id="patch_4">
    <path clip-path="url(#pf7d36b1ad9)" d="M 42.36098 163.327144 
L 140.217066 137.077764 
L 162.058133 148.25132 
z
" style="fill:#0143da;opacity:0.6;stroke-dasharray:0,0;stroke-dashoffset:0;"/>
   </g>
   <g id="patch_5">
    <path clip-path="url(#pf7d36b1ad9)" d="M -779.303436 266.815559 
L 139.9436 136.937863 
L 140.217066 137.077764 
L 42.36098 163.327144 
z
" style="fill:#0287b4;opacity:0.6;stroke-dasharray:0,0;stroke-dashoffset:0;"/>
   </g>
   <g id="patch_6">
    <path clip-path="url(#pf7d36b1ad9)" d="M 54 149.08058 
L 54 126.294706 
L 117.232027 125.31897 
L 139.9436 136.937863 
z
" style="fill:#03cb8e;opacity:0.6;stroke-dasharray:0,0;stroke-dashoffset:0;"/>
   </g>
   <g id="patch_7">
    <path clip-path="url(#pf7d36b1ad9)" d="M 54 126.294706 
L 54 120.413309 
L 109.560749 121.394461 
L 117.232027 125.31897 
z
" style="fill:#050f68;opacity:0.6;stroke-dasharray:0,0;stroke-dashoffset:0;"/>
   </g>
   <g id="patch_8">
    <path clip-path="url(#pf7d36b1ad9)" d="M 54 120.413309 
L 54 92.970432 
L 109.560749 121.394461 
z
" style="fill:#065342;opacity:0.6;stroke-dasharray:0,0;stroke-dashoffset:0;"/>
   </g>
   <g id="patch_9">
    <path clip-path="url(#pf7d36b1ad9)" d="M 54 92.970432 
L 54 34.56 
L 62.597594 34.56 
L 146.535409 111.687381 
L 109.560743 121.394458 
z
" style="fill:#07971c;opacity:0.6;stroke-dasharray:0,0;stroke-dashoffset:0;"/>
   </g>
   <g id="patch_10">
    <path clip-path="url(#pf7d36b1ad9)" d="M 21.622013 282.711105 
L 174.522352 154.627824 
L 186.995271 161.008778 
z
" style="fill:#08daf6;opacity:0.6;stroke-dasharray:0,0;stroke-dashoffset:0;"/>
   </g>
   <g id="patch_11">
    <path clip-path="url(#pf7d36b1ad9)" d="M 30.305111 289.439052 
L 21.622071 282.711062 
L 186.995271 161.008778 
L 196.580087 165.912224 
z
" style="fill:#0a1ed0;opacity:0.6;stroke-dasharray:0,0;stroke-dashoffset:0;"/>
   </g>
   <g id="patch_12">
    <path clip-path="url(#pf7d36b1ad9)" d="M 23.532586 -1.335403 
L 158.461362 89.283506 
L 161.319557 97.282128 
L 146.535412 111.687384 
z
" style="fill:#0b62aa;opacity:0.6;stroke-dasharray:0,0;stroke-dashoffset:0;"/>
   </g>
   <g id="patch_13">
    <path clip-path="url(#pf7d36b1ad9)" d="M 23.532586 -1.335403 
L -296.551559 -295.448991 
L 162.341563 60.12093 
L 158.461357 89.283503 
z
" style="fill:#0ca684;opacity:0.6;stroke-dasharray:0,0;stroke-dashoffset:0;"/>
   </g>
   <g id="patch_14">
    <path clip-path="url(#pf7d36b1ad9)" d="M 30.30501 289.439127 
L 196.580087 165.912224 
L 205.469651 170.459989 
z
" style="fill:#0dea5e;opacity:0.6;stroke-dasharray:0,0;stroke-dashoffset:0;"/>
   </g>
   <g id="patch_15">
    <path clip-path="url(#pf7d36b1ad9)" d="M -9293.846626 7216.415735 
L 30.30501 289.439127 
L 205.469651 170.459989 
L 216.813464 176.26331 
L 223.753554 182.640304 
L 206.758892 210.982067 
z
" style="fill:#0f2e38;opacity:0.6;stroke-dasharray:0,0;stroke-dashoffset:0;"/>
   </g>
   <g id="patch_16">
    <path clip-path="url(#pf7d36b1ad9)" d="M 117.232025 125.318969 
L 109.560753 121.394464 
L 146.535416 111.687387 
L 164.001224 127.736079 
z
" style="fill:#107212;opacity:0.6;stroke-dasharray:0,0;stroke-dashoffset:0;"/>
   </g>
   <g id="patch_17">
    <path clip-path="url(#pf7d36b1ad9)" d="M 140.897077 136.895355 
L 139.943602 136.937864 
L 117.232025 125.318969 
L 164.001224 127.736079 
L 166.49612 130.028547 
z
" style="fill:#11b5ec;opacity:0.6;stroke-dasharray:0,0;stroke-dashoffset:0;"/>
   </g>
   <g id="patch_18">
    <path clip-path="url(#pf7d36b1ad9)" d="M 129.353016 34.56 
L 167.681567 34.56 
L 162.341568 60.120934 
z
" style="fill:#12f9c6;opacity:0.6;stroke-dasharray:0,0;stroke-dashoffset:0;"/>
   </g>
   <g id="patch_19">
    <path clip-path="url(#pf7d36b1ad9)" d="M 162.058133 148.25132 
L 140.217066 137.077764 
L 140.897079 136.895355 
L 172.399376 135.452832 
L 174.643857 137.515204 
L 175.259993 146.588549 
z
" style="fill:#143da0;opacity:0.6;stroke-dasharray:0,0;stroke-dashoffset:0;"/>
   </g>
   <g id="patch_20">
    <path clip-path="url(#pf7d36b1ad9)" d="M 140.897079 136.895355 
L 166.49612 130.028547 
L 172.399376 135.452832 
z
" style="fill:#15817a;opacity:0.6;stroke-dasharray:0,0;stroke-dashoffset:0;"/>
   </g>
   <g id="patch_21">
    <path clip-path="url(#pf7d36b1ad9)" d="M 146.535412 111.687384 
L 161.319557 97.282128 
L 172.450299 128.431369 
L 170.26686 129.017065 
L 164.001224 127.736079 
z
" style="fill:#16c554;opacity:0.6;stroke-dasharray:0,0;stroke-dashoffset:0;"/>
   </g>
   <g id="patch_22">
    <path clip-path="url(#pf7d36b1ad9)" d="M 151.131329 252 
L 206.758892 210.982067 
L 182.081161 252 
z
" style="fill:#18092e;opacity:0.6;stroke-dasharray:0,0;stroke-dashoffset:0;"/>
   </g>
   <g id="patch_23">
    <path clip-path="url(#pf7d36b1ad9)" d="M 161.319557 97.282128 
L 158.461362 89.283506 
L 165.012829 93.683508 
z
" style="fill:#194d08;opacity:0.6;stroke-dasharray:0,0;stroke-dashoffset:0;"/>
   </g>
   <g id="patch_24">
    <path clip-path="url(#pf7d36b1ad9)" d="M 165.01282 93.683502 
L 158.461357 89.283503 
L 162.341563 60.12093 
L 196.504306 86.591677 
z
" style="fill:#1a90e2;opacity:0.6;stroke-dasharray:0,0;stroke-dashoffset:0;"/>
   </g>
   <g id="patch_25">
    <path clip-path="url(#pf7d36b1ad9)" d="M 172.450299 128.431369 
L 161.319557 97.282128 
L 165.012829 93.683508 
L 204.107274 119.939553 
z
" style="fill:#1bd4bc;opacity:0.6;stroke-dasharray:0,0;stroke-dashoffset:0;"/>
   </g>
   <g id="patch_26">
    <path clip-path="url(#pf7d36b1ad9)" d="M 162.058133 148.25132 
L 175.259992 146.588549 
L 174.522346 154.627821 
z
" style="fill:#1d1896;opacity:0.6;stroke-dasharray:0,0;stroke-dashoffset:0;"/>
   </g>
   <g id="patch_27">
    <path clip-path="url(#pf7d36b1ad9)" d="M 323.027072 -38.0603 
L 196.504307 86.591678 
L 162.341568 60.120934 
L 524.243976 -1672.19461 
L 462.45414 -216.162513 
z
" style="fill:#1e5c70;opacity:0.6;stroke-dasharray:0,0;stroke-dashoffset:0;"/>
   </g>
   <g id="patch_28">
    <path clip-path="url(#pf7d36b1ad9)" d="M 166.49612 130.028547 
L 164.001224 127.736079 
L 170.26686 129.017065 
z
" style="fill:#1fa04a;opacity:0.6;stroke-dasharray:0,0;stroke-dashoffset:0;"/>
   </g>
   <g id="patch_29">
    <path clip-path="url(#pf7d36b1ad9)" d="M 165.01282 93.683502 
L 196.504306 86.591677 
L 214.517141 100.548789 
L 210.666429 118.180094 
L 204.107274 119.939553 
z
" style="fill:#20e424;opacity:0.6;stroke-dasharray:0,0;stroke-dashoffset:0;"/>
   </g>
   <g id="patch_30">
    <path clip-path="url(#pf7d36b1ad9)" d="M 166.49612 130.028547 
L 170.266859 129.017066 
L 172.709898 129.506411 
L 174.206874 135.705594 
L 172.399377 135.452833 
z
" style="fill:#2227fe;opacity:0.6;stroke-dasharray:0,0;stroke-dashoffset:0;"/>
   </g>
   <g id="patch_31">
    <path clip-path="url(#pf7d36b1ad9)" d="M 172.399377 135.452833 
L 174.206874 135.705594 
L 174.643859 137.515205 
z
" style="fill:#236bd8;opacity:0.6;stroke-dasharray:0,0;stroke-dashoffset:0;"/>
   </g>
   <g id="patch_32">
    <path clip-path="url(#pf7d36b1ad9)" d="M 174.206874 135.705594 
L 172.709898 129.506411 
L 209.193758 136.814201 
L 209.132469 140.589591 
z
" style="fill:#24afb2;opacity:0.6;stroke-dasharray:0,0;stroke-dashoffset:0;"/>
   </g>
   <g id="patch_33">
    <path clip-path="url(#pf7d36b1ad9)" d="M 172.709898 129.506411 
L 172.450297 128.43137 
L 204.107274 119.939553 
L 209.409883 123.500814 
L 209.193758 136.814201 
z
" style="fill:#25f38c;opacity:0.6;stroke-dasharray:0,0;stroke-dashoffset:0;"/>
   </g>
   <g id="patch_34">
    <path clip-path="url(#pf7d36b1ad9)" d="M 174.522346 154.627821 
L 175.259992 146.588549 
L 183.402311 145.563026 
L 194.334163 155.607904 
L 186.995271 161.008778 
z
" style="fill:#273766;opacity:0.6;stroke-dasharray:0,0;stroke-dashoffset:0;"/>
   </g>
   <g id="patch_35">
    <path clip-path="url(#pf7d36b1ad9)" d="M 175.259993 146.588549 
L 174.643857 137.515204 
L 183.402311 145.563026 
z
" style="fill:#287b40;opacity:0.6;stroke-dasharray:0,0;stroke-dashoffset:0;"/>
   </g>
   <g id="patch_36">
    <path clip-path="url(#pf7d36b1ad9)" d="M 183.402311 145.563026 
L 174.643859 137.515205 
L 174.206874 135.705594 
L 209.132469 140.589591 
L 209.104283 142.32587 
z
" style="fill:#29bf1a;opacity:0.6;stroke-dasharray:0,0;stroke-dashoffset:0;"/>
   </g>
   <g id="patch_37">
    <path clip-path="url(#pf7d36b1ad9)" d="M 182.081161 252 
L 206.758892 210.982067 
L 233.299604 191.41182 
L 240.475928 198.005881 
L 226.263399 252 
z
" style="fill:#2b02f4;opacity:0.6;stroke-dasharray:0,0;stroke-dashoffset:0;"/>
   </g>
   <g id="patch_38">
    <path clip-path="url(#pf7d36b1ad9)" d="M 194.334163 155.607904 
L 183.402311 145.563026 
L 209.104284 142.32587 
L 209.959044 144.109162 
z
" style="fill:#2c46ce;opacity:0.6;stroke-dasharray:0,0;stroke-dashoffset:0;"/>
   </g>
   <g id="patch_39">
    <path clip-path="url(#pf7d36b1ad9)" d="M 186.995271 161.008778 
L 194.334163 155.607904 
L 201.539029 162.228192 
L 196.580087 165.912224 
z
" style="fill:#2d8aa8;opacity:0.6;stroke-dasharray:0,0;stroke-dashoffset:0;"/>
   </g>
   <g id="patch_40">
    <path clip-path="url(#pf7d36b1ad9)" d="M 201.539029 162.228192 
L 194.334163 155.607904 
L 209.959044 144.109162 
L 218.090305 149.932135 
z
" style="fill:#2ece82;opacity:0.6;stroke-dasharray:0,0;stroke-dashoffset:0;"/>
   </g>
   <g id="patch_41">
    <path clip-path="url(#pf7d36b1ad9)" d="M 196.580087 165.912224 
L 201.539029 162.228192 
L 209.398276 169.449765 
L 205.469649 170.459987 
z
" style="fill:#30125c;opacity:0.6;stroke-dasharray:0,0;stroke-dashoffset:0;"/>
   </g>
   <g id="patch_42">
    <path clip-path="url(#pf7d36b1ad9)" d="M 196.504314 86.591683 
L 323.027031 -38.060246 
L 214.517142 100.548789 
z
" style="fill:#315636;opacity:0.6;stroke-dasharray:0,0;stroke-dashoffset:0;"/>
   </g>
   <g id="patch_43">
    <path clip-path="url(#pf7d36b1ad9)" d="M 209.398274 169.449763 
L 201.539029 162.228192 
L 218.090305 149.932135 
L 222.129075 151.065346 
L 223.234868 167.547285 
z
" style="fill:#329a10;opacity:0.6;stroke-dasharray:0,0;stroke-dashoffset:0;"/>
   </g>
   <g id="patch_44">
    <path clip-path="url(#pf7d36b1ad9)" d="M 204.107274 119.939553 
L 210.666431 118.180093 
L 209.409884 123.500815 
z
" style="fill:#33ddea;opacity:0.6;stroke-dasharray:0,0;stroke-dashoffset:0;"/>
   </g>
   <g id="patch_45">
    <path clip-path="url(#pf7d36b1ad9)" d="M 206.758892 210.982067 
L 223.753554 182.640304 
L 233.299604 191.41182 
z
" style="fill:#3521c4;opacity:0.6;stroke-dasharray:0,0;stroke-dashoffset:0;"/>
   </g>
   <g id="patch_46">
    <path clip-path="url(#pf7d36b1ad9)" d="M 205.469649 170.459987 
L 209.398276 169.449765 
L 216.813464 176.26331 
z
" style="fill:#36659e;opacity:0.6;stroke-dasharray:0,0;stroke-dashoffset:0;"/>
   </g>
   <g id="patch_47">
    <path clip-path="url(#pf7d36b1ad9)" d="M 216.813464 176.26331 
L 209.398274 169.449763 
L 223.234868 167.547285 
L 224.068654 179.974954 
z
" style="fill:#37a978;opacity:0.6;stroke-dasharray:0,0;stroke-dashoffset:0;"/>
   </g>
   <g id="patch_48">
    <path clip-path="url(#pf7d36b1ad9)" d="M 209.959044 144.109162 
L 213.059086 141.827763 
L 214.689062 141.622468 
L 221.864911 147.127954 
L 218.090305 149.932135 
z
" style="fill:#38ed52;opacity:0.6;stroke-dasharray:0,0;stroke-dashoffset:0;"/>
   </g>
   <g id="patch_49">
    <path clip-path="url(#pf7d36b1ad9)" d="M 209.959044 144.109162 
L 209.104284 142.32587 
L 213.059086 141.827763 
z
" style="fill:#3a312c;opacity:0.6;stroke-dasharray:0,0;stroke-dashoffset:0;"/>
   </g>
   <g id="patch_50">
    <path clip-path="url(#pf7d36b1ad9)" d="M 209.104283 142.32587 
L 209.132469 140.589591 
L 213.845911 141.248719 
L 213.059086 141.827763 
z
" style="fill:#3b7506;opacity:0.6;stroke-dasharray:0,0;stroke-dashoffset:0;"/>
   </g>
   <g id="patch_51">
    <path clip-path="url(#pf7d36b1ad9)" d="M 209.132469 140.589591 
L 209.193758 136.814201 
L 217.587186 138.495421 
L 213.845911 141.248719 
z
" style="fill:#3cb8e0;opacity:0.6;stroke-dasharray:0,0;stroke-dashoffset:0;"/>
   </g>
   <g id="patch_52">
    <path clip-path="url(#pf7d36b1ad9)" d="M 209.193758 136.814201 
L 209.409883 123.500814 
L 221.543121 131.649564 
L 220.92802 136.036817 
L 217.587186 138.495421 
z
" style="fill:#3dfcba;opacity:0.6;stroke-dasharray:0,0;stroke-dashoffset:0;"/>
   </g>
   <g id="patch_53">
    <path clip-path="url(#pf7d36b1ad9)" d="M 209.409884 123.500815 
L 210.666431 118.180093 
L 230.429876 112.878653 
L 231.088781 113.389201 
L 221.54312 131.649563 
z
" style="fill:#3f4094;opacity:0.6;stroke-dasharray:0,0;stroke-dashoffset:0;"/>
   </g>
   <g id="patch_54">
    <path clip-path="url(#pf7d36b1ad9)" d="M 210.666429 118.180094 
L 214.517141 100.548789 
L 230.429876 112.878653 
z
" style="fill:#40846e;opacity:0.6;stroke-dasharray:0,0;stroke-dashoffset:0;"/>
   </g>
   <g id="patch_55">
    <path clip-path="url(#pf7d36b1ad9)" d="M 213.059086 141.827763 
L 213.845911 141.248719 
L 214.689061 141.622468 
z
" style="fill:#41c848;opacity:0.6;stroke-dasharray:0,0;stroke-dashoffset:0;"/>
   </g>
   <g id="patch_56">
    <path clip-path="url(#pf7d36b1ad9)" d="M 214.689062 141.622468 
L 222.021271 140.698978 
L 226.192202 143.91318 
L 221.864911 147.127954 
z
" style="fill:#430c22;opacity:0.6;stroke-dasharray:0,0;stroke-dashoffset:0;"/>
   </g>
   <g id="patch_57">
    <path clip-path="url(#pf7d36b1ad9)" d="M 214.689061 141.622468 
L 213.845911 141.248719 
L 217.587186 138.495421 
L 222.021272 140.698978 
z
" style="fill:#444ffc;opacity:0.6;stroke-dasharray:0,0;stroke-dashoffset:0;"/>
   </g>
   <g id="patch_58">
    <path clip-path="url(#pf7d36b1ad9)" d="M 232.84171 112.231691 
L 230.429876 112.878653 
L 214.517142 100.548789 
L 323.027031 -38.060246 
L 460.649957 -173.648256 
L 454.812139 -36.08437 
L 407.323326 -1.136161 
z
" style="fill:#4593d6;opacity:0.6;stroke-dasharray:0,0;stroke-dashoffset:0;"/>
   </g>
   <g id="patch_59">
    <path clip-path="url(#pf7d36b1ad9)" d="M 216.813464 176.26331 
L 224.068654 179.974954 
L 223.753552 182.640303 
z
" style="fill:#46d7b0;opacity:0.6;stroke-dasharray:0,0;stroke-dashoffset:0;"/>
   </g>
   <g id="patch_60">
    <path clip-path="url(#pf7d36b1ad9)" d="M 217.587186 138.495421 
L 220.92802 136.036817 
L 222.969575 140.57954 
L 222.021272 140.698978 
z
" style="fill:#481b8a;opacity:0.6;stroke-dasharray:0,0;stroke-dashoffset:0;"/>
   </g>
   <g id="patch_61">
    <path clip-path="url(#pf7d36b1ad9)" d="M 218.090305 149.932135 
L 221.864911 147.127954 
L 222.129075 151.065346 
z
" style="fill:#495f64;opacity:0.6;stroke-dasharray:0,0;stroke-dashoffset:0;"/>
   </g>
   <g id="patch_62">
    <path clip-path="url(#pf7d36b1ad9)" d="M 223.234868 167.547285 
L 222.129075 151.065346 
L 229.48485 153.129252 
L 234.102173 166.053073 
z
" style="fill:#4aa33e;opacity:0.6;stroke-dasharray:0,0;stroke-dashoffset:0;"/>
   </g>
   <g id="patch_63">
    <path clip-path="url(#pf7d36b1ad9)" d="M 222.129075 151.065346 
L 221.864911 147.127954 
L 226.192202 143.91318 
L 229.48485 153.129252 
z
" style="fill:#4be718;opacity:0.6;stroke-dasharray:0,0;stroke-dashoffset:0;"/>
   </g>
   <g id="patch_64">
    <path clip-path="url(#pf7d36b1ad9)" d="M 222.969575 140.57954 
L 220.92802 136.036817 
L 224.338503 133.526958 
L 232.654689 139.112154 
L 232.253448 139.410239 
z
" style="fill:#4d2af2;opacity:0.6;stroke-dasharray:0,0;stroke-dashoffset:0;"/>
   </g>
   <g id="patch_65">
    <path clip-path="url(#pf7d36b1ad9)" d="M 220.928019 136.036818 
L 221.54312 131.649563 
L 224.338503 133.526958 
z
" style="fill:#4e6ecc;opacity:0.6;stroke-dasharray:0,0;stroke-dashoffset:0;"/>
   </g>
   <g id="patch_66">
    <path clip-path="url(#pf7d36b1ad9)" d="M 224.338503 133.526958 
L 221.543121 131.649564 
L 231.088782 113.389201 
L 241.130073 121.16962 
z
" style="fill:#4fb2a6;opacity:0.6;stroke-dasharray:0,0;stroke-dashoffset:0;"/>
   </g>
   <g id="patch_67">
    <path clip-path="url(#pf7d36b1ad9)" d="M 233.299604 191.41182 
L 223.753552 182.640303 
L 224.068654 179.974954 
L 238.675674 187.447682 
z
" style="fill:#50f680;opacity:0.6;stroke-dasharray:0,0;stroke-dashoffset:0;"/>
   </g>
   <g id="patch_68">
    <path clip-path="url(#pf7d36b1ad9)" d="M 224.068654 179.974954 
L 223.234868 167.547285 
L 234.102173 166.053073 
L 241.105706 185.655857 
L 238.675674 187.447682 
z
" style="fill:#523a5a;opacity:0.6;stroke-dasharray:0,0;stroke-dashoffset:0;"/>
   </g>
   <g id="patch_69">
    <path clip-path="url(#pf7d36b1ad9)" d="M 226.192202 143.91318 
L 222.021271 140.698978 
L 222.969575 140.57954 
L 226.87019 143.409498 
z
" style="fill:#537e34;opacity:0.6;stroke-dasharray:0,0;stroke-dashoffset:0;"/>
   </g>
   <g id="patch_70">
    <path clip-path="url(#pf7d36b1ad9)" d="M 222.969575 140.57954 
L 232.253448 139.410239 
L 226.87019 143.409498 
z
" style="fill:#54c20e;opacity:0.6;stroke-dasharray:0,0;stroke-dashoffset:0;"/>
   </g>
   <g id="patch_71">
    <path clip-path="url(#pf7d36b1ad9)" d="M 224.338503 133.526958 
L 241.130073 121.16962 
L 248.80335 127.115202 
L 232.654689 139.112154 
z
" style="fill:#5605e8;opacity:0.6;stroke-dasharray:0,0;stroke-dashoffset:0;"/>
   </g>
   <g id="patch_72">
    <path clip-path="url(#pf7d36b1ad9)" d="M 226.263399 252 
L 240.475928 198.005881 
L 244.952978 202.119678 
L 238.087264 252 
z
" style="fill:#5749c2;opacity:0.6;stroke-dasharray:0,0;stroke-dashoffset:0;"/>
   </g>
   <g id="patch_73">
    <path clip-path="url(#pf7d36b1ad9)" d="M 229.48485 153.129252 
L 226.192202 143.91318 
L 226.87019 143.409498 
L 240.976936 144.701421 
L 266.197993 161.640022 
L 261.915745 162.228814 
z
" style="fill:#588d9c;opacity:0.6;stroke-dasharray:0,0;stroke-dashoffset:0;"/>
   </g>
   <g id="patch_74">
    <path clip-path="url(#pf7d36b1ad9)" d="M 226.87019 143.409498 
L 232.253448 139.410239 
L 232.965073 139.32061 
L 240.976936 144.701421 
z
" style="fill:#59d176;opacity:0.6;stroke-dasharray:0,0;stroke-dashoffset:0;"/>
   </g>
   <g id="patch_75">
    <path clip-path="url(#pf7d36b1ad9)" d="M 234.102173 166.053073 
L 229.48485 153.129252 
L 261.915745 162.228814 
z
" style="fill:#5b1550;opacity:0.6;stroke-dasharray:0,0;stroke-dashoffset:0;"/>
   </g>
   <g id="patch_76">
    <path clip-path="url(#pf7d36b1ad9)" d="M 241.130073 121.16962 
L 231.088781 113.3892 
L 232.841706 112.231692 
L 264.995175 103.606694 
z
" style="fill:#5c592a;opacity:0.6;stroke-dasharray:0,0;stroke-dashoffset:0;"/>
   </g>
   <g id="patch_77">
    <path clip-path="url(#pf7d36b1ad9)" d="M 233.299604 191.41182 
L 238.675674 187.447682 
L 242.389558 189.347648 
L 243.545074 195.104916 
L 240.47593 198.005882 
z
" style="fill:#5d9d04;opacity:0.6;stroke-dasharray:0,0;stroke-dashoffset:0;"/>
   </g>
   <g id="patch_78">
    <path clip-path="url(#pf7d36b1ad9)" d="M 240.976936 144.701421 
L 232.965073 139.32061 
L 260.138461 135.898129 
L 269.76811 143.35959 
z
" style="fill:#5ee0de;opacity:0.6;stroke-dasharray:0,0;stroke-dashoffset:0;"/>
   </g>
   <g id="patch_79">
    <path clip-path="url(#pf7d36b1ad9)" d="M 232.965073 139.32061 
L 232.654689 139.112154 
L 248.80335 127.115202 
L 260.138461 135.898129 
z
" style="fill:#6024b8;opacity:0.6;stroke-dasharray:0,0;stroke-dashoffset:0;"/>
   </g>
   <g id="patch_80">
    <path clip-path="url(#pf7d36b1ad9)" d="M 241.105706 185.655857 
L 234.102173 166.053073 
L 261.915745 162.228814 
L 269.855628 164.456611 
z
" style="fill:#616892;opacity:0.6;stroke-dasharray:0,0;stroke-dashoffset:0;"/>
   </g>
   <g id="patch_81">
    <path clip-path="url(#pf7d36b1ad9)" d="M 232.84171 112.231691 
L 407.323326 -1.136161 
L 264.995175 103.606694 
z
" style="fill:#62ac6c;opacity:0.6;stroke-dasharray:0,0;stroke-dashoffset:0;"/>
   </g>
   <g id="patch_82">
    <path clip-path="url(#pf7d36b1ad9)" d="M 238.087264 252 
L 244.952978 202.119678 
L 299.237788 252 
z
" style="fill:#63f046;opacity:0.6;stroke-dasharray:0,0;stroke-dashoffset:0;"/>
   </g>
   <g id="patch_83">
    <path clip-path="url(#pf7d36b1ad9)" d="M 238.675674 187.447682 
L 241.105705 185.655857 
L 242.389557 189.347648 
z
" style="fill:#653420;opacity:0.6;stroke-dasharray:0,0;stroke-dashoffset:0;"/>
   </g>
   <g id="patch_84">
    <path clip-path="url(#pf7d36b1ad9)" d="M 240.47593 198.005882 
L 243.545074 195.104915 
L 244.952977 202.119677 
z
" style="fill:#6677fa;opacity:0.6;stroke-dasharray:0,0;stroke-dashoffset:0;"/>
   </g>
   <g id="patch_85">
    <path clip-path="url(#pf7d36b1ad9)" d="M 247.091312 191.752994 
L 242.389557 189.347648 
L 241.105705 185.655857 
L 269.855627 164.456612 
L 270.770202 164.710743 
L 293.68543 180.100736 
z
" style="fill:#67bbd4;opacity:0.6;stroke-dasharray:0,0;stroke-dashoffset:0;"/>
   </g>
   <g id="patch_86">
    <path clip-path="url(#pf7d36b1ad9)" d="M 240.976936 144.701421 
L 269.76811 143.35959 
L 283.761906 154.202579 
L 282.234008 155.329201 
L 266.197997 161.640025 
z
" style="fill:#68ffae;opacity:0.6;stroke-dasharray:0,0;stroke-dashoffset:0;"/>
   </g>
   <g id="patch_87">
    <path clip-path="url(#pf7d36b1ad9)" d="M 248.80335 127.115202 
L 241.130073 121.16962 
L 264.995175 103.606694 
L 289.179723 97.119316 
z
" style="fill:#6a4388;opacity:0.6;stroke-dasharray:0,0;stroke-dashoffset:0;"/>
   </g>
   <g id="patch_88">
    <path clip-path="url(#pf7d36b1ad9)" d="M 244.952977 202.119677 
L 243.545074 195.104915 
L 247.091315 191.752995 
L 440.93499 290.920455 
L 437.206713 378.774587 
z
" style="fill:#6b8762;opacity:0.6;stroke-dasharray:0,0;stroke-dashoffset:0;"/>
   </g>
   <g id="patch_89">
    <path clip-path="url(#pf7d36b1ad9)" d="M 243.545074 195.104916 
L 242.389558 189.347648 
L 247.091315 191.752995 
z
" style="fill:#6ccb3c;opacity:0.6;stroke-dasharray:0,0;stroke-dashoffset:0;"/>
   </g>
   <g id="patch_90">
    <path clip-path="url(#pf7d36b1ad9)" d="M 247.091312 191.752994 
L 293.68543 180.100736 
L 441.427075 279.32484 
L 440.93499 290.920455 
z
" style="fill:#6e0f16;opacity:0.6;stroke-dasharray:0,0;stroke-dashoffset:0;"/>
   </g>
   <g id="patch_91">
    <path clip-path="url(#pf7d36b1ad9)" d="M 260.138461 135.898129 
L 248.80335 127.115202 
L 289.179723 97.119316 
L 352.348368 80.174659 
L 299.548631 130.934428 
z
" style="fill:#6f52f0;opacity:0.6;stroke-dasharray:0,0;stroke-dashoffset:0;"/>
   </g>
   <g id="patch_92">
    <path clip-path="url(#pf7d36b1ad9)" d="M 269.768108 143.359589 
L 260.138461 135.898129 
L 299.548635 130.934428 
z
" style="fill:#7096ca;opacity:0.6;stroke-dasharray:0,0;stroke-dashoffset:0;"/>
   </g>
   <g id="patch_93">
    <path clip-path="url(#pf7d36b1ad9)" d="M 261.915745 162.228814 
L 266.197993 161.640022 
L 270.111205 164.268157 
L 269.855628 164.456611 
z
" style="fill:#71daa4;opacity:0.6;stroke-dasharray:0,0;stroke-dashoffset:0;"/>
   </g>
   <g id="patch_94">
    <path clip-path="url(#pf7d36b1ad9)" d="M 266.197997 161.640025 
L 282.234008 155.329201 
L 270.111205 164.268157 
z
" style="fill:#731e7e;opacity:0.6;stroke-dasharray:0,0;stroke-dashoffset:0;"/>
   </g>
   <g id="patch_95">
    <path clip-path="url(#pf7d36b1ad9)" d="M 264.995175 103.606694 
L 407.323121 -1.13601 
L 454.422407 -26.900624 
L 454.367196 -25.599598 
L 289.179723 97.119316 
z
" style="fill:#746258;opacity:0.6;stroke-dasharray:0,0;stroke-dashoffset:0;"/>
   </g>
   <g id="patch_96">
    <path clip-path="url(#pf7d36b1ad9)" d="M 270.770206 164.710746 
L 270.111205 164.268157 
L 282.234016 155.329196 
L 284.226465 154.562539 
L 304.122523 169.978851 
L 302.716581 171.342331 
z
" style="fill:#75a632;opacity:0.6;stroke-dasharray:0,0;stroke-dashoffset:0;"/>
   </g>
   <g id="patch_97">
    <path clip-path="url(#pf7d36b1ad9)" d="M 283.761906 154.202579 
L 269.768108 143.359589 
L 299.548635 130.934428 
L 318.565986 128.539197 
z
" style="fill:#76ea0c;opacity:0.6;stroke-dasharray:0,0;stroke-dashoffset:0;"/>
   </g>
   <g id="patch_98">
    <path clip-path="url(#pf7d36b1ad9)" d="M 270.770206 164.710746 
L 302.716581 171.342331 
L 293.685427 180.100734 
z
" style="fill:#782de6;opacity:0.6;stroke-dasharray:0,0;stroke-dashoffset:0;"/>
   </g>
   <g id="patch_99">
    <path clip-path="url(#pf7d36b1ad9)" d="M 304.12253 169.978857 
L 284.226462 154.562537 
L 356.99016 123.699683 
L 448.520587 112.17145 
L 447.450232 137.393583 
z
" style="fill:#7971c0;opacity:0.6;stroke-dasharray:0,0;stroke-dashoffset:0;"/>
   </g>
   <g id="patch_100">
    <path clip-path="url(#pf7d36b1ad9)" d="M 284.226462 154.562537 
L 283.761906 154.202579 
L 318.565986 128.539197 
L 356.99016 123.699683 
z
" style="fill:#7ab59a;opacity:0.6;stroke-dasharray:0,0;stroke-dashoffset:0;"/>
   </g>
   <g id="patch_101">
    <path clip-path="url(#pf7d36b1ad9)" d="M 289.179723 97.119316 
L 454.367196 -25.599598 
L 454.287676 -23.725786 
L 352.348377 80.174657 
z
" style="fill:#7bf974;opacity:0.6;stroke-dasharray:0,0;stroke-dashoffset:0;"/>
   </g>
   <g id="patch_102">
    <path clip-path="url(#pf7d36b1ad9)" d="M 293.685427 180.100734 
L 302.716581 171.342331 
L 307.040654 172.239944 
L 441.54855 276.462386 
L 441.427075 279.32484 
z
" style="fill:#7d3d4e;opacity:0.6;stroke-dasharray:0,0;stroke-dashoffset:0;"/>
   </g>
   <g id="patch_103">
    <path clip-path="url(#pf7d36b1ad9)" d="M 318.565986 128.539197 
L 299.548631 130.934428 
L 352.348368 80.174659 
L 402.344968 66.763335 
z
" style="fill:#7e8128;opacity:0.6;stroke-dasharray:0,0;stroke-dashoffset:0;"/>
   </g>
   <g id="patch_104">
    <path clip-path="url(#pf7d36b1ad9)" d="M 302.716581 171.342331 
L 304.122523 169.978851 
L 307.040654 172.239944 
z
" style="fill:#7fc502;opacity:0.6;stroke-dasharray:0,0;stroke-dashoffset:0;"/>
   </g>
   <g id="patch_105">
    <path clip-path="url(#pf7d36b1ad9)" d="M 307.040644 172.239936 
L 304.12253 169.978857 
L 447.450232 137.393583 
L 446.092639 169.38425 
z
" style="fill:#8108dc;opacity:0.6;stroke-dasharray:0,0;stroke-dashoffset:0;"/>
   </g>
   <g id="patch_106">
    <path clip-path="url(#pf7d36b1ad9)" d="M 307.040644 172.239936 
L 446.092639 169.38425 
L 441.54855 276.462386 
z
" style="fill:#824cb6;opacity:0.6;stroke-dasharray:0,0;stroke-dashoffset:0;"/>
   </g>
   <g id="patch_107">
    <path clip-path="url(#pf7d36b1ad9)" d="M 356.990201 123.699678 
L 318.565986 128.539197 
L 402.344968 66.763335 
L 451.00146 53.711487 
L 449.588851 86.998581 
z
" style="fill:#839090;opacity:0.6;stroke-dasharray:0,0;stroke-dashoffset:0;"/>
   </g>
   <g id="patch_108">
    <path clip-path="url(#pf7d36b1ad9)" d="M 402.344968 66.763335 
L 352.348377 80.174657 
L 454.287676 -23.725786 
L 452.001414 30.148306 
z
" style="fill:#84d46a;opacity:0.6;stroke-dasharray:0,0;stroke-dashoffset:0;"/>
   </g>
   <g id="patch_109">
    <path clip-path="url(#pf7d36b1ad9)" d="M 356.990201 123.699678 
L 449.588851 86.998581 
L 448.520587 112.17145 
z
" style="fill:#861844;opacity:0.6;stroke-dasharray:0,0;stroke-dashoffset:0;"/>
   </g>
   <g id="matplotlib.axis_1">
    <g id="xtick_1">
     <g id="line2d_1">
      <defs>
       <path d="M 0 0 
L 0 3.5 
" id="mbb08b12b7a" style="stroke:#000000;stroke-width:0.8;"/>
      </defs>
      <g>
       <use style="stroke:#000000;stroke-width:0.8;" x="87.48" xlink:href="#mbb08b12b7a" y="252"/>
      </g>
     </g>
     <g id="text_1">
      <!-- −4 -->
      <defs>
       <path d="M 10.59375 35.5 
L 73.1875 35.5 
L 73.1875 27.203125 
L 10.59375 27.203125 
z
" id="DejaVuSans-2212"/>
       <path d="M 37.796875 64.3125 
L 12.890625 25.390625 
L 37.796875 25.390625 
z
M 35.203125 72.90625 
L 47.609375 72.90625 
L 47.609375 25.390625 
L 58.015625 25.390625 
L 58.015625 17.1875 
L 47.609375 17.1875 
L 47.609375 0 
L 37.796875 0 
L 37.796875 17.1875 
L 4.890625 17.1875 
L 4.890625 26.703125 
z
" id="DejaVuSans-34"/>
      </defs>
      <g transform="translate(80.108906 266.598437)scale(0.1 -0.1)">
       <use xlink:href="#DejaVuSans-2212"/>
       <use x="83.789062" xlink:href="#DejaVuSans-34"/>
      </g>
     </g>
    </g>
    <g id="xtick_2">
     <g id="line2d_2">
      <g>
       <use style="stroke:#000000;stroke-width:0.8;" x="154.44" xlink:href="#mbb08b12b7a" y="252"/>
      </g>
     </g>
     <g id="text_2">
      <!-- −2 -->
      <defs>
       <path d="M 19.1875 8.296875 
L 53.609375 8.296875 
L 53.609375 0 
L 7.328125 0 
L 7.328125 8.296875 
Q 12.9375 14.109375 22.625 23.890625 
Q 32.328125 33.6875 34.8125 36.53125 
Q 39.546875 41.84375 41.421875 45.53125 
Q 43.3125 49.21875 43.3125 52.78125 
Q 43.3125 58.59375 39.234375 62.25 
Q 35.15625 65.921875 28.609375 65.921875 
Q 23.96875 65.921875 18.8125 64.3125 
Q 13.671875 62.703125 7.8125 59.421875 
L 7.8125 69.390625 
Q 13.765625 71.78125 18.9375 73 
Q 24.125 74.21875 28.421875 74.21875 
Q 39.75 74.21875 46.484375 68.546875 
Q 53.21875 62.890625 53.21875 53.421875 
Q 53.21875 48.921875 51.53125 44.890625 
Q 49.859375 40.875 45.40625 35.40625 
Q 44.1875 33.984375 37.640625 27.21875 
Q 31.109375 20.453125 19.1875 8.296875 
z
" id="DejaVuSans-32"/>
      </defs>
      <g transform="translate(147.068906 266.598437)scale(0.1 -0.1)">
       <use xlink:href="#DejaVuSans-2212"/>
       <use x="83.789062" xlink:href="#DejaVuSans-32"/>
      </g>
     </g>
    </g>
    <g id="xtick_3">
     <g id="line2d_3">
      <g>
       <use style="stroke:#000000;stroke-width:0.8;" x="221.4" xlink:href="#mbb08b12b7a" y="252"/>
      </g>
     </g>
     <g id="text_3">
      <!-- 0 -->
      <defs>
       <path d="M 31.78125 66.40625 
Q 24.171875 66.40625 20.328125 58.90625 
Q 16.5 51.421875 16.5 36.375 
Q 16.5 21.390625 20.328125 13.890625 
Q 24.171875 6.390625 31.78125 6.390625 
Q 39.453125 6.390625 43.28125 13.890625 
Q 47.125 21.390625 47.125 36.375 
Q 47.125 51.421875 43.28125 58.90625 
Q 39.453125 66.40625 31.78125 66.40625 
z
M 31.78125 74.21875 
Q 44.046875 74.21875 50.515625 64.515625 
Q 56.984375 54.828125 56.984375 36.375 
Q 56.984375 17.96875 50.515625 8.265625 
Q 44.046875 -1.421875 31.78125 -1.421875 
Q 19.53125 -1.421875 13.0625 8.265625 
Q 6.59375 17.96875 6.59375 36.375 
Q 6.59375 54.828125 13.0625 64.515625 
Q 19.53125 74.21875 31.78125 74.21875 
z
" id="DejaVuSans-30"/>
      </defs>
      <g transform="translate(218.21875 266.598437)scale(0.1 -0.1)">
       <use xlink:href="#DejaVuSans-30"/>
      </g>
     </g>
    </g>
    <g id="xtick_4">
     <g id="line2d_4">
      <g>
       <use style="stroke:#000000;stroke-width:0.8;" x="288.36" xlink:href="#mbb08b12b7a" y="252"/>
      </g>
     </g>
     <g id="text_4">
      <!-- 2 -->
      <g transform="translate(285.17875 266.598437)scale(0.1 -0.1)">
       <use xlink:href="#DejaVuSans-32"/>
      </g>
     </g>
    </g>
    <g id="xtick_5">
     <g id="line2d_5">
      <g>
       <use style="stroke:#000000;stroke-width:0.8;" x="355.32" xlink:href="#mbb08b12b7a" y="252"/>
      </g>
     </g>
     <g id="text_5">
      <!-- 4 -->
      <g transform="translate(352.13875 266.598437)scale(0.1 -0.1)">
       <use xlink:href="#DejaVuSans-34"/>
      </g>
     </g>
    </g>
   </g>
   <g id="matplotlib.axis_2">
    <g id="ytick_1">
     <g id="line2d_6">
      <defs>
       <path d="M 0 0 
L -3.5 0 
" id="m08f6a8c951" style="stroke:#000000;stroke-width:0.8;"/>
      </defs>
      <g>
       <use style="stroke:#000000;stroke-width:0.8;" x="54" xlink:href="#m08f6a8c951" y="230.256"/>
      </g>
     </g>
     <g id="text_6">
      <!-- −4 -->
      <g transform="translate(32.257812 234.055219)scale(0.1 -0.1)">
       <use xlink:href="#DejaVuSans-2212"/>
       <use x="83.789062" xlink:href="#DejaVuSans-34"/>
      </g>
     </g>
    </g>
    <g id="ytick_2">
     <g id="line2d_7">
      <g>
       <use style="stroke:#000000;stroke-width:0.8;" x="54" xlink:href="#m08f6a8c951" y="186.768"/>
      </g>
     </g>
     <g id="text_7">
      <!-- −2 -->
      <g transform="translate(32.257812 190.567219)scale(0.1 -0.1)">
       <use xlink:href="#DejaVuSans-2212"/>
       <use x="83.789062" xlink:href="#DejaVuSans-32"/>
      </g>
     </g>
    </g>
    <g id="ytick_3">
     <g id="line2d_8">
      <g>
       <use style="stroke:#000000;stroke-width:0.8;" x="54" xlink:href="#m08f6a8c951" y="143.28"/>
      </g>
     </g>
     <g id="text_8">
      <!-- 0 -->
      <g transform="translate(40.6375 147.079219)scale(0.1 -0.1)">
       <use xlink:href="#DejaVuSans-30"/>
      </g>
     </g>
    </g>
    <g id="ytick_4">
     <g id="line2d_9">
      <g>
       <use style="stroke:#000000;stroke-width:0.8;" x="54" xlink:href="#m08f6a8c951" y="99.792"/>
      </g>
     </g>
     <g id="text_9">
      <!-- 2 -->
      <g transform="translate(40.6375 103.591219)scale(0.1 -0.1)">
       <use xlink:href="#DejaVuSans-32"/>
      </g>
     </g>
    </g>
    <g id="ytick_5">
     <g id="line2d_10">
      <g>
       <use style="stroke:#000000;stroke-width:0.8;" x="54" xlink:href="#m08f6a8c951" y="56.304"/>
      </g>
     </g>
     <g id="text_10">
      <!-- 4 -->
      <g transform="translate(40.6375 60.103219)scale(0.1 -0.1)">
       <use xlink:href="#DejaVuSans-34"/>
      </g>
     </g>
    </g>
   </g>
   <g id="line2d_11">
    <path clip-path="url(#pf7d36b1ad9)" d="M 199.980022 134.968671 
L 197.109277 138.908267 
" style="fill:none;stroke:#ff0000;stroke-linecap:square;stroke-width:0.5;"/>
   </g>
   <g id="line2d_12">
    <path clip-path="url(#pf7d36b1ad9)" d="M 209.332185 128.287043 
L 199.980022 134.968671 
" style="fill:none;stroke:#ff0000;stroke-linecap:square;stroke-width:0.5;"/>
   </g>
   <g id="line2d_13">
    <path clip-path="url(#pf7d36b1ad9)" d="M 197.109276 138.908267 
L 196.003369 143.975926 
" style="fill:none;stroke:#ff0000;stroke-linecap:square;stroke-width:0.5;"/>
   </g>
   <g id="line2d_14">
    <path clip-path="url(#pf7d36b1ad9)" d="M 199.311553 151.944918 
L 196.003371 143.975926 
" style="fill:none;stroke:#ff0000;stroke-linecap:square;stroke-width:0.5;"/>
   </g>
   <g id="line2d_15">
    <path clip-path="url(#pf7d36b1ad9)" d="M 207.599387 157.72591 
L 199.311553 151.944917 
" style="fill:none;stroke:#ff0000;stroke-linecap:square;stroke-width:0.5;"/>
   </g>
   <g id="line2d_16">
    <path clip-path="url(#pf7d36b1ad9)" d="M 222.691397 159.446807 
L 207.599386 157.725911 
" style="fill:none;stroke:#ff0000;stroke-linecap:square;stroke-width:0.5;"/>
   </g>
   <g id="line2d_17">
    <path clip-path="url(#pf7d36b1ad9)" d="M 214.697366 127.051917 
L 209.332185 128.287044 
" style="fill:none;stroke:#ff0000;stroke-linecap:square;stroke-width:0.5;"/>
   </g>
   <g id="line2d_18">
    <path clip-path="url(#pf7d36b1ad9)" d="M 223.863462 127.210869 
L 214.697366 127.051917 
" style="fill:none;stroke:#ff0000;stroke-linecap:square;stroke-width:0.5;"/>
   </g>
   <g id="line2d_19">
    <path clip-path="url(#pf7d36b1ad9)" d="M 222.691397 159.446805 
L 231.398054 158.484282 
" style="fill:none;stroke:#ff0000;stroke-linecap:square;stroke-width:0.5;"/>
   </g>
   <g id="line2d_20">
    <path clip-path="url(#pf7d36b1ad9)" d="M 231.252737 128.438599 
L 223.863462 127.210867 
" style="fill:none;stroke:#ff0000;stroke-linecap:square;stroke-width:0.5;"/>
   </g>
   <g id="line2d_21">
    <path clip-path="url(#pf7d36b1ad9)" d="M 241.27409 132.708741 
L 231.252735 128.438601 
" style="fill:none;stroke:#ff0000;stroke-linecap:square;stroke-width:0.5;"/>
   </g>
   <g id="line2d_22">
    <path clip-path="url(#pf7d36b1ad9)" d="M 238.90678 155.772887 
L 245.709131 147.879589 
" style="fill:none;stroke:#ff0000;stroke-linecap:square;stroke-width:0.5;"/>
   </g>
   <g id="line2d_23">
    <path clip-path="url(#pf7d36b1ad9)" d="M 231.398054 158.484282 
L 238.906781 155.772887 
" style="fill:none;stroke:#ff0000;stroke-linecap:square;stroke-width:0.5;"/>
   </g>
   <g id="line2d_24">
    <path clip-path="url(#pf7d36b1ad9)" d="M 246.178874 144.458981 
L 244.840678 137.82488 
" style="fill:none;stroke:#ff0000;stroke-linecap:square;stroke-width:0.5;"/>
   </g>
   <g id="line2d_25">
    <path clip-path="url(#pf7d36b1ad9)" d="M 244.840675 137.824881 
L 241.274091 132.70874 
" style="fill:none;stroke:#ff0000;stroke-linecap:square;stroke-width:0.5;"/>
   </g>
   <g id="line2d_26">
    <path clip-path="url(#pf7d36b1ad9)" d="M 245.709134 147.879591 
L 246.178871 144.458981 
" style="fill:none;stroke:#ff0000;stroke-linecap:square;stroke-width:0.5;"/>
   </g>
   <g id="patch_110">
    <path d="M 54 252 
L 54 34.56 
" style="fill:none;stroke:#000000;stroke-linecap:square;stroke-linejoin:miter;stroke-width:0.8;"/>
   </g>
   <g id="patch_111">
    <path d="M 388.8 252 
L 388.8 34.56 
" style="fill:none;stroke:#000000;stroke-linecap:square;stroke-linejoin:miter;stroke-width:0.8;"/>
   </g>
   <g id="patch_112">
    <path d="M 54 252 
L 388.8 252 
" style="fill:none;stroke:#000000;stroke-linecap:square;stroke-linejoin:miter;stroke-width:0.8;"/>
   </g>
   <g id="patch_113">
    <path d="M 54 34.56 
L 388.8 34.56 
" style="fill:none;stroke:#000000;stroke-linecap:square;stroke-linejoin:miter;stroke-width:0.8;"/>
   </g>
  </g>
 </g>
 <defs>
  <clipPath id="pf7d36b1ad9">
   <rect height="217.44" width="334.8" x="54" y="34.56"/>
  </clipPath>
 </defs>
</svg>
