<?xml version="1.0" encoding="utf-8" standalone="no"?>
<!DOCTYPE svg PUBLIC "-//W3C//DTD SVG 1.1//EN"
  "http://www.w3.org/Graphics/SVG/1.1/DTD/svg11.dtd">
<!-- Created with matplotlib (http://matplotlib.org/) -->
<svg height="576pt" version="1.1" viewBox="0 0 576 576" width="576pt" xmlns="http://www.w3.org/2000/svg" xmlns:xlink="http://www.w3.org/1999/xlink">
 <defs>
  <style type="text/css">
*{stroke-linecap:butt;stroke-linejoin:round;}
  </style>
 </defs>
 <g id="figure_1">
  <g id="patch_1">
   <path d="M 0 576 
L 576 576 
L 576 0 
L 0 0 
z
" style="fill:#ffffff;"/>
  </g>
  <g id="axes_1">
   <g id="patch_2">
    <path d="M 72 504 
L 429.12 504 
L 429.12 69.12 
L 72 69.12 
z
" style="fill:#ffffff;"/>
   </g>
   <g id="PathCollection_1">
    <path clip-path="url(#p46d2b3be99)" d="M 407.476364 504 
L 411.083636 504 
L 414.690909 504 
L 418.298182 504 
L 421.905455 504 
L 425.512727 504 
L 429.12 504 
L 429.12 499.607273 
L 429.12 495.214545 
L 429.12 490.821818 
L 429.12 486.429091 
L 429.12 482.036364 
L 429.12 477.643636 
L 429.12 475.737685 
L 427.577056 477.643636 
L 425.512727 480.193564 
L 424.020864 482.036364 
L 421.905455 484.649426 
L 420.464713 486.429091 
L 418.298182 489.105302 
L 416.908583 490.821818 
L 414.690909 493.561183 
L 413.352407 495.214545 
L 411.083636 498.017028 
L 409.796232 499.607273 
L 407.476364 502.472873 
L 406.240084 504 
z
" style="fill:#4b64d5;"/>
   </g>
   <g id="PathCollection_2">
    <path clip-path="url(#p46d2b3be99)" d="M 75.607273 504 
L 79.214545 504 
L 82.821818 504 
L 84.358766 504 
L 82.821818 502.245827 
L 80.510047 499.607273 
L 79.214545 498.128669 
L 76.661267 495.214545 
L 75.607273 494.011584 
L 72.812481 490.821818 
L 72 489.894505 
L 72 490.821818 
L 72 495.214545 
L 72 499.607273 
L 72 504 
z
" style="fill:#6f92f3;"/>
    <path clip-path="url(#p46d2b3be99)" d="M 364.189091 504 
L 367.796364 504 
L 371.403636 504 
L 375.010909 504 
L 378.618182 504 
L 382.225455 504 
L 385.832727 504 
L 389.44 504 
L 393.047273 504 
L 396.654545 504 
L 400.261818 504 
L 403.869091 504 
L 406.240084 504 
L 407.476364 502.472873 
L 409.796232 499.607273 
L 411.083636 498.017028 
L 413.352407 495.214545 
L 414.690909 493.561183 
L 416.908583 490.821818 
L 418.298182 489.105302 
L 420.464713 486.429091 
L 421.905455 484.649426 
L 424.020864 482.036364 
L 425.512727 480.193564 
L 427.577056 477.643636 
L 429.12 475.737685 
L 429.12 473.250909 
L 429.12 468.858182 
L 429.12 464.465455 
L 429.12 460.072727 
L 429.12 455.68 
L 429.12 451.287273 
L 429.12 446.894545 
L 429.12 442.501818 
L 429.12 438.109091 
L 429.12 433.716364 
L 429.12 429.323636 
L 429.12 424.930909 
L 429.12 423.260988 
L 427.768102 424.930909 
L 425.512727 427.716885 
L 424.211979 429.323636 
L 421.905455 432.172774 
L 420.655839 433.716364 
L 418.298182 436.628642 
L 417.099682 438.109091 
L 414.690909 441.08453 
L 413.543541 442.501818 
L 411.083636 445.540375 
L 409.987333 446.894545 
L 407.476364 449.996225 
L 406.431209 451.287273 
L 403.869091 454.452132 
L 402.875054 455.68 
L 400.261818 458.90798 
L 399.318895 460.072727 
L 396.654545 463.363846 
L 395.762723 464.465455 
L 393.047273 467.819719 
L 392.20659 468.858182 
L 389.44 472.275616 
L 388.650444 473.250909 
L 385.832727 476.731473 
L 385.094284 477.643636 
L 382.225455 481.187336 
L 381.538118 482.036364 
L 378.618182 485.643219 
L 377.981973 486.429091 
L 375.010909 490.099103 
L 374.425834 490.821818 
L 371.403636 494.554938 
L 370.86965 495.214545 
L 367.796364 499.010827 
L 367.313506 499.607273 
L 364.189091 503.466683 
L 363.757344 504 
z
" style="fill:#6f92f3;"/>
    <path clip-path="url(#p46d2b3be99)" d="M 429.12 133.461608 
L 429.12 130.618182 
L 429.12 126.225455 
L 429.12 121.832727 
L 429.12 117.44 
L 429.12 113.047273 
L 429.12 108.654545 
L 429.12 104.261818 
L 429.12 99.869091 
L 429.12 95.476364 
L 429.12 91.083636 
L 429.12 86.690909 
L 429.12 82.298182 
L 429.12 77.905455 
L 429.12 73.512727 
L 429.12 69.12 
L 425.512727 69.12 
L 421.905455 69.12 
L 418.298182 69.12 
L 414.690909 69.12 
L 411.083636 69.12 
L 407.476364 69.12 
L 403.869091 69.12 
L 400.261818 69.12 
L 396.654545 69.12 
L 393.047273 69.12 
L 389.44 69.12 
L 385.832727 69.12 
L 385.080054 69.12 
L 385.832727 69.452542 
L 389.44 71.046247 
L 393.047273 72.63993 
L 395.022727 73.512727 
L 396.654545 74.233699 
L 400.261818 75.827421 
L 403.869091 77.580835 
L 404.19687 77.905455 
L 407.165654 82.298182 
L 407.476364 82.757928 
L 410.134426 86.690909 
L 411.083636 88.095377 
L 413.103255 91.083636 
L 414.690909 93.432797 
L 416.072031 95.476364 
L 418.243581 99.869091 
L 418.298182 100.033378 
L 419.636626 104.261818 
L 421.027031 108.654545 
L 421.905455 111.41396 
L 422.4287 113.047273 
L 423.868528 117.44 
L 425.308336 121.832727 
L 425.512727 122.456304 
L 426.748169 126.225455 
L 428.187979 130.618182 
z
" style="fill:#6f92f3;"/>
    <path clip-path="url(#p46d2b3be99)" d="M 75.607273 109.310553 
L 76.2766 108.654545 
L 79.214545 105.775089 
L 80.758555 104.261818 
L 82.821818 102.2396 
L 85.240487 99.869091 
L 86.429091 98.704163 
L 89.722461 95.476364 
L 90.036364 95.168708 
L 93.643636 91.633225 
L 94.204395 91.083636 
L 97.250909 88.097805 
L 98.686372 86.690909 
L 100.858182 84.562321 
L 103.168315 82.298182 
L 104.465455 81.026859 
L 107.650244 77.905455 
L 108.072727 77.49138 
L 111.68 73.564557 
L 111.726059 73.512727 
L 115.287273 69.505361 
L 115.62973 69.12 
L 115.287273 69.12 
L 111.68 69.12 
L 108.072727 69.12 
L 104.465455 69.12 
L 100.858182 69.12 
L 97.250909 69.12 
L 93.643636 69.12 
L 90.036364 69.12 
L 86.429091 69.12 
L 82.821818 69.12 
L 79.214545 69.12 
L 75.607273 69.12 
L 72 69.12 
L 72 73.512727 
L 72 77.905455 
L 72 82.298182 
L 72 86.690909 
L 72 91.083636 
L 72 95.476364 
L 72 99.869091 
L 72 104.261818 
L 72 108.654545 
L 72 112.845974 
z
" style="fill:#6f92f3;"/>
   </g>
   <g id="PathCollection_3">
    <path clip-path="url(#p46d2b3be99)" d="M 82.821818 502.245827 
L 84.358766 504 
L 86.429091 504 
L 90.036364 504 
L 93.643636 504 
L 97.250909 504 
L 100.858182 504 
L 104.465455 504 
L 108.072727 504 
L 111.68 504 
L 115.287273 504 
L 118.894545 504 
L 122.501818 504 
L 126.109091 504 
L 129.716364 504 
L 133.323636 504 
L 136.930909 504 
L 140.538182 504 
L 144.145455 504 
L 147.752727 504 
L 151.36 504 
L 154.967273 504 
L 158.574545 504 
L 162.181818 504 
L 165.789091 504 
L 169.396364 504 
L 173.003636 504 
L 176.610909 504 
L 180.218182 504 
L 183.825455 504 
L 187.432727 504 
L 191.04 504 
L 194.647273 504 
L 198.254545 504 
L 201.861818 504 
L 205.469091 504 
L 209.076364 504 
L 210.814051 504 
L 209.076364 503.453254 
L 205.469091 502.318222 
L 201.861818 501.350733 
L 198.254545 500.51218 
L 194.647273 499.673646 
L 194.361762 499.607273 
L 191.04 498.835062 
L 187.432727 497.996525 
L 183.825455 497.157962 
L 180.218182 496.319416 
L 176.610909 495.480843 
L 175.465363 495.214545 
L 173.003636 494.642293 
L 169.396364 493.803734 
L 165.789091 492.965181 
L 162.181818 492.126644 
L 158.574545 491.288082 
L 156.568824 490.821818 
L 154.967273 490.449512 
L 151.36 489.61097 
L 147.752727 488.772413 
L 144.145455 487.933863 
L 140.538182 487.095291 
L 137.672284 486.429091 
L 136.930909 486.256753 
L 133.323636 485.418195 
L 129.716364 484.579655 
L 126.109091 483.741082 
L 122.501818 482.902525 
L 120.597945 482.036364 
L 118.894545 480.837168 
L 116.096504 477.643636 
L 115.287273 476.72004 
L 112.247724 473.250909 
L 111.68 472.602945 
L 108.398935 468.858182 
L 108.072727 468.485871 
L 104.550156 464.465455 
L 104.465455 464.368781 
L 100.858182 460.251673 
L 100.701395 460.072727 
L 97.250909 456.134566 
L 96.852639 455.68 
L 93.643636 452.017481 
L 93.00385 451.287273 
L 90.036364 447.900357 
L 89.320789 446.894545 
L 87.324771 442.501818 
L 86.429091 440.205064 
L 85.611705 438.109091 
L 83.898629 433.716364 
L 82.821818 430.955194 
L 82.185542 429.323636 
L 80.472487 424.930909 
L 79.214545 421.705259 
L 78.759406 420.538182 
L 77.046338 416.145455 
L 75.607273 412.455361 
L 75.33326 411.752727 
L 73.62018 407.36 
L 72 403.205456 
L 72 407.36 
L 72 411.752727 
L 72 416.145455 
L 72 420.538182 
L 72 424.930909 
L 72 429.323636 
L 72 433.716364 
L 72 438.109091 
L 72 442.501818 
L 72 446.894545 
L 72 451.287273 
L 72 455.68 
L 72 460.072727 
L 72 464.465455 
L 72 468.858182 
L 72 473.250909 
L 72 477.643636 
L 72 482.036364 
L 72 486.429091 
L 72 489.894505 
L 72.812481 490.821818 
L 75.607273 494.011584 
L 76.661267 495.214545 
L 79.214545 498.128669 
L 80.510047 499.607273 
z
" style="fill:#97b8ff;"/>
    <path clip-path="url(#p46d2b3be99)" d="M 274.007273 504 
L 277.614545 504 
L 281.221818 504 
L 284.829091 504 
L 288.436364 504 
L 292.043636 504 
L 295.650909 504 
L 299.258182 504 
L 302.865455 504 
L 306.472727 504 
L 310.08 504 
L 313.687273 504 
L 317.294545 504 
L 320.901818 504 
L 324.509091 504 
L 328.116364 504 
L 331.723636 504 
L 335.330909 504 
L 338.938182 504 
L 342.545455 504 
L 346.152727 504 
L 349.76 504 
L 353.367273 504 
L 356.974545 504 
L 360.581818 504 
L 363.757344 504 
L 364.189091 503.466683 
L 367.313506 499.607273 
L 367.796364 499.010827 
L 370.86965 495.214545 
L 371.403636 494.554938 
L 374.425834 490.821818 
L 375.010909 490.099103 
L 377.981973 486.429091 
L 378.618182 485.643219 
L 381.538118 482.036364 
L 382.225455 481.187336 
L 385.094284 477.643636 
L 385.832727 476.731473 
L 388.650444 473.250909 
L 389.44 472.275616 
L 392.20659 468.858182 
L 393.047273 467.819719 
L 395.762723 464.465455 
L 396.654545 463.363846 
L 399.318895 460.072727 
L 400.261818 458.90798 
L 402.875054 455.68 
L 403.869091 454.452132 
L 406.431209 451.287273 
L 407.476364 449.996225 
L 409.987333 446.894545 
L 411.083636 445.540375 
L 413.543541 442.501818 
L 414.690909 441.08453 
L 417.099682 438.109091 
L 418.298182 436.628642 
L 420.655839 433.716364 
L 421.905455 432.172774 
L 424.211979 429.323636 
L 425.512727 427.716885 
L 427.768102 424.930909 
L 429.12 423.260988 
L 429.12 420.538182 
L 429.12 416.145455 
L 429.12 411.752727 
L 429.12 407.36 
L 429.12 402.967273 
L 429.12 398.574545 
L 429.12 394.181818 
L 429.12 389.789091 
L 429.12 385.396364 
L 429.12 381.003636 
L 429.12 376.610909 
L 429.12 372.218182 
L 429.12 367.825455 
L 429.12 363.432727 
L 429.12 359.04 
L 429.12 354.647273 
L 429.12 350.254545 
L 429.12 345.861818 
L 429.12 341.469091 
L 429.12 337.076364 
L 429.12 332.683636 
L 429.12 328.290909 
L 429.12 323.898182 
L 429.12 319.505455 
L 429.12 315.112727 
L 429.12 310.72 
L 429.12 306.327273 
L 429.12 301.934545 
L 429.12 297.541818 
L 429.12 293.149091 
L 429.12 288.756364 
L 429.12 284.363636 
L 429.12 279.970909 
L 429.12 275.578182 
L 429.12 271.185455 
L 429.12 266.792727 
L 429.12 262.4 
L 429.12 258.007273 
L 429.12 253.614545 
L 429.12 249.221818 
L 429.12 244.829091 
L 429.12 240.436364 
L 429.12 236.043636 
L 429.12 231.650909 
L 429.12 227.258182 
L 429.12 222.865455 
L 429.12 218.472727 
L 429.12 214.08 
L 429.12 209.687273 
L 429.12 205.294545 
L 429.12 200.901818 
L 429.12 196.509091 
L 429.12 192.116364 
L 429.12 187.723636 
L 429.12 183.330909 
L 429.12 178.938182 
L 429.12 174.545455 
L 429.12 170.152727 
L 429.12 165.76 
L 429.12 161.367273 
L 429.12 156.974545 
L 429.12 152.581818 
L 429.12 148.189091 
L 429.12 143.796364 
L 429.12 139.403636 
L 429.12 135.010909 
L 429.12 133.461608 
L 428.187979 130.618182 
L 426.748169 126.225455 
L 425.512727 122.456304 
L 425.308336 121.832727 
L 423.868528 117.44 
L 422.4287 113.047273 
L 421.905455 111.41396 
L 421.027031 108.654545 
L 419.636626 104.261818 
L 418.298182 100.033378 
L 418.243581 99.869091 
L 416.072031 95.476364 
L 414.690909 93.432797 
L 413.103255 91.083636 
L 411.083636 88.095377 
L 410.134426 86.690909 
L 407.476364 82.757928 
L 407.165654 82.298182 
L 404.19687 77.905455 
L 403.869091 77.580835 
L 400.261818 75.827421 
L 396.654545 74.233699 
L 395.022727 73.512727 
L 393.047273 72.63993 
L 389.44 71.046247 
L 385.832727 69.452542 
L 385.080054 69.12 
L 382.225455 69.12 
L 378.618182 69.12 
L 375.010909 69.12 
L 371.403636 69.12 
L 367.796364 69.12 
L 364.189091 69.12 
L 360.581818 69.12 
L 356.974545 69.12 
L 353.367273 69.12 
L 349.76 69.12 
L 346.152727 69.12 
L 342.545455 69.12 
L 338.938182 69.12 
L 335.330909 69.12 
L 331.723636 69.12 
L 328.116364 69.12 
L 324.509091 69.12 
L 320.901818 69.12 
L 317.294545 69.12 
L 313.687273 69.12 
L 310.08 69.12 
L 306.472727 69.12 
L 302.865455 69.12 
L 299.258182 69.12 
L 295.650909 69.12 
L 292.718876 69.12 
L 295.650909 70.415388 
L 299.258182 72.009109 
L 302.661499 73.512727 
L 302.865455 73.602836 
L 306.472727 75.19655 
L 310.08 76.79025 
L 312.60415 77.905455 
L 313.687273 78.383994 
L 317.294545 79.977694 
L 320.901818 81.571378 
L 322.546853 82.298182 
L 324.509091 83.165131 
L 328.116364 84.758848 
L 331.723636 86.352574 
L 332.489434 86.690909 
L 335.330909 87.946284 
L 338.938182 89.540003 
L 342.43209 91.083636 
L 342.545455 91.133722 
L 346.152727 92.727436 
L 349.76 94.321144 
L 352.374731 95.476364 
L 353.367273 95.914882 
L 356.974545 97.508573 
L 360.581818 99.102288 
L 362.317413 99.869091 
L 364.189091 100.696016 
L 367.796364 102.289732 
L 371.403636 103.883459 
L 372.260025 104.261818 
L 375.010909 105.477169 
L 378.618182 107.070876 
L 381.956204 108.654545 
L 382.225455 108.853199 
L 385.059978 113.047273 
L 385.832727 114.190664 
L 388.028759 117.44 
L 389.44 119.528129 
L 390.997535 121.832727 
L 393.047273 125.775831 
L 393.229077 126.225455 
L 394.623784 130.618182 
L 396.056251 135.010909 
L 396.654545 136.836201 
L 397.496107 139.403636 
L 398.935922 143.796364 
L 400.261818 147.841456 
L 400.375765 148.189091 
L 401.815568 152.581818 
L 403.255404 156.974545 
L 403.869091 158.846837 
L 404.695225 161.367273 
L 406.135049 165.76 
L 407.476364 169.852165 
L 407.574882 170.152727 
L 409.014705 174.545455 
L 410.454545 178.938182 
L 411.083636 180.857466 
L 411.894359 183.330909 
L 413.334172 187.723636 
L 414.690909 191.862842 
L 414.774009 192.116364 
L 416.21383 196.509091 
L 417.653665 200.901818 
L 418.298182 202.868176 
L 419.093485 205.294545 
L 420.5333 209.687273 
L 421.905455 213.873517 
L 421.973135 214.08 
L 423.412962 218.472727 
L 424.852773 222.865455 
L 425.512727 224.878888 
L 426.292604 227.258182 
L 427.176541 231.650909 
L 427.241145 236.043636 
L 427.305754 240.436364 
L 427.370372 244.829091 
L 427.434977 249.221818 
L 427.49959 253.614545 
L 427.5642 258.007273 
L 427.628814 262.4 
L 427.693427 266.792727 
L 427.758043 271.185455 
L 427.822658 275.578182 
L 427.887253 279.970909 
L 427.951867 284.363636 
L 428.016477 288.756364 
L 428.0811 293.149091 
L 428.145707 297.541818 
L 428.210316 301.934545 
L 428.274949 306.327273 
L 428.339555 310.72 
L 428.40416 315.112727 
L 428.468775 319.505455 
L 428.533372 323.898182 
L 428.598 328.290909 
L 428.662615 332.683636 
L 428.727211 337.076364 
L 428.791842 341.469091 
L 428.856438 345.861818 
L 428.921069 350.254545 
L 428.985666 354.647273 
L 428.700732 359.04 
L 427.389778 363.432727 
L 426.078813 367.825455 
L 425.512727 369.722322 
L 424.767881 372.218182 
L 423.456938 376.610909 
L 421.905455 379.451158 
L 420.846955 381.003636 
L 418.298182 384.152001 
L 417.290795 385.396364 
L 414.690909 388.607853 
L 413.734636 389.789091 
L 411.083636 393.063742 
L 410.178489 394.181818 
L 407.476364 397.519587 
L 406.622323 398.574545 
L 403.869091 401.975492 
L 403.066187 402.967273 
L 400.261818 406.431348 
L 399.510021 407.36 
L 396.654545 410.887231 
L 395.953881 411.752727 
L 393.047273 415.343094 
L 392.397711 416.145455 
L 389.44 419.798958 
L 388.841564 420.538182 
L 385.832727 424.254812 
L 385.285383 424.930909 
L 382.225455 428.710691 
L 381.729244 429.323636 
L 378.618182 433.166552 
L 378.173078 433.716364 
L 375.010909 437.622423 
L 374.616926 438.109091 
L 371.403636 442.078326 
L 371.060798 442.501818 
L 367.796364 446.534186 
L 367.504632 446.894545 
L 364.189091 450.990073 
L 363.948489 451.287273 
L 360.581818 455.445929 
L 360.392326 455.68 
L 356.974545 459.901788 
L 356.83616 460.072727 
L 353.367273 464.357644 
L 353.279994 464.465455 
L 349.76 468.813533 
L 349.723854 468.858182 
L 346.167689 473.250909 
L 346.152727 473.26939 
L 342.611536 477.643636 
L 342.545455 477.710993 
L 338.938182 479.488338 
L 335.330909 480.810222 
L 331.984917 482.036364 
L 331.723636 482.132108 
L 328.116364 483.453975 
L 324.509091 484.77584 
L 320.901818 486.097704 
L 319.997483 486.429091 
L 317.294545 487.419551 
L 313.687273 488.741431 
L 310.08 490.063303 
L 308.010063 490.821818 
L 306.472727 491.385165 
L 302.865455 492.707047 
L 299.258182 494.0289 
L 296.022607 495.214545 
L 295.650909 495.350751 
L 292.043636 496.672648 
L 288.436364 497.994498 
L 284.829091 499.316392 
L 284.035304 499.607273 
L 281.221818 500.638251 
L 277.614545 501.960117 
L 274.007273 503.281992 
L 272.047859 504 
z
" style="fill:#97b8ff;"/>
    <path clip-path="url(#p46d2b3be99)" d="M 72.182146 165.76 
L 75.607273 162.403042 
L 76.66408 161.367273 
L 79.214545 158.867598 
L 81.146045 156.974545 
L 82.821818 155.332129 
L 85.628 152.581818 
L 86.429091 151.796677 
L 90.036364 148.261257 
L 90.109995 148.189091 
L 93.643636 144.725772 
L 94.591925 143.796364 
L 97.250909 141.19032 
L 99.073871 139.403636 
L 100.858182 137.654835 
L 103.555829 135.010909 
L 104.465455 134.119382 
L 108.037746 130.618182 
L 108.072727 130.583897 
L 111.68 127.048418 
L 112.519676 126.225455 
L 115.287273 123.51296 
L 117.001654 121.832727 
L 118.894545 119.937812 
L 121.125514 117.44 
L 122.501818 115.89126 
L 125.029166 113.047273 
L 126.109091 111.832054 
L 128.932827 108.654545 
L 129.716364 107.77285 
L 132.8365 104.261818 
L 133.323636 103.71365 
L 136.740141 99.869091 
L 136.930909 99.654422 
L 140.538182 95.595226 
L 140.64381 95.476364 
L 144.145455 91.536029 
L 144.547481 91.083636 
L 147.752727 87.476806 
L 148.451128 86.690909 
L 151.36 83.4176 
L 153.598525 82.298182 
L 154.967273 81.797913 
L 158.574545 80.854485 
L 162.181818 79.911048 
L 165.789091 78.967605 
L 169.396364 78.024169 
L 169.850271 77.905455 
L 173.003636 77.080717 
L 176.610909 76.137257 
L 180.218182 75.193831 
L 183.825455 74.25038 
L 186.645898 73.512727 
L 187.432727 73.306942 
L 191.04 72.363503 
L 194.647273 71.420053 
L 198.254545 70.476627 
L 201.861818 69.533164 
L 203.441566 69.12 
L 201.861818 69.12 
L 198.254545 69.12 
L 194.647273 69.12 
L 191.04 69.12 
L 187.432727 69.12 
L 183.825455 69.12 
L 180.218182 69.12 
L 176.610909 69.12 
L 173.003636 69.12 
L 169.396364 69.12 
L 165.789091 69.12 
L 162.181818 69.12 
L 158.574545 69.12 
L 154.967273 69.12 
L 151.36 69.12 
L 147.752727 69.12 
L 144.145455 69.12 
L 140.538182 69.12 
L 136.930909 69.12 
L 133.323636 69.12 
L 129.716364 69.12 
L 126.109091 69.12 
L 122.501818 69.12 
L 118.894545 69.12 
L 115.62973 69.12 
L 115.287273 69.505361 
L 111.726059 73.512727 
L 111.68 73.564557 
L 108.072727 77.49138 
L 107.650244 77.905455 
L 104.465455 81.026859 
L 103.168315 82.298182 
L 100.858182 84.562321 
L 98.686372 86.690909 
L 97.250909 88.097805 
L 94.204395 91.083636 
L 93.643636 91.633225 
L 90.036364 95.168708 
L 89.722461 95.476364 
L 86.429091 98.704163 
L 85.240487 99.869091 
L 82.821818 102.2396 
L 80.758555 104.261818 
L 79.214545 105.775089 
L 76.2766 108.654545 
L 75.607273 109.310553 
L 72 112.845974 
L 72 113.047273 
L 72 117.44 
L 72 121.832727 
L 72 126.225455 
L 72 130.618182 
L 72 135.010909 
L 72 139.403636 
L 72 143.796364 
L 72 148.189091 
L 72 152.581818 
L 72 156.974545 
L 72 161.367273 
L 72 165.76 
L 72 165.938521 
z
" style="fill:#97b8ff;"/>
   </g>
   <g id="PathCollection_4">
    <path clip-path="url(#p46d2b3be99)" d="M 194.647273 499.673646 
L 198.254545 500.51218 
L 201.861818 501.350733 
L 205.469091 502.318222 
L 209.076364 503.453254 
L 210.814051 504 
L 212.683636 504 
L 216.290909 504 
L 219.898182 504 
L 223.505455 504 
L 227.112727 504 
L 230.72 504 
L 234.327273 504 
L 237.934545 504 
L 241.541818 504 
L 245.149091 504 
L 248.756364 504 
L 252.363636 504 
L 255.970909 504 
L 259.578182 504 
L 263.185455 504 
L 266.792727 504 
L 270.4 504 
L 272.047859 504 
L 274.007273 503.281992 
L 277.614545 501.960117 
L 281.221818 500.638251 
L 284.035304 499.607273 
L 284.829091 499.316392 
L 288.436364 497.994498 
L 292.043636 496.672648 
L 295.650909 495.350751 
L 296.022607 495.214545 
L 299.258182 494.0289 
L 302.865455 492.707047 
L 306.472727 491.385165 
L 308.010063 490.821818 
L 310.08 490.063303 
L 313.687273 488.741431 
L 317.294545 487.419551 
L 319.997483 486.429091 
L 320.901818 486.097704 
L 324.509091 484.77584 
L 328.116364 483.453975 
L 331.723636 482.132108 
L 331.984917 482.036364 
L 335.330909 480.810222 
L 338.938182 479.488338 
L 342.545455 477.710993 
L 342.611536 477.643636 
L 346.152727 473.26939 
L 346.167689 473.250909 
L 349.723854 468.858182 
L 349.76 468.813533 
L 353.279994 464.465455 
L 353.367273 464.357644 
L 356.83616 460.072727 
L 356.974545 459.901788 
L 360.392326 455.68 
L 360.581818 455.445929 
L 363.948489 451.287273 
L 364.189091 450.990073 
L 367.504632 446.894545 
L 367.796364 446.534186 
L 371.060798 442.501818 
L 371.403636 442.078326 
L 374.616926 438.109091 
L 375.010909 437.622423 
L 378.173078 433.716364 
L 378.618182 433.166552 
L 381.729244 429.323636 
L 382.225455 428.710691 
L 385.285383 424.930909 
L 385.832727 424.254812 
L 388.841564 420.538182 
L 389.44 419.798958 
L 392.397711 416.145455 
L 393.047273 415.343094 
L 395.953881 411.752727 
L 396.654545 410.887231 
L 399.510021 407.36 
L 400.261818 406.431348 
L 403.066187 402.967273 
L 403.869091 401.975492 
L 406.622323 398.574545 
L 407.476364 397.519587 
L 410.178489 394.181818 
L 411.083636 393.063742 
L 413.734636 389.789091 
L 414.690909 388.607853 
L 417.290795 385.396364 
L 418.298182 384.152001 
L 420.846955 381.003636 
L 421.905455 379.451158 
L 423.456938 376.610909 
L 424.767881 372.218182 
L 425.512727 369.722322 
L 426.078813 367.825455 
L 427.389778 363.432727 
L 428.700732 359.04 
L 428.985666 354.647273 
L 428.921069 350.254545 
L 428.856438 345.861818 
L 428.791842 341.469091 
L 428.727211 337.076364 
L 428.662615 332.683636 
L 428.598 328.290909 
L 428.533372 323.898182 
L 428.468775 319.505455 
L 428.40416 315.112727 
L 428.339555 310.72 
L 428.274949 306.327273 
L 428.210316 301.934545 
L 428.145707 297.541818 
L 428.0811 293.149091 
L 428.016477 288.756364 
L 427.951867 284.363636 
L 427.887253 279.970909 
L 427.822658 275.578182 
L 427.758043 271.185455 
L 427.693427 266.792727 
L 427.628814 262.4 
L 427.5642 258.007273 
L 427.49959 253.614545 
L 427.434977 249.221818 
L 427.370372 244.829091 
L 427.305754 240.436364 
L 427.241145 236.043636 
L 427.176541 231.650909 
L 426.292604 227.258182 
L 425.512727 224.878888 
L 424.852773 222.865455 
L 423.412962 218.472727 
L 421.973135 214.08 
L 421.905455 213.873517 
L 420.5333 209.687273 
L 419.093485 205.294545 
L 418.298182 202.868176 
L 417.653665 200.901818 
L 416.21383 196.509091 
L 414.774009 192.116364 
L 414.690909 191.862842 
L 413.334172 187.723636 
L 411.894359 183.330909 
L 411.083636 180.857466 
L 410.454545 178.938182 
L 409.014705 174.545455 
L 407.574882 170.152727 
L 407.476364 169.852165 
L 406.135049 165.76 
L 404.695225 161.367273 
L 403.869091 158.846837 
L 403.255404 156.974545 
L 401.815568 152.581818 
L 400.375765 148.189091 
L 400.261818 147.841456 
L 398.935922 143.796364 
L 397.496107 139.403636 
L 396.654545 136.836201 
L 396.056251 135.010909 
L 394.623784 130.618182 
L 393.229077 126.225455 
L 393.047273 125.775831 
L 390.997535 121.832727 
L 389.44 119.528129 
L 388.028759 117.44 
L 385.832727 114.190664 
L 385.059978 113.047273 
L 382.225455 108.853199 
L 381.956204 108.654545 
L 378.618182 107.070876 
L 375.010909 105.477169 
L 372.260025 104.261818 
L 371.403636 103.883459 
L 367.796364 102.289732 
L 364.189091 100.696016 
L 362.317413 99.869091 
L 360.581818 99.102288 
L 356.974545 97.508573 
L 353.367273 95.914882 
L 352.374731 95.476364 
L 349.76 94.321144 
L 346.152727 92.727436 
L 342.545455 91.133722 
L 342.43209 91.083636 
L 338.938182 89.540003 
L 335.330909 87.946284 
L 332.489434 86.690909 
L 331.723636 86.352574 
L 328.116364 84.758848 
L 324.509091 83.165131 
L 322.546853 82.298182 
L 320.901818 81.571378 
L 317.294545 79.977694 
L 313.687273 78.383994 
L 312.60415 77.905455 
L 310.08 76.79025 
L 306.472727 75.19655 
L 302.865455 73.602836 
L 302.661499 73.512727 
L 299.258182 72.009109 
L 295.650909 70.415388 
L 292.718876 69.12 
L 292.043636 69.12 
L 288.436364 69.12 
L 284.829091 69.12 
L 281.221818 69.12 
L 277.614545 69.12 
L 274.007273 69.12 
L 270.4 69.12 
L 266.792727 69.12 
L 263.185455 69.12 
L 259.578182 69.12 
L 255.970909 69.12 
L 252.363636 69.12 
L 248.756364 69.12 
L 245.149091 69.12 
L 241.541818 69.12 
L 237.934545 69.12 
L 234.327273 69.12 
L 230.72 69.12 
L 227.112727 69.12 
L 223.505455 69.12 
L 219.898182 69.12 
L 216.290909 69.12 
L 212.683636 69.12 
L 209.076364 69.12 
L 205.469091 69.12 
L 203.441566 69.12 
L 201.861818 69.533164 
L 198.254545 70.476627 
L 194.647273 71.420053 
L 191.04 72.363503 
L 187.432727 73.306942 
L 186.645898 73.512727 
L 183.825455 74.25038 
L 180.218182 75.193831 
L 176.610909 76.137257 
L 173.003636 77.080717 
L 169.850271 77.905455 
L 169.396364 78.024169 
L 165.789091 78.967605 
L 162.181818 79.911048 
L 158.574545 80.854485 
L 154.967273 81.797913 
L 153.598525 82.298182 
L 151.36 83.4176 
L 148.451128 86.690909 
L 147.752727 87.476806 
L 144.547481 91.083636 
L 144.145455 91.536029 
L 140.64381 95.476364 
L 140.538182 95.595226 
L 136.930909 99.654422 
L 136.740141 99.869091 
L 133.323636 103.71365 
L 132.8365 104.261818 
L 129.716364 107.77285 
L 128.932827 108.654545 
L 126.109091 111.832054 
L 125.029166 113.047273 
L 122.501818 115.89126 
L 121.125514 117.44 
L 118.894545 119.937812 
L 117.001654 121.832727 
L 115.287273 123.51296 
L 112.519676 126.225455 
L 111.68 127.048418 
L 108.072727 130.583897 
L 108.037746 130.618182 
L 104.465455 134.119382 
L 103.555829 135.010909 
L 100.858182 137.654835 
L 99.073871 139.403636 
L 97.250909 141.19032 
L 94.591925 143.796364 
L 93.643636 144.725772 
L 90.109995 148.189091 
L 90.036364 148.261257 
L 86.429091 151.796677 
L 85.628 152.581818 
L 82.821818 155.332129 
L 81.146045 156.974545 
L 79.214545 158.867598 
L 76.66408 161.367273 
L 75.607273 162.403042 
L 72.182146 165.76 
L 72 165.938521 
L 72 170.152727 
L 72 174.545455 
L 72 178.938182 
L 72 183.330909 
L 72 187.723636 
L 72 192.116364 
L 72 196.509091 
L 72 200.901818 
L 72 205.294545 
L 72 209.687273 
L 72 214.08 
L 72 218.472727 
L 72 222.865455 
L 72 227.258182 
L 72 231.650909 
L 72 236.043636 
L 72 240.436364 
L 72 244.829091 
L 72 249.221818 
L 72 253.614545 
L 72 258.007273 
L 72 262.4 
L 72 266.792727 
L 72 271.185455 
L 72 275.578182 
L 72 279.970909 
L 72 284.363636 
L 72 288.756364 
L 72 293.149091 
L 72 297.541818 
L 72 301.934545 
L 72 306.327273 
L 72 310.72 
L 72 315.112727 
L 72 319.505455 
L 72 323.898182 
L 72 328.290909 
L 72 332.683636 
L 72 337.076364 
L 72 341.469091 
L 72 345.861818 
L 72 350.254545 
L 72 354.647273 
L 72 359.04 
L 72 363.432727 
L 72 367.825455 
L 72 372.218182 
L 72 376.610909 
L 72 381.003636 
L 72 385.396364 
L 72 389.789091 
L 72 394.181818 
L 72 398.574545 
L 72 402.967273 
L 72 403.205456 
L 73.62018 407.36 
L 75.33326 411.752727 
L 75.607273 412.455361 
L 77.046338 416.145455 
L 78.759406 420.538182 
L 79.214545 421.705259 
L 80.472487 424.930909 
L 82.185542 429.323636 
L 82.821818 430.955194 
L 83.898629 433.716364 
L 85.611705 438.109091 
L 86.429091 440.205064 
L 87.324771 442.501818 
L 89.320789 446.894545 
L 90.036364 447.900357 
L 93.00385 451.287273 
L 93.643636 452.017481 
L 96.852639 455.68 
L 97.250909 456.134566 
L 100.701395 460.072727 
L 100.858182 460.251673 
L 104.465455 464.368781 
L 104.550156 464.465455 
L 108.072727 468.485871 
L 108.398935 468.858182 
L 111.68 472.602945 
L 112.247724 473.250909 
L 115.287273 476.72004 
L 116.096504 477.643636 
L 118.894545 480.837168 
L 120.597945 482.036364 
L 122.501818 482.902525 
L 126.109091 483.741082 
L 129.716364 484.579655 
L 133.323636 485.418195 
L 136.930909 486.256753 
L 137.672284 486.429091 
L 140.538182 487.095291 
L 144.145455 487.933863 
L 147.752727 488.772413 
L 151.36 489.61097 
L 154.967273 490.449512 
L 156.568824 490.821818 
L 158.574545 491.288082 
L 162.181818 492.126644 
L 165.789091 492.965181 
L 169.396364 493.803734 
L 173.003636 494.642293 
L 175.465363 495.214545 
L 176.610909 495.480843 
L 180.218182 496.319416 
L 183.825455 497.157962 
L 187.432727 497.996525 
L 191.04 498.835062 
L 194.361762 499.607273 
z
M 239.12979 473.250909 
L 237.934545 472.874825 
L 234.327273 471.739821 
L 230.72 470.604792 
L 227.112727 469.469785 
L 225.168944 468.858182 
L 223.505455 468.334772 
L 219.898182 467.199778 
L 216.290909 466.064752 
L 212.683636 464.929741 
L 211.208032 464.465455 
L 209.076364 463.794743 
L 205.469091 462.659696 
L 201.861818 461.524701 
L 198.254545 460.389687 
L 197.247189 460.072727 
L 194.647273 459.254672 
L 191.04 458.394085 
L 187.432727 457.555531 
L 183.825455 456.716983 
L 180.218182 455.878429 
L 179.364584 455.68 
L 176.610909 455.039876 
L 173.003636 454.201301 
L 169.396364 453.362763 
L 165.789091 452.524217 
L 162.181818 451.685637 
L 160.468145 451.287273 
L 158.574545 450.847085 
L 154.967273 450.008549 
L 151.36 449.169975 
L 147.752727 448.331435 
L 144.145455 447.027097 
L 143.985388 446.894545 
L 140.538182 442.960128 
L 140.136624 442.501818 
L 136.930909 438.843039 
L 136.287845 438.109091 
L 133.323636 434.725936 
L 132.439091 433.716364 
L 129.716364 430.608832 
L 128.590308 429.323636 
L 126.109091 426.491736 
L 124.741553 424.930909 
L 122.501818 422.374598 
L 120.892811 420.538182 
L 118.894545 418.257501 
L 117.403496 416.145455 
L 115.4981 411.752727 
L 115.287273 411.212115 
L 113.785033 407.36 
L 112.071953 402.967273 
L 111.68 401.962212 
L 110.358884 398.574545 
L 108.645805 394.181818 
L 108.072727 392.712295 
L 106.932742 389.789091 
L 105.219661 385.396364 
L 104.465455 383.462399 
L 103.506588 381.003636 
L 101.793524 376.610909 
L 100.858182 374.212479 
L 100.080442 372.218182 
L 98.367381 367.825455 
L 97.250909 364.962596 
L 96.654287 363.432727 
L 94.941222 359.04 
L 93.643636 355.712656 
L 93.22816 354.647273 
L 91.515069 350.254545 
L 90.036364 346.462778 
L 89.802003 345.861818 
L 88.344735 341.469091 
L 88.239092 337.076364 
L 88.12775 332.683636 
L 88.016358 328.290909 
L 87.904993 323.898182 
L 87.793615 319.505455 
L 87.682246 315.112727 
L 87.57087 310.72 
L 87.459508 306.327273 
L 87.348126 301.934545 
L 87.236762 297.541818 
L 87.125377 293.149091 
L 87.014021 288.756364 
L 86.902636 284.363636 
L 86.79125 279.970909 
L 86.679895 275.578182 
L 86.568518 271.185455 
L 86.457143 266.792727 
L 86.429091 265.686315 
L 86.345768 262.4 
L 86.234403 258.007273 
L 86.123037 253.614545 
L 86.011673 249.221818 
L 85.900286 244.829091 
L 85.788912 240.436364 
L 85.677549 236.043636 
L 85.566174 231.650909 
L 85.96677 227.258182 
L 86.429091 225.943695 
L 87.511745 222.865455 
L 89.056713 218.472727 
L 90.036364 215.687346 
L 90.601682 214.08 
L 92.146639 209.687273 
L 93.643636 205.430902 
L 93.691594 205.294545 
L 95.236563 200.901818 
L 96.781529 196.509091 
L 97.250909 195.549407 
L 99.461373 192.116364 
L 100.858182 190.74736 
L 103.943305 187.723636 
L 104.465455 187.211878 
L 108.072727 183.676413 
L 108.425248 183.330909 
L 111.68 180.140971 
L 112.907216 178.938182 
L 115.287273 176.605482 
L 117.38915 174.545455 
L 118.894545 173.070032 
L 121.871103 170.152727 
L 122.501818 169.534567 
L 126.109091 165.999117 
L 126.346597 165.76 
L 129.716364 162.277182 
L 130.524966 161.367273 
L 133.323636 158.217958 
L 134.428616 156.974545 
L 136.930909 154.158763 
L 138.332282 152.581818 
L 140.538182 150.099542 
L 142.235938 148.189091 
L 144.145455 146.040349 
L 146.139595 143.796364 
L 147.752727 141.981122 
L 150.043236 139.403636 
L 151.36 137.921907 
L 153.946918 135.010909 
L 154.967273 133.862719 
L 157.850551 130.618182 
L 158.574545 129.803476 
L 161.754216 126.225455 
L 162.181818 125.744284 
L 165.657861 121.832727 
L 165.789091 121.685057 
L 169.396364 117.969029 
L 171.006114 117.44 
L 173.003636 116.917578 
L 176.610909 115.974141 
L 180.218182 115.030672 
L 183.825455 114.08723 
L 187.432727 113.143801 
L 187.801803 113.047273 
L 191.04 112.200351 
L 194.647273 111.2569 
L 198.254545 110.313469 
L 201.861818 109.370023 
L 204.597511 108.654545 
L 205.469091 108.426597 
L 209.076364 107.483156 
L 212.683636 106.539702 
L 216.290909 105.596263 
L 219.898182 104.652817 
L 221.39319 104.261818 
L 223.505455 103.709379 
L 227.112727 102.76593 
L 230.72 101.822485 
L 234.327273 100.879054 
L 237.934545 99.935591 
L 238.188814 99.869091 
L 241.541818 98.992162 
L 245.149091 98.048721 
L 248.756364 97.105264 
L 252.363636 96.161813 
L 254.984445 95.476364 
L 255.970909 95.218363 
L 259.578182 95.284003 
L 260.013574 95.476364 
L 263.185455 96.877727 
L 266.792727 98.471438 
L 269.956208 99.869091 
L 270.4 100.065162 
L 274.007273 101.658883 
L 277.614545 103.252606 
L 279.898849 104.261818 
L 281.221818 104.846308 
L 284.829091 106.440038 
L 288.436364 108.033741 
L 289.841525 108.654545 
L 292.043636 109.627444 
L 295.650909 111.221173 
L 299.258182 112.814901 
L 299.784153 113.047273 
L 302.865455 114.408587 
L 306.472727 116.002307 
L 309.726827 117.44 
L 310.08 117.596036 
L 313.687273 119.189759 
L 317.294545 120.783486 
L 319.669441 121.832727 
L 320.901818 122.377195 
L 324.509091 123.970898 
L 328.116364 125.564616 
L 329.612145 126.225455 
L 331.723636 127.15832 
L 335.330909 128.752033 
L 338.938182 130.345763 
L 339.554784 130.618182 
L 342.545455 131.939489 
L 346.152727 133.533205 
L 349.497415 135.010909 
L 349.76 135.12692 
L 353.367273 136.720647 
L 356.974545 138.314365 
L 359.34634 139.403636 
L 360.581818 140.286008 
L 362.954269 143.796364 
L 364.189091 145.623454 
L 365.923059 148.189091 
L 367.796364 151.55442 
L 368.24404 152.581818 
L 369.683873 156.974545 
L 371.123686 161.367273 
L 371.403636 162.221363 
L 372.563522 165.76 
L 374.00335 170.152727 
L 375.010909 173.226661 
L 375.443177 174.545455 
L 376.883009 178.938182 
L 378.322832 183.330909 
L 378.618182 184.231985 
L 379.762652 187.723636 
L 381.202472 192.116364 
L 382.225455 195.237326 
L 382.642309 196.509091 
L 384.082125 200.901818 
L 385.521949 205.294545 
L 385.832727 206.242694 
L 386.961772 209.687273 
L 388.401595 214.08 
L 389.44 217.248003 
L 389.841435 218.472727 
L 391.281257 222.865455 
L 392.721075 227.258182 
L 393.047273 228.253372 
L 394.160898 231.650909 
L 395.600721 236.043636 
L 396.654545 239.608136 
L 396.876487 240.436364 
L 396.941108 244.829091 
L 397.005715 249.221818 
L 397.070329 253.614545 
L 397.134943 258.007273 
L 397.199556 262.4 
L 397.264169 266.792727 
L 397.328777 271.185455 
L 397.393382 275.578182 
L 397.458009 279.970909 
L 397.522622 284.363636 
L 397.587231 288.756364 
L 397.651838 293.149091 
L 397.716455 297.541818 
L 397.78106 301.934545 
L 397.845665 306.327273 
L 397.910298 310.72 
L 397.974902 315.112727 
L 398.039501 319.505455 
L 398.10412 323.898182 
L 398.168729 328.290909 
L 398.233347 332.683636 
L 398.297956 337.076364 
L 398.362566 341.469091 
L 398.409031 345.861818 
L 397.286818 350.254545 
L 396.654545 352.373173 
L 395.975877 354.647273 
L 394.664931 359.04 
L 393.047273 362.619942 
L 392.588852 363.432727 
L 389.44 367.322338 
L 389.032701 367.825455 
L 385.832727 371.778198 
L 385.476536 372.218182 
L 382.225455 376.234085 
L 381.920395 376.610909 
L 378.618182 380.689943 
L 378.364229 381.003636 
L 375.010909 385.1458 
L 374.808063 385.396364 
L 371.403636 389.601657 
L 371.251898 389.789091 
L 367.796364 394.057545 
L 367.695758 394.181818 
L 364.189091 398.513418 
L 364.139604 398.574545 
L 360.583465 402.967273 
L 360.581818 402.969307 
L 357.027286 407.36 
L 356.974545 407.425148 
L 353.471133 411.752727 
L 353.367273 411.88102 
L 349.914979 416.145455 
L 349.76 416.336894 
L 346.35884 420.538182 
L 346.152727 420.792779 
L 342.802648 424.930909 
L 342.545455 425.248608 
L 339.246508 429.323636 
L 338.938182 429.704494 
L 335.690342 433.716364 
L 335.330909 434.160354 
L 332.134203 438.109091 
L 331.723636 438.616243 
L 328.578051 442.501818 
L 328.116364 443.072114 
L 324.509091 446.03312 
L 322.15834 446.894545 
L 320.901818 447.354993 
L 317.294545 448.67686 
L 313.687273 449.998741 
L 310.170924 451.287273 
L 310.08 451.320591 
L 306.472727 452.642441 
L 302.865455 453.964338 
L 299.258182 455.28619 
L 298.183514 455.68 
L 295.650909 456.608073 
L 292.043636 457.929947 
L 288.436364 459.251809 
L 286.196152 460.072727 
L 284.829091 460.573682 
L 281.221818 461.895556 
L 277.614545 463.217406 
L 274.208734 464.465455 
L 274.007273 464.53928 
L 270.4 465.861141 
L 266.792727 467.183008 
L 263.185455 468.504878 
L 262.221317 468.858182 
L 259.578182 469.82675 
L 255.970909 471.148624 
L 252.363636 472.470497 
L 250.233926 473.250909 
L 248.756364 473.792347 
L 245.149091 475.106645 
L 241.541818 474.009848 
z
" style="fill:#bcd2f7;"/>
   </g>
   <g id="PathCollection_5">
    <path clip-path="url(#p46d2b3be99)" d="M 241.541818 474.009848 
L 245.149091 475.106645 
L 248.756364 473.792347 
L 250.233926 473.250909 
L 252.363636 472.470497 
L 255.970909 471.148624 
L 259.578182 469.82675 
L 262.221317 468.858182 
L 263.185455 468.504878 
L 266.792727 467.183008 
L 270.4 465.861141 
L 274.007273 464.53928 
L 274.208734 464.465455 
L 277.614545 463.217406 
L 281.221818 461.895556 
L 284.829091 460.573682 
L 286.196152 460.072727 
L 288.436364 459.251809 
L 292.043636 457.929947 
L 295.650909 456.608073 
L 298.183514 455.68 
L 299.258182 455.28619 
L 302.865455 453.964338 
L 306.472727 452.642441 
L 310.08 451.320591 
L 310.170924 451.287273 
L 313.687273 449.998741 
L 317.294545 448.67686 
L 320.901818 447.354993 
L 322.15834 446.894545 
L 324.509091 446.03312 
L 328.116364 443.072114 
L 328.578051 442.501818 
L 331.723636 438.616243 
L 332.134203 438.109091 
L 335.330909 434.160354 
L 335.690342 433.716364 
L 338.938182 429.704494 
L 339.246508 429.323636 
L 342.545455 425.248608 
L 342.802648 424.930909 
L 346.152727 420.792779 
L 346.35884 420.538182 
L 349.76 416.336894 
L 349.914979 416.145455 
L 353.367273 411.88102 
L 353.471133 411.752727 
L 356.974545 407.425148 
L 357.027286 407.36 
L 360.581818 402.969307 
L 360.583465 402.967273 
L 364.139604 398.574545 
L 364.189091 398.513418 
L 367.695758 394.181818 
L 367.796364 394.057545 
L 371.251898 389.789091 
L 371.403636 389.601657 
L 374.808063 385.396364 
L 375.010909 385.1458 
L 378.364229 381.003636 
L 378.618182 380.689943 
L 381.920395 376.610909 
L 382.225455 376.234085 
L 385.476536 372.218182 
L 385.832727 371.778198 
L 389.032701 367.825455 
L 389.44 367.322338 
L 392.588852 363.432727 
L 393.047273 362.619942 
L 394.664931 359.04 
L 395.975877 354.647273 
L 396.654545 352.373173 
L 397.286818 350.254545 
L 398.409031 345.861818 
L 398.362566 341.469091 
L 398.297956 337.076364 
L 398.233347 332.683636 
L 398.168729 328.290909 
L 398.10412 323.898182 
L 398.039501 319.505455 
L 397.974902 315.112727 
L 397.910298 310.72 
L 397.845665 306.327273 
L 397.78106 301.934545 
L 397.716455 297.541818 
L 397.651838 293.149091 
L 397.587231 288.756364 
L 397.522622 284.363636 
L 397.458009 279.970909 
L 397.393382 275.578182 
L 397.328777 271.185455 
L 397.264169 266.792727 
L 397.199556 262.4 
L 397.134943 258.007273 
L 397.070329 253.614545 
L 397.005715 249.221818 
L 396.941108 244.829091 
L 396.876487 240.436364 
L 396.654545 239.608136 
L 395.600721 236.043636 
L 394.160898 231.650909 
L 393.047273 228.253372 
L 392.721075 227.258182 
L 391.281257 222.865455 
L 389.841435 218.472727 
L 389.44 217.248003 
L 388.401595 214.08 
L 386.961772 209.687273 
L 385.832727 206.242694 
L 385.521949 205.294545 
L 384.082125 200.901818 
L 382.642309 196.509091 
L 382.225455 195.237326 
L 381.202472 192.116364 
L 379.762652 187.723636 
L 378.618182 184.231985 
L 378.322832 183.330909 
L 376.883009 178.938182 
L 375.443177 174.545455 
L 375.010909 173.226661 
L 374.00335 170.152727 
L 372.563522 165.76 
L 371.403636 162.221363 
L 371.123686 161.367273 
L 369.683873 156.974545 
L 368.24404 152.581818 
L 367.796364 151.55442 
L 365.923059 148.189091 
L 364.189091 145.623454 
L 362.954269 143.796364 
L 360.581818 140.286008 
L 359.34634 139.403636 
L 356.974545 138.314365 
L 353.367273 136.720647 
L 349.76 135.12692 
L 349.497415 135.010909 
L 346.152727 133.533205 
L 342.545455 131.939489 
L 339.554784 130.618182 
L 338.938182 130.345763 
L 335.330909 128.752033 
L 331.723636 127.15832 
L 329.612145 126.225455 
L 328.116364 125.564616 
L 324.509091 123.970898 
L 320.901818 122.377195 
L 319.669441 121.832727 
L 317.294545 120.783486 
L 313.687273 119.189759 
L 310.08 117.596036 
L 309.726827 117.44 
L 306.472727 116.002307 
L 302.865455 114.408587 
L 299.784153 113.047273 
L 299.258182 112.814901 
L 295.650909 111.221173 
L 292.043636 109.627444 
L 289.841525 108.654545 
L 288.436364 108.033741 
L 284.829091 106.440038 
L 281.221818 104.846308 
L 279.898849 104.261818 
L 277.614545 103.252606 
L 274.007273 101.658883 
L 270.4 100.065162 
L 269.956208 99.869091 
L 266.792727 98.471438 
L 263.185455 96.877727 
L 260.013574 95.476364 
L 259.578182 95.284003 
L 255.970909 95.218363 
L 254.984445 95.476364 
L 252.363636 96.161813 
L 248.756364 97.105264 
L 245.149091 98.048721 
L 241.541818 98.992162 
L 238.188814 99.869091 
L 237.934545 99.935591 
L 234.327273 100.879054 
L 230.72 101.822485 
L 227.112727 102.76593 
L 223.505455 103.709379 
L 221.39319 104.261818 
L 219.898182 104.652817 
L 216.290909 105.596263 
L 212.683636 106.539702 
L 209.076364 107.483156 
L 205.469091 108.426597 
L 204.597511 108.654545 
L 201.861818 109.370023 
L 198.254545 110.313469 
L 194.647273 111.2569 
L 191.04 112.200351 
L 187.801803 113.047273 
L 187.432727 113.143801 
L 183.825455 114.08723 
L 180.218182 115.030672 
L 176.610909 115.974141 
L 173.003636 116.917578 
L 171.006114 117.44 
L 169.396364 117.969029 
L 165.789091 121.685057 
L 165.657861 121.832727 
L 162.181818 125.744284 
L 161.754216 126.225455 
L 158.574545 129.803476 
L 157.850551 130.618182 
L 154.967273 133.862719 
L 153.946918 135.010909 
L 151.36 137.921907 
L 150.043236 139.403636 
L 147.752727 141.981122 
L 146.139595 143.796364 
L 144.145455 146.040349 
L 142.235938 148.189091 
L 140.538182 150.099542 
L 138.332282 152.581818 
L 136.930909 154.158763 
L 134.428616 156.974545 
L 133.323636 158.217958 
L 130.524966 161.367273 
L 129.716364 162.277182 
L 126.346597 165.76 
L 126.109091 165.999117 
L 122.501818 169.534567 
L 121.871103 170.152727 
L 118.894545 173.070032 
L 117.38915 174.545455 
L 115.287273 176.605482 
L 112.907216 178.938182 
L 111.68 180.140971 
L 108.425248 183.330909 
L 108.072727 183.676413 
L 104.465455 187.211878 
L 103.943305 187.723636 
L 100.858182 190.74736 
L 99.461373 192.116364 
L 97.250909 195.549407 
L 96.781529 196.509091 
L 95.236563 200.901818 
L 93.691594 205.294545 
L 93.643636 205.430902 
L 92.146639 209.687273 
L 90.601682 214.08 
L 90.036364 215.687346 
L 89.056713 218.472727 
L 87.511745 222.865455 
L 86.429091 225.943695 
L 85.96677 227.258182 
L 85.566174 231.650909 
L 85.677549 236.043636 
L 85.788912 240.436364 
L 85.900286 244.829091 
L 86.011673 249.221818 
L 86.123037 253.614545 
L 86.234403 258.007273 
L 86.345768 262.4 
L 86.429091 265.686315 
L 86.457143 266.792727 
L 86.568518 271.185455 
L 86.679895 275.578182 
L 86.79125 279.970909 
L 86.902636 284.363636 
L 87.014021 288.756364 
L 87.125377 293.149091 
L 87.236762 297.541818 
L 87.348126 301.934545 
L 87.459508 306.327273 
L 87.57087 310.72 
L 87.682246 315.112727 
L 87.793615 319.505455 
L 87.904993 323.898182 
L 88.016358 328.290909 
L 88.12775 332.683636 
L 88.239092 337.076364 
L 88.344735 341.469091 
L 89.802003 345.861818 
L 90.036364 346.462778 
L 91.515069 350.254545 
L 93.22816 354.647273 
L 93.643636 355.712656 
L 94.941222 359.04 
L 96.654287 363.432727 
L 97.250909 364.962596 
L 98.367381 367.825455 
L 100.080442 372.218182 
L 100.858182 374.212479 
L 101.793524 376.610909 
L 103.506588 381.003636 
L 104.465455 383.462399 
L 105.219661 385.396364 
L 106.932742 389.789091 
L 108.072727 392.712295 
L 108.645805 394.181818 
L 110.358884 398.574545 
L 111.68 401.962212 
L 112.071953 402.967273 
L 113.785033 407.36 
L 115.287273 411.212115 
L 115.4981 411.752727 
L 117.403496 416.145455 
L 118.894545 418.257501 
L 120.892811 420.538182 
L 122.501818 422.374598 
L 124.741553 424.930909 
L 126.109091 426.491736 
L 128.590308 429.323636 
L 129.716364 430.608832 
L 132.439091 433.716364 
L 133.323636 434.725936 
L 136.287845 438.109091 
L 136.930909 438.843039 
L 140.136624 442.501818 
L 140.538182 442.960128 
L 143.985388 446.894545 
L 144.145455 447.027097 
L 147.752727 448.331435 
L 151.36 449.169975 
L 154.967273 450.008549 
L 158.574545 450.847085 
L 160.468145 451.287273 
L 162.181818 451.685637 
L 165.789091 452.524217 
L 169.396364 453.362763 
L 173.003636 454.201301 
L 176.610909 455.039876 
L 179.364584 455.68 
L 180.218182 455.878429 
L 183.825455 456.716983 
L 187.432727 457.555531 
L 191.04 458.394085 
L 194.647273 459.254672 
L 197.247189 460.072727 
L 198.254545 460.389687 
L 201.861818 461.524701 
L 205.469091 462.659696 
L 209.076364 463.794743 
L 211.208032 464.465455 
L 212.683636 464.929741 
L 216.290909 466.064752 
L 219.898182 467.199778 
L 223.505455 468.334772 
L 225.168944 468.858182 
L 227.112727 469.469785 
L 230.72 470.604792 
L 234.327273 471.739821 
L 237.934545 472.874825 
L 239.12979 473.250909 
z
M 239.523819 433.716364 
L 237.934545 433.2163 
L 234.327273 432.081269 
L 230.72 430.946256 
L 227.112727 429.811257 
L 225.562978 429.323636 
L 223.505455 428.676243 
L 219.898182 427.541226 
L 216.290909 426.406222 
L 212.683636 425.271215 
L 211.602093 424.930909 
L 209.076364 424.136188 
L 205.469091 423.001183 
L 201.861818 421.866175 
L 198.254545 420.731149 
L 197.641268 420.538182 
L 194.647273 419.596121 
L 191.04 418.46111 
L 187.432727 417.326105 
L 183.825455 416.275979 
L 183.263955 416.145455 
L 180.218182 415.437443 
L 176.610909 414.598881 
L 173.003636 413.760319 
L 169.396364 412.801513 
L 168.025533 411.752727 
L 165.789091 409.20022 
L 164.176745 407.36 
L 162.181818 405.08313 
L 160.327966 402.967273 
L 158.574545 400.966023 
L 156.479222 398.574545 
L 154.967273 396.848905 
L 152.63046 394.181818 
L 151.36 392.731804 
L 148.781706 389.789091 
L 147.752727 388.614676 
L 145.497974 385.396364 
L 144.145455 382.219157 
L 143.671427 381.003636 
L 141.958361 376.610909 
L 140.538182 372.969245 
L 140.245281 372.218182 
L 138.532207 367.825455 
L 136.930909 363.719344 
L 136.819134 363.432727 
L 135.106068 359.04 
L 133.392989 354.647273 
L 133.323636 354.469436 
L 131.679922 350.254545 
L 129.966832 345.861818 
L 129.716364 345.219558 
L 128.253774 341.469091 
L 126.540698 337.076364 
L 126.109091 335.969625 
L 124.827619 332.683636 
L 123.897173 328.290909 
L 123.829745 323.898182 
L 123.76231 319.505455 
L 123.673894 315.112727 
L 123.562522 310.72 
L 123.451152 306.327273 
L 123.339785 301.934545 
L 123.228415 297.541818 
L 123.117033 293.149091 
L 123.005647 288.756364 
L 122.89431 284.363636 
L 122.782925 279.970909 
L 122.671551 275.578182 
L 122.560186 271.185455 
L 122.501818 268.883615 
L 122.4488 266.792727 
L 122.337435 262.4 
L 122.226059 258.007273 
L 122.114686 253.614545 
L 122.003329 249.221818 
L 121.891951 244.829091 
L 122.480847 240.436364 
L 122.501818 240.376737 
L 124.025797 236.043636 
L 125.570771 231.650909 
L 126.109091 230.120315 
L 127.115725 227.258182 
L 128.660689 222.865455 
L 129.716364 219.863918 
L 130.20566 218.472727 
L 131.750609 214.08 
L 133.323636 212.036586 
L 135.704459 209.687273 
L 136.930909 208.485241 
L 139.910007 205.294545 
L 140.538182 204.603861 
L 143.828052 200.901818 
L 144.145455 200.544648 
L 147.731723 196.509091 
L 147.752727 196.485455 
L 151.36 192.426227 
L 151.635363 192.116364 
L 154.967273 188.366999 
L 155.539006 187.723636 
L 158.574545 184.307775 
L 159.442651 183.330909 
L 162.181818 180.248577 
L 163.346323 178.938182 
L 165.789091 176.189371 
L 167.249986 174.545455 
L 169.396364 172.130178 
L 171.153645 170.152727 
L 173.003636 168.070959 
L 175.057301 165.76 
L 176.610909 164.011755 
L 178.960982 161.367273 
L 180.218182 159.952565 
L 182.864629 156.974545 
L 183.825455 155.89335 
L 187.432727 153.003385 
L 188.957698 152.581818 
L 191.04 152.03721 
L 194.647273 151.093772 
L 198.254545 150.150332 
L 201.861818 149.206883 
L 205.469091 148.263457 
L 205.753428 148.189091 
L 209.076364 147.320006 
L 212.683636 146.376561 
L 216.290909 145.433133 
L 219.898182 144.489669 
L 222.549053 143.796364 
L 223.505455 143.546228 
L 227.112727 142.60279 
L 230.72 141.659352 
L 234.327273 140.715913 
L 237.934545 139.772463 
L 239.344749 139.403636 
L 241.541818 138.829012 
L 245.149091 137.885578 
L 248.756364 136.94213 
L 252.363636 135.9987 
L 255.970909 135.055235 
L 259.578182 136.089783 
L 263.185455 137.683511 
L 266.792727 139.277214 
L 267.078874 139.403636 
L 270.4 140.870942 
L 274.007273 142.464662 
L 277.021503 143.796364 
L 277.614545 144.058374 
L 281.221818 145.652097 
L 284.829091 147.245808 
L 286.964141 148.189091 
L 288.436364 148.839533 
L 292.043636 150.433243 
L 295.650909 152.026965 
L 296.906794 152.581818 
L 299.258182 153.620668 
L 302.865455 155.214396 
L 306.472727 156.808112 
L 306.849439 156.974545 
L 310.08 158.401828 
L 313.687273 159.995539 
L 316.792094 161.367273 
L 317.294545 161.589258 
L 320.901818 163.182977 
L 324.509091 164.776693 
L 326.734731 165.76 
L 328.116364 166.370419 
L 331.723636 167.96414 
L 335.330909 169.557825 
L 336.679212 170.152727 
L 338.938182 171.676132 
L 340.927362 174.545455 
L 342.545455 177.274341 
L 343.311468 178.938182 
L 344.751303 183.330909 
L 346.152727 187.606485 
L 346.191126 187.723636 
L 347.630954 192.116364 
L 349.070781 196.509091 
L 349.76 198.611809 
L 350.5106 200.901818 
L 351.950423 205.294545 
L 353.367273 209.617195 
L 353.390243 209.687273 
L 354.830066 214.08 
L 356.269889 218.472727 
L 356.974545 220.622534 
L 357.70972 222.865455 
L 359.14954 227.258182 
L 360.581818 231.627842 
L 360.589379 231.650909 
L 362.029192 236.043636 
L 363.469017 240.436364 
L 364.189091 242.633196 
L 364.908857 244.829091 
L 366.348672 249.221818 
L 366.641058 253.614545 
L 366.705672 258.007273 
L 366.770279 262.4 
L 366.834895 266.792727 
L 366.899511 271.185455 
L 366.964116 275.578182 
L 367.02873 279.970909 
L 367.093337 284.363636 
L 367.157952 288.756364 
L 367.222574 293.149091 
L 367.287181 297.541818 
L 367.351792 301.934545 
L 367.416406 306.327273 
L 367.481012 310.72 
L 367.545617 315.112727 
L 367.610239 319.505455 
L 367.674861 323.898182 
L 367.739457 328.290909 
L 367.796364 332.15964 
L 367.804071 332.683636 
L 367.796364 332.744606 
L 367.183851 337.076364 
L 365.87292 341.469091 
L 364.311349 345.861818 
L 364.189091 346.036762 
L 360.774577 350.254545 
L 360.581818 350.49265 
L 357.218411 354.647273 
L 356.974545 354.94851 
L 353.662249 359.04 
L 353.367273 359.404366 
L 350.106129 363.432727 
L 349.76 363.860284 
L 346.549954 367.825455 
L 346.152727 368.316126 
L 342.9938 372.218182 
L 342.545455 372.772001 
L 339.437638 376.610909 
L 338.938182 377.22786 
L 335.881496 381.003636 
L 335.330909 381.683742 
L 332.325328 385.396364 
L 331.723636 386.139604 
L 328.769167 389.789091 
L 328.116364 390.595461 
L 325.213022 394.181818 
L 324.509091 395.051347 
L 321.656869 398.574545 
L 320.901818 399.50722 
L 318.100717 402.967273 
L 317.294545 403.963097 
L 314.544567 407.36 
L 313.687273 408.418966 
L 310.985731 411.752727 
L 310.08 412.5779 
L 306.472727 413.899752 
L 302.865455 415.221626 
L 300.34441 416.145455 
L 299.258182 416.543499 
L 295.650909 417.865349 
L 292.043636 419.187223 
L 288.436364 420.509096 
L 288.356991 420.538182 
L 284.829091 421.830958 
L 281.221818 423.152827 
L 277.614545 424.474694 
L 276.369575 424.930909 
L 274.007273 425.796567 
L 270.4 427.118429 
L 266.792727 428.440291 
L 264.382179 429.323636 
L 263.185455 429.762176 
L 259.578182 431.084033 
L 255.970909 432.405911 
L 252.394804 433.716364 
L 252.363636 433.727785 
L 248.756364 435.049627 
L 245.149091 435.486332 
L 241.541818 434.351326 
z
" style="fill:#dddcdc;"/>
   </g>
   <g id="PathCollection_6">
    <path clip-path="url(#p46d2b3be99)" d="M 241.541818 434.351326 
L 245.149091 435.486332 
L 248.756364 435.049627 
L 252.363636 433.727785 
L 252.394804 433.716364 
L 255.970909 432.405911 
L 259.578182 431.084033 
L 263.185455 429.762176 
L 264.382179 429.323636 
L 266.792727 428.440291 
L 270.4 427.118429 
L 274.007273 425.796567 
L 276.369575 424.930909 
L 277.614545 424.474694 
L 281.221818 423.152827 
L 284.829091 421.830958 
L 288.356991 420.538182 
L 288.436364 420.509096 
L 292.043636 419.187223 
L 295.650909 417.865349 
L 299.258182 416.543499 
L 300.34441 416.145455 
L 302.865455 415.221626 
L 306.472727 413.899752 
L 310.08 412.5779 
L 310.985731 411.752727 
L 313.687273 408.418966 
L 314.544567 407.36 
L 317.294545 403.963097 
L 318.100717 402.967273 
L 320.901818 399.50722 
L 321.656869 398.574545 
L 324.509091 395.051347 
L 325.213022 394.181818 
L 328.116364 390.595461 
L 328.769167 389.789091 
L 331.723636 386.139604 
L 332.325328 385.396364 
L 335.330909 381.683742 
L 335.881496 381.003636 
L 338.938182 377.22786 
L 339.437638 376.610909 
L 342.545455 372.772001 
L 342.9938 372.218182 
L 346.152727 368.316126 
L 346.549954 367.825455 
L 349.76 363.860284 
L 350.106129 363.432727 
L 353.367273 359.404366 
L 353.662249 359.04 
L 356.974545 354.94851 
L 357.218411 354.647273 
L 360.581818 350.49265 
L 360.774577 350.254545 
L 364.189091 346.036762 
L 364.311349 345.861818 
L 365.87292 341.469091 
L 367.183851 337.076364 
L 367.796364 332.744606 
L 367.804071 332.683636 
L 367.796364 332.15964 
L 367.739457 328.290909 
L 367.674861 323.898182 
L 367.610239 319.505455 
L 367.545617 315.112727 
L 367.481012 310.72 
L 367.416406 306.327273 
L 367.351792 301.934545 
L 367.287181 297.541818 
L 367.222574 293.149091 
L 367.157952 288.756364 
L 367.093337 284.363636 
L 367.02873 279.970909 
L 366.964116 275.578182 
L 366.899511 271.185455 
L 366.834895 266.792727 
L 366.770279 262.4 
L 366.705672 258.007273 
L 366.641058 253.614545 
L 366.348672 249.221818 
L 364.908857 244.829091 
L 364.189091 242.633196 
L 363.469017 240.436364 
L 362.029192 236.043636 
L 360.589379 231.650909 
L 360.581818 231.627842 
L 359.14954 227.258182 
L 357.70972 222.865455 
L 356.974545 220.622534 
L 356.269889 218.472727 
L 354.830066 214.08 
L 353.390243 209.687273 
L 353.367273 209.617195 
L 351.950423 205.294545 
L 350.5106 200.901818 
L 349.76 198.611809 
L 349.070781 196.509091 
L 347.630954 192.116364 
L 346.191126 187.723636 
L 346.152727 187.606485 
L 344.751303 183.330909 
L 343.311468 178.938182 
L 342.545455 177.274341 
L 340.927362 174.545455 
L 338.938182 171.676132 
L 336.679212 170.152727 
L 335.330909 169.557825 
L 331.723636 167.96414 
L 328.116364 166.370419 
L 326.734731 165.76 
L 324.509091 164.776693 
L 320.901818 163.182977 
L 317.294545 161.589258 
L 316.792094 161.367273 
L 313.687273 159.995539 
L 310.08 158.401828 
L 306.849439 156.974545 
L 306.472727 156.808112 
L 302.865455 155.214396 
L 299.258182 153.620668 
L 296.906794 152.581818 
L 295.650909 152.026965 
L 292.043636 150.433243 
L 288.436364 148.839533 
L 286.964141 148.189091 
L 284.829091 147.245808 
L 281.221818 145.652097 
L 277.614545 144.058374 
L 277.021503 143.796364 
L 274.007273 142.464662 
L 270.4 140.870942 
L 267.078874 139.403636 
L 266.792727 139.277214 
L 263.185455 137.683511 
L 259.578182 136.089783 
L 255.970909 135.055235 
L 252.363636 135.9987 
L 248.756364 136.94213 
L 245.149091 137.885578 
L 241.541818 138.829012 
L 239.344749 139.403636 
L 237.934545 139.772463 
L 234.327273 140.715913 
L 230.72 141.659352 
L 227.112727 142.60279 
L 223.505455 143.546228 
L 222.549053 143.796364 
L 219.898182 144.489669 
L 216.290909 145.433133 
L 212.683636 146.376561 
L 209.076364 147.320006 
L 205.753428 148.189091 
L 205.469091 148.263457 
L 201.861818 149.206883 
L 198.254545 150.150332 
L 194.647273 151.093772 
L 191.04 152.03721 
L 188.957698 152.581818 
L 187.432727 153.003385 
L 183.825455 155.89335 
L 182.864629 156.974545 
L 180.218182 159.952565 
L 178.960982 161.367273 
L 176.610909 164.011755 
L 175.057301 165.76 
L 173.003636 168.070959 
L 171.153645 170.152727 
L 169.396364 172.130178 
L 167.249986 174.545455 
L 165.789091 176.189371 
L 163.346323 178.938182 
L 162.181818 180.248577 
L 159.442651 183.330909 
L 158.574545 184.307775 
L 155.539006 187.723636 
L 154.967273 188.366999 
L 151.635363 192.116364 
L 151.36 192.426227 
L 147.752727 196.485455 
L 147.731723 196.509091 
L 144.145455 200.544648 
L 143.828052 200.901818 
L 140.538182 204.603861 
L 139.910007 205.294545 
L 136.930909 208.485241 
L 135.704459 209.687273 
L 133.323636 212.036586 
L 131.750609 214.08 
L 130.20566 218.472727 
L 129.716364 219.863918 
L 128.660689 222.865455 
L 127.115725 227.258182 
L 126.109091 230.120315 
L 125.570771 231.650909 
L 124.025797 236.043636 
L 122.501818 240.376737 
L 122.480847 240.436364 
L 121.891951 244.829091 
L 122.003329 249.221818 
L 122.114686 253.614545 
L 122.226059 258.007273 
L 122.337435 262.4 
L 122.4488 266.792727 
L 122.501818 268.883615 
L 122.560186 271.185455 
L 122.671551 275.578182 
L 122.782925 279.970909 
L 122.89431 284.363636 
L 123.005647 288.756364 
L 123.117033 293.149091 
L 123.228415 297.541818 
L 123.339785 301.934545 
L 123.451152 306.327273 
L 123.562522 310.72 
L 123.673894 315.112727 
L 123.76231 319.505455 
L 123.829745 323.898182 
L 123.897173 328.290909 
L 124.827619 332.683636 
L 126.109091 335.969625 
L 126.540698 337.076364 
L 128.253774 341.469091 
L 129.716364 345.219558 
L 129.966832 345.861818 
L 131.679922 350.254545 
L 133.323636 354.469436 
L 133.392989 354.647273 
L 135.106068 359.04 
L 136.819134 363.432727 
L 136.930909 363.719344 
L 138.532207 367.825455 
L 140.245281 372.218182 
L 140.538182 372.969245 
L 141.958361 376.610909 
L 143.671427 381.003636 
L 144.145455 382.219157 
L 145.497974 385.396364 
L 147.752727 388.614676 
L 148.781706 389.789091 
L 151.36 392.731804 
L 152.63046 394.181818 
L 154.967273 396.848905 
L 156.479222 398.574545 
L 158.574545 400.966023 
L 160.327966 402.967273 
L 162.181818 405.08313 
L 164.176745 407.36 
L 165.789091 409.20022 
L 168.025533 411.752727 
L 169.396364 412.801513 
L 173.003636 413.760319 
L 176.610909 414.598881 
L 180.218182 415.437443 
L 183.263955 416.145455 
L 183.825455 416.275979 
L 187.432727 417.326105 
L 191.04 418.46111 
L 194.647273 419.596121 
L 197.641268 420.538182 
L 198.254545 420.731149 
L 201.861818 421.866175 
L 205.469091 423.001183 
L 209.076364 424.136188 
L 211.602093 424.930909 
L 212.683636 425.271215 
L 216.290909 426.406222 
L 219.898182 427.541226 
L 223.505455 428.676243 
L 225.562978 429.323636 
L 227.112727 429.811257 
L 230.72 430.946256 
L 234.327273 432.081269 
L 237.934545 433.2163 
L 239.523819 433.716364 
z
M 239.917898 394.181818 
L 237.934545 393.557764 
L 234.327273 392.422751 
L 230.72 391.287742 
L 227.112727 390.152722 
L 225.957044 389.789091 
L 223.505455 389.017711 
L 219.898182 387.882702 
L 216.290909 386.747681 
L 212.683636 385.612677 
L 211.996154 385.396364 
L 209.076364 384.477662 
L 205.469091 383.342644 
L 201.861818 382.207627 
L 198.254545 381.072622 
L 198.035297 381.003636 
L 194.647273 379.937601 
L 191.04 377.477668 
L 190.341141 376.610909 
L 187.432727 373.00376 
L 186.799324 372.218182 
L 183.825455 368.529821 
L 183.257531 367.825455 
L 180.218182 364.055921 
L 179.715705 363.432727 
L 176.610909 359.582023 
L 176.173882 359.04 
L 173.382088 354.647273 
L 173.003636 353.713225 
L 171.681504 350.254545 
L 170.047431 345.861818 
L 169.396364 344.132643 
L 168.338621 341.469091 
L 166.657563 337.076364 
L 165.789091 334.726399 
L 164.992454 332.683636 
L 163.26298 328.290909 
L 162.181818 325.476476 
L 161.566316 323.898182 
L 159.853245 319.505455 
L 159.443205 315.112727 
L 159.359816 310.72 
L 159.279063 306.327273 
L 159.201555 301.934545 
L 159.11034 297.541818 
L 158.975913 293.149091 
L 158.803591 288.756364 
L 158.62883 284.363636 
L 158.574545 282.999052 
L 158.454083 279.970909 
L 158.279317 275.578182 
L 158.104565 271.185455 
L 157.929806 266.792727 
L 157.755039 262.4 
L 157.580283 258.007273 
L 158.128621 253.614545 
L 158.574545 252.14899 
L 159.465197 249.221818 
L 160.801755 244.829091 
L 162.138336 240.436364 
L 162.181818 240.293456 
L 163.474893 236.043636 
L 165.062716 231.650909 
L 165.789091 230.693704 
L 168.842115 227.258182 
L 169.396364 226.634496 
L 172.74576 222.865455 
L 173.003636 222.57527 
L 176.610909 218.516074 
L 176.64943 218.472727 
L 180.218182 214.456864 
L 180.553087 214.08 
L 183.825455 210.397667 
L 184.456753 209.687273 
L 187.432727 206.338438 
L 188.360402 205.294545 
L 191.04 202.27924 
L 192.264064 200.901818 
L 194.647273 198.220034 
L 196.167732 196.509091 
L 198.254545 194.160835 
L 200.071382 192.116364 
L 201.861818 190.101607 
L 205.469091 188.100299 
L 206.909262 187.723636 
L 209.076364 187.156854 
L 212.683636 186.213415 
L 216.290909 185.269967 
L 219.898182 184.326531 
L 223.505455 183.383076 
L 223.70492 183.330909 
L 227.112727 182.439654 
L 230.72 181.496209 
L 234.327273 180.552757 
L 237.934545 179.60931 
L 240.500597 178.938182 
L 241.541818 178.66586 
L 245.149091 177.722432 
L 248.756364 176.778995 
L 252.363636 175.835544 
L 255.970909 175.301859 
L 259.578182 176.895578 
L 263.185455 178.489292 
L 264.201483 178.938182 
L 266.792727 180.083019 
L 270.4 181.676734 
L 274.007273 183.270438 
L 274.144146 183.330909 
L 277.614545 184.864157 
L 281.221818 186.457877 
L 284.086787 187.723636 
L 284.829091 188.051591 
L 288.436364 189.645313 
L 292.043636 191.23903 
L 294.029435 192.116364 
L 295.650909 192.832739 
L 299.258182 194.42646 
L 302.865455 195.995673 
L 304.055658 196.509091 
L 306.472727 197.546678 
L 310.08 199.095169 
L 313.687273 200.643652 
L 314.288674 200.901818 
L 317.294545 203.087144 
L 318.37889 205.294545 
L 319.81872 209.687273 
L 320.901818 212.991692 
L 321.258537 214.08 
L 322.698365 218.472727 
L 324.13818 222.865455 
L 324.509091 223.997058 
L 325.578011 227.258182 
L 327.017841 231.650909 
L 328.116364 235.002373 
L 328.457663 236.043636 
L 329.897494 240.436364 
L 331.337325 244.829091 
L 331.723636 246.007685 
L 332.777143 249.221818 
L 334.216969 253.614545 
L 335.330909 257.013039 
L 335.656794 258.007273 
L 336.341004 262.4 
L 336.40562 266.792727 
L 336.47023 271.185455 
L 336.534841 275.578182 
L 336.599453 279.970909 
L 336.66406 284.363636 
L 336.728682 288.756364 
L 336.793293 293.149091 
L 336.857906 297.541818 
L 336.922514 301.934545 
L 336.987138 306.327273 
L 337.051747 310.72 
L 337.116354 315.112727 
L 337.180965 319.505455 
L 337.063649 323.898182 
L 335.769963 328.290909 
L 335.330909 329.00684 
L 332.516455 332.683636 
L 331.723636 333.662958 
L 328.960288 337.076364 
L 328.116364 338.118822 
L 325.404148 341.469091 
L 324.509091 342.574703 
L 321.847992 345.861818 
L 320.901818 347.030578 
L 318.291845 350.254545 
L 317.294545 351.486455 
L 314.735676 354.647273 
L 313.687273 355.942315 
L 311.179536 359.04 
L 310.08 360.398194 
L 307.623379 363.432727 
L 306.472727 364.854056 
L 304.0672 367.825455 
L 302.865455 369.309918 
L 300.51106 372.218182 
L 299.258182 373.765791 
L 296.954907 376.610909 
L 295.650909 378.221669 
L 292.043636 380.444521 
L 290.517851 381.003636 
L 288.436364 381.766384 
L 284.829091 383.088246 
L 281.221818 384.410119 
L 278.530447 385.396364 
L 277.614545 385.731993 
L 274.007273 387.053852 
L 270.4 388.37572 
L 266.792727 389.69759 
L 266.54303 389.789091 
L 263.185455 391.01946 
L 259.578182 392.341335 
L 255.970909 393.663199 
L 254.555626 394.181818 
L 252.363636 394.985055 
L 248.756364 396.306934 
L 245.149091 395.827805 
L 241.541818 394.692783 
z
" style="fill:#f3c8b2;"/>
   </g>
   <g id="PathCollection_7">
    <path clip-path="url(#p46d2b3be99)" d="M 241.541818 394.692783 
L 245.149091 395.827805 
L 248.756364 396.306934 
L 252.363636 394.985055 
L 254.555626 394.181818 
L 255.970909 393.663199 
L 259.578182 392.341335 
L 263.185455 391.01946 
L 266.54303 389.789091 
L 266.792727 389.69759 
L 270.4 388.37572 
L 274.007273 387.053852 
L 277.614545 385.731993 
L 278.530447 385.396364 
L 281.221818 384.410119 
L 284.829091 383.088246 
L 288.436364 381.766384 
L 290.517851 381.003636 
L 292.043636 380.444521 
L 295.650909 378.221669 
L 296.954907 376.610909 
L 299.258182 373.765791 
L 300.51106 372.218182 
L 302.865455 369.309918 
L 304.0672 367.825455 
L 306.472727 364.854056 
L 307.623379 363.432727 
L 310.08 360.398194 
L 311.179536 359.04 
L 313.687273 355.942315 
L 314.735676 354.647273 
L 317.294545 351.486455 
L 318.291845 350.254545 
L 320.901818 347.030578 
L 321.847992 345.861818 
L 324.509091 342.574703 
L 325.404148 341.469091 
L 328.116364 338.118822 
L 328.960288 337.076364 
L 331.723636 333.662958 
L 332.516455 332.683636 
L 335.330909 329.00684 
L 335.769963 328.290909 
L 337.063649 323.898182 
L 337.180965 319.505455 
L 337.116354 315.112727 
L 337.051747 310.72 
L 336.987138 306.327273 
L 336.922514 301.934545 
L 336.857906 297.541818 
L 336.793293 293.149091 
L 336.728682 288.756364 
L 336.66406 284.363636 
L 336.599453 279.970909 
L 336.534841 275.578182 
L 336.47023 271.185455 
L 336.40562 266.792727 
L 336.341004 262.4 
L 335.656794 258.007273 
L 335.330909 257.013039 
L 334.216969 253.614545 
L 332.777143 249.221818 
L 331.723636 246.007685 
L 331.337325 244.829091 
L 329.897494 240.436364 
L 328.457663 236.043636 
L 328.116364 235.002373 
L 327.017841 231.650909 
L 325.578011 227.258182 
L 324.509091 223.997058 
L 324.13818 222.865455 
L 322.698365 218.472727 
L 321.258537 214.08 
L 320.901818 212.991692 
L 319.81872 209.687273 
L 318.37889 205.294545 
L 317.294545 203.087144 
L 314.288674 200.901818 
L 313.687273 200.643652 
L 310.08 199.095169 
L 306.472727 197.546678 
L 304.055658 196.509091 
L 302.865455 195.995673 
L 299.258182 194.42646 
L 295.650909 192.832739 
L 294.029435 192.116364 
L 292.043636 191.23903 
L 288.436364 189.645313 
L 284.829091 188.051591 
L 284.086787 187.723636 
L 281.221818 186.457877 
L 277.614545 184.864157 
L 274.144146 183.330909 
L 274.007273 183.270438 
L 270.4 181.676734 
L 266.792727 180.083019 
L 264.201483 178.938182 
L 263.185455 178.489292 
L 259.578182 176.895578 
L 255.970909 175.301859 
L 252.363636 175.835544 
L 248.756364 176.778995 
L 245.149091 177.722432 
L 241.541818 178.66586 
L 240.500597 178.938182 
L 237.934545 179.60931 
L 234.327273 180.552757 
L 230.72 181.496209 
L 227.112727 182.439654 
L 223.70492 183.330909 
L 223.505455 183.383076 
L 219.898182 184.326531 
L 216.290909 185.269967 
L 212.683636 186.213415 
L 209.076364 187.156854 
L 206.909262 187.723636 
L 205.469091 188.100299 
L 201.861818 190.101607 
L 200.071382 192.116364 
L 198.254545 194.160835 
L 196.167732 196.509091 
L 194.647273 198.220034 
L 192.264064 200.901818 
L 191.04 202.27924 
L 188.360402 205.294545 
L 187.432727 206.338438 
L 184.456753 209.687273 
L 183.825455 210.397667 
L 180.553087 214.08 
L 180.218182 214.456864 
L 176.64943 218.472727 
L 176.610909 218.516074 
L 173.003636 222.57527 
L 172.74576 222.865455 
L 169.396364 226.634496 
L 168.842115 227.258182 
L 165.789091 230.693704 
L 165.062716 231.650909 
L 163.474893 236.043636 
L 162.181818 240.293456 
L 162.138336 240.436364 
L 160.801755 244.829091 
L 159.465197 249.221818 
L 158.574545 252.14899 
L 158.128621 253.614545 
L 157.580283 258.007273 
L 157.755039 262.4 
L 157.929806 266.792727 
L 158.104565 271.185455 
L 158.279317 275.578182 
L 158.454083 279.970909 
L 158.574545 282.999052 
L 158.62883 284.363636 
L 158.803591 288.756364 
L 158.975913 293.149091 
L 159.11034 297.541818 
L 159.201555 301.934545 
L 159.279063 306.327273 
L 159.359816 310.72 
L 159.443205 315.112727 
L 159.853245 319.505455 
L 161.566316 323.898182 
L 162.181818 325.476476 
L 163.26298 328.290909 
L 164.992454 332.683636 
L 165.789091 334.726399 
L 166.657563 337.076364 
L 168.338621 341.469091 
L 169.396364 344.132643 
L 170.047431 345.861818 
L 171.681504 350.254545 
L 173.003636 353.713225 
L 173.382088 354.647273 
L 176.173882 359.04 
L 176.610909 359.582023 
L 179.715705 363.432727 
L 180.218182 364.055921 
L 183.257531 367.825455 
L 183.825455 368.529821 
L 186.799324 372.218182 
L 187.432727 373.00376 
L 190.341141 376.610909 
L 191.04 377.477668 
L 194.647273 379.937601 
L 198.035297 381.003636 
L 198.254545 381.072622 
L 201.861818 382.207627 
L 205.469091 383.342644 
L 209.076364 384.477662 
L 211.996154 385.396364 
L 212.683636 385.612677 
L 216.290909 386.747681 
L 219.898182 387.882702 
L 223.505455 389.017711 
L 225.957044 389.789091 
L 227.112727 390.152722 
L 230.72 391.287742 
L 234.327273 392.422751 
L 237.934545 393.557764 
L 239.917898 394.181818 
z
M 239.90614 354.647273 
L 237.934545 354.031311 
L 234.327273 352.904324 
L 230.72 351.777342 
L 227.112727 350.650357 
L 225.845795 350.254545 
L 223.505455 349.523381 
L 219.898182 348.396393 
L 216.290909 347.269406 
L 214.420953 345.861818 
L 212.683636 343.848543 
L 210.782007 341.469091 
L 209.076364 339.334872 
L 207.271387 337.076364 
L 205.469091 334.821206 
L 203.760768 332.683636 
L 201.861818 330.307537 
L 200.508672 328.290909 
L 198.639444 323.898182 
L 198.254545 322.870219 
L 196.994677 319.505455 
L 195.349906 315.112727 
L 194.647273 313.236187 
L 193.704591 310.72 
L 192.514997 306.327273 
L 192.391434 301.934545 
L 192.266349 297.541818 
L 192.134292 293.149091 
L 192.000695 288.756364 
L 191.867098 284.363636 
L 191.733494 279.970909 
L 191.599898 275.578182 
L 191.466298 271.185455 
L 191.872359 266.792727 
L 193.208925 262.4 
L 194.545492 258.007273 
L 194.647273 257.672763 
L 195.882055 253.614545 
L 197.784148 249.221818 
L 198.254545 248.66514 
L 201.663509 244.829091 
L 201.861818 244.605937 
L 205.469091 240.546718 
L 205.567159 240.436364 
L 209.076364 236.487514 
L 209.470823 236.043636 
L 212.683636 232.428298 
L 213.374473 231.650909 
L 216.290909 228.369096 
L 217.278139 227.258182 
L 219.898182 224.516706 
L 223.505455 223.219951 
L 224.860875 222.865455 
L 227.112727 222.276506 
L 230.72 221.333063 
L 234.327273 220.389619 
L 237.934545 219.446181 
L 241.541818 218.502731 
L 241.65654 218.472727 
L 245.149091 217.559295 
L 248.756364 216.615849 
L 252.363636 215.672408 
L 255.970909 216.107647 
L 259.578182 217.701361 
L 261.324117 218.472727 
L 263.185455 219.291846 
L 266.792727 220.864202 
L 270.4 222.414558 
L 271.450376 222.865455 
L 274.007273 223.963061 
L 277.614545 225.511558 
L 281.221818 227.060059 
L 281.683352 227.258182 
L 284.829091 228.608552 
L 288.436364 230.157045 
L 291.558248 231.650909 
L 292.043636 231.961847 
L 294.815277 236.043636 
L 295.650909 238.37687 
L 296.325961 240.436364 
L 297.765783 244.829091 
L 299.205609 249.221818 
L 299.258182 249.382212 
L 300.64544 253.614545 
L 302.085264 258.007273 
L 302.865455 260.387537 
L 303.525087 262.4 
L 304.970097 266.792727 
L 306.046256 271.185455 
L 306.110377 275.578182 
L 306.174391 279.970909 
L 306.239478 284.363636 
L 306.306173 288.756364 
L 306.372859 293.149091 
L 306.439549 297.541818 
L 306.472727 299.72733 
L 306.506598 301.934545 
L 306.57393 306.327273 
L 306.641139 310.72 
L 306.472727 311.144171 
L 304.292286 315.112727 
L 302.865455 316.879661 
L 300.745073 319.505455 
L 299.258182 321.346761 
L 297.197861 323.898182 
L 295.650909 325.813863 
L 293.650642 328.290909 
L 292.043636 330.280966 
L 290.103438 332.683636 
L 288.436364 334.748074 
L 286.556222 337.076364 
L 284.829091 339.215172 
L 283.009007 341.469091 
L 281.221818 343.682271 
L 279.168975 345.861818 
L 277.614545 347.079374 
L 274.007273 348.403089 
L 270.4 349.726799 
L 268.961826 350.254545 
L 266.792727 351.050509 
L 263.185455 352.374217 
L 259.578182 353.697933 
L 256.991111 354.647273 
L 255.970909 355.021642 
L 252.363636 356.345354 
L 248.756364 357.412258 
L 245.149091 356.285272 
L 241.541818 355.158288 
z
" style="fill:#f6a586;"/>
   </g>
   <g id="PathCollection_8">
    <path clip-path="url(#p46d2b3be99)" d="M 241.541818 355.158288 
L 245.149091 356.285272 
L 248.756364 357.412258 
L 252.363636 356.345354 
L 255.970909 355.021642 
L 256.991111 354.647273 
L 259.578182 353.697933 
L 263.185455 352.374217 
L 266.792727 351.050509 
L 268.961826 350.254545 
L 270.4 349.726799 
L 274.007273 348.403089 
L 277.614545 347.079374 
L 279.168975 345.861818 
L 281.221818 343.682271 
L 283.009007 341.469091 
L 284.829091 339.215172 
L 286.556222 337.076364 
L 288.436364 334.748074 
L 290.103438 332.683636 
L 292.043636 330.280966 
L 293.650642 328.290909 
L 295.650909 325.813863 
L 297.197861 323.898182 
L 299.258182 321.346761 
L 300.745073 319.505455 
L 302.865455 316.879661 
L 304.292286 315.112727 
L 306.472727 311.144171 
L 306.641139 310.72 
L 306.57393 306.327273 
L 306.506598 301.934545 
L 306.472727 299.72733 
L 306.439549 297.541818 
L 306.372859 293.149091 
L 306.306173 288.756364 
L 306.239478 284.363636 
L 306.174391 279.970909 
L 306.110377 275.578182 
L 306.046256 271.185455 
L 304.970097 266.792727 
L 303.525087 262.4 
L 302.865455 260.387537 
L 302.085264 258.007273 
L 300.64544 253.614545 
L 299.258182 249.382212 
L 299.205609 249.221818 
L 297.765783 244.829091 
L 296.325961 240.436364 
L 295.650909 238.37687 
L 294.815277 236.043636 
L 292.043636 231.961847 
L 291.558248 231.650909 
L 288.436364 230.157045 
L 284.829091 228.608552 
L 281.683352 227.258182 
L 281.221818 227.060059 
L 277.614545 225.511558 
L 274.007273 223.963061 
L 271.450376 222.865455 
L 270.4 222.414558 
L 266.792727 220.864202 
L 263.185455 219.291846 
L 261.324117 218.472727 
L 259.578182 217.701361 
L 255.970909 216.107647 
L 252.363636 215.672408 
L 248.756364 216.615849 
L 245.149091 217.559295 
L 241.65654 218.472727 
L 241.541818 218.502731 
L 237.934545 219.446181 
L 234.327273 220.389619 
L 230.72 221.333063 
L 227.112727 222.276506 
L 224.860875 222.865455 
L 223.505455 223.219951 
L 219.898182 224.516706 
L 217.278139 227.258182 
L 216.290909 228.369096 
L 213.374473 231.650909 
L 212.683636 232.428298 
L 209.470823 236.043636 
L 209.076364 236.487514 
L 205.567159 240.436364 
L 205.469091 240.546718 
L 201.861818 244.605937 
L 201.663509 244.829091 
L 198.254545 248.66514 
L 197.784148 249.221818 
L 195.882055 253.614545 
L 194.647273 257.672763 
L 194.545492 258.007273 
L 193.208925 262.4 
L 191.872359 266.792727 
L 191.466298 271.185455 
L 191.599898 275.578182 
L 191.733494 279.970909 
L 191.867098 284.363636 
L 192.000695 288.756364 
L 192.134292 293.149091 
L 192.266349 297.541818 
L 192.391434 301.934545 
L 192.514997 306.327273 
L 193.704591 310.72 
L 194.647273 313.236187 
L 195.349906 315.112727 
L 196.994677 319.505455 
L 198.254545 322.870219 
L 198.639444 323.898182 
L 200.508672 328.290909 
L 201.861818 330.307537 
L 203.760768 332.683636 
L 205.469091 334.821206 
L 207.271387 337.076364 
L 209.076364 339.334872 
L 210.782007 341.469091 
L 212.683636 343.848543 
L 214.420953 345.861818 
L 216.290909 347.269406 
L 219.898182 348.396393 
L 223.505455 349.523381 
L 225.845795 350.254545 
L 227.112727 350.650357 
L 230.72 351.777342 
L 234.327273 352.904324 
L 237.934545 354.031311 
L 239.90614 354.647273 
z
M 238.722986 315.112727 
L 237.934545 314.766327 
L 234.394408 310.72 
L 234.327273 310.635995 
L 230.88379 306.327273 
L 230.72 306.122327 
L 227.373171 301.934545 
L 227.112727 301.524647 
L 225.199591 297.541818 
L 224.863403 293.149091 
L 224.753723 288.756364 
L 224.644045 284.363636 
L 224.868617 279.970909 
L 226.242078 275.578182 
L 227.112727 272.793594 
L 227.615541 271.185455 
L 229.764929 266.792727 
L 230.72 265.731464 
L 233.718108 262.4 
L 234.327273 261.723102 
L 237.934545 258.72539 
L 240.476652 258.007273 
L 241.541818 257.725236 
L 245.149091 256.770094 
L 248.756364 255.814956 
L 252.363636 254.859815 
L 255.970909 256.188045 
L 259.578182 257.71739 
L 260.261932 258.007273 
L 263.185455 259.30589 
L 266.792727 261.776609 
L 267.471763 262.4 
L 270.4 265.088277 
L 271.587509 266.792727 
L 273.283114 271.185455 
L 274.007273 273.367184 
L 274.741146 275.578182 
L 276.102003 279.970909 
L 276.248218 284.363636 
L 276.314907 288.756364 
L 276.381595 293.149091 
L 275.583598 297.541818 
L 274.007273 300.415434 
L 273.052517 301.934545 
L 270.4 305.219312 
L 269.5053 306.327273 
L 266.792727 309.686417 
L 265.958089 310.72 
L 263.185455 313.868342 
L 260.457064 315.112727 
L 259.578182 315.435238 
L 255.970909 316.75895 
L 252.363636 318.082662 
L 248.756364 318.24735 
L 245.149091 317.120369 
L 241.541818 315.993385 
z
" style="fill:#e7745b;"/>
   </g>
   <g id="PathCollection_9">
    <path clip-path="url(#p46d2b3be99)" d="M 241.541818 315.993385 
L 245.149091 317.120369 
L 248.756364 318.24735 
L 252.363636 318.082662 
L 255.970909 316.75895 
L 259.578182 315.435238 
L 260.457064 315.112727 
L 263.185455 313.868342 
L 265.958089 310.72 
L 266.792727 309.686417 
L 269.5053 306.327273 
L 270.4 305.219312 
L 273.052517 301.934545 
L 274.007273 300.415434 
L 275.583598 297.541818 
L 276.381595 293.149091 
L 276.314907 288.756364 
L 276.248218 284.363636 
L 276.102003 279.970909 
L 274.741146 275.578182 
L 274.007273 273.367184 
L 273.283114 271.185455 
L 271.587509 266.792727 
L 270.4 265.088277 
L 267.471763 262.4 
L 266.792727 261.776609 
L 263.185455 259.30589 
L 260.261932 258.007273 
L 259.578182 257.71739 
L 255.970909 256.188045 
L 252.363636 254.859815 
L 248.756364 255.814956 
L 245.149091 256.770094 
L 241.541818 257.725236 
L 240.476652 258.007273 
L 237.934545 258.72539 
L 234.327273 261.723102 
L 233.718108 262.4 
L 230.72 265.731464 
L 229.764929 266.792727 
L 227.615541 271.185455 
L 227.112727 272.793594 
L 226.242078 275.578182 
L 224.868617 279.970909 
L 224.644045 284.363636 
L 224.753723 288.756364 
L 224.863403 293.149091 
L 225.199591 297.541818 
L 227.112727 301.524647 
L 227.373171 301.934545 
L 230.72 306.122327 
L 230.88379 306.327273 
L 234.327273 310.635995 
L 234.394408 310.72 
L 237.934545 314.766327 
L 238.722986 315.112727 
z
" style="fill:#c83836;"/>
   </g>
   <g id="matplotlib.axis_1">
    <g id="xtick_1">
     <g id="line2d_1">
      <defs>
       <path d="M 0 0 
L 0 3.5 
" id="md054541ccd" style="stroke:#000000;stroke-width:0.8;"/>
      </defs>
      <g>
       <use style="stroke:#000000;stroke-width:0.8;" x="107.712" xlink:href="#md054541ccd" y="504"/>
      </g>
     </g>
     <g id="text_1">
      <!-- 4 -->
      <defs>
       <path d="M 10.59375 35.5 
L 73.1875 35.5 
L 73.1875 27.203125 
L 10.59375 27.203125 
z
" id="DejaVuSans-2212"/>
       <path d="M 37.796875 64.3125 
L 12.890625 25.390625 
L 37.796875 25.390625 
z
M 35.203125 72.90625 
L 47.609375 72.90625 
L 47.609375 25.390625 
L 58.015625 25.390625 
L 58.015625 17.1875 
L 47.609375 17.1875 
L 47.609375 0 
L 37.796875 0 
L 37.796875 17.1875 
L 4.890625 17.1875 
L 4.890625 26.703125 
z
" id="DejaVuSans-34"/>
      </defs>
      <g transform="translate(100.340906 518.598438)scale(0.1 -0.1)">
       <use xlink:href="#DejaVuSans-2212"/>
       <use x="83.789062" xlink:href="#DejaVuSans-34"/>
      </g>
     </g>
    </g>
    <g id="xtick_2">
     <g id="line2d_2">
      <g>
       <use style="stroke:#000000;stroke-width:0.8;" x="179.136" xlink:href="#md054541ccd" y="504"/>
      </g>
     </g>
     <g id="text_2">
      <!-- 2 -->
      <defs>
       <path d="M 19.1875 8.296875 
L 53.609375 8.296875 
L 53.609375 0 
L 7.328125 0 
L 7.328125 8.296875 
Q 12.9375 14.109375 22.625 23.890625 
Q 32.328125 33.6875 34.8125 36.53125 
Q 39.546875 41.84375 41.421875 45.53125 
Q 43.3125 49.21875 43.3125 52.78125 
Q 43.3125 58.59375 39.234375 62.25 
Q 35.15625 65.921875 28.609375 65.921875 
Q 23.96875 65.921875 18.8125 64.3125 
Q 13.671875 62.703125 7.8125 59.421875 
L 7.8125 69.390625 
Q 13.765625 71.78125 18.9375 73 
Q 24.125 74.21875 28.421875 74.21875 
Q 39.75 74.21875 46.484375 68.546875 
Q 53.21875 62.890625 53.21875 53.421875 
Q 53.21875 48.921875 51.53125 44.890625 
Q 49.859375 40.875 45.40625 35.40625 
Q 44.1875 33.984375 37.640625 27.21875 
Q 31.109375 20.453125 19.1875 8.296875 
z
" id="DejaVuSans-32"/>
      </defs>
      <g transform="translate(171.764906 518.598438)scale(0.1 -0.1)">
       <use xlink:href="#DejaVuSans-2212"/>
       <use x="83.789062" xlink:href="#DejaVuSans-32"/>
      </g>
     </g>
    </g>
    <g id="xtick_3">
     <g id="line2d_3">
      <g>
       <use style="stroke:#000000;stroke-width:0.8;" x="250.56" xlink:href="#md054541ccd" y="504"/>
      </g>
     </g>
     <g id="text_3">
      <!-- 0 -->
      <defs>
       <path d="M 31.78125 66.40625 
Q 24.171875 66.40625 20.328125 58.90625 
Q 16.5 51.421875 16.5 36.375 
Q 16.5 21.390625 20.328125 13.890625 
Q 24.171875 6.390625 31.78125 6.390625 
Q 39.453125 6.390625 43.28125 13.890625 
Q 47.125 21.390625 47.125 36.375 
Q 47.125 51.421875 43.28125 58.90625 
Q 39.453125 66.40625 31.78125 66.40625 
z
M 31.78125 74.21875 
Q 44.046875 74.21875 50.515625 64.515625 
Q 56.984375 54.828125 56.984375 36.375 
Q 56.984375 17.96875 50.515625 8.265625 
Q 44.046875 -1.421875 31.78125 -1.421875 
Q 19.53125 -1.421875 13.0625 8.265625 
Q 6.59375 17.96875 6.59375 36.375 
Q 6.59375 54.828125 13.0625 64.515625 
Q 19.53125 74.21875 31.78125 74.21875 
z
" id="DejaVuSans-30"/>
      </defs>
      <g transform="translate(247.37875 518.598438)scale(0.1 -0.1)">
       <use xlink:href="#DejaVuSans-30"/>
      </g>
     </g>
    </g>
    <g id="xtick_4">
     <g id="line2d_4">
      <g>
       <use style="stroke:#000000;stroke-width:0.8;" x="321.984" xlink:href="#md054541ccd" y="504"/>
      </g>
     </g>
     <g id="text_4">
      <!-- 2 -->
      <g transform="translate(318.80275 518.598438)scale(0.1 -0.1)">
       <use xlink:href="#DejaVuSans-32"/>
      </g>
     </g>
    </g>
    <g id="xtick_5">
     <g id="line2d_5">
      <g>
       <use style="stroke:#000000;stroke-width:0.8;" x="393.408" xlink:href="#md054541ccd" y="504"/>
      </g>
     </g>
     <g id="text_5">
      <!-- 4 -->
      <g transform="translate(390.22675 518.598438)scale(0.1 -0.1)">
       <use xlink:href="#DejaVuSans-34"/>
      </g>
     </g>
    </g>
   </g>
   <g id="matplotlib.axis_2">
    <g id="ytick_1">
     <g id="line2d_6">
      <defs>
       <path d="M 0 0 
L -3.5 0 
" id="m82ca423501" style="stroke:#000000;stroke-width:0.8;"/>
      </defs>
      <g>
       <use style="stroke:#000000;stroke-width:0.8;" x="72" xlink:href="#m82ca423501" y="460.512"/>
      </g>
     </g>
     <g id="text_6">
      <!-- 4 -->
      <g transform="translate(50.257812 464.311219)scale(0.1 -0.1)">
       <use xlink:href="#DejaVuSans-2212"/>
       <use x="83.789062" xlink:href="#DejaVuSans-34"/>
      </g>
     </g>
    </g>
    <g id="ytick_2">
     <g id="line2d_7">
      <g>
       <use style="stroke:#000000;stroke-width:0.8;" x="72" xlink:href="#m82ca423501" y="373.536"/>
      </g>
     </g>
     <g id="text_7">
      <!-- 2 -->
      <g transform="translate(50.257812 377.335219)scale(0.1 -0.1)">
       <use xlink:href="#DejaVuSans-2212"/>
       <use x="83.789062" xlink:href="#DejaVuSans-32"/>
      </g>
     </g>
    </g>
    <g id="ytick_3">
     <g id="line2d_8">
      <g>
       <use style="stroke:#000000;stroke-width:0.8;" x="72" xlink:href="#m82ca423501" y="286.56"/>
      </g>
     </g>
     <g id="text_8">
      <!-- 0 -->
      <g transform="translate(58.6375 290.359219)scale(0.1 -0.1)">
       <use xlink:href="#DejaVuSans-30"/>
      </g>
     </g>
    </g>
    <g id="ytick_4">
     <g id="line2d_9">
      <g>
       <use style="stroke:#000000;stroke-width:0.8;" x="72" xlink:href="#m82ca423501" y="199.584"/>
      </g>
     </g>
     <g id="text_9">
      <!-- 2 -->
      <g transform="translate(58.6375 203.383219)scale(0.1 -0.1)">
       <use xlink:href="#DejaVuSans-32"/>
      </g>
     </g>
    </g>
    <g id="ytick_5">
     <g id="line2d_10">
      <g>
       <use style="stroke:#000000;stroke-width:0.8;" x="72" xlink:href="#m82ca423501" y="112.608"/>
      </g>
     </g>
     <g id="text_10">
      <!-- 4 -->
      <g transform="translate(58.6375 116.407219)scale(0.1 -0.1)">
       <use xlink:href="#DejaVuSans-34"/>
      </g>
     </g>
    </g>
   </g>
   <g id="patch_3">
    <path d="M 72 504 
L 72 69.12 
" style="fill:none;stroke:#000000;stroke-linecap:square;stroke-linejoin:miter;stroke-width:0.8;"/>
   </g>
   <g id="patch_4">
    <path d="M 429.12 504 
L 429.12 69.12 
" style="fill:none;stroke:#000000;stroke-linecap:square;stroke-linejoin:miter;stroke-width:0.8;"/>
   </g>
   <g id="patch_5">
    <path d="M 72 504 
L 429.12 504 
" style="fill:none;stroke:#000000;stroke-linecap:square;stroke-linejoin:miter;stroke-width:0.8;"/>
   </g>
   <g id="patch_6">
    <path d="M 72 69.12 
L 429.12 69.12 
" style="fill:none;stroke:#000000;stroke-linecap:square;stroke-linejoin:miter;stroke-width:0.8;"/>
   </g>
  </g>
  <g id="axes_2">
   <g id="patch_7">
    <path clip-path="url(#p81f20964a6)" d="M 451.44 504 
L 451.44 455.68 
L 451.44 117.44 
L 451.44 69.12 
L 473.184 69.12 
L 473.184 117.44 
L 473.184 455.68 
L 473.184 504 
z
" style="fill:#ffffff;stroke:#ffffff;stroke-linejoin:miter;stroke-width:0.01;"/>
   </g>
   <g id="QuadMesh_1">
    <path clip-path="url(#p81f20964a6)" d="M 451.44 504 
L 473.184 504 
L 473.184 455.68 
L 451.44 455.68 
L 451.44 504 
" style="fill:#4b64d5;"/>
    <path clip-path="url(#p81f20964a6)" d="M 451.44 455.68 
L 473.184 455.68 
L 473.184 407.36 
L 451.44 407.36 
L 451.44 455.68 
" style="fill:#6f92f3;"/>
    <path clip-path="url(#p81f20964a6)" d="M 451.44 407.36 
L 473.184 407.36 
L 473.184 359.04 
L 451.44 359.04 
L 451.44 407.36 
" style="fill:#97b8ff;"/>
    <path clip-path="url(#p81f20964a6)" d="M 451.44 359.04 
L 473.184 359.04 
L 473.184 310.72 
L 451.44 310.72 
L 451.44 359.04 
" style="fill:#bcd2f7;"/>
    <path clip-path="url(#p81f20964a6)" d="M 451.44 310.72 
L 473.184 310.72 
L 473.184 262.4 
L 451.44 262.4 
L 451.44 310.72 
" style="fill:#dddcdc;"/>
    <path clip-path="url(#p81f20964a6)" d="M 451.44 262.4 
L 473.184 262.4 
L 473.184 214.08 
L 451.44 214.08 
L 451.44 262.4 
" style="fill:#f3c8b2;"/>
    <path clip-path="url(#p81f20964a6)" d="M 451.44 214.08 
L 473.184 214.08 
L 473.184 165.76 
L 451.44 165.76 
L 451.44 214.08 
" style="fill:#f6a586;"/>
    <path clip-path="url(#p81f20964a6)" d="M 451.44 165.76 
L 473.184 165.76 
L 473.184 117.44 
L 451.44 117.44 
L 451.44 165.76 
" style="fill:#e7745b;"/>
    <path clip-path="url(#p81f20964a6)" d="M 451.44 117.44 
L 473.184 117.44 
L 473.184 69.12 
L 451.44 69.12 
L 451.44 117.44 
" style="fill:#c83836;"/>
   </g>
   <g id="matplotlib.axis_3"/>
   <g id="matplotlib.axis_4">
    <g id="ytick_6">
     <g id="line2d_11">
      <defs>
       <path d="M 0 0 
L 3.5 0 
" id="m09d0035b91" style="stroke:#000000;stroke-width:0.8;"/>
      </defs>
      <g>
       <use style="stroke:#000000;stroke-width:0.8;" x="473.184" xlink:href="#m09d0035b91" y="504"/>
      </g>
     </g>
     <g id="text_11">
      <!-- 200 -->
      <g transform="translate(480.184 507.799219)scale(0.1 -0.1)">
       <use xlink:href="#DejaVuSans-2212"/>
       <use x="83.789062" xlink:href="#DejaVuSans-32"/>
       <use x="147.412109" xlink:href="#DejaVuSans-30"/>
       <use x="211.035156" xlink:href="#DejaVuSans-30"/>
      </g>
     </g>
    </g>
    <g id="ytick_7">
     <g id="line2d_12">
      <g>
       <use style="stroke:#000000;stroke-width:0.8;" x="473.184" xlink:href="#m09d0035b91" y="455.68"/>
      </g>
     </g>
     <g id="text_12">
      <!-- 175 -->
      <defs>
       <path d="M 12.40625 8.296875 
L 28.515625 8.296875 
L 28.515625 63.921875 
L 10.984375 60.40625 
L 10.984375 69.390625 
L 28.421875 72.90625 
L 38.28125 72.90625 
L 38.28125 8.296875 
L 54.390625 8.296875 
L 54.390625 0 
L 12.40625 0 
z
" id="DejaVuSans-31"/>
       <path d="M 8.203125 72.90625 
L 55.078125 72.90625 
L 55.078125 68.703125 
L 28.609375 0 
L 18.3125 0 
L 43.21875 64.59375 
L 8.203125 64.59375 
z
" id="DejaVuSans-37"/>
       <path d="M 10.796875 72.90625 
L 49.515625 72.90625 
L 49.515625 64.59375 
L 19.828125 64.59375 
L 19.828125 46.734375 
Q 21.96875 47.46875 24.109375 47.828125 
Q 26.265625 48.1875 28.421875 48.1875 
Q 40.625 48.1875 47.75 41.5 
Q 54.890625 34.8125 54.890625 23.390625 
Q 54.890625 11.625 47.5625 5.09375 
Q 40.234375 -1.421875 26.90625 -1.421875 
Q 22.3125 -1.421875 17.546875 -0.640625 
Q 12.796875 0.140625 7.71875 1.703125 
L 7.71875 11.625 
Q 12.109375 9.234375 16.796875 8.0625 
Q 21.484375 6.890625 26.703125 6.890625 
Q 35.15625 6.890625 40.078125 11.328125 
Q 45.015625 15.765625 45.015625 23.390625 
Q 45.015625 31 40.078125 35.4375 
Q 35.15625 39.890625 26.703125 39.890625 
Q 22.75 39.890625 18.8125 39.015625 
Q 14.890625 38.140625 10.796875 36.28125 
z
" id="DejaVuSans-35"/>
      </defs>
      <g transform="translate(480.184 459.479219)scale(0.1 -0.1)">
       <use xlink:href="#DejaVuSans-2212"/>
       <use x="83.789062" xlink:href="#DejaVuSans-31"/>
       <use x="147.412109" xlink:href="#DejaVuSans-37"/>
       <use x="211.035156" xlink:href="#DejaVuSans-35"/>
      </g>
     </g>
    </g>
    <g id="ytick_8">
     <g id="line2d_13">
      <g>
       <use style="stroke:#000000;stroke-width:0.8;" x="473.184" xlink:href="#m09d0035b91" y="407.36"/>
      </g>
     </g>
     <g id="text_13">
      <!-- 150 -->
      <g transform="translate(480.184 411.159219)scale(0.1 -0.1)">
       <use xlink:href="#DejaVuSans-2212"/>
       <use x="83.789062" xlink:href="#DejaVuSans-31"/>
       <use x="147.412109" xlink:href="#DejaVuSans-35"/>
       <use x="211.035156" xlink:href="#DejaVuSans-30"/>
      </g>
     </g>
    </g>
    <g id="ytick_9">
     <g id="line2d_14">
      <g>
       <use style="stroke:#000000;stroke-width:0.8;" x="473.184" xlink:href="#m09d0035b91" y="359.04"/>
      </g>
     </g>
     <g id="text_14">
      <!-- 125 -->
      <g transform="translate(480.184 362.839219)scale(0.1 -0.1)">
       <use xlink:href="#DejaVuSans-2212"/>
       <use x="83.789062" xlink:href="#DejaVuSans-31"/>
       <use x="147.412109" xlink:href="#DejaVuSans-32"/>
       <use x="211.035156" xlink:href="#DejaVuSans-35"/>
      </g>
     </g>
    </g>
    <g id="ytick_10">
     <g id="line2d_15">
      <g>
       <use style="stroke:#000000;stroke-width:0.8;" x="473.184" xlink:href="#m09d0035b91" y="310.72"/>
      </g>
     </g>
     <g id="text_15">
      <!-- 100 -->
      <g transform="translate(480.184 314.519219)scale(0.1 -0.1)">
       <use xlink:href="#DejaVuSans-2212"/>
       <use x="83.789062" xlink:href="#DejaVuSans-31"/>
       <use x="147.412109" xlink:href="#DejaVuSans-30"/>
       <use x="211.035156" xlink:href="#DejaVuSans-30"/>
      </g>
     </g>
    </g>
    <g id="ytick_11">
     <g id="line2d_16">
      <g>
       <use style="stroke:#000000;stroke-width:0.8;" x="473.184" xlink:href="#m09d0035b91" y="262.4"/>
      </g>
     </g>
     <g id="text_16">
      <!-- 75 -->
      <g transform="translate(480.184 266.199219)scale(0.1 -0.1)">
       <use xlink:href="#DejaVuSans-2212"/>
       <use x="83.789062" xlink:href="#DejaVuSans-37"/>
       <use x="147.412109" xlink:href="#DejaVuSans-35"/>
      </g>
     </g>
    </g>
    <g id="ytick_12">
     <g id="line2d_17">
      <g>
       <use style="stroke:#000000;stroke-width:0.8;" x="473.184" xlink:href="#m09d0035b91" y="214.08"/>
      </g>
     </g>
     <g id="text_17">
      <!-- 50 -->
      <g transform="translate(480.184 217.879219)scale(0.1 -0.1)">
       <use xlink:href="#DejaVuSans-2212"/>
       <use x="83.789062" xlink:href="#DejaVuSans-35"/>
       <use x="147.412109" xlink:href="#DejaVuSans-30"/>
      </g>
     </g>
    </g>
    <g id="ytick_13">
     <g id="line2d_18">
      <g>
       <use style="stroke:#000000;stroke-width:0.8;" x="473.184" xlink:href="#m09d0035b91" y="165.76"/>
      </g>
     </g>
     <g id="text_18">
      <!-- 25 -->
      <g transform="translate(480.184 169.559219)scale(0.1 -0.1)">
       <use xlink:href="#DejaVuSans-2212"/>
       <use x="83.789062" xlink:href="#DejaVuSans-32"/>
       <use x="147.412109" xlink:href="#DejaVuSans-35"/>
      </g>
     </g>
    </g>
    <g id="ytick_14">
     <g id="line2d_19">
      <g>
       <use style="stroke:#000000;stroke-width:0.8;" x="473.184" xlink:href="#m09d0035b91" y="117.44"/>
      </g>
     </g>
     <g id="text_19">
      <!-- 0 -->
      <g transform="translate(480.184 121.239219)scale(0.1 -0.1)">
       <use xlink:href="#DejaVuSans-30"/>
      </g>
     </g>
    </g>
    <g id="ytick_15">
     <g id="line2d_20">
      <g>
       <use style="stroke:#000000;stroke-width:0.8;" x="473.184" xlink:href="#m09d0035b91" y="69.12"/>
      </g>
     </g>
     <g id="text_20">
      <!-- 25 -->
      <g transform="translate(480.184 72.919219)scale(0.1 -0.1)">
       <use xlink:href="#DejaVuSans-32"/>
       <use x="63.623047" xlink:href="#DejaVuSans-35"/>
      </g>
     </g>
    </g>
   </g>
   <g id="patch_8">
    <path d="M 451.44 504 
L 451.44 455.68 
L 451.44 117.44 
L 451.44 69.12 
L 473.184 69.12 
L 473.184 117.44 
L 473.184 455.68 
L 473.184 504 
z
" style="fill:none;stroke:#000000;stroke-linejoin:miter;stroke-width:0.8;"/>
   </g>
  </g>
 </g>
 <defs>
  <clipPath id="p46d2b3be99">
   <rect height="434.88" width="357.12" x="72" y="69.12"/>
  </clipPath>
  <clipPath id="p81f20964a6">
   <rect height="434.88" width="21.744" x="451.44" y="69.12"/>
  </clipPath>
 </defs>
</svg>
