<?xml version="1.0" encoding="utf-8" standalone="no"?>
<!DOCTYPE svg PUBLIC "-//W3C//DTD SVG 1.1//EN"
  "http://www.w3.org/Graphics/SVG/1.1/DTD/svg11.dtd">
<!-- Created with matplotlib (http://matplotlib.org/) -->
<svg height="288pt" version="1.1" viewBox="0 0 432 288" width="432pt" xmlns="http://www.w3.org/2000/svg" xmlns:xlink="http://www.w3.org/1999/xlink">
 <defs>
  <style type="text/css">
*{stroke-linecap:butt;stroke-linejoin:round;}
  </style>
 </defs>
 <g id="figure_1">
  <g id="patch_1">
   <path d="M 0 288 
L 432 288 
L 432 0 
L 0 0 
z
" style="fill:#ffffff;"/>
  </g>
  <g id="axes_1">
   <g id="patch_2">
    <path d="M 54 252 
L 388.8 252 
L 388.8 34.56 
L 54 34.56 
z
" style="fill:#ffffff;"/>
   </g>
   <g id="patch_3">
    <path clip-path="url(#pea83e5d2fd)" d="M 14.947286 317.227745 
L -1.469403 175.084414 
L 14.579742 170.779315 
L 152.29217 155.220828 
L 133.144149 219.062778 
z
" style="opacity:0.6;stroke-dasharray:0,0;stroke-dashoffset:0;"/>
   </g>
   <g id="patch_4">
    <path clip-path="url(#pea83e5d2fd)" d="M 14.579742 170.779315 
L 89.200769 150.762618 
L 143.536878 146.233185 
L 152.292163 155.220829 
z
" style="fill:#0143da;opacity:0.6;stroke-dasharray:0,0;stroke-dashoffset:0;"/>
   </g>
   <g id="patch_5">
    <path clip-path="url(#pea83e5d2fd)" d="M -1.753495 172.624613 
L -3.387031 158.480693 
L 89.200769 150.762618 
L 14.579742 170.779315 
z
" style="fill:#0287b4;opacity:0.6;stroke-dasharray:0,0;stroke-dashoffset:0;"/>
   </g>
   <g id="patch_6">
    <path clip-path="url(#pea83e5d2fd)" d="M -3.387031 158.480693 
L -14.357146 63.496327 
L 133.284077 138.937502 
L 89.200769 150.762618 
z
" style="fill:#03cb8e;opacity:0.6;stroke-dasharray:0,0;stroke-dashoffset:0;"/>
   </g>
   <g id="patch_7">
    <path clip-path="url(#pea83e5d2fd)" d="M -14.357146 63.496327 
L -24.706492 -26.113132 
L 181.382867 121.167482 
L 175.908716 127.503667 
L 133.284077 138.937502 
z
" style="fill:#050f68;opacity:0.6;stroke-dasharray:0,0;stroke-dashoffset:0;"/>
   </g>
   <g id="patch_8">
    <path clip-path="url(#pea83e5d2fd)" d="M -24.706492 -26.113132 
L -31.13615 -81.784104 
L 193.100164 114.485672 
L 181.382867 121.167482 
z
" style="fill:#065342;opacity:0.6;stroke-dasharray:0,0;stroke-dashoffset:0;"/>
   </g>
   <g id="patch_9">
    <path clip-path="url(#pea83e5d2fd)" d="M 89.200769 150.762618 
L 133.284073 138.937503 
L 143.536876 146.233185 
z
" style="fill:#07971c;opacity:0.6;stroke-dasharray:0,0;stroke-dashoffset:0;"/>
   </g>
   <g id="patch_10">
    <path clip-path="url(#pea83e5d2fd)" d="M 18.69255 349.655994 
L 14.947286 317.227745 
L 133.144148 219.062779 
L 75.224772 307.970995 
z
" style="fill:#08daf6;opacity:0.6;stroke-dasharray:0,0;stroke-dashoffset:0;"/>
   </g>
   <g id="patch_11">
    <path clip-path="url(#pea83e5d2fd)" d="M -31.13615 -81.784104 
L -140.598443 -1029.559619 
L 248.186589 -31.642074 
L 225.544703 111.997537 
L 193.100164 114.485673 
z
" style="fill:#0a1ed0;opacity:0.6;stroke-dasharray:0,0;stroke-dashoffset:0;"/>
   </g>
   <g id="patch_12">
    <path clip-path="url(#pea83e5d2fd)" d="M 75.224772 307.970995 
L 133.144148 219.062779 
L 192.824442 169.497045 
L 215.759036 174.07759 
L 210.360397 208.326435 
z
" style="fill:#0b62aa;opacity:0.6;stroke-dasharray:0,0;stroke-dashoffset:0;"/>
   </g>
   <g id="patch_13">
    <path clip-path="url(#pea83e5d2fd)" d="M 133.144149 219.062778 
L 152.29217 155.220828 
L 164.883673 153.798264 
L 192.824442 169.497045 
z
" style="fill:#0ca684;opacity:0.6;stroke-dasharray:0,0;stroke-dashoffset:0;"/>
   </g>
   <g id="patch_14">
    <path clip-path="url(#pea83e5d2fd)" d="M 143.536876 146.233185 
L 133.284073 138.937503 
L 175.908728 127.503664 
L 161.439747 144.74081 
z
" style="fill:#0dea5e;opacity:0.6;stroke-dasharray:0,0;stroke-dashoffset:0;"/>
   </g>
   <g id="patch_15">
    <path clip-path="url(#pea83e5d2fd)" d="M 152.292163 155.220829 
L 143.536878 146.233185 
L 161.439749 144.74081 
L 164.883677 153.798264 
z
" style="fill:#0f2e38;opacity:0.6;stroke-dasharray:0,0;stroke-dashoffset:0;"/>
   </g>
   <g id="patch_16">
    <path clip-path="url(#pea83e5d2fd)" d="M 90.321347 969.851474 
L 23.366471 390.124972 
L 75.224765 307.971001 
L 210.360397 208.326435 
z
" style="fill:#107212;opacity:0.6;stroke-dasharray:0,0;stroke-dashoffset:0;"/>
   </g>
   <g id="patch_17">
    <path clip-path="url(#pea83e5d2fd)" d="M 164.883677 153.798264 
L 161.439749 144.74081 
L 203.058722 141.271472 
L 204.027756 143.631268 
L 205.055451 149.259733 
z
" style="fill:#11b5ec;opacity:0.6;stroke-dasharray:0,0;stroke-dashoffset:0;"/>
   </g>
   <g id="patch_18">
    <path clip-path="url(#pea83e5d2fd)" d="M 161.439747 144.74081 
L 175.908728 127.503664 
L 186.335382 124.706769 
L 204.605075 137.763104 
L 203.058725 141.271472 
z
" style="fill:#12f9c6;opacity:0.6;stroke-dasharray:0,0;stroke-dashoffset:0;"/>
   </g>
   <g id="patch_19">
    <path clip-path="url(#pea83e5d2fd)" d="M 164.883673 153.798264 
L 205.055451 149.259733 
L 211.091969 154.325482 
L 192.824442 169.497045 
z
" style="fill:#143da0;opacity:0.6;stroke-dasharray:0,0;stroke-dashoffset:0;"/>
   </g>
   <g id="patch_20">
    <path clip-path="url(#pea83e5d2fd)" d="M 175.908716 127.503667 
L 181.382867 121.167482 
L 186.335382 124.706769 
z
" style="fill:#15817a;opacity:0.6;stroke-dasharray:0,0;stroke-dashoffset:0;"/>
   </g>
   <g id="patch_21">
    <path clip-path="url(#pea83e5d2fd)" d="M 186.335382 124.706769 
L 181.382867 121.167482 
L 193.100164 114.485672 
L 200.451533 120.920186 
z
" style="fill:#16c554;opacity:0.6;stroke-dasharray:0,0;stroke-dashoffset:0;"/>
   </g>
   <g id="patch_22">
    <path clip-path="url(#pea83e5d2fd)" d="M 186.335382 124.706769 
L 200.451533 120.920186 
L 212.828187 131.753235 
L 204.605074 137.763103 
z
" style="fill:#18092e;opacity:0.6;stroke-dasharray:0,0;stroke-dashoffset:0;"/>
   </g>
   <g id="patch_23">
    <path clip-path="url(#pea83e5d2fd)" d="M 192.824442 169.497045 
L 211.091968 154.325482 
L 217.249331 155.626793 
L 218.609988 155.991215 
L 215.759036 174.07759 
z
" style="fill:#194d08;opacity:0.6;stroke-dasharray:0,0;stroke-dashoffset:0;"/>
   </g>
   <g id="patch_24">
    <path clip-path="url(#pea83e5d2fd)" d="M 200.451533 120.920186 
L 193.100164 114.485673 
L 225.544703 111.997537 
L 225.184 114.285832 
z
" style="fill:#1a90e2;opacity:0.6;stroke-dasharray:0,0;stroke-dashoffset:0;"/>
   </g>
   <g id="patch_25">
    <path clip-path="url(#pea83e5d2fd)" d="M 212.828188 131.753236 
L 200.451533 120.920186 
L 225.184 114.285832 
L 222.590461 130.739182 
L 219.786561 131.183264 
L 216.313947 131.621187 
z
" style="fill:#1bd4bc;opacity:0.6;stroke-dasharray:0,0;stroke-dashoffset:0;"/>
   </g>
   <g id="patch_26">
    <path clip-path="url(#pea83e5d2fd)" d="M 90.321347 969.851474 
L 210.360397 208.326435 
L 256.12472 174.581331 
L 286.824242 196.520574 
L 439.278236 329.960653 
L 325.652794 3007.460761 
z
" style="fill:#1d1896;opacity:0.6;stroke-dasharray:0,0;stroke-dashoffset:0;"/>
   </g>
   <g id="patch_27">
    <path clip-path="url(#pea83e5d2fd)" d="M 203.058722 141.271472 
L 203.588815 141.227284 
L 204.027756 143.631268 
z
" style="fill:#1e5c70;opacity:0.6;stroke-dasharray:0,0;stroke-dashoffset:0;"/>
   </g>
   <g id="patch_28">
    <path clip-path="url(#pea83e5d2fd)" d="M 204.027756 143.631268 
L 203.588815 141.227284 
L 203.644098 141.222676 
L 204.713058 145.30012 
z
" style="fill:#1fa04a;opacity:0.6;stroke-dasharray:0,0;stroke-dashoffset:0;"/>
   </g>
   <g id="patch_29">
    <path clip-path="url(#pea83e5d2fd)" d="M 203.77385 141.003389 
L 203.588815 141.227284 
L 203.058725 141.271472 
L 204.605075 137.763104 
L 205.368374 138.308591 
z
" style="fill:#20e424;opacity:0.6;stroke-dasharray:0,0;stroke-dashoffset:0;"/>
   </g>
   <g id="patch_30">
    <path clip-path="url(#pea83e5d2fd)" d="M 205.055451 149.259733 
L 205.731114 149.183398 
L 207.500718 150.604816 
L 211.327863 154.129567 
L 211.091969 154.325482 
z
" style="fill:#2227fe;opacity:0.6;stroke-dasharray:0,0;stroke-dashoffset:0;"/>
   </g>
   <g id="patch_31">
    <path clip-path="url(#pea83e5d2fd)" d="M 205.055451 149.259733 
L 204.027756 143.631268 
L 204.713058 145.30012 
L 205.731114 149.183398 
z
" style="fill:#236bd8;opacity:0.6;stroke-dasharray:0,0;stroke-dashoffset:0;"/>
   </g>
   <g id="patch_32">
    <path clip-path="url(#pea83e5d2fd)" d="M 204.713058 145.30012 
L 205.747331 147.818789 
L 205.932636 149.160631 
L 205.731114 149.183398 
z
" style="fill:#24afb2;opacity:0.6;stroke-dasharray:0,0;stroke-dashoffset:0;"/>
   </g>
   <g id="patch_33">
    <path clip-path="url(#pea83e5d2fd)" d="M 204.713058 145.30012 
L 203.644098 141.222676 
L 203.808715 141.208953 
L 205.452301 145.682393 
L 205.747331 147.818789 
z
" style="fill:#25f38c;opacity:0.6;stroke-dasharray:0,0;stroke-dashoffset:0;"/>
   </g>
   <g id="patch_34">
    <path clip-path="url(#pea83e5d2fd)" d="M 206.698453 149.07411 
L 205.452301 145.682393 
L 204.822858 141.124415 
L 208.839973 140.78955 
L 218.557707 147.734274 
z
" style="fill:#273766;opacity:0.6;stroke-dasharray:0,0;stroke-dashoffset:0;"/>
   </g>
   <g id="patch_35">
    <path clip-path="url(#pea83e5d2fd)" d="M 204.822858 141.124415 
L 206.231729 138.925583 
L 208.839973 140.78955 
z
" style="fill:#287b40;opacity:0.6;stroke-dasharray:0,0;stroke-dashoffset:0;"/>
   </g>
   <g id="patch_36">
    <path clip-path="url(#pea83e5d2fd)" d="M 203.808715 141.208953 
L 204.877881 139.667496 
L 205.766056 138.592792 
L 206.23173 138.925583 
L 204.822859 141.124415 
z
" style="fill:#29bf1a;opacity:0.6;stroke-dasharray:0,0;stroke-dashoffset:0;"/>
   </g>
   <g id="patch_37">
    <path clip-path="url(#pea83e5d2fd)" d="M 204.877881 139.667496 
L 203.773855 141.003383 
L 205.368374 138.308591 
L 205.670613 138.524585 
z
" style="fill:#2b02f4;opacity:0.6;stroke-dasharray:0,0;stroke-dashoffset:0;"/>
   </g>
   <g id="patch_38">
    <path clip-path="url(#pea83e5d2fd)" d="M 204.605074 137.763103 
L 212.828187 131.753235 
L 213.135292 132.022039 
L 205.368374 138.308591 
z
" style="fill:#2c46ce;opacity:0.6;stroke-dasharray:0,0;stroke-dashoffset:0;"/>
   </g>
   <g id="patch_39">
    <path clip-path="url(#pea83e5d2fd)" d="M 207.980167 150.431528 
L 206.698453 149.07411 
L 218.557707 147.734274 
L 218.810596 147.915 
L 212.023521 153.551809 
z
" style="fill:#2d8aa8;opacity:0.6;stroke-dasharray:0,0;stroke-dashoffset:0;"/>
   </g>
   <g id="patch_40">
    <path clip-path="url(#pea83e5d2fd)" d="M 208.839973 140.78955 
L 206.23173 138.925583 
L 208.590379 136.696105 
L 214.352624 133.087546 
L 221.266394 139.139037 
L 221.168216 139.761873 
z
" style="fill:#2ece82;opacity:0.6;stroke-dasharray:0,0;stroke-dashoffset:0;"/>
   </g>
   <g id="patch_41">
    <path clip-path="url(#pea83e5d2fd)" d="M 206.900912 137.75412 
L 205.670613 138.524585 
L 205.368374 138.308591 
L 213.135292 132.022039 
L 213.342956 132.203803 
L 209.514232 135.822847 
z
" style="fill:#30125c;opacity:0.6;stroke-dasharray:0,0;stroke-dashoffset:0;"/>
   </g>
   <g id="patch_42">
    <path clip-path="url(#pea83e5d2fd)" d="M 207.500718 150.604816 
L 205.932634 149.160631 
L 206.282134 149.121145 
L 207.980167 150.431528 
L 210.162921 152.743206 
z
" style="fill:#315636;opacity:0.6;stroke-dasharray:0,0;stroke-dashoffset:0;"/>
   </g>
   <g id="patch_43">
    <path clip-path="url(#pea83e5d2fd)" d="M 210.162921 152.743206 
L 207.980167 150.431528 
L 212.023521 153.551809 
L 211.603688 153.900488 
z
" style="fill:#329a10;opacity:0.6;stroke-dasharray:0,0;stroke-dashoffset:0;"/>
   </g>
   <g id="patch_44">
    <path clip-path="url(#pea83e5d2fd)" d="M 208.839973 140.78955 
L 221.168216 139.761873 
L 220.044588 146.890144 
L 219.102282 147.672749 
L 218.557707 147.734274 
z
" style="fill:#33ddea;opacity:0.6;stroke-dasharray:0,0;stroke-dashoffset:0;"/>
   </g>
   <g id="patch_45">
    <path clip-path="url(#pea83e5d2fd)" d="M 209.514232 135.822847 
L 213.342956 132.203803 
L 213.83207 132.631915 
z
" style="fill:#3521c4;opacity:0.6;stroke-dasharray:0,0;stroke-dashoffset:0;"/>
   </g>
   <g id="patch_46">
    <path clip-path="url(#pea83e5d2fd)" d="M 210.360397 208.326435 
L 215.759036 174.07759 
L 253.074391 172.40143 
L 256.12472 174.581331 
z
" style="fill:#36659e;opacity:0.6;stroke-dasharray:0,0;stroke-dashoffset:0;"/>
   </g>
   <g id="patch_47">
    <path clip-path="url(#pea83e5d2fd)" d="M 211.603689 153.900488 
L 212.023521 153.551808 
L 218.756516 155.061644 
L 218.722605 155.276779 
z
" style="fill:#37a978;opacity:0.6;stroke-dasharray:0,0;stroke-dashoffset:0;"/>
   </g>
   <g id="patch_48">
    <path clip-path="url(#pea83e5d2fd)" d="M 208.590375 136.696108 
L 209.514225 135.822852 
L 213.83207 132.631915 
L 214.352624 133.087546 
z
" style="fill:#38ed52;opacity:0.6;stroke-dasharray:0,0;stroke-dashoffset:0;"/>
   </g>
   <g id="patch_49">
    <path clip-path="url(#pea83e5d2fd)" d="M 211.091968 154.325482 
L 211.327863 154.129567 
L 214.587718 154.913939 
L 217.249331 155.626793 
z
" style="fill:#3a312c;opacity:0.6;stroke-dasharray:0,0;stroke-dashoffset:0;"/>
   </g>
   <g id="patch_50">
    <path clip-path="url(#pea83e5d2fd)" d="M 212.023521 153.551808 
L 218.810596 147.915 
L 219.774462 148.603821 
L 218.756516 155.061644 
z
" style="fill:#3b7506;opacity:0.6;stroke-dasharray:0,0;stroke-dashoffset:0;"/>
   </g>
   <g id="patch_51">
    <path clip-path="url(#pea83e5d2fd)" d="M 213.135292 132.022039 
L 212.828188 131.753236 
L 216.313937 131.621187 
z
" style="fill:#3cb8e0;opacity:0.6;stroke-dasharray:0,0;stroke-dashoffset:0;"/>
   </g>
   <g id="patch_52">
    <path clip-path="url(#pea83e5d2fd)" d="M 214.587718 154.913939 
L 211.408627 154.06249 
L 211.603689 153.900488 
L 218.722605 155.276779 
L 218.626611 155.885761 
z
" style="fill:#3dfcba;opacity:0.6;stroke-dasharray:0,0;stroke-dashoffset:0;"/>
   </g>
   <g id="patch_53">
    <path clip-path="url(#pea83e5d2fd)" d="M 214.352624 133.087546 
L 222.413596 131.861215 
L 221.266394 139.139037 
z
" style="fill:#3f4094;opacity:0.6;stroke-dasharray:0,0;stroke-dashoffset:0;"/>
   </g>
   <g id="patch_54">
    <path clip-path="url(#pea83e5d2fd)" d="M 214.352624 133.087546 
L 213.832071 132.631916 
L 222.448087 131.642401 
L 222.413596 131.861215 
z
" style="fill:#40846e;opacity:0.6;stroke-dasharray:0,0;stroke-dashoffset:0;"/>
   </g>
   <g id="patch_55">
    <path clip-path="url(#pea83e5d2fd)" d="M 213.342955 132.203802 
L 213.135292 132.022039 
L 216.313937 131.621187 
L 217.244004 131.585954 
z
" style="fill:#41c848;opacity:0.6;stroke-dasharray:0,0;stroke-dashoffset:0;"/>
   </g>
   <g id="patch_56">
    <path clip-path="url(#pea83e5d2fd)" d="M 215.759036 174.07759 
L 218.609988 155.991214 
L 228.294748 154.692796 
L 253.074391 172.40143 
z
" style="fill:#430c22;opacity:0.6;stroke-dasharray:0,0;stroke-dashoffset:0;"/>
   </g>
   <g id="patch_57">
    <path clip-path="url(#pea83e5d2fd)" d="M 213.832071 132.631916 
L 213.342955 132.203802 
L 217.244004 131.585954 
L 222.488301 131.387286 
L 222.448087 131.642401 
z
" style="fill:#444ffc;opacity:0.6;stroke-dasharray:0,0;stroke-dashoffset:0;"/>
   </g>
   <g id="patch_58">
    <path clip-path="url(#pea83e5d2fd)" d="M 218.621713 155.916835 
L 218.626611 155.885761 
L 225.840713 154.283943 
L 227.472045 154.104856 
L 227.489861 154.117589 
z
" style="fill:#4593d6;opacity:0.6;stroke-dasharray:0,0;stroke-dashoffset:0;"/>
   </g>
   <g id="patch_59">
    <path clip-path="url(#pea83e5d2fd)" d="M 221.558566 154.754036 
L 218.756516 155.061645 
L 219.774462 148.603821 
L 226.981673 153.754415 
z
" style="fill:#46d7b0;opacity:0.6;stroke-dasharray:0,0;stroke-dashoffset:0;"/>
   </g>
   <g id="patch_60">
    <path clip-path="url(#pea83e5d2fd)" d="M 226.981674 153.754415 
L 219.774462 148.603821 
L 219.936075 147.578549 
L 229.654088 146.480626 
L 234.522727 150.742053 
z
" style="fill:#481b8a;opacity:0.6;stroke-dasharray:0,0;stroke-dashoffset:0;"/>
   </g>
   <g id="patch_61">
    <path clip-path="url(#pea83e5d2fd)" d="M 219.936075 147.578549 
L 220.044588 146.890144 
L 225.215488 142.595604 
L 229.654088 146.480626 
z
" style="fill:#495f64;opacity:0.6;stroke-dasharray:0,0;stroke-dashoffset:0;"/>
   </g>
   <g id="patch_62">
    <path clip-path="url(#pea83e5d2fd)" d="M 220.044588 146.890144 
L 221.168216 139.761873 
L 221.907564 139.700242 
L 225.215488 142.595604 
z
" style="fill:#4aa33e;opacity:0.6;stroke-dasharray:0,0;stroke-dashoffset:0;"/>
   </g>
   <g id="patch_63">
    <path clip-path="url(#pea83e5d2fd)" d="M 218.626611 155.885762 
L 218.722605 155.276779 
L 221.558566 154.754036 
L 225.84072 154.283943 
z
" style="fill:#4be718;opacity:0.6;stroke-dasharray:0,0;stroke-dashoffset:0;"/>
   </g>
   <g id="patch_64">
    <path clip-path="url(#pea83e5d2fd)" d="M 221.907564 139.700242 
L 221.266394 139.139037 
L 222.413596 131.861215 
L 225.766983 132.570798 
L 227.183971 132.967173 
L 234.033775 135.271832 
L 229.459697 139.0707 
z
" style="fill:#4d2af2;opacity:0.6;stroke-dasharray:0,0;stroke-dashoffset:0;"/>
   </g>
   <g id="patch_65">
    <path clip-path="url(#pea83e5d2fd)" d="M 225.215488 142.595604 
L 221.907564 139.700242 
L 229.459697 139.0707 
z
" style="fill:#4e6ecc;opacity:0.6;stroke-dasharray:0,0;stroke-dashoffset:0;"/>
   </g>
   <g id="patch_66">
    <path clip-path="url(#pea83e5d2fd)" d="M 226.410771 132.707025 
L 222.488301 131.387285 
L 222.575908 130.831506 
L 226.492793 132.034086 
L 232.234417 133.93932 
z
" style="fill:#4fb2a6;opacity:0.6;stroke-dasharray:0,0;stroke-dashoffset:0;"/>
   </g>
   <g id="patch_67">
    <path clip-path="url(#pea83e5d2fd)" d="M 234.947069 134.513322 
L 233.726861 134.255124 
L 226.492793 132.034085 
L 222.590461 130.739181 
L 225.184 114.285832 
L 230.540595 112.848953 
L 255.647904 117.320845 
z
" style="fill:#50f680;opacity:0.6;stroke-dasharray:0,0;stroke-dashoffset:0;"/>
   </g>
   <g id="patch_68">
    <path clip-path="url(#pea83e5d2fd)" d="M 218.609988 155.991214 
L 218.621713 155.916835 
L 227.489861 154.117589 
L 228.294748 154.692796 
z
" style="fill:#523a5a;opacity:0.6;stroke-dasharray:0,0;stroke-dashoffset:0;"/>
   </g>
   <g id="patch_69">
    <path clip-path="url(#pea83e5d2fd)" d="M 229.654088 146.480626 
L 225.215488 142.595604 
L 229.459697 139.0707 
L 237.056296 138.437451 
L 237.837411 145.55609 
z
" style="fill:#537e34;opacity:0.6;stroke-dasharray:0,0;stroke-dashoffset:0;"/>
   </g>
   <g id="patch_70">
    <path clip-path="url(#pea83e5d2fd)" d="M 225.184 114.285832 
L 225.544703 111.997542 
L 230.540592 112.848954 
z
" style="fill:#54c20e;opacity:0.6;stroke-dasharray:0,0;stroke-dashoffset:0;"/>
   </g>
   <g id="patch_71">
    <path clip-path="url(#pea83e5d2fd)" d="M 227.276533 153.965135 
L 226.981674 153.754415 
L 234.522727 150.742053 
L 234.876138 151.051387 
z
" style="fill:#5605e8;opacity:0.6;stroke-dasharray:0,0;stroke-dashoffset:0;"/>
   </g>
   <g id="patch_72">
    <path clip-path="url(#pea83e5d2fd)" d="M 227.183971 132.967173 
L 226.410771 132.707025 
L 232.234417 133.93932 
L 234.666489 134.74635 
L 234.38375 134.98117 
z
" style="fill:#5749c2;opacity:0.6;stroke-dasharray:0,0;stroke-dashoffset:0;"/>
   </g>
   <g id="patch_73">
    <path clip-path="url(#pea83e5d2fd)" d="M 230.540592 112.848954 
L 225.544703 111.997542 
L 248.186588 -31.642072 
L 287.821872 90.599692 
L 275.579027 100.767631 
z
" style="fill:#588d9c;opacity:0.6;stroke-dasharray:0,0;stroke-dashoffset:0;"/>
   </g>
   <g id="patch_74">
    <path clip-path="url(#pea83e5d2fd)" d="M 228.294747 154.692796 
L 235.284351 151.408689 
L 257.939443 171.238259 
L 253.074388 172.401428 
z
" style="fill:#59d176;opacity:0.6;stroke-dasharray:0,0;stroke-dashoffset:0;"/>
   </g>
   <g id="patch_75">
    <path clip-path="url(#pea83e5d2fd)" d="M 228.294747 154.692796 
L 227.489861 154.117589 
L 235.103157 151.250092 
L 235.284351 151.408689 
z
" style="fill:#5b1550;opacity:0.6;stroke-dasharray:0,0;stroke-dashoffset:0;"/>
   </g>
   <g id="patch_76">
    <path clip-path="url(#pea83e5d2fd)" d="M 229.654088 146.480626 
L 237.83741 145.55609 
L 236.814233 147.476052 
L 234.522727 150.742054 
z
" style="fill:#5c592a;opacity:0.6;stroke-dasharray:0,0;stroke-dashoffset:0;"/>
   </g>
   <g id="patch_77">
    <path clip-path="url(#pea83e5d2fd)" d="M 229.459697 139.0707 
L 234.033775 135.271832 
L 237.056295 138.437451 
z
" style="fill:#5d9d04;opacity:0.6;stroke-dasharray:0,0;stroke-dashoffset:0;"/>
   </g>
   <g id="patch_78">
    <path clip-path="url(#pea83e5d2fd)" d="M 227.183971 132.967173 
L 234.38375 134.98117 
L 234.033775 135.271832 
z
" style="fill:#5ee0de;opacity:0.6;stroke-dasharray:0,0;stroke-dashoffset:0;"/>
   </g>
   <g id="patch_79">
    <path clip-path="url(#pea83e5d2fd)" d="M 227.489861 154.117589 
L 227.472043 154.104855 
L 234.898466 151.070931 
L 235.103157 151.250092 
z
" style="fill:#6024b8;opacity:0.6;stroke-dasharray:0,0;stroke-dashoffset:0;"/>
   </g>
   <g id="patch_80">
    <path clip-path="url(#pea83e5d2fd)" d="M 230.540595 112.848953 
L 275.579027 100.767631 
L 255.647904 117.320845 
z
" style="fill:#616892;opacity:0.6;stroke-dasharray:0,0;stroke-dashoffset:0;"/>
   </g>
   <g id="patch_81">
    <path clip-path="url(#pea83e5d2fd)" d="M 235.284352 151.408689 
L 238.116258 146.522557 
L 238.80167 145.44715 
L 287.629498 139.930675 
L 257.939445 171.238261 
z
" style="fill:#62ac6c;opacity:0.6;stroke-dasharray:0,0;stroke-dashoffset:0;"/>
   </g>
   <g id="patch_82">
    <path clip-path="url(#pea83e5d2fd)" d="M 235.103156 151.250092 
L 238.116244 146.522579 
L 235.284351 151.408688 
z
" style="fill:#63f046;opacity:0.6;stroke-dasharray:0,0;stroke-dashoffset:0;"/>
   </g>
   <g id="patch_83">
    <path clip-path="url(#pea83e5d2fd)" d="M 234.522727 150.742054 
L 236.814233 147.476052 
L 235.07527 150.739163 
L 234.876138 151.051387 
z
" style="fill:#653420;opacity:0.6;stroke-dasharray:0,0;stroke-dashoffset:0;"/>
   </g>
   <g id="patch_84">
    <path clip-path="url(#pea83e5d2fd)" d="M 234.033775 135.271832 
L 234.38375 134.981171 
L 236.647524 136.986388 
L 237.870765 138.369557 
L 237.056295 138.437451 
z
" style="fill:#6677fa;opacity:0.6;stroke-dasharray:0,0;stroke-dashoffset:0;"/>
   </g>
   <g id="patch_85">
    <path clip-path="url(#pea83e5d2fd)" d="M 239.337212 138.247315 
L 234.947069 134.513322 
L 255.647908 117.320842 
L 286.607285 134.306904 
z
" style="fill:#67bbd4;opacity:0.6;stroke-dasharray:0,0;stroke-dashoffset:0;"/>
   </g>
   <g id="patch_86">
    <path clip-path="url(#pea83e5d2fd)" d="M 235.075276 150.739152 
L 236.814233 147.476052 
L 238.189211 145.516344 
L 238.423158 145.489913 
z
" style="fill:#68ffae;opacity:0.6;stroke-dasharray:0,0;stroke-dashoffset:0;"/>
   </g>
   <g id="patch_87">
    <path clip-path="url(#pea83e5d2fd)" d="M 237.056296 138.437451 
L 237.870765 138.369557 
L 238.155924 142.04526 
L 238.189211 145.516344 
L 237.837411 145.55609 
z
" style="fill:#6a4388;opacity:0.6;stroke-dasharray:0,0;stroke-dashoffset:0;"/>
   </g>
   <g id="patch_88">
    <path clip-path="url(#pea83e5d2fd)" d="M 238.179946 138.343784 
L 237.898041 138.094077 
L 234.844711 134.598332 
L 234.947069 134.513322 
L 239.337212 138.247315 
z
" style="fill:#6b8762;opacity:0.6;stroke-dasharray:0,0;stroke-dashoffset:0;"/>
   </g>
   <g id="patch_89">
    <path clip-path="url(#pea83e5d2fd)" d="M 238.80167 145.44715 
L 238.767974 145.062172 
L 239.337213 138.247314 
L 286.607283 134.306904 
L 287.629502 139.930675 
z
" style="fill:#6ccb3c;opacity:0.6;stroke-dasharray:0,0;stroke-dashoffset:0;"/>
   </g>
   <g id="patch_90">
    <path clip-path="url(#pea83e5d2fd)" d="M 238.179946 138.343784 
L 239.337213 138.247314 
L 238.767974 145.062172 
z
" style="fill:#6e0f16;opacity:0.6;stroke-dasharray:0,0;stroke-dashoffset:0;"/>
   </g>
   <g id="patch_91">
    <path clip-path="url(#pea83e5d2fd)" d="M 253.074388 172.401428 
L 257.939443 171.238259 
L 259.182711 172.326468 
L 256.12472 174.581331 
z
" style="fill:#6f52f0;opacity:0.6;stroke-dasharray:0,0;stroke-dashoffset:0;"/>
   </g>
   <g id="patch_92">
    <path clip-path="url(#pea83e5d2fd)" d="M 256.12472 174.581331 
L 259.182711 172.326468 
L 286.824242 196.520574 
z
" style="fill:#7096ca;opacity:0.6;stroke-dasharray:0,0;stroke-dashoffset:0;"/>
   </g>
   <g id="patch_93">
    <path clip-path="url(#pea83e5d2fd)" d="M 286.607277 134.306904 
L 255.647904 117.320845 
L 275.579027 100.767631 
L 308.392635 91.965553 
L 369.167785 91.227097 
L 313.820407 132.038431 
z
" style="fill:#71daa4;opacity:0.6;stroke-dasharray:0,0;stroke-dashoffset:0;"/>
   </g>
   <g id="patch_94">
    <path clip-path="url(#pea83e5d2fd)" d="M 259.182711 172.326468 
L 257.939445 171.238261 
L 287.629498 139.930675 
L 305.91949 137.864307 
z
" style="fill:#731e7e;opacity:0.6;stroke-dasharray:0,0;stroke-dashoffset:0;"/>
   </g>
   <g id="patch_95">
    <path clip-path="url(#pea83e5d2fd)" d="M 286.824242 196.520574 
L 259.182711 172.326468 
L 305.91949 137.864307 
L 448.111993 121.799669 
L 440.286917 306.191821 
z
" style="fill:#746258;opacity:0.6;stroke-dasharray:0,0;stroke-dashoffset:0;"/>
   </g>
   <g id="patch_96">
    <path clip-path="url(#pea83e5d2fd)" d="M 287.821872 90.599692 
L 248.186588 -31.642072 
L 530.675304 -1823.744136 
L 455.340202 -48.527787 
z
" style="fill:#75a632;opacity:0.6;stroke-dasharray:0,0;stroke-dashoffset:0;"/>
   </g>
   <g id="patch_97">
    <path clip-path="url(#pea83e5d2fd)" d="M 275.579027 100.767631 
L 287.821873 90.599691 
L 308.392637 91.965553 
z
" style="fill:#76ea0c;opacity:0.6;stroke-dasharray:0,0;stroke-dashoffset:0;"/>
   </g>
   <g id="patch_98">
    <path clip-path="url(#pea83e5d2fd)" d="M 286.824242 196.520574 
L 440.286917 306.191821 
L 439.278236 329.960653 
z
" style="fill:#782de6;opacity:0.6;stroke-dasharray:0,0;stroke-dashoffset:0;"/>
   </g>
   <g id="patch_99">
    <path clip-path="url(#pea83e5d2fd)" d="M 287.629502 139.930675 
L 286.607283 134.306904 
L 313.820407 132.038431 
L 305.91949 137.864307 
z
" style="fill:#7971c0;opacity:0.6;stroke-dasharray:0,0;stroke-dashoffset:0;"/>
   </g>
   <g id="patch_100">
    <path clip-path="url(#pea83e5d2fd)" d="M 402.344968 66.763335 
L 308.392637 91.965553 
L 287.821873 90.599691 
L 455.340202 -48.527787 
L 452.001414 30.148306 
z
" style="fill:#7ab59a;opacity:0.6;stroke-dasharray:0,0;stroke-dashoffset:0;"/>
   </g>
   <g id="patch_101">
    <path clip-path="url(#pea83e5d2fd)" d="M 305.91949 137.864307 
L 313.820407 132.038431 
L 448.152695 120.840554 
L 448.111993 121.799669 
z
" style="fill:#7bf974;opacity:0.6;stroke-dasharray:0,0;stroke-dashoffset:0;"/>
   </g>
   <g id="patch_102">
    <path clip-path="url(#pea83e5d2fd)" d="M 308.392635 91.965553 
L 402.344968 66.763335 
L 369.167785 91.227097 
z
" style="fill:#7d3d4e;opacity:0.6;stroke-dasharray:0,0;stroke-dashoffset:0;"/>
   </g>
   <g id="patch_103">
    <path clip-path="url(#pea83e5d2fd)" d="M 313.820407 132.038431 
L 369.167788 91.227095 
L 449.327265 93.162671 
L 448.152695 120.840554 
z
" style="fill:#7e8128;opacity:0.6;stroke-dasharray:0,0;stroke-dashoffset:0;"/>
   </g>
   <g id="patch_104">
    <path clip-path="url(#pea83e5d2fd)" d="M 369.167788 91.227095 
L 402.344968 66.763335 
L 451.00146 53.711487 
L 449.327265 93.162671 
z
" style="fill:#7fc502;opacity:0.6;stroke-dasharray:0,0;stroke-dashoffset:0;"/>
   </g>
   <g id="matplotlib.axis_1">
    <g id="xtick_1">
     <g id="line2d_1">
      <defs>
       <path d="M 0 0 
L 0 3.5 
" id="m05def43b25" style="stroke:#000000;stroke-width:0.8;"/>
      </defs>
      <g>
       <use style="stroke:#000000;stroke-width:0.8;" x="87.48" xlink:href="#m05def43b25" y="252"/>
      </g>
     </g>
     <g id="text_1">
      <!-- −4 -->
      <defs>
       <path d="M 10.59375 35.5 
L 73.1875 35.5 
L 73.1875 27.203125 
L 10.59375 27.203125 
z
" id="DejaVuSans-2212"/>
       <path d="M 37.796875 64.3125 
L 12.890625 25.390625 
L 37.796875 25.390625 
z
M 35.203125 72.90625 
L 47.609375 72.90625 
L 47.609375 25.390625 
L 58.015625 25.390625 
L 58.015625 17.1875 
L 47.609375 17.1875 
L 47.609375 0 
L 37.796875 0 
L 37.796875 17.1875 
L 4.890625 17.1875 
L 4.890625 26.703125 
z
" id="DejaVuSans-34"/>
      </defs>
      <g transform="translate(80.108906 266.598437)scale(0.1 -0.1)">
       <use xlink:href="#DejaVuSans-2212"/>
       <use x="83.789062" xlink:href="#DejaVuSans-34"/>
      </g>
     </g>
    </g>
    <g id="xtick_2">
     <g id="line2d_2">
      <g>
       <use style="stroke:#000000;stroke-width:0.8;" x="154.44" xlink:href="#m05def43b25" y="252"/>
      </g>
     </g>
     <g id="text_2">
      <!-- −2 -->
      <defs>
       <path d="M 19.1875 8.296875 
L 53.609375 8.296875 
L 53.609375 0 
L 7.328125 0 
L 7.328125 8.296875 
Q 12.9375 14.109375 22.625 23.890625 
Q 32.328125 33.6875 34.8125 36.53125 
Q 39.546875 41.84375 41.421875 45.53125 
Q 43.3125 49.21875 43.3125 52.78125 
Q 43.3125 58.59375 39.234375 62.25 
Q 35.15625 65.921875 28.609375 65.921875 
Q 23.96875 65.921875 18.8125 64.3125 
Q 13.671875 62.703125 7.8125 59.421875 
L 7.8125 69.390625 
Q 13.765625 71.78125 18.9375 73 
Q 24.125 74.21875 28.421875 74.21875 
Q 39.75 74.21875 46.484375 68.546875 
Q 53.21875 62.890625 53.21875 53.421875 
Q 53.21875 48.921875 51.53125 44.890625 
Q 49.859375 40.875 45.40625 35.40625 
Q 44.1875 33.984375 37.640625 27.21875 
Q 31.109375 20.453125 19.1875 8.296875 
z
" id="DejaVuSans-32"/>
      </defs>
      <g transform="translate(147.068906 266.598437)scale(0.1 -0.1)">
       <use xlink:href="#DejaVuSans-2212"/>
       <use x="83.789062" xlink:href="#DejaVuSans-32"/>
      </g>
     </g>
    </g>
    <g id="xtick_3">
     <g id="line2d_3">
      <g>
       <use style="stroke:#000000;stroke-width:0.8;" x="221.4" xlink:href="#m05def43b25" y="252"/>
      </g>
     </g>
     <g id="text_3">
      <!-- 0 -->
      <defs>
       <path d="M 31.78125 66.40625 
Q 24.171875 66.40625 20.328125 58.90625 
Q 16.5 51.421875 16.5 36.375 
Q 16.5 21.390625 20.328125 13.890625 
Q 24.171875 6.390625 31.78125 6.390625 
Q 39.453125 6.390625 43.28125 13.890625 
Q 47.125 21.390625 47.125 36.375 
Q 47.125 51.421875 43.28125 58.90625 
Q 39.453125 66.40625 31.78125 66.40625 
z
M 31.78125 74.21875 
Q 44.046875 74.21875 50.515625 64.515625 
Q 56.984375 54.828125 56.984375 36.375 
Q 56.984375 17.96875 50.515625 8.265625 
Q 44.046875 -1.421875 31.78125 -1.421875 
Q 19.53125 -1.421875 13.0625 8.265625 
Q 6.59375 17.96875 6.59375 36.375 
Q 6.59375 54.828125 13.0625 64.515625 
Q 19.53125 74.21875 31.78125 74.21875 
z
" id="DejaVuSans-30"/>
      </defs>
      <g transform="translate(218.21875 266.598437)scale(0.1 -0.1)">
       <use xlink:href="#DejaVuSans-30"/>
      </g>
     </g>
    </g>
    <g id="xtick_4">
     <g id="line2d_4">
      <g>
       <use style="stroke:#000000;stroke-width:0.8;" x="288.36" xlink:href="#m05def43b25" y="252"/>
      </g>
     </g>
     <g id="text_4">
      <!-- 2 -->
      <g transform="translate(285.17875 266.598437)scale(0.1 -0.1)">
       <use xlink:href="#DejaVuSans-32"/>
      </g>
     </g>
    </g>
    <g id="xtick_5">
     <g id="line2d_5">
      <g>
       <use style="stroke:#000000;stroke-width:0.8;" x="355.32" xlink:href="#m05def43b25" y="252"/>
      </g>
     </g>
     <g id="text_5">
      <!-- 4 -->
      <g transform="translate(352.13875 266.598437)scale(0.1 -0.1)">
       <use xlink:href="#DejaVuSans-34"/>
      </g>
     </g>
    </g>
   </g>
   <g id="matplotlib.axis_2">
    <g id="ytick_1">
     <g id="line2d_6">
      <defs>
       <path d="M 0 0 
L -3.5 0 
" id="m2457e02a04" style="stroke:#000000;stroke-width:0.8;"/>
      </defs>
      <g>
       <use style="stroke:#000000;stroke-width:0.8;" x="54" xlink:href="#m2457e02a04" y="230.256"/>
      </g>
     </g>
     <g id="text_6">
      <!-- −4 -->
      <g transform="translate(32.257812 234.055219)scale(0.1 -0.1)">
       <use xlink:href="#DejaVuSans-2212"/>
       <use x="83.789062" xlink:href="#DejaVuSans-34"/>
      </g>
     </g>
    </g>
    <g id="ytick_2">
     <g id="line2d_7">
      <g>
       <use style="stroke:#000000;stroke-width:0.8;" x="54" xlink:href="#m2457e02a04" y="186.768"/>
      </g>
     </g>
     <g id="text_7">
      <!-- −2 -->
      <g transform="translate(32.257812 190.567219)scale(0.1 -0.1)">
       <use xlink:href="#DejaVuSans-2212"/>
       <use x="83.789062" xlink:href="#DejaVuSans-32"/>
      </g>
     </g>
    </g>
    <g id="ytick_3">
     <g id="line2d_8">
      <g>
       <use style="stroke:#000000;stroke-width:0.8;" x="54" xlink:href="#m2457e02a04" y="143.28"/>
      </g>
     </g>
     <g id="text_8">
      <!-- 0 -->
      <g transform="translate(40.6375 147.079219)scale(0.1 -0.1)">
       <use xlink:href="#DejaVuSans-30"/>
      </g>
     </g>
    </g>
    <g id="ytick_4">
     <g id="line2d_9">
      <g>
       <use style="stroke:#000000;stroke-width:0.8;" x="54" xlink:href="#m2457e02a04" y="99.792"/>
      </g>
     </g>
     <g id="text_9">
      <!-- 2 -->
      <g transform="translate(40.6375 103.591219)scale(0.1 -0.1)">
       <use xlink:href="#DejaVuSans-32"/>
      </g>
     </g>
    </g>
    <g id="ytick_5">
     <g id="line2d_10">
      <g>
       <use style="stroke:#000000;stroke-width:0.8;" x="54" xlink:href="#m2457e02a04" y="56.304"/>
      </g>
     </g>
     <g id="text_10">
      <!-- 4 -->
      <g transform="translate(40.6375 60.103219)scale(0.1 -0.1)">
       <use xlink:href="#DejaVuSans-34"/>
      </g>
     </g>
    </g>
   </g>
   <g id="line2d_11">
    <path clip-path="url(#pea83e5d2fd)" d="M 197.984815 150.05856 
L 195.593299 141.893786 
" style="fill:none;stroke:#ff0000;stroke-linecap:square;stroke-width:0.5;"/>
   </g>
   <g id="line2d_12">
    <path clip-path="url(#pea83e5d2fd)" d="M 200.386521 134.748337 
L 195.593299 141.893786 
" style="fill:none;stroke:#ff0000;stroke-linecap:square;stroke-width:0.5;"/>
   </g>
   <g id="line2d_13">
    <path clip-path="url(#pea83e5d2fd)" d="M 207.25531 157.511907 
L 197.984813 150.05856 
" style="fill:none;stroke:#ff0000;stroke-linecap:square;stroke-width:0.5;"/>
   </g>
   <g id="line2d_14">
    <path clip-path="url(#pea83e5d2fd)" d="M 209.078365 128.471088 
L 200.386521 134.748337 
" style="fill:none;stroke:#ff0000;stroke-linecap:square;stroke-width:0.5;"/>
   </g>
   <g id="line2d_15">
    <path clip-path="url(#pea83e5d2fd)" d="M 217.994503 159.895839 
L 207.255312 157.511906 
" style="fill:none;stroke:#ff0000;stroke-linecap:square;stroke-width:0.5;"/>
   </g>
   <g id="line2d_16">
    <path clip-path="url(#pea83e5d2fd)" d="M 223.192216 126.921664 
L 209.078366 128.471088 
" style="fill:none;stroke:#ff0000;stroke-linecap:square;stroke-width:0.5;"/>
   </g>
   <g id="line2d_17">
    <path clip-path="url(#pea83e5d2fd)" d="M 232.599613 157.769245 
L 217.994503 159.895838 
" style="fill:none;stroke:#ff0000;stroke-linecap:square;stroke-width:0.5;"/>
   </g>
   <g id="line2d_18">
    <path clip-path="url(#pea83e5d2fd)" d="M 238.97662 131.166696 
L 223.192216 126.921662 
" style="fill:none;stroke:#ff0000;stroke-linecap:square;stroke-width:0.5;"/>
   </g>
   <g id="line2d_19">
    <path clip-path="url(#pea83e5d2fd)" d="M 232.599613 157.769245 
L 239.569931 155.159775 
" style="fill:none;stroke:#ff0000;stroke-linecap:square;stroke-width:0.5;"/>
   </g>
   <g id="line2d_20">
    <path clip-path="url(#pea83e5d2fd)" d="M 239.569931 155.159775 
L 246.622909 144.563521 
" style="fill:none;stroke:#ff0000;stroke-linecap:square;stroke-width:0.5;"/>
   </g>
   <g id="line2d_21">
    <path clip-path="url(#pea83e5d2fd)" d="M 246.206074 137.674729 
L 238.976618 131.166697 
" style="fill:none;stroke:#ff0000;stroke-linecap:square;stroke-width:0.5;"/>
   </g>
   <g id="line2d_22">
    <path clip-path="url(#pea83e5d2fd)" d="M 246.622908 144.563521 
L 246.206072 137.67473 
" style="fill:none;stroke:#ff0000;stroke-linecap:square;stroke-width:0.5;"/>
   </g>
   <g id="patch_105">
    <path d="M 54 252 
L 54 34.56 
" style="fill:none;stroke:#000000;stroke-linecap:square;stroke-linejoin:miter;stroke-width:0.8;"/>
   </g>
   <g id="patch_106">
    <path d="M 388.8 252 
L 388.8 34.56 
" style="fill:none;stroke:#000000;stroke-linecap:square;stroke-linejoin:miter;stroke-width:0.8;"/>
   </g>
   <g id="patch_107">
    <path d="M 54 252 
L 388.8 252 
" style="fill:none;stroke:#000000;stroke-linecap:square;stroke-linejoin:miter;stroke-width:0.8;"/>
   </g>
   <g id="patch_108">
    <path d="M 54 34.56 
L 388.8 34.56 
" style="fill:none;stroke:#000000;stroke-linecap:square;stroke-linejoin:miter;stroke-width:0.8;"/>
   </g>
  </g>
 </g>
 <defs>
  <clipPath id="pea83e5d2fd">
   <rect height="217.44" width="334.8" x="54" y="34.56"/>
  </clipPath>
 </defs>
</svg>
