<?xml version="1.0" encoding="utf-8" standalone="no"?>
<!DOCTYPE svg PUBLIC "-//W3C//DTD SVG 1.1//EN"
  "http://www.w3.org/Graphics/SVG/1.1/DTD/svg11.dtd">
<!-- Created with matplotlib (http://matplotlib.org/) -->
<svg height="288pt" version="1.1" viewBox="0 0 432 288" width="432pt" xmlns="http://www.w3.org/2000/svg" xmlns:xlink="http://www.w3.org/1999/xlink">
 <defs>
  <style type="text/css">
*{stroke-linecap:butt;stroke-linejoin:round;}
  </style>
 </defs>
 <g id="figure_1">
  <g id="patch_1">
   <path d="M 0 288 
L 432 288 
L 432 0 
L 0 0 
z
" style="fill:#ffffff;"/>
  </g>
  <g id="axes_1">
   <g id="patch_2">
    <path d="M 54 252 
L 388.8 252 
L 388.8 34.56 
L 54 34.56 
z
" style="fill:#ffffff;"/>
   </g>
   <g id="patch_3">
    <path clip-path="url(#p72dee5cd83)" d="M 54 252 
L 54 244.120054 
L 186.095885 160.768551 
L 193.928038 170.874634 
L 74.147569 252 
z
" style="opacity:0.6;stroke-dasharray:0,0;stroke-dashoffset:0;"/>
   </g>
   <g id="patch_4">
    <path clip-path="url(#p72dee5cd83)" d="M 54 244.120054 
L 54 160.205039 
L 162.99948 130.966502 
L 186.095885 160.768551 
z
" style="fill:#0143da;opacity:0.6;stroke-dasharray:0,0;stroke-dashoffset:0;"/>
   </g>
   <g id="patch_5">
    <path clip-path="url(#p72dee5cd83)" d="M 54 160.205039 
L 54 150.259257 
L 158.566435 129.779843 
L 162.92973 130.876501 
L 162.99948 130.966502 
z
" style="fill:#0287b4;opacity:0.6;stroke-dasharray:0,0;stroke-dashoffset:0;"/>
   </g>
   <g id="patch_6">
    <path clip-path="url(#p72dee5cd83)" d="M 54 150.259257 
L 54 103.498424 
L 158.566435 129.779843 
z
" style="fill:#03cb8e;opacity:0.6;stroke-dasharray:0,0;stroke-dashoffset:0;"/>
   </g>
   <g id="patch_7">
    <path clip-path="url(#p72dee5cd83)" d="M 54 103.498424 
L 54 50.29873 
L 133.049568 92.321148 
L 161.616829 129.182422 
L 158.566435 129.779843 
z
" style="fill:#050f68;opacity:0.6;stroke-dasharray:0,0;stroke-dashoffset:0;"/>
   </g>
   <g id="patch_8">
    <path clip-path="url(#p72dee5cd83)" d="M 54 50.29873 
L 54 34.56 
L 88.285033 34.56 
L 133.049568 92.321148 
z
" style="fill:#065342;opacity:0.6;stroke-dasharray:0,0;stroke-dashoffset:0;"/>
   </g>
   <g id="patch_9">
    <path clip-path="url(#p72dee5cd83)" d="M 74.147569 252 
L 193.928038 170.874634 
L 218.373708 202.417684 
L 151.131329 252 
z
" style="fill:#07971c;opacity:0.6;stroke-dasharray:0,0;stroke-dashoffset:0;"/>
   </g>
   <g id="patch_10">
    <path clip-path="url(#p72dee5cd83)" d="M 133.049568 92.321148 
L 88.285033 34.56 
L 186.535903 34.56 
L 213.85898 115.260335 
L 190.284122 122.746796 
z
" style="fill:#08daf6;opacity:0.6;stroke-dasharray:0,0;stroke-dashoffset:0;"/>
   </g>
   <g id="patch_11">
    <path clip-path="url(#p72dee5cd83)" d="M 161.616829 129.182422 
L 133.049568 92.321148 
L 190.28412 122.746795 
L 189.89434 123.64425 
z
" style="fill:#0a1ed0;opacity:0.6;stroke-dasharray:0,0;stroke-dashoffset:0;"/>
   </g>
   <g id="patch_12">
    <path clip-path="url(#p72dee5cd83)" d="M 151.131329 252 
L 218.373708 202.417684 
L 256.799698 252 
z
" style="fill:#0b62aa;opacity:0.6;stroke-dasharray:0,0;stroke-dashoffset:0;"/>
   </g>
   <g id="patch_13">
    <path clip-path="url(#p72dee5cd83)" d="M 158.566435 129.779843 
L 161.616829 129.182422 
L 162.92973 130.876501 
z
" style="fill:#0ca684;opacity:0.6;stroke-dasharray:0,0;stroke-dashoffset:0;"/>
   </g>
   <g id="patch_14">
    <path clip-path="url(#p72dee5cd83)" d="M 163.138958 130.929088 
L 162.92973 130.876501 
L 161.616829 129.182422 
L 189.894339 123.64425 
L 189.841938 123.766154 
z
" style="fill:#0dea5e;opacity:0.6;stroke-dasharray:0,0;stroke-dashoffset:0;"/>
   </g>
   <g id="patch_15">
    <path clip-path="url(#p72dee5cd83)" d="M 162.99948 130.966502 
L 163.138958 130.929088 
L 184.67277 136.341333 
L 191.888379 157.113531 
L 186.095885 160.768551 
z
" style="fill:#0f2e38;opacity:0.6;stroke-dasharray:0,0;stroke-dashoffset:0;"/>
   </g>
   <g id="patch_16">
    <path clip-path="url(#p72dee5cd83)" d="M 163.138958 130.929088 
L 189.841935 123.766155 
L 184.672769 136.341332 
z
" style="fill:#107212;opacity:0.6;stroke-dasharray:0,0;stroke-dashoffset:0;"/>
   </g>
   <g id="patch_17">
    <path clip-path="url(#p72dee5cd83)" d="M 191.888379 157.113531 
L 184.67277 136.341333 
L 203.202098 140.998439 
L 204.122099 148.526399 
L 204.086323 149.416721 
z
" style="fill:#11b5ec;opacity:0.6;stroke-dasharray:0,0;stroke-dashoffset:0;"/>
   </g>
   <g id="patch_18">
    <path clip-path="url(#p72dee5cd83)" d="M 184.672769 136.341332 
L 189.841935 123.766155 
L 191.384063 123.352487 
L 191.412885 123.346842 
L 211.149053 133.838506 
L 203.202098 140.998439 
z
" style="fill:#12f9c6;opacity:0.6;stroke-dasharray:0,0;stroke-dashoffset:0;"/>
   </g>
   <g id="patch_19">
    <path clip-path="url(#p72dee5cd83)" d="M 193.928038 170.874634 
L 186.095885 160.768551 
L 191.888379 157.113531 
L 203.926686 164.102712 
z
" style="fill:#143da0;opacity:0.6;stroke-dasharray:0,0;stroke-dashoffset:0;"/>
   </g>
   <g id="patch_20">
    <path clip-path="url(#p72dee5cd83)" d="M 218.782023 116.003128 
L 213.85898 115.260335 
L 186.535903 34.56 
L 386.111837 34.56 
L 285.331632 98.151546 
z
" style="fill:#15817a;opacity:0.6;stroke-dasharray:0,0;stroke-dashoffset:0;"/>
   </g>
   <g id="patch_21">
    <path clip-path="url(#p72dee5cd83)" d="M 189.89434 123.64425 
L 190.28412 122.746795 
L 191.410277 123.345455 
L 191.384063 123.352487 
z
" style="fill:#16c554;opacity:0.6;stroke-dasharray:0,0;stroke-dashoffset:0;"/>
   </g>
   <g id="patch_22">
    <path clip-path="url(#p72dee5cd83)" d="M 191.410277 123.345455 
L 190.284122 122.746796 
L 213.85898 115.260335 
L 214.499421 117.151914 
z
" style="fill:#18092e;opacity:0.6;stroke-dasharray:0,0;stroke-dashoffset:0;"/>
   </g>
   <g id="patch_23">
    <path clip-path="url(#p72dee5cd83)" d="M 191.888379 157.113531 
L 204.086322 149.416721 
L 217.006021 155.24429 
L 203.926686 164.102712 
z
" style="fill:#194d08;opacity:0.6;stroke-dasharray:0,0;stroke-dashoffset:0;"/>
   </g>
   <g id="patch_24">
    <path clip-path="url(#p72dee5cd83)" d="M 191.412885 123.346842 
L 215.030762 118.721263 
L 219.507081 131.942336 
L 211.149052 133.838505 
z
" style="fill:#1a90e2;opacity:0.6;stroke-dasharray:0,0;stroke-dashoffset:0;"/>
   </g>
   <g id="patch_25">
    <path clip-path="url(#p72dee5cd83)" d="M 193.928038 170.874634 
L 203.926685 164.102712 
L 231.242279 166.602944 
L 238.374873 187.669483 
L 218.373708 202.417684 
z
" style="fill:#1bd4bc;opacity:0.6;stroke-dasharray:0,0;stroke-dashoffset:0;"/>
   </g>
   <g id="patch_26">
    <path clip-path="url(#p72dee5cd83)" d="M 191.412885 123.346842 
L 191.410277 123.345455 
L 214.499421 117.151914 
L 215.030762 118.721263 
z
" style="fill:#1d1896;opacity:0.6;stroke-dasharray:0,0;stroke-dashoffset:0;"/>
   </g>
   <g id="patch_27">
    <path clip-path="url(#p72dee5cd83)" d="M 203.202098 140.998439 
L 204.412368 141.302625 
L 204.122099 148.526399 
z
" style="fill:#1e5c70;opacity:0.6;stroke-dasharray:0,0;stroke-dashoffset:0;"/>
   </g>
   <g id="patch_28">
    <path clip-path="url(#p72dee5cd83)" d="M 203.202098 140.998439 
L 211.149053 133.838506 
L 211.333504 133.936559 
L 204.412367 141.302625 
z
" style="fill:#1fa04a;opacity:0.6;stroke-dasharray:0,0;stroke-dashoffset:0;"/>
   </g>
   <g id="patch_29">
    <path clip-path="url(#p72dee5cd83)" d="M 203.926685 164.102712 
L 217.006021 155.24429 
L 227.378322 155.190514 
L 231.242279 166.602944 
z
" style="fill:#20e424;opacity:0.6;stroke-dasharray:0,0;stroke-dashoffset:0;"/>
   </g>
   <g id="patch_30">
    <path clip-path="url(#p72dee5cd83)" d="M 204.220554 149.332022 
L 213.375419 143.555372 
L 224.374981 146.319969 
L 225.458323 149.519684 
L 218.202674 154.433817 
z
" style="fill:#2227fe;opacity:0.6;stroke-dasharray:0,0;stroke-dashoffset:0;"/>
   </g>
   <g id="patch_31">
    <path clip-path="url(#p72dee5cd83)" d="M 204.220555 149.332022 
L 204.122099 148.526399 
L 204.412368 141.302625 
L 213.375419 143.555372 
z
" style="fill:#236bd8;opacity:0.6;stroke-dasharray:0,0;stroke-dashoffset:0;"/>
   </g>
   <g id="patch_32">
    <path clip-path="url(#p72dee5cd83)" d="M 204.412367 141.302625 
L 211.333504 133.936559 
L 220.715369 138.923919 
L 213.375419 143.555372 
z
" style="fill:#24afb2;opacity:0.6;stroke-dasharray:0,0;stroke-dashoffset:0;"/>
   </g>
   <g id="patch_33">
    <path clip-path="url(#p72dee5cd83)" d="M 204.086322 149.416721 
L 204.220554 149.332022 
L 218.202674 154.433817 
L 217.006021 155.24429 
z
" style="fill:#25f38c;opacity:0.6;stroke-dasharray:0,0;stroke-dashoffset:0;"/>
   </g>
   <g id="patch_34">
    <path clip-path="url(#p72dee5cd83)" d="M 211.333503 133.936558 
L 219.668228 132.418293 
L 221.667463 138.323154 
L 220.715369 138.923919 
z
" style="fill:#273766;opacity:0.6;stroke-dasharray:0,0;stroke-dashoffset:0;"/>
   </g>
   <g id="patch_35">
    <path clip-path="url(#p72dee5cd83)" d="M 213.375419 143.555372 
L 220.715369 138.923919 
L 222.124487 139.673 
L 224.374981 146.319969 
z
" style="fill:#287b40;opacity:0.6;stroke-dasharray:0,0;stroke-dashoffset:0;"/>
   </g>
   <g id="patch_36">
    <path clip-path="url(#p72dee5cd83)" d="M 211.333503 133.936558 
L 211.149052 133.838505 
L 219.507081 131.942336 
L 219.668228 132.418293 
z
" style="fill:#29bf1a;opacity:0.6;stroke-dasharray:0,0;stroke-dashoffset:0;"/>
   </g>
   <g id="patch_37">
    <path clip-path="url(#p72dee5cd83)" d="M 219.507081 131.942337 
L 215.030762 118.721263 
L 224.416413 116.883077 
L 249.417156 120.813309 
L 230.546309 132.72067 
z
" style="fill:#2b02f4;opacity:0.6;stroke-dasharray:0,0;stroke-dashoffset:0;"/>
   </g>
   <g id="patch_38">
    <path clip-path="url(#p72dee5cd83)" d="M 215.030762 118.721263 
L 214.499421 117.151914 
L 218.782024 116.003128 
L 224.416409 116.883078 
z
" style="fill:#2c46ce;opacity:0.6;stroke-dasharray:0,0;stroke-dashoffset:0;"/>
   </g>
   <g id="patch_39">
    <path clip-path="url(#p72dee5cd83)" d="M 214.499421 117.151914 
L 213.85898 115.260335 
L 218.782023 116.003128 
z
" style="fill:#2d8aa8;opacity:0.6;stroke-dasharray:0,0;stroke-dashoffset:0;"/>
   </g>
   <g id="patch_40">
    <path clip-path="url(#p72dee5cd83)" d="M 218.373708 202.417684 
L 238.374873 187.669483 
L 262.759018 259.689505 
z
" style="fill:#2ece82;opacity:0.6;stroke-dasharray:0,0;stroke-dashoffset:0;"/>
   </g>
   <g id="patch_41">
    <path clip-path="url(#p72dee5cd83)" d="M 217.006021 155.24429 
L 218.202673 154.433818 
L 226.848644 153.62608 
L 227.378322 155.190514 
z
" style="fill:#30125c;opacity:0.6;stroke-dasharray:0,0;stroke-dashoffset:0;"/>
   </g>
   <g id="patch_42">
    <path clip-path="url(#p72dee5cd83)" d="M 218.202673 154.433818 
L 225.458323 149.519684 
L 226.848644 153.62608 
z
" style="fill:#315636;opacity:0.6;stroke-dasharray:0,0;stroke-dashoffset:0;"/>
   </g>
   <g id="patch_43">
    <path clip-path="url(#p72dee5cd83)" d="M 221.667463 138.323154 
L 219.668228 132.418293 
L 228.713858 133.876933 
z
" style="fill:#329a10;opacity:0.6;stroke-dasharray:0,0;stroke-dashoffset:0;"/>
   </g>
   <g id="patch_44">
    <path clip-path="url(#p72dee5cd83)" d="M 222.124487 139.673 
L 221.667463 138.323154 
L 228.713857 133.876934 
L 237.14463 141.604738 
L 232.137591 144.995924 
z
" style="fill:#33ddea;opacity:0.6;stroke-dasharray:0,0;stroke-dashoffset:0;"/>
   </g>
   <g id="patch_45">
    <path clip-path="url(#p72dee5cd83)" d="M 224.416409 116.883078 
L 218.782024 116.003128 
L 285.331632 98.151546 
L 269.701688 108.013922 
z
" style="fill:#3521c4;opacity:0.6;stroke-dasharray:0,0;stroke-dashoffset:0;"/>
   </g>
   <g id="patch_46">
    <path clip-path="url(#p72dee5cd83)" d="M 224.374981 146.319969 
L 222.124487 139.673 
L 232.137591 144.995924 
L 228.610773 147.384581 
z
" style="fill:#36659e;opacity:0.6;stroke-dasharray:0,0;stroke-dashoffset:0;"/>
   </g>
   <g id="patch_47">
    <path clip-path="url(#p72dee5cd83)" d="M 219.668228 132.418293 
L 219.507081 131.942337 
L 230.546309 132.72067 
L 228.713858 133.876933 
z
" style="fill:#37a978;opacity:0.6;stroke-dasharray:0,0;stroke-dashoffset:0;"/>
   </g>
   <g id="patch_48">
    <path clip-path="url(#p72dee5cd83)" d="M 225.458323 149.519684 
L 224.374981 146.319969 
L 228.610773 147.384581 
z
" style="fill:#38ed52;opacity:0.6;stroke-dasharray:0,0;stroke-dashoffset:0;"/>
   </g>
   <g id="patch_49">
    <path clip-path="url(#p72dee5cd83)" d="M 227.378322 155.190516 
L 226.848644 153.62608 
L 237.502868 149.619494 
L 238.395517 149.84385 
z
" style="fill:#3a312c;opacity:0.6;stroke-dasharray:0,0;stroke-dashoffset:0;"/>
   </g>
   <g id="patch_50">
    <path clip-path="url(#p72dee5cd83)" d="M 226.848644 153.62608 
L 225.458323 149.519684 
L 228.610773 147.384581 
L 237.502868 149.619494 
z
" style="fill:#3b7506;opacity:0.6;stroke-dasharray:0,0;stroke-dashoffset:0;"/>
   </g>
   <g id="patch_51">
    <path clip-path="url(#p72dee5cd83)" d="M 224.416413 116.883077 
L 269.701688 108.013922 
L 249.417156 120.813309 
z
" style="fill:#3cb8e0;opacity:0.6;stroke-dasharray:0,0;stroke-dashoffset:0;"/>
   </g>
   <g id="patch_52">
    <path clip-path="url(#p72dee5cd83)" d="M 231.24228 166.602944 
L 227.378322 155.190516 
L 238.395517 149.84385 
L 243.823494 151.208101 
L 257.538907 158.499157 
z
" style="fill:#3dfcba;opacity:0.6;stroke-dasharray:0,0;stroke-dashoffset:0;"/>
   </g>
   <g id="patch_53">
    <path clip-path="url(#p72dee5cd83)" d="M 228.713857 133.876934 
L 230.54631 132.72067 
L 238.912038 140.407701 
L 237.14463 141.604738 
z
" style="fill:#3f4094;opacity:0.6;stroke-dasharray:0,0;stroke-dashoffset:0;"/>
   </g>
   <g id="patch_54">
    <path clip-path="url(#p72dee5cd83)" d="M 228.610773 147.384581 
L 232.137591 144.995924 
L 238.569942 148.415335 
L 237.502867 149.619493 
z
" style="fill:#40846e;opacity:0.6;stroke-dasharray:0,0;stroke-dashoffset:0;"/>
   </g>
   <g id="patch_55">
    <path clip-path="url(#p72dee5cd83)" d="M 238.374873 187.669483 
L 231.24228 166.602944 
L 257.538907 158.499157 
L 269.390632 164.799484 
z
" style="fill:#41c848;opacity:0.6;stroke-dasharray:0,0;stroke-dashoffset:0;"/>
   </g>
   <g id="patch_56">
    <path clip-path="url(#p72dee5cd83)" d="M 232.137591 144.995924 
L 237.144629 141.604739 
L 238.63695 146.84685 
L 238.569942 148.415335 
z
" style="fill:#430c22;opacity:0.6;stroke-dasharray:0,0;stroke-dashoffset:0;"/>
   </g>
   <g id="patch_57">
    <path clip-path="url(#p72dee5cd83)" d="M 238.912038 140.407701 
L 230.54631 132.72067 
L 249.417157 120.813308 
L 257.480834 127.831357 
z
" style="fill:#444ffc;opacity:0.6;stroke-dasharray:0,0;stroke-dashoffset:0;"/>
   </g>
   <g id="patch_58">
    <path clip-path="url(#p72dee5cd83)" d="M 237.144629 141.604739 
L 238.912037 140.407701 
L 238.63695 146.84685 
z
" style="fill:#4593d6;opacity:0.6;stroke-dasharray:0,0;stroke-dashoffset:0;"/>
   </g>
   <g id="patch_59">
    <path clip-path="url(#p72dee5cd83)" d="M 262.759018 259.689505 
L 238.374873 187.669483 
L 269.390632 164.799484 
L 442.384564 256.762331 
L 432.941486 479.281525 
z
" style="fill:#46d7b0;opacity:0.6;stroke-dasharray:0,0;stroke-dashoffset:0;"/>
   </g>
   <g id="patch_60">
    <path clip-path="url(#p72dee5cd83)" d="M 238.395515 149.843849 
L 239.175037 148.737001 
L 243.823494 151.208101 
z
" style="fill:#481b8a;opacity:0.6;stroke-dasharray:0,0;stroke-dashoffset:0;"/>
   </g>
   <g id="patch_61">
    <path clip-path="url(#p72dee5cd83)" d="M 243.823494 151.208101 
L 239.175036 148.737001 
L 238.63695 146.84685 
L 238.912037 140.407701 
L 257.480832 127.831358 
L 259.742621 155.209168 
z
" style="fill:#495f64;opacity:0.6;stroke-dasharray:0,0;stroke-dashoffset:0;"/>
   </g>
   <g id="patch_62">
    <path clip-path="url(#p72dee5cd83)" d="M 243.823494 151.208101 
L 259.74262 155.209167 
L 257.538905 158.499156 
z
" style="fill:#4aa33e;opacity:0.6;stroke-dasharray:0,0;stroke-dashoffset:0;"/>
   </g>
   <g id="patch_63">
    <path clip-path="url(#p72dee5cd83)" d="M 257.480834 127.831357 
L 249.417157 120.813308 
L 269.701688 108.013922 
L 293.672725 103.319177 
z
" style="fill:#4be718;opacity:0.6;stroke-dasharray:0,0;stroke-dashoffset:0;"/>
   </g>
   <g id="patch_64">
    <path clip-path="url(#p72dee5cd83)" d="M 276.63791 159.45558 
L 259.742621 155.209168 
L 257.480832 127.831358 
L 293.672725 103.319177 
L 374.142119 87.559187 
z
" style="fill:#4d2af2;opacity:0.6;stroke-dasharray:0,0;stroke-dashoffset:0;"/>
   </g>
   <g id="patch_65">
    <path clip-path="url(#p72dee5cd83)" d="M 257.538905 158.499156 
L 259.74262 155.209167 
L 276.63791 159.45558 
L 269.390632 164.799484 
z
" style="fill:#4e6ecc;opacity:0.6;stroke-dasharray:0,0;stroke-dashoffset:0;"/>
   </g>
   <g id="patch_66">
    <path clip-path="url(#p72dee5cd83)" d="M 269.390632 164.799484 
L 276.63791 159.45558 
L 444.721203 201.701139 
L 442.384564 256.762331 
z
" style="fill:#4fb2a6;opacity:0.6;stroke-dasharray:0,0;stroke-dashoffset:0;"/>
   </g>
   <g id="patch_67">
    <path clip-path="url(#p72dee5cd83)" d="M 269.701688 108.013922 
L 285.331632 98.151546 
L 311.776341 91.057892 
L 293.672725 103.319177 
z
" style="fill:#50f680;opacity:0.6;stroke-dasharray:0,0;stroke-dashoffset:0;"/>
   </g>
   <g id="patch_68">
    <path clip-path="url(#p72dee5cd83)" d="M 276.63791 159.45558 
L 374.142119 87.559187 
L 450.197181 72.663747 
L 444.721203 201.701139 
z
" style="fill:#523a5a;opacity:0.6;stroke-dasharray:0,0;stroke-dashoffset:0;"/>
   </g>
   <g id="patch_69">
    <path clip-path="url(#p72dee5cd83)" d="M 285.331632 98.151546 
L 453.621947 -8.038369 
L 453.489709 -4.922271 
L 311.776341 91.057892 
z
" style="fill:#537e34;opacity:0.6;stroke-dasharray:0,0;stroke-dashoffset:0;"/>
   </g>
   <g id="patch_70">
    <path clip-path="url(#p72dee5cd83)" d="M 293.672725 103.319177 
L 311.776341 91.057892 
L 402.344968 66.763335 
L 374.142119 87.559187 
z
" style="fill:#54c20e;opacity:0.6;stroke-dasharray:0,0;stroke-dashoffset:0;"/>
   </g>
   <g id="patch_71">
    <path clip-path="url(#p72dee5cd83)" d="M 311.776341 91.057892 
L 453.489709 -4.922271 
L 452.001414 30.148306 
L 402.344968 66.763335 
z
" style="fill:#5605e8;opacity:0.6;stroke-dasharray:0,0;stroke-dashoffset:0;"/>
   </g>
   <g id="patch_72">
    <path clip-path="url(#p72dee5cd83)" d="M 374.142119 87.559187 
L 402.344968 66.763335 
L 451.00146 53.711487 
L 450.197181 72.663747 
z
" style="fill:#5749c2;opacity:0.6;stroke-dasharray:0,0;stroke-dashoffset:0;"/>
   </g>
   <g id="matplotlib.axis_1">
    <g id="xtick_1">
     <g id="line2d_1">
      <defs>
       <path d="M 0 0 
L 0 3.5 
" id="m367dddc9da" style="stroke:#000000;stroke-width:0.8;"/>
      </defs>
      <g>
       <use style="stroke:#000000;stroke-width:0.8;" x="87.48" xlink:href="#m367dddc9da" y="252"/>
      </g>
     </g>
     <g id="text_1">
      <!-- −4 -->
      <defs>
       <path d="M 10.59375 35.5 
L 73.1875 35.5 
L 73.1875 27.203125 
L 10.59375 27.203125 
z
" id="DejaVuSans-2212"/>
       <path d="M 37.796875 64.3125 
L 12.890625 25.390625 
L 37.796875 25.390625 
z
M 35.203125 72.90625 
L 47.609375 72.90625 
L 47.609375 25.390625 
L 58.015625 25.390625 
L 58.015625 17.1875 
L 47.609375 17.1875 
L 47.609375 0 
L 37.796875 0 
L 37.796875 17.1875 
L 4.890625 17.1875 
L 4.890625 26.703125 
z
" id="DejaVuSans-34"/>
      </defs>
      <g transform="translate(80.108906 266.598437)scale(0.1 -0.1)">
       <use xlink:href="#DejaVuSans-2212"/>
       <use x="83.789062" xlink:href="#DejaVuSans-34"/>
      </g>
     </g>
    </g>
    <g id="xtick_2">
     <g id="line2d_2">
      <g>
       <use style="stroke:#000000;stroke-width:0.8;" x="154.44" xlink:href="#m367dddc9da" y="252"/>
      </g>
     </g>
     <g id="text_2">
      <!-- −2 -->
      <defs>
       <path d="M 19.1875 8.296875 
L 53.609375 8.296875 
L 53.609375 0 
L 7.328125 0 
L 7.328125 8.296875 
Q 12.9375 14.109375 22.625 23.890625 
Q 32.328125 33.6875 34.8125 36.53125 
Q 39.546875 41.84375 41.421875 45.53125 
Q 43.3125 49.21875 43.3125 52.78125 
Q 43.3125 58.59375 39.234375 62.25 
Q 35.15625 65.921875 28.609375 65.921875 
Q 23.96875 65.921875 18.8125 64.3125 
Q 13.671875 62.703125 7.8125 59.421875 
L 7.8125 69.390625 
Q 13.765625 71.78125 18.9375 73 
Q 24.125 74.21875 28.421875 74.21875 
Q 39.75 74.21875 46.484375 68.546875 
Q 53.21875 62.890625 53.21875 53.421875 
Q 53.21875 48.921875 51.53125 44.890625 
Q 49.859375 40.875 45.40625 35.40625 
Q 44.1875 33.984375 37.640625 27.21875 
Q 31.109375 20.453125 19.1875 8.296875 
z
" id="DejaVuSans-32"/>
      </defs>
      <g transform="translate(147.068906 266.598437)scale(0.1 -0.1)">
       <use xlink:href="#DejaVuSans-2212"/>
       <use x="83.789062" xlink:href="#DejaVuSans-32"/>
      </g>
     </g>
    </g>
    <g id="xtick_3">
     <g id="line2d_3">
      <g>
       <use style="stroke:#000000;stroke-width:0.8;" x="221.4" xlink:href="#m367dddc9da" y="252"/>
      </g>
     </g>
     <g id="text_3">
      <!-- 0 -->
      <defs>
       <path d="M 31.78125 66.40625 
Q 24.171875 66.40625 20.328125 58.90625 
Q 16.5 51.421875 16.5 36.375 
Q 16.5 21.390625 20.328125 13.890625 
Q 24.171875 6.390625 31.78125 6.390625 
Q 39.453125 6.390625 43.28125 13.890625 
Q 47.125 21.390625 47.125 36.375 
Q 47.125 51.421875 43.28125 58.90625 
Q 39.453125 66.40625 31.78125 66.40625 
z
M 31.78125 74.21875 
Q 44.046875 74.21875 50.515625 64.515625 
Q 56.984375 54.828125 56.984375 36.375 
Q 56.984375 17.96875 50.515625 8.265625 
Q 44.046875 -1.421875 31.78125 -1.421875 
Q 19.53125 -1.421875 13.0625 8.265625 
Q 6.59375 17.96875 6.59375 36.375 
Q 6.59375 54.828125 13.0625 64.515625 
Q 19.53125 74.21875 31.78125 74.21875 
z
" id="DejaVuSans-30"/>
      </defs>
      <g transform="translate(218.21875 266.598437)scale(0.1 -0.1)">
       <use xlink:href="#DejaVuSans-30"/>
      </g>
     </g>
    </g>
    <g id="xtick_4">
     <g id="line2d_4">
      <g>
       <use style="stroke:#000000;stroke-width:0.8;" x="288.36" xlink:href="#m367dddc9da" y="252"/>
      </g>
     </g>
     <g id="text_4">
      <!-- 2 -->
      <g transform="translate(285.17875 266.598437)scale(0.1 -0.1)">
       <use xlink:href="#DejaVuSans-32"/>
      </g>
     </g>
    </g>
    <g id="xtick_5">
     <g id="line2d_5">
      <g>
       <use style="stroke:#000000;stroke-width:0.8;" x="355.32" xlink:href="#m367dddc9da" y="252"/>
      </g>
     </g>
     <g id="text_5">
      <!-- 4 -->
      <g transform="translate(352.13875 266.598437)scale(0.1 -0.1)">
       <use xlink:href="#DejaVuSans-34"/>
      </g>
     </g>
    </g>
   </g>
   <g id="matplotlib.axis_2">
    <g id="ytick_1">
     <g id="line2d_6">
      <defs>
       <path d="M 0 0 
L -3.5 0 
" id="m9b2f574f9d" style="stroke:#000000;stroke-width:0.8;"/>
      </defs>
      <g>
       <use style="stroke:#000000;stroke-width:0.8;" x="54" xlink:href="#m9b2f574f9d" y="230.256"/>
      </g>
     </g>
     <g id="text_6">
      <!-- −4 -->
      <g transform="translate(32.257812 234.055219)scale(0.1 -0.1)">
       <use xlink:href="#DejaVuSans-2212"/>
       <use x="83.789062" xlink:href="#DejaVuSans-34"/>
      </g>
     </g>
    </g>
    <g id="ytick_2">
     <g id="line2d_7">
      <g>
       <use style="stroke:#000000;stroke-width:0.8;" x="54" xlink:href="#m9b2f574f9d" y="186.768"/>
      </g>
     </g>
     <g id="text_7">
      <!-- −2 -->
      <g transform="translate(32.257812 190.567219)scale(0.1 -0.1)">
       <use xlink:href="#DejaVuSans-2212"/>
       <use x="83.789062" xlink:href="#DejaVuSans-32"/>
      </g>
     </g>
    </g>
    <g id="ytick_3">
     <g id="line2d_8">
      <g>
       <use style="stroke:#000000;stroke-width:0.8;" x="54" xlink:href="#m9b2f574f9d" y="143.28"/>
      </g>
     </g>
     <g id="text_8">
      <!-- 0 -->
      <g transform="translate(40.6375 147.079219)scale(0.1 -0.1)">
       <use xlink:href="#DejaVuSans-30"/>
      </g>
     </g>
    </g>
    <g id="ytick_4">
     <g id="line2d_9">
      <g>
       <use style="stroke:#000000;stroke-width:0.8;" x="54" xlink:href="#m9b2f574f9d" y="99.792"/>
      </g>
     </g>
     <g id="text_9">
      <!-- 2 -->
      <g transform="translate(40.6375 103.591219)scale(0.1 -0.1)">
       <use xlink:href="#DejaVuSans-32"/>
      </g>
     </g>
    </g>
    <g id="ytick_5">
     <g id="line2d_10">
      <g>
       <use style="stroke:#000000;stroke-width:0.8;" x="54" xlink:href="#m9b2f574f9d" y="56.304"/>
      </g>
     </g>
     <g id="text_10">
      <!-- 4 -->
      <g transform="translate(40.6375 60.103219)scale(0.1 -0.1)">
       <use xlink:href="#DejaVuSans-34"/>
      </g>
     </g>
    </g>
   </g>
   <g id="line2d_11">
    <path clip-path="url(#p72dee5cd83)" d="M 198.633793 152.857226 
L 196.606928 139.340829 
" style="fill:none;stroke:#ff0000;stroke-linecap:square;stroke-width:0.5;"/>
   </g>
   <g id="line2d_12">
    <path clip-path="url(#p72dee5cd83)" d="M 204.240247 130.165814 
L 196.606926 139.340828 
" style="fill:none;stroke:#ff0000;stroke-linecap:square;stroke-width:0.5;"/>
   </g>
   <g id="line2d_13">
    <path clip-path="url(#p72dee5cd83)" d="M 211.743184 158.808725 
L 198.633791 152.857227 
" style="fill:none;stroke:#ff0000;stroke-linecap:square;stroke-width:0.5;"/>
   </g>
   <g id="line2d_14">
    <path clip-path="url(#p72dee5cd83)" d="M 217.819797 126.958843 
L 204.240248 130.165814 
" style="fill:none;stroke:#ff0000;stroke-linecap:square;stroke-width:0.5;"/>
   </g>
   <g id="line2d_15">
    <path clip-path="url(#p72dee5cd83)" d="M 228.509215 158.530675 
L 211.743185 158.808724 
" style="fill:none;stroke:#ff0000;stroke-linecap:square;stroke-width:0.5;"/>
   </g>
   <g id="line2d_16">
    <path clip-path="url(#p72dee5cd83)" d="M 236.155241 129.181476 
L 217.819797 126.958844 
" style="fill:none;stroke:#ff0000;stroke-linecap:square;stroke-width:0.5;"/>
   </g>
   <g id="line2d_17">
    <path clip-path="url(#p72dee5cd83)" d="M 228.509215 158.530676 
L 245.459101 152.077583 
" style="fill:none;stroke:#ff0000;stroke-linecap:square;stroke-width:0.5;"/>
   </g>
   <g id="line2d_18">
    <path clip-path="url(#p72dee5cd83)" d="M 244.432693 136.668651 
L 236.155242 129.181476 
" style="fill:none;stroke:#ff0000;stroke-linecap:square;stroke-width:0.5;"/>
   </g>
   <g id="line2d_19">
    <path clip-path="url(#p72dee5cd83)" d="M 245.727376 151.686617 
L 244.432693 136.668651 
" style="fill:none;stroke:#ff0000;stroke-linecap:square;stroke-width:0.5;"/>
   </g>
   <g id="line2d_20">
    <path clip-path="url(#p72dee5cd83)" d="M 245.4591 152.077582 
L 245.727373 151.686617 
" style="fill:none;stroke:#ff0000;stroke-linecap:square;stroke-width:0.5;"/>
   </g>
   <g id="patch_73">
    <path d="M 54 252 
L 54 34.56 
" style="fill:none;stroke:#000000;stroke-linecap:square;stroke-linejoin:miter;stroke-width:0.8;"/>
   </g>
   <g id="patch_74">
    <path d="M 388.8 252 
L 388.8 34.56 
" style="fill:none;stroke:#000000;stroke-linecap:square;stroke-linejoin:miter;stroke-width:0.8;"/>
   </g>
   <g id="patch_75">
    <path d="M 54 252 
L 388.8 252 
" style="fill:none;stroke:#000000;stroke-linecap:square;stroke-linejoin:miter;stroke-width:0.8;"/>
   </g>
   <g id="patch_76">
    <path d="M 54 34.56 
L 388.8 34.56 
" style="fill:none;stroke:#000000;stroke-linecap:square;stroke-linejoin:miter;stroke-width:0.8;"/>
   </g>
  </g>
 </g>
 <defs>
  <clipPath id="p72dee5cd83">
   <rect height="217.44" width="334.8" x="54" y="34.56"/>
  </clipPath>
 </defs>
</svg>
