<?xml version="1.0" encoding="utf-8" standalone="no"?>
<!DOCTYPE svg PUBLIC "-//W3C//DTD SVG 1.1//EN"
  "http://www.w3.org/Graphics/SVG/1.1/DTD/svg11.dtd">
<!-- Created with matplotlib (http://matplotlib.org/) -->
<svg height="576pt" version="1.1" viewBox="0 0 576 576" width="576pt" xmlns="http://www.w3.org/2000/svg" xmlns:xlink="http://www.w3.org/1999/xlink">
 <defs>
  <style type="text/css">
*{stroke-linecap:butt;stroke-linejoin:round;}
  </style>
 </defs>
 <g id="figure_1">
  <g id="patch_1">
   <path d="M 0 576 
L 576 576 
L 576 0 
L 0 0 
z
" style="fill:#ffffff;"/>
  </g>
  <g id="axes_1">
   <g id="patch_2">
    <path d="M 72 504 
L 429.12 504 
L 429.12 69.12 
L 72 69.12 
z
" style="fill:#ffffff;"/>
   </g>
   <g id="PathCollection_1">
    <path clip-path="url(#p809d7a5e6a)" d="M 429.12 88.536377 
L 429.12 86.690909 
L 429.12 82.298182 
L 429.12 77.905455 
L 429.12 73.512727 
L 429.12 69.12 
L 425.512727 69.12 
L 421.905455 69.12 
L 418.298182 69.12 
L 414.690909 69.12 
L 411.083636 69.12 
L 407.476364 69.12 
L 403.869091 69.12 
L 400.261818 69.12 
L 396.654545 69.12 
L 396.227074 69.12 
L 396.654545 69.372335 
L 400.261818 71.501668 
L 403.668756 73.512727 
L 403.869091 73.630982 
L 407.476364 75.76034 
L 411.083636 77.889681 
L 411.110357 77.905455 
L 414.690909 80.019023 
L 418.298182 82.148363 
L 418.55199 82.298182 
L 421.905455 84.277693 
L 425.512727 86.407026 
L 425.993644 86.690909 
z
" style="fill:#4e68d8;"/>
   </g>
   <g id="PathCollection_2">
    <path clip-path="url(#p809d7a5e6a)" d="M 75.607273 504 
L 79.214545 504 
L 82.821818 504 
L 86.429091 504 
L 90.036364 504 
L 93.643636 504 
L 94.826379 504 
L 93.643636 503.276084 
L 90.036364 501.068235 
L 87.649439 499.607273 
L 86.429091 498.860336 
L 82.821818 496.652453 
L 80.472536 495.214545 
L 79.214545 494.445162 
L 75.607273 492.25891 
L 73.217755 490.821818 
L 72 490.089439 
L 72 490.821818 
L 72 495.214545 
L 72 499.607273 
L 72 504 
z
" style="fill:#779af7;"/>
    <path clip-path="url(#p809d7a5e6a)" d="M 411.083636 504 
L 414.690909 504 
L 418.298182 504 
L 421.905455 504 
L 425.512727 504 
L 429.12 504 
L 429.12 499.607273 
L 429.12 495.214545 
L 429.12 490.821818 
L 429.12 486.429091 
L 429.12 482.036364 
L 429.12 481.969085 
L 429.067877 482.036364 
L 425.512727 485.784218 
L 424.901004 486.429091 
L 421.905455 489.587006 
L 420.762246 490.821818 
L 418.298182 493.736423 
L 417.078226 495.214545 
L 414.690909 498.107066 
L 413.452752 499.607273 
L 411.083636 502.47778 
L 409.827277 504 
z
" style="fill:#779af7;"/>
    <path clip-path="url(#p809d7a5e6a)" d="M 429.12 135.791931 
L 429.12 135.010909 
L 429.12 130.618182 
L 429.12 126.225455 
L 429.12 121.832727 
L 429.12 117.44 
L 429.12 113.047273 
L 429.12 108.654545 
L 429.12 104.261818 
L 429.12 99.869091 
L 429.12 95.476364 
L 429.12 91.083636 
L 429.12 88.536377 
L 425.993644 86.690909 
L 425.512727 86.407026 
L 421.905455 84.277693 
L 418.55199 82.298182 
L 418.298182 82.148363 
L 414.690909 80.019023 
L 411.110357 77.905455 
L 411.083636 77.889681 
L 407.476364 75.76034 
L 403.869091 73.630982 
L 403.668756 73.512727 
L 400.261818 71.501668 
L 396.654545 69.372335 
L 396.227074 69.12 
L 393.047273 69.12 
L 389.44 69.12 
L 385.832727 69.12 
L 382.225455 69.12 
L 378.618182 69.12 
L 375.010909 69.12 
L 371.403636 69.12 
L 367.796364 69.12 
L 364.189091 69.12 
L 360.581818 69.12 
L 356.974545 69.12 
L 353.367273 69.12 
L 349.76 69.12 
L 346.152727 69.12 
L 342.545455 69.12 
L 338.938182 69.12 
L 335.330909 69.12 
L 331.723636 69.12 
L 328.116364 69.12 
L 324.509091 69.12 
L 320.901818 69.12 
L 317.294545 69.12 
L 316.172254 69.12 
L 317.294545 69.782473 
L 320.901818 71.911796 
L 323.613945 73.512727 
L 324.509091 74.041124 
L 328.116364 76.170464 
L 331.055575 77.905455 
L 331.723636 78.299805 
L 335.330909 80.429135 
L 338.497209 82.298182 
L 338.938182 82.558486 
L 342.545455 84.687827 
L 345.938835 86.690909 
L 346.152727 86.817168 
L 349.76 88.946508 
L 353.367273 91.075849 
L 353.380465 91.083636 
L 356.974545 93.205172 
L 360.581818 95.33453 
L 360.822097 95.476364 
L 364.189091 97.463853 
L 367.796364 99.593178 
L 368.263786 99.869091 
L 371.403636 101.722524 
L 375.010909 103.851875 
L 375.70538 104.261818 
L 378.618182 105.981219 
L 382.225455 108.110556 
L 383.147024 108.654545 
L 385.832727 110.239879 
L 389.44 112.369219 
L 390.588676 113.047273 
L 393.047273 114.498554 
L 396.654545 116.627904 
L 398.030306 117.44 
L 400.261818 118.757241 
L 403.869091 120.886568 
L 405.471953 121.832727 
L 407.476364 123.015913 
L 411.083636 125.145263 
L 412.913566 126.225455 
L 414.690909 127.274604 
L 418.298182 129.403919 
L 420.355223 130.618182 
L 421.905455 131.533282 
L 425.512727 133.662595 
L 427.796887 135.010909 
z
" style="fill:#779af7;"/>
    <path clip-path="url(#p809d7a5e6a)" d="M 73.680188 130.618182 
L 75.607273 126.855531 
L 75.929975 126.225455 
L 78.179807 121.832727 
L 79.214545 119.81242 
L 80.429619 117.44 
L 82.679424 113.047273 
L 82.821818 112.769247 
L 84.929238 108.654545 
L 86.429091 105.726108 
L 87.179046 104.261818 
L 89.428839 99.869091 
L 90.036364 98.682927 
L 91.678679 95.476364 
L 93.643636 91.639759 
L 93.92846 91.083636 
L 96.17828 86.690909 
L 97.250909 84.596619 
L 98.428084 82.298182 
L 100.858182 78.820096 
L 101.868337 77.905455 
L 104.465455 75.888408 
L 107.524295 73.512727 
L 108.072727 73.086786 
L 111.68 70.285245 
L 113.180352 69.12 
L 111.68 69.12 
L 108.072727 69.12 
L 104.465455 69.12 
L 100.858182 69.12 
L 97.250909 69.12 
L 93.643636 69.12 
L 90.036364 69.12 
L 86.429091 69.12 
L 82.821818 69.12 
L 79.214545 69.12 
L 75.607273 69.12 
L 72 69.12 
L 72 73.512727 
L 72 77.905455 
L 72 82.298182 
L 72 86.690909 
L 72 91.083636 
L 72 95.476364 
L 72 99.869091 
L 72 104.261818 
L 72 108.654545 
L 72 113.047273 
L 72 117.44 
L 72 121.832727 
L 72 126.225455 
L 72 130.618182 
L 72 133.898736 
z
" style="fill:#779af7;"/>
   </g>
   <g id="PathCollection_3">
    <path clip-path="url(#p809d7a5e6a)" d="M 90.036364 501.068235 
L 93.643636 503.276084 
L 94.826379 504 
L 97.250909 504 
L 100.858182 504 
L 104.465455 504 
L 108.072727 504 
L 111.68 504 
L 115.287273 504 
L 118.894545 504 
L 122.501818 504 
L 126.109091 504 
L 129.716364 504 
L 133.323636 504 
L 136.930909 504 
L 140.538182 504 
L 144.145455 504 
L 147.752727 504 
L 151.36 504 
L 154.967273 504 
L 158.574545 504 
L 162.181818 504 
L 165.789091 504 
L 169.396364 504 
L 173.003636 504 
L 176.610909 504 
L 180.218182 504 
L 183.825455 504 
L 187.432727 504 
L 191.04 504 
L 191.36828 504 
L 191.04 503.796529 
L 187.432727 501.560739 
L 184.280966 499.607273 
L 183.825455 499.324945 
L 180.218182 497.094494 
L 177.152018 495.214545 
L 176.610909 494.883353 
L 173.003636 492.675477 
L 169.975091 490.821818 
L 169.396364 490.467601 
L 165.789091 488.259725 
L 162.798164 486.429091 
L 162.181818 486.051849 
L 158.574545 483.843973 
L 155.621236 482.036364 
L 154.967273 481.636099 
L 151.36 479.428235 
L 148.444302 477.643636 
L 147.752727 477.220348 
L 144.145455 475.012469 
L 141.267352 473.250909 
L 140.538182 472.804614 
L 136.930909 470.596718 
L 134.090425 468.858182 
L 133.323636 468.388867 
L 129.716364 466.180993 
L 126.913481 464.465455 
L 126.109091 463.973115 
L 122.501818 461.765242 
L 119.736553 460.072727 
L 118.894545 459.557363 
L 115.287273 457.349507 
L 112.559598 455.68 
L 111.68 455.141631 
L 108.072727 452.936778 
L 105.341794 451.287273 
L 104.465455 450.760234 
L 100.858182 448.590767 
L 98.037709 446.894545 
L 97.250909 446.421365 
L 93.643636 444.251909 
L 90.733635 442.501818 
L 90.036364 442.082477 
L 86.429091 439.913046 
L 83.429526 438.109091 
L 82.821818 437.742029 
L 79.293071 433.716364 
L 79.214545 433.459625 
L 77.949492 429.323636 
L 76.60588 424.930909 
L 75.607273 421.666056 
L 75.262296 420.538182 
L 73.918708 416.145455 
L 72.575122 411.752727 
L 72 409.872419 
L 72 411.752727 
L 72 416.145455 
L 72 420.538182 
L 72 424.930909 
L 72 429.323636 
L 72 433.716364 
L 72 438.109091 
L 72 442.501818 
L 72 446.894545 
L 72 451.287273 
L 72 455.68 
L 72 460.072727 
L 72 464.465455 
L 72 468.858182 
L 72 473.250909 
L 72 477.643636 
L 72 482.036364 
L 72 486.429091 
L 72 490.089439 
L 73.217755 490.821818 
L 75.607273 492.25891 
L 79.214545 494.445162 
L 80.472536 495.214545 
L 82.821818 496.652453 
L 86.429091 498.860336 
L 87.649439 499.607273 
z
" style="fill:#a3c2fe;"/>
    <path clip-path="url(#p809d7a5e6a)" d="M 288.436364 504 
L 292.043636 504 
L 295.650909 504 
L 299.258182 504 
L 302.865455 504 
L 306.472727 504 
L 310.08 504 
L 313.687273 504 
L 317.294545 504 
L 320.901818 504 
L 324.509091 504 
L 328.116364 504 
L 331.723636 504 
L 335.330909 504 
L 338.938182 504 
L 342.545455 504 
L 346.152727 504 
L 349.76 504 
L 353.367273 504 
L 356.974545 504 
L 360.581818 504 
L 364.189091 504 
L 367.796364 504 
L 371.403636 504 
L 375.010909 504 
L 378.618182 504 
L 382.225455 504 
L 385.832727 504 
L 389.44 504 
L 393.047273 504 
L 396.654545 504 
L 400.261818 504 
L 403.869091 504 
L 407.476364 504 
L 409.827277 504 
L 411.083636 502.47778 
L 413.452752 499.607273 
L 414.690909 498.107066 
L 417.078226 495.214545 
L 418.298182 493.736423 
L 420.762246 490.821818 
L 421.905455 489.587006 
L 424.901004 486.429091 
L 425.512727 485.784218 
L 429.067877 482.036364 
L 429.12 481.969085 
L 429.12 477.643636 
L 429.12 473.250909 
L 429.12 468.858182 
L 429.12 464.465455 
L 429.12 460.072727 
L 429.12 455.68 
L 429.12 451.287273 
L 429.12 446.894545 
L 429.12 442.501818 
L 429.12 438.109091 
L 429.12 433.716364 
L 429.12 429.323636 
L 429.12 424.930909 
L 429.12 420.538182 
L 429.12 416.145455 
L 429.12 411.752727 
L 429.12 407.36 
L 429.12 402.967273 
L 429.12 398.574545 
L 429.12 394.181818 
L 429.12 389.789091 
L 429.12 385.396364 
L 429.12 381.003636 
L 429.12 376.610909 
L 429.12 372.218182 
L 429.12 367.825455 
L 429.12 363.432727 
L 429.12 359.04 
L 429.12 354.647273 
L 429.12 350.254545 
L 429.12 345.861818 
L 429.12 341.469091 
L 429.12 337.076364 
L 429.12 332.683636 
L 429.12 328.290909 
L 429.12 323.898182 
L 429.12 319.505455 
L 429.12 315.112727 
L 429.12 310.72 
L 429.12 306.327273 
L 429.12 301.934545 
L 429.12 297.541818 
L 429.12 293.149091 
L 429.12 288.756364 
L 429.12 284.363636 
L 429.12 279.970909 
L 429.12 275.578182 
L 429.12 271.185455 
L 429.12 266.792727 
L 429.12 262.4 
L 429.12 258.007273 
L 429.12 253.614545 
L 429.12 249.221818 
L 429.12 244.829091 
L 429.12 240.436364 
L 429.12 236.043636 
L 429.12 231.650909 
L 429.12 227.258182 
L 429.12 222.865455 
L 429.12 218.472727 
L 429.12 214.08 
L 429.12 209.687273 
L 429.12 205.294545 
L 429.12 200.901818 
L 429.12 196.509091 
L 429.12 192.116364 
L 429.12 187.723636 
L 429.12 183.330909 
L 429.12 178.938182 
L 429.12 174.545455 
L 429.12 170.152727 
L 429.12 165.76 
L 429.12 161.367273 
L 429.12 156.974545 
L 429.12 152.581818 
L 429.12 148.189091 
L 429.12 143.796364 
L 429.12 139.403636 
L 429.12 135.791931 
L 427.796887 135.010909 
L 425.512727 133.662595 
L 421.905455 131.533282 
L 420.355223 130.618182 
L 418.298182 129.403919 
L 414.690909 127.274604 
L 412.913566 126.225455 
L 411.083636 125.145263 
L 407.476364 123.015913 
L 405.471953 121.832727 
L 403.869091 120.886568 
L 400.261818 118.757241 
L 398.030306 117.44 
L 396.654545 116.627904 
L 393.047273 114.498554 
L 390.588676 113.047273 
L 389.44 112.369219 
L 385.832727 110.239879 
L 383.147024 108.654545 
L 382.225455 108.110556 
L 378.618182 105.981219 
L 375.70538 104.261818 
L 375.010909 103.851875 
L 371.403636 101.722524 
L 368.263786 99.869091 
L 367.796364 99.593178 
L 364.189091 97.463853 
L 360.822097 95.476364 
L 360.581818 95.33453 
L 356.974545 93.205172 
L 353.380465 91.083636 
L 353.367273 91.075849 
L 349.76 88.946508 
L 346.152727 86.817168 
L 345.938835 86.690909 
L 342.545455 84.687827 
L 338.938182 82.558486 
L 338.497209 82.298182 
L 335.330909 80.429135 
L 331.723636 78.299805 
L 331.055575 77.905455 
L 328.116364 76.170464 
L 324.509091 74.041124 
L 323.613945 73.512727 
L 320.901818 71.911796 
L 317.294545 69.782473 
L 316.172254 69.12 
L 313.687273 69.12 
L 310.08 69.12 
L 306.472727 69.12 
L 302.865455 69.12 
L 299.258182 69.12 
L 295.650909 69.12 
L 292.043636 69.12 
L 288.436364 69.12 
L 284.829091 69.12 
L 281.221818 69.12 
L 277.614545 69.12 
L 274.007273 69.12 
L 270.4 69.12 
L 266.792727 69.12 
L 263.185455 69.12 
L 259.578182 69.12 
L 255.970909 69.12 
L 252.363636 69.12 
L 248.756364 69.12 
L 245.149091 69.12 
L 241.541818 69.12 
L 237.934545 69.12 
L 234.327273 69.12 
L 230.72 69.12 
L 227.112727 69.12 
L 223.505455 69.12 
L 219.898182 69.12 
L 216.290909 69.12 
L 212.683636 69.12 
L 209.076364 69.12 
L 205.469091 69.12 
L 201.861818 69.12 
L 198.254545 69.12 
L 194.647273 69.12 
L 191.04 69.12 
L 187.432727 69.12 
L 183.825455 69.12 
L 180.218182 69.12 
L 176.610909 69.12 
L 173.003636 69.12 
L 169.396364 69.12 
L 165.789091 69.12 
L 162.181818 69.12 
L 158.574545 69.12 
L 154.967273 69.12 
L 151.36 69.12 
L 147.752727 69.12 
L 144.145455 69.12 
L 140.538182 69.12 
L 136.930909 69.12 
L 133.323636 69.12 
L 129.716364 69.12 
L 126.109091 69.12 
L 122.501818 69.12 
L 118.894545 69.12 
L 115.287273 69.12 
L 113.180352 69.12 
L 111.68 70.285245 
L 108.072727 73.086786 
L 107.524295 73.512727 
L 104.465455 75.888408 
L 101.868337 77.905455 
L 100.858182 78.820096 
L 98.428084 82.298182 
L 97.250909 84.596619 
L 96.17828 86.690909 
L 93.92846 91.083636 
L 93.643636 91.639759 
L 91.678679 95.476364 
L 90.036364 98.682927 
L 89.428839 99.869091 
L 87.179046 104.261818 
L 86.429091 105.726108 
L 84.929238 108.654545 
L 82.821818 112.769247 
L 82.679424 113.047273 
L 80.429619 117.44 
L 79.214545 119.81242 
L 78.179807 121.832727 
L 75.929975 126.225455 
L 75.607273 126.855531 
L 73.680188 130.618182 
L 72 133.898736 
L 72 135.010909 
L 72 139.403636 
L 72 143.796364 
L 72 148.189091 
L 72 152.581818 
L 72 156.974545 
L 72 161.367273 
L 72 165.76 
L 72 170.152727 
L 72 174.545455 
L 72 178.938182 
L 72 183.330909 
L 72 187.723636 
L 72 192.116364 
L 72 196.509091 
L 72 200.901818 
L 72 205.294545 
L 72 209.687273 
L 72 214.08 
L 72 218.472727 
L 72 222.865455 
L 72 227.258182 
L 72 231.650909 
L 72 236.043636 
L 72 240.436364 
L 72 244.829091 
L 72 249.221818 
L 72 253.614545 
L 72 258.007273 
L 72 262.4 
L 72 266.792727 
L 72 271.185455 
L 72 275.578182 
L 72 279.970909 
L 72 284.363636 
L 72 288.756364 
L 72 293.149091 
L 72 297.541818 
L 72 301.934545 
L 72 306.327273 
L 72 310.72 
L 72 315.112727 
L 72 319.505455 
L 72 323.898182 
L 72 328.290909 
L 72 332.683636 
L 72 337.076364 
L 72 341.469091 
L 72 345.861818 
L 72 350.254545 
L 72 354.647273 
L 72 359.04 
L 72 363.432727 
L 72 367.825455 
L 72 370.558707 
L 72.391342 367.825455 
L 73.020309 363.432727 
L 73.649272 359.04 
L 74.278224 354.647273 
L 74.907175 350.254545 
L 75.536141 345.861818 
L 75.607273 345.365014 
L 76.165083 341.469091 
L 76.794055 337.076364 
L 77.422997 332.683636 
L 78.051969 328.290909 
L 78.680941 323.898182 
L 79.214545 320.171321 
L 79.309883 319.505455 
L 79.941259 315.112727 
L 80.577591 310.72 
L 81.213969 306.327273 
L 81.850338 301.934545 
L 82.486722 297.541818 
L 82.821818 295.228766 
L 83.123106 293.149091 
L 83.74157 288.756364 
L 84.184756 284.363636 
L 84.606102 279.970909 
L 85.027448 275.578182 
L 85.448779 271.185455 
L 85.870137 266.792727 
L 86.29147 262.4 
L 86.429091 260.96529 
L 86.712828 258.007273 
L 87.134156 253.614545 
L 87.555508 249.221818 
L 87.976841 244.829091 
L 88.398176 240.436364 
L 88.819525 236.043636 
L 89.240853 231.650909 
L 89.662197 227.258182 
L 90.036364 223.357269 
L 90.083538 222.865455 
L 90.504894 218.472727 
L 90.926229 214.08 
L 91.34756 209.687273 
L 91.768914 205.294545 
L 92.190263 200.901818 
L 92.611591 196.509091 
L 93.032946 192.116364 
L 93.454276 187.723636 
L 93.643636 186.959476 
L 94.785238 183.330909 
L 97.035045 178.938182 
L 97.250909 178.516701 
L 99.284856 174.545455 
L 100.858182 171.473562 
L 101.534665 170.152727 
L 103.784479 165.76 
L 104.465455 164.430398 
L 106.034287 161.367273 
L 108.072727 157.387212 
L 108.284081 156.974545 
L 110.53391 152.581818 
L 111.68 150.34411 
L 112.783728 148.189091 
L 115.033549 143.796364 
L 115.287273 143.30097 
L 117.283343 139.403636 
L 118.894545 136.257785 
L 119.533151 135.010909 
L 121.782955 130.618182 
L 122.501818 129.214596 
L 124.032766 126.225455 
L 126.109091 122.171511 
L 126.282605 121.832727 
L 128.532399 117.44 
L 129.716364 115.73172 
L 132.657316 113.047273 
L 133.323636 112.529779 
L 136.930909 109.728195 
L 138.313324 108.654545 
L 140.538182 106.926614 
L 143.969332 104.261818 
L 144.145455 104.125033 
L 147.752727 101.621039 
L 151.36 101.130121 
L 154.967273 100.979597 
L 158.574545 100.82908 
L 162.181818 100.678551 
L 165.789091 100.528041 
L 169.396364 100.377511 
L 173.003636 100.226997 
L 176.610909 100.076485 
L 180.218182 99.925955 
L 181.580877 99.869091 
L 183.825455 99.775427 
L 187.432727 99.624929 
L 191.04 99.474371 
L 194.647273 99.323872 
L 198.254545 99.173346 
L 201.861818 99.022831 
L 205.469091 98.872318 
L 209.076364 98.721789 
L 212.683636 98.571276 
L 216.290909 98.420758 
L 219.898182 98.270229 
L 223.505455 98.119712 
L 227.112727 97.942187 
L 230.72 97.746593 
L 234.327273 97.550983 
L 237.934545 97.355372 
L 241.541818 97.159755 
L 245.149091 96.964146 
L 248.756364 96.768536 
L 252.363636 96.57293 
L 255.970909 96.377304 
L 259.578182 96.18171 
L 263.185455 95.986099 
L 266.792727 95.790489 
L 270.4 95.594878 
L 272.585542 95.476364 
L 274.007273 95.399268 
L 277.614545 95.203674 
L 279.522747 95.476364 
L 281.221818 95.744672 
L 284.829091 97.874013 
L 288.208913 99.869091 
L 288.436364 100.003353 
L 292.043636 102.132694 
L 295.650543 104.261818 
L 295.650909 104.262035 
L 299.258182 106.391375 
L 302.865455 108.520716 
L 303.092173 108.654545 
L 306.472727 110.65004 
L 310.08 112.77938 
L 310.533829 113.047273 
L 313.687273 114.908723 
L 317.294545 117.03806 
L 317.975463 117.44 
L 320.901818 119.167394 
L 324.509091 121.296724 
L 325.417124 121.832727 
L 328.116364 123.426051 
L 331.723636 125.555408 
L 332.858754 126.225455 
L 335.330909 127.684746 
L 338.938182 129.814072 
L 340.300414 130.618182 
L 342.545455 131.943404 
L 346.152727 134.072753 
L 347.742058 135.010909 
L 349.76 136.202082 
L 353.367273 138.331422 
L 355.183674 139.403636 
L 356.974545 140.460781 
L 360.581818 142.590104 
L 362.625335 143.796364 
L 364.189091 144.719435 
L 367.796364 146.848776 
L 370.066965 148.189091 
L 371.403636 148.978116 
L 375.010909 151.107457 
L 377.508595 152.581818 
L 378.618182 153.236797 
L 382.225455 155.366127 
L 384.950232 156.974545 
L 385.832727 157.495477 
L 389.44 159.625944 
L 392.380936 161.367273 
L 393.047273 161.76286 
L 396.654545 163.904425 
L 399.780093 165.76 
L 400.261818 166.045989 
L 403.869091 168.187511 
L 405.983061 170.152727 
L 407.185126 174.545455 
L 407.253178 178.938182 
L 407.321204 183.330909 
L 407.39906 187.723636 
L 407.476364 192.048972 
L 407.477569 192.116364 
L 407.556126 196.509091 
L 407.634683 200.901818 
L 407.713253 205.294545 
L 407.791797 209.687273 
L 407.87034 214.08 
L 407.948899 218.472727 
L 408.027455 222.865455 
L 408.105998 227.258182 
L 408.184544 231.650909 
L 408.263112 236.043636 
L 408.341673 240.436364 
L 408.420226 244.829091 
L 408.49877 249.221818 
L 408.577313 253.614545 
L 408.655879 258.007273 
L 408.734427 262.4 
L 408.812971 266.792727 
L 408.891542 271.185455 
L 408.970085 275.578182 
L 409.048636 279.970909 
L 409.127199 284.363636 
L 409.205743 288.756364 
L 409.284286 293.149091 
L 409.36285 297.541818 
L 409.4414 301.934545 
L 409.519944 306.327273 
L 409.598514 310.72 
L 409.677058 315.112727 
L 409.755618 319.505455 
L 409.834154 323.898182 
L 409.912715 328.290909 
L 409.991282 332.683636 
L 410.069829 337.076364 
L 410.148383 341.469091 
L 410.22693 345.861818 
L 410.305487 350.254545 
L 410.38403 354.647273 
L 410.462579 359.04 
L 410.541145 363.432727 
L 410.61969 367.825455 
L 410.698259 372.218182 
L 410.776802 376.610909 
L 410.855359 381.003636 
L 410.933903 385.396364 
L 411.01246 389.789091 
L 411.083636 393.768421 
L 411.091031 394.181818 
L 411.169573 398.574545 
L 411.248117 402.967273 
L 411.083636 404.025884 
L 410.435204 407.36 
L 408.932566 411.752727 
L 407.476364 416.009572 
L 407.429881 416.145455 
L 405.927243 420.538182 
L 404.424591 424.930909 
L 403.869091 426.55482 
L 402.921938 429.323636 
L 401.41929 433.716364 
L 400.261818 437.099983 
L 399.916623 438.109091 
L 397.96141 442.501818 
L 396.654545 444.184526 
L 394.083849 446.894545 
L 393.047273 447.987301 
L 389.916954 451.287273 
L 389.44 451.790077 
L 385.832727 455.592852 
L 385.75006 455.68 
L 382.225455 459.395651 
L 381.583186 460.072727 
L 378.618182 463.198383 
L 377.436176 464.465455 
L 375.010909 467.312544 
L 373.735239 468.858182 
L 371.403636 471.683236 
L 370.109789 473.250909 
L 367.796364 476.053901 
L 366.484299 477.643636 
L 364.189091 480.424613 
L 362.858846 482.036364 
L 360.581818 484.795275 
L 359.233381 486.429091 
L 356.974545 489.165959 
L 355.292219 490.821818 
L 353.367273 492.082362 
L 349.76 492.711885 
L 346.152727 493.341425 
L 342.545455 493.970956 
L 338.938182 494.600453 
L 335.419456 495.214545 
L 335.330909 495.229999 
L 331.723636 495.85955 
L 328.116364 496.489062 
L 324.509091 497.11859 
L 320.901818 497.748124 
L 317.294545 498.37767 
L 313.687273 499.007187 
L 310.248618 499.607273 
L 310.08 499.636698 
L 306.472727 500.266227 
L 302.865455 500.895761 
L 299.258182 501.525295 
L 295.650909 502.154824 
L 292.043636 502.784335 
L 288.436364 503.413869 
L 285.077766 504 
z
" style="fill:#a3c2fe;"/>
   </g>
   <g id="PathCollection_4">
    <path clip-path="url(#p809d7a5e6a)" d="M 187.432727 501.560739 
L 191.04 503.796529 
L 191.36828 504 
L 194.647273 504 
L 198.254545 504 
L 201.861818 504 
L 205.469091 504 
L 209.076364 504 
L 212.683636 504 
L 216.290909 504 
L 219.898182 504 
L 223.505455 504 
L 227.112727 504 
L 230.72 504 
L 234.327273 504 
L 237.934545 504 
L 241.541818 504 
L 245.149091 504 
L 248.756364 504 
L 252.363636 504 
L 255.970909 504 
L 259.578182 504 
L 263.185455 504 
L 266.792727 504 
L 270.4 504 
L 274.007273 504 
L 277.614545 504 
L 281.221818 504 
L 284.829091 504 
L 285.077766 504 
L 288.436364 503.413869 
L 292.043636 502.784335 
L 295.650909 502.154824 
L 299.258182 501.525295 
L 302.865455 500.895761 
L 306.472727 500.266227 
L 310.08 499.636698 
L 310.248618 499.607273 
L 313.687273 499.007187 
L 317.294545 498.37767 
L 320.901818 497.748124 
L 324.509091 497.11859 
L 328.116364 496.489062 
L 331.723636 495.85955 
L 335.330909 495.229999 
L 335.419456 495.214545 
L 338.938182 494.600453 
L 342.545455 493.970956 
L 346.152727 493.341425 
L 349.76 492.711885 
L 353.367273 492.082362 
L 355.292219 490.821818 
L 356.974545 489.165959 
L 359.233381 486.429091 
L 360.581818 484.795275 
L 362.858846 482.036364 
L 364.189091 480.424613 
L 366.484299 477.643636 
L 367.796364 476.053901 
L 370.109789 473.250909 
L 371.403636 471.683236 
L 373.735239 468.858182 
L 375.010909 467.312544 
L 377.436176 464.465455 
L 378.618182 463.198383 
L 381.583186 460.072727 
L 382.225455 459.395651 
L 385.75006 455.68 
L 385.832727 455.592852 
L 389.44 451.790077 
L 389.916954 451.287273 
L 393.047273 447.987301 
L 394.083849 446.894545 
L 396.654545 444.184526 
L 397.96141 442.501818 
L 399.916623 438.109091 
L 400.261818 437.099983 
L 401.41929 433.716364 
L 402.921938 429.323636 
L 403.869091 426.55482 
L 404.424591 424.930909 
L 405.927243 420.538182 
L 407.429881 416.145455 
L 407.476364 416.009572 
L 408.932566 411.752727 
L 410.435204 407.36 
L 411.083636 404.025884 
L 411.248117 402.967273 
L 411.169573 398.574545 
L 411.091031 394.181818 
L 411.083636 393.768421 
L 411.01246 389.789091 
L 410.933903 385.396364 
L 410.855359 381.003636 
L 410.776802 376.610909 
L 410.698259 372.218182 
L 410.61969 367.825455 
L 410.541145 363.432727 
L 410.462579 359.04 
L 410.38403 354.647273 
L 410.305487 350.254545 
L 410.22693 345.861818 
L 410.148383 341.469091 
L 410.069829 337.076364 
L 409.991282 332.683636 
L 409.912715 328.290909 
L 409.834154 323.898182 
L 409.755618 319.505455 
L 409.677058 315.112727 
L 409.598514 310.72 
L 409.519944 306.327273 
L 409.4414 301.934545 
L 409.36285 297.541818 
L 409.284286 293.149091 
L 409.205743 288.756364 
L 409.127199 284.363636 
L 409.048636 279.970909 
L 408.970085 275.578182 
L 408.891542 271.185455 
L 408.812971 266.792727 
L 408.734427 262.4 
L 408.655879 258.007273 
L 408.577313 253.614545 
L 408.49877 249.221818 
L 408.420226 244.829091 
L 408.341673 240.436364 
L 408.263112 236.043636 
L 408.184544 231.650909 
L 408.105998 227.258182 
L 408.027455 222.865455 
L 407.948899 218.472727 
L 407.87034 214.08 
L 407.791797 209.687273 
L 407.713253 205.294545 
L 407.634683 200.901818 
L 407.556126 196.509091 
L 407.477569 192.116364 
L 407.476364 192.048972 
L 407.39906 187.723636 
L 407.321204 183.330909 
L 407.253178 178.938182 
L 407.185126 174.545455 
L 405.983061 170.152727 
L 403.869091 168.187511 
L 400.261818 166.045989 
L 399.780093 165.76 
L 396.654545 163.904425 
L 393.047273 161.76286 
L 392.380936 161.367273 
L 389.44 159.625944 
L 385.832727 157.495477 
L 384.950232 156.974545 
L 382.225455 155.366127 
L 378.618182 153.236797 
L 377.508595 152.581818 
L 375.010909 151.107457 
L 371.403636 148.978116 
L 370.066965 148.189091 
L 367.796364 146.848776 
L 364.189091 144.719435 
L 362.625335 143.796364 
L 360.581818 142.590104 
L 356.974545 140.460781 
L 355.183674 139.403636 
L 353.367273 138.331422 
L 349.76 136.202082 
L 347.742058 135.010909 
L 346.152727 134.072753 
L 342.545455 131.943404 
L 340.300414 130.618182 
L 338.938182 129.814072 
L 335.330909 127.684746 
L 332.858754 126.225455 
L 331.723636 125.555408 
L 328.116364 123.426051 
L 325.417124 121.832727 
L 324.509091 121.296724 
L 320.901818 119.167394 
L 317.975463 117.44 
L 317.294545 117.03806 
L 313.687273 114.908723 
L 310.533829 113.047273 
L 310.08 112.77938 
L 306.472727 110.65004 
L 303.092173 108.654545 
L 302.865455 108.520716 
L 299.258182 106.391375 
L 295.650909 104.262035 
L 295.650543 104.261818 
L 292.043636 102.132694 
L 288.436364 100.003353 
L 288.208913 99.869091 
L 284.829091 97.874013 
L 281.221818 95.744672 
L 279.522747 95.476364 
L 277.614545 95.203674 
L 274.007273 95.399268 
L 272.585542 95.476364 
L 270.4 95.594878 
L 266.792727 95.790489 
L 263.185455 95.986099 
L 259.578182 96.18171 
L 255.970909 96.377304 
L 252.363636 96.57293 
L 248.756364 96.768536 
L 245.149091 96.964146 
L 241.541818 97.159755 
L 237.934545 97.355372 
L 234.327273 97.550983 
L 230.72 97.746593 
L 227.112727 97.942187 
L 223.505455 98.119712 
L 219.898182 98.270229 
L 216.290909 98.420758 
L 212.683636 98.571276 
L 209.076364 98.721789 
L 205.469091 98.872318 
L 201.861818 99.022831 
L 198.254545 99.173346 
L 194.647273 99.323872 
L 191.04 99.474371 
L 187.432727 99.624929 
L 183.825455 99.775427 
L 181.580877 99.869091 
L 180.218182 99.925955 
L 176.610909 100.076485 
L 173.003636 100.226997 
L 169.396364 100.377511 
L 165.789091 100.528041 
L 162.181818 100.678551 
L 158.574545 100.82908 
L 154.967273 100.979597 
L 151.36 101.130121 
L 147.752727 101.621039 
L 144.145455 104.125033 
L 143.969332 104.261818 
L 140.538182 106.926614 
L 138.313324 108.654545 
L 136.930909 109.728195 
L 133.323636 112.529779 
L 132.657316 113.047273 
L 129.716364 115.73172 
L 128.532399 117.44 
L 126.282605 121.832727 
L 126.109091 122.171511 
L 124.032766 126.225455 
L 122.501818 129.214596 
L 121.782955 130.618182 
L 119.533151 135.010909 
L 118.894545 136.257785 
L 117.283343 139.403636 
L 115.287273 143.30097 
L 115.033549 143.796364 
L 112.783728 148.189091 
L 111.68 150.34411 
L 110.53391 152.581818 
L 108.284081 156.974545 
L 108.072727 157.387212 
L 106.034287 161.367273 
L 104.465455 164.430398 
L 103.784479 165.76 
L 101.534665 170.152727 
L 100.858182 171.473562 
L 99.284856 174.545455 
L 97.250909 178.516701 
L 97.035045 178.938182 
L 94.785238 183.330909 
L 93.643636 186.959476 
L 93.454276 187.723636 
L 93.032946 192.116364 
L 92.611591 196.509091 
L 92.190263 200.901818 
L 91.768914 205.294545 
L 91.34756 209.687273 
L 90.926229 214.08 
L 90.504894 218.472727 
L 90.083538 222.865455 
L 90.036364 223.357269 
L 89.662197 227.258182 
L 89.240853 231.650909 
L 88.819525 236.043636 
L 88.398176 240.436364 
L 87.976841 244.829091 
L 87.555508 249.221818 
L 87.134156 253.614545 
L 86.712828 258.007273 
L 86.429091 260.96529 
L 86.29147 262.4 
L 85.870137 266.792727 
L 85.448779 271.185455 
L 85.027448 275.578182 
L 84.606102 279.970909 
L 84.184756 284.363636 
L 83.74157 288.756364 
L 83.123106 293.149091 
L 82.821818 295.228766 
L 82.486722 297.541818 
L 81.850338 301.934545 
L 81.213969 306.327273 
L 80.577591 310.72 
L 79.941259 315.112727 
L 79.309883 319.505455 
L 79.214545 320.171321 
L 78.680941 323.898182 
L 78.051969 328.290909 
L 77.422997 332.683636 
L 76.794055 337.076364 
L 76.165083 341.469091 
L 75.607273 345.365014 
L 75.536141 345.861818 
L 74.907175 350.254545 
L 74.278224 354.647273 
L 73.649272 359.04 
L 73.020309 363.432727 
L 72.391342 367.825455 
L 72 370.558707 
L 72 372.218182 
L 72 376.610909 
L 72 381.003636 
L 72 385.396364 
L 72 389.789091 
L 72 394.181818 
L 72 398.574545 
L 72 402.967273 
L 72 407.36 
L 72 409.872419 
L 72.575122 411.752727 
L 73.918708 416.145455 
L 75.262296 420.538182 
L 75.607273 421.666056 
L 76.60588 424.930909 
L 77.949492 429.323636 
L 79.214545 433.459625 
L 79.293071 433.716364 
L 82.821818 437.742029 
L 83.429526 438.109091 
L 86.429091 439.913046 
L 90.036364 442.082477 
L 90.733635 442.501818 
L 93.643636 444.251909 
L 97.250909 446.421365 
L 98.037709 446.894545 
L 100.858182 448.590767 
L 104.465455 450.760234 
L 105.341794 451.287273 
L 108.072727 452.936778 
L 111.68 455.141631 
L 112.559598 455.68 
L 115.287273 457.349507 
L 118.894545 459.557363 
L 119.736553 460.072727 
L 122.501818 461.765242 
L 126.109091 463.973115 
L 126.913481 464.465455 
L 129.716364 466.180993 
L 133.323636 468.388867 
L 134.090425 468.858182 
L 136.930909 470.596718 
L 140.538182 472.804614 
L 141.267352 473.250909 
L 144.145455 475.012469 
L 147.752727 477.220348 
L 148.444302 477.643636 
L 151.36 479.428235 
L 154.967273 481.636099 
L 155.621236 482.036364 
L 158.574545 483.843973 
L 162.181818 486.051849 
L 162.798164 486.429091 
L 165.789091 488.259725 
L 169.396364 490.467601 
L 169.975091 490.821818 
L 173.003636 492.675477 
L 176.610909 494.883353 
L 177.152018 495.214545 
L 180.218182 497.094494 
L 183.825455 499.324945 
L 184.280966 499.607273 
z
M 216.337817 460.072727 
L 216.290909 460.043654 
L 212.683636 457.807861 
L 209.238281 455.68 
L 209.076364 455.580385 
L 205.469091 453.372498 
L 202.062172 451.287273 
L 201.861818 451.164644 
L 198.254545 448.956763 
L 194.885261 446.894545 
L 194.647273 446.748882 
L 191.04 444.540995 
L 187.708335 442.501818 
L 187.432727 442.33313 
L 183.825455 440.12526 
L 180.531404 438.109091 
L 180.218182 437.917378 
L 176.610909 435.709508 
L 173.354478 433.716364 
L 173.003636 433.501627 
L 169.396364 431.29375 
L 166.177536 429.323636 
L 165.789091 429.085886 
L 162.181818 426.87801 
L 159.00062 424.930909 
L 158.574545 424.670124 
L 154.967273 422.462275 
L 151.823658 420.538182 
L 151.36 420.254393 
L 147.752727 418.046517 
L 144.646733 416.145455 
L 144.145455 415.838641 
L 140.538182 413.63076 
L 137.460933 411.752727 
L 136.930909 411.431004 
L 133.323636 409.261572 
L 130.161741 407.36 
L 129.716364 407.092147 
L 126.109091 404.922702 
L 122.857659 402.967273 
L 122.501818 402.612571 
L 120.35703 398.574545 
L 119.013451 394.181818 
L 118.894545 393.793065 
L 117.669866 389.789091 
L 116.326267 385.396364 
L 115.287273 381.999485 
L 114.982676 381.003636 
L 113.639108 376.610909 
L 112.295502 372.218182 
L 111.68 369.592528 
L 111.368385 367.825455 
L 111.68 365.649107 
L 111.997347 363.432727 
L 112.626298 359.04 
L 113.255263 354.647273 
L 113.884217 350.254545 
L 114.513166 345.861818 
L 115.142126 341.469091 
L 115.287273 340.455361 
L 115.77108 337.076364 
L 116.400044 332.683636 
L 117.028989 328.290909 
L 117.657948 323.898182 
L 118.286913 319.505455 
L 118.894545 315.26164 
L 118.915867 315.112727 
L 119.534666 310.72 
L 119.983178 306.327273 
L 120.397106 301.934545 
L 120.811036 297.541818 
L 121.229389 293.149091 
L 121.650731 288.756364 
L 122.072077 284.363636 
L 122.493407 279.970909 
L 122.501818 279.883214 
L 122.914752 275.578182 
L 123.336109 271.185455 
L 123.757444 266.792727 
L 124.178785 262.4 
L 124.600131 258.007273 
L 125.02147 253.614545 
L 125.442812 249.221818 
L 125.864157 244.829091 
L 126.109091 242.275544 
L 126.285503 240.436364 
L 126.706846 236.043636 
L 127.12818 231.650909 
L 127.549526 227.258182 
L 127.970864 222.865455 
L 128.392208 218.472727 
L 128.813552 214.08 
L 129.441611 209.687273 
L 129.716364 209.048429 
L 131.63898 205.294545 
L 133.323636 202.005276 
L 133.888788 200.901818 
L 136.138584 196.509091 
L 136.930909 194.962093 
L 138.388401 192.116364 
L 140.538182 187.918933 
L 140.638206 187.723636 
L 142.88803 183.330909 
L 144.145455 180.875796 
L 145.137829 178.938182 
L 147.38764 174.545455 
L 147.752727 173.832624 
L 149.637437 170.152727 
L 151.36 166.789465 
L 151.88726 165.76 
L 154.137074 161.367273 
L 154.967273 159.746307 
L 156.386867 156.974545 
L 158.574545 152.703148 
L 158.653467 152.581818 
L 162.181818 149.171167 
L 163.446335 148.189091 
L 165.789091 146.36959 
L 169.10233 143.796364 
L 169.396364 143.610148 
L 173.003636 142.988421 
L 176.610909 142.837908 
L 180.218182 142.687375 
L 183.825455 142.536866 
L 187.432727 142.386343 
L 191.04 142.235825 
L 194.647273 142.085293 
L 198.254545 141.934776 
L 201.861818 141.784246 
L 205.469091 141.633734 
L 209.076364 141.483213 
L 212.683636 141.332693 
L 216.290909 141.182171 
L 219.898182 141.031648 
L 223.505455 140.88113 
L 227.112727 140.705939 
L 230.72 140.510317 
L 234.327273 140.314707 
L 237.934545 140.11911 
L 241.541818 139.9235 
L 245.149091 139.727891 
L 248.756364 139.532281 
L 251.128524 139.403636 
L 252.363636 139.336655 
L 255.970909 139.141061 
L 259.578182 138.945436 
L 263.185455 138.749842 
L 266.792727 138.554229 
L 270.4 138.358623 
L 274.007273 138.741593 
L 275.128831 139.403636 
L 277.614545 140.870925 
L 281.221818 143.000257 
L 282.57048 143.796364 
L 284.829091 145.129602 
L 288.436364 147.258939 
L 290.012121 148.189091 
L 292.043636 149.388276 
L 295.650909 151.517605 
L 297.453767 152.581818 
L 299.258182 153.646953 
L 302.865455 155.776285 
L 304.895395 156.974545 
L 306.472727 157.905637 
L 310.08 160.03497 
L 312.337036 161.367273 
L 313.687273 162.164299 
L 317.294545 164.29363 
L 319.778692 165.76 
L 320.901818 166.42297 
L 324.509091 168.552301 
L 327.220363 170.152727 
L 328.116364 170.681629 
L 331.723636 172.810976 
L 334.661968 174.545455 
L 335.330909 174.940326 
L 338.938182 177.069658 
L 342.103596 178.938182 
L 342.545455 179.199007 
L 346.152727 181.329686 
L 349.532141 183.330909 
L 349.76 183.466184 
L 353.367273 185.60774 
L 356.931325 187.723636 
L 356.974545 187.749295 
L 360.581818 189.890851 
L 364.189091 192.032389 
L 364.330539 192.116364 
L 367.796364 194.173945 
L 371.403636 196.508656 
L 371.403983 196.509091 
L 371.813838 200.901818 
L 371.881877 205.294545 
L 371.949914 209.687273 
L 372.017941 214.08 
L 372.085968 218.472727 
L 372.154007 222.865455 
L 372.222038 227.258182 
L 372.292 231.650909 
L 372.367638 236.043636 
L 372.446185 240.436364 
L 372.524742 244.829091 
L 372.603299 249.221818 
L 372.681847 253.614545 
L 372.7604 258.007273 
L 372.838951 262.4 
L 372.917504 266.792727 
L 372.996057 271.185455 
L 373.074614 275.578182 
L 373.153171 279.970909 
L 373.231718 284.363636 
L 373.310272 288.756364 
L 373.388826 293.149091 
L 373.467372 297.541818 
L 373.545925 301.934545 
L 373.624478 306.327273 
L 373.703041 310.72 
L 373.781587 315.112727 
L 373.860135 319.505455 
L 373.938692 323.898182 
L 374.017255 328.290909 
L 374.0958 332.683636 
L 374.174356 337.076364 
L 374.252902 341.469091 
L 374.331461 345.861818 
L 374.410016 350.254545 
L 374.488561 354.647273 
L 374.567119 359.04 
L 374.645675 363.432727 
L 374.724219 367.825455 
L 374.802788 372.218182 
L 374.881332 376.610909 
L 374.520004 381.003636 
L 373.017345 385.396364 
L 371.514677 389.789091 
L 371.403636 390.1137 
L 370.012034 394.181818 
L 368.509382 398.574545 
L 367.796364 400.6589 
L 366.82201 402.967273 
L 364.189091 406.387647 
L 363.266723 407.36 
L 360.581818 410.190398 
L 359.099803 411.752727 
L 356.974545 413.993173 
L 354.932912 416.145455 
L 353.367273 417.795945 
L 350.766032 420.538182 
L 349.76 421.598731 
L 346.599111 424.930909 
L 346.152727 425.401486 
L 342.545455 429.204261 
L 342.432217 429.323636 
L 338.938182 433.007037 
L 338.265322 433.716364 
L 335.330909 436.809812 
L 334.109589 438.109091 
L 331.723636 440.888755 
L 330.22648 442.501818 
L 328.116364 444.014403 
L 324.509091 444.643934 
L 320.901818 445.273473 
L 317.294545 445.902999 
L 313.687273 446.532528 
L 311.612816 446.894545 
L 310.08 447.16204 
L 306.472727 447.791583 
L 302.865455 448.421109 
L 299.258182 449.050644 
L 295.650909 449.680172 
L 292.043636 450.309712 
L 288.436364 450.939226 
L 286.442035 451.287273 
L 284.829091 451.568758 
L 281.221818 452.198271 
L 277.614545 452.827802 
L 274.007273 453.457343 
L 270.4 454.086872 
L 266.792727 454.716416 
L 263.185455 455.345929 
L 261.271188 455.68 
L 259.578182 455.975458 
L 255.970909 456.60499 
L 252.363636 457.234521 
L 248.756364 457.864053 
L 245.149091 458.493564 
L 241.541818 459.1231 
L 237.934545 459.752627 
L 236.100341 460.072727 
L 234.327273 460.382157 
L 230.72 461.011685 
L 227.112727 461.641201 
L 223.505455 462.270742 
L 219.898182 462.279435 
z
" style="fill:#ccd9ed;"/>
   </g>
   <g id="PathCollection_5">
    <path clip-path="url(#p809d7a5e6a)" d="M 219.898182 462.279435 
L 223.505455 462.270742 
L 227.112727 461.641201 
L 230.72 461.011685 
L 234.327273 460.382157 
L 236.100341 460.072727 
L 237.934545 459.752627 
L 241.541818 459.1231 
L 245.149091 458.493564 
L 248.756364 457.864053 
L 252.363636 457.234521 
L 255.970909 456.60499 
L 259.578182 455.975458 
L 261.271188 455.68 
L 263.185455 455.345929 
L 266.792727 454.716416 
L 270.4 454.086872 
L 274.007273 453.457343 
L 277.614545 452.827802 
L 281.221818 452.198271 
L 284.829091 451.568758 
L 286.442035 451.287273 
L 288.436364 450.939226 
L 292.043636 450.309712 
L 295.650909 449.680172 
L 299.258182 449.050644 
L 302.865455 448.421109 
L 306.472727 447.791583 
L 310.08 447.16204 
L 311.612816 446.894545 
L 313.687273 446.532528 
L 317.294545 445.902999 
L 320.901818 445.273473 
L 324.509091 444.643934 
L 328.116364 444.014403 
L 330.22648 442.501818 
L 331.723636 440.888755 
L 334.109589 438.109091 
L 335.330909 436.809812 
L 338.265322 433.716364 
L 338.938182 433.007037 
L 342.432217 429.323636 
L 342.545455 429.204261 
L 346.152727 425.401486 
L 346.599111 424.930909 
L 349.76 421.598731 
L 350.766032 420.538182 
L 353.367273 417.795945 
L 354.932912 416.145455 
L 356.974545 413.993173 
L 359.099803 411.752727 
L 360.581818 410.190398 
L 363.266723 407.36 
L 364.189091 406.387647 
L 366.82201 402.967273 
L 367.796364 400.6589 
L 368.509382 398.574545 
L 370.012034 394.181818 
L 371.403636 390.1137 
L 371.514677 389.789091 
L 373.017345 385.396364 
L 374.520004 381.003636 
L 374.881332 376.610909 
L 374.802788 372.218182 
L 374.724219 367.825455 
L 374.645675 363.432727 
L 374.567119 359.04 
L 374.488561 354.647273 
L 374.410016 350.254545 
L 374.331461 345.861818 
L 374.252902 341.469091 
L 374.174356 337.076364 
L 374.0958 332.683636 
L 374.017255 328.290909 
L 373.938692 323.898182 
L 373.860135 319.505455 
L 373.781587 315.112727 
L 373.703041 310.72 
L 373.624478 306.327273 
L 373.545925 301.934545 
L 373.467372 297.541818 
L 373.388826 293.149091 
L 373.310272 288.756364 
L 373.231718 284.363636 
L 373.153171 279.970909 
L 373.074614 275.578182 
L 372.996057 271.185455 
L 372.917504 266.792727 
L 372.838951 262.4 
L 372.7604 258.007273 
L 372.681847 253.614545 
L 372.603299 249.221818 
L 372.524742 244.829091 
L 372.446185 240.436364 
L 372.367638 236.043636 
L 372.292 231.650909 
L 372.222038 227.258182 
L 372.154007 222.865455 
L 372.085968 218.472727 
L 372.017941 214.08 
L 371.949914 209.687273 
L 371.881877 205.294545 
L 371.813838 200.901818 
L 371.403983 196.509091 
L 371.403636 196.508656 
L 367.796364 194.173945 
L 364.330539 192.116364 
L 364.189091 192.032389 
L 360.581818 189.890851 
L 356.974545 187.749295 
L 356.931325 187.723636 
L 353.367273 185.60774 
L 349.76 183.466184 
L 349.532141 183.330909 
L 346.152727 181.329686 
L 342.545455 179.199007 
L 342.103596 178.938182 
L 338.938182 177.069658 
L 335.330909 174.940326 
L 334.661968 174.545455 
L 331.723636 172.810976 
L 328.116364 170.681629 
L 327.220363 170.152727 
L 324.509091 168.552301 
L 320.901818 166.42297 
L 319.778692 165.76 
L 317.294545 164.29363 
L 313.687273 162.164299 
L 312.337036 161.367273 
L 310.08 160.03497 
L 306.472727 157.905637 
L 304.895395 156.974545 
L 302.865455 155.776285 
L 299.258182 153.646953 
L 297.453767 152.581818 
L 295.650909 151.517605 
L 292.043636 149.388276 
L 290.012121 148.189091 
L 288.436364 147.258939 
L 284.829091 145.129602 
L 282.57048 143.796364 
L 281.221818 143.000257 
L 277.614545 140.870925 
L 275.128831 139.403636 
L 274.007273 138.741593 
L 270.4 138.358623 
L 266.792727 138.554229 
L 263.185455 138.749842 
L 259.578182 138.945436 
L 255.970909 139.141061 
L 252.363636 139.336655 
L 251.128524 139.403636 
L 248.756364 139.532281 
L 245.149091 139.727891 
L 241.541818 139.9235 
L 237.934545 140.11911 
L 234.327273 140.314707 
L 230.72 140.510317 
L 227.112727 140.705939 
L 223.505455 140.88113 
L 219.898182 141.031648 
L 216.290909 141.182171 
L 212.683636 141.332693 
L 209.076364 141.483213 
L 205.469091 141.633734 
L 201.861818 141.784246 
L 198.254545 141.934776 
L 194.647273 142.085293 
L 191.04 142.235825 
L 187.432727 142.386343 
L 183.825455 142.536866 
L 180.218182 142.687375 
L 176.610909 142.837908 
L 173.003636 142.988421 
L 169.396364 143.610148 
L 169.10233 143.796364 
L 165.789091 146.36959 
L 163.446335 148.189091 
L 162.181818 149.171167 
L 158.653467 152.581818 
L 158.574545 152.703148 
L 156.386867 156.974545 
L 154.967273 159.746307 
L 154.137074 161.367273 
L 151.88726 165.76 
L 151.36 166.789465 
L 149.637437 170.152727 
L 147.752727 173.832624 
L 147.38764 174.545455 
L 145.137829 178.938182 
L 144.145455 180.875796 
L 142.88803 183.330909 
L 140.638206 187.723636 
L 140.538182 187.918933 
L 138.388401 192.116364 
L 136.930909 194.962093 
L 136.138584 196.509091 
L 133.888788 200.901818 
L 133.323636 202.005276 
L 131.63898 205.294545 
L 129.716364 209.048429 
L 129.441611 209.687273 
L 128.813552 214.08 
L 128.392208 218.472727 
L 127.970864 222.865455 
L 127.549526 227.258182 
L 127.12818 231.650909 
L 126.706846 236.043636 
L 126.285503 240.436364 
L 126.109091 242.275544 
L 125.864157 244.829091 
L 125.442812 249.221818 
L 125.02147 253.614545 
L 124.600131 258.007273 
L 124.178785 262.4 
L 123.757444 266.792727 
L 123.336109 271.185455 
L 122.914752 275.578182 
L 122.501818 279.883214 
L 122.493407 279.970909 
L 122.072077 284.363636 
L 121.650731 288.756364 
L 121.229389 293.149091 
L 120.811036 297.541818 
L 120.397106 301.934545 
L 119.983178 306.327273 
L 119.534666 310.72 
L 118.915867 315.112727 
L 118.894545 315.26164 
L 118.286913 319.505455 
L 117.657948 323.898182 
L 117.028989 328.290909 
L 116.400044 332.683636 
L 115.77108 337.076364 
L 115.287273 340.455361 
L 115.142126 341.469091 
L 114.513166 345.861818 
L 113.884217 350.254545 
L 113.255263 354.647273 
L 112.626298 359.04 
L 111.997347 363.432727 
L 111.68 365.649107 
L 111.368385 367.825455 
L 111.68 369.592528 
L 112.295502 372.218182 
L 113.639108 376.610909 
L 114.982676 381.003636 
L 115.287273 381.999485 
L 116.326267 385.396364 
L 117.669866 389.789091 
L 118.894545 393.793065 
L 119.013451 394.181818 
L 120.35703 398.574545 
L 122.501818 402.612571 
L 122.857659 402.967273 
L 126.109091 404.922702 
L 129.716364 407.092147 
L 130.161741 407.36 
L 133.323636 409.261572 
L 136.930909 411.431004 
L 137.460933 411.752727 
L 140.538182 413.63076 
L 144.145455 415.838641 
L 144.646733 416.145455 
L 147.752727 418.046517 
L 151.36 420.254393 
L 151.823658 420.538182 
L 154.967273 422.462275 
L 158.574545 424.670124 
L 159.00062 424.930909 
L 162.181818 426.87801 
L 165.789091 429.085886 
L 166.177536 429.323636 
L 169.396364 431.29375 
L 173.003636 433.501627 
L 173.354478 433.716364 
L 176.610909 435.709508 
L 180.218182 437.917378 
L 180.531404 438.109091 
L 183.825455 440.12526 
L 187.432727 442.33313 
L 187.708335 442.501818 
L 191.04 444.540995 
L 194.647273 446.748882 
L 194.885261 446.894545 
L 198.254545 448.956763 
L 201.861818 451.164644 
L 202.062172 451.287273 
L 205.469091 453.372498 
L 209.076364 455.580385 
L 209.238281 455.68 
L 212.683636 457.807861 
L 216.290909 460.043654 
L 216.337817 460.072727 
z
M 226.972362 407.36 
L 223.505455 405.238026 
L 219.898182 403.030161 
L 219.795434 402.967273 
L 216.290909 400.82228 
L 212.683636 398.614409 
L 212.618506 398.574545 
L 209.076364 396.406528 
L 205.469091 394.198658 
L 205.441578 394.181818 
L 201.861818 391.990787 
L 198.264632 389.789091 
L 198.254545 389.782917 
L 194.647273 387.575041 
L 191.087723 385.396364 
L 191.04 385.367154 
L 187.432727 383.15929 
L 183.910759 381.003636 
L 183.825455 380.951425 
L 180.218182 378.743543 
L 176.733849 376.610909 
L 176.610909 376.535662 
L 173.003636 374.32778 
L 169.556922 372.218182 
L 169.396364 372.120024 
L 165.789091 369.932345 
L 163.044245 367.825455 
L 162.181818 365.92012 
L 161.421006 363.432727 
L 160.077418 359.04 
L 158.733831 354.647273 
L 158.574545 354.126501 
L 157.390246 350.254545 
L 156.04666 345.861818 
L 154.967273 342.332864 
L 154.724892 341.469091 
L 154.74811 337.076364 
L 154.967273 335.545695 
L 155.372109 332.683636 
L 155.834648 328.290909 
L 156.248584 323.898182 
L 156.66251 319.505455 
L 157.076432 315.112727 
L 157.490367 310.72 
L 157.904288 306.327273 
L 158.318213 301.934545 
L 158.574545 299.214324 
L 158.732149 297.541818 
L 159.146074 293.149091 
L 159.559996 288.756364 
L 159.973936 284.363636 
L 160.387859 279.970909 
L 160.80266 275.578182 
L 161.223431 271.185455 
L 161.644771 266.792727 
L 162.066108 262.4 
L 162.181818 261.193669 
L 162.487453 258.007273 
L 162.908797 253.614545 
L 163.330136 249.221818 
L 163.75148 244.829091 
L 164.172822 240.436364 
L 164.594163 236.043636 
L 165.789091 232.662327 
L 166.242891 231.650909 
L 168.492706 227.258182 
L 169.396364 225.4938 
L 170.742518 222.865455 
L 172.992333 218.472727 
L 173.003636 218.450657 
L 175.242144 214.08 
L 176.610909 211.407482 
L 177.491939 209.687273 
L 179.74176 205.294545 
L 180.218182 204.364333 
L 181.991564 200.901818 
L 183.825455 197.321162 
L 184.241373 196.509091 
L 186.491184 192.116364 
L 187.432727 190.278001 
L 189.079959 187.723636 
L 191.04 185.812552 
L 194.647273 184.84672 
L 198.254545 184.696202 
L 201.861818 184.545678 
L 205.469091 184.395153 
L 209.076364 184.24463 
L 212.683636 184.094108 
L 216.290909 183.943595 
L 219.898182 183.793073 
L 223.505455 183.642554 
L 227.112727 183.469676 
L 229.671752 183.330909 
L 230.72 183.274066 
L 234.327273 183.078464 
L 237.934545 182.882839 
L 241.541818 182.687236 
L 245.149091 182.491619 
L 248.756364 182.296022 
L 252.363636 182.100406 
L 255.970909 181.904801 
L 259.578182 181.709191 
L 263.185455 181.51358 
L 266.792727 181.738491 
L 269.49041 183.330909 
L 270.4 183.867831 
L 274.007273 185.997162 
L 276.932046 187.723636 
L 277.614545 188.126512 
L 281.221818 190.255853 
L 284.373672 192.116364 
L 284.829091 192.385194 
L 288.436364 194.514526 
L 291.815329 196.509091 
L 292.043636 196.643858 
L 295.650909 198.773199 
L 299.256945 200.901818 
L 299.258182 200.902548 
L 302.865455 203.033376 
L 306.472727 205.169663 
L 306.683316 205.294545 
L 310.08 207.311071 
L 313.687273 209.452618 
L 314.082531 209.687273 
L 317.294545 211.594169 
L 320.901818 213.735728 
L 321.481717 214.08 
L 324.509091 215.877272 
L 328.116364 218.018822 
L 328.880932 218.472727 
L 331.723636 220.242223 
L 334.511738 222.865455 
L 335.330909 224.327982 
L 336.442546 227.258182 
L 336.510581 231.650909 
L 336.578616 236.043636 
L 336.646646 240.436364 
L 336.714678 244.829091 
L 336.782717 249.221818 
L 336.850746 253.614545 
L 336.918785 258.007273 
L 336.986811 262.4 
L 337.05485 266.792727 
L 337.122883 271.185455 
L 337.190915 275.578182 
L 337.261186 279.970909 
L 337.336247 284.363636 
L 337.414793 288.756364 
L 337.49335 293.149091 
L 337.571907 297.541818 
L 337.650459 301.934545 
L 337.729007 306.327273 
L 337.807564 310.72 
L 337.886119 315.112727 
L 337.964669 319.505455 
L 338.043226 323.898182 
L 338.121777 328.290909 
L 338.200333 332.683636 
L 338.278877 337.076364 
L 338.35744 341.469091 
L 338.43599 345.861818 
L 338.514546 350.254545 
L 338.517718 354.647273 
L 337.102125 359.04 
L 335.599474 363.432727 
L 335.330909 363.978008 
L 332.449558 367.825455 
L 331.723636 368.590721 
L 328.282664 372.218182 
L 328.116364 372.393495 
L 324.509091 376.196257 
L 324.115755 376.610909 
L 320.901818 379.999042 
L 319.948874 381.003636 
L 317.294545 383.801803 
L 315.781958 385.396364 
L 313.687273 387.604589 
L 311.615076 389.789091 
L 310.08 391.407353 
L 307.448163 394.181818 
L 306.472727 395.210126 
L 302.865455 397.399602 
L 299.258182 397.862633 
L 295.650909 398.325663 
L 293.711972 398.574545 
L 292.043636 398.788693 
L 288.436364 399.251715 
L 284.829091 399.714745 
L 281.221818 400.177775 
L 277.614545 400.640811 
L 274.007273 401.103832 
L 270.4 401.655226 
L 266.792727 402.242868 
L 263.185455 402.871279 
L 262.6354 402.967273 
L 259.578182 403.500809 
L 255.970909 404.130329 
L 252.363636 404.759863 
L 248.756364 405.389389 
L 245.149091 406.025181 
L 241.541818 406.669591 
L 237.934545 407.314007 
L 237.677087 407.36 
L 234.327273 407.958414 
L 230.72 408.602835 
L 227.112727 407.445913 
z
" style="fill:#ecd3c5;"/>
   </g>
   <g id="PathCollection_6">
    <path clip-path="url(#p809d7a5e6a)" d="M 227.112727 407.445913 
L 230.72 408.602835 
L 234.327273 407.958414 
L 237.677087 407.36 
L 237.934545 407.314007 
L 241.541818 406.669591 
L 245.149091 406.025181 
L 248.756364 405.389389 
L 252.363636 404.759863 
L 255.970909 404.130329 
L 259.578182 403.500809 
L 262.6354 402.967273 
L 263.185455 402.871279 
L 266.792727 402.242868 
L 270.4 401.655226 
L 274.007273 401.103832 
L 277.614545 400.640811 
L 281.221818 400.177775 
L 284.829091 399.714745 
L 288.436364 399.251715 
L 292.043636 398.788693 
L 293.711972 398.574545 
L 295.650909 398.325663 
L 299.258182 397.862633 
L 302.865455 397.399602 
L 306.472727 395.210126 
L 307.448163 394.181818 
L 310.08 391.407353 
L 311.615076 389.789091 
L 313.687273 387.604589 
L 315.781958 385.396364 
L 317.294545 383.801803 
L 319.948874 381.003636 
L 320.901818 379.999042 
L 324.115755 376.610909 
L 324.509091 376.196257 
L 328.116364 372.393495 
L 328.282664 372.218182 
L 331.723636 368.590721 
L 332.449558 367.825455 
L 335.330909 363.978008 
L 335.599474 363.432727 
L 337.102125 359.04 
L 338.517718 354.647273 
L 338.514546 350.254545 
L 338.43599 345.861818 
L 338.35744 341.469091 
L 338.278877 337.076364 
L 338.200333 332.683636 
L 338.121777 328.290909 
L 338.043226 323.898182 
L 337.964669 319.505455 
L 337.886119 315.112727 
L 337.807564 310.72 
L 337.729007 306.327273 
L 337.650459 301.934545 
L 337.571907 297.541818 
L 337.49335 293.149091 
L 337.414793 288.756364 
L 337.336247 284.363636 
L 337.261186 279.970909 
L 337.190915 275.578182 
L 337.122883 271.185455 
L 337.05485 266.792727 
L 336.986811 262.4 
L 336.918785 258.007273 
L 336.850746 253.614545 
L 336.782717 249.221818 
L 336.714678 244.829091 
L 336.646646 240.436364 
L 336.578616 236.043636 
L 336.510581 231.650909 
L 336.442546 227.258182 
L 335.330909 224.327982 
L 334.511738 222.865455 
L 331.723636 220.242223 
L 328.880932 218.472727 
L 328.116364 218.018822 
L 324.509091 215.877272 
L 321.481717 214.08 
L 320.901818 213.735728 
L 317.294545 211.594169 
L 314.082531 209.687273 
L 313.687273 209.452618 
L 310.08 207.311071 
L 306.683316 205.294545 
L 306.472727 205.169663 
L 302.865455 203.033376 
L 299.258182 200.902548 
L 299.256945 200.901818 
L 295.650909 198.773199 
L 292.043636 196.643858 
L 291.815329 196.509091 
L 288.436364 194.514526 
L 284.829091 192.385194 
L 284.373672 192.116364 
L 281.221818 190.255853 
L 277.614545 188.126512 
L 276.932046 187.723636 
L 274.007273 185.997162 
L 270.4 183.867831 
L 269.49041 183.330909 
L 266.792727 181.738491 
L 263.185455 181.51358 
L 259.578182 181.709191 
L 255.970909 181.904801 
L 252.363636 182.100406 
L 248.756364 182.296022 
L 245.149091 182.491619 
L 241.541818 182.687236 
L 237.934545 182.882839 
L 234.327273 183.078464 
L 230.72 183.274066 
L 229.671752 183.330909 
L 227.112727 183.469676 
L 223.505455 183.642554 
L 219.898182 183.793073 
L 216.290909 183.943595 
L 212.683636 184.094108 
L 209.076364 184.24463 
L 205.469091 184.395153 
L 201.861818 184.545678 
L 198.254545 184.696202 
L 194.647273 184.84672 
L 191.04 185.812552 
L 189.079959 187.723636 
L 187.432727 190.278001 
L 186.491184 192.116364 
L 184.241373 196.509091 
L 183.825455 197.321162 
L 181.991564 200.901818 
L 180.218182 204.364333 
L 179.74176 205.294545 
L 177.491939 209.687273 
L 176.610909 211.407482 
L 175.242144 214.08 
L 173.003636 218.450657 
L 172.992333 218.472727 
L 170.742518 222.865455 
L 169.396364 225.4938 
L 168.492706 227.258182 
L 166.242891 231.650909 
L 165.789091 232.662327 
L 164.594163 236.043636 
L 164.172822 240.436364 
L 163.75148 244.829091 
L 163.330136 249.221818 
L 162.908797 253.614545 
L 162.487453 258.007273 
L 162.181818 261.193669 
L 162.066108 262.4 
L 161.644771 266.792727 
L 161.223431 271.185455 
L 160.80266 275.578182 
L 160.387859 279.970909 
L 159.973936 284.363636 
L 159.559996 288.756364 
L 159.146074 293.149091 
L 158.732149 297.541818 
L 158.574545 299.214324 
L 158.318213 301.934545 
L 157.904288 306.327273 
L 157.490367 310.72 
L 157.076432 315.112727 
L 156.66251 319.505455 
L 156.248584 323.898182 
L 155.834648 328.290909 
L 155.372109 332.683636 
L 154.967273 335.545695 
L 154.74811 337.076364 
L 154.724892 341.469091 
L 154.967273 342.332864 
L 156.04666 345.861818 
L 157.390246 350.254545 
L 158.574545 354.126501 
L 158.733831 354.647273 
L 160.077418 359.04 
L 161.421006 363.432727 
L 162.181818 365.92012 
L 163.044245 367.825455 
L 165.789091 369.932345 
L 169.396364 372.120024 
L 169.556922 372.218182 
L 173.003636 374.32778 
L 176.610909 376.535662 
L 176.733849 376.610909 
L 180.218182 378.743543 
L 183.825455 380.951425 
L 183.910759 381.003636 
L 187.432727 383.15929 
L 191.04 385.367154 
L 191.087723 385.396364 
L 194.647273 387.575041 
L 198.254545 389.782917 
L 198.264632 389.789091 
L 201.861818 391.990787 
L 205.441578 394.181818 
L 205.469091 394.198658 
L 209.076364 396.406528 
L 212.618506 398.574545 
L 212.683636 398.614409 
L 216.290909 400.82228 
L 219.795434 402.967273 
L 219.898182 403.030161 
L 223.505455 405.238026 
L 226.972362 407.36 
z
M 234.647436 354.647273 
L 234.327273 354.451547 
L 230.72 352.246324 
L 227.461893 350.254545 
L 227.112727 350.04109 
L 223.505455 347.835864 
L 220.276351 345.861818 
L 219.898182 345.630633 
L 216.290909 343.425402 
L 213.090808 341.469091 
L 212.683636 341.220175 
L 209.076364 339.014941 
L 205.905266 337.076364 
L 205.469091 336.785337 
L 202.081717 332.683636 
L 201.861818 332.061051 
L 200.530194 328.290909 
L 198.97867 323.898182 
L 198.254545 321.848015 
L 197.427147 319.505455 
L 195.875623 315.112727 
L 195.376876 310.72 
L 195.801023 306.327273 
L 196.225168 301.934545 
L 196.646943 297.541818 
L 197.067189 293.149091 
L 197.481115 288.756364 
L 197.895042 284.363636 
L 198.254545 280.548472 
L 198.308969 279.970909 
L 198.722896 275.578182 
L 199.136826 271.185455 
L 199.550756 266.792727 
L 199.964684 262.4 
L 200.879391 258.007273 
L 201.861818 256.032536 
L 203.096884 253.614545 
L 205.346441 249.221818 
L 205.469091 248.982346 
L 207.59625 244.829091 
L 209.076364 241.939184 
L 209.846057 240.436364 
L 212.09587 236.043636 
L 212.683636 234.896028 
L 214.345677 231.650909 
L 216.290909 229.02884 
L 219.461423 227.258182 
L 219.898182 227.074638 
L 223.505455 226.403971 
L 227.112727 226.233412 
L 230.72 226.037804 
L 234.327273 225.842191 
L 237.934545 225.646586 
L 241.541818 225.450975 
L 245.149091 225.255362 
L 248.756364 225.059753 
L 252.363636 224.864147 
L 255.970909 224.66853 
L 259.578182 224.736973 
L 263.185455 226.873204 
L 263.834552 227.258182 
L 266.792727 229.014383 
L 270.4 231.155931 
L 271.233751 231.650909 
L 274.007273 233.297486 
L 277.614545 235.439034 
L 278.632951 236.043636 
L 281.221818 237.580585 
L 284.829091 239.722133 
L 286.03216 240.436364 
L 288.436364 241.863682 
L 292.043636 244.005238 
L 293.431349 244.829091 
L 295.650909 246.705909 
L 297.619389 249.221818 
L 299.258182 251.932829 
L 300.258613 253.614545 
L 301.13929 258.007273 
L 301.207325 262.4 
L 301.275357 266.792727 
L 301.343393 271.185455 
L 301.411429 275.578182 
L 301.479459 279.970909 
L 301.547493 284.363636 
L 301.615526 288.756364 
L 301.683558 293.149091 
L 301.75159 297.541818 
L 301.819629 301.934545 
L 301.887662 306.327273 
L 301.955694 310.72 
L 302.023727 315.112727 
L 302.091759 319.505455 
L 302.045345 323.898182 
L 301.145894 328.290909 
L 299.258182 330.804365 
L 297.478116 332.683636 
L 295.650909 334.612673 
L 293.31728 337.076364 
L 292.043636 338.420992 
L 289.156456 341.469091 
L 288.436364 342.229318 
L 284.995621 345.861818 
L 284.829091 346.03763 
L 281.221818 349.845955 
L 280.473956 350.254545 
L 277.614545 351.326609 
L 274.007273 351.804172 
L 270.4 352.281736 
L 266.792727 352.759304 
L 263.185455 353.236869 
L 259.578182 353.714434 
L 255.970909 354.191999 
L 252.53203 354.647273 
L 252.363636 354.669566 
L 248.756364 355.147134 
L 245.149091 355.624694 
L 241.541818 356.102264 
L 237.934545 356.497178 
z
" style="fill:#f7b093;"/>
   </g>
   <g id="PathCollection_7">
    <path clip-path="url(#p809d7a5e6a)" d="M 237.934545 356.497178 
L 241.541818 356.102264 
L 245.149091 355.624694 
L 248.756364 355.147134 
L 252.363636 354.669566 
L 252.53203 354.647273 
L 255.970909 354.191999 
L 259.578182 353.714434 
L 263.185455 353.236869 
L 266.792727 352.759304 
L 270.4 352.281736 
L 274.007273 351.804172 
L 277.614545 351.326609 
L 280.473956 350.254545 
L 281.221818 349.845955 
L 284.829091 346.03763 
L 284.995621 345.861818 
L 288.436364 342.229318 
L 289.156456 341.469091 
L 292.043636 338.420992 
L 293.31728 337.076364 
L 295.650909 334.612673 
L 297.478116 332.683636 
L 299.258182 330.804365 
L 301.145894 328.290909 
L 302.045345 323.898182 
L 302.091759 319.505455 
L 302.023727 315.112727 
L 301.955694 310.72 
L 301.887662 306.327273 
L 301.819629 301.934545 
L 301.75159 297.541818 
L 301.683558 293.149091 
L 301.615526 288.756364 
L 301.547493 284.363636 
L 301.479459 279.970909 
L 301.411429 275.578182 
L 301.343393 271.185455 
L 301.275357 266.792727 
L 301.207325 262.4 
L 301.13929 258.007273 
L 300.258613 253.614545 
L 299.258182 251.932829 
L 297.619389 249.221818 
L 295.650909 246.705909 
L 293.431349 244.829091 
L 292.043636 244.005238 
L 288.436364 241.863682 
L 286.03216 240.436364 
L 284.829091 239.722133 
L 281.221818 237.580585 
L 278.632951 236.043636 
L 277.614545 235.439034 
L 274.007273 233.297486 
L 271.233751 231.650909 
L 270.4 231.155931 
L 266.792727 229.014383 
L 263.834552 227.258182 
L 263.185455 226.873204 
L 259.578182 224.736973 
L 255.970909 224.66853 
L 252.363636 224.864147 
L 248.756364 225.059753 
L 245.149091 225.255362 
L 241.541818 225.450975 
L 237.934545 225.646586 
L 234.327273 225.842191 
L 230.72 226.037804 
L 227.112727 226.233412 
L 223.505455 226.403971 
L 219.898182 227.074638 
L 219.461423 227.258182 
L 216.290909 229.02884 
L 214.345677 231.650909 
L 212.683636 234.896028 
L 212.09587 236.043636 
L 209.846057 240.436364 
L 209.076364 241.939184 
L 207.59625 244.829091 
L 205.469091 248.982346 
L 205.346441 249.221818 
L 203.096884 253.614545 
L 201.861818 256.032536 
L 200.879391 258.007273 
L 199.964684 262.4 
L 199.550756 266.792727 
L 199.136826 271.185455 
L 198.722896 275.578182 
L 198.308969 279.970909 
L 198.254545 280.548472 
L 197.895042 284.363636 
L 197.481115 288.756364 
L 197.067189 293.149091 
L 196.646943 297.541818 
L 196.225168 301.934545 
L 195.801023 306.327273 
L 195.376876 310.72 
L 195.875623 315.112727 
L 197.427147 319.505455 
L 198.254545 321.848015 
L 198.97867 323.898182 
L 200.530194 328.290909 
L 201.861818 332.061051 
L 202.081717 332.683636 
L 205.469091 336.785337 
L 205.905266 337.076364 
L 209.076364 339.014941 
L 212.683636 341.220175 
L 213.090808 341.469091 
L 216.290909 343.425402 
L 219.898182 345.630633 
L 220.276351 345.861818 
L 223.505455 347.835864 
L 227.112727 350.04109 
L 227.461893 350.254545 
L 230.72 352.246324 
L 234.327273 354.451547 
L 234.647436 354.647273 
z
M 237.732193 315.112727 
L 234.327273 313.335592 
L 231.108309 310.72 
L 230.72 310.009817 
L 229.045564 306.327273 
L 227.112727 302.076434 
L 227.048211 301.934545 
L 225.050857 297.541818 
L 223.654589 293.149091 
L 224.009873 288.756364 
L 224.387484 284.363636 
L 224.765095 279.970909 
L 225.473606 275.578182 
L 227.112727 271.932678 
L 227.461633 271.185455 
L 229.512756 266.792727 
L 230.72 264.207268 
L 231.754537 262.4 
L 234.327273 259.6979 
L 237.487249 258.007273 
L 237.934545 257.767964 
L 241.541818 255.838026 
L 245.149091 254.666653 
L 248.756364 254.493641 
L 252.363636 254.472008 
L 255.970909 255.364678 
L 259.578182 257.353248 
L 260.764584 258.007273 
L 263.185455 259.341819 
L 266.792727 261.330392 
L 268.732996 262.4 
L 270.4 263.996838 
L 272.211456 266.792727 
L 274.007273 270.033139 
L 274.645878 271.185455 
L 276.532022 275.578182 
L 276.676354 279.970909 
L 276.637907 284.363636 
L 276.599461 288.756364 
L 276.371355 293.149091 
L 275.238242 297.541818 
L 274.007273 300.792751 
L 273.574931 301.934545 
L 271.911619 306.327273 
L 270.4 308.623908 
L 268.509733 310.72 
L 266.792727 312.347948 
L 263.876698 315.112727 
L 263.185455 315.737045 
L 259.578182 317.060607 
L 255.970909 317.367542 
L 252.363636 317.674477 
L 248.756364 317.981412 
L 245.149091 318.288347 
L 241.541818 317.10109 
L 237.934545 315.218341 
z
" style="fill:#eb7d62;"/>
   </g>
   <g id="PathCollection_8">
    <path clip-path="url(#p809d7a5e6a)" d="M 237.934545 315.218341 
L 241.541818 317.10109 
L 245.149091 318.288347 
L 248.756364 317.981412 
L 252.363636 317.674477 
L 255.970909 317.367542 
L 259.578182 317.060607 
L 263.185455 315.737045 
L 263.876698 315.112727 
L 266.792727 312.347948 
L 268.509733 310.72 
L 270.4 308.623908 
L 271.911619 306.327273 
L 273.574931 301.934545 
L 274.007273 300.792751 
L 275.238242 297.541818 
L 276.371355 293.149091 
L 276.599461 288.756364 
L 276.637907 284.363636 
L 276.676354 279.970909 
L 276.532022 275.578182 
L 274.645878 271.185455 
L 274.007273 270.033139 
L 272.211456 266.792727 
L 270.4 263.996838 
L 268.732996 262.4 
L 266.792727 261.330392 
L 263.185455 259.341819 
L 260.764584 258.007273 
L 259.578182 257.353248 
L 255.970909 255.364678 
L 252.363636 254.472008 
L 248.756364 254.493641 
L 245.149091 254.666653 
L 241.541818 255.838026 
L 237.934545 257.767964 
L 237.487249 258.007273 
L 234.327273 259.6979 
L 231.754537 262.4 
L 230.72 264.207268 
L 229.512756 266.792727 
L 227.461633 271.185455 
L 227.112727 271.932678 
L 225.473606 275.578182 
L 224.765095 279.970909 
L 224.387484 284.363636 
L 224.009873 288.756364 
L 223.654589 293.149091 
L 225.050857 297.541818 
L 227.048211 301.934545 
L 227.112727 302.076434 
L 229.045564 306.327273 
L 230.72 310.009817 
L 231.108309 310.72 
L 234.327273 313.335592 
L 237.732193 315.112727 
z
" style="fill:#ca3b37;"/>
   </g>
   <g id="matplotlib.axis_1">
    <g id="xtick_1">
     <g id="line2d_1">
      <defs>
       <path d="M 0 0 
L 0 3.5 
" id="m506fddad62" style="stroke:#000000;stroke-width:0.8;"/>
      </defs>
      <g>
       <use style="stroke:#000000;stroke-width:0.8;" x="107.712" xlink:href="#m506fddad62" y="504"/>
      </g>
     </g>
     <g id="text_1">
      <!-- 4 -->
      <defs>
       <path d="M 10.59375 35.5 
L 73.1875 35.5 
L 73.1875 27.203125 
L 10.59375 27.203125 
z
" id="DejaVuSans-2212"/>
       <path d="M 37.796875 64.3125 
L 12.890625 25.390625 
L 37.796875 25.390625 
z
M 35.203125 72.90625 
L 47.609375 72.90625 
L 47.609375 25.390625 
L 58.015625 25.390625 
L 58.015625 17.1875 
L 47.609375 17.1875 
L 47.609375 0 
L 37.796875 0 
L 37.796875 17.1875 
L 4.890625 17.1875 
L 4.890625 26.703125 
z
" id="DejaVuSans-34"/>
      </defs>
      <g transform="translate(100.340906 518.598438)scale(0.1 -0.1)">
       <use xlink:href="#DejaVuSans-2212"/>
       <use x="83.789062" xlink:href="#DejaVuSans-34"/>
      </g>
     </g>
    </g>
    <g id="xtick_2">
     <g id="line2d_2">
      <g>
       <use style="stroke:#000000;stroke-width:0.8;" x="179.136" xlink:href="#m506fddad62" y="504"/>
      </g>
     </g>
     <g id="text_2">
      <!-- 2 -->
      <defs>
       <path d="M 19.1875 8.296875 
L 53.609375 8.296875 
L 53.609375 0 
L 7.328125 0 
L 7.328125 8.296875 
Q 12.9375 14.109375 22.625 23.890625 
Q 32.328125 33.6875 34.8125 36.53125 
Q 39.546875 41.84375 41.421875 45.53125 
Q 43.3125 49.21875 43.3125 52.78125 
Q 43.3125 58.59375 39.234375 62.25 
Q 35.15625 65.921875 28.609375 65.921875 
Q 23.96875 65.921875 18.8125 64.3125 
Q 13.671875 62.703125 7.8125 59.421875 
L 7.8125 69.390625 
Q 13.765625 71.78125 18.9375 73 
Q 24.125 74.21875 28.421875 74.21875 
Q 39.75 74.21875 46.484375 68.546875 
Q 53.21875 62.890625 53.21875 53.421875 
Q 53.21875 48.921875 51.53125 44.890625 
Q 49.859375 40.875 45.40625 35.40625 
Q 44.1875 33.984375 37.640625 27.21875 
Q 31.109375 20.453125 19.1875 8.296875 
z
" id="DejaVuSans-32"/>
      </defs>
      <g transform="translate(171.764906 518.598438)scale(0.1 -0.1)">
       <use xlink:href="#DejaVuSans-2212"/>
       <use x="83.789062" xlink:href="#DejaVuSans-32"/>
      </g>
     </g>
    </g>
    <g id="xtick_3">
     <g id="line2d_3">
      <g>
       <use style="stroke:#000000;stroke-width:0.8;" x="250.56" xlink:href="#m506fddad62" y="504"/>
      </g>
     </g>
     <g id="text_3">
      <!-- 0 -->
      <defs>
       <path d="M 31.78125 66.40625 
Q 24.171875 66.40625 20.328125 58.90625 
Q 16.5 51.421875 16.5 36.375 
Q 16.5 21.390625 20.328125 13.890625 
Q 24.171875 6.390625 31.78125 6.390625 
Q 39.453125 6.390625 43.28125 13.890625 
Q 47.125 21.390625 47.125 36.375 
Q 47.125 51.421875 43.28125 58.90625 
Q 39.453125 66.40625 31.78125 66.40625 
z
M 31.78125 74.21875 
Q 44.046875 74.21875 50.515625 64.515625 
Q 56.984375 54.828125 56.984375 36.375 
Q 56.984375 17.96875 50.515625 8.265625 
Q 44.046875 -1.421875 31.78125 -1.421875 
Q 19.53125 -1.421875 13.0625 8.265625 
Q 6.59375 17.96875 6.59375 36.375 
Q 6.59375 54.828125 13.0625 64.515625 
Q 19.53125 74.21875 31.78125 74.21875 
z
" id="DejaVuSans-30"/>
      </defs>
      <g transform="translate(247.37875 518.598438)scale(0.1 -0.1)">
       <use xlink:href="#DejaVuSans-30"/>
      </g>
     </g>
    </g>
    <g id="xtick_4">
     <g id="line2d_4">
      <g>
       <use style="stroke:#000000;stroke-width:0.8;" x="321.984" xlink:href="#m506fddad62" y="504"/>
      </g>
     </g>
     <g id="text_4">
      <!-- 2 -->
      <g transform="translate(318.80275 518.598438)scale(0.1 -0.1)">
       <use xlink:href="#DejaVuSans-32"/>
      </g>
     </g>
    </g>
    <g id="xtick_5">
     <g id="line2d_5">
      <g>
       <use style="stroke:#000000;stroke-width:0.8;" x="393.408" xlink:href="#m506fddad62" y="504"/>
      </g>
     </g>
     <g id="text_5">
      <!-- 4 -->
      <g transform="translate(390.22675 518.598438)scale(0.1 -0.1)">
       <use xlink:href="#DejaVuSans-34"/>
      </g>
     </g>
    </g>
   </g>
   <g id="matplotlib.axis_2">
    <g id="ytick_1">
     <g id="line2d_6">
      <defs>
       <path d="M 0 0 
L -3.5 0 
" id="m12a72cdc49" style="stroke:#000000;stroke-width:0.8;"/>
      </defs>
      <g>
       <use style="stroke:#000000;stroke-width:0.8;" x="72" xlink:href="#m12a72cdc49" y="460.512"/>
      </g>
     </g>
     <g id="text_6">
      <!-- 4 -->
      <g transform="translate(50.257812 464.311219)scale(0.1 -0.1)">
       <use xlink:href="#DejaVuSans-2212"/>
       <use x="83.789062" xlink:href="#DejaVuSans-34"/>
      </g>
     </g>
    </g>
    <g id="ytick_2">
     <g id="line2d_7">
      <g>
       <use style="stroke:#000000;stroke-width:0.8;" x="72" xlink:href="#m12a72cdc49" y="373.536"/>
      </g>
     </g>
     <g id="text_7">
      <!-- 2 -->
      <g transform="translate(50.257812 377.335219)scale(0.1 -0.1)">
       <use xlink:href="#DejaVuSans-2212"/>
       <use x="83.789062" xlink:href="#DejaVuSans-32"/>
      </g>
     </g>
    </g>
    <g id="ytick_3">
     <g id="line2d_8">
      <g>
       <use style="stroke:#000000;stroke-width:0.8;" x="72" xlink:href="#m12a72cdc49" y="286.56"/>
      </g>
     </g>
     <g id="text_8">
      <!-- 0 -->
      <g transform="translate(58.6375 290.359219)scale(0.1 -0.1)">
       <use xlink:href="#DejaVuSans-30"/>
      </g>
     </g>
    </g>
    <g id="ytick_4">
     <g id="line2d_9">
      <g>
       <use style="stroke:#000000;stroke-width:0.8;" x="72" xlink:href="#m12a72cdc49" y="199.584"/>
      </g>
     </g>
     <g id="text_9">
      <!-- 2 -->
      <g transform="translate(58.6375 203.383219)scale(0.1 -0.1)">
       <use xlink:href="#DejaVuSans-32"/>
      </g>
     </g>
    </g>
    <g id="ytick_5">
     <g id="line2d_10">
      <g>
       <use style="stroke:#000000;stroke-width:0.8;" x="72" xlink:href="#m12a72cdc49" y="112.608"/>
      </g>
     </g>
     <g id="text_10">
      <!-- 4 -->
      <g transform="translate(58.6375 116.407219)scale(0.1 -0.1)">
       <use xlink:href="#DejaVuSans-34"/>
      </g>
     </g>
    </g>
   </g>
   <g id="patch_3">
    <path d="M 72 504 
L 72 69.12 
" style="fill:none;stroke:#000000;stroke-linecap:square;stroke-linejoin:miter;stroke-width:0.8;"/>
   </g>
   <g id="patch_4">
    <path d="M 429.12 504 
L 429.12 69.12 
" style="fill:none;stroke:#000000;stroke-linecap:square;stroke-linejoin:miter;stroke-width:0.8;"/>
   </g>
   <g id="patch_5">
    <path d="M 72 504 
L 429.12 504 
" style="fill:none;stroke:#000000;stroke-linecap:square;stroke-linejoin:miter;stroke-width:0.8;"/>
   </g>
   <g id="patch_6">
    <path d="M 72 69.12 
L 429.12 69.12 
" style="fill:none;stroke:#000000;stroke-linecap:square;stroke-linejoin:miter;stroke-width:0.8;"/>
   </g>
  </g>
  <g id="axes_2">
   <g id="patch_7">
    <path clip-path="url(#p086888f1a5)" d="M 451.44 504 
L 451.44 449.64 
L 451.44 123.48 
L 451.44 69.12 
L 473.184 69.12 
L 473.184 123.48 
L 473.184 449.64 
L 473.184 504 
z
" style="fill:#ffffff;stroke:#ffffff;stroke-linejoin:miter;stroke-width:0.01;"/>
   </g>
   <g id="QuadMesh_1">
    <path clip-path="url(#p086888f1a5)" d="M 451.44 504 
L 473.184 504 
L 473.184 449.64 
L 451.44 449.64 
L 451.44 504 
" style="fill:#4e68d8;"/>
    <path clip-path="url(#p086888f1a5)" d="M 451.44 449.64 
L 473.184 449.64 
L 473.184 395.28 
L 451.44 395.28 
L 451.44 449.64 
" style="fill:#779af7;"/>
    <path clip-path="url(#p086888f1a5)" d="M 451.44 395.28 
L 473.184 395.28 
L 473.184 340.92 
L 451.44 340.92 
L 451.44 395.28 
" style="fill:#a3c2fe;"/>
    <path clip-path="url(#p086888f1a5)" d="M 451.44 340.92 
L 473.184 340.92 
L 473.184 286.56 
L 451.44 286.56 
L 451.44 340.92 
" style="fill:#ccd9ed;"/>
    <path clip-path="url(#p086888f1a5)" d="M 451.44 286.56 
L 473.184 286.56 
L 473.184 232.2 
L 451.44 232.2 
L 451.44 286.56 
" style="fill:#ecd3c5;"/>
    <path clip-path="url(#p086888f1a5)" d="M 451.44 232.2 
L 473.184 232.2 
L 473.184 177.84 
L 451.44 177.84 
L 451.44 232.2 
" style="fill:#f7b093;"/>
    <path clip-path="url(#p086888f1a5)" d="M 451.44 177.84 
L 473.184 177.84 
L 473.184 123.48 
L 451.44 123.48 
L 451.44 177.84 
" style="fill:#eb7d62;"/>
    <path clip-path="url(#p086888f1a5)" d="M 451.44 123.48 
L 473.184 123.48 
L 473.184 69.12 
L 451.44 69.12 
L 451.44 123.48 
" style="fill:#ca3b37;"/>
   </g>
   <g id="matplotlib.axis_3"/>
   <g id="matplotlib.axis_4">
    <g id="ytick_6">
     <g id="line2d_11">
      <defs>
       <path d="M 0 0 
L 3.5 0 
" id="m5ff4056dfc" style="stroke:#000000;stroke-width:0.8;"/>
      </defs>
      <g>
       <use style="stroke:#000000;stroke-width:0.8;" x="473.184" xlink:href="#m5ff4056dfc" y="504"/>
      </g>
     </g>
     <g id="text_11">
      <!-- 140 -->
      <defs>
       <path d="M 12.40625 8.296875 
L 28.515625 8.296875 
L 28.515625 63.921875 
L 10.984375 60.40625 
L 10.984375 69.390625 
L 28.421875 72.90625 
L 38.28125 72.90625 
L 38.28125 8.296875 
L 54.390625 8.296875 
L 54.390625 0 
L 12.40625 0 
z
" id="DejaVuSans-31"/>
      </defs>
      <g transform="translate(480.184 507.799219)scale(0.1 -0.1)">
       <use xlink:href="#DejaVuSans-2212"/>
       <use x="83.789062" xlink:href="#DejaVuSans-31"/>
       <use x="147.412109" xlink:href="#DejaVuSans-34"/>
       <use x="211.035156" xlink:href="#DejaVuSans-30"/>
      </g>
     </g>
    </g>
    <g id="ytick_7">
     <g id="line2d_12">
      <g>
       <use style="stroke:#000000;stroke-width:0.8;" x="473.184" xlink:href="#m5ff4056dfc" y="449.64"/>
      </g>
     </g>
     <g id="text_12">
      <!-- 120 -->
      <g transform="translate(480.184 453.439219)scale(0.1 -0.1)">
       <use xlink:href="#DejaVuSans-2212"/>
       <use x="83.789062" xlink:href="#DejaVuSans-31"/>
       <use x="147.412109" xlink:href="#DejaVuSans-32"/>
       <use x="211.035156" xlink:href="#DejaVuSans-30"/>
      </g>
     </g>
    </g>
    <g id="ytick_8">
     <g id="line2d_13">
      <g>
       <use style="stroke:#000000;stroke-width:0.8;" x="473.184" xlink:href="#m5ff4056dfc" y="395.28"/>
      </g>
     </g>
     <g id="text_13">
      <!-- 100 -->
      <g transform="translate(480.184 399.079219)scale(0.1 -0.1)">
       <use xlink:href="#DejaVuSans-2212"/>
       <use x="83.789062" xlink:href="#DejaVuSans-31"/>
       <use x="147.412109" xlink:href="#DejaVuSans-30"/>
       <use x="211.035156" xlink:href="#DejaVuSans-30"/>
      </g>
     </g>
    </g>
    <g id="ytick_9">
     <g id="line2d_14">
      <g>
       <use style="stroke:#000000;stroke-width:0.8;" x="473.184" xlink:href="#m5ff4056dfc" y="340.92"/>
      </g>
     </g>
     <g id="text_14">
      <!-- 80 -->
      <defs>
       <path d="M 31.78125 34.625 
Q 24.75 34.625 20.71875 30.859375 
Q 16.703125 27.09375 16.703125 20.515625 
Q 16.703125 13.921875 20.71875 10.15625 
Q 24.75 6.390625 31.78125 6.390625 
Q 38.8125 6.390625 42.859375 10.171875 
Q 46.921875 13.96875 46.921875 20.515625 
Q 46.921875 27.09375 42.890625 30.859375 
Q 38.875 34.625 31.78125 34.625 
z
M 21.921875 38.8125 
Q 15.578125 40.375 12.03125 44.71875 
Q 8.5 49.078125 8.5 55.328125 
Q 8.5 64.0625 14.71875 69.140625 
Q 20.953125 74.21875 31.78125 74.21875 
Q 42.671875 74.21875 48.875 69.140625 
Q 55.078125 64.0625 55.078125 55.328125 
Q 55.078125 49.078125 51.53125 44.71875 
Q 48 40.375 41.703125 38.8125 
Q 48.828125 37.15625 52.796875 32.3125 
Q 56.78125 27.484375 56.78125 20.515625 
Q 56.78125 9.90625 50.3125 4.234375 
Q 43.84375 -1.421875 31.78125 -1.421875 
Q 19.734375 -1.421875 13.25 4.234375 
Q 6.78125 9.90625 6.78125 20.515625 
Q 6.78125 27.484375 10.78125 32.3125 
Q 14.796875 37.15625 21.921875 38.8125 
z
M 18.3125 54.390625 
Q 18.3125 48.734375 21.84375 45.5625 
Q 25.390625 42.390625 31.78125 42.390625 
Q 38.140625 42.390625 41.71875 45.5625 
Q 45.3125 48.734375 45.3125 54.390625 
Q 45.3125 60.0625 41.71875 63.234375 
Q 38.140625 66.40625 31.78125 66.40625 
Q 25.390625 66.40625 21.84375 63.234375 
Q 18.3125 60.0625 18.3125 54.390625 
z
" id="DejaVuSans-38"/>
      </defs>
      <g transform="translate(480.184 344.719219)scale(0.1 -0.1)">
       <use xlink:href="#DejaVuSans-2212"/>
       <use x="83.789062" xlink:href="#DejaVuSans-38"/>
       <use x="147.412109" xlink:href="#DejaVuSans-30"/>
      </g>
     </g>
    </g>
    <g id="ytick_10">
     <g id="line2d_15">
      <g>
       <use style="stroke:#000000;stroke-width:0.8;" x="473.184" xlink:href="#m5ff4056dfc" y="286.56"/>
      </g>
     </g>
     <g id="text_15">
      <!-- 60 -->
      <defs>
       <path d="M 33.015625 40.375 
Q 26.375 40.375 22.484375 35.828125 
Q 18.609375 31.296875 18.609375 23.390625 
Q 18.609375 15.53125 22.484375 10.953125 
Q 26.375 6.390625 33.015625 6.390625 
Q 39.65625 6.390625 43.53125 10.953125 
Q 47.40625 15.53125 47.40625 23.390625 
Q 47.40625 31.296875 43.53125 35.828125 
Q 39.65625 40.375 33.015625 40.375 
z
M 52.59375 71.296875 
L 52.59375 62.3125 
Q 48.875 64.0625 45.09375 64.984375 
Q 41.3125 65.921875 37.59375 65.921875 
Q 27.828125 65.921875 22.671875 59.328125 
Q 17.53125 52.734375 16.796875 39.40625 
Q 19.671875 43.65625 24.015625 45.921875 
Q 28.375 48.1875 33.59375 48.1875 
Q 44.578125 48.1875 50.953125 41.515625 
Q 57.328125 34.859375 57.328125 23.390625 
Q 57.328125 12.15625 50.6875 5.359375 
Q 44.046875 -1.421875 33.015625 -1.421875 
Q 20.359375 -1.421875 13.671875 8.265625 
Q 6.984375 17.96875 6.984375 36.375 
Q 6.984375 53.65625 15.1875 63.9375 
Q 23.390625 74.21875 37.203125 74.21875 
Q 40.921875 74.21875 44.703125 73.484375 
Q 48.484375 72.75 52.59375 71.296875 
z
" id="DejaVuSans-36"/>
      </defs>
      <g transform="translate(480.184 290.359219)scale(0.1 -0.1)">
       <use xlink:href="#DejaVuSans-2212"/>
       <use x="83.789062" xlink:href="#DejaVuSans-36"/>
       <use x="147.412109" xlink:href="#DejaVuSans-30"/>
      </g>
     </g>
    </g>
    <g id="ytick_11">
     <g id="line2d_16">
      <g>
       <use style="stroke:#000000;stroke-width:0.8;" x="473.184" xlink:href="#m5ff4056dfc" y="232.2"/>
      </g>
     </g>
     <g id="text_16">
      <!-- 40 -->
      <g transform="translate(480.184 235.999219)scale(0.1 -0.1)">
       <use xlink:href="#DejaVuSans-2212"/>
       <use x="83.789062" xlink:href="#DejaVuSans-34"/>
       <use x="147.412109" xlink:href="#DejaVuSans-30"/>
      </g>
     </g>
    </g>
    <g id="ytick_12">
     <g id="line2d_17">
      <g>
       <use style="stroke:#000000;stroke-width:0.8;" x="473.184" xlink:href="#m5ff4056dfc" y="177.84"/>
      </g>
     </g>
     <g id="text_17">
      <!-- 20 -->
      <g transform="translate(480.184 181.639219)scale(0.1 -0.1)">
       <use xlink:href="#DejaVuSans-2212"/>
       <use x="83.789062" xlink:href="#DejaVuSans-32"/>
       <use x="147.412109" xlink:href="#DejaVuSans-30"/>
      </g>
     </g>
    </g>
    <g id="ytick_13">
     <g id="line2d_18">
      <g>
       <use style="stroke:#000000;stroke-width:0.8;" x="473.184" xlink:href="#m5ff4056dfc" y="123.48"/>
      </g>
     </g>
     <g id="text_18">
      <!-- 0 -->
      <g transform="translate(480.184 127.279219)scale(0.1 -0.1)">
       <use xlink:href="#DejaVuSans-30"/>
      </g>
     </g>
    </g>
    <g id="ytick_14">
     <g id="line2d_19">
      <g>
       <use style="stroke:#000000;stroke-width:0.8;" x="473.184" xlink:href="#m5ff4056dfc" y="69.12"/>
      </g>
     </g>
     <g id="text_19">
      <!-- 20 -->
      <g transform="translate(480.184 72.919219)scale(0.1 -0.1)">
       <use xlink:href="#DejaVuSans-32"/>
       <use x="63.623047" xlink:href="#DejaVuSans-30"/>
      </g>
     </g>
    </g>
   </g>
   <g id="patch_8">
    <path d="M 451.44 504 
L 451.44 449.64 
L 451.44 123.48 
L 451.44 69.12 
L 473.184 69.12 
L 473.184 123.48 
L 473.184 449.64 
L 473.184 504 
z
" style="fill:none;stroke:#000000;stroke-linejoin:miter;stroke-width:0.8;"/>
   </g>
  </g>
 </g>
 <defs>
  <clipPath id="p809d7a5e6a">
   <rect height="434.88" width="357.12" x="72" y="69.12"/>
  </clipPath>
  <clipPath id="p086888f1a5">
   <rect height="434.88" width="21.744" x="451.44" y="69.12"/>
  </clipPath>
 </defs>
</svg>
