<?xml version="1.0" encoding="utf-8" standalone="no"?>
<!DOCTYPE svg PUBLIC "-//W3C//DTD SVG 1.1//EN"
  "http://www.w3.org/Graphics/SVG/1.1/DTD/svg11.dtd">
<!-- Created with matplotlib (http://matplotlib.org/) -->
<svg height="288pt" version="1.1" viewBox="0 0 432 288" width="432pt" xmlns="http://www.w3.org/2000/svg" xmlns:xlink="http://www.w3.org/1999/xlink">
 <defs>
  <style type="text/css">
*{stroke-linecap:butt;stroke-linejoin:round;}
  </style>
 </defs>
 <g id="figure_1">
  <g id="patch_1">
   <path d="M 0 288 
L 432 288 
L 432 0 
L 0 0 
z
" style="fill:#ffffff;"/>
  </g>
  <g id="axes_1">
   <g id="patch_2">
    <path d="M 54 252 
L 388.8 252 
L 388.8 34.56 
L 54 34.56 
z
" style="fill:#ffffff;"/>
   </g>
   <g id="patch_3">
    <path clip-path="url(#pe4b08cd97a)" d="M 54 252 
L 54 250.624089 
L 155.578353 176.931418 
L 160.290207 174.873106 
L 206.059563 189.545045 
L 197.497959 217.810774 
L 151.131329 252 
z
" style="opacity:0.6;stroke-dasharray:0,0;stroke-dashoffset:0;"/>
   </g>
   <g id="patch_4">
    <path clip-path="url(#pe4b08cd97a)" d="M 54 250.624089 
L 54 221.304602 
L 155.578353 176.931418 
z
" style="fill:#0143da;opacity:0.6;stroke-dasharray:0,0;stroke-dashoffset:0;"/>
   </g>
   <g id="patch_5">
    <path clip-path="url(#pe4b08cd97a)" d="M 54 221.304602 
L 54 197.396209 
L 137.905187 167.697308 
L 156.960615 173.805764 
L 155.578345 176.931422 
z
" style="fill:#0287b4;opacity:0.6;stroke-dasharray:0,0;stroke-dashoffset:0;"/>
   </g>
   <g id="patch_6">
    <path clip-path="url(#pe4b08cd97a)" d="M 54 197.396209 
L 54 160.205039 
L 86.955756 151.364831 
L 137.905187 167.697308 
z
" style="fill:#03cb8e;opacity:0.6;stroke-dasharray:0,0;stroke-dashoffset:0;"/>
   </g>
   <g id="patch_7">
    <path clip-path="url(#pe4b08cd97a)" d="M 54 160.205039 
L 54 140.800451 
L 86.955756 151.364831 
z
" style="fill:#050f68;opacity:0.6;stroke-dasharray:0,0;stroke-dashoffset:0;"/>
   </g>
   <g id="patch_8">
    <path clip-path="url(#pe4b08cd97a)" d="M 86.955756 151.364831 
L 54 140.800451 
L 54 85.276089 
L 171.70165 128.632191 
z
" style="fill:#065342;opacity:0.6;stroke-dasharray:0,0;stroke-dashoffset:0;"/>
   </g>
   <g id="patch_9">
    <path clip-path="url(#pe4b08cd97a)" d="M 54 85.276089 
L 54 34.56 
L 72.18435 34.56 
L 175.810259 101.70505 
L 196.034474 122.060197 
L 195.991929 122.116451 
L 171.70165 128.632191 
z
" style="fill:#07971c;opacity:0.6;stroke-dasharray:0,0;stroke-dashoffset:0;"/>
   </g>
   <g id="patch_10">
    <path clip-path="url(#pe4b08cd97a)" d="M 72.18435 34.56 
L 109.097106 34.56 
L 175.810259 101.70505 
z
" style="fill:#08daf6;opacity:0.6;stroke-dasharray:0,0;stroke-dashoffset:0;"/>
   </g>
   <g id="patch_11">
    <path clip-path="url(#pe4b08cd97a)" d="M 86.955756 151.364831 
L 171.70165 128.632191 
L 186.516624 134.089374 
L 156.04716 161.275814 
L 137.905187 167.697308 
z
" style="fill:#0a1ed0;opacity:0.6;stroke-dasharray:0,0;stroke-dashoffset:0;"/>
   </g>
   <g id="patch_12">
    <path clip-path="url(#pe4b08cd97a)" d="M 109.097106 34.56 
L 197.275756 34.56 
L 197.938511 116.043189 
L 175.810259 101.70505 
z
" style="fill:#0b62aa;opacity:0.6;stroke-dasharray:0,0;stroke-dashoffset:0;"/>
   </g>
   <g id="patch_13">
    <path clip-path="url(#pe4b08cd97a)" d="M 137.905187 167.697308 
L 156.047151 161.275817 
L 156.960613 173.805763 
z
" style="fill:#0ca684;opacity:0.6;stroke-dasharray:0,0;stroke-dashoffset:0;"/>
   </g>
   <g id="patch_14">
    <path clip-path="url(#pe4b08cd97a)" d="M 151.131329 252 
L 197.497959 217.810774 
L 187.142145 252 
z
" style="fill:#0dea5e;opacity:0.6;stroke-dasharray:0,0;stroke-dashoffset:0;"/>
   </g>
   <g id="patch_15">
    <path clip-path="url(#pe4b08cd97a)" d="M 155.578345 176.931422 
L 156.960615 173.805764 
L 160.290207 174.873106 
z
" style="fill:#0f2e38;opacity:0.6;stroke-dasharray:0,0;stroke-dashoffset:0;"/>
   </g>
   <g id="patch_16">
    <path clip-path="url(#pe4b08cd97a)" d="M 160.290207 174.873106 
L 156.960613 173.805763 
L 156.047151 161.275817 
L 185.156892 150.972195 
L 186.280924 151.90763 
L 192.925515 160.616795 
z
" style="fill:#107212;opacity:0.6;stroke-dasharray:0,0;stroke-dashoffset:0;"/>
   </g>
   <g id="patch_17">
    <path clip-path="url(#pe4b08cd97a)" d="M 156.04716 161.275814 
L 186.516624 134.089374 
L 186.960201 134.252768 
L 186.995646 136.886345 
L 185.156894 150.972194 
z
" style="fill:#11b5ec;opacity:0.6;stroke-dasharray:0,0;stroke-dashoffset:0;"/>
   </g>
   <g id="patch_18">
    <path clip-path="url(#pe4b08cd97a)" d="M 160.290207 174.873106 
L 192.925513 160.616796 
L 212.238027 164.197827 
L 213.60024 164.649857 
L 206.059563 189.545045 
z
" style="fill:#12f9c6;opacity:0.6;stroke-dasharray:0,0;stroke-dashoffset:0;"/>
   </g>
   <g id="patch_19">
    <path clip-path="url(#pe4b08cd97a)" d="M 171.70165 128.632191 
L 195.991928 122.116451 
L 188.534628 132.13714 
L 186.516623 134.089374 
z
" style="fill:#143da0;opacity:0.6;stroke-dasharray:0,0;stroke-dashoffset:0;"/>
   </g>
   <g id="patch_20">
    <path clip-path="url(#pe4b08cd97a)" d="M 175.810259 101.70505 
L 197.938512 116.043189 
L 197.410163 121.667384 
L 196.034473 122.060196 
z
" style="fill:#15817a;opacity:0.6;stroke-dasharray:0,0;stroke-dashoffset:0;"/>
   </g>
   <g id="patch_21">
    <path clip-path="url(#pe4b08cd97a)" d="M 192.925515 160.616795 
L 186.280924 151.90763 
L 195.430879 159.52236 
z
" style="fill:#16c554;opacity:0.6;stroke-dasharray:0,0;stroke-dashoffset:0;"/>
   </g>
   <g id="patch_22">
    <path clip-path="url(#pe4b08cd97a)" d="M 186.280924 151.90763 
L 185.479988 150.857832 
L 187.175605 150.257655 
L 192.460749 154.572953 
L 196.60397 159.00991 
L 195.430879 159.52236 
z
" style="fill:#18092e;opacity:0.6;stroke-dasharray:0,0;stroke-dashoffset:0;"/>
   </g>
   <g id="patch_23">
    <path clip-path="url(#pe4b08cd97a)" d="M 185.479989 150.857832 
L 187.126793 146.630604 
L 187.175609 150.257654 
z
" style="fill:#194d08;opacity:0.6;stroke-dasharray:0,0;stroke-dashoffset:0;"/>
   </g>
   <g id="patch_24">
    <path clip-path="url(#pe4b08cd97a)" d="M 185.479989 150.857832 
L 185.156894 150.972194 
L 186.995646 136.886345 
L 187.126793 146.630604 
z
" style="fill:#1a90e2;opacity:0.6;stroke-dasharray:0,0;stroke-dashoffset:0;"/>
   </g>
   <g id="patch_25">
    <path clip-path="url(#pe4b08cd97a)" d="M 186.516623 134.089374 
L 188.534628 132.13714 
L 186.960198 134.252767 
z
" style="fill:#1bd4bc;opacity:0.6;stroke-dasharray:0,0;stroke-dashoffset:0;"/>
   </g>
   <g id="patch_26">
    <path clip-path="url(#pe4b08cd97a)" d="M 187.142145 252 
L 197.497959 217.810774 
L 226.810173 196.196912 
L 289.736337 216.368681 
L 325.138464 252 
z
" style="fill:#1d1896;opacity:0.6;stroke-dasharray:0,0;stroke-dashoffset:0;"/>
   </g>
   <g id="patch_27">
    <path clip-path="url(#pe4b08cd97a)" d="M 197.444956 158.642536 
L 192.460749 154.572953 
L 188.11924 149.923649 
L 206.011239 143.590635 
L 212.485473 152.072282 
z
" style="fill:#1e5c70;opacity:0.6;stroke-dasharray:0,0;stroke-dashoffset:0;"/>
   </g>
   <g id="patch_28">
    <path clip-path="url(#pe4b08cd97a)" d="M 188.119241 149.923648 
L 188.818886 142.287123 
L 191.322798 135.859757 
L 206.286833 141.371848 
L 206.011239 143.590635 
z
" style="fill:#1fa04a;opacity:0.6;stroke-dasharray:0,0;stroke-dashoffset:0;"/>
   </g>
   <g id="patch_29">
    <path clip-path="url(#pe4b08cd97a)" d="M 187.175609 150.257654 
L 187.126793 146.630604 
L 188.818889 142.287114 
L 188.119243 149.923647 
z
" style="fill:#20e424;opacity:0.6;stroke-dasharray:0,0;stroke-dashoffset:0;"/>
   </g>
   <g id="patch_30">
    <path clip-path="url(#pe4b08cd97a)" d="M 187.126793 146.630604 
L 186.995646 136.886345 
L 187.322031 134.386051 
L 189.470269 135.177367 
L 188.818886 142.287123 
z
" style="fill:#2227fe;opacity:0.6;stroke-dasharray:0,0;stroke-dashoffset:0;"/>
   </g>
   <g id="patch_31">
    <path clip-path="url(#pe4b08cd97a)" d="M 187.322032 134.386051 
L 196.673034 124.263979 
L 197.463907 123.498883 
L 197.491387 123.526541 
L 189.470269 135.177367 
z
" style="fill:#236bd8;opacity:0.6;stroke-dasharray:0,0;stroke-dashoffset:0;"/>
   </g>
   <g id="patch_32">
    <path clip-path="url(#pe4b08cd97a)" d="M 187.322032 134.386051 
L 186.960198 134.252767 
L 188.534628 132.13714 
L 196.673034 124.263979 
z
" style="fill:#24afb2;opacity:0.6;stroke-dasharray:0,0;stroke-dashoffset:0;"/>
   </g>
   <g id="patch_33">
    <path clip-path="url(#pe4b08cd97a)" d="M 187.175605 150.257655 
L 188.11924 149.923649 
L 192.460749 154.572953 
z
" style="fill:#25f38c;opacity:0.6;stroke-dasharray:0,0;stroke-dashoffset:0;"/>
   </g>
   <g id="patch_34">
    <path clip-path="url(#pe4b08cd97a)" d="M 188.818889 142.287114 
L 189.470271 135.177368 
L 191.322798 135.859757 
z
" style="fill:#273766;opacity:0.6;stroke-dasharray:0,0;stroke-dashoffset:0;"/>
   </g>
   <g id="patch_35">
    <path clip-path="url(#pe4b08cd97a)" d="M 191.322797 135.859756 
L 189.470269 135.177367 
L 197.491387 123.526541 
L 200.021693 126.073228 
z
" style="fill:#287b40;opacity:0.6;stroke-dasharray:0,0;stroke-dashoffset:0;"/>
   </g>
   <g id="patch_36">
    <path clip-path="url(#pe4b08cd97a)" d="M 188.534628 132.13714 
L 195.991928 122.116451 
L 196.069652 122.095602 
L 197.420348 123.455043 
L 196.673034 124.263979 
z
" style="fill:#29bf1a;opacity:0.6;stroke-dasharray:0,0;stroke-dashoffset:0;"/>
   </g>
   <g id="patch_37">
    <path clip-path="url(#pe4b08cd97a)" d="M 191.322797 135.859756 
L 200.021693 126.073228 
L 210.432366 136.5513 
L 206.286832 141.371848 
z
" style="fill:#2b02f4;opacity:0.6;stroke-dasharray:0,0;stroke-dashoffset:0;"/>
   </g>
   <g id="patch_38">
    <path clip-path="url(#pe4b08cd97a)" d="M 192.925513 160.616796 
L 195.430877 159.522361 
L 200.617876 160.341861 
L 212.238027 164.197827 
z
" style="fill:#2c46ce;opacity:0.6;stroke-dasharray:0,0;stroke-dashoffset:0;"/>
   </g>
   <g id="patch_39">
    <path clip-path="url(#pe4b08cd97a)" d="M 196.60397 159.00991 
L 192.460749 154.572953 
L 197.444956 158.642536 
z
" style="fill:#2d8aa8;opacity:0.6;stroke-dasharray:0,0;stroke-dashoffset:0;"/>
   </g>
   <g id="patch_40">
    <path clip-path="url(#pe4b08cd97a)" d="M 200.617876 160.341861 
L 196.603972 159.009909 
L 197.444957 158.642536 
L 205.344708 161.088659 
z
" style="fill:#2ece82;opacity:0.6;stroke-dasharray:0,0;stroke-dashoffset:0;"/>
   </g>
   <g id="patch_41">
    <path clip-path="url(#pe4b08cd97a)" d="M 196.069652 122.095602 
L 197.403547 121.737792 
L 197.461972 123.442481 
L 197.420348 123.455042 
z
" style="fill:#30125c;opacity:0.6;stroke-dasharray:0,0;stroke-dashoffset:0;"/>
   </g>
   <g id="patch_42">
    <path clip-path="url(#pe4b08cd97a)" d="M 197.497959 217.810774 
L 206.059563 189.545045 
L 226.810173 196.196912 
z
" style="fill:#315636;opacity:0.6;stroke-dasharray:0,0;stroke-dashoffset:0;"/>
   </g>
   <g id="patch_43">
    <path clip-path="url(#pe4b08cd97a)" d="M 200.021694 126.07323 
L 197.491387 123.526542 
L 206.356563 121.497718 
L 208.573962 122.934495 
z
" style="fill:#329a10;opacity:0.6;stroke-dasharray:0,0;stroke-dashoffset:0;"/>
   </g>
   <g id="patch_44">
    <path clip-path="url(#pe4b08cd97a)" d="M 197.461972 123.442481 
L 197.403547 121.737792 
L 203.997337 119.969043 
L 205.577969 120.993223 
z
" style="fill:#33ddea;opacity:0.6;stroke-dasharray:0,0;stroke-dashoffset:0;"/>
   </g>
   <g id="patch_45">
    <path clip-path="url(#pe4b08cd97a)" d="M 197.410163 121.667384 
L 197.938512 116.043189 
L 203.801784 119.842333 
z
" style="fill:#3521c4;opacity:0.6;stroke-dasharray:0,0;stroke-dashoffset:0;"/>
   </g>
   <g id="patch_46">
    <path clip-path="url(#pe4b08cd97a)" d="M 204.298269 119.888319 
L 203.801784 119.842333 
L 197.938511 116.043189 
L 197.275756 34.56 
L 253.004066 34.56 
L 229.180031 113.213917 
z
" style="fill:#36659e;opacity:0.6;stroke-dasharray:0,0;stroke-dashoffset:0;"/>
   </g>
   <g id="patch_47">
    <path clip-path="url(#pe4b08cd97a)" d="M 205.344708 161.088659 
L 197.444957 158.642536 
L 212.485472 152.072282 
L 216.976258 153.504094 
L 214.252627 162.496032 
z
" style="fill:#37a978;opacity:0.6;stroke-dasharray:0,0;stroke-dashoffset:0;"/>
   </g>
   <g id="patch_48">
    <path clip-path="url(#pe4b08cd97a)" d="M 210.432365 136.551299 
L 200.021694 126.07323 
L 208.573962 122.934495 
L 222.678865 132.073855 
z
" style="fill:#38ed52;opacity:0.6;stroke-dasharray:0,0;stroke-dashoffset:0;"/>
   </g>
   <g id="patch_49">
    <path clip-path="url(#pe4b08cd97a)" d="M 197.403549 121.737791 
L 197.410163 121.667384 
L 203.801784 119.842333 
L 203.997337 119.969043 
z
" style="fill:#3a312c;opacity:0.6;stroke-dasharray:0,0;stroke-dashoffset:0;"/>
   </g>
   <g id="patch_50">
    <path clip-path="url(#pe4b08cd97a)" d="M 212.238027 164.197827 
L 200.617876 160.341861 
L 205.344708 161.088659 
L 213.878524 163.731117 
L 213.657438 164.461022 
z
" style="fill:#3b7506;opacity:0.6;stroke-dasharray:0,0;stroke-dashoffset:0;"/>
   </g>
   <g id="patch_51">
    <path clip-path="url(#pe4b08cd97a)" d="M 197.491386 123.52654 
L 197.463905 123.498881 
L 197.461972 123.442481 
L 205.577969 120.993223 
L 206.35656 121.497716 
z
" style="fill:#3cb8e0;opacity:0.6;stroke-dasharray:0,0;stroke-dashoffset:0;"/>
   </g>
   <g id="patch_52">
    <path clip-path="url(#pe4b08cd97a)" d="M 205.577966 120.993221 
L 203.997337 119.969043 
L 204.298266 119.88832 
L 210.939676 120.519397 
z
" style="fill:#3dfcba;opacity:0.6;stroke-dasharray:0,0;stroke-dashoffset:0;"/>
   </g>
   <g id="patch_53">
    <path clip-path="url(#pe4b08cd97a)" d="M 210.939676 120.519397 
L 204.298266 119.88832 
L 229.180031 113.213917 
L 227.408041 119.064059 
z
" style="fill:#3f4094;opacity:0.6;stroke-dasharray:0,0;stroke-dashoffset:0;"/>
   </g>
   <g id="patch_54">
    <path clip-path="url(#pe4b08cd97a)" d="M 226.810173 196.196912 
L 206.059563 189.545045 
L 213.60024 164.649858 
L 230.453273 164.630373 
L 238.779665 165.082118 
L 251.561154 177.946354 
z
" style="fill:#40846e;opacity:0.6;stroke-dasharray:0,0;stroke-dashoffset:0;"/>
   </g>
   <g id="patch_55">
    <path clip-path="url(#pe4b08cd97a)" d="M 206.011239 143.590635 
L 209.059507 142.511676 
L 209.412096 142.998236 
L 213.644344 151.566044 
L 212.485473 152.072282 
z
" style="fill:#41c848;opacity:0.6;stroke-dasharray:0,0;stroke-dashoffset:0;"/>
   </g>
   <g id="patch_56">
    <path clip-path="url(#pe4b08cd97a)" d="M 206.011237 143.590635 
L 206.286831 141.371847 
L 209.084996 142.402568 
L 209.059507 142.511676 
z
" style="fill:#430c22;opacity:0.6;stroke-dasharray:0,0;stroke-dashoffset:0;"/>
   </g>
   <g id="patch_57">
    <path clip-path="url(#pe4b08cd97a)" d="M 209.611316 141.935389 
L 209.084995 142.402568 
L 206.286832 141.371848 
L 210.432366 136.5513 
L 212.546831 138.679454 
z
" style="fill:#444ffc;opacity:0.6;stroke-dasharray:0,0;stroke-dashoffset:0;"/>
   </g>
   <g id="patch_58">
    <path clip-path="url(#pe4b08cd97a)" d="M 208.573962 122.934495 
L 206.356563 121.497718 
L 226.314776 122.673421 
L 226.289268 122.757634 
z
" style="fill:#4593d6;opacity:0.6;stroke-dasharray:0,0;stroke-dashoffset:0;"/>
   </g>
   <g id="patch_59">
    <path clip-path="url(#pe4b08cd97a)" d="M 206.356563 121.497718 
L 205.577966 120.993221 
L 210.939676 120.519397 
L 226.518828 121.999753 
L 226.314776 122.673421 
z
" style="fill:#46d7b0;opacity:0.6;stroke-dasharray:0,0;stroke-dashoffset:0;"/>
   </g>
   <g id="patch_60">
    <path clip-path="url(#pe4b08cd97a)" d="M 208.573962 122.934495 
L 226.289268 122.757634 
L 223.482427 132.024286 
L 222.678866 132.073855 
z
" style="fill:#481b8a;opacity:0.6;stroke-dasharray:0,0;stroke-dashoffset:0;"/>
   </g>
   <g id="patch_61">
    <path clip-path="url(#pe4b08cd97a)" d="M 205.344708 161.088659 
L 214.252627 162.496032 
L 213.878524 163.731117 
z
" style="fill:#495f64;opacity:0.6;stroke-dasharray:0,0;stroke-dashoffset:0;"/>
   </g>
   <g id="patch_62">
    <path clip-path="url(#pe4b08cd97a)" d="M 213.644344 151.566044 
L 209.412096 142.998236 
L 215.145598 150.910241 
z
" style="fill:#4aa33e;opacity:0.6;stroke-dasharray:0,0;stroke-dashoffset:0;"/>
   </g>
   <g id="patch_63">
    <path clip-path="url(#pe4b08cd97a)" d="M 215.145598 150.910241 
L 209.412096 142.998236 
L 209.155046 142.47786 
L 209.223559 142.453609 
L 219.209272 146.131905 
L 218.160903 149.593044 
z
" style="fill:#4be718;opacity:0.6;stroke-dasharray:0,0;stroke-dashoffset:0;"/>
   </g>
   <g id="patch_64">
    <path clip-path="url(#pe4b08cd97a)" d="M 209.223559 142.453609 
L 214.456413 140.601399 
L 219.382645 145.559523 
L 219.209272 146.131905 
z
" style="fill:#4d2af2;opacity:0.6;stroke-dasharray:0,0;stroke-dashoffset:0;"/>
   </g>
   <g id="patch_65">
    <path clip-path="url(#pe4b08cd97a)" d="M 209.223559 142.453609 
L 209.163907 142.431635 
L 209.611316 141.935389 
L 212.89015 139.024995 
L 214.456413 140.601399 
z
" style="fill:#4e6ecc;opacity:0.6;stroke-dasharray:0,0;stroke-dashoffset:0;"/>
   </g>
   <g id="patch_66">
    <path clip-path="url(#pe4b08cd97a)" d="M 209.611316 141.935389 
L 212.546831 138.679454 
L 212.89015 139.024995 
z
" style="fill:#4fb2a6;opacity:0.6;stroke-dasharray:0,0;stroke-dashoffset:0;"/>
   </g>
   <g id="patch_67">
    <path clip-path="url(#pe4b08cd97a)" d="M 212.546831 138.679454 
L 210.432365 136.551299 
L 222.678865 132.073855 
L 223.338041 132.500972 
L 222.450932 135.429717 
z
" style="fill:#50f680;opacity:0.6;stroke-dasharray:0,0;stroke-dashoffset:0;"/>
   </g>
   <g id="patch_68">
    <path clip-path="url(#pe4b08cd97a)" d="M 213.60024 164.649858 
L 213.657439 164.461019 
L 218.067608 163.958394 
L 230.453273 164.630373 
z
" style="fill:#523a5a;opacity:0.6;stroke-dasharray:0,0;stroke-dashoffset:0;"/>
   </g>
   <g id="patch_69">
    <path clip-path="url(#pe4b08cd97a)" d="M 214.456413 140.601399 
L 212.89015 139.024996 
L 221.795734 137.592825 
L 221.656373 138.052916 
z
" style="fill:#537e34;opacity:0.6;stroke-dasharray:0,0;stroke-dashoffset:0;"/>
   </g>
   <g id="patch_70">
    <path clip-path="url(#pe4b08cd97a)" d="M 212.89015 139.024996 
L 212.546831 138.679454 
L 222.450932 135.429717 
L 221.795734 137.592825 
z
" style="fill:#54c20e;opacity:0.6;stroke-dasharray:0,0;stroke-dashoffset:0;"/>
   </g>
   <g id="patch_71">
    <path clip-path="url(#pe4b08cd97a)" d="M 213.878524 163.731117 
L 214.252628 162.496031 
L 235.311993 161.591997 
L 235.669942 161.952263 
L 218.067608 163.958394 
z
" style="fill:#5605e8;opacity:0.6;stroke-dasharray:0,0;stroke-dashoffset:0;"/>
   </g>
   <g id="patch_72">
    <path clip-path="url(#pe4b08cd97a)" d="M 214.252628 162.496031 
L 216.976258 153.504093 
L 226.810727 153.035694 
L 235.311993 161.591997 
z
" style="fill:#5749c2;opacity:0.6;stroke-dasharray:0,0;stroke-dashoffset:0;"/>
   </g>
   <g id="patch_73">
    <path clip-path="url(#pe4b08cd97a)" d="M 212.485472 152.072282 
L 213.644345 151.566044 
L 217.156469 152.909136 
L 216.976258 153.504094 
z
" style="fill:#588d9c;opacity:0.6;stroke-dasharray:0,0;stroke-dashoffset:0;"/>
   </g>
   <g id="patch_74">
    <path clip-path="url(#pe4b08cd97a)" d="M 213.644345 151.566044 
L 215.145597 150.910241 
L 217.553673 151.597788 
L 217.156469 152.909136 
z
" style="fill:#59d176;opacity:0.6;stroke-dasharray:0,0;stroke-dashoffset:0;"/>
   </g>
   <g id="patch_75">
    <path clip-path="url(#pe4b08cd97a)" d="M 214.456413 140.601399 
L 221.656373 138.052916 
L 219.382645 145.559523 
z
" style="fill:#5b1550;opacity:0.6;stroke-dasharray:0,0;stroke-dashoffset:0;"/>
   </g>
   <g id="patch_76">
    <path clip-path="url(#pe4b08cd97a)" d="M 210.939676 120.519397 
L 227.408041 119.064059 
L 226.518828 121.999753 
z
" style="fill:#5c592a;opacity:0.6;stroke-dasharray:0,0;stroke-dashoffset:0;"/>
   </g>
   <g id="patch_77">
    <path clip-path="url(#pe4b08cd97a)" d="M 215.145597 150.910241 
L 218.160903 149.593044 
L 217.553673 151.597788 
z
" style="fill:#5d9d04;opacity:0.6;stroke-dasharray:0,0;stroke-dashoffset:0;"/>
   </g>
   <g id="patch_78">
    <path clip-path="url(#pe4b08cd97a)" d="M 217.156469 152.909137 
L 217.553673 151.597788 
L 224.872683 151.085103 
L 225.825482 152.04407 
z
" style="fill:#5ee0de;opacity:0.6;stroke-dasharray:0,0;stroke-dashoffset:0;"/>
   </g>
   <g id="patch_79">
    <path clip-path="url(#pe4b08cd97a)" d="M 217.553673 151.597788 
L 218.160903 149.593044 
L 221.8075 148.000076 
L 224.872683 151.085103 
z
" style="fill:#6024b8;opacity:0.6;stroke-dasharray:0,0;stroke-dashoffset:0;"/>
   </g>
   <g id="patch_80">
    <path clip-path="url(#pe4b08cd97a)" d="M 218.160903 149.593044 
L 219.209272 146.131905 
L 220.379711 146.563043 
L 221.8075 148.000076 
z
" style="fill:#616892;opacity:0.6;stroke-dasharray:0,0;stroke-dashoffset:0;"/>
   </g>
   <g id="patch_81">
    <path clip-path="url(#pe4b08cd97a)" d="M 222.939027 147.505783 
L 220.379711 146.563043 
L 219.382645 145.559523 
L 221.656373 138.052916 
L 222.5305 137.743512 
L 229.136086 144.798678 
z
" style="fill:#62ac6c;opacity:0.6;stroke-dasharray:0,0;stroke-dashoffset:0;"/>
   </g>
   <g id="patch_82">
    <path clip-path="url(#pe4b08cd97a)" d="M 230.453273 164.630373 
L 218.067608 163.958394 
L 235.669942 161.952263 
L 238.321787 164.621276 
z
" style="fill:#63f046;opacity:0.6;stroke-dasharray:0,0;stroke-dashoffset:0;"/>
   </g>
   <g id="patch_83">
    <path clip-path="url(#pe4b08cd97a)" d="M 216.976258 153.504093 
L 217.156469 152.909137 
L 225.825482 152.04407 
L 226.810727 153.035694 
z
" style="fill:#653420;opacity:0.6;stroke-dasharray:0,0;stroke-dashoffset:0;"/>
   </g>
   <g id="patch_84">
    <path clip-path="url(#pe4b08cd97a)" d="M 224.872683 151.085103 
L 221.8075 148.000076 
L 222.939027 147.505783 
L 227.587883 149.218216 
z
" style="fill:#6677fa;opacity:0.6;stroke-dasharray:0,0;stroke-dashoffset:0;"/>
   </g>
   <g id="patch_85">
    <path clip-path="url(#pe4b08cd97a)" d="M 222.5305 137.743512 
L 221.795734 137.592825 
L 222.450932 135.429718 
L 226.569198 136.313983 
z
" style="fill:#67bbd4;opacity:0.6;stroke-dasharray:0,0;stroke-dashoffset:0;"/>
   </g>
   <g id="patch_86">
    <path clip-path="url(#pe4b08cd97a)" d="M 222.939027 147.505783 
L 229.136085 144.798678 
L 227.587882 149.218216 
z
" style="fill:#68ffae;opacity:0.6;stroke-dasharray:0,0;stroke-dashoffset:0;"/>
   </g>
   <g id="patch_87">
    <path clip-path="url(#pe4b08cd97a)" d="M 222.5305 137.743512 
L 226.5692 136.313983 
L 232.940729 143.136669 
L 229.136086 144.798678 
z
" style="fill:#6a4388;opacity:0.6;stroke-dasharray:0,0;stroke-dashoffset:0;"/>
   </g>
   <g id="patch_88">
    <path clip-path="url(#pe4b08cd97a)" d="M 222.450932 135.429718 
L 223.338041 132.500972 
L 228.285277 135.706564 
L 226.569198 136.313983 
z
" style="fill:#6b8762;opacity:0.6;stroke-dasharray:0,0;stroke-dashoffset:0;"/>
   </g>
   <g id="patch_89">
    <path clip-path="url(#pe4b08cd97a)" d="M 223.482427 132.024286 
L 226.289267 122.757637 
L 227.263457 123.006115 
L 245.800552 129.506894 
L 231.888957 134.431013 
z
" style="fill:#6ccb3c;opacity:0.6;stroke-dasharray:0,0;stroke-dashoffset:0;"/>
   </g>
   <g id="patch_90">
    <path clip-path="url(#pe4b08cd97a)" d="M 225.825482 152.04407 
L 224.872683 151.085103 
L 227.587883 149.218216 
L 229.399959 149.885705 
z
" style="fill:#6e0f16;opacity:0.6;stroke-dasharray:0,0;stroke-dashoffset:0;"/>
   </g>
   <g id="patch_91">
    <path clip-path="url(#pe4b08cd97a)" d="M 228.285277 135.706564 
L 223.338041 132.500972 
L 223.482427 132.024286 
L 231.888957 134.431013 
z
" style="fill:#6f52f0;opacity:0.6;stroke-dasharray:0,0;stroke-dashoffset:0;"/>
   </g>
   <g id="patch_92">
    <path clip-path="url(#pe4b08cd97a)" d="M 226.810173 196.196912 
L 251.561154 177.946354 
L 289.736337 216.368681 
z
" style="fill:#7096ca;opacity:0.6;stroke-dasharray:0,0;stroke-dashoffset:0;"/>
   </g>
   <g id="patch_93">
    <path clip-path="url(#pe4b08cd97a)" d="M 226.810727 153.035693 
L 225.825482 152.04407 
L 229.399959 149.885705 
L 231.921481 150.814523 
z
" style="fill:#71daa4;opacity:0.6;stroke-dasharray:0,0;stroke-dashoffset:0;"/>
   </g>
   <g id="patch_94">
    <path clip-path="url(#pe4b08cd97a)" d="M 232.940729 143.136669 
L 226.5692 136.313983 
L 228.285277 135.706564 
L 237.009316 141.359359 
z
" style="fill:#731e7e;opacity:0.6;stroke-dasharray:0,0;stroke-dashoffset:0;"/>
   </g>
   <g id="patch_95">
    <path clip-path="url(#pe4b08cd97a)" d="M 239.611089 126.155514 
L 226.518829 121.999751 
L 227.408041 119.06406 
L 260.551237 124.285773 
L 248.711283 128.476618 
z
" style="fill:#746258;opacity:0.6;stroke-dasharray:0,0;stroke-dashoffset:0;"/>
   </g>
   <g id="patch_96">
    <path clip-path="url(#pe4b08cd97a)" d="M 235.311993 161.591997 
L 226.810727 153.035693 
L 231.921481 150.814523 
L 246.66292 156.244619 
L 238.931671 160.258748 
z
" style="fill:#75a632;opacity:0.6;stroke-dasharray:0,0;stroke-dashoffset:0;"/>
   </g>
   <g id="patch_97">
    <path clip-path="url(#pe4b08cd97a)" d="M 229.399959 149.885705 
L 227.587882 149.218216 
L 229.136085 144.798678 
L 232.94073 143.136669 
z
" style="fill:#76ea0c;opacity:0.6;stroke-dasharray:0,0;stroke-dashoffset:0;"/>
   </g>
   <g id="patch_98">
    <path clip-path="url(#pe4b08cd97a)" d="M 227.263454 123.006112 
L 226.314776 122.67342 
L 226.518829 121.999751 
L 239.611059 126.155504 
z
" style="fill:#782de6;opacity:0.6;stroke-dasharray:0,0;stroke-dashoffset:0;"/>
   </g>
   <g id="patch_99">
    <path clip-path="url(#pe4b08cd97a)" d="M 227.408041 119.06406 
L 229.180031 113.213917 
L 402.344968 66.763335 
L 394.454599 72.581433 
L 342.472985 95.288925 
L 260.551237 124.285773 
z
" style="fill:#7971c0;opacity:0.6;stroke-dasharray:0,0;stroke-dashoffset:0;"/>
   </g>
   <g id="patch_100">
    <path clip-path="url(#pe4b08cd97a)" d="M 231.921482 150.814523 
L 229.399959 149.885705 
L 232.94073 143.136669 
L 237.009316 141.359359 
L 238.488481 142.317793 
z
" style="fill:#7ab59a;opacity:0.6;stroke-dasharray:0,0;stroke-dashoffset:0;"/>
   </g>
   <g id="patch_101">
    <path clip-path="url(#pe4b08cd97a)" d="M 228.285277 135.706564 
L 231.888958 134.431012 
L 238.589423 140.669111 
L 237.009316 141.359359 
z
" style="fill:#7bf974;opacity:0.6;stroke-dasharray:0,0;stroke-dashoffset:0;"/>
   </g>
   <g id="patch_102">
    <path clip-path="url(#pe4b08cd97a)" d="M 227.263457 123.006115 
L 239.611089 126.155514 
L 247.86602 128.775805 
L 245.800552 129.506894 
z
" style="fill:#7d3d4e;opacity:0.6;stroke-dasharray:0,0;stroke-dashoffset:0;"/>
   </g>
   <g id="patch_103">
    <path clip-path="url(#pe4b08cd97a)" d="M 229.180031 113.213917 
L 484.206646 -728.74433 
L 452.001414 30.148306 
L 402.344968 66.763335 
z
" style="fill:#7e8128;opacity:0.6;stroke-dasharray:0,0;stroke-dashoffset:0;"/>
   </g>
   <g id="patch_104">
    <path clip-path="url(#pe4b08cd97a)" d="M 231.921482 150.814523 
L 238.488481 142.317793 
L 252.095701 151.134676 
L 246.662919 156.244619 
z
" style="fill:#7fc502;opacity:0.6;stroke-dasharray:0,0;stroke-dashoffset:0;"/>
   </g>
   <g id="patch_105">
    <path clip-path="url(#pe4b08cd97a)" d="M 238.589423 140.669111 
L 231.888958 134.431012 
L 245.800554 129.506893 
L 251.190901 135.164319 
z
" style="fill:#8108dc;opacity:0.6;stroke-dasharray:0,0;stroke-dashoffset:0;"/>
   </g>
   <g id="patch_106">
    <path clip-path="url(#pe4b08cd97a)" d="M 238.321786 164.621275 
L 235.669943 161.952264 
L 238.931671 160.258748 
L 248.246287 156.827862 
L 249.813062 157.404993 
z
" style="fill:#824cb6;opacity:0.6;stroke-dasharray:0,0;stroke-dashoffset:0;"/>
   </g>
   <g id="patch_107">
    <path clip-path="url(#pe4b08cd97a)" d="M 238.779664 165.082117 
L 238.321786 164.621275 
L 249.813062 157.404993 
L 254.742449 159.220762 
z
" style="fill:#839090;opacity:0.6;stroke-dasharray:0,0;stroke-dashoffset:0;"/>
   </g>
   <g id="patch_108">
    <path clip-path="url(#pe4b08cd97a)" d="M 238.48848 142.317793 
L 238.589422 140.669111 
L 251.1909 135.164319 
L 252.570197 147.392726 
L 252.095702 151.134677 
z
" style="fill:#84d46a;opacity:0.6;stroke-dasharray:0,0;stroke-dashoffset:0;"/>
   </g>
   <g id="patch_109">
    <path clip-path="url(#pe4b08cd97a)" d="M 251.561154 177.946354 
L 238.779664 165.082117 
L 254.742449 159.220762 
L 269.556114 164.677463 
z
" style="fill:#861844;opacity:0.6;stroke-dasharray:0,0;stroke-dashoffset:0;"/>
   </g>
   <g id="patch_110">
    <path clip-path="url(#pe4b08cd97a)" d="M 238.931671 160.258748 
L 246.66292 156.244619 
L 248.246287 156.827862 
z
" style="fill:#875c1e;opacity:0.6;stroke-dasharray:0,0;stroke-dashoffset:0;"/>
   </g>
   <g id="patch_111">
    <path clip-path="url(#pe4b08cd97a)" d="M 239.611089 126.155514 
L 248.711283 128.476618 
L 247.86602 128.775805 
z
" style="fill:#889ff8;opacity:0.6;stroke-dasharray:0,0;stroke-dashoffset:0;"/>
   </g>
   <g id="patch_112">
    <path clip-path="url(#pe4b08cd97a)" d="M 248.246286 156.827862 
L 246.662919 156.244619 
L 252.095701 151.134676 
L 253.062961 151.761418 
L 252.258151 153.159002 
z
" style="fill:#89e3d2;opacity:0.6;stroke-dasharray:0,0;stroke-dashoffset:0;"/>
   </g>
   <g id="patch_113">
    <path clip-path="url(#pe4b08cd97a)" d="M 251.190901 135.164319 
L 245.800554 129.506893 
L 247.866019 128.775806 
L 253.320368 134.234089 
z
" style="fill:#8b27ac;opacity:0.6;stroke-dasharray:0,0;stroke-dashoffset:0;"/>
   </g>
   <g id="patch_114">
    <path clip-path="url(#pe4b08cd97a)" d="M 248.246286 156.827862 
L 252.258151 153.159002 
L 249.813063 157.404993 
z
" style="fill:#8c6b86;opacity:0.6;stroke-dasharray:0,0;stroke-dashoffset:0;"/>
   </g>
   <g id="patch_115">
    <path clip-path="url(#pe4b08cd97a)" d="M 253.320368 134.234089 
L 247.866019 128.775806 
L 248.711286 128.476617 
L 254.29262 133.809373 
z
" style="fill:#8daf60;opacity:0.6;stroke-dasharray:0,0;stroke-dashoffset:0;"/>
   </g>
   <g id="patch_116">
    <path clip-path="url(#pe4b08cd97a)" d="M 254.29262 133.809373 
L 248.711286 128.476617 
L 260.551235 124.285774 
L 264.634138 129.291815 
z
" style="fill:#8ef33a;opacity:0.6;stroke-dasharray:0,0;stroke-dashoffset:0;"/>
   </g>
   <g id="patch_117">
    <path clip-path="url(#pe4b08cd97a)" d="M 249.813063 157.404993 
L 252.258151 153.159002 
L 253.486386 152.035779 
L 258.051424 154.993724 
L 254.742451 159.220763 
z
" style="fill:#903714;opacity:0.6;stroke-dasharray:0,0;stroke-dashoffset:0;"/>
   </g>
   <g id="patch_118">
    <path clip-path="url(#pe4b08cd97a)" d="M 289.736337 216.368681 
L 251.561154 177.946354 
L 269.556114 164.677463 
L 277.52894 167.614301 
L 414.492927 256.360966 
z
" style="fill:#917aee;opacity:0.6;stroke-dasharray:0,0;stroke-dashoffset:0;"/>
   </g>
   <g id="patch_119">
    <path clip-path="url(#pe4b08cd97a)" d="M 252.095702 151.134677 
L 252.570197 147.392726 
L 253.062961 151.761418 
z
" style="fill:#92bec8;opacity:0.6;stroke-dasharray:0,0;stroke-dashoffset:0;"/>
   </g>
   <g id="patch_120">
    <path clip-path="url(#pe4b08cd97a)" d="M 252.570197 147.392726 
L 251.1909 135.164319 
L 253.320367 134.234089 
L 253.910442 136.823307 
z
" style="fill:#9402a2;opacity:0.6;stroke-dasharray:0,0;stroke-dashoffset:0;"/>
   </g>
   <g id="patch_121">
    <path clip-path="url(#pe4b08cd97a)" d="M 253.486386 152.035779 
L 256.142381 146.616943 
L 258.051423 154.993723 
z
" style="fill:#95467c;opacity:0.6;stroke-dasharray:0,0;stroke-dashoffset:0;"/>
   </g>
   <g id="patch_122">
    <path clip-path="url(#pe4b08cd97a)" d="M 253.486386 152.035779 
L 253.062963 151.761419 
L 252.570198 147.392716 
L 253.910442 136.823307 
L 256.142381 146.616943 
z
" style="fill:#968a56;opacity:0.6;stroke-dasharray:0,0;stroke-dashoffset:0;"/>
   </g>
   <g id="patch_123">
    <path clip-path="url(#pe4b08cd97a)" d="M 256.142381 146.616943 
L 253.910442 136.823307 
L 254.292621 133.809372 
L 264.634142 129.291813 
z
" style="fill:#97ce30;opacity:0.6;stroke-dasharray:0,0;stroke-dashoffset:0;"/>
   </g>
   <g id="patch_124">
    <path clip-path="url(#pe4b08cd97a)" d="M 253.320367 134.234089 
L 254.292621 133.809372 
L 253.910442 136.823307 
z
" style="fill:#99120a;opacity:0.6;stroke-dasharray:0,0;stroke-dashoffset:0;"/>
   </g>
   <g id="patch_125">
    <path clip-path="url(#pe4b08cd97a)" d="M 254.742451 159.220763 
L 258.051424 154.993724 
L 271.165272 163.490923 
L 269.556114 164.677463 
z
" style="fill:#9a55e4;opacity:0.6;stroke-dasharray:0,0;stroke-dashoffset:0;"/>
   </g>
   <g id="patch_126">
    <path clip-path="url(#pe4b08cd97a)" d="M 271.165272 163.490923 
L 258.051423 154.993723 
L 256.142381 146.616943 
L 264.634142 129.291813 
L 342.472985 95.288925 
L 383.218063 80.866885 
z
" style="fill:#9b99be;opacity:0.6;stroke-dasharray:0,0;stroke-dashoffset:0;"/>
   </g>
   <g id="patch_127">
    <path clip-path="url(#pe4b08cd97a)" d="M 264.634138 129.291815 
L 260.551235 124.285774 
L 342.472985 95.288925 
z
" style="fill:#9cdd98;opacity:0.6;stroke-dasharray:0,0;stroke-dashoffset:0;"/>
   </g>
   <g id="patch_128">
    <path clip-path="url(#pe4b08cd97a)" d="M 269.556114 164.677463 
L 271.165272 163.490923 
L 277.52894 167.614301 
z
" style="fill:#9e2172;opacity:0.6;stroke-dasharray:0,0;stroke-dashoffset:0;"/>
   </g>
   <g id="patch_129">
    <path clip-path="url(#pe4b08cd97a)" d="M 277.52894 167.614301 
L 271.165272 163.490923 
L 383.218063 80.866885 
L 450.865188 56.922652 
L 443.572168 228.777309 
z
" style="fill:#9f654c;opacity:0.6;stroke-dasharray:0,0;stroke-dashoffset:0;"/>
   </g>
   <g id="patch_130">
    <path clip-path="url(#pe4b08cd97a)" d="M 414.492927 256.360966 
L 277.52894 167.614301 
L 443.572168 228.777309 
L 442.027029 265.187367 
z
" style="fill:#a0a926;opacity:0.6;stroke-dasharray:0,0;stroke-dashoffset:0;"/>
   </g>
   <g id="patch_131">
    <path clip-path="url(#pe4b08cd97a)" d="M 289.736337 216.368681 
L 414.492927 256.360966 
L 441.654717 273.960616 
L 437.775715 365.36646 
z
" style="fill:#a1ed00;opacity:0.6;stroke-dasharray:0,0;stroke-dashoffset:0;"/>
   </g>
   <g id="patch_132">
    <path clip-path="url(#pe4b08cd97a)" d="M 342.472985 95.288925 
L 394.454599 72.581433 
L 383.218063 80.866885 
z
" style="fill:#a330da;opacity:0.6;stroke-dasharray:0,0;stroke-dashoffset:0;"/>
   </g>
   <g id="patch_133">
    <path clip-path="url(#pe4b08cd97a)" d="M 383.218063 80.866885 
L 394.454599 72.581433 
L 416.410221 62.990404 
L 451.00146 53.711487 
L 450.865188 56.922652 
z
" style="fill:#a474b4;opacity:0.6;stroke-dasharray:0,0;stroke-dashoffset:0;"/>
   </g>
   <g id="matplotlib.axis_1">
    <g id="xtick_1">
     <g id="line2d_1">
      <defs>
       <path d="M 0 0 
L 0 3.5 
" id="ma1853f5de2" style="stroke:#000000;stroke-width:0.8;"/>
      </defs>
      <g>
       <use style="stroke:#000000;stroke-width:0.8;" x="87.48" xlink:href="#ma1853f5de2" y="252"/>
      </g>
     </g>
     <g id="text_1">
      <!-- −4 -->
      <defs>
       <path d="M 10.59375 35.5 
L 73.1875 35.5 
L 73.1875 27.203125 
L 10.59375 27.203125 
z
" id="DejaVuSans-2212"/>
       <path d="M 37.796875 64.3125 
L 12.890625 25.390625 
L 37.796875 25.390625 
z
M 35.203125 72.90625 
L 47.609375 72.90625 
L 47.609375 25.390625 
L 58.015625 25.390625 
L 58.015625 17.1875 
L 47.609375 17.1875 
L 47.609375 0 
L 37.796875 0 
L 37.796875 17.1875 
L 4.890625 17.1875 
L 4.890625 26.703125 
z
" id="DejaVuSans-34"/>
      </defs>
      <g transform="translate(80.108906 266.598437)scale(0.1 -0.1)">
       <use xlink:href="#DejaVuSans-2212"/>
       <use x="83.789062" xlink:href="#DejaVuSans-34"/>
      </g>
     </g>
    </g>
    <g id="xtick_2">
     <g id="line2d_2">
      <g>
       <use style="stroke:#000000;stroke-width:0.8;" x="154.44" xlink:href="#ma1853f5de2" y="252"/>
      </g>
     </g>
     <g id="text_2">
      <!-- −2 -->
      <defs>
       <path d="M 19.1875 8.296875 
L 53.609375 8.296875 
L 53.609375 0 
L 7.328125 0 
L 7.328125 8.296875 
Q 12.9375 14.109375 22.625 23.890625 
Q 32.328125 33.6875 34.8125 36.53125 
Q 39.546875 41.84375 41.421875 45.53125 
Q 43.3125 49.21875 43.3125 52.78125 
Q 43.3125 58.59375 39.234375 62.25 
Q 35.15625 65.921875 28.609375 65.921875 
Q 23.96875 65.921875 18.8125 64.3125 
Q 13.671875 62.703125 7.8125 59.421875 
L 7.8125 69.390625 
Q 13.765625 71.78125 18.9375 73 
Q 24.125 74.21875 28.421875 74.21875 
Q 39.75 74.21875 46.484375 68.546875 
Q 53.21875 62.890625 53.21875 53.421875 
Q 53.21875 48.921875 51.53125 44.890625 
Q 49.859375 40.875 45.40625 35.40625 
Q 44.1875 33.984375 37.640625 27.21875 
Q 31.109375 20.453125 19.1875 8.296875 
z
" id="DejaVuSans-32"/>
      </defs>
      <g transform="translate(147.068906 266.598437)scale(0.1 -0.1)">
       <use xlink:href="#DejaVuSans-2212"/>
       <use x="83.789062" xlink:href="#DejaVuSans-32"/>
      </g>
     </g>
    </g>
    <g id="xtick_3">
     <g id="line2d_3">
      <g>
       <use style="stroke:#000000;stroke-width:0.8;" x="221.4" xlink:href="#ma1853f5de2" y="252"/>
      </g>
     </g>
     <g id="text_3">
      <!-- 0 -->
      <defs>
       <path d="M 31.78125 66.40625 
Q 24.171875 66.40625 20.328125 58.90625 
Q 16.5 51.421875 16.5 36.375 
Q 16.5 21.390625 20.328125 13.890625 
Q 24.171875 6.390625 31.78125 6.390625 
Q 39.453125 6.390625 43.28125 13.890625 
Q 47.125 21.390625 47.125 36.375 
Q 47.125 51.421875 43.28125 58.90625 
Q 39.453125 66.40625 31.78125 66.40625 
z
M 31.78125 74.21875 
Q 44.046875 74.21875 50.515625 64.515625 
Q 56.984375 54.828125 56.984375 36.375 
Q 56.984375 17.96875 50.515625 8.265625 
Q 44.046875 -1.421875 31.78125 -1.421875 
Q 19.53125 -1.421875 13.0625 8.265625 
Q 6.59375 17.96875 6.59375 36.375 
Q 6.59375 54.828125 13.0625 64.515625 
Q 19.53125 74.21875 31.78125 74.21875 
z
" id="DejaVuSans-30"/>
      </defs>
      <g transform="translate(218.21875 266.598437)scale(0.1 -0.1)">
       <use xlink:href="#DejaVuSans-30"/>
      </g>
     </g>
    </g>
    <g id="xtick_4">
     <g id="line2d_4">
      <g>
       <use style="stroke:#000000;stroke-width:0.8;" x="288.36" xlink:href="#ma1853f5de2" y="252"/>
      </g>
     </g>
     <g id="text_4">
      <!-- 2 -->
      <g transform="translate(285.17875 266.598437)scale(0.1 -0.1)">
       <use xlink:href="#DejaVuSans-32"/>
      </g>
     </g>
    </g>
    <g id="xtick_5">
     <g id="line2d_5">
      <g>
       <use style="stroke:#000000;stroke-width:0.8;" x="355.32" xlink:href="#ma1853f5de2" y="252"/>
      </g>
     </g>
     <g id="text_5">
      <!-- 4 -->
      <g transform="translate(352.13875 266.598437)scale(0.1 -0.1)">
       <use xlink:href="#DejaVuSans-34"/>
      </g>
     </g>
    </g>
   </g>
   <g id="matplotlib.axis_2">
    <g id="ytick_1">
     <g id="line2d_6">
      <defs>
       <path d="M 0 0 
L -3.5 0 
" id="m0946e9b921" style="stroke:#000000;stroke-width:0.8;"/>
      </defs>
      <g>
       <use style="stroke:#000000;stroke-width:0.8;" x="54" xlink:href="#m0946e9b921" y="230.256"/>
      </g>
     </g>
     <g id="text_6">
      <!-- −4 -->
      <g transform="translate(32.257812 234.055219)scale(0.1 -0.1)">
       <use xlink:href="#DejaVuSans-2212"/>
       <use x="83.789062" xlink:href="#DejaVuSans-34"/>
      </g>
     </g>
    </g>
    <g id="ytick_2">
     <g id="line2d_7">
      <g>
       <use style="stroke:#000000;stroke-width:0.8;" x="54" xlink:href="#m0946e9b921" y="186.768"/>
      </g>
     </g>
     <g id="text_7">
      <!-- −2 -->
      <g transform="translate(32.257812 190.567219)scale(0.1 -0.1)">
       <use xlink:href="#DejaVuSans-2212"/>
       <use x="83.789062" xlink:href="#DejaVuSans-32"/>
      </g>
     </g>
    </g>
    <g id="ytick_3">
     <g id="line2d_8">
      <g>
       <use style="stroke:#000000;stroke-width:0.8;" x="54" xlink:href="#m0946e9b921" y="143.28"/>
      </g>
     </g>
     <g id="text_8">
      <!-- 0 -->
      <g transform="translate(40.6375 147.079219)scale(0.1 -0.1)">
       <use xlink:href="#DejaVuSans-30"/>
      </g>
     </g>
    </g>
    <g id="ytick_4">
     <g id="line2d_9">
      <g>
       <use style="stroke:#000000;stroke-width:0.8;" x="54" xlink:href="#m0946e9b921" y="99.792"/>
      </g>
     </g>
     <g id="text_9">
      <!-- 2 -->
      <g transform="translate(40.6375 103.591219)scale(0.1 -0.1)">
       <use xlink:href="#DejaVuSans-32"/>
      </g>
     </g>
    </g>
    <g id="ytick_5">
     <g id="line2d_10">
      <g>
       <use style="stroke:#000000;stroke-width:0.8;" x="54" xlink:href="#m0946e9b921" y="56.304"/>
      </g>
     </g>
     <g id="text_10">
      <!-- 4 -->
      <g transform="translate(40.6375 60.103219)scale(0.1 -0.1)">
       <use xlink:href="#DejaVuSans-34"/>
      </g>
     </g>
    </g>
   </g>
   <g id="line2d_11">
    <path clip-path="url(#pe4b08cd97a)" d="M 203.606533 155.950931 
L 196.068973 147.109778 
" style="fill:none;stroke:#ff0000;stroke-linecap:square;stroke-width:0.5;"/>
   </g>
   <g id="line2d_12">
    <path clip-path="url(#pe4b08cd97a)" d="M 197.51464 138.140559 
L 196.068976 147.109777 
" style="fill:none;stroke:#ff0000;stroke-linecap:square;stroke-width:0.5;"/>
   </g>
   <g id="line2d_13">
    <path clip-path="url(#pe4b08cd97a)" d="M 204.305166 130.384433 
L 197.514638 138.140558 
" style="fill:none;stroke:#ff0000;stroke-linecap:square;stroke-width:0.5;"/>
   </g>
   <g id="line2d_14">
    <path clip-path="url(#pe4b08cd97a)" d="M 215.25313 159.192919 
L 203.606533 155.950932 
" style="fill:none;stroke:#ff0000;stroke-linecap:square;stroke-width:0.5;"/>
   </g>
   <g id="line2d_15">
    <path clip-path="url(#pe4b08cd97a)" d="M 215.251241 127.26108 
L 204.305167 130.384434 
" style="fill:none;stroke:#ff0000;stroke-linecap:square;stroke-width:0.5;"/>
   </g>
   <g id="line2d_16">
    <path clip-path="url(#pe4b08cd97a)" d="M 224.934569 127.230109 
L 215.251245 127.261082 
" style="fill:none;stroke:#ff0000;stroke-linecap:square;stroke-width:0.5;"/>
   </g>
   <g id="line2d_17">
    <path clip-path="url(#pe4b08cd97a)" d="M 232.165786 158.425421 
L 215.25313 159.19292 
" style="fill:none;stroke:#ff0000;stroke-linecap:square;stroke-width:0.5;"/>
   </g>
   <g id="line2d_18">
    <path clip-path="url(#pe4b08cd97a)" d="M 239.84654 131.614364 
L 224.93457 127.230107 
" style="fill:none;stroke:#ff0000;stroke-linecap:square;stroke-width:0.5;"/>
   </g>
   <g id="line2d_19">
    <path clip-path="url(#pe4b08cd97a)" d="M 232.165784 158.425419 
L 240.770685 154.07418 
" style="fill:none;stroke:#ff0000;stroke-linecap:square;stroke-width:0.5;"/>
   </g>
   <g id="line2d_20">
    <path clip-path="url(#pe4b08cd97a)" d="M 240.770684 154.074179 
L 245.768396 147.03486 
" style="fill:none;stroke:#ff0000;stroke-linecap:square;stroke-width:0.5;"/>
   </g>
   <g id="line2d_21">
    <path clip-path="url(#pe4b08cd97a)" d="M 245.925454 137.464461 
L 239.846543 131.614363 
" style="fill:none;stroke:#ff0000;stroke-linecap:square;stroke-width:0.5;"/>
   </g>
   <g id="line2d_22">
    <path clip-path="url(#pe4b08cd97a)" d="M 245.768397 147.03486 
L 245.925453 137.464461 
" style="fill:none;stroke:#ff0000;stroke-linecap:square;stroke-width:0.5;"/>
   </g>
   <g id="patch_134">
    <path d="M 54 252 
L 54 34.56 
" style="fill:none;stroke:#000000;stroke-linecap:square;stroke-linejoin:miter;stroke-width:0.8;"/>
   </g>
   <g id="patch_135">
    <path d="M 388.8 252 
L 388.8 34.56 
" style="fill:none;stroke:#000000;stroke-linecap:square;stroke-linejoin:miter;stroke-width:0.8;"/>
   </g>
   <g id="patch_136">
    <path d="M 54 252 
L 388.8 252 
" style="fill:none;stroke:#000000;stroke-linecap:square;stroke-linejoin:miter;stroke-width:0.8;"/>
   </g>
   <g id="patch_137">
    <path d="M 54 34.56 
L 388.8 34.56 
" style="fill:none;stroke:#000000;stroke-linecap:square;stroke-linejoin:miter;stroke-width:0.8;"/>
   </g>
  </g>
 </g>
 <defs>
  <clipPath id="pe4b08cd97a">
   <rect height="217.44" width="334.8" x="54" y="34.56"/>
  </clipPath>
 </defs>
</svg>
