<?xml version="1.0" encoding="utf-8" standalone="no"?>
<!DOCTYPE svg PUBLIC "-//W3C//DTD SVG 1.1//EN"
  "http://www.w3.org/Graphics/SVG/1.1/DTD/svg11.dtd">
<!-- Created with matplotlib (http://matplotlib.org/) -->
<svg height="576pt" version="1.1" viewBox="0 0 576 576" width="576pt" xmlns="http://www.w3.org/2000/svg" xmlns:xlink="http://www.w3.org/1999/xlink">
 <defs>
  <style type="text/css">
*{stroke-linecap:butt;stroke-linejoin:round;}
  </style>
 </defs>
 <g id="figure_1">
  <g id="patch_1">
   <path d="M 0 576 
L 576 576 
L 576 0 
L 0 0 
z
" style="fill:#ffffff;"/>
  </g>
  <g id="axes_1">
   <g id="patch_2">
    <path d="M 72 504 
L 429.12 504 
L 429.12 69.12 
L 72 69.12 
z
" style="fill:#ffffff;"/>
   </g>
   <g id="PathCollection_1">
    <path clip-path="url(#pea53432fbc)" d="M 385.832727 504 
L 389.44 504 
L 393.047273 504 
L 396.654545 504 
L 400.261818 504 
L 403.869091 504 
L 407.476364 504 
L 411.083636 504 
L 414.690909 504 
L 418.298182 504 
L 421.905455 504 
L 425.512727 504 
L 429.12 504 
L 429.12 499.607273 
L 429.12 495.214545 
L 429.12 490.821818 
L 429.12 486.429091 
L 429.12 482.036364 
L 429.12 477.643636 
L 429.12 473.250909 
L 429.12 468.858182 
L 429.12 464.465455 
L 429.12 461.345885 
L 426.136201 464.465455 
L 425.512727 465.117307 
L 421.934743 468.858182 
L 421.905455 468.888804 
L 418.298182 472.660215 
L 417.733196 473.250909 
L 414.690909 476.43165 
L 413.531708 477.643636 
L 411.083636 480.203146 
L 409.330199 482.036364 
L 407.476364 483.974582 
L 405.128734 486.429091 
L 403.869091 487.746053 
L 400.927194 490.821818 
L 400.261818 491.517486 
L 396.654545 495.091472 
L 396.508135 495.214545 
L 393.047273 497.445753 
L 389.694569 499.607273 
L 389.44 499.771396 
L 385.832727 502.096966 
L 382.880908 504 
z
" style="fill:#4e68d8;"/>
   </g>
   <g id="PathCollection_2">
    <path clip-path="url(#pea53432fbc)" d="M 270.4 504 
L 274.007273 504 
L 277.614545 504 
L 281.221818 504 
L 284.829091 504 
L 288.436364 504 
L 292.043636 504 
L 295.650909 504 
L 299.258182 504 
L 302.865455 504 
L 306.472727 504 
L 310.08 504 
L 313.687273 504 
L 317.294545 504 
L 320.901818 504 
L 324.509091 504 
L 328.116364 504 
L 331.723636 504 
L 335.330909 504 
L 338.938182 504 
L 342.545455 504 
L 346.152727 504 
L 349.76 504 
L 353.367273 504 
L 356.974545 504 
L 360.581818 504 
L 364.189091 504 
L 367.796364 504 
L 371.403636 504 
L 375.010909 504 
L 378.618182 504 
L 382.225455 504 
L 382.880908 504 
L 385.832727 502.096966 
L 389.44 499.771396 
L 389.694569 499.607273 
L 393.047273 497.445753 
L 396.508135 495.214545 
L 396.654545 495.091472 
L 400.261818 491.517486 
L 400.927194 490.821818 
L 403.869091 487.746053 
L 405.128734 486.429091 
L 407.476364 483.974582 
L 409.330199 482.036364 
L 411.083636 480.203146 
L 413.531708 477.643636 
L 414.690909 476.43165 
L 417.733196 473.250909 
L 418.298182 472.660215 
L 421.905455 468.888804 
L 421.934743 468.858182 
L 425.512727 465.117307 
L 426.136201 464.465455 
L 429.12 461.345885 
L 429.12 460.072727 
L 429.12 455.68 
L 429.12 451.287273 
L 429.12 446.894545 
L 429.12 442.501818 
L 429.12 438.109091 
L 429.12 433.716364 
L 429.12 429.323636 
L 429.12 424.930909 
L 429.12 420.538182 
L 429.12 416.145455 
L 429.12 411.752727 
L 429.12 407.36 
L 429.12 402.967273 
L 429.12 398.574545 
L 429.12 394.181818 
L 429.12 389.789091 
L 429.12 385.396364 
L 429.12 381.003636 
L 429.12 376.610909 
L 429.12 372.218182 
L 429.12 367.825455 
L 429.12 363.432727 
L 429.12 359.04 
L 429.12 354.647273 
L 429.12 350.254545 
L 429.12 345.861818 
L 429.12 341.469091 
L 429.12 337.076364 
L 429.12 332.683636 
L 429.12 328.290909 
L 429.12 323.898182 
L 429.12 321.34245 
L 426.861013 323.898182 
L 425.512727 325.423566 
L 422.978231 328.290909 
L 421.905455 329.504569 
L 419.095419 332.683636 
L 418.298182 333.585579 
L 415.212632 337.076364 
L 414.690909 337.666605 
L 411.329922 341.469091 
L 411.083636 341.747727 
L 407.476364 345.828739 
L 407.447124 345.861818 
L 403.869091 349.909756 
L 403.564333 350.254545 
L 400.261818 353.990816 
L 399.681556 354.647273 
L 396.654545 358.071821 
L 395.798768 359.04 
L 393.047273 362.152889 
L 391.916011 363.432727 
L 389.44 366.233903 
L 388.033219 367.825455 
L 385.832727 370.314921 
L 384.150416 372.218182 
L 382.225455 374.395989 
L 380.267655 376.610909 
L 378.618182 378.477039 
L 376.384903 381.003636 
L 375.010909 382.558065 
L 372.502096 385.396364 
L 371.403636 386.639096 
L 368.619333 389.789091 
L 367.796364 390.720138 
L 364.736575 394.181818 
L 364.189091 394.80122 
L 360.853807 398.574545 
L 360.581818 398.882253 
L 356.974545 402.963239 
L 356.97098 402.967273 
L 353.367273 407.04429 
L 353.088217 407.36 
L 349.76 411.125348 
L 349.205448 411.752727 
L 346.152727 415.206377 
L 345.322677 416.145455 
L 342.545455 419.287427 
L 341.439892 420.538182 
L 338.938182 423.368467 
L 337.557107 424.930909 
L 335.330909 427.449453 
L 333.674319 429.323636 
L 331.723636 431.530532 
L 329.791556 433.716364 
L 328.116364 435.611577 
L 325.908793 438.109091 
L 324.509091 439.692643 
L 322.026033 442.501818 
L 320.901818 443.763851 
L 318.1362 446.894545 
L 317.294545 447.770279 
L 314.025958 451.287273 
L 313.687273 451.641374 
L 310.08 455.250461 
L 309.57159 455.68 
L 306.472727 457.677825 
L 302.865455 460.003439 
L 302.75798 460.072727 
L 299.258182 462.329054 
L 295.944416 464.465455 
L 295.650909 464.654679 
L 292.043636 466.980254 
L 289.130781 468.858182 
L 288.436364 469.305874 
L 284.829091 471.727716 
L 283.652429 473.250909 
L 281.417492 477.643636 
L 281.221818 478.028233 
L 279.182546 482.036364 
L 277.614545 485.118234 
L 276.947614 486.429091 
L 274.712698 490.821818 
L 274.007273 492.208307 
L 272.477738 495.214545 
L 270.4 499.298289 
L 270.242795 499.607273 
L 268.00789 504 
z
" style="fill:#779af7;"/>
   </g>
   <g id="PathCollection_3">
    <path clip-path="url(#pea53432fbc)" d="M 191.04 504 
L 194.647273 504 
L 198.254545 504 
L 201.861818 504 
L 205.469091 504 
L 209.076364 504 
L 212.683636 504 
L 216.290909 504 
L 219.898182 504 
L 223.505455 504 
L 227.112727 504 
L 230.72 504 
L 234.327273 504 
L 237.934545 504 
L 241.541818 504 
L 245.149091 504 
L 248.756364 504 
L 252.363636 504 
L 255.970909 504 
L 259.578182 504 
L 263.185455 504 
L 266.792727 504 
L 268.00789 504 
L 270.242795 499.607273 
L 270.4 499.298289 
L 272.477738 495.214545 
L 274.007273 492.208307 
L 274.712698 490.821818 
L 276.947614 486.429091 
L 277.614545 485.118234 
L 279.182546 482.036364 
L 281.221818 478.028233 
L 281.417492 477.643636 
L 283.652429 473.250909 
L 284.829091 471.727716 
L 288.436364 469.305874 
L 289.130781 468.858182 
L 292.043636 466.980254 
L 295.650909 464.654679 
L 295.944416 464.465455 
L 299.258182 462.329054 
L 302.75798 460.072727 
L 302.865455 460.003439 
L 306.472727 457.677825 
L 309.57159 455.68 
L 310.08 455.250461 
L 313.687273 451.641374 
L 314.025958 451.287273 
L 317.294545 447.770279 
L 318.1362 446.894545 
L 320.901818 443.763851 
L 322.026033 442.501818 
L 324.509091 439.692643 
L 325.908793 438.109091 
L 328.116364 435.611577 
L 329.791556 433.716364 
L 331.723636 431.530532 
L 333.674319 429.323636 
L 335.330909 427.449453 
L 337.557107 424.930909 
L 338.938182 423.368467 
L 341.439892 420.538182 
L 342.545455 419.287427 
L 345.322677 416.145455 
L 346.152727 415.206377 
L 349.205448 411.752727 
L 349.76 411.125348 
L 353.088217 407.36 
L 353.367273 407.04429 
L 356.97098 402.967273 
L 356.974545 402.963239 
L 360.581818 398.882253 
L 360.853807 398.574545 
L 364.189091 394.80122 
L 364.736575 394.181818 
L 367.796364 390.720138 
L 368.619333 389.789091 
L 371.403636 386.639096 
L 372.502096 385.396364 
L 375.010909 382.558065 
L 376.384903 381.003636 
L 378.618182 378.477039 
L 380.267655 376.610909 
L 382.225455 374.395989 
L 384.150416 372.218182 
L 385.832727 370.314921 
L 388.033219 367.825455 
L 389.44 366.233903 
L 391.916011 363.432727 
L 393.047273 362.152889 
L 395.798768 359.04 
L 396.654545 358.071821 
L 399.681556 354.647273 
L 400.261818 353.990816 
L 403.564333 350.254545 
L 403.869091 349.909756 
L 407.447124 345.861818 
L 407.476364 345.828739 
L 411.083636 341.747727 
L 411.329922 341.469091 
L 414.690909 337.666605 
L 415.212632 337.076364 
L 418.298182 333.585579 
L 419.095419 332.683636 
L 421.905455 329.504569 
L 422.978231 328.290909 
L 425.512727 325.423566 
L 426.861013 323.898182 
L 429.12 321.34245 
L 429.12 319.505455 
L 429.12 315.112727 
L 429.12 310.72 
L 429.12 306.327273 
L 429.12 301.934545 
L 429.12 297.541818 
L 429.12 293.149091 
L 429.12 288.756364 
L 429.12 284.363636 
L 429.12 279.970909 
L 429.12 275.578182 
L 429.12 271.185455 
L 429.12 266.792727 
L 429.12 262.4 
L 429.12 258.007273 
L 429.12 253.614545 
L 429.12 249.221818 
L 429.12 244.829091 
L 429.12 240.436364 
L 429.12 236.043636 
L 429.12 231.650909 
L 429.12 227.258182 
L 429.12 222.865455 
L 429.12 218.472727 
L 429.12 214.08 
L 429.12 209.687273 
L 429.12 205.294545 
L 429.12 200.901818 
L 429.12 196.509091 
L 429.12 192.116364 
L 429.12 187.723636 
L 429.12 183.330909 
L 429.12 178.938182 
L 429.12 174.545455 
L 429.12 170.152727 
L 429.12 165.76 
L 429.12 161.367273 
L 429.12 156.974545 
L 429.12 152.581818 
L 429.12 148.189091 
L 429.12 143.796364 
L 429.12 139.403636 
L 429.12 135.010909 
L 429.12 130.618182 
L 429.12 126.225455 
L 429.12 121.832727 
L 429.12 117.44 
L 429.12 113.047273 
L 429.12 108.654545 
L 429.12 104.261818 
L 429.12 99.869091 
L 429.12 96.554713 
L 425.512727 98.704298 
L 423.480114 99.869091 
L 421.905455 100.771458 
L 418.298182 102.838608 
L 415.81463 104.261818 
L 414.690909 104.905765 
L 411.083636 106.972912 
L 408.149081 108.654545 
L 407.476364 109.040039 
L 403.869091 111.107194 
L 400.483548 113.047273 
L 400.261818 113.174336 
L 396.654545 115.241483 
L 393.047273 117.308633 
L 392.818034 117.44 
L 389.44 119.375795 
L 385.832727 121.442931 
L 385.152506 121.832727 
L 382.225455 123.510054 
L 378.618182 125.577219 
L 377.486955 126.225455 
L 375.010909 127.644324 
L 371.403636 129.71148 
L 369.821391 130.618182 
L 367.796364 131.778631 
L 364.189091 133.845776 
L 362.155915 135.010909 
L 360.581818 135.912953 
L 356.974545 137.980083 
L 354.490358 139.403636 
L 353.367273 140.047216 
L 349.76 142.114351 
L 346.824792 143.796364 
L 346.152727 144.181489 
L 342.545455 146.248649 
L 339.159292 148.189091 
L 338.938182 148.315799 
L 335.330909 150.382937 
L 331.723636 152.450079 
L 331.493749 152.581818 
L 328.116364 154.517248 
L 324.509091 156.589902 
L 323.82823 156.974545 
L 320.901818 158.651515 
L 317.294545 160.74672 
L 316.162672 161.367273 
L 313.687273 162.785802 
L 310.08 164.917121 
L 308.542611 165.76 
L 306.472727 166.964435 
L 302.865455 169.09988 
L 301.008341 170.152727 
L 299.258182 171.204012 
L 295.650909 173.294031 
L 293.510253 174.545455 
L 292.043636 175.452419 
L 288.436364 177.533121 
L 286.071502 178.938182 
L 284.829091 179.708861 
L 281.221818 181.819544 
L 278.678043 183.330909 
L 277.614545 183.972704 
L 274.007273 186.105986 
L 271.284579 187.723636 
L 270.4 188.2492 
L 266.792727 190.392409 
L 263.891176 192.116364 
L 263.185455 192.535665 
L 259.578182 194.678874 
L 256.497714 196.509091 
L 255.970909 196.925459 
L 252.363636 198.423062 
L 248.756364 200.1701 
L 247.290218 200.901818 
L 245.149091 201.832912 
L 241.541818 202.726345 
L 237.934545 203.871279 
L 234.327273 205.016207 
L 233.450327 205.294545 
L 230.72 206.161135 
L 227.112727 207.306083 
L 223.505455 208.451011 
L 219.898182 209.595936 
L 219.61041 209.687273 
L 216.290909 210.740864 
L 212.683636 211.885811 
L 209.076364 213.030736 
L 205.770495 214.08 
L 205.469091 214.175664 
L 201.861818 215.320595 
L 198.254545 216.465526 
L 194.647273 217.610476 
L 191.930632 218.472727 
L 191.04 218.755409 
L 187.432727 219.900333 
L 183.825455 221.04526 
L 180.218182 222.190209 
L 178.090714 222.865455 
L 176.610909 223.335135 
L 173.003636 224.480063 
L 169.396364 225.62499 
L 165.789091 226.769915 
L 164.250758 227.258182 
L 162.181818 227.914865 
L 158.574545 229.059796 
L 154.967273 230.204726 
L 151.36 231.349659 
L 150.410883 231.650909 
L 147.752727 232.494606 
L 144.145455 233.639535 
L 140.538182 235.091216 
L 138.746032 236.043636 
L 136.930909 237.01977 
L 133.323636 238.959681 
L 130.577745 240.436364 
L 129.716364 240.899596 
L 126.109091 242.839507 
L 122.501818 244.779441 
L 122.409494 244.829091 
L 118.894545 246.719345 
L 115.287273 248.659248 
L 114.241166 249.221818 
L 111.68 250.599158 
L 108.072727 252.539075 
L 106.07288 253.614545 
L 104.465455 254.478984 
L 100.858182 256.418896 
L 97.904621 258.007273 
L 97.250909 258.358827 
L 93.643636 260.298729 
L 90.036364 262.238635 
L 89.736303 262.4 
L 86.429091 264.178536 
L 82.821818 266.118462 
L 81.568014 266.792727 
L 79.214545 268.058371 
L 75.607273 269.998284 
L 73.399725 271.185455 
L 72 271.999592 
L 72 275.578182 
L 72 279.970909 
L 72 284.363636 
L 72 288.756364 
L 72 293.149091 
L 72 297.138113 
L 72.970008 297.541818 
L 75.607273 298.639411 
L 79.214545 300.140692 
L 82.821818 301.641992 
L 83.524766 301.934545 
L 86.429091 303.143267 
L 90.036364 304.644553 
L 93.643636 306.145865 
L 94.079514 306.327273 
L 97.250909 307.647181 
L 100.858182 309.148453 
L 104.465455 310.649749 
L 104.634249 310.72 
L 108.072727 312.151058 
L 111.68 313.652325 
L 115.188985 315.112727 
L 115.287273 315.153634 
L 118.894545 316.654931 
L 122.501818 318.156199 
L 125.743768 319.505455 
L 126.109091 319.657497 
L 129.716364 321.158809 
L 133.323636 322.660089 
L 136.298457 323.898182 
L 136.930909 324.1614 
L 140.538182 325.66269 
L 144.145455 327.163966 
L 146.853222 328.290909 
L 147.752727 328.665273 
L 151.36 330.166578 
L 154.967273 331.667853 
L 157.407985 332.683636 
L 158.574545 333.169141 
L 162.181818 334.670438 
L 165.789091 336.17174 
L 167.962704 337.076364 
L 169.396364 337.673025 
L 173.003636 339.174323 
L 176.610909 340.675611 
L 178.517469 341.469091 
L 180.218182 342.176899 
L 183.825455 343.678196 
L 187.432727 345.179507 
L 189.072173 345.861818 
L 191.04 346.680782 
L 194.647273 348.182086 
L 198.254545 349.683365 
L 199.626963 350.254545 
L 201.861818 351.184664 
L 205.469091 352.685939 
L 209.076364 354.187255 
L 210.181667 354.647273 
L 212.683636 355.688569 
L 215.603115 354.647273 
L 216.290909 353.761072 
L 217.519129 350.254545 
L 219.057735 345.861818 
L 219.898182 343.462297 
L 220.596313 341.469091 
L 222.13497 337.076364 
L 223.505455 333.163562 
L 223.673548 332.683636 
L 225.212146 328.290909 
L 226.750721 323.898182 
L 227.112727 322.864654 
L 228.28933 319.505455 
L 229.827937 315.112727 
L 230.72 312.56588 
L 231.366531 310.72 
L 232.905136 306.327273 
L 234.327273 302.266993 
L 234.443715 301.934545 
L 235.98234 297.541818 
L 237.520934 293.149091 
L 237.934545 291.968207 
L 239.059496 288.756364 
L 240.598113 284.363636 
L 241.541818 281.669342 
L 242.136722 279.970909 
L 243.6753 275.578182 
L 245.149091 271.370522 
L 245.213913 271.185455 
L 246.752538 266.792727 
L 248.291133 262.4 
L 248.756364 261.071746 
L 249.82972 258.007273 
L 251.368328 253.614545 
L 252.363636 250.772906 
L 252.906919 249.221818 
L 254.445533 244.829091 
L 255.970909 240.474106 
L 255.984129 240.436364 
L 257.522716 236.043636 
L 259.06132 231.650909 
L 259.578182 230.175245 
L 260.599907 227.258182 
L 262.138506 222.865455 
L 263.185455 219.876404 
L 263.677103 218.472727 
L 265.21571 214.08 
L 266.754281 209.687273 
L 266.792727 209.57751 
L 268.292906 205.294545 
L 270.4 204.248253 
L 274.007273 203.128562 
L 277.614545 202.790981 
L 281.221818 202.464952 
L 284.829091 202.138904 
L 288.436364 201.812877 
L 292.043636 201.486827 
L 295.650909 201.160801 
L 298.516177 200.901818 
L 299.258182 200.834751 
L 302.865455 200.508724 
L 306.472727 200.182677 
L 310.08 199.856641 
L 313.687273 199.530598 
L 317.294545 199.204571 
L 320.901818 198.878526 
L 324.509091 198.552502 
L 328.116364 198.226459 
L 331.723636 197.900428 
L 335.330909 197.574384 
L 338.938182 197.248347 
L 342.545455 196.922307 
L 346.152727 196.596272 
L 347.117285 196.509091 
L 349.76 196.27023 
L 353.367273 195.944199 
L 356.974545 195.618164 
L 360.581818 195.292116 
L 362.605703 196.509091 
L 364.189091 198.58758 
L 365.731098 200.901818 
L 367.796364 204.001355 
L 368.658031 205.294545 
L 371.403636 209.415158 
L 371.58495 209.687273 
L 374.511913 214.08 
L 375.010909 214.828885 
L 377.438877 218.472727 
L 378.618182 220.24261 
L 380.365829 222.865455 
L 382.225455 227.241993 
L 382.232232 227.258182 
L 382.225455 227.26585 
L 378.618182 231.346901 
L 378.349464 231.650909 
L 375.010909 235.427898 
L 374.466652 236.043636 
L 371.403636 239.508938 
L 370.583869 240.436364 
L 367.796364 243.589981 
L 366.70112 244.829091 
L 364.189091 247.67105 
L 362.818345 249.221818 
L 360.581818 251.752089 
L 358.935559 253.614545 
L 356.974545 255.833104 
L 355.052764 258.007273 
L 353.367273 259.914115 
L 351.170002 262.4 
L 349.76 263.995202 
L 347.28723 266.792727 
L 346.152727 268.076228 
L 343.404447 271.185455 
L 342.545455 272.157266 
L 339.521698 275.578182 
L 338.938182 276.238334 
L 335.638902 279.970909 
L 335.330909 280.319355 
L 331.756108 284.363636 
L 331.723636 284.400372 
L 328.116364 288.48143 
L 327.873347 288.756364 
L 324.509091 292.562474 
L 323.990574 293.149091 
L 320.901818 296.643502 
L 320.107786 297.541818 
L 317.294545 300.724539 
L 316.225008 301.934545 
L 313.687273 304.80558 
L 312.342238 306.327273 
L 310.08 308.886623 
L 308.459454 310.72 
L 306.472727 312.967661 
L 304.576684 315.112727 
L 302.865455 317.048698 
L 300.693902 319.505455 
L 299.258182 321.129737 
L 296.811114 323.898182 
L 295.650909 325.210765 
L 292.928357 328.290909 
L 292.043636 329.29183 
L 289.045571 332.683636 
L 288.436364 333.372852 
L 285.162804 337.076364 
L 284.829091 337.453907 
L 281.280021 341.469091 
L 281.221818 341.534938 
L 277.614545 345.616016 
L 277.397278 345.861818 
L 274.007273 349.697006 
L 273.514457 350.254545 
L 270.4 353.778058 
L 269.631697 354.647273 
L 266.792727 357.859119 
L 265.748925 359.04 
L 263.185455 361.940106 
L 261.86612 363.432727 
L 259.578182 366.021165 
L 257.983346 367.825455 
L 255.970909 370.102208 
L 254.100592 372.218182 
L 252.363636 374.183263 
L 250.217808 376.610909 
L 248.756364 378.264289 
L 246.335015 381.003636 
L 245.149091 382.345314 
L 242.452241 385.396364 
L 241.541818 386.426363 
L 238.569445 389.789091 
L 237.934545 390.507379 
L 236.095715 394.181818 
L 235.10156 398.574545 
L 234.327273 402.203804 
L 234.164391 402.967273 
L 233.227214 407.36 
L 232.290054 411.752727 
L 231.352864 416.145455 
L 230.72 418.383051 
L 230.049627 420.538182 
L 228.057441 424.930909 
L 227.112727 427.014011 
L 226.065278 429.323636 
L 224.073103 433.716364 
L 223.505455 434.968018 
L 222.080923 438.109091 
L 220.088746 442.501818 
L 219.898182 442.92201 
L 218.096577 446.894545 
L 216.290909 450.876063 
L 216.10442 451.287273 
L 214.112243 455.68 
L 212.683636 458.830104 
L 212.048934 460.072727 
L 209.811055 464.465455 
L 209.076364 465.911521 
L 207.46169 468.858182 
L 205.469091 472.494543 
L 205.054631 473.250909 
L 202.64755 477.643636 
L 201.861818 479.077542 
L 200.240478 482.036364 
L 198.254545 485.66055 
L 197.833405 486.429091 
L 195.426329 490.821818 
L 194.647273 492.212816 
L 192.990517 495.214545 
L 191.04 498.528975 
L 190.408867 499.607273 
L 187.818281 504 
z
" style="fill:#a3c2fe;"/>
   </g>
   <g id="PathCollection_4">
    <path clip-path="url(#pea53432fbc)" d="M 75.607273 504 
L 79.214545 504 
L 82.821818 504 
L 86.429091 504 
L 90.036364 504 
L 93.643636 504 
L 97.250909 504 
L 100.858182 504 
L 104.465455 504 
L 108.072727 504 
L 111.68 504 
L 115.287273 504 
L 118.894545 504 
L 122.501818 504 
L 126.109091 504 
L 129.716364 504 
L 133.323636 504 
L 136.930909 504 
L 140.538182 504 
L 144.145455 504 
L 147.752727 504 
L 151.36 504 
L 154.967273 504 
L 158.574545 504 
L 162.181818 504 
L 165.789091 504 
L 169.396364 504 
L 173.003636 504 
L 176.610909 504 
L 180.218182 504 
L 183.825455 504 
L 187.432727 504 
L 187.818281 504 
L 190.408867 499.607273 
L 191.04 498.528975 
L 192.990517 495.214545 
L 194.647273 492.212816 
L 195.426329 490.821818 
L 197.833405 486.429091 
L 198.254545 485.66055 
L 200.240478 482.036364 
L 201.861818 479.077542 
L 202.64755 477.643636 
L 205.054631 473.250909 
L 205.469091 472.494543 
L 207.46169 468.858182 
L 209.076364 465.911521 
L 209.811055 464.465455 
L 212.048934 460.072727 
L 212.683636 458.830104 
L 214.112243 455.68 
L 216.10442 451.287273 
L 216.290909 450.876063 
L 218.096577 446.894545 
L 219.898182 442.92201 
L 220.088746 442.501818 
L 222.080923 438.109091 
L 223.505455 434.968018 
L 224.073103 433.716364 
L 226.065278 429.323636 
L 227.112727 427.014011 
L 228.057441 424.930909 
L 230.049627 420.538182 
L 230.72 418.383051 
L 231.352864 416.145455 
L 232.290054 411.752727 
L 233.227214 407.36 
L 234.164391 402.967273 
L 234.327273 402.203804 
L 235.10156 398.574545 
L 236.095715 394.181818 
L 237.934545 390.507379 
L 238.569445 389.789091 
L 241.541818 386.426363 
L 242.452241 385.396364 
L 245.149091 382.345314 
L 246.335015 381.003636 
L 248.756364 378.264289 
L 250.217808 376.610909 
L 252.363636 374.183263 
L 254.100592 372.218182 
L 255.970909 370.102208 
L 257.983346 367.825455 
L 259.578182 366.021165 
L 261.86612 363.432727 
L 263.185455 361.940106 
L 265.748925 359.04 
L 266.792727 357.859119 
L 269.631697 354.647273 
L 270.4 353.778058 
L 273.514457 350.254545 
L 274.007273 349.697006 
L 277.397278 345.861818 
L 277.614545 345.616016 
L 281.221818 341.534938 
L 281.280021 341.469091 
L 284.829091 337.453907 
L 285.162804 337.076364 
L 288.436364 333.372852 
L 289.045571 332.683636 
L 292.043636 329.29183 
L 292.928357 328.290909 
L 295.650909 325.210765 
L 296.811114 323.898182 
L 299.258182 321.129737 
L 300.693902 319.505455 
L 302.865455 317.048698 
L 304.576684 315.112727 
L 306.472727 312.967661 
L 308.459454 310.72 
L 310.08 308.886623 
L 312.342238 306.327273 
L 313.687273 304.80558 
L 316.225008 301.934545 
L 317.294545 300.724539 
L 320.107786 297.541818 
L 320.901818 296.643502 
L 323.990574 293.149091 
L 324.509091 292.562474 
L 327.873347 288.756364 
L 328.116364 288.48143 
L 331.723636 284.400372 
L 331.756108 284.363636 
L 335.330909 280.319355 
L 335.638902 279.970909 
L 338.938182 276.238334 
L 339.521698 275.578182 
L 342.545455 272.157266 
L 343.404447 271.185455 
L 346.152727 268.076228 
L 347.28723 266.792727 
L 349.76 263.995202 
L 351.170002 262.4 
L 353.367273 259.914115 
L 355.052764 258.007273 
L 356.974545 255.833104 
L 358.935559 253.614545 
L 360.581818 251.752089 
L 362.818345 249.221818 
L 364.189091 247.67105 
L 366.70112 244.829091 
L 367.796364 243.589981 
L 370.583869 240.436364 
L 371.403636 239.508938 
L 374.466652 236.043636 
L 375.010909 235.427898 
L 378.349464 231.650909 
L 378.618182 231.346901 
L 382.225455 227.26585 
L 382.232232 227.258182 
L 382.225455 227.241993 
L 380.365829 222.865455 
L 378.618182 220.24261 
L 377.438877 218.472727 
L 375.010909 214.828885 
L 374.511913 214.08 
L 371.58495 209.687273 
L 371.403636 209.415158 
L 368.658031 205.294545 
L 367.796364 204.001355 
L 365.731098 200.901818 
L 364.189091 198.58758 
L 362.605703 196.509091 
L 360.581818 195.292116 
L 356.974545 195.618164 
L 353.367273 195.944199 
L 349.76 196.27023 
L 347.117285 196.509091 
L 346.152727 196.596272 
L 342.545455 196.922307 
L 338.938182 197.248347 
L 335.330909 197.574384 
L 331.723636 197.900428 
L 328.116364 198.226459 
L 324.509091 198.552502 
L 320.901818 198.878526 
L 317.294545 199.204571 
L 313.687273 199.530598 
L 310.08 199.856641 
L 306.472727 200.182677 
L 302.865455 200.508724 
L 299.258182 200.834751 
L 298.516177 200.901818 
L 295.650909 201.160801 
L 292.043636 201.486827 
L 288.436364 201.812877 
L 284.829091 202.138904 
L 281.221818 202.464952 
L 277.614545 202.790981 
L 274.007273 203.128562 
L 270.4 204.248253 
L 268.292906 205.294545 
L 266.792727 209.57751 
L 266.754281 209.687273 
L 265.21571 214.08 
L 263.677103 218.472727 
L 263.185455 219.876404 
L 262.138506 222.865455 
L 260.599907 227.258182 
L 259.578182 230.175245 
L 259.06132 231.650909 
L 257.522716 236.043636 
L 255.984129 240.436364 
L 255.970909 240.474106 
L 254.445533 244.829091 
L 252.906919 249.221818 
L 252.363636 250.772906 
L 251.368328 253.614545 
L 249.82972 258.007273 
L 248.756364 261.071746 
L 248.291133 262.4 
L 246.752538 266.792727 
L 245.213913 271.185455 
L 245.149091 271.370522 
L 243.6753 275.578182 
L 242.136722 279.970909 
L 241.541818 281.669342 
L 240.598113 284.363636 
L 239.059496 288.756364 
L 237.934545 291.968207 
L 237.520934 293.149091 
L 235.98234 297.541818 
L 234.443715 301.934545 
L 234.327273 302.266993 
L 232.905136 306.327273 
L 231.366531 310.72 
L 230.72 312.56588 
L 229.827937 315.112727 
L 228.28933 319.505455 
L 227.112727 322.864654 
L 226.750721 323.898182 
L 225.212146 328.290909 
L 223.673548 332.683636 
L 223.505455 333.163562 
L 222.13497 337.076364 
L 220.596313 341.469091 
L 219.898182 343.462297 
L 219.057735 345.861818 
L 217.519129 350.254545 
L 216.290909 353.761072 
L 215.603115 354.647273 
L 212.683636 355.688569 
L 210.181667 354.647273 
L 209.076364 354.187255 
L 205.469091 352.685939 
L 201.861818 351.184664 
L 199.626963 350.254545 
L 198.254545 349.683365 
L 194.647273 348.182086 
L 191.04 346.680782 
L 189.072173 345.861818 
L 187.432727 345.179507 
L 183.825455 343.678196 
L 180.218182 342.176899 
L 178.517469 341.469091 
L 176.610909 340.675611 
L 173.003636 339.174323 
L 169.396364 337.673025 
L 167.962704 337.076364 
L 165.789091 336.17174 
L 162.181818 334.670438 
L 158.574545 333.169141 
L 157.407985 332.683636 
L 154.967273 331.667853 
L 151.36 330.166578 
L 147.752727 328.665273 
L 146.853222 328.290909 
L 144.145455 327.163966 
L 140.538182 325.66269 
L 136.930909 324.1614 
L 136.298457 323.898182 
L 133.323636 322.660089 
L 129.716364 321.158809 
L 126.109091 319.657497 
L 125.743768 319.505455 
L 122.501818 318.156199 
L 118.894545 316.654931 
L 115.287273 315.153634 
L 115.188985 315.112727 
L 111.68 313.652325 
L 108.072727 312.151058 
L 104.634249 310.72 
L 104.465455 310.649749 
L 100.858182 309.148453 
L 97.250909 307.647181 
L 94.079514 306.327273 
L 93.643636 306.145865 
L 90.036364 304.644553 
L 86.429091 303.143267 
L 83.524766 301.934545 
L 82.821818 301.641992 
L 79.214545 300.140692 
L 75.607273 298.639411 
L 72.970008 297.541818 
L 72 297.138113 
L 72 297.541818 
L 72 301.934545 
L 72 306.327273 
L 72 310.72 
L 72 315.112727 
L 72 319.505455 
L 72 323.898182 
L 72 328.290909 
L 72 332.683636 
L 72 337.076364 
L 72 341.469091 
L 72 345.861818 
L 72 350.254545 
L 72 354.647273 
L 72 359.04 
L 72 363.432727 
L 72 367.825455 
L 72 372.218182 
L 72 376.610909 
L 72 381.003636 
L 72 385.396364 
L 72 389.789091 
L 72 394.181818 
L 72 398.574545 
L 72 402.967273 
L 72 407.36 
L 72 411.752727 
L 72 416.145455 
L 72 420.538182 
L 72 424.930909 
L 72 429.323636 
L 72 433.716364 
L 72 438.109091 
L 72 442.501818 
L 72 446.894545 
L 72 451.287273 
L 72 455.68 
L 72 460.072727 
L 72 464.465455 
L 72 468.858182 
L 72 473.250909 
L 72 477.643636 
L 72 482.036364 
L 72 486.429091 
L 72 490.821818 
L 72 495.214545 
L 72 499.607273 
L 72 504 
z
" style="fill:#ccd9ed;"/>
    <path clip-path="url(#pea53432fbc)" d="M 73.399725 271.185455 
L 75.607273 269.998284 
L 79.214545 268.058371 
L 81.568014 266.792727 
L 82.821818 266.118462 
L 86.429091 264.178536 
L 89.736303 262.4 
L 90.036364 262.238635 
L 93.643636 260.298729 
L 97.250909 258.358827 
L 97.904621 258.007273 
L 100.858182 256.418896 
L 104.465455 254.478984 
L 106.07288 253.614545 
L 108.072727 252.539075 
L 111.68 250.599158 
L 114.241166 249.221818 
L 115.287273 248.659248 
L 118.894545 246.719345 
L 122.409494 244.829091 
L 122.501818 244.779441 
L 126.109091 242.839507 
L 129.716364 240.899596 
L 130.577745 240.436364 
L 133.323636 238.959681 
L 136.930909 237.01977 
L 138.746032 236.043636 
L 140.538182 235.091216 
L 144.145455 233.639535 
L 147.752727 232.494606 
L 150.410883 231.650909 
L 151.36 231.349659 
L 154.967273 230.204726 
L 158.574545 229.059796 
L 162.181818 227.914865 
L 164.250758 227.258182 
L 165.789091 226.769915 
L 169.396364 225.62499 
L 173.003636 224.480063 
L 176.610909 223.335135 
L 178.090714 222.865455 
L 180.218182 222.190209 
L 183.825455 221.04526 
L 187.432727 219.900333 
L 191.04 218.755409 
L 191.930632 218.472727 
L 194.647273 217.610476 
L 198.254545 216.465526 
L 201.861818 215.320595 
L 205.469091 214.175664 
L 205.770495 214.08 
L 209.076364 213.030736 
L 212.683636 211.885811 
L 216.290909 210.740864 
L 219.61041 209.687273 
L 219.898182 209.595936 
L 223.505455 208.451011 
L 227.112727 207.306083 
L 230.72 206.161135 
L 233.450327 205.294545 
L 234.327273 205.016207 
L 237.934545 203.871279 
L 241.541818 202.726345 
L 245.149091 201.832912 
L 247.290218 200.901818 
L 248.756364 200.1701 
L 252.363636 198.423062 
L 255.970909 196.925459 
L 256.497714 196.509091 
L 259.578182 194.678874 
L 263.185455 192.535665 
L 263.891176 192.116364 
L 266.792727 190.392409 
L 270.4 188.2492 
L 271.284579 187.723636 
L 274.007273 186.105986 
L 277.614545 183.972704 
L 278.678043 183.330909 
L 281.221818 181.819544 
L 284.829091 179.708861 
L 286.071502 178.938182 
L 288.436364 177.533121 
L 292.043636 175.452419 
L 293.510253 174.545455 
L 295.650909 173.294031 
L 299.258182 171.204012 
L 301.008341 170.152727 
L 302.865455 169.09988 
L 306.472727 166.964435 
L 308.542611 165.76 
L 310.08 164.917121 
L 313.687273 162.785802 
L 316.162672 161.367273 
L 317.294545 160.74672 
L 320.901818 158.651515 
L 323.82823 156.974545 
L 324.509091 156.589902 
L 328.116364 154.517248 
L 331.493749 152.581818 
L 331.723636 152.450079 
L 335.330909 150.382937 
L 338.938182 148.315799 
L 339.159292 148.189091 
L 342.545455 146.248649 
L 346.152727 144.181489 
L 346.824792 143.796364 
L 349.76 142.114351 
L 353.367273 140.047216 
L 354.490358 139.403636 
L 356.974545 137.980083 
L 360.581818 135.912953 
L 362.155915 135.010909 
L 364.189091 133.845776 
L 367.796364 131.778631 
L 369.821391 130.618182 
L 371.403636 129.71148 
L 375.010909 127.644324 
L 377.486955 126.225455 
L 378.618182 125.577219 
L 382.225455 123.510054 
L 385.152506 121.832727 
L 385.832727 121.442931 
L 389.44 119.375795 
L 392.818034 117.44 
L 393.047273 117.308633 
L 396.654545 115.241483 
L 400.261818 113.174336 
L 400.483548 113.047273 
L 403.869091 111.107194 
L 407.476364 109.040039 
L 408.149081 108.654545 
L 411.083636 106.972912 
L 414.690909 104.905765 
L 415.81463 104.261818 
L 418.298182 102.838608 
L 421.905455 100.771458 
L 423.480114 99.869091 
L 425.512727 98.704298 
L 429.12 96.554713 
L 429.12 95.476364 
L 429.12 91.083636 
L 429.12 86.690909 
L 429.12 82.298182 
L 429.12 77.905455 
L 429.12 73.512727 
L 429.12 69.12 
L 425.512727 69.12 
L 421.905455 69.12 
L 418.298182 69.12 
L 414.690909 69.12 
L 411.083636 69.12 
L 407.476364 69.12 
L 403.869091 69.12 
L 400.261818 69.12 
L 396.654545 69.12 
L 393.047273 69.12 
L 389.44 69.12 
L 385.832727 69.12 
L 383.563683 69.12 
L 382.225455 69.91509 
L 378.618182 72.058327 
L 376.170216 73.512727 
L 375.010909 74.201502 
L 371.403636 76.344739 
L 368.776768 77.905455 
L 367.796364 78.487954 
L 364.189091 80.631176 
L 361.3834 82.298182 
L 360.581818 82.774438 
L 356.974545 84.917668 
L 353.989953 86.690909 
L 353.367273 87.06086 
L 349.76 89.204088 
L 346.596475 91.083636 
L 346.152727 91.347284 
L 342.545455 93.490535 
L 339.20307 95.476364 
L 338.938182 95.633743 
L 335.330909 97.776953 
L 331.809579 99.869091 
L 331.723636 99.920153 
L 328.116364 102.063388 
L 324.509091 104.206627 
L 324.416198 104.261818 
L 320.901818 106.349846 
L 317.294545 108.493055 
L 317.02274 108.654545 
L 313.687273 110.636266 
L 310.08 112.779506 
L 309.629315 113.047273 
L 306.472727 114.922721 
L 302.865455 117.065947 
L 302.235886 117.44 
L 299.258182 119.209158 
L 295.650909 121.352394 
L 294.842454 121.832727 
L 292.043636 123.495606 
L 288.436364 125.638799 
L 287.448952 126.225455 
L 284.829091 127.782008 
L 281.221818 129.925215 
L 280.055489 130.618182 
L 277.614545 132.068467 
L 274.007273 134.211693 
L 272.662114 135.010909 
L 270.4 136.354913 
L 266.792727 138.49811 
L 265.268622 139.403636 
L 263.185455 140.641321 
L 259.578182 142.784561 
L 257.875195 143.796364 
L 255.970909 144.927767 
L 252.363636 147.070974 
L 250.481716 148.189091 
L 248.756364 149.214194 
L 245.149091 151.357442 
L 243.088337 152.581818 
L 241.541818 153.500661 
L 237.934545 155.643864 
L 235.694852 156.974545 
L 234.327273 157.787076 
L 230.72 159.930318 
L 228.301451 161.367273 
L 227.112727 162.073539 
L 223.505455 164.216756 
L 220.908011 165.76 
L 219.898182 166.359976 
L 216.290909 168.50318 
L 213.514561 170.152727 
L 212.683636 170.646416 
L 209.076364 172.789626 
L 206.121086 174.545455 
L 205.469091 174.932828 
L 201.861818 177.076056 
L 198.727646 178.938182 
L 198.254545 179.219267 
L 194.647273 181.36251 
L 191.334219 183.330909 
L 191.04 183.505714 
L 187.432727 185.648918 
L 183.940718 187.723636 
L 183.825455 187.792119 
L 180.218182 189.935376 
L 176.610909 192.07859 
L 176.547332 192.116364 
L 173.003636 194.2218 
L 169.396364 196.365004 
L 169.153847 196.509091 
L 165.789091 198.508223 
L 162.181818 200.651477 
L 161.760468 200.901818 
L 158.574545 202.117317 
L 154.967273 203.539256 
L 151.36 205.01223 
L 150.683103 205.294545 
L 147.752727 206.224643 
L 144.145455 207.369574 
L 140.538182 208.5145 
L 136.930909 209.659425 
L 136.84317 209.687273 
L 133.323636 210.804355 
L 129.716364 211.949884 
L 126.109091 213.653997 
L 125.316933 214.08 
L 122.501818 215.593906 
L 118.894545 217.533819 
L 117.148662 218.472727 
L 115.287273 219.473749 
L 111.68 221.413653 
L 108.980357 222.865455 
L 108.072727 223.353555 
L 104.465455 225.293458 
L 100.858182 227.233358 
L 100.812022 227.258182 
L 97.250909 229.173296 
L 93.643636 231.113205 
L 92.643774 231.650909 
L 90.036364 233.053112 
L 86.429091 234.993015 
L 84.475465 236.043636 
L 82.821818 236.932937 
L 79.214545 238.872842 
L 76.307194 240.436364 
L 75.607273 240.81277 
L 72 242.75268 
L 72 244.829091 
L 72 249.221818 
L 72 253.614545 
L 72 258.007273 
L 72 262.4 
L 72 266.792727 
L 72 271.185455 
L 72 271.999592 
z
" style="fill:#ccd9ed;"/>
   </g>
   <g id="PathCollection_5">
    <path clip-path="url(#pea53432fbc)" d="M 75.607273 240.81277 
L 76.307194 240.436364 
L 79.214545 238.872842 
L 82.821818 236.932937 
L 84.475465 236.043636 
L 86.429091 234.993015 
L 90.036364 233.053112 
L 92.643774 231.650909 
L 93.643636 231.113205 
L 97.250909 229.173296 
L 100.812022 227.258182 
L 100.858182 227.233358 
L 104.465455 225.293458 
L 108.072727 223.353555 
L 108.980357 222.865455 
L 111.68 221.413653 
L 115.287273 219.473749 
L 117.148662 218.472727 
L 118.894545 217.533819 
L 122.501818 215.593906 
L 125.316933 214.08 
L 126.109091 213.653997 
L 129.716364 211.949884 
L 133.323636 210.804355 
L 136.84317 209.687273 
L 136.930909 209.659425 
L 140.538182 208.5145 
L 144.145455 207.369574 
L 147.752727 206.224643 
L 150.683103 205.294545 
L 151.36 205.01223 
L 154.967273 203.539256 
L 158.574545 202.117317 
L 161.760468 200.901818 
L 162.181818 200.651477 
L 165.789091 198.508223 
L 169.153847 196.509091 
L 169.396364 196.365004 
L 173.003636 194.2218 
L 176.547332 192.116364 
L 176.610909 192.07859 
L 180.218182 189.935376 
L 183.825455 187.792119 
L 183.940718 187.723636 
L 187.432727 185.648918 
L 191.04 183.505714 
L 191.334219 183.330909 
L 194.647273 181.36251 
L 198.254545 179.219267 
L 198.727646 178.938182 
L 201.861818 177.076056 
L 205.469091 174.932828 
L 206.121086 174.545455 
L 209.076364 172.789626 
L 212.683636 170.646416 
L 213.514561 170.152727 
L 216.290909 168.50318 
L 219.898182 166.359976 
L 220.908011 165.76 
L 223.505455 164.216756 
L 227.112727 162.073539 
L 228.301451 161.367273 
L 230.72 159.930318 
L 234.327273 157.787076 
L 235.694852 156.974545 
L 237.934545 155.643864 
L 241.541818 153.500661 
L 243.088337 152.581818 
L 245.149091 151.357442 
L 248.756364 149.214194 
L 250.481716 148.189091 
L 252.363636 147.070974 
L 255.970909 144.927767 
L 257.875195 143.796364 
L 259.578182 142.784561 
L 263.185455 140.641321 
L 265.268622 139.403636 
L 266.792727 138.49811 
L 270.4 136.354913 
L 272.662114 135.010909 
L 274.007273 134.211693 
L 277.614545 132.068467 
L 280.055489 130.618182 
L 281.221818 129.925215 
L 284.829091 127.782008 
L 287.448952 126.225455 
L 288.436364 125.638799 
L 292.043636 123.495606 
L 294.842454 121.832727 
L 295.650909 121.352394 
L 299.258182 119.209158 
L 302.235886 117.44 
L 302.865455 117.065947 
L 306.472727 114.922721 
L 309.629315 113.047273 
L 310.08 112.779506 
L 313.687273 110.636266 
L 317.02274 108.654545 
L 317.294545 108.493055 
L 320.901818 106.349846 
L 324.416198 104.261818 
L 324.509091 104.206627 
L 328.116364 102.063388 
L 331.723636 99.920153 
L 331.809579 99.869091 
L 335.330909 97.776953 
L 338.938182 95.633743 
L 339.20307 95.476364 
L 342.545455 93.490535 
L 346.152727 91.347284 
L 346.596475 91.083636 
L 349.76 89.204088 
L 353.367273 87.06086 
L 353.989953 86.690909 
L 356.974545 84.917668 
L 360.581818 82.774438 
L 361.3834 82.298182 
L 364.189091 80.631176 
L 367.796364 78.487954 
L 368.776768 77.905455 
L 371.403636 76.344739 
L 375.010909 74.201502 
L 376.170216 73.512727 
L 378.618182 72.058327 
L 382.225455 69.91509 
L 383.563683 69.12 
L 382.225455 69.12 
L 378.618182 69.12 
L 375.010909 69.12 
L 371.403636 69.12 
L 367.796364 69.12 
L 364.189091 69.12 
L 360.581818 69.12 
L 356.974545 69.12 
L 353.367273 69.12 
L 349.76 69.12 
L 346.152727 69.12 
L 342.545455 69.12 
L 338.938182 69.12 
L 335.330909 69.12 
L 331.723636 69.12 
L 328.116364 69.12 
L 324.509091 69.12 
L 320.901818 69.12 
L 317.294545 69.12 
L 313.687273 69.12 
L 310.08 69.12 
L 306.472727 69.12 
L 302.865455 69.12 
L 300.241826 69.12 
L 299.258182 69.660733 
L 295.650909 71.64376 
L 292.251081 73.512727 
L 292.043636 73.626764 
L 288.436364 75.60977 
L 284.829091 77.592772 
L 284.260291 77.905455 
L 281.221818 79.575795 
L 277.614545 81.558836 
L 276.269624 82.298182 
L 274.007273 83.54186 
L 270.4 85.524876 
L 268.278886 86.690909 
L 266.792727 87.537452 
L 263.185455 89.490908 
L 260.28812 91.083636 
L 259.578182 91.523914 
L 255.970909 93.542681 
L 252.363636 95.439922 
L 252.297345 95.476364 
L 248.756364 97.672226 
L 245.149091 99.547754 
L 244.537743 99.869091 
L 241.541818 101.750562 
L 237.934545 103.820384 
L 237.072351 104.261818 
L 234.327273 105.892768 
L 230.72 108.069624 
L 229.678915 108.654545 
L 227.112727 110.179226 
L 223.505455 112.322423 
L 222.285448 113.047273 
L 219.898182 114.46565 
L 216.290909 116.608876 
L 214.89205 117.44 
L 212.683636 118.752109 
L 209.076364 120.895325 
L 207.498605 121.832727 
L 205.469091 123.038528 
L 201.861818 125.181735 
L 200.105115 126.225455 
L 198.254545 127.324942 
L 194.647273 129.468173 
L 192.711666 130.618182 
L 191.04 131.611388 
L 187.432727 133.75461 
L 185.318243 135.010909 
L 183.825455 135.897823 
L 180.218182 138.041072 
L 177.924814 139.403636 
L 176.610909 140.184271 
L 173.003636 142.327486 
L 170.531338 143.796364 
L 169.396364 144.470695 
L 165.789091 146.613912 
L 163.137902 148.189091 
L 162.181818 148.757143 
L 158.574545 150.900374 
L 155.744487 152.581818 
L 154.967273 153.043587 
L 151.36 155.186803 
L 148.351048 156.974545 
L 147.752727 157.330034 
L 144.145455 159.473252 
L 140.957589 161.367273 
L 140.538182 161.616457 
L 136.930909 163.759686 
L 133.564159 165.76 
L 133.323636 165.902903 
L 129.716364 168.046145 
L 126.170731 170.152727 
L 126.109091 170.18935 
L 122.501818 172.332555 
L 118.894545 174.475754 
L 118.777233 174.545455 
L 115.287273 176.619005 
L 111.68 178.762219 
L 111.390899 178.938182 
L 108.072727 181.072084 
L 104.944838 183.330909 
L 104.465455 183.677098 
L 100.858182 186.282092 
L 98.86203 187.723636 
L 97.250909 188.887136 
L 93.643636 191.492155 
L 92.779267 192.116364 
L 90.036364 194.097162 
L 86.696462 196.509091 
L 86.429091 196.702175 
L 82.821818 199.307224 
L 80.613734 200.901818 
L 79.214545 201.912256 
L 75.607273 204.517272 
L 74.530955 205.294545 
L 72 207.122281 
L 72 209.687273 
L 72 214.08 
L 72 218.472727 
L 72 222.865455 
L 72 227.258182 
L 72 231.650909 
L 72 236.043636 
L 72 240.436364 
L 72 242.75268 
z
" style="fill:#ecd3c5;"/>
   </g>
   <g id="PathCollection_6">
    <path clip-path="url(#pea53432fbc)" d="M 74.530955 205.294545 
L 75.607273 204.517272 
L 79.214545 201.912256 
L 80.613734 200.901818 
L 82.821818 199.307224 
L 86.429091 196.702175 
L 86.696462 196.509091 
L 90.036364 194.097162 
L 92.779267 192.116364 
L 93.643636 191.492155 
L 97.250909 188.887136 
L 98.86203 187.723636 
L 100.858182 186.282092 
L 104.465455 183.677098 
L 104.944838 183.330909 
L 108.072727 181.072084 
L 111.390899 178.938182 
L 111.68 178.762219 
L 115.287273 176.619005 
L 118.777233 174.545455 
L 118.894545 174.475754 
L 122.501818 172.332555 
L 126.109091 170.18935 
L 126.170731 170.152727 
L 129.716364 168.046145 
L 133.323636 165.902903 
L 133.564159 165.76 
L 136.930909 163.759686 
L 140.538182 161.616457 
L 140.957589 161.367273 
L 144.145455 159.473252 
L 147.752727 157.330034 
L 148.351048 156.974545 
L 151.36 155.186803 
L 154.967273 153.043587 
L 155.744487 152.581818 
L 158.574545 150.900374 
L 162.181818 148.757143 
L 163.137902 148.189091 
L 165.789091 146.613912 
L 169.396364 144.470695 
L 170.531338 143.796364 
L 173.003636 142.327486 
L 176.610909 140.184271 
L 177.924814 139.403636 
L 180.218182 138.041072 
L 183.825455 135.897823 
L 185.318243 135.010909 
L 187.432727 133.75461 
L 191.04 131.611388 
L 192.711666 130.618182 
L 194.647273 129.468173 
L 198.254545 127.324942 
L 200.105115 126.225455 
L 201.861818 125.181735 
L 205.469091 123.038528 
L 207.498605 121.832727 
L 209.076364 120.895325 
L 212.683636 118.752109 
L 214.89205 117.44 
L 216.290909 116.608876 
L 219.898182 114.46565 
L 222.285448 113.047273 
L 223.505455 112.322423 
L 227.112727 110.179226 
L 229.678915 108.654545 
L 230.72 108.069624 
L 234.327273 105.892768 
L 237.072351 104.261818 
L 237.934545 103.820384 
L 241.541818 101.750562 
L 244.537743 99.869091 
L 245.149091 99.547754 
L 248.756364 97.672226 
L 252.297345 95.476364 
L 252.363636 95.439922 
L 255.970909 93.542681 
L 259.578182 91.523914 
L 260.28812 91.083636 
L 263.185455 89.490908 
L 266.792727 87.537452 
L 268.278886 86.690909 
L 270.4 85.524876 
L 274.007273 83.54186 
L 276.269624 82.298182 
L 277.614545 81.558836 
L 281.221818 79.575795 
L 284.260291 77.905455 
L 284.829091 77.592772 
L 288.436364 75.60977 
L 292.043636 73.626764 
L 292.251081 73.512727 
L 295.650909 71.64376 
L 299.258182 69.660733 
L 300.241826 69.12 
L 299.258182 69.12 
L 295.650909 69.12 
L 292.043636 69.12 
L 288.436364 69.12 
L 284.829091 69.12 
L 281.221818 69.12 
L 277.614545 69.12 
L 274.007273 69.12 
L 270.4 69.12 
L 266.792727 69.12 
L 263.185455 69.12 
L 259.578182 69.12 
L 255.970909 69.12 
L 252.363636 69.12 
L 248.756364 69.12 
L 245.149091 69.12 
L 241.541818 69.12 
L 237.934545 69.12 
L 234.327273 69.12 
L 230.72 69.12 
L 227.784338 69.12 
L 227.112727 69.489662 
L 223.505455 71.475166 
L 219.898182 73.460647 
L 219.803563 73.512727 
L 216.290909 75.446141 
L 212.683636 77.43165 
L 211.82282 77.905455 
L 209.076364 79.417155 
L 205.469091 81.402668 
L 203.842114 82.298182 
L 201.861818 83.388168 
L 198.254545 85.373667 
L 195.861412 86.690909 
L 194.647273 87.359201 
L 191.04 89.344684 
L 187.88063 91.083636 
L 187.432727 91.330167 
L 183.825455 93.315655 
L 180.218182 95.301172 
L 179.899892 95.476364 
L 176.610909 97.286666 
L 173.003636 99.272158 
L 171.919113 99.869091 
L 169.396364 101.257649 
L 165.789091 103.243145 
L 163.938398 104.261818 
L 162.181818 105.228683 
L 158.574545 107.214179 
L 155.957664 108.654545 
L 154.967273 109.199668 
L 151.36 111.185166 
L 147.976937 113.047273 
L 147.752727 113.170682 
L 144.145455 115.156183 
L 140.538182 117.141676 
L 139.996184 117.44 
L 136.930909 119.12717 
L 133.323636 121.108535 
L 132.015418 121.832727 
L 129.716364 123.098164 
L 126.109091 124.975295 
L 123.591022 126.225455 
L 122.501818 126.762074 
L 118.894545 128.537995 
L 115.287273 130.304768 
L 114.647368 130.618182 
L 111.68 132.071557 
L 108.072727 133.838303 
L 105.678612 135.010909 
L 104.465455 135.605091 
L 100.858182 137.371835 
L 97.250909 139.138617 
L 96.709807 139.403636 
L 93.643636 140.905378 
L 90.036364 142.672119 
L 87.845462 143.796364 
L 86.429091 144.556098 
L 82.821818 146.675605 
L 80.245936 148.189091 
L 79.214545 148.795101 
L 75.607273 150.914608 
L 72.769765 152.581818 
L 72 153.034098 
L 72 156.974545 
L 72 161.367273 
L 72 165.76 
L 72 170.152727 
L 72 174.545455 
L 72 178.938182 
L 72 183.330909 
L 72 187.723636 
L 72 192.116364 
L 72 196.509091 
L 72 200.901818 
L 72 205.294545 
L 72 207.122281 
z
" style="fill:#f7b093;"/>
   </g>
   <g id="PathCollection_7">
    <path clip-path="url(#pea53432fbc)" d="M 72.769765 152.581818 
L 75.607273 150.914608 
L 79.214545 148.795101 
L 80.245936 148.189091 
L 82.821818 146.675605 
L 86.429091 144.556098 
L 87.845462 143.796364 
L 90.036364 142.672119 
L 93.643636 140.905378 
L 96.709807 139.403636 
L 97.250909 139.138617 
L 100.858182 137.371835 
L 104.465455 135.605091 
L 105.678612 135.010909 
L 108.072727 133.838303 
L 111.68 132.071557 
L 114.647368 130.618182 
L 115.287273 130.304768 
L 118.894545 128.537995 
L 122.501818 126.762074 
L 123.591022 126.225455 
L 126.109091 124.975295 
L 129.716364 123.098164 
L 132.015418 121.832727 
L 133.323636 121.108535 
L 136.930909 119.12717 
L 139.996184 117.44 
L 140.538182 117.141676 
L 144.145455 115.156183 
L 147.752727 113.170682 
L 147.976937 113.047273 
L 151.36 111.185166 
L 154.967273 109.199668 
L 155.957664 108.654545 
L 158.574545 107.214179 
L 162.181818 105.228683 
L 163.938398 104.261818 
L 165.789091 103.243145 
L 169.396364 101.257649 
L 171.919113 99.869091 
L 173.003636 99.272158 
L 176.610909 97.286666 
L 179.899892 95.476364 
L 180.218182 95.301172 
L 183.825455 93.315655 
L 187.432727 91.330167 
L 187.88063 91.083636 
L 191.04 89.344684 
L 194.647273 87.359201 
L 195.861412 86.690909 
L 198.254545 85.373667 
L 201.861818 83.388168 
L 203.842114 82.298182 
L 205.469091 81.402668 
L 209.076364 79.417155 
L 211.82282 77.905455 
L 212.683636 77.43165 
L 216.290909 75.446141 
L 219.803563 73.512727 
L 219.898182 73.460647 
L 223.505455 71.475166 
L 227.112727 69.489662 
L 227.784338 69.12 
L 227.112727 69.12 
L 223.505455 69.12 
L 219.898182 69.12 
L 216.290909 69.12 
L 212.683636 69.12 
L 209.076364 69.12 
L 205.469091 69.12 
L 201.861818 69.12 
L 198.254545 69.12 
L 194.647273 69.12 
L 191.04 69.12 
L 187.432727 69.12 
L 183.825455 69.12 
L 180.218182 69.12 
L 176.610909 69.12 
L 173.003636 69.12 
L 169.396364 69.12 
L 165.789091 69.12 
L 162.181818 69.12 
L 158.574545 69.12 
L 154.967273 69.12 
L 151.36 69.12 
L 149.443335 69.12 
L 147.752727 69.948022 
L 144.145455 71.714764 
L 140.538182 73.481545 
L 140.474515 73.512727 
L 136.930909 75.248315 
L 133.323636 77.015047 
L 131.505652 77.905455 
L 129.716364 78.781817 
L 126.109091 80.548582 
L 122.536876 82.298182 
L 122.501818 82.315353 
L 118.894545 84.082152 
L 115.287273 85.848927 
L 113.568166 86.690909 
L 111.68 87.615675 
L 108.072727 89.382428 
L 104.599322 91.083636 
L 104.465455 91.149202 
L 100.858182 92.915938 
L 97.250909 94.682704 
L 95.630441 95.476364 
L 93.643636 96.449444 
L 90.036364 98.216227 
L 86.661681 99.869091 
L 86.429091 99.983009 
L 82.821818 101.749747 
L 79.214545 103.516508 
L 77.692821 104.261818 
L 75.607273 105.283286 
L 72 107.050056 
L 72 108.654545 
L 72 113.047273 
L 72 117.44 
L 72 121.832727 
L 72 126.225455 
L 72 130.618182 
L 72 135.010909 
L 72 139.403636 
L 72 143.796364 
L 72 148.189091 
L 72 152.581818 
L 72 153.034098 
z
" style="fill:#eb7d62;"/>
   </g>
   <g id="PathCollection_8">
    <path clip-path="url(#pea53432fbc)" d="M 75.607273 105.283286 
L 77.692821 104.261818 
L 79.214545 103.516508 
L 82.821818 101.749747 
L 86.429091 99.983009 
L 86.661681 99.869091 
L 90.036364 98.216227 
L 93.643636 96.449444 
L 95.630441 95.476364 
L 97.250909 94.682704 
L 100.858182 92.915938 
L 104.465455 91.149202 
L 104.599322 91.083636 
L 108.072727 89.382428 
L 111.68 87.615675 
L 113.568166 86.690909 
L 115.287273 85.848927 
L 118.894545 84.082152 
L 122.501818 82.315353 
L 122.536876 82.298182 
L 126.109091 80.548582 
L 129.716364 78.781817 
L 131.505652 77.905455 
L 133.323636 77.015047 
L 136.930909 75.248315 
L 140.474515 73.512727 
L 140.538182 73.481545 
L 144.145455 71.714764 
L 147.752727 69.948022 
L 149.443335 69.12 
L 147.752727 69.12 
L 144.145455 69.12 
L 140.538182 69.12 
L 136.930909 69.12 
L 133.323636 69.12 
L 129.716364 69.12 
L 126.109091 69.12 
L 122.501818 69.12 
L 118.894545 69.12 
L 115.287273 69.12 
L 111.68 69.12 
L 108.072727 69.12 
L 104.465455 69.12 
L 100.858182 69.12 
L 97.250909 69.12 
L 93.643636 69.12 
L 90.036364 69.12 
L 86.429091 69.12 
L 82.821818 69.12 
L 79.214545 69.12 
L 75.607273 69.12 
L 72 69.12 
L 72 73.512727 
L 72 77.905455 
L 72 82.298182 
L 72 86.690909 
L 72 91.083636 
L 72 95.476364 
L 72 99.869091 
L 72 104.261818 
L 72 107.050056 
z
" style="fill:#ca3b37;"/>
   </g>
   <g id="matplotlib.axis_1">
    <g id="xtick_1">
     <g id="line2d_1">
      <defs>
       <path d="M 0 0 
L 0 3.5 
" id="m20ac2f023e" style="stroke:#000000;stroke-width:0.8;"/>
      </defs>
      <g>
       <use style="stroke:#000000;stroke-width:0.8;" x="72" xlink:href="#m20ac2f023e" y="504"/>
      </g>
     </g>
     <g id="text_1">
      <!-- −0.50 -->
      <defs>
       <path d="M 10.59375 35.5 
L 73.1875 35.5 
L 73.1875 27.203125 
L 10.59375 27.203125 
z
" id="DejaVuSans-2212"/>
       <path d="M 31.78125 66.40625 
Q 24.171875 66.40625 20.328125 58.90625 
Q 16.5 51.421875 16.5 36.375 
Q 16.5 21.390625 20.328125 13.890625 
Q 24.171875 6.390625 31.78125 6.390625 
Q 39.453125 6.390625 43.28125 13.890625 
Q 47.125 21.390625 47.125 36.375 
Q 47.125 51.421875 43.28125 58.90625 
Q 39.453125 66.40625 31.78125 66.40625 
z
M 31.78125 74.21875 
Q 44.046875 74.21875 50.515625 64.515625 
Q 56.984375 54.828125 56.984375 36.375 
Q 56.984375 17.96875 50.515625 8.265625 
Q 44.046875 -1.421875 31.78125 -1.421875 
Q 19.53125 -1.421875 13.0625 8.265625 
Q 6.59375 17.96875 6.59375 36.375 
Q 6.59375 54.828125 13.0625 64.515625 
Q 19.53125 74.21875 31.78125 74.21875 
z
" id="DejaVuSans-30"/>
       <path d="M 10.6875 12.40625 
L 21 12.40625 
L 21 0 
L 10.6875 0 
z
" id="DejaVuSans-2e"/>
       <path d="M 10.796875 72.90625 
L 49.515625 72.90625 
L 49.515625 64.59375 
L 19.828125 64.59375 
L 19.828125 46.734375 
Q 21.96875 47.46875 24.109375 47.828125 
Q 26.265625 48.1875 28.421875 48.1875 
Q 40.625 48.1875 47.75 41.5 
Q 54.890625 34.8125 54.890625 23.390625 
Q 54.890625 11.625 47.5625 5.09375 
Q 40.234375 -1.421875 26.90625 -1.421875 
Q 22.3125 -1.421875 17.546875 -0.640625 
Q 12.796875 0.140625 7.71875 1.703125 
L 7.71875 11.625 
Q 12.109375 9.234375 16.796875 8.0625 
Q 21.484375 6.890625 26.703125 6.890625 
Q 35.15625 6.890625 40.078125 11.328125 
Q 45.015625 15.765625 45.015625 23.390625 
Q 45.015625 31 40.078125 35.4375 
Q 35.15625 39.890625 26.703125 39.890625 
Q 22.75 39.890625 18.8125 39.015625 
Q 14.890625 38.140625 10.796875 36.28125 
z
" id="DejaVuSans-35"/>
      </defs>
      <g transform="translate(56.677344 518.598438)scale(0.1 -0.1)">
       <use xlink:href="#DejaVuSans-2212"/>
       <use x="83.789062" xlink:href="#DejaVuSans-30"/>
       <use x="147.412109" xlink:href="#DejaVuSans-2e"/>
       <use x="179.199219" xlink:href="#DejaVuSans-35"/>
       <use x="242.822266" xlink:href="#DejaVuSans-30"/>
      </g>
     </g>
    </g>
    <g id="xtick_2">
     <g id="line2d_2">
      <g>
       <use style="stroke:#000000;stroke-width:0.8;" x="116.64" xlink:href="#m20ac2f023e" y="504"/>
      </g>
     </g>
     <g id="text_2">
      <!-- −0.25 -->
      <defs>
       <path d="M 19.1875 8.296875 
L 53.609375 8.296875 
L 53.609375 0 
L 7.328125 0 
L 7.328125 8.296875 
Q 12.9375 14.109375 22.625 23.890625 
Q 32.328125 33.6875 34.8125 36.53125 
Q 39.546875 41.84375 41.421875 45.53125 
Q 43.3125 49.21875 43.3125 52.78125 
Q 43.3125 58.59375 39.234375 62.25 
Q 35.15625 65.921875 28.609375 65.921875 
Q 23.96875 65.921875 18.8125 64.3125 
Q 13.671875 62.703125 7.8125 59.421875 
L 7.8125 69.390625 
Q 13.765625 71.78125 18.9375 73 
Q 24.125 74.21875 28.421875 74.21875 
Q 39.75 74.21875 46.484375 68.546875 
Q 53.21875 62.890625 53.21875 53.421875 
Q 53.21875 48.921875 51.53125 44.890625 
Q 49.859375 40.875 45.40625 35.40625 
Q 44.1875 33.984375 37.640625 27.21875 
Q 31.109375 20.453125 19.1875 8.296875 
z
" id="DejaVuSans-32"/>
      </defs>
      <g transform="translate(101.317344 518.598438)scale(0.1 -0.1)">
       <use xlink:href="#DejaVuSans-2212"/>
       <use x="83.789062" xlink:href="#DejaVuSans-30"/>
       <use x="147.412109" xlink:href="#DejaVuSans-2e"/>
       <use x="179.199219" xlink:href="#DejaVuSans-32"/>
       <use x="242.822266" xlink:href="#DejaVuSans-35"/>
      </g>
     </g>
    </g>
    <g id="xtick_3">
     <g id="line2d_3">
      <g>
       <use style="stroke:#000000;stroke-width:0.8;" x="161.28" xlink:href="#m20ac2f023e" y="504"/>
      </g>
     </g>
     <g id="text_3">
      <!-- 0.00 -->
      <g transform="translate(150.147188 518.598438)scale(0.1 -0.1)">
       <use xlink:href="#DejaVuSans-30"/>
       <use x="63.623047" xlink:href="#DejaVuSans-2e"/>
       <use x="95.410156" xlink:href="#DejaVuSans-30"/>
       <use x="159.033203" xlink:href="#DejaVuSans-30"/>
      </g>
     </g>
    </g>
    <g id="xtick_4">
     <g id="line2d_4">
      <g>
       <use style="stroke:#000000;stroke-width:0.8;" x="205.92" xlink:href="#m20ac2f023e" y="504"/>
      </g>
     </g>
     <g id="text_4">
      <!-- 0.25 -->
      <g transform="translate(194.787188 518.598438)scale(0.1 -0.1)">
       <use xlink:href="#DejaVuSans-30"/>
       <use x="63.623047" xlink:href="#DejaVuSans-2e"/>
       <use x="95.410156" xlink:href="#DejaVuSans-32"/>
       <use x="159.033203" xlink:href="#DejaVuSans-35"/>
      </g>
     </g>
    </g>
    <g id="xtick_5">
     <g id="line2d_5">
      <g>
       <use style="stroke:#000000;stroke-width:0.8;" x="250.56" xlink:href="#m20ac2f023e" y="504"/>
      </g>
     </g>
     <g id="text_5">
      <!-- 0.50 -->
      <g transform="translate(239.427188 518.598438)scale(0.1 -0.1)">
       <use xlink:href="#DejaVuSans-30"/>
       <use x="63.623047" xlink:href="#DejaVuSans-2e"/>
       <use x="95.410156" xlink:href="#DejaVuSans-35"/>
       <use x="159.033203" xlink:href="#DejaVuSans-30"/>
      </g>
     </g>
    </g>
    <g id="xtick_6">
     <g id="line2d_6">
      <g>
       <use style="stroke:#000000;stroke-width:0.8;" x="295.2" xlink:href="#m20ac2f023e" y="504"/>
      </g>
     </g>
     <g id="text_6">
      <!-- 0.75 -->
      <defs>
       <path d="M 8.203125 72.90625 
L 55.078125 72.90625 
L 55.078125 68.703125 
L 28.609375 0 
L 18.3125 0 
L 43.21875 64.59375 
L 8.203125 64.59375 
z
" id="DejaVuSans-37"/>
      </defs>
      <g transform="translate(284.067188 518.598438)scale(0.1 -0.1)">
       <use xlink:href="#DejaVuSans-30"/>
       <use x="63.623047" xlink:href="#DejaVuSans-2e"/>
       <use x="95.410156" xlink:href="#DejaVuSans-37"/>
       <use x="159.033203" xlink:href="#DejaVuSans-35"/>
      </g>
     </g>
    </g>
    <g id="xtick_7">
     <g id="line2d_7">
      <g>
       <use style="stroke:#000000;stroke-width:0.8;" x="339.84" xlink:href="#m20ac2f023e" y="504"/>
      </g>
     </g>
     <g id="text_7">
      <!-- 1.00 -->
      <defs>
       <path d="M 12.40625 8.296875 
L 28.515625 8.296875 
L 28.515625 63.921875 
L 10.984375 60.40625 
L 10.984375 69.390625 
L 28.421875 72.90625 
L 38.28125 72.90625 
L 38.28125 8.296875 
L 54.390625 8.296875 
L 54.390625 0 
L 12.40625 0 
z
" id="DejaVuSans-31"/>
      </defs>
      <g transform="translate(328.707188 518.598438)scale(0.1 -0.1)">
       <use xlink:href="#DejaVuSans-31"/>
       <use x="63.623047" xlink:href="#DejaVuSans-2e"/>
       <use x="95.410156" xlink:href="#DejaVuSans-30"/>
       <use x="159.033203" xlink:href="#DejaVuSans-30"/>
      </g>
     </g>
    </g>
    <g id="xtick_8">
     <g id="line2d_8">
      <g>
       <use style="stroke:#000000;stroke-width:0.8;" x="384.48" xlink:href="#m20ac2f023e" y="504"/>
      </g>
     </g>
     <g id="text_8">
      <!-- 1.25 -->
      <g transform="translate(373.347188 518.598438)scale(0.1 -0.1)">
       <use xlink:href="#DejaVuSans-31"/>
       <use x="63.623047" xlink:href="#DejaVuSans-2e"/>
       <use x="95.410156" xlink:href="#DejaVuSans-32"/>
       <use x="159.033203" xlink:href="#DejaVuSans-35"/>
      </g>
     </g>
    </g>
    <g id="xtick_9">
     <g id="line2d_9">
      <g>
       <use style="stroke:#000000;stroke-width:0.8;" x="429.12" xlink:href="#m20ac2f023e" y="504"/>
      </g>
     </g>
     <g id="text_9">
      <!-- 1.50 -->
      <g transform="translate(417.987188 518.598438)scale(0.1 -0.1)">
       <use xlink:href="#DejaVuSans-31"/>
       <use x="63.623047" xlink:href="#DejaVuSans-2e"/>
       <use x="95.410156" xlink:href="#DejaVuSans-35"/>
       <use x="159.033203" xlink:href="#DejaVuSans-30"/>
      </g>
     </g>
    </g>
   </g>
   <g id="matplotlib.axis_2">
    <g id="ytick_1">
     <g id="line2d_10">
      <defs>
       <path d="M 0 0 
L -3.5 0 
" id="m6944ffff53" style="stroke:#000000;stroke-width:0.8;"/>
      </defs>
      <g>
       <use style="stroke:#000000;stroke-width:0.8;" x="72" xlink:href="#m6944ffff53" y="504"/>
      </g>
     </g>
     <g id="text_10">
      <!-- −0.50 -->
      <g transform="translate(34.354687 507.799219)scale(0.1 -0.1)">
       <use xlink:href="#DejaVuSans-2212"/>
       <use x="83.789062" xlink:href="#DejaVuSans-30"/>
       <use x="147.412109" xlink:href="#DejaVuSans-2e"/>
       <use x="179.199219" xlink:href="#DejaVuSans-35"/>
       <use x="242.822266" xlink:href="#DejaVuSans-30"/>
      </g>
     </g>
    </g>
    <g id="ytick_2">
     <g id="line2d_11">
      <g>
       <use style="stroke:#000000;stroke-width:0.8;" x="72" xlink:href="#m6944ffff53" y="449.64"/>
      </g>
     </g>
     <g id="text_11">
      <!-- −0.25 -->
      <g transform="translate(34.354687 453.439219)scale(0.1 -0.1)">
       <use xlink:href="#DejaVuSans-2212"/>
       <use x="83.789062" xlink:href="#DejaVuSans-30"/>
       <use x="147.412109" xlink:href="#DejaVuSans-2e"/>
       <use x="179.199219" xlink:href="#DejaVuSans-32"/>
       <use x="242.822266" xlink:href="#DejaVuSans-35"/>
      </g>
     </g>
    </g>
    <g id="ytick_3">
     <g id="line2d_12">
      <g>
       <use style="stroke:#000000;stroke-width:0.8;" x="72" xlink:href="#m6944ffff53" y="395.28"/>
      </g>
     </g>
     <g id="text_12">
      <!-- 0.00 -->
      <g transform="translate(42.734375 399.079219)scale(0.1 -0.1)">
       <use xlink:href="#DejaVuSans-30"/>
       <use x="63.623047" xlink:href="#DejaVuSans-2e"/>
       <use x="95.410156" xlink:href="#DejaVuSans-30"/>
       <use x="159.033203" xlink:href="#DejaVuSans-30"/>
      </g>
     </g>
    </g>
    <g id="ytick_4">
     <g id="line2d_13">
      <g>
       <use style="stroke:#000000;stroke-width:0.8;" x="72" xlink:href="#m6944ffff53" y="340.92"/>
      </g>
     </g>
     <g id="text_13">
      <!-- 0.25 -->
      <g transform="translate(42.734375 344.719219)scale(0.1 -0.1)">
       <use xlink:href="#DejaVuSans-30"/>
       <use x="63.623047" xlink:href="#DejaVuSans-2e"/>
       <use x="95.410156" xlink:href="#DejaVuSans-32"/>
       <use x="159.033203" xlink:href="#DejaVuSans-35"/>
      </g>
     </g>
    </g>
    <g id="ytick_5">
     <g id="line2d_14">
      <g>
       <use style="stroke:#000000;stroke-width:0.8;" x="72" xlink:href="#m6944ffff53" y="286.56"/>
      </g>
     </g>
     <g id="text_14">
      <!-- 0.50 -->
      <g transform="translate(42.734375 290.359219)scale(0.1 -0.1)">
       <use xlink:href="#DejaVuSans-30"/>
       <use x="63.623047" xlink:href="#DejaVuSans-2e"/>
       <use x="95.410156" xlink:href="#DejaVuSans-35"/>
       <use x="159.033203" xlink:href="#DejaVuSans-30"/>
      </g>
     </g>
    </g>
    <g id="ytick_6">
     <g id="line2d_15">
      <g>
       <use style="stroke:#000000;stroke-width:0.8;" x="72" xlink:href="#m6944ffff53" y="232.2"/>
      </g>
     </g>
     <g id="text_15">
      <!-- 0.75 -->
      <g transform="translate(42.734375 235.999219)scale(0.1 -0.1)">
       <use xlink:href="#DejaVuSans-30"/>
       <use x="63.623047" xlink:href="#DejaVuSans-2e"/>
       <use x="95.410156" xlink:href="#DejaVuSans-37"/>
       <use x="159.033203" xlink:href="#DejaVuSans-35"/>
      </g>
     </g>
    </g>
    <g id="ytick_7">
     <g id="line2d_16">
      <g>
       <use style="stroke:#000000;stroke-width:0.8;" x="72" xlink:href="#m6944ffff53" y="177.84"/>
      </g>
     </g>
     <g id="text_16">
      <!-- 1.00 -->
      <g transform="translate(42.734375 181.639219)scale(0.1 -0.1)">
       <use xlink:href="#DejaVuSans-31"/>
       <use x="63.623047" xlink:href="#DejaVuSans-2e"/>
       <use x="95.410156" xlink:href="#DejaVuSans-30"/>
       <use x="159.033203" xlink:href="#DejaVuSans-30"/>
      </g>
     </g>
    </g>
    <g id="ytick_8">
     <g id="line2d_17">
      <g>
       <use style="stroke:#000000;stroke-width:0.8;" x="72" xlink:href="#m6944ffff53" y="123.48"/>
      </g>
     </g>
     <g id="text_17">
      <!-- 1.25 -->
      <g transform="translate(42.734375 127.279219)scale(0.1 -0.1)">
       <use xlink:href="#DejaVuSans-31"/>
       <use x="63.623047" xlink:href="#DejaVuSans-2e"/>
       <use x="95.410156" xlink:href="#DejaVuSans-32"/>
       <use x="159.033203" xlink:href="#DejaVuSans-35"/>
      </g>
     </g>
    </g>
    <g id="ytick_9">
     <g id="line2d_18">
      <g>
       <use style="stroke:#000000;stroke-width:0.8;" x="72" xlink:href="#m6944ffff53" y="69.12"/>
      </g>
     </g>
     <g id="text_18">
      <!-- 1.50 -->
      <g transform="translate(42.734375 72.919219)scale(0.1 -0.1)">
       <use xlink:href="#DejaVuSans-31"/>
       <use x="63.623047" xlink:href="#DejaVuSans-2e"/>
       <use x="95.410156" xlink:href="#DejaVuSans-35"/>
       <use x="159.033203" xlink:href="#DejaVuSans-30"/>
      </g>
     </g>
    </g>
   </g>
   <g id="patch_3">
    <path d="M 72 504 
L 72 69.12 
" style="fill:none;stroke:#000000;stroke-linecap:square;stroke-linejoin:miter;stroke-width:0.8;"/>
   </g>
   <g id="patch_4">
    <path d="M 429.12 504 
L 429.12 69.12 
" style="fill:none;stroke:#000000;stroke-linecap:square;stroke-linejoin:miter;stroke-width:0.8;"/>
   </g>
   <g id="patch_5">
    <path d="M 72 504 
L 429.12 504 
" style="fill:none;stroke:#000000;stroke-linecap:square;stroke-linejoin:miter;stroke-width:0.8;"/>
   </g>
   <g id="patch_6">
    <path d="M 72 69.12 
L 429.12 69.12 
" style="fill:none;stroke:#000000;stroke-linecap:square;stroke-linejoin:miter;stroke-width:0.8;"/>
   </g>
  </g>
  <g id="axes_2">
   <g id="patch_7">
    <path clip-path="url(#p4f692b0559)" d="M 451.44 504 
L 451.44 449.64 
L 451.44 123.48 
L 451.44 69.12 
L 473.184 69.12 
L 473.184 123.48 
L 473.184 449.64 
L 473.184 504 
z
" style="fill:#ffffff;stroke:#ffffff;stroke-linejoin:miter;stroke-width:0.01;"/>
   </g>
   <g id="QuadMesh_1">
    <path clip-path="url(#p4f692b0559)" d="M 451.44 504 
L 473.184 504 
L 473.184 449.64 
L 451.44 449.64 
L 451.44 504 
" style="fill:#4e68d8;"/>
    <path clip-path="url(#p4f692b0559)" d="M 451.44 449.64 
L 473.184 449.64 
L 473.184 395.28 
L 451.44 395.28 
L 451.44 449.64 
" style="fill:#779af7;"/>
    <path clip-path="url(#p4f692b0559)" d="M 451.44 395.28 
L 473.184 395.28 
L 473.184 340.92 
L 451.44 340.92 
L 451.44 395.28 
" style="fill:#a3c2fe;"/>
    <path clip-path="url(#p4f692b0559)" d="M 451.44 340.92 
L 473.184 340.92 
L 473.184 286.56 
L 451.44 286.56 
L 451.44 340.92 
" style="fill:#ccd9ed;"/>
    <path clip-path="url(#p4f692b0559)" d="M 451.44 286.56 
L 473.184 286.56 
L 473.184 232.2 
L 451.44 232.2 
L 451.44 286.56 
" style="fill:#ecd3c5;"/>
    <path clip-path="url(#p4f692b0559)" d="M 451.44 232.2 
L 473.184 232.2 
L 473.184 177.84 
L 451.44 177.84 
L 451.44 232.2 
" style="fill:#f7b093;"/>
    <path clip-path="url(#p4f692b0559)" d="M 451.44 177.84 
L 473.184 177.84 
L 473.184 123.48 
L 451.44 123.48 
L 451.44 177.84 
" style="fill:#eb7d62;"/>
    <path clip-path="url(#p4f692b0559)" d="M 451.44 123.48 
L 473.184 123.48 
L 473.184 69.12 
L 451.44 69.12 
L 451.44 123.48 
" style="fill:#ca3b37;"/>
   </g>
   <g id="matplotlib.axis_3"/>
   <g id="matplotlib.axis_4">
    <g id="ytick_10">
     <g id="line2d_19">
      <defs>
       <path d="M 0 0 
L 3.5 0 
" id="ma14a05a3ea" style="stroke:#000000;stroke-width:0.8;"/>
      </defs>
      <g>
       <use style="stroke:#000000;stroke-width:0.8;" x="473.184" xlink:href="#ma14a05a3ea" y="504"/>
      </g>
     </g>
     <g id="text_19">
      <!-- −24 -->
      <defs>
       <path d="M 37.796875 64.3125 
L 12.890625 25.390625 
L 37.796875 25.390625 
z
M 35.203125 72.90625 
L 47.609375 72.90625 
L 47.609375 25.390625 
L 58.015625 25.390625 
L 58.015625 17.1875 
L 47.609375 17.1875 
L 47.609375 0 
L 37.796875 0 
L 37.796875 17.1875 
L 4.890625 17.1875 
L 4.890625 26.703125 
z
" id="DejaVuSans-34"/>
      </defs>
      <g transform="translate(480.184 507.799219)scale(0.1 -0.1)">
       <use xlink:href="#DejaVuSans-2212"/>
       <use x="83.789062" xlink:href="#DejaVuSans-32"/>
       <use x="147.412109" xlink:href="#DejaVuSans-34"/>
      </g>
     </g>
    </g>
    <g id="ytick_11">
     <g id="line2d_20">
      <g>
       <use style="stroke:#000000;stroke-width:0.8;" x="473.184" xlink:href="#ma14a05a3ea" y="449.64"/>
      </g>
     </g>
     <g id="text_20">
      <!-- −16 -->
      <defs>
       <path d="M 33.015625 40.375 
Q 26.375 40.375 22.484375 35.828125 
Q 18.609375 31.296875 18.609375 23.390625 
Q 18.609375 15.53125 22.484375 10.953125 
Q 26.375 6.390625 33.015625 6.390625 
Q 39.65625 6.390625 43.53125 10.953125 
Q 47.40625 15.53125 47.40625 23.390625 
Q 47.40625 31.296875 43.53125 35.828125 
Q 39.65625 40.375 33.015625 40.375 
z
M 52.59375 71.296875 
L 52.59375 62.3125 
Q 48.875 64.0625 45.09375 64.984375 
Q 41.3125 65.921875 37.59375 65.921875 
Q 27.828125 65.921875 22.671875 59.328125 
Q 17.53125 52.734375 16.796875 39.40625 
Q 19.671875 43.65625 24.015625 45.921875 
Q 28.375 48.1875 33.59375 48.1875 
Q 44.578125 48.1875 50.953125 41.515625 
Q 57.328125 34.859375 57.328125 23.390625 
Q 57.328125 12.15625 50.6875 5.359375 
Q 44.046875 -1.421875 33.015625 -1.421875 
Q 20.359375 -1.421875 13.671875 8.265625 
Q 6.984375 17.96875 6.984375 36.375 
Q 6.984375 53.65625 15.1875 63.9375 
Q 23.390625 74.21875 37.203125 74.21875 
Q 40.921875 74.21875 44.703125 73.484375 
Q 48.484375 72.75 52.59375 71.296875 
z
" id="DejaVuSans-36"/>
      </defs>
      <g transform="translate(480.184 453.439219)scale(0.1 -0.1)">
       <use xlink:href="#DejaVuSans-2212"/>
       <use x="83.789062" xlink:href="#DejaVuSans-31"/>
       <use x="147.412109" xlink:href="#DejaVuSans-36"/>
      </g>
     </g>
    </g>
    <g id="ytick_12">
     <g id="line2d_21">
      <g>
       <use style="stroke:#000000;stroke-width:0.8;" x="473.184" xlink:href="#ma14a05a3ea" y="395.28"/>
      </g>
     </g>
     <g id="text_21">
      <!-- −8 -->
      <defs>
       <path d="M 31.78125 34.625 
Q 24.75 34.625 20.71875 30.859375 
Q 16.703125 27.09375 16.703125 20.515625 
Q 16.703125 13.921875 20.71875 10.15625 
Q 24.75 6.390625 31.78125 6.390625 
Q 38.8125 6.390625 42.859375 10.171875 
Q 46.921875 13.96875 46.921875 20.515625 
Q 46.921875 27.09375 42.890625 30.859375 
Q 38.875 34.625 31.78125 34.625 
z
M 21.921875 38.8125 
Q 15.578125 40.375 12.03125 44.71875 
Q 8.5 49.078125 8.5 55.328125 
Q 8.5 64.0625 14.71875 69.140625 
Q 20.953125 74.21875 31.78125 74.21875 
Q 42.671875 74.21875 48.875 69.140625 
Q 55.078125 64.0625 55.078125 55.328125 
Q 55.078125 49.078125 51.53125 44.71875 
Q 48 40.375 41.703125 38.8125 
Q 48.828125 37.15625 52.796875 32.3125 
Q 56.78125 27.484375 56.78125 20.515625 
Q 56.78125 9.90625 50.3125 4.234375 
Q 43.84375 -1.421875 31.78125 -1.421875 
Q 19.734375 -1.421875 13.25 4.234375 
Q 6.78125 9.90625 6.78125 20.515625 
Q 6.78125 27.484375 10.78125 32.3125 
Q 14.796875 37.15625 21.921875 38.8125 
z
M 18.3125 54.390625 
Q 18.3125 48.734375 21.84375 45.5625 
Q 25.390625 42.390625 31.78125 42.390625 
Q 38.140625 42.390625 41.71875 45.5625 
Q 45.3125 48.734375 45.3125 54.390625 
Q 45.3125 60.0625 41.71875 63.234375 
Q 38.140625 66.40625 31.78125 66.40625 
Q 25.390625 66.40625 21.84375 63.234375 
Q 18.3125 60.0625 18.3125 54.390625 
z
" id="DejaVuSans-38"/>
      </defs>
      <g transform="translate(480.184 399.079219)scale(0.1 -0.1)">
       <use xlink:href="#DejaVuSans-2212"/>
       <use x="83.789062" xlink:href="#DejaVuSans-38"/>
      </g>
     </g>
    </g>
    <g id="ytick_13">
     <g id="line2d_22">
      <g>
       <use style="stroke:#000000;stroke-width:0.8;" x="473.184" xlink:href="#ma14a05a3ea" y="340.92"/>
      </g>
     </g>
     <g id="text_22">
      <!-- 0 -->
      <g transform="translate(480.184 344.719219)scale(0.1 -0.1)">
       <use xlink:href="#DejaVuSans-30"/>
      </g>
     </g>
    </g>
    <g id="ytick_14">
     <g id="line2d_23">
      <g>
       <use style="stroke:#000000;stroke-width:0.8;" x="473.184" xlink:href="#ma14a05a3ea" y="286.56"/>
      </g>
     </g>
     <g id="text_23">
      <!-- 8 -->
      <g transform="translate(480.184 290.359219)scale(0.1 -0.1)">
       <use xlink:href="#DejaVuSans-38"/>
      </g>
     </g>
    </g>
    <g id="ytick_15">
     <g id="line2d_24">
      <g>
       <use style="stroke:#000000;stroke-width:0.8;" x="473.184" xlink:href="#ma14a05a3ea" y="232.2"/>
      </g>
     </g>
     <g id="text_24">
      <!-- 16 -->
      <g transform="translate(480.184 235.999219)scale(0.1 -0.1)">
       <use xlink:href="#DejaVuSans-31"/>
       <use x="63.623047" xlink:href="#DejaVuSans-36"/>
      </g>
     </g>
    </g>
    <g id="ytick_16">
     <g id="line2d_25">
      <g>
       <use style="stroke:#000000;stroke-width:0.8;" x="473.184" xlink:href="#ma14a05a3ea" y="177.84"/>
      </g>
     </g>
     <g id="text_25">
      <!-- 24 -->
      <g transform="translate(480.184 181.639219)scale(0.1 -0.1)">
       <use xlink:href="#DejaVuSans-32"/>
       <use x="63.623047" xlink:href="#DejaVuSans-34"/>
      </g>
     </g>
    </g>
    <g id="ytick_17">
     <g id="line2d_26">
      <g>
       <use style="stroke:#000000;stroke-width:0.8;" x="473.184" xlink:href="#ma14a05a3ea" y="123.48"/>
      </g>
     </g>
     <g id="text_26">
      <!-- 32 -->
      <defs>
       <path d="M 40.578125 39.3125 
Q 47.65625 37.796875 51.625 33 
Q 55.609375 28.21875 55.609375 21.1875 
Q 55.609375 10.40625 48.1875 4.484375 
Q 40.765625 -1.421875 27.09375 -1.421875 
Q 22.515625 -1.421875 17.65625 -0.515625 
Q 12.796875 0.390625 7.625 2.203125 
L 7.625 11.71875 
Q 11.71875 9.328125 16.59375 8.109375 
Q 21.484375 6.890625 26.8125 6.890625 
Q 36.078125 6.890625 40.9375 10.546875 
Q 45.796875 14.203125 45.796875 21.1875 
Q 45.796875 27.640625 41.28125 31.265625 
Q 36.765625 34.90625 28.71875 34.90625 
L 20.21875 34.90625 
L 20.21875 43.015625 
L 29.109375 43.015625 
Q 36.375 43.015625 40.234375 45.921875 
Q 44.09375 48.828125 44.09375 54.296875 
Q 44.09375 59.90625 40.109375 62.90625 
Q 36.140625 65.921875 28.71875 65.921875 
Q 24.65625 65.921875 20.015625 65.03125 
Q 15.375 64.15625 9.8125 62.3125 
L 9.8125 71.09375 
Q 15.4375 72.65625 20.34375 73.4375 
Q 25.25 74.21875 29.59375 74.21875 
Q 40.828125 74.21875 47.359375 69.109375 
Q 53.90625 64.015625 53.90625 55.328125 
Q 53.90625 49.265625 50.4375 45.09375 
Q 46.96875 40.921875 40.578125 39.3125 
z
" id="DejaVuSans-33"/>
      </defs>
      <g transform="translate(480.184 127.279219)scale(0.1 -0.1)">
       <use xlink:href="#DejaVuSans-33"/>
       <use x="63.623047" xlink:href="#DejaVuSans-32"/>
      </g>
     </g>
    </g>
    <g id="ytick_18">
     <g id="line2d_27">
      <g>
       <use style="stroke:#000000;stroke-width:0.8;" x="473.184" xlink:href="#ma14a05a3ea" y="69.12"/>
      </g>
     </g>
     <g id="text_27">
      <!-- 40 -->
      <g transform="translate(480.184 72.919219)scale(0.1 -0.1)">
       <use xlink:href="#DejaVuSans-34"/>
       <use x="63.623047" xlink:href="#DejaVuSans-30"/>
      </g>
     </g>
    </g>
   </g>
   <g id="patch_8">
    <path d="M 451.44 504 
L 451.44 449.64 
L 451.44 123.48 
L 451.44 69.12 
L 473.184 69.12 
L 473.184 123.48 
L 473.184 449.64 
L 473.184 504 
z
" style="fill:none;stroke:#000000;stroke-linejoin:miter;stroke-width:0.8;"/>
   </g>
  </g>
 </g>
 <defs>
  <clipPath id="pea53432fbc">
   <rect height="434.88" width="357.12" x="72" y="69.12"/>
  </clipPath>
  <clipPath id="p4f692b0559">
   <rect height="434.88" width="21.744" x="451.44" y="69.12"/>
  </clipPath>
 </defs>
</svg>
