<?xml version="1.0" encoding="utf-8" standalone="no"?>
<!DOCTYPE svg PUBLIC "-//W3C//DTD SVG 1.1//EN"
  "http://www.w3.org/Graphics/SVG/1.1/DTD/svg11.dtd">
<!-- Created with matplotlib (http://matplotlib.org/) -->
<svg height="576pt" version="1.1" viewBox="0 0 576 576" width="576pt" xmlns="http://www.w3.org/2000/svg" xmlns:xlink="http://www.w3.org/1999/xlink">
 <defs>
  <style type="text/css">
*{stroke-linecap:butt;stroke-linejoin:round;}
  </style>
 </defs>
 <g id="figure_1">
  <g id="patch_1">
   <path d="M 0 576 
L 576 576 
L 576 0 
L 0 0 
z
" style="fill:#ffffff;"/>
  </g>
  <g id="axes_1">
   <g id="patch_2">
    <path d="M 72 504 
L 429.12 504 
L 429.12 69.12 
L 72 69.12 
z
" style="fill:#ffffff;"/>
   </g>
   <g id="PathCollection_1">
    <path clip-path="url(#pa0ee576e4d)" d="M 266.792727 504 
L 270.4 504 
L 274.007273 504 
L 277.614545 504 
L 281.221818 504 
L 284.829091 504 
L 288.436364 504 
L 292.043636 504 
L 295.650909 504 
L 299.258182 504 
L 302.865455 504 
L 306.472727 504 
L 310.08 504 
L 313.687273 504 
L 317.294545 504 
L 320.901818 504 
L 324.509091 504 
L 328.116364 504 
L 331.723636 504 
L 335.330909 504 
L 338.938182 504 
L 342.545455 504 
L 346.152727 504 
L 349.76 504 
L 353.367273 504 
L 356.974545 504 
L 360.581818 504 
L 364.189091 504 
L 364.93962 504 
L 364.189091 503.883007 
L 360.581818 503.320715 
L 356.974545 502.758442 
L 353.367273 502.196112 
L 349.76 501.633762 
L 346.152727 501.071454 
L 342.545455 500.50915 
L 338.938182 499.946815 
L 336.759848 499.607273 
L 335.330909 499.384536 
L 331.723636 498.82222 
L 328.116364 498.259885 
L 324.509091 497.697564 
L 320.901818 497.135242 
L 317.294545 496.572906 
L 313.687273 496.010592 
L 310.08 495.448227 
L 308.580899 495.214545 
L 306.472727 494.885923 
L 302.865455 494.323624 
L 299.258182 493.761272 
L 295.650909 493.199031 
L 292.043636 492.63668 
L 288.436364 492.074395 
L 284.829091 491.51207 
L 281.221818 490.94976 
L 280.401094 490.821818 
L 277.614545 490.387428 
L 274.007273 489.825114 
L 270.890501 490.821818 
L 270.4 491.034093 
L 268.483443 495.214545 
L 266.792727 498.902507 
L 266.506044 499.607273 
L 265.192206 504 
z
" style="fill:#4b64d5;"/>
   </g>
   <g id="PathCollection_2">
    <path clip-path="url(#pa0ee576e4d)" d="M 248.756364 504 
L 252.363636 504 
L 255.970909 504 
L 259.578182 504 
L 263.185455 504 
L 265.192206 504 
L 266.506044 499.607273 
L 266.792727 498.902507 
L 268.483443 495.214545 
L 270.4 491.034093 
L 270.890501 490.821818 
L 274.007273 489.825114 
L 277.614545 490.387428 
L 280.401094 490.821818 
L 281.221818 490.94976 
L 284.829091 491.51207 
L 288.436364 492.074395 
L 292.043636 492.63668 
L 295.650909 493.199031 
L 299.258182 493.761272 
L 302.865455 494.323624 
L 306.472727 494.885923 
L 308.580899 495.214545 
L 310.08 495.448227 
L 313.687273 496.010592 
L 317.294545 496.572906 
L 320.901818 497.135242 
L 324.509091 497.697564 
L 328.116364 498.259885 
L 331.723636 498.82222 
L 335.330909 499.384536 
L 336.759848 499.607273 
L 338.938182 499.946815 
L 342.545455 500.50915 
L 346.152727 501.071454 
L 349.76 501.633762 
L 353.367273 502.196112 
L 356.974545 502.758442 
L 360.581818 503.320715 
L 364.189091 503.883007 
L 364.93962 504 
L 367.796364 504 
L 371.403636 504 
L 375.010909 504 
L 378.618182 504 
L 382.225455 504 
L 385.832727 504 
L 389.44 504 
L 393.047273 504 
L 396.654545 504 
L 400.261818 504 
L 403.869091 504 
L 407.476364 504 
L 411.083636 504 
L 414.690909 504 
L 418.298182 504 
L 421.905455 504 
L 425.512727 504 
L 429.12 504 
L 429.12 499.607273 
L 429.12 495.214545 
L 429.12 490.821818 
L 429.12 486.429091 
L 429.12 482.036364 
L 429.12 477.643636 
L 429.12 474.02953 
L 425.512727 473.467197 
L 424.125179 473.250909 
L 421.905455 472.904897 
L 418.298182 472.342582 
L 414.690909 471.780282 
L 411.083636 471.217912 
L 407.476364 470.655598 
L 403.869091 470.09332 
L 400.261818 469.531014 
L 396.654545 468.968716 
L 395.945533 468.858182 
L 393.047273 468.406347 
L 389.44 467.844028 
L 385.832727 467.28172 
L 382.225455 466.719408 
L 378.618182 466.157133 
L 375.010909 465.594783 
L 371.403636 465.03249 
L 367.796364 464.470159 
L 367.766187 464.465455 
L 364.189091 463.907811 
L 360.581818 463.345554 
L 356.974545 462.783217 
L 353.367273 462.220911 
L 349.76 461.658603 
L 346.152727 461.096293 
L 342.545455 460.533997 
L 339.586607 460.072727 
L 338.938182 459.97164 
L 335.330909 459.409283 
L 331.723636 458.847024 
L 328.116364 458.284689 
L 324.509091 457.722388 
L 320.901818 457.160076 
L 317.294545 456.597739 
L 313.687273 456.035453 
L 311.407191 455.68 
L 310.08 455.473096 
L 306.472727 454.910802 
L 302.865455 454.348473 
L 299.258182 453.786141 
L 295.650909 453.223818 
L 292.043636 452.661487 
L 288.436364 452.099231 
L 284.829091 451.53689 
L 283.227869 451.287273 
L 281.221818 450.974548 
L 277.614545 450.412253 
L 274.007273 449.849917 
L 270.4 449.287609 
L 266.792727 448.725267 
L 264.214226 451.287273 
L 263.185455 452.670637 
L 261.805815 455.68 
L 259.791979 460.072727 
L 259.578182 460.53907 
L 257.778103 464.465455 
L 255.970909 468.407377 
L 255.764236 468.858182 
L 253.750406 473.250909 
L 252.363636 476.275799 
L 251.813418 477.643636 
L 250.568547 482.036364 
L 249.75503 486.429091 
L 248.941545 490.821818 
L 248.756364 491.821794 
L 248.128073 495.214545 
L 247.314567 499.607273 
L 246.501077 504 
z
" style="fill:#6f92f3;"/>
    <path clip-path="url(#pa0ee576e4d)" d="M 407.476364 126.582051 
L 411.083636 126.982023 
L 414.690909 127.381993 
L 418.298182 127.781957 
L 421.905455 128.181926 
L 425.512727 128.581879 
L 429.12 128.880461 
L 429.12 126.225455 
L 429.12 121.832727 
L 429.12 117.44 
L 429.12 113.047273 
L 429.12 108.654545 
L 429.12 104.261818 
L 429.12 99.869091 
L 429.12 95.476364 
L 429.12 91.083636 
L 429.12 86.690909 
L 429.12 82.298182 
L 429.12 77.905455 
L 429.12 73.512727 
L 429.12 69.12 
L 425.512727 69.12 
L 421.905455 69.12 
L 418.298182 69.12 
L 414.690909 69.12 
L 411.083636 69.12 
L 408.52333 69.12 
L 408.247095 73.512727 
L 407.970852 77.905455 
L 407.694604 82.298182 
L 407.476364 85.768394 
L 407.418347 86.690909 
L 407.142119 91.083636 
L 406.865854 95.476364 
L 406.589597 99.869091 
L 406.313376 104.261818 
L 406.037126 108.654545 
L 405.760866 113.047273 
L 405.484605 117.44 
L 405.208379 121.832727 
L 406.25843 126.225455 
z
" style="fill:#6f92f3;"/>
   </g>
   <g id="PathCollection_3">
    <path clip-path="url(#pa0ee576e4d)" d="M 230.72 504 
L 234.327273 504 
L 237.934545 504 
L 241.541818 504 
L 245.149091 504 
L 246.501077 504 
L 247.314567 499.607273 
L 248.128073 495.214545 
L 248.756364 491.821794 
L 248.941545 490.821818 
L 249.75503 486.429091 
L 250.568547 482.036364 
L 251.813418 477.643636 
L 252.363636 476.275799 
L 253.750406 473.250909 
L 255.764236 468.858182 
L 255.970909 468.407377 
L 257.778103 464.465455 
L 259.578182 460.53907 
L 259.791979 460.072727 
L 261.805815 455.68 
L 263.185455 452.670637 
L 264.214226 451.287273 
L 266.792727 448.725267 
L 270.4 449.287609 
L 274.007273 449.849917 
L 277.614545 450.412253 
L 281.221818 450.974548 
L 283.227869 451.287273 
L 284.829091 451.53689 
L 288.436364 452.099231 
L 292.043636 452.661487 
L 295.650909 453.223818 
L 299.258182 453.786141 
L 302.865455 454.348473 
L 306.472727 454.910802 
L 310.08 455.473096 
L 311.407191 455.68 
L 313.687273 456.035453 
L 317.294545 456.597739 
L 320.901818 457.160076 
L 324.509091 457.722388 
L 328.116364 458.284689 
L 331.723636 458.847024 
L 335.330909 459.409283 
L 338.938182 459.97164 
L 339.586607 460.072727 
L 342.545455 460.533997 
L 346.152727 461.096293 
L 349.76 461.658603 
L 353.367273 462.220911 
L 356.974545 462.783217 
L 360.581818 463.345554 
L 364.189091 463.907811 
L 367.766187 464.465455 
L 367.796364 464.470159 
L 371.403636 465.03249 
L 375.010909 465.594783 
L 378.618182 466.157133 
L 382.225455 466.719408 
L 385.832727 467.28172 
L 389.44 467.844028 
L 393.047273 468.406347 
L 395.945533 468.858182 
L 396.654545 468.968716 
L 400.261818 469.531014 
L 403.869091 470.09332 
L 407.476364 470.655598 
L 411.083636 471.217912 
L 414.690909 471.780282 
L 418.298182 472.342582 
L 421.905455 472.904897 
L 424.125179 473.250909 
L 425.512727 473.467197 
L 429.12 474.02953 
L 429.12 473.250909 
L 429.12 468.858182 
L 429.12 464.465455 
L 429.12 460.072727 
L 429.12 455.68 
L 429.12 451.287273 
L 429.12 446.894545 
L 429.12 442.501818 
L 429.12 438.109091 
L 429.12 434.054365 
L 426.951812 433.716364 
L 425.512727 433.492022 
L 421.905455 432.929739 
L 418.298182 432.367437 
L 414.690909 431.805091 
L 411.083636 431.242783 
L 407.476364 430.680466 
L 403.869091 430.118141 
L 400.261818 429.555821 
L 398.772304 429.323636 
L 396.654545 428.993518 
L 393.047273 428.431253 
L 389.44 427.868889 
L 385.832727 427.306578 
L 382.225455 426.744255 
L 378.618182 426.181933 
L 375.010909 425.619582 
L 371.403636 425.057325 
L 370.592717 424.930909 
L 367.796364 424.494977 
L 364.189091 423.932696 
L 360.581818 423.370342 
L 356.974545 422.808028 
L 353.367273 422.245754 
L 349.76 421.683424 
L 346.152727 421.121104 
L 342.545455 420.558784 
L 342.413303 420.538182 
L 338.938182 419.996434 
L 335.330909 419.434127 
L 331.723636 418.871826 
L 328.116364 418.309478 
L 324.509091 417.747211 
L 320.901818 417.184871 
L 317.294545 416.62257 
L 314.233734 416.145455 
L 313.687273 416.060272 
L 310.08 415.497895 
L 306.472727 414.935624 
L 302.865455 414.373249 
L 299.258182 413.810948 
L 295.650909 413.248642 
L 292.043636 412.686338 
L 288.436364 412.123986 
L 286.054684 411.752727 
L 284.829091 411.561685 
L 281.221818 410.999389 
L 277.614545 410.437053 
L 274.007273 409.874753 
L 270.4 409.751103 
L 266.792727 409.744157 
L 263.185455 410.059806 
L 259.578182 410.570937 
L 258.760762 411.752727 
L 256.049162 416.145455 
L 255.970909 416.283814 
L 253.40298 420.538182 
L 252.363636 422.637421 
L 251.100483 424.930909 
L 249.086637 429.323636 
L 248.756364 430.044054 
L 247.07278 433.716364 
L 245.149091 437.912434 
L 245.058933 438.109091 
L 243.045076 442.501818 
L 241.541818 445.780798 
L 241.031216 446.894545 
L 239.017362 451.287273 
L 237.934545 453.649197 
L 237.126635 455.68 
L 235.944863 460.072727 
L 235.131361 464.465455 
L 234.327273 468.807475 
L 234.317882 468.858182 
L 233.504375 473.250909 
L 232.690896 477.643636 
L 231.877384 482.036364 
L 231.063914 486.429091 
L 230.72 488.286173 
L 230.250414 490.821818 
L 229.436928 495.214545 
L 228.623453 499.607273 
L 227.80993 504 
z
" style="fill:#97b8ff;"/>
    <path clip-path="url(#pa0ee576e4d)" d="M 421.905455 158.121036 
L 425.512727 159.645595 
L 429.12 161.193362 
L 429.12 156.974545 
L 429.12 152.581818 
L 429.12 148.189091 
L 429.12 143.796364 
L 429.12 139.403636 
L 429.12 135.010909 
L 429.12 130.618182 
L 429.12 128.880461 
L 425.512727 128.581879 
L 421.905455 128.181926 
L 418.298182 127.781957 
L 414.690909 127.381993 
L 411.083636 126.982023 
L 407.476364 126.582051 
L 406.25843 126.225455 
L 405.208379 121.832727 
L 405.484605 117.44 
L 405.760866 113.047273 
L 406.037126 108.654545 
L 406.313376 104.261818 
L 406.589597 99.869091 
L 406.865854 95.476364 
L 407.142119 91.083636 
L 407.418347 86.690909 
L 407.476364 85.768394 
L 407.694604 82.298182 
L 407.970852 77.905455 
L 408.247095 73.512727 
L 408.52333 69.12 
L 407.476364 69.12 
L 403.869091 69.12 
L 400.261818 69.12 
L 396.654545 69.12 
L 393.047273 69.12 
L 389.44 69.12 
L 385.832727 69.12 
L 382.225455 69.12 
L 378.618182 69.12 
L 375.010909 69.12 
L 371.403636 69.12 
L 367.796364 69.12 
L 364.189091 69.12 
L 362.021078 69.12 
L 361.332934 73.512727 
L 360.645039 77.905455 
L 360.581818 78.32971 
L 359.990227 82.298182 
L 359.336764 86.690909 
L 358.683304 91.083636 
L 358.049351 95.476364 
L 357.4439 99.869091 
L 356.974545 102.570312 
L 356.72291 104.261818 
L 356.435782 108.654545 
L 356.081085 113.047273 
L 355.76688 117.44 
L 355.490617 121.832727 
L 355.214365 126.225455 
L 354.938122 130.618182 
L 354.661887 135.010909 
L 354.385627 139.403636 
L 354.109374 143.796364 
L 353.833123 148.189091 
L 353.728937 152.581818 
L 356.974545 153.630769 
L 360.581818 153.897486 
L 364.189091 154.126595 
L 367.796364 154.257289 
L 371.403636 154.268979 
L 375.010909 154.28066 
L 378.618182 154.29235 
L 382.225455 154.304043 
L 385.832727 154.31573 
L 389.44 154.327418 
L 393.047273 154.339109 
L 396.654545 154.350795 
L 400.261818 154.36248 
L 403.869091 154.374176 
L 407.476364 154.385862 
L 411.083636 154.71702 
L 414.690909 155.719908 
L 418.298182 156.880193 
L 418.591516 156.974545 
z
" style="fill:#97b8ff;"/>
   </g>
   <g id="PathCollection_4">
    <path clip-path="url(#pa0ee576e4d)" d="M 209.076364 504 
L 212.683636 504 
L 216.290909 504 
L 219.898182 504 
L 223.505455 504 
L 227.112727 504 
L 227.80993 504 
L 228.623453 499.607273 
L 229.436928 495.214545 
L 230.250414 490.821818 
L 230.72 488.286173 
L 231.063914 486.429091 
L 231.877384 482.036364 
L 232.690896 477.643636 
L 233.504375 473.250909 
L 234.317882 468.858182 
L 234.327273 468.807475 
L 235.131361 464.465455 
L 235.944863 460.072727 
L 237.126635 455.68 
L 237.934545 453.649197 
L 239.017362 451.287273 
L 241.031216 446.894545 
L 241.541818 445.780798 
L 243.045076 442.501818 
L 245.058933 438.109091 
L 245.149091 437.912434 
L 247.07278 433.716364 
L 248.756364 430.044054 
L 249.086637 429.323636 
L 251.100483 424.930909 
L 252.363636 422.637421 
L 253.40298 420.538182 
L 255.970909 416.283814 
L 256.049162 416.145455 
L 258.760762 411.752727 
L 259.578182 410.570937 
L 263.185455 410.059806 
L 266.792727 409.744157 
L 270.4 409.751103 
L 274.007273 409.874753 
L 277.614545 410.437053 
L 281.221818 410.999389 
L 284.829091 411.561685 
L 286.054684 411.752727 
L 288.436364 412.123986 
L 292.043636 412.686338 
L 295.650909 413.248642 
L 299.258182 413.810948 
L 302.865455 414.373249 
L 306.472727 414.935624 
L 310.08 415.497895 
L 313.687273 416.060272 
L 314.233734 416.145455 
L 317.294545 416.62257 
L 320.901818 417.184871 
L 324.509091 417.747211 
L 328.116364 418.309478 
L 331.723636 418.871826 
L 335.330909 419.434127 
L 338.938182 419.996434 
L 342.413303 420.538182 
L 342.545455 420.558784 
L 346.152727 421.121104 
L 349.76 421.683424 
L 353.367273 422.245754 
L 356.974545 422.808028 
L 360.581818 423.370342 
L 364.189091 423.932696 
L 367.796364 424.494977 
L 370.592717 424.930909 
L 371.403636 425.057325 
L 375.010909 425.619582 
L 378.618182 426.181933 
L 382.225455 426.744255 
L 385.832727 427.306578 
L 389.44 427.868889 
L 393.047273 428.431253 
L 396.654545 428.993518 
L 398.772304 429.323636 
L 400.261818 429.555821 
L 403.869091 430.118141 
L 407.476364 430.680466 
L 411.083636 431.242783 
L 414.690909 431.805091 
L 418.298182 432.367437 
L 421.905455 432.929739 
L 425.512727 433.492022 
L 426.951812 433.716364 
L 429.12 434.054365 
L 429.12 433.716364 
L 429.12 429.323636 
L 429.12 424.930909 
L 429.12 420.538182 
L 429.12 416.145455 
L 429.12 411.752727 
L 429.12 407.36 
L 429.12 402.967273 
L 429.12 398.574545 
L 429.12 394.181818 
L 429.12 389.789091 
L 429.12 385.396364 
L 429.12 381.003636 
L 429.12 376.610909 
L 429.12 372.218182 
L 429.12 367.825455 
L 429.12 363.432727 
L 429.12 359.04 
L 429.12 354.647273 
L 429.12 350.254545 
L 429.12 345.861818 
L 429.12 341.469091 
L 429.12 337.076364 
L 429.12 332.683636 
L 429.12 328.290909 
L 429.12 323.898182 
L 429.12 319.505455 
L 429.12 315.112727 
L 429.12 310.72 
L 429.12 306.327273 
L 429.12 301.934545 
L 429.12 297.541818 
L 429.12 293.149091 
L 429.12 289.335546 
L 425.512727 291.193572 
L 421.905455 293.051595 
L 421.716173 293.149091 
L 418.298182 294.909685 
L 414.690909 296.767737 
L 413.188064 297.541818 
L 411.083636 298.625753 
L 407.476364 300.483883 
L 404.659884 301.934545 
L 403.869091 302.341857 
L 400.261818 304.199921 
L 396.654545 306.057957 
L 396.131688 306.327273 
L 393.047273 307.91603 
L 389.44 309.774106 
L 387.603598 310.72 
L 385.832727 311.632123 
L 382.225455 313.490157 
L 379.075383 315.112727 
L 378.618182 315.348227 
L 375.010909 317.206235 
L 371.403636 319.064334 
L 370.547209 319.505455 
L 367.796364 320.922327 
L 364.189091 322.780447 
L 362.019066 323.898182 
L 360.581818 324.63847 
L 356.974545 326.496545 
L 353.490851 328.290909 
L 353.367273 328.354561 
L 349.76 330.212586 
L 346.152727 332.070654 
L 344.962686 332.683636 
L 343.130948 337.076364 
L 343.37955 341.469091 
L 343.660168 345.861818 
L 343.940792 350.254545 
L 344.221423 354.647273 
L 344.791954 359.04 
L 346.152727 361.285291 
L 347.811078 363.432727 
L 349.76 365.956482 
L 351.203302 367.825455 
L 353.367273 370.627624 
L 354.595579 372.218182 
L 356.974545 375.298763 
L 357.98783 376.610909 
L 360.581818 379.969935 
L 361.380088 381.003636 
L 360.581818 381.973873 
L 356.974545 382.832854 
L 353.367273 382.270573 
L 349.76 381.708239 
L 346.152727 381.145919 
L 345.239965 381.003636 
L 342.545455 380.583606 
L 338.938182 380.021267 
L 335.330909 379.458967 
L 331.723636 378.896648 
L 328.116364 378.334311 
L 324.509091 377.77201 
L 320.901818 377.209731 
L 317.294545 377.05622 
L 313.687273 377.313333 
L 310.08 377.590871 
L 306.472727 377.906526 
L 302.865455 378.222166 
L 299.258182 378.537787 
L 295.650909 378.853415 
L 292.043636 379.169053 
L 288.436364 379.48471 
L 284.829091 379.800334 
L 281.221818 380.115972 
L 277.614545 380.431613 
L 274.007273 380.747246 
L 271.07687 381.003636 
L 270.4 381.062858 
L 266.792727 381.378503 
L 263.185455 381.694158 
L 259.578182 382.00978 
L 255.970909 382.527803 
L 254.138678 385.396364 
L 252.363636 388.271859 
L 251.427057 389.789091 
L 248.756364 394.11551 
L 248.715432 394.181818 
L 246.003816 398.574545 
L 245.149091 399.959179 
L 243.292211 402.967273 
L 241.541818 405.802832 
L 240.580582 407.36 
L 237.934545 411.646481 
L 237.86896 411.752727 
L 235.157349 416.145455 
L 234.327273 417.49016 
L 232.445738 420.538182 
L 230.72 423.333793 
L 229.734104 424.930909 
L 227.112727 429.17747 
L 227.022499 429.323636 
L 224.310876 433.716364 
L 223.505455 435.169727 
L 222.224847 438.109091 
L 220.763151 442.501818 
L 219.898182 446.115054 
L 219.694197 446.894545 
L 218.880703 451.287273 
L 218.067232 455.68 
L 217.253722 460.072727 
L 216.440234 464.465455 
L 216.290909 465.271773 
L 215.626725 468.858182 
L 214.81324 473.250909 
L 213.999772 477.643636 
L 213.186254 482.036364 
L 212.683636 484.750515 
L 212.372789 486.429091 
L 211.559279 490.821818 
L 210.745771 495.214545 
L 209.932295 499.607273 
L 209.076364 501.957802 
L 207.603057 504 
z
" style="fill:#bcd2f7;"/>
    <path clip-path="url(#pa0ee576e4d)" d="M 73.821248 332.683636 
L 75.607273 329.584866 
L 76.353038 328.290909 
L 78.884902 323.898182 
L 79.214545 323.326225 
L 81.416665 319.505455 
L 82.821818 317.067541 
L 83.948537 315.112727 
L 86.429091 310.808952 
L 86.480359 310.72 
L 89.012206 306.327273 
L 90.036364 304.550334 
L 91.543974 301.934545 
L 93.643636 298.291626 
L 94.075806 297.541818 
L 96.607622 293.149091 
L 97.250909 292.032976 
L 99.139459 288.756364 
L 97.250909 287.852961 
L 93.643636 288.050728 
L 90.972271 288.756364 
L 90.036364 289.157023 
L 86.429091 289.956469 
L 82.821818 290.909332 
L 79.214545 291.862191 
L 75.607273 292.815079 
L 74.342797 293.149091 
L 72 293.767939 
L 72 297.541818 
L 72 301.934545 
L 72 306.327273 
L 72 310.72 
L 72 315.112727 
L 72 319.505455 
L 72 323.898182 
L 72 328.290909 
L 72 332.683636 
L 72 335.843486 
z
" style="fill:#bcd2f7;"/>
    <path clip-path="url(#pa0ee576e4d)" d="M 154.967273 259.311799 
L 158.574545 258.693723 
L 162.181818 258.075746 
L 162.581474 258.007273 
L 165.789091 257.457704 
L 169.396364 256.839677 
L 173.003636 256.221613 
L 176.610909 255.603602 
L 180.218182 254.985554 
L 183.825455 254.367551 
L 184.101906 253.614545 
L 183.825455 252.681031 
L 182.648761 249.221818 
L 181.499479 244.829091 
L 180.218182 244.077352 
L 176.610909 243.809236 
L 174.40073 244.829091 
L 173.003636 246.116858 
L 169.396364 247.998959 
L 167.465803 249.221818 
L 165.789091 251.310561 
L 162.181818 252.568824 
L 160.53091 253.614545 
L 158.574545 257.372696 
L 154.967273 257.561869 
L 154.176516 258.007273 
z
" style="fill:#bcd2f7;"/>
    <path clip-path="url(#pa0ee576e4d)" d="M 429.12 189.092488 
L 429.12 187.723636 
L 429.12 183.330909 
L 429.12 178.938182 
L 429.12 174.545455 
L 429.12 170.152727 
L 429.12 165.76 
L 429.12 161.367273 
L 429.12 161.193362 
L 425.512727 159.645595 
L 421.905455 158.121036 
L 418.591516 156.974545 
L 418.298182 156.880193 
L 414.690909 155.719908 
L 411.083636 154.71702 
L 407.476364 154.385862 
L 403.869091 154.374176 
L 400.261818 154.36248 
L 396.654545 154.350795 
L 393.047273 154.339109 
L 389.44 154.327418 
L 385.832727 154.31573 
L 382.225455 154.304043 
L 378.618182 154.29235 
L 375.010909 154.28066 
L 371.403636 154.268979 
L 367.796364 154.257289 
L 364.189091 154.126595 
L 360.581818 153.897486 
L 356.974545 153.630769 
L 353.728937 152.581818 
L 353.833123 148.189091 
L 354.109374 143.796364 
L 354.385627 139.403636 
L 354.661887 135.010909 
L 354.938122 130.618182 
L 355.214365 126.225455 
L 355.490617 121.832727 
L 355.76688 117.44 
L 356.081085 113.047273 
L 356.435782 108.654545 
L 356.72291 104.261818 
L 356.974545 102.570312 
L 357.4439 99.869091 
L 358.049351 95.476364 
L 358.683304 91.083636 
L 359.336764 86.690909 
L 359.990227 82.298182 
L 360.581818 78.32971 
L 360.645039 77.905455 
L 361.332934 73.512727 
L 362.021078 69.12 
L 360.581818 69.12 
L 356.974545 69.12 
L 353.367273 69.12 
L 349.76 69.12 
L 346.152727 69.12 
L 342.545455 69.12 
L 338.938182 69.12 
L 335.330909 69.12 
L 331.723636 69.12 
L 328.116364 69.12 
L 326.237322 69.12 
L 325.576874 73.512727 
L 324.923084 77.905455 
L 324.509091 80.710149 
L 324.278977 82.298182 
L 323.64243 86.690909 
L 323.005911 91.083636 
L 322.369361 95.476364 
L 321.734271 99.869091 
L 321.115793 104.261818 
L 320.901818 105.790911 
L 320.501092 108.654545 
L 319.886376 113.047273 
L 319.271682 117.44 
L 318.656975 121.832727 
L 318.042254 126.225455 
L 317.427564 130.618182 
L 317.294545 131.568749 
L 316.812868 135.010909 
L 316.198165 139.403636 
L 315.583466 143.796364 
L 314.968759 148.189091 
L 314.354067 152.581818 
L 313.739366 156.974545 
L 313.687273 157.346807 
L 313.124659 161.367273 
L 312.509964 165.76 
L 311.895258 170.152727 
L 311.497854 174.545455 
L 313.687273 175.641571 
L 317.294545 175.72206 
L 320.901818 175.802554 
L 324.509091 175.88306 
L 328.116364 175.963545 
L 331.723636 176.044036 
L 335.330909 176.124536 
L 338.938182 176.205025 
L 342.545455 176.285515 
L 346.152727 176.366022 
L 349.76 176.446507 
L 353.367273 176.527016 
L 356.974545 176.607498 
L 360.581818 176.687997 
L 364.189091 176.76849 
L 367.796364 176.848994 
L 371.403636 176.929479 
L 375.010909 177.009973 
L 378.618182 177.090468 
L 382.225455 177.17097 
L 385.832727 177.251455 
L 389.44 177.331952 
L 393.047273 177.738463 
L 396.654545 178.555961 
L 398.148356 178.938182 
L 400.261818 179.512035 
L 403.869091 180.667246 
L 407.476364 181.822455 
L 411.083636 182.977678 
L 412.186634 183.330909 
L 414.690909 184.132892 
L 418.298182 185.288108 
L 421.905455 186.443312 
L 425.512727 187.598511 
L 425.903445 187.723636 
z
" style="fill:#bcd2f7;"/>
   </g>
   <g id="PathCollection_5">
    <path clip-path="url(#pa0ee576e4d)" d="M 173.003636 504 
L 176.610909 504 
L 180.218182 504 
L 183.825455 504 
L 187.432727 504 
L 191.04 504 
L 194.647273 504 
L 198.254545 504 
L 201.861818 504 
L 205.469091 504 
L 207.603057 504 
L 209.076364 501.957802 
L 209.932295 499.607273 
L 210.745771 495.214545 
L 211.559279 490.821818 
L 212.372789 486.429091 
L 212.683636 484.750515 
L 213.186254 482.036364 
L 213.999772 477.643636 
L 214.81324 473.250909 
L 215.626725 468.858182 
L 216.290909 465.271773 
L 216.440234 464.465455 
L 217.253722 460.072727 
L 218.067232 455.68 
L 218.880703 451.287273 
L 219.694197 446.894545 
L 219.898182 446.115054 
L 220.763151 442.501818 
L 222.224847 438.109091 
L 223.505455 435.169727 
L 224.310876 433.716364 
L 227.022499 429.323636 
L 227.112727 429.17747 
L 229.734104 424.930909 
L 230.72 423.333793 
L 232.445738 420.538182 
L 234.327273 417.49016 
L 235.157349 416.145455 
L 237.86896 411.752727 
L 237.934545 411.646481 
L 240.580582 407.36 
L 241.541818 405.802832 
L 243.292211 402.967273 
L 245.149091 399.959179 
L 246.003816 398.574545 
L 248.715432 394.181818 
L 248.756364 394.11551 
L 251.427057 389.789091 
L 252.363636 388.271859 
L 254.138678 385.396364 
L 255.970909 382.527803 
L 259.578182 382.00978 
L 263.185455 381.694158 
L 266.792727 381.378503 
L 270.4 381.062858 
L 271.07687 381.003636 
L 274.007273 380.747246 
L 277.614545 380.431613 
L 281.221818 380.115972 
L 284.829091 379.800334 
L 288.436364 379.48471 
L 292.043636 379.169053 
L 295.650909 378.853415 
L 299.258182 378.537787 
L 302.865455 378.222166 
L 306.472727 377.906526 
L 310.08 377.590871 
L 313.687273 377.313333 
L 317.294545 377.05622 
L 320.901818 377.209731 
L 324.509091 377.77201 
L 328.116364 378.334311 
L 331.723636 378.896648 
L 335.330909 379.458967 
L 338.938182 380.021267 
L 342.545455 380.583606 
L 345.239965 381.003636 
L 346.152727 381.145919 
L 349.76 381.708239 
L 353.367273 382.270573 
L 356.974545 382.832854 
L 360.581818 381.973873 
L 361.380088 381.003636 
L 360.581818 379.969935 
L 357.98783 376.610909 
L 356.974545 375.298763 
L 354.595579 372.218182 
L 353.367273 370.627624 
L 351.203302 367.825455 
L 349.76 365.956482 
L 347.811078 363.432727 
L 346.152727 361.285291 
L 344.791954 359.04 
L 344.221423 354.647273 
L 343.940792 350.254545 
L 343.660168 345.861818 
L 343.37955 341.469091 
L 343.130948 337.076364 
L 344.962686 332.683636 
L 346.152727 332.070654 
L 349.76 330.212586 
L 353.367273 328.354561 
L 353.490851 328.290909 
L 356.974545 326.496545 
L 360.581818 324.63847 
L 362.019066 323.898182 
L 364.189091 322.780447 
L 367.796364 320.922327 
L 370.547209 319.505455 
L 371.403636 319.064334 
L 375.010909 317.206235 
L 378.618182 315.348227 
L 379.075383 315.112727 
L 382.225455 313.490157 
L 385.832727 311.632123 
L 387.603598 310.72 
L 389.44 309.774106 
L 393.047273 307.91603 
L 396.131688 306.327273 
L 396.654545 306.057957 
L 400.261818 304.199921 
L 403.869091 302.341857 
L 404.659884 301.934545 
L 407.476364 300.483883 
L 411.083636 298.625753 
L 413.188064 297.541818 
L 414.690909 296.767737 
L 418.298182 294.909685 
L 421.716173 293.149091 
L 421.905455 293.051595 
L 425.512727 291.193572 
L 429.12 289.335546 
L 429.12 288.756364 
L 429.12 284.363636 
L 429.12 279.970909 
L 429.12 275.578182 
L 429.12 271.185455 
L 429.12 266.792727 
L 429.12 262.4 
L 429.12 258.007273 
L 429.12 253.614545 
L 429.12 249.221818 
L 429.12 244.829091 
L 429.12 240.436364 
L 429.12 236.043636 
L 429.12 231.650909 
L 429.12 227.258182 
L 429.12 222.865455 
L 429.12 218.472727 
L 429.12 214.08 
L 429.12 209.687273 
L 429.12 205.294545 
L 429.12 200.901818 
L 429.12 196.509091 
L 429.12 192.116364 
L 429.12 189.092488 
L 425.903445 187.723636 
L 425.512727 187.598511 
L 421.905455 186.443312 
L 418.298182 185.288108 
L 414.690909 184.132892 
L 412.186634 183.330909 
L 411.083636 182.977678 
L 407.476364 181.822455 
L 403.869091 180.667246 
L 400.261818 179.512035 
L 398.148356 178.938182 
L 396.654545 178.555961 
L 393.047273 177.738463 
L 389.44 177.331952 
L 385.832727 177.251455 
L 382.225455 177.17097 
L 378.618182 177.090468 
L 375.010909 177.009973 
L 371.403636 176.929479 
L 367.796364 176.848994 
L 364.189091 176.76849 
L 360.581818 176.687997 
L 356.974545 176.607498 
L 353.367273 176.527016 
L 349.76 176.446507 
L 346.152727 176.366022 
L 342.545455 176.285515 
L 338.938182 176.205025 
L 335.330909 176.124536 
L 331.723636 176.044036 
L 328.116364 175.963545 
L 324.509091 175.88306 
L 320.901818 175.802554 
L 317.294545 175.72206 
L 313.687273 175.641571 
L 311.497854 174.545455 
L 311.895258 170.152727 
L 312.509964 165.76 
L 313.124659 161.367273 
L 313.687273 157.346807 
L 313.739366 156.974545 
L 314.354067 152.581818 
L 314.968759 148.189091 
L 315.583466 143.796364 
L 316.198165 139.403636 
L 316.812868 135.010909 
L 317.294545 131.568749 
L 317.427564 130.618182 
L 318.042254 126.225455 
L 318.656975 121.832727 
L 319.271682 117.44 
L 319.886376 113.047273 
L 320.501092 108.654545 
L 320.901818 105.790911 
L 321.115793 104.261818 
L 321.734271 99.869091 
L 322.369361 95.476364 
L 323.005911 91.083636 
L 323.64243 86.690909 
L 324.278977 82.298182 
L 324.509091 80.710149 
L 324.923084 77.905455 
L 325.576874 73.512727 
L 326.237322 69.12 
L 324.509091 69.12 
L 320.901818 69.12 
L 317.294545 69.12 
L 313.687273 69.12 
L 310.08 69.12 
L 306.472727 69.12 
L 302.865455 69.12 
L 299.258182 69.12 
L 295.650909 69.12 
L 292.122404 69.12 
L 292.043636 69.663562 
L 291.485858 73.512727 
L 290.849332 77.905455 
L 290.212806 82.298182 
L 289.576266 86.690909 
L 288.939744 91.083636 
L 288.436364 94.557418 
L 288.303199 95.476364 
L 287.666661 99.869091 
L 287.030137 104.261818 
L 286.393604 108.654545 
L 285.757061 113.047273 
L 285.120521 117.44 
L 284.829091 119.458219 
L 284.486001 121.832727 
L 283.870434 126.225455 
L 283.255738 130.618182 
L 282.64104 135.010909 
L 282.026328 139.403636 
L 281.41164 143.796364 
L 281.221818 145.152828 
L 280.796926 148.189091 
L 280.18223 152.581818 
L 279.567537 156.974545 
L 278.952831 161.367273 
L 278.338131 165.76 
L 277.723435 170.152727 
L 277.614545 170.930859 
L 277.108728 174.545455 
L 276.494018 178.938182 
L 275.879322 183.330909 
L 275.108407 187.723636 
L 274.321166 192.116364 
L 277.614545 194.87929 
L 281.221818 195.351425 
L 284.829091 195.414139 
L 288.436364 195.476851 
L 292.043636 195.539595 
L 295.650909 195.60229 
L 299.258182 195.665022 
L 302.865455 195.727748 
L 306.472727 195.790461 
L 310.08 195.853185 
L 313.687273 195.915902 
L 317.294545 195.978616 
L 320.901818 196.041332 
L 324.509091 196.104872 
L 328.116364 196.168891 
L 331.723636 196.248583 
L 335.330909 196.329076 
L 338.938182 196.409577 
L 342.545455 196.490067 
L 343.398046 196.509091 
L 346.152727 196.571694 
L 349.76 196.656594 
L 353.367273 196.744978 
L 356.974545 196.837072 
L 360.581818 196.933098 
L 364.189091 197.033352 
L 367.796364 197.138073 
L 371.403636 197.247603 
L 375.010909 197.494233 
L 378.618182 198.540515 
L 382.225455 200.378334 
L 383.085487 200.901818 
L 385.832727 202.817364 
L 389.385491 205.294545 
L 389.44 205.332552 
L 393.047273 207.847786 
L 395.685428 209.687273 
L 396.654545 210.362996 
L 400.261818 212.878181 
L 401.985459 214.08 
L 403.869091 215.393389 
L 407.476364 217.90861 
L 408.285405 218.472727 
L 411.083636 220.423823 
L 414.58538 222.865455 
L 414.690909 223.081632 
L 418.298182 226.968814 
L 418.829698 227.258182 
L 418.298182 227.531949 
L 414.690909 229.390002 
L 411.083636 231.248044 
L 410.301484 231.650909 
L 407.476364 233.106077 
L 403.869091 234.964121 
L 401.773283 236.043636 
L 400.261818 236.822162 
L 396.654545 238.680229 
L 393.24517 240.436364 
L 393.047273 240.5383 
L 389.44 242.396326 
L 385.832727 244.254379 
L 384.716961 244.829091 
L 382.225455 246.112426 
L 378.618182 247.970503 
L 376.188817 249.221818 
L 375.010909 249.828528 
L 371.403636 251.686548 
L 367.796364 253.544608 
L 367.660583 253.614545 
L 364.189091 255.402658 
L 360.581818 257.260777 
L 359.132536 258.007273 
L 356.974545 259.118792 
L 353.367273 260.976809 
L 350.604264 262.4 
L 349.76 262.834869 
L 346.152727 264.692912 
L 342.545455 266.550959 
L 342.076078 266.792727 
L 338.938182 268.409001 
L 335.330909 270.267057 
L 333.54789 271.185455 
L 331.723636 272.125087 
L 328.116364 273.983122 
L 325.019674 275.578182 
L 324.509091 275.841178 
L 320.901818 277.699238 
L 317.294545 279.557274 
L 316.491508 279.970909 
L 313.687273 281.415347 
L 310.08 283.273352 
L 307.963362 284.363636 
L 306.472727 285.131452 
L 302.865455 285.575964 
L 301.19744 288.756364 
L 301.845472 293.149091 
L 302.126102 297.541818 
L 302.406723 301.934545 
L 302.687326 306.327273 
L 302.865455 309.11545 
L 302.967965 310.72 
L 303.248576 315.112727 
L 303.529193 319.505455 
L 303.809835 323.898182 
L 304.090448 328.290909 
L 304.371065 332.683636 
L 304.651682 337.076364 
L 304.932312 341.469091 
L 305.212927 345.861818 
L 302.865455 349.433629 
L 299.258182 350.172131 
L 298.316274 350.254545 
L 295.650909 350.487756 
L 292.043636 350.803392 
L 288.436364 351.119043 
L 284.829091 351.434679 
L 281.221818 351.750289 
L 277.614545 352.06595 
L 274.007273 352.381571 
L 270.4 352.697203 
L 266.792727 353.012842 
L 263.185455 353.328473 
L 259.578182 353.644122 
L 255.970909 353.959745 
L 252.363636 354.455138 
L 252.228182 354.647273 
L 249.516574 359.04 
L 248.756364 360.271515 
L 246.80495 363.432727 
L 245.149091 366.115164 
L 244.093337 367.825455 
L 241.541818 371.958811 
L 241.381709 372.218182 
L 238.670101 376.610909 
L 237.934545 377.802485 
L 235.958488 381.003636 
L 234.327273 383.646155 
L 233.246876 385.396364 
L 230.72 389.489806 
L 230.535252 389.789091 
L 227.823633 394.181818 
L 227.112727 395.333476 
L 225.112021 398.574545 
L 223.505455 401.177119 
L 222.400397 402.967273 
L 219.898182 407.020766 
L 219.688775 407.36 
L 216.977172 411.752727 
L 216.290909 412.864444 
L 214.265536 416.145455 
L 212.683636 418.708131 
L 211.7926 420.538182 
L 210.287861 424.930909 
L 209.076364 428.488764 
L 208.792076 429.323636 
L 207.2963 433.716364 
L 205.800504 438.109091 
L 205.469091 439.082358 
L 204.304717 442.501818 
L 202.808925 446.894545 
L 201.861818 449.675946 
L 201.31314 451.287273 
L 199.817362 455.68 
L 198.562603 460.072727 
L 198.254545 461.736152 
L 197.742037 464.465455 
L 196.48042 468.858182 
L 194.647273 472.401941 
L 194.000458 473.250909 
L 191.04 477.136661 
L 190.653743 477.643636 
L 187.432727 481.871322 
L 187.306985 482.036364 
L 183.960219 486.429091 
L 183.825455 486.605973 
L 180.613454 490.821818 
L 180.218182 491.340631 
L 177.266694 495.214545 
L 176.610909 496.07528 
L 173.919921 499.607273 
L 173.003636 500.809947 
L 170.573182 504 
z
" style="fill:#dddcdc;"/>
    <path clip-path="url(#pa0ee576e4d)" d="M 73.476579 451.287273 
L 75.607273 447.590422 
L 76.008364 446.894545 
L 78.540157 442.501818 
L 79.214545 441.331769 
L 81.072061 438.109091 
L 82.821818 435.073196 
L 83.603831 433.716364 
L 86.135658 429.323636 
L 86.429091 428.814524 
L 88.667473 424.930909 
L 90.036364 422.555895 
L 91.199312 420.538182 
L 93.643636 416.297219 
L 93.731108 416.145455 
L 96.262913 411.752727 
L 97.250909 410.038617 
L 98.794815 407.36 
L 100.858182 403.779935 
L 101.326569 402.967273 
L 103.858457 398.574545 
L 104.465455 397.521358 
L 106.390184 394.181818 
L 108.072727 391.262712 
L 108.92208 389.789091 
L 111.453857 385.396364 
L 111.68 385.004001 
L 113.985685 381.003636 
L 115.287273 378.745305 
L 116.517455 376.610909 
L 118.894545 372.486642 
L 119.049275 372.218182 
L 121.581133 367.825455 
L 122.501818 366.228051 
L 124.112929 363.432727 
L 126.109091 359.969381 
L 126.644763 359.04 
L 129.176555 354.647273 
L 129.716364 353.710702 
L 131.708399 350.254545 
L 133.323636 347.45208 
L 134.240212 345.861818 
L 136.772022 341.469091 
L 136.930909 341.19342 
L 139.303839 337.076364 
L 140.538182 334.934793 
L 144.145455 334.302724 
L 147.752727 336.525289 
L 148.647143 337.076364 
L 151.36 338.747806 
L 154.967273 340.970308 
L 155.776828 341.469091 
L 158.574545 343.192848 
L 162.181818 345.415381 
L 162.9064 345.861818 
L 165.789091 347.637926 
L 169.396364 349.104909 
L 173.003636 348.486945 
L 176.610909 347.86889 
L 180.218182 347.250891 
L 183.825455 346.632841 
L 187.432727 346.014741 
L 188.325312 345.861818 
L 191.04 345.396735 
L 194.647273 344.778708 
L 198.254545 344.160687 
L 201.861818 343.54262 
L 205.469091 342.924572 
L 209.076364 342.306606 
L 212.683636 341.688521 
L 213.964469 341.469091 
L 216.290909 341.070531 
L 219.898182 340.452438 
L 223.505455 339.83446 
L 227.112727 339.21643 
L 230.72 338.59837 
L 234.327273 337.980387 
L 237.934545 337.362334 
L 239.603818 337.076364 
L 241.260048 332.683636 
L 240.094209 328.290909 
L 238.792059 323.898182 
L 237.934545 321.005448 
L 237.489891 319.505455 
L 236.187726 315.112727 
L 234.885566 310.72 
L 234.327273 308.836643 
L 233.583408 306.327273 
L 232.281261 301.934545 
L 230.979095 297.541818 
L 230.72 296.667774 
L 229.676941 293.149091 
L 228.374776 288.756364 
L 227.112727 284.499049 
L 227.072585 284.363636 
L 225.770458 279.970909 
L 224.468285 275.578182 
L 223.505455 272.330163 
L 223.166122 271.185455 
L 221.863972 266.792727 
L 220.561809 262.4 
L 219.898182 260.161313 
L 219.259641 258.007273 
L 217.957491 253.614545 
L 216.655302 249.221818 
L 216.290909 247.992558 
L 215.353163 244.829091 
L 214.050991 240.436364 
L 212.748845 236.043636 
L 212.683636 235.823659 
L 211.446696 231.650909 
L 209.076364 229.268624 
L 205.469091 228.076066 
L 201.861818 227.652066 
L 198.254545 227.312925 
L 197.672279 227.258182 
L 194.647273 226.97378 
L 191.04 226.63463 
L 187.432727 226.295485 
L 183.825455 225.956343 
L 180.218182 225.617192 
L 176.610909 225.278048 
L 173.003636 224.938904 
L 169.396364 224.599755 
L 165.789091 224.260611 
L 162.181818 224.480762 
L 158.574545 226.721799 
L 157.736466 227.258182 
L 154.967273 229.00999 
L 151.36 231.257193 
L 150.681679 231.650909 
L 147.752727 233.329263 
L 144.145455 235.437822 
L 143.088386 236.043636 
L 140.538182 237.505181 
L 136.930909 239.57254 
L 135.423645 240.436364 
L 133.323636 241.639895 
L 129.716364 243.707267 
L 127.758936 244.829091 
L 126.109091 245.77462 
L 122.501818 247.841954 
L 120.094147 249.221818 
L 118.894545 249.909324 
L 115.287273 251.746174 
L 112.248649 253.614545 
L 111.68 254.093471 
L 108.072727 256.215221 
L 104.465455 257.242413 
L 101.779392 258.007273 
L 100.858182 258.249323 
L 97.250909 259.247761 
L 93.643636 260.32397 
L 90.036364 261.351156 
L 86.429091 262.378348 
L 86.353052 262.4 
L 82.821818 263.328015 
L 79.214545 264.355806 
L 75.607273 265.459909 
L 72 266.487068 
L 72 266.792727 
L 72 271.185455 
L 72 275.578182 
L 72 279.970909 
L 72 284.363636 
L 72 288.756364 
L 72 293.149091 
L 72 293.767939 
L 74.342797 293.149091 
L 75.607273 292.815079 
L 79.214545 291.862191 
L 82.821818 290.909332 
L 86.429091 289.956469 
L 90.036364 289.157023 
L 90.972271 288.756364 
L 93.643636 288.050728 
L 97.250909 287.852961 
L 99.139459 288.756364 
L 97.250909 292.032976 
L 96.607622 293.149091 
L 94.075806 297.541818 
L 93.643636 298.291626 
L 91.543974 301.934545 
L 90.036364 304.550334 
L 89.012206 306.327273 
L 86.480359 310.72 
L 86.429091 310.808952 
L 83.948537 315.112727 
L 82.821818 317.067541 
L 81.416665 319.505455 
L 79.214545 323.326225 
L 78.884902 323.898182 
L 76.353038 328.290909 
L 75.607273 329.584866 
L 73.821248 332.683636 
L 72 335.843486 
L 72 337.076364 
L 72 341.469091 
L 72 345.861818 
L 72 350.254545 
L 72 354.647273 
L 72 359.04 
L 72 363.432727 
L 72 367.825455 
L 72 372.218182 
L 72 376.610909 
L 72 381.003636 
L 72 385.396364 
L 72 389.789091 
L 72 394.181818 
L 72 398.574545 
L 72 402.967273 
L 72 407.36 
L 72 411.752727 
L 72 416.145455 
L 72 420.538182 
L 72 424.930909 
L 72 429.323636 
L 72 433.716364 
L 72 438.109091 
L 72 442.501818 
L 72 446.894545 
L 72 451.287273 
L 72 453.849193 
z
M 154.176516 258.007273 
L 154.967273 257.561869 
L 158.574545 257.372696 
L 160.53091 253.614545 
L 162.181818 252.568824 
L 165.789091 251.310561 
L 167.465803 249.221818 
L 169.396364 247.998959 
L 173.003636 246.116858 
L 174.40073 244.829091 
L 176.610909 243.809236 
L 180.218182 244.077352 
L 181.499479 244.829091 
L 182.648761 249.221818 
L 183.825455 252.681031 
L 184.101906 253.614545 
L 183.825455 254.367551 
L 180.218182 254.985554 
L 176.610909 255.603602 
L 173.003636 256.221613 
L 169.396364 256.839677 
L 165.789091 257.457704 
L 162.581474 258.007273 
L 162.181818 258.075746 
L 158.574545 258.693723 
L 154.967273 259.311799 
z
" style="fill:#dddcdc;"/>
    <path clip-path="url(#pa0ee576e4d)" d="M 299.258182 285.536954 
L 301.157118 284.363636 
L 299.258182 281.499693 
L 298.244497 279.970909 
L 295.650909 276.059347 
L 295.331878 275.578182 
L 292.419223 271.185455 
L 292.043636 270.619022 
L 289.506547 266.792727 
L 288.436364 265.178705 
L 286.59391 262.4 
L 284.829091 259.738477 
L 283.681165 258.007273 
L 281.221818 254.298085 
L 280.7686 253.614545 
L 277.855919 249.221818 
L 277.614545 248.857774 
L 274.94332 244.829091 
L 274.007273 243.417484 
L 272.030541 240.436364 
L 270.4 237.977127 
L 269.118024 236.043636 
L 266.792727 232.536718 
L 266.205386 231.650909 
L 263.292645 227.258182 
L 263.185455 227.096523 
L 260.38009 222.865455 
L 259.578182 221.656009 
L 257.467446 218.472727 
L 255.970909 216.21588 
L 254.554657 214.08 
L 252.363636 210.775321 
L 251.642222 209.687273 
L 248.756364 209.150021 
L 245.149091 209.33025 
L 244.109228 209.687273 
L 241.541818 211.154472 
L 237.934545 211.820806 
L 234.327273 213.41164 
L 233.541736 214.08 
L 230.793807 218.472727 
L 234.327273 221.975468 
L 235.225083 222.865455 
L 237.934545 225.551335 
L 239.656383 227.258182 
L 241.541818 229.127207 
L 244.087647 231.650909 
L 245.149091 232.703115 
L 248.519016 236.043636 
L 248.756364 236.278915 
L 252.363636 239.854785 
L 252.950334 240.436364 
L 255.970909 243.430682 
L 257.381581 244.829091 
L 259.578182 247.006557 
L 261.812929 249.221818 
L 263.185455 250.582405 
L 266.244218 253.614545 
L 266.792727 254.158275 
L 270.4 257.734169 
L 270.675503 258.007273 
L 274.007273 261.310033 
L 275.106818 262.4 
L 277.614545 264.885903 
L 279.538104 266.792727 
L 281.221818 268.461786 
L 283.969399 271.185455 
L 284.829091 272.037665 
L 288.400765 275.578182 
L 288.436364 275.61347 
L 292.043636 278.482047 
L 293.464761 279.970909 
L 295.650909 281.856552 
L 297.97714 284.363636 
z
" style="fill:#dddcdc;"/>
   </g>
   <g id="PathCollection_6">
    <path clip-path="url(#pa0ee576e4d)" d="M 75.607273 504 
L 79.214545 504 
L 82.821818 504 
L 86.429091 504 
L 90.036364 504 
L 93.643636 504 
L 97.250909 504 
L 100.858182 504 
L 104.465455 504 
L 108.072727 504 
L 111.109176 504 
L 111.68 503.009576 
L 113.640958 499.607273 
L 115.287273 496.750984 
L 116.172839 495.214545 
L 118.704589 490.821818 
L 118.894545 490.492256 
L 121.236508 486.429091 
L 122.501818 484.233628 
L 123.768221 482.036364 
L 126.109091 477.97502 
L 126.30009 477.643636 
L 128.831893 473.250909 
L 129.716364 471.716356 
L 131.363772 468.858182 
L 133.323636 465.457667 
L 133.895508 464.465455 
L 136.427317 460.072727 
L 136.930909 459.19903 
L 138.959218 455.68 
L 140.538182 452.940482 
L 141.491051 451.287273 
L 144.022747 446.894545 
L 144.145455 446.681648 
L 146.554588 442.501818 
L 147.752727 440.423077 
L 149.086442 438.109091 
L 151.36 434.164522 
L 151.61831 433.716364 
L 154.150118 429.323636 
L 154.967273 427.905836 
L 156.681865 424.930909 
L 158.574545 421.647122 
L 159.213711 420.538182 
L 161.745526 416.145455 
L 162.181818 415.388485 
L 164.277365 411.752727 
L 165.789091 409.129853 
L 166.80919 407.36 
L 169.34097 402.967273 
L 169.396364 402.914946 
L 169.505859 402.967273 
L 173.003636 404.326493 
L 176.610909 406.549019 
L 177.927182 407.36 
L 180.218182 408.771549 
L 183.825455 410.994085 
L 185.056736 411.752727 
L 187.432727 413.216648 
L 191.04 415.439162 
L 192.186331 416.145455 
L 194.647273 417.906928 
L 195.359327 420.538182 
L 194.647273 422.629277 
L 193.86353 424.930909 
L 192.367754 429.323636 
L 191.04 433.222883 
L 190.871962 433.716364 
L 189.376174 438.109091 
L 187.880399 442.501818 
L 187.432727 443.730343 
L 185.391298 446.894545 
L 183.825455 448.609496 
L 181.38051 451.287273 
L 180.218182 452.560264 
L 177.36969 455.68 
L 176.610909 456.511045 
L 173.358892 460.072727 
L 173.003636 460.461811 
L 169.396364 464.412552 
L 169.348061 464.465455 
L 165.789091 468.36333 
L 165.337264 468.858182 
L 162.181818 472.314083 
L 161.32644 473.250909 
L 158.574545 476.264879 
L 157.315672 477.643636 
L 154.967273 480.215656 
L 153.304853 482.036364 
L 151.36 484.166406 
L 149.294039 486.429091 
L 147.752727 488.117167 
L 145.283242 490.821818 
L 144.145455 492.067966 
L 141.27245 495.214545 
L 140.538182 496.110724 
L 137.304252 499.607273 
L 136.930909 500.09301 
L 133.543262 504 
L 136.930909 504 
L 140.538182 504 
L 144.145455 504 
L 147.752727 504 
L 151.36 504 
L 154.967273 504 
L 158.574545 504 
L 162.181818 504 
L 165.789091 504 
L 169.396364 504 
L 170.573182 504 
L 173.003636 500.809947 
L 173.919921 499.607273 
L 176.610909 496.07528 
L 177.266694 495.214545 
L 180.218182 491.340631 
L 180.613454 490.821818 
L 183.825455 486.605973 
L 183.960219 486.429091 
L 187.306985 482.036364 
L 187.432727 481.871322 
L 190.653743 477.643636 
L 191.04 477.136661 
L 194.000458 473.250909 
L 194.647273 472.401941 
L 196.48042 468.858182 
L 197.742037 464.465455 
L 198.254545 461.736152 
L 198.562603 460.072727 
L 199.817362 455.68 
L 201.31314 451.287273 
L 201.861818 449.675946 
L 202.808925 446.894545 
L 204.304717 442.501818 
L 205.469091 439.082358 
L 205.800504 438.109091 
L 207.2963 433.716364 
L 208.792076 429.323636 
L 209.076364 428.488764 
L 210.287861 424.930909 
L 211.7926 420.538182 
L 212.683636 418.708131 
L 214.265536 416.145455 
L 216.290909 412.864444 
L 216.977172 411.752727 
L 219.688775 407.36 
L 219.898182 407.020766 
L 222.400397 402.967273 
L 223.505455 401.177119 
L 225.112021 398.574545 
L 227.112727 395.333476 
L 227.823633 394.181818 
L 230.535252 389.789091 
L 230.72 389.489806 
L 233.246876 385.396364 
L 234.327273 383.646155 
L 235.958488 381.003636 
L 237.934545 377.802485 
L 238.670101 376.610909 
L 241.381709 372.218182 
L 241.541818 371.958811 
L 244.093337 367.825455 
L 245.149091 366.115164 
L 246.80495 363.432727 
L 248.756364 360.271515 
L 249.516574 359.04 
L 252.228182 354.647273 
L 252.363636 354.455138 
L 255.970909 353.959745 
L 259.578182 353.644122 
L 263.185455 353.328473 
L 266.792727 353.012842 
L 270.4 352.697203 
L 274.007273 352.381571 
L 277.614545 352.06595 
L 281.221818 351.750289 
L 284.829091 351.434679 
L 288.436364 351.119043 
L 292.043636 350.803392 
L 295.650909 350.487756 
L 298.316274 350.254545 
L 299.258182 350.172131 
L 302.865455 349.433629 
L 305.212927 345.861818 
L 304.932312 341.469091 
L 304.651682 337.076364 
L 304.371065 332.683636 
L 304.090448 328.290909 
L 303.809835 323.898182 
L 303.529193 319.505455 
L 303.248576 315.112727 
L 302.967965 310.72 
L 302.865455 309.11545 
L 302.687326 306.327273 
L 302.406723 301.934545 
L 302.126102 297.541818 
L 301.845472 293.149091 
L 301.19744 288.756364 
L 302.865455 285.575964 
L 306.472727 285.131452 
L 307.963362 284.363636 
L 310.08 283.273352 
L 313.687273 281.415347 
L 316.491508 279.970909 
L 317.294545 279.557274 
L 320.901818 277.699238 
L 324.509091 275.841178 
L 325.019674 275.578182 
L 328.116364 273.983122 
L 331.723636 272.125087 
L 333.54789 271.185455 
L 335.330909 270.267057 
L 338.938182 268.409001 
L 342.076078 266.792727 
L 342.545455 266.550959 
L 346.152727 264.692912 
L 349.76 262.834869 
L 350.604264 262.4 
L 353.367273 260.976809 
L 356.974545 259.118792 
L 359.132536 258.007273 
L 360.581818 257.260777 
L 364.189091 255.402658 
L 367.660583 253.614545 
L 367.796364 253.544608 
L 371.403636 251.686548 
L 375.010909 249.828528 
L 376.188817 249.221818 
L 378.618182 247.970503 
L 382.225455 246.112426 
L 384.716961 244.829091 
L 385.832727 244.254379 
L 389.44 242.396326 
L 393.047273 240.5383 
L 393.24517 240.436364 
L 396.654545 238.680229 
L 400.261818 236.822162 
L 401.773283 236.043636 
L 403.869091 234.964121 
L 407.476364 233.106077 
L 410.301484 231.650909 
L 411.083636 231.248044 
L 414.690909 229.390002 
L 418.298182 227.531949 
L 418.829698 227.258182 
L 418.298182 226.968814 
L 414.690909 223.081632 
L 414.58538 222.865455 
L 411.083636 220.423823 
L 408.285405 218.472727 
L 407.476364 217.90861 
L 403.869091 215.393389 
L 401.985459 214.08 
L 400.261818 212.878181 
L 396.654545 210.362996 
L 395.685428 209.687273 
L 393.047273 207.847786 
L 389.44 205.332552 
L 389.385491 205.294545 
L 385.832727 202.817364 
L 383.085487 200.901818 
L 382.225455 200.378334 
L 378.618182 198.540515 
L 375.010909 197.494233 
L 371.403636 197.247603 
L 367.796364 197.138073 
L 364.189091 197.033352 
L 360.581818 196.933098 
L 356.974545 196.837072 
L 353.367273 196.744978 
L 349.76 196.656594 
L 346.152727 196.571694 
L 343.398046 196.509091 
L 342.545455 196.490067 
L 338.938182 196.409577 
L 335.330909 196.329076 
L 331.723636 196.248583 
L 328.116364 196.168891 
L 324.509091 196.104872 
L 320.901818 196.041332 
L 317.294545 195.978616 
L 313.687273 195.915902 
L 310.08 195.853185 
L 306.472727 195.790461 
L 302.865455 195.727748 
L 299.258182 195.665022 
L 295.650909 195.60229 
L 292.043636 195.539595 
L 288.436364 195.476851 
L 284.829091 195.414139 
L 281.221818 195.351425 
L 277.614545 194.87929 
L 274.321166 192.116364 
L 275.108407 187.723636 
L 275.879322 183.330909 
L 276.494018 178.938182 
L 277.108728 174.545455 
L 277.614545 170.930859 
L 277.723435 170.152727 
L 278.338131 165.76 
L 278.952831 161.367273 
L 279.567537 156.974545 
L 280.18223 152.581818 
L 280.796926 148.189091 
L 281.221818 145.152828 
L 281.41164 143.796364 
L 282.026328 139.403636 
L 282.64104 135.010909 
L 283.255738 130.618182 
L 283.870434 126.225455 
L 284.486001 121.832727 
L 284.829091 119.458219 
L 285.120521 117.44 
L 285.757061 113.047273 
L 286.393604 108.654545 
L 287.030137 104.261818 
L 287.666661 99.869091 
L 288.303199 95.476364 
L 288.436364 94.557418 
L 288.939744 91.083636 
L 289.576266 86.690909 
L 290.212806 82.298182 
L 290.849332 77.905455 
L 291.485858 73.512727 
L 292.043636 69.663562 
L 292.122404 69.12 
L 292.043636 69.12 
L 288.436364 69.12 
L 284.829091 69.12 
L 281.221818 69.12 
L 277.614545 69.12 
L 274.007273 69.12 
L 270.4 69.12 
L 266.792727 69.12 
L 263.185455 69.12 
L 259.578182 69.12 
L 258.056248 69.12 
L 257.419708 73.512727 
L 256.783185 77.905455 
L 256.146665 82.298182 
L 255.970909 83.511032 
L 255.510104 86.690909 
L 254.873572 91.083636 
L 254.237041 95.476364 
L 253.600489 99.869091 
L 252.963959 104.261818 
L 252.363636 108.404693 
L 252.327432 108.654545 
L 251.690904 113.047273 
L 251.054366 117.44 
L 250.417832 121.832727 
L 249.78129 126.225455 
L 249.144763 130.618182 
L 248.756364 133.298619 
L 248.508248 135.010909 
L 247.871698 139.403636 
L 247.240586 143.796364 
L 246.62511 148.189091 
L 246.010405 152.581818 
L 245.395712 156.974545 
L 245.149091 158.736932 
L 244.726458 161.367273 
L 243.967521 165.76 
L 243.13361 170.152727 
L 242.198448 174.545455 
L 241.541818 177.484115 
L 241.216914 178.938182 
L 240.235405 183.330909 
L 239.253891 187.723636 
L 237.934545 188.46291 
L 234.327273 189.952784 
L 230.72 191.201208 
L 228.05458 192.116364 
L 227.112727 192.439741 
L 223.505455 193.678266 
L 219.898182 194.916779 
L 217.707851 196.509091 
L 216.290909 198.173059 
L 214.089265 200.901818 
L 212.683636 202.643981 
L 210.545065 205.294545 
L 209.076364 207.114855 
L 205.874406 209.687273 
L 205.469091 209.845733 
L 203.783606 209.687273 
L 201.861818 209.506597 
L 198.254545 209.167436 
L 194.647273 208.828296 
L 191.04 208.489155 
L 187.432727 208.150004 
L 183.825455 207.810865 
L 180.218182 207.471721 
L 176.610909 207.132568 
L 173.003636 206.678528 
L 169.396364 206.04837 
L 165.789091 205.363974 
L 165.423145 205.294545 
L 162.181818 204.679585 
L 158.574545 203.995187 
L 154.967273 203.310795 
L 151.36 202.458409 
L 147.752727 201.440397 
L 144.145455 201.994782 
L 140.538182 203.59201 
L 136.930909 205.217779 
L 136.757347 205.294545 
L 133.323636 206.792981 
L 129.716364 208.408793 
L 126.825901 209.687273 
L 126.109091 209.99938 
L 122.501818 211.599817 
L 118.894545 213.195327 
L 116.894409 214.08 
L 115.287273 214.790752 
L 111.68 216.386353 
L 108.072727 217.981877 
L 106.96297 218.472727 
L 104.465455 219.577387 
L 100.858182 221.172879 
L 97.250909 222.769308 
L 96.89345 222.865455 
L 93.643636 223.73854 
L 90.036364 224.707628 
L 86.429091 225.676734 
L 82.821818 226.645827 
L 80.542451 227.258182 
L 79.214545 227.614925 
L 75.607273 228.584024 
L 72 229.553112 
L 72 231.650909 
L 72 236.043636 
L 72 240.436364 
L 72 244.829091 
L 72 249.221818 
L 72 253.614545 
L 72 258.007273 
L 72 262.4 
L 72 266.487068 
L 75.607273 265.459909 
L 79.214545 264.355806 
L 82.821818 263.328015 
L 86.353052 262.4 
L 86.429091 262.378348 
L 90.036364 261.351156 
L 93.643636 260.32397 
L 97.250909 259.247761 
L 100.858182 258.249323 
L 101.779392 258.007273 
L 104.465455 257.242413 
L 108.072727 256.215221 
L 111.68 254.093471 
L 112.248649 253.614545 
L 115.287273 251.746174 
L 118.894545 249.909324 
L 120.094147 249.221818 
L 122.501818 247.841954 
L 126.109091 245.77462 
L 127.758936 244.829091 
L 129.716364 243.707267 
L 133.323636 241.639895 
L 135.423645 240.436364 
L 136.930909 239.57254 
L 140.538182 237.505181 
L 143.088386 236.043636 
L 144.145455 235.437822 
L 147.752727 233.329263 
L 150.681679 231.650909 
L 151.36 231.257193 
L 154.967273 229.00999 
L 157.736466 227.258182 
L 158.574545 226.721799 
L 162.181818 224.480762 
L 165.789091 224.260611 
L 169.396364 224.599755 
L 173.003636 224.938904 
L 176.610909 225.278048 
L 180.218182 225.617192 
L 183.825455 225.956343 
L 187.432727 226.295485 
L 191.04 226.63463 
L 194.647273 226.97378 
L 197.672279 227.258182 
L 198.254545 227.312925 
L 201.861818 227.652066 
L 205.469091 228.076066 
L 209.076364 229.268624 
L 211.446696 231.650909 
L 212.683636 235.823659 
L 212.748845 236.043636 
L 214.050991 240.436364 
L 215.353163 244.829091 
L 216.290909 247.992558 
L 216.655302 249.221818 
L 217.957491 253.614545 
L 219.259641 258.007273 
L 219.898182 260.161313 
L 220.561809 262.4 
L 221.863972 266.792727 
L 223.166122 271.185455 
L 223.505455 272.330163 
L 224.468285 275.578182 
L 225.770458 279.970909 
L 227.072585 284.363636 
L 227.112727 284.499049 
L 228.374776 288.756364 
L 229.676941 293.149091 
L 230.72 296.667774 
L 230.979095 297.541818 
L 232.281261 301.934545 
L 233.583408 306.327273 
L 234.327273 308.836643 
L 234.885566 310.72 
L 236.187726 315.112727 
L 237.489891 319.505455 
L 237.934545 321.005448 
L 238.792059 323.898182 
L 240.094209 328.290909 
L 241.260048 332.683636 
L 239.603818 337.076364 
L 237.934545 337.362334 
L 234.327273 337.980387 
L 230.72 338.59837 
L 227.112727 339.21643 
L 223.505455 339.83446 
L 219.898182 340.452438 
L 216.290909 341.070531 
L 213.964469 341.469091 
L 212.683636 341.688521 
L 209.076364 342.306606 
L 205.469091 342.924572 
L 201.861818 343.54262 
L 198.254545 344.160687 
L 194.647273 344.778708 
L 191.04 345.396735 
L 188.325312 345.861818 
L 187.432727 346.014741 
L 183.825455 346.632841 
L 180.218182 347.250891 
L 176.610909 347.86889 
L 173.003636 348.486945 
L 169.396364 349.104909 
L 165.789091 347.637926 
L 162.9064 345.861818 
L 162.181818 345.415381 
L 158.574545 343.192848 
L 155.776828 341.469091 
L 154.967273 340.970308 
L 151.36 338.747806 
L 148.647143 337.076364 
L 147.752727 336.525289 
L 144.145455 334.302724 
L 140.538182 334.934793 
L 139.303839 337.076364 
L 136.930909 341.19342 
L 136.772022 341.469091 
L 134.240212 345.861818 
L 133.323636 347.45208 
L 131.708399 350.254545 
L 129.716364 353.710702 
L 129.176555 354.647273 
L 126.644763 359.04 
L 126.109091 359.969381 
L 124.112929 363.432727 
L 122.501818 366.228051 
L 121.581133 367.825455 
L 119.049275 372.218182 
L 118.894545 372.486642 
L 116.517455 376.610909 
L 115.287273 378.745305 
L 113.985685 381.003636 
L 111.68 385.004001 
L 111.453857 385.396364 
L 108.92208 389.789091 
L 108.072727 391.262712 
L 106.390184 394.181818 
L 104.465455 397.521358 
L 103.858457 398.574545 
L 101.326569 402.967273 
L 100.858182 403.779935 
L 98.794815 407.36 
L 97.250909 410.038617 
L 96.262913 411.752727 
L 93.731108 416.145455 
L 93.643636 416.297219 
L 91.199312 420.538182 
L 90.036364 422.555895 
L 88.667473 424.930909 
L 86.429091 428.814524 
L 86.135658 429.323636 
L 83.603831 433.716364 
L 82.821818 435.073196 
L 81.072061 438.109091 
L 79.214545 441.331769 
L 78.540157 442.501818 
L 76.008364 446.894545 
L 75.607273 447.590422 
L 73.476579 451.287273 
L 72 453.849193 
L 72 455.68 
L 72 460.072727 
L 72 464.465455 
L 72 468.858182 
L 72 473.250909 
L 72 477.643636 
L 72 482.036364 
L 72 486.429091 
L 72 490.821818 
L 72 495.214545 
L 72 499.607273 
L 72 504 
z
M 297.97714 284.363636 
L 295.650909 281.856552 
L 293.464761 279.970909 
L 292.043636 278.482047 
L 288.436364 275.61347 
L 288.400765 275.578182 
L 284.829091 272.037665 
L 283.969399 271.185455 
L 281.221818 268.461786 
L 279.538104 266.792727 
L 277.614545 264.885903 
L 275.106818 262.4 
L 274.007273 261.310033 
L 270.675503 258.007273 
L 270.4 257.734169 
L 266.792727 254.158275 
L 266.244218 253.614545 
L 263.185455 250.582405 
L 261.812929 249.221818 
L 259.578182 247.006557 
L 257.381581 244.829091 
L 255.970909 243.430682 
L 252.950334 240.436364 
L 252.363636 239.854785 
L 248.756364 236.278915 
L 248.519016 236.043636 
L 245.149091 232.703115 
L 244.087647 231.650909 
L 241.541818 229.127207 
L 239.656383 227.258182 
L 237.934545 225.551335 
L 235.225083 222.865455 
L 234.327273 221.975468 
L 230.793807 218.472727 
L 233.541736 214.08 
L 234.327273 213.41164 
L 237.934545 211.820806 
L 241.541818 211.154472 
L 244.109228 209.687273 
L 245.149091 209.33025 
L 248.756364 209.150021 
L 251.642222 209.687273 
L 252.363636 210.775321 
L 254.554657 214.08 
L 255.970909 216.21588 
L 257.467446 218.472727 
L 259.578182 221.656009 
L 260.38009 222.865455 
L 263.185455 227.096523 
L 263.292645 227.258182 
L 266.205386 231.650909 
L 266.792727 232.536718 
L 269.118024 236.043636 
L 270.4 237.977127 
L 272.030541 240.436364 
L 274.007273 243.417484 
L 274.94332 244.829091 
L 277.614545 248.857774 
L 277.855919 249.221818 
L 280.7686 253.614545 
L 281.221818 254.298085 
L 283.681165 258.007273 
L 284.829091 259.738477 
L 286.59391 262.4 
L 288.436364 265.178705 
L 289.506547 266.792727 
L 292.043636 270.619022 
L 292.419223 271.185455 
L 295.331878 275.578182 
L 295.650909 276.059347 
L 298.244497 279.970909 
L 299.258182 281.499693 
L 301.157118 284.363636 
L 299.258182 285.536954 
z
" style="fill:#f3c8b2;"/>
   </g>
   <g id="PathCollection_7">
    <path clip-path="url(#pa0ee576e4d)" d="M 111.68 504 
L 115.287273 504 
L 118.894545 504 
L 122.501818 504 
L 126.109091 504 
L 129.716364 504 
L 133.323636 504 
L 133.543262 504 
L 136.930909 500.09301 
L 137.304252 499.607273 
L 140.538182 496.110724 
L 141.27245 495.214545 
L 144.145455 492.067966 
L 145.283242 490.821818 
L 147.752727 488.117167 
L 149.294039 486.429091 
L 151.36 484.166406 
L 153.304853 482.036364 
L 154.967273 480.215656 
L 157.315672 477.643636 
L 158.574545 476.264879 
L 161.32644 473.250909 
L 162.181818 472.314083 
L 165.337264 468.858182 
L 165.789091 468.36333 
L 169.348061 464.465455 
L 169.396364 464.412552 
L 173.003636 460.461811 
L 173.358892 460.072727 
L 176.610909 456.511045 
L 177.36969 455.68 
L 180.218182 452.560264 
L 181.38051 451.287273 
L 183.825455 448.609496 
L 185.391298 446.894545 
L 187.432727 443.730343 
L 187.880399 442.501818 
L 189.376174 438.109091 
L 190.871962 433.716364 
L 191.04 433.222883 
L 192.367754 429.323636 
L 193.86353 424.930909 
L 194.647273 422.629277 
L 195.359327 420.538182 
L 194.647273 417.906928 
L 192.186331 416.145455 
L 191.04 415.439162 
L 187.432727 413.216648 
L 185.056736 411.752727 
L 183.825455 410.994085 
L 180.218182 408.771549 
L 177.927182 407.36 
L 176.610909 406.549019 
L 173.003636 404.326493 
L 169.505859 402.967273 
L 169.396364 402.914946 
L 169.34097 402.967273 
L 166.80919 407.36 
L 165.789091 409.129853 
L 164.277365 411.752727 
L 162.181818 415.388485 
L 161.745526 416.145455 
L 159.213711 420.538182 
L 158.574545 421.647122 
L 156.681865 424.930909 
L 154.967273 427.905836 
L 154.150118 429.323636 
L 151.61831 433.716364 
L 151.36 434.164522 
L 149.086442 438.109091 
L 147.752727 440.423077 
L 146.554588 442.501818 
L 144.145455 446.681648 
L 144.022747 446.894545 
L 141.491051 451.287273 
L 140.538182 452.940482 
L 138.959218 455.68 
L 136.930909 459.19903 
L 136.427317 460.072727 
L 133.895508 464.465455 
L 133.323636 465.457667 
L 131.363772 468.858182 
L 129.716364 471.716356 
L 128.831893 473.250909 
L 126.30009 477.643636 
L 126.109091 477.97502 
L 123.768221 482.036364 
L 122.501818 484.233628 
L 121.236508 486.429091 
L 118.894545 490.492256 
L 118.704589 490.821818 
L 116.172839 495.214545 
L 115.287273 496.750984 
L 113.640958 499.607273 
L 111.68 503.009576 
L 111.109176 504 
z
" style="fill:#f6a586;"/>
    <path clip-path="url(#pa0ee576e4d)" d="M 75.607273 228.584024 
L 79.214545 227.614925 
L 80.542451 227.258182 
L 82.821818 226.645827 
L 86.429091 225.676734 
L 90.036364 224.707628 
L 93.643636 223.73854 
L 96.89345 222.865455 
L 97.250909 222.769308 
L 100.858182 221.172879 
L 104.465455 219.577387 
L 106.96297 218.472727 
L 108.072727 217.981877 
L 111.68 216.386353 
L 115.287273 214.790752 
L 116.894409 214.08 
L 118.894545 213.195327 
L 122.501818 211.599817 
L 126.109091 209.99938 
L 126.825901 209.687273 
L 129.716364 208.408793 
L 133.323636 206.792981 
L 136.757347 205.294545 
L 136.930909 205.217779 
L 140.538182 203.59201 
L 144.145455 201.994782 
L 147.752727 201.440397 
L 151.36 202.458409 
L 154.967273 203.310795 
L 158.574545 203.995187 
L 162.181818 204.679585 
L 165.423145 205.294545 
L 165.789091 205.363974 
L 169.396364 206.04837 
L 173.003636 206.678528 
L 176.610909 207.132568 
L 180.218182 207.471721 
L 183.825455 207.810865 
L 187.432727 208.150004 
L 191.04 208.489155 
L 194.647273 208.828296 
L 198.254545 209.167436 
L 201.861818 209.506597 
L 203.783606 209.687273 
L 205.469091 209.845733 
L 205.874406 209.687273 
L 209.076364 207.114855 
L 210.545065 205.294545 
L 212.683636 202.643981 
L 214.089265 200.901818 
L 216.290909 198.173059 
L 217.707851 196.509091 
L 219.898182 194.916779 
L 223.505455 193.678266 
L 227.112727 192.439741 
L 228.05458 192.116364 
L 230.72 191.201208 
L 234.327273 189.952784 
L 237.934545 188.46291 
L 239.253891 187.723636 
L 240.235405 183.330909 
L 241.216914 178.938182 
L 241.541818 177.484115 
L 242.198448 174.545455 
L 243.13361 170.152727 
L 243.967521 165.76 
L 244.726458 161.367273 
L 245.149091 158.736932 
L 245.395712 156.974545 
L 246.010405 152.581818 
L 246.62511 148.189091 
L 247.240586 143.796364 
L 247.871698 139.403636 
L 248.508248 135.010909 
L 248.756364 133.298619 
L 249.144763 130.618182 
L 249.78129 126.225455 
L 250.417832 121.832727 
L 251.054366 117.44 
L 251.690904 113.047273 
L 252.327432 108.654545 
L 252.363636 108.404693 
L 252.963959 104.261818 
L 253.600489 99.869091 
L 254.237041 95.476364 
L 254.873572 91.083636 
L 255.510104 86.690909 
L 255.970909 83.511032 
L 256.146665 82.298182 
L 256.783185 77.905455 
L 257.419708 73.512727 
L 258.056248 69.12 
L 255.970909 69.12 
L 252.363636 69.12 
L 248.756364 69.12 
L 245.149091 69.12 
L 241.541818 69.12 
L 237.934545 69.12 
L 234.327273 69.12 
L 230.72 69.12 
L 227.112727 69.12 
L 223.505455 69.12 
L 220.01156 69.12 
L 219.898182 69.714871 
L 219.174338 73.512727 
L 218.337137 77.905455 
L 217.49993 82.298182 
L 216.660845 86.690909 
L 216.290909 88.459028 
L 215.746273 91.083636 
L 214.805159 95.476364 
L 213.864061 99.869091 
L 212.922971 104.261818 
L 212.683636 105.378945 
L 211.981862 108.654545 
L 211.040751 113.047273 
L 210.09966 117.44 
L 209.158538 121.832727 
L 209.076364 122.216286 
L 208.217433 126.225455 
L 207.276329 130.618182 
L 206.335222 135.010909 
L 205.469091 139.053696 
L 205.39412 139.403636 
L 204.453019 143.796364 
L 203.511907 148.189091 
L 202.570817 152.581818 
L 201.861818 155.891126 
L 201.627082 156.974545 
L 200.686182 161.367273 
L 199.747501 165.76 
L 198.804399 170.152727 
L 198.828416 174.545455 
L 199.820644 178.938182 
L 198.254545 182.87758 
L 198.036509 183.330909 
L 194.647273 187.709802 
L 194.636762 187.723636 
L 191.04 190.138778 
L 187.432727 189.850417 
L 183.825455 189.180819 
L 180.218182 188.496432 
L 176.610909 187.812024 
L 176.145033 187.723636 
L 173.003636 187.103454 
L 169.396364 186.380458 
L 165.789091 185.589915 
L 162.181818 184.454042 
L 159.09318 183.330909 
L 158.574545 183.120577 
L 154.967273 181.657661 
L 151.36 180.194737 
L 148.261607 178.938182 
L 147.752727 178.731804 
L 144.145455 177.268873 
L 140.538182 175.805949 
L 137.430084 174.545455 
L 136.930909 174.343014 
L 133.323636 172.880085 
L 129.716364 171.417173 
L 126.5985 170.152727 
L 126.109091 169.954248 
L 122.501818 169.710721 
L 121.448616 170.152727 
L 118.894545 171.638644 
L 115.287273 173.737242 
L 113.898084 174.545455 
L 111.68 175.835921 
L 108.072727 177.934559 
L 106.347628 178.938182 
L 104.465455 180.03319 
L 100.858182 182.131857 
L 98.797189 183.330909 
L 97.250909 184.094929 
L 93.643636 185.883736 
L 90.036364 187.681665 
L 89.952373 187.723636 
L 86.429091 189.282015 
L 82.821818 190.500447 
L 79.214545 191.197332 
L 75.607273 191.89421 
L 74.457326 192.116364 
L 72 192.591087 
L 72 196.509091 
L 72 200.901818 
L 72 205.294545 
L 72 209.687273 
L 72 214.08 
L 72 218.472727 
L 72 222.865455 
L 72 227.258182 
L 72 229.553112 
z
" style="fill:#f6a586;"/>
   </g>
   <g id="PathCollection_8">
    <path clip-path="url(#pa0ee576e4d)" d="M 74.457326 192.116364 
L 75.607273 191.89421 
L 79.214545 191.197332 
L 82.821818 190.500447 
L 86.429091 189.282015 
L 89.952373 187.723636 
L 90.036364 187.681665 
L 93.643636 185.883736 
L 97.250909 184.094929 
L 98.797189 183.330909 
L 100.858182 182.131857 
L 104.465455 180.03319 
L 106.347628 178.938182 
L 108.072727 177.934559 
L 111.68 175.835921 
L 113.898084 174.545455 
L 115.287273 173.737242 
L 118.894545 171.638644 
L 121.448616 170.152727 
L 122.501818 169.710721 
L 126.109091 169.954248 
L 126.5985 170.152727 
L 129.716364 171.417173 
L 133.323636 172.880085 
L 136.930909 174.343014 
L 137.430084 174.545455 
L 140.538182 175.805949 
L 144.145455 177.268873 
L 147.752727 178.731804 
L 148.261607 178.938182 
L 151.36 180.194737 
L 154.967273 181.657661 
L 158.574545 183.120577 
L 159.09318 183.330909 
L 162.181818 184.454042 
L 165.789091 185.589915 
L 169.396364 186.380458 
L 173.003636 187.103454 
L 176.145033 187.723636 
L 176.610909 187.812024 
L 180.218182 188.496432 
L 183.825455 189.180819 
L 187.432727 189.850417 
L 191.04 190.138778 
L 194.636762 187.723636 
L 194.647273 187.709802 
L 198.036509 183.330909 
L 198.254545 182.87758 
L 199.820644 178.938182 
L 198.828416 174.545455 
L 198.804399 170.152727 
L 199.747501 165.76 
L 200.686182 161.367273 
L 201.627082 156.974545 
L 201.861818 155.891126 
L 202.570817 152.581818 
L 203.511907 148.189091 
L 204.453019 143.796364 
L 205.39412 139.403636 
L 205.469091 139.053696 
L 206.335222 135.010909 
L 207.276329 130.618182 
L 208.217433 126.225455 
L 209.076364 122.216286 
L 209.158538 121.832727 
L 210.09966 117.44 
L 211.040751 113.047273 
L 211.981862 108.654545 
L 212.683636 105.378945 
L 212.922971 104.261818 
L 213.864061 99.869091 
L 214.805159 95.476364 
L 215.746273 91.083636 
L 216.290909 88.459028 
L 216.660845 86.690909 
L 217.49993 82.298182 
L 218.337137 77.905455 
L 219.174338 73.512727 
L 219.898182 69.714871 
L 220.01156 69.12 
L 219.898182 69.12 
L 216.290909 69.12 
L 212.683636 69.12 
L 209.076364 69.12 
L 205.469091 69.12 
L 201.861818 69.12 
L 198.254545 69.12 
L 194.647273 69.12 
L 191.04 69.12 
L 187.432727 69.12 
L 183.825455 69.12 
L 180.218182 69.12 
L 176.610909 69.12 
L 173.003636 69.12 
L 169.396364 69.12 
L 167.646731 69.12 
L 166.644717 73.512727 
L 165.789091 77.26366 
L 165.630863 77.905455 
L 164.540464 82.298182 
L 163.436868 86.690909 
L 162.319869 91.083636 
L 162.181818 91.622849 
L 160.869065 95.476364 
L 159.372637 99.869091 
L 158.574545 102.211919 
L 157.876223 104.261818 
L 156.379791 108.654545 
L 154.967273 112.801016 
L 154.883384 113.047273 
L 153.386928 117.44 
L 151.36 120.011127 
L 148.589364 117.44 
L 147.752727 116.652768 
L 144.145455 113.14355 
L 144.049314 113.047273 
L 140.538182 109.53113 
L 139.66285 108.654545 
L 136.930909 105.887846 
L 135.303275 104.261818 
L 133.323636 102.255887 
L 130.926926 99.869091 
L 129.716364 98.646037 
L 126.523198 95.476364 
L 126.109091 95.059245 
L 122.501818 91.468892 
L 122.117116 91.083636 
L 118.894545 87.856438 
L 117.730682 86.690909 
L 115.287273 84.243994 
L 113.34423 82.298182 
L 111.68 80.631567 
L 108.957816 77.905455 
L 108.072727 77.019103 
L 104.571365 73.512727 
L 104.465455 73.406665 
L 100.858182 69.794248 
L 100.1849 69.12 
L 97.250909 69.12 
L 93.643636 69.12 
L 90.036364 69.12 
L 86.429091 69.12 
L 82.821818 69.12 
L 79.214545 69.12 
L 75.607273 69.12 
L 72 69.12 
L 72 73.512727 
L 72 77.905455 
L 72 82.298182 
L 72 86.690909 
L 72 91.083636 
L 72 95.476364 
L 72 99.869091 
L 72 104.261818 
L 72 108.654545 
L 72 113.047273 
L 72 117.44 
L 72 121.832727 
L 72 126.225455 
L 72 130.618182 
L 72 135.010909 
L 72 139.403636 
L 72 143.796364 
L 72 148.189091 
L 72 152.581818 
L 72 156.974545 
L 72 161.367273 
L 72 165.76 
L 72 170.152727 
L 72 174.545455 
L 72 178.938182 
L 72 183.330909 
L 72 187.723636 
L 72 192.116364 
L 72 192.591087 
z
" style="fill:#e7745b;"/>
   </g>
   <g id="PathCollection_9">
    <path clip-path="url(#pa0ee576e4d)" d="M 151.36 120.011127 
L 153.386928 117.44 
L 154.883384 113.047273 
L 154.967273 112.801016 
L 156.379791 108.654545 
L 157.876223 104.261818 
L 158.574545 102.211919 
L 159.372637 99.869091 
L 160.869065 95.476364 
L 162.181818 91.622849 
L 162.319869 91.083636 
L 163.436868 86.690909 
L 164.540464 82.298182 
L 165.630863 77.905455 
L 165.789091 77.26366 
L 166.644717 73.512727 
L 167.646731 69.12 
L 165.789091 69.12 
L 162.181818 69.12 
L 158.574545 69.12 
L 154.967273 69.12 
L 151.36 69.12 
L 147.752727 69.12 
L 144.145455 69.12 
L 140.538182 69.12 
L 136.930909 69.12 
L 133.323636 69.12 
L 129.716364 69.12 
L 126.109091 69.12 
L 122.501818 69.12 
L 118.894545 69.12 
L 115.287273 69.12 
L 111.68 69.12 
L 108.072727 69.12 
L 104.465455 69.12 
L 100.858182 69.12 
L 100.1849 69.12 
L 100.858182 69.794248 
L 104.465455 73.406665 
L 104.571365 73.512727 
L 108.072727 77.019103 
L 108.957816 77.905455 
L 111.68 80.631567 
L 113.34423 82.298182 
L 115.287273 84.243994 
L 117.730682 86.690909 
L 118.894545 87.856438 
L 122.117116 91.083636 
L 122.501818 91.468892 
L 126.109091 95.059245 
L 126.523198 95.476364 
L 129.716364 98.646037 
L 130.926926 99.869091 
L 133.323636 102.255887 
L 135.303275 104.261818 
L 136.930909 105.887846 
L 139.66285 108.654545 
L 140.538182 109.53113 
L 144.049314 113.047273 
L 144.145455 113.14355 
L 147.752727 116.652768 
L 148.589364 117.44 
z
" style="fill:#c83836;"/>
   </g>
   <g id="matplotlib.axis_1">
    <g id="xtick_1">
     <g id="line2d_1">
      <defs>
       <path d="M 0 0 
L 0 3.5 
" id="m2566e2848d" style="stroke:#000000;stroke-width:0.8;"/>
      </defs>
      <g>
       <use style="stroke:#000000;stroke-width:0.8;" x="72" xlink:href="#m2566e2848d" y="504"/>
      </g>
     </g>
     <g id="text_1">
      <!-- 0.50 -->
      <defs>
       <path d="M 10.59375 35.5 
L 73.1875 35.5 
L 73.1875 27.203125 
L 10.59375 27.203125 
z
" id="DejaVuSans-2212"/>
       <path d="M 31.78125 66.40625 
Q 24.171875 66.40625 20.328125 58.90625 
Q 16.5 51.421875 16.5 36.375 
Q 16.5 21.390625 20.328125 13.890625 
Q 24.171875 6.390625 31.78125 6.390625 
Q 39.453125 6.390625 43.28125 13.890625 
Q 47.125 21.390625 47.125 36.375 
Q 47.125 51.421875 43.28125 58.90625 
Q 39.453125 66.40625 31.78125 66.40625 
z
M 31.78125 74.21875 
Q 44.046875 74.21875 50.515625 64.515625 
Q 56.984375 54.828125 56.984375 36.375 
Q 56.984375 17.96875 50.515625 8.265625 
Q 44.046875 -1.421875 31.78125 -1.421875 
Q 19.53125 -1.421875 13.0625 8.265625 
Q 6.59375 17.96875 6.59375 36.375 
Q 6.59375 54.828125 13.0625 64.515625 
Q 19.53125 74.21875 31.78125 74.21875 
z
" id="DejaVuSans-30"/>
       <path d="M 10.6875 12.40625 
L 21 12.40625 
L 21 0 
L 10.6875 0 
z
" id="DejaVuSans-2e"/>
       <path d="M 10.796875 72.90625 
L 49.515625 72.90625 
L 49.515625 64.59375 
L 19.828125 64.59375 
L 19.828125 46.734375 
Q 21.96875 47.46875 24.109375 47.828125 
Q 26.265625 48.1875 28.421875 48.1875 
Q 40.625 48.1875 47.75 41.5 
Q 54.890625 34.8125 54.890625 23.390625 
Q 54.890625 11.625 47.5625 5.09375 
Q 40.234375 -1.421875 26.90625 -1.421875 
Q 22.3125 -1.421875 17.546875 -0.640625 
Q 12.796875 0.140625 7.71875 1.703125 
L 7.71875 11.625 
Q 12.109375 9.234375 16.796875 8.0625 
Q 21.484375 6.890625 26.703125 6.890625 
Q 35.15625 6.890625 40.078125 11.328125 
Q 45.015625 15.765625 45.015625 23.390625 
Q 45.015625 31 40.078125 35.4375 
Q 35.15625 39.890625 26.703125 39.890625 
Q 22.75 39.890625 18.8125 39.015625 
Q 14.890625 38.140625 10.796875 36.28125 
z
" id="DejaVuSans-35"/>
      </defs>
      <g transform="translate(56.677344 518.598438)scale(0.1 -0.1)">
       <use xlink:href="#DejaVuSans-2212"/>
       <use x="83.789062" xlink:href="#DejaVuSans-30"/>
       <use x="147.412109" xlink:href="#DejaVuSans-2e"/>
       <use x="179.199219" xlink:href="#DejaVuSans-35"/>
       <use x="242.822266" xlink:href="#DejaVuSans-30"/>
      </g>
     </g>
    </g>
    <g id="xtick_2">
     <g id="line2d_2">
      <g>
       <use style="stroke:#000000;stroke-width:0.8;" x="116.64" xlink:href="#m2566e2848d" y="504"/>
      </g>
     </g>
     <g id="text_2">
      <!-- 0.25 -->
      <defs>
       <path d="M 19.1875 8.296875 
L 53.609375 8.296875 
L 53.609375 0 
L 7.328125 0 
L 7.328125 8.296875 
Q 12.9375 14.109375 22.625 23.890625 
Q 32.328125 33.6875 34.8125 36.53125 
Q 39.546875 41.84375 41.421875 45.53125 
Q 43.3125 49.21875 43.3125 52.78125 
Q 43.3125 58.59375 39.234375 62.25 
Q 35.15625 65.921875 28.609375 65.921875 
Q 23.96875 65.921875 18.8125 64.3125 
Q 13.671875 62.703125 7.8125 59.421875 
L 7.8125 69.390625 
Q 13.765625 71.78125 18.9375 73 
Q 24.125 74.21875 28.421875 74.21875 
Q 39.75 74.21875 46.484375 68.546875 
Q 53.21875 62.890625 53.21875 53.421875 
Q 53.21875 48.921875 51.53125 44.890625 
Q 49.859375 40.875 45.40625 35.40625 
Q 44.1875 33.984375 37.640625 27.21875 
Q 31.109375 20.453125 19.1875 8.296875 
z
" id="DejaVuSans-32"/>
      </defs>
      <g transform="translate(101.317344 518.598438)scale(0.1 -0.1)">
       <use xlink:href="#DejaVuSans-2212"/>
       <use x="83.789062" xlink:href="#DejaVuSans-30"/>
       <use x="147.412109" xlink:href="#DejaVuSans-2e"/>
       <use x="179.199219" xlink:href="#DejaVuSans-32"/>
       <use x="242.822266" xlink:href="#DejaVuSans-35"/>
      </g>
     </g>
    </g>
    <g id="xtick_3">
     <g id="line2d_3">
      <g>
       <use style="stroke:#000000;stroke-width:0.8;" x="161.28" xlink:href="#m2566e2848d" y="504"/>
      </g>
     </g>
     <g id="text_3">
      <!-- 0.00 -->
      <g transform="translate(150.147188 518.598438)scale(0.1 -0.1)">
       <use xlink:href="#DejaVuSans-30"/>
       <use x="63.623047" xlink:href="#DejaVuSans-2e"/>
       <use x="95.410156" xlink:href="#DejaVuSans-30"/>
       <use x="159.033203" xlink:href="#DejaVuSans-30"/>
      </g>
     </g>
    </g>
    <g id="xtick_4">
     <g id="line2d_4">
      <g>
       <use style="stroke:#000000;stroke-width:0.8;" x="205.92" xlink:href="#m2566e2848d" y="504"/>
      </g>
     </g>
     <g id="text_4">
      <!-- 0.25 -->
      <g transform="translate(194.787188 518.598438)scale(0.1 -0.1)">
       <use xlink:href="#DejaVuSans-30"/>
       <use x="63.623047" xlink:href="#DejaVuSans-2e"/>
       <use x="95.410156" xlink:href="#DejaVuSans-32"/>
       <use x="159.033203" xlink:href="#DejaVuSans-35"/>
      </g>
     </g>
    </g>
    <g id="xtick_5">
     <g id="line2d_5">
      <g>
       <use style="stroke:#000000;stroke-width:0.8;" x="250.56" xlink:href="#m2566e2848d" y="504"/>
      </g>
     </g>
     <g id="text_5">
      <!-- 0.50 -->
      <g transform="translate(239.427188 518.598438)scale(0.1 -0.1)">
       <use xlink:href="#DejaVuSans-30"/>
       <use x="63.623047" xlink:href="#DejaVuSans-2e"/>
       <use x="95.410156" xlink:href="#DejaVuSans-35"/>
       <use x="159.033203" xlink:href="#DejaVuSans-30"/>
      </g>
     </g>
    </g>
    <g id="xtick_6">
     <g id="line2d_6">
      <g>
       <use style="stroke:#000000;stroke-width:0.8;" x="295.2" xlink:href="#m2566e2848d" y="504"/>
      </g>
     </g>
     <g id="text_6">
      <!-- 0.75 -->
      <defs>
       <path d="M 8.203125 72.90625 
L 55.078125 72.90625 
L 55.078125 68.703125 
L 28.609375 0 
L 18.3125 0 
L 43.21875 64.59375 
L 8.203125 64.59375 
z
" id="DejaVuSans-37"/>
      </defs>
      <g transform="translate(284.067188 518.598438)scale(0.1 -0.1)">
       <use xlink:href="#DejaVuSans-30"/>
       <use x="63.623047" xlink:href="#DejaVuSans-2e"/>
       <use x="95.410156" xlink:href="#DejaVuSans-37"/>
       <use x="159.033203" xlink:href="#DejaVuSans-35"/>
      </g>
     </g>
    </g>
    <g id="xtick_7">
     <g id="line2d_7">
      <g>
       <use style="stroke:#000000;stroke-width:0.8;" x="339.84" xlink:href="#m2566e2848d" y="504"/>
      </g>
     </g>
     <g id="text_7">
      <!-- 1.00 -->
      <defs>
       <path d="M 12.40625 8.296875 
L 28.515625 8.296875 
L 28.515625 63.921875 
L 10.984375 60.40625 
L 10.984375 69.390625 
L 28.421875 72.90625 
L 38.28125 72.90625 
L 38.28125 8.296875 
L 54.390625 8.296875 
L 54.390625 0 
L 12.40625 0 
z
" id="DejaVuSans-31"/>
      </defs>
      <g transform="translate(328.707188 518.598438)scale(0.1 -0.1)">
       <use xlink:href="#DejaVuSans-31"/>
       <use x="63.623047" xlink:href="#DejaVuSans-2e"/>
       <use x="95.410156" xlink:href="#DejaVuSans-30"/>
       <use x="159.033203" xlink:href="#DejaVuSans-30"/>
      </g>
     </g>
    </g>
    <g id="xtick_8">
     <g id="line2d_8">
      <g>
       <use style="stroke:#000000;stroke-width:0.8;" x="384.48" xlink:href="#m2566e2848d" y="504"/>
      </g>
     </g>
     <g id="text_8">
      <!-- 1.25 -->
      <g transform="translate(373.347188 518.598438)scale(0.1 -0.1)">
       <use xlink:href="#DejaVuSans-31"/>
       <use x="63.623047" xlink:href="#DejaVuSans-2e"/>
       <use x="95.410156" xlink:href="#DejaVuSans-32"/>
       <use x="159.033203" xlink:href="#DejaVuSans-35"/>
      </g>
     </g>
    </g>
    <g id="xtick_9">
     <g id="line2d_9">
      <g>
       <use style="stroke:#000000;stroke-width:0.8;" x="429.12" xlink:href="#m2566e2848d" y="504"/>
      </g>
     </g>
     <g id="text_9">
      <!-- 1.50 -->
      <g transform="translate(417.987188 518.598438)scale(0.1 -0.1)">
       <use xlink:href="#DejaVuSans-31"/>
       <use x="63.623047" xlink:href="#DejaVuSans-2e"/>
       <use x="95.410156" xlink:href="#DejaVuSans-35"/>
       <use x="159.033203" xlink:href="#DejaVuSans-30"/>
      </g>
     </g>
    </g>
   </g>
   <g id="matplotlib.axis_2">
    <g id="ytick_1">
     <g id="line2d_10">
      <defs>
       <path d="M 0 0 
L -3.5 0 
" id="mf258e7bdb0" style="stroke:#000000;stroke-width:0.8;"/>
      </defs>
      <g>
       <use style="stroke:#000000;stroke-width:0.8;" x="72" xlink:href="#mf258e7bdb0" y="504"/>
      </g>
     </g>
     <g id="text_10">
      <!-- 0.50 -->
      <g transform="translate(34.354687 507.799219)scale(0.1 -0.1)">
       <use xlink:href="#DejaVuSans-2212"/>
       <use x="83.789062" xlink:href="#DejaVuSans-30"/>
       <use x="147.412109" xlink:href="#DejaVuSans-2e"/>
       <use x="179.199219" xlink:href="#DejaVuSans-35"/>
       <use x="242.822266" xlink:href="#DejaVuSans-30"/>
      </g>
     </g>
    </g>
    <g id="ytick_2">
     <g id="line2d_11">
      <g>
       <use style="stroke:#000000;stroke-width:0.8;" x="72" xlink:href="#mf258e7bdb0" y="449.64"/>
      </g>
     </g>
     <g id="text_11">
      <!-- 0.25 -->
      <g transform="translate(34.354687 453.439219)scale(0.1 -0.1)">
       <use xlink:href="#DejaVuSans-2212"/>
       <use x="83.789062" xlink:href="#DejaVuSans-30"/>
       <use x="147.412109" xlink:href="#DejaVuSans-2e"/>
       <use x="179.199219" xlink:href="#DejaVuSans-32"/>
       <use x="242.822266" xlink:href="#DejaVuSans-35"/>
      </g>
     </g>
    </g>
    <g id="ytick_3">
     <g id="line2d_12">
      <g>
       <use style="stroke:#000000;stroke-width:0.8;" x="72" xlink:href="#mf258e7bdb0" y="395.28"/>
      </g>
     </g>
     <g id="text_12">
      <!-- 0.00 -->
      <g transform="translate(42.734375 399.079219)scale(0.1 -0.1)">
       <use xlink:href="#DejaVuSans-30"/>
       <use x="63.623047" xlink:href="#DejaVuSans-2e"/>
       <use x="95.410156" xlink:href="#DejaVuSans-30"/>
       <use x="159.033203" xlink:href="#DejaVuSans-30"/>
      </g>
     </g>
    </g>
    <g id="ytick_4">
     <g id="line2d_13">
      <g>
       <use style="stroke:#000000;stroke-width:0.8;" x="72" xlink:href="#mf258e7bdb0" y="340.92"/>
      </g>
     </g>
     <g id="text_13">
      <!-- 0.25 -->
      <g transform="translate(42.734375 344.719219)scale(0.1 -0.1)">
       <use xlink:href="#DejaVuSans-30"/>
       <use x="63.623047" xlink:href="#DejaVuSans-2e"/>
       <use x="95.410156" xlink:href="#DejaVuSans-32"/>
       <use x="159.033203" xlink:href="#DejaVuSans-35"/>
      </g>
     </g>
    </g>
    <g id="ytick_5">
     <g id="line2d_14">
      <g>
       <use style="stroke:#000000;stroke-width:0.8;" x="72" xlink:href="#mf258e7bdb0" y="286.56"/>
      </g>
     </g>
     <g id="text_14">
      <!-- 0.50 -->
      <g transform="translate(42.734375 290.359219)scale(0.1 -0.1)">
       <use xlink:href="#DejaVuSans-30"/>
       <use x="63.623047" xlink:href="#DejaVuSans-2e"/>
       <use x="95.410156" xlink:href="#DejaVuSans-35"/>
       <use x="159.033203" xlink:href="#DejaVuSans-30"/>
      </g>
     </g>
    </g>
    <g id="ytick_6">
     <g id="line2d_15">
      <g>
       <use style="stroke:#000000;stroke-width:0.8;" x="72" xlink:href="#mf258e7bdb0" y="232.2"/>
      </g>
     </g>
     <g id="text_15">
      <!-- 0.75 -->
      <g transform="translate(42.734375 235.999219)scale(0.1 -0.1)">
       <use xlink:href="#DejaVuSans-30"/>
       <use x="63.623047" xlink:href="#DejaVuSans-2e"/>
       <use x="95.410156" xlink:href="#DejaVuSans-37"/>
       <use x="159.033203" xlink:href="#DejaVuSans-35"/>
      </g>
     </g>
    </g>
    <g id="ytick_7">
     <g id="line2d_16">
      <g>
       <use style="stroke:#000000;stroke-width:0.8;" x="72" xlink:href="#mf258e7bdb0" y="177.84"/>
      </g>
     </g>
     <g id="text_16">
      <!-- 1.00 -->
      <g transform="translate(42.734375 181.639219)scale(0.1 -0.1)">
       <use xlink:href="#DejaVuSans-31"/>
       <use x="63.623047" xlink:href="#DejaVuSans-2e"/>
       <use x="95.410156" xlink:href="#DejaVuSans-30"/>
       <use x="159.033203" xlink:href="#DejaVuSans-30"/>
      </g>
     </g>
    </g>
    <g id="ytick_8">
     <g id="line2d_17">
      <g>
       <use style="stroke:#000000;stroke-width:0.8;" x="72" xlink:href="#mf258e7bdb0" y="123.48"/>
      </g>
     </g>
     <g id="text_17">
      <!-- 1.25 -->
      <g transform="translate(42.734375 127.279219)scale(0.1 -0.1)">
       <use xlink:href="#DejaVuSans-31"/>
       <use x="63.623047" xlink:href="#DejaVuSans-2e"/>
       <use x="95.410156" xlink:href="#DejaVuSans-32"/>
       <use x="159.033203" xlink:href="#DejaVuSans-35"/>
      </g>
     </g>
    </g>
    <g id="ytick_9">
     <g id="line2d_18">
      <g>
       <use style="stroke:#000000;stroke-width:0.8;" x="72" xlink:href="#mf258e7bdb0" y="69.12"/>
      </g>
     </g>
     <g id="text_18">
      <!-- 1.50 -->
      <g transform="translate(42.734375 72.919219)scale(0.1 -0.1)">
       <use xlink:href="#DejaVuSans-31"/>
       <use x="63.623047" xlink:href="#DejaVuSans-2e"/>
       <use x="95.410156" xlink:href="#DejaVuSans-35"/>
       <use x="159.033203" xlink:href="#DejaVuSans-30"/>
      </g>
     </g>
    </g>
   </g>
   <g id="patch_3">
    <path d="M 72 504 
L 72 69.12 
" style="fill:none;stroke:#000000;stroke-linecap:square;stroke-linejoin:miter;stroke-width:0.8;"/>
   </g>
   <g id="patch_4">
    <path d="M 429.12 504 
L 429.12 69.12 
" style="fill:none;stroke:#000000;stroke-linecap:square;stroke-linejoin:miter;stroke-width:0.8;"/>
   </g>
   <g id="patch_5">
    <path d="M 72 504 
L 429.12 504 
" style="fill:none;stroke:#000000;stroke-linecap:square;stroke-linejoin:miter;stroke-width:0.8;"/>
   </g>
   <g id="patch_6">
    <path d="M 72 69.12 
L 429.12 69.12 
" style="fill:none;stroke:#000000;stroke-linecap:square;stroke-linejoin:miter;stroke-width:0.8;"/>
   </g>
  </g>
  <g id="axes_2">
   <g id="patch_7">
    <path clip-path="url(#pe0e3b84cdb)" d="M 451.44 504 
L 451.44 455.68 
L 451.44 117.44 
L 451.44 69.12 
L 473.184 69.12 
L 473.184 117.44 
L 473.184 455.68 
L 473.184 504 
z
" style="fill:#ffffff;stroke:#ffffff;stroke-linejoin:miter;stroke-width:0.01;"/>
   </g>
   <g id="QuadMesh_1">
    <path clip-path="url(#pe0e3b84cdb)" d="M 451.44 504 
L 473.184 504 
L 473.184 455.68 
L 451.44 455.68 
L 451.44 504 
" style="fill:#4b64d5;"/>
    <path clip-path="url(#pe0e3b84cdb)" d="M 451.44 455.68 
L 473.184 455.68 
L 473.184 407.36 
L 451.44 407.36 
L 451.44 455.68 
" style="fill:#6f92f3;"/>
    <path clip-path="url(#pe0e3b84cdb)" d="M 451.44 407.36 
L 473.184 407.36 
L 473.184 359.04 
L 451.44 359.04 
L 451.44 407.36 
" style="fill:#97b8ff;"/>
    <path clip-path="url(#pe0e3b84cdb)" d="M 451.44 359.04 
L 473.184 359.04 
L 473.184 310.72 
L 451.44 310.72 
L 451.44 359.04 
" style="fill:#bcd2f7;"/>
    <path clip-path="url(#pe0e3b84cdb)" d="M 451.44 310.72 
L 473.184 310.72 
L 473.184 262.4 
L 451.44 262.4 
L 451.44 310.72 
" style="fill:#dddcdc;"/>
    <path clip-path="url(#pe0e3b84cdb)" d="M 451.44 262.4 
L 473.184 262.4 
L 473.184 214.08 
L 451.44 214.08 
L 451.44 262.4 
" style="fill:#f3c8b2;"/>
    <path clip-path="url(#pe0e3b84cdb)" d="M 451.44 214.08 
L 473.184 214.08 
L 473.184 165.76 
L 451.44 165.76 
L 451.44 214.08 
" style="fill:#f6a586;"/>
    <path clip-path="url(#pe0e3b84cdb)" d="M 451.44 165.76 
L 473.184 165.76 
L 473.184 117.44 
L 451.44 117.44 
L 451.44 165.76 
" style="fill:#e7745b;"/>
    <path clip-path="url(#pe0e3b84cdb)" d="M 451.44 117.44 
L 473.184 117.44 
L 473.184 69.12 
L 451.44 69.12 
L 451.44 117.44 
" style="fill:#c83836;"/>
   </g>
   <g id="matplotlib.axis_3"/>
   <g id="matplotlib.axis_4">
    <g id="ytick_10">
     <g id="line2d_19">
      <defs>
       <path d="M 0 0 
L 3.5 0 
" id="mb6f2e924bb" style="stroke:#000000;stroke-width:0.8;"/>
      </defs>
      <g>
       <use style="stroke:#000000;stroke-width:0.8;" x="473.184" xlink:href="#mb6f2e924bb" y="504"/>
      </g>
     </g>
     <g id="text_19">
      <!-- 25 -->
      <g transform="translate(480.184 507.799219)scale(0.1 -0.1)">
       <use xlink:href="#DejaVuSans-2212"/>
       <use x="83.789062" xlink:href="#DejaVuSans-32"/>
       <use x="147.412109" xlink:href="#DejaVuSans-35"/>
      </g>
     </g>
    </g>
    <g id="ytick_11">
     <g id="line2d_20">
      <g>
       <use style="stroke:#000000;stroke-width:0.8;" x="473.184" xlink:href="#mb6f2e924bb" y="455.68"/>
      </g>
     </g>
     <g id="text_20">
      <!-- 20 -->
      <g transform="translate(480.184 459.479219)scale(0.1 -0.1)">
       <use xlink:href="#DejaVuSans-2212"/>
       <use x="83.789062" xlink:href="#DejaVuSans-32"/>
       <use x="147.412109" xlink:href="#DejaVuSans-30"/>
      </g>
     </g>
    </g>
    <g id="ytick_12">
     <g id="line2d_21">
      <g>
       <use style="stroke:#000000;stroke-width:0.8;" x="473.184" xlink:href="#mb6f2e924bb" y="407.36"/>
      </g>
     </g>
     <g id="text_21">
      <!-- 15 -->
      <g transform="translate(480.184 411.159219)scale(0.1 -0.1)">
       <use xlink:href="#DejaVuSans-2212"/>
       <use x="83.789062" xlink:href="#DejaVuSans-31"/>
       <use x="147.412109" xlink:href="#DejaVuSans-35"/>
      </g>
     </g>
    </g>
    <g id="ytick_13">
     <g id="line2d_22">
      <g>
       <use style="stroke:#000000;stroke-width:0.8;" x="473.184" xlink:href="#mb6f2e924bb" y="359.04"/>
      </g>
     </g>
     <g id="text_22">
      <!-- 10 -->
      <g transform="translate(480.184 362.839219)scale(0.1 -0.1)">
       <use xlink:href="#DejaVuSans-2212"/>
       <use x="83.789062" xlink:href="#DejaVuSans-31"/>
       <use x="147.412109" xlink:href="#DejaVuSans-30"/>
      </g>
     </g>
    </g>
    <g id="ytick_14">
     <g id="line2d_23">
      <g>
       <use style="stroke:#000000;stroke-width:0.8;" x="473.184" xlink:href="#mb6f2e924bb" y="310.72"/>
      </g>
     </g>
     <g id="text_23">
      <!-- 5 -->
      <g transform="translate(480.184 314.519219)scale(0.1 -0.1)">
       <use xlink:href="#DejaVuSans-2212"/>
       <use x="83.789062" xlink:href="#DejaVuSans-35"/>
      </g>
     </g>
    </g>
    <g id="ytick_15">
     <g id="line2d_24">
      <g>
       <use style="stroke:#000000;stroke-width:0.8;" x="473.184" xlink:href="#mb6f2e924bb" y="262.4"/>
      </g>
     </g>
     <g id="text_24">
      <!-- 0 -->
      <g transform="translate(480.184 266.199219)scale(0.1 -0.1)">
       <use xlink:href="#DejaVuSans-30"/>
      </g>
     </g>
    </g>
    <g id="ytick_16">
     <g id="line2d_25">
      <g>
       <use style="stroke:#000000;stroke-width:0.8;" x="473.184" xlink:href="#mb6f2e924bb" y="214.08"/>
      </g>
     </g>
     <g id="text_25">
      <!-- 5 -->
      <g transform="translate(480.184 217.879219)scale(0.1 -0.1)">
       <use xlink:href="#DejaVuSans-35"/>
      </g>
     </g>
    </g>
    <g id="ytick_17">
     <g id="line2d_26">
      <g>
       <use style="stroke:#000000;stroke-width:0.8;" x="473.184" xlink:href="#mb6f2e924bb" y="165.76"/>
      </g>
     </g>
     <g id="text_26">
      <!-- 10 -->
      <g transform="translate(480.184 169.559219)scale(0.1 -0.1)">
       <use xlink:href="#DejaVuSans-31"/>
       <use x="63.623047" xlink:href="#DejaVuSans-30"/>
      </g>
     </g>
    </g>
    <g id="ytick_18">
     <g id="line2d_27">
      <g>
       <use style="stroke:#000000;stroke-width:0.8;" x="473.184" xlink:href="#mb6f2e924bb" y="117.44"/>
      </g>
     </g>
     <g id="text_27">
      <!-- 15 -->
      <g transform="translate(480.184 121.239219)scale(0.1 -0.1)">
       <use xlink:href="#DejaVuSans-31"/>
       <use x="63.623047" xlink:href="#DejaVuSans-35"/>
      </g>
     </g>
    </g>
    <g id="ytick_19">
     <g id="line2d_28">
      <g>
       <use style="stroke:#000000;stroke-width:0.8;" x="473.184" xlink:href="#mb6f2e924bb" y="69.12"/>
      </g>
     </g>
     <g id="text_28">
      <!-- 20 -->
      <g transform="translate(480.184 72.919219)scale(0.1 -0.1)">
       <use xlink:href="#DejaVuSans-32"/>
       <use x="63.623047" xlink:href="#DejaVuSans-30"/>
      </g>
     </g>
    </g>
   </g>
   <g id="patch_8">
    <path d="M 451.44 504 
L 451.44 455.68 
L 451.44 117.44 
L 451.44 69.12 
L 473.184 69.12 
L 473.184 117.44 
L 473.184 455.68 
L 473.184 504 
z
" style="fill:none;stroke:#000000;stroke-linejoin:miter;stroke-width:0.8;"/>
   </g>
  </g>
 </g>
 <defs>
  <clipPath id="pa0ee576e4d">
   <rect height="434.88" width="357.12" x="72" y="69.12"/>
  </clipPath>
  <clipPath id="pe0e3b84cdb">
   <rect height="434.88" width="21.744" x="451.44" y="69.12"/>
  </clipPath>
 </defs>
</svg>
