<?xml version="1.0" encoding="utf-8" standalone="no"?>
<!DOCTYPE svg PUBLIC "-//W3C//DTD SVG 1.1//EN"
  "http://www.w3.org/Graphics/SVG/1.1/DTD/svg11.dtd">
<!-- Created with matplotlib (http://matplotlib.org/) -->
<svg height="576pt" version="1.1" viewBox="0 0 576 576" width="576pt" xmlns="http://www.w3.org/2000/svg" xmlns:xlink="http://www.w3.org/1999/xlink">
 <defs>
  <style type="text/css">
*{stroke-linecap:butt;stroke-linejoin:round;}
  </style>
 </defs>
 <g id="figure_1">
  <g id="patch_1">
   <path d="M 0 576 
L 576 576 
L 576 0 
L 0 0 
z
" style="fill:#ffffff;"/>
  </g>
  <g id="axes_1">
   <g id="patch_2">
    <path d="M 72 504 
L 429.12 504 
L 429.12 69.12 
L 72 69.12 
z
" style="fill:#ffffff;"/>
   </g>
   <g id="PathCollection_1">
    <path clip-path="url(#pbd0061fd46)" d="M 385.832727 504 
L 389.44 504 
L 393.047273 504 
L 396.654545 504 
L 400.261818 504 
L 403.869091 504 
L 407.476364 504 
L 411.083636 504 
L 414.690909 504 
L 418.298182 504 
L 421.905455 504 
L 425.512727 504 
L 429.12 504 
L 429.12 499.607273 
L 429.12 495.214545 
L 429.12 490.821818 
L 429.12 486.429091 
L 429.12 482.036364 
L 429.12 477.643636 
L 429.12 476.667148 
L 425.512727 476.889222 
L 421.905455 477.111271 
L 418.298182 477.333344 
L 414.690909 477.555394 
L 413.257388 477.643636 
L 411.083636 477.777445 
L 407.476364 477.999528 
L 403.869091 478.541648 
L 400.261818 481.446835 
L 399.859514 482.036364 
L 396.86186 486.429091 
L 396.654545 486.732888 
L 393.864172 490.821818 
L 393.047273 492.018895 
L 390.866537 495.214545 
L 389.44 497.304992 
L 387.868906 499.607273 
L 385.832727 502.591046 
L 384.871238 504 
z
" style="fill:#506bda;"/>
   </g>
   <g id="PathCollection_2">
    <path clip-path="url(#pbd0061fd46)" d="M 302.865455 504 
L 306.472727 504 
L 310.08 504 
L 313.687273 504 
L 317.294545 504 
L 320.901818 504 
L 324.509091 504 
L 328.116364 504 
L 331.723636 504 
L 335.330909 504 
L 338.938182 504 
L 342.545455 504 
L 346.152727 504 
L 349.76 504 
L 353.367273 504 
L 356.974545 504 
L 360.581818 504 
L 364.189091 504 
L 367.796364 504 
L 371.403636 504 
L 375.010909 504 
L 378.618182 504 
L 382.225455 504 
L 384.871238 504 
L 385.832727 502.591046 
L 387.868906 499.607273 
L 389.44 497.304992 
L 390.866537 495.214545 
L 393.047273 492.018895 
L 393.864172 490.821818 
L 396.654545 486.732888 
L 396.86186 486.429091 
L 399.859514 482.036364 
L 400.261818 481.446835 
L 403.869091 478.541648 
L 407.476364 477.999528 
L 411.083636 477.777445 
L 413.257388 477.643636 
L 414.690909 477.555394 
L 418.298182 477.333344 
L 421.905455 477.111271 
L 425.512727 476.889222 
L 429.12 476.667148 
L 429.12 473.250909 
L 429.12 468.858182 
L 429.12 464.465455 
L 429.12 460.072727 
L 429.12 455.68 
L 429.12 451.287273 
L 429.12 446.894545 
L 429.12 442.501818 
L 429.12 438.109091 
L 429.12 433.716364 
L 429.12 430.104978 
L 425.512727 430.32705 
L 421.905455 430.549106 
L 418.298182 430.771167 
L 414.690909 430.993232 
L 411.083636 431.215286 
L 407.476364 431.437353 
L 403.869091 431.659412 
L 400.261818 431.881467 
L 396.654545 432.103522 
L 393.047273 432.325577 
L 389.44 432.547646 
L 385.832727 432.769703 
L 382.225455 432.991758 
L 378.618182 433.213827 
L 375.010909 433.435878 
L 371.403636 433.657938 
L 370.454648 433.716364 
L 367.796364 433.880023 
L 364.189091 434.102061 
L 360.581818 434.324128 
L 356.974545 434.546178 
L 353.367273 434.768246 
L 349.76 435.634592 
L 346.83039 438.109091 
L 346.152727 439.102141 
L 343.832753 442.501818 
L 342.545455 444.388185 
L 340.835064 446.894545 
L 338.938182 449.674214 
L 337.837413 451.287273 
L 335.330909 454.960299 
L 334.839776 455.68 
L 331.842102 460.072727 
L 331.723636 460.246327 
L 328.844451 464.465455 
L 328.116364 465.532389 
L 325.846803 468.858182 
L 324.509091 470.818445 
L 322.849142 473.250909 
L 320.901818 476.104488 
L 319.851487 477.643636 
L 317.294545 481.390536 
L 316.853823 482.036364 
L 313.85617 486.429091 
L 313.687273 486.676589 
L 310.85853 490.821818 
L 310.08 491.962673 
L 307.860866 495.214545 
L 306.472727 497.248694 
L 304.863193 499.607273 
L 302.865455 502.534737 
L 301.865546 504 
z
" style="fill:#80a3fa;"/>
   </g>
   <g id="PathCollection_3">
    <path clip-path="url(#pbd0061fd46)" d="M 219.898182 504 
L 223.505455 504 
L 227.112727 504 
L 230.72 504 
L 234.327273 504 
L 237.934545 504 
L 241.541818 504 
L 245.149091 504 
L 248.756364 504 
L 252.363636 504 
L 255.970909 504 
L 259.578182 504 
L 263.185455 504 
L 266.792727 504 
L 270.4 504 
L 274.007273 504 
L 277.614545 504 
L 281.221818 504 
L 284.829091 504 
L 288.436364 504 
L 292.043636 504 
L 295.650909 504 
L 299.258182 504 
L 301.865546 504 
L 302.865455 502.534737 
L 304.863193 499.607273 
L 306.472727 497.248694 
L 307.860866 495.214545 
L 310.08 491.962673 
L 310.85853 490.821818 
L 313.687273 486.676589 
L 313.85617 486.429091 
L 316.853823 482.036364 
L 317.294545 481.390536 
L 319.851487 477.643636 
L 320.901818 476.104488 
L 322.849142 473.250909 
L 324.509091 470.818445 
L 325.846803 468.858182 
L 328.116364 465.532389 
L 328.844451 464.465455 
L 331.723636 460.246327 
L 331.842102 460.072727 
L 334.839776 455.68 
L 335.330909 454.960299 
L 337.837413 451.287273 
L 338.938182 449.674214 
L 340.835064 446.894545 
L 342.545455 444.388185 
L 343.832753 442.501818 
L 346.152727 439.102141 
L 346.83039 438.109091 
L 349.76 435.634592 
L 353.367273 434.768246 
L 356.974545 434.546178 
L 360.581818 434.324128 
L 364.189091 434.102061 
L 367.796364 433.880023 
L 370.454648 433.716364 
L 371.403636 433.657938 
L 375.010909 433.435878 
L 378.618182 433.213827 
L 382.225455 432.991758 
L 385.832727 432.769703 
L 389.44 432.547646 
L 393.047273 432.325577 
L 396.654545 432.103522 
L 400.261818 431.881467 
L 403.869091 431.659412 
L 407.476364 431.437353 
L 411.083636 431.215286 
L 414.690909 430.993232 
L 418.298182 430.771167 
L 421.905455 430.549106 
L 425.512727 430.32705 
L 429.12 430.104978 
L 429.12 429.323636 
L 429.12 424.930909 
L 429.12 420.538182 
L 429.12 416.145455 
L 429.12 411.752727 
L 429.12 407.36 
L 429.12 402.967273 
L 429.12 398.574545 
L 429.12 394.181818 
L 429.12 389.789091 
L 429.12 385.396364 
L 429.12 383.542822 
L 425.512727 383.764895 
L 421.905455 383.986952 
L 418.298182 384.209008 
L 414.690909 384.431072 
L 411.083636 384.653128 
L 407.476364 384.875194 
L 403.869091 385.097245 
L 400.261818 385.3193 
L 399.009958 385.396364 
L 396.654545 385.541361 
L 393.047273 385.763405 
L 389.44 385.985484 
L 385.832727 386.20753 
L 382.225455 386.429603 
L 378.618182 386.651657 
L 375.010909 386.873719 
L 371.403636 387.095768 
L 367.796364 387.317839 
L 364.189091 387.539903 
L 360.581818 387.761958 
L 356.974545 387.984021 
L 353.367273 388.20607 
L 349.76 388.428135 
L 346.152727 388.650194 
L 342.545455 388.872247 
L 338.938182 389.094313 
L 335.330909 389.316377 
L 331.723636 389.538432 
L 328.116364 389.760494 
L 327.651827 389.789091 
L 324.509091 389.982559 
L 320.901818 390.204613 
L 317.294545 390.426673 
L 313.687273 390.64873 
L 310.08 390.870794 
L 306.472727 391.092851 
L 302.865455 391.314908 
L 299.258182 391.536968 
L 295.650909 392.666367 
L 293.80127 394.181818 
L 292.043636 396.75743 
L 290.803609 398.574545 
L 288.436364 402.043487 
L 287.805962 402.967273 
L 284.829091 407.329538 
L 284.808303 407.36 
L 281.810636 411.752727 
L 281.221818 412.615571 
L 278.812987 416.145455 
L 277.614545 417.901642 
L 275.815332 420.538182 
L 274.007273 423.187678 
L 272.817667 424.930909 
L 270.4 428.473731 
L 269.820014 429.323636 
L 266.822354 433.716364 
L 266.792727 433.759779 
L 263.824699 438.109091 
L 263.185455 439.045829 
L 260.82705 442.501818 
L 259.578182 444.331901 
L 257.829398 446.894545 
L 255.970909 449.617942 
L 254.831734 451.287273 
L 252.363636 454.903994 
L 251.834082 455.68 
L 248.836426 460.072727 
L 248.756364 460.190051 
L 245.838761 464.465455 
L 245.149091 465.476087 
L 242.84112 468.858182 
L 241.541818 470.762156 
L 239.843452 473.250909 
L 237.934545 476.048207 
L 236.845806 477.643636 
L 234.327273 481.334266 
L 233.848152 482.036364 
L 230.850498 486.429091 
L 230.72 486.620321 
L 227.852834 490.821818 
L 227.112727 491.906366 
L 224.855181 495.214545 
L 223.505455 497.192414 
L 221.857522 499.607273 
L 219.898182 502.478458 
L 218.913716 504 
z
" style="fill:#b2ccfb;"/>
   </g>
   <g id="PathCollection_4">
    <path clip-path="url(#pbd0061fd46)" d="M 147.752727 504 
L 151.36 504 
L 154.967273 504 
L 158.574545 504 
L 162.181818 504 
L 165.789091 504 
L 169.396364 504 
L 173.003636 504 
L 176.610909 504 
L 180.218182 504 
L 183.825455 504 
L 187.432727 504 
L 191.04 504 
L 194.647273 504 
L 198.254545 504 
L 201.861818 504 
L 205.469091 504 
L 209.076364 504 
L 212.683636 504 
L 216.290909 504 
L 218.913716 504 
L 219.898182 502.478458 
L 221.857522 499.607273 
L 223.505455 497.192414 
L 224.855181 495.214545 
L 227.112727 491.906366 
L 227.852834 490.821818 
L 230.72 486.620321 
L 230.850498 486.429091 
L 233.848152 482.036364 
L 234.327273 481.334266 
L 236.845806 477.643636 
L 237.934545 476.048207 
L 239.843452 473.250909 
L 241.541818 470.762156 
L 242.84112 468.858182 
L 245.149091 465.476087 
L 245.838761 464.465455 
L 248.756364 460.190051 
L 248.836426 460.072727 
L 251.834082 455.68 
L 252.363636 454.903994 
L 254.831734 451.287273 
L 255.970909 449.617942 
L 257.829398 446.894545 
L 259.578182 444.331901 
L 260.82705 442.501818 
L 263.185455 439.045829 
L 263.824699 438.109091 
L 266.792727 433.759779 
L 266.822354 433.716364 
L 269.820014 429.323636 
L 270.4 428.473731 
L 272.817667 424.930909 
L 274.007273 423.187678 
L 275.815332 420.538182 
L 277.614545 417.901642 
L 278.812987 416.145455 
L 281.221818 412.615571 
L 281.810636 411.752727 
L 284.808303 407.36 
L 284.829091 407.329538 
L 287.805962 402.967273 
L 288.436364 402.043487 
L 290.803609 398.574545 
L 292.043636 396.75743 
L 293.80127 394.181818 
L 295.650909 392.666367 
L 299.258182 391.536968 
L 302.865455 391.314908 
L 306.472727 391.092851 
L 310.08 390.870794 
L 313.687273 390.64873 
L 317.294545 390.426673 
L 320.901818 390.204613 
L 324.509091 389.982559 
L 327.651827 389.789091 
L 328.116364 389.760494 
L 331.723636 389.538432 
L 335.330909 389.316377 
L 338.938182 389.094313 
L 342.545455 388.872247 
L 346.152727 388.650194 
L 349.76 388.428135 
L 353.367273 388.20607 
L 356.974545 387.984021 
L 360.581818 387.761958 
L 364.189091 387.539903 
L 367.796364 387.317839 
L 371.403636 387.095768 
L 375.010909 386.873719 
L 378.618182 386.651657 
L 382.225455 386.429603 
L 385.832727 386.20753 
L 389.44 385.985484 
L 393.047273 385.763405 
L 396.654545 385.541361 
L 399.009958 385.396364 
L 400.261818 385.3193 
L 403.869091 385.097245 
L 407.476364 384.875194 
L 411.083636 384.653128 
L 414.690909 384.431072 
L 418.298182 384.209008 
L 421.905455 383.986952 
L 425.512727 383.764895 
L 429.12 383.542822 
L 429.12 381.003636 
L 429.12 376.610909 
L 429.12 372.218182 
L 429.12 367.825455 
L 429.12 363.432727 
L 429.12 359.04 
L 429.12 354.647273 
L 429.12 350.254545 
L 429.12 345.861818 
L 429.12 341.469091 
L 429.12 337.076364 
L 429.12 332.683636 
L 429.12 328.290909 
L 429.12 323.898182 
L 429.12 319.505455 
L 429.12 315.112727 
L 429.12 310.72 
L 429.12 306.327273 
L 429.12 301.934545 
L 429.12 297.541818 
L 429.12 293.149091 
L 429.12 288.756364 
L 429.12 284.363636 
L 429.12 279.970909 
L 429.12 275.578182 
L 429.12 271.185455 
L 429.12 266.792727 
L 429.12 262.4 
L 429.12 258.007273 
L 429.12 253.614545 
L 429.12 249.221818 
L 429.12 244.829091 
L 429.12 240.436364 
L 429.12 236.043636 
L 429.12 231.650909 
L 429.12 227.258182 
L 429.12 222.865455 
L 429.12 218.472727 
L 429.12 214.08 
L 429.12 209.687273 
L 429.12 205.294545 
L 429.12 200.901818 
L 429.12 196.509091 
L 429.12 192.116364 
L 429.12 187.723636 
L 429.12 183.330909 
L 429.12 178.938182 
L 429.12 174.545455 
L 429.12 170.152727 
L 429.12 165.76 
L 429.12 161.367273 
L 429.12 156.974545 
L 429.12 152.581818 
L 429.12 148.189091 
L 429.12 143.796364 
L 429.12 139.403636 
L 429.12 135.010909 
L 429.12 130.618182 
L 429.12 126.225455 
L 429.12 121.832727 
L 429.12 117.44 
L 429.12 113.047273 
L 429.12 108.654545 
L 429.12 104.261818 
L 429.12 99.869091 
L 429.12 95.476364 
L 429.12 92.802117 
L 425.512727 94.723163 
L 423.055469 95.476364 
L 421.905455 96.876785 
L 418.298182 99.101358 
L 415.67729 99.869091 
L 414.690909 101.070248 
L 411.083636 103.484711 
L 408.324339 104.261818 
L 407.476364 105.294433 
L 403.869091 107.867825 
L 400.956089 108.654545 
L 400.261818 109.499988 
L 396.654545 112.250707 
L 393.56951 113.047273 
L 393.047273 113.683223 
L 389.44 116.63334 
L 386.161325 117.44 
L 385.832727 117.840147 
L 382.225455 121.015707 
L 378.72735 121.832727 
L 378.618182 121.965666 
L 375.010909 125.397802 
L 371.403636 126.206171 
L 371.371711 126.225455 
L 367.796364 129.779625 
L 364.189091 130.56372 
L 364.098922 130.618182 
L 360.581818 134.161154 
L 356.974545 134.921301 
L 356.826187 135.010909 
L 353.367273 138.542387 
L 349.76 139.278841 
L 349.553386 139.403636 
L 346.152727 142.923296 
L 342.545455 143.636412 
L 342.280631 143.796364 
L 338.938182 147.303872 
L 335.330909 147.993954 
L 335.007831 148.189091 
L 331.723636 151.684108 
L 328.116364 152.351494 
L 327.735029 152.581818 
L 324.509091 156.063992 
L 320.901818 156.709056 
L 320.462263 156.974545 
L 317.294545 160.443498 
L 313.687273 161.066633 
L 313.189518 161.367273 
L 310.08 164.82262 
L 306.472727 165.424187 
L 305.916741 165.76 
L 302.865455 169.201338 
L 299.258182 169.781733 
L 298.643947 170.152727 
L 295.650909 173.579621 
L 292.043636 174.139275 
L 291.371149 174.545455 
L 288.436364 177.957459 
L 284.829091 178.496841 
L 284.098394 178.938182 
L 281.221818 182.334842 
L 277.614545 182.854388 
L 276.825598 183.330909 
L 274.007273 186.711723 
L 270.4 187.220944 
L 269.565758 187.723636 
L 266.792727 191.088101 
L 263.185455 191.603271 
L 262.328312 192.116364 
L 259.578182 195.463939 
L 255.970909 195.991033 
L 255.098301 196.509091 
L 252.363636 199.839206 
L 248.756364 200.379508 
L 247.868934 200.901818 
L 245.149091 204.213885 
L 241.541818 204.492622 
L 239.232182 205.294545 
L 237.934545 206.279811 
L 234.327273 207.182697 
L 230.72 208.438614 
L 227.393511 209.687273 
L 227.112727 209.805613 
L 223.505455 211.22185 
L 219.898182 212.608343 
L 216.290909 213.960335 
L 215.96725 214.08 
L 212.683636 215.358266 
L 209.076364 216.762514 
L 205.469091 218.170575 
L 204.683107 218.472727 
L 201.861818 219.531259 
L 198.254545 220.342469 
L 194.647273 220.897872 
L 191.04 221.453291 
L 187.432727 222.0087 
L 183.825455 222.567202 
L 181.868272 222.865455 
L 180.218182 223.119518 
L 176.610909 223.67492 
L 173.003636 224.230327 
L 169.396364 224.785739 
L 165.789091 225.341147 
L 162.181818 225.909382 
L 158.574545 226.28931 
L 154.967273 224.773454 
L 152.071274 222.865455 
L 151.36 222.421048 
L 147.752727 220.167202 
L 145.040701 218.472727 
L 144.145455 217.913377 
L 140.538182 215.65954 
L 138.010121 214.08 
L 136.930909 213.405702 
L 133.323636 211.151863 
L 130.979557 209.687273 
L 129.716364 208.89803 
L 126.109091 206.644197 
L 123.948951 205.294545 
L 122.501818 204.238423 
L 119.020084 200.901818 
L 118.894545 200.78036 
L 115.287273 197.290345 
L 114.479765 196.509091 
L 111.68 193.800335 
L 109.939463 192.116364 
L 108.072727 190.310296 
L 105.39916 187.723636 
L 104.465455 186.820279 
L 100.858855 183.330909 
L 100.858182 183.330258 
L 97.250909 179.840247 
L 96.318539 178.938182 
L 93.643636 176.350204 
L 91.778246 174.545455 
L 90.036364 172.860196 
L 87.237931 170.152727 
L 86.429091 169.370181 
L 82.82562 165.76 
L 82.821818 165.756155 
L 79.214545 161.77484 
L 78.845271 161.367273 
L 75.607273 157.795881 
L 74.861972 156.974545 
L 72 153.824304 
L 72 156.974545 
L 72 161.367273 
L 72 165.76 
L 72 170.152727 
L 72 174.545455 
L 72 178.938182 
L 72 183.330909 
L 72 187.723636 
L 72 192.116364 
L 72 196.509091 
L 72 200.901818 
L 72 205.294545 
L 72 209.687273 
L 72 214.08 
L 72 218.472727 
L 72 222.865455 
L 72 227.258182 
L 72 231.650909 
L 72 236.043636 
L 72 240.436364 
L 72 244.829091 
L 72 249.221818 
L 72 253.614545 
L 72 258.007273 
L 72 262.4 
L 72 266.792727 
L 72 271.185455 
L 72 275.578182 
L 72 279.970909 
L 72 284.363636 
L 72 288.756364 
L 72 293.149091 
L 72 297.541818 
L 72 301.934545 
L 72 306.327273 
L 72 310.72 
L 72 315.112727 
L 72 319.505455 
L 72 323.898182 
L 72 328.290909 
L 72 328.623299 
L 75.607273 328.318211 
L 75.932478 328.290909 
L 79.214545 328.022899 
L 82.821818 327.781088 
L 86.429091 327.831276 
L 90.036364 327.915722 
L 93.643636 328.000162 
L 97.250909 328.084606 
L 100.858182 328.169045 
L 104.465455 328.253491 
L 106.064003 328.290909 
L 108.072727 328.337929 
L 111.68 328.424458 
L 115.287273 328.748262 
L 118.894545 329.192385 
L 122.501818 329.636501 
L 126.109091 330.080625 
L 129.716364 330.524744 
L 133.323636 330.968863 
L 136.930909 331.412986 
L 140.538182 331.857102 
L 144.145455 332.301225 
L 147.251525 332.683636 
L 147.752727 332.745343 
L 151.36 333.189466 
L 154.967273 333.633583 
L 158.574545 334.077705 
L 162.181818 334.521822 
L 165.789091 334.965945 
L 169.396364 335.410059 
L 173.003636 335.854184 
L 176.610909 336.298308 
L 180.218182 336.742422 
L 182.930518 337.076364 
L 183.825455 337.186548 
L 187.432727 337.630662 
L 191.04 338.074785 
L 194.647273 338.518906 
L 198.254545 338.963024 
L 201.861818 339.407142 
L 205.469091 339.851263 
L 209.076364 340.295384 
L 212.683636 340.739505 
L 216.290909 341.183623 
L 218.609577 341.469091 
L 219.898182 341.627741 
L 223.505455 342.071865 
L 227.112727 342.515984 
L 230.72 342.960104 
L 234.327273 342.75629 
L 235.686215 341.469091 
L 235.225751 337.076364 
L 234.765292 332.683636 
L 234.327273 328.505003 
L 234.304831 328.290909 
L 233.844371 323.898182 
L 233.383907 319.505455 
L 232.923455 315.112727 
L 232.463003 310.72 
L 232.002547 306.327273 
L 231.542094 301.934545 
L 231.081628 297.541818 
L 230.72 294.091991 
L 230.621161 293.149091 
L 230.160699 288.756364 
L 229.700248 284.363636 
L 229.239793 279.970909 
L 228.779336 275.578182 
L 228.389712 271.185455 
L 228.300803 266.792727 
L 229.187478 262.4 
L 230.43939 258.007273 
L 230.72 257.022666 
L 231.691309 253.614545 
L 232.943234 249.221818 
L 234.195139 244.829091 
L 234.327273 244.365452 
L 235.44704 240.436364 
L 236.698955 236.043636 
L 237.934545 231.708238 
L 237.950884 231.650909 
L 239.202801 227.258182 
L 240.454718 222.865455 
L 241.541818 219.05108 
L 241.906907 218.472727 
L 244.875322 214.08 
L 245.149091 213.70068 
L 248.756364 212.977508 
L 252.363636 212.254347 
L 255.970909 211.531181 
L 259.578182 210.80801 
L 263.185455 210.084833 
L 265.168573 209.687273 
L 266.792727 209.361674 
L 270.4 208.638503 
L 274.007273 207.915335 
L 277.614545 207.192158 
L 281.221818 206.468995 
L 284.829091 205.745827 
L 287.08014 205.294545 
L 288.436364 205.022653 
L 292.043636 204.299473 
L 295.650909 203.576305 
L 299.258182 202.853134 
L 302.865455 202.129961 
L 306.472727 201.406795 
L 308.991562 200.901818 
L 310.08 200.683609 
L 313.687273 199.960437 
L 317.294545 199.237275 
L 320.901818 198.514112 
L 324.509091 197.790935 
L 328.116364 197.06777 
L 330.903123 196.509091 
L 331.723636 196.344597 
L 335.330909 195.621424 
L 338.938182 194.898257 
L 342.545455 194.175091 
L 346.152727 193.451916 
L 349.76 192.728758 
L 352.814725 192.116364 
L 353.367273 192.005591 
L 356.974545 191.282408 
L 357.627683 192.116364 
L 357.834946 196.509091 
L 356.974545 198.998357 
L 356.363684 200.901818 
L 354.953953 205.294545 
L 353.601307 209.687273 
L 353.367273 210.238638 
L 352.134507 214.08 
L 350.750077 218.472727 
L 349.76 221.479066 
L 349.315079 222.865455 
L 347.905365 227.258182 
L 346.580263 231.650909 
L 346.152727 232.719447 
L 345.085928 236.043636 
L 343.676203 240.436364 
L 342.545455 243.959827 
L 342.266491 244.829091 
L 340.856775 249.221818 
L 339.538216 253.614545 
L 338.938182 255.20021 
L 338.037333 258.007273 
L 336.627616 262.4 
L 335.330909 266.440573 
L 335.217896 266.792727 
L 333.808183 271.185455 
L 332.478416 275.578182 
L 331.723636 277.680995 
L 330.988752 279.970909 
L 329.57903 284.363636 
L 328.18973 288.756364 
L 328.116364 288.901758 
L 326.647014 293.149091 
L 324.581248 297.541818 
L 324.509091 297.663657 
L 322.08174 301.934545 
L 320.901818 304.010598 
L 319.58514 306.327273 
L 317.294545 310.357552 
L 317.088551 310.72 
L 314.591959 315.112727 
L 313.687273 316.704512 
L 312.095368 319.505455 
L 310.08 323.051485 
L 309.598783 323.898182 
L 307.102196 328.290909 
L 306.472727 329.398448 
L 304.605589 332.683636 
L 302.865455 335.745367 
L 302.108988 337.076364 
L 299.61241 341.469091 
L 299.258182 342.092354 
L 297.095375 345.861818 
L 295.650909 346.564156 
L 292.043636 348.010858 
L 288.436364 349.636885 
L 287.049686 350.254545 
L 284.829091 350.72423 
L 281.221818 351.473418 
L 277.614545 352.267109 
L 274.007273 353.109393 
L 270.4 354.004879 
L 267.945376 354.647273 
L 266.792727 354.910592 
L 263.185455 355.734658 
L 259.578182 356.558729 
L 255.970909 357.382802 
L 252.983473 359.04 
L 252.363636 359.809595 
L 249.969337 363.432727 
L 248.756364 365.268239 
L 246.847008 367.825455 
L 245.149091 370.478385 
L 243.721156 372.218182 
L 241.541818 375.919172 
L 240.974197 376.610909 
L 238.357822 381.003636 
L 237.934545 381.644152 
L 235.454939 385.396364 
L 234.327273 387.102783 
L 232.144198 389.789091 
L 230.72 392.071472 
L 228.988045 394.181818 
L 227.112727 397.519694 
L 226.247255 398.574545 
L 223.843426 402.967273 
L 223.505455 403.4787 
L 220.765664 407.36 
L 219.898182 408.694788 
L 217.388291 411.752727 
L 216.290909 413.566969 
L 214.174922 416.145455 
L 212.683636 418.971447 
L 211.39841 420.538182 
L 209.329027 424.930909 
L 209.076364 425.313248 
L 206.009959 429.323636 
L 205.469091 430.174517 
L 202.562176 433.716364 
L 201.861818 434.920485 
L 199.245423 438.109091 
L 198.254545 440.159609 
L 196.327928 442.501818 
L 194.770295 446.894545 
L 194.647273 447.08129 
L 191.194983 451.287273 
L 191.04 451.537721 
L 187.603064 455.68 
L 187.432727 455.989786 
L 184.026798 460.072727 
L 183.825455 460.564366 
L 180.516941 464.465455 
L 180.218182 465.228917 
L 177.017782 468.858182 
L 176.610909 469.319576 
L 173.144171 473.250909 
L 173.003636 473.410277 
L 169.396364 477.500931 
L 169.270523 477.643636 
L 165.789091 481.591631 
L 165.396914 482.036364 
L 162.181818 485.682318 
L 161.523289 486.429091 
L 158.574545 489.772972 
L 157.649638 490.821818 
L 154.967273 493.863639 
L 153.776012 495.214545 
L 151.36 497.954326 
L 149.902384 499.607273 
L 147.752727 502.045018 
L 146.028764 504 
z
" style="fill:#dddcdc;"/>
   </g>
   <g id="PathCollection_5">
    <path clip-path="url(#pbd0061fd46)" d="M 75.607273 504 
L 79.214545 504 
L 82.821818 504 
L 86.429091 504 
L 90.036364 504 
L 93.643636 504 
L 97.250909 504 
L 100.858182 504 
L 104.465455 504 
L 108.072727 504 
L 111.68 504 
L 115.287273 504 
L 118.894545 504 
L 122.501818 504 
L 126.109091 504 
L 129.716364 504 
L 133.323636 504 
L 136.930909 504 
L 140.538182 504 
L 144.145455 504 
L 146.028764 504 
L 147.752727 502.045018 
L 149.902384 499.607273 
L 151.36 497.954326 
L 153.776012 495.214545 
L 154.967273 493.863639 
L 157.649638 490.821818 
L 158.574545 489.772972 
L 161.523289 486.429091 
L 162.181818 485.682318 
L 165.396914 482.036364 
L 165.789091 481.591631 
L 169.270523 477.643636 
L 169.396364 477.500931 
L 173.003636 473.410277 
L 173.144171 473.250909 
L 176.610909 469.319576 
L 177.017782 468.858182 
L 180.218182 465.228917 
L 180.516941 464.465455 
L 183.825455 460.564366 
L 184.026798 460.072727 
L 187.432727 455.989786 
L 187.603064 455.68 
L 191.04 451.537721 
L 191.194983 451.287273 
L 194.647273 447.08129 
L 194.770295 446.894545 
L 196.327928 442.501818 
L 198.254545 440.159609 
L 199.245423 438.109091 
L 201.861818 434.920485 
L 202.562176 433.716364 
L 205.469091 430.174517 
L 206.009959 429.323636 
L 209.076364 425.313248 
L 209.329027 424.930909 
L 211.39841 420.538182 
L 212.683636 418.971447 
L 214.174922 416.145455 
L 216.290909 413.566969 
L 217.388291 411.752727 
L 219.898182 408.694788 
L 220.765664 407.36 
L 223.505455 403.4787 
L 223.843426 402.967273 
L 226.247255 398.574545 
L 227.112727 397.519694 
L 228.988045 394.181818 
L 230.72 392.071472 
L 232.144198 389.789091 
L 234.327273 387.102783 
L 235.454939 385.396364 
L 237.934545 381.644152 
L 238.357822 381.003636 
L 240.974197 376.610909 
L 241.541818 375.919172 
L 243.721156 372.218182 
L 245.149091 370.478385 
L 246.847008 367.825455 
L 248.756364 365.268239 
L 249.969337 363.432727 
L 252.363636 359.809595 
L 252.983473 359.04 
L 255.970909 357.382802 
L 259.578182 356.558729 
L 263.185455 355.734658 
L 266.792727 354.910592 
L 267.945376 354.647273 
L 270.4 354.004879 
L 274.007273 353.109393 
L 277.614545 352.267109 
L 281.221818 351.473418 
L 284.829091 350.72423 
L 287.049686 350.254545 
L 288.436364 349.636885 
L 292.043636 348.010858 
L 295.650909 346.564156 
L 297.095375 345.861818 
L 299.258182 342.092354 
L 299.61241 341.469091 
L 302.108988 337.076364 
L 302.865455 335.745367 
L 304.605589 332.683636 
L 306.472727 329.398448 
L 307.102196 328.290909 
L 309.598783 323.898182 
L 310.08 323.051485 
L 312.095368 319.505455 
L 313.687273 316.704512 
L 314.591959 315.112727 
L 317.088551 310.72 
L 317.294545 310.357552 
L 319.58514 306.327273 
L 320.901818 304.010598 
L 322.08174 301.934545 
L 324.509091 297.663657 
L 324.581248 297.541818 
L 326.647014 293.149091 
L 328.116364 288.901758 
L 328.18973 288.756364 
L 329.57903 284.363636 
L 330.988752 279.970909 
L 331.723636 277.680995 
L 332.478416 275.578182 
L 333.808183 271.185455 
L 335.217896 266.792727 
L 335.330909 266.440573 
L 336.627616 262.4 
L 338.037333 258.007273 
L 338.938182 255.20021 
L 339.538216 253.614545 
L 340.856775 249.221818 
L 342.266491 244.829091 
L 342.545455 243.959827 
L 343.676203 240.436364 
L 345.085928 236.043636 
L 346.152727 232.719447 
L 346.580263 231.650909 
L 347.905365 227.258182 
L 349.315079 222.865455 
L 349.76 221.479066 
L 350.750077 218.472727 
L 352.134507 214.08 
L 353.367273 210.238638 
L 353.601307 209.687273 
L 354.953953 205.294545 
L 356.363684 200.901818 
L 356.974545 198.998357 
L 357.834946 196.509091 
L 357.627683 192.116364 
L 356.974545 191.282408 
L 353.367273 192.005591 
L 352.814725 192.116364 
L 349.76 192.728758 
L 346.152727 193.451916 
L 342.545455 194.175091 
L 338.938182 194.898257 
L 335.330909 195.621424 
L 331.723636 196.344597 
L 330.903123 196.509091 
L 328.116364 197.06777 
L 324.509091 197.790935 
L 320.901818 198.514112 
L 317.294545 199.237275 
L 313.687273 199.960437 
L 310.08 200.683609 
L 308.991562 200.901818 
L 306.472727 201.406795 
L 302.865455 202.129961 
L 299.258182 202.853134 
L 295.650909 203.576305 
L 292.043636 204.299473 
L 288.436364 205.022653 
L 287.08014 205.294545 
L 284.829091 205.745827 
L 281.221818 206.468995 
L 277.614545 207.192158 
L 274.007273 207.915335 
L 270.4 208.638503 
L 266.792727 209.361674 
L 265.168573 209.687273 
L 263.185455 210.084833 
L 259.578182 210.80801 
L 255.970909 211.531181 
L 252.363636 212.254347 
L 248.756364 212.977508 
L 245.149091 213.70068 
L 244.875322 214.08 
L 241.906907 218.472727 
L 241.541818 219.05108 
L 240.454718 222.865455 
L 239.202801 227.258182 
L 237.950884 231.650909 
L 237.934545 231.708238 
L 236.698955 236.043636 
L 235.44704 240.436364 
L 234.327273 244.365452 
L 234.195139 244.829091 
L 232.943234 249.221818 
L 231.691309 253.614545 
L 230.72 257.022666 
L 230.43939 258.007273 
L 229.187478 262.4 
L 228.300803 266.792727 
L 228.389712 271.185455 
L 228.779336 275.578182 
L 229.239793 279.970909 
L 229.700248 284.363636 
L 230.160699 288.756364 
L 230.621161 293.149091 
L 230.72 294.091991 
L 231.081628 297.541818 
L 231.542094 301.934545 
L 232.002547 306.327273 
L 232.463003 310.72 
L 232.923455 315.112727 
L 233.383907 319.505455 
L 233.844371 323.898182 
L 234.304831 328.290909 
L 234.327273 328.505003 
L 234.765292 332.683636 
L 235.225751 337.076364 
L 235.686215 341.469091 
L 234.327273 342.75629 
L 230.72 342.960104 
L 227.112727 342.515984 
L 223.505455 342.071865 
L 219.898182 341.627741 
L 218.609577 341.469091 
L 216.290909 341.183623 
L 212.683636 340.739505 
L 209.076364 340.295384 
L 205.469091 339.851263 
L 201.861818 339.407142 
L 198.254545 338.963024 
L 194.647273 338.518906 
L 191.04 338.074785 
L 187.432727 337.630662 
L 183.825455 337.186548 
L 182.930518 337.076364 
L 180.218182 336.742422 
L 176.610909 336.298308 
L 173.003636 335.854184 
L 169.396364 335.410059 
L 165.789091 334.965945 
L 162.181818 334.521822 
L 158.574545 334.077705 
L 154.967273 333.633583 
L 151.36 333.189466 
L 147.752727 332.745343 
L 147.251525 332.683636 
L 144.145455 332.301225 
L 140.538182 331.857102 
L 136.930909 331.412986 
L 133.323636 330.968863 
L 129.716364 330.524744 
L 126.109091 330.080625 
L 122.501818 329.636501 
L 118.894545 329.192385 
L 115.287273 328.748262 
L 111.68 328.424458 
L 108.072727 328.337929 
L 106.064003 328.290909 
L 104.465455 328.253491 
L 100.858182 328.169045 
L 97.250909 328.084606 
L 93.643636 328.000162 
L 90.036364 327.915722 
L 86.429091 327.831276 
L 82.821818 327.781088 
L 79.214545 328.022899 
L 75.932478 328.290909 
L 75.607273 328.318211 
L 72 328.623299 
L 72 332.683636 
L 72 337.076364 
L 72 341.469091 
L 72 345.861818 
L 72 350.254545 
L 72 354.647273 
L 72 359.04 
L 72 363.432727 
L 72 367.825455 
L 72 372.218182 
L 72 376.610909 
L 72 381.003636 
L 72 385.396364 
L 72 389.789091 
L 72 394.181818 
L 72 398.574545 
L 72 402.967273 
L 72 407.36 
L 72 411.752727 
L 72 416.145455 
L 72 420.538182 
L 72 424.930909 
L 72 429.323636 
L 72 433.716364 
L 72 438.109091 
L 72 442.501818 
L 72 446.894545 
L 72 451.287273 
L 72 455.68 
L 72 460.072727 
L 72 464.465455 
L 72 468.858182 
L 72 473.250909 
L 72 477.643636 
L 72 482.036364 
L 72 486.429091 
L 72 490.821818 
L 72 495.214545 
L 72 499.607273 
L 72 504 
z
" style="fill:#f6bfa6;"/>
    <path clip-path="url(#pbd0061fd46)" d="M 154.967273 224.773454 
L 158.574545 226.28931 
L 162.181818 225.909382 
L 165.789091 225.341147 
L 169.396364 224.785739 
L 173.003636 224.230327 
L 176.610909 223.67492 
L 180.218182 223.119518 
L 181.868272 222.865455 
L 183.825455 222.567202 
L 187.432727 222.0087 
L 191.04 221.453291 
L 194.647273 220.897872 
L 198.254545 220.342469 
L 201.861818 219.531259 
L 204.683107 218.472727 
L 205.469091 218.170575 
L 209.076364 216.762514 
L 212.683636 215.358266 
L 215.96725 214.08 
L 216.290909 213.960335 
L 219.898182 212.608343 
L 223.505455 211.22185 
L 227.112727 209.805613 
L 227.393511 209.687273 
L 230.72 208.438614 
L 234.327273 207.182697 
L 237.934545 206.279811 
L 239.232182 205.294545 
L 241.541818 204.492622 
L 245.149091 204.213885 
L 247.868934 200.901818 
L 248.756364 200.379508 
L 252.363636 199.839206 
L 255.098301 196.509091 
L 255.970909 195.991033 
L 259.578182 195.463939 
L 262.328312 192.116364 
L 263.185455 191.603271 
L 266.792727 191.088101 
L 269.565758 187.723636 
L 270.4 187.220944 
L 274.007273 186.711723 
L 276.825598 183.330909 
L 277.614545 182.854388 
L 281.221818 182.334842 
L 284.098394 178.938182 
L 284.829091 178.496841 
L 288.436364 177.957459 
L 291.371149 174.545455 
L 292.043636 174.139275 
L 295.650909 173.579621 
L 298.643947 170.152727 
L 299.258182 169.781733 
L 302.865455 169.201338 
L 305.916741 165.76 
L 306.472727 165.424187 
L 310.08 164.82262 
L 313.189518 161.367273 
L 313.687273 161.066633 
L 317.294545 160.443498 
L 320.462263 156.974545 
L 320.901818 156.709056 
L 324.509091 156.063992 
L 327.735029 152.581818 
L 328.116364 152.351494 
L 331.723636 151.684108 
L 335.007831 148.189091 
L 335.330909 147.993954 
L 338.938182 147.303872 
L 342.280631 143.796364 
L 342.545455 143.636412 
L 346.152727 142.923296 
L 349.553386 139.403636 
L 349.76 139.278841 
L 353.367273 138.542387 
L 356.826187 135.010909 
L 356.974545 134.921301 
L 360.581818 134.161154 
L 364.098922 130.618182 
L 364.189091 130.56372 
L 367.796364 129.779625 
L 371.371711 126.225455 
L 371.403636 126.206171 
L 375.010909 125.397802 
L 378.618182 121.965666 
L 378.72735 121.832727 
L 382.225455 121.015707 
L 385.832727 117.840147 
L 386.161325 117.44 
L 389.44 116.63334 
L 393.047273 113.683223 
L 393.56951 113.047273 
L 396.654545 112.250707 
L 400.261818 109.499988 
L 400.956089 108.654545 
L 403.869091 107.867825 
L 407.476364 105.294433 
L 408.324339 104.261818 
L 411.083636 103.484711 
L 414.690909 101.070248 
L 415.67729 99.869091 
L 418.298182 99.101358 
L 421.905455 96.876785 
L 423.055469 95.476364 
L 425.512727 94.723163 
L 429.12 92.802117 
L 429.12 91.083636 
L 429.12 86.690909 
L 429.12 82.298182 
L 429.12 77.905455 
L 429.12 73.512727 
L 429.12 69.12 
L 425.512727 69.12 
L 421.905455 69.12 
L 418.298182 69.12 
L 414.690909 69.12 
L 411.083636 69.12 
L 407.476364 69.12 
L 403.869091 69.12 
L 400.261818 69.12 
L 396.654545 69.12 
L 393.047273 69.12 
L 389.44 69.12 
L 386.938057 69.12 
L 385.832727 69.787607 
L 382.225455 71.966393 
L 379.665284 73.512727 
L 378.618182 74.145169 
L 375.010909 76.323934 
L 372.392452 77.905455 
L 371.403636 78.502698 
L 367.796364 80.681498 
L 365.119744 82.298182 
L 364.189091 82.860293 
L 360.581818 85.039072 
L 357.846948 86.690909 
L 356.974545 87.217835 
L 353.367273 89.396611 
L 350.574175 91.083636 
L 349.76 91.575394 
L 346.152727 93.754167 
L 343.301402 95.476364 
L 342.545455 95.932954 
L 338.938182 98.111705 
L 336.028588 99.869091 
L 335.330909 100.290488 
L 331.723636 102.469269 
L 328.75581 104.261818 
L 328.116364 104.648043 
L 324.509091 106.826836 
L 321.483054 108.654545 
L 320.901818 109.005607 
L 317.294545 111.184396 
L 314.210293 113.047273 
L 313.687273 113.363173 
L 310.08 115.541945 
L 306.937507 117.44 
L 306.472727 117.720725 
L 302.865455 119.899492 
L 299.664723 121.832727 
L 299.258182 122.078277 
L 295.650909 124.257052 
L 292.391923 126.225455 
L 292.043636 126.435817 
L 288.436364 128.614596 
L 285.11912 130.618182 
L 284.829091 130.793358 
L 281.221818 132.972163 
L 277.846413 135.010909 
L 277.614545 135.150956 
L 274.007273 137.329719 
L 270.573615 139.403636 
L 270.4 139.508499 
L 266.792727 141.687279 
L 263.300817 143.796364 
L 263.185455 143.866041 
L 259.578182 146.044823 
L 256.028013 148.189091 
L 255.970909 148.223581 
L 252.363636 150.402369 
L 248.756364 152.581151 
L 248.755259 152.581818 
L 245.149091 154.759924 
L 241.541818 156.773469 
L 241.061433 156.974545 
L 237.934545 158.276231 
L 234.327273 159.630302 
L 230.72 160.984364 
L 229.699917 161.367273 
L 227.112727 162.33842 
L 223.505455 163.692474 
L 219.898182 165.046542 
L 217.997474 165.76 
L 216.290909 166.400583 
L 212.683636 167.754653 
L 209.076364 169.108697 
L 206.295014 170.152727 
L 205.469091 170.462755 
L 201.861818 171.816812 
L 198.254545 173.170868 
L 194.647273 174.417341 
L 193.185433 174.545455 
L 191.04 174.733479 
L 187.432727 175.049615 
L 183.825455 175.365741 
L 180.218182 175.088735 
L 179.257698 174.545455 
L 176.610909 173.184201 
L 173.003636 170.930369 
L 171.759004 170.152727 
L 169.396364 168.676552 
L 165.789091 166.422708 
L 164.72843 165.76 
L 162.181818 164.168872 
L 158.574545 161.915037 
L 157.79784 161.367273 
L 154.967273 159.013198 
L 152.860138 156.974545 
L 151.36 155.523168 
L 148.319848 152.581818 
L 147.752727 152.033133 
L 144.145455 148.543164 
L 143.779485 148.189091 
L 140.538182 145.053121 
L 139.239214 143.796364 
L 136.930909 141.563091 
L 134.698877 139.403636 
L 133.323636 138.073099 
L 130.158582 135.010909 
L 129.716364 134.583197 
L 126.109091 131.097221 
L 125.612953 130.618182 
L 122.501818 127.616586 
L 121.059928 126.225455 
L 118.894545 124.136296 
L 116.506917 121.832727 
L 115.287273 120.656038 
L 111.953834 117.44 
L 111.68 117.175807 
L 108.072727 113.695522 
L 107.400825 113.047273 
L 104.465455 110.215234 
L 102.84782 108.654545 
L 100.858182 106.734947 
L 98.294813 104.261818 
L 97.250909 103.254673 
L 93.741762 99.869091 
L 93.643636 99.77442 
L 90.036364 96.294149 
L 89.262373 95.476364 
L 86.429091 92.454369 
L 85.18379 91.083636 
L 82.821818 88.483766 
L 81.193003 86.690909 
L 79.214545 84.513221 
L 77.202201 82.298182 
L 75.607273 80.542572 
L 73.211466 77.905455 
L 72 76.571968 
L 72 77.905455 
L 72 82.298182 
L 72 86.690909 
L 72 91.083636 
L 72 95.476364 
L 72 99.869091 
L 72 104.261818 
L 72 108.654545 
L 72 113.047273 
L 72 117.44 
L 72 121.832727 
L 72 126.225455 
L 72 130.618182 
L 72 135.010909 
L 72 139.403636 
L 72 143.796364 
L 72 148.189091 
L 72 152.581818 
L 72 153.824304 
L 74.861972 156.974545 
L 75.607273 157.795881 
L 78.845271 161.367273 
L 79.214545 161.77484 
L 82.821818 165.756155 
L 82.82562 165.76 
L 86.429091 169.370181 
L 87.237931 170.152727 
L 90.036364 172.860196 
L 91.778246 174.545455 
L 93.643636 176.350204 
L 96.318539 178.938182 
L 97.250909 179.840247 
L 100.858182 183.330258 
L 100.858855 183.330909 
L 104.465455 186.820279 
L 105.39916 187.723636 
L 108.072727 190.310296 
L 109.939463 192.116364 
L 111.68 193.800335 
L 114.479765 196.509091 
L 115.287273 197.290345 
L 118.894545 200.78036 
L 119.020084 200.901818 
L 122.501818 204.238423 
L 123.948951 205.294545 
L 126.109091 206.644197 
L 129.716364 208.89803 
L 130.979557 209.687273 
L 133.323636 211.151863 
L 136.930909 213.405702 
L 138.010121 214.08 
L 140.538182 215.65954 
L 144.145455 217.913377 
L 145.040701 218.472727 
L 147.752727 220.167202 
L 151.36 222.421048 
L 152.071274 222.865455 
z
" style="fill:#f6bfa6;"/>
   </g>
   <g id="PathCollection_6">
    <path clip-path="url(#pbd0061fd46)" d="M 180.218182 175.088735 
L 183.825455 175.365741 
L 187.432727 175.049615 
L 191.04 174.733479 
L 193.185433 174.545455 
L 194.647273 174.417341 
L 198.254545 173.170868 
L 201.861818 171.816812 
L 205.469091 170.462755 
L 206.295014 170.152727 
L 209.076364 169.108697 
L 212.683636 167.754653 
L 216.290909 166.400583 
L 217.997474 165.76 
L 219.898182 165.046542 
L 223.505455 163.692474 
L 227.112727 162.33842 
L 229.699917 161.367273 
L 230.72 160.984364 
L 234.327273 159.630302 
L 237.934545 158.276231 
L 241.061433 156.974545 
L 241.541818 156.773469 
L 245.149091 154.759924 
L 248.755259 152.581818 
L 248.756364 152.581151 
L 252.363636 150.402369 
L 255.970909 148.223581 
L 256.028013 148.189091 
L 259.578182 146.044823 
L 263.185455 143.866041 
L 263.300817 143.796364 
L 266.792727 141.687279 
L 270.4 139.508499 
L 270.573615 139.403636 
L 274.007273 137.329719 
L 277.614545 135.150956 
L 277.846413 135.010909 
L 281.221818 132.972163 
L 284.829091 130.793358 
L 285.11912 130.618182 
L 288.436364 128.614596 
L 292.043636 126.435817 
L 292.391923 126.225455 
L 295.650909 124.257052 
L 299.258182 122.078277 
L 299.664723 121.832727 
L 302.865455 119.899492 
L 306.472727 117.720725 
L 306.937507 117.44 
L 310.08 115.541945 
L 313.687273 113.363173 
L 314.210293 113.047273 
L 317.294545 111.184396 
L 320.901818 109.005607 
L 321.483054 108.654545 
L 324.509091 106.826836 
L 328.116364 104.648043 
L 328.75581 104.261818 
L 331.723636 102.469269 
L 335.330909 100.290488 
L 336.028588 99.869091 
L 338.938182 98.111705 
L 342.545455 95.932954 
L 343.301402 95.476364 
L 346.152727 93.754167 
L 349.76 91.575394 
L 350.574175 91.083636 
L 353.367273 89.396611 
L 356.974545 87.217835 
L 357.846948 86.690909 
L 360.581818 85.039072 
L 364.189091 82.860293 
L 365.119744 82.298182 
L 367.796364 80.681498 
L 371.403636 78.502698 
L 372.392452 77.905455 
L 375.010909 76.323934 
L 378.618182 74.145169 
L 379.665284 73.512727 
L 382.225455 71.966393 
L 385.832727 69.787607 
L 386.938057 69.12 
L 385.832727 69.12 
L 382.225455 69.12 
L 378.618182 69.12 
L 375.010909 69.12 
L 371.403636 69.12 
L 367.796364 69.12 
L 364.189091 69.12 
L 360.581818 69.12 
L 356.974545 69.12 
L 353.367273 69.12 
L 349.76 69.12 
L 346.152727 69.12 
L 342.545455 69.12 
L 338.938182 69.12 
L 335.330909 69.12 
L 331.723636 69.12 
L 328.116364 69.12 
L 324.509091 69.12 
L 320.901818 69.12 
L 317.294545 69.12 
L 313.687273 69.12 
L 310.08 69.12 
L 307.958298 69.12 
L 306.472727 70.017277 
L 302.865455 72.19604 
L 300.685488 73.512727 
L 299.258182 74.374814 
L 295.650909 76.553585 
L 293.412691 77.905455 
L 292.043636 78.732365 
L 288.436364 80.91116 
L 286.139948 82.298182 
L 284.829091 83.089926 
L 281.221818 85.2687 
L 278.867153 86.690909 
L 277.614545 87.447486 
L 274.007273 89.626262 
L 271.59438 91.083636 
L 270.4 91.805037 
L 266.792727 93.983836 
L 264.321616 95.476364 
L 263.185455 96.162592 
L 259.578182 98.341372 
L 257.048809 99.869091 
L 255.970909 100.520134 
L 252.363636 102.698905 
L 249.776031 104.261818 
L 248.756364 104.877701 
L 245.149091 106.918555 
L 241.541818 108.579901 
L 241.194385 108.654545 
L 237.934545 109.368118 
L 234.327273 109.684259 
L 230.72 110.000394 
L 227.112727 110.316532 
L 223.505455 110.632644 
L 219.898182 110.948798 
L 216.290909 111.264938 
L 212.683636 111.581062 
L 209.076364 111.330002 
L 205.469091 110.360278 
L 201.861818 109.390536 
L 199.123998 108.654545 
L 198.254545 108.386649 
L 194.647273 106.479646 
L 191.04 104.363664 
L 190.866371 104.261818 
L 187.432727 102.263164 
L 183.825455 100.186299 
L 183.270941 99.869091 
L 180.218182 98.123358 
L 176.610909 96.060568 
L 175.589301 95.476364 
L 173.003636 93.99776 
L 169.396364 91.934939 
L 167.907653 91.083636 
L 165.789091 89.87216 
L 162.181818 87.809339 
L 160.226001 86.690909 
L 158.574545 85.746535 
L 154.967273 82.412625 
L 154.848652 82.298182 
L 151.36 78.932319 
L 150.295675 77.905455 
L 147.752727 75.452015 
L 145.742666 73.512727 
L 144.145455 71.971764 
L 141.189589 69.12 
L 140.538182 69.12 
L 136.930909 69.12 
L 133.323636 69.12 
L 129.716364 69.12 
L 126.109091 69.12 
L 122.501818 69.12 
L 118.894545 69.12 
L 115.287273 69.12 
L 111.68 69.12 
L 108.072727 69.12 
L 104.465455 69.12 
L 100.858182 69.12 
L 97.250909 69.12 
L 93.643636 69.12 
L 90.036364 69.12 
L 86.429091 69.12 
L 82.821818 69.12 
L 79.214545 69.12 
L 75.607273 69.12 
L 72 69.12 
L 72 73.512727 
L 72 76.571968 
L 73.211466 77.905455 
L 75.607273 80.542572 
L 77.202201 82.298182 
L 79.214545 84.513221 
L 81.193003 86.690909 
L 82.821818 88.483766 
L 85.18379 91.083636 
L 86.429091 92.454369 
L 89.262373 95.476364 
L 90.036364 96.294149 
L 93.643636 99.77442 
L 93.741762 99.869091 
L 97.250909 103.254673 
L 98.294813 104.261818 
L 100.858182 106.734947 
L 102.84782 108.654545 
L 104.465455 110.215234 
L 107.400825 113.047273 
L 108.072727 113.695522 
L 111.68 117.175807 
L 111.953834 117.44 
L 115.287273 120.656038 
L 116.506917 121.832727 
L 118.894545 124.136296 
L 121.059928 126.225455 
L 122.501818 127.616586 
L 125.612953 130.618182 
L 126.109091 131.097221 
L 129.716364 134.583197 
L 130.158582 135.010909 
L 133.323636 138.073099 
L 134.698877 139.403636 
L 136.930909 141.563091 
L 139.239214 143.796364 
L 140.538182 145.053121 
L 143.779485 148.189091 
L 144.145455 148.543164 
L 147.752727 152.033133 
L 148.319848 152.581818 
L 151.36 155.523168 
L 152.860138 156.974545 
L 154.967273 159.013198 
L 157.79784 161.367273 
L 158.574545 161.915037 
L 162.181818 164.168872 
L 164.72843 165.76 
L 165.789091 166.422708 
L 169.396364 168.676552 
L 171.759004 170.152727 
L 173.003636 170.930369 
L 176.610909 173.184201 
L 179.257698 174.545455 
z
" style="fill:#f08a6c;"/>
   </g>
   <g id="PathCollection_7">
    <path clip-path="url(#pbd0061fd46)" d="M 201.861818 109.390536 
L 205.469091 110.360278 
L 209.076364 111.330002 
L 212.683636 111.581062 
L 216.290909 111.264938 
L 219.898182 110.948798 
L 223.505455 110.632644 
L 227.112727 110.316532 
L 230.72 110.000394 
L 234.327273 109.684259 
L 237.934545 109.368118 
L 241.194385 108.654545 
L 241.541818 108.579901 
L 245.149091 106.918555 
L 248.756364 104.877701 
L 249.776031 104.261818 
L 252.363636 102.698905 
L 255.970909 100.520134 
L 257.048809 99.869091 
L 259.578182 98.341372 
L 263.185455 96.162592 
L 264.321616 95.476364 
L 266.792727 93.983836 
L 270.4 91.805037 
L 271.59438 91.083636 
L 274.007273 89.626262 
L 277.614545 87.447486 
L 278.867153 86.690909 
L 281.221818 85.2687 
L 284.829091 83.089926 
L 286.139948 82.298182 
L 288.436364 80.91116 
L 292.043636 78.732365 
L 293.412691 77.905455 
L 295.650909 76.553585 
L 299.258182 74.374814 
L 300.685488 73.512727 
L 302.865455 72.19604 
L 306.472727 70.017277 
L 307.958298 69.12 
L 306.472727 69.12 
L 302.865455 69.12 
L 299.258182 69.12 
L 295.650909 69.12 
L 292.043636 69.12 
L 288.436364 69.12 
L 284.829091 69.12 
L 281.221818 69.12 
L 277.614545 69.12 
L 274.007273 69.12 
L 270.4 69.12 
L 266.792727 69.12 
L 263.185455 69.12 
L 259.578182 69.12 
L 255.970909 69.12 
L 252.363636 69.12 
L 248.756364 69.12 
L 245.149091 69.12 
L 241.541818 69.12 
L 237.934545 69.12 
L 234.327273 69.12 
L 230.72 69.12 
L 227.112727 69.12 
L 223.505455 69.12 
L 219.898182 69.12 
L 216.290909 69.12 
L 212.683636 69.12 
L 209.076364 69.12 
L 205.469091 69.12 
L 201.861818 69.12 
L 198.254545 69.12 
L 194.647273 69.12 
L 191.04 69.12 
L 187.432727 69.12 
L 183.825455 69.12 
L 180.218182 69.12 
L 176.610909 69.12 
L 173.003636 69.12 
L 169.396364 69.12 
L 165.789091 69.12 
L 162.181818 69.12 
L 158.574545 69.12 
L 154.967273 69.12 
L 151.36 69.12 
L 147.752727 69.12 
L 144.145455 69.12 
L 141.189589 69.12 
L 144.145455 71.971764 
L 145.742666 73.512727 
L 147.752727 75.452015 
L 150.295675 77.905455 
L 151.36 78.932319 
L 154.848652 82.298182 
L 154.967273 82.412625 
L 158.574545 85.746535 
L 160.226001 86.690909 
L 162.181818 87.809339 
L 165.789091 89.87216 
L 167.907653 91.083636 
L 169.396364 91.934939 
L 173.003636 93.99776 
L 175.589301 95.476364 
L 176.610909 96.060568 
L 180.218182 98.123358 
L 183.270941 99.869091 
L 183.825455 100.186299 
L 187.432727 102.263164 
L 190.866371 104.261818 
L 191.04 104.363664 
L 194.647273 106.479646 
L 198.254545 108.386649 
L 199.123998 108.654545 
z
" style="fill:#cd423b;"/>
   </g>
   <g id="matplotlib.axis_1">
    <g id="xtick_1">
     <g id="line2d_1">
      <defs>
       <path d="M 0 0 
L 0 3.5 
" id="m45f869462a" style="stroke:#000000;stroke-width:0.8;"/>
      </defs>
      <g>
       <use style="stroke:#000000;stroke-width:0.8;" x="72" xlink:href="#m45f869462a" y="504"/>
      </g>
     </g>
     <g id="text_1">
      <!-- −0.50 -->
      <defs>
       <path d="M 10.59375 35.5 
L 73.1875 35.5 
L 73.1875 27.203125 
L 10.59375 27.203125 
z
" id="DejaVuSans-2212"/>
       <path d="M 31.78125 66.40625 
Q 24.171875 66.40625 20.328125 58.90625 
Q 16.5 51.421875 16.5 36.375 
Q 16.5 21.390625 20.328125 13.890625 
Q 24.171875 6.390625 31.78125 6.390625 
Q 39.453125 6.390625 43.28125 13.890625 
Q 47.125 21.390625 47.125 36.375 
Q 47.125 51.421875 43.28125 58.90625 
Q 39.453125 66.40625 31.78125 66.40625 
z
M 31.78125 74.21875 
Q 44.046875 74.21875 50.515625 64.515625 
Q 56.984375 54.828125 56.984375 36.375 
Q 56.984375 17.96875 50.515625 8.265625 
Q 44.046875 -1.421875 31.78125 -1.421875 
Q 19.53125 -1.421875 13.0625 8.265625 
Q 6.59375 17.96875 6.59375 36.375 
Q 6.59375 54.828125 13.0625 64.515625 
Q 19.53125 74.21875 31.78125 74.21875 
z
" id="DejaVuSans-30"/>
       <path d="M 10.6875 12.40625 
L 21 12.40625 
L 21 0 
L 10.6875 0 
z
" id="DejaVuSans-2e"/>
       <path d="M 10.796875 72.90625 
L 49.515625 72.90625 
L 49.515625 64.59375 
L 19.828125 64.59375 
L 19.828125 46.734375 
Q 21.96875 47.46875 24.109375 47.828125 
Q 26.265625 48.1875 28.421875 48.1875 
Q 40.625 48.1875 47.75 41.5 
Q 54.890625 34.8125 54.890625 23.390625 
Q 54.890625 11.625 47.5625 5.09375 
Q 40.234375 -1.421875 26.90625 -1.421875 
Q 22.3125 -1.421875 17.546875 -0.640625 
Q 12.796875 0.140625 7.71875 1.703125 
L 7.71875 11.625 
Q 12.109375 9.234375 16.796875 8.0625 
Q 21.484375 6.890625 26.703125 6.890625 
Q 35.15625 6.890625 40.078125 11.328125 
Q 45.015625 15.765625 45.015625 23.390625 
Q 45.015625 31 40.078125 35.4375 
Q 35.15625 39.890625 26.703125 39.890625 
Q 22.75 39.890625 18.8125 39.015625 
Q 14.890625 38.140625 10.796875 36.28125 
z
" id="DejaVuSans-35"/>
      </defs>
      <g transform="translate(56.677344 518.598438)scale(0.1 -0.1)">
       <use xlink:href="#DejaVuSans-2212"/>
       <use x="83.789062" xlink:href="#DejaVuSans-30"/>
       <use x="147.412109" xlink:href="#DejaVuSans-2e"/>
       <use x="179.199219" xlink:href="#DejaVuSans-35"/>
       <use x="242.822266" xlink:href="#DejaVuSans-30"/>
      </g>
     </g>
    </g>
    <g id="xtick_2">
     <g id="line2d_2">
      <g>
       <use style="stroke:#000000;stroke-width:0.8;" x="116.64" xlink:href="#m45f869462a" y="504"/>
      </g>
     </g>
     <g id="text_2">
      <!-- −0.25 -->
      <defs>
       <path d="M 19.1875 8.296875 
L 53.609375 8.296875 
L 53.609375 0 
L 7.328125 0 
L 7.328125 8.296875 
Q 12.9375 14.109375 22.625 23.890625 
Q 32.328125 33.6875 34.8125 36.53125 
Q 39.546875 41.84375 41.421875 45.53125 
Q 43.3125 49.21875 43.3125 52.78125 
Q 43.3125 58.59375 39.234375 62.25 
Q 35.15625 65.921875 28.609375 65.921875 
Q 23.96875 65.921875 18.8125 64.3125 
Q 13.671875 62.703125 7.8125 59.421875 
L 7.8125 69.390625 
Q 13.765625 71.78125 18.9375 73 
Q 24.125 74.21875 28.421875 74.21875 
Q 39.75 74.21875 46.484375 68.546875 
Q 53.21875 62.890625 53.21875 53.421875 
Q 53.21875 48.921875 51.53125 44.890625 
Q 49.859375 40.875 45.40625 35.40625 
Q 44.1875 33.984375 37.640625 27.21875 
Q 31.109375 20.453125 19.1875 8.296875 
z
" id="DejaVuSans-32"/>
      </defs>
      <g transform="translate(101.317344 518.598438)scale(0.1 -0.1)">
       <use xlink:href="#DejaVuSans-2212"/>
       <use x="83.789062" xlink:href="#DejaVuSans-30"/>
       <use x="147.412109" xlink:href="#DejaVuSans-2e"/>
       <use x="179.199219" xlink:href="#DejaVuSans-32"/>
       <use x="242.822266" xlink:href="#DejaVuSans-35"/>
      </g>
     </g>
    </g>
    <g id="xtick_3">
     <g id="line2d_3">
      <g>
       <use style="stroke:#000000;stroke-width:0.8;" x="161.28" xlink:href="#m45f869462a" y="504"/>
      </g>
     </g>
     <g id="text_3">
      <!-- 0.00 -->
      <g transform="translate(150.147188 518.598438)scale(0.1 -0.1)">
       <use xlink:href="#DejaVuSans-30"/>
       <use x="63.623047" xlink:href="#DejaVuSans-2e"/>
       <use x="95.410156" xlink:href="#DejaVuSans-30"/>
       <use x="159.033203" xlink:href="#DejaVuSans-30"/>
      </g>
     </g>
    </g>
    <g id="xtick_4">
     <g id="line2d_4">
      <g>
       <use style="stroke:#000000;stroke-width:0.8;" x="205.92" xlink:href="#m45f869462a" y="504"/>
      </g>
     </g>
     <g id="text_4">
      <!-- 0.25 -->
      <g transform="translate(194.787188 518.598438)scale(0.1 -0.1)">
       <use xlink:href="#DejaVuSans-30"/>
       <use x="63.623047" xlink:href="#DejaVuSans-2e"/>
       <use x="95.410156" xlink:href="#DejaVuSans-32"/>
       <use x="159.033203" xlink:href="#DejaVuSans-35"/>
      </g>
     </g>
    </g>
    <g id="xtick_5">
     <g id="line2d_5">
      <g>
       <use style="stroke:#000000;stroke-width:0.8;" x="250.56" xlink:href="#m45f869462a" y="504"/>
      </g>
     </g>
     <g id="text_5">
      <!-- 0.50 -->
      <g transform="translate(239.427188 518.598438)scale(0.1 -0.1)">
       <use xlink:href="#DejaVuSans-30"/>
       <use x="63.623047" xlink:href="#DejaVuSans-2e"/>
       <use x="95.410156" xlink:href="#DejaVuSans-35"/>
       <use x="159.033203" xlink:href="#DejaVuSans-30"/>
      </g>
     </g>
    </g>
    <g id="xtick_6">
     <g id="line2d_6">
      <g>
       <use style="stroke:#000000;stroke-width:0.8;" x="295.2" xlink:href="#m45f869462a" y="504"/>
      </g>
     </g>
     <g id="text_6">
      <!-- 0.75 -->
      <defs>
       <path d="M 8.203125 72.90625 
L 55.078125 72.90625 
L 55.078125 68.703125 
L 28.609375 0 
L 18.3125 0 
L 43.21875 64.59375 
L 8.203125 64.59375 
z
" id="DejaVuSans-37"/>
      </defs>
      <g transform="translate(284.067188 518.598438)scale(0.1 -0.1)">
       <use xlink:href="#DejaVuSans-30"/>
       <use x="63.623047" xlink:href="#DejaVuSans-2e"/>
       <use x="95.410156" xlink:href="#DejaVuSans-37"/>
       <use x="159.033203" xlink:href="#DejaVuSans-35"/>
      </g>
     </g>
    </g>
    <g id="xtick_7">
     <g id="line2d_7">
      <g>
       <use style="stroke:#000000;stroke-width:0.8;" x="339.84" xlink:href="#m45f869462a" y="504"/>
      </g>
     </g>
     <g id="text_7">
      <!-- 1.00 -->
      <defs>
       <path d="M 12.40625 8.296875 
L 28.515625 8.296875 
L 28.515625 63.921875 
L 10.984375 60.40625 
L 10.984375 69.390625 
L 28.421875 72.90625 
L 38.28125 72.90625 
L 38.28125 8.296875 
L 54.390625 8.296875 
L 54.390625 0 
L 12.40625 0 
z
" id="DejaVuSans-31"/>
      </defs>
      <g transform="translate(328.707188 518.598438)scale(0.1 -0.1)">
       <use xlink:href="#DejaVuSans-31"/>
       <use x="63.623047" xlink:href="#DejaVuSans-2e"/>
       <use x="95.410156" xlink:href="#DejaVuSans-30"/>
       <use x="159.033203" xlink:href="#DejaVuSans-30"/>
      </g>
     </g>
    </g>
    <g id="xtick_8">
     <g id="line2d_8">
      <g>
       <use style="stroke:#000000;stroke-width:0.8;" x="384.48" xlink:href="#m45f869462a" y="504"/>
      </g>
     </g>
     <g id="text_8">
      <!-- 1.25 -->
      <g transform="translate(373.347188 518.598438)scale(0.1 -0.1)">
       <use xlink:href="#DejaVuSans-31"/>
       <use x="63.623047" xlink:href="#DejaVuSans-2e"/>
       <use x="95.410156" xlink:href="#DejaVuSans-32"/>
       <use x="159.033203" xlink:href="#DejaVuSans-35"/>
      </g>
     </g>
    </g>
    <g id="xtick_9">
     <g id="line2d_9">
      <g>
       <use style="stroke:#000000;stroke-width:0.8;" x="429.12" xlink:href="#m45f869462a" y="504"/>
      </g>
     </g>
     <g id="text_9">
      <!-- 1.50 -->
      <g transform="translate(417.987188 518.598438)scale(0.1 -0.1)">
       <use xlink:href="#DejaVuSans-31"/>
       <use x="63.623047" xlink:href="#DejaVuSans-2e"/>
       <use x="95.410156" xlink:href="#DejaVuSans-35"/>
       <use x="159.033203" xlink:href="#DejaVuSans-30"/>
      </g>
     </g>
    </g>
   </g>
   <g id="matplotlib.axis_2">
    <g id="ytick_1">
     <g id="line2d_10">
      <defs>
       <path d="M 0 0 
L -3.5 0 
" id="m5f902fd703" style="stroke:#000000;stroke-width:0.8;"/>
      </defs>
      <g>
       <use style="stroke:#000000;stroke-width:0.8;" x="72" xlink:href="#m5f902fd703" y="504"/>
      </g>
     </g>
     <g id="text_10">
      <!-- −0.50 -->
      <g transform="translate(34.354687 507.799219)scale(0.1 -0.1)">
       <use xlink:href="#DejaVuSans-2212"/>
       <use x="83.789062" xlink:href="#DejaVuSans-30"/>
       <use x="147.412109" xlink:href="#DejaVuSans-2e"/>
       <use x="179.199219" xlink:href="#DejaVuSans-35"/>
       <use x="242.822266" xlink:href="#DejaVuSans-30"/>
      </g>
     </g>
    </g>
    <g id="ytick_2">
     <g id="line2d_11">
      <g>
       <use style="stroke:#000000;stroke-width:0.8;" x="72" xlink:href="#m5f902fd703" y="449.64"/>
      </g>
     </g>
     <g id="text_11">
      <!-- −0.25 -->
      <g transform="translate(34.354687 453.439219)scale(0.1 -0.1)">
       <use xlink:href="#DejaVuSans-2212"/>
       <use x="83.789062" xlink:href="#DejaVuSans-30"/>
       <use x="147.412109" xlink:href="#DejaVuSans-2e"/>
       <use x="179.199219" xlink:href="#DejaVuSans-32"/>
       <use x="242.822266" xlink:href="#DejaVuSans-35"/>
      </g>
     </g>
    </g>
    <g id="ytick_3">
     <g id="line2d_12">
      <g>
       <use style="stroke:#000000;stroke-width:0.8;" x="72" xlink:href="#m5f902fd703" y="395.28"/>
      </g>
     </g>
     <g id="text_12">
      <!-- 0.00 -->
      <g transform="translate(42.734375 399.079219)scale(0.1 -0.1)">
       <use xlink:href="#DejaVuSans-30"/>
       <use x="63.623047" xlink:href="#DejaVuSans-2e"/>
       <use x="95.410156" xlink:href="#DejaVuSans-30"/>
       <use x="159.033203" xlink:href="#DejaVuSans-30"/>
      </g>
     </g>
    </g>
    <g id="ytick_4">
     <g id="line2d_13">
      <g>
       <use style="stroke:#000000;stroke-width:0.8;" x="72" xlink:href="#m5f902fd703" y="340.92"/>
      </g>
     </g>
     <g id="text_13">
      <!-- 0.25 -->
      <g transform="translate(42.734375 344.719219)scale(0.1 -0.1)">
       <use xlink:href="#DejaVuSans-30"/>
       <use x="63.623047" xlink:href="#DejaVuSans-2e"/>
       <use x="95.410156" xlink:href="#DejaVuSans-32"/>
       <use x="159.033203" xlink:href="#DejaVuSans-35"/>
      </g>
     </g>
    </g>
    <g id="ytick_5">
     <g id="line2d_14">
      <g>
       <use style="stroke:#000000;stroke-width:0.8;" x="72" xlink:href="#m5f902fd703" y="286.56"/>
      </g>
     </g>
     <g id="text_14">
      <!-- 0.50 -->
      <g transform="translate(42.734375 290.359219)scale(0.1 -0.1)">
       <use xlink:href="#DejaVuSans-30"/>
       <use x="63.623047" xlink:href="#DejaVuSans-2e"/>
       <use x="95.410156" xlink:href="#DejaVuSans-35"/>
       <use x="159.033203" xlink:href="#DejaVuSans-30"/>
      </g>
     </g>
    </g>
    <g id="ytick_6">
     <g id="line2d_15">
      <g>
       <use style="stroke:#000000;stroke-width:0.8;" x="72" xlink:href="#m5f902fd703" y="232.2"/>
      </g>
     </g>
     <g id="text_15">
      <!-- 0.75 -->
      <g transform="translate(42.734375 235.999219)scale(0.1 -0.1)">
       <use xlink:href="#DejaVuSans-30"/>
       <use x="63.623047" xlink:href="#DejaVuSans-2e"/>
       <use x="95.410156" xlink:href="#DejaVuSans-37"/>
       <use x="159.033203" xlink:href="#DejaVuSans-35"/>
      </g>
     </g>
    </g>
    <g id="ytick_7">
     <g id="line2d_16">
      <g>
       <use style="stroke:#000000;stroke-width:0.8;" x="72" xlink:href="#m5f902fd703" y="177.84"/>
      </g>
     </g>
     <g id="text_16">
      <!-- 1.00 -->
      <g transform="translate(42.734375 181.639219)scale(0.1 -0.1)">
       <use xlink:href="#DejaVuSans-31"/>
       <use x="63.623047" xlink:href="#DejaVuSans-2e"/>
       <use x="95.410156" xlink:href="#DejaVuSans-30"/>
       <use x="159.033203" xlink:href="#DejaVuSans-30"/>
      </g>
     </g>
    </g>
    <g id="ytick_8">
     <g id="line2d_17">
      <g>
       <use style="stroke:#000000;stroke-width:0.8;" x="72" xlink:href="#m5f902fd703" y="123.48"/>
      </g>
     </g>
     <g id="text_17">
      <!-- 1.25 -->
      <g transform="translate(42.734375 127.279219)scale(0.1 -0.1)">
       <use xlink:href="#DejaVuSans-31"/>
       <use x="63.623047" xlink:href="#DejaVuSans-2e"/>
       <use x="95.410156" xlink:href="#DejaVuSans-32"/>
       <use x="159.033203" xlink:href="#DejaVuSans-35"/>
      </g>
     </g>
    </g>
    <g id="ytick_9">
     <g id="line2d_18">
      <g>
       <use style="stroke:#000000;stroke-width:0.8;" x="72" xlink:href="#m5f902fd703" y="69.12"/>
      </g>
     </g>
     <g id="text_18">
      <!-- 1.50 -->
      <g transform="translate(42.734375 72.919219)scale(0.1 -0.1)">
       <use xlink:href="#DejaVuSans-31"/>
       <use x="63.623047" xlink:href="#DejaVuSans-2e"/>
       <use x="95.410156" xlink:href="#DejaVuSans-35"/>
       <use x="159.033203" xlink:href="#DejaVuSans-30"/>
      </g>
     </g>
    </g>
   </g>
   <g id="patch_3">
    <path d="M 72 504 
L 72 69.12 
" style="fill:none;stroke:#000000;stroke-linecap:square;stroke-linejoin:miter;stroke-width:0.8;"/>
   </g>
   <g id="patch_4">
    <path d="M 429.12 504 
L 429.12 69.12 
" style="fill:none;stroke:#000000;stroke-linecap:square;stroke-linejoin:miter;stroke-width:0.8;"/>
   </g>
   <g id="patch_5">
    <path d="M 72 504 
L 429.12 504 
" style="fill:none;stroke:#000000;stroke-linecap:square;stroke-linejoin:miter;stroke-width:0.8;"/>
   </g>
   <g id="patch_6">
    <path d="M 72 69.12 
L 429.12 69.12 
" style="fill:none;stroke:#000000;stroke-linecap:square;stroke-linejoin:miter;stroke-width:0.8;"/>
   </g>
  </g>
  <g id="axes_2">
   <g id="patch_7">
    <path clip-path="url(#p93fa31186e)" d="M 451.44 504 
L 451.44 441.874286 
L 451.44 131.245714 
L 451.44 69.12 
L 473.184 69.12 
L 473.184 131.245714 
L 473.184 441.874286 
L 473.184 504 
z
" style="fill:#ffffff;stroke:#ffffff;stroke-linejoin:miter;stroke-width:0.01;"/>
   </g>
   <g id="QuadMesh_1">
    <path clip-path="url(#p93fa31186e)" d="M 451.44 504 
L 473.184 504 
L 473.184 441.874286 
L 451.44 441.874286 
L 451.44 504 
" style="fill:#506bda;"/>
    <path clip-path="url(#p93fa31186e)" d="M 451.44 441.874286 
L 473.184 441.874286 
L 473.184 379.748571 
L 451.44 379.748571 
L 451.44 441.874286 
" style="fill:#80a3fa;"/>
    <path clip-path="url(#p93fa31186e)" d="M 451.44 379.748571 
L 473.184 379.748571 
L 473.184 317.622857 
L 451.44 317.622857 
L 451.44 379.748571 
" style="fill:#b2ccfb;"/>
    <path clip-path="url(#p93fa31186e)" d="M 451.44 317.622857 
L 473.184 317.622857 
L 473.184 255.497143 
L 451.44 255.497143 
L 451.44 317.622857 
" style="fill:#dddcdc;"/>
    <path clip-path="url(#p93fa31186e)" d="M 451.44 255.497143 
L 473.184 255.497143 
L 473.184 193.371429 
L 451.44 193.371429 
L 451.44 255.497143 
" style="fill:#f6bfa6;"/>
    <path clip-path="url(#p93fa31186e)" d="M 451.44 193.371429 
L 473.184 193.371429 
L 473.184 131.245714 
L 451.44 131.245714 
L 451.44 193.371429 
" style="fill:#f08a6c;"/>
    <path clip-path="url(#p93fa31186e)" d="M 451.44 131.245714 
L 473.184 131.245714 
L 473.184 69.12 
L 451.44 69.12 
L 451.44 131.245714 
" style="fill:#cd423b;"/>
   </g>
   <g id="matplotlib.axis_3"/>
   <g id="matplotlib.axis_4">
    <g id="ytick_10">
     <g id="line2d_19">
      <defs>
       <path d="M 0 0 
L 3.5 0 
" id="m0983f3068c" style="stroke:#000000;stroke-width:0.8;"/>
      </defs>
      <g>
       <use style="stroke:#000000;stroke-width:0.8;" x="473.184" xlink:href="#m0983f3068c" y="504"/>
      </g>
     </g>
     <g id="text_19">
      <!-- −60 -->
      <defs>
       <path d="M 33.015625 40.375 
Q 26.375 40.375 22.484375 35.828125 
Q 18.609375 31.296875 18.609375 23.390625 
Q 18.609375 15.53125 22.484375 10.953125 
Q 26.375 6.390625 33.015625 6.390625 
Q 39.65625 6.390625 43.53125 10.953125 
Q 47.40625 15.53125 47.40625 23.390625 
Q 47.40625 31.296875 43.53125 35.828125 
Q 39.65625 40.375 33.015625 40.375 
z
M 52.59375 71.296875 
L 52.59375 62.3125 
Q 48.875 64.0625 45.09375 64.984375 
Q 41.3125 65.921875 37.59375 65.921875 
Q 27.828125 65.921875 22.671875 59.328125 
Q 17.53125 52.734375 16.796875 39.40625 
Q 19.671875 43.65625 24.015625 45.921875 
Q 28.375 48.1875 33.59375 48.1875 
Q 44.578125 48.1875 50.953125 41.515625 
Q 57.328125 34.859375 57.328125 23.390625 
Q 57.328125 12.15625 50.6875 5.359375 
Q 44.046875 -1.421875 33.015625 -1.421875 
Q 20.359375 -1.421875 13.671875 8.265625 
Q 6.984375 17.96875 6.984375 36.375 
Q 6.984375 53.65625 15.1875 63.9375 
Q 23.390625 74.21875 37.203125 74.21875 
Q 40.921875 74.21875 44.703125 73.484375 
Q 48.484375 72.75 52.59375 71.296875 
z
" id="DejaVuSans-36"/>
      </defs>
      <g transform="translate(480.184 507.799219)scale(0.1 -0.1)">
       <use xlink:href="#DejaVuSans-2212"/>
       <use x="83.789062" xlink:href="#DejaVuSans-36"/>
       <use x="147.412109" xlink:href="#DejaVuSans-30"/>
      </g>
     </g>
    </g>
    <g id="ytick_11">
     <g id="line2d_20">
      <g>
       <use style="stroke:#000000;stroke-width:0.8;" x="473.184" xlink:href="#m0983f3068c" y="441.874286"/>
      </g>
     </g>
     <g id="text_20">
      <!-- −45 -->
      <defs>
       <path d="M 37.796875 64.3125 
L 12.890625 25.390625 
L 37.796875 25.390625 
z
M 35.203125 72.90625 
L 47.609375 72.90625 
L 47.609375 25.390625 
L 58.015625 25.390625 
L 58.015625 17.1875 
L 47.609375 17.1875 
L 47.609375 0 
L 37.796875 0 
L 37.796875 17.1875 
L 4.890625 17.1875 
L 4.890625 26.703125 
z
" id="DejaVuSans-34"/>
      </defs>
      <g transform="translate(480.184 445.673504)scale(0.1 -0.1)">
       <use xlink:href="#DejaVuSans-2212"/>
       <use x="83.789062" xlink:href="#DejaVuSans-34"/>
       <use x="147.412109" xlink:href="#DejaVuSans-35"/>
      </g>
     </g>
    </g>
    <g id="ytick_12">
     <g id="line2d_21">
      <g>
       <use style="stroke:#000000;stroke-width:0.8;" x="473.184" xlink:href="#m0983f3068c" y="379.748571"/>
      </g>
     </g>
     <g id="text_21">
      <!-- −30 -->
      <defs>
       <path d="M 40.578125 39.3125 
Q 47.65625 37.796875 51.625 33 
Q 55.609375 28.21875 55.609375 21.1875 
Q 55.609375 10.40625 48.1875 4.484375 
Q 40.765625 -1.421875 27.09375 -1.421875 
Q 22.515625 -1.421875 17.65625 -0.515625 
Q 12.796875 0.390625 7.625 2.203125 
L 7.625 11.71875 
Q 11.71875 9.328125 16.59375 8.109375 
Q 21.484375 6.890625 26.8125 6.890625 
Q 36.078125 6.890625 40.9375 10.546875 
Q 45.796875 14.203125 45.796875 21.1875 
Q 45.796875 27.640625 41.28125 31.265625 
Q 36.765625 34.90625 28.71875 34.90625 
L 20.21875 34.90625 
L 20.21875 43.015625 
L 29.109375 43.015625 
Q 36.375 43.015625 40.234375 45.921875 
Q 44.09375 48.828125 44.09375 54.296875 
Q 44.09375 59.90625 40.109375 62.90625 
Q 36.140625 65.921875 28.71875 65.921875 
Q 24.65625 65.921875 20.015625 65.03125 
Q 15.375 64.15625 9.8125 62.3125 
L 9.8125 71.09375 
Q 15.4375 72.65625 20.34375 73.4375 
Q 25.25 74.21875 29.59375 74.21875 
Q 40.828125 74.21875 47.359375 69.109375 
Q 53.90625 64.015625 53.90625 55.328125 
Q 53.90625 49.265625 50.4375 45.09375 
Q 46.96875 40.921875 40.578125 39.3125 
z
" id="DejaVuSans-33"/>
      </defs>
      <g transform="translate(480.184 383.54779)scale(0.1 -0.1)">
       <use xlink:href="#DejaVuSans-2212"/>
       <use x="83.789062" xlink:href="#DejaVuSans-33"/>
       <use x="147.412109" xlink:href="#DejaVuSans-30"/>
      </g>
     </g>
    </g>
    <g id="ytick_13">
     <g id="line2d_22">
      <g>
       <use style="stroke:#000000;stroke-width:0.8;" x="473.184" xlink:href="#m0983f3068c" y="317.622857"/>
      </g>
     </g>
     <g id="text_22">
      <!-- −15 -->
      <g transform="translate(480.184 321.422076)scale(0.1 -0.1)">
       <use xlink:href="#DejaVuSans-2212"/>
       <use x="83.789062" xlink:href="#DejaVuSans-31"/>
       <use x="147.412109" xlink:href="#DejaVuSans-35"/>
      </g>
     </g>
    </g>
    <g id="ytick_14">
     <g id="line2d_23">
      <g>
       <use style="stroke:#000000;stroke-width:0.8;" x="473.184" xlink:href="#m0983f3068c" y="255.497143"/>
      </g>
     </g>
     <g id="text_23">
      <!-- 0 -->
      <g transform="translate(480.184 259.296362)scale(0.1 -0.1)">
       <use xlink:href="#DejaVuSans-30"/>
      </g>
     </g>
    </g>
    <g id="ytick_15">
     <g id="line2d_24">
      <g>
       <use style="stroke:#000000;stroke-width:0.8;" x="473.184" xlink:href="#m0983f3068c" y="193.371429"/>
      </g>
     </g>
     <g id="text_24">
      <!-- 15 -->
      <g transform="translate(480.184 197.170647)scale(0.1 -0.1)">
       <use xlink:href="#DejaVuSans-31"/>
       <use x="63.623047" xlink:href="#DejaVuSans-35"/>
      </g>
     </g>
    </g>
    <g id="ytick_16">
     <g id="line2d_25">
      <g>
       <use style="stroke:#000000;stroke-width:0.8;" x="473.184" xlink:href="#m0983f3068c" y="131.245714"/>
      </g>
     </g>
     <g id="text_25">
      <!-- 30 -->
      <g transform="translate(480.184 135.044933)scale(0.1 -0.1)">
       <use xlink:href="#DejaVuSans-33"/>
       <use x="63.623047" xlink:href="#DejaVuSans-30"/>
      </g>
     </g>
    </g>
    <g id="ytick_17">
     <g id="line2d_26">
      <g>
       <use style="stroke:#000000;stroke-width:0.8;" x="473.184" xlink:href="#m0983f3068c" y="69.12"/>
      </g>
     </g>
     <g id="text_26">
      <!-- 45 -->
      <g transform="translate(480.184 72.919219)scale(0.1 -0.1)">
       <use xlink:href="#DejaVuSans-34"/>
       <use x="63.623047" xlink:href="#DejaVuSans-35"/>
      </g>
     </g>
    </g>
   </g>
   <g id="patch_8">
    <path d="M 451.44 504 
L 451.44 441.874286 
L 451.44 131.245714 
L 451.44 69.12 
L 473.184 69.12 
L 473.184 131.245714 
L 473.184 441.874286 
L 473.184 504 
z
" style="fill:none;stroke:#000000;stroke-linejoin:miter;stroke-width:0.8;"/>
   </g>
  </g>
 </g>
 <defs>
  <clipPath id="pbd0061fd46">
   <rect height="434.88" width="357.12" x="72" y="69.12"/>
  </clipPath>
  <clipPath id="p93fa31186e">
   <rect height="434.88" width="21.744" x="451.44" y="69.12"/>
  </clipPath>
 </defs>
</svg>
