<?xml version="1.0" encoding="utf-8" standalone="no"?>
<!DOCTYPE svg PUBLIC "-//W3C//DTD SVG 1.1//EN"
  "http://www.w3.org/Graphics/SVG/1.1/DTD/svg11.dtd">
<!-- Created with matplotlib (http://matplotlib.org/) -->
<svg height="558.72pt" version="1.1" viewBox="0 0 460.8 558.72" width="460.8pt" xmlns="http://www.w3.org/2000/svg" xmlns:xlink="http://www.w3.org/1999/xlink">
 <defs>
  <style type="text/css">
*{stroke-linecap:butt;stroke-linejoin:round;}
  </style>
 </defs>
 <g id="figure_1">
  <g id="patch_1">
   <path d="M 0 558.72 
L 460.8 558.72 
L 460.8 0 
L 0 0 
z
" style="fill:#ffffff;"/>
  </g>
  <g id="axes_1">
   <g id="patch_2">
    <path d="M 57.6 497.2608 
L 414.72 497.2608 
L 414.72 67.0464 
L 57.6 67.0464 
z
" style="fill:#ffffff;"/>
   </g>
   <g id="patch_3">
    <path clip-path="url(#pbffad6bfbe)" d="M 217.772726 280.869527 
L 205.455858 272.164446 
L 207.942701 100.04932 
L 320.018179 191.477062 
z
" style="opacity:0.6;stroke-dasharray:0,0;stroke-dashoffset:0;"/>
   </g>
   <g id="patch_4">
    <path clip-path="url(#pbffad6bfbe)" d="M 205.336642 280.415382 
L 205.455858 272.164446 
L 217.772726 280.869527 
L 216.408958 282.06186 
z
" style="fill:#0143da;opacity:0.6;stroke-dasharray:0,0;stroke-dashoffset:0;"/>
   </g>
   <g id="patch_5">
    <path clip-path="url(#pbffad6bfbe)" d="M 220.272693 282.636406 
L 217.772726 280.869527 
L 320.018187 191.477055 
L 397.649146 309.012686 
z
" style="fill:#0287b4;opacity:0.6;stroke-dasharray:0,0;stroke-dashoffset:0;"/>
   </g>
   <g id="patch_6">
    <path clip-path="url(#pbffad6bfbe)" d="M 203.299584 421.400758 
L 204.122248 364.463903 
L 206.746402 365.839601 
L 217.389447 382.35343 
L 233.460157 456.003285 
z
" style="fill:#03cb8e;opacity:0.6;stroke-dasharray:0,0;stroke-dashoffset:0;"/>
   </g>
   <g id="patch_7">
    <path clip-path="url(#pbffad6bfbe)" d="M 233.460157 456.003285 
L 217.389452 382.353454 
L 283.084027 466.910974 
L 252.376528 477.7056 
z
" style="fill:#050f68;opacity:0.6;stroke-dasharray:0,0;stroke-dashoffset:0;"/>
   </g>
   <g id="patch_8">
    <path clip-path="url(#pbffad6bfbe)" d="M 202.061677 312.108367 
L 198.854368 297.409712 
L 205.170889 291.887223 
L 204.856003 313.680564 
z
" style="fill:#065342;opacity:0.6;stroke-dasharray:0,0;stroke-dashoffset:0;"/>
   </g>
   <g id="patch_9">
    <path clip-path="url(#pbffad6bfbe)" d="M 202.061677 312.108367 
L 204.856003 313.680564 
L 204.703769 324.21671 
z
" style="fill:#07971c;opacity:0.6;stroke-dasharray:0,0;stroke-dashoffset:0;"/>
   </g>
   <g id="patch_10">
    <path clip-path="url(#pbffad6bfbe)" d="M 206.74639 365.839592 
L 204.160347 361.827068 
L 204.703769 324.21671 
L 214.695359 370.006794 
z
" style="fill:#08daf6;opacity:0.6;stroke-dasharray:0,0;stroke-dashoffset:0;"/>
   </g>
   <g id="patch_11">
    <path clip-path="url(#pbffad6bfbe)" d="M 204.856003 313.680564 
L 205.170889 291.887223 
L 216.408958 282.06186 
L 220.272693 282.636406 
L 383.81213 398.219686 
L 381.21506 412.907064 
z
" style="fill:#0a1ed0;opacity:0.6;stroke-dasharray:0,0;stroke-dashoffset:0;"/>
   </g>
   <g id="patch_12">
    <path clip-path="url(#pbffad6bfbe)" d="M 214.695359 370.006797 
L 204.703769 324.21671 
L 204.856003 313.680564 
L 381.21506 412.907064 
L 377.536996 433.707865 
L 348.32794 443.975742 
z
" style="fill:#0b62aa;opacity:0.6;stroke-dasharray:0,0;stroke-dashoffset:0;"/>
   </g>
   <g id="patch_13">
    <path clip-path="url(#pbffad6bfbe)" d="M 220.272693 282.636406 
L 397.649131 309.012683 
L 398.487273 315.226391 
L 383.81213 398.219686 
z
" style="fill:#0ca684;opacity:0.6;stroke-dasharray:0,0;stroke-dashoffset:0;"/>
   </g>
   <g id="patch_14">
    <path clip-path="url(#pbffad6bfbe)" d="M 206.74639 365.839592 
L 214.695359 370.006794 
L 217.38945 382.353444 
z
" style="fill:#0dea5e;opacity:0.6;stroke-dasharray:0,0;stroke-dashoffset:0;"/>
   </g>
   <g id="patch_15">
    <path clip-path="url(#pbffad6bfbe)" d="M 283.084027 466.910974 
L 217.389452 382.353454 
L 214.695359 370.006797 
L 348.32794 443.975742 
z
" style="fill:#0f2e38;opacity:0.6;stroke-dasharray:0,0;stroke-dashoffset:0;"/>
   </g>
   <g id="patch_16">
    <path clip-path="url(#pbffad6bfbe)" d="M 73.832727 457.422656 
L 94.176342 388.928958 
L 140.043061 348.828015 
L 203.299584 421.400758 
L 202.517515 475.527929 
z
" style="fill:#107212;opacity:0.6;stroke-dasharray:0,0;stroke-dashoffset:0;"/>
   </g>
   <g id="patch_17">
    <path clip-path="url(#pbffad6bfbe)" d="M 140.043061 348.828015 
L 146.970474 342.771428 
L 204.122248 364.463902 
L 203.299584 421.400758 
z
" style="fill:#11b5ec;opacity:0.6;stroke-dasharray:0,0;stroke-dashoffset:0;"/>
   </g>
   <g id="patch_18">
    <path clip-path="url(#pbffad6bfbe)" d="M 122.92603 292.133357 
L 129.173627 271.0987 
L 189.881015 305.25505 
L 165.211462 326.823463 
z
" style="fill:#12f9c6;opacity:0.6;stroke-dasharray:0,0;stroke-dashoffset:0;"/>
   </g>
   <g id="patch_19">
    <path clip-path="url(#pbffad6bfbe)" d="M 165.211464 326.823462 
L 189.881015 305.25505 
L 202.061677 312.108367 
L 204.703769 324.21671 
L 204.160347 361.827063 
z
" style="fill:#143da0;opacity:0.6;stroke-dasharray:0,0;stroke-dashoffset:0;"/>
   </g>
   <g id="patch_20">
    <path clip-path="url(#pbffad6bfbe)" d="M 204.122248 364.4639 
L 204.160347 361.827068 
L 206.74639 365.839592 
z
" style="fill:#15817a;opacity:0.6;stroke-dasharray:0,0;stroke-dashoffset:0;"/>
   </g>
   <g id="patch_21">
    <path clip-path="url(#pbffad6bfbe)" d="M 146.970476 342.771426 
L 165.211464 326.823462 
L 204.160347 361.827063 
L 204.122248 364.463899 
z
" style="fill:#16c554;opacity:0.6;stroke-dasharray:0,0;stroke-dashoffset:0;"/>
   </g>
   <g id="patch_22">
    <path clip-path="url(#pbffad6bfbe)" d="M 129.173627 271.0987 
L 129.745069 269.174744 
L 194.804389 278.849212 
L 198.854368 297.409712 
L 189.881015 305.25505 
z
" style="fill:#18092e;opacity:0.6;stroke-dasharray:0,0;stroke-dashoffset:0;"/>
   </g>
   <g id="patch_23">
    <path clip-path="url(#pbffad6bfbe)" d="M 129.745069 269.174744 
L 142.146805 227.420083 
L 191.13761 262.044869 
L 194.804389 278.849212 
z
" style="fill:#194d08;opacity:0.6;stroke-dasharray:0,0;stroke-dashoffset:0;"/>
   </g>
   <g id="patch_24">
    <path clip-path="url(#pbffad6bfbe)" d="M 189.881015 305.25505 
L 198.854368 297.409712 
L 202.061677 312.108367 
z
" style="fill:#1a90e2;opacity:0.6;stroke-dasharray:0,0;stroke-dashoffset:0;"/>
   </g>
   <g id="patch_25">
    <path clip-path="url(#pbffad6bfbe)" d="M 194.804389 278.849212 
L 191.13761 262.044869 
L 205.455858 272.164446 
L 205.336642 280.415382 
z
" style="fill:#1bd4bc;opacity:0.6;stroke-dasharray:0,0;stroke-dashoffset:0;"/>
   </g>
   <g id="patch_26">
    <path clip-path="url(#pbffad6bfbe)" d="M 198.854368 297.409712 
L 194.804389 278.849212 
L 205.336642 280.415382 
L 205.170889 291.887223 
z
" style="fill:#1d1896;opacity:0.6;stroke-dasharray:0,0;stroke-dashoffset:0;"/>
   </g>
   <g id="patch_27">
    <path clip-path="url(#pbffad6bfbe)" d="M 166.033654 146.996885 
L 183.971923 86.6016 
L 207.942701 100.049308 
L 205.455858 272.164446 
L 191.13761 262.044869 
z
" style="fill:#1e5c70;opacity:0.6;stroke-dasharray:0,0;stroke-dashoffset:0;"/>
   </g>
   <g id="patch_28">
    <path clip-path="url(#pbffad6bfbe)" d="M 205.170889 291.887223 
L 205.336642 280.415382 
L 216.408958 282.06186 
z
" style="fill:#1fa04a;opacity:0.6;stroke-dasharray:0,0;stroke-dashoffset:0;"/>
   </g>
   <g id="patch_29">
    <path clip-path="url(#pbffad6bfbe)" d="M 216.408958 282.06186 
L 217.772726 280.869527 
L 220.272693 282.636406 
z
" style="fill:#20e424;opacity:0.6;stroke-dasharray:0,0;stroke-dashoffset:0;"/>
   </g>
   <g id="patch_30">
    <path clip-path="url(#pbffad6bfbe)" d="M 232.106344 402.211315 
C 249.944916 402.211315 267.055268 395.020124 279.669044 382.221518 
C 292.282819 369.422913 299.370159 352.061842 299.370159 333.96188 
C 299.370159 315.861919 292.282819 298.500848 279.669044 285.702243 
C 267.055268 272.903637 249.944916 265.712446 232.106344 265.712446 
C 214.267771 265.712446 197.157419 272.903637 184.543644 285.702243 
C 171.929868 298.500848 164.842528 315.861919 164.842528 333.96188 
C 164.842528 352.061842 171.929868 369.422913 184.543644 382.221518 
C 197.157419 395.020124 214.267771 402.211315 232.106344 402.211315 
z
" style="fill:none;stroke:#ff0000;stroke-linejoin:miter;"/>
   </g>
   <g id="matplotlib.axis_1">
    <g id="xtick_1">
     <g id="line2d_1">
      <defs>
       <path d="M 0 0 
L 0 3.5 
" id="m39ddc5e5d4" style="stroke:#000000;stroke-width:0.8;"/>
      </defs>
      <g>
       <use style="stroke:#000000;stroke-width:0.8;" x="66.474099" xlink:href="#m39ddc5e5d4" y="497.2608"/>
      </g>
     </g>
     <g id="text_1">
      <!-- −2.0 -->
      <defs>
       <path d="M 10.59375 35.5 
L 73.1875 35.5 
L 73.1875 27.203125 
L 10.59375 27.203125 
z
" id="DejaVuSans-2212"/>
       <path d="M 19.1875 8.296875 
L 53.609375 8.296875 
L 53.609375 0 
L 7.328125 0 
L 7.328125 8.296875 
Q 12.9375 14.109375 22.625 23.890625 
Q 32.328125 33.6875 34.8125 36.53125 
Q 39.546875 41.84375 41.421875 45.53125 
Q 43.3125 49.21875 43.3125 52.78125 
Q 43.3125 58.59375 39.234375 62.25 
Q 35.15625 65.921875 28.609375 65.921875 
Q 23.96875 65.921875 18.8125 64.3125 
Q 13.671875 62.703125 7.8125 59.421875 
L 7.8125 69.390625 
Q 13.765625 71.78125 18.9375 73 
Q 24.125 74.21875 28.421875 74.21875 
Q 39.75 74.21875 46.484375 68.546875 
Q 53.21875 62.890625 53.21875 53.421875 
Q 53.21875 48.921875 51.53125 44.890625 
Q 49.859375 40.875 45.40625 35.40625 
Q 44.1875 33.984375 37.640625 27.21875 
Q 31.109375 20.453125 19.1875 8.296875 
z
" id="DejaVuSans-32"/>
       <path d="M 10.6875 12.40625 
L 21 12.40625 
L 21 0 
L 10.6875 0 
z
" id="DejaVuSans-2e"/>
       <path d="M 31.78125 66.40625 
Q 24.171875 66.40625 20.328125 58.90625 
Q 16.5 51.421875 16.5 36.375 
Q 16.5 21.390625 20.328125 13.890625 
Q 24.171875 6.390625 31.78125 6.390625 
Q 39.453125 6.390625 43.28125 13.890625 
Q 47.125 21.390625 47.125 36.375 
Q 47.125 51.421875 43.28125 58.90625 
Q 39.453125 66.40625 31.78125 66.40625 
z
M 31.78125 74.21875 
Q 44.046875 74.21875 50.515625 64.515625 
Q 56.984375 54.828125 56.984375 36.375 
Q 56.984375 17.96875 50.515625 8.265625 
Q 44.046875 -1.421875 31.78125 -1.421875 
Q 19.53125 -1.421875 13.0625 8.265625 
Q 6.59375 17.96875 6.59375 36.375 
Q 6.59375 54.828125 13.0625 64.515625 
Q 19.53125 74.21875 31.78125 74.21875 
z
" id="DejaVuSans-30"/>
      </defs>
      <g transform="translate(54.332693 511.859238)scale(0.1 -0.1)">
       <use xlink:href="#DejaVuSans-2212"/>
       <use x="83.789062" xlink:href="#DejaVuSans-32"/>
       <use x="147.412109" xlink:href="#DejaVuSans-2e"/>
       <use x="179.199219" xlink:href="#DejaVuSans-30"/>
      </g>
     </g>
    </g>
    <g id="xtick_2">
     <g id="line2d_2">
      <g>
       <use style="stroke:#000000;stroke-width:0.8;" x="107.88216" xlink:href="#m39ddc5e5d4" y="497.2608"/>
      </g>
     </g>
     <g id="text_2">
      <!-- −1.5 -->
      <defs>
       <path d="M 12.40625 8.296875 
L 28.515625 8.296875 
L 28.515625 63.921875 
L 10.984375 60.40625 
L 10.984375 69.390625 
L 28.421875 72.90625 
L 38.28125 72.90625 
L 38.28125 8.296875 
L 54.390625 8.296875 
L 54.390625 0 
L 12.40625 0 
z
" id="DejaVuSans-31"/>
       <path d="M 10.796875 72.90625 
L 49.515625 72.90625 
L 49.515625 64.59375 
L 19.828125 64.59375 
L 19.828125 46.734375 
Q 21.96875 47.46875 24.109375 47.828125 
Q 26.265625 48.1875 28.421875 48.1875 
Q 40.625 48.1875 47.75 41.5 
Q 54.890625 34.8125 54.890625 23.390625 
Q 54.890625 11.625 47.5625 5.09375 
Q 40.234375 -1.421875 26.90625 -1.421875 
Q 22.3125 -1.421875 17.546875 -0.640625 
Q 12.796875 0.140625 7.71875 1.703125 
L 7.71875 11.625 
Q 12.109375 9.234375 16.796875 8.0625 
Q 21.484375 6.890625 26.703125 6.890625 
Q 35.15625 6.890625 40.078125 11.328125 
Q 45.015625 15.765625 45.015625 23.390625 
Q 45.015625 31 40.078125 35.4375 
Q 35.15625 39.890625 26.703125 39.890625 
Q 22.75 39.890625 18.8125 39.015625 
Q 14.890625 38.140625 10.796875 36.28125 
z
" id="DejaVuSans-35"/>
      </defs>
      <g transform="translate(95.740754 511.859238)scale(0.1 -0.1)">
       <use xlink:href="#DejaVuSans-2212"/>
       <use x="83.789062" xlink:href="#DejaVuSans-31"/>
       <use x="147.412109" xlink:href="#DejaVuSans-2e"/>
       <use x="179.199219" xlink:href="#DejaVuSans-35"/>
      </g>
     </g>
    </g>
    <g id="xtick_3">
     <g id="line2d_3">
      <g>
       <use style="stroke:#000000;stroke-width:0.8;" x="149.290221" xlink:href="#m39ddc5e5d4" y="497.2608"/>
      </g>
     </g>
     <g id="text_3">
      <!-- −1.0 -->
      <g transform="translate(137.148815 511.859238)scale(0.1 -0.1)">
       <use xlink:href="#DejaVuSans-2212"/>
       <use x="83.789062" xlink:href="#DejaVuSans-31"/>
       <use x="147.412109" xlink:href="#DejaVuSans-2e"/>
       <use x="179.199219" xlink:href="#DejaVuSans-30"/>
      </g>
     </g>
    </g>
    <g id="xtick_4">
     <g id="line2d_4">
      <g>
       <use style="stroke:#000000;stroke-width:0.8;" x="190.698283" xlink:href="#m39ddc5e5d4" y="497.2608"/>
      </g>
     </g>
     <g id="text_4">
      <!-- −0.5 -->
      <g transform="translate(178.556876 511.859238)scale(0.1 -0.1)">
       <use xlink:href="#DejaVuSans-2212"/>
       <use x="83.789062" xlink:href="#DejaVuSans-30"/>
       <use x="147.412109" xlink:href="#DejaVuSans-2e"/>
       <use x="179.199219" xlink:href="#DejaVuSans-35"/>
      </g>
     </g>
    </g>
    <g id="xtick_5">
     <g id="line2d_5">
      <g>
       <use style="stroke:#000000;stroke-width:0.8;" x="232.106344" xlink:href="#m39ddc5e5d4" y="497.2608"/>
      </g>
     </g>
     <g id="text_5">
      <!-- 0.0 -->
      <g transform="translate(224.154781 511.859238)scale(0.1 -0.1)">
       <use xlink:href="#DejaVuSans-30"/>
       <use x="63.623047" xlink:href="#DejaVuSans-2e"/>
       <use x="95.410156" xlink:href="#DejaVuSans-30"/>
      </g>
     </g>
    </g>
    <g id="xtick_6">
     <g id="line2d_6">
      <g>
       <use style="stroke:#000000;stroke-width:0.8;" x="273.514405" xlink:href="#m39ddc5e5d4" y="497.2608"/>
      </g>
     </g>
     <g id="text_6">
      <!-- 0.5 -->
      <g transform="translate(265.562843 511.859238)scale(0.1 -0.1)">
       <use xlink:href="#DejaVuSans-30"/>
       <use x="63.623047" xlink:href="#DejaVuSans-2e"/>
       <use x="95.410156" xlink:href="#DejaVuSans-35"/>
      </g>
     </g>
    </g>
    <g id="xtick_7">
     <g id="line2d_7">
      <g>
       <use style="stroke:#000000;stroke-width:0.8;" x="314.922466" xlink:href="#m39ddc5e5d4" y="497.2608"/>
      </g>
     </g>
     <g id="text_7">
      <!-- 1.0 -->
      <g transform="translate(306.970904 511.859238)scale(0.1 -0.1)">
       <use xlink:href="#DejaVuSans-31"/>
       <use x="63.623047" xlink:href="#DejaVuSans-2e"/>
       <use x="95.410156" xlink:href="#DejaVuSans-30"/>
      </g>
     </g>
    </g>
    <g id="xtick_8">
     <g id="line2d_8">
      <g>
       <use style="stroke:#000000;stroke-width:0.8;" x="356.330528" xlink:href="#m39ddc5e5d4" y="497.2608"/>
      </g>
     </g>
     <g id="text_8">
      <!-- 1.5 -->
      <g transform="translate(348.378965 511.859238)scale(0.1 -0.1)">
       <use xlink:href="#DejaVuSans-31"/>
       <use x="63.623047" xlink:href="#DejaVuSans-2e"/>
       <use x="95.410156" xlink:href="#DejaVuSans-35"/>
      </g>
     </g>
    </g>
    <g id="xtick_9">
     <g id="line2d_9">
      <g>
       <use style="stroke:#000000;stroke-width:0.8;" x="397.738589" xlink:href="#m39ddc5e5d4" y="497.2608"/>
      </g>
     </g>
     <g id="text_9">
      <!-- 2.0 -->
      <g transform="translate(389.787026 511.859238)scale(0.1 -0.1)">
       <use xlink:href="#DejaVuSans-32"/>
       <use x="63.623047" xlink:href="#DejaVuSans-2e"/>
       <use x="95.410156" xlink:href="#DejaVuSans-30"/>
      </g>
     </g>
    </g>
   </g>
   <g id="matplotlib.axis_2">
    <g id="ytick_1">
     <g id="line2d_10">
      <defs>
       <path d="M 0 0 
L -3.5 0 
" id="ma53d02c945" style="stroke:#000000;stroke-width:0.8;"/>
      </defs>
      <g>
       <use style="stroke:#000000;stroke-width:0.8;" x="57.6" xlink:href="#ma53d02c945" y="417.99151"/>
      </g>
     </g>
     <g id="text_10">
      <!-- −1 -->
      <g transform="translate(35.857813 421.790729)scale(0.1 -0.1)">
       <use xlink:href="#DejaVuSans-2212"/>
       <use x="83.789062" xlink:href="#DejaVuSans-31"/>
      </g>
     </g>
    </g>
    <g id="ytick_2">
     <g id="line2d_11">
      <g>
       <use style="stroke:#000000;stroke-width:0.8;" x="57.6" xlink:href="#ma53d02c945" y="333.96188"/>
      </g>
     </g>
     <g id="text_11">
      <!-- 0 -->
      <g transform="translate(44.2375 337.761099)scale(0.1 -0.1)">
       <use xlink:href="#DejaVuSans-30"/>
      </g>
     </g>
    </g>
    <g id="ytick_3">
     <g id="line2d_12">
      <g>
       <use style="stroke:#000000;stroke-width:0.8;" x="57.6" xlink:href="#ma53d02c945" y="249.932251"/>
      </g>
     </g>
     <g id="text_12">
      <!-- 1 -->
      <g transform="translate(44.2375 253.731469)scale(0.1 -0.1)">
       <use xlink:href="#DejaVuSans-31"/>
      </g>
     </g>
    </g>
    <g id="ytick_4">
     <g id="line2d_13">
      <g>
       <use style="stroke:#000000;stroke-width:0.8;" x="57.6" xlink:href="#ma53d02c945" y="165.902621"/>
      </g>
     </g>
     <g id="text_13">
      <!-- 2 -->
      <g transform="translate(44.2375 169.701839)scale(0.1 -0.1)">
       <use xlink:href="#DejaVuSans-32"/>
      </g>
     </g>
    </g>
    <g id="ytick_5">
     <g id="line2d_14">
      <g>
       <use style="stroke:#000000;stroke-width:0.8;" x="57.6" xlink:href="#ma53d02c945" y="81.872991"/>
      </g>
     </g>
     <g id="text_14">
      <!-- 3 -->
      <defs>
       <path d="M 40.578125 39.3125 
Q 47.65625 37.796875 51.625 33 
Q 55.609375 28.21875 55.609375 21.1875 
Q 55.609375 10.40625 48.1875 4.484375 
Q 40.765625 -1.421875 27.09375 -1.421875 
Q 22.515625 -1.421875 17.65625 -0.515625 
Q 12.796875 0.390625 7.625 2.203125 
L 7.625 11.71875 
Q 11.71875 9.328125 16.59375 8.109375 
Q 21.484375 6.890625 26.8125 6.890625 
Q 36.078125 6.890625 40.9375 10.546875 
Q 45.796875 14.203125 45.796875 21.1875 
Q 45.796875 27.640625 41.28125 31.265625 
Q 36.765625 34.90625 28.71875 34.90625 
L 20.21875 34.90625 
L 20.21875 43.015625 
L 29.109375 43.015625 
Q 36.375 43.015625 40.234375 45.921875 
Q 44.09375 48.828125 44.09375 54.296875 
Q 44.09375 59.90625 40.109375 62.90625 
Q 36.140625 65.921875 28.71875 65.921875 
Q 24.65625 65.921875 20.015625 65.03125 
Q 15.375 64.15625 9.8125 62.3125 
L 9.8125 71.09375 
Q 15.4375 72.65625 20.34375 73.4375 
Q 25.25 74.21875 29.59375 74.21875 
Q 40.828125 74.21875 47.359375 69.109375 
Q 53.90625 64.015625 53.90625 55.328125 
Q 53.90625 49.265625 50.4375 45.09375 
Q 46.96875 40.921875 40.578125 39.3125 
z
" id="DejaVuSans-33"/>
      </defs>
      <g transform="translate(44.2375 85.672209)scale(0.1 -0.1)">
       <use xlink:href="#DejaVuSans-33"/>
      </g>
     </g>
    </g>
   </g>
   <g id="line2d_15">
    <path clip-path="url(#pbffad6bfbe)" d="M 320.018179 191.477062 
L 207.942701 100.04932 
" style="fill:none;stroke:#000000;stroke-linecap:square;stroke-width:3;"/>
   </g>
   <g id="line2d_16">
    <path clip-path="url(#pbffad6bfbe)" d="M 397.649146 309.012686 
L 320.018187 191.477055 
" style="fill:none;stroke:#000000;stroke-linecap:square;stroke-width:3;"/>
   </g>
   <g id="line2d_17">
    <path clip-path="url(#pbffad6bfbe)" d="M 233.460157 456.003285 
L 203.299584 421.400758 
" style="fill:none;stroke:#000000;stroke-linecap:square;stroke-width:3;"/>
   </g>
   <g id="line2d_18">
    <path clip-path="url(#pbffad6bfbe)" d="M 233.460157 456.003285 
L 252.376528 477.7056 
" style="fill:none;stroke:#000000;stroke-linecap:square;stroke-width:3;"/>
   </g>
   <g id="line2d_19">
    <path clip-path="url(#pbffad6bfbe)" d="M 252.376528 477.7056 
L 283.084027 466.910974 
" style="fill:none;stroke:#000000;stroke-linecap:square;stroke-width:3;"/>
   </g>
   <g id="line2d_20">
    <path clip-path="url(#pbffad6bfbe)" d="M 381.21506 412.907064 
L 383.81213 398.219686 
" style="fill:none;stroke:#000000;stroke-linecap:square;stroke-width:3;"/>
   </g>
   <g id="line2d_21">
    <path clip-path="url(#pbffad6bfbe)" d="M 348.32794 443.975742 
L 377.536996 433.707865 
" style="fill:none;stroke:#000000;stroke-linecap:square;stroke-width:3;"/>
   </g>
   <g id="line2d_22">
    <path clip-path="url(#pbffad6bfbe)" d="M 377.536996 433.707865 
L 381.21506 412.907064 
" style="fill:none;stroke:#000000;stroke-linecap:square;stroke-width:3;"/>
   </g>
   <g id="line2d_23">
    <path clip-path="url(#pbffad6bfbe)" d="M 383.81213 398.219686 
L 398.487273 315.226391 
" style="fill:none;stroke:#000000;stroke-linecap:square;stroke-width:3;"/>
   </g>
   <g id="line2d_24">
    <path clip-path="url(#pbffad6bfbe)" d="M 398.487273 315.226391 
L 397.649131 309.012683 
" style="fill:none;stroke:#000000;stroke-linecap:square;stroke-width:3;"/>
   </g>
   <g id="line2d_25">
    <path clip-path="url(#pbffad6bfbe)" d="M 283.084027 466.910974 
L 348.32794 443.975742 
" style="fill:none;stroke:#000000;stroke-linecap:square;stroke-width:3;"/>
   </g>
   <g id="line2d_26">
    <path clip-path="url(#pbffad6bfbe)" d="M 202.517515 475.527929 
L 73.832727 457.422656 
" style="fill:none;stroke:#000000;stroke-linecap:square;stroke-width:3;"/>
   </g>
   <g id="line2d_27">
    <path clip-path="url(#pbffad6bfbe)" d="M 202.517515 475.527929 
L 203.299584 421.400758 
" style="fill:none;stroke:#000000;stroke-linecap:square;stroke-width:3;"/>
   </g>
   <g id="line2d_28">
    <path clip-path="url(#pbffad6bfbe)" d="M 94.176342 388.928958 
L 73.832727 457.422656 
" style="fill:none;stroke:#000000;stroke-linecap:square;stroke-width:3;"/>
   </g>
   <g id="line2d_29">
    <path clip-path="url(#pbffad6bfbe)" d="M 140.043061 348.828015 
L 94.176342 388.928958 
" style="fill:none;stroke:#000000;stroke-linecap:square;stroke-width:3;"/>
   </g>
   <g id="line2d_30">
    <path clip-path="url(#pbffad6bfbe)" d="M 146.970474 342.771428 
L 140.043061 348.828015 
" style="fill:none;stroke:#000000;stroke-linecap:square;stroke-width:3;"/>
   </g>
   <g id="line2d_31">
    <path clip-path="url(#pbffad6bfbe)" d="M 165.211462 326.823463 
L 122.92603 292.133357 
" style="fill:none;stroke:#000000;stroke-linecap:square;stroke-width:3;"/>
   </g>
   <g id="line2d_32">
    <path clip-path="url(#pbffad6bfbe)" d="M 129.173627 271.0987 
L 122.92603 292.133357 
" style="fill:none;stroke:#000000;stroke-linecap:square;stroke-width:3;"/>
   </g>
   <g id="line2d_33">
    <path clip-path="url(#pbffad6bfbe)" d="M 165.211464 326.823462 
L 146.970476 342.771426 
" style="fill:none;stroke:#000000;stroke-linecap:square;stroke-width:3;"/>
   </g>
   <g id="line2d_34">
    <path clip-path="url(#pbffad6bfbe)" d="M 129.745069 269.174744 
L 129.173627 271.0987 
" style="fill:none;stroke:#000000;stroke-linecap:square;stroke-width:3;"/>
   </g>
   <g id="line2d_35">
    <path clip-path="url(#pbffad6bfbe)" d="M 142.146805 227.420083 
L 129.745069 269.174744 
" style="fill:none;stroke:#000000;stroke-linecap:square;stroke-width:3;"/>
   </g>
   <g id="line2d_36">
    <path clip-path="url(#pbffad6bfbe)" d="M 191.13761 262.044869 
L 142.146805 227.420083 
" style="fill:none;stroke:#000000;stroke-linecap:square;stroke-width:3;"/>
   </g>
   <g id="line2d_37">
    <path clip-path="url(#pbffad6bfbe)" d="M 191.13761 262.044869 
L 166.033654 146.996885 
" style="fill:none;stroke:#000000;stroke-linecap:square;stroke-width:3;"/>
   </g>
   <g id="line2d_38">
    <path clip-path="url(#pbffad6bfbe)" d="M 183.971923 86.6016 
L 166.033654 146.996885 
" style="fill:none;stroke:#000000;stroke-linecap:square;stroke-width:3;"/>
   </g>
   <g id="line2d_39">
    <path clip-path="url(#pbffad6bfbe)" d="M 207.942701 100.049308 
L 183.971923 86.6016 
" style="fill:none;stroke:#000000;stroke-linecap:square;stroke-width:3;"/>
   </g>
   <g id="patch_31">
    <path d="M 57.6 497.2608 
L 57.6 67.0464 
" style="fill:none;stroke:#000000;stroke-linecap:square;stroke-linejoin:miter;stroke-width:0.8;"/>
   </g>
   <g id="patch_32">
    <path d="M 414.72 497.2608 
L 414.72 67.0464 
" style="fill:none;stroke:#000000;stroke-linecap:square;stroke-linejoin:miter;stroke-width:0.8;"/>
   </g>
   <g id="patch_33">
    <path d="M 57.6 497.2608 
L 414.72 497.2608 
" style="fill:none;stroke:#000000;stroke-linecap:square;stroke-linejoin:miter;stroke-width:0.8;"/>
   </g>
   <g id="patch_34">
    <path d="M 57.6 67.0464 
L 414.72 67.0464 
" style="fill:none;stroke:#000000;stroke-linecap:square;stroke-linejoin:miter;stroke-width:0.8;"/>
   </g>
  </g>
 </g>
 <defs>
  <clipPath id="pbffad6bfbe">
   <rect height="430.2144" width="357.12" x="57.6" y="67.0464"/>
  </clipPath>
 </defs>
</svg>
