<?xml version="1.0" encoding="utf-8" standalone="no"?>
<!DOCTYPE svg PUBLIC "-//W3C//DTD SVG 1.1//EN"
  "http://www.w3.org/Graphics/SVG/1.1/DTD/svg11.dtd">
<!-- Created with matplotlib (https://matplotlib.org/) -->
<svg height="576pt" version="1.1" viewBox="0 0 576 576" width="576pt" xmlns="http://www.w3.org/2000/svg" xmlns:xlink="http://www.w3.org/1999/xlink">
 <defs>
  <style type="text/css">
*{stroke-linecap:butt;stroke-linejoin:round;}
  </style>
 </defs>
 <g id="figure_1">
  <g id="patch_1">
   <path d="M 0 576 
L 576 576 
L 576 0 
L 0 0 
z
" style="fill:#ffffff;"/>
  </g>
  <g id="axes_1">
   <g id="patch_2">
    <path d="M 72 512.64 
L 429.12 512.64 
L 429.12 69.12 
L 72 69.12 
z
" style="fill:#ffffff;"/>
   </g>
   <g id="PathCollection_1">
    <path clip-path="url(#p33d80d419e)" d="M 234.327273 286.031216 
L 237.934545 286.98343 
L 241.541818 285.784522 
L 244.909841 284.16 
L 245.149091 283.577916 
L 245.798777 279.68 
L 246.273055 275.2 
L 245.149091 272.72321 
L 241.541818 272.325858 
L 237.934545 272.640926 
L 234.636296 275.2 
L 234.327273 278.592256 
L 234.260185 279.68 
L 233.98505 284.16 
z
" style="fill:#4b64d5;"/>
   </g>
   <g id="PathCollection_2">
    <path clip-path="url(#p33d80d419e)" d="M 216.290909 311.314911 
L 217.664497 311.04 
L 219.898182 310.618573 
L 223.505455 309.450784 
L 227.112727 308.251877 
L 230.72 307.052965 
L 232.203243 306.56 
L 234.327273 305.854067 
L 237.934545 304.655159 
L 241.541818 303.456244 
L 245.149091 302.257335 
L 245.682666 302.08 
L 248.756364 301.05845 
L 252.363636 299.859525 
L 255.970909 298.660628 
L 256.910452 297.6 
L 257.922791 293.12 
L 258.738348 288.64 
L 259.55389 284.16 
L 259.578182 284.026562 
L 260.369455 279.68 
L 261.136026 275.2 
L 261.610997 270.72 
L 262.084976 266.24 
L 262.558946 261.76 
L 263.032924 257.28 
L 263.185455 255.838259 
L 263.506893 252.8 
L 263.185455 251.405686 
L 259.578182 249.645134 
L 255.970909 249.960211 
L 252.363636 250.275286 
L 248.756364 250.590363 
L 245.149091 250.905442 
L 241.541818 251.220518 
L 237.934545 251.535596 
L 234.327273 251.85067 
L 230.72 252.16575 
L 227.112727 252.480827 
L 223.505455 252.795905 
L 223.458567 252.8 
L 219.898182 253.212879 
L 217.225231 257.28 
L 216.948929 261.76 
L 216.672614 266.24 
L 216.396305 270.72 
L 216.290909 272.428894 
L 216.120001 275.2 
L 215.843692 279.68 
L 215.567381 284.16 
L 215.291073 288.64 
L 215.321349 293.12 
L 215.499194 297.6 
L 215.677044 302.08 
L 215.854884 306.56 
L 216.032732 311.04 
z
M 233.98505 284.16 
L 234.260185 279.68 
L 234.327273 278.592256 
L 234.636296 275.2 
L 237.934545 272.640926 
L 241.541818 272.325858 
L 245.149091 272.72321 
L 246.273055 275.2 
L 245.798777 279.68 
L 245.149091 283.577916 
L 244.909841 284.16 
L 241.541818 285.784522 
L 237.934545 286.98343 
L 234.327273 286.031216 
z
" style="fill:#6f92f3;"/>
   </g>
   <g id="PathCollection_3">
    <path clip-path="url(#p33d80d419e)" d="M 198.254545 333.961859 
L 201.861818 334.315949 
L 204.497372 333.44 
L 205.469091 333.117041 
L 209.076364 331.918142 
L 212.683636 330.719236 
L 216.290909 329.520329 
L 217.976839 328.96 
L 219.898182 328.321427 
L 223.505455 327.122518 
L 227.112727 325.923608 
L 230.72 324.724701 
L 231.456259 324.48 
L 234.327273 323.525798 
L 237.934545 322.326888 
L 241.541818 321.127975 
L 244.935709 320 
L 245.149091 319.929081 
L 248.756364 318.730172 
L 252.363636 317.531263 
L 255.970909 316.332357 
L 258.415152 315.52 
L 259.578182 315.133462 
L 263.185455 313.934544 
L 266.792727 312.735636 
L 268.700086 311.04 
L 269.975607 306.56 
L 270.4 304.228738 
L 270.791165 302.08 
L 271.606722 297.6 
L 272.422271 293.12 
L 273.237837 288.64 
L 274.007273 284.413255 
L 274.053375 284.16 
L 274.86894 279.68 
L 275.684498 275.2 
L 276.47297 270.72 
L 276.94895 266.24 
L 277.422928 261.76 
L 277.614545 259.948823 
L 277.896899 257.28 
L 278.370874 252.8 
L 278.844855 248.32 
L 277.614545 246.948563 
L 275.069166 243.84 
L 274.007273 242.703357 
L 270.4 239.813842 
L 266.792727 239.607443 
L 263.185455 239.540408 
L 259.578182 239.47337 
L 255.970909 239.40633 
L 253.478467 239.36 
L 252.363636 239.339277 
L 248.756364 239.27224 
L 245.149091 239.205204 
L 241.541818 239.138166 
L 237.934545 239.071119 
L 234.327273 239.004084 
L 230.72 238.937044 
L 227.112727 238.869999 
L 223.505455 238.802962 
L 219.898182 238.735922 
L 216.290909 238.668881 
L 212.683636 238.601842 
L 209.076364 238.534799 
L 205.469091 238.467758 
L 202.98416 239.36 
L 201.861818 240.666366 
L 199.637661 243.84 
L 199.36135 248.32 
L 199.085046 252.8 
L 198.808738 257.28 
L 198.532432 261.76 
L 198.256106 266.24 
L 198.254545 266.26531 
L 197.979812 270.72 
L 197.703493 275.2 
L 197.42719 279.68 
L 197.150885 284.16 
L 196.874576 288.64 
L 196.598262 293.12 
L 196.49067 297.6 
L 196.668519 302.08 
L 196.846368 306.56 
L 197.024213 311.04 
L 197.202059 315.52 
L 197.379901 320 
L 197.55776 324.48 
L 197.735603 328.96 
L 197.913452 333.44 
z
M 216.032732 311.04 
L 215.854884 306.56 
L 215.677044 302.08 
L 215.499194 297.6 
L 215.321349 293.12 
L 215.291073 288.64 
L 215.567381 284.16 
L 215.843692 279.68 
L 216.120001 275.2 
L 216.290909 272.428894 
L 216.396305 270.72 
L 216.672614 266.24 
L 216.948929 261.76 
L 217.225231 257.28 
L 219.898182 253.212879 
L 223.458567 252.8 
L 223.505455 252.795905 
L 227.112727 252.480827 
L 230.72 252.16575 
L 234.327273 251.85067 
L 237.934545 251.535596 
L 241.541818 251.220518 
L 245.149091 250.905442 
L 248.756364 250.590363 
L 252.363636 250.275286 
L 255.970909 249.960211 
L 259.578182 249.645134 
L 263.185455 251.405686 
L 263.506893 252.8 
L 263.185455 255.838259 
L 263.032924 257.28 
L 262.558946 261.76 
L 262.084976 266.24 
L 261.610997 270.72 
L 261.136026 275.2 
L 260.369455 279.68 
L 259.578182 284.026562 
L 259.55389 284.16 
L 258.738348 288.64 
L 257.922791 293.12 
L 256.910452 297.6 
L 255.970909 298.660628 
L 252.363636 299.859525 
L 248.756364 301.05845 
L 245.682666 302.08 
L 245.149091 302.257335 
L 241.541818 303.456244 
L 237.934545 304.655159 
L 234.327273 305.854067 
L 232.203243 306.56 
L 230.72 307.052965 
L 227.112727 308.251877 
L 223.505455 309.450784 
L 219.898182 310.618573 
L 217.664497 311.04 
L 216.290909 311.314911 
z
" style="fill:#97b8ff;"/>
   </g>
   <g id="PathCollection_4">
    <path clip-path="url(#p33d80d419e)" d="M 180.218182 356.991934 
L 183.825455 357.982207 
L 187.432727 356.783306 
L 190.270948 355.84 
L 191.04 355.5844 
L 194.647273 354.385499 
L 198.254545 353.18659 
L 201.861818 351.987683 
L 203.750392 351.36 
L 205.469091 350.788775 
L 209.076364 349.589868 
L 212.683636 348.390965 
L 216.290909 347.19205 
L 217.229815 346.88 
L 219.898182 345.993155 
L 223.505455 344.794252 
L 227.112727 343.595342 
L 230.709237 342.4 
L 230.72 342.396423 
L 234.327273 341.197524 
L 237.934545 339.998618 
L 241.541818 338.799707 
L 244.188689 337.92 
L 245.149091 337.600803 
L 248.756364 336.401906 
L 252.363636 335.202998 
L 255.970909 334.004096 
L 257.668172 333.44 
L 259.578182 332.805196 
L 263.185455 331.606279 
L 266.792727 330.407381 
L 270.4 329.208464 
L 271.147586 328.96 
L 274.007273 328.009565 
L 277.614545 326.810672 
L 281.205035 324.48 
L 281.221818 324.4309 
L 282.028443 320 
L 282.843996 315.52 
L 283.65955 311.04 
L 284.475105 306.56 
L 284.829091 304.615504 
L 285.290665 302.08 
L 286.106217 297.6 
L 286.921765 293.12 
L 287.737329 288.64 
L 288.436364 284.800039 
L 288.552877 284.16 
L 289.368431 279.68 
L 290.183978 275.2 
L 290.999543 270.72 
L 291.809584 266.24 
L 292.043636 264.042049 
L 292.286884 261.76 
L 292.76086 257.28 
L 293.234835 252.8 
L 292.821592 248.32 
L 292.043636 247.487281 
L 288.636232 243.84 
L 288.436364 243.626061 
L 284.829091 239.764854 
L 284.450862 239.36 
L 281.221818 235.903653 
L 280.265488 234.88 
L 277.614545 232.421297 
L 274.007273 231.635131 
L 270.4 231.568089 
L 266.792727 231.501054 
L 263.185455 231.434004 
L 259.578182 231.366967 
L 255.970909 231.29993 
L 252.363636 231.232887 
L 248.756364 231.165852 
L 245.149091 231.098813 
L 241.541818 231.031763 
L 237.934545 230.964724 
L 234.327273 230.897685 
L 230.72 230.830643 
L 227.112727 230.763609 
L 223.505455 230.696567 
L 219.898182 230.629522 
L 216.290909 230.562482 
L 212.683636 230.495444 
L 209.076364 230.428404 
L 207.54795 230.4 
L 205.469091 230.361333 
L 201.861818 230.201486 
L 198.254545 228.812922 
L 194.647273 228.109965 
L 191.04 228.400701 
L 187.432727 229.293614 
L 183.825455 230.186528 
L 182.963018 230.4 
L 180.218182 231.079418 
L 176.610909 231.972353 
L 173.003636 232.865278 
L 169.396364 233.758198 
L 165.789091 234.651104 
L 164.864383 234.88 
L 162.181818 236.032516 
L 158.574545 238.140349 
L 157.00043 239.36 
L 158.574545 240.663189 
L 162.181818 243.649584 
L 162.411821 243.84 
L 165.789091 246.636005 
L 167.823163 248.32 
L 169.396364 249.622438 
L 173.003636 252.60884 
L 173.234539 252.8 
L 176.610909 255.595254 
L 178.645886 257.28 
L 180.084862 261.76 
L 179.839617 266.24 
L 179.5633 270.72 
L 179.286995 275.2 
L 179.010687 279.68 
L 178.734382 284.16 
L 178.458067 288.64 
L 178.181764 293.12 
L 177.905451 297.6 
L 177.66133 302.08 
L 177.837847 306.56 
L 178.015689 311.04 
L 178.193539 315.52 
L 178.371379 320 
L 178.549232 324.48 
L 178.727076 328.96 
L 178.904928 333.44 
L 179.082775 337.92 
L 179.260613 342.4 
L 179.43846 346.88 
L 179.616307 351.36 
L 179.794164 355.84 
z
M 197.913452 333.44 
L 197.735603 328.96 
L 197.55776 324.48 
L 197.379901 320 
L 197.202059 315.52 
L 197.024213 311.04 
L 196.846368 306.56 
L 196.668519 302.08 
L 196.49067 297.6 
L 196.598262 293.12 
L 196.874576 288.64 
L 197.150885 284.16 
L 197.42719 279.68 
L 197.703493 275.2 
L 197.979812 270.72 
L 198.254545 266.26531 
L 198.256106 266.24 
L 198.532432 261.76 
L 198.808738 257.28 
L 199.085046 252.8 
L 199.36135 248.32 
L 199.637661 243.84 
L 201.861818 240.666366 
L 202.98416 239.36 
L 205.469091 238.467758 
L 209.076364 238.534799 
L 212.683636 238.601842 
L 216.290909 238.668881 
L 219.898182 238.735922 
L 223.505455 238.802962 
L 227.112727 238.869999 
L 230.72 238.937044 
L 234.327273 239.004084 
L 237.934545 239.071119 
L 241.541818 239.138166 
L 245.149091 239.205204 
L 248.756364 239.27224 
L 252.363636 239.339277 
L 253.478467 239.36 
L 255.970909 239.40633 
L 259.578182 239.47337 
L 263.185455 239.540408 
L 266.792727 239.607443 
L 270.4 239.813842 
L 274.007273 242.703357 
L 275.069166 243.84 
L 277.614545 246.948563 
L 278.844855 248.32 
L 278.370874 252.8 
L 277.896899 257.28 
L 277.614545 259.948823 
L 277.422928 261.76 
L 276.94895 266.24 
L 276.47297 270.72 
L 275.684498 275.2 
L 274.86894 279.68 
L 274.053375 284.16 
L 274.007273 284.413255 
L 273.237837 288.64 
L 272.422271 293.12 
L 271.606722 297.6 
L 270.791165 302.08 
L 270.4 304.228738 
L 269.975607 306.56 
L 268.700086 311.04 
L 266.792727 312.735636 
L 263.185455 313.934544 
L 259.578182 315.133462 
L 258.415152 315.52 
L 255.970909 316.332357 
L 252.363636 317.531263 
L 248.756364 318.730172 
L 245.149091 319.929081 
L 244.935709 320 
L 241.541818 321.127975 
L 237.934545 322.326888 
L 234.327273 323.525798 
L 231.456259 324.48 
L 230.72 324.724701 
L 227.112727 325.923608 
L 223.505455 327.122518 
L 219.898182 328.321427 
L 217.976839 328.96 
L 216.290909 329.520329 
L 212.683636 330.719236 
L 209.076364 331.918142 
L 205.469091 333.117041 
L 204.497372 333.44 
L 201.861818 334.315949 
L 198.254545 333.961859 
z
" style="fill:#bcd2f7;"/>
   </g>
   <g id="PathCollection_5">
    <path clip-path="url(#p33d80d419e)" d="M 162.181818 382.847381 
L 162.565082 382.72 
L 165.789091 381.648472 
L 169.396364 380.449571 
L 173.003636 379.250661 
L 176.044512 378.24 
L 176.610909 378.051753 
L 180.218182 376.852845 
L 183.825455 375.65394 
L 187.432727 374.455041 
L 189.523958 373.76 
L 191.04 373.256128 
L 194.647273 372.057225 
L 198.254545 370.858318 
L 201.861818 369.659407 
L 203.003386 369.28 
L 205.469091 368.460508 
L 209.076364 367.261597 
L 212.683636 366.062694 
L 216.290909 364.863777 
L 216.482801 364.8 
L 219.898182 363.664877 
L 223.505455 362.465984 
L 227.112727 361.267076 
L 229.962291 360.32 
L 230.72 360.068169 
L 234.327273 358.869267 
L 237.934545 357.670345 
L 241.541818 356.471443 
L 243.441701 355.84 
L 245.149091 355.272534 
L 248.756364 354.073641 
L 252.363636 352.874716 
L 255.970909 351.67582 
L 256.92116 351.36 
L 259.578182 350.476926 
L 263.185455 349.278011 
L 266.792727 348.079111 
L 270.4 346.8802 
L 270.400602 346.88 
L 274.007273 345.681294 
L 277.614545 344.482391 
L 281.221818 343.283469 
L 283.880032 342.4 
L 284.829091 342.084577 
L 288.436364 340.885664 
L 292.043636 339.507726 
L 293.265711 337.92 
L 294.081276 333.44 
L 294.896832 328.96 
L 295.650909 324.817701 
L 295.712385 324.48 
L 296.527939 320 
L 297.343488 315.52 
L 298.15904 311.04 
L 298.974594 306.56 
L 299.258182 305.002197 
L 299.790149 302.08 
L 300.605706 297.6 
L 301.421259 293.12 
L 302.236817 288.64 
L 302.865455 285.186772 
L 303.052371 284.16 
L 303.867916 279.68 
L 304.683475 275.2 
L 305.49903 270.72 
L 306.314574 266.24 
L 306.472727 265.371236 
L 307.130136 261.76 
L 307.624823 257.28 
L 308.098795 252.8 
L 306.472727 248.560181 
L 306.38865 248.32 
L 302.865455 244.548768 
L 302.2033 243.84 
L 299.258182 240.687575 
L 298.017915 239.36 
L 295.650909 236.826363 
L 293.832554 234.88 
L 292.043636 232.965141 
L 289.647202 230.4 
L 288.436364 229.103926 
L 285.461819 225.92 
L 284.829091 225.285166 
L 281.221818 223.66283 
L 277.614545 223.595791 
L 274.007273 223.528754 
L 270.4 223.461715 
L 266.792727 223.394681 
L 263.185455 223.327626 
L 259.578182 223.260589 
L 255.970909 223.193551 
L 252.363636 223.126512 
L 248.756364 223.059475 
L 245.149091 222.992436 
L 241.541818 222.925386 
L 237.934545 222.858346 
L 234.327273 222.79131 
L 230.72 222.724271 
L 227.112727 222.657233 
L 223.505455 222.590195 
L 219.898182 222.523144 
L 216.290909 222.456107 
L 212.683636 222.389068 
L 209.076364 222.322032 
L 206.031247 221.44 
L 205.469091 221.231938 
L 201.861818 219.843351 
L 198.254545 218.454783 
L 194.647273 217.066214 
L 194.371346 216.96 
L 191.04 215.677642 
L 187.432727 214.289069 
L 183.825455 213.00553 
L 181.535189 212.48 
L 180.218182 212.191409 
L 178.422192 212.48 
L 176.610909 212.928359 
L 173.003636 213.821284 
L 169.396364 214.714202 
L 165.789091 215.607124 
L 162.181818 216.500038 
L 160.323576 216.96 
L 158.574545 217.392931 
L 154.967273 218.285851 
L 151.36 219.178772 
L 147.752727 220.071699 
L 144.145455 220.964615 
L 142.224906 221.44 
L 140.538182 221.857508 
L 136.930909 222.750428 
L 133.323636 223.64335 
L 129.716364 224.536265 
L 126.109091 225.429186 
L 124.126269 225.92 
L 122.501818 226.322102 
L 118.894545 227.214996 
L 115.287273 228.107915 
L 111.68 229.000825 
L 108.072727 229.893739 
L 106.027463 230.4 
L 104.465455 231.268419 
L 100.858182 234.091621 
L 100.119651 234.88 
L 100.858182 235.491418 
L 104.465455 238.477822 
L 105.531035 239.36 
L 108.072727 241.464229 
L 110.942411 243.84 
L 111.68 244.450643 
L 115.287273 247.437071 
L 116.353755 248.32 
L 118.894545 250.423487 
L 121.765122 252.8 
L 122.501818 253.4099 
L 126.109091 256.396315 
L 127.176492 257.28 
L 129.716364 259.382722 
L 132.587871 261.76 
L 133.323636 262.369132 
L 136.930909 265.355552 
L 137.999225 266.24 
L 140.538182 268.341964 
L 143.410605 270.72 
L 144.145455 271.328374 
L 147.752727 274.3148 
L 148.821951 275.2 
L 151.36 277.301225 
L 154.23332 279.68 
L 154.967273 280.287626 
L 158.574545 283.274042 
L 159.189303 284.16 
L 160.041571 288.64 
L 159.765267 293.12 
L 159.48895 297.6 
L 159.212648 302.08 
L 158.936344 306.56 
L 159.007165 311.04 
L 159.185018 315.52 
L 159.362857 320 
L 159.540709 324.48 
L 159.718554 328.96 
L 159.896402 333.44 
L 160.074251 337.92 
L 160.252093 342.4 
L 160.429944 346.88 
L 160.607793 351.36 
L 160.785629 355.84 
L 160.963485 360.32 
L 161.14133 364.8 
L 161.31917 369.28 
L 161.497027 373.76 
L 161.674876 378.24 
L 162.037095 382.72 
z
M 179.794164 355.84 
L 179.616307 351.36 
L 179.43846 346.88 
L 179.260613 342.4 
L 179.082775 337.92 
L 178.904928 333.44 
L 178.727076 328.96 
L 178.549232 324.48 
L 178.371379 320 
L 178.193539 315.52 
L 178.015689 311.04 
L 177.837847 306.56 
L 177.66133 302.08 
L 177.905451 297.6 
L 178.181764 293.12 
L 178.458067 288.64 
L 178.734382 284.16 
L 179.010687 279.68 
L 179.286995 275.2 
L 179.5633 270.72 
L 179.839617 266.24 
L 180.084862 261.76 
L 178.645886 257.28 
L 176.610909 255.595254 
L 173.234539 252.8 
L 173.003636 252.60884 
L 169.396364 249.622438 
L 167.823163 248.32 
L 165.789091 246.636005 
L 162.411821 243.84 
L 162.181818 243.649584 
L 158.574545 240.663189 
L 157.00043 239.36 
L 158.574545 238.140349 
L 162.181818 236.032516 
L 164.864383 234.88 
L 165.789091 234.651104 
L 169.396364 233.758198 
L 173.003636 232.865278 
L 176.610909 231.972353 
L 180.218182 231.079418 
L 182.963018 230.4 
L 183.825455 230.186528 
L 187.432727 229.293614 
L 191.04 228.400701 
L 194.647273 228.109965 
L 198.254545 228.812922 
L 201.861818 230.201486 
L 205.469091 230.361333 
L 207.54795 230.4 
L 209.076364 230.428404 
L 212.683636 230.495444 
L 216.290909 230.562482 
L 219.898182 230.629522 
L 223.505455 230.696567 
L 227.112727 230.763609 
L 230.72 230.830643 
L 234.327273 230.897685 
L 237.934545 230.964724 
L 241.541818 231.031763 
L 245.149091 231.098813 
L 248.756364 231.165852 
L 252.363636 231.232887 
L 255.970909 231.29993 
L 259.578182 231.366967 
L 263.185455 231.434004 
L 266.792727 231.501054 
L 270.4 231.568089 
L 274.007273 231.635131 
L 277.614545 232.421297 
L 280.265488 234.88 
L 281.221818 235.903653 
L 284.450862 239.36 
L 284.829091 239.764854 
L 288.436364 243.626061 
L 288.636232 243.84 
L 292.043636 247.487281 
L 292.821592 248.32 
L 293.234835 252.8 
L 292.76086 257.28 
L 292.286884 261.76 
L 292.043636 264.042049 
L 291.809584 266.24 
L 290.999543 270.72 
L 290.183978 275.2 
L 289.368431 279.68 
L 288.552877 284.16 
L 288.436364 284.800039 
L 287.737329 288.64 
L 286.921765 293.12 
L 286.106217 297.6 
L 285.290665 302.08 
L 284.829091 304.615504 
L 284.475105 306.56 
L 283.65955 311.04 
L 282.843996 315.52 
L 282.028443 320 
L 281.221818 324.4309 
L 281.205035 324.48 
L 277.614545 326.810672 
L 274.007273 328.009565 
L 271.147586 328.96 
L 270.4 329.208464 
L 266.792727 330.407381 
L 263.185455 331.606279 
L 259.578182 332.805196 
L 257.668172 333.44 
L 255.970909 334.004096 
L 252.363636 335.202998 
L 248.756364 336.401906 
L 245.149091 337.600803 
L 244.188689 337.92 
L 241.541818 338.799707 
L 237.934545 339.998618 
L 234.327273 341.197524 
L 230.72 342.396423 
L 230.709237 342.4 
L 227.112727 343.595342 
L 223.505455 344.794252 
L 219.898182 345.993155 
L 217.229815 346.88 
L 216.290909 347.19205 
L 212.683636 348.390965 
L 209.076364 349.589868 
L 205.469091 350.788775 
L 203.750392 351.36 
L 201.861818 351.987683 
L 198.254545 353.18659 
L 194.647273 354.385499 
L 191.04 355.5844 
L 190.270948 355.84 
L 187.432727 356.783306 
L 183.825455 357.982207 
L 180.218182 356.991934 
z
" style="fill:#dddcdc;"/>
   </g>
   <g id="PathCollection_6">
    <path clip-path="url(#p33d80d419e)" d="M 144.145455 405.614635 
L 147.752727 405.314735 
L 148.338645 405.12 
L 151.36 404.115826 
L 154.967273 402.916923 
L 158.574545 401.71801 
L 161.818058 400.64 
L 162.181818 400.519102 
L 165.789091 399.320193 
L 169.396364 398.121291 
L 173.003636 396.92239 
L 175.297516 396.16 
L 176.610909 395.723484 
L 180.218182 394.524581 
L 183.825455 393.325671 
L 187.432727 392.126777 
L 188.776979 391.68 
L 191.04 390.927858 
L 194.647273 389.728946 
L 198.254545 388.530037 
L 201.861818 387.331145 
L 202.256407 387.2 
L 205.469091 386.132238 
L 209.076364 384.933322 
L 212.683636 383.734414 
L 215.73582 382.72 
L 216.290909 382.535513 
L 219.898182 381.336614 
L 223.505455 380.137711 
L 227.112727 378.938792 
L 229.21527 378.24 
L 230.72 377.739895 
L 234.327273 376.54099 
L 237.934545 375.342084 
L 241.541818 374.143176 
L 242.694713 373.76 
L 245.149091 372.944266 
L 248.756364 371.745368 
L 252.363636 370.546455 
L 255.970909 369.347547 
L 256.174148 369.28 
L 259.578182 368.148658 
L 263.185455 366.949732 
L 266.792727 365.750824 
L 269.653585 364.8 
L 270.4 364.551925 
L 274.007273 363.353021 
L 277.614545 362.154126 
L 281.221818 360.955206 
L 283.133029 360.32 
L 284.829091 359.756301 
L 288.436364 358.557386 
L 292.043636 357.358498 
L 295.650909 356.15959 
L 296.612501 355.84 
L 299.258182 354.960692 
L 302.865455 353.761774 
L 305.140332 351.36 
L 306.134087 346.88 
L 306.472727 345.019747 
L 306.949633 342.4 
L 307.765197 337.92 
L 308.580748 333.44 
L 309.39632 328.96 
L 310.08 325.204422 
L 310.211876 324.48 
L 311.027422 320 
L 311.842981 315.52 
L 312.658539 311.04 
L 313.474092 306.56 
L 313.687273 305.388935 
L 314.289633 302.08 
L 315.105195 297.6 
L 315.920745 293.12 
L 316.736302 288.64 
L 317.294545 285.573384 
L 317.551839 284.16 
L 318.367415 279.68 
L 319.182966 275.2 
L 319.998529 270.72 
L 320.814086 266.24 
L 320.901818 265.758067 
L 321.629632 261.76 
L 322.445184 257.28 
L 322.962763 252.8 
L 320.901818 249.819154 
L 319.955738 248.32 
L 317.294545 245.471488 
L 315.770356 243.84 
L 313.687273 241.610271 
L 311.584995 239.36 
L 310.08 237.749062 
L 307.399611 234.88 
L 306.472727 233.887868 
L 303.21428 230.4 
L 302.865455 230.026617 
L 299.258182 226.165421 
L 299.0289 225.92 
L 295.650909 222.304217 
L 294.843528 221.44 
L 292.043636 218.443004 
L 290.619808 216.96 
L 288.436364 215.69053 
L 284.829091 215.623488 
L 281.221818 215.556445 
L 277.614545 215.489399 
L 274.007273 215.422364 
L 270.4 215.355324 
L 266.792727 215.288289 
L 263.185455 215.22124 
L 259.578182 215.154197 
L 255.970909 215.08716 
L 252.363636 215.020123 
L 248.756364 214.953086 
L 245.149091 214.886048 
L 241.541818 214.818995 
L 237.934545 214.751957 
L 234.327273 214.684919 
L 230.72 214.617881 
L 227.112727 214.550842 
L 223.505455 214.483805 
L 219.898182 214.416754 
L 216.290909 214.349718 
L 212.683636 213.622381 
L 209.64176 212.48 
L 209.076364 212.26236 
L 205.469091 210.873793 
L 201.861818 209.485213 
L 198.254545 208.096647 
L 198.003472 208 
L 194.647273 206.708071 
L 191.04 205.319494 
L 187.432727 203.930917 
L 186.365237 203.52 
L 183.825455 202.542351 
L 180.218182 201.153769 
L 176.610909 199.765206 
L 174.72694 199.04 
L 173.003636 198.376638 
L 169.396364 197.11291 
L 165.789091 196.575893 
L 162.181818 197.456057 
L 158.574545 198.34894 
L 155.782776 199.04 
L 154.967273 199.241864 
L 151.36 200.134775 
L 147.752727 201.027693 
L 144.145455 201.920607 
L 140.538182 202.813496 
L 137.684014 203.52 
L 136.930909 203.706421 
L 133.323636 204.59934 
L 129.716364 205.492268 
L 126.109091 206.38519 
L 122.501818 207.278118 
L 119.585437 208 
L 118.894545 208.171012 
L 115.287273 209.063926 
L 111.68 209.956844 
L 108.072727 210.849762 
L 104.465455 211.742676 
L 101.486766 212.48 
L 100.858182 212.635596 
L 97.250909 213.52848 
L 93.643636 214.421402 
L 90.036364 215.31432 
L 86.429091 216.207243 
L 83.388087 216.96 
L 82.821818 217.100172 
L 79.214545 217.993088 
L 75.607273 218.88598 
L 72 219.778902 
L 72 221.44 
L 72 225.92 
L 72 230.4 
L 72 234.88 
L 72 239.36 
L 72 243.84 
L 72 248.32 
L 72 252.8 
L 72 254.210942 
L 75.607273 257.197357 
L 75.707097 257.28 
L 79.214545 260.183754 
L 81.118473 261.76 
L 82.821818 263.170176 
L 86.429091 266.156612 
L 86.529815 266.24 
L 90.036364 269.143016 
L 91.941213 270.72 
L 93.643636 272.129406 
L 97.250909 275.115854 
L 97.352548 275.2 
L 100.858182 278.102269 
L 102.763915 279.68 
L 104.465455 281.088677 
L 108.072727 284.075089 
L 108.175291 284.16 
L 111.68 287.061522 
L 113.586627 288.64 
L 115.287273 290.047941 
L 118.894545 293.034335 
L 118.99802 293.12 
L 122.501818 296.020759 
L 124.409368 297.6 
L 126.109091 299.007184 
L 129.716364 301.993594 
L 129.820733 302.08 
L 133.323636 304.98 
L 135.232112 306.56 
L 136.930909 307.966418 
L 139.883312 311.04 
L 140.176491 315.52 
L 140.35433 320 
L 140.532191 324.48 
L 140.538182 324.630917 
L 140.710031 328.96 
L 140.887878 333.44 
L 141.065723 337.92 
L 141.243575 342.4 
L 141.421415 346.88 
L 141.599273 351.36 
L 141.777104 355.84 
L 141.954954 360.32 
L 142.132814 364.8 
L 142.31065 369.28 
L 142.4885 373.76 
L 142.666348 378.24 
L 142.84419 382.72 
L 143.022044 387.2 
L 143.199885 391.68 
L 143.377738 396.16 
L 143.555584 400.64 
L 143.733421 405.12 
z
M 162.037095 382.72 
L 161.674876 378.24 
L 161.497027 373.76 
L 161.31917 369.28 
L 161.14133 364.8 
L 160.963485 360.32 
L 160.785629 355.84 
L 160.607793 351.36 
L 160.429944 346.88 
L 160.252093 342.4 
L 160.074251 337.92 
L 159.896402 333.44 
L 159.718554 328.96 
L 159.540709 324.48 
L 159.362857 320 
L 159.185018 315.52 
L 159.007165 311.04 
L 158.936344 306.56 
L 159.212648 302.08 
L 159.48895 297.6 
L 159.765267 293.12 
L 160.041571 288.64 
L 159.189303 284.16 
L 158.574545 283.274042 
L 154.967273 280.287626 
L 154.23332 279.68 
L 151.36 277.301225 
L 148.821951 275.2 
L 147.752727 274.3148 
L 144.145455 271.328374 
L 143.410605 270.72 
L 140.538182 268.341964 
L 137.999225 266.24 
L 136.930909 265.355552 
L 133.323636 262.369132 
L 132.587871 261.76 
L 129.716364 259.382722 
L 127.176492 257.28 
L 126.109091 256.396315 
L 122.501818 253.4099 
L 121.765122 252.8 
L 118.894545 250.423487 
L 116.353755 248.32 
L 115.287273 247.437071 
L 111.68 244.450643 
L 110.942411 243.84 
L 108.072727 241.464229 
L 105.531035 239.36 
L 104.465455 238.477822 
L 100.858182 235.491418 
L 100.119651 234.88 
L 100.858182 234.091621 
L 104.465455 231.268419 
L 106.027463 230.4 
L 108.072727 229.893739 
L 111.68 229.000825 
L 115.287273 228.107915 
L 118.894545 227.214996 
L 122.501818 226.322102 
L 124.126269 225.92 
L 126.109091 225.429186 
L 129.716364 224.536265 
L 133.323636 223.64335 
L 136.930909 222.750428 
L 140.538182 221.857508 
L 142.224906 221.44 
L 144.145455 220.964615 
L 147.752727 220.071699 
L 151.36 219.178772 
L 154.967273 218.285851 
L 158.574545 217.392931 
L 160.323576 216.96 
L 162.181818 216.500038 
L 165.789091 215.607124 
L 169.396364 214.714202 
L 173.003636 213.821284 
L 176.610909 212.928359 
L 178.422192 212.48 
L 180.218182 212.191409 
L 181.535189 212.48 
L 183.825455 213.00553 
L 187.432727 214.289069 
L 191.04 215.677642 
L 194.371346 216.96 
L 194.647273 217.066214 
L 198.254545 218.454783 
L 201.861818 219.843351 
L 205.469091 221.231938 
L 206.031247 221.44 
L 209.076364 222.322032 
L 212.683636 222.389068 
L 216.290909 222.456107 
L 219.898182 222.523144 
L 223.505455 222.590195 
L 227.112727 222.657233 
L 230.72 222.724271 
L 234.327273 222.79131 
L 237.934545 222.858346 
L 241.541818 222.925386 
L 245.149091 222.992436 
L 248.756364 223.059475 
L 252.363636 223.126512 
L 255.970909 223.193551 
L 259.578182 223.260589 
L 263.185455 223.327626 
L 266.792727 223.394681 
L 270.4 223.461715 
L 274.007273 223.528754 
L 277.614545 223.595791 
L 281.221818 223.66283 
L 284.829091 225.285166 
L 285.461819 225.92 
L 288.436364 229.103926 
L 289.647202 230.4 
L 292.043636 232.965141 
L 293.832554 234.88 
L 295.650909 236.826363 
L 298.017915 239.36 
L 299.258182 240.687575 
L 302.2033 243.84 
L 302.865455 244.548768 
L 306.38865 248.32 
L 306.472727 248.560181 
L 308.098795 252.8 
L 307.624823 257.28 
L 307.130136 261.76 
L 306.472727 265.371236 
L 306.314574 266.24 
L 305.49903 270.72 
L 304.683475 275.2 
L 303.867916 279.68 
L 303.052371 284.16 
L 302.865455 285.186772 
L 302.236817 288.64 
L 301.421259 293.12 
L 300.605706 297.6 
L 299.790149 302.08 
L 299.258182 305.002197 
L 298.974594 306.56 
L 298.15904 311.04 
L 297.343488 315.52 
L 296.527939 320 
L 295.712385 324.48 
L 295.650909 324.817701 
L 294.896832 328.96 
L 294.081276 333.44 
L 293.265711 337.92 
L 292.043636 339.507726 
L 288.436364 340.885664 
L 284.829091 342.084577 
L 283.880032 342.4 
L 281.221818 343.283469 
L 277.614545 344.482391 
L 274.007273 345.681294 
L 270.400602 346.88 
L 270.4 346.8802 
L 266.792727 348.079111 
L 263.185455 349.278011 
L 259.578182 350.476926 
L 256.92116 351.36 
L 255.970909 351.67582 
L 252.363636 352.874716 
L 248.756364 354.073641 
L 245.149091 355.272534 
L 243.441701 355.84 
L 241.541818 356.471443 
L 237.934545 357.670345 
L 234.327273 358.869267 
L 230.72 360.068169 
L 229.962291 360.32 
L 227.112727 361.267076 
L 223.505455 362.465984 
L 219.898182 363.664877 
L 216.482801 364.8 
L 216.290909 364.863777 
L 212.683636 366.062694 
L 209.076364 367.261597 
L 205.469091 368.460508 
L 203.003386 369.28 
L 201.861818 369.659407 
L 198.254545 370.858318 
L 194.647273 372.057225 
L 191.04 373.256128 
L 189.523958 373.76 
L 187.432727 374.455041 
L 183.825455 375.65394 
L 180.218182 376.852845 
L 176.610909 378.051753 
L 176.044512 378.24 
L 173.003636 379.250661 
L 169.396364 380.449571 
L 165.789091 381.648472 
L 162.565082 382.72 
L 162.181818 382.847381 
z
" style="fill:#f3c8b2;"/>
   </g>
   <g id="PathCollection_7">
    <path clip-path="url(#p33d80d419e)" d="M 126.109091 428.424042 
L 129.716364 428.980997 
L 133.323636 427.782075 
L 134.112176 427.52 
L 136.930909 426.583181 
L 140.538182 425.38427 
L 144.145455 424.185364 
L 147.591641 423.04 
L 147.752727 422.986462 
L 151.36 421.787556 
L 154.967273 420.588651 
L 158.574545 419.389739 
L 161.071094 418.56 
L 162.181818 418.190845 
L 165.789091 416.991936 
L 169.396364 415.79303 
L 173.003636 414.594128 
L 174.550533 414.08 
L 176.610909 413.395209 
L 180.218182 412.196298 
L 183.825455 410.997409 
L 187.432727 409.798493 
L 188.029946 409.6 
L 191.04 408.599577 
L 194.647273 407.400679 
L 198.254545 406.201781 
L 201.50936 405.12 
L 201.861818 405.002856 
L 205.469091 403.803953 
L 209.076364 402.605055 
L 212.683636 401.406161 
L 214.988856 400.64 
L 216.290909 400.207247 
L 219.898182 399.008338 
L 223.505455 397.809438 
L 227.112727 396.610531 
L 228.468288 396.16 
L 230.72 395.411625 
L 234.327273 394.212723 
L 237.934545 393.013821 
L 241.541818 391.814901 
L 241.947708 391.68 
L 245.149091 390.615999 
L 248.756364 389.417092 
L 252.363636 388.218186 
L 255.427178 387.2 
L 255.970909 387.019288 
L 259.578182 385.820374 
L 263.185455 384.62146 
L 266.792727 383.422561 
L 268.90657 382.72 
L 270.4 382.223642 
L 274.007273 381.024742 
L 277.614545 379.825842 
L 281.221818 378.626925 
L 282.386027 378.24 
L 284.829091 377.428047 
L 288.436364 376.229122 
L 292.043636 375.030218 
L 295.650909 373.831343 
L 295.865562 373.76 
L 299.258182 372.632411 
L 302.865455 371.433498 
L 306.472727 370.234605 
L 309.344964 369.28 
L 310.08 369.035705 
L 313.687273 367.836784 
L 317.294545 364.953322 
L 317.371367 364.8 
L 318.186925 360.32 
L 319.002483 355.84 
L 319.818034 351.36 
L 320.633597 346.88 
L 320.901818 345.40661 
L 321.449148 342.4 
L 322.264703 337.92 
L 323.080256 333.44 
L 323.8958 328.96 
L 324.509091 325.591053 
L 324.71135 324.48 
L 325.526908 320 
L 326.342465 315.52 
L 327.158012 311.04 
L 327.973572 306.56 
L 328.116364 305.775625 
L 328.789128 302.08 
L 329.604687 297.6 
L 330.420237 293.12 
L 331.235805 288.64 
L 331.723636 285.960197 
L 332.051343 284.16 
L 332.866904 279.68 
L 333.682452 275.2 
L 334.498005 270.72 
L 335.313568 266.24 
L 335.330909 266.144743 
L 336.129111 261.76 
L 336.944668 257.28 
L 337.61438 252.8 
L 335.330909 250.304804 
L 333.522784 248.32 
L 331.723636 246.394199 
L 329.337413 243.84 
L 328.116364 242.532993 
L 325.152042 239.36 
L 324.509091 238.67179 
L 320.966682 234.88 
L 320.901818 234.810569 
L 317.294545 230.949351 
L 316.781327 230.4 
L 313.687273 227.088138 
L 312.595954 225.92 
L 310.08 223.226934 
L 308.410579 221.44 
L 306.472727 219.365738 
L 304.22523 216.96 
L 302.865455 215.504487 
L 300.039861 212.48 
L 299.258182 211.643299 
L 295.854491 208 
L 295.650909 207.873849 
L 292.043636 207.65119 
L 288.436364 207.584151 
L 284.829091 207.51711 
L 281.221818 207.450063 
L 277.614545 207.383025 
L 274.007273 207.315985 
L 270.4 207.248946 
L 266.792727 207.181908 
L 263.185455 207.114857 
L 259.578182 207.04782 
L 255.970909 206.98078 
L 252.363636 206.91374 
L 248.756364 206.846704 
L 245.149091 206.779667 
L 241.541818 206.712615 
L 237.934545 206.645575 
L 234.327273 206.578538 
L 230.72 206.511499 
L 227.112727 206.444461 
L 223.505455 206.377422 
L 219.898182 205.945976 
L 216.290909 204.681348 
L 213.273934 203.52 
L 212.683636 203.292774 
L 209.076364 201.904209 
L 205.469091 200.515645 
L 201.861818 199.127067 
L 201.635631 199.04 
L 198.254545 197.738493 
L 194.647273 196.349921 
L 191.04 194.961352 
L 189.997358 194.56 
L 187.432727 193.572778 
L 183.825455 192.184211 
L 180.218182 190.79562 
L 178.359124 190.08 
L 176.610909 189.407051 
L 173.003636 188.018485 
L 169.396364 186.629916 
L 166.720821 185.6 
L 165.789091 185.241344 
L 162.181818 183.852779 
L 158.574545 182.464205 
L 155.082525 181.12 
L 154.967273 181.075635 
L 151.36 181.096769 
L 151.242031 181.12 
L 147.752727 181.983707 
L 144.145455 182.876622 
L 140.538182 183.769506 
L 136.930909 184.662423 
L 133.323636 185.555343 
L 133.143225 185.6 
L 129.716364 186.448256 
L 126.109091 187.341185 
L 122.501818 188.234106 
L 118.894545 189.126992 
L 115.287273 190.019916 
L 115.044542 190.08 
L 111.68 190.912833 
L 108.072727 191.805758 
L 104.465455 192.698678 
L 100.858182 193.5916 
L 97.250909 194.484486 
L 96.945847 194.56 
L 93.643636 195.377416 
L 90.036364 196.270335 
L 86.429091 197.163249 
L 82.821818 198.05618 
L 79.214545 198.949071 
L 78.847207 199.04 
L 75.607273 199.841988 
L 72 200.734905 
L 72 203.52 
L 72 208 
L 72 212.48 
L 72 216.96 
L 72 219.778902 
L 75.607273 218.88598 
L 79.214545 217.993088 
L 82.821818 217.100172 
L 83.388087 216.96 
L 86.429091 216.207243 
L 90.036364 215.31432 
L 93.643636 214.421402 
L 97.250909 213.52848 
L 100.858182 212.635596 
L 101.486766 212.48 
L 104.465455 211.742676 
L 108.072727 210.849762 
L 111.68 209.956844 
L 115.287273 209.063926 
L 118.894545 208.171012 
L 119.585437 208 
L 122.501818 207.278118 
L 126.109091 206.38519 
L 129.716364 205.492268 
L 133.323636 204.59934 
L 136.930909 203.706421 
L 137.684014 203.52 
L 140.538182 202.813496 
L 144.145455 201.920607 
L 147.752727 201.027693 
L 151.36 200.134775 
L 154.967273 199.241864 
L 155.782776 199.04 
L 158.574545 198.34894 
L 162.181818 197.456057 
L 165.789091 196.575893 
L 169.396364 197.11291 
L 173.003636 198.376638 
L 174.72694 199.04 
L 176.610909 199.765206 
L 180.218182 201.153769 
L 183.825455 202.542351 
L 186.365237 203.52 
L 187.432727 203.930917 
L 191.04 205.319494 
L 194.647273 206.708071 
L 198.003472 208 
L 198.254545 208.096647 
L 201.861818 209.485213 
L 205.469091 210.873793 
L 209.076364 212.26236 
L 209.64176 212.48 
L 212.683636 213.622381 
L 216.290909 214.349718 
L 219.898182 214.416754 
L 223.505455 214.483805 
L 227.112727 214.550842 
L 230.72 214.617881 
L 234.327273 214.684919 
L 237.934545 214.751957 
L 241.541818 214.818995 
L 245.149091 214.886048 
L 248.756364 214.953086 
L 252.363636 215.020123 
L 255.970909 215.08716 
L 259.578182 215.154197 
L 263.185455 215.22124 
L 266.792727 215.288289 
L 270.4 215.355324 
L 274.007273 215.422364 
L 277.614545 215.489399 
L 281.221818 215.556445 
L 284.829091 215.623488 
L 288.436364 215.69053 
L 290.619808 216.96 
L 292.043636 218.443004 
L 294.843528 221.44 
L 295.650909 222.304217 
L 299.0289 225.92 
L 299.258182 226.165421 
L 302.865455 230.026617 
L 303.21428 230.4 
L 306.472727 233.887868 
L 307.399611 234.88 
L 310.08 237.749062 
L 311.584995 239.36 
L 313.687273 241.610271 
L 315.770356 243.84 
L 317.294545 245.471488 
L 319.955738 248.32 
L 320.901818 249.819154 
L 322.962763 252.8 
L 322.445184 257.28 
L 321.629632 261.76 
L 320.901818 265.758067 
L 320.814086 266.24 
L 319.998529 270.72 
L 319.182966 275.2 
L 318.367415 279.68 
L 317.551839 284.16 
L 317.294545 285.573384 
L 316.736302 288.64 
L 315.920745 293.12 
L 315.105195 297.6 
L 314.289633 302.08 
L 313.687273 305.388935 
L 313.474092 306.56 
L 312.658539 311.04 
L 311.842981 315.52 
L 311.027422 320 
L 310.211876 324.48 
L 310.08 325.204422 
L 309.39632 328.96 
L 308.580748 333.44 
L 307.765197 337.92 
L 306.949633 342.4 
L 306.472727 345.019747 
L 306.134087 346.88 
L 305.140332 351.36 
L 302.865455 353.761774 
L 299.258182 354.960692 
L 296.612501 355.84 
L 295.650909 356.15959 
L 292.043636 357.358498 
L 288.436364 358.557386 
L 284.829091 359.756301 
L 283.133029 360.32 
L 281.221818 360.955206 
L 277.614545 362.154126 
L 274.007273 363.353021 
L 270.4 364.551925 
L 269.653585 364.8 
L 266.792727 365.750824 
L 263.185455 366.949732 
L 259.578182 368.148658 
L 256.174148 369.28 
L 255.970909 369.347547 
L 252.363636 370.546455 
L 248.756364 371.745368 
L 245.149091 372.944266 
L 242.694713 373.76 
L 241.541818 374.143176 
L 237.934545 375.342084 
L 234.327273 376.54099 
L 230.72 377.739895 
L 229.21527 378.24 
L 227.112727 378.938792 
L 223.505455 380.137711 
L 219.898182 381.336614 
L 216.290909 382.535513 
L 215.73582 382.72 
L 212.683636 383.734414 
L 209.076364 384.933322 
L 205.469091 386.132238 
L 202.256407 387.2 
L 201.861818 387.331145 
L 198.254545 388.530037 
L 194.647273 389.728946 
L 191.04 390.927858 
L 188.776979 391.68 
L 187.432727 392.126777 
L 183.825455 393.325671 
L 180.218182 394.524581 
L 176.610909 395.723484 
L 175.297516 396.16 
L 173.003636 396.92239 
L 169.396364 398.121291 
L 165.789091 399.320193 
L 162.181818 400.519102 
L 161.818058 400.64 
L 158.574545 401.71801 
L 154.967273 402.916923 
L 151.36 404.115826 
L 148.338645 405.12 
L 147.752727 405.314735 
L 144.145455 405.614635 
L 143.733421 405.12 
L 143.555584 400.64 
L 143.377738 396.16 
L 143.199885 391.68 
L 143.022044 387.2 
L 142.84419 382.72 
L 142.666348 378.24 
L 142.4885 373.76 
L 142.31065 369.28 
L 142.132814 364.8 
L 141.954954 360.32 
L 141.777104 355.84 
L 141.599273 351.36 
L 141.421415 346.88 
L 141.243575 342.4 
L 141.065723 337.92 
L 140.887878 333.44 
L 140.710031 328.96 
L 140.538182 324.630917 
L 140.532191 324.48 
L 140.35433 320 
L 140.176491 315.52 
L 139.883312 311.04 
L 136.930909 307.966418 
L 135.232112 306.56 
L 133.323636 304.98 
L 129.820733 302.08 
L 129.716364 301.993594 
L 126.109091 299.007184 
L 124.409368 297.6 
L 122.501818 296.020759 
L 118.99802 293.12 
L 118.894545 293.034335 
L 115.287273 290.047941 
L 113.586627 288.64 
L 111.68 287.061522 
L 108.175291 284.16 
L 108.072727 284.075089 
L 104.465455 281.088677 
L 102.763915 279.68 
L 100.858182 278.102269 
L 97.352548 275.2 
L 97.250909 275.115854 
L 93.643636 272.129406 
L 91.941213 270.72 
L 90.036364 269.143016 
L 86.529815 266.24 
L 86.429091 266.156612 
L 82.821818 263.170176 
L 81.118473 261.76 
L 79.214545 260.183754 
L 75.707097 257.28 
L 75.607273 257.197357 
L 72 254.210942 
L 72 257.28 
L 72 261.76 
L 72 266.24 
L 72 270.72 
L 72 275.2 
L 72 279.68 
L 72 284.16 
L 72 288.64 
L 72 293.12 
L 72 296.821796 
L 72.939991 297.6 
L 75.607273 299.808219 
L 78.351345 302.08 
L 79.214545 302.794631 
L 82.821818 305.781051 
L 83.762706 306.56 
L 86.429091 308.76747 
L 89.174084 311.04 
L 90.036364 311.75387 
L 93.643636 314.740294 
L 94.585435 315.52 
L 97.250909 317.726725 
L 99.996799 320 
L 100.858182 320.713125 
L 104.465455 323.699531 
L 105.493064 324.48 
L 108.072727 326.070703 
L 111.68 328.284297 
L 112.781126 328.96 
L 115.287273 330.497894 
L 118.894545 332.711504 
L 120.0817 333.44 
L 122.01675 337.92 
L 122.235052 342.4 
L 122.412895 346.88 
L 122.501818 349.119962 
L 122.590745 351.36 
L 122.768588 355.84 
L 122.946431 360.32 
L 123.124284 364.8 
L 123.302127 369.28 
L 123.479973 373.76 
L 123.657824 378.24 
L 123.835671 382.72 
L 124.013516 387.2 
L 124.191366 391.68 
L 124.369212 396.16 
L 124.54706 400.64 
L 124.724903 405.12 
L 124.902749 409.6 
L 125.080601 414.08 
L 125.25844 418.56 
L 125.436293 423.04 
L 125.614141 427.52 
z
" style="fill:#f6a586;"/>
   </g>
   <g id="PathCollection_8">
    <path clip-path="url(#p33d80d419e)" d="M 108.072727 452.125882 
L 111.68 453.630414 
L 115.287273 453.18979 
L 118.894545 451.568808 
L 120.222157 449.92 
L 122.501818 449.313181 
L 126.109091 449.068827 
L 129.716364 448.495005 
L 133.323636 445.546822 
L 133.409649 445.44 
L 136.930909 444.783573 
L 140.538182 444.487894 
L 144.145455 443.707532 
L 146.844628 440.96 
L 147.752727 440.658185 
L 151.36 440.245126 
L 154.967273 439.879803 
L 158.574545 438.750851 
L 160.403023 436.48 
L 162.181818 435.90772 
L 165.789091 435.695257 
L 169.396364 435.231895 
L 173.003636 433.432322 
L 174.156935 432 
L 176.610909 431.383797 
L 180.218182 431.130252 
L 183.825455 430.52216 
L 187.282974 427.52 
L 187.432727 427.470229 
L 191.04 426.85258 
L 194.647273 426.544587 
L 198.254545 425.70881 
L 200.762411 423.04 
L 201.861818 422.674598 
L 205.469091 422.312068 
L 209.076364 421.929718 
L 212.683636 420.701213 
L 214.40773 418.56 
L 216.290909 417.979379 
L 219.898182 417.75949 
L 223.505455 417.271541 
L 227.112727 415.260048 
L 228.062895 414.08 
L 230.72 413.454125 
L 234.327273 413.190843 
L 237.934545 412.545251 
L 241.200739 409.6 
L 241.541818 409.48664 
L 245.149091 408.921209 
L 248.756364 408.600121 
L 252.363636 407.702543 
L 254.680118 405.12 
L 255.970909 404.690992 
L 259.578182 404.378525 
L 263.185455 403.977887 
L 266.792727 402.635377 
L 268.399395 400.64 
L 270.4 400.050795 
L 274.007273 399.823086 
L 277.614545 399.308495 
L 281.221818 397.042042 
L 281.932034 396.16 
L 284.829091 395.524138 
L 288.436364 395.250555 
L 292.043636 394.563784 
L 295.118523 391.68 
L 295.650909 391.503059 
L 299.258182 390.989448 
L 302.865455 390.654388 
L 306.472727 389.687703 
L 308.597909 387.2 
L 310.08 386.707412 
L 313.687273 386.444467 
L 317.294545 386.024202 
L 320.901818 384.550262 
L 322.375535 382.72 
L 324.509091 382.121953 
L 328.116364 381.546555 
L 330.778785 378.24 
L 331.076597 373.76 
L 331.231659 369.28 
L 331.723636 365.878912 
L 332.592371 364.8 
L 334.157594 360.32 
L 334.5843 355.84 
L 334.783421 351.36 
L 335.133087 346.88 
L 335.330909 345.793283 
L 337.390591 342.4 
L 338.055799 337.92 
L 338.321055 333.44 
L 338.463695 328.96 
L 338.938182 326.137908 
L 340.273121 324.48 
L 341.466935 320 
L 341.838398 315.52 
L 342.019535 311.04 
L 342.473078 306.56 
L 342.545455 306.162423 
L 344.765972 302.08 
L 345.325066 297.6 
L 345.562877 293.12 
L 345.735289 288.64 
L 346.152727 286.346954 
L 347.818301 284.16 
L 348.762131 279.68 
L 349.088524 275.2 
L 349.254023 270.72 
L 349.76 266.699571 
L 350.130044 266.24 
L 352.111037 261.76 
L 352.587942 257.28 
L 352.396331 252.8 
L 349.76 249.525847 
L 348.617694 248.32 
L 346.152727 245.25867 
L 344.178034 243.84 
L 342.545455 241.812441 
L 338.938182 239.594508 
L 338.719096 239.36 
L 335.330909 235.388982 
L 334.848058 234.88 
L 331.723636 230.99967 
L 331.136095 230.4 
L 328.116364 226.649688 
L 327.366166 225.92 
L 324.509091 222.371697 
L 323.471723 221.44 
L 320.901818 218.248344 
L 319.221 216.96 
L 317.294545 214.567468 
L 313.687273 212.566004 
L 313.606925 212.48 
L 310.08 208.491157 
L 309.616943 208 
L 306.472727 204.095086 
L 305.914246 203.52 
L 302.865455 199.733598 
L 299.258182 199.343412 
L 295.650909 199.31893 
L 292.043636 199.314515 
L 288.436364 199.310237 
L 284.829091 199.30609 
L 281.221818 199.302068 
L 277.614545 199.276634 
L 274.007273 199.209598 
L 270.4 199.142562 
L 266.792727 199.075516 
L 264.881847 199.04 
L 263.185455 198.554618 
L 259.578182 197.806663 
L 255.970909 197.294682 
L 252.363636 196.922155 
L 248.756364 196.63896 
L 245.149091 196.416404 
L 241.541818 196.236844 
L 237.934545 196.088994 
L 234.327273 195.965107 
L 230.72 195.85978 
L 227.112727 195.769148 
L 223.505455 195.214017 
L 219.898182 194.965871 
L 217.793782 194.56 
L 216.290909 192.693528 
L 212.683636 190.839048 
L 209.076364 190.524 
L 205.469091 190.157499 
L 205.267766 190.08 
L 201.861818 186.504266 
L 198.254545 186.090033 
L 194.647273 185.936079 
L 193.746887 185.6 
L 191.04 182.23822 
L 187.432727 181.666719 
L 183.825455 181.481807 
L 182.646018 181.12 
L 180.218182 178.104784 
L 176.610909 177.258236 
L 173.003636 177.031801 
L 171.294529 176.64 
L 169.396364 174.282601 
L 165.789091 172.871272 
L 162.181818 172.587215 
L 159.079383 172.16 
L 158.574545 171.533024 
L 154.967273 168.517277 
L 151.36 168.149669 
L 147.752727 167.940342 
L 147.076402 167.68 
L 144.145455 164.217544 
L 140.538182 163.966251 
L 136.930909 164.222391 
L 133.323636 164.735774 
L 129.716364 166.284682 
L 128.592861 167.68 
L 126.109091 168.290631 
L 122.501818 168.442954 
L 118.894545 168.696525 
L 115.287273 169.202563 
L 111.68 170.711893 
L 110.503759 172.16 
L 108.072727 172.761756 
L 104.465455 172.919677 
L 100.858182 173.170719 
L 97.250909 173.669564 
L 93.643636 175.140807 
L 92.405014 176.64 
L 90.036364 177.226314 
L 86.429091 177.396436 
L 82.821818 177.644994 
L 79.214545 178.136851 
L 75.607273 179.571485 
L 74.306403 181.12 
L 72 181.690912 
L 72 185.6 
L 72 190.08 
L 72 194.56 
L 72 199.04 
L 72 200.734905 
L 75.607273 199.841988 
L 78.847207 199.04 
L 79.214545 198.949071 
L 82.821818 198.05618 
L 86.429091 197.163249 
L 90.036364 196.270335 
L 93.643636 195.377416 
L 96.945847 194.56 
L 97.250909 194.484486 
L 100.858182 193.5916 
L 104.465455 192.698678 
L 108.072727 191.805758 
L 111.68 190.912833 
L 115.044542 190.08 
L 115.287273 190.019916 
L 118.894545 189.126992 
L 122.501818 188.234106 
L 126.109091 187.341185 
L 129.716364 186.448256 
L 133.143225 185.6 
L 133.323636 185.555343 
L 136.930909 184.662423 
L 140.538182 183.769506 
L 144.145455 182.876622 
L 147.752727 181.983707 
L 151.242031 181.12 
L 151.36 181.096769 
L 154.967273 181.075635 
L 155.082525 181.12 
L 158.574545 182.464205 
L 162.181818 183.852779 
L 165.789091 185.241344 
L 166.720821 185.6 
L 169.396364 186.629916 
L 173.003636 188.018485 
L 176.610909 189.407051 
L 178.359124 190.08 
L 180.218182 190.79562 
L 183.825455 192.184211 
L 187.432727 193.572778 
L 189.997358 194.56 
L 191.04 194.961352 
L 194.647273 196.349921 
L 198.254545 197.738493 
L 201.635631 199.04 
L 201.861818 199.127067 
L 205.469091 200.515645 
L 209.076364 201.904209 
L 212.683636 203.292774 
L 213.273934 203.52 
L 216.290909 204.681348 
L 219.898182 205.945976 
L 223.505455 206.377422 
L 227.112727 206.444461 
L 230.72 206.511499 
L 234.327273 206.578538 
L 237.934545 206.645575 
L 241.541818 206.712615 
L 245.149091 206.779667 
L 248.756364 206.846704 
L 252.363636 206.91374 
L 255.970909 206.98078 
L 259.578182 207.04782 
L 263.185455 207.114857 
L 266.792727 207.181908 
L 270.4 207.248946 
L 274.007273 207.315985 
L 277.614545 207.383025 
L 281.221818 207.450063 
L 284.829091 207.51711 
L 288.436364 207.584151 
L 292.043636 207.65119 
L 295.650909 207.873849 
L 295.854491 208 
L 299.258182 211.643299 
L 300.039861 212.48 
L 302.865455 215.504487 
L 304.22523 216.96 
L 306.472727 219.365738 
L 308.410579 221.44 
L 310.08 223.226934 
L 312.595954 225.92 
L 313.687273 227.088138 
L 316.781327 230.4 
L 317.294545 230.949351 
L 320.901818 234.810569 
L 320.966682 234.88 
L 324.509091 238.67179 
L 325.152042 239.36 
L 328.116364 242.532993 
L 329.337413 243.84 
L 331.723636 246.394199 
L 333.522784 248.32 
L 335.330909 250.304804 
L 337.61438 252.8 
L 336.944668 257.28 
L 336.129111 261.76 
L 335.330909 266.144743 
L 335.313568 266.24 
L 334.498005 270.72 
L 333.682452 275.2 
L 332.866904 279.68 
L 332.051343 284.16 
L 331.723636 285.960197 
L 331.235805 288.64 
L 330.420237 293.12 
L 329.604687 297.6 
L 328.789128 302.08 
L 328.116364 305.775625 
L 327.973572 306.56 
L 327.158012 311.04 
L 326.342465 315.52 
L 325.526908 320 
L 324.71135 324.48 
L 324.509091 325.591053 
L 323.8958 328.96 
L 323.080256 333.44 
L 322.264703 337.92 
L 321.449148 342.4 
L 320.901818 345.40661 
L 320.633597 346.88 
L 319.818034 351.36 
L 319.002483 355.84 
L 318.186925 360.32 
L 317.371367 364.8 
L 317.294545 364.953322 
L 313.687273 367.836784 
L 310.08 369.035705 
L 309.344964 369.28 
L 306.472727 370.234605 
L 302.865455 371.433498 
L 299.258182 372.632411 
L 295.865562 373.76 
L 295.650909 373.831343 
L 292.043636 375.030218 
L 288.436364 376.229122 
L 284.829091 377.428047 
L 282.386027 378.24 
L 281.221818 378.626925 
L 277.614545 379.825842 
L 274.007273 381.024742 
L 270.4 382.223642 
L 268.90657 382.72 
L 266.792727 383.422561 
L 263.185455 384.62146 
L 259.578182 385.820374 
L 255.970909 387.019288 
L 255.427178 387.2 
L 252.363636 388.218186 
L 248.756364 389.417092 
L 245.149091 390.615999 
L 241.947708 391.68 
L 241.541818 391.814901 
L 237.934545 393.013821 
L 234.327273 394.212723 
L 230.72 395.411625 
L 228.468288 396.16 
L 227.112727 396.610531 
L 223.505455 397.809438 
L 219.898182 399.008338 
L 216.290909 400.207247 
L 214.988856 400.64 
L 212.683636 401.406161 
L 209.076364 402.605055 
L 205.469091 403.803953 
L 201.861818 405.002856 
L 201.50936 405.12 
L 198.254545 406.201781 
L 194.647273 407.400679 
L 191.04 408.599577 
L 188.029946 409.6 
L 187.432727 409.798493 
L 183.825455 410.997409 
L 180.218182 412.196298 
L 176.610909 413.395209 
L 174.550533 414.08 
L 173.003636 414.594128 
L 169.396364 415.79303 
L 165.789091 416.991936 
L 162.181818 418.190845 
L 161.071094 418.56 
L 158.574545 419.389739 
L 154.967273 420.588651 
L 151.36 421.787556 
L 147.752727 422.986462 
L 147.591641 423.04 
L 144.145455 424.185364 
L 140.538182 425.38427 
L 136.930909 426.583181 
L 134.112176 427.52 
L 133.323636 427.782075 
L 129.716364 428.980997 
L 126.109091 428.424042 
L 125.614141 427.52 
L 125.436293 423.04 
L 125.25844 418.56 
L 125.080601 414.08 
L 124.902749 409.6 
L 124.724903 405.12 
L 124.54706 400.64 
L 124.369212 396.16 
L 124.191366 391.68 
L 124.013516 387.2 
L 123.835671 382.72 
L 123.657824 378.24 
L 123.479973 373.76 
L 123.302127 369.28 
L 123.124284 364.8 
L 122.946431 360.32 
L 122.768588 355.84 
L 122.590745 351.36 
L 122.501818 349.119962 
L 122.412895 346.88 
L 122.235052 342.4 
L 122.01675 337.92 
L 120.0817 333.44 
L 118.894545 332.711504 
L 115.287273 330.497894 
L 112.781126 328.96 
L 111.68 328.284297 
L 108.072727 326.070703 
L 105.493064 324.48 
L 104.465455 323.699531 
L 100.858182 320.713125 
L 99.996799 320 
L 97.250909 317.726725 
L 94.585435 315.52 
L 93.643636 314.740294 
L 90.036364 311.75387 
L 89.174084 311.04 
L 86.429091 308.76747 
L 83.762706 306.56 
L 82.821818 305.781051 
L 79.214545 302.794631 
L 78.351345 302.08 
L 75.607273 299.808219 
L 72.939991 297.6 
L 72 296.821796 
L 72 297.6 
L 72 302.08 
L 72 306.56 
L 72 311.04 
L 72 315.52 
L 72 320 
L 72 324.48 
L 72 328.96 
L 72 333.44 
L 72 337.92 
L 72 339.511431 
L 75.607273 341.137985 
L 78.006887 342.4 
L 79.214545 343.899833 
L 82.821818 345.600803 
L 85.300038 346.88 
L 86.429091 348.282211 
L 90.036364 350.063151 
L 92.598536 351.36 
L 93.643636 352.657947 
L 97.250909 354.524996 
L 99.902873 355.84 
L 100.858182 357.026432 
L 102.790295 360.32 
L 103.148931 364.8 
L 103.671052 369.28 
L 104.465455 373.608954 
L 104.47145 373.76 
L 104.649301 378.24 
L 104.827146 382.72 
L 105.005 387.2 
L 105.09286 391.68 
L 105.126461 396.16 
L 105.163871 400.64 
L 105.205767 405.12 
L 105.253008 409.6 
L 105.306691 414.08 
L 105.368233 418.56 
L 105.439475 423.04 
L 105.522936 427.52 
L 105.622044 432 
L 105.741637 436.48 
L 105.888826 440.96 
L 106.074394 445.44 
L 106.315589 449.92 
z
" style="fill:#e7745b;"/>
   </g>
   <g id="PathCollection_9">
    <path clip-path="url(#p33d80d419e)" d="M 75.607273 512.64 
L 79.214545 512.64 
L 82.821818 512.64 
L 86.429091 512.64 
L 90.036364 512.64 
L 93.643636 512.64 
L 97.250909 512.64 
L 100.858182 512.64 
L 104.465455 512.64 
L 108.072727 512.64 
L 111.68 512.64 
L 115.287273 512.64 
L 118.894545 512.64 
L 122.501818 512.64 
L 126.109091 512.64 
L 129.716364 512.64 
L 133.323636 512.64 
L 136.930909 512.64 
L 140.538182 512.64 
L 144.145455 512.64 
L 147.752727 512.64 
L 151.36 512.64 
L 154.967273 512.64 
L 158.574545 512.64 
L 162.181818 512.64 
L 165.789091 512.64 
L 169.396364 512.64 
L 173.003636 512.64 
L 176.610909 512.64 
L 180.218182 512.64 
L 183.825455 512.64 
L 187.432727 512.64 
L 191.04 512.64 
L 194.647273 512.64 
L 198.254545 512.64 
L 201.861818 512.64 
L 205.469091 512.64 
L 209.076364 512.64 
L 212.683636 512.64 
L 216.290909 512.64 
L 219.898182 512.64 
L 223.505455 512.64 
L 227.112727 512.64 
L 230.72 512.64 
L 234.327273 512.64 
L 237.934545 512.64 
L 241.541818 512.64 
L 245.149091 512.64 
L 248.756364 512.64 
L 252.363636 512.64 
L 255.970909 512.64 
L 259.578182 512.64 
L 263.185455 512.64 
L 266.792727 512.64 
L 270.4 512.64 
L 274.007273 512.64 
L 277.614545 512.64 
L 281.221818 512.64 
L 284.829091 512.64 
L 288.436364 512.64 
L 292.043636 512.64 
L 295.650909 512.64 
L 299.258182 512.64 
L 302.865455 512.64 
L 306.472727 512.64 
L 310.08 512.64 
L 313.687273 512.64 
L 317.294545 512.64 
L 320.901818 512.64 
L 324.509091 512.64 
L 328.116364 512.64 
L 331.723636 512.64 
L 335.330909 512.64 
L 338.938182 512.64 
L 342.545455 512.64 
L 346.152727 512.64 
L 349.76 512.64 
L 353.367273 512.64 
L 356.974545 512.64 
L 360.581818 512.64 
L 364.189091 512.64 
L 367.796364 512.64 
L 371.403636 512.64 
L 375.010909 512.64 
L 378.618182 512.64 
L 382.225455 512.64 
L 385.832727 512.64 
L 389.44 512.64 
L 393.047273 512.64 
L 396.654545 512.64 
L 400.261818 512.64 
L 403.869091 512.64 
L 407.476364 512.64 
L 411.083636 512.64 
L 414.690909 512.64 
L 418.298182 512.64 
L 421.905455 512.64 
L 425.512727 512.64 
L 429.12 512.64 
L 429.12 508.16 
L 429.12 503.68 
L 429.12 499.2 
L 429.12 494.72 
L 429.12 490.24 
L 429.12 485.76 
L 429.12 481.28 
L 429.12 476.8 
L 429.12 472.32 
L 429.12 467.84 
L 429.12 463.36 
L 429.12 458.88 
L 429.12 454.4 
L 429.12 449.92 
L 429.12 445.44 
L 429.12 440.96 
L 429.12 436.48 
L 429.12 432 
L 429.12 427.52 
L 429.12 423.04 
L 429.12 418.56 
L 429.12 414.08 
L 429.12 409.6 
L 429.12 405.12 
L 429.12 400.64 
L 429.12 396.16 
L 429.12 391.68 
L 429.12 387.2 
L 429.12 382.72 
L 429.12 378.24 
L 429.12 373.76 
L 429.12 369.28 
L 429.12 364.8 
L 429.12 360.32 
L 429.12 355.84 
L 429.12 351.36 
L 429.12 346.88 
L 429.12 342.4 
L 429.12 337.92 
L 429.12 333.44 
L 429.12 328.96 
L 429.12 324.48 
L 429.12 320 
L 429.12 315.52 
L 429.12 311.04 
L 429.12 306.56 
L 429.12 302.08 
L 429.12 297.6 
L 429.12 293.12 
L 429.12 288.64 
L 429.12 284.16 
L 429.12 279.68 
L 429.12 275.2 
L 429.12 270.72 
L 429.12 266.24 
L 429.12 261.76 
L 429.12 257.28 
L 429.12 252.8 
L 429.12 248.32 
L 429.12 243.84 
L 429.12 239.36 
L 429.12 234.88 
L 429.12 230.4 
L 429.12 225.92 
L 429.12 221.44 
L 429.12 216.96 
L 429.12 212.48 
L 429.12 208 
L 429.12 203.52 
L 429.12 199.04 
L 429.12 194.56 
L 429.12 190.08 
L 429.12 185.6 
L 429.12 181.12 
L 429.12 176.64 
L 429.12 172.16 
L 429.12 167.68 
L 429.12 163.2 
L 429.12 158.72 
L 429.12 154.24 
L 429.12 149.76 
L 429.12 145.28 
L 429.12 140.8 
L 429.12 136.32 
L 429.12 131.84 
L 429.12 127.36 
L 429.12 122.88 
L 429.12 118.4 
L 429.12 113.92 
L 429.12 109.44 
L 429.12 104.96 
L 429.12 100.48 
L 429.12 96 
L 429.12 91.52 
L 429.12 87.04 
L 429.12 82.56 
L 429.12 78.08 
L 429.12 73.6 
L 429.12 69.12 
L 425.512727 69.12 
L 421.905455 69.12 
L 418.298182 69.12 
L 414.690909 69.12 
L 411.083636 69.12 
L 407.476364 69.12 
L 403.869091 69.12 
L 400.261818 69.12 
L 396.654545 69.12 
L 393.047273 69.12 
L 389.44 69.12 
L 385.832727 69.12 
L 382.225455 69.12 
L 378.618182 69.12 
L 375.010909 69.12 
L 371.403636 69.12 
L 367.796364 69.12 
L 364.189091 69.12 
L 360.581818 69.12 
L 356.974545 69.12 
L 353.367273 69.12 
L 349.76 69.12 
L 346.152727 69.12 
L 342.545455 69.12 
L 338.938182 69.12 
L 335.330909 69.12 
L 331.723636 69.12 
L 328.116364 69.12 
L 324.509091 69.12 
L 320.901818 69.12 
L 317.294545 69.12 
L 313.687273 69.12 
L 310.08 69.12 
L 306.472727 69.12 
L 302.865455 69.12 
L 299.258182 69.12 
L 295.650909 69.12 
L 292.043636 69.12 
L 288.436364 69.12 
L 284.829091 69.12 
L 281.221818 69.12 
L 277.614545 69.12 
L 274.007273 69.12 
L 270.4 69.12 
L 266.792727 69.12 
L 263.185455 69.12 
L 259.578182 69.12 
L 255.970909 69.12 
L 252.363636 69.12 
L 248.756364 69.12 
L 245.149091 69.12 
L 241.541818 69.12 
L 237.934545 69.12 
L 234.327273 69.12 
L 230.72 69.12 
L 227.112727 69.12 
L 223.505455 69.12 
L 219.898182 69.12 
L 216.290909 69.12 
L 212.683636 69.12 
L 209.076364 69.12 
L 205.469091 69.12 
L 201.861818 69.12 
L 198.254545 69.12 
L 194.647273 69.12 
L 191.04 69.12 
L 187.432727 69.12 
L 183.825455 69.12 
L 180.218182 69.12 
L 176.610909 69.12 
L 173.003636 69.12 
L 169.396364 69.12 
L 165.789091 69.12 
L 162.181818 69.12 
L 158.574545 69.12 
L 154.967273 69.12 
L 151.36 69.12 
L 147.752727 69.12 
L 144.145455 69.12 
L 140.538182 69.12 
L 136.930909 69.12 
L 133.323636 69.12 
L 129.716364 69.12 
L 126.109091 69.12 
L 122.501818 69.12 
L 118.894545 69.12 
L 115.287273 69.12 
L 111.68 69.12 
L 108.072727 69.12 
L 104.465455 69.12 
L 100.858182 69.12 
L 97.250909 69.12 
L 93.643636 69.12 
L 90.036364 69.12 
L 86.429091 69.12 
L 82.821818 69.12 
L 79.214545 69.12 
L 75.607273 69.12 
L 72 69.12 
L 72 73.6 
L 72 78.08 
L 72 82.56 
L 72 87.04 
L 72 91.52 
L 72 96 
L 72 100.48 
L 72 104.96 
L 72 109.44 
L 72 113.92 
L 72 118.4 
L 72 122.88 
L 72 127.36 
L 72 131.84 
L 72 136.32 
L 72 140.8 
L 72 145.28 
L 72 149.76 
L 72 154.24 
L 72 158.72 
L 72 163.2 
L 72 167.68 
L 72 172.16 
L 72 176.64 
L 72 181.12 
L 72 181.690912 
L 74.306403 181.12 
L 75.607273 179.571485 
L 79.214545 178.136851 
L 82.821818 177.644994 
L 86.429091 177.396436 
L 90.036364 177.226314 
L 92.405014 176.64 
L 93.643636 175.140807 
L 97.250909 173.669564 
L 100.858182 173.170719 
L 104.465455 172.919677 
L 108.072727 172.761756 
L 110.503759 172.16 
L 111.68 170.711893 
L 115.287273 169.202563 
L 118.894545 168.696525 
L 122.501818 168.442954 
L 126.109091 168.290631 
L 128.592861 167.68 
L 129.716364 166.284682 
L 133.323636 164.735774 
L 136.930909 164.222391 
L 140.538182 163.966251 
L 144.145455 164.217544 
L 147.076402 167.68 
L 147.752727 167.940342 
L 151.36 168.149669 
L 154.967273 168.517277 
L 158.574545 171.533024 
L 159.079383 172.16 
L 162.181818 172.587215 
L 165.789091 172.871272 
L 169.396364 174.282601 
L 171.294529 176.64 
L 173.003636 177.031801 
L 176.610909 177.258236 
L 180.218182 178.104784 
L 182.646018 181.12 
L 183.825455 181.481807 
L 187.432727 181.666719 
L 191.04 182.23822 
L 193.746887 185.6 
L 194.647273 185.936079 
L 198.254545 186.090033 
L 201.861818 186.504266 
L 205.267766 190.08 
L 205.469091 190.157499 
L 209.076364 190.524 
L 212.683636 190.839048 
L 216.290909 192.693528 
L 217.793782 194.56 
L 219.898182 194.965871 
L 223.505455 195.214017 
L 227.112727 195.769148 
L 230.72 195.85978 
L 234.327273 195.965107 
L 237.934545 196.088994 
L 241.541818 196.236844 
L 245.149091 196.416404 
L 248.756364 196.63896 
L 252.363636 196.922155 
L 255.970909 197.294682 
L 259.578182 197.806663 
L 263.185455 198.554618 
L 264.881847 199.04 
L 266.792727 199.075516 
L 270.4 199.142562 
L 274.007273 199.209598 
L 277.614545 199.276634 
L 281.221818 199.302068 
L 284.829091 199.30609 
L 288.436364 199.310237 
L 292.043636 199.314515 
L 295.650909 199.31893 
L 299.258182 199.343412 
L 302.865455 199.733598 
L 305.914246 203.52 
L 306.472727 204.095086 
L 309.616943 208 
L 310.08 208.491157 
L 313.606925 212.48 
L 313.687273 212.566004 
L 317.294545 214.567468 
L 319.221 216.96 
L 320.901818 218.248344 
L 323.471723 221.44 
L 324.509091 222.371697 
L 327.366166 225.92 
L 328.116364 226.649688 
L 331.136095 230.4 
L 331.723636 230.99967 
L 334.848058 234.88 
L 335.330909 235.388982 
L 338.719096 239.36 
L 338.938182 239.594508 
L 342.545455 241.812441 
L 344.178034 243.84 
L 346.152727 245.25867 
L 348.617694 248.32 
L 349.76 249.525847 
L 352.396331 252.8 
L 352.587942 257.28 
L 352.111037 261.76 
L 350.130044 266.24 
L 349.76 266.699571 
L 349.254023 270.72 
L 349.088524 275.2 
L 348.762131 279.68 
L 347.818301 284.16 
L 346.152727 286.346954 
L 345.735289 288.64 
L 345.562877 293.12 
L 345.325066 297.6 
L 344.765972 302.08 
L 342.545455 306.162423 
L 342.473078 306.56 
L 342.019535 311.04 
L 341.838398 315.52 
L 341.466935 320 
L 340.273121 324.48 
L 338.938182 326.137908 
L 338.463695 328.96 
L 338.321055 333.44 
L 338.055799 337.92 
L 337.390591 342.4 
L 335.330909 345.793283 
L 335.133087 346.88 
L 334.783421 351.36 
L 334.5843 355.84 
L 334.157594 360.32 
L 332.592371 364.8 
L 331.723636 365.878912 
L 331.231659 369.28 
L 331.076597 373.76 
L 330.778785 378.24 
L 328.116364 381.546555 
L 324.509091 382.121953 
L 322.375535 382.72 
L 320.901818 384.550262 
L 317.294545 386.024202 
L 313.687273 386.444467 
L 310.08 386.707412 
L 308.597909 387.2 
L 306.472727 389.687703 
L 302.865455 390.654388 
L 299.258182 390.989448 
L 295.650909 391.503059 
L 295.118523 391.68 
L 292.043636 394.563784 
L 288.436364 395.250555 
L 284.829091 395.524138 
L 281.932034 396.16 
L 281.221818 397.042042 
L 277.614545 399.308495 
L 274.007273 399.823086 
L 270.4 400.050795 
L 268.399395 400.64 
L 266.792727 402.635377 
L 263.185455 403.977887 
L 259.578182 404.378525 
L 255.970909 404.690992 
L 254.680118 405.12 
L 252.363636 407.702543 
L 248.756364 408.600121 
L 245.149091 408.921209 
L 241.541818 409.48664 
L 241.200739 409.6 
L 237.934545 412.545251 
L 234.327273 413.190843 
L 230.72 413.454125 
L 228.062895 414.08 
L 227.112727 415.260048 
L 223.505455 417.271541 
L 219.898182 417.75949 
L 216.290909 417.979379 
L 214.40773 418.56 
L 212.683636 420.701213 
L 209.076364 421.929718 
L 205.469091 422.312068 
L 201.861818 422.674598 
L 200.762411 423.04 
L 198.254545 425.70881 
L 194.647273 426.544587 
L 191.04 426.85258 
L 187.432727 427.470229 
L 187.282974 427.52 
L 183.825455 430.52216 
L 180.218182 431.130252 
L 176.610909 431.383797 
L 174.156935 432 
L 173.003636 433.432322 
L 169.396364 435.231895 
L 165.789091 435.695257 
L 162.181818 435.90772 
L 160.403023 436.48 
L 158.574545 438.750851 
L 154.967273 439.879803 
L 151.36 440.245126 
L 147.752727 440.658185 
L 146.844628 440.96 
L 144.145455 443.707532 
L 140.538182 444.487894 
L 136.930909 444.783573 
L 133.409649 445.44 
L 133.323636 445.546822 
L 129.716364 448.495005 
L 126.109091 449.068827 
L 122.501818 449.313181 
L 120.222157 449.92 
L 118.894545 451.568808 
L 115.287273 453.18979 
L 111.68 453.630414 
L 108.072727 452.125882 
L 106.315589 449.92 
L 106.074394 445.44 
L 105.888826 440.96 
L 105.741637 436.48 
L 105.622044 432 
L 105.522936 427.52 
L 105.439475 423.04 
L 105.368233 418.56 
L 105.306691 414.08 
L 105.253008 409.6 
L 105.205767 405.12 
L 105.163871 400.64 
L 105.126461 396.16 
L 105.09286 391.68 
L 105.005 387.2 
L 104.827146 382.72 
L 104.649301 378.24 
L 104.47145 373.76 
L 104.465455 373.608954 
L 103.671052 369.28 
L 103.148931 364.8 
L 102.790295 360.32 
L 100.858182 357.026432 
L 99.902873 355.84 
L 97.250909 354.524996 
L 93.643636 352.657947 
L 92.598536 351.36 
L 90.036364 350.063151 
L 86.429091 348.282211 
L 85.300038 346.88 
L 82.821818 345.600803 
L 79.214545 343.899833 
L 78.006887 342.4 
L 75.607273 341.137985 
L 72 339.511431 
L 72 342.4 
L 72 346.88 
L 72 351.36 
L 72 355.84 
L 72 360.32 
L 72 364.8 
L 72 369.28 
L 72 373.76 
L 72 378.24 
L 72 382.72 
L 72 387.2 
L 72 391.68 
L 72 396.16 
L 72 400.64 
L 72 405.12 
L 72 409.6 
L 72 414.08 
L 72 418.56 
L 72 423.04 
L 72 427.52 
L 72 432 
L 72 436.48 
L 72 440.96 
L 72 445.44 
L 72 449.92 
L 72 454.4 
L 72 458.88 
L 72 463.36 
L 72 467.84 
L 72 472.32 
L 72 476.8 
L 72 481.28 
L 72 485.76 
L 72 490.24 
L 72 494.72 
L 72 499.2 
L 72 503.68 
L 72 508.16 
L 72 512.64 
z
" style="fill:#c83836;"/>
   </g>
   <g id="matplotlib.axis_1">
    <g id="xtick_1">
     <g id="line2d_1">
      <defs>
       <path d="M 0 0 
L 0 3.5 
" id="mec3a6709c7" style="stroke:#000000;stroke-width:0.8;"/>
      </defs>
      <g>
       <use style="stroke:#000000;stroke-width:0.8;" x="72" xlink:href="#mec3a6709c7" y="512.64"/>
      </g>
     </g>
     <g id="text_1">
      <!-- 0.50 -->
      <defs>
       <path d="M 10.59375 35.5 
L 73.1875 35.5 
L 73.1875 27.203125 
L 10.59375 27.203125 
z
" id="DejaVuSans-8722"/>
       <path d="M 31.78125 66.40625 
Q 24.171875 66.40625 20.328125 58.90625 
Q 16.5 51.421875 16.5 36.375 
Q 16.5 21.390625 20.328125 13.890625 
Q 24.171875 6.390625 31.78125 6.390625 
Q 39.453125 6.390625 43.28125 13.890625 
Q 47.125 21.390625 47.125 36.375 
Q 47.125 51.421875 43.28125 58.90625 
Q 39.453125 66.40625 31.78125 66.40625 
z
M 31.78125 74.21875 
Q 44.046875 74.21875 50.515625 64.515625 
Q 56.984375 54.828125 56.984375 36.375 
Q 56.984375 17.96875 50.515625 8.265625 
Q 44.046875 -1.421875 31.78125 -1.421875 
Q 19.53125 -1.421875 13.0625 8.265625 
Q 6.59375 17.96875 6.59375 36.375 
Q 6.59375 54.828125 13.0625 64.515625 
Q 19.53125 74.21875 31.78125 74.21875 
z
" id="DejaVuSans-48"/>
       <path d="M 10.6875 12.40625 
L 21 12.40625 
L 21 0 
L 10.6875 0 
z
" id="DejaVuSans-46"/>
       <path d="M 10.796875 72.90625 
L 49.515625 72.90625 
L 49.515625 64.59375 
L 19.828125 64.59375 
L 19.828125 46.734375 
Q 21.96875 47.46875 24.109375 47.828125 
Q 26.265625 48.1875 28.421875 48.1875 
Q 40.625 48.1875 47.75 41.5 
Q 54.890625 34.8125 54.890625 23.390625 
Q 54.890625 11.625 47.5625 5.09375 
Q 40.234375 -1.421875 26.90625 -1.421875 
Q 22.3125 -1.421875 17.546875 -0.640625 
Q 12.796875 0.140625 7.71875 1.703125 
L 7.71875 11.625 
Q 12.109375 9.234375 16.796875 8.0625 
Q 21.484375 6.890625 26.703125 6.890625 
Q 35.15625 6.890625 40.078125 11.328125 
Q 45.015625 15.765625 45.015625 23.390625 
Q 45.015625 31 40.078125 35.4375 
Q 35.15625 39.890625 26.703125 39.890625 
Q 22.75 39.890625 18.8125 39.015625 
Q 14.890625 38.140625 10.796875 36.28125 
z
" id="DejaVuSans-53"/>
      </defs>
      <g transform="translate(56.677344 527.238438)scale(0.1 -0.1)">
       <use xlink:href="#DejaVuSans-8722"/>
       <use x="83.789062" xlink:href="#DejaVuSans-48"/>
       <use x="147.412109" xlink:href="#DejaVuSans-46"/>
       <use x="179.199219" xlink:href="#DejaVuSans-53"/>
       <use x="242.822266" xlink:href="#DejaVuSans-48"/>
      </g>
     </g>
    </g>
    <g id="xtick_2">
     <g id="line2d_2">
      <g>
       <use style="stroke:#000000;stroke-width:0.8;" x="116.64" xlink:href="#mec3a6709c7" y="512.64"/>
      </g>
     </g>
     <g id="text_2">
      <!-- 0.25 -->
      <defs>
       <path d="M 19.1875 8.296875 
L 53.609375 8.296875 
L 53.609375 0 
L 7.328125 0 
L 7.328125 8.296875 
Q 12.9375 14.109375 22.625 23.890625 
Q 32.328125 33.6875 34.8125 36.53125 
Q 39.546875 41.84375 41.421875 45.53125 
Q 43.3125 49.21875 43.3125 52.78125 
Q 43.3125 58.59375 39.234375 62.25 
Q 35.15625 65.921875 28.609375 65.921875 
Q 23.96875 65.921875 18.8125 64.3125 
Q 13.671875 62.703125 7.8125 59.421875 
L 7.8125 69.390625 
Q 13.765625 71.78125 18.9375 73 
Q 24.125 74.21875 28.421875 74.21875 
Q 39.75 74.21875 46.484375 68.546875 
Q 53.21875 62.890625 53.21875 53.421875 
Q 53.21875 48.921875 51.53125 44.890625 
Q 49.859375 40.875 45.40625 35.40625 
Q 44.1875 33.984375 37.640625 27.21875 
Q 31.109375 20.453125 19.1875 8.296875 
z
" id="DejaVuSans-50"/>
      </defs>
      <g transform="translate(101.317344 527.238438)scale(0.1 -0.1)">
       <use xlink:href="#DejaVuSans-8722"/>
       <use x="83.789062" xlink:href="#DejaVuSans-48"/>
       <use x="147.412109" xlink:href="#DejaVuSans-46"/>
       <use x="179.199219" xlink:href="#DejaVuSans-50"/>
       <use x="242.822266" xlink:href="#DejaVuSans-53"/>
      </g>
     </g>
    </g>
    <g id="xtick_3">
     <g id="line2d_3">
      <g>
       <use style="stroke:#000000;stroke-width:0.8;" x="161.28" xlink:href="#mec3a6709c7" y="512.64"/>
      </g>
     </g>
     <g id="text_3">
      <!-- 0.00 -->
      <g transform="translate(150.147188 527.238438)scale(0.1 -0.1)">
       <use xlink:href="#DejaVuSans-48"/>
       <use x="63.623047" xlink:href="#DejaVuSans-46"/>
       <use x="95.410156" xlink:href="#DejaVuSans-48"/>
       <use x="159.033203" xlink:href="#DejaVuSans-48"/>
      </g>
     </g>
    </g>
    <g id="xtick_4">
     <g id="line2d_4">
      <g>
       <use style="stroke:#000000;stroke-width:0.8;" x="205.92" xlink:href="#mec3a6709c7" y="512.64"/>
      </g>
     </g>
     <g id="text_4">
      <!-- 0.25 -->
      <g transform="translate(194.787188 527.238438)scale(0.1 -0.1)">
       <use xlink:href="#DejaVuSans-48"/>
       <use x="63.623047" xlink:href="#DejaVuSans-46"/>
       <use x="95.410156" xlink:href="#DejaVuSans-50"/>
       <use x="159.033203" xlink:href="#DejaVuSans-53"/>
      </g>
     </g>
    </g>
    <g id="xtick_5">
     <g id="line2d_5">
      <g>
       <use style="stroke:#000000;stroke-width:0.8;" x="250.56" xlink:href="#mec3a6709c7" y="512.64"/>
      </g>
     </g>
     <g id="text_5">
      <!-- 0.50 -->
      <g transform="translate(239.427188 527.238438)scale(0.1 -0.1)">
       <use xlink:href="#DejaVuSans-48"/>
       <use x="63.623047" xlink:href="#DejaVuSans-46"/>
       <use x="95.410156" xlink:href="#DejaVuSans-53"/>
       <use x="159.033203" xlink:href="#DejaVuSans-48"/>
      </g>
     </g>
    </g>
    <g id="xtick_6">
     <g id="line2d_6">
      <g>
       <use style="stroke:#000000;stroke-width:0.8;" x="295.2" xlink:href="#mec3a6709c7" y="512.64"/>
      </g>
     </g>
     <g id="text_6">
      <!-- 0.75 -->
      <defs>
       <path d="M 8.203125 72.90625 
L 55.078125 72.90625 
L 55.078125 68.703125 
L 28.609375 0 
L 18.3125 0 
L 43.21875 64.59375 
L 8.203125 64.59375 
z
" id="DejaVuSans-55"/>
      </defs>
      <g transform="translate(284.067188 527.238438)scale(0.1 -0.1)">
       <use xlink:href="#DejaVuSans-48"/>
       <use x="63.623047" xlink:href="#DejaVuSans-46"/>
       <use x="95.410156" xlink:href="#DejaVuSans-55"/>
       <use x="159.033203" xlink:href="#DejaVuSans-53"/>
      </g>
     </g>
    </g>
    <g id="xtick_7">
     <g id="line2d_7">
      <g>
       <use style="stroke:#000000;stroke-width:0.8;" x="339.84" xlink:href="#mec3a6709c7" y="512.64"/>
      </g>
     </g>
     <g id="text_7">
      <!-- 1.00 -->
      <defs>
       <path d="M 12.40625 8.296875 
L 28.515625 8.296875 
L 28.515625 63.921875 
L 10.984375 60.40625 
L 10.984375 69.390625 
L 28.421875 72.90625 
L 38.28125 72.90625 
L 38.28125 8.296875 
L 54.390625 8.296875 
L 54.390625 0 
L 12.40625 0 
z
" id="DejaVuSans-49"/>
      </defs>
      <g transform="translate(328.707188 527.238438)scale(0.1 -0.1)">
       <use xlink:href="#DejaVuSans-49"/>
       <use x="63.623047" xlink:href="#DejaVuSans-46"/>
       <use x="95.410156" xlink:href="#DejaVuSans-48"/>
       <use x="159.033203" xlink:href="#DejaVuSans-48"/>
      </g>
     </g>
    </g>
    <g id="xtick_8">
     <g id="line2d_8">
      <g>
       <use style="stroke:#000000;stroke-width:0.8;" x="384.48" xlink:href="#mec3a6709c7" y="512.64"/>
      </g>
     </g>
     <g id="text_8">
      <!-- 1.25 -->
      <g transform="translate(373.347188 527.238438)scale(0.1 -0.1)">
       <use xlink:href="#DejaVuSans-49"/>
       <use x="63.623047" xlink:href="#DejaVuSans-46"/>
       <use x="95.410156" xlink:href="#DejaVuSans-50"/>
       <use x="159.033203" xlink:href="#DejaVuSans-53"/>
      </g>
     </g>
    </g>
    <g id="xtick_9">
     <g id="line2d_9">
      <g>
       <use style="stroke:#000000;stroke-width:0.8;" x="429.12" xlink:href="#mec3a6709c7" y="512.64"/>
      </g>
     </g>
     <g id="text_9">
      <!-- 1.50 -->
      <g transform="translate(417.987188 527.238438)scale(0.1 -0.1)">
       <use xlink:href="#DejaVuSans-49"/>
       <use x="63.623047" xlink:href="#DejaVuSans-46"/>
       <use x="95.410156" xlink:href="#DejaVuSans-53"/>
       <use x="159.033203" xlink:href="#DejaVuSans-48"/>
      </g>
     </g>
    </g>
   </g>
   <g id="matplotlib.axis_2">
    <g id="ytick_1">
     <g id="line2d_10">
      <defs>
       <path d="M 0 0 
L -3.5 0 
" id="mf805abbd86" style="stroke:#000000;stroke-width:0.8;"/>
      </defs>
      <g>
       <use style="stroke:#000000;stroke-width:0.8;" x="72" xlink:href="#mf805abbd86" y="512.64"/>
      </g>
     </g>
     <g id="text_10">
      <!-- 0.50 -->
      <g transform="translate(34.354687 516.439219)scale(0.1 -0.1)">
       <use xlink:href="#DejaVuSans-8722"/>
       <use x="83.789062" xlink:href="#DejaVuSans-48"/>
       <use x="147.412109" xlink:href="#DejaVuSans-46"/>
       <use x="179.199219" xlink:href="#DejaVuSans-53"/>
       <use x="242.822266" xlink:href="#DejaVuSans-48"/>
      </g>
     </g>
    </g>
    <g id="ytick_2">
     <g id="line2d_11">
      <g>
       <use style="stroke:#000000;stroke-width:0.8;" x="72" xlink:href="#mf805abbd86" y="457.2"/>
      </g>
     </g>
     <g id="text_11">
      <!-- 0.25 -->
      <g transform="translate(34.354687 460.999219)scale(0.1 -0.1)">
       <use xlink:href="#DejaVuSans-8722"/>
       <use x="83.789062" xlink:href="#DejaVuSans-48"/>
       <use x="147.412109" xlink:href="#DejaVuSans-46"/>
       <use x="179.199219" xlink:href="#DejaVuSans-50"/>
       <use x="242.822266" xlink:href="#DejaVuSans-53"/>
      </g>
     </g>
    </g>
    <g id="ytick_3">
     <g id="line2d_12">
      <g>
       <use style="stroke:#000000;stroke-width:0.8;" x="72" xlink:href="#mf805abbd86" y="401.76"/>
      </g>
     </g>
     <g id="text_12">
      <!-- 0.00 -->
      <g transform="translate(42.734375 405.559219)scale(0.1 -0.1)">
       <use xlink:href="#DejaVuSans-48"/>
       <use x="63.623047" xlink:href="#DejaVuSans-46"/>
       <use x="95.410156" xlink:href="#DejaVuSans-48"/>
       <use x="159.033203" xlink:href="#DejaVuSans-48"/>
      </g>
     </g>
    </g>
    <g id="ytick_4">
     <g id="line2d_13">
      <g>
       <use style="stroke:#000000;stroke-width:0.8;" x="72" xlink:href="#mf805abbd86" y="346.32"/>
      </g>
     </g>
     <g id="text_13">
      <!-- 0.25 -->
      <g transform="translate(42.734375 350.119219)scale(0.1 -0.1)">
       <use xlink:href="#DejaVuSans-48"/>
       <use x="63.623047" xlink:href="#DejaVuSans-46"/>
       <use x="95.410156" xlink:href="#DejaVuSans-50"/>
       <use x="159.033203" xlink:href="#DejaVuSans-53"/>
      </g>
     </g>
    </g>
    <g id="ytick_5">
     <g id="line2d_14">
      <g>
       <use style="stroke:#000000;stroke-width:0.8;" x="72" xlink:href="#mf805abbd86" y="290.88"/>
      </g>
     </g>
     <g id="text_14">
      <!-- 0.50 -->
      <g transform="translate(42.734375 294.679219)scale(0.1 -0.1)">
       <use xlink:href="#DejaVuSans-48"/>
       <use x="63.623047" xlink:href="#DejaVuSans-46"/>
       <use x="95.410156" xlink:href="#DejaVuSans-53"/>
       <use x="159.033203" xlink:href="#DejaVuSans-48"/>
      </g>
     </g>
    </g>
    <g id="ytick_6">
     <g id="line2d_15">
      <g>
       <use style="stroke:#000000;stroke-width:0.8;" x="72" xlink:href="#mf805abbd86" y="235.44"/>
      </g>
     </g>
     <g id="text_15">
      <!-- 0.75 -->
      <g transform="translate(42.734375 239.239219)scale(0.1 -0.1)">
       <use xlink:href="#DejaVuSans-48"/>
       <use x="63.623047" xlink:href="#DejaVuSans-46"/>
       <use x="95.410156" xlink:href="#DejaVuSans-55"/>
       <use x="159.033203" xlink:href="#DejaVuSans-53"/>
      </g>
     </g>
    </g>
    <g id="ytick_7">
     <g id="line2d_16">
      <g>
       <use style="stroke:#000000;stroke-width:0.8;" x="72" xlink:href="#mf805abbd86" y="180"/>
      </g>
     </g>
     <g id="text_16">
      <!-- 1.00 -->
      <g transform="translate(42.734375 183.799219)scale(0.1 -0.1)">
       <use xlink:href="#DejaVuSans-49"/>
       <use x="63.623047" xlink:href="#DejaVuSans-46"/>
       <use x="95.410156" xlink:href="#DejaVuSans-48"/>
       <use x="159.033203" xlink:href="#DejaVuSans-48"/>
      </g>
     </g>
    </g>
    <g id="ytick_8">
     <g id="line2d_17">
      <g>
       <use style="stroke:#000000;stroke-width:0.8;" x="72" xlink:href="#mf805abbd86" y="124.56"/>
      </g>
     </g>
     <g id="text_17">
      <!-- 1.25 -->
      <g transform="translate(42.734375 128.359219)scale(0.1 -0.1)">
       <use xlink:href="#DejaVuSans-49"/>
       <use x="63.623047" xlink:href="#DejaVuSans-46"/>
       <use x="95.410156" xlink:href="#DejaVuSans-50"/>
       <use x="159.033203" xlink:href="#DejaVuSans-53"/>
      </g>
     </g>
    </g>
    <g id="ytick_9">
     <g id="line2d_18">
      <g>
       <use style="stroke:#000000;stroke-width:0.8;" x="72" xlink:href="#mf805abbd86" y="69.12"/>
      </g>
     </g>
     <g id="text_18">
      <!-- 1.50 -->
      <g transform="translate(42.734375 72.919219)scale(0.1 -0.1)">
       <use xlink:href="#DejaVuSans-49"/>
       <use x="63.623047" xlink:href="#DejaVuSans-46"/>
       <use x="95.410156" xlink:href="#DejaVuSans-53"/>
       <use x="159.033203" xlink:href="#DejaVuSans-48"/>
      </g>
     </g>
    </g>
   </g>
   <g id="patch_3">
    <path d="M 72 512.64 
L 72 69.12 
" style="fill:none;stroke:#000000;stroke-linecap:square;stroke-linejoin:miter;stroke-width:0.8;"/>
   </g>
   <g id="patch_4">
    <path d="M 429.12 512.64 
L 429.12 69.12 
" style="fill:none;stroke:#000000;stroke-linecap:square;stroke-linejoin:miter;stroke-width:0.8;"/>
   </g>
   <g id="patch_5">
    <path d="M 72 512.64 
L 429.12 512.64 
" style="fill:none;stroke:#000000;stroke-linecap:square;stroke-linejoin:miter;stroke-width:0.8;"/>
   </g>
   <g id="patch_6">
    <path d="M 72 69.12 
L 429.12 69.12 
" style="fill:none;stroke:#000000;stroke-linecap:square;stroke-linejoin:miter;stroke-width:0.8;"/>
   </g>
  </g>
  <g id="axes_2">
   <g id="patch_7">
    <path clip-path="url(#pa1f0dae3c6)" d="M 451.44 512.64 
L 451.44 463.36 
L 451.44 118.4 
L 451.44 69.12 
L 473.616 69.12 
L 473.616 118.4 
L 473.616 463.36 
L 473.616 512.64 
z
" style="fill:#ffffff;stroke:#ffffff;stroke-linejoin:miter;stroke-width:0.01;"/>
   </g>
   <g id="QuadMesh_1">
    <path clip-path="url(#pa1f0dae3c6)" d="M 451.44 512.64 
L 473.616 512.64 
L 473.616 463.36 
L 451.44 463.36 
L 451.44 512.64 
" style="fill:#4b64d5;"/>
    <path clip-path="url(#pa1f0dae3c6)" d="M 451.44 463.36 
L 473.616 463.36 
L 473.616 414.08 
L 451.44 414.08 
L 451.44 463.36 
" style="fill:#6f92f3;"/>
    <path clip-path="url(#pa1f0dae3c6)" d="M 451.44 414.08 
L 473.616 414.08 
L 473.616 364.8 
L 451.44 364.8 
L 451.44 414.08 
" style="fill:#97b8ff;"/>
    <path clip-path="url(#pa1f0dae3c6)" d="M 451.44 364.8 
L 473.616 364.8 
L 473.616 315.52 
L 451.44 315.52 
L 451.44 364.8 
" style="fill:#bcd2f7;"/>
    <path clip-path="url(#pa1f0dae3c6)" d="M 451.44 315.52 
L 473.616 315.52 
L 473.616 266.24 
L 451.44 266.24 
L 451.44 315.52 
" style="fill:#dddcdc;"/>
    <path clip-path="url(#pa1f0dae3c6)" d="M 451.44 266.24 
L 473.616 266.24 
L 473.616 216.96 
L 451.44 216.96 
L 451.44 266.24 
" style="fill:#f3c8b2;"/>
    <path clip-path="url(#pa1f0dae3c6)" d="M 451.44 216.96 
L 473.616 216.96 
L 473.616 167.68 
L 451.44 167.68 
L 451.44 216.96 
" style="fill:#f6a586;"/>
    <path clip-path="url(#pa1f0dae3c6)" d="M 451.44 167.68 
L 473.616 167.68 
L 473.616 118.4 
L 451.44 118.4 
L 451.44 167.68 
" style="fill:#e7745b;"/>
    <path clip-path="url(#pa1f0dae3c6)" d="M 451.44 118.4 
L 473.616 118.4 
L 473.616 69.12 
L 451.44 69.12 
L 451.44 118.4 
" style="fill:#c83836;"/>
   </g>
   <g id="matplotlib.axis_3"/>
   <g id="matplotlib.axis_4">
    <g id="ytick_10">
     <g id="line2d_19">
      <defs>
       <path d="M 0 0 
L 3.5 0 
" id="m76eb1a1b0f" style="stroke:#000000;stroke-width:0.8;"/>
      </defs>
      <g>
       <use style="stroke:#000000;stroke-width:0.8;" x="473.616" xlink:href="#m76eb1a1b0f" y="512.64"/>
      </g>
     </g>
     <g id="text_19">
      <!-- 1.5 -->
      <g transform="translate(480.616 516.439219)scale(0.1 -0.1)">
       <use xlink:href="#DejaVuSans-8722"/>
       <use x="83.789062" xlink:href="#DejaVuSans-49"/>
       <use x="147.412109" xlink:href="#DejaVuSans-46"/>
       <use x="179.199219" xlink:href="#DejaVuSans-53"/>
      </g>
     </g>
    </g>
    <g id="ytick_11">
     <g id="line2d_20">
      <g>
       <use style="stroke:#000000;stroke-width:0.8;" x="473.616" xlink:href="#m76eb1a1b0f" y="463.36"/>
      </g>
     </g>
     <g id="text_20">
      <!-- 1.2 -->
      <g transform="translate(480.616 467.159219)scale(0.1 -0.1)">
       <use xlink:href="#DejaVuSans-8722"/>
       <use x="83.789062" xlink:href="#DejaVuSans-49"/>
       <use x="147.412109" xlink:href="#DejaVuSans-46"/>
       <use x="179.199219" xlink:href="#DejaVuSans-50"/>
      </g>
     </g>
    </g>
    <g id="ytick_12">
     <g id="line2d_21">
      <g>
       <use style="stroke:#000000;stroke-width:0.8;" x="473.616" xlink:href="#m76eb1a1b0f" y="414.08"/>
      </g>
     </g>
     <g id="text_21">
      <!-- 0.9 -->
      <defs>
       <path d="M 10.984375 1.515625 
L 10.984375 10.5 
Q 14.703125 8.734375 18.5 7.8125 
Q 22.3125 6.890625 25.984375 6.890625 
Q 35.75 6.890625 40.890625 13.453125 
Q 46.046875 20.015625 46.78125 33.40625 
Q 43.953125 29.203125 39.59375 26.953125 
Q 35.25 24.703125 29.984375 24.703125 
Q 19.046875 24.703125 12.671875 31.3125 
Q 6.296875 37.9375 6.296875 49.421875 
Q 6.296875 60.640625 12.9375 67.421875 
Q 19.578125 74.21875 30.609375 74.21875 
Q 43.265625 74.21875 49.921875 64.515625 
Q 56.59375 54.828125 56.59375 36.375 
Q 56.59375 19.140625 48.40625 8.859375 
Q 40.234375 -1.421875 26.421875 -1.421875 
Q 22.703125 -1.421875 18.890625 -0.6875 
Q 15.09375 0.046875 10.984375 1.515625 
z
M 30.609375 32.421875 
Q 37.25 32.421875 41.125 36.953125 
Q 45.015625 41.5 45.015625 49.421875 
Q 45.015625 57.28125 41.125 61.84375 
Q 37.25 66.40625 30.609375 66.40625 
Q 23.96875 66.40625 20.09375 61.84375 
Q 16.21875 57.28125 16.21875 49.421875 
Q 16.21875 41.5 20.09375 36.953125 
Q 23.96875 32.421875 30.609375 32.421875 
z
" id="DejaVuSans-57"/>
      </defs>
      <g transform="translate(480.616 417.879219)scale(0.1 -0.1)">
       <use xlink:href="#DejaVuSans-8722"/>
       <use x="83.789062" xlink:href="#DejaVuSans-48"/>
       <use x="147.412109" xlink:href="#DejaVuSans-46"/>
       <use x="179.199219" xlink:href="#DejaVuSans-57"/>
      </g>
     </g>
    </g>
    <g id="ytick_13">
     <g id="line2d_22">
      <g>
       <use style="stroke:#000000;stroke-width:0.8;" x="473.616" xlink:href="#m76eb1a1b0f" y="364.8"/>
      </g>
     </g>
     <g id="text_22">
      <!-- 0.6 -->
      <defs>
       <path d="M 33.015625 40.375 
Q 26.375 40.375 22.484375 35.828125 
Q 18.609375 31.296875 18.609375 23.390625 
Q 18.609375 15.53125 22.484375 10.953125 
Q 26.375 6.390625 33.015625 6.390625 
Q 39.65625 6.390625 43.53125 10.953125 
Q 47.40625 15.53125 47.40625 23.390625 
Q 47.40625 31.296875 43.53125 35.828125 
Q 39.65625 40.375 33.015625 40.375 
z
M 52.59375 71.296875 
L 52.59375 62.3125 
Q 48.875 64.0625 45.09375 64.984375 
Q 41.3125 65.921875 37.59375 65.921875 
Q 27.828125 65.921875 22.671875 59.328125 
Q 17.53125 52.734375 16.796875 39.40625 
Q 19.671875 43.65625 24.015625 45.921875 
Q 28.375 48.1875 33.59375 48.1875 
Q 44.578125 48.1875 50.953125 41.515625 
Q 57.328125 34.859375 57.328125 23.390625 
Q 57.328125 12.15625 50.6875 5.359375 
Q 44.046875 -1.421875 33.015625 -1.421875 
Q 20.359375 -1.421875 13.671875 8.265625 
Q 6.984375 17.96875 6.984375 36.375 
Q 6.984375 53.65625 15.1875 63.9375 
Q 23.390625 74.21875 37.203125 74.21875 
Q 40.921875 74.21875 44.703125 73.484375 
Q 48.484375 72.75 52.59375 71.296875 
z
" id="DejaVuSans-54"/>
      </defs>
      <g transform="translate(480.616 368.599219)scale(0.1 -0.1)">
       <use xlink:href="#DejaVuSans-8722"/>
       <use x="83.789062" xlink:href="#DejaVuSans-48"/>
       <use x="147.412109" xlink:href="#DejaVuSans-46"/>
       <use x="179.199219" xlink:href="#DejaVuSans-54"/>
      </g>
     </g>
    </g>
    <g id="ytick_14">
     <g id="line2d_23">
      <g>
       <use style="stroke:#000000;stroke-width:0.8;" x="473.616" xlink:href="#m76eb1a1b0f" y="315.52"/>
      </g>
     </g>
     <g id="text_23">
      <!-- 0.3 -->
      <defs>
       <path d="M 40.578125 39.3125 
Q 47.65625 37.796875 51.625 33 
Q 55.609375 28.21875 55.609375 21.1875 
Q 55.609375 10.40625 48.1875 4.484375 
Q 40.765625 -1.421875 27.09375 -1.421875 
Q 22.515625 -1.421875 17.65625 -0.515625 
Q 12.796875 0.390625 7.625 2.203125 
L 7.625 11.71875 
Q 11.71875 9.328125 16.59375 8.109375 
Q 21.484375 6.890625 26.8125 6.890625 
Q 36.078125 6.890625 40.9375 10.546875 
Q 45.796875 14.203125 45.796875 21.1875 
Q 45.796875 27.640625 41.28125 31.265625 
Q 36.765625 34.90625 28.71875 34.90625 
L 20.21875 34.90625 
L 20.21875 43.015625 
L 29.109375 43.015625 
Q 36.375 43.015625 40.234375 45.921875 
Q 44.09375 48.828125 44.09375 54.296875 
Q 44.09375 59.90625 40.109375 62.90625 
Q 36.140625 65.921875 28.71875 65.921875 
Q 24.65625 65.921875 20.015625 65.03125 
Q 15.375 64.15625 9.8125 62.3125 
L 9.8125 71.09375 
Q 15.4375 72.65625 20.34375 73.4375 
Q 25.25 74.21875 29.59375 74.21875 
Q 40.828125 74.21875 47.359375 69.109375 
Q 53.90625 64.015625 53.90625 55.328125 
Q 53.90625 49.265625 50.4375 45.09375 
Q 46.96875 40.921875 40.578125 39.3125 
z
" id="DejaVuSans-51"/>
      </defs>
      <g transform="translate(480.616 319.319219)scale(0.1 -0.1)">
       <use xlink:href="#DejaVuSans-8722"/>
       <use x="83.789062" xlink:href="#DejaVuSans-48"/>
       <use x="147.412109" xlink:href="#DejaVuSans-46"/>
       <use x="179.199219" xlink:href="#DejaVuSans-51"/>
      </g>
     </g>
    </g>
    <g id="ytick_15">
     <g id="line2d_24">
      <g>
       <use style="stroke:#000000;stroke-width:0.8;" x="473.616" xlink:href="#m76eb1a1b0f" y="266.24"/>
      </g>
     </g>
     <g id="text_24">
      <!-- 0.0 -->
      <g transform="translate(480.616 270.039219)scale(0.1 -0.1)">
       <use xlink:href="#DejaVuSans-48"/>
       <use x="63.623047" xlink:href="#DejaVuSans-46"/>
       <use x="95.410156" xlink:href="#DejaVuSans-48"/>
      </g>
     </g>
    </g>
    <g id="ytick_16">
     <g id="line2d_25">
      <g>
       <use style="stroke:#000000;stroke-width:0.8;" x="473.616" xlink:href="#m76eb1a1b0f" y="216.96"/>
      </g>
     </g>
     <g id="text_25">
      <!-- 0.3 -->
      <g transform="translate(480.616 220.759219)scale(0.1 -0.1)">
       <use xlink:href="#DejaVuSans-48"/>
       <use x="63.623047" xlink:href="#DejaVuSans-46"/>
       <use x="95.410156" xlink:href="#DejaVuSans-51"/>
      </g>
     </g>
    </g>
    <g id="ytick_17">
     <g id="line2d_26">
      <g>
       <use style="stroke:#000000;stroke-width:0.8;" x="473.616" xlink:href="#m76eb1a1b0f" y="167.68"/>
      </g>
     </g>
     <g id="text_26">
      <!-- 0.6 -->
      <g transform="translate(480.616 171.479219)scale(0.1 -0.1)">
       <use xlink:href="#DejaVuSans-48"/>
       <use x="63.623047" xlink:href="#DejaVuSans-46"/>
       <use x="95.410156" xlink:href="#DejaVuSans-54"/>
      </g>
     </g>
    </g>
    <g id="ytick_18">
     <g id="line2d_27">
      <g>
       <use style="stroke:#000000;stroke-width:0.8;" x="473.616" xlink:href="#m76eb1a1b0f" y="118.4"/>
      </g>
     </g>
     <g id="text_27">
      <!-- 0.9 -->
      <g transform="translate(480.616 122.199219)scale(0.1 -0.1)">
       <use xlink:href="#DejaVuSans-48"/>
       <use x="63.623047" xlink:href="#DejaVuSans-46"/>
       <use x="95.410156" xlink:href="#DejaVuSans-57"/>
      </g>
     </g>
    </g>
    <g id="ytick_19">
     <g id="line2d_28">
      <g>
       <use style="stroke:#000000;stroke-width:0.8;" x="473.616" xlink:href="#m76eb1a1b0f" y="69.12"/>
      </g>
     </g>
     <g id="text_28">
      <!-- 1.2 -->
      <g transform="translate(480.616 72.919219)scale(0.1 -0.1)">
       <use xlink:href="#DejaVuSans-49"/>
       <use x="63.623047" xlink:href="#DejaVuSans-46"/>
       <use x="95.410156" xlink:href="#DejaVuSans-50"/>
      </g>
     </g>
    </g>
   </g>
   <g id="patch_8">
    <path d="M 451.44 512.64 
L 451.44 463.36 
L 451.44 118.4 
L 451.44 69.12 
L 473.616 69.12 
L 473.616 118.4 
L 473.616 463.36 
L 473.616 512.64 
z
" style="fill:none;stroke:#000000;stroke-linejoin:miter;stroke-width:0.8;"/>
   </g>
  </g>
 </g>
 <defs>
  <clipPath id="p33d80d419e">
   <rect height="443.52" width="357.12" x="72" y="69.12"/>
  </clipPath>
  <clipPath id="pa1f0dae3c6">
   <rect height="443.52" width="22.176" x="451.44" y="69.12"/>
  </clipPath>
 </defs>
</svg>
