<?xml version="1.0" encoding="utf-8" standalone="no"?>
<!DOCTYPE svg PUBLIC "-//W3C//DTD SVG 1.1//EN"
  "http://www.w3.org/Graphics/SVG/1.1/DTD/svg11.dtd">
<!-- Created with matplotlib (https://matplotlib.org/) -->
<svg height="576pt" version="1.1" viewBox="0 0 576 576" width="576pt" xmlns="http://www.w3.org/2000/svg" xmlns:xlink="http://www.w3.org/1999/xlink">
 <defs>
  <style type="text/css">
*{stroke-linecap:butt;stroke-linejoin:round;}
  </style>
 </defs>
 <g id="figure_1">
  <g id="patch_1">
   <path d="M 0 576 
L 576 576 
L 576 0 
L 0 0 
z
" style="fill:#ffffff;"/>
  </g>
  <g id="axes_1">
   <g id="patch_2">
    <path d="M 72 512.64 
L 429.12 512.64 
L 429.12 69.12 
L 72 69.12 
z
" style="fill:#ffffff;"/>
   </g>
   <g id="PathCollection_1">
    <path clip-path="url(#p6d6b64ae56)" d="M 429.12 155.728439 
L 429.12 154.24 
L 429.12 149.76 
L 429.12 145.28 
L 429.12 140.8 
L 429.12 136.32 
L 429.12 131.84 
L 429.12 127.36 
L 429.12 122.88 
L 429.12 118.4 
L 429.12 113.92 
L 429.12 109.44 
L 429.12 104.96 
L 429.12 100.48 
L 429.12 96 
L 429.12 91.52 
L 429.12 87.04 
L 429.12 82.56 
L 429.12 78.08 
L 429.12 73.6 
L 429.12 69.12 
L 425.512727 69.12 
L 421.905455 69.12 
L 418.298182 69.12 
L 414.690909 69.12 
L 411.083636 69.12 
L 407.476364 69.12 
L 403.869091 69.12 
L 400.261818 69.12 
L 396.654545 69.12 
L 393.047273 69.12 
L 389.44 69.12 
L 385.832727 69.12 
L 382.225455 69.12 
L 378.618182 69.12 
L 375.010909 69.12 
L 371.403636 69.12 
L 370.170455 69.12 
L 371.403636 69.944334 
L 375.010909 72.573369 
L 376.239474 73.6 
L 378.618182 75.658882 
L 381.415396 78.08 
L 382.225455 78.831269 
L 385.736225 82.56 
L 385.832727 82.666048 
L 389.44 86.630154 
L 389.812949 87.04 
L 393.047273 90.594289 
L 393.889654 91.52 
L 396.654545 94.901098 
L 397.448925 96 
L 400.261818 99.949274 
L 400.616794 100.48 
L 403.37542 104.96 
L 403.869091 105.796333 
L 406.019887 109.44 
L 407.476364 111.907352 
L 408.664428 113.92 
L 411.083636 118.018355 
L 411.308915 118.4 
L 413.868828 122.88 
L 414.690909 124.531128 
L 415.995699 127.36 
L 418.063582 131.84 
L 418.298182 132.347832 
L 420.136722 136.32 
L 421.905455 140.141319 
L 422.210324 140.8 
L 424.283882 145.28 
L 425.512727 147.934928 
L 426.357478 149.76 
L 428.431069 154.24 
z
" style="fill:#506bda;"/>
   </g>
   <g id="PathCollection_2">
    <path clip-path="url(#p6d6b64ae56)" d="M 407.476364 512.64 
L 411.083636 512.64 
L 414.690909 512.64 
L 418.298182 512.64 
L 421.905455 512.64 
L 425.512727 512.64 
L 429.12 512.64 
L 429.12 508.16 
L 429.12 503.68 
L 429.12 499.2 
L 429.12 494.72 
L 429.12 490.24 
L 429.12 485.76 
L 429.12 481.28 
L 429.12 476.8 
L 429.12 472.32 
L 429.12 467.84 
L 429.12 463.36 
L 429.12 458.88 
L 429.12 454.4 
L 429.12 449.92 
L 429.12 445.44 
L 429.12 440.96 
L 429.12 436.48 
L 429.12 432 
L 429.12 427.52 
L 429.12 423.04 
L 429.12 418.56 
L 429.12 414.08 
L 429.12 409.6 
L 429.12 405.12 
L 429.12 400.64 
L 429.12 396.16 
L 429.12 391.68 
L 429.12 387.2 
L 429.12 382.72 
L 429.12 378.24 
L 429.12 373.76 
L 429.12 369.28 
L 429.12 364.8 
L 429.12 360.32 
L 429.12 355.84 
L 429.12 351.36 
L 429.12 346.88 
L 429.12 342.4 
L 429.12 337.92 
L 429.12 333.44 
L 429.12 328.96 
L 429.12 324.48 
L 429.12 320 
L 429.12 315.52 
L 429.12 311.04 
L 429.12 306.56 
L 429.12 302.08 
L 429.12 297.6 
L 429.12 293.12 
L 429.12 288.64 
L 429.12 284.16 
L 429.12 279.68 
L 429.12 275.2 
L 429.12 270.72 
L 429.12 266.24 
L 429.12 261.76 
L 429.12 257.28 
L 429.12 252.8 
L 429.12 248.32 
L 429.12 243.84 
L 429.12 239.36 
L 429.12 234.88 
L 429.12 230.4 
L 429.12 225.92 
L 429.12 221.44 
L 429.12 216.96 
L 429.12 212.48 
L 429.12 208 
L 429.12 203.52 
L 429.12 199.04 
L 429.12 194.56 
L 429.12 190.08 
L 429.12 185.6 
L 429.12 181.12 
L 429.12 176.64 
L 429.12 172.16 
L 429.12 167.68 
L 429.12 163.2 
L 429.12 158.72 
L 429.12 155.728439 
L 428.431069 154.24 
L 426.357478 149.76 
L 425.512727 147.934928 
L 424.283882 145.28 
L 422.210324 140.8 
L 421.905455 140.141319 
L 420.136722 136.32 
L 418.298182 132.347832 
L 418.063582 131.84 
L 415.995699 127.36 
L 414.690909 124.531128 
L 413.868828 122.88 
L 411.308915 118.4 
L 411.083636 118.018355 
L 408.664428 113.92 
L 407.476364 111.907352 
L 406.019887 109.44 
L 403.869091 105.796333 
L 403.37542 104.96 
L 400.616794 100.48 
L 400.261818 99.949274 
L 397.448925 96 
L 396.654545 94.901098 
L 393.889654 91.52 
L 393.047273 90.594289 
L 389.812949 87.04 
L 389.44 86.630154 
L 385.832727 82.666048 
L 385.736225 82.56 
L 382.225455 78.831269 
L 381.415396 78.08 
L 378.618182 75.658882 
L 376.239474 73.6 
L 375.010909 72.573369 
L 371.403636 69.944334 
L 370.170455 69.12 
L 367.796364 69.12 
L 364.189091 69.12 
L 360.581818 69.12 
L 356.974545 69.12 
L 353.367273 69.12 
L 349.76 69.12 
L 346.152727 69.12 
L 342.545455 69.12 
L 338.938182 69.12 
L 335.330909 69.12 
L 331.723636 69.12 
L 328.116364 69.12 
L 324.509091 69.12 
L 320.901818 69.12 
L 317.294545 69.12 
L 313.687273 69.12 
L 310.08 69.12 
L 306.472727 69.12 
L 302.865455 69.12 
L 299.258182 69.12 
L 295.650909 69.12 
L 292.043636 69.12 
L 288.436364 69.12 
L 284.829091 69.12 
L 281.221818 69.12 
L 277.614545 69.12 
L 274.007273 69.12 
L 270.4 69.12 
L 266.792727 69.12 
L 263.185455 69.12 
L 259.578182 69.12 
L 255.970909 69.12 
L 252.363636 69.12 
L 248.756364 69.12 
L 245.149091 69.12 
L 241.541818 69.12 
L 237.934545 69.12 
L 234.327273 69.12 
L 230.72 69.12 
L 227.112727 69.12 
L 223.505455 69.12 
L 219.898182 69.12 
L 216.290909 69.12 
L 212.683636 69.12 
L 209.076364 69.12 
L 205.469091 69.12 
L 201.861818 69.12 
L 198.254545 69.12 
L 194.647273 69.12 
L 191.04 69.12 
L 187.432727 69.12 
L 183.825455 69.12 
L 180.218182 69.12 
L 176.610909 69.12 
L 173.003636 69.12 
L 169.396364 69.12 
L 165.789091 69.12 
L 162.181818 69.12 
L 158.574545 69.12 
L 154.967273 69.12 
L 151.36 69.12 
L 147.752727 69.12 
L 144.145455 69.12 
L 140.538182 69.12 
L 136.930909 69.12 
L 133.323636 69.12 
L 129.716364 69.12 
L 126.109091 69.12 
L 122.501818 69.12 
L 118.894545 69.12 
L 115.287273 69.12 
L 111.68 69.12 
L 108.072727 69.12 
L 104.465455 69.12 
L 100.858182 69.12 
L 97.250909 69.12 
L 93.643636 69.12 
L 90.036364 69.12 
L 86.429091 69.12 
L 82.821818 69.12 
L 79.214545 69.12 
L 75.607273 69.12 
L 72 69.12 
L 72 73.6 
L 72 78.08 
L 72 82.56 
L 72 87.04 
L 72 91.52 
L 72 96 
L 72 100.48 
L 72 101.070731 
L 75.06473 100.48 
L 75.607273 100.375423 
L 79.214545 99.680087 
L 82.821818 98.98476 
L 86.429091 98.289451 
L 90.036364 97.594136 
L 93.643636 96.898817 
L 97.250909 96.203493 
L 98.306587 96 
L 100.858182 95.508158 
L 104.465455 94.812848 
L 108.072727 94.117542 
L 111.68 93.422205 
L 115.287273 92.726898 
L 118.894545 92.031591 
L 121.54858 91.52 
L 122.501818 91.336254 
L 126.109091 90.874633 
L 129.716364 90.569347 
L 133.323636 90.264035 
L 136.930909 89.958759 
L 140.538182 89.653454 
L 144.145455 89.348167 
L 147.752727 89.042871 
L 151.36 88.737554 
L 154.967273 88.432259 
L 158.574545 88.126976 
L 162.181818 87.821683 
L 165.789091 87.51639 
L 169.396364 87.211096 
L 171.417777 87.04 
L 173.003636 86.90577 
L 176.610909 86.896391 
L 180.218182 86.977593 
L 182.990533 87.04 
L 183.825455 87.058795 
L 187.432727 87.140027 
L 191.04 87.221229 
L 194.647273 87.30243 
L 198.254545 87.383633 
L 201.861818 87.464863 
L 205.469091 87.546052 
L 209.076364 87.627254 
L 212.683636 87.708469 
L 216.290909 87.789671 
L 219.898182 87.870885 
L 223.505455 87.952089 
L 227.112727 88.033303 
L 230.72 88.11452 
L 234.327273 88.19571 
L 237.934545 88.276927 
L 241.541818 88.358117 
L 245.149091 88.596982 
L 248.756364 88.991328 
L 252.363636 89.384411 
L 255.970909 89.7692 
L 259.578182 90.14319 
L 263.185455 90.713678 
L 265.633282 91.52 
L 266.792727 91.929958 
L 270.4 93.391779 
L 274.007273 95.169416 
L 275.662616 96 
L 277.614545 97.001544 
L 281.221818 98.877986 
L 284.301546 100.48 
L 284.829091 100.754419 
L 288.436364 102.630862 
L 292.043636 104.507304 
L 292.913895 104.96 
L 295.650909 106.383756 
L 299.258182 108.260222 
L 301.526189 109.44 
L 302.865455 110.136654 
L 306.472727 112.013112 
L 310.08 113.889526 
L 310.138583 113.92 
L 313.687273 115.765989 
L 317.294545 117.642433 
L 318.669134 118.4 
L 320.901818 119.692685 
L 324.509091 122.104003 
L 325.669937 122.88 
L 328.116364 124.530833 
L 331.695894 127.36 
L 331.723636 127.384012 
L 335.330909 130.506309 
L 336.871768 131.84 
L 338.938182 133.681752 
L 341.522976 136.32 
L 342.545455 137.44363 
L 345.599658 140.8 
L 346.152727 141.407787 
L 349.676399 145.28 
L 349.76 145.371872 
L 353.367273 149.701611 
L 353.410358 149.76 
L 356.601207 154.24 
L 356.974545 154.76417 
L 359.792075 158.72 
L 360.581818 159.828811 
L 362.982924 163.2 
L 364.189091 165.012142 
L 365.798121 167.68 
L 367.796364 171.065167 
L 368.44264 172.16 
L 371.087149 176.64 
L 371.403636 177.176159 
L 373.634731 181.12 
L 375.010909 183.919055 
L 375.786229 185.6 
L 377.852585 190.08 
L 378.618182 191.739865 
L 379.918942 194.56 
L 381.985299 199.04 
L 382.225455 199.560671 
L 384.051662 203.52 
L 385.832727 207.381486 
L 386.118009 208 
L 388.184347 212.48 
L 389.44 215.202323 
L 390.250724 216.96 
L 392.317049 221.44 
L 393.047273 223.133976 
L 394.155385 225.92 
L 395.758856 230.4 
L 396.654545 232.883609 
L 397.374612 234.88 
L 398.99678 239.36 
L 400.261818 243.018471 
L 400.531326 243.84 
L 401.717489 248.32 
L 402.903652 252.8 
L 403.869091 256.446307 
L 404.089829 257.28 
L 405.275998 261.76 
L 406.2746 266.24 
L 407.173365 270.72 
L 407.476364 272.230344 
L 408.072127 275.2 
L 408.970884 279.68 
L 409.869662 284.16 
L 410.768419 288.64 
L 411.083636 290.211208 
L 411.667202 293.12 
L 412.565959 297.6 
L 413.464724 302.08 
L 414.363497 306.56 
L 414.690909 308.192032 
L 415.262255 311.04 
L 416.161017 315.52 
L 417.059781 320 
L 417.958564 324.48 
L 418.298182 326.172851 
L 418.857339 328.96 
L 419.440835 333.44 
L 419.669454 337.92 
L 419.895035 342.4 
L 420.120644 346.88 
L 420.34624 351.36 
L 420.571843 355.84 
L 420.260281 360.32 
L 419.868974 364.8 
L 419.477658 369.28 
L 419.086349 373.76 
L 418.695037 378.24 
L 418.303731 382.72 
L 418.298182 382.783528 
L 417.912413 387.2 
L 417.521109 391.68 
L 417.129804 396.16 
L 416.738493 400.64 
L 416.347194 405.12 
L 415.955889 409.6 
L 415.564572 414.08 
L 415.173258 418.56 
L 414.78195 423.04 
L 414.690909 424.082311 
L 414.390645 427.52 
L 413.999348 432 
L 413.608028 436.48 
L 413.216725 440.96 
L 412.825406 445.44 
L 412.452862 449.92 
L 412.11917 454.4 
L 411.812691 458.88 
L 411.533219 463.36 
L 411.118858 467.84 
L 411.083636 468.107967 
L 410.530004 472.32 
L 409.941146 476.8 
L 409.352296 481.28 
L 408.763442 485.76 
L 408.174593 490.24 
L 407.585734 494.72 
L 407.476364 495.552105 
L 406.996888 499.2 
L 406.408035 503.68 
L 405.819186 508.16 
L 405.230327 512.64 
z
" style="fill:#80a3fa;"/>
   </g>
   <g id="PathCollection_3">
    <path clip-path="url(#p6d6b64ae56)" d="M 349.76 512.64 
L 353.367273 512.64 
L 356.974545 512.64 
L 360.581818 512.64 
L 364.189091 512.64 
L 367.796364 512.64 
L 371.403636 512.64 
L 375.010909 512.64 
L 378.618182 512.64 
L 382.225455 512.64 
L 385.832727 512.64 
L 389.44 512.64 
L 393.047273 512.64 
L 396.654545 512.64 
L 400.261818 512.64 
L 403.869091 512.64 
L 405.230327 512.64 
L 405.819186 508.16 
L 406.408035 503.68 
L 406.996888 499.2 
L 407.476364 495.552105 
L 407.585734 494.72 
L 408.174593 490.24 
L 408.763442 485.76 
L 409.352296 481.28 
L 409.941146 476.8 
L 410.530004 472.32 
L 411.083636 468.107967 
L 411.118858 467.84 
L 411.533219 463.36 
L 411.812691 458.88 
L 412.11917 454.4 
L 412.452862 449.92 
L 412.825406 445.44 
L 413.216725 440.96 
L 413.608028 436.48 
L 413.999348 432 
L 414.390645 427.52 
L 414.690909 424.082311 
L 414.78195 423.04 
L 415.173258 418.56 
L 415.564572 414.08 
L 415.955889 409.6 
L 416.347194 405.12 
L 416.738493 400.64 
L 417.129804 396.16 
L 417.521109 391.68 
L 417.912413 387.2 
L 418.298182 382.783528 
L 418.303731 382.72 
L 418.695037 378.24 
L 419.086349 373.76 
L 419.477658 369.28 
L 419.868974 364.8 
L 420.260281 360.32 
L 420.571843 355.84 
L 420.34624 351.36 
L 420.120644 346.88 
L 419.895035 342.4 
L 419.669454 337.92 
L 419.440835 333.44 
L 418.857339 328.96 
L 418.298182 326.172851 
L 417.958564 324.48 
L 417.059781 320 
L 416.161017 315.52 
L 415.262255 311.04 
L 414.690909 308.192032 
L 414.363497 306.56 
L 413.464724 302.08 
L 412.565959 297.6 
L 411.667202 293.12 
L 411.083636 290.211208 
L 410.768419 288.64 
L 409.869662 284.16 
L 408.970884 279.68 
L 408.072127 275.2 
L 407.476364 272.230344 
L 407.173365 270.72 
L 406.2746 266.24 
L 405.275998 261.76 
L 404.089829 257.28 
L 403.869091 256.446307 
L 402.903652 252.8 
L 401.717489 248.32 
L 400.531326 243.84 
L 400.261818 243.018471 
L 398.99678 239.36 
L 397.374612 234.88 
L 396.654545 232.883609 
L 395.758856 230.4 
L 394.155385 225.92 
L 393.047273 223.133976 
L 392.317049 221.44 
L 390.250724 216.96 
L 389.44 215.202323 
L 388.184347 212.48 
L 386.118009 208 
L 385.832727 207.381486 
L 384.051662 203.52 
L 382.225455 199.560671 
L 381.985299 199.04 
L 379.918942 194.56 
L 378.618182 191.739865 
L 377.852585 190.08 
L 375.786229 185.6 
L 375.010909 183.919055 
L 373.634731 181.12 
L 371.403636 177.176159 
L 371.087149 176.64 
L 368.44264 172.16 
L 367.796364 171.065167 
L 365.798121 167.68 
L 364.189091 165.012142 
L 362.982924 163.2 
L 360.581818 159.828811 
L 359.792075 158.72 
L 356.974545 154.76417 
L 356.601207 154.24 
L 353.410358 149.76 
L 353.367273 149.701611 
L 349.76 145.371872 
L 349.676399 145.28 
L 346.152727 141.407787 
L 345.599658 140.8 
L 342.545455 137.44363 
L 341.522976 136.32 
L 338.938182 133.681752 
L 336.871768 131.84 
L 335.330909 130.506309 
L 331.723636 127.384012 
L 331.695894 127.36 
L 328.116364 124.530833 
L 325.669937 122.88 
L 324.509091 122.104003 
L 320.901818 119.692685 
L 318.669134 118.4 
L 317.294545 117.642433 
L 313.687273 115.765989 
L 310.138583 113.92 
L 310.08 113.889526 
L 306.472727 112.013112 
L 302.865455 110.136654 
L 301.526189 109.44 
L 299.258182 108.260222 
L 295.650909 106.383756 
L 292.913895 104.96 
L 292.043636 104.507304 
L 288.436364 102.630862 
L 284.829091 100.754419 
L 284.301546 100.48 
L 281.221818 98.877986 
L 277.614545 97.001544 
L 275.662616 96 
L 274.007273 95.169416 
L 270.4 93.391779 
L 266.792727 91.929958 
L 265.633282 91.52 
L 263.185455 90.713678 
L 259.578182 90.14319 
L 255.970909 89.7692 
L 252.363636 89.384411 
L 248.756364 88.991328 
L 245.149091 88.596982 
L 241.541818 88.358117 
L 237.934545 88.276927 
L 234.327273 88.19571 
L 230.72 88.11452 
L 227.112727 88.033303 
L 223.505455 87.952089 
L 219.898182 87.870885 
L 216.290909 87.789671 
L 212.683636 87.708469 
L 209.076364 87.627254 
L 205.469091 87.546052 
L 201.861818 87.464863 
L 198.254545 87.383633 
L 194.647273 87.30243 
L 191.04 87.221229 
L 187.432727 87.140027 
L 183.825455 87.058795 
L 182.990533 87.04 
L 180.218182 86.977593 
L 176.610909 86.896391 
L 173.003636 86.90577 
L 171.417777 87.04 
L 169.396364 87.211096 
L 165.789091 87.51639 
L 162.181818 87.821683 
L 158.574545 88.126976 
L 154.967273 88.432259 
L 151.36 88.737554 
L 147.752727 89.042871 
L 144.145455 89.348167 
L 140.538182 89.653454 
L 136.930909 89.958759 
L 133.323636 90.264035 
L 129.716364 90.569347 
L 126.109091 90.874633 
L 122.501818 91.336254 
L 121.54858 91.52 
L 118.894545 92.031591 
L 115.287273 92.726898 
L 111.68 93.422205 
L 108.072727 94.117542 
L 104.465455 94.812848 
L 100.858182 95.508158 
L 98.306587 96 
L 97.250909 96.203493 
L 93.643636 96.898817 
L 90.036364 97.594136 
L 86.429091 98.289451 
L 82.821818 98.98476 
L 79.214545 99.680087 
L 75.607273 100.375423 
L 75.06473 100.48 
L 72 101.070731 
L 72 104.96 
L 72 109.44 
L 72 113.92 
L 72 118.4 
L 72 122.88 
L 72 127.36 
L 72 131.84 
L 72 136.32 
L 72 140.8 
L 72 145.28 
L 72 149.76 
L 72 154.24 
L 72 158.72 
L 72 163.2 
L 72 167.254311 
L 75.607273 166.251679 
L 79.214545 165.249041 
L 82.821818 164.246402 
L 86.429091 163.243784 
L 86.586614 163.2 
L 90.036364 162.241121 
L 93.643636 161.402337 
L 97.250909 160.70702 
L 100.858182 160.01169 
L 104.465455 159.316363 
L 107.559386 158.72 
L 108.072727 158.621052 
L 111.68 157.925724 
L 115.287273 157.230409 
L 118.894545 156.535087 
L 122.501818 155.839768 
L 126.109091 155.144458 
L 129.716364 154.517791 
L 132.998568 154.24 
L 133.323636 154.212488 
L 136.930909 153.907199 
L 140.538182 153.601904 
L 144.145455 153.296599 
L 147.752727 152.991306 
L 151.36 152.686006 
L 154.967273 152.380716 
L 158.574545 152.075417 
L 162.181818 151.770125 
L 165.789091 151.46483 
L 169.396364 151.348749 
L 173.003636 151.429946 
L 176.610909 151.511157 
L 180.218182 151.592374 
L 183.825455 151.673576 
L 187.432727 151.754793 
L 191.04 151.835991 
L 194.647273 151.918131 
L 198.254545 152.023441 
L 201.861818 152.138176 
L 205.469091 152.269416 
L 209.076364 152.400671 
L 212.683636 152.531913 
L 216.290909 152.663155 
L 219.898182 152.794407 
L 223.505455 152.92566 
L 227.112727 153.17985 
L 230.72 153.631419 
L 233.042408 154.24 
L 234.327273 154.621471 
L 237.934545 156.011499 
L 241.541818 157.401513 
L 244.639908 158.72 
L 245.149091 158.943693 
L 248.756364 160.834472 
L 252.363636 162.725252 
L 253.269381 163.2 
L 255.970909 164.616004 
L 259.578182 166.50676 
L 261.816547 167.68 
L 263.185455 168.397513 
L 266.792727 170.288275 
L 270.363677 172.16 
L 270.4 172.179039 
L 274.007273 174.069792 
L 277.614545 175.960545 
L 278.910843 176.64 
L 281.221818 177.851301 
L 284.829091 179.888989 
L 286.688123 181.12 
L 288.436364 182.334702 
L 292.043636 184.841089 
L 292.96939 185.6 
L 295.650909 187.919922 
L 297.854539 190.08 
L 299.258182 191.60384 
L 301.950822 194.56 
L 302.865455 195.564145 
L 306.031483 199.04 
L 306.472727 199.524424 
L 309.868815 203.52 
L 310.08 203.80023 
L 313.081666 208 
L 313.687273 208.847333 
L 316.283618 212.48 
L 317.294545 213.894436 
L 319.48557 216.96 
L 320.901818 218.941539 
L 322.687522 221.44 
L 324.509091 223.988642 
L 325.884621 225.92 
L 328.116364 229.342155 
L 328.744186 230.4 
L 331.40301 234.88 
L 331.723636 235.420239 
L 333.937715 239.36 
L 335.330909 242.206911 
L 336.090318 243.84 
L 338.173596 248.32 
L 338.938182 249.964203 
L 340.256891 252.8 
L 342.340166 257.28 
L 342.545455 257.721462 
L 344.42345 261.76 
L 346.152727 265.478741 
L 346.506725 266.24 
L 348.590009 270.72 
L 349.76 273.478478 
L 350.40804 275.2 
L 351.628309 279.68 
L 352.810014 284.16 
L 353.367273 286.46832 
L 353.878013 288.64 
L 354.77301 293.12 
L 355.668001 297.6 
L 356.563001 302.08 
L 356.974545 304.140033 
L 357.457994 306.56 
L 358.352987 311.04 
L 359.247985 315.52 
L 360.142973 320 
L 360.581818 322.196692 
L 361.037966 324.48 
L 361.932963 328.96 
L 362.827948 333.44 
L 363.722928 337.92 
L 364.189091 340.253416 
L 364.617929 342.4 
L 365.27934 346.88 
L 365.763244 351.36 
L 365.946375 355.84 
L 365.86289 360.32 
L 365.779678 364.8 
L 365.694463 369.28 
L 365.334718 373.76 
L 364.943363 378.24 
L 364.552061 382.72 
L 364.189091 386.875598 
L 364.160766 387.2 
L 363.769439 391.68 
L 363.378134 396.16 
L 362.986829 400.64 
L 362.595519 405.12 
L 362.204203 409.6 
L 361.812902 414.08 
L 361.421592 418.56 
L 361.030285 423.04 
L 360.638975 427.52 
L 360.581818 428.174379 
L 360.247669 432 
L 359.856352 436.48 
L 359.465037 440.96 
L 359.073743 445.44 
L 358.682435 449.92 
L 358.126105 454.4 
L 357.43678 458.88 
L 356.974545 461.884162 
L 356.747464 463.36 
L 356.058127 467.84 
L 355.368803 472.32 
L 354.679466 476.8 
L 353.99016 481.28 
L 353.367273 485.328186 
L 353.300831 485.76 
L 352.611511 490.24 
L 351.922189 494.72 
L 351.232863 499.2 
L 350.54354 503.68 
L 349.854208 508.16 
L 349.76 508.772284 
L 349.147548 512.64 
z
" style="fill:#b2ccfb;"/>
   </g>
   <g id="PathCollection_4">
    <path clip-path="url(#p6d6b64ae56)" d="M 306.472727 512.64 
L 310.08 512.64 
L 313.687273 512.64 
L 317.294545 512.64 
L 320.901818 512.64 
L 324.509091 512.64 
L 328.116364 512.64 
L 331.723636 512.64 
L 335.330909 512.64 
L 338.938182 512.64 
L 342.545455 512.64 
L 346.152727 512.64 
L 349.147548 512.64 
L 349.76 508.772284 
L 349.854208 508.16 
L 350.54354 503.68 
L 351.232863 499.2 
L 351.922189 494.72 
L 352.611511 490.24 
L 353.300831 485.76 
L 353.367273 485.328186 
L 353.99016 481.28 
L 354.679466 476.8 
L 355.368803 472.32 
L 356.058127 467.84 
L 356.747464 463.36 
L 356.974545 461.884162 
L 357.43678 458.88 
L 358.126105 454.4 
L 358.682435 449.92 
L 359.073743 445.44 
L 359.465037 440.96 
L 359.856352 436.48 
L 360.247669 432 
L 360.581818 428.174379 
L 360.638975 427.52 
L 361.030285 423.04 
L 361.421592 418.56 
L 361.812902 414.08 
L 362.204203 409.6 
L 362.595519 405.12 
L 362.986829 400.64 
L 363.378134 396.16 
L 363.769439 391.68 
L 364.160766 387.2 
L 364.189091 386.875598 
L 364.552061 382.72 
L 364.943363 378.24 
L 365.334718 373.76 
L 365.694463 369.28 
L 365.779678 364.8 
L 365.86289 360.32 
L 365.946375 355.84 
L 365.763244 351.36 
L 365.27934 346.88 
L 364.617929 342.4 
L 364.189091 340.253416 
L 363.722928 337.92 
L 362.827948 333.44 
L 361.932963 328.96 
L 361.037966 324.48 
L 360.581818 322.196692 
L 360.142973 320 
L 359.247985 315.52 
L 358.352987 311.04 
L 357.457994 306.56 
L 356.974545 304.140033 
L 356.563001 302.08 
L 355.668001 297.6 
L 354.77301 293.12 
L 353.878013 288.64 
L 353.367273 286.46832 
L 352.810014 284.16 
L 351.628309 279.68 
L 350.40804 275.2 
L 349.76 273.478478 
L 348.590009 270.72 
L 346.506725 266.24 
L 346.152727 265.478741 
L 344.42345 261.76 
L 342.545455 257.721462 
L 342.340166 257.28 
L 340.256891 252.8 
L 338.938182 249.964203 
L 338.173596 248.32 
L 336.090318 243.84 
L 335.330909 242.206911 
L 333.937715 239.36 
L 331.723636 235.420239 
L 331.40301 234.88 
L 328.744186 230.4 
L 328.116364 229.342155 
L 325.884621 225.92 
L 324.509091 223.988642 
L 322.687522 221.44 
L 320.901818 218.941539 
L 319.48557 216.96 
L 317.294545 213.894436 
L 316.283618 212.48 
L 313.687273 208.847333 
L 313.081666 208 
L 310.08 203.80023 
L 309.868815 203.52 
L 306.472727 199.524424 
L 306.031483 199.04 
L 302.865455 195.564145 
L 301.950822 194.56 
L 299.258182 191.60384 
L 297.854539 190.08 
L 295.650909 187.919922 
L 292.96939 185.6 
L 292.043636 184.841089 
L 288.436364 182.334702 
L 286.688123 181.12 
L 284.829091 179.888989 
L 281.221818 177.851301 
L 278.910843 176.64 
L 277.614545 175.960545 
L 274.007273 174.069792 
L 270.4 172.179039 
L 270.363677 172.16 
L 266.792727 170.288275 
L 263.185455 168.397513 
L 261.816547 167.68 
L 259.578182 166.50676 
L 255.970909 164.616004 
L 253.269381 163.2 
L 252.363636 162.725252 
L 248.756364 160.834472 
L 245.149091 158.943693 
L 244.639908 158.72 
L 241.541818 157.401513 
L 237.934545 156.011499 
L 234.327273 154.621471 
L 233.042408 154.24 
L 230.72 153.631419 
L 227.112727 153.17985 
L 223.505455 152.92566 
L 219.898182 152.794407 
L 216.290909 152.663155 
L 212.683636 152.531913 
L 209.076364 152.400671 
L 205.469091 152.269416 
L 201.861818 152.138176 
L 198.254545 152.023441 
L 194.647273 151.918131 
L 191.04 151.835991 
L 187.432727 151.754793 
L 183.825455 151.673576 
L 180.218182 151.592374 
L 176.610909 151.511157 
L 173.003636 151.429946 
L 169.396364 151.348749 
L 165.789091 151.46483 
L 162.181818 151.770125 
L 158.574545 152.075417 
L 154.967273 152.380716 
L 151.36 152.686006 
L 147.752727 152.991306 
L 144.145455 153.296599 
L 140.538182 153.601904 
L 136.930909 153.907199 
L 133.323636 154.212488 
L 132.998568 154.24 
L 129.716364 154.517791 
L 126.109091 155.144458 
L 122.501818 155.839768 
L 118.894545 156.535087 
L 115.287273 157.230409 
L 111.68 157.925724 
L 108.072727 158.621052 
L 107.559386 158.72 
L 104.465455 159.316363 
L 100.858182 160.01169 
L 97.250909 160.70702 
L 93.643636 161.402337 
L 90.036364 162.241121 
L 86.586614 163.2 
L 86.429091 163.243784 
L 82.821818 164.246402 
L 79.214545 165.249041 
L 75.607273 166.251679 
L 72 167.254311 
L 72 167.68 
L 72 172.16 
L 72 176.64 
L 72 181.12 
L 72 185.6 
L 72 190.08 
L 72 194.56 
L 72 199.04 
L 72 203.52 
L 72 208 
L 72 212.48 
L 72 216.96 
L 72 221.44 
L 72 223.917651 
L 75.607273 221.931014 
L 76.498841 221.44 
L 79.214545 219.944378 
L 82.821818 217.957736 
L 84.949544 216.96 
L 86.429091 216.307804 
L 90.036364 214.787559 
L 93.643636 213.267314 
L 95.5118 212.48 
L 97.250909 211.792848 
L 100.858182 210.693734 
L 104.465455 209.700833 
L 108.072727 208.727627 
L 111.68 208.083037 
L 112.159521 208 
L 115.287273 207.458379 
L 118.894545 206.833713 
L 122.501818 206.205548 
L 126.109091 205.578056 
L 129.716364 204.94778 
L 133.323636 204.34189 
L 136.930909 204.089175 
L 140.538182 203.837906 
L 144.145455 203.58664 
L 145.102162 203.52 
L 147.752727 203.335373 
L 151.36 203.084107 
L 154.967273 202.832841 
L 158.574545 202.581577 
L 162.181818 202.330309 
L 165.789091 202.391358 
L 169.396364 202.506305 
L 173.003636 202.621255 
L 176.610909 202.736199 
L 180.218182 202.851149 
L 183.825455 202.966091 
L 187.432727 203.081044 
L 191.04 203.195984 
L 194.647273 203.310937 
L 198.254545 203.425885 
L 201.20798 203.52 
L 201.861818 203.540948 
L 205.469091 203.78827 
L 209.076364 204.724393 
L 212.683636 205.82951 
L 216.290909 207.204463 
L 218.378055 208 
L 219.898182 208.57941 
L 223.505455 209.954351 
L 227.112727 211.329296 
L 230.014838 212.48 
L 230.72 212.768055 
L 234.327273 214.611805 
L 237.934545 216.455565 
L 238.921468 216.96 
L 241.541818 218.299316 
L 245.149091 220.143083 
L 247.686485 221.44 
L 248.756364 222.029844 
L 252.363636 224.40165 
L 254.616108 225.92 
L 255.970909 226.83325 
L 259.578182 229.26486 
L 261.262152 230.4 
L 263.185455 231.777869 
L 266.792727 234.829257 
L 266.850358 234.88 
L 270.4 238.063423 
L 271.649902 239.36 
L 274.007273 241.906406 
L 275.710731 243.84 
L 277.614545 246.244518 
L 279.15911 248.32 
L 281.221818 251.091729 
L 282.493104 252.8 
L 284.829091 255.938929 
L 285.827118 257.28 
L 288.436364 260.786121 
L 289.161119 261.76 
L 292.043636 265.633333 
L 292.495115 266.24 
L 295.650909 270.480529 
L 295.829123 270.72 
L 299.144257 275.2 
L 299.258182 275.367698 
L 301.925455 279.68 
L 302.865455 281.211546 
L 304.497668 284.16 
L 306.472727 288.187639 
L 306.694555 288.64 
L 308.891446 293.12 
L 310.08 295.543746 
L 311.088343 297.6 
L 313.049767 302.08 
L 313.687273 303.938369 
L 314.559678 306.56 
L 315.794197 311.04 
L 316.785659 315.52 
L 317.294545 317.961215 
L 317.719545 320 
L 318.65343 324.48 
L 319.58731 328.96 
L 320.521195 333.44 
L 320.901818 335.265915 
L 321.455079 337.92 
L 322.388953 342.4 
L 323.322841 346.88 
L 324.256724 351.36 
L 324.509091 353.041953 
L 324.919815 355.84 
L 325.118356 360.32 
L 325.316896 364.8 
L 325.341709 369.28 
L 325.284575 373.76 
L 325.227444 378.24 
L 324.965781 382.72 
L 324.621213 387.2 
L 324.509091 388.65775 
L 324.276636 391.68 
L 323.932067 396.16 
L 323.587496 400.64 
L 323.242925 405.12 
L 322.898353 409.6 
L 322.553785 414.08 
L 322.209209 418.56 
L 321.864637 423.04 
L 321.520068 427.52 
L 321.175499 432 
L 320.901818 435.558286 
L 320.830926 436.48 
L 320.486352 440.96 
L 319.910309 445.44 
L 319.276403 449.92 
L 318.642493 454.4 
L 318.008589 458.88 
L 317.374677 463.36 
L 317.294545 463.92631 
L 316.740769 467.84 
L 316.106861 472.32 
L 315.462611 476.8 
L 314.5006 481.28 
L 313.687273 483.848941 
L 313.053163 485.76 
L 311.566644 490.24 
L 310.080122 494.72 
L 310.08 494.720368 
L 308.593603 499.2 
L 307.107076 503.68 
L 306.472727 505.591761 
L 305.620556 508.16 
L 304.13404 512.64 
z
" style="fill:#dddcdc;"/>
   </g>
   <g id="PathCollection_5">
    <path clip-path="url(#p6d6b64ae56)" d="M 266.792727 512.64 
L 270.4 512.64 
L 274.007273 512.64 
L 277.614545 512.64 
L 281.221818 512.64 
L 284.829091 512.64 
L 288.436364 512.64 
L 292.043636 512.64 
L 295.650909 512.64 
L 299.258182 512.64 
L 302.865455 512.64 
L 304.13404 512.64 
L 305.620556 508.16 
L 306.472727 505.591761 
L 307.107076 503.68 
L 308.593603 499.2 
L 310.08 494.720368 
L 310.080122 494.72 
L 311.566644 490.24 
L 313.053163 485.76 
L 313.687273 483.848941 
L 314.5006 481.28 
L 315.462611 476.8 
L 316.106861 472.32 
L 316.740769 467.84 
L 317.294545 463.92631 
L 317.374677 463.36 
L 318.008589 458.88 
L 318.642493 454.4 
L 319.276403 449.92 
L 319.910309 445.44 
L 320.486352 440.96 
L 320.830926 436.48 
L 320.901818 435.558286 
L 321.175499 432 
L 321.520068 427.52 
L 321.864637 423.04 
L 322.209209 418.56 
L 322.553785 414.08 
L 322.898353 409.6 
L 323.242925 405.12 
L 323.587496 400.64 
L 323.932067 396.16 
L 324.276636 391.68 
L 324.509091 388.65775 
L 324.621213 387.2 
L 324.965781 382.72 
L 325.227444 378.24 
L 325.284575 373.76 
L 325.341709 369.28 
L 325.316896 364.8 
L 325.118356 360.32 
L 324.919815 355.84 
L 324.509091 353.041953 
L 324.256724 351.36 
L 323.322841 346.88 
L 322.388953 342.4 
L 321.455079 337.92 
L 320.901818 335.265915 
L 320.521195 333.44 
L 319.58731 328.96 
L 318.65343 324.48 
L 317.719545 320 
L 317.294545 317.961215 
L 316.785659 315.52 
L 315.794197 311.04 
L 314.559678 306.56 
L 313.687273 303.938369 
L 313.049767 302.08 
L 311.088343 297.6 
L 310.08 295.543746 
L 308.891446 293.12 
L 306.694555 288.64 
L 306.472727 288.187639 
L 304.497668 284.16 
L 302.865455 281.211546 
L 301.925455 279.68 
L 299.258182 275.367698 
L 299.144257 275.2 
L 295.829123 270.72 
L 295.650909 270.480529 
L 292.495115 266.24 
L 292.043636 265.633333 
L 289.161119 261.76 
L 288.436364 260.786121 
L 285.827118 257.28 
L 284.829091 255.938929 
L 282.493104 252.8 
L 281.221818 251.091729 
L 279.15911 248.32 
L 277.614545 246.244518 
L 275.710731 243.84 
L 274.007273 241.906406 
L 271.649902 239.36 
L 270.4 238.063423 
L 266.850358 234.88 
L 266.792727 234.829257 
L 263.185455 231.777869 
L 261.262152 230.4 
L 259.578182 229.26486 
L 255.970909 226.83325 
L 254.616108 225.92 
L 252.363636 224.40165 
L 248.756364 222.029844 
L 247.686485 221.44 
L 245.149091 220.143083 
L 241.541818 218.299316 
L 238.921468 216.96 
L 237.934545 216.455565 
L 234.327273 214.611805 
L 230.72 212.768055 
L 230.014838 212.48 
L 227.112727 211.329296 
L 223.505455 209.954351 
L 219.898182 208.57941 
L 218.378055 208 
L 216.290909 207.204463 
L 212.683636 205.82951 
L 209.076364 204.724393 
L 205.469091 203.78827 
L 201.861818 203.540948 
L 201.20798 203.52 
L 198.254545 203.425885 
L 194.647273 203.310937 
L 191.04 203.195984 
L 187.432727 203.081044 
L 183.825455 202.966091 
L 180.218182 202.851149 
L 176.610909 202.736199 
L 173.003636 202.621255 
L 169.396364 202.506305 
L 165.789091 202.391358 
L 162.181818 202.330309 
L 158.574545 202.581577 
L 154.967273 202.832841 
L 151.36 203.084107 
L 147.752727 203.335373 
L 145.102162 203.52 
L 144.145455 203.58664 
L 140.538182 203.837906 
L 136.930909 204.089175 
L 133.323636 204.34189 
L 129.716364 204.94778 
L 126.109091 205.578056 
L 122.501818 206.205548 
L 118.894545 206.833713 
L 115.287273 207.458379 
L 112.159521 208 
L 111.68 208.083037 
L 108.072727 208.727627 
L 104.465455 209.700833 
L 100.858182 210.693734 
L 97.250909 211.792848 
L 95.5118 212.48 
L 93.643636 213.267314 
L 90.036364 214.787559 
L 86.429091 216.307804 
L 84.949544 216.96 
L 82.821818 217.957736 
L 79.214545 219.944378 
L 76.498841 221.44 
L 75.607273 221.931014 
L 72 223.917651 
L 72 225.92 
L 72 230.4 
L 72 234.88 
L 72 239.36 
L 72 243.84 
L 72 248.32 
L 72 252.8 
L 72 257.28 
L 72 261.76 
L 72 266.24 
L 72 270.72 
L 72 275.2 
L 72 276.818489 
L 73.343148 275.2 
L 75.607273 272.471727 
L 77.060982 270.72 
L 79.214545 268.124954 
L 80.997055 266.24 
L 82.821818 264.529181 
L 86.429091 261.810309 
L 86.512589 261.76 
L 90.036364 259.817311 
L 93.643636 257.82859 
L 94.63871 257.28 
L 97.250909 255.839882 
L 100.858182 253.851163 
L 102.764862 252.8 
L 104.465455 251.891234 
L 108.072727 250.260463 
L 111.68 248.736756 
L 112.666639 248.32 
L 115.287273 247.213043 
L 118.894545 245.689331 
L 122.501818 244.375981 
L 124.754735 243.84 
L 126.109091 243.545369 
L 129.716364 242.915091 
L 133.323636 242.284815 
L 136.930909 241.738541 
L 140.538182 241.487276 
L 144.145455 241.236008 
L 147.752727 240.984746 
L 151.36 240.733476 
L 154.967273 240.482212 
L 158.574545 240.230942 
L 162.181818 240.296933 
L 165.789091 240.411882 
L 169.396364 240.526826 
L 173.003636 240.641778 
L 176.610909 240.756722 
L 180.218182 240.871668 
L 183.825455 241.135261 
L 187.432727 241.768316 
L 191.04 242.735239 
L 194.647273 243.702158 
L 195.161518 243.84 
L 198.254545 244.66908 
L 201.861818 245.780788 
L 205.469091 247.155735 
L 208.523629 248.32 
L 209.076364 248.530679 
L 212.683636 249.905625 
L 216.290909 251.280571 
L 219.898182 252.655511 
L 220.185774 252.8 
L 223.505455 254.681891 
L 227.112727 257.113498 
L 227.359732 257.28 
L 230.72 259.545115 
L 234.005765 261.76 
L 234.327273 261.976723 
L 237.934545 264.511729 
L 240.023001 266.24 
L 241.541818 267.577293 
L 245.111133 270.72 
L 245.149091 270.753421 
L 248.756364 273.929565 
L 250.135782 275.2 
L 252.363636 277.468407 
L 254.16492 279.68 
L 255.970909 282.046985 
L 257.54341 284.16 
L 259.578182 286.894188 
L 260.877405 288.64 
L 263.185455 291.741395 
L 264.211411 293.12 
L 266.792727 296.588595 
L 267.545411 297.6 
L 270.4 301.435796 
L 270.879414 302.08 
L 274.007273 306.283002 
L 274.213414 306.56 
L 277.547423 311.04 
L 277.614545 311.136878 
L 280.352733 315.52 
L 281.221818 317.15254 
L 282.485791 320 
L 283.814409 324.48 
L 284.829091 327.957026 
L 285.121785 328.96 
L 286.429164 333.44 
L 287.736545 337.92 
L 288.436364 340.420559 
L 288.951271 342.4 
L 289.885152 346.88 
L 290.819035 351.36 
L 291.509747 355.84 
L 292.043636 359.676007 
L 292.133266 360.32 
L 292.604394 364.8 
L 292.802932 369.28 
L 293.001476 373.76 
L 293.162202 378.24 
L 293.105068 382.72 
L 293.038807 387.2 
L 292.711381 391.68 
L 292.366811 396.16 
L 292.043636 400.361829 
L 292.022241 400.64 
L 291.677671 405.12 
L 291.3331 409.6 
L 290.98853 414.08 
L 290.643958 418.56 
L 290.299388 423.04 
L 289.954817 427.52 
L 289.610246 432 
L 289.08501 436.48 
L 288.451105 440.96 
L 288.436364 441.064182 
L 287.758531 445.44 
L 286.714256 449.92 
L 285.54225 454.4 
L 284.829091 456.616167 
L 284.077925 458.88 
L 282.591401 463.36 
L 281.221818 467.487589 
L 281.104884 467.84 
L 279.618367 472.32 
L 278.131851 476.8 
L 277.614545 478.359027 
L 276.645326 481.28 
L 275.158803 485.76 
L 274.007273 489.230422 
L 273.672283 490.24 
L 272.185762 494.72 
L 270.699247 499.2 
L 270.4 500.101856 
L 269.186588 503.68 
L 267.360875 508.16 
L 266.792727 509.36869 
L 265.096434 512.64 
z
" style="fill:#f6bfa6;"/>
   </g>
   <g id="PathCollection_6">
    <path clip-path="url(#p6d6b64ae56)" d="M 75.607273 512.64 
L 79.214545 512.64 
L 82.821818 512.64 
L 86.429091 512.64 
L 90.036364 512.64 
L 93.643636 512.64 
L 97.250909 512.64 
L 100.858182 512.64 
L 104.465455 512.64 
L 108.072727 512.64 
L 111.68 512.64 
L 115.287273 512.64 
L 118.894545 512.64 
L 122.501818 512.64 
L 122.528972 512.64 
L 122.501818 512.616306 
L 118.894545 509.468604 
L 117.394885 508.16 
L 115.287273 506.320899 
L 112.260802 503.68 
L 111.68 503.173191 
L 108.072727 500.025487 
L 107.126716 499.2 
L 104.465455 496.877784 
L 101.99263 494.72 
L 100.858182 493.730084 
L 97.250909 490.582376 
L 96.858545 490.24 
L 93.643636 487.434675 
L 91.724459 485.76 
L 90.036364 484.286969 
L 86.7164 481.28 
L 86.429091 480.992665 
L 82.821818 477.043928 
L 82.598984 476.8 
L 79.214545 473.095197 
L 78.511354 472.32 
L 75.607273 468.70193 
L 74.99333 467.84 
L 72 463.637586 
L 72 467.84 
L 72 472.32 
L 72 476.8 
L 72 481.28 
L 72 485.76 
L 72 490.24 
L 72 494.72 
L 72 499.2 
L 72 503.68 
L 72 508.16 
L 72 512.64 
z
" style="fill:#f08a6c;"/>
    <path clip-path="url(#p6d6b64ae56)" d="M 209.076364 512.64 
L 212.683636 512.64 
L 216.290909 512.64 
L 219.898182 512.64 
L 223.505455 512.64 
L 227.112727 512.64 
L 230.72 512.64 
L 234.327273 512.64 
L 237.934545 512.64 
L 241.541818 512.64 
L 245.149091 512.64 
L 248.756364 512.64 
L 252.363636 512.64 
L 255.970909 512.64 
L 259.578182 512.64 
L 263.185455 512.64 
L 265.096434 512.64 
L 266.792727 509.36869 
L 267.360875 508.16 
L 269.186588 503.68 
L 270.4 500.101856 
L 270.699247 499.2 
L 272.185762 494.72 
L 273.672283 490.24 
L 274.007273 489.230422 
L 275.158803 485.76 
L 276.645326 481.28 
L 277.614545 478.359027 
L 278.131851 476.8 
L 279.618367 472.32 
L 281.104884 467.84 
L 281.221818 467.487589 
L 282.591401 463.36 
L 284.077925 458.88 
L 284.829091 456.616167 
L 285.54225 454.4 
L 286.714256 449.92 
L 287.758531 445.44 
L 288.436364 441.064182 
L 288.451105 440.96 
L 289.08501 436.48 
L 289.610246 432 
L 289.954817 427.52 
L 290.299388 423.04 
L 290.643958 418.56 
L 290.98853 414.08 
L 291.3331 409.6 
L 291.677671 405.12 
L 292.022241 400.64 
L 292.043636 400.361829 
L 292.366811 396.16 
L 292.711381 391.68 
L 293.038807 387.2 
L 293.105068 382.72 
L 293.162202 378.24 
L 293.001476 373.76 
L 292.802932 369.28 
L 292.604394 364.8 
L 292.133266 360.32 
L 292.043636 359.676007 
L 291.509747 355.84 
L 290.819035 351.36 
L 289.885152 346.88 
L 288.951271 342.4 
L 288.436364 340.420559 
L 287.736545 337.92 
L 286.429164 333.44 
L 285.121785 328.96 
L 284.829091 327.957026 
L 283.814409 324.48 
L 282.485791 320 
L 281.221818 317.15254 
L 280.352733 315.52 
L 277.614545 311.136878 
L 277.547423 311.04 
L 274.213414 306.56 
L 274.007273 306.283002 
L 270.879414 302.08 
L 270.4 301.435796 
L 267.545411 297.6 
L 266.792727 296.588595 
L 264.211411 293.12 
L 263.185455 291.741395 
L 260.877405 288.64 
L 259.578182 286.894188 
L 257.54341 284.16 
L 255.970909 282.046985 
L 254.16492 279.68 
L 252.363636 277.468407 
L 250.135782 275.2 
L 248.756364 273.929565 
L 245.149091 270.753421 
L 245.111133 270.72 
L 241.541818 267.577293 
L 240.023001 266.24 
L 237.934545 264.511729 
L 234.327273 261.976723 
L 234.005765 261.76 
L 230.72 259.545115 
L 227.359732 257.28 
L 227.112727 257.113498 
L 223.505455 254.681891 
L 220.185774 252.8 
L 219.898182 252.655511 
L 216.290909 251.280571 
L 212.683636 249.905625 
L 209.076364 248.530679 
L 208.523629 248.32 
L 205.469091 247.155735 
L 201.861818 245.780788 
L 198.254545 244.66908 
L 195.161518 243.84 
L 194.647273 243.702158 
L 191.04 242.735239 
L 187.432727 241.768316 
L 183.825455 241.135261 
L 180.218182 240.871668 
L 176.610909 240.756722 
L 173.003636 240.641778 
L 169.396364 240.526826 
L 165.789091 240.411882 
L 162.181818 240.296933 
L 158.574545 240.230942 
L 154.967273 240.482212 
L 151.36 240.733476 
L 147.752727 240.984746 
L 144.145455 241.236008 
L 140.538182 241.487276 
L 136.930909 241.738541 
L 133.323636 242.284815 
L 129.716364 242.915091 
L 126.109091 243.545369 
L 124.754735 243.84 
L 122.501818 244.375981 
L 118.894545 245.689331 
L 115.287273 247.213043 
L 112.666639 248.32 
L 111.68 248.736756 
L 108.072727 250.260463 
L 104.465455 251.891234 
L 102.764862 252.8 
L 100.858182 253.851163 
L 97.250909 255.839882 
L 94.63871 257.28 
L 93.643636 257.82859 
L 90.036364 259.817311 
L 86.512589 261.76 
L 86.429091 261.810309 
L 82.821818 264.529181 
L 80.997055 266.24 
L 79.214545 268.124954 
L 77.060982 270.72 
L 75.607273 272.471727 
L 73.343148 275.2 
L 72 276.818489 
L 72 279.68 
L 72 284.16 
L 72 288.64 
L 72 293.12 
L 72 297.6 
L 72 302.08 
L 72 306.56 
L 72 311.04 
L 72 315.52 
L 72 320 
L 72 324.48 
L 72 328.96 
L 72 333.44 
L 72 337.92 
L 72 342.4 
L 72 346.88 
L 72 347.216985 
L 72.146698 346.88 
L 74.35684 342.4 
L 75.607273 339.99833 
L 76.689357 337.92 
L 79.102755 333.44 
L 79.214545 333.247816 
L 81.908034 328.96 
L 82.821818 327.505326 
L 84.722244 324.48 
L 86.429091 321.762835 
L 87.591599 320 
L 90.036364 316.786548 
L 91.087441 315.52 
L 93.643636 312.439784 
L 94.805281 311.04 
L 97.250909 308.093013 
L 98.523117 306.56 
L 100.858182 303.746254 
L 102.286693 302.08 
L 104.465455 299.770713 
L 107.221494 297.6 
L 108.072727 296.994545 
L 111.68 294.428801 
L 113.520094 293.12 
L 115.287273 291.899896 
L 118.894545 289.687805 
L 120.795133 288.64 
L 122.501818 287.699089 
L 126.109091 285.757414 
L 129.716364 284.162766 
L 129.722911 284.16 
L 133.323636 282.657328 
L 136.930909 281.483517 
L 140.538182 280.525954 
L 144.145455 279.84107 
L 144.993814 279.68 
L 147.752727 279.156191 
L 151.36 278.524625 
L 154.967273 278.131584 
L 158.574545 278.202512 
L 162.181818 278.498404 
L 165.789091 278.933472 
L 168.998583 279.68 
L 169.396364 279.779171 
L 173.003636 280.74609 
L 176.610909 281.713006 
L 180.218182 282.679932 
L 183.825455 283.646852 
L 185.739842 284.16 
L 187.432727 284.613775 
L 191.04 285.732057 
L 194.647273 287.194957 
L 197.555689 288.64 
L 198.254545 289.008241 
L 201.861818 290.908983 
L 205.469091 292.80972 
L 206.057949 293.12 
L 209.076364 294.736234 
L 212.683636 297.185557 
L 213.195637 297.6 
L 216.290909 300.325336 
L 218.283762 302.08 
L 219.898182 303.501462 
L 223.371895 306.56 
L 223.505455 306.680273 
L 227.112727 310.318017 
L 227.765345 311.04 
L 230.72 314.308698 
L 231.814929 315.52 
L 234.327273 318.299364 
L 235.778629 320 
L 237.934545 322.696662 
L 239.261699 324.48 
L 241.541818 327.543866 
L 242.595703 328.96 
L 245.149091 332.391065 
L 245.929705 333.44 
L 248.756364 337.662967 
L 248.92176 337.92 
L 251.437025 342.4 
L 252.363636 344.334366 
L 253.583062 346.88 
L 255.582986 351.36 
L 255.970909 352.847711 
L 256.64734 355.84 
L 257.621637 360.32 
L 258.595933 364.8 
L 259.570229 369.28 
L 259.578182 369.326039 
L 260.276079 373.76 
L 260.487509 378.24 
L 260.68605 382.72 
L 260.884595 387.2 
L 260.925564 391.68 
L 260.80156 396.16 
L 260.456987 400.64 
L 260.112414 405.12 
L 259.767846 409.6 
L 259.578182 410.962036 
L 259.102492 414.08 
L 258.375716 418.56 
L 257.648941 423.04 
L 256.580566 427.52 
L 255.970909 429.383423 
L 255.102692 432 
L 253.61617 436.48 
L 252.363636 440.254813 
L 252.129647 440.96 
L 250.643132 445.44 
L 249.156615 449.92 
L 248.756364 451.126252 
L 247.670088 454.4 
L 246.183571 458.88 
L 245.149091 461.997658 
L 244.697048 463.36 
L 243.210529 467.84 
L 241.541818 472.267142 
L 241.517493 472.32 
L 238.996803 476.8 
L 237.934545 478.68794 
L 236.476111 481.28 
L 234.327273 485.099099 
L 233.955414 485.76 
L 231.434731 490.24 
L 230.72 491.510282 
L 228.914036 494.72 
L 227.112727 497.921445 
L 226.34688 499.2 
L 223.505455 503.158364 
L 223.016494 503.68 
L 219.898182 506.180618 
L 217.05994 508.16 
L 216.290909 508.667002 
L 212.683636 510.908229 
L 209.076364 512.293591 
L 208.102181 512.64 
z
" style="fill:#f08a6c;"/>
   </g>
   <g id="PathCollection_7">
    <path clip-path="url(#p6d6b64ae56)" d="M 118.894545 509.468604 
L 122.501818 512.616306 
L 122.528972 512.64 
L 126.109091 512.64 
L 129.716364 512.64 
L 133.323636 512.64 
L 136.930909 512.64 
L 140.538182 512.64 
L 144.145455 512.64 
L 147.752727 512.64 
L 151.36 512.64 
L 154.967273 512.64 
L 158.574545 512.64 
L 162.181818 512.64 
L 165.789091 512.64 
L 169.396364 512.64 
L 173.003636 512.64 
L 176.610909 512.64 
L 180.218182 512.64 
L 183.825455 512.64 
L 187.432727 512.64 
L 191.04 512.64 
L 194.647273 512.64 
L 198.254545 512.64 
L 201.861818 512.64 
L 205.469091 512.64 
L 208.102181 512.64 
L 209.076364 512.293591 
L 212.683636 510.908229 
L 216.290909 508.667002 
L 217.05994 508.16 
L 219.898182 506.180618 
L 223.016494 503.68 
L 223.505455 503.158364 
L 226.34688 499.2 
L 227.112727 497.921445 
L 228.914036 494.72 
L 230.72 491.510282 
L 231.434731 490.24 
L 233.955414 485.76 
L 234.327273 485.099099 
L 236.476111 481.28 
L 237.934545 478.68794 
L 238.996803 476.8 
L 241.517493 472.32 
L 241.541818 472.267142 
L 243.210529 467.84 
L 244.697048 463.36 
L 245.149091 461.997658 
L 246.183571 458.88 
L 247.670088 454.4 
L 248.756364 451.126252 
L 249.156615 449.92 
L 250.643132 445.44 
L 252.129647 440.96 
L 252.363636 440.254813 
L 253.61617 436.48 
L 255.102692 432 
L 255.970909 429.383423 
L 256.580566 427.52 
L 257.648941 423.04 
L 258.375716 418.56 
L 259.102492 414.08 
L 259.578182 410.962036 
L 259.767846 409.6 
L 260.112414 405.12 
L 260.456987 400.64 
L 260.80156 396.16 
L 260.925564 391.68 
L 260.884595 387.2 
L 260.68605 382.72 
L 260.487509 378.24 
L 260.276079 373.76 
L 259.578182 369.326039 
L 259.570229 369.28 
L 258.595933 364.8 
L 257.621637 360.32 
L 256.64734 355.84 
L 255.970909 352.847711 
L 255.582986 351.36 
L 253.583062 346.88 
L 252.363636 344.334366 
L 251.437025 342.4 
L 248.92176 337.92 
L 248.756364 337.662967 
L 245.929705 333.44 
L 245.149091 332.391065 
L 242.595703 328.96 
L 241.541818 327.543866 
L 239.261699 324.48 
L 237.934545 322.696662 
L 235.778629 320 
L 234.327273 318.299364 
L 231.814929 315.52 
L 230.72 314.308698 
L 227.765345 311.04 
L 227.112727 310.318017 
L 223.505455 306.680273 
L 223.371895 306.56 
L 219.898182 303.501462 
L 218.283762 302.08 
L 216.290909 300.325336 
L 213.195637 297.6 
L 212.683636 297.185557 
L 209.076364 294.736234 
L 206.057949 293.12 
L 205.469091 292.80972 
L 201.861818 290.908983 
L 198.254545 289.008241 
L 197.555689 288.64 
L 194.647273 287.194957 
L 191.04 285.732057 
L 187.432727 284.613775 
L 185.739842 284.16 
L 183.825455 283.646852 
L 180.218182 282.679932 
L 176.610909 281.713006 
L 173.003636 280.74609 
L 169.396364 279.779171 
L 168.998583 279.68 
L 165.789091 278.933472 
L 162.181818 278.498404 
L 158.574545 278.202512 
L 154.967273 278.131584 
L 151.36 278.524625 
L 147.752727 279.156191 
L 144.993814 279.68 
L 144.145455 279.84107 
L 140.538182 280.525954 
L 136.930909 281.483517 
L 133.323636 282.657328 
L 129.722911 284.16 
L 129.716364 284.162766 
L 126.109091 285.757414 
L 122.501818 287.699089 
L 120.795133 288.64 
L 118.894545 289.687805 
L 115.287273 291.899896 
L 113.520094 293.12 
L 111.68 294.428801 
L 108.072727 296.994545 
L 107.221494 297.6 
L 104.465455 299.770713 
L 102.286693 302.08 
L 100.858182 303.746254 
L 98.523117 306.56 
L 97.250909 308.093013 
L 94.805281 311.04 
L 93.643636 312.439784 
L 91.087441 315.52 
L 90.036364 316.786548 
L 87.591599 320 
L 86.429091 321.762835 
L 84.722244 324.48 
L 82.821818 327.505326 
L 81.908034 328.96 
L 79.214545 333.247816 
L 79.102755 333.44 
L 76.689357 337.92 
L 75.607273 339.99833 
L 74.35684 342.4 
L 72.146698 346.88 
L 72 347.216985 
L 72 351.36 
L 72 355.84 
L 72 360.32 
L 72 364.8 
L 72 369.28 
L 72 373.76 
L 72 378.24 
L 72 382.72 
L 72 387.2 
L 72 391.68 
L 72 396.16 
L 72 400.64 
L 72 405.12 
L 72 409.6 
L 72 414.08 
L 72 418.56 
L 72 423.04 
L 72 427.52 
L 72 432 
L 72 436.48 
L 72 440.96 
L 72 445.44 
L 72 449.92 
L 72 454.4 
L 72 458.88 
L 72 463.36 
L 72 463.637586 
L 74.99333 467.84 
L 75.607273 468.70193 
L 78.511354 472.32 
L 79.214545 473.095197 
L 82.598984 476.8 
L 82.821818 477.043928 
L 86.429091 480.992665 
L 86.7164 481.28 
L 90.036364 484.286969 
L 91.724459 485.76 
L 93.643636 487.434675 
L 96.858545 490.24 
L 97.250909 490.582376 
L 100.858182 493.730084 
L 101.99263 494.72 
L 104.465455 496.877784 
L 107.126716 499.2 
L 108.072727 500.025487 
L 111.68 503.173191 
L 112.260802 503.68 
L 115.287273 506.320899 
L 117.394885 508.16 
z
" style="fill:#cd423b;"/>
   </g>
   <g id="matplotlib.axis_1">
    <g id="xtick_1">
     <g id="line2d_1">
      <defs>
       <path d="M 0 0 
L 0 3.5 
" id="m30f27988e5" style="stroke:#000000;stroke-width:0.8;"/>
      </defs>
      <g>
       <use style="stroke:#000000;stroke-width:0.8;" x="72" xlink:href="#m30f27988e5" y="512.64"/>
      </g>
     </g>
     <g id="text_1">
      <!-- −0.50 -->
      <defs>
       <path d="M 10.59375 35.5 
L 73.1875 35.5 
L 73.1875 27.203125 
L 10.59375 27.203125 
z
" id="DejaVuSans-8722"/>
       <path d="M 31.78125 66.40625 
Q 24.171875 66.40625 20.328125 58.90625 
Q 16.5 51.421875 16.5 36.375 
Q 16.5 21.390625 20.328125 13.890625 
Q 24.171875 6.390625 31.78125 6.390625 
Q 39.453125 6.390625 43.28125 13.890625 
Q 47.125 21.390625 47.125 36.375 
Q 47.125 51.421875 43.28125 58.90625 
Q 39.453125 66.40625 31.78125 66.40625 
z
M 31.78125 74.21875 
Q 44.046875 74.21875 50.515625 64.515625 
Q 56.984375 54.828125 56.984375 36.375 
Q 56.984375 17.96875 50.515625 8.265625 
Q 44.046875 -1.421875 31.78125 -1.421875 
Q 19.53125 -1.421875 13.0625 8.265625 
Q 6.59375 17.96875 6.59375 36.375 
Q 6.59375 54.828125 13.0625 64.515625 
Q 19.53125 74.21875 31.78125 74.21875 
z
" id="DejaVuSans-48"/>
       <path d="M 10.6875 12.40625 
L 21 12.40625 
L 21 0 
L 10.6875 0 
z
" id="DejaVuSans-46"/>
       <path d="M 10.796875 72.90625 
L 49.515625 72.90625 
L 49.515625 64.59375 
L 19.828125 64.59375 
L 19.828125 46.734375 
Q 21.96875 47.46875 24.109375 47.828125 
Q 26.265625 48.1875 28.421875 48.1875 
Q 40.625 48.1875 47.75 41.5 
Q 54.890625 34.8125 54.890625 23.390625 
Q 54.890625 11.625 47.5625 5.09375 
Q 40.234375 -1.421875 26.90625 -1.421875 
Q 22.3125 -1.421875 17.546875 -0.640625 
Q 12.796875 0.140625 7.71875 1.703125 
L 7.71875 11.625 
Q 12.109375 9.234375 16.796875 8.0625 
Q 21.484375 6.890625 26.703125 6.890625 
Q 35.15625 6.890625 40.078125 11.328125 
Q 45.015625 15.765625 45.015625 23.390625 
Q 45.015625 31 40.078125 35.4375 
Q 35.15625 39.890625 26.703125 39.890625 
Q 22.75 39.890625 18.8125 39.015625 
Q 14.890625 38.140625 10.796875 36.28125 
z
" id="DejaVuSans-53"/>
      </defs>
      <g transform="translate(56.677344 527.238438)scale(0.1 -0.1)">
       <use xlink:href="#DejaVuSans-8722"/>
       <use x="83.789062" xlink:href="#DejaVuSans-48"/>
       <use x="147.412109" xlink:href="#DejaVuSans-46"/>
       <use x="179.199219" xlink:href="#DejaVuSans-53"/>
       <use x="242.822266" xlink:href="#DejaVuSans-48"/>
      </g>
     </g>
    </g>
    <g id="xtick_2">
     <g id="line2d_2">
      <g>
       <use style="stroke:#000000;stroke-width:0.8;" x="116.64" xlink:href="#m30f27988e5" y="512.64"/>
      </g>
     </g>
     <g id="text_2">
      <!-- −0.25 -->
      <defs>
       <path d="M 19.1875 8.296875 
L 53.609375 8.296875 
L 53.609375 0 
L 7.328125 0 
L 7.328125 8.296875 
Q 12.9375 14.109375 22.625 23.890625 
Q 32.328125 33.6875 34.8125 36.53125 
Q 39.546875 41.84375 41.421875 45.53125 
Q 43.3125 49.21875 43.3125 52.78125 
Q 43.3125 58.59375 39.234375 62.25 
Q 35.15625 65.921875 28.609375 65.921875 
Q 23.96875 65.921875 18.8125 64.3125 
Q 13.671875 62.703125 7.8125 59.421875 
L 7.8125 69.390625 
Q 13.765625 71.78125 18.9375 73 
Q 24.125 74.21875 28.421875 74.21875 
Q 39.75 74.21875 46.484375 68.546875 
Q 53.21875 62.890625 53.21875 53.421875 
Q 53.21875 48.921875 51.53125 44.890625 
Q 49.859375 40.875 45.40625 35.40625 
Q 44.1875 33.984375 37.640625 27.21875 
Q 31.109375 20.453125 19.1875 8.296875 
z
" id="DejaVuSans-50"/>
      </defs>
      <g transform="translate(101.317344 527.238438)scale(0.1 -0.1)">
       <use xlink:href="#DejaVuSans-8722"/>
       <use x="83.789062" xlink:href="#DejaVuSans-48"/>
       <use x="147.412109" xlink:href="#DejaVuSans-46"/>
       <use x="179.199219" xlink:href="#DejaVuSans-50"/>
       <use x="242.822266" xlink:href="#DejaVuSans-53"/>
      </g>
     </g>
    </g>
    <g id="xtick_3">
     <g id="line2d_3">
      <g>
       <use style="stroke:#000000;stroke-width:0.8;" x="161.28" xlink:href="#m30f27988e5" y="512.64"/>
      </g>
     </g>
     <g id="text_3">
      <!-- 0.00 -->
      <g transform="translate(150.147188 527.238438)scale(0.1 -0.1)">
       <use xlink:href="#DejaVuSans-48"/>
       <use x="63.623047" xlink:href="#DejaVuSans-46"/>
       <use x="95.410156" xlink:href="#DejaVuSans-48"/>
       <use x="159.033203" xlink:href="#DejaVuSans-48"/>
      </g>
     </g>
    </g>
    <g id="xtick_4">
     <g id="line2d_4">
      <g>
       <use style="stroke:#000000;stroke-width:0.8;" x="205.92" xlink:href="#m30f27988e5" y="512.64"/>
      </g>
     </g>
     <g id="text_4">
      <!-- 0.25 -->
      <g transform="translate(194.787188 527.238438)scale(0.1 -0.1)">
       <use xlink:href="#DejaVuSans-48"/>
       <use x="63.623047" xlink:href="#DejaVuSans-46"/>
       <use x="95.410156" xlink:href="#DejaVuSans-50"/>
       <use x="159.033203" xlink:href="#DejaVuSans-53"/>
      </g>
     </g>
    </g>
    <g id="xtick_5">
     <g id="line2d_5">
      <g>
       <use style="stroke:#000000;stroke-width:0.8;" x="250.56" xlink:href="#m30f27988e5" y="512.64"/>
      </g>
     </g>
     <g id="text_5">
      <!-- 0.50 -->
      <g transform="translate(239.427188 527.238438)scale(0.1 -0.1)">
       <use xlink:href="#DejaVuSans-48"/>
       <use x="63.623047" xlink:href="#DejaVuSans-46"/>
       <use x="95.410156" xlink:href="#DejaVuSans-53"/>
       <use x="159.033203" xlink:href="#DejaVuSans-48"/>
      </g>
     </g>
    </g>
    <g id="xtick_6">
     <g id="line2d_6">
      <g>
       <use style="stroke:#000000;stroke-width:0.8;" x="295.2" xlink:href="#m30f27988e5" y="512.64"/>
      </g>
     </g>
     <g id="text_6">
      <!-- 0.75 -->
      <defs>
       <path d="M 8.203125 72.90625 
L 55.078125 72.90625 
L 55.078125 68.703125 
L 28.609375 0 
L 18.3125 0 
L 43.21875 64.59375 
L 8.203125 64.59375 
z
" id="DejaVuSans-55"/>
      </defs>
      <g transform="translate(284.067188 527.238438)scale(0.1 -0.1)">
       <use xlink:href="#DejaVuSans-48"/>
       <use x="63.623047" xlink:href="#DejaVuSans-46"/>
       <use x="95.410156" xlink:href="#DejaVuSans-55"/>
       <use x="159.033203" xlink:href="#DejaVuSans-53"/>
      </g>
     </g>
    </g>
    <g id="xtick_7">
     <g id="line2d_7">
      <g>
       <use style="stroke:#000000;stroke-width:0.8;" x="339.84" xlink:href="#m30f27988e5" y="512.64"/>
      </g>
     </g>
     <g id="text_7">
      <!-- 1.00 -->
      <defs>
       <path d="M 12.40625 8.296875 
L 28.515625 8.296875 
L 28.515625 63.921875 
L 10.984375 60.40625 
L 10.984375 69.390625 
L 28.421875 72.90625 
L 38.28125 72.90625 
L 38.28125 8.296875 
L 54.390625 8.296875 
L 54.390625 0 
L 12.40625 0 
z
" id="DejaVuSans-49"/>
      </defs>
      <g transform="translate(328.707188 527.238438)scale(0.1 -0.1)">
       <use xlink:href="#DejaVuSans-49"/>
       <use x="63.623047" xlink:href="#DejaVuSans-46"/>
       <use x="95.410156" xlink:href="#DejaVuSans-48"/>
       <use x="159.033203" xlink:href="#DejaVuSans-48"/>
      </g>
     </g>
    </g>
    <g id="xtick_8">
     <g id="line2d_8">
      <g>
       <use style="stroke:#000000;stroke-width:0.8;" x="384.48" xlink:href="#m30f27988e5" y="512.64"/>
      </g>
     </g>
     <g id="text_8">
      <!-- 1.25 -->
      <g transform="translate(373.347188 527.238438)scale(0.1 -0.1)">
       <use xlink:href="#DejaVuSans-49"/>
       <use x="63.623047" xlink:href="#DejaVuSans-46"/>
       <use x="95.410156" xlink:href="#DejaVuSans-50"/>
       <use x="159.033203" xlink:href="#DejaVuSans-53"/>
      </g>
     </g>
    </g>
    <g id="xtick_9">
     <g id="line2d_9">
      <g>
       <use style="stroke:#000000;stroke-width:0.8;" x="429.12" xlink:href="#m30f27988e5" y="512.64"/>
      </g>
     </g>
     <g id="text_9">
      <!-- 1.50 -->
      <g transform="translate(417.987188 527.238438)scale(0.1 -0.1)">
       <use xlink:href="#DejaVuSans-49"/>
       <use x="63.623047" xlink:href="#DejaVuSans-46"/>
       <use x="95.410156" xlink:href="#DejaVuSans-53"/>
       <use x="159.033203" xlink:href="#DejaVuSans-48"/>
      </g>
     </g>
    </g>
   </g>
   <g id="matplotlib.axis_2">
    <g id="ytick_1">
     <g id="line2d_10">
      <defs>
       <path d="M 0 0 
L -3.5 0 
" id="m14d3d550e5" style="stroke:#000000;stroke-width:0.8;"/>
      </defs>
      <g>
       <use style="stroke:#000000;stroke-width:0.8;" x="72" xlink:href="#m14d3d550e5" y="512.64"/>
      </g>
     </g>
     <g id="text_10">
      <!-- −0.50 -->
      <g transform="translate(34.354687 516.439219)scale(0.1 -0.1)">
       <use xlink:href="#DejaVuSans-8722"/>
       <use x="83.789062" xlink:href="#DejaVuSans-48"/>
       <use x="147.412109" xlink:href="#DejaVuSans-46"/>
       <use x="179.199219" xlink:href="#DejaVuSans-53"/>
       <use x="242.822266" xlink:href="#DejaVuSans-48"/>
      </g>
     </g>
    </g>
    <g id="ytick_2">
     <g id="line2d_11">
      <g>
       <use style="stroke:#000000;stroke-width:0.8;" x="72" xlink:href="#m14d3d550e5" y="457.2"/>
      </g>
     </g>
     <g id="text_11">
      <!-- −0.25 -->
      <g transform="translate(34.354687 460.999219)scale(0.1 -0.1)">
       <use xlink:href="#DejaVuSans-8722"/>
       <use x="83.789062" xlink:href="#DejaVuSans-48"/>
       <use x="147.412109" xlink:href="#DejaVuSans-46"/>
       <use x="179.199219" xlink:href="#DejaVuSans-50"/>
       <use x="242.822266" xlink:href="#DejaVuSans-53"/>
      </g>
     </g>
    </g>
    <g id="ytick_3">
     <g id="line2d_12">
      <g>
       <use style="stroke:#000000;stroke-width:0.8;" x="72" xlink:href="#m14d3d550e5" y="401.76"/>
      </g>
     </g>
     <g id="text_12">
      <!-- 0.00 -->
      <g transform="translate(42.734375 405.559219)scale(0.1 -0.1)">
       <use xlink:href="#DejaVuSans-48"/>
       <use x="63.623047" xlink:href="#DejaVuSans-46"/>
       <use x="95.410156" xlink:href="#DejaVuSans-48"/>
       <use x="159.033203" xlink:href="#DejaVuSans-48"/>
      </g>
     </g>
    </g>
    <g id="ytick_4">
     <g id="line2d_13">
      <g>
       <use style="stroke:#000000;stroke-width:0.8;" x="72" xlink:href="#m14d3d550e5" y="346.32"/>
      </g>
     </g>
     <g id="text_13">
      <!-- 0.25 -->
      <g transform="translate(42.734375 350.119219)scale(0.1 -0.1)">
       <use xlink:href="#DejaVuSans-48"/>
       <use x="63.623047" xlink:href="#DejaVuSans-46"/>
       <use x="95.410156" xlink:href="#DejaVuSans-50"/>
       <use x="159.033203" xlink:href="#DejaVuSans-53"/>
      </g>
     </g>
    </g>
    <g id="ytick_5">
     <g id="line2d_14">
      <g>
       <use style="stroke:#000000;stroke-width:0.8;" x="72" xlink:href="#m14d3d550e5" y="290.88"/>
      </g>
     </g>
     <g id="text_14">
      <!-- 0.50 -->
      <g transform="translate(42.734375 294.679219)scale(0.1 -0.1)">
       <use xlink:href="#DejaVuSans-48"/>
       <use x="63.623047" xlink:href="#DejaVuSans-46"/>
       <use x="95.410156" xlink:href="#DejaVuSans-53"/>
       <use x="159.033203" xlink:href="#DejaVuSans-48"/>
      </g>
     </g>
    </g>
    <g id="ytick_6">
     <g id="line2d_15">
      <g>
       <use style="stroke:#000000;stroke-width:0.8;" x="72" xlink:href="#m14d3d550e5" y="235.44"/>
      </g>
     </g>
     <g id="text_15">
      <!-- 0.75 -->
      <g transform="translate(42.734375 239.239219)scale(0.1 -0.1)">
       <use xlink:href="#DejaVuSans-48"/>
       <use x="63.623047" xlink:href="#DejaVuSans-46"/>
       <use x="95.410156" xlink:href="#DejaVuSans-55"/>
       <use x="159.033203" xlink:href="#DejaVuSans-53"/>
      </g>
     </g>
    </g>
    <g id="ytick_7">
     <g id="line2d_16">
      <g>
       <use style="stroke:#000000;stroke-width:0.8;" x="72" xlink:href="#m14d3d550e5" y="180"/>
      </g>
     </g>
     <g id="text_16">
      <!-- 1.00 -->
      <g transform="translate(42.734375 183.799219)scale(0.1 -0.1)">
       <use xlink:href="#DejaVuSans-49"/>
       <use x="63.623047" xlink:href="#DejaVuSans-46"/>
       <use x="95.410156" xlink:href="#DejaVuSans-48"/>
       <use x="159.033203" xlink:href="#DejaVuSans-48"/>
      </g>
     </g>
    </g>
    <g id="ytick_8">
     <g id="line2d_17">
      <g>
       <use style="stroke:#000000;stroke-width:0.8;" x="72" xlink:href="#m14d3d550e5" y="124.56"/>
      </g>
     </g>
     <g id="text_17">
      <!-- 1.25 -->
      <g transform="translate(42.734375 128.359219)scale(0.1 -0.1)">
       <use xlink:href="#DejaVuSans-49"/>
       <use x="63.623047" xlink:href="#DejaVuSans-46"/>
       <use x="95.410156" xlink:href="#DejaVuSans-50"/>
       <use x="159.033203" xlink:href="#DejaVuSans-53"/>
      </g>
     </g>
    </g>
    <g id="ytick_9">
     <g id="line2d_18">
      <g>
       <use style="stroke:#000000;stroke-width:0.8;" x="72" xlink:href="#m14d3d550e5" y="69.12"/>
      </g>
     </g>
     <g id="text_18">
      <!-- 1.50 -->
      <g transform="translate(42.734375 72.919219)scale(0.1 -0.1)">
       <use xlink:href="#DejaVuSans-49"/>
       <use x="63.623047" xlink:href="#DejaVuSans-46"/>
       <use x="95.410156" xlink:href="#DejaVuSans-53"/>
       <use x="159.033203" xlink:href="#DejaVuSans-48"/>
      </g>
     </g>
    </g>
   </g>
   <g id="patch_3">
    <path d="M 72 512.64 
L 72 69.12 
" style="fill:none;stroke:#000000;stroke-linecap:square;stroke-linejoin:miter;stroke-width:0.8;"/>
   </g>
   <g id="patch_4">
    <path d="M 429.12 512.64 
L 429.12 69.12 
" style="fill:none;stroke:#000000;stroke-linecap:square;stroke-linejoin:miter;stroke-width:0.8;"/>
   </g>
   <g id="patch_5">
    <path d="M 72 512.64 
L 429.12 512.64 
" style="fill:none;stroke:#000000;stroke-linecap:square;stroke-linejoin:miter;stroke-width:0.8;"/>
   </g>
   <g id="patch_6">
    <path d="M 72 69.12 
L 429.12 69.12 
" style="fill:none;stroke:#000000;stroke-linecap:square;stroke-linejoin:miter;stroke-width:0.8;"/>
   </g>
  </g>
  <g id="axes_2">
   <g id="patch_7">
    <path clip-path="url(#p4fb3a463db)" d="M 451.44 512.64 
L 451.44 449.28 
L 451.44 132.48 
L 451.44 69.12 
L 473.616 69.12 
L 473.616 132.48 
L 473.616 449.28 
L 473.616 512.64 
z
" style="fill:#ffffff;stroke:#ffffff;stroke-linejoin:miter;stroke-width:0.01;"/>
   </g>
   <g id="QuadMesh_1">
    <path clip-path="url(#p4fb3a463db)" d="M 451.44 512.64 
L 473.616 512.64 
L 473.616 449.28 
L 451.44 449.28 
L 451.44 512.64 
" style="fill:#506bda;"/>
    <path clip-path="url(#p4fb3a463db)" d="M 451.44 449.28 
L 473.616 449.28 
L 473.616 385.92 
L 451.44 385.92 
L 451.44 449.28 
" style="fill:#80a3fa;"/>
    <path clip-path="url(#p4fb3a463db)" d="M 451.44 385.92 
L 473.616 385.92 
L 473.616 322.56 
L 451.44 322.56 
L 451.44 385.92 
" style="fill:#b2ccfb;"/>
    <path clip-path="url(#p4fb3a463db)" d="M 451.44 322.56 
L 473.616 322.56 
L 473.616 259.2 
L 451.44 259.2 
L 451.44 322.56 
" style="fill:#dddcdc;"/>
    <path clip-path="url(#p4fb3a463db)" d="M 451.44 259.2 
L 473.616 259.2 
L 473.616 195.84 
L 451.44 195.84 
L 451.44 259.2 
" style="fill:#f6bfa6;"/>
    <path clip-path="url(#p4fb3a463db)" d="M 451.44 195.84 
L 473.616 195.84 
L 473.616 132.48 
L 451.44 132.48 
L 451.44 195.84 
" style="fill:#f08a6c;"/>
    <path clip-path="url(#p4fb3a463db)" d="M 451.44 132.48 
L 473.616 132.48 
L 473.616 69.12 
L 451.44 69.12 
L 451.44 132.48 
" style="fill:#cd423b;"/>
   </g>
   <g id="matplotlib.axis_3"/>
   <g id="matplotlib.axis_4">
    <g id="ytick_10">
     <g id="line2d_19">
      <defs>
       <path d="M 0 0 
L 3.5 0 
" id="m5797e6c412" style="stroke:#000000;stroke-width:0.8;"/>
      </defs>
      <g>
       <use style="stroke:#000000;stroke-width:0.8;" x="473.616" xlink:href="#m5797e6c412" y="512.64"/>
      </g>
     </g>
     <g id="text_19">
      <!-- −40 -->
      <defs>
       <path d="M 37.796875 64.3125 
L 12.890625 25.390625 
L 37.796875 25.390625 
z
M 35.203125 72.90625 
L 47.609375 72.90625 
L 47.609375 25.390625 
L 58.015625 25.390625 
L 58.015625 17.1875 
L 47.609375 17.1875 
L 47.609375 0 
L 37.796875 0 
L 37.796875 17.1875 
L 4.890625 17.1875 
L 4.890625 26.703125 
z
" id="DejaVuSans-52"/>
      </defs>
      <g transform="translate(480.616 516.439219)scale(0.1 -0.1)">
       <use xlink:href="#DejaVuSans-8722"/>
       <use x="83.789062" xlink:href="#DejaVuSans-52"/>
       <use x="147.412109" xlink:href="#DejaVuSans-48"/>
      </g>
     </g>
    </g>
    <g id="ytick_11">
     <g id="line2d_20">
      <g>
       <use style="stroke:#000000;stroke-width:0.8;" x="473.616" xlink:href="#m5797e6c412" y="449.28"/>
      </g>
     </g>
     <g id="text_20">
      <!-- −32 -->
      <defs>
       <path d="M 40.578125 39.3125 
Q 47.65625 37.796875 51.625 33 
Q 55.609375 28.21875 55.609375 21.1875 
Q 55.609375 10.40625 48.1875 4.484375 
Q 40.765625 -1.421875 27.09375 -1.421875 
Q 22.515625 -1.421875 17.65625 -0.515625 
Q 12.796875 0.390625 7.625 2.203125 
L 7.625 11.71875 
Q 11.71875 9.328125 16.59375 8.109375 
Q 21.484375 6.890625 26.8125 6.890625 
Q 36.078125 6.890625 40.9375 10.546875 
Q 45.796875 14.203125 45.796875 21.1875 
Q 45.796875 27.640625 41.28125 31.265625 
Q 36.765625 34.90625 28.71875 34.90625 
L 20.21875 34.90625 
L 20.21875 43.015625 
L 29.109375 43.015625 
Q 36.375 43.015625 40.234375 45.921875 
Q 44.09375 48.828125 44.09375 54.296875 
Q 44.09375 59.90625 40.109375 62.90625 
Q 36.140625 65.921875 28.71875 65.921875 
Q 24.65625 65.921875 20.015625 65.03125 
Q 15.375 64.15625 9.8125 62.3125 
L 9.8125 71.09375 
Q 15.4375 72.65625 20.34375 73.4375 
Q 25.25 74.21875 29.59375 74.21875 
Q 40.828125 74.21875 47.359375 69.109375 
Q 53.90625 64.015625 53.90625 55.328125 
Q 53.90625 49.265625 50.4375 45.09375 
Q 46.96875 40.921875 40.578125 39.3125 
z
" id="DejaVuSans-51"/>
      </defs>
      <g transform="translate(480.616 453.079219)scale(0.1 -0.1)">
       <use xlink:href="#DejaVuSans-8722"/>
       <use x="83.789062" xlink:href="#DejaVuSans-51"/>
       <use x="147.412109" xlink:href="#DejaVuSans-50"/>
      </g>
     </g>
    </g>
    <g id="ytick_12">
     <g id="line2d_21">
      <g>
       <use style="stroke:#000000;stroke-width:0.8;" x="473.616" xlink:href="#m5797e6c412" y="385.92"/>
      </g>
     </g>
     <g id="text_21">
      <!-- −24 -->
      <g transform="translate(480.616 389.719219)scale(0.1 -0.1)">
       <use xlink:href="#DejaVuSans-8722"/>
       <use x="83.789062" xlink:href="#DejaVuSans-50"/>
       <use x="147.412109" xlink:href="#DejaVuSans-52"/>
      </g>
     </g>
    </g>
    <g id="ytick_13">
     <g id="line2d_22">
      <g>
       <use style="stroke:#000000;stroke-width:0.8;" x="473.616" xlink:href="#m5797e6c412" y="322.56"/>
      </g>
     </g>
     <g id="text_22">
      <!-- −16 -->
      <defs>
       <path d="M 33.015625 40.375 
Q 26.375 40.375 22.484375 35.828125 
Q 18.609375 31.296875 18.609375 23.390625 
Q 18.609375 15.53125 22.484375 10.953125 
Q 26.375 6.390625 33.015625 6.390625 
Q 39.65625 6.390625 43.53125 10.953125 
Q 47.40625 15.53125 47.40625 23.390625 
Q 47.40625 31.296875 43.53125 35.828125 
Q 39.65625 40.375 33.015625 40.375 
z
M 52.59375 71.296875 
L 52.59375 62.3125 
Q 48.875 64.0625 45.09375 64.984375 
Q 41.3125 65.921875 37.59375 65.921875 
Q 27.828125 65.921875 22.671875 59.328125 
Q 17.53125 52.734375 16.796875 39.40625 
Q 19.671875 43.65625 24.015625 45.921875 
Q 28.375 48.1875 33.59375 48.1875 
Q 44.578125 48.1875 50.953125 41.515625 
Q 57.328125 34.859375 57.328125 23.390625 
Q 57.328125 12.15625 50.6875 5.359375 
Q 44.046875 -1.421875 33.015625 -1.421875 
Q 20.359375 -1.421875 13.671875 8.265625 
Q 6.984375 17.96875 6.984375 36.375 
Q 6.984375 53.65625 15.1875 63.9375 
Q 23.390625 74.21875 37.203125 74.21875 
Q 40.921875 74.21875 44.703125 73.484375 
Q 48.484375 72.75 52.59375 71.296875 
z
" id="DejaVuSans-54"/>
      </defs>
      <g transform="translate(480.616 326.359219)scale(0.1 -0.1)">
       <use xlink:href="#DejaVuSans-8722"/>
       <use x="83.789062" xlink:href="#DejaVuSans-49"/>
       <use x="147.412109" xlink:href="#DejaVuSans-54"/>
      </g>
     </g>
    </g>
    <g id="ytick_14">
     <g id="line2d_23">
      <g>
       <use style="stroke:#000000;stroke-width:0.8;" x="473.616" xlink:href="#m5797e6c412" y="259.2"/>
      </g>
     </g>
     <g id="text_23">
      <!-- −8 -->
      <defs>
       <path d="M 31.78125 34.625 
Q 24.75 34.625 20.71875 30.859375 
Q 16.703125 27.09375 16.703125 20.515625 
Q 16.703125 13.921875 20.71875 10.15625 
Q 24.75 6.390625 31.78125 6.390625 
Q 38.8125 6.390625 42.859375 10.171875 
Q 46.921875 13.96875 46.921875 20.515625 
Q 46.921875 27.09375 42.890625 30.859375 
Q 38.875 34.625 31.78125 34.625 
z
M 21.921875 38.8125 
Q 15.578125 40.375 12.03125 44.71875 
Q 8.5 49.078125 8.5 55.328125 
Q 8.5 64.0625 14.71875 69.140625 
Q 20.953125 74.21875 31.78125 74.21875 
Q 42.671875 74.21875 48.875 69.140625 
Q 55.078125 64.0625 55.078125 55.328125 
Q 55.078125 49.078125 51.53125 44.71875 
Q 48 40.375 41.703125 38.8125 
Q 48.828125 37.15625 52.796875 32.3125 
Q 56.78125 27.484375 56.78125 20.515625 
Q 56.78125 9.90625 50.3125 4.234375 
Q 43.84375 -1.421875 31.78125 -1.421875 
Q 19.734375 -1.421875 13.25 4.234375 
Q 6.78125 9.90625 6.78125 20.515625 
Q 6.78125 27.484375 10.78125 32.3125 
Q 14.796875 37.15625 21.921875 38.8125 
z
M 18.3125 54.390625 
Q 18.3125 48.734375 21.84375 45.5625 
Q 25.390625 42.390625 31.78125 42.390625 
Q 38.140625 42.390625 41.71875 45.5625 
Q 45.3125 48.734375 45.3125 54.390625 
Q 45.3125 60.0625 41.71875 63.234375 
Q 38.140625 66.40625 31.78125 66.40625 
Q 25.390625 66.40625 21.84375 63.234375 
Q 18.3125 60.0625 18.3125 54.390625 
z
" id="DejaVuSans-56"/>
      </defs>
      <g transform="translate(480.616 262.999219)scale(0.1 -0.1)">
       <use xlink:href="#DejaVuSans-8722"/>
       <use x="83.789062" xlink:href="#DejaVuSans-56"/>
      </g>
     </g>
    </g>
    <g id="ytick_15">
     <g id="line2d_24">
      <g>
       <use style="stroke:#000000;stroke-width:0.8;" x="473.616" xlink:href="#m5797e6c412" y="195.84"/>
      </g>
     </g>
     <g id="text_24">
      <!-- 0 -->
      <g transform="translate(480.616 199.639219)scale(0.1 -0.1)">
       <use xlink:href="#DejaVuSans-48"/>
      </g>
     </g>
    </g>
    <g id="ytick_16">
     <g id="line2d_25">
      <g>
       <use style="stroke:#000000;stroke-width:0.8;" x="473.616" xlink:href="#m5797e6c412" y="132.48"/>
      </g>
     </g>
     <g id="text_25">
      <!-- 8 -->
      <g transform="translate(480.616 136.279219)scale(0.1 -0.1)">
       <use xlink:href="#DejaVuSans-56"/>
      </g>
     </g>
    </g>
    <g id="ytick_17">
     <g id="line2d_26">
      <g>
       <use style="stroke:#000000;stroke-width:0.8;" x="473.616" xlink:href="#m5797e6c412" y="69.12"/>
      </g>
     </g>
     <g id="text_26">
      <!-- 16 -->
      <g transform="translate(480.616 72.919219)scale(0.1 -0.1)">
       <use xlink:href="#DejaVuSans-49"/>
       <use x="63.623047" xlink:href="#DejaVuSans-54"/>
      </g>
     </g>
    </g>
   </g>
   <g id="patch_8">
    <path d="M 451.44 512.64 
L 451.44 449.28 
L 451.44 132.48 
L 451.44 69.12 
L 473.616 69.12 
L 473.616 132.48 
L 473.616 449.28 
L 473.616 512.64 
z
" style="fill:none;stroke:#000000;stroke-linejoin:miter;stroke-width:0.8;"/>
   </g>
  </g>
 </g>
 <defs>
  <clipPath id="p6d6b64ae56">
   <rect height="443.52" width="357.12" x="72" y="69.12"/>
  </clipPath>
  <clipPath id="p4fb3a463db">
   <rect height="443.52" width="22.176" x="451.44" y="69.12"/>
  </clipPath>
 </defs>
</svg>
