<?xml version="1.0" encoding="utf-8" standalone="no"?>
<!DOCTYPE svg PUBLIC "-//W3C//DTD SVG 1.1//EN"
  "http://www.w3.org/Graphics/SVG/1.1/DTD/svg11.dtd">
<!-- Created with matplotlib (https://matplotlib.org/) -->
<svg height="576pt" version="1.1" viewBox="0 0 576 576" width="576pt" xmlns="http://www.w3.org/2000/svg" xmlns:xlink="http://www.w3.org/1999/xlink">
 <defs>
  <style type="text/css">
*{stroke-linecap:butt;stroke-linejoin:round;}
  </style>
 </defs>
 <g id="figure_1">
  <g id="patch_1">
   <path d="M 0 576 
L 576 576 
L 576 0 
L 0 0 
z
" style="fill:#ffffff;"/>
  </g>
  <g id="axes_1">
   <g id="patch_2">
    <path d="M 72 512.64 
L 518.4 512.64 
L 518.4 69.12 
L 72 69.12 
z
" style="fill:#ffffff;"/>
   </g>
   <g id="PathCollection_1">
    <path clip-path="url(#p0044be300d)" d="M 73.069063 391.68 
L 76.509091 388.904179 
L 78.621051 387.2 
L 81.018182 385.265714 
L 84.173029 382.72 
L 85.527273 381.627235 
L 89.725042 378.24 
L 90.036364 377.988789 
L 94.545455 374.350318 
L 95.277031 373.76 
L 99.054545 370.711885 
L 100.829047 369.28 
L 103.563636 367.073409 
L 106.381058 364.8 
L 108.072727 363.434963 
L 111.933019 360.32 
L 112.581818 359.796472 
L 117.090909 356.158023 
L 117.485029 355.84 
L 121.6 352.519539 
L 123.037003 351.36 
L 126.109091 348.881094 
L 128.589004 346.88 
L 130.618182 345.242614 
L 134.14101 342.4 
L 135.127273 341.60417 
L 139.636364 337.965705 
L 139.693005 337.92 
L 144.145455 334.327251 
L 145.245009 333.44 
L 148.654545 330.688774 
L 150.796988 328.96 
L 153.163636 327.050312 
L 156.348981 324.48 
L 157.672727 323.411849 
L 161.900972 320 
L 162.181818 319.773381 
L 166.690909 316.134944 
L 167.452999 315.52 
L 171.2 312.496475 
L 173.004991 311.04 
L 175.709091 308.858013 
L 178.556985 306.56 
L 180.218182 305.219551 
L 184.108977 302.08 
L 184.727273 301.581087 
L 189.236364 297.942608 
L 189.660952 297.6 
L 193.745455 294.304143 
L 195.212954 293.12 
L 198.254545 290.665711 
L 200.764975 288.64 
L 202.763636 287.027243 
L 206.316949 284.16 
L 207.272727 283.388762 
L 211.781818 279.750302 
L 211.868942 279.68 
L 216.290909 276.111851 
L 217.420956 275.2 
L 220.8 272.473377 
L 222.972925 270.72 
L 225.309091 268.834915 
L 228.524941 266.24 
L 229.818182 265.196463 
L 234.076933 261.76 
L 234.327273 261.557996 
L 238.836364 257.919535 
L 239.62893 257.28 
L 243.345455 254.28107 
L 245.180927 252.8 
L 247.854545 250.64261 
L 250.732915 248.32 
L 252.363636 247.004142 
L 256.284934 243.84 
L 256.872727 243.365703 
L 261.381818 239.727224 
L 261.836915 239.36 
L 265.890909 236.088753 
L 267.388894 234.88 
L 270.4 232.450298 
L 272.940891 230.4 
L 274.909091 228.811828 
L 278.492906 225.92 
L 279.418182 225.173378 
L 283.927273 221.534906 
L 284.044887 221.44 
L 288.436364 217.89646 
L 289.596905 216.96 
L 292.945455 214.257986 
L 295.148879 212.48 
L 297.454545 210.619516 
L 299.02418 212.48 
L 300.340869 216.96 
L 300.827351 221.44 
L 301.080609 225.92 
L 301.145319 230.4 
L 301.127987 234.88 
L 301.110658 239.36 
L 301.093321 243.84 
L 301.075999 248.32 
L 301.058658 252.8 
L 301.041336 257.28 
L 301.024 261.76 
L 301.006668 266.24 
L 300.989342 270.72 
L 300.972012 275.2 
L 300.954678 279.68 
L 300.937348 284.16 
L 300.920022 288.64 
L 300.902691 293.12 
L 300.885362 297.6 
L 300.868028 302.08 
L 300.8507 306.56 
L 300.83337 311.04 
L 300.816039 315.52 
L 300.798705 320 
L 300.781378 324.48 
L 300.764041 328.96 
L 300.746711 333.44 
L 300.729381 337.92 
L 300.712053 342.4 
L 300.694723 346.88 
L 300.67739 351.36 
L 300.660061 355.84 
L 300.642733 360.32 
L 300.625402 364.8 
L 300.608073 369.28 
L 300.59074 373.76 
L 300.573411 378.24 
L 301.963636 381.865997 
L 306.472727 380.364714 
L 310.981818 378.410922 
L 311.376279 378.24 
L 315.490909 376.4571 
L 320 374.503267 
L 321.715346 373.76 
L 324.509091 372.549468 
L 329.018182 370.595691 
L 332.054606 369.28 
L 333.527273 368.64189 
L 338.036364 366.688051 
L 342.393726 364.8 
L 342.545455 364.734256 
L 347.054545 362.78046 
L 351.563636 360.826671 
L 352.732956 360.32 
L 356.072727 358.872849 
L 360.581818 356.919017 
L 363.072025 355.84 
L 365.090909 354.965216 
L 369.6 353.01143 
L 373.411224 351.36 
L 374.109091 351.057612 
L 378.618182 349.103809 
L 381.31258 346.88 
L 383.127273 344.918887 
L 385.163262 342.4 
L 387.636364 339.340326 
L 388.784396 337.92 
L 392.145455 333.761773 
L 392.405541 333.44 
L 396.026696 328.96 
L 396.654545 328.183235 
L 399.647816 324.48 
L 401.163636 322.604662 
L 403.26896 320 
L 404.620446 315.52 
L 404.559366 311.04 
L 404.443667 306.56 
L 404.327983 302.08 
L 404.212301 297.6 
L 404.096606 293.12 
L 403.980923 288.64 
L 403.865246 284.16 
L 403.749562 279.68 
L 403.633857 275.2 
L 403.518188 270.72 
L 403.402506 266.24 
L 403.286815 261.76 
L 403.171127 257.28 
L 403.055444 252.8 
L 402.939767 248.32 
L 402.824079 243.84 
L 402.708392 239.36 
L 402.592715 234.88 
L 402.477013 230.4 
L 402.361335 225.92 
L 402.245658 221.44 
L 402.129978 216.96 
L 401.163636 214.626725 
L 398.45309 212.48 
L 396.654545 211.116542 
L 392.543493 208 
L 392.145455 207.698249 
L 387.636364 204.279913 
L 386.633961 203.52 
L 383.127273 200.861601 
L 380.724428 199.04 
L 378.618182 197.44326 
L 374.814913 194.56 
L 374.109091 194.024918 
L 369.6 190.606638 
L 368.905315 190.08 
L 365.090909 187.188301 
L 362.995791 185.6 
L 360.581818 183.769979 
L 357.086256 181.12 
L 356.072727 180.351651 
L 351.563636 176.933304 
L 351.176738 176.64 
L 347.054545 173.515016 
L 345.267152 172.16 
L 342.545455 170.096691 
L 339.35764 167.68 
L 338.036364 166.678346 
L 333.527273 163.26003 
L 333.448086 163.2 
L 329.018182 159.841703 
L 327.538556 158.72 
L 324.509091 156.399714 
L 321.706147 154.24 
L 320 152.917158 
L 315.928099 149.76 
L 315.490909 149.421024 
L 311.954882 145.28 
L 310.981818 143.893491 
L 309.512531 140.8 
L 307.384718 136.32 
L 306.472727 134.399847 
L 305.256906 131.84 
L 303.129091 127.36 
L 301.963636 124.277156 
L 301.427879 122.88 
L 299.819265 118.4 
L 298.21063 113.92 
L 297.454545 111.814306 
L 296.602015 109.44 
L 294.993425 104.96 
L 293.3848 100.48 
L 292.945455 99.256428 
L 291.776177 96 
L 290.167566 91.52 
L 288.558934 87.04 
L 288.436364 86.69864 
L 286.95033 82.56 
L 285.34172 78.08 
L 283.927273 74.140729 
L 283.733117 73.6 
L 282.124496 69.12 
L 279.418182 69.12 
L 274.909091 69.12 
L 270.4 69.12 
L 265.890909 69.12 
L 261.381818 69.12 
L 256.872727 69.12 
L 252.363636 69.12 
L 247.854545 69.12 
L 243.345455 69.12 
L 238.836364 69.12 
L 234.327273 69.12 
L 229.818182 69.12 
L 225.309091 69.12 
L 220.8 69.12 
L 216.290909 69.12 
L 211.781818 69.12 
L 207.272727 69.12 
L 202.763636 69.12 
L 198.254545 69.12 
L 193.745455 69.12 
L 189.236364 69.12 
L 184.727273 69.12 
L 180.218182 69.12 
L 175.709091 69.12 
L 171.2 69.12 
L 166.690909 69.12 
L 162.181818 69.12 
L 157.672727 69.12 
L 153.163636 69.12 
L 148.654545 69.12 
L 144.145455 69.12 
L 139.636364 69.12 
L 135.127273 69.12 
L 130.618182 69.12 
L 126.109091 69.12 
L 121.6 69.12 
L 117.090909 69.12 
L 112.581818 69.12 
L 108.072727 69.12 
L 103.563636 69.12 
L 99.054545 69.12 
L 94.545455 69.12 
L 90.036364 69.12 
L 85.527273 69.12 
L 81.018182 69.12 
L 76.509091 69.12 
L 72 69.12 
L 72 73.6 
L 72 78.08 
L 72 82.56 
L 72 87.04 
L 72 91.52 
L 72 96 
L 72 100.48 
L 72 104.96 
L 72 109.44 
L 72 113.92 
L 72 118.4 
L 72 122.88 
L 72 127.36 
L 72 131.84 
L 72 136.32 
L 72 140.8 
L 72 145.28 
L 72 149.76 
L 72 154.24 
L 72 158.72 
L 72 163.2 
L 72 167.68 
L 72 172.16 
L 72 176.64 
L 72 181.12 
L 72 185.6 
L 72 190.08 
L 72 194.56 
L 72 199.04 
L 72 203.52 
L 72 208 
L 72 212.48 
L 72 216.96 
L 72 221.44 
L 72 225.92 
L 72 230.4 
L 72 234.88 
L 72 239.36 
L 72 243.84 
L 72 248.32 
L 72 252.8 
L 72 257.28 
L 72 261.76 
L 72 266.24 
L 72 270.72 
L 72 275.2 
L 72 279.68 
L 72 284.16 
L 72 288.64 
L 72 293.12 
L 72 297.6 
L 72 302.08 
L 72 306.56 
L 72 311.04 
L 72 315.52 
L 72 320 
L 72 324.48 
L 72 328.96 
L 72 333.44 
L 72 337.92 
L 72 342.4 
L 72 346.88 
L 72 351.36 
L 72 355.84 
L 72 360.32 
L 72 364.8 
L 72 369.28 
L 72 373.76 
L 72 378.24 
L 72 382.72 
L 72 387.2 
L 72 391.68 
L 72 392.542648 
z
" style="fill:#8db0fe;"/>
   </g>
   <g id="PathCollection_2">
    <path clip-path="url(#p0044be300d)" d="M 76.509091 512.64 
L 81.018182 512.64 
L 85.527273 512.64 
L 90.036364 512.64 
L 94.545455 512.64 
L 99.054545 512.64 
L 103.563636 512.64 
L 108.072727 512.64 
L 112.581818 512.64 
L 117.090909 512.64 
L 121.6 512.64 
L 126.109091 512.64 
L 130.618182 512.64 
L 135.127273 512.64 
L 139.636364 512.64 
L 144.145455 512.64 
L 148.654545 512.64 
L 153.163636 512.64 
L 157.672727 512.64 
L 162.181818 512.64 
L 166.690909 512.64 
L 171.2 512.64 
L 175.709091 512.64 
L 180.218182 512.64 
L 184.727273 512.64 
L 189.236364 512.64 
L 193.745455 512.64 
L 198.254545 512.64 
L 202.763636 512.64 
L 207.272727 512.64 
L 211.781818 512.64 
L 216.290909 512.64 
L 220.8 512.64 
L 225.309091 512.64 
L 229.818182 512.64 
L 234.327273 512.64 
L 238.836364 512.64 
L 243.345455 512.64 
L 247.854545 512.64 
L 252.363636 512.64 
L 256.872727 512.64 
L 261.381818 512.64 
L 265.890909 512.64 
L 270.4 512.64 
L 274.909091 512.64 
L 279.418182 512.64 
L 283.927273 512.64 
L 288.436364 512.64 
L 292.945455 512.64 
L 297.454545 512.64 
L 301.963636 512.64 
L 306.472727 512.64 
L 310.981818 512.64 
L 315.490909 512.64 
L 320 512.64 
L 324.509091 512.64 
L 329.018182 512.64 
L 333.527273 512.64 
L 338.036364 512.64 
L 342.545455 512.64 
L 347.054545 512.64 
L 351.563636 512.64 
L 356.072727 512.64 
L 360.581818 512.64 
L 365.090909 512.64 
L 369.6 512.64 
L 374.109091 512.64 
L 378.618182 512.64 
L 383.127273 512.64 
L 387.636364 512.64 
L 392.145455 512.64 
L 396.654545 512.64 
L 401.163636 512.64 
L 405.672727 512.64 
L 410.181818 512.64 
L 414.690909 512.64 
L 419.2 512.64 
L 423.709091 512.64 
L 428.218182 512.64 
L 432.727273 512.64 
L 437.236364 512.64 
L 441.745455 512.64 
L 446.254545 512.64 
L 450.763636 512.64 
L 455.272727 512.64 
L 459.781818 512.64 
L 464.290909 512.64 
L 468.8 512.64 
L 473.309091 512.64 
L 477.818182 512.64 
L 482.327273 512.64 
L 486.836364 512.64 
L 491.345455 512.64 
L 495.854545 512.64 
L 500.363636 512.64 
L 504.872727 512.64 
L 509.381818 512.64 
L 513.890909 512.64 
L 518.4 512.64 
L 518.4 508.16 
L 518.4 503.68 
L 518.4 499.2 
L 518.4 494.72 
L 518.4 490.24 
L 518.4 485.76 
L 518.4 481.28 
L 518.4 476.8 
L 518.4 472.32 
L 518.4 467.84 
L 518.4 463.36 
L 518.4 458.88 
L 518.4 454.4 
L 518.4 449.92 
L 518.4 445.44 
L 518.4 440.96 
L 518.4 436.48 
L 518.4 432 
L 518.4 427.52 
L 518.4 423.04 
L 518.4 418.56 
L 518.4 414.08 
L 518.4 409.6 
L 518.4 405.12 
L 518.4 400.64 
L 518.4 396.16 
L 518.4 391.68 
L 518.4 387.2 
L 518.4 382.72 
L 518.4 378.24 
L 518.4 373.76 
L 518.4 369.28 
L 518.4 364.8 
L 518.4 360.32 
L 518.4 355.84 
L 518.4 351.36 
L 518.4 346.88 
L 518.4 342.4 
L 518.4 337.92 
L 518.4 333.44 
L 518.4 328.96 
L 518.4 324.48 
L 518.4 320 
L 518.4 315.52 
L 518.4 311.04 
L 518.4 306.56 
L 518.4 302.08 
L 518.4 297.6 
L 518.4 293.12 
L 518.4 288.64 
L 518.4 284.16 
L 518.4 279.68 
L 518.4 275.2 
L 518.4 270.72 
L 518.4 266.24 
L 518.4 261.76 
L 518.4 257.28 
L 518.4 252.8 
L 518.4 248.32 
L 518.4 243.84 
L 518.4 239.36 
L 518.4 234.88 
L 518.4 230.4 
L 518.4 225.92 
L 518.4 221.44 
L 518.4 216.96 
L 518.4 212.48 
L 518.4 208 
L 518.4 203.52 
L 518.4 199.04 
L 518.4 194.56 
L 518.4 190.08 
L 518.4 185.6 
L 518.4 181.12 
L 518.4 176.64 
L 518.4 172.16 
L 518.4 167.68 
L 518.4 163.2 
L 518.4 158.72 
L 518.4 154.24 
L 518.4 149.76 
L 518.4 145.28 
L 518.4 140.8 
L 518.4 136.32 
L 518.4 131.84 
L 518.4 127.36 
L 518.4 122.88 
L 518.4 118.4 
L 518.4 113.92 
L 518.4 109.44 
L 518.4 104.96 
L 518.4 100.48 
L 518.4 96 
L 518.4 91.52 
L 518.4 87.04 
L 518.4 82.56 
L 518.4 78.08 
L 518.4 73.6 
L 518.4 69.12 
L 513.890909 69.12 
L 509.381818 69.12 
L 504.872727 69.12 
L 500.363636 69.12 
L 495.854545 69.12 
L 491.345455 69.12 
L 486.836364 69.12 
L 482.327273 69.12 
L 477.818182 69.12 
L 473.309091 69.12 
L 468.8 69.12 
L 464.290909 69.12 
L 459.781818 69.12 
L 455.272727 69.12 
L 450.763636 69.12 
L 446.254545 69.12 
L 441.745455 69.12 
L 437.236364 69.12 
L 432.727273 69.12 
L 428.218182 69.12 
L 423.709091 69.12 
L 419.2 69.12 
L 414.690909 69.12 
L 410.181818 69.12 
L 405.672727 69.12 
L 401.163636 69.12 
L 396.654545 69.12 
L 392.145455 69.12 
L 387.636364 69.12 
L 383.127273 69.12 
L 378.618182 69.12 
L 374.109091 69.12 
L 369.6 69.12 
L 365.090909 69.12 
L 360.581818 69.12 
L 356.072727 69.12 
L 351.563636 69.12 
L 347.054545 69.12 
L 342.545455 69.12 
L 338.036364 69.12 
L 333.527273 69.12 
L 329.018182 69.12 
L 324.509091 69.12 
L 320 69.12 
L 315.490909 69.12 
L 310.981818 69.12 
L 306.472727 69.12 
L 301.963636 69.12 
L 297.454545 69.12 
L 292.945455 69.12 
L 288.436364 69.12 
L 283.927273 69.12 
L 282.124496 69.12 
L 283.733117 73.6 
L 283.927273 74.140729 
L 285.34172 78.08 
L 286.95033 82.56 
L 288.436364 86.69864 
L 288.558934 87.04 
L 290.167566 91.52 
L 291.776177 96 
L 292.945455 99.256428 
L 293.3848 100.48 
L 294.993425 104.96 
L 296.602015 109.44 
L 297.454545 111.814306 
L 298.21063 113.92 
L 299.819265 118.4 
L 301.427879 122.88 
L 301.963636 124.277156 
L 303.129091 127.36 
L 305.256906 131.84 
L 306.472727 134.399847 
L 307.384718 136.32 
L 309.512531 140.8 
L 310.981818 143.893491 
L 311.954882 145.28 
L 315.490909 149.421024 
L 315.928099 149.76 
L 320 152.917158 
L 321.706147 154.24 
L 324.509091 156.399714 
L 327.538556 158.72 
L 329.018182 159.841703 
L 333.448086 163.2 
L 333.527273 163.26003 
L 338.036364 166.678346 
L 339.35764 167.68 
L 342.545455 170.096691 
L 345.267152 172.16 
L 347.054545 173.515016 
L 351.176738 176.64 
L 351.563636 176.933304 
L 356.072727 180.351651 
L 357.086256 181.12 
L 360.581818 183.769979 
L 362.995791 185.6 
L 365.090909 187.188301 
L 368.905315 190.08 
L 369.6 190.606638 
L 374.109091 194.024918 
L 374.814913 194.56 
L 378.618182 197.44326 
L 380.724428 199.04 
L 383.127273 200.861601 
L 386.633961 203.52 
L 387.636364 204.279913 
L 392.145455 207.698249 
L 392.543493 208 
L 396.654545 211.116542 
L 398.45309 212.48 
L 401.163636 214.626725 
L 402.129978 216.96 
L 402.245658 221.44 
L 402.361335 225.92 
L 402.477013 230.4 
L 402.592715 234.88 
L 402.708392 239.36 
L 402.824079 243.84 
L 402.939767 248.32 
L 403.055444 252.8 
L 403.171127 257.28 
L 403.286815 261.76 
L 403.402506 266.24 
L 403.518188 270.72 
L 403.633857 275.2 
L 403.749562 279.68 
L 403.865246 284.16 
L 403.980923 288.64 
L 404.096606 293.12 
L 404.212301 297.6 
L 404.327983 302.08 
L 404.443667 306.56 
L 404.559366 311.04 
L 404.620446 315.52 
L 403.26896 320 
L 401.163636 322.604662 
L 399.647816 324.48 
L 396.654545 328.183235 
L 396.026696 328.96 
L 392.405541 333.44 
L 392.145455 333.761773 
L 388.784396 337.92 
L 387.636364 339.340326 
L 385.163262 342.4 
L 383.127273 344.918887 
L 381.31258 346.88 
L 378.618182 349.103809 
L 374.109091 351.057612 
L 373.411224 351.36 
L 369.6 353.01143 
L 365.090909 354.965216 
L 363.072025 355.84 
L 360.581818 356.919017 
L 356.072727 358.872849 
L 352.732956 360.32 
L 351.563636 360.826671 
L 347.054545 362.78046 
L 342.545455 364.734256 
L 342.393726 364.8 
L 338.036364 366.688051 
L 333.527273 368.64189 
L 332.054606 369.28 
L 329.018182 370.595691 
L 324.509091 372.549468 
L 321.715346 373.76 
L 320 374.503267 
L 315.490909 376.4571 
L 311.376279 378.24 
L 310.981818 378.410922 
L 306.472727 380.364714 
L 301.963636 381.865997 
L 300.573411 378.24 
L 300.59074 373.76 
L 300.608073 369.28 
L 300.625402 364.8 
L 300.642733 360.32 
L 300.660061 355.84 
L 300.67739 351.36 
L 300.694723 346.88 
L 300.712053 342.4 
L 300.729381 337.92 
L 300.746711 333.44 
L 300.764041 328.96 
L 300.781378 324.48 
L 300.798705 320 
L 300.816039 315.52 
L 300.83337 311.04 
L 300.8507 306.56 
L 300.868028 302.08 
L 300.885362 297.6 
L 300.902691 293.12 
L 300.920022 288.64 
L 300.937348 284.16 
L 300.954678 279.68 
L 300.972012 275.2 
L 300.989342 270.72 
L 301.006668 266.24 
L 301.024 261.76 
L 301.041336 257.28 
L 301.058658 252.8 
L 301.075999 248.32 
L 301.093321 243.84 
L 301.110658 239.36 
L 301.127987 234.88 
L 301.145319 230.4 
L 301.080609 225.92 
L 300.827351 221.44 
L 300.340869 216.96 
L 299.02418 212.48 
L 297.454545 210.619516 
L 295.148879 212.48 
L 292.945455 214.257986 
L 289.596905 216.96 
L 288.436364 217.89646 
L 284.044887 221.44 
L 283.927273 221.534906 
L 279.418182 225.173378 
L 278.492906 225.92 
L 274.909091 228.811828 
L 272.940891 230.4 
L 270.4 232.450298 
L 267.388894 234.88 
L 265.890909 236.088753 
L 261.836915 239.36 
L 261.381818 239.727224 
L 256.872727 243.365703 
L 256.284934 243.84 
L 252.363636 247.004142 
L 250.732915 248.32 
L 247.854545 250.64261 
L 245.180927 252.8 
L 243.345455 254.28107 
L 239.62893 257.28 
L 238.836364 257.919535 
L 234.327273 261.557996 
L 234.076933 261.76 
L 229.818182 265.196463 
L 228.524941 266.24 
L 225.309091 268.834915 
L 222.972925 270.72 
L 220.8 272.473377 
L 217.420956 275.2 
L 216.290909 276.111851 
L 211.868942 279.68 
L 211.781818 279.750302 
L 207.272727 283.388762 
L 206.316949 284.16 
L 202.763636 287.027243 
L 200.764975 288.64 
L 198.254545 290.665711 
L 195.212954 293.12 
L 193.745455 294.304143 
L 189.660952 297.6 
L 189.236364 297.942608 
L 184.727273 301.581087 
L 184.108977 302.08 
L 180.218182 305.219551 
L 178.556985 306.56 
L 175.709091 308.858013 
L 173.004991 311.04 
L 171.2 312.496475 
L 167.452999 315.52 
L 166.690909 316.134944 
L 162.181818 319.773381 
L 161.900972 320 
L 157.672727 323.411849 
L 156.348981 324.48 
L 153.163636 327.050312 
L 150.796988 328.96 
L 148.654545 330.688774 
L 145.245009 333.44 
L 144.145455 334.327251 
L 139.693005 337.92 
L 139.636364 337.965705 
L 135.127273 341.60417 
L 134.14101 342.4 
L 130.618182 345.242614 
L 128.589004 346.88 
L 126.109091 348.881094 
L 123.037003 351.36 
L 121.6 352.519539 
L 117.485029 355.84 
L 117.090909 356.158023 
L 112.581818 359.796472 
L 111.933019 360.32 
L 108.072727 363.434963 
L 106.381058 364.8 
L 103.563636 367.073409 
L 100.829047 369.28 
L 99.054545 370.711885 
L 95.277031 373.76 
L 94.545455 374.350318 
L 90.036364 377.988789 
L 89.725042 378.24 
L 85.527273 381.627235 
L 84.173029 382.72 
L 81.018182 385.265714 
L 78.621051 387.2 
L 76.509091 388.904179 
L 73.069063 391.68 
L 72 392.542648 
L 72 396.16 
L 72 400.64 
L 72 405.12 
L 72 409.6 
L 72 414.08 
L 72 418.56 
L 72 423.04 
L 72 427.52 
L 72 432 
L 72 436.48 
L 72 440.96 
L 72 445.44 
L 72 449.92 
L 72 454.4 
L 72 458.88 
L 72 463.36 
L 72 467.84 
L 72 472.32 
L 72 476.8 
L 72 481.28 
L 72 485.76 
L 72 490.24 
L 72 494.72 
L 72 499.2 
L 72 503.68 
L 72 508.16 
L 72 512.64 
z
" style="fill:#f4987a;"/>
   </g>
   <g id="PathCollection_3">
    <defs>
     <path d="M 0 2.738613 
C 0.726289 2.738613 1.422928 2.450055 1.936492 1.936492 
C 2.450055 1.422928 2.738613 0.726289 2.738613 0 
C 2.738613 -0.726289 2.450055 -1.422928 1.936492 -1.936492 
C 1.422928 -2.450055 0.726289 -2.738613 0 -2.738613 
C -0.726289 -2.738613 -1.422928 -2.450055 -1.936492 -1.936492 
C -2.450055 -1.422928 -2.738613 -0.726289 -2.738613 0 
C -2.738613 0.726289 -2.450055 1.422928 -1.936492 1.936492 
C -1.422928 2.450055 -0.726289 2.738613 0 2.738613 
z
" id="C0_0_66c291e9ae"/>
    </defs>
    <g clip-path="url(#p0044be300d)">
     <use style="fill:#b40426;stroke:#b40426;" x="306.015089" xlink:href="#C0_0_66c291e9ae" y="272.628014"/>
    </g>
    <g clip-path="url(#p0044be300d)">
     <use style="fill:#3b4cc0;stroke:#3b4cc0;" x="235.292472" xlink:href="#C0_0_66c291e9ae" y="229.334997"/>
    </g>
    <g clip-path="url(#p0044be300d)">
     <use style="fill:#3b4cc0;stroke:#3b4cc0;" x="347.729498" xlink:href="#C0_0_66c291e9ae" y="329.289859"/>
    </g>
    <g clip-path="url(#p0044be300d)">
     <use style="fill:#b40426;stroke:#b40426;" x="283.426561" xlink:href="#C0_0_66c291e9ae" y="229.148267"/>
    </g>
    <g clip-path="url(#p0044be300d)">
     <use style="fill:#3b4cc0;stroke:#3b4cc0;" x="332.739915" xlink:href="#C0_0_66c291e9ae" y="192.116635"/>
    </g>
    <g clip-path="url(#p0044be300d)">
     <use style="fill:#b40426;stroke:#b40426;" x="383.070595" xlink:href="#C0_0_66c291e9ae" y="339.08495"/>
    </g>
    <g clip-path="url(#p0044be300d)">
     <use style="fill:#3b4cc0;stroke:#3b4cc0;" x="312.763606" xlink:href="#C0_0_66c291e9ae" y="202.212685"/>
    </g>
    <g clip-path="url(#p0044be300d)">
     <use style="fill:#b40426;stroke:#b40426;" x="238.022073" xlink:href="#C0_0_66c291e9ae" y="379.836959"/>
    </g>
    <g clip-path="url(#p0044be300d)">
     <use style="fill:#b40426;stroke:#b40426;" x="184.878899" xlink:href="#C0_0_66c291e9ae" y="315.66266"/>
    </g>
    <g clip-path="url(#p0044be300d)">
     <use style="fill:#3b4cc0;stroke:#3b4cc0;" x="188.041041" xlink:href="#C0_0_66c291e9ae" y="269.226354"/>
    </g>
    <g clip-path="url(#p0044be300d)">
     <use style="fill:#b40426;stroke:#b40426;" x="315.031019" xlink:href="#C0_0_66c291e9ae" y="291.488573"/>
    </g>
    <g clip-path="url(#p0044be300d)">
     <use style="fill:#b40426;stroke:#b40426;" x="258.094366" xlink:href="#C0_0_66c291e9ae" y="251.665612"/>
    </g>
    <g clip-path="url(#p0044be300d)">
     <use style="fill:#b40426;stroke:#b40426;" x="291.135343" xlink:href="#C0_0_66c291e9ae" y="335.073409"/>
    </g>
    <g clip-path="url(#p0044be300d)">
     <use style="fill:#3b4cc0;stroke:#3b4cc0;" x="213.321614" xlink:href="#C0_0_66c291e9ae" y="271.756344"/>
    </g>
    <g clip-path="url(#p0044be300d)">
     <use style="fill:#3b4cc0;stroke:#3b4cc0;" x="296.136571" xlink:href="#C0_0_66c291e9ae" y="390.200049"/>
    </g>
    <g clip-path="url(#p0044be300d)">
     <use style="fill:#3b4cc0;stroke:#3b4cc0;" x="395.827314" xlink:href="#C0_0_66c291e9ae" y="310.370599"/>
    </g>
    <g clip-path="url(#p0044be300d)">
     <use style="fill:#b40426;stroke:#b40426;" x="205.724683" xlink:href="#C0_0_66c291e9ae" y="331.033429"/>
    </g>
    <g clip-path="url(#p0044be300d)">
     <use style="fill:#3b4cc0;stroke:#3b4cc0;" x="366.147804" xlink:href="#C0_0_66c291e9ae" y="348.589178"/>
    </g>
    <g clip-path="url(#p0044be300d)">
     <use style="fill:#b40426;stroke:#b40426;" x="282.898568" xlink:href="#C0_0_66c291e9ae" y="304.583652"/>
    </g>
    <g clip-path="url(#p0044be300d)">
     <use style="fill:#b40426;stroke:#b40426;" x="184.240209" xlink:href="#C0_0_66c291e9ae" y="390.6316"/>
    </g>
    <g clip-path="url(#p0044be300d)">
     <use style="fill:#3b4cc0;stroke:#3b4cc0;" x="289.361347" xlink:href="#C0_0_66c291e9ae" y="288.010071"/>
    </g>
    <g clip-path="url(#p0044be300d)">
     <use style="fill:#3b4cc0;stroke:#3b4cc0;" x="338.404469" xlink:href="#C0_0_66c291e9ae" y="314.527623"/>
    </g>
    <g clip-path="url(#p0044be300d)">
     <use style="fill:#3b4cc0;stroke:#3b4cc0;" x="240.761227" xlink:href="#C0_0_66c291e9ae" y="199.848831"/>
    </g>
    <g clip-path="url(#p0044be300d)">
     <use style="fill:#3b4cc0;stroke:#3b4cc0;" x="311.365634" xlink:href="#C0_0_66c291e9ae" y="325.352344"/>
    </g>
    <g clip-path="url(#p0044be300d)">
     <use style="fill:#3b4cc0;stroke:#3b4cc0;" x="351.575028" xlink:href="#C0_0_66c291e9ae" y="224.042063"/>
    </g>
    <g clip-path="url(#p0044be300d)">
     <use style="fill:#b40426;stroke:#b40426;" x="307.441279" xlink:href="#C0_0_66c291e9ae" y="401.236217"/>
    </g>
    <g clip-path="url(#p0044be300d)">
     <use style="fill:#b40426;stroke:#b40426;" x="227.094231" xlink:href="#C0_0_66c291e9ae" y="208.986409"/>
    </g>
    <g clip-path="url(#p0044be300d)">
     <use style="fill:#b40426;stroke:#b40426;" x="403.927932" xlink:href="#C0_0_66c291e9ae" y="345.453413"/>
    </g>
    <g clip-path="url(#p0044be300d)">
     <use style="fill:#3b4cc0;stroke:#3b4cc0;" x="196.148214" xlink:href="#C0_0_66c291e9ae" y="241.713968"/>
    </g>
    <g clip-path="url(#p0044be300d)">
     <use style="fill:#b40426;stroke:#b40426;" x="276.954084" xlink:href="#C0_0_66c291e9ae" y="359.173901"/>
    </g>
    <g clip-path="url(#p0044be300d)">
     <use style="fill:#b40426;stroke:#b40426;" x="286.297239" xlink:href="#C0_0_66c291e9ae" y="266.092886"/>
    </g>
    <g clip-path="url(#p0044be300d)">
     <use style="fill:#b40426;stroke:#b40426;" x="366.33846" xlink:href="#C0_0_66c291e9ae" y="197.314161"/>
    </g>
    <g clip-path="url(#p0044be300d)">
     <use style="fill:#b40426;stroke:#b40426;" x="388.238865" xlink:href="#C0_0_66c291e9ae" y="377.831327"/>
    </g>
    <g clip-path="url(#p0044be300d)">
     <use style="fill:#3b4cc0;stroke:#3b4cc0;" x="255.017127" xlink:href="#C0_0_66c291e9ae" y="341.780852"/>
    </g>
    <g clip-path="url(#p0044be300d)">
     <use style="fill:#3b4cc0;stroke:#3b4cc0;" x="347.956633" xlink:href="#C0_0_66c291e9ae" y="262.843603"/>
    </g>
    <g clip-path="url(#p0044be300d)">
     <use style="fill:#3b4cc0;stroke:#3b4cc0;" x="262.714481" xlink:href="#C0_0_66c291e9ae" y="182.154244"/>
    </g>
    <g clip-path="url(#p0044be300d)">
     <use style="fill:#b40426;stroke:#b40426;" x="405.367984" xlink:href="#C0_0_66c291e9ae" y="262.283823"/>
    </g>
    <g clip-path="url(#p0044be300d)">
     <use style="fill:#3b4cc0;stroke:#3b4cc0;" x="218.943316" xlink:href="#C0_0_66c291e9ae" y="247.406347"/>
    </g>
    <g clip-path="url(#p0044be300d)">
     <use style="fill:#b40426;stroke:#b40426;" x="212.165823" xlink:href="#C0_0_66c291e9ae" y="228.42185"/>
    </g>
    <g clip-path="url(#p0044be300d)">
     <use style="fill:#3b4cc0;stroke:#3b4cc0;" x="260.079413" xlink:href="#C0_0_66c291e9ae" y="291.96915"/>
    </g>
    <g clip-path="url(#p0044be300d)">
     <use style="fill:#b40426;stroke:#b40426;" x="254.521895" xlink:href="#C0_0_66c291e9ae" y="383.80356"/>
    </g>
    <g clip-path="url(#p0044be300d)">
     <use style="fill:#3b4cc0;stroke:#3b4cc0;" x="383.272825" xlink:href="#C0_0_66c291e9ae" y="286.149965"/>
    </g>
    <g clip-path="url(#p0044be300d)">
     <use style="fill:#b40426;stroke:#b40426;" x="390.069714" xlink:href="#C0_0_66c291e9ae" y="180.69402"/>
    </g>
    <g clip-path="url(#p0044be300d)">
     <use style="fill:#b40426;stroke:#b40426;" x="326.682436" xlink:href="#C0_0_66c291e9ae" y="374.534189"/>
    </g>
    <g clip-path="url(#p0044be300d)">
     <use style="fill:#3b4cc0;stroke:#3b4cc0;" x="384.150367" xlink:href="#C0_0_66c291e9ae" y="257.465532"/>
    </g>
    <g clip-path="url(#p0044be300d)">
     <use style="fill:#b40426;stroke:#b40426;" x="229.713568" xlink:href="#C0_0_66c291e9ae" y="307.452345"/>
    </g>
    <g clip-path="url(#p0044be300d)">
     <use style="fill:#3b4cc0;stroke:#3b4cc0;" x="385.334881" xlink:href="#C0_0_66c291e9ae" y="358.782049"/>
    </g>
    <g clip-path="url(#p0044be300d)">
     <use style="fill:#b40426;stroke:#b40426;" x="296.363693" xlink:href="#C0_0_66c291e9ae" y="319.028386"/>
    </g>
    <g clip-path="url(#p0044be300d)">
     <use style="fill:#3b4cc0;stroke:#3b4cc0;" x="311.164588" xlink:href="#C0_0_66c291e9ae" y="348.773102"/>
    </g>
    <g clip-path="url(#p0044be300d)">
     <use style="fill:#3b4cc0;stroke:#3b4cc0;" x="351.211756" xlink:href="#C0_0_66c291e9ae" y="244.439108"/>
    </g>
    <g clip-path="url(#p0044be300d)">
     <use style="fill:#3b4cc0;stroke:#3b4cc0;" x="202.096798" xlink:href="#C0_0_66c291e9ae" y="358.212779"/>
    </g>
    <g clip-path="url(#p0044be300d)">
     <use style="fill:#3b4cc0;stroke:#3b4cc0;" x="403.361378" xlink:href="#C0_0_66c291e9ae" y="202.351645"/>
    </g>
    <g clip-path="url(#p0044be300d)">
     <use style="fill:#b40426;stroke:#b40426;" x="234.503399" xlink:href="#C0_0_66c291e9ae" y="354.842433"/>
    </g>
    <g clip-path="url(#p0044be300d)">
     <use style="fill:#3b4cc0;stroke:#3b4cc0;" x="297.74135" xlink:href="#C0_0_66c291e9ae" y="188.581183"/>
    </g>
    <g clip-path="url(#p0044be300d)">
     <use style="fill:#b40426;stroke:#b40426;" x="270.378629" xlink:href="#C0_0_66c291e9ae" y="281.207188"/>
    </g>
    <g clip-path="url(#p0044be300d)">
     <use style="fill:#b40426;stroke:#b40426;" x="204.212619" xlink:href="#C0_0_66c291e9ae" y="398.712251"/>
    </g>
    <g clip-path="url(#p0044be300d)">
     <use style="fill:#3b4cc0;stroke:#3b4cc0;" x="369.5591" xlink:href="#C0_0_66c291e9ae" y="273.928763"/>
    </g>
    <g clip-path="url(#p0044be300d)">
     <use style="fill:#3b4cc0;stroke:#3b4cc0;" x="320.862295" xlink:href="#C0_0_66c291e9ae" y="228.136435"/>
    </g>
    <g clip-path="url(#p0044be300d)">
     <use style="fill:#b40426;stroke:#b40426;" x="246.740534" xlink:href="#C0_0_66c291e9ae" y="301.43688"/>
    </g>
    <g clip-path="url(#p0044be300d)">
     <use style="fill:#b40426;stroke:#b40426;" x="367.581709" xlink:href="#C0_0_66c291e9ae" y="384.151285"/>
    </g>
   </g>
   <g id="matplotlib.axis_1">
    <g id="xtick_1">
     <g id="line2d_1">
      <defs>
       <path d="M 0 0 
L 0 3.5 
" id="m76b1c33eef" style="stroke:#000000;stroke-width:0.8;"/>
      </defs>
      <g>
       <use style="stroke:#000000;stroke-width:0.8;" x="72" xlink:href="#m76b1c33eef" y="512.64"/>
      </g>
     </g>
     <g id="text_1">
      <!-- −0.50 -->
      <defs>
       <path d="M 10.59375 35.5 
L 73.1875 35.5 
L 73.1875 27.203125 
L 10.59375 27.203125 
z
" id="DejaVuSans-8722"/>
       <path d="M 31.78125 66.40625 
Q 24.171875 66.40625 20.328125 58.90625 
Q 16.5 51.421875 16.5 36.375 
Q 16.5 21.390625 20.328125 13.890625 
Q 24.171875 6.390625 31.78125 6.390625 
Q 39.453125 6.390625 43.28125 13.890625 
Q 47.125 21.390625 47.125 36.375 
Q 47.125 51.421875 43.28125 58.90625 
Q 39.453125 66.40625 31.78125 66.40625 
z
M 31.78125 74.21875 
Q 44.046875 74.21875 50.515625 64.515625 
Q 56.984375 54.828125 56.984375 36.375 
Q 56.984375 17.96875 50.515625 8.265625 
Q 44.046875 -1.421875 31.78125 -1.421875 
Q 19.53125 -1.421875 13.0625 8.265625 
Q 6.59375 17.96875 6.59375 36.375 
Q 6.59375 54.828125 13.0625 64.515625 
Q 19.53125 74.21875 31.78125 74.21875 
z
" id="DejaVuSans-48"/>
       <path d="M 10.6875 12.40625 
L 21 12.40625 
L 21 0 
L 10.6875 0 
z
" id="DejaVuSans-46"/>
       <path d="M 10.796875 72.90625 
L 49.515625 72.90625 
L 49.515625 64.59375 
L 19.828125 64.59375 
L 19.828125 46.734375 
Q 21.96875 47.46875 24.109375 47.828125 
Q 26.265625 48.1875 28.421875 48.1875 
Q 40.625 48.1875 47.75 41.5 
Q 54.890625 34.8125 54.890625 23.390625 
Q 54.890625 11.625 47.5625 5.09375 
Q 40.234375 -1.421875 26.90625 -1.421875 
Q 22.3125 -1.421875 17.546875 -0.640625 
Q 12.796875 0.140625 7.71875 1.703125 
L 7.71875 11.625 
Q 12.109375 9.234375 16.796875 8.0625 
Q 21.484375 6.890625 26.703125 6.890625 
Q 35.15625 6.890625 40.078125 11.328125 
Q 45.015625 15.765625 45.015625 23.390625 
Q 45.015625 31 40.078125 35.4375 
Q 35.15625 39.890625 26.703125 39.890625 
Q 22.75 39.890625 18.8125 39.015625 
Q 14.890625 38.140625 10.796875 36.28125 
z
" id="DejaVuSans-53"/>
      </defs>
      <g transform="translate(56.677344 527.238438)scale(0.1 -0.1)">
       <use xlink:href="#DejaVuSans-8722"/>
       <use x="83.789062" xlink:href="#DejaVuSans-48"/>
       <use x="147.412109" xlink:href="#DejaVuSans-46"/>
       <use x="179.199219" xlink:href="#DejaVuSans-53"/>
       <use x="242.822266" xlink:href="#DejaVuSans-48"/>
      </g>
     </g>
    </g>
    <g id="xtick_2">
     <g id="line2d_2">
      <g>
       <use style="stroke:#000000;stroke-width:0.8;" x="127.8" xlink:href="#m76b1c33eef" y="512.64"/>
      </g>
     </g>
     <g id="text_2">
      <!-- −0.25 -->
      <defs>
       <path d="M 19.1875 8.296875 
L 53.609375 8.296875 
L 53.609375 0 
L 7.328125 0 
L 7.328125 8.296875 
Q 12.9375 14.109375 22.625 23.890625 
Q 32.328125 33.6875 34.8125 36.53125 
Q 39.546875 41.84375 41.421875 45.53125 
Q 43.3125 49.21875 43.3125 52.78125 
Q 43.3125 58.59375 39.234375 62.25 
Q 35.15625 65.921875 28.609375 65.921875 
Q 23.96875 65.921875 18.8125 64.3125 
Q 13.671875 62.703125 7.8125 59.421875 
L 7.8125 69.390625 
Q 13.765625 71.78125 18.9375 73 
Q 24.125 74.21875 28.421875 74.21875 
Q 39.75 74.21875 46.484375 68.546875 
Q 53.21875 62.890625 53.21875 53.421875 
Q 53.21875 48.921875 51.53125 44.890625 
Q 49.859375 40.875 45.40625 35.40625 
Q 44.1875 33.984375 37.640625 27.21875 
Q 31.109375 20.453125 19.1875 8.296875 
z
" id="DejaVuSans-50"/>
      </defs>
      <g transform="translate(112.477344 527.238438)scale(0.1 -0.1)">
       <use xlink:href="#DejaVuSans-8722"/>
       <use x="83.789062" xlink:href="#DejaVuSans-48"/>
       <use x="147.412109" xlink:href="#DejaVuSans-46"/>
       <use x="179.199219" xlink:href="#DejaVuSans-50"/>
       <use x="242.822266" xlink:href="#DejaVuSans-53"/>
      </g>
     </g>
    </g>
    <g id="xtick_3">
     <g id="line2d_3">
      <g>
       <use style="stroke:#000000;stroke-width:0.8;" x="183.6" xlink:href="#m76b1c33eef" y="512.64"/>
      </g>
     </g>
     <g id="text_3">
      <!-- 0.00 -->
      <g transform="translate(172.467187 527.238438)scale(0.1 -0.1)">
       <use xlink:href="#DejaVuSans-48"/>
       <use x="63.623047" xlink:href="#DejaVuSans-46"/>
       <use x="95.410156" xlink:href="#DejaVuSans-48"/>
       <use x="159.033203" xlink:href="#DejaVuSans-48"/>
      </g>
     </g>
    </g>
    <g id="xtick_4">
     <g id="line2d_4">
      <g>
       <use style="stroke:#000000;stroke-width:0.8;" x="239.4" xlink:href="#m76b1c33eef" y="512.64"/>
      </g>
     </g>
     <g id="text_4">
      <!-- 0.25 -->
      <g transform="translate(228.267187 527.238438)scale(0.1 -0.1)">
       <use xlink:href="#DejaVuSans-48"/>
       <use x="63.623047" xlink:href="#DejaVuSans-46"/>
       <use x="95.410156" xlink:href="#DejaVuSans-50"/>
       <use x="159.033203" xlink:href="#DejaVuSans-53"/>
      </g>
     </g>
    </g>
    <g id="xtick_5">
     <g id="line2d_5">
      <g>
       <use style="stroke:#000000;stroke-width:0.8;" x="295.2" xlink:href="#m76b1c33eef" y="512.64"/>
      </g>
     </g>
     <g id="text_5">
      <!-- 0.50 -->
      <g transform="translate(284.067187 527.238438)scale(0.1 -0.1)">
       <use xlink:href="#DejaVuSans-48"/>
       <use x="63.623047" xlink:href="#DejaVuSans-46"/>
       <use x="95.410156" xlink:href="#DejaVuSans-53"/>
       <use x="159.033203" xlink:href="#DejaVuSans-48"/>
      </g>
     </g>
    </g>
    <g id="xtick_6">
     <g id="line2d_6">
      <g>
       <use style="stroke:#000000;stroke-width:0.8;" x="351" xlink:href="#m76b1c33eef" y="512.64"/>
      </g>
     </g>
     <g id="text_6">
      <!-- 0.75 -->
      <defs>
       <path d="M 8.203125 72.90625 
L 55.078125 72.90625 
L 55.078125 68.703125 
L 28.609375 0 
L 18.3125 0 
L 43.21875 64.59375 
L 8.203125 64.59375 
z
" id="DejaVuSans-55"/>
      </defs>
      <g transform="translate(339.867188 527.238438)scale(0.1 -0.1)">
       <use xlink:href="#DejaVuSans-48"/>
       <use x="63.623047" xlink:href="#DejaVuSans-46"/>
       <use x="95.410156" xlink:href="#DejaVuSans-55"/>
       <use x="159.033203" xlink:href="#DejaVuSans-53"/>
      </g>
     </g>
    </g>
    <g id="xtick_7">
     <g id="line2d_7">
      <g>
       <use style="stroke:#000000;stroke-width:0.8;" x="406.8" xlink:href="#m76b1c33eef" y="512.64"/>
      </g>
     </g>
     <g id="text_7">
      <!-- 1.00 -->
      <defs>
       <path d="M 12.40625 8.296875 
L 28.515625 8.296875 
L 28.515625 63.921875 
L 10.984375 60.40625 
L 10.984375 69.390625 
L 28.421875 72.90625 
L 38.28125 72.90625 
L 38.28125 8.296875 
L 54.390625 8.296875 
L 54.390625 0 
L 12.40625 0 
z
" id="DejaVuSans-49"/>
      </defs>
      <g transform="translate(395.667187 527.238438)scale(0.1 -0.1)">
       <use xlink:href="#DejaVuSans-49"/>
       <use x="63.623047" xlink:href="#DejaVuSans-46"/>
       <use x="95.410156" xlink:href="#DejaVuSans-48"/>
       <use x="159.033203" xlink:href="#DejaVuSans-48"/>
      </g>
     </g>
    </g>
    <g id="xtick_8">
     <g id="line2d_8">
      <g>
       <use style="stroke:#000000;stroke-width:0.8;" x="462.6" xlink:href="#m76b1c33eef" y="512.64"/>
      </g>
     </g>
     <g id="text_8">
      <!-- 1.25 -->
      <g transform="translate(451.467188 527.238438)scale(0.1 -0.1)">
       <use xlink:href="#DejaVuSans-49"/>
       <use x="63.623047" xlink:href="#DejaVuSans-46"/>
       <use x="95.410156" xlink:href="#DejaVuSans-50"/>
       <use x="159.033203" xlink:href="#DejaVuSans-53"/>
      </g>
     </g>
    </g>
    <g id="xtick_9">
     <g id="line2d_9">
      <g>
       <use style="stroke:#000000;stroke-width:0.8;" x="518.4" xlink:href="#m76b1c33eef" y="512.64"/>
      </g>
     </g>
     <g id="text_9">
      <!-- 1.50 -->
      <g transform="translate(507.267187 527.238438)scale(0.1 -0.1)">
       <use xlink:href="#DejaVuSans-49"/>
       <use x="63.623047" xlink:href="#DejaVuSans-46"/>
       <use x="95.410156" xlink:href="#DejaVuSans-53"/>
       <use x="159.033203" xlink:href="#DejaVuSans-48"/>
      </g>
     </g>
    </g>
   </g>
   <g id="matplotlib.axis_2">
    <g id="ytick_1">
     <g id="line2d_10">
      <defs>
       <path d="M 0 0 
L -3.5 0 
" id="m0ab12f7851" style="stroke:#000000;stroke-width:0.8;"/>
      </defs>
      <g>
       <use style="stroke:#000000;stroke-width:0.8;" x="72" xlink:href="#m0ab12f7851" y="512.64"/>
      </g>
     </g>
     <g id="text_10">
      <!-- −0.50 -->
      <g transform="translate(34.354687 516.439219)scale(0.1 -0.1)">
       <use xlink:href="#DejaVuSans-8722"/>
       <use x="83.789062" xlink:href="#DejaVuSans-48"/>
       <use x="147.412109" xlink:href="#DejaVuSans-46"/>
       <use x="179.199219" xlink:href="#DejaVuSans-53"/>
       <use x="242.822266" xlink:href="#DejaVuSans-48"/>
      </g>
     </g>
    </g>
    <g id="ytick_2">
     <g id="line2d_11">
      <g>
       <use style="stroke:#000000;stroke-width:0.8;" x="72" xlink:href="#m0ab12f7851" y="457.2"/>
      </g>
     </g>
     <g id="text_11">
      <!-- −0.25 -->
      <g transform="translate(34.354687 460.999219)scale(0.1 -0.1)">
       <use xlink:href="#DejaVuSans-8722"/>
       <use x="83.789062" xlink:href="#DejaVuSans-48"/>
       <use x="147.412109" xlink:href="#DejaVuSans-46"/>
       <use x="179.199219" xlink:href="#DejaVuSans-50"/>
       <use x="242.822266" xlink:href="#DejaVuSans-53"/>
      </g>
     </g>
    </g>
    <g id="ytick_3">
     <g id="line2d_12">
      <g>
       <use style="stroke:#000000;stroke-width:0.8;" x="72" xlink:href="#m0ab12f7851" y="401.76"/>
      </g>
     </g>
     <g id="text_12">
      <!-- 0.00 -->
      <g transform="translate(42.734375 405.559219)scale(0.1 -0.1)">
       <use xlink:href="#DejaVuSans-48"/>
       <use x="63.623047" xlink:href="#DejaVuSans-46"/>
       <use x="95.410156" xlink:href="#DejaVuSans-48"/>
       <use x="159.033203" xlink:href="#DejaVuSans-48"/>
      </g>
     </g>
    </g>
    <g id="ytick_4">
     <g id="line2d_13">
      <g>
       <use style="stroke:#000000;stroke-width:0.8;" x="72" xlink:href="#m0ab12f7851" y="346.32"/>
      </g>
     </g>
     <g id="text_13">
      <!-- 0.25 -->
      <g transform="translate(42.734375 350.119219)scale(0.1 -0.1)">
       <use xlink:href="#DejaVuSans-48"/>
       <use x="63.623047" xlink:href="#DejaVuSans-46"/>
       <use x="95.410156" xlink:href="#DejaVuSans-50"/>
       <use x="159.033203" xlink:href="#DejaVuSans-53"/>
      </g>
     </g>
    </g>
    <g id="ytick_5">
     <g id="line2d_14">
      <g>
       <use style="stroke:#000000;stroke-width:0.8;" x="72" xlink:href="#m0ab12f7851" y="290.88"/>
      </g>
     </g>
     <g id="text_14">
      <!-- 0.50 -->
      <g transform="translate(42.734375 294.679219)scale(0.1 -0.1)">
       <use xlink:href="#DejaVuSans-48"/>
       <use x="63.623047" xlink:href="#DejaVuSans-46"/>
       <use x="95.410156" xlink:href="#DejaVuSans-53"/>
       <use x="159.033203" xlink:href="#DejaVuSans-48"/>
      </g>
     </g>
    </g>
    <g id="ytick_6">
     <g id="line2d_15">
      <g>
       <use style="stroke:#000000;stroke-width:0.8;" x="72" xlink:href="#m0ab12f7851" y="235.44"/>
      </g>
     </g>
     <g id="text_15">
      <!-- 0.75 -->
      <g transform="translate(42.734375 239.239219)scale(0.1 -0.1)">
       <use xlink:href="#DejaVuSans-48"/>
       <use x="63.623047" xlink:href="#DejaVuSans-46"/>
       <use x="95.410156" xlink:href="#DejaVuSans-55"/>
       <use x="159.033203" xlink:href="#DejaVuSans-53"/>
      </g>
     </g>
    </g>
    <g id="ytick_7">
     <g id="line2d_16">
      <g>
       <use style="stroke:#000000;stroke-width:0.8;" x="72" xlink:href="#m0ab12f7851" y="180"/>
      </g>
     </g>
     <g id="text_16">
      <!-- 1.00 -->
      <g transform="translate(42.734375 183.799219)scale(0.1 -0.1)">
       <use xlink:href="#DejaVuSans-49"/>
       <use x="63.623047" xlink:href="#DejaVuSans-46"/>
       <use x="95.410156" xlink:href="#DejaVuSans-48"/>
       <use x="159.033203" xlink:href="#DejaVuSans-48"/>
      </g>
     </g>
    </g>
    <g id="ytick_8">
     <g id="line2d_17">
      <g>
       <use style="stroke:#000000;stroke-width:0.8;" x="72" xlink:href="#m0ab12f7851" y="124.56"/>
      </g>
     </g>
     <g id="text_17">
      <!-- 1.25 -->
      <g transform="translate(42.734375 128.359219)scale(0.1 -0.1)">
       <use xlink:href="#DejaVuSans-49"/>
       <use x="63.623047" xlink:href="#DejaVuSans-46"/>
       <use x="95.410156" xlink:href="#DejaVuSans-50"/>
       <use x="159.033203" xlink:href="#DejaVuSans-53"/>
      </g>
     </g>
    </g>
    <g id="ytick_9">
     <g id="line2d_18">
      <g>
       <use style="stroke:#000000;stroke-width:0.8;" x="72" xlink:href="#m0ab12f7851" y="69.12"/>
      </g>
     </g>
     <g id="text_18">
      <!-- 1.50 -->
      <g transform="translate(42.734375 72.919219)scale(0.1 -0.1)">
       <use xlink:href="#DejaVuSans-49"/>
       <use x="63.623047" xlink:href="#DejaVuSans-46"/>
       <use x="95.410156" xlink:href="#DejaVuSans-53"/>
       <use x="159.033203" xlink:href="#DejaVuSans-48"/>
      </g>
     </g>
    </g>
   </g>
   <g id="patch_3">
    <path d="M 72 512.64 
L 72 69.12 
" style="fill:none;stroke:#000000;stroke-linecap:square;stroke-linejoin:miter;stroke-width:0.8;"/>
   </g>
   <g id="patch_4">
    <path d="M 518.4 512.64 
L 518.4 69.12 
" style="fill:none;stroke:#000000;stroke-linecap:square;stroke-linejoin:miter;stroke-width:0.8;"/>
   </g>
   <g id="patch_5">
    <path d="M 72 512.64 
L 518.4 512.64 
" style="fill:none;stroke:#000000;stroke-linecap:square;stroke-linejoin:miter;stroke-width:0.8;"/>
   </g>
   <g id="patch_6">
    <path d="M 72 69.12 
L 518.4 69.12 
" style="fill:none;stroke:#000000;stroke-linecap:square;stroke-linejoin:miter;stroke-width:0.8;"/>
   </g>
  </g>
 </g>
 <defs>
  <clipPath id="p0044be300d">
   <rect height="443.52" width="446.4" x="72" y="69.12"/>
  </clipPath>
 </defs>
</svg>
