<?xml version="1.0" encoding="utf-8" standalone="no"?>
<!DOCTYPE svg PUBLIC "-//W3C//DTD SVG 1.1//EN"
  "http://www.w3.org/Graphics/SVG/1.1/DTD/svg11.dtd">
<!-- Created with matplotlib (https://matplotlib.org/) -->
<svg height="576pt" version="1.1" viewBox="0 0 576 576" width="576pt" xmlns="http://www.w3.org/2000/svg" xmlns:xlink="http://www.w3.org/1999/xlink">
 <defs>
  <style type="text/css">
*{stroke-linecap:butt;stroke-linejoin:round;}
  </style>
 </defs>
 <g id="figure_1">
  <g id="patch_1">
   <path d="M 0 576 
L 576 576 
L 576 0 
L 0 0 
z
" style="fill:#ffffff;"/>
  </g>
  <g id="axes_1">
   <g id="patch_2">
    <path d="M 72 512.64 
L 518.4 512.64 
L 518.4 69.12 
L 72 69.12 
z
" style="fill:#ffffff;"/>
   </g>
   <g id="PathCollection_1">
    <path clip-path="url(#p8a1219e996)" d="M 184.727273 382.847381 
L 185.206352 382.72 
L 189.236364 381.648472 
L 193.745455 380.449571 
L 198.254545 379.250661 
L 202.05564 378.24 
L 202.763636 378.051753 
L 207.272727 376.852845 
L 211.781818 375.65394 
L 216.290909 374.455041 
L 218.904948 373.76 
L 220.8 373.256128 
L 225.309091 372.057225 
L 229.818182 370.858318 
L 234.327273 369.659407 
L 235.754232 369.28 
L 238.836364 368.460508 
L 243.345455 367.261597 
L 247.854545 366.062694 
L 252.363636 364.863777 
L 252.603502 364.8 
L 256.872727 363.664877 
L 261.381818 362.465984 
L 265.890909 361.267076 
L 269.452863 360.32 
L 270.4 360.068169 
L 274.909091 358.869267 
L 279.418182 357.670345 
L 283.927273 356.471443 
L 286.302126 355.84 
L 288.436364 355.272534 
L 292.945455 354.073641 
L 297.454545 352.874716 
L 301.963636 351.67582 
L 303.15145 351.36 
L 306.472727 350.476926 
L 310.981818 349.278011 
L 315.490909 348.079111 
L 320 346.8802 
L 320.000753 346.88 
L 324.509091 345.681294 
L 329.018182 344.482391 
L 333.527273 343.283469 
L 336.85004 342.4 
L 338.036364 342.084577 
L 342.545455 340.885664 
L 347.054545 339.507726 
L 348.582139 337.92 
L 349.601594 333.44 
L 350.62104 328.96 
L 351.563636 324.817701 
L 351.640481 324.48 
L 352.659924 320 
L 353.67936 315.52 
L 354.6988 311.04 
L 355.718243 306.56 
L 356.072727 305.002197 
L 356.737686 302.08 
L 357.757133 297.6 
L 358.776574 293.12 
L 359.796021 288.64 
L 360.581818 285.186772 
L 360.815464 284.16 
L 361.834895 279.68 
L 362.854344 275.2 
L 363.873787 270.72 
L 364.893218 266.24 
L 365.090909 265.371236 
L 365.91267 261.76 
L 366.531028 257.28 
L 367.123494 252.8 
L 365.090909 248.560181 
L 364.985812 248.32 
L 360.581818 244.548768 
L 359.754125 243.84 
L 356.072727 240.687575 
L 354.522393 239.36 
L 351.563636 236.826363 
L 349.290692 234.88 
L 347.054545 232.965141 
L 344.059002 230.4 
L 342.545455 229.103926 
L 338.827274 225.92 
L 338.036364 225.285166 
L 333.527273 223.66283 
L 329.018182 223.595791 
L 324.509091 223.528754 
L 320 223.461715 
L 315.490909 223.394681 
L 310.981818 223.327626 
L 306.472727 223.260589 
L 301.963636 223.193551 
L 297.454545 223.126512 
L 292.945455 223.059475 
L 288.436364 222.992436 
L 283.927273 222.925386 
L 279.418182 222.858346 
L 274.909091 222.79131 
L 270.4 222.724271 
L 265.890909 222.657233 
L 261.381818 222.590195 
L 256.872727 222.523144 
L 252.363636 222.456107 
L 247.854545 222.389068 
L 243.345455 222.322032 
L 239.539059 221.44 
L 238.836364 221.231938 
L 234.327273 219.843351 
L 229.818182 218.454783 
L 225.309091 217.066214 
L 224.964182 216.96 
L 220.8 215.677642 
L 216.290909 214.289069 
L 211.781818 213.00553 
L 208.918986 212.48 
L 207.272727 212.191409 
L 205.02774 212.48 
L 202.763636 212.928359 
L 198.254545 213.821284 
L 193.745455 214.714202 
L 189.236364 215.607124 
L 184.727273 216.500038 
L 182.40447 216.96 
L 180.218182 217.392931 
L 175.709091 218.285851 
L 171.2 219.178772 
L 166.690909 220.071699 
L 162.181818 220.964615 
L 159.781133 221.44 
L 157.672727 221.857508 
L 153.163636 222.750428 
L 148.654545 223.64335 
L 144.145455 224.536265 
L 139.636364 225.429186 
L 137.157836 225.92 
L 135.127273 226.322102 
L 130.618182 227.214996 
L 126.109091 228.107915 
L 121.6 229.000825 
L 117.090909 229.893739 
L 114.534329 230.4 
L 112.581818 231.268419 
L 108.072727 234.091621 
L 107.149563 234.88 
L 108.072727 235.491418 
L 112.581818 238.477822 
L 113.913794 239.36 
L 117.090909 241.464229 
L 120.678014 243.84 
L 121.6 244.450643 
L 126.109091 247.437071 
L 127.442194 248.32 
L 130.618182 250.423487 
L 134.206402 252.8 
L 135.127273 253.4099 
L 139.636364 256.396315 
L 140.970615 257.28 
L 144.145455 259.382722 
L 147.734839 261.76 
L 148.654545 262.369132 
L 153.163636 265.355552 
L 154.499032 266.24 
L 157.672727 268.341964 
L 161.263256 270.72 
L 162.181818 271.328374 
L 166.690909 274.3148 
L 168.027438 275.2 
L 171.2 277.301225 
L 174.79165 279.68 
L 175.709091 280.287626 
L 180.218182 283.274042 
L 180.986628 284.16 
L 182.051964 288.64 
L 181.706584 293.12 
L 181.361187 297.6 
L 181.01581 302.08 
L 180.67043 306.56 
L 180.758956 311.04 
L 180.981273 315.52 
L 181.203571 320 
L 181.425886 324.48 
L 181.648192 328.96 
L 181.870502 333.44 
L 182.092813 337.92 
L 182.315116 342.4 
L 182.53743 346.88 
L 182.759741 351.36 
L 182.982036 355.84 
L 183.204356 360.32 
L 183.426663 364.8 
L 183.648963 369.28 
L 183.871283 373.76 
L 184.093595 378.24 
L 184.546368 382.72 
z
" style="fill:#8db0fe;"/>
   </g>
   <g id="PathCollection_2">
    <path clip-path="url(#p8a1219e996)" d="M 76.509091 512.64 
L 81.018182 512.64 
L 85.527273 512.64 
L 90.036364 512.64 
L 94.545455 512.64 
L 99.054545 512.64 
L 103.563636 512.64 
L 108.072727 512.64 
L 112.581818 512.64 
L 117.090909 512.64 
L 121.6 512.64 
L 126.109091 512.64 
L 130.618182 512.64 
L 135.127273 512.64 
L 139.636364 512.64 
L 144.145455 512.64 
L 148.654545 512.64 
L 153.163636 512.64 
L 157.672727 512.64 
L 162.181818 512.64 
L 166.690909 512.64 
L 171.2 512.64 
L 175.709091 512.64 
L 180.218182 512.64 
L 184.727273 512.64 
L 189.236364 512.64 
L 193.745455 512.64 
L 198.254545 512.64 
L 202.763636 512.64 
L 207.272727 512.64 
L 211.781818 512.64 
L 216.290909 512.64 
L 220.8 512.64 
L 225.309091 512.64 
L 229.818182 512.64 
L 234.327273 512.64 
L 238.836364 512.64 
L 243.345455 512.64 
L 247.854545 512.64 
L 252.363636 512.64 
L 256.872727 512.64 
L 261.381818 512.64 
L 265.890909 512.64 
L 270.4 512.64 
L 274.909091 512.64 
L 279.418182 512.64 
L 283.927273 512.64 
L 288.436364 512.64 
L 292.945455 512.64 
L 297.454545 512.64 
L 301.963636 512.64 
L 306.472727 512.64 
L 310.981818 512.64 
L 315.490909 512.64 
L 320 512.64 
L 324.509091 512.64 
L 329.018182 512.64 
L 333.527273 512.64 
L 338.036364 512.64 
L 342.545455 512.64 
L 347.054545 512.64 
L 351.563636 512.64 
L 356.072727 512.64 
L 360.581818 512.64 
L 365.090909 512.64 
L 369.6 512.64 
L 374.109091 512.64 
L 378.618182 512.64 
L 383.127273 512.64 
L 387.636364 512.64 
L 392.145455 512.64 
L 396.654545 512.64 
L 401.163636 512.64 
L 405.672727 512.64 
L 410.181818 512.64 
L 414.690909 512.64 
L 419.2 512.64 
L 423.709091 512.64 
L 428.218182 512.64 
L 432.727273 512.64 
L 437.236364 512.64 
L 441.745455 512.64 
L 446.254545 512.64 
L 450.763636 512.64 
L 455.272727 512.64 
L 459.781818 512.64 
L 464.290909 512.64 
L 468.8 512.64 
L 473.309091 512.64 
L 477.818182 512.64 
L 482.327273 512.64 
L 486.836364 512.64 
L 491.345455 512.64 
L 495.854545 512.64 
L 500.363636 512.64 
L 504.872727 512.64 
L 509.381818 512.64 
L 513.890909 512.64 
L 518.4 512.64 
L 518.4 508.16 
L 518.4 503.68 
L 518.4 499.2 
L 518.4 494.72 
L 518.4 490.24 
L 518.4 485.76 
L 518.4 481.28 
L 518.4 476.8 
L 518.4 472.32 
L 518.4 467.84 
L 518.4 463.36 
L 518.4 458.88 
L 518.4 454.4 
L 518.4 449.92 
L 518.4 445.44 
L 518.4 440.96 
L 518.4 436.48 
L 518.4 432 
L 518.4 427.52 
L 518.4 423.04 
L 518.4 418.56 
L 518.4 414.08 
L 518.4 409.6 
L 518.4 405.12 
L 518.4 400.64 
L 518.4 396.16 
L 518.4 391.68 
L 518.4 387.2 
L 518.4 382.72 
L 518.4 378.24 
L 518.4 373.76 
L 518.4 369.28 
L 518.4 364.8 
L 518.4 360.32 
L 518.4 355.84 
L 518.4 351.36 
L 518.4 346.88 
L 518.4 342.4 
L 518.4 337.92 
L 518.4 333.44 
L 518.4 328.96 
L 518.4 324.48 
L 518.4 320 
L 518.4 315.52 
L 518.4 311.04 
L 518.4 306.56 
L 518.4 302.08 
L 518.4 297.6 
L 518.4 293.12 
L 518.4 288.64 
L 518.4 284.16 
L 518.4 279.68 
L 518.4 275.2 
L 518.4 270.72 
L 518.4 266.24 
L 518.4 261.76 
L 518.4 257.28 
L 518.4 252.8 
L 518.4 248.32 
L 518.4 243.84 
L 518.4 239.36 
L 518.4 234.88 
L 518.4 230.4 
L 518.4 225.92 
L 518.4 221.44 
L 518.4 216.96 
L 518.4 212.48 
L 518.4 208 
L 518.4 203.52 
L 518.4 199.04 
L 518.4 194.56 
L 518.4 190.08 
L 518.4 185.6 
L 518.4 181.12 
L 518.4 176.64 
L 518.4 172.16 
L 518.4 167.68 
L 518.4 163.2 
L 518.4 158.72 
L 518.4 154.24 
L 518.4 149.76 
L 518.4 145.28 
L 518.4 140.8 
L 518.4 136.32 
L 518.4 131.84 
L 518.4 127.36 
L 518.4 122.88 
L 518.4 118.4 
L 518.4 113.92 
L 518.4 109.44 
L 518.4 104.96 
L 518.4 100.48 
L 518.4 96 
L 518.4 91.52 
L 518.4 87.04 
L 518.4 82.56 
L 518.4 78.08 
L 518.4 73.6 
L 518.4 69.12 
L 513.890909 69.12 
L 509.381818 69.12 
L 504.872727 69.12 
L 500.363636 69.12 
L 495.854545 69.12 
L 491.345455 69.12 
L 486.836364 69.12 
L 482.327273 69.12 
L 477.818182 69.12 
L 473.309091 69.12 
L 468.8 69.12 
L 464.290909 69.12 
L 459.781818 69.12 
L 455.272727 69.12 
L 450.763636 69.12 
L 446.254545 69.12 
L 441.745455 69.12 
L 437.236364 69.12 
L 432.727273 69.12 
L 428.218182 69.12 
L 423.709091 69.12 
L 419.2 69.12 
L 414.690909 69.12 
L 410.181818 69.12 
L 405.672727 69.12 
L 401.163636 69.12 
L 396.654545 69.12 
L 392.145455 69.12 
L 387.636364 69.12 
L 383.127273 69.12 
L 378.618182 69.12 
L 374.109091 69.12 
L 369.6 69.12 
L 365.090909 69.12 
L 360.581818 69.12 
L 356.072727 69.12 
L 351.563636 69.12 
L 347.054545 69.12 
L 342.545455 69.12 
L 338.036364 69.12 
L 333.527273 69.12 
L 329.018182 69.12 
L 324.509091 69.12 
L 320 69.12 
L 315.490909 69.12 
L 310.981818 69.12 
L 306.472727 69.12 
L 301.963636 69.12 
L 297.454545 69.12 
L 292.945455 69.12 
L 288.436364 69.12 
L 283.927273 69.12 
L 279.418182 69.12 
L 274.909091 69.12 
L 270.4 69.12 
L 265.890909 69.12 
L 261.381818 69.12 
L 256.872727 69.12 
L 252.363636 69.12 
L 247.854545 69.12 
L 243.345455 69.12 
L 238.836364 69.12 
L 234.327273 69.12 
L 229.818182 69.12 
L 225.309091 69.12 
L 220.8 69.12 
L 216.290909 69.12 
L 211.781818 69.12 
L 207.272727 69.12 
L 202.763636 69.12 
L 198.254545 69.12 
L 193.745455 69.12 
L 189.236364 69.12 
L 184.727273 69.12 
L 180.218182 69.12 
L 175.709091 69.12 
L 171.2 69.12 
L 166.690909 69.12 
L 162.181818 69.12 
L 157.672727 69.12 
L 153.163636 69.12 
L 148.654545 69.12 
L 144.145455 69.12 
L 139.636364 69.12 
L 135.127273 69.12 
L 130.618182 69.12 
L 126.109091 69.12 
L 121.6 69.12 
L 117.090909 69.12 
L 112.581818 69.12 
L 108.072727 69.12 
L 103.563636 69.12 
L 99.054545 69.12 
L 94.545455 69.12 
L 90.036364 69.12 
L 85.527273 69.12 
L 81.018182 69.12 
L 76.509091 69.12 
L 72 69.12 
L 72 73.6 
L 72 78.08 
L 72 82.56 
L 72 87.04 
L 72 91.52 
L 72 96 
L 72 100.48 
L 72 104.96 
L 72 109.44 
L 72 113.92 
L 72 118.4 
L 72 122.88 
L 72 127.36 
L 72 131.84 
L 72 136.32 
L 72 140.8 
L 72 145.28 
L 72 149.76 
L 72 154.24 
L 72 158.72 
L 72 163.2 
L 72 167.68 
L 72 172.16 
L 72 176.64 
L 72 181.12 
L 72 185.6 
L 72 190.08 
L 72 194.56 
L 72 199.04 
L 72 203.52 
L 72 208 
L 72 212.48 
L 72 216.96 
L 72 221.44 
L 72 225.92 
L 72 230.4 
L 72 234.88 
L 72 239.36 
L 72 243.84 
L 72 248.32 
L 72 252.8 
L 72 257.28 
L 72 261.76 
L 72 266.24 
L 72 270.72 
L 72 275.2 
L 72 279.68 
L 72 284.16 
L 72 288.64 
L 72 293.12 
L 72 297.6 
L 72 302.08 
L 72 306.56 
L 72 311.04 
L 72 315.52 
L 72 320 
L 72 324.48 
L 72 328.96 
L 72 333.44 
L 72 337.92 
L 72 342.4 
L 72 346.88 
L 72 351.36 
L 72 355.84 
L 72 360.32 
L 72 364.8 
L 72 369.28 
L 72 373.76 
L 72 378.24 
L 72 382.72 
L 72 387.2 
L 72 391.68 
L 72 396.16 
L 72 400.64 
L 72 405.12 
L 72 409.6 
L 72 414.08 
L 72 418.56 
L 72 423.04 
L 72 427.52 
L 72 432 
L 72 436.48 
L 72 440.96 
L 72 445.44 
L 72 449.92 
L 72 454.4 
L 72 458.88 
L 72 463.36 
L 72 467.84 
L 72 472.32 
L 72 476.8 
L 72 481.28 
L 72 485.76 
L 72 490.24 
L 72 494.72 
L 72 499.2 
L 72 503.68 
L 72 508.16 
L 72 512.64 
z
M 184.546368 382.72 
L 184.093595 378.24 
L 183.871283 373.76 
L 183.648963 369.28 
L 183.426663 364.8 
L 183.204356 360.32 
L 182.982036 355.84 
L 182.759741 351.36 
L 182.53743 346.88 
L 182.315116 342.4 
L 182.092813 337.92 
L 181.870502 333.44 
L 181.648192 328.96 
L 181.425886 324.48 
L 181.203571 320 
L 180.981273 315.52 
L 180.758956 311.04 
L 180.67043 306.56 
L 181.01581 302.08 
L 181.361187 297.6 
L 181.706584 293.12 
L 182.051964 288.64 
L 180.986628 284.16 
L 180.218182 283.274042 
L 175.709091 280.287626 
L 174.79165 279.68 
L 171.2 277.301225 
L 168.027438 275.2 
L 166.690909 274.3148 
L 162.181818 271.328374 
L 161.263256 270.72 
L 157.672727 268.341964 
L 154.499032 266.24 
L 153.163636 265.355552 
L 148.654545 262.369132 
L 147.734839 261.76 
L 144.145455 259.382722 
L 140.970615 257.28 
L 139.636364 256.396315 
L 135.127273 253.4099 
L 134.206402 252.8 
L 130.618182 250.423487 
L 127.442194 248.32 
L 126.109091 247.437071 
L 121.6 244.450643 
L 120.678014 243.84 
L 117.090909 241.464229 
L 113.913794 239.36 
L 112.581818 238.477822 
L 108.072727 235.491418 
L 107.149563 234.88 
L 108.072727 234.091621 
L 112.581818 231.268419 
L 114.534329 230.4 
L 117.090909 229.893739 
L 121.6 229.000825 
L 126.109091 228.107915 
L 130.618182 227.214996 
L 135.127273 226.322102 
L 137.157836 225.92 
L 139.636364 225.429186 
L 144.145455 224.536265 
L 148.654545 223.64335 
L 153.163636 222.750428 
L 157.672727 221.857508 
L 159.781133 221.44 
L 162.181818 220.964615 
L 166.690909 220.071699 
L 171.2 219.178772 
L 175.709091 218.285851 
L 180.218182 217.392931 
L 182.40447 216.96 
L 184.727273 216.500038 
L 189.236364 215.607124 
L 193.745455 214.714202 
L 198.254545 213.821284 
L 202.763636 212.928359 
L 205.02774 212.48 
L 207.272727 212.191409 
L 208.918986 212.48 
L 211.781818 213.00553 
L 216.290909 214.289069 
L 220.8 215.677642 
L 224.964182 216.96 
L 225.309091 217.066214 
L 229.818182 218.454783 
L 234.327273 219.843351 
L 238.836364 221.231938 
L 239.539059 221.44 
L 243.345455 222.322032 
L 247.854545 222.389068 
L 252.363636 222.456107 
L 256.872727 222.523144 
L 261.381818 222.590195 
L 265.890909 222.657233 
L 270.4 222.724271 
L 274.909091 222.79131 
L 279.418182 222.858346 
L 283.927273 222.925386 
L 288.436364 222.992436 
L 292.945455 223.059475 
L 297.454545 223.126512 
L 301.963636 223.193551 
L 306.472727 223.260589 
L 310.981818 223.327626 
L 315.490909 223.394681 
L 320 223.461715 
L 324.509091 223.528754 
L 329.018182 223.595791 
L 333.527273 223.66283 
L 338.036364 225.285166 
L 338.827274 225.92 
L 342.545455 229.103926 
L 344.059002 230.4 
L 347.054545 232.965141 
L 349.290692 234.88 
L 351.563636 236.826363 
L 354.522393 239.36 
L 356.072727 240.687575 
L 359.754125 243.84 
L 360.581818 244.548768 
L 364.985812 248.32 
L 365.090909 248.560181 
L 367.123494 252.8 
L 366.531028 257.28 
L 365.91267 261.76 
L 365.090909 265.371236 
L 364.893218 266.24 
L 363.873787 270.72 
L 362.854344 275.2 
L 361.834895 279.68 
L 360.815464 284.16 
L 360.581818 285.186772 
L 359.796021 288.64 
L 358.776574 293.12 
L 357.757133 297.6 
L 356.737686 302.08 
L 356.072727 305.002197 
L 355.718243 306.56 
L 354.6988 311.04 
L 353.67936 315.52 
L 352.659924 320 
L 351.640481 324.48 
L 351.563636 324.817701 
L 350.62104 328.96 
L 349.601594 333.44 
L 348.582139 337.92 
L 347.054545 339.507726 
L 342.545455 340.885664 
L 338.036364 342.084577 
L 336.85004 342.4 
L 333.527273 343.283469 
L 329.018182 344.482391 
L 324.509091 345.681294 
L 320.000753 346.88 
L 320 346.8802 
L 315.490909 348.079111 
L 310.981818 349.278011 
L 306.472727 350.476926 
L 303.15145 351.36 
L 301.963636 351.67582 
L 297.454545 352.874716 
L 292.945455 354.073641 
L 288.436364 355.272534 
L 286.302126 355.84 
L 283.927273 356.471443 
L 279.418182 357.670345 
L 274.909091 358.869267 
L 270.4 360.068169 
L 269.452863 360.32 
L 265.890909 361.267076 
L 261.381818 362.465984 
L 256.872727 363.664877 
L 252.603502 364.8 
L 252.363636 364.863777 
L 247.854545 366.062694 
L 243.345455 367.261597 
L 238.836364 368.460508 
L 235.754232 369.28 
L 234.327273 369.659407 
L 229.818182 370.858318 
L 225.309091 372.057225 
L 220.8 373.256128 
L 218.904948 373.76 
L 216.290909 374.455041 
L 211.781818 375.65394 
L 207.272727 376.852845 
L 202.763636 378.051753 
L 202.05564 378.24 
L 198.254545 379.250661 
L 193.745455 380.449571 
L 189.236364 381.648472 
L 185.206352 382.72 
L 184.727273 382.847381 
z
" style="fill:#f4987a;"/>
   </g>
   <g id="PathCollection_3">
    <defs>
     <path d="M 0 2.738613 
C 0.726289 2.738613 1.422928 2.450055 1.936492 1.936492 
C 2.450055 1.422928 2.738613 0.726289 2.738613 0 
C 2.738613 -0.726289 2.450055 -1.422928 1.936492 -1.936492 
C 1.422928 -2.450055 0.726289 -2.738613 0 -2.738613 
C -0.726289 -2.738613 -1.422928 -2.450055 -1.936492 -1.936492 
C -2.450055 -1.422928 -2.738613 -0.726289 -2.738613 0 
C -2.738613 0.726289 -2.450055 1.422928 -1.936492 1.936492 
C -1.422928 2.450055 -0.726289 2.738613 0 2.738613 
z
" id="C0_0_a8b2b75925"/>
    </defs>
    <g clip-path="url(#p8a1219e996)">
     <use style="fill:#b40426;stroke:#b40426;" x="306.538087" xlink:href="#C0_0_a8b2b75925" y="244.721139"/>
    </g>
    <g clip-path="url(#p8a1219e996)">
     <use style="fill:#3b4cc0;stroke:#3b4cc0;" x="248.529936" xlink:href="#C0_0_a8b2b75925" y="288.478871"/>
    </g>
    <g clip-path="url(#p8a1219e996)">
     <use style="fill:#3b4cc0;stroke:#3b4cc0;" x="382.905761" xlink:href="#C0_0_a8b2b75925" y="202.998041"/>
    </g>
    <g clip-path="url(#p8a1219e996)">
     <use style="fill:#b40426;stroke:#b40426;" x="211.630643" xlink:href="#C0_0_a8b2b75925" y="355.80182"/>
    </g>
    <g clip-path="url(#p8a1219e996)">
     <use style="fill:#3b4cc0;stroke:#3b4cc0;" x="195.08748" xlink:href="#C0_0_a8b2b75925" y="304.006009"/>
    </g>
    <g clip-path="url(#p8a1219e996)">
     <use style="fill:#b40426;stroke:#b40426;" x="328.488953" xlink:href="#C0_0_a8b2b75925" y="340.002657"/>
    </g>
    <g clip-path="url(#p8a1219e996)">
     <use style="fill:#3b4cc0;stroke:#3b4cc0;" x="334.5401" xlink:href="#C0_0_a8b2b75925" y="270.730263"/>
    </g>
    <g clip-path="url(#p8a1219e996)">
     <use style="fill:#b40426;stroke:#b40426;" x="188.952756" xlink:href="#C0_0_a8b2b75925" y="277.828514"/>
    </g>
    <g clip-path="url(#p8a1219e996)">
     <use style="fill:#b40426;stroke:#b40426;" x="241.465149" xlink:href="#C0_0_a8b2b75925" y="309.707158"/>
    </g>
    <g clip-path="url(#p8a1219e996)">
     <use style="fill:#3b4cc0;stroke:#3b4cc0;" x="246.882798" xlink:href="#C0_0_a8b2b75925" y="248.04973"/>
    </g>
    <g clip-path="url(#p8a1219e996)">
     <use style="fill:#b40426;stroke:#b40426;" x="281.909268" xlink:href="#C0_0_a8b2b75925" y="366.973009"/>
    </g>
    <g clip-path="url(#p8a1219e996)">
     <use style="fill:#b40426;stroke:#b40426;" x="251.980338" xlink:href="#C0_0_a8b2b75925" y="352.538621"/>
    </g>
    <g clip-path="url(#p8a1219e996)">
     <use style="fill:#b40426;stroke:#b40426;" x="270.195183" xlink:href="#C0_0_a8b2b75925" y="194.107559"/>
    </g>
    <g clip-path="url(#p8a1219e996)">
     <use style="fill:#3b4cc0;stroke:#3b4cc0;" x="401.442178" xlink:href="#C0_0_a8b2b75925" y="252.652198"/>
    </g>
    <g clip-path="url(#p8a1219e996)">
     <use style="fill:#3b4cc0;stroke:#3b4cc0;" x="267.968268" xlink:href="#C0_0_a8b2b75925" y="381.309957"/>
    </g>
    <g clip-path="url(#p8a1219e996)">
     <use style="fill:#3b4cc0;stroke:#3b4cc0;" x="274.335246" xlink:href="#C0_0_a8b2b75925" y="297.767808"/>
    </g>
    <g clip-path="url(#p8a1219e996)">
     <use style="fill:#b40426;stroke:#b40426;" x="243.693382" xlink:href="#C0_0_a8b2b75925" y="337.052033"/>
    </g>
    <g clip-path="url(#p8a1219e996)">
     <use style="fill:#3b4cc0;stroke:#3b4cc0;" x="285.755603" xlink:href="#C0_0_a8b2b75925" y="210.928004"/>
    </g>
    <g clip-path="url(#p8a1219e996)">
     <use style="fill:#b40426;stroke:#b40426;" x="298.332622" xlink:href="#C0_0_a8b2b75925" y="382.416015"/>
    </g>
    <g clip-path="url(#p8a1219e996)">
     <use style="fill:#b40426;stroke:#b40426;" x="291.536292" xlink:href="#C0_0_a8b2b75925" y="321.443804"/>
    </g>
    <g clip-path="url(#p8a1219e996)">
     <use style="fill:#3b4cc0;stroke:#3b4cc0;" x="341.55565" xlink:href="#C0_0_a8b2b75925" y="236.161553"/>
    </g>
    <g clip-path="url(#p8a1219e996)">
     <use style="fill:#3b4cc0;stroke:#3b4cc0;" x="266.987548" xlink:href="#C0_0_a8b2b75925" y="253.594425"/>
    </g>
    <g clip-path="url(#p8a1219e996)">
     <use style="fill:#3b4cc0;stroke:#3b4cc0;" x="259.454223" xlink:href="#C0_0_a8b2b75925" y="274.737238"/>
    </g>
    <g clip-path="url(#p8a1219e996)">
     <use style="fill:#3b4cc0;stroke:#3b4cc0;" x="256.320157" xlink:href="#C0_0_a8b2b75925" y="303.044636"/>
    </g>
    <g clip-path="url(#p8a1219e996)">
     <use style="fill:#3b4cc0;stroke:#3b4cc0;" x="197.333258" xlink:href="#C0_0_a8b2b75925" y="347.944298"/>
    </g>
    <g clip-path="url(#p8a1219e996)">
     <use style="fill:#b40426;stroke:#b40426;" x="400.461704" xlink:href="#C0_0_a8b2b75925" y="350.625647"/>
    </g>
    <g clip-path="url(#p8a1219e996)">
     <use style="fill:#b40426;stroke:#b40426;" x="345.183212" xlink:href="#C0_0_a8b2b75925" y="296.404353"/>
    </g>
    <g clip-path="url(#p8a1219e996)">
     <use style="fill:#b40426;stroke:#b40426;" x="316.775354" xlink:href="#C0_0_a8b2b75925" y="386.90886"/>
    </g>
    <g clip-path="url(#p8a1219e996)">
     <use style="fill:#3b4cc0;stroke:#3b4cc0;" x="217.495375" xlink:href="#C0_0_a8b2b75925" y="379.56086"/>
    </g>
    <g clip-path="url(#p8a1219e996)">
     <use style="fill:#b40426;stroke:#b40426;" x="212.458389" xlink:href="#C0_0_a8b2b75925" y="279.06513"/>
    </g>
    <g clip-path="url(#p8a1219e996)">
     <use style="fill:#b40426;stroke:#b40426;" x="225.52027" xlink:href="#C0_0_a8b2b75925" y="190.622031"/>
    </g>
    <g clip-path="url(#p8a1219e996)">
     <use style="fill:#b40426;stroke:#b40426;" x="371.557431" xlink:href="#C0_0_a8b2b75925" y="236.603719"/>
    </g>
    <g clip-path="url(#p8a1219e996)">
     <use style="fill:#b40426;stroke:#b40426;" x="330.984737" xlink:href="#C0_0_a8b2b75925" y="199.076851"/>
    </g>
    <g clip-path="url(#p8a1219e996)">
     <use style="fill:#3b4cc0;stroke:#3b4cc0;" x="325.034153" xlink:href="#C0_0_a8b2b75925" y="320.609019"/>
    </g>
    <g clip-path="url(#p8a1219e996)">
     <use style="fill:#3b4cc0;stroke:#3b4cc0;" x="306.994911" xlink:href="#C0_0_a8b2b75925" y="358.210645"/>
    </g>
    <g clip-path="url(#p8a1219e996)">
     <use style="fill:#3b4cc0;stroke:#3b4cc0;" x="226.470538" xlink:href="#C0_0_a8b2b75925" y="240.835505"/>
    </g>
    <g clip-path="url(#p8a1219e996)">
     <use style="fill:#b40426;stroke:#b40426;" x="358.797877" xlink:href="#C0_0_a8b2b75925" y="186.18747"/>
    </g>
    <g clip-path="url(#p8a1219e996)">
     <use style="fill:#3b4cc0;stroke:#3b4cc0;" x="373.536817" xlink:href="#C0_0_a8b2b75925" y="281.212528"/>
    </g>
    <g clip-path="url(#p8a1219e996)">
     <use style="fill:#b40426;stroke:#b40426;" x="390.715399" xlink:href="#C0_0_a8b2b75925" y="227.097784"/>
    </g>
    <g clip-path="url(#p8a1219e996)">
     <use style="fill:#3b4cc0;stroke:#3b4cc0;" x="291.87303" xlink:href="#C0_0_a8b2b75925" y="300.797251"/>
    </g>
    <g clip-path="url(#p8a1219e996)">
     <use style="fill:#b40426;stroke:#b40426;" x="232.254423" xlink:href="#C0_0_a8b2b75925" y="362.46116"/>
    </g>
    <g clip-path="url(#p8a1219e996)">
     <use style="fill:#3b4cc0;stroke:#3b4cc0;" x="200.032804" xlink:href="#C0_0_a8b2b75925" y="203.86289"/>
    </g>
    <g clip-path="url(#p8a1219e996)">
     <use style="fill:#b40426;stroke:#b40426;" x="326.487416" xlink:href="#C0_0_a8b2b75925" y="369.974625"/>
    </g>
    <g clip-path="url(#p8a1219e996)">
     <use style="fill:#b40426;stroke:#b40426;" x="397.07953" xlink:href="#C0_0_a8b2b75925" y="305.178961"/>
    </g>
    <g clip-path="url(#p8a1219e996)">
     <use style="fill:#3b4cc0;stroke:#3b4cc0;" x="199.253574" xlink:href="#C0_0_a8b2b75925" y="388.957465"/>
    </g>
    <g clip-path="url(#p8a1219e996)">
     <use style="fill:#b40426;stroke:#b40426;" x="304.297814" xlink:href="#C0_0_a8b2b75925" y="216.044333"/>
    </g>
    <g clip-path="url(#p8a1219e996)">
     <use style="fill:#3b4cc0;stroke:#3b4cc0;" x="221.551487" xlink:href="#C0_0_a8b2b75925" y="344.025877"/>
    </g>
    <g clip-path="url(#p8a1219e996)">
     <use style="fill:#b40426;stroke:#b40426;" x="376.471506" xlink:href="#C0_0_a8b2b75925" y="337.256124"/>
    </g>
    <g clip-path="url(#p8a1219e996)">
     <use style="fill:#3b4cc0;stroke:#3b4cc0;" x="349.009598" xlink:href="#C0_0_a8b2b75925" y="366.714457"/>
    </g>
    <g clip-path="url(#p8a1219e996)">
     <use style="fill:#3b4cc0;stroke:#3b4cc0;" x="338.715843" xlink:href="#C0_0_a8b2b75925" y="215.166781"/>
    </g>
    <g clip-path="url(#p8a1219e996)">
     <use style="fill:#3b4cc0;stroke:#3b4cc0;" x="345.900337" xlink:href="#C0_0_a8b2b75925" y="322.124315"/>
    </g>
    <g clip-path="url(#p8a1219e996)">
     <use style="fill:#3b4cc0;stroke:#3b4cc0;" x="379.393729" xlink:href="#C0_0_a8b2b75925" y="367.666571"/>
    </g>
    <g clip-path="url(#p8a1219e996)">
     <use style="fill:#b40426;stroke:#b40426;" x="247.669509" xlink:href="#C0_0_a8b2b75925" y="216.881371"/>
    </g>
    <g clip-path="url(#p8a1219e996)">
     <use style="fill:#3b4cc0;stroke:#3b4cc0;" x="356.572811" xlink:href="#C0_0_a8b2b75925" y="350.569748"/>
    </g>
    <g clip-path="url(#p8a1219e996)">
     <use style="fill:#b40426;stroke:#b40426;" x="368.633039" xlink:href="#C0_0_a8b2b75925" y="385.341378"/>
    </g>
    <g clip-path="url(#p8a1219e996)">
     <use style="fill:#b40426;stroke:#b40426;" x="224.61798" xlink:href="#C0_0_a8b2b75925" y="304.993454"/>
    </g>
    <g clip-path="url(#p8a1219e996)">
     <use style="fill:#3b4cc0;stroke:#3b4cc0;" x="294.705127" xlink:href="#C0_0_a8b2b75925" y="272.40475"/>
    </g>
    <g clip-path="url(#p8a1219e996)">
     <use style="fill:#3b4cc0;stroke:#3b4cc0;" x="183.766401" xlink:href="#C0_0_a8b2b75925" y="395.038153"/>
    </g>
    <g clip-path="url(#p8a1219e996)">
     <use style="fill:#b40426;stroke:#b40426;" x="310.169254" xlink:href="#C0_0_a8b2b75925" y="266.132949"/>
    </g>
    <g clip-path="url(#p8a1219e996)">
     <use style="fill:#b40426;stroke:#b40426;" x="341.191739" xlink:href="#C0_0_a8b2b75925" y="388.112731"/>
    </g>
   </g>
   <g id="matplotlib.axis_1">
    <g id="xtick_1">
     <g id="line2d_1">
      <defs>
       <path d="M 0 0 
L 0 3.5 
" id="m1b103ed359" style="stroke:#000000;stroke-width:0.8;"/>
      </defs>
      <g>
       <use style="stroke:#000000;stroke-width:0.8;" x="72" xlink:href="#m1b103ed359" y="512.64"/>
      </g>
     </g>
     <g id="text_1">
      <!-- −0.50 -->
      <defs>
       <path d="M 10.59375 35.5 
L 73.1875 35.5 
L 73.1875 27.203125 
L 10.59375 27.203125 
z
" id="DejaVuSans-8722"/>
       <path d="M 31.78125 66.40625 
Q 24.171875 66.40625 20.328125 58.90625 
Q 16.5 51.421875 16.5 36.375 
Q 16.5 21.390625 20.328125 13.890625 
Q 24.171875 6.390625 31.78125 6.390625 
Q 39.453125 6.390625 43.28125 13.890625 
Q 47.125 21.390625 47.125 36.375 
Q 47.125 51.421875 43.28125 58.90625 
Q 39.453125 66.40625 31.78125 66.40625 
z
M 31.78125 74.21875 
Q 44.046875 74.21875 50.515625 64.515625 
Q 56.984375 54.828125 56.984375 36.375 
Q 56.984375 17.96875 50.515625 8.265625 
Q 44.046875 -1.421875 31.78125 -1.421875 
Q 19.53125 -1.421875 13.0625 8.265625 
Q 6.59375 17.96875 6.59375 36.375 
Q 6.59375 54.828125 13.0625 64.515625 
Q 19.53125 74.21875 31.78125 74.21875 
z
" id="DejaVuSans-48"/>
       <path d="M 10.6875 12.40625 
L 21 12.40625 
L 21 0 
L 10.6875 0 
z
" id="DejaVuSans-46"/>
       <path d="M 10.796875 72.90625 
L 49.515625 72.90625 
L 49.515625 64.59375 
L 19.828125 64.59375 
L 19.828125 46.734375 
Q 21.96875 47.46875 24.109375 47.828125 
Q 26.265625 48.1875 28.421875 48.1875 
Q 40.625 48.1875 47.75 41.5 
Q 54.890625 34.8125 54.890625 23.390625 
Q 54.890625 11.625 47.5625 5.09375 
Q 40.234375 -1.421875 26.90625 -1.421875 
Q 22.3125 -1.421875 17.546875 -0.640625 
Q 12.796875 0.140625 7.71875 1.703125 
L 7.71875 11.625 
Q 12.109375 9.234375 16.796875 8.0625 
Q 21.484375 6.890625 26.703125 6.890625 
Q 35.15625 6.890625 40.078125 11.328125 
Q 45.015625 15.765625 45.015625 23.390625 
Q 45.015625 31 40.078125 35.4375 
Q 35.15625 39.890625 26.703125 39.890625 
Q 22.75 39.890625 18.8125 39.015625 
Q 14.890625 38.140625 10.796875 36.28125 
z
" id="DejaVuSans-53"/>
      </defs>
      <g transform="translate(56.677344 527.238438)scale(0.1 -0.1)">
       <use xlink:href="#DejaVuSans-8722"/>
       <use x="83.789062" xlink:href="#DejaVuSans-48"/>
       <use x="147.412109" xlink:href="#DejaVuSans-46"/>
       <use x="179.199219" xlink:href="#DejaVuSans-53"/>
       <use x="242.822266" xlink:href="#DejaVuSans-48"/>
      </g>
     </g>
    </g>
    <g id="xtick_2">
     <g id="line2d_2">
      <g>
       <use style="stroke:#000000;stroke-width:0.8;" x="127.8" xlink:href="#m1b103ed359" y="512.64"/>
      </g>
     </g>
     <g id="text_2">
      <!-- −0.25 -->
      <defs>
       <path d="M 19.1875 8.296875 
L 53.609375 8.296875 
L 53.609375 0 
L 7.328125 0 
L 7.328125 8.296875 
Q 12.9375 14.109375 22.625 23.890625 
Q 32.328125 33.6875 34.8125 36.53125 
Q 39.546875 41.84375 41.421875 45.53125 
Q 43.3125 49.21875 43.3125 52.78125 
Q 43.3125 58.59375 39.234375 62.25 
Q 35.15625 65.921875 28.609375 65.921875 
Q 23.96875 65.921875 18.8125 64.3125 
Q 13.671875 62.703125 7.8125 59.421875 
L 7.8125 69.390625 
Q 13.765625 71.78125 18.9375 73 
Q 24.125 74.21875 28.421875 74.21875 
Q 39.75 74.21875 46.484375 68.546875 
Q 53.21875 62.890625 53.21875 53.421875 
Q 53.21875 48.921875 51.53125 44.890625 
Q 49.859375 40.875 45.40625 35.40625 
Q 44.1875 33.984375 37.640625 27.21875 
Q 31.109375 20.453125 19.1875 8.296875 
z
" id="DejaVuSans-50"/>
      </defs>
      <g transform="translate(112.477344 527.238438)scale(0.1 -0.1)">
       <use xlink:href="#DejaVuSans-8722"/>
       <use x="83.789062" xlink:href="#DejaVuSans-48"/>
       <use x="147.412109" xlink:href="#DejaVuSans-46"/>
       <use x="179.199219" xlink:href="#DejaVuSans-50"/>
       <use x="242.822266" xlink:href="#DejaVuSans-53"/>
      </g>
     </g>
    </g>
    <g id="xtick_3">
     <g id="line2d_3">
      <g>
       <use style="stroke:#000000;stroke-width:0.8;" x="183.6" xlink:href="#m1b103ed359" y="512.64"/>
      </g>
     </g>
     <g id="text_3">
      <!-- 0.00 -->
      <g transform="translate(172.467187 527.238438)scale(0.1 -0.1)">
       <use xlink:href="#DejaVuSans-48"/>
       <use x="63.623047" xlink:href="#DejaVuSans-46"/>
       <use x="95.410156" xlink:href="#DejaVuSans-48"/>
       <use x="159.033203" xlink:href="#DejaVuSans-48"/>
      </g>
     </g>
    </g>
    <g id="xtick_4">
     <g id="line2d_4">
      <g>
       <use style="stroke:#000000;stroke-width:0.8;" x="239.4" xlink:href="#m1b103ed359" y="512.64"/>
      </g>
     </g>
     <g id="text_4">
      <!-- 0.25 -->
      <g transform="translate(228.267187 527.238438)scale(0.1 -0.1)">
       <use xlink:href="#DejaVuSans-48"/>
       <use x="63.623047" xlink:href="#DejaVuSans-46"/>
       <use x="95.410156" xlink:href="#DejaVuSans-50"/>
       <use x="159.033203" xlink:href="#DejaVuSans-53"/>
      </g>
     </g>
    </g>
    <g id="xtick_5">
     <g id="line2d_5">
      <g>
       <use style="stroke:#000000;stroke-width:0.8;" x="295.2" xlink:href="#m1b103ed359" y="512.64"/>
      </g>
     </g>
     <g id="text_5">
      <!-- 0.50 -->
      <g transform="translate(284.067187 527.238438)scale(0.1 -0.1)">
       <use xlink:href="#DejaVuSans-48"/>
       <use x="63.623047" xlink:href="#DejaVuSans-46"/>
       <use x="95.410156" xlink:href="#DejaVuSans-53"/>
       <use x="159.033203" xlink:href="#DejaVuSans-48"/>
      </g>
     </g>
    </g>
    <g id="xtick_6">
     <g id="line2d_6">
      <g>
       <use style="stroke:#000000;stroke-width:0.8;" x="351" xlink:href="#m1b103ed359" y="512.64"/>
      </g>
     </g>
     <g id="text_6">
      <!-- 0.75 -->
      <defs>
       <path d="M 8.203125 72.90625 
L 55.078125 72.90625 
L 55.078125 68.703125 
L 28.609375 0 
L 18.3125 0 
L 43.21875 64.59375 
L 8.203125 64.59375 
z
" id="DejaVuSans-55"/>
      </defs>
      <g transform="translate(339.867188 527.238438)scale(0.1 -0.1)">
       <use xlink:href="#DejaVuSans-48"/>
       <use x="63.623047" xlink:href="#DejaVuSans-46"/>
       <use x="95.410156" xlink:href="#DejaVuSans-55"/>
       <use x="159.033203" xlink:href="#DejaVuSans-53"/>
      </g>
     </g>
    </g>
    <g id="xtick_7">
     <g id="line2d_7">
      <g>
       <use style="stroke:#000000;stroke-width:0.8;" x="406.8" xlink:href="#m1b103ed359" y="512.64"/>
      </g>
     </g>
     <g id="text_7">
      <!-- 1.00 -->
      <defs>
       <path d="M 12.40625 8.296875 
L 28.515625 8.296875 
L 28.515625 63.921875 
L 10.984375 60.40625 
L 10.984375 69.390625 
L 28.421875 72.90625 
L 38.28125 72.90625 
L 38.28125 8.296875 
L 54.390625 8.296875 
L 54.390625 0 
L 12.40625 0 
z
" id="DejaVuSans-49"/>
      </defs>
      <g transform="translate(395.667187 527.238438)scale(0.1 -0.1)">
       <use xlink:href="#DejaVuSans-49"/>
       <use x="63.623047" xlink:href="#DejaVuSans-46"/>
       <use x="95.410156" xlink:href="#DejaVuSans-48"/>
       <use x="159.033203" xlink:href="#DejaVuSans-48"/>
      </g>
     </g>
    </g>
    <g id="xtick_8">
     <g id="line2d_8">
      <g>
       <use style="stroke:#000000;stroke-width:0.8;" x="462.6" xlink:href="#m1b103ed359" y="512.64"/>
      </g>
     </g>
     <g id="text_8">
      <!-- 1.25 -->
      <g transform="translate(451.467188 527.238438)scale(0.1 -0.1)">
       <use xlink:href="#DejaVuSans-49"/>
       <use x="63.623047" xlink:href="#DejaVuSans-46"/>
       <use x="95.410156" xlink:href="#DejaVuSans-50"/>
       <use x="159.033203" xlink:href="#DejaVuSans-53"/>
      </g>
     </g>
    </g>
    <g id="xtick_9">
     <g id="line2d_9">
      <g>
       <use style="stroke:#000000;stroke-width:0.8;" x="518.4" xlink:href="#m1b103ed359" y="512.64"/>
      </g>
     </g>
     <g id="text_9">
      <!-- 1.50 -->
      <g transform="translate(507.267187 527.238438)scale(0.1 -0.1)">
       <use xlink:href="#DejaVuSans-49"/>
       <use x="63.623047" xlink:href="#DejaVuSans-46"/>
       <use x="95.410156" xlink:href="#DejaVuSans-53"/>
       <use x="159.033203" xlink:href="#DejaVuSans-48"/>
      </g>
     </g>
    </g>
   </g>
   <g id="matplotlib.axis_2">
    <g id="ytick_1">
     <g id="line2d_10">
      <defs>
       <path d="M 0 0 
L -3.5 0 
" id="me174ec59f8" style="stroke:#000000;stroke-width:0.8;"/>
      </defs>
      <g>
       <use style="stroke:#000000;stroke-width:0.8;" x="72" xlink:href="#me174ec59f8" y="512.64"/>
      </g>
     </g>
     <g id="text_10">
      <!-- −0.50 -->
      <g transform="translate(34.354687 516.439219)scale(0.1 -0.1)">
       <use xlink:href="#DejaVuSans-8722"/>
       <use x="83.789062" xlink:href="#DejaVuSans-48"/>
       <use x="147.412109" xlink:href="#DejaVuSans-46"/>
       <use x="179.199219" xlink:href="#DejaVuSans-53"/>
       <use x="242.822266" xlink:href="#DejaVuSans-48"/>
      </g>
     </g>
    </g>
    <g id="ytick_2">
     <g id="line2d_11">
      <g>
       <use style="stroke:#000000;stroke-width:0.8;" x="72" xlink:href="#me174ec59f8" y="457.2"/>
      </g>
     </g>
     <g id="text_11">
      <!-- −0.25 -->
      <g transform="translate(34.354687 460.999219)scale(0.1 -0.1)">
       <use xlink:href="#DejaVuSans-8722"/>
       <use x="83.789062" xlink:href="#DejaVuSans-48"/>
       <use x="147.412109" xlink:href="#DejaVuSans-46"/>
       <use x="179.199219" xlink:href="#DejaVuSans-50"/>
       <use x="242.822266" xlink:href="#DejaVuSans-53"/>
      </g>
     </g>
    </g>
    <g id="ytick_3">
     <g id="line2d_12">
      <g>
       <use style="stroke:#000000;stroke-width:0.8;" x="72" xlink:href="#me174ec59f8" y="401.76"/>
      </g>
     </g>
     <g id="text_12">
      <!-- 0.00 -->
      <g transform="translate(42.734375 405.559219)scale(0.1 -0.1)">
       <use xlink:href="#DejaVuSans-48"/>
       <use x="63.623047" xlink:href="#DejaVuSans-46"/>
       <use x="95.410156" xlink:href="#DejaVuSans-48"/>
       <use x="159.033203" xlink:href="#DejaVuSans-48"/>
      </g>
     </g>
    </g>
    <g id="ytick_4">
     <g id="line2d_13">
      <g>
       <use style="stroke:#000000;stroke-width:0.8;" x="72" xlink:href="#me174ec59f8" y="346.32"/>
      </g>
     </g>
     <g id="text_13">
      <!-- 0.25 -->
      <g transform="translate(42.734375 350.119219)scale(0.1 -0.1)">
       <use xlink:href="#DejaVuSans-48"/>
       <use x="63.623047" xlink:href="#DejaVuSans-46"/>
       <use x="95.410156" xlink:href="#DejaVuSans-50"/>
       <use x="159.033203" xlink:href="#DejaVuSans-53"/>
      </g>
     </g>
    </g>
    <g id="ytick_5">
     <g id="line2d_14">
      <g>
       <use style="stroke:#000000;stroke-width:0.8;" x="72" xlink:href="#me174ec59f8" y="290.88"/>
      </g>
     </g>
     <g id="text_14">
      <!-- 0.50 -->
      <g transform="translate(42.734375 294.679219)scale(0.1 -0.1)">
       <use xlink:href="#DejaVuSans-48"/>
       <use x="63.623047" xlink:href="#DejaVuSans-46"/>
       <use x="95.410156" xlink:href="#DejaVuSans-53"/>
       <use x="159.033203" xlink:href="#DejaVuSans-48"/>
      </g>
     </g>
    </g>
    <g id="ytick_6">
     <g id="line2d_15">
      <g>
       <use style="stroke:#000000;stroke-width:0.8;" x="72" xlink:href="#me174ec59f8" y="235.44"/>
      </g>
     </g>
     <g id="text_15">
      <!-- 0.75 -->
      <g transform="translate(42.734375 239.239219)scale(0.1 -0.1)">
       <use xlink:href="#DejaVuSans-48"/>
       <use x="63.623047" xlink:href="#DejaVuSans-46"/>
       <use x="95.410156" xlink:href="#DejaVuSans-55"/>
       <use x="159.033203" xlink:href="#DejaVuSans-53"/>
      </g>
     </g>
    </g>
    <g id="ytick_7">
     <g id="line2d_16">
      <g>
       <use style="stroke:#000000;stroke-width:0.8;" x="72" xlink:href="#me174ec59f8" y="180"/>
      </g>
     </g>
     <g id="text_16">
      <!-- 1.00 -->
      <g transform="translate(42.734375 183.799219)scale(0.1 -0.1)">
       <use xlink:href="#DejaVuSans-49"/>
       <use x="63.623047" xlink:href="#DejaVuSans-46"/>
       <use x="95.410156" xlink:href="#DejaVuSans-48"/>
       <use x="159.033203" xlink:href="#DejaVuSans-48"/>
      </g>
     </g>
    </g>
    <g id="ytick_8">
     <g id="line2d_17">
      <g>
       <use style="stroke:#000000;stroke-width:0.8;" x="72" xlink:href="#me174ec59f8" y="124.56"/>
      </g>
     </g>
     <g id="text_17">
      <!-- 1.25 -->
      <g transform="translate(42.734375 128.359219)scale(0.1 -0.1)">
       <use xlink:href="#DejaVuSans-49"/>
       <use x="63.623047" xlink:href="#DejaVuSans-46"/>
       <use x="95.410156" xlink:href="#DejaVuSans-50"/>
       <use x="159.033203" xlink:href="#DejaVuSans-53"/>
      </g>
     </g>
    </g>
    <g id="ytick_9">
     <g id="line2d_18">
      <g>
       <use style="stroke:#000000;stroke-width:0.8;" x="72" xlink:href="#me174ec59f8" y="69.12"/>
      </g>
     </g>
     <g id="text_18">
      <!-- 1.50 -->
      <g transform="translate(42.734375 72.919219)scale(0.1 -0.1)">
       <use xlink:href="#DejaVuSans-49"/>
       <use x="63.623047" xlink:href="#DejaVuSans-46"/>
       <use x="95.410156" xlink:href="#DejaVuSans-53"/>
       <use x="159.033203" xlink:href="#DejaVuSans-48"/>
      </g>
     </g>
    </g>
   </g>
   <g id="patch_3">
    <path d="M 72 512.64 
L 72 69.12 
" style="fill:none;stroke:#000000;stroke-linecap:square;stroke-linejoin:miter;stroke-width:0.8;"/>
   </g>
   <g id="patch_4">
    <path d="M 518.4 512.64 
L 518.4 69.12 
" style="fill:none;stroke:#000000;stroke-linecap:square;stroke-linejoin:miter;stroke-width:0.8;"/>
   </g>
   <g id="patch_5">
    <path d="M 72 512.64 
L 518.4 512.64 
" style="fill:none;stroke:#000000;stroke-linecap:square;stroke-linejoin:miter;stroke-width:0.8;"/>
   </g>
   <g id="patch_6">
    <path d="M 72 69.12 
L 518.4 69.12 
" style="fill:none;stroke:#000000;stroke-linecap:square;stroke-linejoin:miter;stroke-width:0.8;"/>
   </g>
  </g>
 </g>
 <defs>
  <clipPath id="p8a1219e996">
   <rect height="443.52" width="446.4" x="72" y="69.12"/>
  </clipPath>
 </defs>
</svg>
