<?xml version="1.0" encoding="utf-8" standalone="no"?>
<!DOCTYPE svg PUBLIC "-//W3C//DTD SVG 1.1//EN"
  "http://www.w3.org/Graphics/SVG/1.1/DTD/svg11.dtd">
<!-- Created with matplotlib (https://matplotlib.org/) -->
<svg height="576pt" version="1.1" viewBox="0 0 576 576" width="576pt" xmlns="http://www.w3.org/2000/svg" xmlns:xlink="http://www.w3.org/1999/xlink">
 <defs>
  <style type="text/css">
*{stroke-linecap:butt;stroke-linejoin:round;}
  </style>
 </defs>
 <g id="figure_1">
  <g id="patch_1">
   <path d="M 0 576 
L 576 576 
L 576 0 
L 0 0 
z
" style="fill:#ffffff;"/>
  </g>
  <g id="axes_1">
   <g id="patch_2">
    <path d="M 72 512.64 
L 429.12 512.64 
L 429.12 69.12 
L 72 69.12 
z
" style="fill:#ffffff;"/>
   </g>
   <g id="PathCollection_1">
    <path clip-path="url(#pe1e5ad72de)" d="M 281.221818 332.245865 
L 284.829091 330.292034 
L 287.288413 328.96 
L 288.436364 328.338236 
L 292.043636 326.38444 
L 295.559781 324.48 
L 295.650909 324.430642 
L 299.258182 322.476819 
L 302.865455 320.523001 
L 303.831061 320 
L 306.472727 318.569201 
L 309.084842 315.52 
L 310.08 313.998947 
L 311.993364 311.04 
L 313.687273 308.420421 
L 314.890271 306.56 
L 317.294545 302.841863 
L 317.787193 302.08 
L 319.878206 297.6 
L 320.040696 293.12 
L 319.948147 288.64 
L 319.855603 284.16 
L 319.763047 279.68 
L 319.670496 275.2 
L 319.577957 270.72 
L 319.485396 266.24 
L 319.392855 261.76 
L 319.300303 257.28 
L 319.003229 252.8 
L 317.294545 248.3954 
L 317.214978 248.32 
L 313.687273 244.977085 
L 312.487335 243.84 
L 310.08 241.558778 
L 307.759697 239.36 
L 306.472727 238.140426 
L 303.032071 234.88 
L 302.865455 234.722111 
L 299.258182 231.303758 
L 298.304464 230.4 
L 295.650909 227.885461 
L 293.576797 225.92 
L 292.043636 224.467158 
L 288.849171 221.44 
L 288.436364 221.048812 
L 284.829091 219.534754 
L 284.315053 221.44 
L 283.10632 225.92 
L 281.897616 230.4 
L 281.221818 232.904845 
L 280.688932 234.88 
L 279.717763 239.36 
L 279.236968 243.84 
L 279.006178 248.32 
L 278.992309 252.8 
L 278.978456 257.28 
L 278.964581 261.76 
L 278.95072 266.24 
L 278.936854 270.72 
L 278.922994 275.2 
L 278.909125 279.68 
L 278.895261 284.16 
L 278.881396 288.64 
L 278.867539 293.12 
L 278.853669 297.6 
L 278.8398 302.08 
L 278.825943 306.56 
L 278.812074 311.04 
L 278.798213 315.52 
L 278.784344 320 
L 278.770486 324.48 
L 278.868338 328.96 
z
" style="fill:#4e68d8;"/>
    <path clip-path="url(#pe1e5ad72de)" d="M 73.656255 252.8 
L 75.607273 250.832104 
L 78.097848 248.32 
L 79.214545 247.193653 
L 82.539456 243.84 
L 82.821818 243.555196 
L 86.429091 239.916708 
L 86.981028 239.36 
L 90.036364 236.278255 
L 91.422626 234.88 
L 93.643636 232.63977 
L 95.864205 230.4 
L 97.250909 229.00131 
L 100.305792 225.92 
L 100.858182 225.362829 
L 104.465455 221.724382 
L 104.747398 221.44 
L 108.072727 218.085942 
L 109.189021 216.96 
L 111.68 214.396851 
L 113.589305 212.48 
L 115.287273 210.663886 
L 117.789481 208 
L 118.894545 206.818804 
L 121.980734 203.52 
L 122.501818 202.963025 
L 126.109091 199.107259 
L 126.172015 199.04 
L 129.716364 195.251472 
L 130.363271 194.56 
L 133.323636 191.39573 
L 134.554558 190.08 
L 136.930909 187.539915 
L 138.745804 185.6 
L 140.538182 183.684152 
L 142.937084 181.12 
L 144.145455 179.82839 
L 147.128354 176.64 
L 147.752727 175.972612 
L 151.319592 172.16 
L 151.36 172.116808 
L 154.967273 168.261077 
L 155.510898 167.68 
L 158.574545 164.405309 
L 159.702176 163.2 
L 162.181818 160.549519 
L 163.893414 158.72 
L 165.789091 156.693731 
L 168.084679 154.24 
L 169.396364 152.837959 
L 172.275958 149.76 
L 173.003636 148.982195 
L 176.467237 145.28 
L 176.610909 145.126429 
L 180.218182 141.270655 
L 180.658505 140.8 
L 183.825455 137.414884 
L 184.849771 136.32 
L 187.432727 133.559097 
L 189.041036 131.84 
L 191.04 129.703339 
L 193.232289 127.36 
L 194.647273 125.847542 
L 197.423565 122.88 
L 198.254545 121.99177 
L 201.530639 118.4 
L 201.861818 117.521841 
L 203.151733 113.92 
L 204.756134 109.44 
L 205.469091 107.449155 
L 206.360505 104.96 
L 207.964886 100.48 
L 209.076364 97.376395 
L 209.569288 96 
L 211.173697 91.52 
L 212.683636 87.303795 
L 212.778108 87.04 
L 214.358259 82.56 
L 215.758597 78.08 
L 216.290909 75.492952 
L 216.361176 73.6 
L 216.290909 73.136332 
L 214.823246 69.12 
L 212.683636 69.12 
L 209.076364 69.12 
L 205.469091 69.12 
L 201.861818 69.12 
L 198.254545 69.12 
L 194.647273 69.12 
L 191.04 69.12 
L 187.432727 69.12 
L 183.825455 69.12 
L 180.218182 69.12 
L 176.610909 69.12 
L 173.003636 69.12 
L 169.396364 69.12 
L 165.789091 69.12 
L 162.181818 69.12 
L 158.574545 69.12 
L 154.967273 69.12 
L 151.36 69.12 
L 147.752727 69.12 
L 144.145455 69.12 
L 140.538182 69.12 
L 136.930909 69.12 
L 133.323636 69.12 
L 129.716364 69.12 
L 126.109091 69.12 
L 122.501818 69.12 
L 118.894545 69.12 
L 115.287273 69.12 
L 111.68 69.12 
L 108.072727 69.12 
L 104.465455 69.12 
L 100.858182 69.12 
L 97.250909 69.12 
L 93.643636 69.12 
L 90.036364 69.12 
L 86.429091 69.12 
L 82.821818 69.12 
L 79.214545 69.12 
L 75.607273 69.12 
L 72 69.12 
L 72 73.6 
L 72 78.08 
L 72 82.56 
L 72 87.04 
L 72 91.52 
L 72 96 
L 72 100.48 
L 72 104.96 
L 72 109.44 
L 72 113.92 
L 72 118.4 
L 72 122.88 
L 72 127.36 
L 72 131.84 
L 72 136.32 
L 72 140.8 
L 72 145.28 
L 72 149.76 
L 72 154.24 
L 72 158.72 
L 72 163.2 
L 72 167.68 
L 72 172.16 
L 72 176.64 
L 72 181.12 
L 72 185.6 
L 72 190.08 
L 72 194.56 
L 72 199.04 
L 72 203.52 
L 72 208 
L 72 212.48 
L 72 216.96 
L 72 221.44 
L 72 225.92 
L 72 230.4 
L 72 234.88 
L 72 239.36 
L 72 243.84 
L 72 248.32 
L 72 252.8 
L 72 254.470559 
z
" style="fill:#4e68d8;"/>
   </g>
   <g id="PathCollection_2">
    <path clip-path="url(#pe1e5ad72de)" d="M 72.855251 391.68 
L 75.607273 388.904179 
L 77.296841 387.2 
L 79.214545 385.265714 
L 81.738424 382.72 
L 82.821818 381.627235 
L 86.180033 378.24 
L 86.429091 377.988789 
L 90.036364 374.350318 
L 90.621625 373.76 
L 93.643636 370.711885 
L 95.063238 369.28 
L 97.250909 367.073409 
L 99.504847 364.8 
L 100.858182 363.434963 
L 103.946415 360.32 
L 104.465455 359.796472 
L 108.072727 356.158023 
L 108.388023 355.84 
L 111.68 352.519539 
L 112.829602 351.36 
L 115.287273 348.881094 
L 117.271203 346.88 
L 118.894545 345.242614 
L 121.712808 342.4 
L 122.501818 341.60417 
L 126.109091 337.965705 
L 126.154404 337.92 
L 129.716364 334.327251 
L 130.596007 333.44 
L 133.323636 330.688774 
L 135.03759 328.96 
L 136.930909 327.050312 
L 139.479185 324.48 
L 140.538182 323.411849 
L 143.920778 320 
L 144.145455 319.773381 
L 147.752727 316.134944 
L 148.362399 315.52 
L 151.36 312.496475 
L 152.803993 311.04 
L 154.967273 308.858013 
L 157.245588 306.56 
L 158.574545 305.219551 
L 161.687182 302.08 
L 162.181818 301.581087 
L 165.789091 297.942608 
L 166.128762 297.6 
L 169.396364 294.304143 
L 170.570363 293.12 
L 173.003636 290.665711 
L 175.01198 288.64 
L 176.610909 287.027243 
L 179.45356 284.16 
L 180.218182 283.388762 
L 183.825455 279.750302 
L 183.895154 279.68 
L 187.432727 276.111851 
L 188.336765 275.2 
L 191.04 272.473377 
L 192.77834 270.72 
L 194.647273 268.834915 
L 197.219953 266.24 
L 198.254545 265.196463 
L 201.661546 261.76 
L 201.861818 261.557996 
L 205.469091 257.919535 
L 206.103144 257.28 
L 209.076364 254.28107 
L 210.544741 252.8 
L 212.683636 250.64261 
L 214.986332 248.32 
L 216.290909 247.004142 
L 219.427948 243.84 
L 219.898182 243.365703 
L 223.505455 239.727224 
L 223.869532 239.36 
L 227.112727 236.088753 
L 228.311115 234.88 
L 230.72 232.450298 
L 232.752713 230.4 
L 234.327273 228.811828 
L 237.194325 225.92 
L 237.934545 225.173378 
L 241.541818 221.534906 
L 241.63591 221.44 
L 245.149091 217.89646 
L 246.077524 216.96 
L 248.756364 214.257986 
L 250.519103 212.48 
L 252.363636 210.619516 
L 253.619344 212.48 
L 254.672696 216.96 
L 255.061881 221.44 
L 255.264487 225.92 
L 255.316255 230.4 
L 255.30239 234.88 
L 255.288526 239.36 
L 255.274657 243.84 
L 255.260799 248.32 
L 255.246927 252.8 
L 255.233069 257.28 
L 255.2192 261.76 
L 255.205334 266.24 
L 255.191474 270.72 
L 255.177609 275.2 
L 255.163742 279.68 
L 255.149879 284.16 
L 255.136018 288.64 
L 255.122153 293.12 
L 255.10829 297.6 
L 255.094422 302.08 
L 255.08056 306.56 
L 255.066696 311.04 
L 255.052831 315.52 
L 255.038964 320 
L 255.025102 324.48 
L 255.011233 328.96 
L 254.997369 333.44 
L 254.983505 337.92 
L 254.969642 342.4 
L 254.955778 346.88 
L 254.941912 351.36 
L 254.928049 355.84 
L 254.914186 360.32 
L 254.900321 364.8 
L 254.886459 369.28 
L 254.872592 373.76 
L 254.858729 378.24 
L 255.970909 381.865997 
L 259.578182 380.364714 
L 263.185455 378.410922 
L 263.501023 378.24 
L 266.792727 376.4571 
L 270.4 374.503267 
L 271.772277 373.76 
L 274.007273 372.549468 
L 277.614545 370.595691 
L 280.043685 369.28 
L 281.221818 368.64189 
L 284.829091 366.688051 
L 288.314981 364.8 
L 288.436364 364.734256 
L 292.043636 362.78046 
L 295.650909 360.826671 
L 296.586365 360.32 
L 299.258182 358.872849 
L 302.865455 356.919017 
L 304.85762 355.84 
L 306.472727 354.965216 
L 310.08 353.01143 
L 313.128979 351.36 
L 313.687273 351.057612 
L 317.294545 349.103809 
L 319.450064 346.88 
L 320.901818 344.918887 
L 322.53061 342.4 
L 324.509091 339.340326 
L 325.427517 337.92 
L 328.116364 333.761773 
L 328.324433 333.44 
L 331.221356 328.96 
L 331.723636 328.183235 
L 334.118252 324.48 
L 335.330909 322.604662 
L 337.015168 320 
L 338.096357 315.52 
L 338.047493 311.04 
L 337.954934 306.56 
L 337.862386 302.08 
L 337.769841 297.6 
L 337.677285 293.12 
L 337.584739 288.64 
L 337.492197 284.16 
L 337.399649 279.68 
L 337.307085 275.2 
L 337.21455 270.72 
L 337.122004 266.24 
L 337.029452 261.76 
L 336.936902 257.28 
L 336.844355 252.8 
L 336.751813 248.32 
L 336.659263 243.84 
L 336.566713 239.36 
L 336.474172 234.88 
L 336.381611 230.4 
L 336.289068 225.92 
L 336.196526 221.44 
L 336.103982 216.96 
L 335.330909 214.626725 
L 333.162472 212.48 
L 331.723636 211.116542 
L 328.434794 208 
L 328.116364 207.698249 
L 324.509091 204.279913 
L 323.707169 203.52 
L 320.901818 200.861601 
L 318.979542 199.04 
L 317.294545 197.44326 
L 314.251931 194.56 
L 313.687273 194.024918 
L 310.08 190.606638 
L 309.524252 190.08 
L 306.472727 187.188301 
L 304.796633 185.6 
L 302.865455 183.769979 
L 300.069005 181.12 
L 299.258182 180.351651 
L 295.650909 176.933304 
L 295.34139 176.64 
L 292.043636 173.515016 
L 290.613722 172.16 
L 288.436364 170.096691 
L 285.886112 167.68 
L 284.829091 166.678346 
L 281.221818 163.26003 
L 281.158469 163.2 
L 277.614545 159.841703 
L 276.430845 158.72 
L 274.007273 156.399714 
L 271.764918 154.24 
L 270.4 152.917158 
L 267.142479 149.76 
L 266.792727 149.421024 
L 263.963905 145.28 
L 263.185455 143.893491 
L 262.010025 140.8 
L 260.307775 136.32 
L 259.578182 134.399847 
L 258.605525 131.84 
L 256.903273 127.36 
L 255.970909 124.277156 
L 255.542303 122.88 
L 254.255412 118.4 
L 252.968504 113.92 
L 252.363636 111.814306 
L 251.681612 109.44 
L 250.39474 104.96 
L 249.10784 100.48 
L 248.756364 99.256428 
L 247.820941 96 
L 246.534053 91.52 
L 245.247147 87.04 
L 245.149091 86.69864 
L 243.960264 82.56 
L 242.673376 78.08 
L 241.541818 74.140729 
L 241.386493 73.6 
L 240.099597 69.12 
L 237.934545 69.12 
L 234.327273 69.12 
L 230.72 69.12 
L 227.112727 69.12 
L 223.505455 69.12 
L 219.898182 69.12 
L 216.290909 69.12 
L 214.823246 69.12 
L 216.290909 73.136332 
L 216.361176 73.6 
L 216.290909 75.492952 
L 215.758597 78.08 
L 214.358259 82.56 
L 212.778108 87.04 
L 212.683636 87.303795 
L 211.173697 91.52 
L 209.569288 96 
L 209.076364 97.376395 
L 207.964886 100.48 
L 206.360505 104.96 
L 205.469091 107.449155 
L 204.756134 109.44 
L 203.151733 113.92 
L 201.861818 117.521841 
L 201.530639 118.4 
L 198.254545 121.99177 
L 197.423565 122.88 
L 194.647273 125.847542 
L 193.232289 127.36 
L 191.04 129.703339 
L 189.041036 131.84 
L 187.432727 133.559097 
L 184.849771 136.32 
L 183.825455 137.414884 
L 180.658505 140.8 
L 180.218182 141.270655 
L 176.610909 145.126429 
L 176.467237 145.28 
L 173.003636 148.982195 
L 172.275958 149.76 
L 169.396364 152.837959 
L 168.084679 154.24 
L 165.789091 156.693731 
L 163.893414 158.72 
L 162.181818 160.549519 
L 159.702176 163.2 
L 158.574545 164.405309 
L 155.510898 167.68 
L 154.967273 168.261077 
L 151.36 172.116808 
L 151.319592 172.16 
L 147.752727 175.972612 
L 147.128354 176.64 
L 144.145455 179.82839 
L 142.937084 181.12 
L 140.538182 183.684152 
L 138.745804 185.6 
L 136.930909 187.539915 
L 134.554558 190.08 
L 133.323636 191.39573 
L 130.363271 194.56 
L 129.716364 195.251472 
L 126.172015 199.04 
L 126.109091 199.107259 
L 122.501818 202.963025 
L 121.980734 203.52 
L 118.894545 206.818804 
L 117.789481 208 
L 115.287273 210.663886 
L 113.589305 212.48 
L 111.68 214.396851 
L 109.189021 216.96 
L 108.072727 218.085942 
L 104.747398 221.44 
L 104.465455 221.724382 
L 100.858182 225.362829 
L 100.305792 225.92 
L 97.250909 229.00131 
L 95.864205 230.4 
L 93.643636 232.63977 
L 91.422626 234.88 
L 90.036364 236.278255 
L 86.981028 239.36 
L 86.429091 239.916708 
L 82.821818 243.555196 
L 82.539456 243.84 
L 79.214545 247.193653 
L 78.097848 248.32 
L 75.607273 250.832104 
L 73.656255 252.8 
L 72 254.470559 
L 72 257.28 
L 72 261.76 
L 72 266.24 
L 72 270.72 
L 72 275.2 
L 72 279.68 
L 72 284.16 
L 72 288.64 
L 72 293.12 
L 72 297.6 
L 72 302.08 
L 72 306.56 
L 72 311.04 
L 72 315.52 
L 72 320 
L 72 324.48 
L 72 328.96 
L 72 333.44 
L 72 337.92 
L 72 342.4 
L 72 346.88 
L 72 351.36 
L 72 355.84 
L 72 360.32 
L 72 364.8 
L 72 369.28 
L 72 373.76 
L 72 378.24 
L 72 382.72 
L 72 387.2 
L 72 391.68 
L 72 392.542648 
z
M 278.868338 328.96 
L 278.770486 324.48 
L 278.784344 320 
L 278.798213 315.52 
L 278.812074 311.04 
L 278.825943 306.56 
L 278.8398 302.08 
L 278.853669 297.6 
L 278.867539 293.12 
L 278.881396 288.64 
L 278.895261 284.16 
L 278.909125 279.68 
L 278.922994 275.2 
L 278.936854 270.72 
L 278.95072 266.24 
L 278.964581 261.76 
L 278.978456 257.28 
L 278.992309 252.8 
L 279.006178 248.32 
L 279.236968 243.84 
L 279.717763 239.36 
L 280.688932 234.88 
L 281.221818 232.904845 
L 281.897616 230.4 
L 283.10632 225.92 
L 284.315053 221.44 
L 284.829091 219.534754 
L 288.436364 221.048812 
L 288.849171 221.44 
L 292.043636 224.467158 
L 293.576797 225.92 
L 295.650909 227.885461 
L 298.304464 230.4 
L 299.258182 231.303758 
L 302.865455 234.722111 
L 303.032071 234.88 
L 306.472727 238.140426 
L 307.759697 239.36 
L 310.08 241.558778 
L 312.487335 243.84 
L 313.687273 244.977085 
L 317.214978 248.32 
L 317.294545 248.3954 
L 319.003229 252.8 
L 319.300303 257.28 
L 319.392855 261.76 
L 319.485396 266.24 
L 319.577957 270.72 
L 319.670496 275.2 
L 319.763047 279.68 
L 319.855603 284.16 
L 319.948147 288.64 
L 320.040696 293.12 
L 319.878206 297.6 
L 317.787193 302.08 
L 317.294545 302.841863 
L 314.890271 306.56 
L 313.687273 308.420421 
L 311.993364 311.04 
L 310.08 313.998947 
L 309.084842 315.52 
L 306.472727 318.569201 
L 303.831061 320 
L 302.865455 320.523001 
L 299.258182 322.476819 
L 295.650909 324.430642 
L 295.559781 324.48 
L 292.043636 326.38444 
L 288.436364 328.338236 
L 287.288413 328.96 
L 284.829091 330.292034 
L 281.221818 332.245865 
z
" style="fill:#779af7;"/>
   </g>
   <g id="PathCollection_3">
    <path clip-path="url(#pe1e5ad72de)" d="M 75.607273 512.64 
L 79.214545 512.64 
L 82.821818 512.64 
L 86.429091 512.64 
L 90.036364 512.64 
L 90.829004 512.64 
L 93.643636 509.482142 
L 94.82208 508.16 
L 97.250909 505.448759 
L 98.826566 503.68 
L 100.858182 501.66283 
L 103.145416 499.2 
L 104.465455 497.868549 
L 107.587014 494.72 
L 108.072727 494.230088 
L 111.68 490.591627 
L 112.028613 490.24 
L 115.287273 486.953156 
L 116.470206 485.76 
L 118.894545 483.314696 
L 120.91179 481.28 
L 122.501818 479.676235 
L 125.353407 476.8 
L 126.109091 476.037782 
L 129.716364 472.403139 
L 129.794992 472.32 
L 133.323636 468.76086 
L 134.236603 467.84 
L 136.930909 465.122383 
L 138.678188 463.36 
L 140.538182 461.483938 
L 143.1198 458.88 
L 144.145455 457.845477 
L 147.561385 454.4 
L 147.752727 454.207003 
L 151.36 450.568533 
L 152.002972 449.92 
L 154.967273 446.930072 
L 156.444568 445.44 
L 158.574545 443.291607 
L 160.886166 440.96 
L 162.181818 439.653146 
L 165.327764 436.48 
L 165.789091 436.014683 
L 169.396364 432.376226 
L 169.769365 432 
L 173.003636 428.73777 
L 174.210965 427.52 
L 176.610909 425.0993 
L 178.652553 423.04 
L 180.218182 421.46084 
L 183.094157 418.56 
L 183.825455 417.822379 
L 187.432727 414.188315 
L 187.535755 414.08 
L 191.04 410.545447 
L 191.977343 409.6 
L 194.647273 406.906988 
L 196.418938 405.12 
L 198.254545 403.268517 
L 200.860542 400.64 
L 201.861818 399.630068 
L 205.302146 396.16 
L 205.469091 395.991613 
L 209.076364 392.353139 
L 209.743735 391.68 
L 212.683636 388.714682 
L 214.185336 387.2 
L 216.290909 385.076224 
L 218.626937 382.72 
L 219.898182 381.437762 
L 223.068525 378.24 
L 223.505455 377.799295 
L 227.112727 374.160823 
L 227.634968 373.76 
L 230.72 370.821712 
L 231.127205 373.76 
L 231.113343 378.24 
L 231.099479 382.72 
L 231.085607 387.2 
L 231.071745 391.68 
L 231.05788 396.16 
L 231.044019 400.64 
L 231.030153 405.12 
L 231.016289 409.6 
L 231.002426 414.08 
L 230.98856 418.56 
L 230.974697 423.04 
L 231.125169 427.52 
L 234.327273 430.768786 
L 237.934545 429.60623 
L 239.713554 427.52 
L 241.541818 426.52975 
L 245.149091 425.644921 
L 247.984871 423.04 
L 248.756364 422.622135 
L 252.363636 421.498864 
L 255.970909 419.109374 
L 256.413262 418.56 
L 259.578182 417.251839 
L 263.185455 415.857115 
L 264.616378 414.08 
L 266.792727 412.943623 
L 270.4 412.020398 
L 272.798859 409.6 
L 274.007273 408.945487 
L 277.614545 407.936363 
L 281.070207 405.12 
L 281.221818 405.037883 
L 284.829091 403.724612 
L 288.436364 402.016259 
L 289.544521 400.64 
L 292.043636 399.438389 
L 295.650909 398.355651 
L 297.612903 396.16 
L 299.258182 395.268861 
L 302.865455 394.352709 
L 305.884205 391.68 
L 306.472727 391.361242 
L 310.08 390.184961 
L 313.687273 388.035969 
L 314.36039 387.2 
L 317.294545 385.925202 
L 320.901818 384.635746 
L 322.444367 382.72 
L 324.509091 381.608897 
L 328.116364 380.741926 
L 330.130902 378.24 
L 331.723636 376.400916 
L 333.850088 373.76 
L 335.330909 371.088802 
L 336.787347 369.28 
L 338.861685 364.8 
L 338.938182 364.681701 
L 341.758644 360.32 
L 342.545455 359.103211 
L 345.044204 355.84 
L 346.152727 354.04459 
L 348.314345 351.36 
L 349.76 348.779964 
L 351.289842 346.88 
L 353.346246 342.4 
L 353.367273 342.367482 
L 355.860813 337.92 
L 356.14683 333.44 
L 356.054296 328.96 
L 355.961734 324.48 
L 355.869188 320 
L 355.776645 315.52 
L 355.684114 311.04 
L 355.591532 306.56 
L 355.498999 302.08 
L 355.406448 297.6 
L 355.313897 293.12 
L 355.221338 288.64 
L 355.128801 284.16 
L 355.036254 279.68 
L 354.943695 275.2 
L 354.851152 270.72 
L 354.758615 266.24 
L 354.666062 261.76 
L 354.573506 257.28 
L 354.480955 252.8 
L 354.388416 248.32 
L 354.295857 243.84 
L 354.203305 239.36 
L 354.110772 234.88 
L 354.018209 230.4 
L 353.925659 225.92 
L 353.833121 221.44 
L 353.740565 216.96 
L 353.64802 212.48 
L 353.555463 208 
L 353.462924 203.52 
L 353.370369 199.04 
L 353.367273 198.890105 
L 353.277823 194.56 
L 353.185275 190.08 
L 353.054131 185.6 
L 352.59043 181.12 
L 349.76 177.256062 
L 349.109891 176.64 
L 346.152727 173.837719 
L 344.38228 172.16 
L 342.545455 170.419379 
L 339.654628 167.68 
L 338.938182 167.001081 
L 335.330909 163.582737 
L 334.927014 163.2 
L 331.723636 160.164436 
L 330.199371 158.72 
L 328.116364 156.74609 
L 325.471756 154.24 
L 324.509091 153.32776 
L 320.901818 149.909453 
L 320.744103 149.76 
L 317.294545 146.491158 
L 316.016445 145.28 
L 313.687273 143.053129 
L 311.344729 140.8 
L 310.08 139.574243 
L 306.722256 136.32 
L 306.472727 136.053192 
L 302.865455 132.305123 
L 302.404091 131.84 
L 299.258182 128.105467 
L 298.630219 127.36 
L 295.650909 123.823281 
L 294.856306 122.88 
L 292.043636 119.541032 
L 291.082453 118.4 
L 288.436364 115.258799 
L 287.308559 113.92 
L 284.829091 110.976633 
L 283.53467 109.44 
L 281.221818 106.694336 
L 279.760846 104.96 
L 277.614545 102.412135 
L 275.986954 100.48 
L 274.007273 98.12992 
L 272.868519 96 
L 270.933126 91.52 
L 270.4 90.040395 
L 269.538124 87.04 
L 268.251237 82.56 
L 266.96437 78.08 
L 266.792727 77.48247 
L 265.677466 73.6 
L 264.390578 69.12 
L 263.185455 69.12 
L 259.578182 69.12 
L 255.970909 69.12 
L 252.363636 69.12 
L 248.756364 69.12 
L 245.149091 69.12 
L 241.541818 69.12 
L 240.099597 69.12 
L 241.386493 73.6 
L 241.541818 74.140729 
L 242.673376 78.08 
L 243.960264 82.56 
L 245.149091 86.69864 
L 245.247147 87.04 
L 246.534053 91.52 
L 247.820941 96 
L 248.756364 99.256428 
L 249.10784 100.48 
L 250.39474 104.96 
L 251.681612 109.44 
L 252.363636 111.814306 
L 252.968504 113.92 
L 254.255412 118.4 
L 255.542303 122.88 
L 255.970909 124.277156 
L 256.903273 127.36 
L 258.605525 131.84 
L 259.578182 134.399847 
L 260.307775 136.32 
L 262.010025 140.8 
L 263.185455 143.893491 
L 263.963905 145.28 
L 266.792727 149.421024 
L 267.142479 149.76 
L 270.4 152.917158 
L 271.764918 154.24 
L 274.007273 156.399714 
L 276.430845 158.72 
L 277.614545 159.841703 
L 281.158469 163.2 
L 281.221818 163.26003 
L 284.829091 166.678346 
L 285.886112 167.68 
L 288.436364 170.096691 
L 290.613722 172.16 
L 292.043636 173.515016 
L 295.34139 176.64 
L 295.650909 176.933304 
L 299.258182 180.351651 
L 300.069005 181.12 
L 302.865455 183.769979 
L 304.796633 185.6 
L 306.472727 187.188301 
L 309.524252 190.08 
L 310.08 190.606638 
L 313.687273 194.024918 
L 314.251931 194.56 
L 317.294545 197.44326 
L 318.979542 199.04 
L 320.901818 200.861601 
L 323.707169 203.52 
L 324.509091 204.279913 
L 328.116364 207.698249 
L 328.434794 208 
L 331.723636 211.116542 
L 333.162472 212.48 
L 335.330909 214.626725 
L 336.103982 216.96 
L 336.196526 221.44 
L 336.289068 225.92 
L 336.381611 230.4 
L 336.474172 234.88 
L 336.566713 239.36 
L 336.659263 243.84 
L 336.751813 248.32 
L 336.844355 252.8 
L 336.936902 257.28 
L 337.029452 261.76 
L 337.122004 266.24 
L 337.21455 270.72 
L 337.307085 275.2 
L 337.399649 279.68 
L 337.492197 284.16 
L 337.584739 288.64 
L 337.677285 293.12 
L 337.769841 297.6 
L 337.862386 302.08 
L 337.954934 306.56 
L 338.047493 311.04 
L 338.096357 315.52 
L 337.015168 320 
L 335.330909 322.604662 
L 334.118252 324.48 
L 331.723636 328.183235 
L 331.221356 328.96 
L 328.324433 333.44 
L 328.116364 333.761773 
L 325.427517 337.92 
L 324.509091 339.340326 
L 322.53061 342.4 
L 320.901818 344.918887 
L 319.450064 346.88 
L 317.294545 349.103809 
L 313.687273 351.057612 
L 313.128979 351.36 
L 310.08 353.01143 
L 306.472727 354.965216 
L 304.85762 355.84 
L 302.865455 356.919017 
L 299.258182 358.872849 
L 296.586365 360.32 
L 295.650909 360.826671 
L 292.043636 362.78046 
L 288.436364 364.734256 
L 288.314981 364.8 
L 284.829091 366.688051 
L 281.221818 368.64189 
L 280.043685 369.28 
L 277.614545 370.595691 
L 274.007273 372.549468 
L 271.772277 373.76 
L 270.4 374.503267 
L 266.792727 376.4571 
L 263.501023 378.24 
L 263.185455 378.410922 
L 259.578182 380.364714 
L 255.970909 381.865997 
L 254.858729 378.24 
L 254.872592 373.76 
L 254.886459 369.28 
L 254.900321 364.8 
L 254.914186 360.32 
L 254.928049 355.84 
L 254.941912 351.36 
L 254.955778 346.88 
L 254.969642 342.4 
L 254.983505 337.92 
L 254.997369 333.44 
L 255.011233 328.96 
L 255.025102 324.48 
L 255.038964 320 
L 255.052831 315.52 
L 255.066696 311.04 
L 255.08056 306.56 
L 255.094422 302.08 
L 255.10829 297.6 
L 255.122153 293.12 
L 255.136018 288.64 
L 255.149879 284.16 
L 255.163742 279.68 
L 255.177609 275.2 
L 255.191474 270.72 
L 255.205334 266.24 
L 255.2192 261.76 
L 255.233069 257.28 
L 255.246927 252.8 
L 255.260799 248.32 
L 255.274657 243.84 
L 255.288526 239.36 
L 255.30239 234.88 
L 255.316255 230.4 
L 255.264487 225.92 
L 255.061881 221.44 
L 254.672696 216.96 
L 253.619344 212.48 
L 252.363636 210.619516 
L 250.519103 212.48 
L 248.756364 214.257986 
L 246.077524 216.96 
L 245.149091 217.89646 
L 241.63591 221.44 
L 241.541818 221.534906 
L 237.934545 225.173378 
L 237.194325 225.92 
L 234.327273 228.811828 
L 232.752713 230.4 
L 230.72 232.450298 
L 228.311115 234.88 
L 227.112727 236.088753 
L 223.869532 239.36 
L 223.505455 239.727224 
L 219.898182 243.365703 
L 219.427948 243.84 
L 216.290909 247.004142 
L 214.986332 248.32 
L 212.683636 250.64261 
L 210.544741 252.8 
L 209.076364 254.28107 
L 206.103144 257.28 
L 205.469091 257.919535 
L 201.861818 261.557996 
L 201.661546 261.76 
L 198.254545 265.196463 
L 197.219953 266.24 
L 194.647273 268.834915 
L 192.77834 270.72 
L 191.04 272.473377 
L 188.336765 275.2 
L 187.432727 276.111851 
L 183.895154 279.68 
L 183.825455 279.750302 
L 180.218182 283.388762 
L 179.45356 284.16 
L 176.610909 287.027243 
L 175.01198 288.64 
L 173.003636 290.665711 
L 170.570363 293.12 
L 169.396364 294.304143 
L 166.128762 297.6 
L 165.789091 297.942608 
L 162.181818 301.581087 
L 161.687182 302.08 
L 158.574545 305.219551 
L 157.245588 306.56 
L 154.967273 308.858013 
L 152.803993 311.04 
L 151.36 312.496475 
L 148.362399 315.52 
L 147.752727 316.134944 
L 144.145455 319.773381 
L 143.920778 320 
L 140.538182 323.411849 
L 139.479185 324.48 
L 136.930909 327.050312 
L 135.03759 328.96 
L 133.323636 330.688774 
L 130.596007 333.44 
L 129.716364 334.327251 
L 126.154404 337.92 
L 126.109091 337.965705 
L 122.501818 341.60417 
L 121.712808 342.4 
L 118.894545 345.242614 
L 117.271203 346.88 
L 115.287273 348.881094 
L 112.829602 351.36 
L 111.68 352.519539 
L 108.388023 355.84 
L 108.072727 356.158023 
L 104.465455 359.796472 
L 103.946415 360.32 
L 100.858182 363.434963 
L 99.504847 364.8 
L 97.250909 367.073409 
L 95.063238 369.28 
L 93.643636 370.711885 
L 90.621625 373.76 
L 90.036364 374.350318 
L 86.429091 377.988789 
L 86.180033 378.24 
L 82.821818 381.627235 
L 81.738424 382.72 
L 79.214545 385.265714 
L 77.296841 387.2 
L 75.607273 388.904179 
L 72.855251 391.68 
L 72 392.542648 
L 72 396.16 
L 72 400.64 
L 72 405.12 
L 72 409.6 
L 72 414.08 
L 72 418.56 
L 72 423.04 
L 72 427.52 
L 72 432 
L 72 436.48 
L 72 440.96 
L 72 445.44 
L 72 449.92 
L 72 454.4 
L 72 458.88 
L 72 463.36 
L 72 467.84 
L 72 472.32 
L 72 476.8 
L 72 481.28 
L 72 485.76 
L 72 490.24 
L 72 494.72 
L 72 499.2 
L 72 503.68 
L 72 508.16 
L 72 512.64 
z
" style="fill:#a3c2fe;"/>
   </g>
   <g id="PathCollection_4">
    <path clip-path="url(#pe1e5ad72de)" d="M 93.643636 512.64 
L 97.250909 512.64 
L 100.858182 512.64 
L 104.465455 512.64 
L 108.072727 512.64 
L 111.68 512.64 
L 115.287273 512.64 
L 118.894545 512.64 
L 122.501818 512.64 
L 126.109091 512.64 
L 129.716364 512.64 
L 133.323636 512.64 
L 136.930909 512.64 
L 140.538182 512.64 
L 144.145455 512.64 
L 147.752727 512.64 
L 151.36 512.64 
L 154.967273 512.64 
L 158.574545 512.64 
L 162.181818 512.64 
L 165.789091 512.64 
L 169.396364 512.64 
L 173.003636 512.64 
L 176.610909 512.64 
L 180.218182 512.64 
L 183.825455 512.64 
L 187.432727 512.64 
L 191.04 512.64 
L 194.647273 512.64 
L 198.254545 512.64 
L 201.861818 512.64 
L 205.469091 512.64 
L 209.076364 512.64 
L 212.683636 512.64 
L 216.290909 512.64 
L 219.898182 512.64 
L 223.505455 512.64 
L 227.112727 512.64 
L 230.72 512.64 
L 234.327273 512.64 
L 237.934545 512.64 
L 241.541818 512.64 
L 245.149091 512.64 
L 248.756364 512.64 
L 252.363636 512.64 
L 255.970909 512.64 
L 259.578182 512.64 
L 263.185455 512.64 
L 266.792727 512.64 
L 270.4 512.64 
L 274.007273 512.64 
L 277.614545 512.64 
L 281.221818 512.64 
L 284.829091 512.64 
L 288.436364 512.64 
L 292.043636 512.64 
L 295.650909 512.64 
L 299.258182 512.64 
L 302.865455 512.64 
L 306.472727 512.64 
L 310.08 512.64 
L 313.687273 512.64 
L 317.294545 512.64 
L 320.901818 512.64 
L 324.509091 512.64 
L 328.116364 512.64 
L 331.723636 512.64 
L 335.330909 512.64 
L 338.938182 512.64 
L 342.545455 512.64 
L 346.152727 512.64 
L 349.76 512.64 
L 353.367273 512.64 
L 356.974545 512.64 
L 360.581818 512.64 
L 364.189091 512.64 
L 367.796364 512.64 
L 371.403636 512.64 
L 375.010909 512.64 
L 378.618182 512.64 
L 382.225455 512.64 
L 385.832727 512.64 
L 389.44 512.64 
L 393.047273 512.64 
L 396.654545 512.64 
L 400.261818 512.64 
L 403.869091 512.64 
L 407.476364 512.64 
L 411.083636 512.64 
L 414.690909 512.64 
L 418.298182 512.64 
L 421.905455 512.64 
L 425.512727 512.64 
L 429.12 512.64 
L 429.12 508.16 
L 429.12 503.68 
L 429.12 499.2 
L 429.12 494.72 
L 429.12 490.24 
L 429.12 485.76 
L 429.12 481.28 
L 429.12 476.8 
L 429.12 472.32 
L 429.12 467.84 
L 429.12 463.36 
L 429.12 458.88 
L 429.12 454.4 
L 429.12 449.92 
L 429.12 445.44 
L 429.12 440.96 
L 429.12 436.48 
L 429.12 432 
L 429.12 427.52 
L 429.12 423.04 
L 429.12 418.56 
L 429.12 414.08 
L 429.12 409.6 
L 429.12 405.12 
L 429.12 400.64 
L 429.12 396.16 
L 429.12 391.68 
L 429.12 387.2 
L 429.12 382.72 
L 429.12 380.123652 
L 427.712078 378.24 
L 425.512727 375.297552 
L 424.363468 373.76 
L 421.905455 370.471499 
L 421.014862 369.28 
L 418.298182 365.645446 
L 417.666243 364.8 
L 414.690909 360.819366 
L 414.317661 360.32 
L 411.083636 355.993301 
L 410.96905 355.84 
L 407.476364 351.574903 
L 407.294149 351.36 
L 403.869091 347.321554 
L 403.494606 346.88 
L 400.261818 343.068286 
L 399.695033 342.4 
L 396.654545 338.814994 
L 395.895486 337.92 
L 393.047273 334.561743 
L 392.059751 333.44 
L 389.44 330.53974 
L 388.002781 328.96 
L 385.832727 326.574758 
L 383.926947 324.48 
L 382.225455 322.609802 
L 379.845581 320 
L 378.618182 318.654555 
L 375.754279 315.52 
L 375.010909 314.706372 
L 373.468136 311.04 
L 373.228127 306.56 
L 373.135589 302.08 
L 373.043027 297.6 
L 372.950482 293.12 
L 372.857939 288.64 
L 372.765384 284.16 
L 372.67285 279.68 
L 372.580286 275.2 
L 372.487757 270.72 
L 372.395192 266.24 
L 372.302657 261.76 
L 372.210108 257.28 
L 372.117556 252.8 
L 372.025016 248.32 
L 371.932473 243.84 
L 371.839907 239.36 
L 371.747385 234.88 
L 371.654844 230.4 
L 371.562274 225.92 
L 371.469717 221.44 
L 371.403636 218.240861 
L 371.377179 216.96 
L 371.284632 212.48 
L 371.19208 208 
L 371.099532 203.52 
L 371.006997 199.04 
L 370.91445 194.56 
L 370.821887 190.08 
L 370.729336 185.6 
L 370.636803 181.12 
L 370.544237 176.64 
L 370.451687 172.16 
L 370.359153 167.68 
L 370.266604 163.2 
L 370.174047 158.72 
L 370.081506 154.24 
L 369.988956 149.76 
L 368.885979 145.28 
L 367.796364 143.205132 
L 365.415579 140.8 
L 364.189091 139.382841 
L 361.538329 136.32 
L 360.581818 135.214781 
L 357.661177 131.84 
L 356.974545 131.043713 
L 353.81765 127.36 
L 353.367273 126.825363 
L 350.043801 122.88 
L 349.76 122.543093 
L 346.269915 118.4 
L 346.152727 118.260885 
L 342.545455 113.97863 
L 342.496065 113.92 
L 338.938182 109.696486 
L 338.722123 109.44 
L 335.330909 105.414198 
L 334.948302 104.96 
L 331.723636 101.13201 
L 331.174397 100.48 
L 328.116364 96.849756 
L 327.400539 96 
L 324.509091 92.567543 
L 323.626667 91.52 
L 320.901818 88.285285 
L 319.85281 87.04 
L 317.294545 84.00311 
L 316.078893 82.56 
L 313.687273 79.720857 
L 312.305033 78.08 
L 310.08 75.438656 
L 308.531158 73.6 
L 306.472727 71.156401 
L 304.757315 69.12 
L 302.865455 69.12 
L 299.258182 69.12 
L 295.650909 69.12 
L 292.043636 69.12 
L 288.436364 69.12 
L 284.829091 69.12 
L 281.221818 69.12 
L 277.614545 69.12 
L 274.007273 69.12 
L 270.4 69.12 
L 266.792727 69.12 
L 264.390578 69.12 
L 265.677466 73.6 
L 266.792727 77.48247 
L 266.96437 78.08 
L 268.251237 82.56 
L 269.538124 87.04 
L 270.4 90.040395 
L 270.933126 91.52 
L 272.868519 96 
L 274.007273 98.12992 
L 275.986954 100.48 
L 277.614545 102.412135 
L 279.760846 104.96 
L 281.221818 106.694336 
L 283.53467 109.44 
L 284.829091 110.976633 
L 287.308559 113.92 
L 288.436364 115.258799 
L 291.082453 118.4 
L 292.043636 119.541032 
L 294.856306 122.88 
L 295.650909 123.823281 
L 298.630219 127.36 
L 299.258182 128.105467 
L 302.404091 131.84 
L 302.865455 132.305123 
L 306.472727 136.053192 
L 306.722256 136.32 
L 310.08 139.574243 
L 311.344729 140.8 
L 313.687273 143.053129 
L 316.016445 145.28 
L 317.294545 146.491158 
L 320.744103 149.76 
L 320.901818 149.909453 
L 324.509091 153.32776 
L 325.471756 154.24 
L 328.116364 156.74609 
L 330.199371 158.72 
L 331.723636 160.164436 
L 334.927014 163.2 
L 335.330909 163.582737 
L 338.938182 167.001081 
L 339.654628 167.68 
L 342.545455 170.419379 
L 344.38228 172.16 
L 346.152727 173.837719 
L 349.109891 176.64 
L 349.76 177.256062 
L 352.59043 181.12 
L 353.054131 185.6 
L 353.185275 190.08 
L 353.277823 194.56 
L 353.367273 198.890105 
L 353.370369 199.04 
L 353.462924 203.52 
L 353.555463 208 
L 353.64802 212.48 
L 353.740565 216.96 
L 353.833121 221.44 
L 353.925659 225.92 
L 354.018209 230.4 
L 354.110772 234.88 
L 354.203305 239.36 
L 354.295857 243.84 
L 354.388416 248.32 
L 354.480955 252.8 
L 354.573506 257.28 
L 354.666062 261.76 
L 354.758615 266.24 
L 354.851152 270.72 
L 354.943695 275.2 
L 355.036254 279.68 
L 355.128801 284.16 
L 355.221338 288.64 
L 355.313897 293.12 
L 355.406448 297.6 
L 355.498999 302.08 
L 355.591532 306.56 
L 355.684114 311.04 
L 355.776645 315.52 
L 355.869188 320 
L 355.961734 324.48 
L 356.054296 328.96 
L 356.14683 333.44 
L 355.860813 337.92 
L 353.367273 342.367482 
L 353.346246 342.4 
L 351.289842 346.88 
L 349.76 348.779964 
L 348.314345 351.36 
L 346.152727 354.04459 
L 345.044204 355.84 
L 342.545455 359.103211 
L 341.758644 360.32 
L 338.938182 364.681701 
L 338.861685 364.8 
L 336.787347 369.28 
L 335.330909 371.088802 
L 333.850088 373.76 
L 331.723636 376.400916 
L 330.130902 378.24 
L 328.116364 380.741926 
L 324.509091 381.608897 
L 322.444367 382.72 
L 320.901818 384.635746 
L 317.294545 385.925202 
L 314.36039 387.2 
L 313.687273 388.035969 
L 310.08 390.184961 
L 306.472727 391.361242 
L 305.884205 391.68 
L 302.865455 394.352709 
L 299.258182 395.268861 
L 297.612903 396.16 
L 295.650909 398.355651 
L 292.043636 399.438389 
L 289.544521 400.64 
L 288.436364 402.016259 
L 284.829091 403.724612 
L 281.221818 405.037883 
L 281.070207 405.12 
L 277.614545 407.936363 
L 274.007273 408.945487 
L 272.798859 409.6 
L 270.4 412.020398 
L 266.792727 412.943623 
L 264.616378 414.08 
L 263.185455 415.857115 
L 259.578182 417.251839 
L 256.413262 418.56 
L 255.970909 419.109374 
L 252.363636 421.498864 
L 248.756364 422.622135 
L 247.984871 423.04 
L 245.149091 425.644921 
L 241.541818 426.52975 
L 239.713554 427.52 
L 237.934545 429.60623 
L 234.327273 430.768786 
L 231.125169 427.52 
L 230.974697 423.04 
L 230.98856 418.56 
L 231.002426 414.08 
L 231.016289 409.6 
L 231.030153 405.12 
L 231.044019 400.64 
L 231.05788 396.16 
L 231.071745 391.68 
L 231.085607 387.2 
L 231.099479 382.72 
L 231.113343 378.24 
L 231.127205 373.76 
L 230.72 370.821712 
L 227.634968 373.76 
L 227.112727 374.160823 
L 223.505455 377.799295 
L 223.068525 378.24 
L 219.898182 381.437762 
L 218.626937 382.72 
L 216.290909 385.076224 
L 214.185336 387.2 
L 212.683636 388.714682 
L 209.743735 391.68 
L 209.076364 392.353139 
L 205.469091 395.991613 
L 205.302146 396.16 
L 201.861818 399.630068 
L 200.860542 400.64 
L 198.254545 403.268517 
L 196.418938 405.12 
L 194.647273 406.906988 
L 191.977343 409.6 
L 191.04 410.545447 
L 187.535755 414.08 
L 187.432727 414.188315 
L 183.825455 417.822379 
L 183.094157 418.56 
L 180.218182 421.46084 
L 178.652553 423.04 
L 176.610909 425.0993 
L 174.210965 427.52 
L 173.003636 428.73777 
L 169.769365 432 
L 169.396364 432.376226 
L 165.789091 436.014683 
L 165.327764 436.48 
L 162.181818 439.653146 
L 160.886166 440.96 
L 158.574545 443.291607 
L 156.444568 445.44 
L 154.967273 446.930072 
L 152.002972 449.92 
L 151.36 450.568533 
L 147.752727 454.207003 
L 147.561385 454.4 
L 144.145455 457.845477 
L 143.1198 458.88 
L 140.538182 461.483938 
L 138.678188 463.36 
L 136.930909 465.122383 
L 134.236603 467.84 
L 133.323636 468.76086 
L 129.794992 472.32 
L 129.716364 472.403139 
L 126.109091 476.037782 
L 125.353407 476.8 
L 122.501818 479.676235 
L 120.91179 481.28 
L 118.894545 483.314696 
L 116.470206 485.76 
L 115.287273 486.953156 
L 112.028613 490.24 
L 111.68 490.591627 
L 108.072727 494.230088 
L 107.587014 494.72 
L 104.465455 497.868549 
L 103.145416 499.2 
L 100.858182 501.66283 
L 98.826566 503.68 
L 97.250909 505.448759 
L 94.82208 508.16 
L 93.643636 509.482142 
L 90.829004 512.64 
z
" style="fill:#ccd9ed;"/>
   </g>
   <g id="PathCollection_5">
    <path clip-path="url(#pe1e5ad72de)" d="M 429.12 380.123652 
L 429.12 378.24 
L 429.12 373.76 
L 429.12 369.28 
L 429.12 364.8 
L 429.12 360.32 
L 429.12 355.84 
L 429.12 351.36 
L 429.12 346.88 
L 429.12 342.4 
L 429.12 337.92 
L 429.12 333.44 
L 429.12 330.76322 
L 427.590673 328.96 
L 425.512727 326.509927 
L 423.791114 324.48 
L 421.905455 322.256658 
L 419.991532 320 
L 418.298182 318.00339 
L 416.191983 315.52 
L 414.690909 313.750095 
L 412.392471 311.04 
L 411.083636 309.496785 
L 408.592898 306.56 
L 407.476364 305.257503 
L 404.62863 302.08 
L 403.869091 301.245156 
L 400.552761 297.6 
L 400.261818 297.280207 
L 396.654545 293.315261 
L 396.476897 293.12 
L 393.047273 289.350309 
L 392.462476 288.64 
L 390.857346 284.16 
L 390.716546 279.68 
L 390.585862 275.2 
L 390.455228 270.72 
L 390.324556 266.24 
L 390.193896 261.76 
L 390.063236 257.28 
L 389.932566 252.8 
L 389.801931 248.32 
L 389.671256 243.84 
L 389.540587 239.36 
L 389.44 235.910801 
L 389.411753 234.88 
L 389.291404 230.4 
L 389.198855 225.92 
L 389.106309 221.44 
L 389.013768 216.96 
L 388.921227 212.48 
L 388.828675 208 
L 388.736119 203.52 
L 388.64359 199.04 
L 388.551025 194.56 
L 388.458482 190.08 
L 388.365927 185.6 
L 388.273381 181.12 
L 388.180823 176.64 
L 388.088277 172.16 
L 387.995743 167.68 
L 387.903189 163.2 
L 387.810638 158.72 
L 387.7181 154.24 
L 387.625549 149.76 
L 387.561648 145.28 
L 387.790784 140.8 
L 388.019908 136.32 
L 388.249011 131.84 
L 388.478138 127.36 
L 388.70726 122.88 
L 388.936376 118.4 
L 389.182788 113.92 
L 389.435933 109.44 
L 389.44 109.38206 
L 389.665924 104.96 
L 389.44 104.134111 
L 386.361907 100.48 
L 385.832727 99.851792 
L 382.588001 96 
L 382.225455 95.569629 
L 378.814153 91.52 
L 378.618182 91.287358 
L 375.040245 87.04 
L 375.010909 87.005175 
L 371.403636 82.722944 
L 371.266376 82.56 
L 367.796364 78.440746 
L 367.492475 78.08 
L 364.189091 74.158551 
L 363.718581 73.6 
L 360.581818 69.876272 
L 359.944756 69.12 
L 356.974545 69.12 
L 353.367273 69.12 
L 349.76 69.12 
L 346.152727 69.12 
L 342.545455 69.12 
L 338.938182 69.12 
L 335.330909 69.12 
L 331.723636 69.12 
L 328.116364 69.12 
L 324.509091 69.12 
L 320.901818 69.12 
L 317.294545 69.12 
L 313.687273 69.12 
L 310.08 69.12 
L 306.472727 69.12 
L 304.757315 69.12 
L 306.472727 71.156401 
L 308.531158 73.6 
L 310.08 75.438656 
L 312.305033 78.08 
L 313.687273 79.720857 
L 316.078893 82.56 
L 317.294545 84.00311 
L 319.85281 87.04 
L 320.901818 88.285285 
L 323.626667 91.52 
L 324.509091 92.567543 
L 327.400539 96 
L 328.116364 96.849756 
L 331.174397 100.48 
L 331.723636 101.13201 
L 334.948302 104.96 
L 335.330909 105.414198 
L 338.722123 109.44 
L 338.938182 109.696486 
L 342.496065 113.92 
L 342.545455 113.97863 
L 346.152727 118.260885 
L 346.269915 118.4 
L 349.76 122.543093 
L 350.043801 122.88 
L 353.367273 126.825363 
L 353.81765 127.36 
L 356.974545 131.043713 
L 357.661177 131.84 
L 360.581818 135.214781 
L 361.538329 136.32 
L 364.189091 139.382841 
L 365.415579 140.8 
L 367.796364 143.205132 
L 368.885979 145.28 
L 369.988956 149.76 
L 370.081506 154.24 
L 370.174047 158.72 
L 370.266604 163.2 
L 370.359153 167.68 
L 370.451687 172.16 
L 370.544237 176.64 
L 370.636803 181.12 
L 370.729336 185.6 
L 370.821887 190.08 
L 370.91445 194.56 
L 371.006997 199.04 
L 371.099532 203.52 
L 371.19208 208 
L 371.284632 212.48 
L 371.377179 216.96 
L 371.403636 218.240861 
L 371.469717 221.44 
L 371.562274 225.92 
L 371.654844 230.4 
L 371.747385 234.88 
L 371.839907 239.36 
L 371.932473 243.84 
L 372.025016 248.32 
L 372.117556 252.8 
L 372.210108 257.28 
L 372.302657 261.76 
L 372.395192 266.24 
L 372.487757 270.72 
L 372.580286 275.2 
L 372.67285 279.68 
L 372.765384 284.16 
L 372.857939 288.64 
L 372.950482 293.12 
L 373.043027 297.6 
L 373.135589 302.08 
L 373.228127 306.56 
L 373.468136 311.04 
L 375.010909 314.706372 
L 375.754279 315.52 
L 378.618182 318.654555 
L 379.845581 320 
L 382.225455 322.609802 
L 383.926947 324.48 
L 385.832727 326.574758 
L 388.002781 328.96 
L 389.44 330.53974 
L 392.059751 333.44 
L 393.047273 334.561743 
L 395.895486 337.92 
L 396.654545 338.814994 
L 399.695033 342.4 
L 400.261818 343.068286 
L 403.494606 346.88 
L 403.869091 347.321554 
L 407.294149 351.36 
L 407.476364 351.574903 
L 410.96905 355.84 
L 411.083636 355.993301 
L 414.317661 360.32 
L 414.690909 360.819366 
L 417.666243 364.8 
L 418.298182 365.645446 
L 421.014862 369.28 
L 421.905455 370.471499 
L 424.363468 373.76 
L 425.512727 375.297552 
L 427.712078 378.24 
z
" style="fill:#ecd3c5;"/>
   </g>
   <g id="PathCollection_6">
    <path clip-path="url(#pe1e5ad72de)" d="M 429.12 330.76322 
L 429.12 328.96 
L 429.12 324.48 
L 429.12 320 
L 429.12 315.52 
L 429.12 311.04 
L 429.12 306.56 
L 429.12 302.08 
L 429.12 297.6 
L 429.12 293.12 
L 429.12 288.64 
L 429.12 284.431895 
L 428.889402 284.16 
L 425.512727 280.178583 
L 425.089871 279.68 
L 421.905455 275.932696 
L 421.254502 275.2 
L 418.298182 271.950572 
L 417.178626 270.72 
L 414.690909 267.98562 
L 413.102744 266.24 
L 411.083636 264.020679 
L 409.759562 261.76 
L 408.978693 257.28 
L 408.848029 252.8 
L 408.717382 248.32 
L 408.586701 243.84 
L 408.45605 239.36 
L 408.325403 234.88 
L 408.19473 230.4 
L 408.064066 225.92 
L 407.933403 221.44 
L 407.802744 216.96 
L 407.672083 212.48 
L 407.541421 208 
L 407.476364 205.769401 
L 407.410759 203.52 
L 407.280099 199.04 
L 407.149432 194.56 
L 407.018789 190.08 
L 406.888111 185.6 
L 406.757458 181.12 
L 406.626798 176.64 
L 406.496144 172.16 
L 406.365477 167.68 
L 406.234807 163.2 
L 406.104157 158.72 
L 405.9735 154.24 
L 405.842835 149.76 
L 405.948109 145.28 
L 406.16228 140.8 
L 406.376438 136.32 
L 406.590605 131.84 
L 406.80477 127.36 
L 407.018921 122.88 
L 407.233116 118.4 
L 407.447263 113.92 
L 407.476364 113.330394 
L 407.668011 109.44 
L 407.909176 104.96 
L 408.150376 100.48 
L 408.391551 96 
L 408.632705 91.52 
L 408.873894 87.04 
L 409.115088 82.56 
L 409.356264 78.08 
L 409.597452 73.6 
L 409.838639 69.12 
L 407.476364 69.12 
L 403.869091 69.12 
L 400.261818 69.12 
L 396.654545 69.12 
L 393.047273 69.12 
L 389.44 69.12 
L 385.832727 69.12 
L 382.225455 69.12 
L 378.618182 69.12 
L 375.010909 69.12 
L 371.403636 69.12 
L 367.796364 69.12 
L 364.189091 69.12 
L 360.581818 69.12 
L 359.944756 69.12 
L 360.581818 69.876272 
L 363.718581 73.6 
L 364.189091 74.158551 
L 367.492475 78.08 
L 367.796364 78.440746 
L 371.266376 82.56 
L 371.403636 82.722944 
L 375.010909 87.005175 
L 375.040245 87.04 
L 378.618182 91.287358 
L 378.814153 91.52 
L 382.225455 95.569629 
L 382.588001 96 
L 385.832727 99.851792 
L 386.361907 100.48 
L 389.44 104.134111 
L 389.665924 104.96 
L 389.44 109.38206 
L 389.435933 109.44 
L 389.182788 113.92 
L 388.936376 118.4 
L 388.70726 122.88 
L 388.478138 127.36 
L 388.249011 131.84 
L 388.019908 136.32 
L 387.790784 140.8 
L 387.561648 145.28 
L 387.625549 149.76 
L 387.7181 154.24 
L 387.810638 158.72 
L 387.903189 163.2 
L 387.995743 167.68 
L 388.088277 172.16 
L 388.180823 176.64 
L 388.273381 181.12 
L 388.365927 185.6 
L 388.458482 190.08 
L 388.551025 194.56 
L 388.64359 199.04 
L 388.736119 203.52 
L 388.828675 208 
L 388.921227 212.48 
L 389.013768 216.96 
L 389.106309 221.44 
L 389.198855 225.92 
L 389.291404 230.4 
L 389.411753 234.88 
L 389.44 235.910801 
L 389.540587 239.36 
L 389.671256 243.84 
L 389.801931 248.32 
L 389.932566 252.8 
L 390.063236 257.28 
L 390.193896 261.76 
L 390.324556 266.24 
L 390.455228 270.72 
L 390.585862 275.2 
L 390.716546 279.68 
L 390.857346 284.16 
L 392.462476 288.64 
L 393.047273 289.350309 
L 396.476897 293.12 
L 396.654545 293.315261 
L 400.261818 297.280207 
L 400.552761 297.6 
L 403.869091 301.245156 
L 404.62863 302.08 
L 407.476364 305.257503 
L 408.592898 306.56 
L 411.083636 309.496785 
L 412.392471 311.04 
L 414.690909 313.750095 
L 416.191983 315.52 
L 418.298182 318.00339 
L 419.991532 320 
L 421.905455 322.256658 
L 423.791114 324.48 
L 425.512727 326.509927 
L 427.590673 328.96 
z
" style="fill:#f7b093;"/>
   </g>
   <g id="PathCollection_7">
    <path clip-path="url(#pe1e5ad72de)" d="M 429.12 284.431895 
L 429.12 284.16 
L 429.12 279.68 
L 429.12 275.2 
L 429.12 270.72 
L 429.12 266.24 
L 429.12 261.76 
L 429.12 257.28 
L 429.12 252.8 
L 429.12 248.32 
L 429.12 243.84 
L 429.12 239.36 
L 429.12 238.691032 
L 427.387804 234.88 
L 427.110198 230.4 
L 426.979526 225.92 
L 426.848871 221.44 
L 426.718216 216.96 
L 426.587555 212.48 
L 426.456894 208 
L 426.32622 203.52 
L 426.195575 199.04 
L 426.064899 194.56 
L 425.934247 190.08 
L 425.803577 185.6 
L 425.672928 181.12 
L 425.542239 176.64 
L 425.512727 175.627892 
L 425.411606 172.16 
L 425.280939 167.68 
L 425.150283 163.2 
L 425.01961 158.72 
L 424.888959 154.24 
L 424.862888 149.76 
L 425.077054 145.28 
L 425.291217 140.8 
L 425.505386 136.32 
L 425.512727 136.166444 
L 425.719555 131.84 
L 425.933725 127.36 
L 426.147878 122.88 
L 426.362047 118.4 
L 426.576205 113.92 
L 426.790384 109.44 
L 427.004538 104.96 
L 427.238459 100.48 
L 427.479638 96 
L 427.720835 91.52 
L 427.961993 87.04 
L 428.203167 82.56 
L 428.44439 78.08 
L 428.685554 73.6 
L 428.926747 69.12 
L 425.512727 69.12 
L 421.905455 69.12 
L 418.298182 69.12 
L 414.690909 69.12 
L 411.083636 69.12 
L 409.838639 69.12 
L 409.597452 73.6 
L 409.356264 78.08 
L 409.115088 82.56 
L 408.873894 87.04 
L 408.632705 91.52 
L 408.391551 96 
L 408.150376 100.48 
L 407.909176 104.96 
L 407.668011 109.44 
L 407.476364 113.330394 
L 407.447263 113.92 
L 407.233116 118.4 
L 407.018921 122.88 
L 406.80477 127.36 
L 406.590605 131.84 
L 406.376438 136.32 
L 406.16228 140.8 
L 405.948109 145.28 
L 405.842835 149.76 
L 405.9735 154.24 
L 406.104157 158.72 
L 406.234807 163.2 
L 406.365477 167.68 
L 406.496144 172.16 
L 406.626798 176.64 
L 406.757458 181.12 
L 406.888111 185.6 
L 407.018789 190.08 
L 407.149432 194.56 
L 407.280099 199.04 
L 407.410759 203.52 
L 407.476364 205.769401 
L 407.541421 208 
L 407.672083 212.48 
L 407.802744 216.96 
L 407.933403 221.44 
L 408.064066 225.92 
L 408.19473 230.4 
L 408.325403 234.88 
L 408.45605 239.36 
L 408.586701 243.84 
L 408.717382 248.32 
L 408.848029 252.8 
L 408.978693 257.28 
L 409.759562 261.76 
L 411.083636 264.020679 
L 413.102744 266.24 
L 414.690909 267.98562 
L 417.178626 270.72 
L 418.298182 271.950572 
L 421.254502 275.2 
L 421.905455 275.932696 
L 425.089871 279.68 
L 425.512727 280.178583 
L 428.889402 284.16 
z
" style="fill:#eb7d62;"/>
   </g>
   <g id="PathCollection_8">
    <path clip-path="url(#pe1e5ad72de)" d="M 429.12 238.691032 
L 429.12 234.88 
L 429.12 230.4 
L 429.12 225.92 
L 429.12 221.44 
L 429.12 216.96 
L 429.12 212.48 
L 429.12 208 
L 429.12 203.52 
L 429.12 199.04 
L 429.12 194.56 
L 429.12 190.08 
L 429.12 185.6 
L 429.12 181.12 
L 429.12 176.64 
L 429.12 172.16 
L 429.12 167.68 
L 429.12 163.2 
L 429.12 158.72 
L 429.12 154.24 
L 429.12 149.76 
L 429.12 145.28 
L 429.12 140.8 
L 429.12 136.32 
L 429.12 131.84 
L 429.12 127.36 
L 429.12 122.88 
L 429.12 118.4 
L 429.12 113.92 
L 429.12 109.44 
L 429.12 104.96 
L 429.12 100.48 
L 429.12 96 
L 429.12 91.52 
L 429.12 87.04 
L 429.12 82.56 
L 429.12 78.08 
L 429.12 73.6 
L 429.12 69.12 
L 428.926747 69.12 
L 428.685554 73.6 
L 428.44439 78.08 
L 428.203167 82.56 
L 427.961993 87.04 
L 427.720835 91.52 
L 427.479638 96 
L 427.238459 100.48 
L 427.004538 104.96 
L 426.790384 109.44 
L 426.576205 113.92 
L 426.362047 118.4 
L 426.147878 122.88 
L 425.933725 127.36 
L 425.719555 131.84 
L 425.512727 136.166444 
L 425.505386 136.32 
L 425.291217 140.8 
L 425.077054 145.28 
L 424.862888 149.76 
L 424.888959 154.24 
L 425.01961 158.72 
L 425.150283 163.2 
L 425.280939 167.68 
L 425.411606 172.16 
L 425.512727 175.627892 
L 425.542239 176.64 
L 425.672928 181.12 
L 425.803577 185.6 
L 425.934247 190.08 
L 426.064899 194.56 
L 426.195575 199.04 
L 426.32622 203.52 
L 426.456894 208 
L 426.587555 212.48 
L 426.718216 216.96 
L 426.848871 221.44 
L 426.979526 225.92 
L 427.110198 230.4 
L 427.387804 234.88 
z
" style="fill:#ca3b37;"/>
   </g>
   <g id="matplotlib.axis_1">
    <g id="xtick_1">
     <g id="line2d_1">
      <defs>
       <path d="M 0 0 
L 0 3.5 
" id="m17f5800167" style="stroke:#000000;stroke-width:0.8;"/>
      </defs>
      <g>
       <use style="stroke:#000000;stroke-width:0.8;" x="72" xlink:href="#m17f5800167" y="512.64"/>
      </g>
     </g>
     <g id="text_1">
      <!-- −0.50 -->
      <defs>
       <path d="M 10.59375 35.5 
L 73.1875 35.5 
L 73.1875 27.203125 
L 10.59375 27.203125 
z
" id="DejaVuSans-8722"/>
       <path d="M 31.78125 66.40625 
Q 24.171875 66.40625 20.328125 58.90625 
Q 16.5 51.421875 16.5 36.375 
Q 16.5 21.390625 20.328125 13.890625 
Q 24.171875 6.390625 31.78125 6.390625 
Q 39.453125 6.390625 43.28125 13.890625 
Q 47.125 21.390625 47.125 36.375 
Q 47.125 51.421875 43.28125 58.90625 
Q 39.453125 66.40625 31.78125 66.40625 
z
M 31.78125 74.21875 
Q 44.046875 74.21875 50.515625 64.515625 
Q 56.984375 54.828125 56.984375 36.375 
Q 56.984375 17.96875 50.515625 8.265625 
Q 44.046875 -1.421875 31.78125 -1.421875 
Q 19.53125 -1.421875 13.0625 8.265625 
Q 6.59375 17.96875 6.59375 36.375 
Q 6.59375 54.828125 13.0625 64.515625 
Q 19.53125 74.21875 31.78125 74.21875 
z
" id="DejaVuSans-48"/>
       <path d="M 10.6875 12.40625 
L 21 12.40625 
L 21 0 
L 10.6875 0 
z
" id="DejaVuSans-46"/>
       <path d="M 10.796875 72.90625 
L 49.515625 72.90625 
L 49.515625 64.59375 
L 19.828125 64.59375 
L 19.828125 46.734375 
Q 21.96875 47.46875 24.109375 47.828125 
Q 26.265625 48.1875 28.421875 48.1875 
Q 40.625 48.1875 47.75 41.5 
Q 54.890625 34.8125 54.890625 23.390625 
Q 54.890625 11.625 47.5625 5.09375 
Q 40.234375 -1.421875 26.90625 -1.421875 
Q 22.3125 -1.421875 17.546875 -0.640625 
Q 12.796875 0.140625 7.71875 1.703125 
L 7.71875 11.625 
Q 12.109375 9.234375 16.796875 8.0625 
Q 21.484375 6.890625 26.703125 6.890625 
Q 35.15625 6.890625 40.078125 11.328125 
Q 45.015625 15.765625 45.015625 23.390625 
Q 45.015625 31 40.078125 35.4375 
Q 35.15625 39.890625 26.703125 39.890625 
Q 22.75 39.890625 18.8125 39.015625 
Q 14.890625 38.140625 10.796875 36.28125 
z
" id="DejaVuSans-53"/>
      </defs>
      <g transform="translate(56.677344 527.238438)scale(0.1 -0.1)">
       <use xlink:href="#DejaVuSans-8722"/>
       <use x="83.789062" xlink:href="#DejaVuSans-48"/>
       <use x="147.412109" xlink:href="#DejaVuSans-46"/>
       <use x="179.199219" xlink:href="#DejaVuSans-53"/>
       <use x="242.822266" xlink:href="#DejaVuSans-48"/>
      </g>
     </g>
    </g>
    <g id="xtick_2">
     <g id="line2d_2">
      <g>
       <use style="stroke:#000000;stroke-width:0.8;" x="116.64" xlink:href="#m17f5800167" y="512.64"/>
      </g>
     </g>
     <g id="text_2">
      <!-- −0.25 -->
      <defs>
       <path d="M 19.1875 8.296875 
L 53.609375 8.296875 
L 53.609375 0 
L 7.328125 0 
L 7.328125 8.296875 
Q 12.9375 14.109375 22.625 23.890625 
Q 32.328125 33.6875 34.8125 36.53125 
Q 39.546875 41.84375 41.421875 45.53125 
Q 43.3125 49.21875 43.3125 52.78125 
Q 43.3125 58.59375 39.234375 62.25 
Q 35.15625 65.921875 28.609375 65.921875 
Q 23.96875 65.921875 18.8125 64.3125 
Q 13.671875 62.703125 7.8125 59.421875 
L 7.8125 69.390625 
Q 13.765625 71.78125 18.9375 73 
Q 24.125 74.21875 28.421875 74.21875 
Q 39.75 74.21875 46.484375 68.546875 
Q 53.21875 62.890625 53.21875 53.421875 
Q 53.21875 48.921875 51.53125 44.890625 
Q 49.859375 40.875 45.40625 35.40625 
Q 44.1875 33.984375 37.640625 27.21875 
Q 31.109375 20.453125 19.1875 8.296875 
z
" id="DejaVuSans-50"/>
      </defs>
      <g transform="translate(101.317344 527.238438)scale(0.1 -0.1)">
       <use xlink:href="#DejaVuSans-8722"/>
       <use x="83.789062" xlink:href="#DejaVuSans-48"/>
       <use x="147.412109" xlink:href="#DejaVuSans-46"/>
       <use x="179.199219" xlink:href="#DejaVuSans-50"/>
       <use x="242.822266" xlink:href="#DejaVuSans-53"/>
      </g>
     </g>
    </g>
    <g id="xtick_3">
     <g id="line2d_3">
      <g>
       <use style="stroke:#000000;stroke-width:0.8;" x="161.28" xlink:href="#m17f5800167" y="512.64"/>
      </g>
     </g>
     <g id="text_3">
      <!-- 0.00 -->
      <g transform="translate(150.147188 527.238438)scale(0.1 -0.1)">
       <use xlink:href="#DejaVuSans-48"/>
       <use x="63.623047" xlink:href="#DejaVuSans-46"/>
       <use x="95.410156" xlink:href="#DejaVuSans-48"/>
       <use x="159.033203" xlink:href="#DejaVuSans-48"/>
      </g>
     </g>
    </g>
    <g id="xtick_4">
     <g id="line2d_4">
      <g>
       <use style="stroke:#000000;stroke-width:0.8;" x="205.92" xlink:href="#m17f5800167" y="512.64"/>
      </g>
     </g>
     <g id="text_4">
      <!-- 0.25 -->
      <g transform="translate(194.787188 527.238438)scale(0.1 -0.1)">
       <use xlink:href="#DejaVuSans-48"/>
       <use x="63.623047" xlink:href="#DejaVuSans-46"/>
       <use x="95.410156" xlink:href="#DejaVuSans-50"/>
       <use x="159.033203" xlink:href="#DejaVuSans-53"/>
      </g>
     </g>
    </g>
    <g id="xtick_5">
     <g id="line2d_5">
      <g>
       <use style="stroke:#000000;stroke-width:0.8;" x="250.56" xlink:href="#m17f5800167" y="512.64"/>
      </g>
     </g>
     <g id="text_5">
      <!-- 0.50 -->
      <g transform="translate(239.427188 527.238438)scale(0.1 -0.1)">
       <use xlink:href="#DejaVuSans-48"/>
       <use x="63.623047" xlink:href="#DejaVuSans-46"/>
       <use x="95.410156" xlink:href="#DejaVuSans-53"/>
       <use x="159.033203" xlink:href="#DejaVuSans-48"/>
      </g>
     </g>
    </g>
    <g id="xtick_6">
     <g id="line2d_6">
      <g>
       <use style="stroke:#000000;stroke-width:0.8;" x="295.2" xlink:href="#m17f5800167" y="512.64"/>
      </g>
     </g>
     <g id="text_6">
      <!-- 0.75 -->
      <defs>
       <path d="M 8.203125 72.90625 
L 55.078125 72.90625 
L 55.078125 68.703125 
L 28.609375 0 
L 18.3125 0 
L 43.21875 64.59375 
L 8.203125 64.59375 
z
" id="DejaVuSans-55"/>
      </defs>
      <g transform="translate(284.067188 527.238438)scale(0.1 -0.1)">
       <use xlink:href="#DejaVuSans-48"/>
       <use x="63.623047" xlink:href="#DejaVuSans-46"/>
       <use x="95.410156" xlink:href="#DejaVuSans-55"/>
       <use x="159.033203" xlink:href="#DejaVuSans-53"/>
      </g>
     </g>
    </g>
    <g id="xtick_7">
     <g id="line2d_7">
      <g>
       <use style="stroke:#000000;stroke-width:0.8;" x="339.84" xlink:href="#m17f5800167" y="512.64"/>
      </g>
     </g>
     <g id="text_7">
      <!-- 1.00 -->
      <defs>
       <path d="M 12.40625 8.296875 
L 28.515625 8.296875 
L 28.515625 63.921875 
L 10.984375 60.40625 
L 10.984375 69.390625 
L 28.421875 72.90625 
L 38.28125 72.90625 
L 38.28125 8.296875 
L 54.390625 8.296875 
L 54.390625 0 
L 12.40625 0 
z
" id="DejaVuSans-49"/>
      </defs>
      <g transform="translate(328.707188 527.238438)scale(0.1 -0.1)">
       <use xlink:href="#DejaVuSans-49"/>
       <use x="63.623047" xlink:href="#DejaVuSans-46"/>
       <use x="95.410156" xlink:href="#DejaVuSans-48"/>
       <use x="159.033203" xlink:href="#DejaVuSans-48"/>
      </g>
     </g>
    </g>
    <g id="xtick_8">
     <g id="line2d_8">
      <g>
       <use style="stroke:#000000;stroke-width:0.8;" x="384.48" xlink:href="#m17f5800167" y="512.64"/>
      </g>
     </g>
     <g id="text_8">
      <!-- 1.25 -->
      <g transform="translate(373.347188 527.238438)scale(0.1 -0.1)">
       <use xlink:href="#DejaVuSans-49"/>
       <use x="63.623047" xlink:href="#DejaVuSans-46"/>
       <use x="95.410156" xlink:href="#DejaVuSans-50"/>
       <use x="159.033203" xlink:href="#DejaVuSans-53"/>
      </g>
     </g>
    </g>
    <g id="xtick_9">
     <g id="line2d_9">
      <g>
       <use style="stroke:#000000;stroke-width:0.8;" x="429.12" xlink:href="#m17f5800167" y="512.64"/>
      </g>
     </g>
     <g id="text_9">
      <!-- 1.50 -->
      <g transform="translate(417.987188 527.238438)scale(0.1 -0.1)">
       <use xlink:href="#DejaVuSans-49"/>
       <use x="63.623047" xlink:href="#DejaVuSans-46"/>
       <use x="95.410156" xlink:href="#DejaVuSans-53"/>
       <use x="159.033203" xlink:href="#DejaVuSans-48"/>
      </g>
     </g>
    </g>
   </g>
   <g id="matplotlib.axis_2">
    <g id="ytick_1">
     <g id="line2d_10">
      <defs>
       <path d="M 0 0 
L -3.5 0 
" id="m177d5f70b7" style="stroke:#000000;stroke-width:0.8;"/>
      </defs>
      <g>
       <use style="stroke:#000000;stroke-width:0.8;" x="72" xlink:href="#m177d5f70b7" y="512.64"/>
      </g>
     </g>
     <g id="text_10">
      <!-- −0.50 -->
      <g transform="translate(34.354687 516.439219)scale(0.1 -0.1)">
       <use xlink:href="#DejaVuSans-8722"/>
       <use x="83.789062" xlink:href="#DejaVuSans-48"/>
       <use x="147.412109" xlink:href="#DejaVuSans-46"/>
       <use x="179.199219" xlink:href="#DejaVuSans-53"/>
       <use x="242.822266" xlink:href="#DejaVuSans-48"/>
      </g>
     </g>
    </g>
    <g id="ytick_2">
     <g id="line2d_11">
      <g>
       <use style="stroke:#000000;stroke-width:0.8;" x="72" xlink:href="#m177d5f70b7" y="457.2"/>
      </g>
     </g>
     <g id="text_11">
      <!-- −0.25 -->
      <g transform="translate(34.354687 460.999219)scale(0.1 -0.1)">
       <use xlink:href="#DejaVuSans-8722"/>
       <use x="83.789062" xlink:href="#DejaVuSans-48"/>
       <use x="147.412109" xlink:href="#DejaVuSans-46"/>
       <use x="179.199219" xlink:href="#DejaVuSans-50"/>
       <use x="242.822266" xlink:href="#DejaVuSans-53"/>
      </g>
     </g>
    </g>
    <g id="ytick_3">
     <g id="line2d_12">
      <g>
       <use style="stroke:#000000;stroke-width:0.8;" x="72" xlink:href="#m177d5f70b7" y="401.76"/>
      </g>
     </g>
     <g id="text_12">
      <!-- 0.00 -->
      <g transform="translate(42.734375 405.559219)scale(0.1 -0.1)">
       <use xlink:href="#DejaVuSans-48"/>
       <use x="63.623047" xlink:href="#DejaVuSans-46"/>
       <use x="95.410156" xlink:href="#DejaVuSans-48"/>
       <use x="159.033203" xlink:href="#DejaVuSans-48"/>
      </g>
     </g>
    </g>
    <g id="ytick_4">
     <g id="line2d_13">
      <g>
       <use style="stroke:#000000;stroke-width:0.8;" x="72" xlink:href="#m177d5f70b7" y="346.32"/>
      </g>
     </g>
     <g id="text_13">
      <!-- 0.25 -->
      <g transform="translate(42.734375 350.119219)scale(0.1 -0.1)">
       <use xlink:href="#DejaVuSans-48"/>
       <use x="63.623047" xlink:href="#DejaVuSans-46"/>
       <use x="95.410156" xlink:href="#DejaVuSans-50"/>
       <use x="159.033203" xlink:href="#DejaVuSans-53"/>
      </g>
     </g>
    </g>
    <g id="ytick_5">
     <g id="line2d_14">
      <g>
       <use style="stroke:#000000;stroke-width:0.8;" x="72" xlink:href="#m177d5f70b7" y="290.88"/>
      </g>
     </g>
     <g id="text_14">
      <!-- 0.50 -->
      <g transform="translate(42.734375 294.679219)scale(0.1 -0.1)">
       <use xlink:href="#DejaVuSans-48"/>
       <use x="63.623047" xlink:href="#DejaVuSans-46"/>
       <use x="95.410156" xlink:href="#DejaVuSans-53"/>
       <use x="159.033203" xlink:href="#DejaVuSans-48"/>
      </g>
     </g>
    </g>
    <g id="ytick_6">
     <g id="line2d_15">
      <g>
       <use style="stroke:#000000;stroke-width:0.8;" x="72" xlink:href="#m177d5f70b7" y="235.44"/>
      </g>
     </g>
     <g id="text_15">
      <!-- 0.75 -->
      <g transform="translate(42.734375 239.239219)scale(0.1 -0.1)">
       <use xlink:href="#DejaVuSans-48"/>
       <use x="63.623047" xlink:href="#DejaVuSans-46"/>
       <use x="95.410156" xlink:href="#DejaVuSans-55"/>
       <use x="159.033203" xlink:href="#DejaVuSans-53"/>
      </g>
     </g>
    </g>
    <g id="ytick_7">
     <g id="line2d_16">
      <g>
       <use style="stroke:#000000;stroke-width:0.8;" x="72" xlink:href="#m177d5f70b7" y="180"/>
      </g>
     </g>
     <g id="text_16">
      <!-- 1.00 -->
      <g transform="translate(42.734375 183.799219)scale(0.1 -0.1)">
       <use xlink:href="#DejaVuSans-49"/>
       <use x="63.623047" xlink:href="#DejaVuSans-46"/>
       <use x="95.410156" xlink:href="#DejaVuSans-48"/>
       <use x="159.033203" xlink:href="#DejaVuSans-48"/>
      </g>
     </g>
    </g>
    <g id="ytick_8">
     <g id="line2d_17">
      <g>
       <use style="stroke:#000000;stroke-width:0.8;" x="72" xlink:href="#m177d5f70b7" y="124.56"/>
      </g>
     </g>
     <g id="text_17">
      <!-- 1.25 -->
      <g transform="translate(42.734375 128.359219)scale(0.1 -0.1)">
       <use xlink:href="#DejaVuSans-49"/>
       <use x="63.623047" xlink:href="#DejaVuSans-46"/>
       <use x="95.410156" xlink:href="#DejaVuSans-50"/>
       <use x="159.033203" xlink:href="#DejaVuSans-53"/>
      </g>
     </g>
    </g>
    <g id="ytick_9">
     <g id="line2d_18">
      <g>
       <use style="stroke:#000000;stroke-width:0.8;" x="72" xlink:href="#m177d5f70b7" y="69.12"/>
      </g>
     </g>
     <g id="text_18">
      <!-- 1.50 -->
      <g transform="translate(42.734375 72.919219)scale(0.1 -0.1)">
       <use xlink:href="#DejaVuSans-49"/>
       <use x="63.623047" xlink:href="#DejaVuSans-46"/>
       <use x="95.410156" xlink:href="#DejaVuSans-53"/>
       <use x="159.033203" xlink:href="#DejaVuSans-48"/>
      </g>
     </g>
    </g>
   </g>
   <g id="patch_3">
    <path d="M 72 512.64 
L 72 69.12 
" style="fill:none;stroke:#000000;stroke-linecap:square;stroke-linejoin:miter;stroke-width:0.8;"/>
   </g>
   <g id="patch_4">
    <path d="M 429.12 512.64 
L 429.12 69.12 
" style="fill:none;stroke:#000000;stroke-linecap:square;stroke-linejoin:miter;stroke-width:0.8;"/>
   </g>
   <g id="patch_5">
    <path d="M 72 512.64 
L 429.12 512.64 
" style="fill:none;stroke:#000000;stroke-linecap:square;stroke-linejoin:miter;stroke-width:0.8;"/>
   </g>
   <g id="patch_6">
    <path d="M 72 69.12 
L 429.12 69.12 
" style="fill:none;stroke:#000000;stroke-linecap:square;stroke-linejoin:miter;stroke-width:0.8;"/>
   </g>
  </g>
  <g id="axes_2">
   <g id="patch_7">
    <path clip-path="url(#p57b25080c9)" d="M 451.44 512.64 
L 451.44 457.2 
L 451.44 124.56 
L 451.44 69.12 
L 473.616 69.12 
L 473.616 124.56 
L 473.616 457.2 
L 473.616 512.64 
z
" style="fill:#ffffff;stroke:#ffffff;stroke-linejoin:miter;stroke-width:0.01;"/>
   </g>
   <g id="QuadMesh_1">
    <path clip-path="url(#p57b25080c9)" d="M 451.44 512.64 
L 473.616 512.64 
L 473.616 457.2 
L 451.44 457.2 
L 451.44 512.64 
" style="fill:#4e68d8;"/>
    <path clip-path="url(#p57b25080c9)" d="M 451.44 457.2 
L 473.616 457.2 
L 473.616 401.76 
L 451.44 401.76 
L 451.44 457.2 
" style="fill:#779af7;"/>
    <path clip-path="url(#p57b25080c9)" d="M 451.44 401.76 
L 473.616 401.76 
L 473.616 346.32 
L 451.44 346.32 
L 451.44 401.76 
" style="fill:#a3c2fe;"/>
    <path clip-path="url(#p57b25080c9)" d="M 451.44 346.32 
L 473.616 346.32 
L 473.616 290.88 
L 451.44 290.88 
L 451.44 346.32 
" style="fill:#ccd9ed;"/>
    <path clip-path="url(#p57b25080c9)" d="M 451.44 290.88 
L 473.616 290.88 
L 473.616 235.44 
L 451.44 235.44 
L 451.44 290.88 
" style="fill:#ecd3c5;"/>
    <path clip-path="url(#p57b25080c9)" d="M 451.44 235.44 
L 473.616 235.44 
L 473.616 180 
L 451.44 180 
L 451.44 235.44 
" style="fill:#f7b093;"/>
    <path clip-path="url(#p57b25080c9)" d="M 451.44 180 
L 473.616 180 
L 473.616 124.56 
L 451.44 124.56 
L 451.44 180 
" style="fill:#eb7d62;"/>
    <path clip-path="url(#p57b25080c9)" d="M 451.44 124.56 
L 473.616 124.56 
L 473.616 69.12 
L 451.44 69.12 
L 451.44 124.56 
" style="fill:#ca3b37;"/>
   </g>
   <g id="matplotlib.axis_3"/>
   <g id="matplotlib.axis_4">
    <g id="ytick_10">
     <g id="line2d_19">
      <defs>
       <path d="M 0 0 
L 3.5 0 
" id="mc954c26fee" style="stroke:#000000;stroke-width:0.8;"/>
      </defs>
      <g>
       <use style="stroke:#000000;stroke-width:0.8;" x="473.616" xlink:href="#mc954c26fee" y="512.64"/>
      </g>
     </g>
     <g id="text_19">
      <!-- −5.0 -->
      <g transform="translate(480.616 516.439219)scale(0.1 -0.1)">
       <use xlink:href="#DejaVuSans-8722"/>
       <use x="83.789062" xlink:href="#DejaVuSans-53"/>
       <use x="147.412109" xlink:href="#DejaVuSans-46"/>
       <use x="179.199219" xlink:href="#DejaVuSans-48"/>
      </g>
     </g>
    </g>
    <g id="ytick_11">
     <g id="line2d_20">
      <g>
       <use style="stroke:#000000;stroke-width:0.8;" x="473.616" xlink:href="#mc954c26fee" y="457.2"/>
      </g>
     </g>
     <g id="text_20">
      <!-- −2.5 -->
      <g transform="translate(480.616 460.999219)scale(0.1 -0.1)">
       <use xlink:href="#DejaVuSans-8722"/>
       <use x="83.789062" xlink:href="#DejaVuSans-50"/>
       <use x="147.412109" xlink:href="#DejaVuSans-46"/>
       <use x="179.199219" xlink:href="#DejaVuSans-53"/>
      </g>
     </g>
    </g>
    <g id="ytick_12">
     <g id="line2d_21">
      <g>
       <use style="stroke:#000000;stroke-width:0.8;" x="473.616" xlink:href="#mc954c26fee" y="401.76"/>
      </g>
     </g>
     <g id="text_21">
      <!-- 0.0 -->
      <g transform="translate(480.616 405.559219)scale(0.1 -0.1)">
       <use xlink:href="#DejaVuSans-48"/>
       <use x="63.623047" xlink:href="#DejaVuSans-46"/>
       <use x="95.410156" xlink:href="#DejaVuSans-48"/>
      </g>
     </g>
    </g>
    <g id="ytick_13">
     <g id="line2d_22">
      <g>
       <use style="stroke:#000000;stroke-width:0.8;" x="473.616" xlink:href="#mc954c26fee" y="346.32"/>
      </g>
     </g>
     <g id="text_22">
      <!-- 2.5 -->
      <g transform="translate(480.616 350.119219)scale(0.1 -0.1)">
       <use xlink:href="#DejaVuSans-50"/>
       <use x="63.623047" xlink:href="#DejaVuSans-46"/>
       <use x="95.410156" xlink:href="#DejaVuSans-53"/>
      </g>
     </g>
    </g>
    <g id="ytick_14">
     <g id="line2d_23">
      <g>
       <use style="stroke:#000000;stroke-width:0.8;" x="473.616" xlink:href="#mc954c26fee" y="290.88"/>
      </g>
     </g>
     <g id="text_23">
      <!-- 5.0 -->
      <g transform="translate(480.616 294.679219)scale(0.1 -0.1)">
       <use xlink:href="#DejaVuSans-53"/>
       <use x="63.623047" xlink:href="#DejaVuSans-46"/>
       <use x="95.410156" xlink:href="#DejaVuSans-48"/>
      </g>
     </g>
    </g>
    <g id="ytick_15">
     <g id="line2d_24">
      <g>
       <use style="stroke:#000000;stroke-width:0.8;" x="473.616" xlink:href="#mc954c26fee" y="235.44"/>
      </g>
     </g>
     <g id="text_24">
      <!-- 7.5 -->
      <g transform="translate(480.616 239.239219)scale(0.1 -0.1)">
       <use xlink:href="#DejaVuSans-55"/>
       <use x="63.623047" xlink:href="#DejaVuSans-46"/>
       <use x="95.410156" xlink:href="#DejaVuSans-53"/>
      </g>
     </g>
    </g>
    <g id="ytick_16">
     <g id="line2d_25">
      <g>
       <use style="stroke:#000000;stroke-width:0.8;" x="473.616" xlink:href="#mc954c26fee" y="180"/>
      </g>
     </g>
     <g id="text_25">
      <!-- 10.0 -->
      <g transform="translate(480.616 183.799219)scale(0.1 -0.1)">
       <use xlink:href="#DejaVuSans-49"/>
       <use x="63.623047" xlink:href="#DejaVuSans-48"/>
       <use x="127.246094" xlink:href="#DejaVuSans-46"/>
       <use x="159.033203" xlink:href="#DejaVuSans-48"/>
      </g>
     </g>
    </g>
    <g id="ytick_17">
     <g id="line2d_26">
      <g>
       <use style="stroke:#000000;stroke-width:0.8;" x="473.616" xlink:href="#mc954c26fee" y="124.56"/>
      </g>
     </g>
     <g id="text_26">
      <!-- 12.5 -->
      <g transform="translate(480.616 128.359219)scale(0.1 -0.1)">
       <use xlink:href="#DejaVuSans-49"/>
       <use x="63.623047" xlink:href="#DejaVuSans-50"/>
       <use x="127.246094" xlink:href="#DejaVuSans-46"/>
       <use x="159.033203" xlink:href="#DejaVuSans-53"/>
      </g>
     </g>
    </g>
    <g id="ytick_18">
     <g id="line2d_27">
      <g>
       <use style="stroke:#000000;stroke-width:0.8;" x="473.616" xlink:href="#mc954c26fee" y="69.12"/>
      </g>
     </g>
     <g id="text_27">
      <!-- 15.0 -->
      <g transform="translate(480.616 72.919219)scale(0.1 -0.1)">
       <use xlink:href="#DejaVuSans-49"/>
       <use x="63.623047" xlink:href="#DejaVuSans-53"/>
       <use x="127.246094" xlink:href="#DejaVuSans-46"/>
       <use x="159.033203" xlink:href="#DejaVuSans-48"/>
      </g>
     </g>
    </g>
   </g>
   <g id="patch_8">
    <path d="M 451.44 512.64 
L 451.44 457.2 
L 451.44 124.56 
L 451.44 69.12 
L 473.616 69.12 
L 473.616 124.56 
L 473.616 457.2 
L 473.616 512.64 
z
" style="fill:none;stroke:#000000;stroke-linejoin:miter;stroke-width:0.8;"/>
   </g>
  </g>
 </g>
 <defs>
  <clipPath id="pe1e5ad72de">
   <rect height="443.52" width="357.12" x="72" y="69.12"/>
  </clipPath>
  <clipPath id="p57b25080c9">
   <rect height="443.52" width="22.176" x="451.44" y="69.12"/>
  </clipPath>
 </defs>
</svg>
