<?xml version="1.0" encoding="utf-8" standalone="no"?>
<!DOCTYPE svg PUBLIC "-//W3C//DTD SVG 1.1//EN"
  "http://www.w3.org/Graphics/SVG/1.1/DTD/svg11.dtd">
<!-- Created with matplotlib (https://matplotlib.org/) -->
<svg height="576pt" version="1.1" viewBox="0 0 576 576" width="576pt" xmlns="http://www.w3.org/2000/svg" xmlns:xlink="http://www.w3.org/1999/xlink">
 <defs>
  <style type="text/css">
*{stroke-linecap:butt;stroke-linejoin:round;}
  </style>
 </defs>
 <g id="figure_1">
  <g id="patch_1">
   <path d="M 0 576 
L 576 576 
L 576 0 
L 0 0 
z
" style="fill:#ffffff;"/>
  </g>
  <g id="axes_1">
   <g id="patch_2">
    <path d="M 72 512.64 
L 429.12 512.64 
L 429.12 69.12 
L 72 69.12 
z
" style="fill:#ffffff;"/>
   </g>
   <g id="PathCollection_1">
    <path clip-path="url(#pd009e7eb6b)" d="M 429.12 236.417252 
L 429.12 234.88 
L 429.12 230.4 
L 429.12 225.92 
L 429.12 221.44 
L 429.12 216.96 
L 429.12 212.48 
L 429.12 208 
L 429.12 203.52 
L 429.12 199.04 
L 429.12 194.56 
L 429.12 190.08 
L 429.12 185.6 
L 429.12 181.12 
L 429.12 176.64 
L 429.12 172.16 
L 429.12 167.68 
L 429.12 163.2 
L 429.12 158.72 
L 429.12 154.24 
L 429.12 149.76 
L 429.12 145.28 
L 429.12 140.8 
L 429.12 136.32 
L 429.12 131.84 
L 429.12 127.36 
L 429.12 122.88 
L 429.12 118.4 
L 429.12 113.92 
L 429.12 109.44 
L 429.12 104.96 
L 429.12 100.48 
L 429.12 96 
L 429.12 91.52 
L 429.12 87.04 
L 429.12 82.56 
L 429.12 78.08 
L 429.12 73.6 
L 429.12 69.12 
L 425.512727 69.12 
L 421.905455 69.12 
L 418.298182 69.12 
L 414.690909 69.12 
L 411.083636 69.12 
L 407.476364 69.12 
L 403.869091 69.12 
L 400.261818 69.12 
L 396.654545 69.12 
L 393.047273 69.12 
L 389.44 69.12 
L 385.832727 69.12 
L 382.225455 69.12 
L 378.618182 69.12 
L 375.010909 69.12 
L 371.403636 69.12 
L 367.796364 69.12 
L 364.189091 69.12 
L 360.581818 69.12 
L 356.974545 69.12 
L 353.367273 69.12 
L 349.76 69.12 
L 346.152727 69.12 
L 342.545455 69.12 
L 338.938182 69.12 
L 335.330909 69.12 
L 331.723636 69.12 
L 328.116364 69.12 
L 324.509091 69.12 
L 320.901818 69.12 
L 317.294545 69.12 
L 313.687273 69.12 
L 310.08 69.12 
L 306.472727 69.12 
L 302.865455 69.12 
L 299.258182 69.12 
L 295.650909 69.12 
L 292.043636 69.12 
L 288.436364 69.12 
L 284.829091 69.12 
L 281.221818 69.12 
L 277.614545 69.12 
L 274.007273 69.12 
L 270.4 69.12 
L 266.792727 69.12 
L 263.185455 69.12 
L 259.578182 69.12 
L 255.970909 69.12 
L 252.363636 69.12 
L 248.756364 69.12 
L 245.149091 69.12 
L 241.541818 69.12 
L 237.934545 69.12 
L 234.327273 69.12 
L 230.72 69.12 
L 227.112727 69.12 
L 223.505455 69.12 
L 219.898182 69.12 
L 216.290909 69.12 
L 212.683636 69.12 
L 209.076364 69.12 
L 205.469091 69.12 
L 201.861818 69.12 
L 198.254545 69.12 
L 194.647273 69.12 
L 191.04 69.12 
L 187.432727 69.12 
L 183.825455 69.12 
L 180.218182 69.12 
L 176.610909 69.12 
L 173.003636 69.12 
L 169.396364 69.12 
L 165.789091 69.12 
L 162.181818 69.12 
L 158.574545 69.12 
L 154.967273 69.12 
L 151.36 69.12 
L 147.752727 69.12 
L 144.145455 69.12 
L 140.538182 69.12 
L 136.930909 69.12 
L 133.323636 69.12 
L 129.716364 69.12 
L 126.109091 69.12 
L 122.501818 69.12 
L 118.894545 69.12 
L 115.287273 69.12 
L 111.68 69.12 
L 108.072727 69.12 
L 104.465455 69.12 
L 100.858182 69.12 
L 97.250909 69.12 
L 93.643636 69.12 
L 90.036364 69.12 
L 86.429091 69.12 
L 82.821818 69.12 
L 79.214545 69.12 
L 75.607273 69.12 
L 72 69.12 
L 72 73.6 
L 72 78.08 
L 72 82.56 
L 72 87.04 
L 72 91.52 
L 72 96 
L 72 100.48 
L 72 103.823487 
L 75.607273 102.402068 
L 79.214545 100.980658 
L 80.485123 100.48 
L 82.821818 99.559253 
L 86.429091 98.137821 
L 90.036364 96.716424 
L 91.85448 96 
L 93.643636 95.294988 
L 97.250909 93.873591 
L 100.858182 92.452178 
L 103.223856 91.52 
L 104.465455 91.030758 
L 108.072727 89.609361 
L 111.68 88.187939 
L 114.593255 87.04 
L 115.287273 86.766528 
L 118.894545 85.345093 
L 122.501818 84.094266 
L 126.109091 83.079109 
L 127.953689 82.56 
L 129.716364 82.063942 
L 133.323636 81.048758 
L 136.930909 80.031504 
L 140.538182 79.011399 
L 143.82208 78.08 
L 144.145455 77.988283 
L 147.752727 76.965213 
L 151.36 75.942133 
L 154.967273 75.031289 
L 158.574545 74.465727 
L 162.181818 73.900178 
L 164.09633 73.6 
L 165.789091 73.334591 
L 169.396364 73.057198 
L 173.003636 72.913254 
L 176.610909 72.769336 
L 180.218182 72.625392 
L 183.825455 72.481445 
L 187.432727 72.53349 
L 191.04 72.717658 
L 194.647273 72.901813 
L 198.254545 73.085967 
L 201.861818 73.270123 
L 205.469091 73.454295 
L 208.322918 73.6 
L 209.076364 73.638468 
L 212.683636 73.822603 
L 216.290909 74.006777 
L 219.898182 74.190933 
L 223.505455 74.371013 
L 227.112727 74.501396 
L 230.72 74.626125 
L 234.327273 74.75085 
L 237.934545 74.87558 
L 241.541818 75.000309 
L 245.149091 75.342543 
L 248.756364 75.753624 
L 252.363636 76.164686 
L 255.970909 76.575732 
L 259.578182 76.986791 
L 263.185455 77.397863 
L 266.792727 77.808916 
L 269.171578 78.08 
L 270.4 78.219988 
L 274.007273 78.631044 
L 277.614545 79.042119 
L 281.221818 79.453155 
L 284.829091 79.864258 
L 288.436364 80.450301 
L 292.043636 81.469085 
L 295.650909 82.48789 
L 295.90623 82.56 
L 299.258182 83.506671 
L 302.865455 84.525451 
L 306.472727 85.544224 
L 310.08 86.563011 
L 311.768911 87.04 
L 313.687273 87.581791 
L 317.294545 88.600586 
L 320.901818 89.619363 
L 324.509091 90.638152 
L 327.107646 91.52 
L 328.116364 91.881668 
L 331.723636 93.265621 
L 335.330909 94.649221 
L 338.852646 96 
L 338.938182 96.032808 
L 342.545455 97.416445 
L 346.152727 98.800016 
L 349.76 100.200204 
L 350.341889 100.48 
L 353.367273 102.042481 
L 356.974545 103.905482 
L 359.016377 104.96 
L 360.581818 105.777528 
L 364.189091 108.08771 
L 365.811773 109.44 
L 367.796364 111.17738 
L 370.929231 113.92 
L 371.403636 114.335306 
L 375.010909 117.493197 
L 376.046754 118.4 
L 378.618182 120.651089 
L 381.164277 122.88 
L 382.225455 123.822911 
L 385.380295 127.36 
L 385.832727 128.014741 
L 388.272101 131.84 
L 389.44 133.671449 
L 391.04053 136.32 
L 393.047273 140.314684 
L 393.27813 140.8 
L 395.409213 145.28 
L 396.654545 147.897935 
L 397.540316 149.76 
L 399.671412 154.24 
L 400.261818 155.481149 
L 401.802509 158.72 
L 403.605461 163.2 
L 403.869091 163.958224 
L 405.16313 167.68 
L 406.720787 172.16 
L 407.476364 174.333159 
L 408.278437 176.64 
L 409.836117 181.12 
L 411.083636 184.707982 
L 411.393784 185.6 
L 412.951434 190.08 
L 414.509104 194.56 
L 414.690909 195.082896 
L 416.066753 199.04 
L 417.624434 203.52 
L 418.298182 205.457765 
L 419.18209 208 
L 420.739753 212.48 
L 421.905455 215.832648 
L 422.297428 216.96 
L 423.855077 221.44 
L 425.412746 225.92 
L 425.512727 226.207562 
L 426.985035 230.4 
L 428.572114 234.88 
z
" style="fill:#506bda;"/>
   </g>
   <g id="PathCollection_2">
    <path clip-path="url(#pd009e7eb6b)" d="M 385.832727 512.64 
L 389.44 512.64 
L 393.047273 512.64 
L 396.654545 512.64 
L 400.261818 512.64 
L 403.869091 512.64 
L 407.476364 512.64 
L 411.083636 512.64 
L 414.690909 512.64 
L 418.298182 512.64 
L 421.905455 512.64 
L 425.512727 512.64 
L 429.12 512.64 
L 429.12 508.16 
L 429.12 503.68 
L 429.12 499.2 
L 429.12 494.72 
L 429.12 490.24 
L 429.12 485.76 
L 429.12 481.28 
L 429.12 476.8 
L 429.12 472.32 
L 429.12 467.84 
L 429.12 463.36 
L 429.12 458.88 
L 429.12 454.4 
L 429.12 449.92 
L 429.12 445.44 
L 429.12 440.96 
L 429.12 436.48 
L 429.12 432 
L 429.12 427.52 
L 429.12 423.04 
L 429.12 418.56 
L 429.12 414.08 
L 429.12 409.6 
L 429.12 405.12 
L 429.12 400.64 
L 429.12 396.16 
L 429.12 391.68 
L 429.12 387.2 
L 429.12 382.72 
L 429.12 378.24 
L 429.12 373.76 
L 429.12 369.28 
L 429.12 364.8 
L 429.12 360.32 
L 429.12 355.84 
L 429.12 351.36 
L 429.12 346.88 
L 429.12 342.4 
L 429.12 337.92 
L 429.12 333.44 
L 429.12 328.96 
L 429.12 324.48 
L 429.12 320 
L 429.12 315.52 
L 429.12 311.04 
L 429.12 306.56 
L 429.12 302.08 
L 429.12 297.6 
L 429.12 293.12 
L 429.12 288.64 
L 429.12 284.16 
L 429.12 279.68 
L 429.12 275.2 
L 429.12 270.72 
L 429.12 266.24 
L 429.12 261.76 
L 429.12 257.28 
L 429.12 252.8 
L 429.12 248.32 
L 429.12 243.84 
L 429.12 239.36 
L 429.12 236.417252 
L 428.572114 234.88 
L 426.985035 230.4 
L 425.512727 226.207562 
L 425.412746 225.92 
L 423.855077 221.44 
L 422.297428 216.96 
L 421.905455 215.832648 
L 420.739753 212.48 
L 419.18209 208 
L 418.298182 205.457765 
L 417.624434 203.52 
L 416.066753 199.04 
L 414.690909 195.082896 
L 414.509104 194.56 
L 412.951434 190.08 
L 411.393784 185.6 
L 411.083636 184.707982 
L 409.836117 181.12 
L 408.278437 176.64 
L 407.476364 174.333159 
L 406.720787 172.16 
L 405.16313 167.68 
L 403.869091 163.958224 
L 403.605461 163.2 
L 401.802509 158.72 
L 400.261818 155.481149 
L 399.671412 154.24 
L 397.540316 149.76 
L 396.654545 147.897935 
L 395.409213 145.28 
L 393.27813 140.8 
L 393.047273 140.314684 
L 391.04053 136.32 
L 389.44 133.671449 
L 388.272101 131.84 
L 385.832727 128.014741 
L 385.380295 127.36 
L 382.225455 123.822911 
L 381.164277 122.88 
L 378.618182 120.651089 
L 376.046754 118.4 
L 375.010909 117.493197 
L 371.403636 114.335306 
L 370.929231 113.92 
L 367.796364 111.17738 
L 365.811773 109.44 
L 364.189091 108.08771 
L 360.581818 105.777528 
L 359.016377 104.96 
L 356.974545 103.905482 
L 353.367273 102.042481 
L 350.341889 100.48 
L 349.76 100.200204 
L 346.152727 98.800016 
L 342.545455 97.416445 
L 338.938182 96.032808 
L 338.852646 96 
L 335.330909 94.649221 
L 331.723636 93.265621 
L 328.116364 91.881668 
L 327.107646 91.52 
L 324.509091 90.638152 
L 320.901818 89.619363 
L 317.294545 88.600586 
L 313.687273 87.581791 
L 311.768911 87.04 
L 310.08 86.563011 
L 306.472727 85.544224 
L 302.865455 84.525451 
L 299.258182 83.506671 
L 295.90623 82.56 
L 295.650909 82.48789 
L 292.043636 81.469085 
L 288.436364 80.450301 
L 284.829091 79.864258 
L 281.221818 79.453155 
L 277.614545 79.042119 
L 274.007273 78.631044 
L 270.4 78.219988 
L 269.171578 78.08 
L 266.792727 77.808916 
L 263.185455 77.397863 
L 259.578182 76.986791 
L 255.970909 76.575732 
L 252.363636 76.164686 
L 248.756364 75.753624 
L 245.149091 75.342543 
L 241.541818 75.000309 
L 237.934545 74.87558 
L 234.327273 74.75085 
L 230.72 74.626125 
L 227.112727 74.501396 
L 223.505455 74.371013 
L 219.898182 74.190933 
L 216.290909 74.006777 
L 212.683636 73.822603 
L 209.076364 73.638468 
L 208.322918 73.6 
L 205.469091 73.454295 
L 201.861818 73.270123 
L 198.254545 73.085967 
L 194.647273 72.901813 
L 191.04 72.717658 
L 187.432727 72.53349 
L 183.825455 72.481445 
L 180.218182 72.625392 
L 176.610909 72.769336 
L 173.003636 72.913254 
L 169.396364 73.057198 
L 165.789091 73.334591 
L 164.09633 73.6 
L 162.181818 73.900178 
L 158.574545 74.465727 
L 154.967273 75.031289 
L 151.36 75.942133 
L 147.752727 76.965213 
L 144.145455 77.988283 
L 143.82208 78.08 
L 140.538182 79.011399 
L 136.930909 80.031504 
L 133.323636 81.048758 
L 129.716364 82.063942 
L 127.953689 82.56 
L 126.109091 83.079109 
L 122.501818 84.094266 
L 118.894545 85.345093 
L 115.287273 86.766528 
L 114.593255 87.04 
L 111.68 88.187939 
L 108.072727 89.609361 
L 104.465455 91.030758 
L 103.223856 91.52 
L 100.858182 92.452178 
L 97.250909 93.873591 
L 93.643636 95.294988 
L 91.85448 96 
L 90.036364 96.716424 
L 86.429091 98.137821 
L 82.821818 99.559253 
L 80.485123 100.48 
L 79.214545 100.980658 
L 75.607273 102.402068 
L 72 103.823487 
L 72 104.96 
L 72 109.44 
L 72 113.92 
L 72 118.4 
L 72 122.88 
L 72 127.36 
L 72 131.84 
L 72 136.32 
L 72 140.8 
L 72 145.28 
L 72 149.76 
L 72 154.24 
L 72 158.72 
L 72 163.2 
L 72 167.68 
L 72 172.16 
L 72 176.64 
L 72 178.710472 
L 75.607273 177.415644 
L 77.825436 176.64 
L 79.214545 176.146283 
L 82.821818 174.86419 
L 86.429091 173.582097 
L 90.036364 172.300002 
L 90.43027 172.16 
L 93.643636 171.017905 
L 97.250909 169.735817 
L 100.858182 168.453724 
L 103.035118 167.68 
L 104.465455 167.17163 
L 108.072727 165.889539 
L 111.68 164.607446 
L 115.287273 163.325354 
L 115.639965 163.2 
L 118.894545 162.043253 
L 122.501818 160.761152 
L 126.109091 159.508732 
L 129.440017 158.72 
L 129.716364 158.654564 
L 133.323636 157.800404 
L 136.930909 156.946224 
L 140.538182 156.092061 
L 144.145455 155.237907 
L 147.752727 154.383721 
L 148.359692 154.24 
L 151.36 153.514953 
L 154.967273 152.828235 
L 158.574545 152.406161 
L 162.181818 152.070441 
L 165.789091 152.024194 
L 169.396364 151.974822 
L 173.003636 151.921991 
L 176.610909 151.886408 
L 180.218182 152.198274 
L 183.825455 152.382429 
L 187.432727 152.56659 
L 191.04 152.75075 
L 194.647273 152.934897 
L 198.254545 153.11907 
L 201.861818 153.303223 
L 205.469091 153.487393 
L 209.076364 153.671555 
L 212.683636 153.855722 
L 216.290909 154.039875 
L 219.898182 154.224038 
L 220.130645 154.24 
L 223.505455 154.476229 
L 227.112727 154.945434 
L 230.72 155.414622 
L 234.327273 155.883836 
L 237.934545 156.353034 
L 241.541818 156.822237 
L 245.149091 157.291436 
L 248.756364 157.760632 
L 252.363636 158.229841 
L 255.970909 158.69904 
L 256.117441 158.72 
L 259.578182 159.243454 
L 263.185455 160.318252 
L 266.792727 161.385147 
L 270.4 162.416531 
L 273.174062 163.2 
L 274.007273 163.43532 
L 277.614545 164.513096 
L 281.221818 165.868557 
L 284.829091 167.252735 
L 285.942586 167.68 
L 288.436364 168.636895 
L 292.043636 170.021076 
L 295.650909 171.457934 
L 297.095873 172.16 
L 299.258182 173.277088 
L 302.865455 175.140708 
L 305.453941 176.64 
L 306.472727 177.353135 
L 310.08 180.511746 
L 310.774653 181.12 
L 313.687273 183.670357 
L 315.89101 185.6 
L 317.294545 186.82896 
L 320.901818 189.987551 
L 321.007399 190.08 
L 324.509091 193.14617 
L 326.081712 194.56 
L 328.116364 196.616711 
L 330.260288 199.04 
L 331.723636 200.929074 
L 333.242093 203.52 
L 335.330909 207.894159 
L 335.381251 208 
L 337.512076 212.48 
L 338.938182 215.910639 
L 339.340873 216.96 
L 340.898382 221.44 
L 342.45591 225.92 
L 342.545455 226.177563 
L 344.013427 230.4 
L 345.570948 234.88 
L 346.152727 236.553412 
L 347.128464 239.36 
L 348.685966 243.84 
L 349.76 246.9293 
L 350.243526 248.32 
L 351.801097 252.8 
L 353.358571 257.28 
L 353.367273 257.305029 
L 354.91627 261.76 
L 356.473941 266.24 
L 356.974545 267.679842 
L 358.031577 270.72 
L 359.589226 275.2 
L 360.581818 278.054788 
L 361.146895 279.68 
L 362.704559 284.16 
L 364.189091 288.429692 
L 364.262213 288.64 
L 365.819876 293.12 
L 367.377548 297.6 
L 367.796364 298.804569 
L 368.935186 302.08 
L 370.492854 306.56 
L 371.403636 309.17951 
L 372.050517 311.04 
L 373.608179 315.52 
L 375.010909 319.554463 
L 375.165817 320 
L 376.723514 324.48 
L 378.281172 328.96 
L 378.618182 329.929268 
L 379.838842 333.44 
L 381.396506 337.92 
L 382.225455 340.304149 
L 382.95416 342.4 
L 384.511825 346.88 
L 385.832727 351.152772 
L 385.895165 351.36 
L 386.966456 355.84 
L 388.037757 360.32 
L 388.648454 364.8 
L 388.870653 369.28 
L 389.092847 373.76 
L 389.338485 378.24 
L 389.44 380.002429 
L 389.597816 382.72 
L 389.857978 387.2 
L 390.118132 391.68 
L 390.378278 396.16 
L 390.486539 400.64 
L 390.377941 405.12 
L 390.289417 409.6 
L 390.211767 414.08 
L 390.142149 418.56 
L 390.072549 423.04 
L 390.002927 427.52 
L 389.93332 432 
L 389.863706 436.48 
L 389.51295 440.96 
L 389.44 441.756785 
L 389.102779 445.44 
L 388.692574 449.92 
L 388.28237 454.4 
L 387.87219 458.88 
L 387.462002 463.36 
L 387.05181 467.84 
L 386.641616 472.32 
L 386.231409 476.8 
L 385.832727 481.154329 
L 385.821222 481.28 
L 385.411087 485.76 
L 385.000941 490.24 
L 384.590834 494.72 
L 384.18077 499.2 
L 383.770723 503.68 
L 383.362492 508.16 
L 382.95493 512.64 
z
" style="fill:#80a3fa;"/>
   </g>
   <g id="PathCollection_3">
    <path clip-path="url(#pd009e7eb6b)" d="M 310.08 512.64 
L 313.687273 512.64 
L 317.294545 512.64 
L 320.901818 512.64 
L 324.509091 512.64 
L 328.116364 512.64 
L 331.723636 512.64 
L 335.330909 512.64 
L 338.938182 512.64 
L 342.545455 512.64 
L 346.152727 512.64 
L 349.76 512.64 
L 353.367273 512.64 
L 356.974545 512.64 
L 360.581818 512.64 
L 364.189091 512.64 
L 367.796364 512.64 
L 371.403636 512.64 
L 375.010909 512.64 
L 378.618182 512.64 
L 382.225455 512.64 
L 382.95493 512.64 
L 383.362492 508.16 
L 383.770723 503.68 
L 384.18077 499.2 
L 384.590834 494.72 
L 385.000941 490.24 
L 385.411087 485.76 
L 385.821222 481.28 
L 385.832727 481.154329 
L 386.231409 476.8 
L 386.641616 472.32 
L 387.05181 467.84 
L 387.462002 463.36 
L 387.87219 458.88 
L 388.28237 454.4 
L 388.692574 449.92 
L 389.102779 445.44 
L 389.44 441.756785 
L 389.51295 440.96 
L 389.863706 436.48 
L 389.93332 432 
L 390.002927 427.52 
L 390.072549 423.04 
L 390.142149 418.56 
L 390.211767 414.08 
L 390.289417 409.6 
L 390.377941 405.12 
L 390.486539 400.64 
L 390.378278 396.16 
L 390.118132 391.68 
L 389.857978 387.2 
L 389.597816 382.72 
L 389.44 380.002429 
L 389.338485 378.24 
L 389.092847 373.76 
L 388.870653 369.28 
L 388.648454 364.8 
L 388.037757 360.32 
L 386.966456 355.84 
L 385.895165 351.36 
L 385.832727 351.152772 
L 384.511825 346.88 
L 382.95416 342.4 
L 382.225455 340.304149 
L 381.396506 337.92 
L 379.838842 333.44 
L 378.618182 329.929268 
L 378.281172 328.96 
L 376.723514 324.48 
L 375.165817 320 
L 375.010909 319.554463 
L 373.608179 315.52 
L 372.050517 311.04 
L 371.403636 309.17951 
L 370.492854 306.56 
L 368.935186 302.08 
L 367.796364 298.804569 
L 367.377548 297.6 
L 365.819876 293.12 
L 364.262213 288.64 
L 364.189091 288.429692 
L 362.704559 284.16 
L 361.146895 279.68 
L 360.581818 278.054788 
L 359.589226 275.2 
L 358.031577 270.72 
L 356.974545 267.679842 
L 356.473941 266.24 
L 354.91627 261.76 
L 353.367273 257.305029 
L 353.358571 257.28 
L 351.801097 252.8 
L 350.243526 248.32 
L 349.76 246.9293 
L 348.685966 243.84 
L 347.128464 239.36 
L 346.152727 236.553412 
L 345.570948 234.88 
L 344.013427 230.4 
L 342.545455 226.177563 
L 342.45591 225.92 
L 340.898382 221.44 
L 339.340873 216.96 
L 338.938182 215.910639 
L 337.512076 212.48 
L 335.381251 208 
L 335.330909 207.894159 
L 333.242093 203.52 
L 331.723636 200.929074 
L 330.260288 199.04 
L 328.116364 196.616711 
L 326.081712 194.56 
L 324.509091 193.14617 
L 321.007399 190.08 
L 320.901818 189.987551 
L 317.294545 186.82896 
L 315.89101 185.6 
L 313.687273 183.670357 
L 310.774653 181.12 
L 310.08 180.511746 
L 306.472727 177.353135 
L 305.453941 176.64 
L 302.865455 175.140708 
L 299.258182 173.277088 
L 297.095873 172.16 
L 295.650909 171.457934 
L 292.043636 170.021076 
L 288.436364 168.636895 
L 285.942586 167.68 
L 284.829091 167.252735 
L 281.221818 165.868557 
L 277.614545 164.513096 
L 274.007273 163.43532 
L 273.174062 163.2 
L 270.4 162.416531 
L 266.792727 161.385147 
L 263.185455 160.318252 
L 259.578182 159.243454 
L 256.117441 158.72 
L 255.970909 158.69904 
L 252.363636 158.229841 
L 248.756364 157.760632 
L 245.149091 157.291436 
L 241.541818 156.822237 
L 237.934545 156.353034 
L 234.327273 155.883836 
L 230.72 155.414622 
L 227.112727 154.945434 
L 223.505455 154.476229 
L 220.130645 154.24 
L 219.898182 154.224038 
L 216.290909 154.039875 
L 212.683636 153.855722 
L 209.076364 153.671555 
L 205.469091 153.487393 
L 201.861818 153.303223 
L 198.254545 153.11907 
L 194.647273 152.934897 
L 191.04 152.75075 
L 187.432727 152.56659 
L 183.825455 152.382429 
L 180.218182 152.198274 
L 176.610909 151.886408 
L 173.003636 151.921991 
L 169.396364 151.974822 
L 165.789091 152.024194 
L 162.181818 152.070441 
L 158.574545 152.406161 
L 154.967273 152.828235 
L 151.36 153.514953 
L 148.359692 154.24 
L 147.752727 154.383721 
L 144.145455 155.237907 
L 140.538182 156.092061 
L 136.930909 156.946224 
L 133.323636 157.800404 
L 129.716364 158.654564 
L 129.440017 158.72 
L 126.109091 159.508732 
L 122.501818 160.761152 
L 118.894545 162.043253 
L 115.639965 163.2 
L 115.287273 163.325354 
L 111.68 164.607446 
L 108.072727 165.889539 
L 104.465455 167.17163 
L 103.035118 167.68 
L 100.858182 168.453724 
L 97.250909 169.735817 
L 93.643636 171.017905 
L 90.43027 172.16 
L 90.036364 172.300002 
L 86.429091 173.582097 
L 82.821818 174.86419 
L 79.214545 176.146283 
L 77.825436 176.64 
L 75.607273 177.415644 
L 72 178.710472 
L 72 181.12 
L 72 185.6 
L 72 190.08 
L 72 194.56 
L 72 199.04 
L 72 203.52 
L 72 208 
L 72 212.48 
L 72 216.96 
L 72 221.44 
L 72 225.92 
L 72 227.121336 
L 73.576256 225.92 
L 75.607273 224.372072 
L 79.214545 221.775194 
L 79.76273 221.44 
L 82.821818 219.712953 
L 86.429091 218.142196 
L 90.007541 216.96 
L 90.036364 216.950657 
L 93.643636 215.78129 
L 97.250909 214.611923 
L 100.858182 213.442561 
L 103.8275 212.48 
L 104.465455 212.273194 
L 108.072727 211.10383 
L 111.68 209.934463 
L 115.287273 208.7651 
L 117.647458 208 
L 118.894545 207.595731 
L 122.501818 206.426361 
L 126.109091 205.256992 
L 129.716364 204.204359 
L 133.12158 203.52 
L 133.323636 203.479392 
L 136.930909 202.754436 
L 140.538182 202.029478 
L 144.145455 201.30452 
L 147.752727 200.579557 
L 151.36 199.854593 
L 154.967273 199.347332 
L 158.574545 199.156354 
L 162.181818 199.311085 
L 165.789091 199.465812 
L 169.396364 199.620531 
L 173.003636 199.959005 
L 176.610909 200.484031 
L 180.218182 201.009062 
L 183.825455 201.534079 
L 187.432727 202.059104 
L 191.04 202.584135 
L 194.647273 203.109154 
L 197.470048 203.52 
L 198.254545 203.634182 
L 201.861818 204.159207 
L 205.469091 204.684242 
L 209.076364 205.209262 
L 212.683636 206.015239 
L 216.290909 206.910475 
L 219.898182 207.805704 
L 220.68108 208 
L 223.505455 208.700936 
L 227.112727 209.596165 
L 230.72 210.491394 
L 234.327273 211.386628 
L 237.934545 212.281854 
L 238.578667 212.48 
L 241.541818 213.440038 
L 245.149091 215.045746 
L 248.756364 216.915678 
L 248.84136 216.96 
L 252.363636 218.796737 
L 255.970909 220.677782 
L 257.290946 221.44 
L 259.578182 222.864736 
L 263.185455 225.301647 
L 263.948769 225.92 
L 266.792727 228.75057 
L 268.272667 230.4 
L 270.4 232.770971 
L 272.292311 234.88 
L 274.007273 236.791365 
L 276.311978 239.36 
L 277.614545 240.811737 
L 280.331633 243.84 
L 281.221818 244.832134 
L 284.031995 248.32 
L 284.829091 249.580849 
L 286.641154 252.8 
L 288.436364 256.212418 
L 288.958343 257.28 
L 290.821064 261.76 
L 292.043636 265.016679 
L 292.451727 266.24 
L 293.779027 270.72 
L 295.106318 275.2 
L 295.650909 277.038143 
L 296.43362 279.68 
L 297.760921 284.16 
L 299.088217 288.64 
L 299.258182 289.213677 
L 300.415517 293.12 
L 301.742813 297.6 
L 302.865455 301.389223 
L 303.070113 302.08 
L 304.397413 306.56 
L 305.724707 311.04 
L 306.472727 313.564769 
L 307.052009 315.52 
L 308.379312 320 
L 309.706606 324.48 
L 310.08 325.740304 
L 311.033907 328.96 
L 312.361202 333.44 
L 313.687273 337.915849 
L 313.688502 337.92 
L 315.0158 342.4 
L 316.343097 346.88 
L 317.294545 350.091406 
L 317.670395 351.36 
L 318.997694 355.84 
L 320.324995 360.32 
L 320.901818 362.266935 
L 321.652293 364.8 
L 322.658882 369.28 
L 323.255631 373.76 
L 323.381618 378.24 
L 323.507598 382.72 
L 323.633581 387.2 
L 323.621607 391.68 
L 323.393333 396.16 
L 323.165061 400.64 
L 322.936781 405.12 
L 322.708507 409.6 
L 322.480229 414.08 
L 322.25196 418.56 
L 322.023684 423.04 
L 321.795406 427.52 
L 321.56713 432 
L 321.198106 436.48 
L 320.901818 438.980678 
L 320.667302 440.96 
L 320.136496 445.44 
L 319.605689 449.92 
L 319.074881 454.4 
L 318.544074 458.88 
L 318.013261 463.36 
L 317.482451 467.84 
L 317.294545 469.425923 
L 316.951647 472.32 
L 316.420841 476.8 
L 315.75258 481.28 
L 314.852966 485.76 
L 313.953349 490.24 
L 313.687273 491.565042 
L 313.053739 494.72 
L 312.154125 499.2 
L 311.254509 503.68 
L 310.354892 508.16 
L 310.08 509.528939 
L 309.455277 512.64 
z
" style="fill:#b2ccfb;"/>
   </g>
   <g id="PathCollection_4">
    <path clip-path="url(#pd009e7eb6b)" d="M 266.792727 512.64 
L 270.4 512.64 
L 274.007273 512.64 
L 277.614545 512.64 
L 281.221818 512.64 
L 284.829091 512.64 
L 288.436364 512.64 
L 292.043636 512.64 
L 295.650909 512.64 
L 299.258182 512.64 
L 302.865455 512.64 
L 306.472727 512.64 
L 309.455277 512.64 
L 310.08 509.528939 
L 310.354892 508.16 
L 311.254509 503.68 
L 312.154125 499.2 
L 313.053739 494.72 
L 313.687273 491.565042 
L 313.953349 490.24 
L 314.852966 485.76 
L 315.75258 481.28 
L 316.420841 476.8 
L 316.951647 472.32 
L 317.294545 469.425923 
L 317.482451 467.84 
L 318.013261 463.36 
L 318.544074 458.88 
L 319.074881 454.4 
L 319.605689 449.92 
L 320.136496 445.44 
L 320.667302 440.96 
L 320.901818 438.980678 
L 321.198106 436.48 
L 321.56713 432 
L 321.795406 427.52 
L 322.023684 423.04 
L 322.25196 418.56 
L 322.480229 414.08 
L 322.708507 409.6 
L 322.936781 405.12 
L 323.165061 400.64 
L 323.393333 396.16 
L 323.621607 391.68 
L 323.633581 387.2 
L 323.507598 382.72 
L 323.381618 378.24 
L 323.255631 373.76 
L 322.658882 369.28 
L 321.652293 364.8 
L 320.901818 362.266935 
L 320.324995 360.32 
L 318.997694 355.84 
L 317.670395 351.36 
L 317.294545 350.091406 
L 316.343097 346.88 
L 315.0158 342.4 
L 313.688502 337.92 
L 313.687273 337.915849 
L 312.361202 333.44 
L 311.033907 328.96 
L 310.08 325.740304 
L 309.706606 324.48 
L 308.379312 320 
L 307.052009 315.52 
L 306.472727 313.564769 
L 305.724707 311.04 
L 304.397413 306.56 
L 303.070113 302.08 
L 302.865455 301.389223 
L 301.742813 297.6 
L 300.415517 293.12 
L 299.258182 289.213677 
L 299.088217 288.64 
L 297.760921 284.16 
L 296.43362 279.68 
L 295.650909 277.038143 
L 295.106318 275.2 
L 293.779027 270.72 
L 292.451727 266.24 
L 292.043636 265.016679 
L 290.821064 261.76 
L 288.958343 257.28 
L 288.436364 256.212418 
L 286.641154 252.8 
L 284.829091 249.580849 
L 284.031995 248.32 
L 281.221818 244.832134 
L 280.331633 243.84 
L 277.614545 240.811737 
L 276.311978 239.36 
L 274.007273 236.791365 
L 272.292311 234.88 
L 270.4 232.770971 
L 268.272667 230.4 
L 266.792727 228.75057 
L 263.948769 225.92 
L 263.185455 225.301647 
L 259.578182 222.864736 
L 257.290946 221.44 
L 255.970909 220.677782 
L 252.363636 218.796737 
L 248.84136 216.96 
L 248.756364 216.915678 
L 245.149091 215.045746 
L 241.541818 213.440038 
L 238.578667 212.48 
L 237.934545 212.281854 
L 234.327273 211.386628 
L 230.72 210.491394 
L 227.112727 209.596165 
L 223.505455 208.700936 
L 220.68108 208 
L 219.898182 207.805704 
L 216.290909 206.910475 
L 212.683636 206.015239 
L 209.076364 205.209262 
L 205.469091 204.684242 
L 201.861818 204.159207 
L 198.254545 203.634182 
L 197.470048 203.52 
L 194.647273 203.109154 
L 191.04 202.584135 
L 187.432727 202.059104 
L 183.825455 201.534079 
L 180.218182 201.009062 
L 176.610909 200.484031 
L 173.003636 199.959005 
L 169.396364 199.620531 
L 165.789091 199.465812 
L 162.181818 199.311085 
L 158.574545 199.156354 
L 154.967273 199.347332 
L 151.36 199.854593 
L 147.752727 200.579557 
L 144.145455 201.30452 
L 140.538182 202.029478 
L 136.930909 202.754436 
L 133.323636 203.479392 
L 133.12158 203.52 
L 129.716364 204.204359 
L 126.109091 205.256992 
L 122.501818 206.426361 
L 118.894545 207.595731 
L 117.647458 208 
L 115.287273 208.7651 
L 111.68 209.934463 
L 108.072727 211.10383 
L 104.465455 212.273194 
L 103.8275 212.48 
L 100.858182 213.442561 
L 97.250909 214.611923 
L 93.643636 215.78129 
L 90.036364 216.950657 
L 90.007541 216.96 
L 86.429091 218.142196 
L 82.821818 219.712953 
L 79.76273 221.44 
L 79.214545 221.775194 
L 75.607273 224.372072 
L 73.576256 225.92 
L 72 227.121336 
L 72 230.4 
L 72 234.88 
L 72 239.36 
L 72 243.84 
L 72 248.32 
L 72 252.8 
L 72 257.28 
L 72 261.76 
L 72 266.24 
L 72 270.72 
L 72 274.18324 
L 75.607273 271.433964 
L 76.544048 270.72 
L 79.214545 268.684679 
L 82.422169 266.24 
L 82.821818 265.935409 
L 86.429091 263.186131 
L 88.300285 261.76 
L 90.036364 260.436846 
L 93.643636 257.687569 
L 94.178398 257.28 
L 97.250909 254.938288 
L 100.056524 252.8 
L 100.858182 252.234573 
L 104.465455 250.094001 
L 108.072727 248.522401 
L 108.678082 248.32 
L 111.68 247.346871 
L 115.287273 246.177497 
L 118.894545 245.008129 
L 122.497988 243.84 
L 122.501818 243.838758 
L 126.109091 242.669394 
L 129.716364 241.500034 
L 133.323636 240.598766 
L 136.930909 239.873811 
L 139.48754 239.36 
L 140.538182 239.14885 
L 144.145455 238.423889 
L 147.752727 237.698929 
L 151.36 236.973968 
L 154.967273 236.497764 
L 158.574545 236.61302 
L 162.181818 236.767747 
L 165.789091 236.922473 
L 169.396364 237.313537 
L 173.003636 237.838562 
L 176.610909 238.363589 
L 180.218182 238.888616 
L 183.456922 239.36 
L 183.825455 239.413638 
L 187.432727 239.938661 
L 191.04 240.463682 
L 194.647273 240.988708 
L 198.254545 241.513734 
L 201.861818 242.14369 
L 205.469091 243.03892 
L 208.69697 243.84 
L 209.076364 243.934157 
L 212.683636 244.829386 
L 216.290909 245.724614 
L 219.898182 246.619848 
L 223.505455 247.635083 
L 225.534833 248.32 
L 227.112727 248.893116 
L 230.72 250.763518 
L 234.327273 252.713406 
L 234.465338 252.8 
L 237.934545 255.218425 
L 240.371909 257.28 
L 241.541818 258.451966 
L 244.509936 261.76 
L 245.149091 262.472351 
L 248.529584 266.24 
L 248.756364 266.492752 
L 252.363636 270.513132 
L 252.549248 270.72 
L 255.970909 274.533524 
L 256.550369 275.2 
L 259.578182 279.6435 
L 259.597841 279.68 
L 261.567544 284.16 
L 263.185455 288.051211 
L 263.430266 288.64 
L 265.292992 293.12 
L 266.792727 296.726984 
L 267.1506 297.6 
L 268.786013 302.08 
L 270.125839 306.56 
L 270.4 307.48537 
L 271.453134 311.04 
L 272.780428 315.52 
L 274.007273 319.660922 
L 274.107733 320 
L 275.43503 324.48 
L 276.762331 328.96 
L 277.614545 331.836459 
L 278.089629 333.44 
L 279.416932 337.92 
L 280.744226 342.4 
L 281.221818 344.012011 
L 282.07152 346.88 
L 283.398818 351.36 
L 284.726115 355.84 
L 284.829091 356.187573 
L 286.053417 360.32 
L 287.380716 364.8 
L 288.436364 368.363086 
L 288.70802 369.28 
L 290.026264 373.76 
L 290.708119 378.24 
L 290.834102 382.72 
L 290.832552 387.2 
L 290.604276 391.68 
L 290.376002 396.16 
L 290.147726 400.64 
L 289.919448 405.12 
L 289.691175 409.6 
L 289.462899 414.08 
L 289.234623 418.56 
L 289.00635 423.04 
L 288.778075 427.52 
L 288.5498 432 
L 288.436364 433.10175 
L 288.087556 436.48 
L 287.556746 440.96 
L 287.025938 445.44 
L 286.495132 449.92 
L 285.964321 454.4 
L 285.433517 458.88 
L 284.902704 463.36 
L 284.829091 463.741459 
L 284.006288 467.84 
L 283.106675 472.32 
L 282.207059 476.8 
L 281.307442 481.28 
L 281.221818 481.706401 
L 280.407831 485.76 
L 279.322487 490.24 
L 277.614545 494.079905 
L 277.241024 494.72 
L 274.264416 499.2 
L 274.007273 499.58702 
L 271.208075 503.68 
L 270.4 504.686525 
L 267.281077 508.16 
L 266.792727 508.703865 
L 263.258367 512.64 
z
" style="fill:#dddcdc;"/>
   </g>
   <g id="PathCollection_5">
    <path clip-path="url(#pd009e7eb6b)" d="M 75.607273 512.64 
L 79.214545 512.64 
L 82.821818 512.64 
L 86.429091 512.64 
L 90.036364 512.64 
L 93.643636 512.64 
L 97.250909 512.64 
L 100.858182 512.64 
L 104.465455 512.64 
L 108.072727 512.64 
L 111.68 512.64 
L 115.287273 512.64 
L 115.39452 512.64 
L 115.287273 512.54774 
L 111.68 509.444534 
L 110.186817 508.16 
L 108.072727 506.341327 
L 104.979104 503.68 
L 104.465455 503.238125 
L 100.858182 500.134918 
L 99.7714 499.2 
L 97.250909 497.031708 
L 94.5637 494.72 
L 93.643636 493.928504 
L 90.036364 490.825311 
L 89.355978 490.24 
L 86.429091 487.722098 
L 84.148283 485.76 
L 82.821818 484.617732 
L 79.424547 481.28 
L 79.214545 481.050115 
L 75.607273 477.101294 
L 75.332038 476.8 
L 72 472.608129 
L 72 476.8 
L 72 481.28 
L 72 485.76 
L 72 490.24 
L 72 494.72 
L 72 499.2 
L 72 503.68 
L 72 508.16 
L 72 512.64 
z
" style="fill:#f6bfa6;"/>
    <path clip-path="url(#pd009e7eb6b)" d="M 191.04 512.64 
L 194.647273 512.64 
L 198.254545 512.64 
L 201.861818 512.64 
L 205.469091 512.64 
L 209.076364 512.64 
L 212.683636 512.64 
L 216.290909 512.64 
L 219.898182 512.64 
L 223.505455 512.64 
L 227.112727 512.64 
L 230.72 512.64 
L 234.327273 512.64 
L 237.934545 512.64 
L 241.541818 512.64 
L 245.149091 512.64 
L 248.756364 512.64 
L 252.363636 512.64 
L 255.970909 512.64 
L 259.578182 512.64 
L 263.185455 512.64 
L 263.258367 512.64 
L 266.792727 508.703865 
L 267.281077 508.16 
L 270.4 504.686525 
L 271.208075 503.68 
L 274.007273 499.58702 
L 274.264416 499.2 
L 277.241024 494.72 
L 277.614545 494.079905 
L 279.322487 490.24 
L 280.407831 485.76 
L 281.221818 481.706401 
L 281.307442 481.28 
L 282.207059 476.8 
L 283.106675 472.32 
L 284.006288 467.84 
L 284.829091 463.741459 
L 284.902704 463.36 
L 285.433517 458.88 
L 285.964321 454.4 
L 286.495132 449.92 
L 287.025938 445.44 
L 287.556746 440.96 
L 288.087556 436.48 
L 288.436364 433.10175 
L 288.5498 432 
L 288.778075 427.52 
L 289.00635 423.04 
L 289.234623 418.56 
L 289.462899 414.08 
L 289.691175 409.6 
L 289.919448 405.12 
L 290.147726 400.64 
L 290.376002 396.16 
L 290.604276 391.68 
L 290.832552 387.2 
L 290.834102 382.72 
L 290.708119 378.24 
L 290.026264 373.76 
L 288.70802 369.28 
L 288.436364 368.363086 
L 287.380716 364.8 
L 286.053417 360.32 
L 284.829091 356.187573 
L 284.726115 355.84 
L 283.398818 351.36 
L 282.07152 346.88 
L 281.221818 344.012011 
L 280.744226 342.4 
L 279.416932 337.92 
L 278.089629 333.44 
L 277.614545 331.836459 
L 276.762331 328.96 
L 275.43503 324.48 
L 274.107733 320 
L 274.007273 319.660922 
L 272.780428 315.52 
L 271.453134 311.04 
L 270.4 307.48537 
L 270.125839 306.56 
L 268.786013 302.08 
L 267.1506 297.6 
L 266.792727 296.726984 
L 265.292992 293.12 
L 263.430266 288.64 
L 263.185455 288.051211 
L 261.567544 284.16 
L 259.597841 279.68 
L 259.578182 279.6435 
L 256.550369 275.2 
L 255.970909 274.533524 
L 252.549248 270.72 
L 252.363636 270.513132 
L 248.756364 266.492752 
L 248.529584 266.24 
L 245.149091 262.472351 
L 244.509936 261.76 
L 241.541818 258.451966 
L 240.371909 257.28 
L 237.934545 255.218425 
L 234.465338 252.8 
L 234.327273 252.713406 
L 230.72 250.763518 
L 227.112727 248.893116 
L 225.534833 248.32 
L 223.505455 247.635083 
L 219.898182 246.619848 
L 216.290909 245.724614 
L 212.683636 244.829386 
L 209.076364 243.934157 
L 208.69697 243.84 
L 205.469091 243.03892 
L 201.861818 242.14369 
L 198.254545 241.513734 
L 194.647273 240.988708 
L 191.04 240.463682 
L 187.432727 239.938661 
L 183.825455 239.413638 
L 183.456922 239.36 
L 180.218182 238.888616 
L 176.610909 238.363589 
L 173.003636 237.838562 
L 169.396364 237.313537 
L 165.789091 236.922473 
L 162.181818 236.767747 
L 158.574545 236.61302 
L 154.967273 236.497764 
L 151.36 236.973968 
L 147.752727 237.698929 
L 144.145455 238.423889 
L 140.538182 239.14885 
L 139.48754 239.36 
L 136.930909 239.873811 
L 133.323636 240.598766 
L 129.716364 241.500034 
L 126.109091 242.669394 
L 122.501818 243.838758 
L 122.497988 243.84 
L 118.894545 245.008129 
L 115.287273 246.177497 
L 111.68 247.346871 
L 108.678082 248.32 
L 108.072727 248.522401 
L 104.465455 250.094001 
L 100.858182 252.234573 
L 100.056524 252.8 
L 97.250909 254.938288 
L 94.178398 257.28 
L 93.643636 257.687569 
L 90.036364 260.436846 
L 88.300285 261.76 
L 86.429091 263.186131 
L 82.821818 265.935409 
L 82.422169 266.24 
L 79.214545 268.684679 
L 76.544048 270.72 
L 75.607273 271.433964 
L 72 274.18324 
L 72 275.2 
L 72 279.68 
L 72 284.16 
L 72 288.64 
L 72 293.12 
L 72 297.6 
L 72 302.08 
L 72 306.56 
L 72 311.04 
L 72 315.52 
L 72 320 
L 72 324.48 
L 72 326.910157 
L 74.170787 324.48 
L 75.607273 323.024899 
L 78.65216 320 
L 79.214545 319.441307 
L 82.821818 315.85773 
L 83.161781 315.52 
L 86.429091 312.274147 
L 87.671396 311.04 
L 90.036364 308.69056 
L 92.181009 306.56 
L 93.643636 305.106978 
L 97.14728 302.08 
L 97.250909 302.000189 
L 100.858182 299.250909 
L 103.024308 297.6 
L 104.465455 296.501632 
L 108.072727 293.752356 
L 108.902427 293.12 
L 111.68 291.003078 
L 114.780546 288.64 
L 115.287273 288.253798 
L 118.894545 285.504518 
L 120.65866 284.16 
L 122.501818 282.794078 
L 126.109091 280.515641 
L 127.865052 279.68 
L 129.716364 278.912438 
L 133.323636 277.743068 
L 136.930909 276.993184 
L 140.538182 276.268222 
L 144.145455 275.543266 
L 145.853479 275.2 
L 147.752727 274.818301 
L 151.36 274.09334 
L 154.967273 273.914959 
L 158.574545 274.06968 
L 162.181818 274.22441 
L 165.789091 274.668062 
L 169.396364 275.193091 
L 169.443833 275.2 
L 173.003636 275.71811 
L 176.610909 276.243138 
L 180.218182 276.768164 
L 183.825455 277.293187 
L 187.432727 277.818217 
L 191.04 278.343233 
L 194.647273 279.167374 
L 196.712849 279.68 
L 198.254545 280.06458 
L 201.861818 281.105343 
L 205.469091 282.349116 
L 209.076364 283.592881 
L 210.428393 284.16 
L 212.683636 285.259504 
L 216.290909 288.192043 
L 216.727539 288.64 
L 219.898182 292.173751 
L 220.747199 293.12 
L 223.505455 296.19414 
L 224.766854 297.6 
L 227.112727 300.214535 
L 228.786502 302.08 
L 230.72 304.319326 
L 232.222793 306.56 
L 234.176748 311.04 
L 234.327273 311.402022 
L 236.039473 315.52 
L 237.902202 320 
L 237.934545 320.077789 
L 239.764921 324.48 
L 241.541818 328.75359 
L 241.627641 328.96 
L 243.490365 333.44 
L 245.145116 337.92 
L 245.149091 337.932611 
L 246.472651 342.4 
L 247.79995 346.88 
L 248.756364 350.10817 
L 249.127244 351.36 
L 250.454545 355.84 
L 251.781838 360.32 
L 252.363636 362.283725 
L 253.109141 364.8 
L 254.43644 369.28 
L 255.763746 373.76 
L 255.970909 374.459233 
L 257.091042 378.24 
L 258.043496 382.72 
L 257.815221 387.2 
L 257.586947 391.68 
L 257.358669 396.16 
L 257.130394 400.64 
L 256.902119 405.12 
L 256.673845 409.6 
L 256.445564 414.08 
L 256.217293 418.56 
L 255.989022 423.04 
L 255.970909 423.395471 
L 255.76074 427.52 
L 255.507811 432 
L 254.976999 436.48 
L 254.446192 440.96 
L 253.915383 445.44 
L 253.159621 449.92 
L 252.363636 453.300767 
L 252.020587 454.4 
L 249.724871 458.88 
L 248.756364 460.721224 
L 247.368332 463.36 
L 245.149091 467.578983 
L 245.001672 467.84 
L 241.783129 472.32 
L 241.541818 472.606179 
L 237.934545 476.623533 
L 237.776091 476.8 
L 234.327273 480.64086 
L 233.753371 481.28 
L 230.72 484.658205 
L 229.73067 485.76 
L 227.112727 488.675549 
L 225.707964 490.24 
L 223.505455 492.692881 
L 221.685252 494.72 
L 219.898182 496.679729 
L 217.01941 499.2 
L 216.290909 499.708483 
L 212.683636 501.988885 
L 209.534865 503.68 
L 209.076364 503.905736 
L 205.469091 505.610018 
L 201.861818 507.31429 
L 200.071779 508.16 
L 198.254545 509.018561 
L 194.647273 510.722848 
L 191.04 512.427123 
L 190.589425 512.64 
z
" style="fill:#f6bfa6;"/>
   </g>
   <g id="PathCollection_6">
    <path clip-path="url(#pd009e7eb6b)" d="M 111.68 509.444534 
L 115.287273 512.54774 
L 115.39452 512.64 
L 118.894545 512.64 
L 122.501818 512.64 
L 126.109091 512.64 
L 129.716364 512.64 
L 133.323636 512.64 
L 136.930909 512.64 
L 140.538182 512.64 
L 144.145455 512.64 
L 147.752727 512.64 
L 151.36 512.64 
L 154.967273 512.64 
L 158.574545 512.64 
L 162.181818 512.64 
L 165.789091 512.64 
L 169.396364 512.64 
L 173.003636 512.64 
L 176.610909 512.64 
L 180.218182 512.64 
L 183.825455 512.64 
L 187.432727 512.64 
L 190.589425 512.64 
L 191.04 512.427123 
L 194.647273 510.722848 
L 198.254545 509.018561 
L 200.071779 508.16 
L 201.861818 507.31429 
L 205.469091 505.610018 
L 209.076364 503.905736 
L 209.534865 503.68 
L 212.683636 501.988885 
L 216.290909 499.708483 
L 217.01941 499.2 
L 219.898182 496.679729 
L 221.685252 494.72 
L 223.505455 492.692881 
L 225.707964 490.24 
L 227.112727 488.675549 
L 229.73067 485.76 
L 230.72 484.658205 
L 233.753371 481.28 
L 234.327273 480.64086 
L 237.776091 476.8 
L 237.934545 476.623533 
L 241.541818 472.606179 
L 241.783129 472.32 
L 245.001672 467.84 
L 245.149091 467.578983 
L 247.368332 463.36 
L 248.756364 460.721224 
L 249.724871 458.88 
L 252.020587 454.4 
L 252.363636 453.300767 
L 253.159621 449.92 
L 253.915383 445.44 
L 254.446192 440.96 
L 254.976999 436.48 
L 255.507811 432 
L 255.76074 427.52 
L 255.970909 423.395471 
L 255.989022 423.04 
L 256.217293 418.56 
L 256.445564 414.08 
L 256.673845 409.6 
L 256.902119 405.12 
L 257.130394 400.64 
L 257.358669 396.16 
L 257.586947 391.68 
L 257.815221 387.2 
L 258.043496 382.72 
L 257.091042 378.24 
L 255.970909 374.459233 
L 255.763746 373.76 
L 254.43644 369.28 
L 253.109141 364.8 
L 252.363636 362.283725 
L 251.781838 360.32 
L 250.454545 355.84 
L 249.127244 351.36 
L 248.756364 350.10817 
L 247.79995 346.88 
L 246.472651 342.4 
L 245.149091 337.932611 
L 245.145116 337.92 
L 243.490365 333.44 
L 241.627641 328.96 
L 241.541818 328.75359 
L 239.764921 324.48 
L 237.934545 320.077789 
L 237.902202 320 
L 236.039473 315.52 
L 234.327273 311.402022 
L 234.176748 311.04 
L 232.222793 306.56 
L 230.72 304.319326 
L 228.786502 302.08 
L 227.112727 300.214535 
L 224.766854 297.6 
L 223.505455 296.19414 
L 220.747199 293.12 
L 219.898182 292.173751 
L 216.727539 288.64 
L 216.290909 288.192043 
L 212.683636 285.259504 
L 210.428393 284.16 
L 209.076364 283.592881 
L 205.469091 282.349116 
L 201.861818 281.105343 
L 198.254545 280.06458 
L 196.712849 279.68 
L 194.647273 279.167374 
L 191.04 278.343233 
L 187.432727 277.818217 
L 183.825455 277.293187 
L 180.218182 276.768164 
L 176.610909 276.243138 
L 173.003636 275.71811 
L 169.443833 275.2 
L 169.396364 275.193091 
L 165.789091 274.668062 
L 162.181818 274.22441 
L 158.574545 274.06968 
L 154.967273 273.914959 
L 151.36 274.09334 
L 147.752727 274.818301 
L 145.853479 275.2 
L 144.145455 275.543266 
L 140.538182 276.268222 
L 136.930909 276.993184 
L 133.323636 277.743068 
L 129.716364 278.912438 
L 127.865052 279.68 
L 126.109091 280.515641 
L 122.501818 282.794078 
L 120.65866 284.16 
L 118.894545 285.504518 
L 115.287273 288.253798 
L 114.780546 288.64 
L 111.68 291.003078 
L 108.902427 293.12 
L 108.072727 293.752356 
L 104.465455 296.501632 
L 103.024308 297.6 
L 100.858182 299.250909 
L 97.250909 302.000189 
L 97.14728 302.08 
L 93.643636 305.106978 
L 92.181009 306.56 
L 90.036364 308.69056 
L 87.671396 311.04 
L 86.429091 312.274147 
L 83.161781 315.52 
L 82.821818 315.85773 
L 79.214545 319.441307 
L 78.65216 320 
L 75.607273 323.024899 
L 74.170787 324.48 
L 72 326.910157 
L 72 328.96 
L 72 333.44 
L 72 337.92 
L 72 342.4 
L 72 346.88 
L 72 351.36 
L 72 355.84 
L 72 360.32 
L 72 364.8 
L 72 369.28 
L 72 373.76 
L 72 378.24 
L 72 382.72 
L 72 387.2 
L 72 391.68 
L 72 396.16 
L 72 400.64 
L 72 405.12 
L 72 409.6 
L 72 414.08 
L 72 418.56 
L 72 423.04 
L 72 427.52 
L 72 432 
L 72 436.48 
L 72 440.96 
L 72 445.44 
L 72 449.92 
L 72 454.4 
L 72 458.88 
L 72 463.36 
L 72 467.84 
L 72 472.32 
L 72 472.608129 
L 75.332038 476.8 
L 75.607273 477.101294 
L 79.214545 481.050115 
L 79.424547 481.28 
L 82.821818 484.617732 
L 84.148283 485.76 
L 86.429091 487.722098 
L 89.355978 490.24 
L 90.036364 490.825311 
L 93.643636 493.928504 
L 94.5637 494.72 
L 97.250909 497.031708 
L 99.7714 499.2 
L 100.858182 500.134918 
L 104.465455 503.238125 
L 104.979104 503.68 
L 108.072727 506.341327 
L 110.186817 508.16 
z
M 139.992756 476.8 
L 136.930909 474.556338 
L 134.297828 472.32 
L 133.323636 471.492594 
L 129.716364 468.428877 
L 129.023013 467.84 
L 126.109091 465.365132 
L 123.748218 463.36 
L 122.501818 462.301412 
L 118.894545 459.23767 
L 118.473421 458.88 
L 115.287273 456.173926 
L 113.19863 454.4 
L 111.68 453.110203 
L 108.130605 449.92 
L 108.072727 449.862273 
L 104.465455 445.998603 
L 103.943921 445.44 
L 100.858182 441.69836 
L 100.316512 440.96 
L 97.250909 436.741178 
L 97.085909 436.48 
L 95.001851 432 
L 93.643636 428.294943 
L 93.362064 427.52 
L 92.118917 423.04 
L 91.725581 418.56 
L 91.42931 414.08 
L 91.133027 409.6 
L 91.051655 405.12 
L 91.340817 400.64 
L 91.714211 396.16 
L 92.087615 391.68 
L 92.461011 387.2 
L 92.939839 382.72 
L 93.544026 378.24 
L 93.643636 377.680739 
L 94.411066 373.76 
L 95.363969 369.28 
L 96.383988 364.8 
L 97.250909 362.363586 
L 98.159584 360.32 
L 100.858182 356.809433 
L 101.737421 355.84 
L 104.465455 353.149817 
L 106.356498 351.36 
L 108.072727 349.735647 
L 111.089894 346.88 
L 111.68 346.321482 
L 115.287273 342.907312 
L 115.823279 342.4 
L 118.894545 339.493138 
L 120.556664 337.92 
L 122.501818 336.132709 
L 125.895147 333.44 
L 126.109091 333.282956 
L 129.716364 330.635077 
L 131.998344 328.96 
L 133.323636 327.987177 
L 136.930909 325.389076 
L 138.536251 324.48 
L 140.538182 323.346343 
L 144.145455 321.303604 
L 146.447482 320 
L 147.752727 319.260861 
L 151.36 317.683736 
L 154.967273 317.236774 
L 158.574545 317.446813 
L 162.181818 318.123307 
L 165.789091 318.79978 
L 169.396364 319.476258 
L 172.189144 320 
L 173.003636 320.157341 
L 176.610909 321.060425 
L 180.218182 322.17208 
L 183.825455 324.228086 
L 184.181999 324.48 
L 187.432727 327.064132 
L 189.565148 328.96 
L 191.04 330.271252 
L 194.604111 333.44 
L 194.647273 333.48087 
L 198.254545 337.856631 
L 198.299029 337.92 
L 201.025497 342.4 
L 201.861818 344.245608 
L 202.965897 346.88 
L 204.843463 351.36 
L 205.469091 352.852785 
L 206.721031 355.84 
L 208.598601 360.32 
L 209.076364 361.459979 
L 210.476158 364.8 
L 212.353728 369.28 
L 212.683636 370.067181 
L 214.231295 373.76 
L 215.865927 378.24 
L 216.290909 379.846104 
L 216.963857 382.72 
L 217.848439 387.2 
L 218.039428 391.68 
L 217.854752 396.16 
L 217.60668 400.64 
L 217.178696 405.12 
L 216.290909 409.107351 
L 216.150247 409.6 
L 214.779922 414.08 
L 213.409582 418.56 
L 212.683636 420.93332 
L 212.039255 423.04 
L 210.424971 427.52 
L 209.076364 430.492761 
L 208.334385 432 
L 205.499077 436.48 
L 205.469091 436.518096 
L 201.961025 440.96 
L 201.861818 441.07438 
L 198.254545 445.375088 
L 198.20299 445.44 
L 194.647273 449.523656 
L 194.331357 449.92 
L 191.04 453.724258 
L 190.455362 454.4 
L 187.432727 457.893677 
L 186.565716 458.88 
L 183.825455 461.439767 
L 181.029504 463.36 
L 180.218182 463.846912 
L 176.610909 465.638449 
L 173.003636 467.429999 
L 172.178099 467.84 
L 169.396364 469.221539 
L 165.789091 471.013091 
L 163.157628 472.32 
L 162.181818 472.804633 
L 158.574545 474.596184 
L 154.967273 476.384998 
L 154.060015 476.8 
L 151.36 478.066362 
L 147.752727 478.766043 
L 144.145455 478.454898 
L 140.538182 477.196819 
z
" style="fill:#f08a6c;"/>
   </g>
   <g id="PathCollection_7">
    <path clip-path="url(#pd009e7eb6b)" d="M 140.538182 477.196819 
L 144.145455 478.454898 
L 147.752727 478.766043 
L 151.36 478.066362 
L 154.060015 476.8 
L 154.967273 476.384998 
L 158.574545 474.596184 
L 162.181818 472.804633 
L 163.157628 472.32 
L 165.789091 471.013091 
L 169.396364 469.221539 
L 172.178099 467.84 
L 173.003636 467.429999 
L 176.610909 465.638449 
L 180.218182 463.846912 
L 181.029504 463.36 
L 183.825455 461.439767 
L 186.565716 458.88 
L 187.432727 457.893677 
L 190.455362 454.4 
L 191.04 453.724258 
L 194.331357 449.92 
L 194.647273 449.523656 
L 198.20299 445.44 
L 198.254545 445.375088 
L 201.861818 441.07438 
L 201.961025 440.96 
L 205.469091 436.518096 
L 205.499077 436.48 
L 208.334385 432 
L 209.076364 430.492761 
L 210.424971 427.52 
L 212.039255 423.04 
L 212.683636 420.93332 
L 213.409582 418.56 
L 214.779922 414.08 
L 216.150247 409.6 
L 216.290909 409.107351 
L 217.178696 405.12 
L 217.60668 400.64 
L 217.854752 396.16 
L 218.039428 391.68 
L 217.848439 387.2 
L 216.963857 382.72 
L 216.290909 379.846104 
L 215.865927 378.24 
L 214.231295 373.76 
L 212.683636 370.067181 
L 212.353728 369.28 
L 210.476158 364.8 
L 209.076364 361.459979 
L 208.598601 360.32 
L 206.721031 355.84 
L 205.469091 352.852785 
L 204.843463 351.36 
L 202.965897 346.88 
L 201.861818 344.245608 
L 201.025497 342.4 
L 198.299029 337.92 
L 198.254545 337.856631 
L 194.647273 333.48087 
L 194.604111 333.44 
L 191.04 330.271252 
L 189.565148 328.96 
L 187.432727 327.064132 
L 184.181999 324.48 
L 183.825455 324.228086 
L 180.218182 322.17208 
L 176.610909 321.060425 
L 173.003636 320.157341 
L 172.189144 320 
L 169.396364 319.476258 
L 165.789091 318.79978 
L 162.181818 318.123307 
L 158.574545 317.446813 
L 154.967273 317.236774 
L 151.36 317.683736 
L 147.752727 319.260861 
L 146.447482 320 
L 144.145455 321.303604 
L 140.538182 323.346343 
L 138.536251 324.48 
L 136.930909 325.389076 
L 133.323636 327.987177 
L 131.998344 328.96 
L 129.716364 330.635077 
L 126.109091 333.282956 
L 125.895147 333.44 
L 122.501818 336.132709 
L 120.556664 337.92 
L 118.894545 339.493138 
L 115.823279 342.4 
L 115.287273 342.907312 
L 111.68 346.321482 
L 111.089894 346.88 
L 108.072727 349.735647 
L 106.356498 351.36 
L 104.465455 353.149817 
L 101.737421 355.84 
L 100.858182 356.809433 
L 98.159584 360.32 
L 97.250909 362.363586 
L 96.383988 364.8 
L 95.363969 369.28 
L 94.411066 373.76 
L 93.643636 377.680739 
L 93.544026 378.24 
L 92.939839 382.72 
L 92.461011 387.2 
L 92.087615 391.68 
L 91.714211 396.16 
L 91.340817 400.64 
L 91.051655 405.12 
L 91.133027 409.6 
L 91.42931 414.08 
L 91.725581 418.56 
L 92.118917 423.04 
L 93.362064 427.52 
L 93.643636 428.294943 
L 95.001851 432 
L 97.085909 436.48 
L 97.250909 436.741178 
L 100.316512 440.96 
L 100.858182 441.69836 
L 103.943921 445.44 
L 104.465455 445.998603 
L 108.072727 449.862273 
L 108.130605 449.92 
L 111.68 453.110203 
L 113.19863 454.4 
L 115.287273 456.173926 
L 118.473421 458.88 
L 118.894545 459.23767 
L 122.501818 462.301412 
L 123.748218 463.36 
L 126.109091 465.365132 
L 129.023013 467.84 
L 129.716364 468.428877 
L 133.323636 471.492594 
L 134.297828 472.32 
L 136.930909 474.556338 
L 139.992756 476.8 
z
" style="fill:#cd423b;"/>
   </g>
   <g id="matplotlib.axis_1">
    <g id="xtick_1">
     <g id="line2d_1">
      <defs>
       <path d="M 0 0 
L 0 3.5 
" id="m3804bf45a2" style="stroke:#000000;stroke-width:0.8;"/>
      </defs>
      <g>
       <use style="stroke:#000000;stroke-width:0.8;" x="72" xlink:href="#m3804bf45a2" y="512.64"/>
      </g>
     </g>
     <g id="text_1">
      <!-- −0.50 -->
      <defs>
       <path d="M 10.59375 35.5 
L 73.1875 35.5 
L 73.1875 27.203125 
L 10.59375 27.203125 
z
" id="DejaVuSans-8722"/>
       <path d="M 31.78125 66.40625 
Q 24.171875 66.40625 20.328125 58.90625 
Q 16.5 51.421875 16.5 36.375 
Q 16.5 21.390625 20.328125 13.890625 
Q 24.171875 6.390625 31.78125 6.390625 
Q 39.453125 6.390625 43.28125 13.890625 
Q 47.125 21.390625 47.125 36.375 
Q 47.125 51.421875 43.28125 58.90625 
Q 39.453125 66.40625 31.78125 66.40625 
z
M 31.78125 74.21875 
Q 44.046875 74.21875 50.515625 64.515625 
Q 56.984375 54.828125 56.984375 36.375 
Q 56.984375 17.96875 50.515625 8.265625 
Q 44.046875 -1.421875 31.78125 -1.421875 
Q 19.53125 -1.421875 13.0625 8.265625 
Q 6.59375 17.96875 6.59375 36.375 
Q 6.59375 54.828125 13.0625 64.515625 
Q 19.53125 74.21875 31.78125 74.21875 
z
" id="DejaVuSans-48"/>
       <path d="M 10.6875 12.40625 
L 21 12.40625 
L 21 0 
L 10.6875 0 
z
" id="DejaVuSans-46"/>
       <path d="M 10.796875 72.90625 
L 49.515625 72.90625 
L 49.515625 64.59375 
L 19.828125 64.59375 
L 19.828125 46.734375 
Q 21.96875 47.46875 24.109375 47.828125 
Q 26.265625 48.1875 28.421875 48.1875 
Q 40.625 48.1875 47.75 41.5 
Q 54.890625 34.8125 54.890625 23.390625 
Q 54.890625 11.625 47.5625 5.09375 
Q 40.234375 -1.421875 26.90625 -1.421875 
Q 22.3125 -1.421875 17.546875 -0.640625 
Q 12.796875 0.140625 7.71875 1.703125 
L 7.71875 11.625 
Q 12.109375 9.234375 16.796875 8.0625 
Q 21.484375 6.890625 26.703125 6.890625 
Q 35.15625 6.890625 40.078125 11.328125 
Q 45.015625 15.765625 45.015625 23.390625 
Q 45.015625 31 40.078125 35.4375 
Q 35.15625 39.890625 26.703125 39.890625 
Q 22.75 39.890625 18.8125 39.015625 
Q 14.890625 38.140625 10.796875 36.28125 
z
" id="DejaVuSans-53"/>
      </defs>
      <g transform="translate(56.677344 527.238438)scale(0.1 -0.1)">
       <use xlink:href="#DejaVuSans-8722"/>
       <use x="83.789062" xlink:href="#DejaVuSans-48"/>
       <use x="147.412109" xlink:href="#DejaVuSans-46"/>
       <use x="179.199219" xlink:href="#DejaVuSans-53"/>
       <use x="242.822266" xlink:href="#DejaVuSans-48"/>
      </g>
     </g>
    </g>
    <g id="xtick_2">
     <g id="line2d_2">
      <g>
       <use style="stroke:#000000;stroke-width:0.8;" x="116.64" xlink:href="#m3804bf45a2" y="512.64"/>
      </g>
     </g>
     <g id="text_2">
      <!-- −0.25 -->
      <defs>
       <path d="M 19.1875 8.296875 
L 53.609375 8.296875 
L 53.609375 0 
L 7.328125 0 
L 7.328125 8.296875 
Q 12.9375 14.109375 22.625 23.890625 
Q 32.328125 33.6875 34.8125 36.53125 
Q 39.546875 41.84375 41.421875 45.53125 
Q 43.3125 49.21875 43.3125 52.78125 
Q 43.3125 58.59375 39.234375 62.25 
Q 35.15625 65.921875 28.609375 65.921875 
Q 23.96875 65.921875 18.8125 64.3125 
Q 13.671875 62.703125 7.8125 59.421875 
L 7.8125 69.390625 
Q 13.765625 71.78125 18.9375 73 
Q 24.125 74.21875 28.421875 74.21875 
Q 39.75 74.21875 46.484375 68.546875 
Q 53.21875 62.890625 53.21875 53.421875 
Q 53.21875 48.921875 51.53125 44.890625 
Q 49.859375 40.875 45.40625 35.40625 
Q 44.1875 33.984375 37.640625 27.21875 
Q 31.109375 20.453125 19.1875 8.296875 
z
" id="DejaVuSans-50"/>
      </defs>
      <g transform="translate(101.317344 527.238438)scale(0.1 -0.1)">
       <use xlink:href="#DejaVuSans-8722"/>
       <use x="83.789062" xlink:href="#DejaVuSans-48"/>
       <use x="147.412109" xlink:href="#DejaVuSans-46"/>
       <use x="179.199219" xlink:href="#DejaVuSans-50"/>
       <use x="242.822266" xlink:href="#DejaVuSans-53"/>
      </g>
     </g>
    </g>
    <g id="xtick_3">
     <g id="line2d_3">
      <g>
       <use style="stroke:#000000;stroke-width:0.8;" x="161.28" xlink:href="#m3804bf45a2" y="512.64"/>
      </g>
     </g>
     <g id="text_3">
      <!-- 0.00 -->
      <g transform="translate(150.147188 527.238438)scale(0.1 -0.1)">
       <use xlink:href="#DejaVuSans-48"/>
       <use x="63.623047" xlink:href="#DejaVuSans-46"/>
       <use x="95.410156" xlink:href="#DejaVuSans-48"/>
       <use x="159.033203" xlink:href="#DejaVuSans-48"/>
      </g>
     </g>
    </g>
    <g id="xtick_4">
     <g id="line2d_4">
      <g>
       <use style="stroke:#000000;stroke-width:0.8;" x="205.92" xlink:href="#m3804bf45a2" y="512.64"/>
      </g>
     </g>
     <g id="text_4">
      <!-- 0.25 -->
      <g transform="translate(194.787188 527.238438)scale(0.1 -0.1)">
       <use xlink:href="#DejaVuSans-48"/>
       <use x="63.623047" xlink:href="#DejaVuSans-46"/>
       <use x="95.410156" xlink:href="#DejaVuSans-50"/>
       <use x="159.033203" xlink:href="#DejaVuSans-53"/>
      </g>
     </g>
    </g>
    <g id="xtick_5">
     <g id="line2d_5">
      <g>
       <use style="stroke:#000000;stroke-width:0.8;" x="250.56" xlink:href="#m3804bf45a2" y="512.64"/>
      </g>
     </g>
     <g id="text_5">
      <!-- 0.50 -->
      <g transform="translate(239.427188 527.238438)scale(0.1 -0.1)">
       <use xlink:href="#DejaVuSans-48"/>
       <use x="63.623047" xlink:href="#DejaVuSans-46"/>
       <use x="95.410156" xlink:href="#DejaVuSans-53"/>
       <use x="159.033203" xlink:href="#DejaVuSans-48"/>
      </g>
     </g>
    </g>
    <g id="xtick_6">
     <g id="line2d_6">
      <g>
       <use style="stroke:#000000;stroke-width:0.8;" x="295.2" xlink:href="#m3804bf45a2" y="512.64"/>
      </g>
     </g>
     <g id="text_6">
      <!-- 0.75 -->
      <defs>
       <path d="M 8.203125 72.90625 
L 55.078125 72.90625 
L 55.078125 68.703125 
L 28.609375 0 
L 18.3125 0 
L 43.21875 64.59375 
L 8.203125 64.59375 
z
" id="DejaVuSans-55"/>
      </defs>
      <g transform="translate(284.067188 527.238438)scale(0.1 -0.1)">
       <use xlink:href="#DejaVuSans-48"/>
       <use x="63.623047" xlink:href="#DejaVuSans-46"/>
       <use x="95.410156" xlink:href="#DejaVuSans-55"/>
       <use x="159.033203" xlink:href="#DejaVuSans-53"/>
      </g>
     </g>
    </g>
    <g id="xtick_7">
     <g id="line2d_7">
      <g>
       <use style="stroke:#000000;stroke-width:0.8;" x="339.84" xlink:href="#m3804bf45a2" y="512.64"/>
      </g>
     </g>
     <g id="text_7">
      <!-- 1.00 -->
      <defs>
       <path d="M 12.40625 8.296875 
L 28.515625 8.296875 
L 28.515625 63.921875 
L 10.984375 60.40625 
L 10.984375 69.390625 
L 28.421875 72.90625 
L 38.28125 72.90625 
L 38.28125 8.296875 
L 54.390625 8.296875 
L 54.390625 0 
L 12.40625 0 
z
" id="DejaVuSans-49"/>
      </defs>
      <g transform="translate(328.707188 527.238438)scale(0.1 -0.1)">
       <use xlink:href="#DejaVuSans-49"/>
       <use x="63.623047" xlink:href="#DejaVuSans-46"/>
       <use x="95.410156" xlink:href="#DejaVuSans-48"/>
       <use x="159.033203" xlink:href="#DejaVuSans-48"/>
      </g>
     </g>
    </g>
    <g id="xtick_8">
     <g id="line2d_8">
      <g>
       <use style="stroke:#000000;stroke-width:0.8;" x="384.48" xlink:href="#m3804bf45a2" y="512.64"/>
      </g>
     </g>
     <g id="text_8">
      <!-- 1.25 -->
      <g transform="translate(373.347188 527.238438)scale(0.1 -0.1)">
       <use xlink:href="#DejaVuSans-49"/>
       <use x="63.623047" xlink:href="#DejaVuSans-46"/>
       <use x="95.410156" xlink:href="#DejaVuSans-50"/>
       <use x="159.033203" xlink:href="#DejaVuSans-53"/>
      </g>
     </g>
    </g>
    <g id="xtick_9">
     <g id="line2d_9">
      <g>
       <use style="stroke:#000000;stroke-width:0.8;" x="429.12" xlink:href="#m3804bf45a2" y="512.64"/>
      </g>
     </g>
     <g id="text_9">
      <!-- 1.50 -->
      <g transform="translate(417.987188 527.238438)scale(0.1 -0.1)">
       <use xlink:href="#DejaVuSans-49"/>
       <use x="63.623047" xlink:href="#DejaVuSans-46"/>
       <use x="95.410156" xlink:href="#DejaVuSans-53"/>
       <use x="159.033203" xlink:href="#DejaVuSans-48"/>
      </g>
     </g>
    </g>
   </g>
   <g id="matplotlib.axis_2">
    <g id="ytick_1">
     <g id="line2d_10">
      <defs>
       <path d="M 0 0 
L -3.5 0 
" id="m592737e6ad" style="stroke:#000000;stroke-width:0.8;"/>
      </defs>
      <g>
       <use style="stroke:#000000;stroke-width:0.8;" x="72" xlink:href="#m592737e6ad" y="512.64"/>
      </g>
     </g>
     <g id="text_10">
      <!-- −0.50 -->
      <g transform="translate(34.354687 516.439219)scale(0.1 -0.1)">
       <use xlink:href="#DejaVuSans-8722"/>
       <use x="83.789062" xlink:href="#DejaVuSans-48"/>
       <use x="147.412109" xlink:href="#DejaVuSans-46"/>
       <use x="179.199219" xlink:href="#DejaVuSans-53"/>
       <use x="242.822266" xlink:href="#DejaVuSans-48"/>
      </g>
     </g>
    </g>
    <g id="ytick_2">
     <g id="line2d_11">
      <g>
       <use style="stroke:#000000;stroke-width:0.8;" x="72" xlink:href="#m592737e6ad" y="457.2"/>
      </g>
     </g>
     <g id="text_11">
      <!-- −0.25 -->
      <g transform="translate(34.354687 460.999219)scale(0.1 -0.1)">
       <use xlink:href="#DejaVuSans-8722"/>
       <use x="83.789062" xlink:href="#DejaVuSans-48"/>
       <use x="147.412109" xlink:href="#DejaVuSans-46"/>
       <use x="179.199219" xlink:href="#DejaVuSans-50"/>
       <use x="242.822266" xlink:href="#DejaVuSans-53"/>
      </g>
     </g>
    </g>
    <g id="ytick_3">
     <g id="line2d_12">
      <g>
       <use style="stroke:#000000;stroke-width:0.8;" x="72" xlink:href="#m592737e6ad" y="401.76"/>
      </g>
     </g>
     <g id="text_12">
      <!-- 0.00 -->
      <g transform="translate(42.734375 405.559219)scale(0.1 -0.1)">
       <use xlink:href="#DejaVuSans-48"/>
       <use x="63.623047" xlink:href="#DejaVuSans-46"/>
       <use x="95.410156" xlink:href="#DejaVuSans-48"/>
       <use x="159.033203" xlink:href="#DejaVuSans-48"/>
      </g>
     </g>
    </g>
    <g id="ytick_4">
     <g id="line2d_13">
      <g>
       <use style="stroke:#000000;stroke-width:0.8;" x="72" xlink:href="#m592737e6ad" y="346.32"/>
      </g>
     </g>
     <g id="text_13">
      <!-- 0.25 -->
      <g transform="translate(42.734375 350.119219)scale(0.1 -0.1)">
       <use xlink:href="#DejaVuSans-48"/>
       <use x="63.623047" xlink:href="#DejaVuSans-46"/>
       <use x="95.410156" xlink:href="#DejaVuSans-50"/>
       <use x="159.033203" xlink:href="#DejaVuSans-53"/>
      </g>
     </g>
    </g>
    <g id="ytick_5">
     <g id="line2d_14">
      <g>
       <use style="stroke:#000000;stroke-width:0.8;" x="72" xlink:href="#m592737e6ad" y="290.88"/>
      </g>
     </g>
     <g id="text_14">
      <!-- 0.50 -->
      <g transform="translate(42.734375 294.679219)scale(0.1 -0.1)">
       <use xlink:href="#DejaVuSans-48"/>
       <use x="63.623047" xlink:href="#DejaVuSans-46"/>
       <use x="95.410156" xlink:href="#DejaVuSans-53"/>
       <use x="159.033203" xlink:href="#DejaVuSans-48"/>
      </g>
     </g>
    </g>
    <g id="ytick_6">
     <g id="line2d_15">
      <g>
       <use style="stroke:#000000;stroke-width:0.8;" x="72" xlink:href="#m592737e6ad" y="235.44"/>
      </g>
     </g>
     <g id="text_15">
      <!-- 0.75 -->
      <g transform="translate(42.734375 239.239219)scale(0.1 -0.1)">
       <use xlink:href="#DejaVuSans-48"/>
       <use x="63.623047" xlink:href="#DejaVuSans-46"/>
       <use x="95.410156" xlink:href="#DejaVuSans-55"/>
       <use x="159.033203" xlink:href="#DejaVuSans-53"/>
      </g>
     </g>
    </g>
    <g id="ytick_7">
     <g id="line2d_16">
      <g>
       <use style="stroke:#000000;stroke-width:0.8;" x="72" xlink:href="#m592737e6ad" y="180"/>
      </g>
     </g>
     <g id="text_16">
      <!-- 1.00 -->
      <g transform="translate(42.734375 183.799219)scale(0.1 -0.1)">
       <use xlink:href="#DejaVuSans-49"/>
       <use x="63.623047" xlink:href="#DejaVuSans-46"/>
       <use x="95.410156" xlink:href="#DejaVuSans-48"/>
       <use x="159.033203" xlink:href="#DejaVuSans-48"/>
      </g>
     </g>
    </g>
    <g id="ytick_8">
     <g id="line2d_17">
      <g>
       <use style="stroke:#000000;stroke-width:0.8;" x="72" xlink:href="#m592737e6ad" y="124.56"/>
      </g>
     </g>
     <g id="text_17">
      <!-- 1.25 -->
      <g transform="translate(42.734375 128.359219)scale(0.1 -0.1)">
       <use xlink:href="#DejaVuSans-49"/>
       <use x="63.623047" xlink:href="#DejaVuSans-46"/>
       <use x="95.410156" xlink:href="#DejaVuSans-50"/>
       <use x="159.033203" xlink:href="#DejaVuSans-53"/>
      </g>
     </g>
    </g>
    <g id="ytick_9">
     <g id="line2d_18">
      <g>
       <use style="stroke:#000000;stroke-width:0.8;" x="72" xlink:href="#m592737e6ad" y="69.12"/>
      </g>
     </g>
     <g id="text_18">
      <!-- 1.50 -->
      <g transform="translate(42.734375 72.919219)scale(0.1 -0.1)">
       <use xlink:href="#DejaVuSans-49"/>
       <use x="63.623047" xlink:href="#DejaVuSans-46"/>
       <use x="95.410156" xlink:href="#DejaVuSans-53"/>
       <use x="159.033203" xlink:href="#DejaVuSans-48"/>
      </g>
     </g>
    </g>
   </g>
   <g id="patch_3">
    <path d="M 72 512.64 
L 72 69.12 
" style="fill:none;stroke:#000000;stroke-linecap:square;stroke-linejoin:miter;stroke-width:0.8;"/>
   </g>
   <g id="patch_4">
    <path d="M 429.12 512.64 
L 429.12 69.12 
" style="fill:none;stroke:#000000;stroke-linecap:square;stroke-linejoin:miter;stroke-width:0.8;"/>
   </g>
   <g id="patch_5">
    <path d="M 72 512.64 
L 429.12 512.64 
" style="fill:none;stroke:#000000;stroke-linecap:square;stroke-linejoin:miter;stroke-width:0.8;"/>
   </g>
   <g id="patch_6">
    <path d="M 72 69.12 
L 429.12 69.12 
" style="fill:none;stroke:#000000;stroke-linecap:square;stroke-linejoin:miter;stroke-width:0.8;"/>
   </g>
  </g>
  <g id="axes_2">
   <g id="patch_7">
    <path clip-path="url(#pd5566dcdda)" d="M 451.44 512.64 
L 451.44 449.28 
L 451.44 132.48 
L 451.44 69.12 
L 473.616 69.12 
L 473.616 132.48 
L 473.616 449.28 
L 473.616 512.64 
z
" style="fill:#ffffff;stroke:#ffffff;stroke-linejoin:miter;stroke-width:0.01;"/>
   </g>
   <g id="QuadMesh_1">
    <path clip-path="url(#pd5566dcdda)" d="M 451.44 512.64 
L 473.616 512.64 
L 473.616 449.28 
L 451.44 449.28 
L 451.44 512.64 
" style="fill:#506bda;"/>
    <path clip-path="url(#pd5566dcdda)" d="M 451.44 449.28 
L 473.616 449.28 
L 473.616 385.92 
L 451.44 385.92 
L 451.44 449.28 
" style="fill:#80a3fa;"/>
    <path clip-path="url(#pd5566dcdda)" d="M 451.44 385.92 
L 473.616 385.92 
L 473.616 322.56 
L 451.44 322.56 
L 451.44 385.92 
" style="fill:#b2ccfb;"/>
    <path clip-path="url(#pd5566dcdda)" d="M 451.44 322.56 
L 473.616 322.56 
L 473.616 259.2 
L 451.44 259.2 
L 451.44 322.56 
" style="fill:#dddcdc;"/>
    <path clip-path="url(#pd5566dcdda)" d="M 451.44 259.2 
L 473.616 259.2 
L 473.616 195.84 
L 451.44 195.84 
L 451.44 259.2 
" style="fill:#f6bfa6;"/>
    <path clip-path="url(#pd5566dcdda)" d="M 451.44 195.84 
L 473.616 195.84 
L 473.616 132.48 
L 451.44 132.48 
L 451.44 195.84 
" style="fill:#f08a6c;"/>
    <path clip-path="url(#pd5566dcdda)" d="M 451.44 132.48 
L 473.616 132.48 
L 473.616 69.12 
L 451.44 69.12 
L 451.44 132.48 
" style="fill:#cd423b;"/>
   </g>
   <g id="matplotlib.axis_3"/>
   <g id="matplotlib.axis_4">
    <g id="ytick_10">
     <g id="line2d_19">
      <defs>
       <path d="M 0 0 
L 3.5 0 
" id="m2016c8c1d2" style="stroke:#000000;stroke-width:0.8;"/>
      </defs>
      <g>
       <use style="stroke:#000000;stroke-width:0.8;" x="473.616" xlink:href="#m2016c8c1d2" y="512.64"/>
      </g>
     </g>
     <g id="text_19">
      <!-- −32 -->
      <defs>
       <path d="M 40.578125 39.3125 
Q 47.65625 37.796875 51.625 33 
Q 55.609375 28.21875 55.609375 21.1875 
Q 55.609375 10.40625 48.1875 4.484375 
Q 40.765625 -1.421875 27.09375 -1.421875 
Q 22.515625 -1.421875 17.65625 -0.515625 
Q 12.796875 0.390625 7.625 2.203125 
L 7.625 11.71875 
Q 11.71875 9.328125 16.59375 8.109375 
Q 21.484375 6.890625 26.8125 6.890625 
Q 36.078125 6.890625 40.9375 10.546875 
Q 45.796875 14.203125 45.796875 21.1875 
Q 45.796875 27.640625 41.28125 31.265625 
Q 36.765625 34.90625 28.71875 34.90625 
L 20.21875 34.90625 
L 20.21875 43.015625 
L 29.109375 43.015625 
Q 36.375 43.015625 40.234375 45.921875 
Q 44.09375 48.828125 44.09375 54.296875 
Q 44.09375 59.90625 40.109375 62.90625 
Q 36.140625 65.921875 28.71875 65.921875 
Q 24.65625 65.921875 20.015625 65.03125 
Q 15.375 64.15625 9.8125 62.3125 
L 9.8125 71.09375 
Q 15.4375 72.65625 20.34375 73.4375 
Q 25.25 74.21875 29.59375 74.21875 
Q 40.828125 74.21875 47.359375 69.109375 
Q 53.90625 64.015625 53.90625 55.328125 
Q 53.90625 49.265625 50.4375 45.09375 
Q 46.96875 40.921875 40.578125 39.3125 
z
" id="DejaVuSans-51"/>
      </defs>
      <g transform="translate(480.616 516.439219)scale(0.1 -0.1)">
       <use xlink:href="#DejaVuSans-8722"/>
       <use x="83.789062" xlink:href="#DejaVuSans-51"/>
       <use x="147.412109" xlink:href="#DejaVuSans-50"/>
      </g>
     </g>
    </g>
    <g id="ytick_11">
     <g id="line2d_20">
      <g>
       <use style="stroke:#000000;stroke-width:0.8;" x="473.616" xlink:href="#m2016c8c1d2" y="449.28"/>
      </g>
     </g>
     <g id="text_20">
      <!-- −24 -->
      <defs>
       <path d="M 37.796875 64.3125 
L 12.890625 25.390625 
L 37.796875 25.390625 
z
M 35.203125 72.90625 
L 47.609375 72.90625 
L 47.609375 25.390625 
L 58.015625 25.390625 
L 58.015625 17.1875 
L 47.609375 17.1875 
L 47.609375 0 
L 37.796875 0 
L 37.796875 17.1875 
L 4.890625 17.1875 
L 4.890625 26.703125 
z
" id="DejaVuSans-52"/>
      </defs>
      <g transform="translate(480.616 453.079219)scale(0.1 -0.1)">
       <use xlink:href="#DejaVuSans-8722"/>
       <use x="83.789062" xlink:href="#DejaVuSans-50"/>
       <use x="147.412109" xlink:href="#DejaVuSans-52"/>
      </g>
     </g>
    </g>
    <g id="ytick_12">
     <g id="line2d_21">
      <g>
       <use style="stroke:#000000;stroke-width:0.8;" x="473.616" xlink:href="#m2016c8c1d2" y="385.92"/>
      </g>
     </g>
     <g id="text_21">
      <!-- −16 -->
      <defs>
       <path d="M 33.015625 40.375 
Q 26.375 40.375 22.484375 35.828125 
Q 18.609375 31.296875 18.609375 23.390625 
Q 18.609375 15.53125 22.484375 10.953125 
Q 26.375 6.390625 33.015625 6.390625 
Q 39.65625 6.390625 43.53125 10.953125 
Q 47.40625 15.53125 47.40625 23.390625 
Q 47.40625 31.296875 43.53125 35.828125 
Q 39.65625 40.375 33.015625 40.375 
z
M 52.59375 71.296875 
L 52.59375 62.3125 
Q 48.875 64.0625 45.09375 64.984375 
Q 41.3125 65.921875 37.59375 65.921875 
Q 27.828125 65.921875 22.671875 59.328125 
Q 17.53125 52.734375 16.796875 39.40625 
Q 19.671875 43.65625 24.015625 45.921875 
Q 28.375 48.1875 33.59375 48.1875 
Q 44.578125 48.1875 50.953125 41.515625 
Q 57.328125 34.859375 57.328125 23.390625 
Q 57.328125 12.15625 50.6875 5.359375 
Q 44.046875 -1.421875 33.015625 -1.421875 
Q 20.359375 -1.421875 13.671875 8.265625 
Q 6.984375 17.96875 6.984375 36.375 
Q 6.984375 53.65625 15.1875 63.9375 
Q 23.390625 74.21875 37.203125 74.21875 
Q 40.921875 74.21875 44.703125 73.484375 
Q 48.484375 72.75 52.59375 71.296875 
z
" id="DejaVuSans-54"/>
      </defs>
      <g transform="translate(480.616 389.719219)scale(0.1 -0.1)">
       <use xlink:href="#DejaVuSans-8722"/>
       <use x="83.789062" xlink:href="#DejaVuSans-49"/>
       <use x="147.412109" xlink:href="#DejaVuSans-54"/>
      </g>
     </g>
    </g>
    <g id="ytick_13">
     <g id="line2d_22">
      <g>
       <use style="stroke:#000000;stroke-width:0.8;" x="473.616" xlink:href="#m2016c8c1d2" y="322.56"/>
      </g>
     </g>
     <g id="text_22">
      <!-- −8 -->
      <defs>
       <path d="M 31.78125 34.625 
Q 24.75 34.625 20.71875 30.859375 
Q 16.703125 27.09375 16.703125 20.515625 
Q 16.703125 13.921875 20.71875 10.15625 
Q 24.75 6.390625 31.78125 6.390625 
Q 38.8125 6.390625 42.859375 10.171875 
Q 46.921875 13.96875 46.921875 20.515625 
Q 46.921875 27.09375 42.890625 30.859375 
Q 38.875 34.625 31.78125 34.625 
z
M 21.921875 38.8125 
Q 15.578125 40.375 12.03125 44.71875 
Q 8.5 49.078125 8.5 55.328125 
Q 8.5 64.0625 14.71875 69.140625 
Q 20.953125 74.21875 31.78125 74.21875 
Q 42.671875 74.21875 48.875 69.140625 
Q 55.078125 64.0625 55.078125 55.328125 
Q 55.078125 49.078125 51.53125 44.71875 
Q 48 40.375 41.703125 38.8125 
Q 48.828125 37.15625 52.796875 32.3125 
Q 56.78125 27.484375 56.78125 20.515625 
Q 56.78125 9.90625 50.3125 4.234375 
Q 43.84375 -1.421875 31.78125 -1.421875 
Q 19.734375 -1.421875 13.25 4.234375 
Q 6.78125 9.90625 6.78125 20.515625 
Q 6.78125 27.484375 10.78125 32.3125 
Q 14.796875 37.15625 21.921875 38.8125 
z
M 18.3125 54.390625 
Q 18.3125 48.734375 21.84375 45.5625 
Q 25.390625 42.390625 31.78125 42.390625 
Q 38.140625 42.390625 41.71875 45.5625 
Q 45.3125 48.734375 45.3125 54.390625 
Q 45.3125 60.0625 41.71875 63.234375 
Q 38.140625 66.40625 31.78125 66.40625 
Q 25.390625 66.40625 21.84375 63.234375 
Q 18.3125 60.0625 18.3125 54.390625 
z
" id="DejaVuSans-56"/>
      </defs>
      <g transform="translate(480.616 326.359219)scale(0.1 -0.1)">
       <use xlink:href="#DejaVuSans-8722"/>
       <use x="83.789062" xlink:href="#DejaVuSans-56"/>
      </g>
     </g>
    </g>
    <g id="ytick_14">
     <g id="line2d_23">
      <g>
       <use style="stroke:#000000;stroke-width:0.8;" x="473.616" xlink:href="#m2016c8c1d2" y="259.2"/>
      </g>
     </g>
     <g id="text_23">
      <!-- 0 -->
      <g transform="translate(480.616 262.999219)scale(0.1 -0.1)">
       <use xlink:href="#DejaVuSans-48"/>
      </g>
     </g>
    </g>
    <g id="ytick_15">
     <g id="line2d_24">
      <g>
       <use style="stroke:#000000;stroke-width:0.8;" x="473.616" xlink:href="#m2016c8c1d2" y="195.84"/>
      </g>
     </g>
     <g id="text_24">
      <!-- 8 -->
      <g transform="translate(480.616 199.639219)scale(0.1 -0.1)">
       <use xlink:href="#DejaVuSans-56"/>
      </g>
     </g>
    </g>
    <g id="ytick_16">
     <g id="line2d_25">
      <g>
       <use style="stroke:#000000;stroke-width:0.8;" x="473.616" xlink:href="#m2016c8c1d2" y="132.48"/>
      </g>
     </g>
     <g id="text_25">
      <!-- 16 -->
      <g transform="translate(480.616 136.279219)scale(0.1 -0.1)">
       <use xlink:href="#DejaVuSans-49"/>
       <use x="63.623047" xlink:href="#DejaVuSans-54"/>
      </g>
     </g>
    </g>
    <g id="ytick_17">
     <g id="line2d_26">
      <g>
       <use style="stroke:#000000;stroke-width:0.8;" x="473.616" xlink:href="#m2016c8c1d2" y="69.12"/>
      </g>
     </g>
     <g id="text_26">
      <!-- 24 -->
      <g transform="translate(480.616 72.919219)scale(0.1 -0.1)">
       <use xlink:href="#DejaVuSans-50"/>
       <use x="63.623047" xlink:href="#DejaVuSans-52"/>
      </g>
     </g>
    </g>
   </g>
   <g id="patch_8">
    <path d="M 451.44 512.64 
L 451.44 449.28 
L 451.44 132.48 
L 451.44 69.12 
L 473.616 69.12 
L 473.616 132.48 
L 473.616 449.28 
L 473.616 512.64 
z
" style="fill:none;stroke:#000000;stroke-linejoin:miter;stroke-width:0.8;"/>
   </g>
  </g>
 </g>
 <defs>
  <clipPath id="pd009e7eb6b">
   <rect height="443.52" width="357.12" x="72" y="69.12"/>
  </clipPath>
  <clipPath id="pd5566dcdda">
   <rect height="443.52" width="22.176" x="451.44" y="69.12"/>
  </clipPath>
 </defs>
</svg>
