<?xml version="1.0" encoding="utf-8" standalone="no"?>
<!DOCTYPE svg PUBLIC "-//W3C//DTD SVG 1.1//EN"
  "http://www.w3.org/Graphics/SVG/1.1/DTD/svg11.dtd">
<!-- Created with matplotlib (http://matplotlib.org/) -->
<svg height="576pt" version="1.1" viewBox="0 0 576 576" width="576pt" xmlns="http://www.w3.org/2000/svg" xmlns:xlink="http://www.w3.org/1999/xlink">
 <defs>
  <style type="text/css">
*{stroke-linecap:butt;stroke-linejoin:round;}
  </style>
 </defs>
 <g id="figure_1">
  <g id="patch_1">
   <path d="M 0 576 
L 576 576 
L 576 0 
L 0 0 
z
" style="fill:#ffffff;"/>
  </g>
  <g id="axes_1">
   <g id="patch_2">
    <path d="M 72 512.64 
L 518.4 512.64 
L 518.4 69.12 
L 72 69.12 
z
" style="fill:#ffffff;"/>
   </g>
   <g id="PathCollection_1">
    <path clip-path="url(#pfbce9d795e)" d="M 337.76 423.148686 
L 342.24 425.249969 
L 346.72 426.937981 
L 351.2 424.944586 
L 355.198024 423.04 
L 355.68 422.810401 
L 360.16 420.676363 
L 364.602724 418.56 
L 364.64 418.542243 
L 369.12 416.408119 
L 373.6 414.274007 
L 374.007259 414.08 
L 378.08 412.139889 
L 382.56 410.005765 
L 383.411788 409.6 
L 387.04 407.621865 
L 389.056899 405.12 
L 389.317398 400.64 
L 389.577919 396.16 
L 389.838429 391.68 
L 390.098943 387.2 
L 390.359441 382.72 
L 390.619952 378.24 
L 390.880461 373.76 
L 391.140997 369.28 
L 391.40152 364.8 
L 391.52 362.449989 
L 391.628223 360.32 
L 391.52 358.901032 
L 391.254949 355.84 
L 390.867044 351.36 
L 390.479154 346.88 
L 390.091253 342.4 
L 389.703368 337.92 
L 389.315488 333.44 
L 388.92756 328.96 
L 388.524999 324.48 
L 387.04 320.702249 
L 385.29783 320 
L 382.56 318.968615 
L 378.08 317.280988 
L 373.6 315.593232 
L 373.405601 315.52 
L 369.12 313.905654 
L 364.64 312.218026 
L 361.513009 311.04 
L 360.16 310.530295 
L 355.68 308.842696 
L 351.2 307.155086 
L 349.620311 306.56 
L 346.72 305.46738 
L 342.24 303.779786 
L 337.76 302.092056 
L 337.727995 302.08 
L 333.28 300.404396 
L 328.8 298.716783 
L 325.835471 297.6 
L 324.32 297.029106 
L 319.84 295.341418 
L 315.36 293.653827 
L 313.942928 293.12 
L 310.88 291.966161 
L 306.4 290.278487 
L 302.0506 288.64 
L 301.92 288.590802 
L 297.44 286.903136 
L 292.96 285.215519 
L 290.158063 284.16 
L 288.48 283.527861 
L 284 281.840258 
L 279.52 280.152582 
L 278.265484 279.68 
L 275.04 278.464953 
L 270.56 276.777264 
L 266.372948 275.2 
L 266.08 275.079724 
L 261.716247 270.72 
L 261.6 270.546798 
L 259.228835 266.24 
L 258.18873 261.76 
L 257.577953 257.28 
L 257.12 253.920801 
L 256.967205 252.8 
L 256.356506 248.32 
L 255.745709 243.84 
L 255.134981 239.36 
L 254.524238 234.88 
L 253.913456 230.4 
L 253.346993 225.92 
L 254.450909 221.44 
L 255.845769 216.96 
L 257.12 213.695239 
L 257.571052 212.48 
L 259.755083 208 
L 261.6 204.215491 
L 261.93905 203.52 
L 264.123076 199.04 
L 266.08 195.025875 
L 266.307123 194.56 
L 269.174357 190.08 
L 270.56 188.482188 
L 273.059468 185.6 
L 275.04 183.316186 
L 276.944566 181.12 
L 279.52 178.539035 
L 284 176.818536 
L 284.8398 176.64 
L 288.48 176.022455 
L 292.96 175.262441 
L 297.44 174.50242 
L 301.92 173.742394 
L 306.4 172.982394 
L 310.88 172.222369 
L 311.247654 172.16 
L 315.36 171.462367 
L 319.84 170.702337 
L 324.32 169.942313 
L 328.8 169.182298 
L 333.28 168.422277 
L 337.655459 167.68 
L 337.76 167.662265 
L 342.24 167.180812 
L 346.72 167.339805 
L 349.06038 167.68 
L 351.2 168.016527 
L 355.68 168.721142 
L 360.16 169.425767 
L 364.64 170.130385 
L 369.12 170.871898 
L 373.6 171.650434 
L 376.452628 172.16 
L 378.08 172.51111 
L 382.56 173.758926 
L 387.04 175.404684 
L 390.402661 176.64 
L 391.52 177.072065 
L 396 178.909841 
L 400.48 180.935714 
L 400.865959 181.12 
L 404.96 183.155235 
L 409.44 185.382324 
L 409.877873 185.6 
L 413.92 187.609426 
L 418.4 189.836478 
L 418.889862 190.08 
L 422.88 192.063601 
L 427.36 194.290678 
L 427.901764 194.56 
L 431.84 196.517767 
L 436.32 198.67187 
L 440.8 196.689303 
L 445.172399 194.56 
L 445.28 194.5076 
L 449.76 192.326011 
L 454.24 190.144424 
L 454.372294 190.08 
L 458.72 187.962822 
L 463.2 185.781235 
L 463.572162 185.6 
L 467.68 183.599562 
L 472.16 181.417942 
L 472.771829 181.12 
L 476.64 179.23629 
L 481.12 177.054675 
L 481.971552 176.64 
L 485.6 174.873087 
L 490.08 172.691464 
L 491.171369 172.16 
L 494.56 170.509832 
L 499.04 168.328127 
L 500.371012 167.68 
L 503.52 166.146628 
L 508 163.964907 
L 509.570823 163.2 
L 512.48 161.783382 
L 516.96 159.601746 
L 516.96 158.72 
L 516.96 154.24 
L 516.96 149.76 
L 516.96 145.28 
L 516.96 140.8 
L 516.96 136.32 
L 516.96 131.84 
L 516.96 127.36 
L 516.96 122.88 
L 516.96 118.4 
L 516.96 113.92 
L 516.96 109.44 
L 516.96 104.96 
L 516.96 100.48 
L 516.96 96 
L 516.96 91.52 
L 516.96 87.04 
L 516.96 82.56 
L 516.96 78.08 
L 516.96 73.6 
L 516.96 69.12 
L 512.48 69.12 
L 508 69.12 
L 503.52 69.12 
L 499.04 69.12 
L 494.56 69.12 
L 490.08 69.12 
L 485.6 69.12 
L 481.12 69.12 
L 476.64 69.12 
L 472.16 69.12 
L 467.68 69.12 
L 463.2 69.12 
L 458.72 69.12 
L 454.24 69.12 
L 449.76 69.12 
L 445.28 69.12 
L 440.8 69.12 
L 436.32 69.12 
L 431.84 69.12 
L 427.36 69.12 
L 422.88 69.12 
L 418.4 69.12 
L 413.92 69.12 
L 409.44 69.12 
L 404.96 69.12 
L 400.48 69.12 
L 396 69.12 
L 391.52 69.12 
L 387.04 69.12 
L 382.56 69.12 
L 378.08 69.12 
L 373.6 69.12 
L 369.12 69.12 
L 364.64 69.12 
L 360.16 69.12 
L 355.68 69.12 
L 351.2 69.12 
L 346.72 69.12 
L 342.24 69.12 
L 337.76 69.12 
L 333.28 69.12 
L 328.8 69.12 
L 324.32 69.12 
L 319.84 69.12 
L 315.36 69.12 
L 310.88 69.12 
L 306.4 69.12 
L 301.92 69.12 
L 297.44 69.12 
L 292.96 69.12 
L 288.48 69.12 
L 284 69.12 
L 279.52 69.12 
L 275.04 69.12 
L 270.56 69.12 
L 266.08 69.12 
L 261.6 69.12 
L 257.12 69.12 
L 252.64 69.12 
L 248.16 69.12 
L 243.68 69.12 
L 239.2 69.12 
L 234.72 69.12 
L 230.24 69.12 
L 225.76 69.12 
L 221.28 69.12 
L 216.8 69.12 
L 212.32 69.12 
L 207.84 69.12 
L 203.36 69.12 
L 198.88 69.12 
L 194.4 69.12 
L 189.92 69.12 
L 185.44 69.12 
L 180.96 69.12 
L 176.48 69.12 
L 172 69.12 
L 167.52 69.12 
L 163.04 69.12 
L 158.56 69.12 
L 154.08 69.12 
L 149.6 69.12 
L 145.12 69.12 
L 140.64 69.12 
L 136.16 69.12 
L 131.68 69.12 
L 127.2 69.12 
L 122.72 69.12 
L 118.24 69.12 
L 113.76 69.12 
L 109.28 69.12 
L 104.8 69.12 
L 100.32 69.12 
L 95.84 69.12 
L 91.36 69.12 
L 86.88 69.12 
L 82.4 69.12 
L 77.92 69.12 
L 73.44 69.12 
L 73.44 73.6 
L 73.44 78.08 
L 73.44 82.56 
L 73.44 87.04 
L 73.44 91.52 
L 73.44 96 
L 73.44 100.48 
L 73.44 104.96 
L 73.44 109.44 
L 73.44 113.92 
L 73.44 118.4 
L 73.44 122.88 
L 73.44 127.36 
L 73.44 131.84 
L 73.44 136.32 
L 73.44 140.8 
L 73.44 145.28 
L 73.44 149.76 
L 73.44 154.24 
L 73.44 158.72 
L 73.44 163.2 
L 73.44 167.68 
L 73.44 172.16 
L 73.44 176.64 
L 73.44 181.12 
L 73.44 185.6 
L 73.44 190.08 
L 73.44 194.56 
L 73.44 199.04 
L 73.44 203.52 
L 73.44 208 
L 73.44 212.48 
L 73.44 216.96 
L 73.44 221.44 
L 73.44 225.92 
L 73.44 230.4 
L 73.44 234.88 
L 73.44 239.36 
L 73.44 243.84 
L 73.44 248.32 
L 73.44 252.8 
L 73.44 257.28 
L 73.44 261.76 
L 73.44 266.24 
L 73.44 267.043155 
L 77.92 268.004809 
L 82.4 268.966446 
L 86.88 269.928096 
L 90.569246 270.72 
L 91.36 270.889736 
L 95.84 271.851392 
L 100.32 272.813034 
L 104.8 273.77468 
L 109.28 274.736306 
L 111.392287 275.2 
L 113.76 275.727752 
L 118.24 276.805401 
L 122.72 277.931346 
L 127.2 279.343166 
L 128.075733 279.68 
L 131.68 281.342449 
L 136.16 283.585033 
L 137.279535 284.16 
L 140.64 285.929293 
L 145.12 288.288028 
L 145.78851 288.64 
L 149.6 290.64676 
L 154.08 293.005492 
L 154.297487 293.12 
L 158.56 295.364249 
L 162.806414 297.6 
L 163.04 297.722984 
L 167.52 300.081747 
L 171.315316 302.08 
L 172 302.440488 
L 176.48 304.799207 
L 179.824328 306.56 
L 180.96 307.157936 
L 185.44 309.516673 
L 188.333264 311.04 
L 189.92 311.875417 
L 194.4 314.234152 
L 196.842251 315.52 
L 198.88 316.592876 
L 203.36 318.951625 
L 205.351209 320 
L 207.84 321.310347 
L 212.32 324.445502 
L 212.380029 324.48 
L 216.8 327.578743 
L 220.722831 328.96 
L 221.28 329.156184 
L 225.76 331.431234 
L 228.130072 333.44 
L 230.24 335.228285 
L 233.415808 337.92 
L 234.72 339.025384 
L 238.70162 342.4 
L 239.2 342.822409 
L 243.68 346.619446 
L 243.987415 346.88 
L 248.16 350.416474 
L 249.273224 351.36 
L 252.64 354.213558 
L 254.558997 355.84 
L 257.12 358.010579 
L 259.844809 360.32 
L 261.6 361.80759 
L 265.130615 364.8 
L 266.08 365.604684 
L 270.41635 369.28 
L 270.56 369.40175 
L 275.04 373.198767 
L 275.702172 373.76 
L 279.52 376.995869 
L 280.987912 378.24 
L 284 380.79289 
L 286.273747 382.72 
L 288.48 384.58991 
L 291.559548 387.2 
L 292.96 388.386962 
L 296.845344 391.68 
L 297.44 392.183995 
L 301.92 395.981019 
L 302.131172 396.16 
L 306.4 399.778088 
L 307.416951 400.64 
L 310.88 403.57508 
L 312.702815 405.12 
L 315.36 407.372155 
L 317.988489 409.6 
L 319.84 411.169267 
L 323.274358 414.08 
L 324.32 414.966223 
L 328.560174 418.56 
L 328.8 418.728763 
L 333.28 421.047379 
L 337.528276 423.04 
z
" style="fill:#8db0fe;"/>
   </g>
   <g id="PathCollection_2">
    <path clip-path="url(#pfbce9d795e)" d="M 77.92 512.64 
L 82.4 512.64 
L 86.88 512.64 
L 91.36 512.64 
L 95.84 512.64 
L 100.32 512.64 
L 104.8 512.64 
L 109.28 512.64 
L 113.76 512.64 
L 118.24 512.64 
L 122.72 512.64 
L 127.2 512.64 
L 131.68 512.64 
L 136.16 512.64 
L 140.64 512.64 
L 145.12 512.64 
L 149.6 512.64 
L 154.08 512.64 
L 158.56 512.64 
L 163.04 512.64 
L 167.52 512.64 
L 172 512.64 
L 176.48 512.64 
L 180.96 512.64 
L 185.44 512.64 
L 189.92 512.64 
L 194.4 512.64 
L 198.88 512.64 
L 203.36 512.64 
L 207.84 512.64 
L 212.32 512.64 
L 216.8 512.64 
L 221.28 512.64 
L 225.76 512.64 
L 230.24 512.64 
L 234.72 512.64 
L 239.2 512.64 
L 243.68 512.64 
L 248.16 512.64 
L 252.64 512.64 
L 257.12 512.64 
L 261.6 512.64 
L 266.08 512.64 
L 270.56 512.64 
L 275.04 512.64 
L 279.52 512.64 
L 284 512.64 
L 288.48 512.64 
L 292.96 512.64 
L 297.44 512.64 
L 301.92 512.64 
L 306.4 512.64 
L 310.88 512.64 
L 315.36 512.64 
L 319.84 512.64 
L 324.32 512.64 
L 328.8 512.64 
L 333.28 512.64 
L 337.76 512.64 
L 342.24 512.64 
L 346.72 512.64 
L 351.2 512.64 
L 355.68 512.64 
L 360.16 512.64 
L 364.64 512.64 
L 369.12 512.64 
L 373.6 512.64 
L 378.08 512.64 
L 382.56 512.64 
L 387.04 512.64 
L 391.52 512.64 
L 396 512.64 
L 400.48 512.64 
L 404.96 512.64 
L 409.44 512.64 
L 413.92 512.64 
L 418.4 512.64 
L 422.88 512.64 
L 427.36 512.64 
L 431.84 512.64 
L 436.32 512.64 
L 440.8 512.64 
L 445.28 512.64 
L 449.76 512.64 
L 454.24 512.64 
L 458.72 512.64 
L 463.2 512.64 
L 467.68 512.64 
L 472.16 512.64 
L 476.64 512.64 
L 481.12 512.64 
L 485.6 512.64 
L 490.08 512.64 
L 494.56 512.64 
L 499.04 512.64 
L 503.52 512.64 
L 508 512.64 
L 512.48 512.64 
L 516.96 512.64 
L 516.96 508.16 
L 516.96 503.68 
L 516.96 499.2 
L 516.96 494.72 
L 516.96 490.24 
L 516.96 485.76 
L 516.96 481.28 
L 516.96 476.8 
L 516.96 472.32 
L 516.96 467.84 
L 516.96 463.36 
L 516.96 458.88 
L 516.96 454.4 
L 516.96 449.92 
L 516.96 445.44 
L 516.96 440.96 
L 516.96 436.48 
L 516.96 432 
L 516.96 427.52 
L 516.96 423.04 
L 516.96 418.56 
L 516.96 414.08 
L 516.96 409.6 
L 516.96 405.12 
L 516.96 400.64 
L 516.96 396.16 
L 516.96 391.68 
L 516.96 387.2 
L 516.96 382.72 
L 516.96 378.24 
L 516.96 373.76 
L 516.96 369.28 
L 516.96 364.8 
L 516.96 360.32 
L 516.96 355.84 
L 516.96 351.36 
L 516.96 346.88 
L 516.96 342.4 
L 516.96 337.92 
L 516.96 333.44 
L 516.96 328.96 
L 516.96 324.48 
L 516.96 320 
L 516.96 315.52 
L 516.96 311.04 
L 516.96 306.56 
L 516.96 302.08 
L 516.96 297.6 
L 516.96 293.12 
L 516.96 288.64 
L 516.96 284.16 
L 516.96 279.68 
L 516.96 275.2 
L 516.96 270.72 
L 516.96 266.24 
L 516.96 261.76 
L 516.96 257.28 
L 516.96 252.8 
L 516.96 248.32 
L 516.96 243.84 
L 516.96 239.36 
L 516.96 234.88 
L 516.96 230.4 
L 516.96 225.92 
L 516.96 221.44 
L 516.96 216.96 
L 516.96 212.48 
L 516.96 208 
L 516.96 203.52 
L 516.96 199.04 
L 516.96 194.56 
L 516.96 190.08 
L 516.96 185.6 
L 516.96 181.12 
L 516.96 176.64 
L 516.96 172.16 
L 516.96 167.68 
L 516.96 163.2 
L 516.96 159.601746 
L 512.48 161.783382 
L 509.570823 163.2 
L 508 163.964907 
L 503.52 166.146628 
L 500.371012 167.68 
L 499.04 168.328127 
L 494.56 170.509832 
L 491.171369 172.16 
L 490.08 172.691464 
L 485.6 174.873087 
L 481.971552 176.64 
L 481.12 177.054675 
L 476.64 179.23629 
L 472.771829 181.12 
L 472.16 181.417942 
L 467.68 183.599562 
L 463.572162 185.6 
L 463.2 185.781235 
L 458.72 187.962822 
L 454.372294 190.08 
L 454.24 190.144424 
L 449.76 192.326011 
L 445.28 194.5076 
L 445.172399 194.56 
L 440.8 196.689303 
L 436.32 198.67187 
L 431.84 196.517767 
L 427.901764 194.56 
L 427.36 194.290678 
L 422.88 192.063601 
L 418.889862 190.08 
L 418.4 189.836478 
L 413.92 187.609426 
L 409.877873 185.6 
L 409.44 185.382324 
L 404.96 183.155235 
L 400.865959 181.12 
L 400.48 180.935714 
L 396 178.909841 
L 391.52 177.072065 
L 390.402661 176.64 
L 387.04 175.404684 
L 382.56 173.758926 
L 378.08 172.51111 
L 376.452628 172.16 
L 373.6 171.650434 
L 369.12 170.871898 
L 364.64 170.130385 
L 360.16 169.425767 
L 355.68 168.721142 
L 351.2 168.016527 
L 349.06038 167.68 
L 346.72 167.339805 
L 342.24 167.180812 
L 337.76 167.662265 
L 337.655459 167.68 
L 333.28 168.422277 
L 328.8 169.182298 
L 324.32 169.942313 
L 319.84 170.702337 
L 315.36 171.462367 
L 311.247654 172.16 
L 310.88 172.222369 
L 306.4 172.982394 
L 301.92 173.742394 
L 297.44 174.50242 
L 292.96 175.262441 
L 288.48 176.022455 
L 284.8398 176.64 
L 284 176.818536 
L 279.52 178.539035 
L 276.944566 181.12 
L 275.04 183.316186 
L 273.059468 185.6 
L 270.56 188.482188 
L 269.174357 190.08 
L 266.307123 194.56 
L 266.08 195.025875 
L 264.123076 199.04 
L 261.93905 203.52 
L 261.6 204.215491 
L 259.755083 208 
L 257.571052 212.48 
L 257.12 213.695239 
L 255.845769 216.96 
L 254.450909 221.44 
L 253.346993 225.92 
L 253.913456 230.4 
L 254.524238 234.88 
L 255.134981 239.36 
L 255.745709 243.84 
L 256.356506 248.32 
L 256.967205 252.8 
L 257.12 253.920801 
L 257.577953 257.28 
L 258.18873 261.76 
L 259.228835 266.24 
L 261.6 270.546798 
L 261.716247 270.72 
L 266.08 275.079724 
L 266.372948 275.2 
L 270.56 276.777264 
L 275.04 278.464953 
L 278.265484 279.68 
L 279.52 280.152582 
L 284 281.840258 
L 288.48 283.527861 
L 290.158063 284.16 
L 292.96 285.215519 
L 297.44 286.903136 
L 301.92 288.590802 
L 302.0506 288.64 
L 306.4 290.278487 
L 310.88 291.966161 
L 313.942928 293.12 
L 315.36 293.653827 
L 319.84 295.341418 
L 324.32 297.029106 
L 325.835471 297.6 
L 328.8 298.716783 
L 333.28 300.404396 
L 337.727995 302.08 
L 337.76 302.092056 
L 342.24 303.779786 
L 346.72 305.46738 
L 349.620311 306.56 
L 351.2 307.155086 
L 355.68 308.842696 
L 360.16 310.530295 
L 361.513009 311.04 
L 364.64 312.218026 
L 369.12 313.905654 
L 373.405601 315.52 
L 373.6 315.593232 
L 378.08 317.280988 
L 382.56 318.968615 
L 385.29783 320 
L 387.04 320.702249 
L 388.524999 324.48 
L 388.92756 328.96 
L 389.315488 333.44 
L 389.703368 337.92 
L 390.091253 342.4 
L 390.479154 346.88 
L 390.867044 351.36 
L 391.254949 355.84 
L 391.52 358.901032 
L 391.628223 360.32 
L 391.52 362.449989 
L 391.40152 364.8 
L 391.140997 369.28 
L 390.880461 373.76 
L 390.619952 378.24 
L 390.359441 382.72 
L 390.098943 387.2 
L 389.838429 391.68 
L 389.577919 396.16 
L 389.317398 400.64 
L 389.056899 405.12 
L 387.04 407.621865 
L 383.411788 409.6 
L 382.56 410.005765 
L 378.08 412.139889 
L 374.007259 414.08 
L 373.6 414.274007 
L 369.12 416.408119 
L 364.64 418.542243 
L 364.602724 418.56 
L 360.16 420.676363 
L 355.68 422.810401 
L 355.198024 423.04 
L 351.2 424.944586 
L 346.72 426.937981 
L 342.24 425.249969 
L 337.76 423.148686 
L 337.528276 423.04 
L 333.28 421.047379 
L 328.8 418.728763 
L 328.560174 418.56 
L 324.32 414.966223 
L 323.274358 414.08 
L 319.84 411.169267 
L 317.988489 409.6 
L 315.36 407.372155 
L 312.702815 405.12 
L 310.88 403.57508 
L 307.416951 400.64 
L 306.4 399.778088 
L 302.131172 396.16 
L 301.92 395.981019 
L 297.44 392.183995 
L 296.845344 391.68 
L 292.96 388.386962 
L 291.559548 387.2 
L 288.48 384.58991 
L 286.273747 382.72 
L 284 380.79289 
L 280.987912 378.24 
L 279.52 376.995869 
L 275.702172 373.76 
L 275.04 373.198767 
L 270.56 369.40175 
L 270.41635 369.28 
L 266.08 365.604684 
L 265.130615 364.8 
L 261.6 361.80759 
L 259.844809 360.32 
L 257.12 358.010579 
L 254.558997 355.84 
L 252.64 354.213558 
L 249.273224 351.36 
L 248.16 350.416474 
L 243.987415 346.88 
L 243.68 346.619446 
L 239.2 342.822409 
L 238.70162 342.4 
L 234.72 339.025384 
L 233.415808 337.92 
L 230.24 335.228285 
L 228.130072 333.44 
L 225.76 331.431234 
L 221.28 329.156184 
L 220.722831 328.96 
L 216.8 327.578743 
L 212.380029 324.48 
L 212.32 324.445502 
L 207.84 321.310347 
L 205.351209 320 
L 203.36 318.951625 
L 198.88 316.592876 
L 196.842251 315.52 
L 194.4 314.234152 
L 189.92 311.875417 
L 188.333264 311.04 
L 185.44 309.516673 
L 180.96 307.157936 
L 179.824328 306.56 
L 176.48 304.799207 
L 172 302.440488 
L 171.315316 302.08 
L 167.52 300.081747 
L 163.04 297.722984 
L 162.806414 297.6 
L 158.56 295.364249 
L 154.297487 293.12 
L 154.08 293.005492 
L 149.6 290.64676 
L 145.78851 288.64 
L 145.12 288.288028 
L 140.64 285.929293 
L 137.279535 284.16 
L 136.16 283.585033 
L 131.68 281.342449 
L 128.075733 279.68 
L 127.2 279.343166 
L 122.72 277.931346 
L 118.24 276.805401 
L 113.76 275.727752 
L 111.392287 275.2 
L 109.28 274.736306 
L 104.8 273.77468 
L 100.32 272.813034 
L 95.84 271.851392 
L 91.36 270.889736 
L 90.569246 270.72 
L 86.88 269.928096 
L 82.4 268.966446 
L 77.92 268.004809 
L 73.44 267.043155 
L 73.44 270.72 
L 73.44 275.2 
L 73.44 279.68 
L 73.44 284.16 
L 73.44 288.64 
L 73.44 293.12 
L 73.44 297.6 
L 73.44 302.08 
L 73.44 306.56 
L 73.44 311.04 
L 73.44 315.52 
L 73.44 320 
L 73.44 324.48 
L 73.44 328.96 
L 73.44 333.44 
L 73.44 337.92 
L 73.44 342.4 
L 73.44 346.88 
L 73.44 351.36 
L 73.44 355.84 
L 73.44 360.32 
L 73.44 364.8 
L 73.44 369.28 
L 73.44 373.76 
L 73.44 378.24 
L 73.44 382.72 
L 73.44 387.2 
L 73.44 391.68 
L 73.44 396.16 
L 73.44 400.64 
L 73.44 405.12 
L 73.44 409.6 
L 73.44 414.08 
L 73.44 418.56 
L 73.44 423.04 
L 73.44 427.52 
L 73.44 432 
L 73.44 436.48 
L 73.44 440.96 
L 73.44 445.44 
L 73.44 449.92 
L 73.44 454.4 
L 73.44 458.88 
L 73.44 463.36 
L 73.44 467.84 
L 73.44 472.32 
L 73.44 476.8 
L 73.44 481.28 
L 73.44 485.76 
L 73.44 490.24 
L 73.44 494.72 
L 73.44 499.2 
L 73.44 503.68 
L 73.44 508.16 
L 73.44 512.64 
z
" style="fill:#f4987a;"/>
   </g>
   <g id="PathCollection_3">
    <defs>
     <path d="M 0 4.1833 
C 1.109424 4.1833 2.173559 3.742521 2.95804 2.95804 
C 3.742521 2.173559 4.1833 1.109424 4.1833 0 
C 4.1833 -1.109424 3.742521 -2.173559 2.95804 -2.95804 
C 2.173559 -3.742521 1.109424 -4.1833 0 -4.1833 
C -1.109424 -4.1833 -2.173559 -3.742521 -2.95804 -2.95804 
C -3.742521 -2.173559 -4.1833 -1.109424 -4.1833 0 
C -4.1833 1.109424 -3.742521 2.173559 -2.95804 2.95804 
C -2.173559 3.742521 -1.109424 4.1833 0 4.1833 
z
" id="C0_0_c644ca6d27"/>
    </defs>
    <g clip-path="url(#pfbce9d795e)">
     <use style="fill:#b40426;stroke:#b40426;" x="317.729876" xlink:href="#C0_0_c644ca6d27" y="198.562277"/>
    </g>
    <g clip-path="url(#pfbce9d795e)">
     <use style="fill:#3b4cc0;stroke:#3b4cc0;" x="202.462066" xlink:href="#C0_0_c644ca6d27" y="286.077742"/>
    </g>
    <g clip-path="url(#pfbce9d795e)">
     <use style="fill:#3b4cc0;stroke:#3b4cc0;" x="469.479835" xlink:href="#C0_0_c644ca6d27" y="115.116083"/>
    </g>
    <g clip-path="url(#pfbce9d795e)">
     <use style="fill:#b40426;stroke:#b40426;" x="129.1396" xlink:href="#C0_0_c644ca6d27" y="420.72364"/>
    </g>
    <g clip-path="url(#pfbce9d795e)">
     <use style="fill:#3b4cc0;stroke:#3b4cc0;" x="361.348371" xlink:href="#C0_0_c644ca6d27" y="389.125315"/>
    </g>
    <g clip-path="url(#pfbce9d795e)">
     <use style="fill:#b40426;stroke:#b40426;" x="268.790029" xlink:href="#C0_0_c644ca6d27" y="443.066019"/>
    </g>
    <g clip-path="url(#pfbce9d795e)">
     <use style="fill:#3b4cc0;stroke:#3b4cc0;" x="245.51301" xlink:href="#C0_0_c644ca6d27" y="97.335117"/>
    </g>
    <g clip-path="url(#pfbce9d795e)">
     <use style="fill:#b40426;stroke:#b40426;" x="504.365193" xlink:href="#C0_0_c644ca6d27" y="410.371294"/>
    </g>
    <g clip-path="url(#pfbce9d795e)">
     <use style="fill:#b40426;stroke:#b40426;" x="450.862836" xlink:href="#C0_0_c644ca6d27" y="271.545056"/>
    </g>
    <g clip-path="url(#pfbce9d795e)">
     <use style="fill:#3b4cc0;stroke:#3b4cc0;" x="106.093571" xlink:href="#C0_0_c644ca6d27" y="116.84578"/>
    </g>
    <g clip-path="url(#pfbce9d795e)">
     <use style="fill:#b40426;stroke:#b40426;" x="80.137495" xlink:href="#C0_0_c644ca6d27" y="323.87579"/>
    </g>
    <g clip-path="url(#pfbce9d795e)">
     <use style="fill:#b40426;stroke:#b40426;" x="433.106614" xlink:href="#C0_0_c644ca6d27" y="509.405798"/>
    </g>
   </g>
   <g id="patch_3">
    <path clip-path="url(#pfbce9d795e)" d="M 282.248286 234.043878 
L 353.211486 234.043878 
L 353.211486 163.080678 
L 282.248286 163.080678 
z
" style="fill:none;stroke:#000000;stroke-linejoin:miter;"/>
   </g>
   <g id="patch_4">
    <path clip-path="url(#pfbce9d795e)" d="M 166.98047 321.559341 
L 237.94367 321.559341 
L 237.94367 250.596141 
L 166.98047 250.596141 
z
" style="fill:none;stroke:#000000;stroke-linejoin:miter;"/>
   </g>
   <g id="patch_5">
    <path clip-path="url(#pfbce9d795e)" d="M 433.998233 150.597689 
L 504.961433 150.597689 
L 504.961433 79.634489 
L 433.998233 79.634489 
z
" style="fill:none;stroke:#000000;stroke-linejoin:miter;"/>
   </g>
   <g id="patch_6">
    <path clip-path="url(#pfbce9d795e)" d="M 93.657997 456.205239 
L 164.621197 456.205239 
L 164.621197 385.242039 
L 93.657997 385.242039 
z
" style="fill:none;stroke:#000000;stroke-linejoin:miter;"/>
   </g>
   <g id="patch_7">
    <path clip-path="url(#pfbce9d795e)" d="M 325.866768 424.60692 
L 396.829968 424.60692 
L 396.829968 353.64372 
L 325.866768 353.64372 
z
" style="fill:none;stroke:#000000;stroke-linejoin:miter;"/>
   </g>
   <g id="patch_8">
    <path clip-path="url(#pfbce9d795e)" d="M 233.308433 478.547621 
L 304.271633 478.547621 
L 304.271633 407.584421 
L 233.308433 407.584421 
z
" style="fill:none;stroke:#000000;stroke-linejoin:miter;"/>
   </g>
   <g id="patch_9">
    <path clip-path="url(#pfbce9d795e)" d="M 210.031412 132.816724 
L 280.994612 132.816724 
L 280.994612 61.853524 
L 210.031412 61.853524 
z
" style="fill:none;stroke:#000000;stroke-linejoin:miter;"/>
   </g>
   <g id="patch_10">
    <path clip-path="url(#pfbce9d795e)" d="M 468.883588 445.852894 
L 539.846788 445.852894 
L 539.846788 374.889694 
L 468.883588 374.889694 
z
" style="fill:none;stroke:#000000;stroke-linejoin:miter;"/>
   </g>
   <g id="patch_11">
    <path clip-path="url(#pfbce9d795e)" d="M 415.381243 307.026644 
L 486.344443 307.026644 
L 486.344443 236.063444 
L 415.381243 236.063444 
z
" style="fill:none;stroke:#000000;stroke-linejoin:miter;"/>
   </g>
   <g id="patch_12">
    <path clip-path="url(#pfbce9d795e)" d="M 70.61197 152.327373 
L 141.57517 152.327373 
L 141.57517 81.364173 
L 70.61197 81.364173 
z
" style="fill:none;stroke:#000000;stroke-linejoin:miter;"/>
   </g>
   <g id="patch_13">
    <path clip-path="url(#pfbce9d795e)" d="M 44.655895 359.35739 
L 115.619095 359.35739 
L 115.619095 288.39419 
L 44.655895 288.39419 
z
" style="fill:none;stroke:#000000;stroke-linejoin:miter;"/>
   </g>
   <g id="patch_14">
    <path clip-path="url(#pfbce9d795e)" d="M 397.625006 544.887398 
L 468.588206 544.887398 
L 468.588206 473.924198 
L 397.625006 473.924198 
z
" style="fill:none;stroke:#000000;stroke-linejoin:miter;"/>
   </g>
   <g id="matplotlib.axis_1">
    <g id="xtick_1">
     <g id="line2d_1">
      <defs>
       <path d="M 0 0 
L 0 3.5 
" id="mf9260fb4a7" style="stroke:#000000;stroke-width:0.8;"/>
      </defs>
      <g>
       <use style="stroke:#000000;stroke-width:0.8;" x="73.44" xlink:href="#mf9260fb4a7" y="512.64"/>
      </g>
     </g>
     <g id="text_1">
      <!-- 0.0 -->
      <defs>
       <path d="M 31.78125 66.40625 
Q 24.171875 66.40625 20.328125 58.90625 
Q 16.5 51.421875 16.5 36.375 
Q 16.5 21.390625 20.328125 13.890625 
Q 24.171875 6.390625 31.78125 6.390625 
Q 39.453125 6.390625 43.28125 13.890625 
Q 47.125 21.390625 47.125 36.375 
Q 47.125 51.421875 43.28125 58.90625 
Q 39.453125 66.40625 31.78125 66.40625 
z
M 31.78125 74.21875 
Q 44.046875 74.21875 50.515625 64.515625 
Q 56.984375 54.828125 56.984375 36.375 
Q 56.984375 17.96875 50.515625 8.265625 
Q 44.046875 -1.421875 31.78125 -1.421875 
Q 19.53125 -1.421875 13.0625 8.265625 
Q 6.59375 17.96875 6.59375 36.375 
Q 6.59375 54.828125 13.0625 64.515625 
Q 19.53125 74.21875 31.78125 74.21875 
z
" id="DejaVuSans-30"/>
       <path d="M 10.6875 12.40625 
L 21 12.40625 
L 21 0 
L 10.6875 0 
z
" id="DejaVuSans-2e"/>
      </defs>
      <g transform="translate(65.488438 527.238438)scale(0.1 -0.1)">
       <use xlink:href="#DejaVuSans-30"/>
       <use x="63.623047" xlink:href="#DejaVuSans-2e"/>
       <use x="95.410156" xlink:href="#DejaVuSans-30"/>
      </g>
     </g>
    </g>
    <g id="xtick_2">
     <g id="line2d_2">
      <g>
       <use style="stroke:#000000;stroke-width:0.8;" x="162.144" xlink:href="#mf9260fb4a7" y="512.64"/>
      </g>
     </g>
     <g id="text_2">
      <!-- 0.2 -->
      <defs>
       <path d="M 19.1875 8.296875 
L 53.609375 8.296875 
L 53.609375 0 
L 7.328125 0 
L 7.328125 8.296875 
Q 12.9375 14.109375 22.625 23.890625 
Q 32.328125 33.6875 34.8125 36.53125 
Q 39.546875 41.84375 41.421875 45.53125 
Q 43.3125 49.21875 43.3125 52.78125 
Q 43.3125 58.59375 39.234375 62.25 
Q 35.15625 65.921875 28.609375 65.921875 
Q 23.96875 65.921875 18.8125 64.3125 
Q 13.671875 62.703125 7.8125 59.421875 
L 7.8125 69.390625 
Q 13.765625 71.78125 18.9375 73 
Q 24.125 74.21875 28.421875 74.21875 
Q 39.75 74.21875 46.484375 68.546875 
Q 53.21875 62.890625 53.21875 53.421875 
Q 53.21875 48.921875 51.53125 44.890625 
Q 49.859375 40.875 45.40625 35.40625 
Q 44.1875 33.984375 37.640625 27.21875 
Q 31.109375 20.453125 19.1875 8.296875 
z
" id="DejaVuSans-32"/>
      </defs>
      <g transform="translate(154.192438 527.238438)scale(0.1 -0.1)">
       <use xlink:href="#DejaVuSans-30"/>
       <use x="63.623047" xlink:href="#DejaVuSans-2e"/>
       <use x="95.410156" xlink:href="#DejaVuSans-32"/>
      </g>
     </g>
    </g>
    <g id="xtick_3">
     <g id="line2d_3">
      <g>
       <use style="stroke:#000000;stroke-width:0.8;" x="250.848" xlink:href="#mf9260fb4a7" y="512.64"/>
      </g>
     </g>
     <g id="text_3">
      <!-- 0.4 -->
      <defs>
       <path d="M 37.796875 64.3125 
L 12.890625 25.390625 
L 37.796875 25.390625 
z
M 35.203125 72.90625 
L 47.609375 72.90625 
L 47.609375 25.390625 
L 58.015625 25.390625 
L 58.015625 17.1875 
L 47.609375 17.1875 
L 47.609375 0 
L 37.796875 0 
L 37.796875 17.1875 
L 4.890625 17.1875 
L 4.890625 26.703125 
z
" id="DejaVuSans-34"/>
      </defs>
      <g transform="translate(242.896438 527.238438)scale(0.1 -0.1)">
       <use xlink:href="#DejaVuSans-30"/>
       <use x="63.623047" xlink:href="#DejaVuSans-2e"/>
       <use x="95.410156" xlink:href="#DejaVuSans-34"/>
      </g>
     </g>
    </g>
    <g id="xtick_4">
     <g id="line2d_4">
      <g>
       <use style="stroke:#000000;stroke-width:0.8;" x="339.552" xlink:href="#mf9260fb4a7" y="512.64"/>
      </g>
     </g>
     <g id="text_4">
      <!-- 0.6 -->
      <defs>
       <path d="M 33.015625 40.375 
Q 26.375 40.375 22.484375 35.828125 
Q 18.609375 31.296875 18.609375 23.390625 
Q 18.609375 15.53125 22.484375 10.953125 
Q 26.375 6.390625 33.015625 6.390625 
Q 39.65625 6.390625 43.53125 10.953125 
Q 47.40625 15.53125 47.40625 23.390625 
Q 47.40625 31.296875 43.53125 35.828125 
Q 39.65625 40.375 33.015625 40.375 
z
M 52.59375 71.296875 
L 52.59375 62.3125 
Q 48.875 64.0625 45.09375 64.984375 
Q 41.3125 65.921875 37.59375 65.921875 
Q 27.828125 65.921875 22.671875 59.328125 
Q 17.53125 52.734375 16.796875 39.40625 
Q 19.671875 43.65625 24.015625 45.921875 
Q 28.375 48.1875 33.59375 48.1875 
Q 44.578125 48.1875 50.953125 41.515625 
Q 57.328125 34.859375 57.328125 23.390625 
Q 57.328125 12.15625 50.6875 5.359375 
Q 44.046875 -1.421875 33.015625 -1.421875 
Q 20.359375 -1.421875 13.671875 8.265625 
Q 6.984375 17.96875 6.984375 36.375 
Q 6.984375 53.65625 15.1875 63.9375 
Q 23.390625 74.21875 37.203125 74.21875 
Q 40.921875 74.21875 44.703125 73.484375 
Q 48.484375 72.75 52.59375 71.296875 
z
" id="DejaVuSans-36"/>
      </defs>
      <g transform="translate(331.600437 527.238438)scale(0.1 -0.1)">
       <use xlink:href="#DejaVuSans-30"/>
       <use x="63.623047" xlink:href="#DejaVuSans-2e"/>
       <use x="95.410156" xlink:href="#DejaVuSans-36"/>
      </g>
     </g>
    </g>
    <g id="xtick_5">
     <g id="line2d_5">
      <g>
       <use style="stroke:#000000;stroke-width:0.8;" x="428.256" xlink:href="#mf9260fb4a7" y="512.64"/>
      </g>
     </g>
     <g id="text_5">
      <!-- 0.8 -->
      <defs>
       <path d="M 31.78125 34.625 
Q 24.75 34.625 20.71875 30.859375 
Q 16.703125 27.09375 16.703125 20.515625 
Q 16.703125 13.921875 20.71875 10.15625 
Q 24.75 6.390625 31.78125 6.390625 
Q 38.8125 6.390625 42.859375 10.171875 
Q 46.921875 13.96875 46.921875 20.515625 
Q 46.921875 27.09375 42.890625 30.859375 
Q 38.875 34.625 31.78125 34.625 
z
M 21.921875 38.8125 
Q 15.578125 40.375 12.03125 44.71875 
Q 8.5 49.078125 8.5 55.328125 
Q 8.5 64.0625 14.71875 69.140625 
Q 20.953125 74.21875 31.78125 74.21875 
Q 42.671875 74.21875 48.875 69.140625 
Q 55.078125 64.0625 55.078125 55.328125 
Q 55.078125 49.078125 51.53125 44.71875 
Q 48 40.375 41.703125 38.8125 
Q 48.828125 37.15625 52.796875 32.3125 
Q 56.78125 27.484375 56.78125 20.515625 
Q 56.78125 9.90625 50.3125 4.234375 
Q 43.84375 -1.421875 31.78125 -1.421875 
Q 19.734375 -1.421875 13.25 4.234375 
Q 6.78125 9.90625 6.78125 20.515625 
Q 6.78125 27.484375 10.78125 32.3125 
Q 14.796875 37.15625 21.921875 38.8125 
z
M 18.3125 54.390625 
Q 18.3125 48.734375 21.84375 45.5625 
Q 25.390625 42.390625 31.78125 42.390625 
Q 38.140625 42.390625 41.71875 45.5625 
Q 45.3125 48.734375 45.3125 54.390625 
Q 45.3125 60.0625 41.71875 63.234375 
Q 38.140625 66.40625 31.78125 66.40625 
Q 25.390625 66.40625 21.84375 63.234375 
Q 18.3125 60.0625 18.3125 54.390625 
z
" id="DejaVuSans-38"/>
      </defs>
      <g transform="translate(420.304438 527.238438)scale(0.1 -0.1)">
       <use xlink:href="#DejaVuSans-30"/>
       <use x="63.623047" xlink:href="#DejaVuSans-2e"/>
       <use x="95.410156" xlink:href="#DejaVuSans-38"/>
      </g>
     </g>
    </g>
    <g id="xtick_6">
     <g id="line2d_6">
      <g>
       <use style="stroke:#000000;stroke-width:0.8;" x="516.96" xlink:href="#mf9260fb4a7" y="512.64"/>
      </g>
     </g>
     <g id="text_6">
      <!-- 1.0 -->
      <defs>
       <path d="M 12.40625 8.296875 
L 28.515625 8.296875 
L 28.515625 63.921875 
L 10.984375 60.40625 
L 10.984375 69.390625 
L 28.421875 72.90625 
L 38.28125 72.90625 
L 38.28125 8.296875 
L 54.390625 8.296875 
L 54.390625 0 
L 12.40625 0 
z
" id="DejaVuSans-31"/>
      </defs>
      <g transform="translate(509.008438 527.238438)scale(0.1 -0.1)">
       <use xlink:href="#DejaVuSans-31"/>
       <use x="63.623047" xlink:href="#DejaVuSans-2e"/>
       <use x="95.410156" xlink:href="#DejaVuSans-30"/>
      </g>
     </g>
    </g>
   </g>
   <g id="matplotlib.axis_2">
    <g id="ytick_1">
     <g id="line2d_7">
      <defs>
       <path d="M 0 0 
L -3.5 0 
" id="mfd1fabb417" style="stroke:#000000;stroke-width:0.8;"/>
      </defs>
      <g>
       <use style="stroke:#000000;stroke-width:0.8;" x="72" xlink:href="#mfd1fabb417" y="512.64"/>
      </g>
     </g>
     <g id="text_7">
      <!-- 0.0 -->
      <g transform="translate(49.096875 516.439219)scale(0.1 -0.1)">
       <use xlink:href="#DejaVuSans-30"/>
       <use x="63.623047" xlink:href="#DejaVuSans-2e"/>
       <use x="95.410156" xlink:href="#DejaVuSans-30"/>
      </g>
     </g>
    </g>
    <g id="ytick_2">
     <g id="line2d_8">
      <g>
       <use style="stroke:#000000;stroke-width:0.8;" x="72" xlink:href="#mfd1fabb417" y="423.936"/>
      </g>
     </g>
     <g id="text_8">
      <!-- 0.2 -->
      <g transform="translate(49.096875 427.735219)scale(0.1 -0.1)">
       <use xlink:href="#DejaVuSans-30"/>
       <use x="63.623047" xlink:href="#DejaVuSans-2e"/>
       <use x="95.410156" xlink:href="#DejaVuSans-32"/>
      </g>
     </g>
    </g>
    <g id="ytick_3">
     <g id="line2d_9">
      <g>
       <use style="stroke:#000000;stroke-width:0.8;" x="72" xlink:href="#mfd1fabb417" y="335.232"/>
      </g>
     </g>
     <g id="text_9">
      <!-- 0.4 -->
      <g transform="translate(49.096875 339.031219)scale(0.1 -0.1)">
       <use xlink:href="#DejaVuSans-30"/>
       <use x="63.623047" xlink:href="#DejaVuSans-2e"/>
       <use x="95.410156" xlink:href="#DejaVuSans-34"/>
      </g>
     </g>
    </g>
    <g id="ytick_4">
     <g id="line2d_10">
      <g>
       <use style="stroke:#000000;stroke-width:0.8;" x="72" xlink:href="#mfd1fabb417" y="246.528"/>
      </g>
     </g>
     <g id="text_10">
      <!-- 0.6 -->
      <g transform="translate(49.096875 250.327219)scale(0.1 -0.1)">
       <use xlink:href="#DejaVuSans-30"/>
       <use x="63.623047" xlink:href="#DejaVuSans-2e"/>
       <use x="95.410156" xlink:href="#DejaVuSans-36"/>
      </g>
     </g>
    </g>
    <g id="ytick_5">
     <g id="line2d_11">
      <g>
       <use style="stroke:#000000;stroke-width:0.8;" x="72" xlink:href="#mfd1fabb417" y="157.824"/>
      </g>
     </g>
     <g id="text_11">
      <!-- 0.8 -->
      <g transform="translate(49.096875 161.623219)scale(0.1 -0.1)">
       <use xlink:href="#DejaVuSans-30"/>
       <use x="63.623047" xlink:href="#DejaVuSans-2e"/>
       <use x="95.410156" xlink:href="#DejaVuSans-38"/>
      </g>
     </g>
    </g>
    <g id="ytick_6">
     <g id="line2d_12">
      <g>
       <use style="stroke:#000000;stroke-width:0.8;" x="72" xlink:href="#mfd1fabb417" y="69.12"/>
      </g>
     </g>
     <g id="text_12">
      <!-- 1.0 -->
      <g transform="translate(49.096875 72.919219)scale(0.1 -0.1)">
       <use xlink:href="#DejaVuSans-31"/>
       <use x="63.623047" xlink:href="#DejaVuSans-2e"/>
       <use x="95.410156" xlink:href="#DejaVuSans-30"/>
      </g>
     </g>
    </g>
   </g>
   <g id="patch_15">
    <path d="M 72 512.64 
L 72 69.12 
" style="fill:none;stroke:#000000;stroke-linecap:square;stroke-linejoin:miter;stroke-width:0.8;"/>
   </g>
   <g id="patch_16">
    <path d="M 518.4 512.64 
L 518.4 69.12 
" style="fill:none;stroke:#000000;stroke-linecap:square;stroke-linejoin:miter;stroke-width:0.8;"/>
   </g>
   <g id="patch_17">
    <path d="M 72 512.64 
L 518.4 512.64 
" style="fill:none;stroke:#000000;stroke-linecap:square;stroke-linejoin:miter;stroke-width:0.8;"/>
   </g>
   <g id="patch_18">
    <path d="M 72 69.12 
L 518.4 69.12 
" style="fill:none;stroke:#000000;stroke-linecap:square;stroke-linejoin:miter;stroke-width:0.8;"/>
   </g>
  </g>
 </g>
 <defs>
  <clipPath id="pfbce9d795e">
   <rect height="443.52" width="446.4" x="72" y="69.12"/>
  </clipPath>
 </defs>
</svg>
