<?xml version="1.0" encoding="utf-8" standalone="no"?>
<!DOCTYPE svg PUBLIC "-//W3C//DTD SVG 1.1//EN"
  "http://www.w3.org/Graphics/SVG/1.1/DTD/svg11.dtd">
<!-- Created with matplotlib (http://matplotlib.org/) -->
<svg height="576pt" version="1.1" viewBox="0 0 576 576" width="576pt" xmlns="http://www.w3.org/2000/svg" xmlns:xlink="http://www.w3.org/1999/xlink">
 <defs>
  <style type="text/css">
*{stroke-linecap:butt;stroke-linejoin:round;}
  </style>
 </defs>
 <g id="figure_1">
  <g id="patch_1">
   <path d="M 0 576 
L 576 576 
L 576 0 
L 0 0 
z
" style="fill:#ffffff;"/>
  </g>
  <g id="axes_1">
   <g id="patch_2">
    <path d="M 72 512.64 
L 518.4 512.64 
L 518.4 69.12 
L 72 69.12 
z
" style="fill:#ffffff;"/>
   </g>
   <g id="PathCollection_1">
    <path clip-path="url(#p8cffa49c19)" d="M 364.64 450.646797 
L 369.12 450.806776 
L 373.6 450.91129 
L 378.08 450.360543 
L 378.991219 449.92 
L 382.56 448.376341 
L 387.04 445.676631 
L 387.410085 445.44 
L 391.52 442.812142 
L 394.416695 440.96 
L 396 439.947638 
L 400.48 437.083121 
L 401.423261 436.48 
L 404.96 434.218643 
L 408.429901 432 
L 409.44 431.354141 
L 413.92 428.489632 
L 415.436473 427.52 
L 418.4 425.625132 
L 422.443086 423.04 
L 422.88 422.730809 
L 426.827699 418.56 
L 427.36 416.696966 
L 428.014397 414.08 
L 429.134691 409.6 
L 430.254962 405.12 
L 431.375265 400.64 
L 431.84 398.404165 
L 432.327022 396.16 
L 432.650618 391.68 
L 432.906653 387.2 
L 433.073507 382.72 
L 432.270049 378.24 
L 431.84 377.156668 
L 430.084595 373.76 
L 427.36 370.480311 
L 425.427362 369.28 
L 422.88 367.697918 
L 418.4 364.915534 
L 418.213966 364.8 
L 413.92 362.133254 
L 411.000467 360.32 
L 409.44 359.350861 
L 404.96 356.568541 
L 403.786916 355.84 
L 400.48 353.786215 
L 396.573458 351.36 
L 396 351.003852 
L 391.52 348.22148 
L 389.360006 346.88 
L 387.04 345.439147 
L 382.56 342.656773 
L 382.146564 342.4 
L 378.08 339.874393 
L 374.933055 337.92 
L 373.6 337.092115 
L 369.12 334.309698 
L 367.719668 333.44 
L 364.64 331.527371 
L 360.506083 328.96 
L 360.16 328.745061 
L 355.68 325.962659 
L 353.292714 324.48 
L 351.2 323.180289 
L 346.72 320.397963 
L 346.079237 320 
L 342.24 317.615588 
L 339.072811 315.52 
L 337.76 314.599488 
L 333.28 311.423505 
L 332.73903 311.04 
L 328.8 308.247544 
L 326.419542 306.56 
L 324.32 305.071623 
L 320.100001 302.08 
L 319.84 301.895677 
L 315.36 298.719661 
L 313.780622 297.6 
L 310.88 295.543683 
L 307.461082 293.12 
L 306.4 292.367772 
L 301.92 289.191813 
L 301.141618 288.64 
L 297.44 286.015801 
L 294.822265 284.16 
L 292.96 282.839806 
L 288.502735 279.68 
L 288.48 279.663882 
L 284 276.487877 
L 282.183294 275.2 
L 279.52 273.311977 
L 275.86381 270.72 
L 275.04 270.135987 
L 270.56 266.960017 
L 269.544344 266.24 
L 266.08 263.783999 
L 263.224966 261.76 
L 261.6 260.608063 
L 257.12 257.432112 
L 256.905434 257.28 
L 252.64 254.256163 
L 250.58595 252.8 
L 248.16 251.080175 
L 244.26648 248.32 
L 243.68 247.904228 
L 239.2 244.728236 
L 237.947075 243.84 
L 234.72 241.552261 
L 231.62753 239.36 
L 230.24 238.376366 
L 225.76 235.200293 
L 225.308193 234.88 
L 221.28 232.024389 
L 218.988657 230.4 
L 216.8 228.848428 
L 212.669162 225.92 
L 212.32 225.67247 
L 207.84 222.49647 
L 206.349749 221.44 
L 203.36 219.320505 
L 200.030276 216.96 
L 198.88 216.144544 
L 194.4 212.968562 
L 193.710841 212.48 
L 192.215759 208 
L 194.4 203.851505 
L 194.574543 203.52 
L 196.933315 199.04 
L 198.88 195.342715 
L 199.292111 194.56 
L 201.650877 190.08 
L 203.36 186.833884 
L 204.009664 185.6 
L 206.368428 181.12 
L 207.84 178.325079 
L 208.727228 176.64 
L 211.086023 172.16 
L 212.32 169.816304 
L 213.44478 167.68 
L 215.803559 163.2 
L 216.8 162.083536 
L 219.802011 158.72 
L 221.28 157.074606 
L 223.826206 154.24 
L 225.76 153.098065 
L 230.24 151.273112 
L 234.72 149.844794 
L 234.985957 149.76 
L 239.2 148.578113 
L 243.68 147.633911 
L 248.16 147.19113 
L 252.64 146.812564 
L 257.12 146.54533 
L 261.6 146.305682 
L 266.08 146.066045 
L 270.56 145.826381 
L 275.04 145.586743 
L 279.52 145.347087 
L 280.774124 145.28 
L 284 145.107438 
L 288.48 144.867796 
L 292.96 144.628142 
L 297.44 144.388496 
L 301.92 144.148834 
L 306.4 143.909192 
L 310.88 143.669551 
L 315.36 143.686859 
L 319.84 144.153402 
L 324.32 145.03358 
L 325.38911 145.28 
L 328.8 146.066181 
L 333.28 147.098774 
L 337.76 148.131379 
L 342.24 149.164008 
L 344.825799 149.76 
L 346.72 150.196586 
L 351.2 151.229216 
L 355.68 152.261809 
L 360.16 153.29441 
L 364.262505 154.24 
L 364.64 154.327009 
L 369.12 155.359633 
L 373.6 156.392208 
L 378.08 157.424827 
L 382.56 158.457417 
L 383.699241 158.72 
L 387.04 159.492212 
L 391.52 160.527778 
L 396 161.563307 
L 400.48 162.598795 
L 403.081054 163.2 
L 404.96 163.7408 
L 409.44 165.030274 
L 413.92 166.319712 
L 418.4 167.609156 
L 418.646131 167.68 
L 422.88 169.278627 
L 427.36 170.853752 
L 431.331668 172.16 
L 431.84 172.367186 
L 436.32 174.193021 
L 440.8 176.018926 
L 442.323907 176.64 
L 445.28 177.844774 
L 449.76 179.670687 
L 453.316058 181.12 
L 454.24 181.496566 
L 458.72 183.322446 
L 463.2 185.148315 
L 464.308233 185.6 
L 467.68 186.974234 
L 472.16 188.80013 
L 475.300362 190.08 
L 476.64 190.625964 
L 481.12 192.451848 
L 485.6 194.329173 
L 486.12007 194.56 
L 490.08 196.361738 
L 494.56 198.400012 
L 495.96663 199.04 
L 499.04 200.438294 
L 503.52 202.476558 
L 505.813422 203.52 
L 508 204.514837 
L 512.48 206.553101 
L 515.660179 208 
L 516.96 208.591375 
L 516.96 208 
L 516.96 203.52 
L 516.96 199.04 
L 516.96 194.56 
L 516.96 190.08 
L 516.96 185.6 
L 516.96 181.12 
L 516.96 176.64 
L 516.96 172.16 
L 516.96 167.68 
L 516.96 163.2 
L 516.96 158.72 
L 516.96 154.24 
L 516.96 149.76 
L 516.96 145.28 
L 516.96 140.8 
L 516.96 136.32 
L 516.96 131.84 
L 516.96 127.36 
L 516.96 122.88 
L 516.96 118.4 
L 516.96 113.92 
L 516.96 109.44 
L 516.96 104.96 
L 516.96 100.48 
L 516.96 96 
L 516.96 91.52 
L 516.96 87.04 
L 516.96 82.56 
L 516.96 78.08 
L 516.96 73.6 
L 516.96 69.12 
L 512.48 69.12 
L 508 69.12 
L 503.52 69.12 
L 499.04 69.12 
L 494.56 69.12 
L 490.08 69.12 
L 485.6 69.12 
L 481.12 69.12 
L 476.64 69.12 
L 472.16 69.12 
L 467.68 69.12 
L 463.2 69.12 
L 458.72 69.12 
L 454.24 69.12 
L 449.76 69.12 
L 445.28 69.12 
L 440.8 69.12 
L 436.32 69.12 
L 431.84 69.12 
L 427.36 69.12 
L 422.88 69.12 
L 418.4 69.12 
L 413.92 69.12 
L 409.44 69.12 
L 404.96 69.12 
L 400.48 69.12 
L 396 69.12 
L 391.52 69.12 
L 387.04 69.12 
L 382.56 69.12 
L 378.08 69.12 
L 373.6 69.12 
L 369.12 69.12 
L 364.64 69.12 
L 360.16 69.12 
L 355.68 69.12 
L 351.2 69.12 
L 346.72 69.12 
L 342.24 69.12 
L 337.76 69.12 
L 333.28 69.12 
L 328.8 69.12 
L 324.32 69.12 
L 319.84 69.12 
L 315.36 69.12 
L 310.88 69.12 
L 306.4 69.12 
L 301.92 69.12 
L 297.44 69.12 
L 292.96 69.12 
L 288.48 69.12 
L 284 69.12 
L 279.52 69.12 
L 275.04 69.12 
L 270.56 69.12 
L 266.08 69.12 
L 261.6 69.12 
L 257.12 69.12 
L 252.64 69.12 
L 248.16 69.12 
L 243.68 69.12 
L 239.2 69.12 
L 234.72 69.12 
L 230.24 69.12 
L 225.76 69.12 
L 221.28 69.12 
L 216.8 69.12 
L 212.32 69.12 
L 207.84 69.12 
L 203.36 69.12 
L 198.88 69.12 
L 194.4 69.12 
L 189.92 69.12 
L 185.44 69.12 
L 180.96 69.12 
L 176.48 69.12 
L 172 69.12 
L 167.52 69.12 
L 163.04 69.12 
L 158.56 69.12 
L 154.08 69.12 
L 149.6 69.12 
L 145.12 69.12 
L 140.64 69.12 
L 136.16 69.12 
L 131.68 69.12 
L 127.2 69.12 
L 122.72 69.12 
L 118.24 69.12 
L 113.76 69.12 
L 109.28 69.12 
L 104.8 69.12 
L 100.32 69.12 
L 95.84 69.12 
L 91.36 69.12 
L 86.88 69.12 
L 82.4 69.12 
L 77.92 69.12 
L 73.44 69.12 
L 73.44 73.6 
L 73.44 78.08 
L 73.44 82.56 
L 73.44 87.04 
L 73.44 91.52 
L 73.44 96 
L 73.44 100.48 
L 73.44 104.96 
L 73.44 109.44 
L 73.44 113.92 
L 73.44 118.4 
L 73.44 122.88 
L 73.44 127.36 
L 73.44 131.84 
L 73.44 136.32 
L 73.44 140.8 
L 73.44 145.28 
L 73.44 149.76 
L 73.44 154.24 
L 73.44 158.72 
L 73.44 163.2 
L 73.44 167.68 
L 73.44 172.16 
L 73.44 176.64 
L 73.44 181.12 
L 73.44 185.6 
L 73.44 190.08 
L 73.44 194.56 
L 73.44 199.04 
L 73.44 203.52 
L 73.44 208 
L 73.44 212.48 
L 73.44 216.96 
L 73.44 221.44 
L 73.44 225.92 
L 73.44 230.4 
L 73.44 234.88 
L 73.44 235.079298 
L 77.92 236.115943 
L 82.4 237.204224 
L 86.88 238.445435 
L 90.1359 239.36 
L 91.36 239.703841 
L 95.84 240.962244 
L 100.32 242.220635 
L 104.8 243.479042 
L 106.085054 243.84 
L 109.28 244.737431 
L 113.76 245.995842 
L 118.24 247.254237 
L 120.384254 248.32 
L 122.72 251.533062 
L 123.457103 252.8 
L 126.063548 257.28 
L 127.2 259.233361 
L 128.669986 261.76 
L 131.276415 266.24 
L 131.68 266.933684 
L 133.88288 270.72 
L 136.16 274.633957 
L 136.489319 275.2 
L 139.095757 279.68 
L 140.64 282.334257 
L 141.702215 284.16 
L 144.308642 288.64 
L 145.12 290.034573 
L 146.915089 293.12 
L 149.521531 297.6 
L 149.6 297.734874 
L 152.127954 302.08 
L 154.08 305.435186 
L 154.734417 306.56 
L 157.340842 311.04 
L 158.56 313.135492 
L 159.947301 315.52 
L 162.55373 320 
L 163.04 320.83581 
L 165.160161 324.48 
L 167.52 328.536133 
L 167.766605 328.96 
L 170.373055 333.44 
L 172 336.23641 
L 173.310508 337.92 
L 176.085106 342.4 
L 176.48 343.154208 
L 180.96 345.475754 
L 183.686062 346.88 
L 185.44 347.783472 
L 189.92 350.091236 
L 192.383048 351.36 
L 194.4 352.398961 
L 198.88 354.70668 
L 201.080054 355.84 
L 203.36 357.014472 
L 207.84 359.322215 
L 209.77696 360.32 
L 212.32 361.629967 
L 216.8 363.937668 
L 218.474011 364.8 
L 221.28 366.245462 
L 225.76 368.553203 
L 227.170896 369.28 
L 230.24 370.860968 
L 234.72 373.168711 
L 235.867872 373.76 
L 239.2 375.476443 
L 243.68 377.784186 
L 244.564874 378.24 
L 248.16 380.091939 
L 252.64 382.399732 
L 253.261723 382.72 
L 257.12 384.707472 
L 261.461573 387.2 
L 261.6 387.285575 
L 266.08 390.062931 
L 268.688555 391.68 
L 270.56 392.84017 
L 275.04 395.617438 
L 275.915177 396.16 
L 279.52 398.394783 
L 283.141765 400.64 
L 284 401.17204 
L 288.48 403.949327 
L 290.368294 405.12 
L 292.96 406.726668 
L 297.44 409.503923 
L 297.594983 409.6 
L 301.92 412.281197 
L 304.821672 414.08 
L 306.4 415.058457 
L 310.88 417.835806 
L 312.048181 418.56 
L 315.36 420.613089 
L 319.274902 423.04 
L 319.84 423.390319 
L 324.32 426.167581 
L 326.50156 427.52 
L 328.8 428.944917 
L 333.28 431.722207 
L 333.728106 432 
L 337.76 434.49941 
L 340.954898 436.48 
L 342.24 437.276692 
L 346.72 440.054104 
L 348.181301 440.96 
L 351.2 442.831341 
L 355.407993 445.44 
L 355.68 445.608625 
L 360.16 448.385855 
L 362.634626 449.92 
z
" style="fill:#8db0fe;"/>
   </g>
   <g id="PathCollection_2">
    <path clip-path="url(#p8cffa49c19)" d="M 77.92 512.64 
L 82.4 512.64 
L 86.88 512.64 
L 91.36 512.64 
L 95.84 512.64 
L 100.32 512.64 
L 104.8 512.64 
L 109.28 512.64 
L 113.76 512.64 
L 118.24 512.64 
L 122.72 512.64 
L 127.2 512.64 
L 131.68 512.64 
L 136.16 512.64 
L 140.64 512.64 
L 145.12 512.64 
L 149.6 512.64 
L 154.08 512.64 
L 158.56 512.64 
L 163.04 512.64 
L 167.52 512.64 
L 172 512.64 
L 176.48 512.64 
L 180.96 512.64 
L 185.44 512.64 
L 189.92 512.64 
L 194.4 512.64 
L 198.88 512.64 
L 203.36 512.64 
L 207.84 512.64 
L 212.32 512.64 
L 216.8 512.64 
L 221.28 512.64 
L 225.76 512.64 
L 230.24 512.64 
L 234.72 512.64 
L 239.2 512.64 
L 243.68 512.64 
L 248.16 512.64 
L 252.64 512.64 
L 257.12 512.64 
L 261.6 512.64 
L 266.08 512.64 
L 270.56 512.64 
L 275.04 512.64 
L 279.52 512.64 
L 284 512.64 
L 288.48 512.64 
L 292.96 512.64 
L 297.44 512.64 
L 301.92 512.64 
L 306.4 512.64 
L 310.88 512.64 
L 315.36 512.64 
L 319.84 512.64 
L 324.32 512.64 
L 328.8 512.64 
L 333.28 512.64 
L 337.76 512.64 
L 342.24 512.64 
L 346.72 512.64 
L 351.2 512.64 
L 355.68 512.64 
L 360.16 512.64 
L 364.64 512.64 
L 369.12 512.64 
L 373.6 512.64 
L 378.08 512.64 
L 382.56 512.64 
L 387.04 512.64 
L 391.52 512.64 
L 396 512.64 
L 400.48 512.64 
L 404.96 512.64 
L 409.44 512.64 
L 413.92 512.64 
L 418.4 512.64 
L 422.88 512.64 
L 427.36 512.64 
L 431.84 512.64 
L 436.32 512.64 
L 440.8 512.64 
L 445.28 512.64 
L 449.76 512.64 
L 454.24 512.64 
L 458.72 512.64 
L 463.2 512.64 
L 467.68 512.64 
L 472.16 512.64 
L 476.64 512.64 
L 481.12 512.64 
L 485.6 512.64 
L 490.08 512.64 
L 494.56 512.64 
L 499.04 512.64 
L 503.52 512.64 
L 508 512.64 
L 512.48 512.64 
L 516.96 512.64 
L 516.96 508.16 
L 516.96 503.68 
L 516.96 499.2 
L 516.96 494.72 
L 516.96 490.24 
L 516.96 485.76 
L 516.96 481.28 
L 516.96 476.8 
L 516.96 472.32 
L 516.96 467.84 
L 516.96 463.36 
L 516.96 458.88 
L 516.96 454.4 
L 516.96 449.92 
L 516.96 445.44 
L 516.96 440.96 
L 516.96 436.48 
L 516.96 432 
L 516.96 427.52 
L 516.96 423.04 
L 516.96 418.56 
L 516.96 414.08 
L 516.96 409.6 
L 516.96 405.12 
L 516.96 400.64 
L 516.96 396.16 
L 516.96 391.68 
L 516.96 387.2 
L 516.96 382.72 
L 516.96 378.24 
L 516.96 373.76 
L 516.96 369.28 
L 516.96 364.8 
L 516.96 360.32 
L 516.96 355.84 
L 516.96 351.36 
L 516.96 346.88 
L 516.96 342.4 
L 516.96 337.92 
L 516.96 333.44 
L 516.96 328.96 
L 516.96 324.48 
L 516.96 320 
L 516.96 315.52 
L 516.96 311.04 
L 516.96 306.56 
L 516.96 302.08 
L 516.96 297.6 
L 516.96 293.12 
L 516.96 288.64 
L 516.96 284.16 
L 516.96 279.68 
L 516.96 275.2 
L 516.96 270.72 
L 516.96 266.24 
L 516.96 261.76 
L 516.96 257.28 
L 516.96 252.8 
L 516.96 248.32 
L 516.96 243.84 
L 516.96 239.36 
L 516.96 234.88 
L 516.96 230.4 
L 516.96 225.92 
L 516.96 221.44 
L 516.96 216.96 
L 516.96 212.48 
L 516.96 208.591375 
L 515.660179 208 
L 512.48 206.553101 
L 508 204.514837 
L 505.813422 203.52 
L 503.52 202.476558 
L 499.04 200.438294 
L 495.96663 199.04 
L 494.56 198.400012 
L 490.08 196.361738 
L 486.12007 194.56 
L 485.6 194.329173 
L 481.12 192.451848 
L 476.64 190.625964 
L 475.300362 190.08 
L 472.16 188.80013 
L 467.68 186.974234 
L 464.308233 185.6 
L 463.2 185.148315 
L 458.72 183.322446 
L 454.24 181.496566 
L 453.316058 181.12 
L 449.76 179.670687 
L 445.28 177.844774 
L 442.323907 176.64 
L 440.8 176.018926 
L 436.32 174.193021 
L 431.84 172.367186 
L 431.331668 172.16 
L 427.36 170.853752 
L 422.88 169.278627 
L 418.646131 167.68 
L 418.4 167.609156 
L 413.92 166.319712 
L 409.44 165.030274 
L 404.96 163.7408 
L 403.081054 163.2 
L 400.48 162.598795 
L 396 161.563307 
L 391.52 160.527778 
L 387.04 159.492212 
L 383.699241 158.72 
L 382.56 158.457417 
L 378.08 157.424827 
L 373.6 156.392208 
L 369.12 155.359633 
L 364.64 154.327009 
L 364.262505 154.24 
L 360.16 153.29441 
L 355.68 152.261809 
L 351.2 151.229216 
L 346.72 150.196586 
L 344.825799 149.76 
L 342.24 149.164008 
L 337.76 148.131379 
L 333.28 147.098774 
L 328.8 146.066181 
L 325.38911 145.28 
L 324.32 145.03358 
L 319.84 144.153402 
L 315.36 143.686859 
L 310.88 143.669551 
L 306.4 143.909192 
L 301.92 144.148834 
L 297.44 144.388496 
L 292.96 144.628142 
L 288.48 144.867796 
L 284 145.107438 
L 280.774124 145.28 
L 279.52 145.347087 
L 275.04 145.586743 
L 270.56 145.826381 
L 266.08 146.066045 
L 261.6 146.305682 
L 257.12 146.54533 
L 252.64 146.812564 
L 248.16 147.19113 
L 243.68 147.633911 
L 239.2 148.578113 
L 234.985957 149.76 
L 234.72 149.844794 
L 230.24 151.273112 
L 225.76 153.098065 
L 223.826206 154.24 
L 221.28 157.074606 
L 219.802011 158.72 
L 216.8 162.083536 
L 215.803559 163.2 
L 213.44478 167.68 
L 212.32 169.816304 
L 211.086023 172.16 
L 208.727228 176.64 
L 207.84 178.325079 
L 206.368428 181.12 
L 204.009664 185.6 
L 203.36 186.833884 
L 201.650877 190.08 
L 199.292111 194.56 
L 198.88 195.342715 
L 196.933315 199.04 
L 194.574543 203.52 
L 194.4 203.851505 
L 192.215759 208 
L 193.710841 212.48 
L 194.4 212.968562 
L 198.88 216.144544 
L 200.030276 216.96 
L 203.36 219.320505 
L 206.349749 221.44 
L 207.84 222.49647 
L 212.32 225.67247 
L 212.669162 225.92 
L 216.8 228.848428 
L 218.988657 230.4 
L 221.28 232.024389 
L 225.308193 234.88 
L 225.76 235.200293 
L 230.24 238.376366 
L 231.62753 239.36 
L 234.72 241.552261 
L 237.947075 243.84 
L 239.2 244.728236 
L 243.68 247.904228 
L 244.26648 248.32 
L 248.16 251.080175 
L 250.58595 252.8 
L 252.64 254.256163 
L 256.905434 257.28 
L 257.12 257.432112 
L 261.6 260.608063 
L 263.224966 261.76 
L 266.08 263.783999 
L 269.544344 266.24 
L 270.56 266.960017 
L 275.04 270.135987 
L 275.86381 270.72 
L 279.52 273.311977 
L 282.183294 275.2 
L 284 276.487877 
L 288.48 279.663882 
L 288.502735 279.68 
L 292.96 282.839806 
L 294.822265 284.16 
L 297.44 286.015801 
L 301.141618 288.64 
L 301.92 289.191813 
L 306.4 292.367772 
L 307.461082 293.12 
L 310.88 295.543683 
L 313.780622 297.6 
L 315.36 298.719661 
L 319.84 301.895677 
L 320.100001 302.08 
L 324.32 305.071623 
L 326.419542 306.56 
L 328.8 308.247544 
L 332.73903 311.04 
L 333.28 311.423505 
L 337.76 314.599488 
L 339.072811 315.52 
L 342.24 317.615588 
L 346.079237 320 
L 346.72 320.397963 
L 351.2 323.180289 
L 353.292714 324.48 
L 355.68 325.962659 
L 360.16 328.745061 
L 360.506083 328.96 
L 364.64 331.527371 
L 367.719668 333.44 
L 369.12 334.309698 
L 373.6 337.092115 
L 374.933055 337.92 
L 378.08 339.874393 
L 382.146564 342.4 
L 382.56 342.656773 
L 387.04 345.439147 
L 389.360006 346.88 
L 391.52 348.22148 
L 396 351.003852 
L 396.573458 351.36 
L 400.48 353.786215 
L 403.786916 355.84 
L 404.96 356.568541 
L 409.44 359.350861 
L 411.000467 360.32 
L 413.92 362.133254 
L 418.213966 364.8 
L 418.4 364.915534 
L 422.88 367.697918 
L 425.427362 369.28 
L 427.36 370.480311 
L 430.084595 373.76 
L 431.84 377.156668 
L 432.270049 378.24 
L 433.073507 382.72 
L 432.906653 387.2 
L 432.650618 391.68 
L 432.327022 396.16 
L 431.84 398.404165 
L 431.375265 400.64 
L 430.254962 405.12 
L 429.134691 409.6 
L 428.014397 414.08 
L 427.36 416.696966 
L 426.827699 418.56 
L 422.88 422.730809 
L 422.443086 423.04 
L 418.4 425.625132 
L 415.436473 427.52 
L 413.92 428.489632 
L 409.44 431.354141 
L 408.429901 432 
L 404.96 434.218643 
L 401.423261 436.48 
L 400.48 437.083121 
L 396 439.947638 
L 394.416695 440.96 
L 391.52 442.812142 
L 387.410085 445.44 
L 387.04 445.676631 
L 382.56 448.376341 
L 378.991219 449.92 
L 378.08 450.360543 
L 373.6 450.91129 
L 369.12 450.806776 
L 364.64 450.646797 
L 362.634626 449.92 
L 360.16 448.385855 
L 355.68 445.608625 
L 355.407993 445.44 
L 351.2 442.831341 
L 348.181301 440.96 
L 346.72 440.054104 
L 342.24 437.276692 
L 340.954898 436.48 
L 337.76 434.49941 
L 333.728106 432 
L 333.28 431.722207 
L 328.8 428.944917 
L 326.50156 427.52 
L 324.32 426.167581 
L 319.84 423.390319 
L 319.274902 423.04 
L 315.36 420.613089 
L 312.048181 418.56 
L 310.88 417.835806 
L 306.4 415.058457 
L 304.821672 414.08 
L 301.92 412.281197 
L 297.594983 409.6 
L 297.44 409.503923 
L 292.96 406.726668 
L 290.368294 405.12 
L 288.48 403.949327 
L 284 401.17204 
L 283.141765 400.64 
L 279.52 398.394783 
L 275.915177 396.16 
L 275.04 395.617438 
L 270.56 392.84017 
L 268.688555 391.68 
L 266.08 390.062931 
L 261.6 387.285575 
L 261.461573 387.2 
L 257.12 384.707472 
L 253.261723 382.72 
L 252.64 382.399732 
L 248.16 380.091939 
L 244.564874 378.24 
L 243.68 377.784186 
L 239.2 375.476443 
L 235.867872 373.76 
L 234.72 373.168711 
L 230.24 370.860968 
L 227.170896 369.28 
L 225.76 368.553203 
L 221.28 366.245462 
L 218.474011 364.8 
L 216.8 363.937668 
L 212.32 361.629967 
L 209.77696 360.32 
L 207.84 359.322215 
L 203.36 357.014472 
L 201.080054 355.84 
L 198.88 354.70668 
L 194.4 352.398961 
L 192.383048 351.36 
L 189.92 350.091236 
L 185.44 347.783472 
L 183.686062 346.88 
L 180.96 345.475754 
L 176.48 343.154208 
L 176.085106 342.4 
L 173.310508 337.92 
L 172 336.23641 
L 170.373055 333.44 
L 167.766605 328.96 
L 167.52 328.536133 
L 165.160161 324.48 
L 163.04 320.83581 
L 162.55373 320 
L 159.947301 315.52 
L 158.56 313.135492 
L 157.340842 311.04 
L 154.734417 306.56 
L 154.08 305.435186 
L 152.127954 302.08 
L 149.6 297.734874 
L 149.521531 297.6 
L 146.915089 293.12 
L 145.12 290.034573 
L 144.308642 288.64 
L 141.702215 284.16 
L 140.64 282.334257 
L 139.095757 279.68 
L 136.489319 275.2 
L 136.16 274.633957 
L 133.88288 270.72 
L 131.68 266.933684 
L 131.276415 266.24 
L 128.669986 261.76 
L 127.2 259.233361 
L 126.063548 257.28 
L 123.457103 252.8 
L 122.72 251.533062 
L 120.384254 248.32 
L 118.24 247.254237 
L 113.76 245.995842 
L 109.28 244.737431 
L 106.085054 243.84 
L 104.8 243.479042 
L 100.32 242.220635 
L 95.84 240.962244 
L 91.36 239.703841 
L 90.1359 239.36 
L 86.88 238.445435 
L 82.4 237.204224 
L 77.92 236.115943 
L 73.44 235.079298 
L 73.44 239.36 
L 73.44 243.84 
L 73.44 248.32 
L 73.44 252.8 
L 73.44 257.28 
L 73.44 261.76 
L 73.44 266.24 
L 73.44 270.72 
L 73.44 275.2 
L 73.44 279.68 
L 73.44 284.16 
L 73.44 288.64 
L 73.44 293.12 
L 73.44 297.6 
L 73.44 302.08 
L 73.44 306.56 
L 73.44 311.04 
L 73.44 315.52 
L 73.44 320 
L 73.44 324.48 
L 73.44 328.96 
L 73.44 333.44 
L 73.44 337.92 
L 73.44 342.4 
L 73.44 346.88 
L 73.44 351.36 
L 73.44 355.84 
L 73.44 360.32 
L 73.44 364.8 
L 73.44 369.28 
L 73.44 373.76 
L 73.44 378.24 
L 73.44 382.72 
L 73.44 387.2 
L 73.44 391.68 
L 73.44 396.16 
L 73.44 400.64 
L 73.44 405.12 
L 73.44 409.6 
L 73.44 414.08 
L 73.44 418.56 
L 73.44 423.04 
L 73.44 427.52 
L 73.44 432 
L 73.44 436.48 
L 73.44 440.96 
L 73.44 445.44 
L 73.44 449.92 
L 73.44 454.4 
L 73.44 458.88 
L 73.44 463.36 
L 73.44 467.84 
L 73.44 472.32 
L 73.44 476.8 
L 73.44 481.28 
L 73.44 485.76 
L 73.44 490.24 
L 73.44 494.72 
L 73.44 499.2 
L 73.44 503.68 
L 73.44 508.16 
L 73.44 512.64 
z
" style="fill:#f4987a;"/>
   </g>
   <g id="PathCollection_3">
    <defs>
     <path d="M 0 4.1833 
C 1.109424 4.1833 2.173559 3.742521 2.95804 2.95804 
C 3.742521 2.173559 4.1833 1.109424 4.1833 0 
C 4.1833 -1.109424 3.742521 -2.173559 2.95804 -2.95804 
C 2.173559 -3.742521 1.109424 -4.1833 0 -4.1833 
C -1.109424 -4.1833 -2.173559 -3.742521 -2.95804 -2.95804 
C -3.742521 -2.173559 -4.1833 -1.109424 -4.1833 0 
C -4.1833 1.109424 -3.742521 2.173559 -2.95804 2.95804 
C -2.173559 3.742521 -1.109424 4.1833 0 4.1833 
z
" id="C0_0_1bd7328d43"/>
    </defs>
    <g clip-path="url(#p8cffa49c19)">
     <use style="fill:#b40426;stroke:#b40426;" x="317.729876" xlink:href="#C0_0_1bd7328d43" y="198.562277"/>
    </g>
    <g clip-path="url(#p8cffa49c19)">
     <use style="fill:#3b4cc0;stroke:#3b4cc0;" x="202.462066" xlink:href="#C0_0_1bd7328d43" y="286.077742"/>
    </g>
    <g clip-path="url(#p8cffa49c19)">
     <use style="fill:#3b4cc0;stroke:#3b4cc0;" x="469.479835" xlink:href="#C0_0_1bd7328d43" y="115.116083"/>
    </g>
    <g clip-path="url(#p8cffa49c19)">
     <use style="fill:#b40426;stroke:#b40426;" x="129.1396" xlink:href="#C0_0_1bd7328d43" y="420.72364"/>
    </g>
    <g clip-path="url(#p8cffa49c19)">
     <use style="fill:#3b4cc0;stroke:#3b4cc0;" x="361.348371" xlink:href="#C0_0_1bd7328d43" y="389.125315"/>
    </g>
    <g clip-path="url(#p8cffa49c19)">
     <use style="fill:#b40426;stroke:#b40426;" x="268.790029" xlink:href="#C0_0_1bd7328d43" y="443.066019"/>
    </g>
    <g clip-path="url(#p8cffa49c19)">
     <use style="fill:#3b4cc0;stroke:#3b4cc0;" x="245.51301" xlink:href="#C0_0_1bd7328d43" y="97.335117"/>
    </g>
    <g clip-path="url(#p8cffa49c19)">
     <use style="fill:#b40426;stroke:#b40426;" x="504.365193" xlink:href="#C0_0_1bd7328d43" y="410.371294"/>
    </g>
    <g clip-path="url(#p8cffa49c19)">
     <use style="fill:#b40426;stroke:#b40426;" x="450.862836" xlink:href="#C0_0_1bd7328d43" y="271.545056"/>
    </g>
    <g clip-path="url(#p8cffa49c19)">
     <use style="fill:#3b4cc0;stroke:#3b4cc0;" x="106.093571" xlink:href="#C0_0_1bd7328d43" y="116.84578"/>
    </g>
    <g clip-path="url(#p8cffa49c19)">
     <use style="fill:#b40426;stroke:#b40426;" x="80.137495" xlink:href="#C0_0_1bd7328d43" y="323.87579"/>
    </g>
    <g clip-path="url(#p8cffa49c19)">
     <use style="fill:#b40426;stroke:#b40426;" x="433.106614" xlink:href="#C0_0_1bd7328d43" y="509.405798"/>
    </g>
   </g>
   <g id="patch_3">
    <path clip-path="url(#p8cffa49c19)" d="M 282.248286 234.043878 
L 353.211486 234.043878 
L 353.211486 163.080678 
L 282.248286 163.080678 
z
" style="fill:none;stroke:#000000;stroke-linejoin:miter;"/>
   </g>
   <g id="patch_4">
    <path clip-path="url(#p8cffa49c19)" d="M 166.98047 321.559341 
L 237.94367 321.559341 
L 237.94367 250.596141 
L 166.98047 250.596141 
z
" style="fill:none;stroke:#000000;stroke-linejoin:miter;"/>
   </g>
   <g id="patch_5">
    <path clip-path="url(#p8cffa49c19)" d="M 433.998233 150.597689 
L 504.961433 150.597689 
L 504.961433 79.634489 
L 433.998233 79.634489 
z
" style="fill:none;stroke:#000000;stroke-linejoin:miter;"/>
   </g>
   <g id="patch_6">
    <path clip-path="url(#p8cffa49c19)" d="M 93.657997 456.205239 
L 164.621197 456.205239 
L 164.621197 385.242039 
L 93.657997 385.242039 
z
" style="fill:none;stroke:#000000;stroke-linejoin:miter;"/>
   </g>
   <g id="patch_7">
    <path clip-path="url(#p8cffa49c19)" d="M 325.866768 424.60692 
L 396.829968 424.60692 
L 396.829968 353.64372 
L 325.866768 353.64372 
z
" style="fill:none;stroke:#000000;stroke-linejoin:miter;"/>
   </g>
   <g id="patch_8">
    <path clip-path="url(#p8cffa49c19)" d="M 233.308433 478.547621 
L 304.271633 478.547621 
L 304.271633 407.584421 
L 233.308433 407.584421 
z
" style="fill:none;stroke:#000000;stroke-linejoin:miter;"/>
   </g>
   <g id="patch_9">
    <path clip-path="url(#p8cffa49c19)" d="M 210.031412 132.816724 
L 280.994612 132.816724 
L 280.994612 61.853524 
L 210.031412 61.853524 
z
" style="fill:none;stroke:#000000;stroke-linejoin:miter;"/>
   </g>
   <g id="patch_10">
    <path clip-path="url(#p8cffa49c19)" d="M 468.883588 445.852894 
L 539.846788 445.852894 
L 539.846788 374.889694 
L 468.883588 374.889694 
z
" style="fill:none;stroke:#000000;stroke-linejoin:miter;"/>
   </g>
   <g id="patch_11">
    <path clip-path="url(#p8cffa49c19)" d="M 415.381243 307.026644 
L 486.344443 307.026644 
L 486.344443 236.063444 
L 415.381243 236.063444 
z
" style="fill:none;stroke:#000000;stroke-linejoin:miter;"/>
   </g>
   <g id="patch_12">
    <path clip-path="url(#p8cffa49c19)" d="M 70.61197 152.327373 
L 141.57517 152.327373 
L 141.57517 81.364173 
L 70.61197 81.364173 
z
" style="fill:none;stroke:#000000;stroke-linejoin:miter;"/>
   </g>
   <g id="patch_13">
    <path clip-path="url(#p8cffa49c19)" d="M 44.655895 359.35739 
L 115.619095 359.35739 
L 115.619095 288.39419 
L 44.655895 288.39419 
z
" style="fill:none;stroke:#000000;stroke-linejoin:miter;"/>
   </g>
   <g id="patch_14">
    <path clip-path="url(#p8cffa49c19)" d="M 397.625006 544.887398 
L 468.588206 544.887398 
L 468.588206 473.924198 
L 397.625006 473.924198 
z
" style="fill:none;stroke:#000000;stroke-linejoin:miter;"/>
   </g>
   <g id="matplotlib.axis_1">
    <g id="xtick_1">
     <g id="line2d_1">
      <defs>
       <path d="M 0 0 
L 0 3.5 
" id="m0b4bea130d" style="stroke:#000000;stroke-width:0.8;"/>
      </defs>
      <g>
       <use style="stroke:#000000;stroke-width:0.8;" x="73.44" xlink:href="#m0b4bea130d" y="512.64"/>
      </g>
     </g>
     <g id="text_1">
      <!-- 0.0 -->
      <defs>
       <path d="M 31.78125 66.40625 
Q 24.171875 66.40625 20.328125 58.90625 
Q 16.5 51.421875 16.5 36.375 
Q 16.5 21.390625 20.328125 13.890625 
Q 24.171875 6.390625 31.78125 6.390625 
Q 39.453125 6.390625 43.28125 13.890625 
Q 47.125 21.390625 47.125 36.375 
Q 47.125 51.421875 43.28125 58.90625 
Q 39.453125 66.40625 31.78125 66.40625 
z
M 31.78125 74.21875 
Q 44.046875 74.21875 50.515625 64.515625 
Q 56.984375 54.828125 56.984375 36.375 
Q 56.984375 17.96875 50.515625 8.265625 
Q 44.046875 -1.421875 31.78125 -1.421875 
Q 19.53125 -1.421875 13.0625 8.265625 
Q 6.59375 17.96875 6.59375 36.375 
Q 6.59375 54.828125 13.0625 64.515625 
Q 19.53125 74.21875 31.78125 74.21875 
z
" id="DejaVuSans-30"/>
       <path d="M 10.6875 12.40625 
L 21 12.40625 
L 21 0 
L 10.6875 0 
z
" id="DejaVuSans-2e"/>
      </defs>
      <g transform="translate(65.488438 527.238438)scale(0.1 -0.1)">
       <use xlink:href="#DejaVuSans-30"/>
       <use x="63.623047" xlink:href="#DejaVuSans-2e"/>
       <use x="95.410156" xlink:href="#DejaVuSans-30"/>
      </g>
     </g>
    </g>
    <g id="xtick_2">
     <g id="line2d_2">
      <g>
       <use style="stroke:#000000;stroke-width:0.8;" x="162.144" xlink:href="#m0b4bea130d" y="512.64"/>
      </g>
     </g>
     <g id="text_2">
      <!-- 0.2 -->
      <defs>
       <path d="M 19.1875 8.296875 
L 53.609375 8.296875 
L 53.609375 0 
L 7.328125 0 
L 7.328125 8.296875 
Q 12.9375 14.109375 22.625 23.890625 
Q 32.328125 33.6875 34.8125 36.53125 
Q 39.546875 41.84375 41.421875 45.53125 
Q 43.3125 49.21875 43.3125 52.78125 
Q 43.3125 58.59375 39.234375 62.25 
Q 35.15625 65.921875 28.609375 65.921875 
Q 23.96875 65.921875 18.8125 64.3125 
Q 13.671875 62.703125 7.8125 59.421875 
L 7.8125 69.390625 
Q 13.765625 71.78125 18.9375 73 
Q 24.125 74.21875 28.421875 74.21875 
Q 39.75 74.21875 46.484375 68.546875 
Q 53.21875 62.890625 53.21875 53.421875 
Q 53.21875 48.921875 51.53125 44.890625 
Q 49.859375 40.875 45.40625 35.40625 
Q 44.1875 33.984375 37.640625 27.21875 
Q 31.109375 20.453125 19.1875 8.296875 
z
" id="DejaVuSans-32"/>
      </defs>
      <g transform="translate(154.192438 527.238438)scale(0.1 -0.1)">
       <use xlink:href="#DejaVuSans-30"/>
       <use x="63.623047" xlink:href="#DejaVuSans-2e"/>
       <use x="95.410156" xlink:href="#DejaVuSans-32"/>
      </g>
     </g>
    </g>
    <g id="xtick_3">
     <g id="line2d_3">
      <g>
       <use style="stroke:#000000;stroke-width:0.8;" x="250.848" xlink:href="#m0b4bea130d" y="512.64"/>
      </g>
     </g>
     <g id="text_3">
      <!-- 0.4 -->
      <defs>
       <path d="M 37.796875 64.3125 
L 12.890625 25.390625 
L 37.796875 25.390625 
z
M 35.203125 72.90625 
L 47.609375 72.90625 
L 47.609375 25.390625 
L 58.015625 25.390625 
L 58.015625 17.1875 
L 47.609375 17.1875 
L 47.609375 0 
L 37.796875 0 
L 37.796875 17.1875 
L 4.890625 17.1875 
L 4.890625 26.703125 
z
" id="DejaVuSans-34"/>
      </defs>
      <g transform="translate(242.896438 527.238438)scale(0.1 -0.1)">
       <use xlink:href="#DejaVuSans-30"/>
       <use x="63.623047" xlink:href="#DejaVuSans-2e"/>
       <use x="95.410156" xlink:href="#DejaVuSans-34"/>
      </g>
     </g>
    </g>
    <g id="xtick_4">
     <g id="line2d_4">
      <g>
       <use style="stroke:#000000;stroke-width:0.8;" x="339.552" xlink:href="#m0b4bea130d" y="512.64"/>
      </g>
     </g>
     <g id="text_4">
      <!-- 0.6 -->
      <defs>
       <path d="M 33.015625 40.375 
Q 26.375 40.375 22.484375 35.828125 
Q 18.609375 31.296875 18.609375 23.390625 
Q 18.609375 15.53125 22.484375 10.953125 
Q 26.375 6.390625 33.015625 6.390625 
Q 39.65625 6.390625 43.53125 10.953125 
Q 47.40625 15.53125 47.40625 23.390625 
Q 47.40625 31.296875 43.53125 35.828125 
Q 39.65625 40.375 33.015625 40.375 
z
M 52.59375 71.296875 
L 52.59375 62.3125 
Q 48.875 64.0625 45.09375 64.984375 
Q 41.3125 65.921875 37.59375 65.921875 
Q 27.828125 65.921875 22.671875 59.328125 
Q 17.53125 52.734375 16.796875 39.40625 
Q 19.671875 43.65625 24.015625 45.921875 
Q 28.375 48.1875 33.59375 48.1875 
Q 44.578125 48.1875 50.953125 41.515625 
Q 57.328125 34.859375 57.328125 23.390625 
Q 57.328125 12.15625 50.6875 5.359375 
Q 44.046875 -1.421875 33.015625 -1.421875 
Q 20.359375 -1.421875 13.671875 8.265625 
Q 6.984375 17.96875 6.984375 36.375 
Q 6.984375 53.65625 15.1875 63.9375 
Q 23.390625 74.21875 37.203125 74.21875 
Q 40.921875 74.21875 44.703125 73.484375 
Q 48.484375 72.75 52.59375 71.296875 
z
" id="DejaVuSans-36"/>
      </defs>
      <g transform="translate(331.600437 527.238438)scale(0.1 -0.1)">
       <use xlink:href="#DejaVuSans-30"/>
       <use x="63.623047" xlink:href="#DejaVuSans-2e"/>
       <use x="95.410156" xlink:href="#DejaVuSans-36"/>
      </g>
     </g>
    </g>
    <g id="xtick_5">
     <g id="line2d_5">
      <g>
       <use style="stroke:#000000;stroke-width:0.8;" x="428.256" xlink:href="#m0b4bea130d" y="512.64"/>
      </g>
     </g>
     <g id="text_5">
      <!-- 0.8 -->
      <defs>
       <path d="M 31.78125 34.625 
Q 24.75 34.625 20.71875 30.859375 
Q 16.703125 27.09375 16.703125 20.515625 
Q 16.703125 13.921875 20.71875 10.15625 
Q 24.75 6.390625 31.78125 6.390625 
Q 38.8125 6.390625 42.859375 10.171875 
Q 46.921875 13.96875 46.921875 20.515625 
Q 46.921875 27.09375 42.890625 30.859375 
Q 38.875 34.625 31.78125 34.625 
z
M 21.921875 38.8125 
Q 15.578125 40.375 12.03125 44.71875 
Q 8.5 49.078125 8.5 55.328125 
Q 8.5 64.0625 14.71875 69.140625 
Q 20.953125 74.21875 31.78125 74.21875 
Q 42.671875 74.21875 48.875 69.140625 
Q 55.078125 64.0625 55.078125 55.328125 
Q 55.078125 49.078125 51.53125 44.71875 
Q 48 40.375 41.703125 38.8125 
Q 48.828125 37.15625 52.796875 32.3125 
Q 56.78125 27.484375 56.78125 20.515625 
Q 56.78125 9.90625 50.3125 4.234375 
Q 43.84375 -1.421875 31.78125 -1.421875 
Q 19.734375 -1.421875 13.25 4.234375 
Q 6.78125 9.90625 6.78125 20.515625 
Q 6.78125 27.484375 10.78125 32.3125 
Q 14.796875 37.15625 21.921875 38.8125 
z
M 18.3125 54.390625 
Q 18.3125 48.734375 21.84375 45.5625 
Q 25.390625 42.390625 31.78125 42.390625 
Q 38.140625 42.390625 41.71875 45.5625 
Q 45.3125 48.734375 45.3125 54.390625 
Q 45.3125 60.0625 41.71875 63.234375 
Q 38.140625 66.40625 31.78125 66.40625 
Q 25.390625 66.40625 21.84375 63.234375 
Q 18.3125 60.0625 18.3125 54.390625 
z
" id="DejaVuSans-38"/>
      </defs>
      <g transform="translate(420.304438 527.238438)scale(0.1 -0.1)">
       <use xlink:href="#DejaVuSans-30"/>
       <use x="63.623047" xlink:href="#DejaVuSans-2e"/>
       <use x="95.410156" xlink:href="#DejaVuSans-38"/>
      </g>
     </g>
    </g>
    <g id="xtick_6">
     <g id="line2d_6">
      <g>
       <use style="stroke:#000000;stroke-width:0.8;" x="516.96" xlink:href="#m0b4bea130d" y="512.64"/>
      </g>
     </g>
     <g id="text_6">
      <!-- 1.0 -->
      <defs>
       <path d="M 12.40625 8.296875 
L 28.515625 8.296875 
L 28.515625 63.921875 
L 10.984375 60.40625 
L 10.984375 69.390625 
L 28.421875 72.90625 
L 38.28125 72.90625 
L 38.28125 8.296875 
L 54.390625 8.296875 
L 54.390625 0 
L 12.40625 0 
z
" id="DejaVuSans-31"/>
      </defs>
      <g transform="translate(509.008438 527.238438)scale(0.1 -0.1)">
       <use xlink:href="#DejaVuSans-31"/>
       <use x="63.623047" xlink:href="#DejaVuSans-2e"/>
       <use x="95.410156" xlink:href="#DejaVuSans-30"/>
      </g>
     </g>
    </g>
   </g>
   <g id="matplotlib.axis_2">
    <g id="ytick_1">
     <g id="line2d_7">
      <defs>
       <path d="M 0 0 
L -3.5 0 
" id="m2d5fcf1a11" style="stroke:#000000;stroke-width:0.8;"/>
      </defs>
      <g>
       <use style="stroke:#000000;stroke-width:0.8;" x="72" xlink:href="#m2d5fcf1a11" y="512.64"/>
      </g>
     </g>
     <g id="text_7">
      <!-- 0.0 -->
      <g transform="translate(49.096875 516.439219)scale(0.1 -0.1)">
       <use xlink:href="#DejaVuSans-30"/>
       <use x="63.623047" xlink:href="#DejaVuSans-2e"/>
       <use x="95.410156" xlink:href="#DejaVuSans-30"/>
      </g>
     </g>
    </g>
    <g id="ytick_2">
     <g id="line2d_8">
      <g>
       <use style="stroke:#000000;stroke-width:0.8;" x="72" xlink:href="#m2d5fcf1a11" y="423.936"/>
      </g>
     </g>
     <g id="text_8">
      <!-- 0.2 -->
      <g transform="translate(49.096875 427.735219)scale(0.1 -0.1)">
       <use xlink:href="#DejaVuSans-30"/>
       <use x="63.623047" xlink:href="#DejaVuSans-2e"/>
       <use x="95.410156" xlink:href="#DejaVuSans-32"/>
      </g>
     </g>
    </g>
    <g id="ytick_3">
     <g id="line2d_9">
      <g>
       <use style="stroke:#000000;stroke-width:0.8;" x="72" xlink:href="#m2d5fcf1a11" y="335.232"/>
      </g>
     </g>
     <g id="text_9">
      <!-- 0.4 -->
      <g transform="translate(49.096875 339.031219)scale(0.1 -0.1)">
       <use xlink:href="#DejaVuSans-30"/>
       <use x="63.623047" xlink:href="#DejaVuSans-2e"/>
       <use x="95.410156" xlink:href="#DejaVuSans-34"/>
      </g>
     </g>
    </g>
    <g id="ytick_4">
     <g id="line2d_10">
      <g>
       <use style="stroke:#000000;stroke-width:0.8;" x="72" xlink:href="#m2d5fcf1a11" y="246.528"/>
      </g>
     </g>
     <g id="text_10">
      <!-- 0.6 -->
      <g transform="translate(49.096875 250.327219)scale(0.1 -0.1)">
       <use xlink:href="#DejaVuSans-30"/>
       <use x="63.623047" xlink:href="#DejaVuSans-2e"/>
       <use x="95.410156" xlink:href="#DejaVuSans-36"/>
      </g>
     </g>
    </g>
    <g id="ytick_5">
     <g id="line2d_11">
      <g>
       <use style="stroke:#000000;stroke-width:0.8;" x="72" xlink:href="#m2d5fcf1a11" y="157.824"/>
      </g>
     </g>
     <g id="text_11">
      <!-- 0.8 -->
      <g transform="translate(49.096875 161.623219)scale(0.1 -0.1)">
       <use xlink:href="#DejaVuSans-30"/>
       <use x="63.623047" xlink:href="#DejaVuSans-2e"/>
       <use x="95.410156" xlink:href="#DejaVuSans-38"/>
      </g>
     </g>
    </g>
    <g id="ytick_6">
     <g id="line2d_12">
      <g>
       <use style="stroke:#000000;stroke-width:0.8;" x="72" xlink:href="#m2d5fcf1a11" y="69.12"/>
      </g>
     </g>
     <g id="text_12">
      <!-- 1.0 -->
      <g transform="translate(49.096875 72.919219)scale(0.1 -0.1)">
       <use xlink:href="#DejaVuSans-31"/>
       <use x="63.623047" xlink:href="#DejaVuSans-2e"/>
       <use x="95.410156" xlink:href="#DejaVuSans-30"/>
      </g>
     </g>
    </g>
   </g>
   <g id="patch_15">
    <path d="M 72 512.64 
L 72 69.12 
" style="fill:none;stroke:#000000;stroke-linecap:square;stroke-linejoin:miter;stroke-width:0.8;"/>
   </g>
   <g id="patch_16">
    <path d="M 518.4 512.64 
L 518.4 69.12 
" style="fill:none;stroke:#000000;stroke-linecap:square;stroke-linejoin:miter;stroke-width:0.8;"/>
   </g>
   <g id="patch_17">
    <path d="M 72 512.64 
L 518.4 512.64 
" style="fill:none;stroke:#000000;stroke-linecap:square;stroke-linejoin:miter;stroke-width:0.8;"/>
   </g>
   <g id="patch_18">
    <path d="M 72 69.12 
L 518.4 69.12 
" style="fill:none;stroke:#000000;stroke-linecap:square;stroke-linejoin:miter;stroke-width:0.8;"/>
   </g>
  </g>
 </g>
 <defs>
  <clipPath id="p8cffa49c19">
   <rect height="443.52" width="446.4" x="72" y="69.12"/>
  </clipPath>
 </defs>
</svg>
