<?xml version="1.0" encoding="utf-8" standalone="no"?>
<!DOCTYPE svg PUBLIC "-//W3C//DTD SVG 1.1//EN"
  "http://www.w3.org/Graphics/SVG/1.1/DTD/svg11.dtd">
<!-- Created with matplotlib (http://matplotlib.org/) -->
<svg height="288pt" version="1.1" viewBox="0 0 432 288" width="432pt" xmlns="http://www.w3.org/2000/svg" xmlns:xlink="http://www.w3.org/1999/xlink">
 <defs>
  <style type="text/css">
*{stroke-linecap:butt;stroke-linejoin:round;}
  </style>
 </defs>
 <g id="figure_1">
  <g id="patch_1">
   <path d="M 0 288 
L 432 288 
L 432 0 
L 0 0 
z
" style="fill:#ffffff;"/>
  </g>
  <g id="axes_1">
   <g id="patch_2">
    <path d="M 54 252 
L 388.8 252 
L 388.8 34.56 
L 54 34.56 
z
" style="fill:#ffffff;"/>
   </g>
   <g id="patch_3">
    <path clip-path="url(#p8162821d91)" d="M -8.889492 300.215004 
L 83.077996 181.368446 
L 130.104123 197.709458 
L 124.214038 236.121516 
z
" style="opacity:0.6;stroke-dasharray:0,0;stroke-dashoffset:0;"/>
   </g>
   <g id="patch_4">
    <path clip-path="url(#p8162821d91)" d="M -8.889499 300.215013 
L -19.463668 261.854645 
L 20.370901 217.891833 
L 69.760544 176.740792 
L 83.077996 181.368446 
z
" style="fill:#0143da;opacity:0.6;stroke-dasharray:0,0;stroke-dashoffset:0;"/>
   </g>
   <g id="patch_5">
    <path clip-path="url(#p8162821d91)" d="M 20.370901 217.891833 
L 60.55589 173.542285 
L 69.760544 176.740792 
z
" style="fill:#0287b4;opacity:0.6;stroke-dasharray:0,0;stroke-dashoffset:0;"/>
   </g>
   <g id="patch_6">
    <path clip-path="url(#p8162821d91)" d="M -21.878627 253.093791 
L -37.334118 197.025238 
L -7.116828 150.026831 
L 60.55589 173.542285 
L 20.370901 217.891833 
z
" style="fill:#03cb8e;opacity:0.6;stroke-dasharray:0,0;stroke-dashoffset:0;"/>
   </g>
   <g id="patch_7">
    <path clip-path="url(#p8162821d91)" d="M -7.116829 150.026831 
L 39.550667 132.844824 
L 60.555887 173.542284 
z
" style="fill:#050f68;opacity:0.6;stroke-dasharray:0,0;stroke-dashoffset:0;"/>
   </g>
   <g id="patch_8">
    <path clip-path="url(#p8162821d91)" d="M 69.76054 176.74079 
L 60.555893 173.542286 
L 39.550671 132.844823 
L 48.603208 129.511866 
L 107.247767 150.134647 
L 92.353212 169.38239 
z
" style="fill:#065342;opacity:0.6;stroke-dasharray:0,0;stroke-dashoffset:0;"/>
   </g>
   <g id="patch_9">
    <path clip-path="url(#p8162821d91)" d="M 48.603208 129.511866 
L 84.671248 116.23236 
L 114.754323 140.434172 
L 107.247767 150.134647 
z
" style="fill:#07971c;opacity:0.6;stroke-dasharray:0,0;stroke-dashoffset:0;"/>
   </g>
   <g id="patch_10">
    <path clip-path="url(#p8162821d91)" d="M 48.603208 129.511866 
L 35.441572 124.883482 
L 17.439045 90.003717 
L 43.409467 83.037288 
L 84.671248 116.23236 
z
" style="fill:#08daf6;opacity:0.6;stroke-dasharray:0,0;stroke-dashoffset:0;"/>
   </g>
   <g id="patch_11">
    <path clip-path="url(#p8162821d91)" d="M 43.409467 83.037288 
L 52.945624 80.479264 
L 88.98714 114.643338 
L 84.671248 116.23236 
z
" style="fill:#0a1ed0;opacity:0.6;stroke-dasharray:0,0;stroke-dashoffset:0;"/>
   </g>
   <g id="patch_12">
    <path clip-path="url(#p8162821d91)" d="M 88.98714 114.643338 
L 52.945624 80.479264 
L 59.49417 78.722651 
L 110.674783 106.658396 
z
" style="fill:#0b62aa;opacity:0.6;stroke-dasharray:0,0;stroke-dashoffset:0;"/>
   </g>
   <g id="patch_13">
    <path clip-path="url(#p8162821d91)" d="M 52.945626 80.479263 
L 39.290534 67.694966 
L 59.49417 78.722651 
z
" style="fill:#0ca684;opacity:0.6;stroke-dasharray:0,0;stroke-dashoffset:0;"/>
   </g>
   <g id="patch_14">
    <path clip-path="url(#p8162821d91)" d="M 39.290525 67.694962 
L -14.897195 18.509039 
L 69.61266 76.008419 
L 59.49417 78.722651 
z
" style="fill:#0dea5e;opacity:0.6;stroke-dasharray:0,0;stroke-dashoffset:0;"/>
   </g>
   <g id="patch_15">
    <path clip-path="url(#p8162821d91)" d="M 69.61266 76.008419 
L -14.897195 18.509039 
L -88.52737 -48.324704 
L -65.908714 -42.883732 
L 105.005944 66.514357 
z
" style="fill:#0f2e38;opacity:0.6;stroke-dasharray:0,0;stroke-dashoffset:0;"/>
   </g>
   <g id="patch_16">
    <path clip-path="url(#p8162821d91)" d="M -65.908714 -42.883732 
L -2.022607 -27.515774 
L 122.181072 61.907219 
L 105.005944 66.514357 
z
" style="fill:#107212;opacity:0.6;stroke-dasharray:0,0;stroke-dashoffset:0;"/>
   </g>
   <g id="patch_17">
    <path clip-path="url(#p8162821d91)" d="M 59.49417 78.722651 
L 69.612649 76.008422 
L 115.034126 106.259858 
L 110.674783 106.658396 
z
" style="fill:#11b5ec;opacity:0.6;stroke-dasharray:0,0;stroke-dashoffset:0;"/>
   </g>
   <g id="patch_18">
    <path clip-path="url(#p8162821d91)" d="M 69.76054 176.74079 
L 92.353212 169.38239 
L 83.077996 181.368446 
z
" style="fill:#12f9c6;opacity:0.6;stroke-dasharray:0,0;stroke-dashoffset:0;"/>
   </g>
   <g id="patch_19">
    <path clip-path="url(#p8162821d91)" d="M 115.034138 106.259856 
L 69.612659 76.008419 
L 105.005946 66.514356 
L 137.018361 86.594392 
L 138.177441 104.144055 
z
" style="fill:#143da0;opacity:0.6;stroke-dasharray:0,0;stroke-dashoffset:0;"/>
   </g>
   <g id="patch_20">
    <path clip-path="url(#p8162821d91)" d="M 83.077996 181.368446 
L 92.353214 169.382388 
L 111.439517 158.859649 
L 130.104121 197.709458 
z
" style="fill:#15817a;opacity:0.6;stroke-dasharray:0,0;stroke-dashoffset:0;"/>
   </g>
   <g id="patch_21">
    <path clip-path="url(#p8162821d91)" d="M -2.022607 -27.515774 
L 131.604875 4.62864 
L 135.157975 58.426233 
L 122.181072 61.907219 
z
" style="fill:#16c554;opacity:0.6;stroke-dasharray:0,0;stroke-dashoffset:0;"/>
   </g>
   <g id="patch_22">
    <path clip-path="url(#p8162821d91)" d="M 84.671248 116.23236 
L 88.98714 114.643338 
L 115.364048 139.646244 
L 114.754323 140.434172 
z
" style="fill:#18092e;opacity:0.6;stroke-dasharray:0,0;stroke-dashoffset:0;"/>
   </g>
   <g id="patch_23">
    <path clip-path="url(#p8162821d91)" d="M 88.98714 114.643338 
L 110.674783 106.658396 
L 131.91833 118.253691 
L 115.364048 139.646244 
z
" style="fill:#194d08;opacity:0.6;stroke-dasharray:0,0;stroke-dashoffset:0;"/>
   </g>
   <g id="patch_24">
    <path clip-path="url(#p8162821d91)" d="M -220.214895 573.303865 
L -8.889492 300.215004 
L 124.214038 236.121516 
L 118.838925 271.175195 
z
" style="fill:#1a90e2;opacity:0.6;stroke-dasharray:0,0;stroke-dashoffset:0;"/>
   </g>
   <g id="patch_25">
    <path clip-path="url(#p8162821d91)" d="M 92.353214 169.382388 
L 107.247767 150.134647 
L 111.439517 158.859649 
z
" style="fill:#1bd4bc;opacity:0.6;stroke-dasharray:0,0;stroke-dashoffset:0;"/>
   </g>
   <g id="patch_26">
    <path clip-path="url(#p8162821d91)" d="M 105.005955 66.514354 
L 122.18106 61.907223 
L 136.042177 71.813968 
L 137.018361 86.594385 
z
" style="fill:#1d1896;opacity:0.6;stroke-dasharray:0,0;stroke-dashoffset:0;"/>
   </g>
   <g id="patch_27">
    <path clip-path="url(#p8162821d91)" d="M 111.439517 158.859649 
L 107.247767 150.134647 
L 114.754322 140.434173 
L 127.872641 149.799673 
z
" style="fill:#1e5c70;opacity:0.6;stroke-dasharray:0,0;stroke-dashoffset:0;"/>
   </g>
   <g id="patch_28">
    <path clip-path="url(#p8162821d91)" d="M 110.674783 106.658396 
L 115.034138 106.259856 
L 132.30065 117.759632 
L 131.91833 118.253691 
z
" style="fill:#1fa04a;opacity:0.6;stroke-dasharray:0,0;stroke-dashoffset:0;"/>
   </g>
   <g id="patch_29">
    <path clip-path="url(#p8162821d91)" d="M 111.439517 158.859649 
L 127.872641 149.799673 
L 141.851947 159.779854 
L 144.691823 202.778509 
L 130.104121 197.709458 
z
" style="fill:#20e424;opacity:0.6;stroke-dasharray:0,0;stroke-dashoffset:0;"/>
   </g>
   <g id="patch_30">
    <path clip-path="url(#p8162821d91)" d="M 114.754322 140.434173 
L 115.364049 139.646243 
L 128.466779 149.47211 
L 127.872641 149.799673 
z
" style="fill:#2227fe;opacity:0.6;stroke-dasharray:0,0;stroke-dashoffset:0;"/>
   </g>
   <g id="patch_31">
    <path clip-path="url(#p8162821d91)" d="M 128.466779 149.47211 
L 115.364049 139.646243 
L 131.91833 118.253691 
L 135.470933 120.192797 
L 139.643036 126.33468 
L 140.724817 142.713958 
z
" style="fill:#236bd8;opacity:0.6;stroke-dasharray:0,0;stroke-dashoffset:0;"/>
   </g>
   <g id="patch_32">
    <path clip-path="url(#p8162821d91)" d="M 115.034138 106.259856 
L 138.177441 104.144055 
L 138.543843 109.691758 
L 132.30065 117.759632 
z
" style="fill:#24afb2;opacity:0.6;stroke-dasharray:0,0;stroke-dashoffset:0;"/>
   </g>
   <g id="patch_33">
    <path clip-path="url(#p8162821d91)" d="M 118.838925 271.175195 
L 124.214038 236.121516 
L 146.194926 225.537035 
L 147.521101 245.616693 
z
" style="fill:#25f38c;opacity:0.6;stroke-dasharray:0,0;stroke-dashoffset:0;"/>
   </g>
   <g id="patch_34">
    <path clip-path="url(#p8162821d91)" d="M 122.181071 61.907219 
L 135.157975 58.426233 
L 136.042177 71.813956 
z
" style="fill:#273766;opacity:0.6;stroke-dasharray:0,0;stroke-dashoffset:0;"/>
   </g>
   <g id="patch_35">
    <path clip-path="url(#p8162821d91)" d="M 124.214038 236.121516 
L 130.104123 197.709458 
L 144.691823 202.778509 
L 146.194926 225.537035 
z
" style="fill:#287b40;opacity:0.6;stroke-dasharray:0,0;stroke-dashoffset:0;"/>
   </g>
   <g id="patch_36">
    <path clip-path="url(#p8162821d91)" d="M 128.466779 149.47211 
L 140.724817 142.713958 
L 141.83318 159.495708 
z
" style="fill:#29bf1a;opacity:0.6;stroke-dasharray:0,0;stroke-dashoffset:0;"/>
   </g>
   <g id="patch_37">
    <path clip-path="url(#p8162821d91)" d="M 131.91833 118.253691 
L 132.300646 117.759636 
L 135.470919 120.19279 
z
" style="fill:#2b02f4;opacity:0.6;stroke-dasharray:0,0;stroke-dashoffset:0;"/>
   </g>
   <g id="patch_38">
    <path clip-path="url(#p8162821d91)" d="M 135.470919 120.19279 
L 132.300646 117.759636 
L 138.543843 109.691758 
L 139.378248 122.325514 
z
" style="fill:#2c46ce;opacity:0.6;stroke-dasharray:0,0;stroke-dashoffset:0;"/>
   </g>
   <g id="patch_39">
    <path clip-path="url(#p8162821d91)" d="M 135.157975 58.426233 
L 131.604875 4.62864 
L 192.733747 19.333338 
L 173.688176 48.09071 
z
" style="fill:#2d8aa8;opacity:0.6;stroke-dasharray:0,0;stroke-dashoffset:0;"/>
   </g>
   <g id="patch_40">
    <path clip-path="url(#p8162821d91)" d="M 127.872641 149.799673 
L 128.466779 149.47211 
L 141.83318 159.495708 
L 141.851947 159.779854 
z
" style="fill:#2ece82;opacity:0.6;stroke-dasharray:0,0;stroke-dashoffset:0;"/>
   </g>
   <g id="patch_41">
    <path clip-path="url(#p8162821d91)" d="M 135.470933 120.192797 
L 139.378248 122.325514 
L 139.643036 126.33468 
z
" style="fill:#30125c;opacity:0.6;stroke-dasharray:0,0;stroke-dashoffset:0;"/>
   </g>
   <g id="patch_42">
    <path clip-path="url(#p8162821d91)" d="M 137.018361 86.59439 
L 136.042177 71.813959 
L 149.87986 85.671905 
L 144.227532 94.594047 
z
" style="fill:#315636;opacity:0.6;stroke-dasharray:0,0;stroke-dashoffset:0;"/>
   </g>
   <g id="patch_43">
    <path clip-path="url(#p8162821d91)" d="M 136.042177 71.813959 
L 135.157975 58.426233 
L 173.688184 48.090708 
L 149.87986 85.671905 
z
" style="fill:#329a10;opacity:0.6;stroke-dasharray:0,0;stroke-dashoffset:0;"/>
   </g>
   <g id="patch_44">
    <path clip-path="url(#p8162821d91)" d="M 138.177441 104.144054 
L 137.018361 86.59439 
L 144.227532 94.594047 
z
" style="fill:#33ddea;opacity:0.6;stroke-dasharray:0,0;stroke-dashoffset:0;"/>
   </g>
   <g id="patch_45">
    <path clip-path="url(#p8162821d91)" d="M 140.724818 142.713961 
L 139.643037 126.334683 
L 144.783603 140.291891 
z
" style="fill:#3521c4;opacity:0.6;stroke-dasharray:0,0;stroke-dashoffset:0;"/>
   </g>
   <g id="patch_46">
    <path clip-path="url(#p8162821d91)" d="M 144.783603 140.291891 
L 139.643037 126.334683 
L 139.378248 122.325514 
L 157.925849 132.44929 
z
" style="fill:#36659e;opacity:0.6;stroke-dasharray:0,0;stroke-dashoffset:0;"/>
   </g>
   <g id="patch_47">
    <path clip-path="url(#p8162821d91)" d="M 139.378248 122.325514 
L 138.543843 109.691758 
L 147.455314 98.175757 
L 168.193475 127.207297 
L 157.925849 132.44929 
z
" style="fill:#37a978;opacity:0.6;stroke-dasharray:0,0;stroke-dashoffset:0;"/>
   </g>
   <g id="patch_48">
    <path clip-path="url(#p8162821d91)" d="M 138.543843 109.691758 
L 138.177441 104.144054 
L 144.227532 94.594047 
L 147.455315 98.175756 
z
" style="fill:#38ed52;opacity:0.6;stroke-dasharray:0,0;stroke-dashoffset:0;"/>
   </g>
   <g id="patch_49">
    <path clip-path="url(#p8162821d91)" d="M -17.333905 572.331836 
L 118.838925 271.175196 
L 147.521101 245.616693 
L 151.588734 307.204839 
L 134.812595 348.949082 
z
" style="fill:#3a312c;opacity:0.6;stroke-dasharray:0,0;stroke-dashoffset:0;"/>
   </g>
   <g id="patch_50">
    <path clip-path="url(#p8162821d91)" d="M 141.83318 159.495709 
L 140.724818 142.713961 
L 144.783603 140.291891 
L 163.168615 190.209242 
z
" style="fill:#3b7506;opacity:0.6;stroke-dasharray:0,0;stroke-dashoffset:0;"/>
   </g>
   <g id="patch_51">
    <path clip-path="url(#p8162821d91)" d="M 144.691823 202.778509 
L 141.851946 159.779852 
L 163.390928 190.812845 
L 171.189203 211.986029 
z
" style="fill:#3cb8e0;opacity:0.6;stroke-dasharray:0,0;stroke-dashoffset:0;"/>
   </g>
   <g id="patch_52">
    <path clip-path="url(#p8162821d91)" d="M 155.259832 238.72076 
L 146.194926 225.537037 
L 144.691823 202.778509 
L 171.189202 211.986029 
L 171.962549 223.837077 
z
" style="fill:#3dfcba;opacity:0.6;stroke-dasharray:0,0;stroke-dashoffset:0;"/>
   </g>
   <g id="patch_53">
    <path clip-path="url(#p8162821d91)" d="M 147.455318 98.175753 
L 144.227535 94.594043 
L 149.87986 85.671905 
L 153.965209 89.763235 
z
" style="fill:#3f4094;opacity:0.6;stroke-dasharray:0,0;stroke-dashoffset:0;"/>
   </g>
   <g id="patch_54">
    <path clip-path="url(#p8162821d91)" d="M 147.521101 245.616693 
L 146.194926 225.537037 
L 155.259832 238.72076 
z
" style="fill:#40846e;opacity:0.6;stroke-dasharray:0,0;stroke-dashoffset:0;"/>
   </g>
   <g id="patch_55">
    <path clip-path="url(#p8162821d91)" d="M 180.557409 215.241368 
L 163.168615 190.209242 
L 144.783603 140.291891 
L 157.925849 132.44929 
L 180.89289 144.985315 
L 200.076151 186.553087 
L 192.417743 205.609586 
L 181.313827 215.504214 
z
" style="fill:#41c848;opacity:0.6;stroke-dasharray:0,0;stroke-dashoffset:0;"/>
   </g>
   <g id="patch_56">
    <path clip-path="url(#p8162821d91)" d="M 151.588734 307.204839 
L 147.521101 245.616693 
L 155.259832 238.720761 
L 175.728975 247.136422 
z
" style="fill:#430c22;opacity:0.6;stroke-dasharray:0,0;stroke-dashoffset:0;"/>
   </g>
   <g id="patch_57">
    <path clip-path="url(#p8162821d91)" d="M 168.193475 127.207297 
L 147.455314 98.175757 
L 153.965212 89.763231 
L 184.705653 118.777235 
z
" style="fill:#444ffc;opacity:0.6;stroke-dasharray:0,0;stroke-dashoffset:0;"/>
   </g>
   <g id="patch_58">
    <path clip-path="url(#p8162821d91)" d="M 141.851946 159.779852 
L 141.83318 159.495709 
L 163.168615 190.209242 
L 163.390928 190.812845 
z
" style="fill:#4593d6;opacity:0.6;stroke-dasharray:0,0;stroke-dashoffset:0;"/>
   </g>
   <g id="patch_59">
    <path clip-path="url(#p8162821d91)" d="M 153.965209 89.763235 
L 149.87986 85.671905 
L 173.688184 48.090708 
L 189.493675 43.850968 
z
" style="fill:#46d7b0;opacity:0.6;stroke-dasharray:0,0;stroke-dashoffset:0;"/>
   </g>
   <g id="patch_60">
    <path clip-path="url(#p8162821d91)" d="M 184.705653 118.777235 
L 153.965212 89.763231 
L 189.493675 43.850968 
L 239.212972 30.514028 
L 260.707088 35.68449 
L 238.312587 91.408962 
z
" style="fill:#481b8a;opacity:0.6;stroke-dasharray:0,0;stroke-dashoffset:0;"/>
   </g>
   <g id="patch_61">
    <path clip-path="url(#p8162821d91)" d="M 155.259826 238.720766 
L 171.962547 223.837079 
L 180.601198 225.79641 
L 180.87276 234.337089 
L 175.728973 247.136429 
z
" style="fill:#495f64;opacity:0.6;stroke-dasharray:0,0;stroke-dashoffset:0;"/>
   </g>
   <g id="patch_62">
    <path clip-path="url(#p8162821d91)" d="M 157.925849 132.44929 
L 168.193475 127.207297 
L 180.892881 144.985309 
z
" style="fill:#4aa33e;opacity:0.6;stroke-dasharray:0,0;stroke-dashoffset:0;"/>
   </g>
   <g id="patch_63">
    <path clip-path="url(#p8162821d91)" d="M 171.189203 211.986029 
L 163.390928 190.812845 
L 180.278758 215.14454 
z
" style="fill:#4be718;opacity:0.6;stroke-dasharray:0,0;stroke-dashoffset:0;"/>
   </g>
   <g id="patch_64">
    <path clip-path="url(#p8162821d91)" d="M 180.278758 215.14454 
L 163.390928 190.812845 
L 163.168615 190.209242 
L 180.557409 215.241368 
z
" style="fill:#4d2af2;opacity:0.6;stroke-dasharray:0,0;stroke-dashoffset:0;"/>
   </g>
   <g id="patch_65">
    <path clip-path="url(#p8162821d91)" d="M 180.892881 144.985309 
L 168.193475 127.207297 
L 184.705653 118.777235 
L 215.596629 147.93332 
L 210.325205 161.050258 
z
" style="fill:#4e6ecc;opacity:0.6;stroke-dasharray:0,0;stroke-dashoffset:0;"/>
   </g>
   <g id="patch_66">
    <path clip-path="url(#p8162821d91)" d="M 171.962549 223.837077 
L 171.189202 211.986029 
L 180.278755 215.144539 
L 180.302598 216.405314 
z
" style="fill:#4fb2a6;opacity:0.6;stroke-dasharray:0,0;stroke-dashoffset:0;"/>
   </g>
   <g id="patch_67">
    <path clip-path="url(#p8162821d91)" d="M 171.962547 223.837079 
L 180.302595 216.405316 
L 180.601198 225.79641 
z
" style="fill:#50f680;opacity:0.6;stroke-dasharray:0,0;stroke-dashoffset:0;"/>
   </g>
   <g id="patch_68">
    <path clip-path="url(#p8162821d91)" d="M 152.538752 321.58909 
L 151.588734 307.204839 
L 175.728973 247.136428 
L 183.119025 248.235897 
z
" style="fill:#523a5a;opacity:0.6;stroke-dasharray:0,0;stroke-dashoffset:0;"/>
   </g>
   <g id="patch_69">
    <path clip-path="url(#p8162821d91)" d="M 189.493675 43.850968 
L 173.688176 48.09071 
L 192.733747 19.333338 
L 205.997273 22.523911 
z
" style="fill:#537e34;opacity:0.6;stroke-dasharray:0,0;stroke-dashoffset:0;"/>
   </g>
   <g id="patch_70">
    <path clip-path="url(#p8162821d91)" d="M 175.728973 247.136428 
L 180.872766 234.337074 
L 183.937775 246.271952 
L 183.119025 248.235897 
z
" style="fill:#54c20e;opacity:0.6;stroke-dasharray:0,0;stroke-dashoffset:0;"/>
   </g>
   <g id="patch_71">
    <path clip-path="url(#p8162821d91)" d="M 161.962895 464.280318 
L 152.538753 321.589109 
L 183.119033 248.235898 
L 184.494696 248.440565 
L 227.512078 415.946509 
z
" style="fill:#5605e8;opacity:0.6;stroke-dasharray:0,0;stroke-dashoffset:0;"/>
   </g>
   <g id="patch_72">
    <path clip-path="url(#p8162821d91)" d="M 183.937775 246.271952 
L 180.872766 234.337074 
L 181.955266 231.643479 
L 186.358641 240.464997 
z
" style="fill:#5749c2;opacity:0.6;stroke-dasharray:0,0;stroke-dashoffset:0;"/>
   </g>
   <g id="patch_73">
    <path clip-path="url(#p8162821d91)" d="M 180.87276 234.337089 
L 180.601198 225.79641 
L 181.446591 225.988154 
L 181.955267 231.643475 
z
" style="fill:#588d9c;opacity:0.6;stroke-dasharray:0,0;stroke-dashoffset:0;"/>
   </g>
   <g id="patch_74">
    <path clip-path="url(#p8162821d91)" d="M 181.955267 231.643475 
L 181.446591 225.988152 
L 183.995674 226.566309 
z
" style="fill:#59d176;opacity:0.6;stroke-dasharray:0,0;stroke-dashoffset:0;"/>
   </g>
   <g id="patch_75">
    <path clip-path="url(#p8162821d91)" d="M 181.446591 225.988154 
L 180.563719 216.17263 
L 181.313827 215.504214 
L 187.567926 217.677438 
L 183.995673 226.566311 
z
" style="fill:#5b1550;opacity:0.6;stroke-dasharray:0,0;stroke-dashoffset:0;"/>
   </g>
   <g id="patch_76">
    <path clip-path="url(#p8162821d91)" d="M 180.89289 144.985315 
L 210.325205 161.050258 
L 200.076151 186.553087 
z
" style="fill:#5c592a;opacity:0.6;stroke-dasharray:0,0;stroke-dashoffset:0;"/>
   </g>
   <g id="patch_77">
    <path clip-path="url(#p8162821d91)" d="M 183.119033 248.235898 
L 183.937777 246.271969 
L 184.494696 248.440565 
z
" style="fill:#5d9d04;opacity:0.6;stroke-dasharray:0,0;stroke-dashoffset:0;"/>
   </g>
   <g id="patch_78">
    <path clip-path="url(#p8162821d91)" d="M 186.358641 240.464997 
L 181.955266 231.643479 
L 183.995676 226.566303 
L 192.348181 226.097831 
z
" style="fill:#5ee0de;opacity:0.6;stroke-dasharray:0,0;stroke-dashoffset:0;"/>
   </g>
   <g id="patch_79">
    <path clip-path="url(#p8162821d91)" d="M 181.313827 215.504214 
L 192.417743 205.609586 
L 187.567926 217.677438 
z
" style="fill:#6024b8;opacity:0.6;stroke-dasharray:0,0;stroke-dashoffset:0;"/>
   </g>
   <g id="patch_80">
    <path clip-path="url(#p8162821d91)" d="M 227.51208 415.946508 
L 184.494699 248.440565 
L 190.808649 249.379935 
L 261.458128 390.915809 
z
" style="fill:#616892;opacity:0.6;stroke-dasharray:0,0;stroke-dashoffset:0;"/>
   </g>
   <g id="patch_81">
    <path clip-path="url(#p8162821d91)" d="M 184.494696 248.440565 
L 183.937777 246.271969 
L 186.358646 240.465006 
L 190.808649 249.379935 
z
" style="fill:#62ac6c;opacity:0.6;stroke-dasharray:0,0;stroke-dashoffset:0;"/>
   </g>
   <g id="patch_82">
    <path clip-path="url(#p8162821d91)" d="M 183.995676 226.566303 
L 187.567926 217.677438 
L 194.809516 220.193803 
L 192.348181 226.097831 
z
" style="fill:#63f046;opacity:0.6;stroke-dasharray:0,0;stroke-dashoffset:0;"/>
   </g>
   <g id="patch_83">
    <path clip-path="url(#p8162821d91)" d="M 184.705653 118.777235 
L 238.312587 91.408962 
L 215.596629 147.93332 
z
" style="fill:#653420;opacity:0.6;stroke-dasharray:0,0;stroke-dashoffset:0;"/>
   </g>
   <g id="patch_84">
    <path clip-path="url(#p8162821d91)" d="M 190.808649 249.379935 
L 186.358641 240.464997 
L 192.348181 226.097831 
L 209.096746 225.158443 
L 296.133416 255.402637 
L 308.297419 266.859549 
z
" style="fill:#6677fa;opacity:0.6;stroke-dasharray:0,0;stroke-dashoffset:0;"/>
   </g>
   <g id="patch_85">
    <path clip-path="url(#p8162821d91)" d="M 194.809524 220.193806 
L 187.567926 217.677438 
L 192.417743 205.609586 
L 205.132331 194.279699 
L 209.67108 197.328252 
z
" style="fill:#67bbd4;opacity:0.6;stroke-dasharray:0,0;stroke-dashoffset:0;"/>
   </g>
   <g id="patch_86">
    <path clip-path="url(#p8162821d91)" d="M 189.493675 43.850968 
L 205.997273 22.523911 
L 239.212972 30.514028 
z
" style="fill:#68ffae;opacity:0.6;stroke-dasharray:0,0;stroke-dashoffset:0;"/>
   </g>
   <g id="patch_87">
    <path clip-path="url(#p8162821d91)" d="M 261.458128 390.915809 
L 190.808649 249.379935 
L 308.297419 266.859549 
L 361.606448 317.069736 
z
" style="fill:#6a4388;opacity:0.6;stroke-dasharray:0,0;stroke-dashoffset:0;"/>
   </g>
   <g id="patch_88">
    <path clip-path="url(#p8162821d91)" d="M 192.348181 226.097831 
L 194.809516 220.193803 
L 209.096746 225.158443 
z
" style="fill:#6b8762;opacity:0.6;stroke-dasharray:0,0;stroke-dashoffset:0;"/>
   </g>
   <g id="patch_89">
    <path clip-path="url(#p8162821d91)" d="M 192.417743 205.609586 
L 200.07615 186.55309 
L 205.132334 194.279696 
z
" style="fill:#6ccb3c;opacity:0.6;stroke-dasharray:0,0;stroke-dashoffset:0;"/>
   </g>
   <g id="patch_90">
    <path clip-path="url(#p8162821d91)" d="M 209.096774 225.158453 
L 194.809516 220.193803 
L 209.671075 197.328245 
L 254.035521 227.12663 
z
" style="fill:#6e0f16;opacity:0.6;stroke-dasharray:0,0;stroke-dashoffset:0;"/>
   </g>
   <g id="patch_91">
    <path clip-path="url(#p8162821d91)" d="M 205.132334 194.279696 
L 200.07615 186.55309 
L 210.325205 161.050258 
L 224.692166 168.892129 
L 220.625894 180.473485 
z
" style="fill:#6f52f0;opacity:0.6;stroke-dasharray:0,0;stroke-dashoffset:0;"/>
   </g>
   <g id="patch_92">
    <path clip-path="url(#p8162821d91)" d="M 205.132334 194.279696 
L 220.625891 180.473487 
L 209.671075 197.328245 
z
" style="fill:#7096ca;opacity:0.6;stroke-dasharray:0,0;stroke-dashoffset:0;"/>
   </g>
   <g id="patch_93">
    <path clip-path="url(#p8162821d91)" d="M 254.03551 227.126627 
L 209.67108 197.328252 
L 220.625914 180.473467 
L 230.230349 171.915017 
L 338.130348 230.809718 
z
" style="fill:#71daa4;opacity:0.6;stroke-dasharray:0,0;stroke-dashoffset:0;"/>
   </g>
   <g id="patch_94">
    <path clip-path="url(#p8162821d91)" d="M 209.096774 225.158453 
L 254.035521 227.12663 
L 296.133424 255.40264 
z
" style="fill:#731e7e;opacity:0.6;stroke-dasharray:0,0;stroke-dashoffset:0;"/>
   </g>
   <g id="patch_95">
    <path clip-path="url(#p8162821d91)" d="M 210.325205 161.050258 
L 215.596629 147.93332 
L 231.277903 157.447526 
L 224.692173 168.892133 
z
" style="fill:#746258;opacity:0.6;stroke-dasharray:0,0;stroke-dashoffset:0;"/>
   </g>
   <g id="patch_96">
    <path clip-path="url(#p8162821d91)" d="M 231.2779 157.447524 
L 215.596629 147.93332 
L 238.312588 91.408958 
L 271.894439 86.864568 
z
" style="fill:#75a632;opacity:0.6;stroke-dasharray:0,0;stroke-dashoffset:0;"/>
   </g>
   <g id="patch_97">
    <path clip-path="url(#p8162821d91)" d="M 220.625894 180.473485 
L 224.692166 168.892129 
L 230.230349 171.915017 
z
" style="fill:#76ea0c;opacity:0.6;stroke-dasharray:0,0;stroke-dashoffset:0;"/>
   </g>
   <g id="patch_98">
    <path clip-path="url(#p8162821d91)" d="M 230.230349 171.915017 
L 224.692169 168.892131 
L 231.2779 157.447524 
L 240.313731 162.92978 
z
" style="fill:#782de6;opacity:0.6;stroke-dasharray:0,0;stroke-dashoffset:0;"/>
   </g>
   <g id="patch_99">
    <path clip-path="url(#p8162821d91)" d="M 338.130354 230.809722 
L 230.230349 171.915017 
L 240.313727 162.929784 
L 446.508968 254.465414 
L 440.497459 258.898103 
z
" style="fill:#7971c0;opacity:0.6;stroke-dasharray:0,0;stroke-dashoffset:0;"/>
   </g>
   <g id="patch_100">
    <path clip-path="url(#p8162821d91)" d="M 240.313731 162.92978 
L 231.2779 157.447524 
L 271.894439 86.864568 
L 335.305001 78.283673 
z
" style="fill:#7ab59a;opacity:0.6;stroke-dasharray:0,0;stroke-dashoffset:0;"/>
   </g>
   <g id="patch_101">
    <path clip-path="url(#p8162821d91)" d="M 271.894443 86.864568 
L 238.312588 91.408958 
L 260.707088 35.68449 
L 296.40434 44.27155 
z
" style="fill:#7bf974;opacity:0.6;stroke-dasharray:0,0;stroke-dashoffset:0;"/>
   </g>
   <g id="patch_102">
    <path clip-path="url(#p8162821d91)" d="M 240.313733 162.929778 
L 335.305025 78.283651 
L 569.294909 163.927104 
L 446.508975 254.465409 
z
" style="fill:#7d3d4e;opacity:0.6;stroke-dasharray:0,0;stroke-dashoffset:0;"/>
   </g>
   <g id="patch_103">
    <path clip-path="url(#p8162821d91)" d="M 296.133411 255.402636 
L 254.03551 227.126627 
L 338.130348 230.809718 
L 418.843427 274.865073 
L 402.061061 287.239837 
L 344.682136 272.272733 
z
" style="fill:#7e8128;opacity:0.6;stroke-dasharray:0,0;stroke-dashoffset:0;"/>
   </g>
   <g id="patch_104">
    <path clip-path="url(#p8162821d91)" d="M 239.212972 30.514028 
L 265.633133 23.426959 
L 260.707088 35.68449 
z
" style="fill:#7fc502;opacity:0.6;stroke-dasharray:0,0;stroke-dashoffset:0;"/>
   </g>
   <g id="patch_105">
    <path clip-path="url(#p8162821d91)" d="M 260.707088 35.68449 
L 265.633133 23.426959 
L 336.258745 4.48201 
L 296.404333 44.271548 
z
" style="fill:#8108dc;opacity:0.6;stroke-dasharray:0,0;stroke-dashoffset:0;"/>
   </g>
   <g id="patch_106">
    <path clip-path="url(#p8162821d91)" d="M 271.894439 86.864568 
L 296.404336 44.271549 
L 357.091386 58.869966 
L 335.305001 78.283673 
z
" style="fill:#824cb6;opacity:0.6;stroke-dasharray:0,0;stroke-dashoffset:0;"/>
   </g>
   <g id="patch_107">
    <path clip-path="url(#p8162821d91)" d="M 357.091386 58.869966 
L 296.404333 44.271548 
L 336.258745 4.48201 
L 453.384741 -26.936422 
z
" style="fill:#839090;opacity:0.6;stroke-dasharray:0,0;stroke-dashoffset:0;"/>
   </g>
   <g id="patch_108">
    <path clip-path="url(#p8162821d91)" d="M 335.305025 78.283651 
L 357.091386 58.869966 
L 624.525496 123.201888 
L 569.294909 163.927104 
z
" style="fill:#84d46a;opacity:0.6;stroke-dasharray:0,0;stroke-dashoffset:0;"/>
   </g>
   <g id="patch_109">
    <path clip-path="url(#p8162821d91)" d="M 338.130354 230.809722 
L 440.497459 258.898103 
L 418.843427 274.865073 
z
" style="fill:#861844;opacity:0.6;stroke-dasharray:0,0;stroke-dashoffset:0;"/>
   </g>
   <g id="patch_110">
    <path clip-path="url(#p8162821d91)" d="M 357.091386 58.869966 
L 453.384741 -26.936422 
L 1042.42484 -184.943327 
L 624.525496 123.201888 
z
" style="fill:#875c1e;opacity:0.6;stroke-dasharray:0,0;stroke-dashoffset:0;"/>
   </g>
   <g id="matplotlib.axis_1">
    <g id="xtick_1">
     <g id="line2d_1">
      <defs>
       <path d="M 0 0 
L 0 3.5 
" id="m4d83e97b53" style="stroke:#000000;stroke-width:0.8;"/>
      </defs>
      <g>
       <use style="stroke:#000000;stroke-width:0.8;" x="54" xlink:href="#m4d83e97b53" y="252"/>
      </g>
     </g>
     <g id="text_1">
      <!-- −0.50 -->
      <defs>
       <path d="M 10.59375 35.5 
L 73.1875 35.5 
L 73.1875 27.203125 
L 10.59375 27.203125 
z
" id="DejaVuSans-2212"/>
       <path d="M 31.78125 66.40625 
Q 24.171875 66.40625 20.328125 58.90625 
Q 16.5 51.421875 16.5 36.375 
Q 16.5 21.390625 20.328125 13.890625 
Q 24.171875 6.390625 31.78125 6.390625 
Q 39.453125 6.390625 43.28125 13.890625 
Q 47.125 21.390625 47.125 36.375 
Q 47.125 51.421875 43.28125 58.90625 
Q 39.453125 66.40625 31.78125 66.40625 
z
M 31.78125 74.21875 
Q 44.046875 74.21875 50.515625 64.515625 
Q 56.984375 54.828125 56.984375 36.375 
Q 56.984375 17.96875 50.515625 8.265625 
Q 44.046875 -1.421875 31.78125 -1.421875 
Q 19.53125 -1.421875 13.0625 8.265625 
Q 6.59375 17.96875 6.59375 36.375 
Q 6.59375 54.828125 13.0625 64.515625 
Q 19.53125 74.21875 31.78125 74.21875 
z
" id="DejaVuSans-30"/>
       <path d="M 10.6875 12.40625 
L 21 12.40625 
L 21 0 
L 10.6875 0 
z
" id="DejaVuSans-2e"/>
       <path d="M 10.796875 72.90625 
L 49.515625 72.90625 
L 49.515625 64.59375 
L 19.828125 64.59375 
L 19.828125 46.734375 
Q 21.96875 47.46875 24.109375 47.828125 
Q 26.265625 48.1875 28.421875 48.1875 
Q 40.625 48.1875 47.75 41.5 
Q 54.890625 34.8125 54.890625 23.390625 
Q 54.890625 11.625 47.5625 5.09375 
Q 40.234375 -1.421875 26.90625 -1.421875 
Q 22.3125 -1.421875 17.546875 -0.640625 
Q 12.796875 0.140625 7.71875 1.703125 
L 7.71875 11.625 
Q 12.109375 9.234375 16.796875 8.0625 
Q 21.484375 6.890625 26.703125 6.890625 
Q 35.15625 6.890625 40.078125 11.328125 
Q 45.015625 15.765625 45.015625 23.390625 
Q 45.015625 31 40.078125 35.4375 
Q 35.15625 39.890625 26.703125 39.890625 
Q 22.75 39.890625 18.8125 39.015625 
Q 14.890625 38.140625 10.796875 36.28125 
z
" id="DejaVuSans-35"/>
      </defs>
      <g transform="translate(38.677344 266.598437)scale(0.1 -0.1)">
       <use xlink:href="#DejaVuSans-2212"/>
       <use x="83.789062" xlink:href="#DejaVuSans-30"/>
       <use x="147.412109" xlink:href="#DejaVuSans-2e"/>
       <use x="179.199219" xlink:href="#DejaVuSans-35"/>
       <use x="242.822266" xlink:href="#DejaVuSans-30"/>
      </g>
     </g>
    </g>
    <g id="xtick_2">
     <g id="line2d_2">
      <g>
       <use style="stroke:#000000;stroke-width:0.8;" x="95.85" xlink:href="#m4d83e97b53" y="252"/>
      </g>
     </g>
     <g id="text_2">
      <!-- −0.25 -->
      <defs>
       <path d="M 19.1875 8.296875 
L 53.609375 8.296875 
L 53.609375 0 
L 7.328125 0 
L 7.328125 8.296875 
Q 12.9375 14.109375 22.625 23.890625 
Q 32.328125 33.6875 34.8125 36.53125 
Q 39.546875 41.84375 41.421875 45.53125 
Q 43.3125 49.21875 43.3125 52.78125 
Q 43.3125 58.59375 39.234375 62.25 
Q 35.15625 65.921875 28.609375 65.921875 
Q 23.96875 65.921875 18.8125 64.3125 
Q 13.671875 62.703125 7.8125 59.421875 
L 7.8125 69.390625 
Q 13.765625 71.78125 18.9375 73 
Q 24.125 74.21875 28.421875 74.21875 
Q 39.75 74.21875 46.484375 68.546875 
Q 53.21875 62.890625 53.21875 53.421875 
Q 53.21875 48.921875 51.53125 44.890625 
Q 49.859375 40.875 45.40625 35.40625 
Q 44.1875 33.984375 37.640625 27.21875 
Q 31.109375 20.453125 19.1875 8.296875 
z
" id="DejaVuSans-32"/>
      </defs>
      <g transform="translate(80.527344 266.598437)scale(0.1 -0.1)">
       <use xlink:href="#DejaVuSans-2212"/>
       <use x="83.789062" xlink:href="#DejaVuSans-30"/>
       <use x="147.412109" xlink:href="#DejaVuSans-2e"/>
       <use x="179.199219" xlink:href="#DejaVuSans-32"/>
       <use x="242.822266" xlink:href="#DejaVuSans-35"/>
      </g>
     </g>
    </g>
    <g id="xtick_3">
     <g id="line2d_3">
      <g>
       <use style="stroke:#000000;stroke-width:0.8;" x="137.7" xlink:href="#m4d83e97b53" y="252"/>
      </g>
     </g>
     <g id="text_3">
      <!-- 0.00 -->
      <g transform="translate(126.567187 266.598437)scale(0.1 -0.1)">
       <use xlink:href="#DejaVuSans-30"/>
       <use x="63.623047" xlink:href="#DejaVuSans-2e"/>
       <use x="95.410156" xlink:href="#DejaVuSans-30"/>
       <use x="159.033203" xlink:href="#DejaVuSans-30"/>
      </g>
     </g>
    </g>
    <g id="xtick_4">
     <g id="line2d_4">
      <g>
       <use style="stroke:#000000;stroke-width:0.8;" x="179.55" xlink:href="#m4d83e97b53" y="252"/>
      </g>
     </g>
     <g id="text_4">
      <!-- 0.25 -->
      <g transform="translate(168.417187 266.598437)scale(0.1 -0.1)">
       <use xlink:href="#DejaVuSans-30"/>
       <use x="63.623047" xlink:href="#DejaVuSans-2e"/>
       <use x="95.410156" xlink:href="#DejaVuSans-32"/>
       <use x="159.033203" xlink:href="#DejaVuSans-35"/>
      </g>
     </g>
    </g>
    <g id="xtick_5">
     <g id="line2d_5">
      <g>
       <use style="stroke:#000000;stroke-width:0.8;" x="221.4" xlink:href="#m4d83e97b53" y="252"/>
      </g>
     </g>
     <g id="text_5">
      <!-- 0.50 -->
      <g transform="translate(210.267187 266.598437)scale(0.1 -0.1)">
       <use xlink:href="#DejaVuSans-30"/>
       <use x="63.623047" xlink:href="#DejaVuSans-2e"/>
       <use x="95.410156" xlink:href="#DejaVuSans-35"/>
       <use x="159.033203" xlink:href="#DejaVuSans-30"/>
      </g>
     </g>
    </g>
    <g id="xtick_6">
     <g id="line2d_6">
      <g>
       <use style="stroke:#000000;stroke-width:0.8;" x="263.25" xlink:href="#m4d83e97b53" y="252"/>
      </g>
     </g>
     <g id="text_6">
      <!-- 0.75 -->
      <defs>
       <path d="M 8.203125 72.90625 
L 55.078125 72.90625 
L 55.078125 68.703125 
L 28.609375 0 
L 18.3125 0 
L 43.21875 64.59375 
L 8.203125 64.59375 
z
" id="DejaVuSans-37"/>
      </defs>
      <g transform="translate(252.117188 266.598437)scale(0.1 -0.1)">
       <use xlink:href="#DejaVuSans-30"/>
       <use x="63.623047" xlink:href="#DejaVuSans-2e"/>
       <use x="95.410156" xlink:href="#DejaVuSans-37"/>
       <use x="159.033203" xlink:href="#DejaVuSans-35"/>
      </g>
     </g>
    </g>
    <g id="xtick_7">
     <g id="line2d_7">
      <g>
       <use style="stroke:#000000;stroke-width:0.8;" x="305.1" xlink:href="#m4d83e97b53" y="252"/>
      </g>
     </g>
     <g id="text_7">
      <!-- 1.00 -->
      <defs>
       <path d="M 12.40625 8.296875 
L 28.515625 8.296875 
L 28.515625 63.921875 
L 10.984375 60.40625 
L 10.984375 69.390625 
L 28.421875 72.90625 
L 38.28125 72.90625 
L 38.28125 8.296875 
L 54.390625 8.296875 
L 54.390625 0 
L 12.40625 0 
z
" id="DejaVuSans-31"/>
      </defs>
      <g transform="translate(293.967188 266.598437)scale(0.1 -0.1)">
       <use xlink:href="#DejaVuSans-31"/>
       <use x="63.623047" xlink:href="#DejaVuSans-2e"/>
       <use x="95.410156" xlink:href="#DejaVuSans-30"/>
       <use x="159.033203" xlink:href="#DejaVuSans-30"/>
      </g>
     </g>
    </g>
    <g id="xtick_8">
     <g id="line2d_8">
      <g>
       <use style="stroke:#000000;stroke-width:0.8;" x="346.95" xlink:href="#m4d83e97b53" y="252"/>
      </g>
     </g>
     <g id="text_8">
      <!-- 1.25 -->
      <g transform="translate(335.817187 266.598437)scale(0.1 -0.1)">
       <use xlink:href="#DejaVuSans-31"/>
       <use x="63.623047" xlink:href="#DejaVuSans-2e"/>
       <use x="95.410156" xlink:href="#DejaVuSans-32"/>
       <use x="159.033203" xlink:href="#DejaVuSans-35"/>
      </g>
     </g>
    </g>
    <g id="xtick_9">
     <g id="line2d_9">
      <g>
       <use style="stroke:#000000;stroke-width:0.8;" x="388.8" xlink:href="#m4d83e97b53" y="252"/>
      </g>
     </g>
     <g id="text_9">
      <!-- 1.50 -->
      <g transform="translate(377.667188 266.598437)scale(0.1 -0.1)">
       <use xlink:href="#DejaVuSans-31"/>
       <use x="63.623047" xlink:href="#DejaVuSans-2e"/>
       <use x="95.410156" xlink:href="#DejaVuSans-35"/>
       <use x="159.033203" xlink:href="#DejaVuSans-30"/>
      </g>
     </g>
    </g>
   </g>
   <g id="matplotlib.axis_2">
    <g id="ytick_1">
     <g id="line2d_10">
      <defs>
       <path d="M 0 0 
L -3.5 0 
" id="m1059f07dff" style="stroke:#000000;stroke-width:0.8;"/>
      </defs>
      <g>
       <use style="stroke:#000000;stroke-width:0.8;" x="54" xlink:href="#m1059f07dff" y="252"/>
      </g>
     </g>
     <g id="text_10">
      <!-- −0.50 -->
      <g transform="translate(16.354687 255.799219)scale(0.1 -0.1)">
       <use xlink:href="#DejaVuSans-2212"/>
       <use x="83.789062" xlink:href="#DejaVuSans-30"/>
       <use x="147.412109" xlink:href="#DejaVuSans-2e"/>
       <use x="179.199219" xlink:href="#DejaVuSans-35"/>
       <use x="242.822266" xlink:href="#DejaVuSans-30"/>
      </g>
     </g>
    </g>
    <g id="ytick_2">
     <g id="line2d_11">
      <g>
       <use style="stroke:#000000;stroke-width:0.8;" x="54" xlink:href="#m1059f07dff" y="224.82"/>
      </g>
     </g>
     <g id="text_11">
      <!-- −0.25 -->
      <g transform="translate(16.354687 228.619219)scale(0.1 -0.1)">
       <use xlink:href="#DejaVuSans-2212"/>
       <use x="83.789062" xlink:href="#DejaVuSans-30"/>
       <use x="147.412109" xlink:href="#DejaVuSans-2e"/>
       <use x="179.199219" xlink:href="#DejaVuSans-32"/>
       <use x="242.822266" xlink:href="#DejaVuSans-35"/>
      </g>
     </g>
    </g>
    <g id="ytick_3">
     <g id="line2d_12">
      <g>
       <use style="stroke:#000000;stroke-width:0.8;" x="54" xlink:href="#m1059f07dff" y="197.64"/>
      </g>
     </g>
     <g id="text_12">
      <!-- 0.00 -->
      <g transform="translate(24.734375 201.439219)scale(0.1 -0.1)">
       <use xlink:href="#DejaVuSans-30"/>
       <use x="63.623047" xlink:href="#DejaVuSans-2e"/>
       <use x="95.410156" xlink:href="#DejaVuSans-30"/>
       <use x="159.033203" xlink:href="#DejaVuSans-30"/>
      </g>
     </g>
    </g>
    <g id="ytick_4">
     <g id="line2d_13">
      <g>
       <use style="stroke:#000000;stroke-width:0.8;" x="54" xlink:href="#m1059f07dff" y="170.46"/>
      </g>
     </g>
     <g id="text_13">
      <!-- 0.25 -->
      <g transform="translate(24.734375 174.259219)scale(0.1 -0.1)">
       <use xlink:href="#DejaVuSans-30"/>
       <use x="63.623047" xlink:href="#DejaVuSans-2e"/>
       <use x="95.410156" xlink:href="#DejaVuSans-32"/>
       <use x="159.033203" xlink:href="#DejaVuSans-35"/>
      </g>
     </g>
    </g>
    <g id="ytick_5">
     <g id="line2d_14">
      <g>
       <use style="stroke:#000000;stroke-width:0.8;" x="54" xlink:href="#m1059f07dff" y="143.28"/>
      </g>
     </g>
     <g id="text_14">
      <!-- 0.50 -->
      <g transform="translate(24.734375 147.079219)scale(0.1 -0.1)">
       <use xlink:href="#DejaVuSans-30"/>
       <use x="63.623047" xlink:href="#DejaVuSans-2e"/>
       <use x="95.410156" xlink:href="#DejaVuSans-35"/>
       <use x="159.033203" xlink:href="#DejaVuSans-30"/>
      </g>
     </g>
    </g>
    <g id="ytick_6">
     <g id="line2d_15">
      <g>
       <use style="stroke:#000000;stroke-width:0.8;" x="54" xlink:href="#m1059f07dff" y="116.1"/>
      </g>
     </g>
     <g id="text_15">
      <!-- 0.75 -->
      <g transform="translate(24.734375 119.899219)scale(0.1 -0.1)">
       <use xlink:href="#DejaVuSans-30"/>
       <use x="63.623047" xlink:href="#DejaVuSans-2e"/>
       <use x="95.410156" xlink:href="#DejaVuSans-37"/>
       <use x="159.033203" xlink:href="#DejaVuSans-35"/>
      </g>
     </g>
    </g>
    <g id="ytick_7">
     <g id="line2d_16">
      <g>
       <use style="stroke:#000000;stroke-width:0.8;" x="54" xlink:href="#m1059f07dff" y="88.92"/>
      </g>
     </g>
     <g id="text_16">
      <!-- 1.00 -->
      <g transform="translate(24.734375 92.719219)scale(0.1 -0.1)">
       <use xlink:href="#DejaVuSans-31"/>
       <use x="63.623047" xlink:href="#DejaVuSans-2e"/>
       <use x="95.410156" xlink:href="#DejaVuSans-30"/>
       <use x="159.033203" xlink:href="#DejaVuSans-30"/>
      </g>
     </g>
    </g>
    <g id="ytick_8">
     <g id="line2d_17">
      <g>
       <use style="stroke:#000000;stroke-width:0.8;" x="54" xlink:href="#m1059f07dff" y="61.74"/>
      </g>
     </g>
     <g id="text_17">
      <!-- 1.25 -->
      <g transform="translate(24.734375 65.539219)scale(0.1 -0.1)">
       <use xlink:href="#DejaVuSans-31"/>
       <use x="63.623047" xlink:href="#DejaVuSans-2e"/>
       <use x="95.410156" xlink:href="#DejaVuSans-32"/>
       <use x="159.033203" xlink:href="#DejaVuSans-35"/>
      </g>
     </g>
    </g>
    <g id="ytick_9">
     <g id="line2d_18">
      <g>
       <use style="stroke:#000000;stroke-width:0.8;" x="54" xlink:href="#m1059f07dff" y="34.56"/>
      </g>
     </g>
     <g id="text_18">
      <!-- 1.50 -->
      <g transform="translate(24.734375 38.359219)scale(0.1 -0.1)">
       <use xlink:href="#DejaVuSans-31"/>
       <use x="63.623047" xlink:href="#DejaVuSans-2e"/>
       <use x="95.410156" xlink:href="#DejaVuSans-35"/>
       <use x="159.033203" xlink:href="#DejaVuSans-30"/>
      </g>
     </g>
    </g>
   </g>
   <g id="line2d_19">
    <path clip-path="url(#p8162821d91)" d="M 108.055677 149.090611 
L 57.596053 126.200886 
" style="fill:none;stroke:#ff0000;stroke-linecap:square;stroke-width:0.5;"/>
   </g>
   <g id="line2d_20">
    <path clip-path="url(#p8162821d91)" d="M 29.572456 113.512112 
L 57.596051 126.200887 
" style="fill:none;stroke:#ff0000;stroke-linecap:square;stroke-width:0.5;"/>
   </g>
   <g id="line2d_21">
    <path clip-path="url(#p8162821d91)" d="M 99.969453 67.865369 
L 92.072883 58.236236 
" style="fill:none;stroke:#ff0000;stroke-linecap:square;stroke-width:0.5;"/>
   </g>
   <g id="line2d_22">
    <path clip-path="url(#p8162821d91)" d="M 92.072907 58.236252 
L 33.470745 -1 
" style="fill:none;stroke:#ff0000;stroke-linecap:square;stroke-width:0.5;"/>
   </g>
   <g id="line2d_23">
    <path clip-path="url(#p8162821d91)" d="M 130.126811 104.880058 
L 99.969435 67.865374 
" style="fill:none;stroke:#ff0000;stroke-linecap:square;stroke-width:0.5;"/>
   </g>
   <g id="line2d_24">
    <path clip-path="url(#p8162821d91)" style="fill:none;stroke:#ff0000;stroke-linecap:square;stroke-width:0.5;"/>
   </g>
   <g id="line2d_25">
    <path clip-path="url(#p8162821d91)" d="M 113.753722 157.583773 
L 108.055679 149.090609 
" style="fill:none;stroke:#ff0000;stroke-linecap:square;stroke-width:0.5;"/>
   </g>
   <g id="line2d_26">
    <path clip-path="url(#p8162821d91)" d="M 142.230629 165.513492 
L 113.753717 157.583776 
" style="fill:none;stroke:#ff0000;stroke-linecap:square;stroke-width:0.5;"/>
   </g>
   <g id="line2d_27">
    <path clip-path="url(#p8162821d91)" d="M 136.361013 112.512558 
L 130.12681 104.880058 
" style="fill:none;stroke:#ff0000;stroke-linecap:square;stroke-width:0.5;"/>
   </g>
   <g id="line2d_28">
    <path clip-path="url(#p8162821d91)" d="M 138.764394 113.031131 
L 136.361007 112.512565 
" style="fill:none;stroke:#ff0000;stroke-linecap:square;stroke-width:0.5;"/>
   </g>
   <g id="line2d_29">
    <path clip-path="url(#p8162821d91)" d="M 156.201939 110.420237 
L 138.764393 113.031115 
" style="fill:none;stroke:#ff0000;stroke-linecap:square;stroke-width:0.5;"/>
   </g>
   <g id="line2d_30">
    <path clip-path="url(#p8162821d91)" style="fill:none;stroke:#ff0000;stroke-linecap:square;stroke-width:0.5;"/>
   </g>
   <g id="line2d_31">
    <path clip-path="url(#p8162821d91)" d="M 155.316526 178.905727 
L 159.363552 179.878073 
" style="fill:none;stroke:#ff0000;stroke-linecap:square;stroke-width:0.5;"/>
   </g>
   <g id="line2d_32">
    <path clip-path="url(#p8162821d91)" d="M 142.230629 165.513492 
L 154.941463 178.639001 
" style="fill:none;stroke:#ff0000;stroke-linecap:square;stroke-width:0.5;"/>
   </g>
   <g id="line2d_33">
    <path clip-path="url(#p8162821d91)" d="M 159.363552 179.878073 
L 194.307516 174.053162 
" style="fill:none;stroke:#ff0000;stroke-linecap:square;stroke-width:0.5;"/>
   </g>
   <g id="line2d_34">
    <path clip-path="url(#p8162821d91)" d="M 182.173128 116.386941 
L 156.201943 110.420242 
" style="fill:none;stroke:#ff0000;stroke-linecap:square;stroke-width:0.5;"/>
   </g>
   <g id="line2d_35">
    <path clip-path="url(#p8162821d91)" d="M 154.941462 178.639 
L 155.316529 178.905732 
" style="fill:none;stroke:#ff0000;stroke-linecap:square;stroke-width:0.5;"/>
   </g>
   <g id="line2d_36">
    <path clip-path="url(#p8162821d91)" d="M 204.09233 108.879637 
L 182.173125 116.386939 
" style="fill:none;stroke:#ff0000;stroke-linecap:square;stroke-width:0.5;"/>
   </g>
   <g id="line2d_37">
    <path clip-path="url(#p8162821d91)" d="M 204.882306 158.079379 
L 189.794683 123.580456 
" style="fill:none;stroke:#ff0000;stroke-linecap:square;stroke-width:0.5;"/>
   </g>
   <g id="line2d_38">
    <path clip-path="url(#p8162821d91)" d="M 178.086688 247.487201 
L 164.659798 289 
" style="fill:none;stroke:#ff0000;stroke-linecap:square;stroke-width:0.5;"/>
   </g>
   <g id="line2d_39">
    <path clip-path="url(#p8162821d91)" d="M 181.523885 236.872474 
L 178.086686 247.487201 
" style="fill:none;stroke:#ff0000;stroke-linecap:square;stroke-width:0.5;"/>
   </g>
   <g id="line2d_40">
    <path clip-path="url(#p8162821d91)" style="fill:none;stroke:#ff0000;stroke-linecap:square;stroke-width:0.5;"/>
   </g>
   <g id="line2d_41">
    <path clip-path="url(#p8162821d91)" d="M 183.00664 233.749752 
L 181.523885 236.872475 
" style="fill:none;stroke:#ff0000;stroke-linecap:square;stroke-width:0.5;"/>
   </g>
   <g id="line2d_42">
    <path clip-path="url(#p8162821d91)" d="M 194.307518 174.053166 
L 204.882308 158.07938 
" style="fill:none;stroke:#ff0000;stroke-linecap:square;stroke-width:0.5;"/>
   </g>
   <g id="line2d_43">
    <path clip-path="url(#p8162821d91)" d="M 187.309613 226.380432 
L 183.006642 233.749758 
" style="fill:none;stroke:#ff0000;stroke-linecap:square;stroke-width:0.5;"/>
   </g>
   <g id="line2d_44">
    <path clip-path="url(#p8162821d91)" d="M 192.215027 219.292249 
L 187.309608 226.380433 
" style="fill:none;stroke:#ff0000;stroke-linecap:square;stroke-width:0.5;"/>
   </g>
   <g id="line2d_45">
    <path clip-path="url(#p8162821d91)" d="M 189.794677 123.580451 
L 204.092347 108.879629 
" style="fill:none;stroke:#ff0000;stroke-linecap:square;stroke-width:0.5;"/>
   </g>
   <g id="line2d_46">
    <path clip-path="url(#p8162821d91)" d="M 206.739625 195.35927 
L 192.215026 219.292249 
" style="fill:none;stroke:#ff0000;stroke-linecap:square;stroke-width:0.5;"/>
   </g>
   <g id="line2d_47">
    <path clip-path="url(#p8162821d91)" d="M 218.589678 165.561228 
L 216.824451 183.860926 
" style="fill:none;stroke:#ff0000;stroke-linecap:square;stroke-width:0.5;"/>
   </g>
   <g id="line2d_48">
    <path clip-path="url(#p8162821d91)" d="M 216.824466 183.860912 
L 206.739629 195.359273 
" style="fill:none;stroke:#ff0000;stroke-linecap:square;stroke-width:0.5;"/>
   </g>
   <g id="line2d_49">
    <path clip-path="url(#p8162821d91)" d="M 231.448907 172.580139 
L 226.953185 174.835277 
" style="fill:none;stroke:#ff0000;stroke-linecap:square;stroke-width:0.5;"/>
   </g>
   <g id="line2d_50">
    <path clip-path="url(#p8162821d91)" d="M 226.805675 165.219305 
L 218.589685 165.561232 
" style="fill:none;stroke:#ff0000;stroke-linecap:square;stroke-width:0.5;"/>
   </g>
   <g id="line2d_51">
    <path clip-path="url(#p8162821d91)" d="M 248.36153 90.049107 
L 245.244999 133.17566 
" style="fill:none;stroke:#ff0000;stroke-linecap:square;stroke-width:0.5;"/>
   </g>
   <g id="line2d_52">
    <path clip-path="url(#p8162821d91)" d="M 226.953225 174.835241 
L 229.018353 171.253478 
" style="fill:none;stroke:#ff0000;stroke-linecap:square;stroke-width:0.5;"/>
   </g>
   <g id="line2d_53">
    <path clip-path="url(#p8162821d91)" d="M 229.018365 171.253484 
L 226.805678 165.219299 
" style="fill:none;stroke:#ff0000;stroke-linecap:square;stroke-width:0.5;"/>
   </g>
   <g id="line2d_54">
    <path clip-path="url(#p8162821d91)" d="M 262.55649 172.803938 
L 231.448916 172.580144 
" style="fill:none;stroke:#ff0000;stroke-linecap:square;stroke-width:0.5;"/>
   </g>
   <g id="line2d_55">
    <path clip-path="url(#p8162821d91)" d="M 310.116953 81.69219 
L 245.244989 133.175676 
" style="fill:none;stroke:#ff0000;stroke-linecap:square;stroke-width:0.5;"/>
   </g>
   <g id="line2d_56">
    <path clip-path="url(#p8162821d91)" d="M 282.424323 68.565856 
L 248.361533 90.049107 
" style="fill:none;stroke:#ff0000;stroke-linecap:square;stroke-width:0.5;"/>
   </g>
   <g id="line2d_57">
    <path clip-path="url(#p8162821d91)" d="M 350.383753 83.802668 
L 262.556491 172.803938 
" style="fill:none;stroke:#ff0000;stroke-linecap:square;stroke-width:0.5;"/>
   </g>
   <g id="line2d_58">
    <path clip-path="url(#p8162821d91)" d="M 310.116967 81.692189 
L 282.424333 68.565838 
" style="fill:none;stroke:#ff0000;stroke-linecap:square;stroke-width:0.5;"/>
   </g>
   <g id="line2d_59">
    <path clip-path="url(#p8162821d91)" d="M 414.895265 72.774829 
L 350.383757 83.80267 
" style="fill:none;stroke:#ff0000;stroke-linecap:square;stroke-width:0.5;"/>
   </g>
   <g id="line2d_60">
    <path clip-path="url(#p8162821d91)" d="M 433 67.101381 
L 414.895276 72.774831 
" style="fill:none;stroke:#ff0000;stroke-linecap:square;stroke-width:0.5;"/>
   </g>
   <g id="patch_111">
    <path d="M 54 252 
L 54 34.56 
" style="fill:none;stroke:#000000;stroke-linecap:square;stroke-linejoin:miter;stroke-width:0.8;"/>
   </g>
   <g id="patch_112">
    <path d="M 388.8 252 
L 388.8 34.56 
" style="fill:none;stroke:#000000;stroke-linecap:square;stroke-linejoin:miter;stroke-width:0.8;"/>
   </g>
   <g id="patch_113">
    <path d="M 54 252 
L 388.8 252 
" style="fill:none;stroke:#000000;stroke-linecap:square;stroke-linejoin:miter;stroke-width:0.8;"/>
   </g>
   <g id="patch_114">
    <path d="M 54 34.56 
L 388.8 34.56 
" style="fill:none;stroke:#000000;stroke-linecap:square;stroke-linejoin:miter;stroke-width:0.8;"/>
   </g>
  </g>
 </g>
 <defs>
  <clipPath id="p8162821d91">
   <rect height="217.44" width="334.8" x="54" y="34.56"/>
  </clipPath>
 </defs>
</svg>
