<?xml version="1.0" encoding="utf-8" standalone="no"?>
<!DOCTYPE svg PUBLIC "-//W3C//DTD SVG 1.1//EN"
  "http://www.w3.org/Graphics/SVG/1.1/DTD/svg11.dtd">
<!-- Created with matplotlib (http://matplotlib.org/) -->
<svg height="576pt" version="1.1" viewBox="0 0 576 576" width="576pt" xmlns="http://www.w3.org/2000/svg" xmlns:xlink="http://www.w3.org/1999/xlink">
 <defs>
  <style type="text/css">
*{stroke-linecap:butt;stroke-linejoin:round;}
  </style>
 </defs>
 <g id="figure_1">
  <g id="patch_1">
   <path d="M 0 576 
L 576 576 
L 576 0 
L 0 0 
z
" style="fill:#ffffff;"/>
  </g>
  <g id="axes_1">
   <g id="patch_2">
    <path d="M 72 504 
L 429.12 504 
L 429.12 69.12 
L 72 69.12 
z
" style="fill:#ffffff;"/>
   </g>
   <g id="PathCollection_1">
    <path clip-path="url(#pf6f63b6d65)" d="M 389.44 504 
L 393.047273 504 
L 396.654545 504 
L 400.261818 504 
L 403.869091 504 
L 407.476364 504 
L 411.083636 504 
L 414.690909 504 
L 418.298182 504 
L 421.905455 504 
L 425.512727 504 
L 429.12 504 
L 429.12 499.607273 
L 429.12 495.214545 
L 429.12 490.821818 
L 429.12 486.429091 
L 429.12 482.036364 
L 429.12 477.643636 
L 429.12 477.186376 
L 425.512727 476.658112 
L 421.905455 476.129813 
L 418.298182 475.601532 
L 414.690909 475.07327 
L 411.083636 474.544968 
L 407.476364 474.01669 
L 403.869091 473.48841 
L 402.247388 473.250909 
L 400.261818 472.960121 
L 396.654545 472.431835 
L 393.047273 471.903555 
L 389.44 472.658079 
L 387.891281 473.250909 
L 385.832727 475.290015 
L 385.046642 477.643636 
L 384.993571 482.036364 
L 385.459969 486.429091 
L 385.832727 489.939613 
L 385.926402 490.821818 
L 386.392781 495.214545 
L 386.85919 499.607273 
L 387.325589 504 
z
" style="fill:#4e68d8;"/>
   </g>
   <g id="PathCollection_2">
    <path clip-path="url(#pf6f63b6d65)" d="M 364.189091 502.139237 
L 365.413851 504 
L 367.796364 504 
L 371.403636 504 
L 375.010909 504 
L 378.618182 504 
L 382.225455 504 
L 385.832727 504 
L 387.325589 504 
L 386.85919 499.607273 
L 386.392781 495.214545 
L 385.926402 490.821818 
L 385.832727 489.939613 
L 385.459969 486.429091 
L 384.993571 482.036364 
L 385.046642 477.643636 
L 385.832727 475.290015 
L 387.891281 473.250909 
L 389.44 472.658079 
L 393.047273 471.903555 
L 396.654545 472.431835 
L 400.261818 472.960121 
L 402.247388 473.250909 
L 403.869091 473.48841 
L 407.476364 474.01669 
L 411.083636 474.544968 
L 414.690909 475.07327 
L 418.298182 475.601532 
L 421.905455 476.129813 
L 425.512727 476.658112 
L 429.12 477.186376 
L 429.12 473.250909 
L 429.12 468.858182 
L 429.12 464.465455 
L 429.12 460.072727 
L 429.12 455.68 
L 429.12 451.287273 
L 429.12 446.894545 
L 429.12 442.501818 
L 429.12 438.109091 
L 429.12 433.716364 
L 429.12 429.323636 
L 429.12 424.930909 
L 429.12 420.538182 
L 429.12 416.145455 
L 429.12 411.752727 
L 429.12 407.36 
L 429.12 402.967273 
L 429.12 398.574545 
L 429.12 397.611332 
L 425.512727 397.083049 
L 421.905455 396.554731 
L 418.298182 396.026473 
L 414.690909 395.498188 
L 411.083636 394.969895 
L 407.476364 394.441617 
L 405.702317 394.181818 
L 403.869091 393.913353 
L 400.261818 393.38505 
L 396.654545 392.85678 
L 393.047273 392.328518 
L 389.44 391.80024 
L 385.832727 391.271951 
L 382.225455 390.743677 
L 378.618182 390.215374 
L 375.707449 389.789091 
L 375.010909 389.687082 
L 371.403636 389.158837 
L 367.796364 388.630539 
L 364.189091 388.10228 
L 360.581818 387.573975 
L 356.974545 387.045704 
L 353.367273 386.579916 
L 349.76 386.262641 
L 346.152727 385.946158 
L 342.545455 385.646458 
L 338.938182 385.978187 
L 336.476951 389.789091 
L 335.330909 391.243217 
L 334.361878 394.181818 
L 332.91332 398.574545 
L 331.723636 402.182232 
L 331.464758 402.967273 
L 330.01621 407.36 
L 328.567647 411.752727 
L 328.116364 413.12125 
L 327.119109 416.145455 
L 325.743375 420.538182 
L 325.270994 424.930909 
L 325.180943 429.323636 
L 325.141841 433.716364 
L 326.50404 438.109091 
L 328.116364 442.436891 
L 328.140553 442.501818 
L 329.777082 446.894545 
L 331.413888 451.287273 
L 331.723636 452.117277 
L 333.744 455.68 
L 335.330909 458.295379 
L 336.50076 460.072727 
L 338.938182 463.775873 
L 339.392069 464.465455 
L 342.283375 468.858182 
L 342.545455 469.256356 
L 345.174683 473.250909 
L 346.152727 474.736844 
L 348.065989 477.643636 
L 349.76 480.217315 
L 350.957304 482.036364 
L 353.367273 485.697807 
L 353.848609 486.429091 
L 356.739935 490.821818 
L 356.974545 491.178256 
L 359.631245 495.214545 
L 360.581818 496.658743 
L 362.522545 499.607273 
z
" style="fill:#779af7;"/>
   </g>
   <g id="PathCollection_3">
    <path clip-path="url(#pf6f63b6d65)" d="M 342.545455 500.627251 
L 344.765398 504 
L 346.152727 504 
L 349.76 504 
L 353.367273 504 
L 356.974545 504 
L 360.581818 504 
L 364.189091 504 
L 365.413851 504 
L 364.189091 502.139237 
L 362.522545 499.607273 
L 360.581818 496.658743 
L 359.631245 495.214545 
L 356.974545 491.178256 
L 356.739935 490.821818 
L 353.848609 486.429091 
L 353.367273 485.697807 
L 350.957304 482.036364 
L 349.76 480.217315 
L 348.065989 477.643636 
L 346.152727 474.736844 
L 345.174683 473.250909 
L 342.545455 469.256356 
L 342.283375 468.858182 
L 339.392069 464.465455 
L 338.938182 463.775873 
L 336.50076 460.072727 
L 335.330909 458.295379 
L 333.744 455.68 
L 331.723636 452.117277 
L 331.413888 451.287273 
L 329.777082 446.894545 
L 328.140553 442.501818 
L 328.116364 442.436891 
L 326.50404 438.109091 
L 325.141841 433.716364 
L 325.180943 429.323636 
L 325.270994 424.930909 
L 325.743375 420.538182 
L 327.119109 416.145455 
L 328.116364 413.12125 
L 328.567647 411.752727 
L 330.01621 407.36 
L 331.464758 402.967273 
L 331.723636 402.182232 
L 332.91332 398.574545 
L 334.361878 394.181818 
L 335.330909 391.243217 
L 336.476951 389.789091 
L 338.938182 385.978187 
L 342.545455 385.646458 
L 346.152727 385.946158 
L 349.76 386.262641 
L 353.367273 386.579916 
L 356.974545 387.045704 
L 360.581818 387.573975 
L 364.189091 388.10228 
L 367.796364 388.630539 
L 371.403636 389.158837 
L 375.010909 389.687082 
L 375.707449 389.789091 
L 378.618182 390.215374 
L 382.225455 390.743677 
L 385.832727 391.271951 
L 389.44 391.80024 
L 393.047273 392.328518 
L 396.654545 392.85678 
L 400.261818 393.38505 
L 403.869091 393.913353 
L 405.702317 394.181818 
L 407.476364 394.441617 
L 411.083636 394.969895 
L 414.690909 395.498188 
L 418.298182 396.026473 
L 421.905455 396.554731 
L 425.512727 397.083049 
L 429.12 397.611332 
L 429.12 394.181818 
L 429.12 389.789091 
L 429.12 385.396364 
L 429.12 381.003636 
L 429.12 376.610909 
L 429.12 372.218182 
L 429.12 367.825455 
L 429.12 363.432727 
L 429.12 359.04 
L 429.12 354.647273 
L 429.12 350.254545 
L 429.12 345.861818 
L 429.12 341.469091 
L 429.12 337.076364 
L 429.12 332.683636 
L 429.12 328.290909 
L 429.12 323.898182 
L 429.12 319.505455 
L 429.12 318.036244 
L 425.512727 317.507974 
L 421.905455 316.979684 
L 418.298182 316.451396 
L 414.690909 315.923126 
L 411.083636 315.394837 
L 409.157291 315.112727 
L 407.476364 314.866559 
L 403.869091 314.338258 
L 400.261818 313.809996 
L 396.654545 313.281724 
L 393.047273 312.753443 
L 389.44 312.225172 
L 385.832727 311.696855 
L 382.225455 311.16861 
L 378.618182 310.791741 
L 377.800436 310.72 
L 375.010909 310.475274 
L 371.403636 310.158799 
L 367.796364 309.842285 
L 364.189091 309.525819 
L 360.581818 309.209324 
L 356.974545 308.892856 
L 353.367273 308.576333 
L 349.76 308.259868 
L 346.152727 307.943379 
L 342.545455 307.626886 
L 340.535506 310.72 
L 338.938182 312.88791 
L 337.624706 315.112727 
L 335.330909 318.998034 
L 335.031339 319.505455 
L 332.437974 323.898182 
L 331.723636 325.108151 
L 329.844615 328.290909 
L 328.116364 331.218283 
L 327.251253 332.683636 
L 324.681335 337.076364 
L 324.509091 337.446206 
L 323.182495 341.469091 
L 321.73394 345.861818 
L 320.901818 348.3852 
L 320.285374 350.254545 
L 318.836819 354.647273 
L 317.388269 359.04 
L 317.294545 359.324217 
L 315.939726 363.432727 
L 314.491165 367.825455 
L 313.687273 370.263268 
L 313.042622 372.218182 
L 311.594076 376.610909 
L 310.145515 381.003636 
L 310.08 381.202311 
L 308.696963 385.396364 
L 307.248406 389.789091 
L 306.472727 392.141342 
L 305.799862 394.181818 
L 304.351307 398.574545 
L 303.311496 402.967273 
L 303.189283 407.36 
L 304.336141 411.752727 
L 305.796092 416.145455 
L 306.472727 417.961671 
L 307.432617 420.538182 
L 309.069149 424.930909 
L 310.08 427.644214 
L 310.705671 429.323636 
L 312.342187 433.716364 
L 313.687273 437.326816 
L 313.978712 438.109091 
L 315.615228 442.501818 
L 317.251758 446.894545 
L 317.294545 447.009395 
L 318.888281 451.287273 
L 320.524814 455.68 
L 320.901818 456.691953 
L 322.161328 460.072727 
L 323.797857 464.465455 
L 324.509091 466.374537 
L 325.435598 468.858182 
L 327.076522 473.250909 
L 328.116364 476.032778 
L 328.791192 477.643636 
L 330.72451 482.036364 
L 331.723636 484.185821 
L 333.200168 486.429091 
L 335.330909 489.666295 
L 336.091476 490.821818 
L 338.938182 495.146788 
L 338.98278 495.214545 
L 341.8741 499.607273 
z
" style="fill:#a3c2fe;"/>
    <path clip-path="url(#pf6f63b6d65)" d="M 187.432727 280.571914 
L 191.04 281.757242 
L 191.389459 279.970909 
L 191.04 279.491416 
L 188.210157 275.578182 
L 187.432727 274.512525 
L 185.005523 271.185455 
L 183.825455 269.567868 
L 181.800911 266.792727 
L 180.218182 264.62321 
L 178.596275 262.4 
L 176.610909 259.678558 
L 175.391681 258.007273 
L 173.003636 254.733873 
L 172.187047 253.614545 
L 169.396364 249.789239 
L 168.982414 249.221818 
L 165.789091 244.844551 
L 165.777812 244.829091 
L 162.573161 240.436364 
L 162.181818 239.899931 
L 159.368557 236.043636 
L 158.574545 234.955251 
L 156.163922 231.650909 
L 154.967273 230.010596 
L 152.959318 227.258182 
L 151.36 225.065909 
L 149.754693 222.865455 
L 147.752727 220.121275 
L 146.55006 218.472727 
L 144.145455 215.176627 
L 143.345436 214.08 
L 140.538182 210.231977 
L 140.140804 209.687273 
L 136.936187 205.294545 
L 136.930909 205.287311 
L 133.731588 200.901818 
L 133.323636 200.342619 
L 130.521645 196.509091 
L 129.716364 195.413561 
L 127.285121 192.116364 
L 126.109091 190.521468 
L 124.046041 187.723636 
L 122.501818 185.629404 
L 120.806965 183.330909 
L 118.894545 180.737359 
L 117.567889 178.938182 
L 115.287273 175.845279 
L 114.32882 174.545455 
L 111.68 170.953217 
L 111.089741 170.152727 
L 108.072727 166.061126 
L 107.850684 165.76 
L 104.611584 161.367273 
L 104.465455 161.169093 
L 101.372541 156.974545 
L 100.858182 156.276992 
L 98.133453 152.581818 
L 97.250909 151.384316 
L 94.896273 148.189091 
L 93.643636 146.489155 
L 92.076821 143.796364 
L 90.036364 140.47742 
L 89.443826 139.403636 
L 87.019799 135.010909 
L 86.429091 133.940419 
L 84.59584 130.618182 
L 82.821818 127.403382 
L 82.171804 126.225455 
L 79.747799 121.832727 
L 79.214545 120.866382 
L 77.323785 117.44 
L 75.607273 114.329384 
L 74.899774 113.047273 
L 72.475745 108.654545 
L 72 107.792408 
L 72 108.654545 
L 72 113.047273 
L 72 117.44 
L 72 121.832727 
L 72 126.225455 
L 72 130.618182 
L 72 135.010909 
L 72 139.403636 
L 72 143.796364 
L 72 148.189091 
L 72 152.581818 
L 72 156.974545 
L 72 161.367273 
L 72 165.76 
L 72 170.152727 
L 72 174.545455 
L 72 178.938182 
L 72 183.330909 
L 72 187.723636 
L 72 192.116364 
L 72 196.509091 
L 72 200.901818 
L 72 205.294545 
L 72 209.687273 
L 72 214.08 
L 72 218.472727 
L 72 222.865455 
L 72 227.258182 
L 72 231.650909 
L 72 234.798869 
L 75.607273 234.4616 
L 79.214545 234.124382 
L 82.821818 233.787088 
L 86.429091 233.4499 
L 90.036364 233.112621 
L 93.643636 232.775416 
L 97.250909 232.438204 
L 100.858182 232.098312 
L 104.465455 234.21165 
L 107.129551 236.043636 
L 108.072727 236.69222 
L 111.68 239.172757 
L 113.51756 240.436364 
L 115.287273 241.653334 
L 118.894545 244.133889 
L 119.90553 244.829091 
L 122.501818 246.614402 
L 126.109091 249.089855 
L 126.293619 249.221818 
L 129.716364 251.575454 
L 132.681621 253.614545 
L 133.323636 254.056035 
L 136.930909 256.360799 
L 139.069635 258.007273 
L 140.538182 259.017101 
L 144.145455 261.135258 
L 146.047368 262.4 
L 147.752727 263.380799 
L 151.36 265.765563 
L 153.202419 266.792727 
L 154.967273 267.703743 
L 158.574545 269.676855 
L 161.081513 271.185455 
L 162.181818 271.798898 
L 165.789091 273.13781 
L 169.396364 274.645293 
L 172.2354 275.578182 
L 173.003636 275.830613 
L 176.610909 277.015916 
L 180.218182 278.201262 
L 183.825455 279.386655 
L 185.603585 279.970909 
z
" style="fill:#a3c2fe;"/>
   </g>
   <g id="PathCollection_4">
    <path clip-path="url(#pf6f63b6d65)" d="M 324.509091 499.948198 
L 326.023614 504 
L 328.116364 504 
L 331.723636 504 
L 335.330909 504 
L 338.938182 504 
L 342.545455 504 
L 344.765398 504 
L 342.545455 500.627251 
L 341.8741 499.607273 
L 338.98278 495.214545 
L 338.938182 495.146788 
L 336.091476 490.821818 
L 335.330909 489.666295 
L 333.200168 486.429091 
L 331.723636 484.185821 
L 330.72451 482.036364 
L 328.791192 477.643636 
L 328.116364 476.032778 
L 327.076522 473.250909 
L 325.435598 468.858182 
L 324.509091 466.374537 
L 323.797857 464.465455 
L 322.161328 460.072727 
L 320.901818 456.691953 
L 320.524814 455.68 
L 318.888281 451.287273 
L 317.294545 447.009395 
L 317.251758 446.894545 
L 315.615228 442.501818 
L 313.978712 438.109091 
L 313.687273 437.326816 
L 312.342187 433.716364 
L 310.705671 429.323636 
L 310.08 427.644214 
L 309.069149 424.930909 
L 307.432617 420.538182 
L 306.472727 417.961671 
L 305.796092 416.145455 
L 304.336141 411.752727 
L 303.189283 407.36 
L 303.311496 402.967273 
L 304.351307 398.574545 
L 305.799862 394.181818 
L 306.472727 392.141342 
L 307.248406 389.789091 
L 308.696963 385.396364 
L 310.08 381.202311 
L 310.145515 381.003636 
L 311.594076 376.610909 
L 313.042622 372.218182 
L 313.687273 370.263268 
L 314.491165 367.825455 
L 315.939726 363.432727 
L 317.294545 359.324217 
L 317.388269 359.04 
L 318.836819 354.647273 
L 320.285374 350.254545 
L 320.901818 348.3852 
L 321.73394 345.861818 
L 323.182495 341.469091 
L 324.509091 337.446206 
L 324.681335 337.076364 
L 327.251253 332.683636 
L 328.116364 331.218283 
L 329.844615 328.290909 
L 331.723636 325.108151 
L 332.437974 323.898182 
L 335.031339 319.505455 
L 335.330909 318.998034 
L 337.624706 315.112727 
L 338.938182 312.88791 
L 340.535506 310.72 
L 342.545455 307.626886 
L 346.152727 307.943379 
L 349.76 308.259868 
L 353.367273 308.576333 
L 356.974545 308.892856 
L 360.581818 309.209324 
L 364.189091 309.525819 
L 367.796364 309.842285 
L 371.403636 310.158799 
L 375.010909 310.475274 
L 377.800436 310.72 
L 378.618182 310.791741 
L 382.225455 311.16861 
L 385.832727 311.696855 
L 389.44 312.225172 
L 393.047273 312.753443 
L 396.654545 313.281724 
L 400.261818 313.809996 
L 403.869091 314.338258 
L 407.476364 314.866559 
L 409.157291 315.112727 
L 411.083636 315.394837 
L 414.690909 315.923126 
L 418.298182 316.451396 
L 421.905455 316.979684 
L 425.512727 317.507974 
L 429.12 318.036244 
L 429.12 315.112727 
L 429.12 310.72 
L 429.12 306.327273 
L 429.12 301.934545 
L 429.12 297.541818 
L 429.12 293.149091 
L 429.12 288.756364 
L 429.12 284.363636 
L 429.12 279.970909 
L 429.12 275.578182 
L 429.12 271.185455 
L 429.12 266.792727 
L 429.12 262.4 
L 429.12 258.007273 
L 429.12 253.614545 
L 429.12 249.221818 
L 429.12 244.829091 
L 429.12 240.436364 
L 429.12 238.4612 
L 425.512727 237.932938 
L 421.905455 237.404612 
L 418.298182 236.876358 
L 414.690909 236.34809 
L 412.612024 236.043636 
L 411.083636 235.819801 
L 407.476364 235.320878 
L 403.869091 235.004402 
L 400.261818 234.687921 
L 396.654545 234.371432 
L 393.047273 234.054951 
L 389.44 233.738461 
L 385.832727 233.42195 
L 382.225455 233.10549 
L 378.618182 232.788972 
L 375.010909 232.472478 
L 371.403636 232.156013 
L 367.796364 231.839534 
L 365.646452 231.650909 
L 364.189091 231.523045 
L 360.581818 231.20654 
L 356.974545 230.890075 
L 353.367273 230.573585 
L 349.76 230.257105 
L 346.707333 231.650909 
L 346.152727 231.874235 
L 343.691227 236.043636 
L 342.545455 237.984401 
L 341.097871 240.436364 
L 338.938182 244.094484 
L 338.504484 244.829091 
L 335.911117 249.221818 
L 335.330909 250.204596 
L 333.317759 253.614545 
L 331.723636 256.314723 
L 330.724395 258.007273 
L 328.131015 262.4 
L 328.116364 262.424817 
L 325.537657 266.792727 
L 324.509091 268.53496 
L 322.944294 271.185455 
L 320.901818 274.645028 
L 320.350902 275.578182 
L 317.757532 279.970909 
L 317.294545 280.755132 
L 315.164175 284.363636 
L 313.687273 286.865273 
L 312.641496 288.756364 
L 310.635182 293.149091 
L 310.08 294.588229 
L 309.10601 297.541818 
L 307.657453 301.934545 
L 306.472727 305.527209 
L 306.208898 306.327273 
L 304.760345 310.72 
L 303.3118 315.112727 
L 302.865455 316.46627 
L 301.863245 319.505455 
L 300.414689 323.898182 
L 299.258182 327.405287 
L 298.966138 328.290909 
L 297.517581 332.683636 
L 296.069034 337.076364 
L 295.650909 338.344321 
L 294.620474 341.469091 
L 293.171927 345.861818 
L 292.043636 349.283334 
L 291.723368 350.254545 
L 290.274817 354.647273 
L 288.826276 359.04 
L 288.436364 360.222403 
L 287.217639 363.432727 
L 284.829091 366.452206 
L 282.626299 363.432727 
L 281.221818 361.507537 
L 279.421683 359.04 
L 277.614545 356.562862 
L 276.217074 354.647273 
L 274.007273 351.618186 
L 273.01245 350.254545 
L 270.4 346.673556 
L 269.807811 345.861818 
L 266.792727 341.728918 
L 266.603176 341.469091 
L 263.398548 337.076364 
L 263.185455 336.784266 
L 260.19395 332.683636 
L 259.578182 331.839568 
L 256.989311 328.290909 
L 255.970909 326.89494 
L 253.784698 323.898182 
L 252.363636 321.950267 
L 250.580077 319.505455 
L 248.756364 317.005588 
L 247.375462 315.112727 
L 245.149091 312.060941 
L 244.170838 310.72 
L 241.541818 307.116289 
L 240.966208 306.327273 
L 237.934545 302.171611 
L 237.7616 301.934545 
L 234.556965 297.541818 
L 234.327273 297.226967 
L 231.352337 293.149091 
L 230.72 292.282316 
L 228.147731 288.756364 
L 227.112727 287.337631 
L 224.943098 284.363636 
L 223.505455 282.392979 
L 221.738489 279.970909 
L 219.898182 277.448333 
L 218.533854 275.578182 
L 216.290909 272.503669 
L 215.32923 271.185455 
L 212.683636 267.559011 
L 212.124611 266.792727 
L 209.076364 262.614342 
L 208.919996 262.4 
L 205.715369 258.007273 
L 205.469091 257.669687 
L 202.510757 253.614545 
L 201.861818 252.725014 
L 199.306138 249.221818 
L 198.254545 247.780352 
L 196.101507 244.829091 
L 194.647273 242.835696 
L 192.896893 240.436364 
L 191.04 237.891042 
L 189.692263 236.043636 
L 187.432727 232.946398 
L 186.487623 231.650909 
L 183.825455 228.001705 
L 183.283039 227.258182 
L 180.218182 223.057054 
L 180.078403 222.865455 
L 176.873769 218.472727 
L 176.610909 218.112413 
L 173.669151 214.08 
L 173.003636 213.167754 
L 170.464526 209.687273 
L 169.396364 208.223082 
L 167.259902 205.294545 
L 165.789091 203.278443 
L 164.055286 200.901818 
L 162.181818 198.333739 
L 160.850679 196.509091 
L 158.574545 193.389098 
L 157.646047 192.116364 
L 154.967273 188.444451 
L 154.44142 187.723636 
L 151.36 183.49981 
L 151.236782 183.330909 
L 148.032164 178.938182 
L 147.752727 178.55601 
L 144.805487 174.545455 
L 144.145455 173.650339 
L 141.566406 170.152727 
L 140.538182 168.758285 
L 138.32734 165.76 
L 136.930909 163.866196 
L 135.08827 161.367273 
L 133.323636 158.974119 
L 131.849208 156.974545 
L 129.716364 154.082077 
L 128.610121 152.581818 
L 126.109091 149.190009 
L 125.371036 148.189091 
L 122.501818 144.295766 
L 122.133811 143.796364 
L 118.896978 139.403636 
L 118.894545 139.400335 
L 115.660109 135.010909 
L 115.287273 134.504932 
L 112.423247 130.618182 
L 111.68 129.609524 
L 109.186395 126.225455 
L 108.072727 124.714113 
L 105.949526 121.832727 
L 104.465455 119.818684 
L 102.712675 117.44 
L 100.858182 114.92328 
L 99.475832 113.047273 
L 97.250909 110.027833 
L 96.238975 108.654545 
L 93.643636 105.132435 
L 93.002106 104.261818 
L 90.036364 100.236984 
L 89.804521 99.869091 
L 86.899954 95.476364 
L 86.429091 94.799964 
L 84.378337 91.083636 
L 82.821818 88.262961 
L 81.954319 86.690909 
L 79.530311 82.298182 
L 79.214545 81.725958 
L 77.106318 77.905455 
L 75.607273 75.188895 
L 74.682324 73.512727 
L 72.258308 69.12 
L 72 69.12 
L 72 73.512727 
L 72 77.905455 
L 72 82.298182 
L 72 86.690909 
L 72 91.083636 
L 72 95.476364 
L 72 99.869091 
L 72 104.261818 
L 72 107.792408 
L 72.475745 108.654545 
L 74.899774 113.047273 
L 75.607273 114.329384 
L 77.323785 117.44 
L 79.214545 120.866382 
L 79.747799 121.832727 
L 82.171804 126.225455 
L 82.821818 127.403382 
L 84.59584 130.618182 
L 86.429091 133.940419 
L 87.019799 135.010909 
L 89.443826 139.403636 
L 90.036364 140.47742 
L 92.076821 143.796364 
L 93.643636 146.489155 
L 94.896273 148.189091 
L 97.250909 151.384316 
L 98.133453 152.581818 
L 100.858182 156.276992 
L 101.372541 156.974545 
L 104.465455 161.169093 
L 104.611584 161.367273 
L 107.850684 165.76 
L 108.072727 166.061126 
L 111.089741 170.152727 
L 111.68 170.953217 
L 114.32882 174.545455 
L 115.287273 175.845279 
L 117.567889 178.938182 
L 118.894545 180.737359 
L 120.806965 183.330909 
L 122.501818 185.629404 
L 124.046041 187.723636 
L 126.109091 190.521468 
L 127.285121 192.116364 
L 129.716364 195.413561 
L 130.521645 196.509091 
L 133.323636 200.342619 
L 133.731588 200.901818 
L 136.930909 205.287311 
L 136.936187 205.294545 
L 140.140804 209.687273 
L 140.538182 210.231977 
L 143.345436 214.08 
L 144.145455 215.176627 
L 146.55006 218.472727 
L 147.752727 220.121275 
L 149.754693 222.865455 
L 151.36 225.065909 
L 152.959318 227.258182 
L 154.967273 230.010596 
L 156.163922 231.650909 
L 158.574545 234.955251 
L 159.368557 236.043636 
L 162.181818 239.899931 
L 162.573161 240.436364 
L 165.777812 244.829091 
L 165.789091 244.844551 
L 168.982414 249.221818 
L 169.396364 249.789239 
L 172.187047 253.614545 
L 173.003636 254.733873 
L 175.391681 258.007273 
L 176.610909 259.678558 
L 178.596275 262.4 
L 180.218182 264.62321 
L 181.800911 266.792727 
L 183.825455 269.567868 
L 185.005523 271.185455 
L 187.432727 274.512525 
L 188.210157 275.578182 
L 191.04 279.491416 
L 191.389459 279.970909 
L 191.04 281.757242 
L 187.432727 280.571914 
L 185.603585 279.970909 
L 183.825455 279.386655 
L 180.218182 278.201262 
L 176.610909 277.015916 
L 173.003636 275.830613 
L 172.2354 275.578182 
L 169.396364 274.645293 
L 165.789091 273.13781 
L 162.181818 271.798898 
L 161.081513 271.185455 
L 158.574545 269.676855 
L 154.967273 267.703743 
L 153.202419 266.792727 
L 151.36 265.765563 
L 147.752727 263.380799 
L 146.047368 262.4 
L 144.145455 261.135258 
L 140.538182 259.017101 
L 139.069635 258.007273 
L 136.930909 256.360799 
L 133.323636 254.056035 
L 132.681621 253.614545 
L 129.716364 251.575454 
L 126.293619 249.221818 
L 126.109091 249.089855 
L 122.501818 246.614402 
L 119.90553 244.829091 
L 118.894545 244.133889 
L 115.287273 241.653334 
L 113.51756 240.436364 
L 111.68 239.172757 
L 108.072727 236.69222 
L 107.129551 236.043636 
L 104.465455 234.21165 
L 100.858182 232.098312 
L 97.250909 232.438204 
L 93.643636 232.775416 
L 90.036364 233.112621 
L 86.429091 233.4499 
L 82.821818 233.787088 
L 79.214545 234.124382 
L 75.607273 234.4616 
L 72 234.798869 
L 72 236.043636 
L 72 240.436364 
L 72 244.829091 
L 72 249.221818 
L 72 253.614545 
L 72 258.007273 
L 72 262.4 
L 72 266.792727 
L 72 271.185455 
L 72 275.578182 
L 72 279.970909 
L 72 284.363636 
L 72 288.756364 
L 72 293.149091 
L 72 297.541818 
L 72 298.128635 
L 75.607273 297.75665 
L 77.690425 297.541818 
L 79.214545 297.384643 
L 82.821818 297.012672 
L 86.429091 296.640639 
L 90.036364 296.268686 
L 93.643636 295.896762 
L 97.250909 295.52474 
L 100.858182 295.152747 
L 104.465455 294.780748 
L 108.072727 294.725863 
L 111.68 297.206473 
L 112.167691 297.541818 
L 115.287273 299.68692 
L 118.555807 301.934545 
L 118.894545 302.167481 
L 122.501818 304.648026 
L 124.943818 306.327273 
L 126.109091 307.128579 
L 129.716364 309.609179 
L 131.331789 310.72 
L 133.323636 312.089681 
L 136.930909 314.570266 
L 137.719782 315.112727 
L 140.538182 317.050778 
L 144.107772 319.505455 
L 144.145455 319.531367 
L 147.752727 322.011883 
L 150.495853 323.898182 
L 151.36 324.492407 
L 154.967273 326.972961 
L 156.883865 328.290909 
L 158.574545 329.4535 
L 162.181818 331.934056 
L 163.271888 332.683636 
L 165.789091 334.414592 
L 169.396364 336.895158 
L 169.659873 337.076364 
L 173.003636 339.375702 
L 176.047876 341.469091 
L 176.610909 341.85627 
L 180.218182 344.336765 
L 182.43593 345.861818 
L 183.825455 346.817337 
L 187.432727 349.297924 
L 188.8239 350.254545 
L 191.04 351.778426 
L 194.647273 354.258992 
L 195.211917 354.647273 
L 198.254545 356.739553 
L 201.599952 359.04 
L 201.861818 359.220072 
L 205.469091 361.70063 
L 207.987901 363.432727 
L 209.076364 364.181218 
L 212.683636 366.661741 
L 214.375954 367.825455 
L 216.290909 369.142264 
L 219.898182 371.622797 
L 220.763993 372.218182 
L 223.505455 374.103374 
L 227.112727 376.583923 
L 227.151972 376.610909 
L 230.72 379.06444 
L 233.540005 381.003636 
L 234.327273 381.54501 
L 237.934545 384.025575 
L 239.927982 385.396364 
L 241.541818 386.506109 
L 245.149091 388.986627 
L 246.316055 389.789091 
L 248.756364 391.46719 
L 252.363636 393.947759 
L 252.704015 394.181818 
L 255.970909 396.428272 
L 259.091991 398.574545 
L 259.578182 398.908884 
L 263.185455 401.389411 
L 265.480024 402.967273 
L 266.792727 403.869948 
L 270.4 406.350498 
L 271.868028 407.36 
L 274.007273 408.831077 
L 277.614545 411.311598 
L 278.25605 411.752727 
L 281.221818 413.792127 
L 284.644078 416.145455 
L 284.829091 416.272679 
L 288.436364 418.7532 
L 291.032078 420.538182 
L 292.043636 421.233798 
L 295.650909 423.784581 
L 295.969082 424.930909 
L 297.55922 429.323636 
L 299.258182 432.216763 
L 299.816861 433.716364 
L 301.453388 438.109091 
L 302.865455 441.899349 
L 303.089905 442.501818 
L 304.72643 446.894545 
L 306.362949 451.287273 
L 306.472727 451.581939 
L 307.999479 455.68 
L 309.636002 460.072727 
L 310.08 461.264495 
L 311.272525 464.465455 
L 312.909045 468.858182 
L 313.687273 470.947097 
L 314.545563 473.250909 
L 316.182086 477.643636 
L 317.294545 480.629672 
L 317.818674 482.036364 
L 319.456977 486.429091 
L 320.901818 490.297758 
L 321.097707 490.821818 
L 322.739684 495.214545 
L 324.381656 499.607273 
z
" style="fill:#ccd9ed;"/>
   </g>
   <g id="PathCollection_5">
    <path clip-path="url(#pf6f63b6d65)" d="M 313.687273 504 
L 317.294545 504 
L 320.901818 504 
L 324.509091 504 
L 326.023614 504 
L 324.509091 499.948198 
L 324.381656 499.607273 
L 322.739684 495.214545 
L 321.097707 490.821818 
L 320.901818 490.297758 
L 319.456977 486.429091 
L 317.818674 482.036364 
L 317.294545 480.629672 
L 316.182086 477.643636 
L 314.545563 473.250909 
L 313.687273 470.947097 
L 312.909045 468.858182 
L 311.272525 464.465455 
L 310.08 461.264495 
L 309.636002 460.072727 
L 307.999479 455.68 
L 306.472727 451.581939 
L 306.362949 451.287273 
L 304.72643 446.894545 
L 303.089905 442.501818 
L 302.865455 441.899349 
L 301.453388 438.109091 
L 299.816861 433.716364 
L 299.258182 432.216763 
L 297.55922 429.323636 
L 295.969082 424.930909 
L 295.650909 423.784581 
L 292.043636 421.233798 
L 291.032078 420.538182 
L 288.436364 418.7532 
L 284.829091 416.272679 
L 284.644078 416.145455 
L 281.221818 413.792127 
L 278.25605 411.752727 
L 277.614545 411.311598 
L 274.007273 408.831077 
L 271.868028 407.36 
L 270.4 406.350498 
L 266.792727 403.869948 
L 265.480024 402.967273 
L 263.185455 401.389411 
L 259.578182 398.908884 
L 259.091991 398.574545 
L 255.970909 396.428272 
L 252.704015 394.181818 
L 252.363636 393.947759 
L 248.756364 391.46719 
L 246.316055 389.789091 
L 245.149091 388.986627 
L 241.541818 386.506109 
L 239.927982 385.396364 
L 237.934545 384.025575 
L 234.327273 381.54501 
L 233.540005 381.003636 
L 230.72 379.06444 
L 227.151972 376.610909 
L 227.112727 376.583923 
L 223.505455 374.103374 
L 220.763993 372.218182 
L 219.898182 371.622797 
L 216.290909 369.142264 
L 214.375954 367.825455 
L 212.683636 366.661741 
L 209.076364 364.181218 
L 207.987901 363.432727 
L 205.469091 361.70063 
L 201.861818 359.220072 
L 201.599952 359.04 
L 198.254545 356.739553 
L 195.211917 354.647273 
L 194.647273 354.258992 
L 191.04 351.778426 
L 188.8239 350.254545 
L 187.432727 349.297924 
L 183.825455 346.817337 
L 182.43593 345.861818 
L 180.218182 344.336765 
L 176.610909 341.85627 
L 176.047876 341.469091 
L 173.003636 339.375702 
L 169.659873 337.076364 
L 169.396364 336.895158 
L 165.789091 334.414592 
L 163.271888 332.683636 
L 162.181818 331.934056 
L 158.574545 329.4535 
L 156.883865 328.290909 
L 154.967273 326.972961 
L 151.36 324.492407 
L 150.495853 323.898182 
L 147.752727 322.011883 
L 144.145455 319.531367 
L 144.107772 319.505455 
L 140.538182 317.050778 
L 137.719782 315.112727 
L 136.930909 314.570266 
L 133.323636 312.089681 
L 131.331789 310.72 
L 129.716364 309.609179 
L 126.109091 307.128579 
L 124.943818 306.327273 
L 122.501818 304.648026 
L 118.894545 302.167481 
L 118.555807 301.934545 
L 115.287273 299.68692 
L 112.167691 297.541818 
L 111.68 297.206473 
L 108.072727 294.725863 
L 104.465455 294.780748 
L 100.858182 295.152747 
L 97.250909 295.52474 
L 93.643636 295.896762 
L 90.036364 296.268686 
L 86.429091 296.640639 
L 82.821818 297.012672 
L 79.214545 297.384643 
L 77.690425 297.541818 
L 75.607273 297.75665 
L 72 298.128635 
L 72 301.934545 
L 72 306.327273 
L 72 310.72 
L 72 315.112727 
L 72 319.505455 
L 72 323.898182 
L 72 328.290909 
L 72 332.683636 
L 72 337.076364 
L 72 341.469091 
L 72 345.861818 
L 72 350.254545 
L 72 354.647273 
L 72 359.04 
L 72 361.171641 
L 75.607273 360.79966 
L 79.214545 360.427643 
L 82.821818 360.055713 
L 86.429091 359.683679 
L 90.036364 359.311612 
L 92.670803 359.04 
L 93.643636 358.939706 
L 97.250909 358.567669 
L 100.858182 358.195738 
L 104.465455 357.823711 
L 108.072727 357.451732 
L 111.68 357.079814 
L 115.287273 357.720612 
L 117.205967 359.04 
L 118.894545 360.20115 
L 122.501818 362.68169 
L 123.594001 363.432727 
L 126.109091 365.162196 
L 129.716364 367.642798 
L 129.981982 367.825455 
L 133.323636 370.123324 
L 136.369994 372.218182 
L 136.930909 372.603905 
L 140.538182 375.084453 
L 142.758001 376.610909 
L 144.145455 377.56498 
L 147.752727 380.045535 
L 149.146018 381.003636 
L 151.36 382.526082 
L 154.967273 385.006638 
L 155.534012 385.396364 
L 158.574545 387.487188 
L 161.922071 389.789091 
L 162.181818 389.967707 
L 165.789091 392.44823 
L 168.310146 394.181818 
L 169.396364 394.928767 
L 173.003636 397.409362 
L 174.698071 398.574545 
L 176.610909 399.889904 
L 180.218182 402.37042 
L 181.086133 402.967273 
L 183.825455 404.850987 
L 187.432727 407.331547 
L 187.474104 407.36 
L 191.04 409.812074 
L 193.86215 411.752727 
L 194.647273 412.29262 
L 198.254545 414.773203 
L 200.250087 416.145455 
L 201.861818 417.253773 
L 205.469091 419.734293 
L 206.638114 420.538182 
L 209.076364 422.214852 
L 212.683636 424.695359 
L 213.026174 424.930909 
L 216.290909 427.175927 
L 219.414159 429.323636 
L 219.898182 429.656477 
L 223.505455 432.137024 
L 225.80218 433.716364 
L 227.112727 434.617562 
L 230.72 437.098143 
L 232.190152 438.109091 
L 234.327273 439.578669 
L 237.934545 442.059201 
L 238.578207 442.501818 
L 241.541818 444.539757 
L 244.966199 446.894545 
L 245.149091 447.020312 
L 248.756364 449.500862 
L 251.354214 451.287273 
L 252.363636 451.981403 
L 255.970909 454.461941 
L 257.742219 455.68 
L 259.578182 456.942519 
L 263.185455 459.42305 
L 264.13025 460.072727 
L 266.792727 461.903558 
L 270.4 464.38413 
L 270.518261 464.465455 
L 274.007273 466.864731 
L 276.90622 468.858182 
L 277.614545 469.345257 
L 281.221818 471.825766 
L 283.29429 473.250909 
L 284.829091 474.306326 
L 288.436364 476.786858 
L 289.682292 477.643636 
L 292.043636 479.267443 
L 295.650909 481.74795 
L 296.070324 482.036364 
L 299.258182 484.228507 
L 302.458378 486.429091 
L 302.865455 486.709018 
L 306.472727 489.18962 
L 307.15375 490.821818 
L 310.08 494.884748 
L 310.202867 495.214545 
L 311.815343 499.607273 
L 313.423419 504 
z
" style="fill:#ecd3c5;"/>
    <path clip-path="url(#pf6f63b6d65)" d="M 284.829091 366.452206 
L 287.217639 363.432727 
L 288.436364 360.222403 
L 288.826276 359.04 
L 290.274817 354.647273 
L 291.723368 350.254545 
L 292.043636 349.283334 
L 293.171927 345.861818 
L 294.620474 341.469091 
L 295.650909 338.344321 
L 296.069034 337.076364 
L 297.517581 332.683636 
L 298.966138 328.290909 
L 299.258182 327.405287 
L 300.414689 323.898182 
L 301.863245 319.505455 
L 302.865455 316.46627 
L 303.3118 315.112727 
L 304.760345 310.72 
L 306.208898 306.327273 
L 306.472727 305.527209 
L 307.657453 301.934545 
L 309.10601 297.541818 
L 310.08 294.588229 
L 310.635182 293.149091 
L 312.641496 288.756364 
L 313.687273 286.865273 
L 315.164175 284.363636 
L 317.294545 280.755132 
L 317.757532 279.970909 
L 320.350902 275.578182 
L 320.901818 274.645028 
L 322.944294 271.185455 
L 324.509091 268.53496 
L 325.537657 266.792727 
L 328.116364 262.424817 
L 328.131015 262.4 
L 330.724395 258.007273 
L 331.723636 256.314723 
L 333.317759 253.614545 
L 335.330909 250.204596 
L 335.911117 249.221818 
L 338.504484 244.829091 
L 338.938182 244.094484 
L 341.097871 240.436364 
L 342.545455 237.984401 
L 343.691227 236.043636 
L 346.152727 231.874235 
L 346.707333 231.650909 
L 349.76 230.257105 
L 353.367273 230.573585 
L 356.974545 230.890075 
L 360.581818 231.20654 
L 364.189091 231.523045 
L 365.646452 231.650909 
L 367.796364 231.839534 
L 371.403636 232.156013 
L 375.010909 232.472478 
L 378.618182 232.788972 
L 382.225455 233.10549 
L 385.832727 233.42195 
L 389.44 233.738461 
L 393.047273 234.054951 
L 396.654545 234.371432 
L 400.261818 234.687921 
L 403.869091 235.004402 
L 407.476364 235.320878 
L 411.083636 235.819801 
L 412.612024 236.043636 
L 414.690909 236.34809 
L 418.298182 236.876358 
L 421.905455 237.404612 
L 425.512727 237.932938 
L 429.12 238.4612 
L 429.12 236.043636 
L 429.12 231.650909 
L 429.12 227.258182 
L 429.12 222.865455 
L 429.12 218.472727 
L 429.12 214.08 
L 429.12 209.687273 
L 429.12 205.294545 
L 429.12 200.901818 
L 429.12 196.509091 
L 429.12 192.116364 
L 429.12 187.723636 
L 429.12 183.330909 
L 429.12 178.938182 
L 429.12 174.545455 
L 429.12 170.152727 
L 429.12 165.76 
L 429.12 161.367273 
L 429.12 156.974545 
L 429.12 152.581818 
L 429.12 148.189091 
L 429.12 143.796364 
L 429.12 139.403636 
L 429.12 135.010909 
L 429.12 130.618182 
L 429.12 126.225455 
L 429.12 121.832727 
L 429.12 117.44 
L 429.12 113.047273 
L 429.12 108.654545 
L 429.12 104.261818 
L 429.12 99.869091 
L 429.12 95.476364 
L 429.12 91.083636 
L 429.12 86.690909 
L 429.12 82.298182 
L 429.12 77.905455 
L 429.12 73.512727 
L 429.12 69.12 
L 425.512727 69.12 
L 421.905455 69.12 
L 418.298182 69.12 
L 414.690909 69.12 
L 411.083636 69.12 
L 407.476364 69.12 
L 403.869091 69.12 
L 400.261818 69.12 
L 396.654545 69.12 
L 393.047273 69.12 
L 389.44 69.12 
L 385.832727 69.12 
L 382.225455 69.12 
L 378.618182 69.12 
L 375.010909 69.12 
L 371.403636 69.12 
L 367.796364 69.12 
L 364.189091 69.12 
L 360.581818 69.12 
L 356.974545 69.12 
L 353.367273 69.12 
L 349.76 69.12 
L 346.152727 69.12 
L 342.545455 69.12 
L 338.938182 69.12 
L 335.330909 69.12 
L 331.723636 69.12 
L 328.116364 69.12 
L 324.509091 69.12 
L 320.901818 69.12 
L 317.294545 69.12 
L 313.687273 69.12 
L 310.08 69.12 
L 306.472727 69.12 
L 302.865455 69.12 
L 299.258182 69.12 
L 295.650909 69.12 
L 292.043636 69.12 
L 288.436364 69.12 
L 284.829091 69.12 
L 281.221818 69.12 
L 277.614545 69.12 
L 274.007273 69.12 
L 270.4 69.12 
L 266.792727 69.12 
L 263.185455 69.12 
L 259.578182 69.12 
L 255.970909 69.12 
L 252.363636 69.12 
L 248.756364 69.12 
L 245.149091 69.12 
L 241.541818 69.12 
L 237.934545 69.12 
L 234.327273 69.12 
L 230.72 69.12 
L 227.112727 69.12 
L 223.505455 69.12 
L 219.898182 69.12 
L 216.290909 69.12 
L 212.683636 69.12 
L 209.076364 69.12 
L 205.469091 69.12 
L 201.861818 69.12 
L 198.254545 69.12 
L 194.647273 69.12 
L 191.04 69.12 
L 187.432727 69.12 
L 183.825455 69.12 
L 180.218182 69.12 
L 176.610909 69.12 
L 173.003636 69.12 
L 169.396364 69.12 
L 165.789091 69.12 
L 162.181818 69.12 
L 158.574545 69.12 
L 154.967273 69.12 
L 151.36 69.12 
L 147.752727 69.12 
L 144.145455 69.12 
L 140.538182 69.12 
L 136.930909 69.12 
L 133.323636 69.12 
L 129.716364 69.12 
L 126.109091 69.12 
L 125.782107 69.12 
L 126.109091 70.594911 
L 126.755965 73.512727 
L 127.729852 77.905455 
L 128.703702 82.298182 
L 129.677585 86.690909 
L 129.716364 86.865823 
L 130.651451 91.083636 
L 131.625331 95.476364 
L 132.599202 99.869091 
L 133.323636 103.13674 
L 133.573063 104.261818 
L 134.546933 108.654545 
L 135.520797 113.047273 
L 135.469756 117.44 
L 133.323636 117.625214 
L 133.187158 117.44 
L 130.918653 113.047273 
L 129.716364 112.23348 
L 127.443917 108.654545 
L 126.109091 107.444601 
L 123.872948 104.261818 
L 122.501818 102.891776 
L 120.282614 99.869091 
L 118.894545 98.04353 
L 117.00288 95.476364 
L 115.287273 93.1481 
L 113.766041 91.083636 
L 111.68 88.252674 
L 110.52918 86.690909 
L 108.072727 83.357267 
L 107.292321 82.298182 
L 104.465455 78.461858 
L 104.05546 77.905455 
L 100.858182 73.566454 
L 100.818592 73.512727 
L 97.581731 69.12 
L 97.250909 69.12 
L 93.643636 69.12 
L 90.036364 69.12 
L 86.429091 69.12 
L 82.821818 69.12 
L 79.214545 69.12 
L 75.607273 69.12 
L 72.258308 69.12 
L 74.682324 73.512727 
L 75.607273 75.188895 
L 77.106318 77.905455 
L 79.214545 81.725958 
L 79.530311 82.298182 
L 81.954319 86.690909 
L 82.821818 88.262961 
L 84.378337 91.083636 
L 86.429091 94.799964 
L 86.899954 95.476364 
L 89.804521 99.869091 
L 90.036364 100.236984 
L 93.002106 104.261818 
L 93.643636 105.132435 
L 96.238975 108.654545 
L 97.250909 110.027833 
L 99.475832 113.047273 
L 100.858182 114.92328 
L 102.712675 117.44 
L 104.465455 119.818684 
L 105.949526 121.832727 
L 108.072727 124.714113 
L 109.186395 126.225455 
L 111.68 129.609524 
L 112.423247 130.618182 
L 115.287273 134.504932 
L 115.660109 135.010909 
L 118.894545 139.400335 
L 118.896978 139.403636 
L 122.133811 143.796364 
L 122.501818 144.295766 
L 125.371036 148.189091 
L 126.109091 149.190009 
L 128.610121 152.581818 
L 129.716364 154.082077 
L 131.849208 156.974545 
L 133.323636 158.974119 
L 135.08827 161.367273 
L 136.930909 163.866196 
L 138.32734 165.76 
L 140.538182 168.758285 
L 141.566406 170.152727 
L 144.145455 173.650339 
L 144.805487 174.545455 
L 147.752727 178.55601 
L 148.032164 178.938182 
L 151.236782 183.330909 
L 151.36 183.49981 
L 154.44142 187.723636 
L 154.967273 188.444451 
L 157.646047 192.116364 
L 158.574545 193.389098 
L 160.850679 196.509091 
L 162.181818 198.333739 
L 164.055286 200.901818 
L 165.789091 203.278443 
L 167.259902 205.294545 
L 169.396364 208.223082 
L 170.464526 209.687273 
L 173.003636 213.167754 
L 173.669151 214.08 
L 176.610909 218.112413 
L 176.873769 218.472727 
L 180.078403 222.865455 
L 180.218182 223.057054 
L 183.283039 227.258182 
L 183.825455 228.001705 
L 186.487623 231.650909 
L 187.432727 232.946398 
L 189.692263 236.043636 
L 191.04 237.891042 
L 192.896893 240.436364 
L 194.647273 242.835696 
L 196.101507 244.829091 
L 198.254545 247.780352 
L 199.306138 249.221818 
L 201.861818 252.725014 
L 202.510757 253.614545 
L 205.469091 257.669687 
L 205.715369 258.007273 
L 208.919996 262.4 
L 209.076364 262.614342 
L 212.124611 266.792727 
L 212.683636 267.559011 
L 215.32923 271.185455 
L 216.290909 272.503669 
L 218.533854 275.578182 
L 219.898182 277.448333 
L 221.738489 279.970909 
L 223.505455 282.392979 
L 224.943098 284.363636 
L 227.112727 287.337631 
L 228.147731 288.756364 
L 230.72 292.282316 
L 231.352337 293.149091 
L 234.327273 297.226967 
L 234.556965 297.541818 
L 237.7616 301.934545 
L 237.934545 302.171611 
L 240.966208 306.327273 
L 241.541818 307.116289 
L 244.170838 310.72 
L 245.149091 312.060941 
L 247.375462 315.112727 
L 248.756364 317.005588 
L 250.580077 319.505455 
L 252.363636 321.950267 
L 253.784698 323.898182 
L 255.970909 326.89494 
L 256.989311 328.290909 
L 259.578182 331.839568 
L 260.19395 332.683636 
L 263.185455 336.784266 
L 263.398548 337.076364 
L 266.603176 341.469091 
L 266.792727 341.728918 
L 269.807811 345.861818 
L 270.4 346.673556 
L 273.01245 350.254545 
L 274.007273 351.618186 
L 276.217074 354.647273 
L 277.614545 356.562862 
L 279.421683 359.04 
L 281.221818 361.507537 
L 282.626299 363.432727 
z
M 136.802426 121.832727 
L 136.930909 119.407778 
L 137.468518 121.832727 
L 136.930909 122.00956 
z
" style="fill:#ecd3c5;"/>
   </g>
   <g id="PathCollection_6">
    <path clip-path="url(#pf6f63b6d65)" d="M 237.934545 500.092849 
L 241.541818 502.573366 
L 243.616449 504 
L 245.149091 504 
L 248.756364 504 
L 252.363636 504 
L 255.970909 504 
L 259.578182 504 
L 263.185455 504 
L 266.792727 504 
L 270.4 504 
L 274.007273 504 
L 277.614545 504 
L 281.221818 504 
L 284.829091 504 
L 288.436364 504 
L 292.043636 504 
L 295.650909 504 
L 299.258182 504 
L 302.865455 504 
L 306.472727 504 
L 310.08 504 
L 313.423419 504 
L 311.815343 499.607273 
L 310.202867 495.214545 
L 310.08 494.884748 
L 307.15375 490.821818 
L 306.472727 489.18962 
L 302.865455 486.709018 
L 302.458378 486.429091 
L 299.258182 484.228507 
L 296.070324 482.036364 
L 295.650909 481.74795 
L 292.043636 479.267443 
L 289.682292 477.643636 
L 288.436364 476.786858 
L 284.829091 474.306326 
L 283.29429 473.250909 
L 281.221818 471.825766 
L 277.614545 469.345257 
L 276.90622 468.858182 
L 274.007273 466.864731 
L 270.518261 464.465455 
L 270.4 464.38413 
L 266.792727 461.903558 
L 264.13025 460.072727 
L 263.185455 459.42305 
L 259.578182 456.942519 
L 257.742219 455.68 
L 255.970909 454.461941 
L 252.363636 451.981403 
L 251.354214 451.287273 
L 248.756364 449.500862 
L 245.149091 447.020312 
L 244.966199 446.894545 
L 241.541818 444.539757 
L 238.578207 442.501818 
L 237.934545 442.059201 
L 234.327273 439.578669 
L 232.190152 438.109091 
L 230.72 437.098143 
L 227.112727 434.617562 
L 225.80218 433.716364 
L 223.505455 432.137024 
L 219.898182 429.656477 
L 219.414159 429.323636 
L 216.290909 427.175927 
L 213.026174 424.930909 
L 212.683636 424.695359 
L 209.076364 422.214852 
L 206.638114 420.538182 
L 205.469091 419.734293 
L 201.861818 417.253773 
L 200.250087 416.145455 
L 198.254545 414.773203 
L 194.647273 412.29262 
L 193.86215 411.752727 
L 191.04 409.812074 
L 187.474104 407.36 
L 187.432727 407.331547 
L 183.825455 404.850987 
L 181.086133 402.967273 
L 180.218182 402.37042 
L 176.610909 399.889904 
L 174.698071 398.574545 
L 173.003636 397.409362 
L 169.396364 394.928767 
L 168.310146 394.181818 
L 165.789091 392.44823 
L 162.181818 389.967707 
L 161.922071 389.789091 
L 158.574545 387.487188 
L 155.534012 385.396364 
L 154.967273 385.006638 
L 151.36 382.526082 
L 149.146018 381.003636 
L 147.752727 380.045535 
L 144.145455 377.56498 
L 142.758001 376.610909 
L 140.538182 375.084453 
L 136.930909 372.603905 
L 136.369994 372.218182 
L 133.323636 370.123324 
L 129.981982 367.825455 
L 129.716364 367.642798 
L 126.109091 365.162196 
L 123.594001 363.432727 
L 122.501818 362.68169 
L 118.894545 360.20115 
L 117.205967 359.04 
L 115.287273 357.720612 
L 111.68 357.079814 
L 108.072727 357.451732 
L 104.465455 357.823711 
L 100.858182 358.195738 
L 97.250909 358.567669 
L 93.643636 358.939706 
L 92.670803 359.04 
L 90.036364 359.311612 
L 86.429091 359.683679 
L 82.821818 360.055713 
L 79.214545 360.427643 
L 75.607273 360.79966 
L 72 361.171641 
L 72 363.432727 
L 72 367.825455 
L 72 372.218182 
L 72 376.610909 
L 72 381.003636 
L 72 385.396364 
L 72 389.789091 
L 72 394.181818 
L 72 398.574545 
L 72 402.967273 
L 72 407.36 
L 72 411.752727 
L 72 416.145455 
L 72 420.538182 
L 72 424.214701 
L 75.607273 423.84262 
L 79.214545 423.470627 
L 82.821818 423.09867 
L 86.429091 422.72667 
L 90.036364 422.354684 
L 93.643636 421.982704 
L 97.250909 421.610766 
L 100.858182 421.238698 
L 104.465455 420.866735 
L 107.651552 420.538182 
L 108.072727 420.494749 
L 111.68 420.122792 
L 115.287273 419.750796 
L 118.894545 419.378799 
L 121.988359 420.538182 
L 122.501818 420.715311 
L 126.109091 423.195894 
L 128.632173 424.930909 
L 129.716364 425.676472 
L 133.323636 428.157032 
L 135.020168 429.323636 
L 136.930909 430.637523 
L 140.538182 433.118093 
L 141.4082 433.716364 
L 144.145455 435.598634 
L 147.752727 438.079138 
L 147.796284 438.109091 
L 151.36 440.559724 
L 154.18421 442.501818 
L 154.967273 443.040295 
L 158.574545 445.520834 
L 160.572285 446.894545 
L 162.181818 448.001314 
L 165.789091 450.481915 
L 166.960245 451.287273 
L 169.396364 452.962493 
L 173.003636 455.443001 
L 173.348288 455.68 
L 176.610909 457.92354 
L 179.736362 460.072727 
L 180.218182 460.404049 
L 183.825455 462.88464 
L 186.124311 464.465455 
L 187.432727 465.3652 
L 191.04 467.845715 
L 192.51233 468.858182 
L 194.647273 470.326306 
L 198.254545 472.806849 
L 198.900306 473.250909 
L 201.861818 475.287386 
L 205.288355 477.643636 
L 205.469091 477.76792 
L 209.076364 480.248519 
L 211.676342 482.036364 
L 212.683636 482.729013 
L 216.290909 485.209592 
L 218.064363 486.429091 
L 219.898182 487.690111 
L 223.505455 490.17069 
L 224.45234 490.821818 
L 227.112727 492.651227 
L 230.72 495.131782 
L 230.840356 495.214545 
L 234.327273 497.612326 
L 237.228402 499.607273 
z
" style="fill:#f7b093;"/>
    <path clip-path="url(#pf6f63b6d65)" d="M 136.930909 122.00956 
L 137.468518 121.832727 
L 136.930909 119.407778 
L 136.802426 121.832727 
z
" style="fill:#f7b093;"/>
    <path clip-path="url(#pf6f63b6d65)" d="M 133.323636 117.625214 
L 135.469756 117.44 
L 135.520797 113.047273 
L 134.546933 108.654545 
L 133.573063 104.261818 
L 133.323636 103.13674 
L 132.599202 99.869091 
L 131.625331 95.476364 
L 130.651451 91.083636 
L 129.716364 86.865823 
L 129.677585 86.690909 
L 128.703702 82.298182 
L 127.729852 77.905455 
L 126.755965 73.512727 
L 126.109091 70.594911 
L 125.782107 69.12 
L 122.501818 69.12 
L 118.894545 69.12 
L 115.287273 69.12 
L 111.68 69.12 
L 108.072727 69.12 
L 104.465455 69.12 
L 100.858182 69.12 
L 97.581731 69.12 
L 100.818592 73.512727 
L 100.858182 73.566454 
L 104.05546 77.905455 
L 104.465455 78.461858 
L 107.292321 82.298182 
L 108.072727 83.357267 
L 110.52918 86.690909 
L 111.68 88.252674 
L 113.766041 91.083636 
L 115.287273 93.1481 
L 117.00288 95.476364 
L 118.894545 98.04353 
L 120.282614 99.869091 
L 122.501818 102.891776 
L 123.872948 104.261818 
L 126.109091 107.444601 
L 127.443917 108.654545 
L 129.716364 112.23348 
L 130.918653 113.047273 
L 133.187158 117.44 
z
" style="fill:#f7b093;"/>
   </g>
   <g id="PathCollection_7">
    <path clip-path="url(#pf6f63b6d65)" d="M 154.967273 501.073899 
L 158.574545 503.55453 
L 159.222347 504 
L 162.181818 504 
L 165.789091 504 
L 169.396364 504 
L 173.003636 504 
L 176.610909 504 
L 180.218182 504 
L 183.825455 504 
L 187.432727 504 
L 191.04 504 
L 194.647273 504 
L 198.254545 504 
L 201.861818 504 
L 205.469091 504 
L 209.076364 504 
L 212.683636 504 
L 216.290909 504 
L 219.898182 504 
L 223.505455 504 
L 227.112727 504 
L 230.72 504 
L 234.327273 504 
L 237.934545 504 
L 241.541818 504 
L 243.616449 504 
L 241.541818 502.573366 
L 237.934545 500.092849 
L 237.228402 499.607273 
L 234.327273 497.612326 
L 230.840356 495.214545 
L 230.72 495.131782 
L 227.112727 492.651227 
L 224.45234 490.821818 
L 223.505455 490.17069 
L 219.898182 487.690111 
L 218.064363 486.429091 
L 216.290909 485.209592 
L 212.683636 482.729013 
L 211.676342 482.036364 
L 209.076364 480.248519 
L 205.469091 477.76792 
L 205.288355 477.643636 
L 201.861818 475.287386 
L 198.900306 473.250909 
L 198.254545 472.806849 
L 194.647273 470.326306 
L 192.51233 468.858182 
L 191.04 467.845715 
L 187.432727 465.3652 
L 186.124311 464.465455 
L 183.825455 462.88464 
L 180.218182 460.404049 
L 179.736362 460.072727 
L 176.610909 457.92354 
L 173.348288 455.68 
L 173.003636 455.443001 
L 169.396364 452.962493 
L 166.960245 451.287273 
L 165.789091 450.481915 
L 162.181818 448.001314 
L 160.572285 446.894545 
L 158.574545 445.520834 
L 154.967273 443.040295 
L 154.18421 442.501818 
L 151.36 440.559724 
L 147.796284 438.109091 
L 147.752727 438.079138 
L 144.145455 435.598634 
L 141.4082 433.716364 
L 140.538182 433.118093 
L 136.930909 430.637523 
L 135.020168 429.323636 
L 133.323636 428.157032 
L 129.716364 425.676472 
L 128.632173 424.930909 
L 126.109091 423.195894 
L 122.501818 420.715311 
L 121.988359 420.538182 
L 118.894545 419.378799 
L 115.287273 419.750796 
L 111.68 420.122792 
L 108.072727 420.494749 
L 107.651552 420.538182 
L 104.465455 420.866735 
L 100.858182 421.238698 
L 97.250909 421.610766 
L 93.643636 421.982704 
L 90.036364 422.354684 
L 86.429091 422.72667 
L 82.821818 423.09867 
L 79.214545 423.470627 
L 75.607273 423.84262 
L 72 424.214701 
L 72 424.930909 
L 72 429.323636 
L 72 433.716364 
L 72 438.109091 
L 72 442.501818 
L 72 446.894545 
L 72 451.287273 
L 72 455.68 
L 72 460.072727 
L 72 464.465455 
L 72 468.858182 
L 72 473.250909 
L 72 477.643636 
L 72 482.036364 
L 72 486.429091 
L 72 487.257666 
L 75.607273 486.88568 
L 79.214545 486.513682 
L 80.034778 486.429091 
L 82.821818 486.141655 
L 86.429091 485.76969 
L 90.036364 485.397682 
L 93.643636 485.025684 
L 97.250909 484.653675 
L 100.858182 484.281764 
L 104.465455 483.909812 
L 108.072727 483.537774 
L 111.68 483.165764 
L 115.287273 482.793849 
L 118.894545 482.421774 
L 122.501818 482.049831 
L 122.632411 482.036364 
L 126.109091 481.677835 
L 126.703246 482.036364 
L 129.716364 483.710114 
L 133.323636 486.190661 
L 133.670369 486.429091 
L 136.930909 488.671158 
L 140.058408 490.821818 
L 140.538182 491.151739 
L 144.145455 493.632337 
L 146.4464 495.214545 
L 147.752727 496.112811 
L 151.36 498.593365 
L 152.834446 499.607273 
z
" style="fill:#eb7d62;"/>
   </g>
   <g id="PathCollection_8">
    <path clip-path="url(#pf6f63b6d65)" d="M 75.607273 504 
L 79.214545 504 
L 82.821818 504 
L 86.429091 504 
L 90.036364 504 
L 93.643636 504 
L 97.250909 504 
L 100.858182 504 
L 104.465455 504 
L 108.072727 504 
L 111.68 504 
L 115.287273 504 
L 118.894545 504 
L 122.501818 504 
L 126.109091 504 
L 129.716364 504 
L 133.323636 504 
L 136.930909 504 
L 140.538182 504 
L 144.145455 504 
L 147.752727 504 
L 151.36 504 
L 154.967273 504 
L 158.574545 504 
L 159.222347 504 
L 158.574545 503.55453 
L 154.967273 501.073899 
L 152.834446 499.607273 
L 151.36 498.593365 
L 147.752727 496.112811 
L 146.4464 495.214545 
L 144.145455 493.632337 
L 140.538182 491.151739 
L 140.058408 490.821818 
L 136.930909 488.671158 
L 133.670369 486.429091 
L 133.323636 486.190661 
L 129.716364 483.710114 
L 126.703246 482.036364 
L 126.109091 481.677835 
L 122.632411 482.036364 
L 122.501818 482.049831 
L 118.894545 482.421774 
L 115.287273 482.793849 
L 111.68 483.165764 
L 108.072727 483.537774 
L 104.465455 483.909812 
L 100.858182 484.281764 
L 97.250909 484.653675 
L 93.643636 485.025684 
L 90.036364 485.397682 
L 86.429091 485.76969 
L 82.821818 486.141655 
L 80.034778 486.429091 
L 79.214545 486.513682 
L 75.607273 486.88568 
L 72 487.257666 
L 72 490.821818 
L 72 495.214545 
L 72 499.607273 
L 72 504 
z
" style="fill:#ca3b37;"/>
   </g>
   <g id="matplotlib.axis_1">
    <g id="xtick_1">
     <g id="line2d_1">
      <defs>
       <path d="M 0 0 
L 0 3.5 
" id="m0ae1f917c9" style="stroke:#000000;stroke-width:0.8;"/>
      </defs>
      <g>
       <use style="stroke:#000000;stroke-width:0.8;" x="72" xlink:href="#m0ae1f917c9" y="504"/>
      </g>
     </g>
     <g id="text_1">
      <!-- 0.50 -->
      <defs>
       <path d="M 10.59375 35.5 
L 73.1875 35.5 
L 73.1875 27.203125 
L 10.59375 27.203125 
z
" id="DejaVuSans-2212"/>
       <path d="M 31.78125 66.40625 
Q 24.171875 66.40625 20.328125 58.90625 
Q 16.5 51.421875 16.5 36.375 
Q 16.5 21.390625 20.328125 13.890625 
Q 24.171875 6.390625 31.78125 6.390625 
Q 39.453125 6.390625 43.28125 13.890625 
Q 47.125 21.390625 47.125 36.375 
Q 47.125 51.421875 43.28125 58.90625 
Q 39.453125 66.40625 31.78125 66.40625 
z
M 31.78125 74.21875 
Q 44.046875 74.21875 50.515625 64.515625 
Q 56.984375 54.828125 56.984375 36.375 
Q 56.984375 17.96875 50.515625 8.265625 
Q 44.046875 -1.421875 31.78125 -1.421875 
Q 19.53125 -1.421875 13.0625 8.265625 
Q 6.59375 17.96875 6.59375 36.375 
Q 6.59375 54.828125 13.0625 64.515625 
Q 19.53125 74.21875 31.78125 74.21875 
z
" id="DejaVuSans-30"/>
       <path d="M 10.6875 12.40625 
L 21 12.40625 
L 21 0 
L 10.6875 0 
z
" id="DejaVuSans-2e"/>
       <path d="M 10.796875 72.90625 
L 49.515625 72.90625 
L 49.515625 64.59375 
L 19.828125 64.59375 
L 19.828125 46.734375 
Q 21.96875 47.46875 24.109375 47.828125 
Q 26.265625 48.1875 28.421875 48.1875 
Q 40.625 48.1875 47.75 41.5 
Q 54.890625 34.8125 54.890625 23.390625 
Q 54.890625 11.625 47.5625 5.09375 
Q 40.234375 -1.421875 26.90625 -1.421875 
Q 22.3125 -1.421875 17.546875 -0.640625 
Q 12.796875 0.140625 7.71875 1.703125 
L 7.71875 11.625 
Q 12.109375 9.234375 16.796875 8.0625 
Q 21.484375 6.890625 26.703125 6.890625 
Q 35.15625 6.890625 40.078125 11.328125 
Q 45.015625 15.765625 45.015625 23.390625 
Q 45.015625 31 40.078125 35.4375 
Q 35.15625 39.890625 26.703125 39.890625 
Q 22.75 39.890625 18.8125 39.015625 
Q 14.890625 38.140625 10.796875 36.28125 
z
" id="DejaVuSans-35"/>
      </defs>
      <g transform="translate(56.677344 518.598438)scale(0.1 -0.1)">
       <use xlink:href="#DejaVuSans-2212"/>
       <use x="83.789062" xlink:href="#DejaVuSans-30"/>
       <use x="147.412109" xlink:href="#DejaVuSans-2e"/>
       <use x="179.199219" xlink:href="#DejaVuSans-35"/>
       <use x="242.822266" xlink:href="#DejaVuSans-30"/>
      </g>
     </g>
    </g>
    <g id="xtick_2">
     <g id="line2d_2">
      <g>
       <use style="stroke:#000000;stroke-width:0.8;" x="116.64" xlink:href="#m0ae1f917c9" y="504"/>
      </g>
     </g>
     <g id="text_2">
      <!-- 0.25 -->
      <defs>
       <path d="M 19.1875 8.296875 
L 53.609375 8.296875 
L 53.609375 0 
L 7.328125 0 
L 7.328125 8.296875 
Q 12.9375 14.109375 22.625 23.890625 
Q 32.328125 33.6875 34.8125 36.53125 
Q 39.546875 41.84375 41.421875 45.53125 
Q 43.3125 49.21875 43.3125 52.78125 
Q 43.3125 58.59375 39.234375 62.25 
Q 35.15625 65.921875 28.609375 65.921875 
Q 23.96875 65.921875 18.8125 64.3125 
Q 13.671875 62.703125 7.8125 59.421875 
L 7.8125 69.390625 
Q 13.765625 71.78125 18.9375 73 
Q 24.125 74.21875 28.421875 74.21875 
Q 39.75 74.21875 46.484375 68.546875 
Q 53.21875 62.890625 53.21875 53.421875 
Q 53.21875 48.921875 51.53125 44.890625 
Q 49.859375 40.875 45.40625 35.40625 
Q 44.1875 33.984375 37.640625 27.21875 
Q 31.109375 20.453125 19.1875 8.296875 
z
" id="DejaVuSans-32"/>
      </defs>
      <g transform="translate(101.317344 518.598438)scale(0.1 -0.1)">
       <use xlink:href="#DejaVuSans-2212"/>
       <use x="83.789062" xlink:href="#DejaVuSans-30"/>
       <use x="147.412109" xlink:href="#DejaVuSans-2e"/>
       <use x="179.199219" xlink:href="#DejaVuSans-32"/>
       <use x="242.822266" xlink:href="#DejaVuSans-35"/>
      </g>
     </g>
    </g>
    <g id="xtick_3">
     <g id="line2d_3">
      <g>
       <use style="stroke:#000000;stroke-width:0.8;" x="161.28" xlink:href="#m0ae1f917c9" y="504"/>
      </g>
     </g>
     <g id="text_3">
      <!-- 0.00 -->
      <g transform="translate(150.147188 518.598438)scale(0.1 -0.1)">
       <use xlink:href="#DejaVuSans-30"/>
       <use x="63.623047" xlink:href="#DejaVuSans-2e"/>
       <use x="95.410156" xlink:href="#DejaVuSans-30"/>
       <use x="159.033203" xlink:href="#DejaVuSans-30"/>
      </g>
     </g>
    </g>
    <g id="xtick_4">
     <g id="line2d_4">
      <g>
       <use style="stroke:#000000;stroke-width:0.8;" x="205.92" xlink:href="#m0ae1f917c9" y="504"/>
      </g>
     </g>
     <g id="text_4">
      <!-- 0.25 -->
      <g transform="translate(194.787188 518.598438)scale(0.1 -0.1)">
       <use xlink:href="#DejaVuSans-30"/>
       <use x="63.623047" xlink:href="#DejaVuSans-2e"/>
       <use x="95.410156" xlink:href="#DejaVuSans-32"/>
       <use x="159.033203" xlink:href="#DejaVuSans-35"/>
      </g>
     </g>
    </g>
    <g id="xtick_5">
     <g id="line2d_5">
      <g>
       <use style="stroke:#000000;stroke-width:0.8;" x="250.56" xlink:href="#m0ae1f917c9" y="504"/>
      </g>
     </g>
     <g id="text_5">
      <!-- 0.50 -->
      <g transform="translate(239.427188 518.598438)scale(0.1 -0.1)">
       <use xlink:href="#DejaVuSans-30"/>
       <use x="63.623047" xlink:href="#DejaVuSans-2e"/>
       <use x="95.410156" xlink:href="#DejaVuSans-35"/>
       <use x="159.033203" xlink:href="#DejaVuSans-30"/>
      </g>
     </g>
    </g>
    <g id="xtick_6">
     <g id="line2d_6">
      <g>
       <use style="stroke:#000000;stroke-width:0.8;" x="295.2" xlink:href="#m0ae1f917c9" y="504"/>
      </g>
     </g>
     <g id="text_6">
      <!-- 0.75 -->
      <defs>
       <path d="M 8.203125 72.90625 
L 55.078125 72.90625 
L 55.078125 68.703125 
L 28.609375 0 
L 18.3125 0 
L 43.21875 64.59375 
L 8.203125 64.59375 
z
" id="DejaVuSans-37"/>
      </defs>
      <g transform="translate(284.067188 518.598438)scale(0.1 -0.1)">
       <use xlink:href="#DejaVuSans-30"/>
       <use x="63.623047" xlink:href="#DejaVuSans-2e"/>
       <use x="95.410156" xlink:href="#DejaVuSans-37"/>
       <use x="159.033203" xlink:href="#DejaVuSans-35"/>
      </g>
     </g>
    </g>
    <g id="xtick_7">
     <g id="line2d_7">
      <g>
       <use style="stroke:#000000;stroke-width:0.8;" x="339.84" xlink:href="#m0ae1f917c9" y="504"/>
      </g>
     </g>
     <g id="text_7">
      <!-- 1.00 -->
      <defs>
       <path d="M 12.40625 8.296875 
L 28.515625 8.296875 
L 28.515625 63.921875 
L 10.984375 60.40625 
L 10.984375 69.390625 
L 28.421875 72.90625 
L 38.28125 72.90625 
L 38.28125 8.296875 
L 54.390625 8.296875 
L 54.390625 0 
L 12.40625 0 
z
" id="DejaVuSans-31"/>
      </defs>
      <g transform="translate(328.707188 518.598438)scale(0.1 -0.1)">
       <use xlink:href="#DejaVuSans-31"/>
       <use x="63.623047" xlink:href="#DejaVuSans-2e"/>
       <use x="95.410156" xlink:href="#DejaVuSans-30"/>
       <use x="159.033203" xlink:href="#DejaVuSans-30"/>
      </g>
     </g>
    </g>
    <g id="xtick_8">
     <g id="line2d_8">
      <g>
       <use style="stroke:#000000;stroke-width:0.8;" x="384.48" xlink:href="#m0ae1f917c9" y="504"/>
      </g>
     </g>
     <g id="text_8">
      <!-- 1.25 -->
      <g transform="translate(373.347188 518.598438)scale(0.1 -0.1)">
       <use xlink:href="#DejaVuSans-31"/>
       <use x="63.623047" xlink:href="#DejaVuSans-2e"/>
       <use x="95.410156" xlink:href="#DejaVuSans-32"/>
       <use x="159.033203" xlink:href="#DejaVuSans-35"/>
      </g>
     </g>
    </g>
    <g id="xtick_9">
     <g id="line2d_9">
      <g>
       <use style="stroke:#000000;stroke-width:0.8;" x="429.12" xlink:href="#m0ae1f917c9" y="504"/>
      </g>
     </g>
     <g id="text_9">
      <!-- 1.50 -->
      <g transform="translate(417.987188 518.598438)scale(0.1 -0.1)">
       <use xlink:href="#DejaVuSans-31"/>
       <use x="63.623047" xlink:href="#DejaVuSans-2e"/>
       <use x="95.410156" xlink:href="#DejaVuSans-35"/>
       <use x="159.033203" xlink:href="#DejaVuSans-30"/>
      </g>
     </g>
    </g>
   </g>
   <g id="matplotlib.axis_2">
    <g id="ytick_1">
     <g id="line2d_10">
      <defs>
       <path d="M 0 0 
L -3.5 0 
" id="m34a34b07c5" style="stroke:#000000;stroke-width:0.8;"/>
      </defs>
      <g>
       <use style="stroke:#000000;stroke-width:0.8;" x="72" xlink:href="#m34a34b07c5" y="504"/>
      </g>
     </g>
     <g id="text_10">
      <!-- 0.50 -->
      <g transform="translate(34.354687 507.799219)scale(0.1 -0.1)">
       <use xlink:href="#DejaVuSans-2212"/>
       <use x="83.789062" xlink:href="#DejaVuSans-30"/>
       <use x="147.412109" xlink:href="#DejaVuSans-2e"/>
       <use x="179.199219" xlink:href="#DejaVuSans-35"/>
       <use x="242.822266" xlink:href="#DejaVuSans-30"/>
      </g>
     </g>
    </g>
    <g id="ytick_2">
     <g id="line2d_11">
      <g>
       <use style="stroke:#000000;stroke-width:0.8;" x="72" xlink:href="#m34a34b07c5" y="449.64"/>
      </g>
     </g>
     <g id="text_11">
      <!-- 0.25 -->
      <g transform="translate(34.354687 453.439219)scale(0.1 -0.1)">
       <use xlink:href="#DejaVuSans-2212"/>
       <use x="83.789062" xlink:href="#DejaVuSans-30"/>
       <use x="147.412109" xlink:href="#DejaVuSans-2e"/>
       <use x="179.199219" xlink:href="#DejaVuSans-32"/>
       <use x="242.822266" xlink:href="#DejaVuSans-35"/>
      </g>
     </g>
    </g>
    <g id="ytick_3">
     <g id="line2d_12">
      <g>
       <use style="stroke:#000000;stroke-width:0.8;" x="72" xlink:href="#m34a34b07c5" y="395.28"/>
      </g>
     </g>
     <g id="text_12">
      <!-- 0.00 -->
      <g transform="translate(42.734375 399.079219)scale(0.1 -0.1)">
       <use xlink:href="#DejaVuSans-30"/>
       <use x="63.623047" xlink:href="#DejaVuSans-2e"/>
       <use x="95.410156" xlink:href="#DejaVuSans-30"/>
       <use x="159.033203" xlink:href="#DejaVuSans-30"/>
      </g>
     </g>
    </g>
    <g id="ytick_4">
     <g id="line2d_13">
      <g>
       <use style="stroke:#000000;stroke-width:0.8;" x="72" xlink:href="#m34a34b07c5" y="340.92"/>
      </g>
     </g>
     <g id="text_13">
      <!-- 0.25 -->
      <g transform="translate(42.734375 344.719219)scale(0.1 -0.1)">
       <use xlink:href="#DejaVuSans-30"/>
       <use x="63.623047" xlink:href="#DejaVuSans-2e"/>
       <use x="95.410156" xlink:href="#DejaVuSans-32"/>
       <use x="159.033203" xlink:href="#DejaVuSans-35"/>
      </g>
     </g>
    </g>
    <g id="ytick_5">
     <g id="line2d_14">
      <g>
       <use style="stroke:#000000;stroke-width:0.8;" x="72" xlink:href="#m34a34b07c5" y="286.56"/>
      </g>
     </g>
     <g id="text_14">
      <!-- 0.50 -->
      <g transform="translate(42.734375 290.359219)scale(0.1 -0.1)">
       <use xlink:href="#DejaVuSans-30"/>
       <use x="63.623047" xlink:href="#DejaVuSans-2e"/>
       <use x="95.410156" xlink:href="#DejaVuSans-35"/>
       <use x="159.033203" xlink:href="#DejaVuSans-30"/>
      </g>
     </g>
    </g>
    <g id="ytick_6">
     <g id="line2d_15">
      <g>
       <use style="stroke:#000000;stroke-width:0.8;" x="72" xlink:href="#m34a34b07c5" y="232.2"/>
      </g>
     </g>
     <g id="text_15">
      <!-- 0.75 -->
      <g transform="translate(42.734375 235.999219)scale(0.1 -0.1)">
       <use xlink:href="#DejaVuSans-30"/>
       <use x="63.623047" xlink:href="#DejaVuSans-2e"/>
       <use x="95.410156" xlink:href="#DejaVuSans-37"/>
       <use x="159.033203" xlink:href="#DejaVuSans-35"/>
      </g>
     </g>
    </g>
    <g id="ytick_7">
     <g id="line2d_16">
      <g>
       <use style="stroke:#000000;stroke-width:0.8;" x="72" xlink:href="#m34a34b07c5" y="177.84"/>
      </g>
     </g>
     <g id="text_16">
      <!-- 1.00 -->
      <g transform="translate(42.734375 181.639219)scale(0.1 -0.1)">
       <use xlink:href="#DejaVuSans-31"/>
       <use x="63.623047" xlink:href="#DejaVuSans-2e"/>
       <use x="95.410156" xlink:href="#DejaVuSans-30"/>
       <use x="159.033203" xlink:href="#DejaVuSans-30"/>
      </g>
     </g>
    </g>
    <g id="ytick_8">
     <g id="line2d_17">
      <g>
       <use style="stroke:#000000;stroke-width:0.8;" x="72" xlink:href="#m34a34b07c5" y="123.48"/>
      </g>
     </g>
     <g id="text_17">
      <!-- 1.25 -->
      <g transform="translate(42.734375 127.279219)scale(0.1 -0.1)">
       <use xlink:href="#DejaVuSans-31"/>
       <use x="63.623047" xlink:href="#DejaVuSans-2e"/>
       <use x="95.410156" xlink:href="#DejaVuSans-32"/>
       <use x="159.033203" xlink:href="#DejaVuSans-35"/>
      </g>
     </g>
    </g>
    <g id="ytick_9">
     <g id="line2d_18">
      <g>
       <use style="stroke:#000000;stroke-width:0.8;" x="72" xlink:href="#m34a34b07c5" y="69.12"/>
      </g>
     </g>
     <g id="text_18">
      <!-- 1.50 -->
      <g transform="translate(42.734375 72.919219)scale(0.1 -0.1)">
       <use xlink:href="#DejaVuSans-31"/>
       <use x="63.623047" xlink:href="#DejaVuSans-2e"/>
       <use x="95.410156" xlink:href="#DejaVuSans-35"/>
       <use x="159.033203" xlink:href="#DejaVuSans-30"/>
      </g>
     </g>
    </g>
   </g>
   <g id="patch_3">
    <path d="M 72 504 
L 72 69.12 
" style="fill:none;stroke:#000000;stroke-linecap:square;stroke-linejoin:miter;stroke-width:0.8;"/>
   </g>
   <g id="patch_4">
    <path d="M 429.12 504 
L 429.12 69.12 
" style="fill:none;stroke:#000000;stroke-linecap:square;stroke-linejoin:miter;stroke-width:0.8;"/>
   </g>
   <g id="patch_5">
    <path d="M 72 504 
L 429.12 504 
" style="fill:none;stroke:#000000;stroke-linecap:square;stroke-linejoin:miter;stroke-width:0.8;"/>
   </g>
   <g id="patch_6">
    <path d="M 72 69.12 
L 429.12 69.12 
" style="fill:none;stroke:#000000;stroke-linecap:square;stroke-linejoin:miter;stroke-width:0.8;"/>
   </g>
  </g>
  <g id="axes_2">
   <g id="patch_7">
    <path clip-path="url(#pefae2d695c)" d="M 451.44 504 
L 451.44 449.64 
L 451.44 123.48 
L 451.44 69.12 
L 473.184 69.12 
L 473.184 123.48 
L 473.184 449.64 
L 473.184 504 
z
" style="fill:#ffffff;stroke:#ffffff;stroke-linejoin:miter;stroke-width:0.01;"/>
   </g>
   <g id="QuadMesh_1">
    <path clip-path="url(#pefae2d695c)" d="M 451.44 504 
L 473.184 504 
L 473.184 449.64 
L 451.44 449.64 
L 451.44 504 
" style="fill:#4e68d8;"/>
    <path clip-path="url(#pefae2d695c)" d="M 451.44 449.64 
L 473.184 449.64 
L 473.184 395.28 
L 451.44 395.28 
L 451.44 449.64 
" style="fill:#779af7;"/>
    <path clip-path="url(#pefae2d695c)" d="M 451.44 395.28 
L 473.184 395.28 
L 473.184 340.92 
L 451.44 340.92 
L 451.44 395.28 
" style="fill:#a3c2fe;"/>
    <path clip-path="url(#pefae2d695c)" d="M 451.44 340.92 
L 473.184 340.92 
L 473.184 286.56 
L 451.44 286.56 
L 451.44 340.92 
" style="fill:#ccd9ed;"/>
    <path clip-path="url(#pefae2d695c)" d="M 451.44 286.56 
L 473.184 286.56 
L 473.184 232.2 
L 451.44 232.2 
L 451.44 286.56 
" style="fill:#ecd3c5;"/>
    <path clip-path="url(#pefae2d695c)" d="M 451.44 232.2 
L 473.184 232.2 
L 473.184 177.84 
L 451.44 177.84 
L 451.44 232.2 
" style="fill:#f7b093;"/>
    <path clip-path="url(#pefae2d695c)" d="M 451.44 177.84 
L 473.184 177.84 
L 473.184 123.48 
L 451.44 123.48 
L 451.44 177.84 
" style="fill:#eb7d62;"/>
    <path clip-path="url(#pefae2d695c)" d="M 451.44 123.48 
L 473.184 123.48 
L 473.184 69.12 
L 451.44 69.12 
L 451.44 123.48 
" style="fill:#ca3b37;"/>
   </g>
   <g id="matplotlib.axis_3"/>
   <g id="matplotlib.axis_4">
    <g id="ytick_10">
     <g id="line2d_19">
      <defs>
       <path d="M 0 0 
L 3.5 0 
" id="m1bd82651fb" style="stroke:#000000;stroke-width:0.8;"/>
      </defs>
      <g>
       <use style="stroke:#000000;stroke-width:0.8;" x="473.184" xlink:href="#m1bd82651fb" y="504"/>
      </g>
     </g>
     <g id="text_19">
      <!-- 10.0 -->
      <g transform="translate(480.184 507.799219)scale(0.1 -0.1)">
       <use xlink:href="#DejaVuSans-2212"/>
       <use x="83.789062" xlink:href="#DejaVuSans-31"/>
       <use x="147.412109" xlink:href="#DejaVuSans-30"/>
       <use x="211.035156" xlink:href="#DejaVuSans-2e"/>
       <use x="242.822266" xlink:href="#DejaVuSans-30"/>
      </g>
     </g>
    </g>
    <g id="ytick_11">
     <g id="line2d_20">
      <g>
       <use style="stroke:#000000;stroke-width:0.8;" x="473.184" xlink:href="#m1bd82651fb" y="449.64"/>
      </g>
     </g>
     <g id="text_20">
      <!-- 7.5 -->
      <g transform="translate(480.184 453.439219)scale(0.1 -0.1)">
       <use xlink:href="#DejaVuSans-2212"/>
       <use x="83.789062" xlink:href="#DejaVuSans-37"/>
       <use x="147.412109" xlink:href="#DejaVuSans-2e"/>
       <use x="179.199219" xlink:href="#DejaVuSans-35"/>
      </g>
     </g>
    </g>
    <g id="ytick_12">
     <g id="line2d_21">
      <g>
       <use style="stroke:#000000;stroke-width:0.8;" x="473.184" xlink:href="#m1bd82651fb" y="395.28"/>
      </g>
     </g>
     <g id="text_21">
      <!-- 5.0 -->
      <g transform="translate(480.184 399.079219)scale(0.1 -0.1)">
       <use xlink:href="#DejaVuSans-2212"/>
       <use x="83.789062" xlink:href="#DejaVuSans-35"/>
       <use x="147.412109" xlink:href="#DejaVuSans-2e"/>
       <use x="179.199219" xlink:href="#DejaVuSans-30"/>
      </g>
     </g>
    </g>
    <g id="ytick_13">
     <g id="line2d_22">
      <g>
       <use style="stroke:#000000;stroke-width:0.8;" x="473.184" xlink:href="#m1bd82651fb" y="340.92"/>
      </g>
     </g>
     <g id="text_22">
      <!-- 2.5 -->
      <g transform="translate(480.184 344.719219)scale(0.1 -0.1)">
       <use xlink:href="#DejaVuSans-2212"/>
       <use x="83.789062" xlink:href="#DejaVuSans-32"/>
       <use x="147.412109" xlink:href="#DejaVuSans-2e"/>
       <use x="179.199219" xlink:href="#DejaVuSans-35"/>
      </g>
     </g>
    </g>
    <g id="ytick_14">
     <g id="line2d_23">
      <g>
       <use style="stroke:#000000;stroke-width:0.8;" x="473.184" xlink:href="#m1bd82651fb" y="286.56"/>
      </g>
     </g>
     <g id="text_23">
      <!-- 0.0 -->
      <g transform="translate(480.184 290.359219)scale(0.1 -0.1)">
       <use xlink:href="#DejaVuSans-30"/>
       <use x="63.623047" xlink:href="#DejaVuSans-2e"/>
       <use x="95.410156" xlink:href="#DejaVuSans-30"/>
      </g>
     </g>
    </g>
    <g id="ytick_15">
     <g id="line2d_24">
      <g>
       <use style="stroke:#000000;stroke-width:0.8;" x="473.184" xlink:href="#m1bd82651fb" y="232.2"/>
      </g>
     </g>
     <g id="text_24">
      <!-- 2.5 -->
      <g transform="translate(480.184 235.999219)scale(0.1 -0.1)">
       <use xlink:href="#DejaVuSans-32"/>
       <use x="63.623047" xlink:href="#DejaVuSans-2e"/>
       <use x="95.410156" xlink:href="#DejaVuSans-35"/>
      </g>
     </g>
    </g>
    <g id="ytick_16">
     <g id="line2d_25">
      <g>
       <use style="stroke:#000000;stroke-width:0.8;" x="473.184" xlink:href="#m1bd82651fb" y="177.84"/>
      </g>
     </g>
     <g id="text_25">
      <!-- 5.0 -->
      <g transform="translate(480.184 181.639219)scale(0.1 -0.1)">
       <use xlink:href="#DejaVuSans-35"/>
       <use x="63.623047" xlink:href="#DejaVuSans-2e"/>
       <use x="95.410156" xlink:href="#DejaVuSans-30"/>
      </g>
     </g>
    </g>
    <g id="ytick_17">
     <g id="line2d_26">
      <g>
       <use style="stroke:#000000;stroke-width:0.8;" x="473.184" xlink:href="#m1bd82651fb" y="123.48"/>
      </g>
     </g>
     <g id="text_26">
      <!-- 7.5 -->
      <g transform="translate(480.184 127.279219)scale(0.1 -0.1)">
       <use xlink:href="#DejaVuSans-37"/>
       <use x="63.623047" xlink:href="#DejaVuSans-2e"/>
       <use x="95.410156" xlink:href="#DejaVuSans-35"/>
      </g>
     </g>
    </g>
    <g id="ytick_18">
     <g id="line2d_27">
      <g>
       <use style="stroke:#000000;stroke-width:0.8;" x="473.184" xlink:href="#m1bd82651fb" y="69.12"/>
      </g>
     </g>
     <g id="text_27">
      <!-- 10.0 -->
      <g transform="translate(480.184 72.919219)scale(0.1 -0.1)">
       <use xlink:href="#DejaVuSans-31"/>
       <use x="63.623047" xlink:href="#DejaVuSans-30"/>
       <use x="127.246094" xlink:href="#DejaVuSans-2e"/>
       <use x="159.033203" xlink:href="#DejaVuSans-30"/>
      </g>
     </g>
    </g>
   </g>
   <g id="patch_8">
    <path d="M 451.44 504 
L 451.44 449.64 
L 451.44 123.48 
L 451.44 69.12 
L 473.184 69.12 
L 473.184 123.48 
L 473.184 449.64 
L 473.184 504 
z
" style="fill:none;stroke:#000000;stroke-linejoin:miter;stroke-width:0.8;"/>
   </g>
  </g>
 </g>
 <defs>
  <clipPath id="pf6f63b6d65">
   <rect height="434.88" width="357.12" x="72" y="69.12"/>
  </clipPath>
  <clipPath id="pefae2d695c">
   <rect height="434.88" width="21.744" x="451.44" y="69.12"/>
  </clipPath>
 </defs>
</svg>
