<?xml version="1.0" encoding="utf-8" standalone="no"?>
<!DOCTYPE svg PUBLIC "-//W3C//DTD SVG 1.1//EN"
  "http://www.w3.org/Graphics/SVG/1.1/DTD/svg11.dtd">
<!-- Created with matplotlib (http://matplotlib.org/) -->
<svg height="576pt" version="1.1" viewBox="0 0 576 576" width="576pt" xmlns="http://www.w3.org/2000/svg" xmlns:xlink="http://www.w3.org/1999/xlink">
 <defs>
  <style type="text/css">
*{stroke-linecap:butt;stroke-linejoin:round;}
  </style>
 </defs>
 <g id="figure_1">
  <g id="patch_1">
   <path d="M 0 576 
L 576 576 
L 576 0 
L 0 0 
z
" style="fill:#ffffff;"/>
  </g>
  <g id="axes_1">
   <g id="patch_2">
    <path d="M 72 504 
L 429.12 504 
L 429.12 69.12 
L 72 69.12 
z
" style="fill:#ffffff;"/>
   </g>
   <g id="PathCollection_1">
    <path clip-path="url(#pc609f93098)" d="M 356.974545 504 
L 360.581818 504 
L 364.189091 504 
L 367.796364 504 
L 371.403636 504 
L 375.010909 504 
L 378.618182 504 
L 382.225455 504 
L 385.832727 504 
L 389.44 504 
L 393.047273 504 
L 396.654545 504 
L 400.261818 504 
L 403.869091 504 
L 407.476364 504 
L 411.083636 504 
L 414.690909 504 
L 418.298182 504 
L 421.905455 504 
L 425.512727 504 
L 429.12 504 
L 429.12 499.607273 
L 429.12 495.214545 
L 429.12 490.821818 
L 429.12 486.429091 
L 429.12 482.036364 
L 429.12 478.120748 
L 425.512727 479.316026 
L 421.905455 480.511271 
L 418.298182 481.706507 
L 417.302703 482.036364 
L 414.690909 482.901795 
L 411.083636 484.097048 
L 407.476364 485.292322 
L 404.045575 486.429091 
L 403.869091 486.487568 
L 400.261818 487.682831 
L 396.654545 488.878106 
L 393.047273 490.073352 
L 390.788425 490.821818 
L 389.44 491.268618 
L 385.832727 492.463889 
L 382.225455 493.659143 
L 378.618182 494.854412 
L 377.531302 495.214545 
L 375.010909 496.049671 
L 371.403636 497.244942 
L 367.796364 498.440194 
L 364.274066 499.607273 
L 364.189091 499.635429 
L 360.581818 500.830711 
L 356.974545 502.025977 
L 355.023243 504 
z
" style="fill:#4e68d8;"/>
   </g>
   <g id="PathCollection_2">
    <path clip-path="url(#pc609f93098)" d="M 302.865455 504 
L 306.472727 504 
L 310.08 504 
L 313.687273 504 
L 317.294545 504 
L 320.901818 504 
L 324.509091 504 
L 328.116364 504 
L 331.723636 504 
L 335.330909 504 
L 338.938182 504 
L 342.545455 504 
L 346.152727 504 
L 349.76 504 
L 353.367273 504 
L 355.023243 504 
L 356.974545 502.025977 
L 360.581818 500.830711 
L 364.189091 499.635429 
L 364.274066 499.607273 
L 367.796364 498.440194 
L 371.403636 497.244942 
L 375.010909 496.049671 
L 377.531302 495.214545 
L 378.618182 494.854412 
L 382.225455 493.659143 
L 385.832727 492.463889 
L 389.44 491.268618 
L 390.788425 490.821818 
L 393.047273 490.073352 
L 396.654545 488.878106 
L 400.261818 487.682831 
L 403.869091 486.487568 
L 404.045575 486.429091 
L 407.476364 485.292322 
L 411.083636 484.097048 
L 414.690909 482.901795 
L 417.302703 482.036364 
L 418.298182 481.706507 
L 421.905455 480.511271 
L 425.512727 479.316026 
L 429.12 478.120748 
L 429.12 477.643636 
L 429.12 473.250909 
L 429.12 468.858182 
L 429.12 464.465455 
L 429.12 460.072727 
L 429.12 455.68 
L 429.12 451.287273 
L 429.12 446.894545 
L 429.12 442.501818 
L 429.12 438.109091 
L 429.12 433.716364 
L 429.12 429.323636 
L 429.12 424.930909 
L 429.12 420.538182 
L 429.12 418.979553 
L 425.512727 420.174822 
L 424.416111 420.538182 
L 421.905455 421.370081 
L 418.298182 422.56533 
L 414.690909 423.760593 
L 411.15894 424.930909 
L 411.083636 424.955861 
L 407.476364 426.151152 
L 403.869091 427.346404 
L 400.261818 428.541643 
L 397.90186 429.323636 
L 396.654545 429.736943 
L 393.047273 430.93218 
L 389.44 432.127448 
L 385.832727 433.322705 
L 384.644681 433.716364 
L 382.225455 434.517973 
L 378.618182 435.713224 
L 375.010909 436.908487 
L 371.403636 438.103744 
L 371.3875 438.109091 
L 367.796364 439.29903 
L 364.189091 440.494287 
L 360.581818 441.689538 
L 358.130364 442.501818 
L 356.974545 442.884796 
L 353.367273 444.080081 
L 349.76 445.275327 
L 346.152727 446.470587 
L 344.873216 446.894545 
L 342.545455 447.665836 
L 338.938182 448.861107 
L 335.330909 450.056367 
L 331.723636 451.251638 
L 331.616093 451.287273 
L 328.116364 452.446907 
L 324.509091 453.642164 
L 320.901818 454.83743 
L 318.358932 455.68 
L 317.294545 456.284289 
L 315.220434 460.072727 
L 313.687273 464.345832 
L 313.644353 464.465455 
L 312.068288 468.858182 
L 310.492202 473.250909 
L 310.08 474.399774 
L 308.916122 477.643636 
L 307.340043 482.036364 
L 306.472727 484.453672 
L 305.763958 486.429091 
L 304.187883 490.821818 
L 302.865455 494.507601 
L 302.611809 495.214545 
L 301.035724 499.607273 
L 299.459658 504 
z
" style="fill:#779af7;"/>
   </g>
   <g id="PathCollection_3">
    <path clip-path="url(#pc609f93098)" d="M 245.149091 504 
L 248.756364 504 
L 252.363636 504 
L 255.970909 504 
L 259.578182 504 
L 263.185455 504 
L 266.792727 504 
L 270.4 504 
L 274.007273 504 
L 277.614545 504 
L 281.221818 504 
L 284.829091 504 
L 288.436364 504 
L 292.043636 504 
L 295.650909 504 
L 299.258182 504 
L 299.459658 504 
L 301.035724 499.607273 
L 302.611809 495.214545 
L 302.865455 494.507601 
L 304.187883 490.821818 
L 305.763958 486.429091 
L 306.472727 484.453672 
L 307.340043 482.036364 
L 308.916122 477.643636 
L 310.08 474.399774 
L 310.492202 473.250909 
L 312.068288 468.858182 
L 313.644353 464.465455 
L 313.687273 464.345832 
L 315.220434 460.072727 
L 317.294545 456.284289 
L 318.358932 455.68 
L 320.901818 454.83743 
L 324.509091 453.642164 
L 328.116364 452.446907 
L 331.616093 451.287273 
L 331.723636 451.251638 
L 335.330909 450.056367 
L 338.938182 448.861107 
L 342.545455 447.665836 
L 344.873216 446.894545 
L 346.152727 446.470587 
L 349.76 445.275327 
L 353.367273 444.080081 
L 356.974545 442.884796 
L 358.130364 442.501818 
L 360.581818 441.689538 
L 364.189091 440.494287 
L 367.796364 439.29903 
L 371.3875 438.109091 
L 371.403636 438.103744 
L 375.010909 436.908487 
L 378.618182 435.713224 
L 382.225455 434.517973 
L 384.644681 433.716364 
L 385.832727 433.322705 
L 389.44 432.127448 
L 393.047273 430.93218 
L 396.654545 429.736943 
L 397.90186 429.323636 
L 400.261818 428.541643 
L 403.869091 427.346404 
L 407.476364 426.151152 
L 411.083636 424.955861 
L 411.15894 424.930909 
L 414.690909 423.760593 
L 418.298182 422.56533 
L 421.905455 421.370081 
L 424.416111 420.538182 
L 425.512727 420.174822 
L 429.12 418.979553 
L 429.12 416.145455 
L 429.12 411.752727 
L 429.12 407.36 
L 429.12 402.967273 
L 429.12 398.574545 
L 429.12 394.181818 
L 429.12 389.789091 
L 429.12 385.396364 
L 429.12 381.003636 
L 429.12 376.610909 
L 429.12 372.218182 
L 429.12 367.825455 
L 429.12 363.432727 
L 429.12 359.838386 
L 425.512727 361.033655 
L 421.905455 362.228922 
L 418.298182 363.424177 
L 418.272376 363.432727 
L 414.690909 364.619417 
L 411.083636 365.814699 
L 407.476364 367.009957 
L 405.015253 367.825455 
L 403.869091 368.205237 
L 400.261818 369.400473 
L 396.654545 370.595741 
L 393.047273 371.791008 
L 391.758065 372.218182 
L 389.44 372.986264 
L 385.832727 374.181528 
L 382.225455 375.37679 
L 378.618182 376.572049 
L 378.500902 376.610909 
L 375.010909 377.76732 
L 371.403636 378.96258 
L 367.796364 380.157849 
L 365.243787 381.003636 
L 364.189091 381.353106 
L 360.581818 382.548367 
L 356.974545 383.743635 
L 353.367273 384.938893 
L 351.98663 385.396364 
L 349.76 386.134149 
L 346.152727 387.329406 
L 342.545455 388.524679 
L 338.938182 389.719932 
L 338.72946 389.789091 
L 335.330909 390.915191 
L 331.723636 392.110465 
L 328.116364 393.305714 
L 325.47229 394.181818 
L 324.509091 394.500972 
L 320.901818 395.696258 
L 317.294545 396.891494 
L 313.687273 398.086773 
L 312.215202 398.574545 
L 310.08 399.282046 
L 306.472727 400.477283 
L 302.865455 401.67254 
L 299.258182 402.867826 
L 298.958048 402.967273 
L 295.650909 404.063065 
L 292.043636 405.258329 
L 288.436364 406.453607 
L 285.700857 407.36 
L 284.829091 407.648855 
L 281.221818 408.844122 
L 277.614545 410.980189 
L 277.078173 411.752727 
L 275.50209 416.145455 
L 274.007273 420.311678 
L 273.926004 420.538182 
L 272.349935 424.930909 
L 270.773845 429.323636 
L 270.4 430.365594 
L 269.197777 433.716364 
L 267.621697 438.109091 
L 266.792727 440.41954 
L 266.045618 442.501818 
L 264.469528 446.894545 
L 263.185455 450.473417 
L 262.89345 451.287273 
L 261.31738 455.68 
L 259.74129 460.072727 
L 259.578182 460.527333 
L 258.165226 464.465455 
L 256.58914 468.858182 
L 255.970909 470.581268 
L 255.013062 473.250909 
L 253.43698 477.643636 
L 252.363636 480.635142 
L 251.860889 482.036364 
L 250.284829 486.429091 
L 248.756364 490.689102 
L 248.708746 490.821818 
L 247.132671 495.214545 
L 245.556581 499.607273 
L 245.149091 500.742995 
L 243.9805 504 
z
" style="fill:#a3c2fe;"/>
   </g>
   <g id="PathCollection_4">
    <path clip-path="url(#pc609f93098)" d="M 176.610909 504 
L 180.218182 504 
L 183.825455 504 
L 187.432727 504 
L 191.04 504 
L 194.647273 504 
L 198.254545 504 
L 201.861818 504 
L 205.469091 504 
L 209.076364 504 
L 212.683636 504 
L 216.290909 504 
L 219.898182 504 
L 223.505455 504 
L 227.112727 504 
L 230.72 504 
L 234.327273 504 
L 237.934545 504 
L 241.541818 504 
L 243.9805 504 
L 245.149091 500.742995 
L 245.556581 499.607273 
L 247.132671 495.214545 
L 248.708746 490.821818 
L 248.756364 490.689102 
L 250.284829 486.429091 
L 251.860889 482.036364 
L 252.363636 480.635142 
L 253.43698 477.643636 
L 255.013062 473.250909 
L 255.970909 470.581268 
L 256.58914 468.858182 
L 258.165226 464.465455 
L 259.578182 460.527333 
L 259.74129 460.072727 
L 261.31738 455.68 
L 262.89345 451.287273 
L 263.185455 450.473417 
L 264.469528 446.894545 
L 266.045618 442.501818 
L 266.792727 440.41954 
L 267.621697 438.109091 
L 269.197777 433.716364 
L 270.4 430.365594 
L 270.773845 429.323636 
L 272.349935 424.930909 
L 273.926004 420.538182 
L 274.007273 420.311678 
L 275.50209 416.145455 
L 277.078173 411.752727 
L 277.614545 410.980189 
L 281.221818 408.844122 
L 284.829091 407.648855 
L 285.700857 407.36 
L 288.436364 406.453607 
L 292.043636 405.258329 
L 295.650909 404.063065 
L 298.958048 402.967273 
L 299.258182 402.867826 
L 302.865455 401.67254 
L 306.472727 400.477283 
L 310.08 399.282046 
L 312.215202 398.574545 
L 313.687273 398.086773 
L 317.294545 396.891494 
L 320.901818 395.696258 
L 324.509091 394.500972 
L 325.47229 394.181818 
L 328.116364 393.305714 
L 331.723636 392.110465 
L 335.330909 390.915191 
L 338.72946 389.789091 
L 338.938182 389.719932 
L 342.545455 388.524679 
L 346.152727 387.329406 
L 349.76 386.134149 
L 351.98663 385.396364 
L 353.367273 384.938893 
L 356.974545 383.743635 
L 360.581818 382.548367 
L 364.189091 381.353106 
L 365.243787 381.003636 
L 367.796364 380.157849 
L 371.403636 378.96258 
L 375.010909 377.76732 
L 378.500902 376.610909 
L 378.618182 376.572049 
L 382.225455 375.37679 
L 385.832727 374.181528 
L 389.44 372.986264 
L 391.758065 372.218182 
L 393.047273 371.791008 
L 396.654545 370.595741 
L 400.261818 369.400473 
L 403.869091 368.205237 
L 405.015253 367.825455 
L 407.476364 367.009957 
L 411.083636 365.814699 
L 414.690909 364.619417 
L 418.272376 363.432727 
L 418.298182 363.424177 
L 421.905455 362.228922 
L 425.512727 361.033655 
L 429.12 359.838386 
L 429.12 359.04 
L 429.12 354.647273 
L 429.12 350.254545 
L 429.12 345.861818 
L 429.12 341.469091 
L 429.12 337.076364 
L 429.12 332.683636 
L 429.12 328.290909 
L 429.12 323.898182 
L 429.12 319.505455 
L 429.12 315.112727 
L 429.12 310.72 
L 429.12 306.327273 
L 429.12 301.934545 
L 429.12 297.541818 
L 429.12 293.149091 
L 429.12 288.756364 
L 429.12 284.363636 
L 429.12 279.970909 
L 429.12 275.578182 
L 429.12 271.185455 
L 429.12 266.792727 
L 429.12 262.4 
L 429.12 258.007273 
L 429.12 253.614545 
L 429.12 249.221818 
L 429.12 244.829091 
L 429.12 240.436364 
L 429.12 236.043636 
L 429.12 231.650909 
L 429.12 227.258182 
L 429.12 226.935889 
L 428.750571 227.258182 
L 425.512727 230.082913 
L 423.715379 231.650909 
L 421.905455 233.229861 
L 418.680087 236.043636 
L 418.298182 236.376808 
L 414.690909 239.523755 
L 413.644808 240.436364 
L 411.083636 242.670709 
L 408.609608 244.829091 
L 407.476364 245.81774 
L 403.869091 248.964663 
L 403.57432 249.221818 
L 400.261818 252.111632 
L 398.539063 253.614545 
L 396.654545 255.258597 
L 393.503854 258.007273 
L 393.047273 258.405591 
L 389.44 261.552545 
L 388.468588 262.4 
L 385.832727 264.699501 
L 383.433337 266.792727 
L 382.225455 267.84648 
L 378.618182 270.993412 
L 378.39805 271.185455 
L 375.010909 274.140415 
L 373.362838 275.578182 
L 371.403636 277.287376 
L 368.327611 279.970909 
L 367.796364 280.337372 
L 364.189091 283.581296 
L 363.292324 284.363636 
L 360.581818 286.130298 
L 357.845559 288.756364 
L 356.974545 289.386988 
L 353.367273 291.77692 
L 351.891577 293.149091 
L 349.76 294.706122 
L 346.152727 297.299013 
L 345.877958 297.541818 
L 342.545455 299.976077 
L 339.864313 301.934545 
L 338.938182 302.61105 
L 335.330909 305.246034 
L 333.8507 306.327273 
L 331.723636 307.881016 
L 328.116364 310.515993 
L 327.837079 310.72 
L 324.509091 313.150974 
L 321.823462 315.112727 
L 320.901818 315.785956 
L 317.294545 318.420918 
L 315.809829 319.505455 
L 313.687273 321.055912 
L 310.08 323.6909 
L 309.79623 323.898182 
L 306.472727 326.325858 
L 303.78259 328.290909 
L 302.865455 328.960843 
L 299.258182 331.595839 
L 297.768975 332.683636 
L 295.650909 334.230789 
L 292.043636 336.86577 
L 291.755336 337.076364 
L 288.436364 339.500762 
L 285.741721 341.469091 
L 284.829091 342.135732 
L 281.221818 344.770711 
L 279.728103 345.861818 
L 277.614545 347.405693 
L 274.007273 350.040664 
L 273.714471 350.254545 
L 270.4 351.790151 
L 266.792727 354.222423 
L 266.28413 354.647273 
L 263.185455 355.650517 
L 259.578182 356.634787 
L 255.970909 357.840923 
L 253.0428 359.04 
L 252.363636 359.265039 
L 248.756364 360.460301 
L 245.149091 361.655563 
L 241.541818 362.85083 
L 240.26916 363.432727 
L 237.934545 366.223632 
L 237.359822 367.825455 
L 235.783742 372.218182 
L 234.327273 376.27755 
L 234.207666 376.610909 
L 232.631585 381.003636 
L 231.055507 385.396364 
L 230.72 386.331463 
L 229.479427 389.789091 
L 227.903352 394.181818 
L 227.112727 396.385382 
L 226.203924 398.574545 
L 224.751191 402.967273 
L 223.505455 406.439289 
L 222.989512 407.36 
L 221.293433 411.752727 
L 220.022952 416.145455 
L 219.898182 416.493205 
L 217.622842 420.538182 
L 216.375564 424.930909 
L 216.290909 425.229882 
L 213.88371 429.323636 
L 212.683636 432.132049 
L 211.841914 433.716364 
L 209.508125 438.109091 
L 209.076364 438.921763 
L 207.174332 442.501818 
L 205.469091 445.711486 
L 204.84055 446.894545 
L 202.506762 451.287273 
L 201.861818 452.501207 
L 200.172971 455.68 
L 198.254545 459.290922 
L 197.839185 460.072727 
L 195.505401 464.465455 
L 194.647273 466.080649 
L 193.171612 468.858182 
L 191.04 472.870357 
L 190.837818 473.250909 
L 188.504035 477.643636 
L 187.432727 479.660087 
L 186.170248 482.036364 
L 183.836461 486.429091 
L 183.825455 486.449807 
L 181.502668 490.821818 
L 180.218182 493.239517 
L 179.168881 495.214545 
L 176.835092 499.607273 
L 176.610909 500.029237 
L 174.501308 504 
z
" style="fill:#ccd9ed;"/>
    <path clip-path="url(#pc609f93098)" d="M 75.607273 363.489104 
L 75.725575 363.432727 
L 79.214545 361.77006 
L 82.821818 360.051024 
L 85.083519 359.04 
L 86.429091 358.425824 
L 90.036364 357.118495 
L 93.643636 355.811181 
L 96.855218 354.647273 
L 97.250909 354.503871 
L 100.858182 353.196553 
L 104.465455 351.889226 
L 108.072727 350.581916 
L 108.976045 350.254545 
L 111.68 349.274605 
L 115.287273 347.967276 
L 118.894545 346.659956 
L 121.09685 345.861818 
L 122.501818 345.352643 
L 126.109091 344.045328 
L 129.716364 342.738009 
L 133.217662 341.469091 
L 133.323636 341.430684 
L 136.930909 340.12337 
L 140.538182 338.816051 
L 144.145455 337.508738 
L 145.338498 337.076364 
L 147.752727 336.201417 
L 151.36 334.894101 
L 154.967273 333.799612 
L 158.574545 334.622157 
L 162.181818 335.444702 
L 165.789091 336.267244 
L 169.337508 337.076364 
L 169.396364 337.089784 
L 173.003636 337.912328 
L 176.610909 338.734869 
L 180.218182 339.55741 
L 183.825455 340.379945 
L 187.432727 341.202492 
L 188.6019 341.469091 
L 191.04 342.025036 
L 194.647273 342.847575 
L 198.254545 343.670115 
L 201.861818 344.492661 
L 205.469091 345.315196 
L 207.866292 345.861818 
L 209.076364 346.137745 
L 212.683636 346.960281 
L 216.290909 347.782827 
L 219.898182 348.60537 
L 223.505455 349.427912 
L 227.112727 350.227759 
L 227.862979 345.861818 
L 228.161933 341.469091 
L 228.460882 337.076364 
L 228.75983 332.683636 
L 229.058794 328.290909 
L 229.357731 323.898182 
L 229.65669 319.505455 
L 229.955625 315.112727 
L 230.254592 310.72 
L 230.553538 306.327273 
L 230.72 303.881291 
L 230.852486 301.934545 
L 231.151446 297.541818 
L 231.45039 293.149091 
L 231.749336 288.756364 
L 232.048288 284.363636 
L 232.347255 279.970909 
L 232.646185 275.578182 
L 232.945152 271.185455 
L 233.244103 266.792727 
L 233.543048 262.4 
L 233.842018 258.007273 
L 234.140962 253.614545 
L 234.327273 250.87677 
L 234.439895 249.221818 
L 234.738877 244.829091 
L 235.037818 240.436364 
L 235.336757 236.043636 
L 235.635711 231.650909 
L 235.934675 227.258182 
L 236.233608 222.865455 
L 236.532568 218.472727 
L 236.831529 214.08 
L 236.486607 209.687273 
L 234.327273 209.188157 
L 231.662718 209.687273 
L 230.72 209.972412 
L 227.112727 210.788948 
L 223.505455 211.595996 
L 219.898182 212.466695 
L 216.290909 213.3374 
L 213.214345 214.08 
L 212.683636 214.208099 
L 209.076364 215.078822 
L 205.469091 215.949522 
L 201.861818 216.820224 
L 198.254545 217.690944 
L 195.015656 218.472727 
L 194.647273 218.561645 
L 191.04 219.432335 
L 187.432727 220.303046 
L 183.825455 221.173755 
L 180.218182 222.044453 
L 176.816791 222.865455 
L 176.610909 222.915149 
L 173.003636 223.785864 
L 169.396364 224.656558 
L 165.789091 225.52726 
L 162.181818 226.397967 
L 158.574545 225.884125 
L 154.967273 225.071001 
L 151.36 224.257879 
L 148.420906 222.865455 
L 147.752727 222.451176 
L 144.145455 219.870613 
L 142.191384 218.472727 
L 140.538182 217.290067 
L 136.930909 214.739916 
L 135.996207 214.08 
L 133.323636 212.193129 
L 129.774316 209.687273 
L 129.716364 209.646358 
L 126.109091 207.099586 
L 123.55242 205.294545 
L 122.501818 204.552803 
L 118.894545 202.006018 
L 117.330552 200.901818 
L 115.287273 199.459245 
L 111.68 196.547148 
L 111.64192 196.509091 
L 108.072727 192.942112 
L 107.246461 192.116364 
L 104.465455 189.33709 
L 102.850999 187.723636 
L 100.858182 185.732062 
L 98.455529 183.330909 
L 97.250909 182.127036 
L 94.060069 178.938182 
L 93.643636 178.522009 
L 90.036364 174.916982 
L 89.664607 174.545455 
L 86.429091 171.311958 
L 85.269137 170.152727 
L 82.821818 167.70693 
L 80.873666 165.76 
L 79.214545 163.989663 
L 76.852192 161.367273 
L 75.607273 159.766212 
L 73.422644 156.974545 
L 72 155.175212 
L 72 156.974545 
L 72 161.367273 
L 72 165.76 
L 72 170.152727 
L 72 174.545455 
L 72 178.938182 
L 72 183.330909 
L 72 187.723636 
L 72 192.116364 
L 72 196.509091 
L 72 200.901818 
L 72 205.294545 
L 72 209.687273 
L 72 214.08 
L 72 218.472727 
L 72 222.865455 
L 72 227.258182 
L 72 231.650909 
L 72 236.043636 
L 72 240.436364 
L 72 244.829091 
L 72 249.221818 
L 72 253.614545 
L 72 258.007273 
L 72 262.4 
L 72 266.792727 
L 72 271.185455 
L 72 275.578182 
L 72 279.970909 
L 72 284.363636 
L 72 288.756364 
L 72 293.149091 
L 72 297.541818 
L 72 301.934545 
L 72 306.327273 
L 72 310.72 
L 72 315.112727 
L 72 319.505455 
L 72 323.898182 
L 72 328.290909 
L 72 332.683636 
L 72 337.076364 
L 72 341.469091 
L 72 345.861818 
L 72 350.254545 
L 72 354.647273 
L 72 359.04 
L 72 363.432727 
L 72 365.208153 
z
" style="fill:#ccd9ed;"/>
   </g>
   <g id="PathCollection_5">
    <path clip-path="url(#pc609f93098)" d="M 75.607273 504 
L 79.214545 504 
L 82.821818 504 
L 86.429091 504 
L 90.036364 504 
L 93.643636 504 
L 97.250909 504 
L 100.858182 504 
L 104.465455 504 
L 108.072727 504 
L 111.68 504 
L 115.287273 504 
L 118.894545 504 
L 122.501818 504 
L 126.109091 504 
L 129.716364 504 
L 133.323636 504 
L 136.930909 504 
L 140.538182 504 
L 144.145455 504 
L 147.752727 504 
L 151.36 504 
L 154.967273 504 
L 158.574545 504 
L 162.181818 504 
L 165.789091 504 
L 169.396364 504 
L 173.003636 504 
L 174.501308 504 
L 176.610909 500.029237 
L 176.835092 499.607273 
L 179.168881 495.214545 
L 180.218182 493.239517 
L 181.502668 490.821818 
L 183.825455 486.449807 
L 183.836461 486.429091 
L 186.170248 482.036364 
L 187.432727 479.660087 
L 188.504035 477.643636 
L 190.837818 473.250909 
L 191.04 472.870357 
L 193.171612 468.858182 
L 194.647273 466.080649 
L 195.505401 464.465455 
L 197.839185 460.072727 
L 198.254545 459.290922 
L 200.172971 455.68 
L 201.861818 452.501207 
L 202.506762 451.287273 
L 204.84055 446.894545 
L 205.469091 445.711486 
L 207.174332 442.501818 
L 209.076364 438.921763 
L 209.508125 438.109091 
L 211.841914 433.716364 
L 212.683636 432.132049 
L 213.88371 429.323636 
L 216.290909 425.229882 
L 216.375564 424.930909 
L 217.622842 420.538182 
L 219.898182 416.493205 
L 220.022952 416.145455 
L 221.293433 411.752727 
L 222.989512 407.36 
L 223.505455 406.439289 
L 224.751191 402.967273 
L 226.203924 398.574545 
L 227.112727 396.385382 
L 227.903352 394.181818 
L 229.479427 389.789091 
L 230.72 386.331463 
L 231.055507 385.396364 
L 232.631585 381.003636 
L 234.207666 376.610909 
L 234.327273 376.27755 
L 235.783742 372.218182 
L 237.359822 367.825455 
L 237.934545 366.223632 
L 240.26916 363.432727 
L 241.541818 362.85083 
L 245.149091 361.655563 
L 248.756364 360.460301 
L 252.363636 359.265039 
L 253.0428 359.04 
L 255.970909 357.840923 
L 259.578182 356.634787 
L 263.185455 355.650517 
L 266.28413 354.647273 
L 266.792727 354.222423 
L 270.4 351.790151 
L 273.714471 350.254545 
L 274.007273 350.040664 
L 277.614545 347.405693 
L 279.728103 345.861818 
L 281.221818 344.770711 
L 284.829091 342.135732 
L 285.741721 341.469091 
L 288.436364 339.500762 
L 291.755336 337.076364 
L 292.043636 336.86577 
L 295.650909 334.230789 
L 297.768975 332.683636 
L 299.258182 331.595839 
L 302.865455 328.960843 
L 303.78259 328.290909 
L 306.472727 326.325858 
L 309.79623 323.898182 
L 310.08 323.6909 
L 313.687273 321.055912 
L 315.809829 319.505455 
L 317.294545 318.420918 
L 320.901818 315.785956 
L 321.823462 315.112727 
L 324.509091 313.150974 
L 327.837079 310.72 
L 328.116364 310.515993 
L 331.723636 307.881016 
L 333.8507 306.327273 
L 335.330909 305.246034 
L 338.938182 302.61105 
L 339.864313 301.934545 
L 342.545455 299.976077 
L 345.877958 297.541818 
L 346.152727 297.299013 
L 349.76 294.706122 
L 351.891577 293.149091 
L 353.367273 291.77692 
L 356.974545 289.386988 
L 357.845559 288.756364 
L 360.581818 286.130298 
L 363.292324 284.363636 
L 364.189091 283.581296 
L 367.796364 280.337372 
L 368.327611 279.970909 
L 371.403636 277.287376 
L 373.362838 275.578182 
L 375.010909 274.140415 
L 378.39805 271.185455 
L 378.618182 270.993412 
L 382.225455 267.84648 
L 383.433337 266.792727 
L 385.832727 264.699501 
L 388.468588 262.4 
L 389.44 261.552545 
L 393.047273 258.405591 
L 393.503854 258.007273 
L 396.654545 255.258597 
L 398.539063 253.614545 
L 400.261818 252.111632 
L 403.57432 249.221818 
L 403.869091 248.964663 
L 407.476364 245.81774 
L 408.609608 244.829091 
L 411.083636 242.670709 
L 413.644808 240.436364 
L 414.690909 239.523755 
L 418.298182 236.376808 
L 418.680087 236.043636 
L 421.905455 233.229861 
L 423.715379 231.650909 
L 425.512727 230.082913 
L 428.750571 227.258182 
L 429.12 226.935889 
L 429.12 222.865455 
L 429.12 218.472727 
L 429.12 214.08 
L 429.12 209.687273 
L 429.12 205.294545 
L 429.12 200.901818 
L 429.12 196.509091 
L 429.12 192.116364 
L 429.12 187.723636 
L 429.12 183.330909 
L 429.12 178.938182 
L 429.12 174.545455 
L 429.12 170.152727 
L 429.12 165.76 
L 429.12 161.367273 
L 429.12 156.974545 
L 429.12 152.581818 
L 429.12 148.189091 
L 429.12 143.796364 
L 429.12 139.403636 
L 429.12 135.010909 
L 429.12 130.618182 
L 429.12 126.225455 
L 429.12 121.832727 
L 429.12 117.44 
L 429.12 113.047273 
L 429.12 108.654545 
L 429.12 104.261818 
L 429.12 99.869091 
L 429.12 95.476364 
L 429.12 91.083636 
L 429.12 86.690909 
L 429.12 82.298182 
L 429.12 77.905455 
L 429.12 73.512727 
L 429.12 69.12 
L 425.512727 69.12 
L 421.905455 69.12 
L 418.298182 69.12 
L 414.690909 69.12 
L 411.083636 69.12 
L 407.476364 69.12 
L 403.869091 69.12 
L 400.261818 69.12 
L 396.654545 69.12 
L 395.118223 69.12 
L 393.047273 70.620529 
L 389.44 73.234229 
L 389.055634 73.512727 
L 385.832727 75.847933 
L 382.993069 77.905455 
L 382.225455 78.461645 
L 378.618182 81.075352 
L 376.930514 82.298182 
L 375.010909 83.689053 
L 371.403636 86.302777 
L 370.867957 86.690909 
L 367.796364 88.91646 
L 364.805346 91.083636 
L 364.189091 91.530152 
L 360.581818 94.143869 
L 358.742791 95.476364 
L 356.974545 96.757582 
L 353.367273 99.371272 
L 352.680215 99.869091 
L 349.76 101.98497 
L 346.61762 104.261818 
L 346.152727 104.586242 
L 342.545455 107.21239 
L 340.555077 108.654545 
L 338.938182 109.625069 
L 335.330909 111.90594 
L 333.620502 113.047273 
L 331.723636 114.221734 
L 328.116364 116.455163 
L 326.525752 117.44 
L 324.509091 118.688635 
L 320.901818 120.922101 
L 319.431049 121.832727 
L 317.294545 123.155538 
L 313.687273 125.389002 
L 312.336312 126.225455 
L 310.08 127.622464 
L 306.472727 129.855905 
L 305.241568 130.618182 
L 302.865455 132.089362 
L 299.258182 134.322831 
L 298.146859 135.010909 
L 295.650909 136.556276 
L 292.043636 138.789751 
L 291.052141 139.403636 
L 288.436364 141.023197 
L 284.829091 143.256652 
L 283.957404 143.796364 
L 281.221818 145.490121 
L 277.614545 147.723567 
L 276.862671 148.189091 
L 274.007273 149.957016 
L 270.4 152.190473 
L 269.767936 152.581818 
L 266.792727 154.423933 
L 263.185455 156.555757 
L 262.43471 156.974545 
L 259.578182 158.568009 
L 255.970909 160.580273 
L 254.560072 161.367273 
L 252.363636 162.592496 
L 248.756364 164.60475 
L 246.52493 165.76 
L 245.149091 166.484366 
L 241.541818 167.355086 
L 237.934545 168.225775 
L 234.327273 169.096497 
L 230.72 169.967201 
L 229.951374 170.152727 
L 227.112727 170.837903 
L 223.505455 171.708596 
L 219.898182 172.579304 
L 216.290909 173.450013 
L 212.683636 174.320709 
L 211.752537 174.545455 
L 209.076364 175.191419 
L 205.469091 176.062126 
L 201.861818 176.932824 
L 198.254545 177.803545 
L 194.647273 178.674248 
L 193.553791 178.938182 
L 191.04 179.544937 
L 187.432727 180.415657 
L 183.825455 181.286354 
L 180.218182 181.893848 
L 176.610909 181.740259 
L 173.003636 181.411511 
L 169.396364 181.08275 
L 165.789091 180.754005 
L 162.181818 178.970989 
L 162.135958 178.938182 
L 158.574545 176.390412 
L 155.995537 174.545455 
L 154.967273 173.809863 
L 151.36 171.229309 
L 149.855085 170.152727 
L 147.752727 168.64875 
L 144.145455 166.068207 
L 143.711716 165.76 
L 140.538182 163.505844 
L 137.5091 161.367273 
L 136.930909 160.959058 
L 133.323636 158.412268 
L 131.287247 156.974545 
L 129.716364 155.865479 
L 126.109091 153.225914 
L 125.265494 152.581818 
L 122.501818 150.047442 
L 120.852721 148.189091 
L 118.894545 145.860317 
L 117.29923 143.796364 
L 115.287273 141.193373 
L 113.898894 139.403636 
L 111.68 136.589451 
L 110.431918 135.010909 
L 108.072727 132.027056 
L 106.9588 130.618182 
L 104.465455 127.464644 
L 103.485689 126.225455 
L 100.858182 122.902217 
L 100.012592 121.832727 
L 97.250909 118.339796 
L 96.53949 117.44 
L 93.643636 113.777378 
L 93.066373 113.047273 
L 90.036364 109.215006 
L 89.593236 108.654545 
L 86.429091 104.652557 
L 86.120155 104.261818 
L 82.821818 100.090149 
L 82.647038 99.869091 
L 79.214545 95.527718 
L 79.173942 95.476364 
L 75.70081 91.083636 
L 75.607273 90.965332 
L 72.227689 86.690909 
L 72 86.402932 
L 72 86.690909 
L 72 91.083636 
L 72 95.476364 
L 72 99.869091 
L 72 104.261818 
L 72 108.654545 
L 72 113.047273 
L 72 117.44 
L 72 121.832727 
L 72 126.225455 
L 72 130.618182 
L 72 135.010909 
L 72 139.403636 
L 72 143.796364 
L 72 148.189091 
L 72 152.581818 
L 72 155.175212 
L 73.422644 156.974545 
L 75.607273 159.766212 
L 76.852192 161.367273 
L 79.214545 163.989663 
L 80.873666 165.76 
L 82.821818 167.70693 
L 85.269137 170.152727 
L 86.429091 171.311958 
L 89.664607 174.545455 
L 90.036364 174.916982 
L 93.643636 178.522009 
L 94.060069 178.938182 
L 97.250909 182.127036 
L 98.455529 183.330909 
L 100.858182 185.732062 
L 102.850999 187.723636 
L 104.465455 189.33709 
L 107.246461 192.116364 
L 108.072727 192.942112 
L 111.64192 196.509091 
L 111.68 196.547148 
L 115.287273 199.459245 
L 117.330552 200.901818 
L 118.894545 202.006018 
L 122.501818 204.552803 
L 123.55242 205.294545 
L 126.109091 207.099586 
L 129.716364 209.646358 
L 129.774316 209.687273 
L 133.323636 212.193129 
L 135.996207 214.08 
L 136.930909 214.739916 
L 140.538182 217.290067 
L 142.191384 218.472727 
L 144.145455 219.870613 
L 147.752727 222.451176 
L 148.420906 222.865455 
L 151.36 224.257879 
L 154.967273 225.071001 
L 158.574545 225.884125 
L 162.181818 226.397967 
L 165.789091 225.52726 
L 169.396364 224.656558 
L 173.003636 223.785864 
L 176.610909 222.915149 
L 176.816791 222.865455 
L 180.218182 222.044453 
L 183.825455 221.173755 
L 187.432727 220.303046 
L 191.04 219.432335 
L 194.647273 218.561645 
L 195.015656 218.472727 
L 198.254545 217.690944 
L 201.861818 216.820224 
L 205.469091 215.949522 
L 209.076364 215.078822 
L 212.683636 214.208099 
L 213.214345 214.08 
L 216.290909 213.3374 
L 219.898182 212.466695 
L 223.505455 211.595996 
L 227.112727 210.788948 
L 230.72 209.972412 
L 231.662718 209.687273 
L 234.327273 209.188157 
L 236.486607 209.687273 
L 236.831529 214.08 
L 236.532568 218.472727 
L 236.233608 222.865455 
L 235.934675 227.258182 
L 235.635711 231.650909 
L 235.336757 236.043636 
L 235.037818 240.436364 
L 234.738877 244.829091 
L 234.439895 249.221818 
L 234.327273 250.87677 
L 234.140962 253.614545 
L 233.842018 258.007273 
L 233.543048 262.4 
L 233.244103 266.792727 
L 232.945152 271.185455 
L 232.646185 275.578182 
L 232.347255 279.970909 
L 232.048288 284.363636 
L 231.749336 288.756364 
L 231.45039 293.149091 
L 231.151446 297.541818 
L 230.852486 301.934545 
L 230.72 303.881291 
L 230.553538 306.327273 
L 230.254592 310.72 
L 229.955625 315.112727 
L 229.65669 319.505455 
L 229.357731 323.898182 
L 229.058794 328.290909 
L 228.75983 332.683636 
L 228.460882 337.076364 
L 228.161933 341.469091 
L 227.862979 345.861818 
L 227.112727 350.227759 
L 223.505455 349.427912 
L 219.898182 348.60537 
L 216.290909 347.782827 
L 212.683636 346.960281 
L 209.076364 346.137745 
L 207.866292 345.861818 
L 205.469091 345.315196 
L 201.861818 344.492661 
L 198.254545 343.670115 
L 194.647273 342.847575 
L 191.04 342.025036 
L 188.6019 341.469091 
L 187.432727 341.202492 
L 183.825455 340.379945 
L 180.218182 339.55741 
L 176.610909 338.734869 
L 173.003636 337.912328 
L 169.396364 337.089784 
L 169.337508 337.076364 
L 165.789091 336.267244 
L 162.181818 335.444702 
L 158.574545 334.622157 
L 154.967273 333.799612 
L 151.36 334.894101 
L 147.752727 336.201417 
L 145.338498 337.076364 
L 144.145455 337.508738 
L 140.538182 338.816051 
L 136.930909 340.12337 
L 133.323636 341.430684 
L 133.217662 341.469091 
L 129.716364 342.738009 
L 126.109091 344.045328 
L 122.501818 345.352643 
L 121.09685 345.861818 
L 118.894545 346.659956 
L 115.287273 347.967276 
L 111.68 349.274605 
L 108.976045 350.254545 
L 108.072727 350.581916 
L 104.465455 351.889226 
L 100.858182 353.196553 
L 97.250909 354.503871 
L 96.855218 354.647273 
L 93.643636 355.811181 
L 90.036364 357.118495 
L 86.429091 358.425824 
L 85.083519 359.04 
L 82.821818 360.051024 
L 79.214545 361.77006 
L 75.725575 363.432727 
L 75.607273 363.489104 
L 72 365.208153 
L 72 367.825455 
L 72 372.218182 
L 72 376.610909 
L 72 381.003636 
L 72 385.396364 
L 72 389.789091 
L 72 394.181818 
L 72 398.574545 
L 72 402.967273 
L 72 407.36 
L 72 411.752727 
L 72 416.145455 
L 72 420.538182 
L 72 424.930909 
L 72 429.323636 
L 72 433.716364 
L 72 438.109091 
L 72 442.501818 
L 72 446.894545 
L 72 451.287273 
L 72 455.68 
L 72 460.072727 
L 72 464.465455 
L 72 468.858182 
L 72 473.250909 
L 72 477.643636 
L 72 482.036364 
L 72 486.429091 
L 72 490.821818 
L 72 495.214545 
L 72 499.607273 
L 72 504 
z
" style="fill:#ecd3c5;"/>
   </g>
   <g id="PathCollection_6">
    <path clip-path="url(#pc609f93098)" d="M 162.181818 178.970989 
L 165.789091 180.754005 
L 169.396364 181.08275 
L 173.003636 181.411511 
L 176.610909 181.740259 
L 180.218182 181.893848 
L 183.825455 181.286354 
L 187.432727 180.415657 
L 191.04 179.544937 
L 193.553791 178.938182 
L 194.647273 178.674248 
L 198.254545 177.803545 
L 201.861818 176.932824 
L 205.469091 176.062126 
L 209.076364 175.191419 
L 211.752537 174.545455 
L 212.683636 174.320709 
L 216.290909 173.450013 
L 219.898182 172.579304 
L 223.505455 171.708596 
L 227.112727 170.837903 
L 229.951374 170.152727 
L 230.72 169.967201 
L 234.327273 169.096497 
L 237.934545 168.225775 
L 241.541818 167.355086 
L 245.149091 166.484366 
L 246.52493 165.76 
L 248.756364 164.60475 
L 252.363636 162.592496 
L 254.560072 161.367273 
L 255.970909 160.580273 
L 259.578182 158.568009 
L 262.43471 156.974545 
L 263.185455 156.555757 
L 266.792727 154.423933 
L 269.767936 152.581818 
L 270.4 152.190473 
L 274.007273 149.957016 
L 276.862671 148.189091 
L 277.614545 147.723567 
L 281.221818 145.490121 
L 283.957404 143.796364 
L 284.829091 143.256652 
L 288.436364 141.023197 
L 291.052141 139.403636 
L 292.043636 138.789751 
L 295.650909 136.556276 
L 298.146859 135.010909 
L 299.258182 134.322831 
L 302.865455 132.089362 
L 305.241568 130.618182 
L 306.472727 129.855905 
L 310.08 127.622464 
L 312.336312 126.225455 
L 313.687273 125.389002 
L 317.294545 123.155538 
L 319.431049 121.832727 
L 320.901818 120.922101 
L 324.509091 118.688635 
L 326.525752 117.44 
L 328.116364 116.455163 
L 331.723636 114.221734 
L 333.620502 113.047273 
L 335.330909 111.90594 
L 338.938182 109.625069 
L 340.555077 108.654545 
L 342.545455 107.21239 
L 346.152727 104.586242 
L 346.61762 104.261818 
L 349.76 101.98497 
L 352.680215 99.869091 
L 353.367273 99.371272 
L 356.974545 96.757582 
L 358.742791 95.476364 
L 360.581818 94.143869 
L 364.189091 91.530152 
L 364.805346 91.083636 
L 367.796364 88.91646 
L 370.867957 86.690909 
L 371.403636 86.302777 
L 375.010909 83.689053 
L 376.930514 82.298182 
L 378.618182 81.075352 
L 382.225455 78.461645 
L 382.993069 77.905455 
L 385.832727 75.847933 
L 389.055634 73.512727 
L 389.44 73.234229 
L 393.047273 70.620529 
L 395.118223 69.12 
L 393.047273 69.12 
L 389.44 69.12 
L 385.832727 69.12 
L 382.225455 69.12 
L 378.618182 69.12 
L 375.010909 69.12 
L 371.403636 69.12 
L 367.796364 69.12 
L 364.189091 69.12 
L 360.581818 69.12 
L 356.974545 69.12 
L 353.367273 69.12 
L 349.76 69.12 
L 346.152727 69.12 
L 342.545455 69.12 
L 338.938182 69.12 
L 335.330909 69.12 
L 331.723636 69.12 
L 328.116364 69.12 
L 327.853341 69.12 
L 324.509091 71.543125 
L 321.790765 73.512727 
L 320.901818 74.156828 
L 317.294545 76.770521 
L 315.7282 77.905455 
L 313.687273 79.384255 
L 310.08 81.997957 
L 309.665646 82.298182 
L 306.472727 84.611638 
L 303.603059 86.690909 
L 302.865455 87.225355 
L 299.258182 89.839051 
L 297.540473 91.083636 
L 295.650909 92.45275 
L 292.043636 95.066448 
L 291.477896 95.476364 
L 288.436364 97.680159 
L 285.415335 99.869091 
L 284.829091 100.29386 
L 281.221818 102.907563 
L 279.35275 104.261818 
L 277.614545 105.521263 
L 274.007273 108.134961 
L 273.29018 108.654545 
L 270.4 110.748663 
L 266.904366 113.047273 
L 266.792727 113.120852 
L 263.185455 115.445245 
L 260.089743 117.44 
L 259.578182 117.76963 
L 255.970909 120.094029 
L 253.272616 121.832727 
L 252.363636 122.418442 
L 248.756364 124.742844 
L 245.21785 126.225455 
L 245.149091 126.251002 
L 241.541818 127.107176 
L 237.934545 128.009318 
L 234.327273 128.928084 
L 230.72 129.819834 
L 227.490668 130.618182 
L 227.112727 130.703505 
L 223.505455 131.540835 
L 219.898182 132.421987 
L 216.290909 133.029382 
L 212.683636 132.842667 
L 209.076364 132.278418 
L 205.469091 131.714233 
L 201.861818 131.150029 
L 198.461581 130.618182 
L 198.254545 130.585799 
L 194.647273 130.02165 
L 191.04 129.457412 
L 187.432727 128.893233 
L 183.825455 128.329026 
L 180.218182 127.764817 
L 176.610909 127.200616 
L 173.003636 126.636425 
L 170.376037 126.225455 
L 169.396364 126.072229 
L 165.789091 123.758899 
L 163.713772 121.832727 
L 162.181818 120.41087 
L 158.980897 117.44 
L 158.574545 117.067468 
L 154.967273 113.784681 
L 154.155089 113.047273 
L 151.36 110.50949 
L 149.316966 108.654545 
L 147.752727 107.23432 
L 144.464779 104.261818 
L 144.145455 103.973485 
L 140.538182 100.74385 
L 139.561134 99.869091 
L 136.930909 97.514235 
L 134.654726 95.476364 
L 133.323636 94.284636 
L 130.144383 91.083636 
L 129.716364 90.629228 
L 126.602513 86.690909 
L 126.109091 86.066843 
L 123.129397 82.298182 
L 122.501818 81.504429 
L 119.656304 77.905455 
L 118.894545 76.941988 
L 116.1832 73.512727 
L 115.287273 72.379588 
L 112.710063 69.12 
L 111.68 69.12 
L 108.072727 69.12 
L 104.465455 69.12 
L 100.858182 69.12 
L 97.250909 69.12 
L 93.643636 69.12 
L 90.036364 69.12 
L 86.429091 69.12 
L 82.821818 69.12 
L 79.214545 69.12 
L 75.607273 69.12 
L 72 69.12 
L 72 73.512727 
L 72 77.905455 
L 72 82.298182 
L 72 86.402932 
L 72.227689 86.690909 
L 75.607273 90.965332 
L 75.70081 91.083636 
L 79.173942 95.476364 
L 79.214545 95.527718 
L 82.647038 99.869091 
L 82.821818 100.090149 
L 86.120155 104.261818 
L 86.429091 104.652557 
L 89.593236 108.654545 
L 90.036364 109.215006 
L 93.066373 113.047273 
L 93.643636 113.777378 
L 96.53949 117.44 
L 97.250909 118.339796 
L 100.012592 121.832727 
L 100.858182 122.902217 
L 103.485689 126.225455 
L 104.465455 127.464644 
L 106.9588 130.618182 
L 108.072727 132.027056 
L 110.431918 135.010909 
L 111.68 136.589451 
L 113.898894 139.403636 
L 115.287273 141.193373 
L 117.29923 143.796364 
L 118.894545 145.860317 
L 120.852721 148.189091 
L 122.501818 150.047442 
L 125.265494 152.581818 
L 126.109091 153.225914 
L 129.716364 155.865479 
L 131.287247 156.974545 
L 133.323636 158.412268 
L 136.930909 160.959058 
L 137.5091 161.367273 
L 140.538182 163.505844 
L 143.711716 165.76 
L 144.145455 166.068207 
L 147.752727 168.64875 
L 149.855085 170.152727 
L 151.36 171.229309 
L 154.967273 173.809863 
L 155.995537 174.545455 
L 158.574545 176.390412 
L 162.135958 178.938182 
z
" style="fill:#f7b093;"/>
   </g>
   <g id="PathCollection_7">
    <path clip-path="url(#pc609f93098)" d="M 201.861818 131.150029 
L 205.469091 131.714233 
L 209.076364 132.278418 
L 212.683636 132.842667 
L 216.290909 133.029382 
L 219.898182 132.421987 
L 223.505455 131.540835 
L 227.112727 130.703505 
L 227.490668 130.618182 
L 230.72 129.819834 
L 234.327273 128.928084 
L 237.934545 128.009318 
L 241.541818 127.107176 
L 245.149091 126.251002 
L 245.21785 126.225455 
L 248.756364 124.742844 
L 252.363636 122.418442 
L 253.272616 121.832727 
L 255.970909 120.094029 
L 259.578182 117.76963 
L 260.089743 117.44 
L 263.185455 115.445245 
L 266.792727 113.120852 
L 266.904366 113.047273 
L 270.4 110.748663 
L 273.29018 108.654545 
L 274.007273 108.134961 
L 277.614545 105.521263 
L 279.35275 104.261818 
L 281.221818 102.907563 
L 284.829091 100.29386 
L 285.415335 99.869091 
L 288.436364 97.680159 
L 291.477896 95.476364 
L 292.043636 95.066448 
L 295.650909 92.45275 
L 297.540473 91.083636 
L 299.258182 89.839051 
L 302.865455 87.225355 
L 303.603059 86.690909 
L 306.472727 84.611638 
L 309.665646 82.298182 
L 310.08 81.997957 
L 313.687273 79.384255 
L 315.7282 77.905455 
L 317.294545 76.770521 
L 320.901818 74.156828 
L 321.790765 73.512727 
L 324.509091 71.543125 
L 327.853341 69.12 
L 324.509091 69.12 
L 320.901818 69.12 
L 317.294545 69.12 
L 313.687273 69.12 
L 310.08 69.12 
L 306.472727 69.12 
L 302.865455 69.12 
L 299.258182 69.12 
L 295.650909 69.12 
L 292.043636 69.12 
L 288.436364 69.12 
L 284.829091 69.12 
L 281.221818 69.12 
L 277.614545 69.12 
L 274.007273 69.12 
L 270.4 69.12 
L 266.792727 69.12 
L 263.185455 69.12 
L 259.578182 69.12 
L 255.970909 69.12 
L 253.623769 69.12 
L 252.363636 69.594959 
L 248.756364 70.957508 
L 245.149091 72.313422 
L 241.966148 73.512727 
L 241.541818 73.673165 
L 237.934545 73.720377 
L 236.53118 73.512727 
L 234.327273 73.1876 
L 230.72 72.655402 
L 227.112727 72.123199 
L 223.505455 71.591028 
L 219.898182 71.058812 
L 216.290909 70.526642 
L 212.683636 69.994455 
L 209.076364 69.462273 
L 206.75631 69.12 
L 205.469091 69.12 
L 201.861818 69.12 
L 198.254545 69.12 
L 194.647273 69.12 
L 191.04 69.12 
L 187.432727 69.12 
L 183.825455 69.12 
L 180.218182 69.12 
L 176.610909 69.12 
L 173.003636 69.12 
L 169.396364 69.12 
L 165.789091 69.12 
L 162.181818 69.12 
L 158.574545 69.12 
L 154.967273 69.12 
L 151.36 69.12 
L 147.752727 69.12 
L 144.145455 69.12 
L 140.538182 69.12 
L 136.930909 69.12 
L 133.323636 69.12 
L 129.716364 69.12 
L 126.109091 69.12 
L 122.501818 69.12 
L 118.894545 69.12 
L 115.287273 69.12 
L 112.710063 69.12 
L 115.287273 72.379588 
L 116.1832 73.512727 
L 118.894545 76.941988 
L 119.656304 77.905455 
L 122.501818 81.504429 
L 123.129397 82.298182 
L 126.109091 86.066843 
L 126.602513 86.690909 
L 129.716364 90.629228 
L 130.144383 91.083636 
L 133.323636 94.284636 
L 134.654726 95.476364 
L 136.930909 97.514235 
L 139.561134 99.869091 
L 140.538182 100.74385 
L 144.145455 103.973485 
L 144.464779 104.261818 
L 147.752727 107.23432 
L 149.316966 108.654545 
L 151.36 110.50949 
L 154.155089 113.047273 
L 154.967273 113.784681 
L 158.574545 117.067468 
L 158.980897 117.44 
L 162.181818 120.41087 
L 163.713772 121.832727 
L 165.789091 123.758899 
L 169.396364 126.072229 
L 170.376037 126.225455 
L 173.003636 126.636425 
L 176.610909 127.200616 
L 180.218182 127.764817 
L 183.825455 128.329026 
L 187.432727 128.893233 
L 191.04 129.457412 
L 194.647273 130.02165 
L 198.254545 130.585799 
L 198.461581 130.618182 
z
" style="fill:#eb7d62;"/>
   </g>
   <g id="PathCollection_8">
    <path clip-path="url(#pc609f93098)" d="M 237.934545 73.720377 
L 241.541818 73.673165 
L 241.966148 73.512727 
L 245.149091 72.313422 
L 248.756364 70.957508 
L 252.363636 69.594959 
L 253.623769 69.12 
L 252.363636 69.12 
L 248.756364 69.12 
L 245.149091 69.12 
L 241.541818 69.12 
L 237.934545 69.12 
L 234.327273 69.12 
L 230.72 69.12 
L 227.112727 69.12 
L 223.505455 69.12 
L 219.898182 69.12 
L 216.290909 69.12 
L 212.683636 69.12 
L 209.076364 69.12 
L 206.75631 69.12 
L 209.076364 69.462273 
L 212.683636 69.994455 
L 216.290909 70.526642 
L 219.898182 71.058812 
L 223.505455 71.591028 
L 227.112727 72.123199 
L 230.72 72.655402 
L 234.327273 73.1876 
L 236.53118 73.512727 
z
" style="fill:#ca3b37;"/>
   </g>
   <g id="matplotlib.axis_1">
    <g id="xtick_1">
     <g id="line2d_1">
      <defs>
       <path d="M 0 0 
L 0 3.5 
" id="m2ddf45ca0d" style="stroke:#000000;stroke-width:0.8;"/>
      </defs>
      <g>
       <use style="stroke:#000000;stroke-width:0.8;" x="72" xlink:href="#m2ddf45ca0d" y="504"/>
      </g>
     </g>
     <g id="text_1">
      <!-- −0.50 -->
      <defs>
       <path d="M 10.59375 35.5 
L 73.1875 35.5 
L 73.1875 27.203125 
L 10.59375 27.203125 
z
" id="DejaVuSans-2212"/>
       <path d="M 31.78125 66.40625 
Q 24.171875 66.40625 20.328125 58.90625 
Q 16.5 51.421875 16.5 36.375 
Q 16.5 21.390625 20.328125 13.890625 
Q 24.171875 6.390625 31.78125 6.390625 
Q 39.453125 6.390625 43.28125 13.890625 
Q 47.125 21.390625 47.125 36.375 
Q 47.125 51.421875 43.28125 58.90625 
Q 39.453125 66.40625 31.78125 66.40625 
z
M 31.78125 74.21875 
Q 44.046875 74.21875 50.515625 64.515625 
Q 56.984375 54.828125 56.984375 36.375 
Q 56.984375 17.96875 50.515625 8.265625 
Q 44.046875 -1.421875 31.78125 -1.421875 
Q 19.53125 -1.421875 13.0625 8.265625 
Q 6.59375 17.96875 6.59375 36.375 
Q 6.59375 54.828125 13.0625 64.515625 
Q 19.53125 74.21875 31.78125 74.21875 
z
" id="DejaVuSans-30"/>
       <path d="M 10.6875 12.40625 
L 21 12.40625 
L 21 0 
L 10.6875 0 
z
" id="DejaVuSans-2e"/>
       <path d="M 10.796875 72.90625 
L 49.515625 72.90625 
L 49.515625 64.59375 
L 19.828125 64.59375 
L 19.828125 46.734375 
Q 21.96875 47.46875 24.109375 47.828125 
Q 26.265625 48.1875 28.421875 48.1875 
Q 40.625 48.1875 47.75 41.5 
Q 54.890625 34.8125 54.890625 23.390625 
Q 54.890625 11.625 47.5625 5.09375 
Q 40.234375 -1.421875 26.90625 -1.421875 
Q 22.3125 -1.421875 17.546875 -0.640625 
Q 12.796875 0.140625 7.71875 1.703125 
L 7.71875 11.625 
Q 12.109375 9.234375 16.796875 8.0625 
Q 21.484375 6.890625 26.703125 6.890625 
Q 35.15625 6.890625 40.078125 11.328125 
Q 45.015625 15.765625 45.015625 23.390625 
Q 45.015625 31 40.078125 35.4375 
Q 35.15625 39.890625 26.703125 39.890625 
Q 22.75 39.890625 18.8125 39.015625 
Q 14.890625 38.140625 10.796875 36.28125 
z
" id="DejaVuSans-35"/>
      </defs>
      <g transform="translate(56.677344 518.598438)scale(0.1 -0.1)">
       <use xlink:href="#DejaVuSans-2212"/>
       <use x="83.789062" xlink:href="#DejaVuSans-30"/>
       <use x="147.412109" xlink:href="#DejaVuSans-2e"/>
       <use x="179.199219" xlink:href="#DejaVuSans-35"/>
       <use x="242.822266" xlink:href="#DejaVuSans-30"/>
      </g>
     </g>
    </g>
    <g id="xtick_2">
     <g id="line2d_2">
      <g>
       <use style="stroke:#000000;stroke-width:0.8;" x="116.64" xlink:href="#m2ddf45ca0d" y="504"/>
      </g>
     </g>
     <g id="text_2">
      <!-- −0.25 -->
      <defs>
       <path d="M 19.1875 8.296875 
L 53.609375 8.296875 
L 53.609375 0 
L 7.328125 0 
L 7.328125 8.296875 
Q 12.9375 14.109375 22.625 23.890625 
Q 32.328125 33.6875 34.8125 36.53125 
Q 39.546875 41.84375 41.421875 45.53125 
Q 43.3125 49.21875 43.3125 52.78125 
Q 43.3125 58.59375 39.234375 62.25 
Q 35.15625 65.921875 28.609375 65.921875 
Q 23.96875 65.921875 18.8125 64.3125 
Q 13.671875 62.703125 7.8125 59.421875 
L 7.8125 69.390625 
Q 13.765625 71.78125 18.9375 73 
Q 24.125 74.21875 28.421875 74.21875 
Q 39.75 74.21875 46.484375 68.546875 
Q 53.21875 62.890625 53.21875 53.421875 
Q 53.21875 48.921875 51.53125 44.890625 
Q 49.859375 40.875 45.40625 35.40625 
Q 44.1875 33.984375 37.640625 27.21875 
Q 31.109375 20.453125 19.1875 8.296875 
z
" id="DejaVuSans-32"/>
      </defs>
      <g transform="translate(101.317344 518.598438)scale(0.1 -0.1)">
       <use xlink:href="#DejaVuSans-2212"/>
       <use x="83.789062" xlink:href="#DejaVuSans-30"/>
       <use x="147.412109" xlink:href="#DejaVuSans-2e"/>
       <use x="179.199219" xlink:href="#DejaVuSans-32"/>
       <use x="242.822266" xlink:href="#DejaVuSans-35"/>
      </g>
     </g>
    </g>
    <g id="xtick_3">
     <g id="line2d_3">
      <g>
       <use style="stroke:#000000;stroke-width:0.8;" x="161.28" xlink:href="#m2ddf45ca0d" y="504"/>
      </g>
     </g>
     <g id="text_3">
      <!-- 0.00 -->
      <g transform="translate(150.147188 518.598438)scale(0.1 -0.1)">
       <use xlink:href="#DejaVuSans-30"/>
       <use x="63.623047" xlink:href="#DejaVuSans-2e"/>
       <use x="95.410156" xlink:href="#DejaVuSans-30"/>
       <use x="159.033203" xlink:href="#DejaVuSans-30"/>
      </g>
     </g>
    </g>
    <g id="xtick_4">
     <g id="line2d_4">
      <g>
       <use style="stroke:#000000;stroke-width:0.8;" x="205.92" xlink:href="#m2ddf45ca0d" y="504"/>
      </g>
     </g>
     <g id="text_4">
      <!-- 0.25 -->
      <g transform="translate(194.787188 518.598438)scale(0.1 -0.1)">
       <use xlink:href="#DejaVuSans-30"/>
       <use x="63.623047" xlink:href="#DejaVuSans-2e"/>
       <use x="95.410156" xlink:href="#DejaVuSans-32"/>
       <use x="159.033203" xlink:href="#DejaVuSans-35"/>
      </g>
     </g>
    </g>
    <g id="xtick_5">
     <g id="line2d_5">
      <g>
       <use style="stroke:#000000;stroke-width:0.8;" x="250.56" xlink:href="#m2ddf45ca0d" y="504"/>
      </g>
     </g>
     <g id="text_5">
      <!-- 0.50 -->
      <g transform="translate(239.427188 518.598438)scale(0.1 -0.1)">
       <use xlink:href="#DejaVuSans-30"/>
       <use x="63.623047" xlink:href="#DejaVuSans-2e"/>
       <use x="95.410156" xlink:href="#DejaVuSans-35"/>
       <use x="159.033203" xlink:href="#DejaVuSans-30"/>
      </g>
     </g>
    </g>
    <g id="xtick_6">
     <g id="line2d_6">
      <g>
       <use style="stroke:#000000;stroke-width:0.8;" x="295.2" xlink:href="#m2ddf45ca0d" y="504"/>
      </g>
     </g>
     <g id="text_6">
      <!-- 0.75 -->
      <defs>
       <path d="M 8.203125 72.90625 
L 55.078125 72.90625 
L 55.078125 68.703125 
L 28.609375 0 
L 18.3125 0 
L 43.21875 64.59375 
L 8.203125 64.59375 
z
" id="DejaVuSans-37"/>
      </defs>
      <g transform="translate(284.067188 518.598438)scale(0.1 -0.1)">
       <use xlink:href="#DejaVuSans-30"/>
       <use x="63.623047" xlink:href="#DejaVuSans-2e"/>
       <use x="95.410156" xlink:href="#DejaVuSans-37"/>
       <use x="159.033203" xlink:href="#DejaVuSans-35"/>
      </g>
     </g>
    </g>
    <g id="xtick_7">
     <g id="line2d_7">
      <g>
       <use style="stroke:#000000;stroke-width:0.8;" x="339.84" xlink:href="#m2ddf45ca0d" y="504"/>
      </g>
     </g>
     <g id="text_7">
      <!-- 1.00 -->
      <defs>
       <path d="M 12.40625 8.296875 
L 28.515625 8.296875 
L 28.515625 63.921875 
L 10.984375 60.40625 
L 10.984375 69.390625 
L 28.421875 72.90625 
L 38.28125 72.90625 
L 38.28125 8.296875 
L 54.390625 8.296875 
L 54.390625 0 
L 12.40625 0 
z
" id="DejaVuSans-31"/>
      </defs>
      <g transform="translate(328.707188 518.598438)scale(0.1 -0.1)">
       <use xlink:href="#DejaVuSans-31"/>
       <use x="63.623047" xlink:href="#DejaVuSans-2e"/>
       <use x="95.410156" xlink:href="#DejaVuSans-30"/>
       <use x="159.033203" xlink:href="#DejaVuSans-30"/>
      </g>
     </g>
    </g>
    <g id="xtick_8">
     <g id="line2d_8">
      <g>
       <use style="stroke:#000000;stroke-width:0.8;" x="384.48" xlink:href="#m2ddf45ca0d" y="504"/>
      </g>
     </g>
     <g id="text_8">
      <!-- 1.25 -->
      <g transform="translate(373.347188 518.598438)scale(0.1 -0.1)">
       <use xlink:href="#DejaVuSans-31"/>
       <use x="63.623047" xlink:href="#DejaVuSans-2e"/>
       <use x="95.410156" xlink:href="#DejaVuSans-32"/>
       <use x="159.033203" xlink:href="#DejaVuSans-35"/>
      </g>
     </g>
    </g>
    <g id="xtick_9">
     <g id="line2d_9">
      <g>
       <use style="stroke:#000000;stroke-width:0.8;" x="429.12" xlink:href="#m2ddf45ca0d" y="504"/>
      </g>
     </g>
     <g id="text_9">
      <!-- 1.50 -->
      <g transform="translate(417.987188 518.598438)scale(0.1 -0.1)">
       <use xlink:href="#DejaVuSans-31"/>
       <use x="63.623047" xlink:href="#DejaVuSans-2e"/>
       <use x="95.410156" xlink:href="#DejaVuSans-35"/>
       <use x="159.033203" xlink:href="#DejaVuSans-30"/>
      </g>
     </g>
    </g>
   </g>
   <g id="matplotlib.axis_2">
    <g id="ytick_1">
     <g id="line2d_10">
      <defs>
       <path d="M 0 0 
L -3.5 0 
" id="mf8b0dc8fc2" style="stroke:#000000;stroke-width:0.8;"/>
      </defs>
      <g>
       <use style="stroke:#000000;stroke-width:0.8;" x="72" xlink:href="#mf8b0dc8fc2" y="504"/>
      </g>
     </g>
     <g id="text_10">
      <!-- −0.50 -->
      <g transform="translate(34.354687 507.799219)scale(0.1 -0.1)">
       <use xlink:href="#DejaVuSans-2212"/>
       <use x="83.789062" xlink:href="#DejaVuSans-30"/>
       <use x="147.412109" xlink:href="#DejaVuSans-2e"/>
       <use x="179.199219" xlink:href="#DejaVuSans-35"/>
       <use x="242.822266" xlink:href="#DejaVuSans-30"/>
      </g>
     </g>
    </g>
    <g id="ytick_2">
     <g id="line2d_11">
      <g>
       <use style="stroke:#000000;stroke-width:0.8;" x="72" xlink:href="#mf8b0dc8fc2" y="449.64"/>
      </g>
     </g>
     <g id="text_11">
      <!-- −0.25 -->
      <g transform="translate(34.354687 453.439219)scale(0.1 -0.1)">
       <use xlink:href="#DejaVuSans-2212"/>
       <use x="83.789062" xlink:href="#DejaVuSans-30"/>
       <use x="147.412109" xlink:href="#DejaVuSans-2e"/>
       <use x="179.199219" xlink:href="#DejaVuSans-32"/>
       <use x="242.822266" xlink:href="#DejaVuSans-35"/>
      </g>
     </g>
    </g>
    <g id="ytick_3">
     <g id="line2d_12">
      <g>
       <use style="stroke:#000000;stroke-width:0.8;" x="72" xlink:href="#mf8b0dc8fc2" y="395.28"/>
      </g>
     </g>
     <g id="text_12">
      <!-- 0.00 -->
      <g transform="translate(42.734375 399.079219)scale(0.1 -0.1)">
       <use xlink:href="#DejaVuSans-30"/>
       <use x="63.623047" xlink:href="#DejaVuSans-2e"/>
       <use x="95.410156" xlink:href="#DejaVuSans-30"/>
       <use x="159.033203" xlink:href="#DejaVuSans-30"/>
      </g>
     </g>
    </g>
    <g id="ytick_4">
     <g id="line2d_13">
      <g>
       <use style="stroke:#000000;stroke-width:0.8;" x="72" xlink:href="#mf8b0dc8fc2" y="340.92"/>
      </g>
     </g>
     <g id="text_13">
      <!-- 0.25 -->
      <g transform="translate(42.734375 344.719219)scale(0.1 -0.1)">
       <use xlink:href="#DejaVuSans-30"/>
       <use x="63.623047" xlink:href="#DejaVuSans-2e"/>
       <use x="95.410156" xlink:href="#DejaVuSans-32"/>
       <use x="159.033203" xlink:href="#DejaVuSans-35"/>
      </g>
     </g>
    </g>
    <g id="ytick_5">
     <g id="line2d_14">
      <g>
       <use style="stroke:#000000;stroke-width:0.8;" x="72" xlink:href="#mf8b0dc8fc2" y="286.56"/>
      </g>
     </g>
     <g id="text_14">
      <!-- 0.50 -->
      <g transform="translate(42.734375 290.359219)scale(0.1 -0.1)">
       <use xlink:href="#DejaVuSans-30"/>
       <use x="63.623047" xlink:href="#DejaVuSans-2e"/>
       <use x="95.410156" xlink:href="#DejaVuSans-35"/>
       <use x="159.033203" xlink:href="#DejaVuSans-30"/>
      </g>
     </g>
    </g>
    <g id="ytick_6">
     <g id="line2d_15">
      <g>
       <use style="stroke:#000000;stroke-width:0.8;" x="72" xlink:href="#mf8b0dc8fc2" y="232.2"/>
      </g>
     </g>
     <g id="text_15">
      <!-- 0.75 -->
      <g transform="translate(42.734375 235.999219)scale(0.1 -0.1)">
       <use xlink:href="#DejaVuSans-30"/>
       <use x="63.623047" xlink:href="#DejaVuSans-2e"/>
       <use x="95.410156" xlink:href="#DejaVuSans-37"/>
       <use x="159.033203" xlink:href="#DejaVuSans-35"/>
      </g>
     </g>
    </g>
    <g id="ytick_7">
     <g id="line2d_16">
      <g>
       <use style="stroke:#000000;stroke-width:0.8;" x="72" xlink:href="#mf8b0dc8fc2" y="177.84"/>
      </g>
     </g>
     <g id="text_16">
      <!-- 1.00 -->
      <g transform="translate(42.734375 181.639219)scale(0.1 -0.1)">
       <use xlink:href="#DejaVuSans-31"/>
       <use x="63.623047" xlink:href="#DejaVuSans-2e"/>
       <use x="95.410156" xlink:href="#DejaVuSans-30"/>
       <use x="159.033203" xlink:href="#DejaVuSans-30"/>
      </g>
     </g>
    </g>
    <g id="ytick_8">
     <g id="line2d_17">
      <g>
       <use style="stroke:#000000;stroke-width:0.8;" x="72" xlink:href="#mf8b0dc8fc2" y="123.48"/>
      </g>
     </g>
     <g id="text_17">
      <!-- 1.25 -->
      <g transform="translate(42.734375 127.279219)scale(0.1 -0.1)">
       <use xlink:href="#DejaVuSans-31"/>
       <use x="63.623047" xlink:href="#DejaVuSans-2e"/>
       <use x="95.410156" xlink:href="#DejaVuSans-32"/>
       <use x="159.033203" xlink:href="#DejaVuSans-35"/>
      </g>
     </g>
    </g>
    <g id="ytick_9">
     <g id="line2d_18">
      <g>
       <use style="stroke:#000000;stroke-width:0.8;" x="72" xlink:href="#mf8b0dc8fc2" y="69.12"/>
      </g>
     </g>
     <g id="text_18">
      <!-- 1.50 -->
      <g transform="translate(42.734375 72.919219)scale(0.1 -0.1)">
       <use xlink:href="#DejaVuSans-31"/>
       <use x="63.623047" xlink:href="#DejaVuSans-2e"/>
       <use x="95.410156" xlink:href="#DejaVuSans-35"/>
       <use x="159.033203" xlink:href="#DejaVuSans-30"/>
      </g>
     </g>
    </g>
   </g>
   <g id="patch_3">
    <path d="M 72 504 
L 72 69.12 
" style="fill:none;stroke:#000000;stroke-linecap:square;stroke-linejoin:miter;stroke-width:0.8;"/>
   </g>
   <g id="patch_4">
    <path d="M 429.12 504 
L 429.12 69.12 
" style="fill:none;stroke:#000000;stroke-linecap:square;stroke-linejoin:miter;stroke-width:0.8;"/>
   </g>
   <g id="patch_5">
    <path d="M 72 504 
L 429.12 504 
" style="fill:none;stroke:#000000;stroke-linecap:square;stroke-linejoin:miter;stroke-width:0.8;"/>
   </g>
   <g id="patch_6">
    <path d="M 72 69.12 
L 429.12 69.12 
" style="fill:none;stroke:#000000;stroke-linecap:square;stroke-linejoin:miter;stroke-width:0.8;"/>
   </g>
  </g>
  <g id="axes_2">
   <g id="patch_7">
    <path clip-path="url(#p459874b9b5)" d="M 451.44 504 
L 451.44 449.64 
L 451.44 123.48 
L 451.44 69.12 
L 473.184 69.12 
L 473.184 123.48 
L 473.184 449.64 
L 473.184 504 
z
" style="fill:#ffffff;stroke:#ffffff;stroke-linejoin:miter;stroke-width:0.01;"/>
   </g>
   <g id="QuadMesh_1">
    <path clip-path="url(#p459874b9b5)" d="M 451.44 504 
L 473.184 504 
L 473.184 449.64 
L 451.44 449.64 
L 451.44 504 
" style="fill:#4e68d8;"/>
    <path clip-path="url(#p459874b9b5)" d="M 451.44 449.64 
L 473.184 449.64 
L 473.184 395.28 
L 451.44 395.28 
L 451.44 449.64 
" style="fill:#779af7;"/>
    <path clip-path="url(#p459874b9b5)" d="M 451.44 395.28 
L 473.184 395.28 
L 473.184 340.92 
L 451.44 340.92 
L 451.44 395.28 
" style="fill:#a3c2fe;"/>
    <path clip-path="url(#p459874b9b5)" d="M 451.44 340.92 
L 473.184 340.92 
L 473.184 286.56 
L 451.44 286.56 
L 451.44 340.92 
" style="fill:#ccd9ed;"/>
    <path clip-path="url(#p459874b9b5)" d="M 451.44 286.56 
L 473.184 286.56 
L 473.184 232.2 
L 451.44 232.2 
L 451.44 286.56 
" style="fill:#ecd3c5;"/>
    <path clip-path="url(#p459874b9b5)" d="M 451.44 232.2 
L 473.184 232.2 
L 473.184 177.84 
L 451.44 177.84 
L 451.44 232.2 
" style="fill:#f7b093;"/>
    <path clip-path="url(#p459874b9b5)" d="M 451.44 177.84 
L 473.184 177.84 
L 473.184 123.48 
L 451.44 123.48 
L 451.44 177.84 
" style="fill:#eb7d62;"/>
    <path clip-path="url(#p459874b9b5)" d="M 451.44 123.48 
L 473.184 123.48 
L 473.184 69.12 
L 451.44 69.12 
L 451.44 123.48 
" style="fill:#ca3b37;"/>
   </g>
   <g id="matplotlib.axis_3"/>
   <g id="matplotlib.axis_4">
    <g id="ytick_10">
     <g id="line2d_19">
      <defs>
       <path d="M 0 0 
L 3.5 0 
" id="m39aa3af93e" style="stroke:#000000;stroke-width:0.8;"/>
      </defs>
      <g>
       <use style="stroke:#000000;stroke-width:0.8;" x="473.184" xlink:href="#m39aa3af93e" y="504"/>
      </g>
     </g>
     <g id="text_19">
      <!-- −40 -->
      <defs>
       <path d="M 37.796875 64.3125 
L 12.890625 25.390625 
L 37.796875 25.390625 
z
M 35.203125 72.90625 
L 47.609375 72.90625 
L 47.609375 25.390625 
L 58.015625 25.390625 
L 58.015625 17.1875 
L 47.609375 17.1875 
L 47.609375 0 
L 37.796875 0 
L 37.796875 17.1875 
L 4.890625 17.1875 
L 4.890625 26.703125 
z
" id="DejaVuSans-34"/>
      </defs>
      <g transform="translate(480.184 507.799219)scale(0.1 -0.1)">
       <use xlink:href="#DejaVuSans-2212"/>
       <use x="83.789062" xlink:href="#DejaVuSans-34"/>
       <use x="147.412109" xlink:href="#DejaVuSans-30"/>
      </g>
     </g>
    </g>
    <g id="ytick_11">
     <g id="line2d_20">
      <g>
       <use style="stroke:#000000;stroke-width:0.8;" x="473.184" xlink:href="#m39aa3af93e" y="449.64"/>
      </g>
     </g>
     <g id="text_20">
      <!-- −30 -->
      <defs>
       <path d="M 40.578125 39.3125 
Q 47.65625 37.796875 51.625 33 
Q 55.609375 28.21875 55.609375 21.1875 
Q 55.609375 10.40625 48.1875 4.484375 
Q 40.765625 -1.421875 27.09375 -1.421875 
Q 22.515625 -1.421875 17.65625 -0.515625 
Q 12.796875 0.390625 7.625 2.203125 
L 7.625 11.71875 
Q 11.71875 9.328125 16.59375 8.109375 
Q 21.484375 6.890625 26.8125 6.890625 
Q 36.078125 6.890625 40.9375 10.546875 
Q 45.796875 14.203125 45.796875 21.1875 
Q 45.796875 27.640625 41.28125 31.265625 
Q 36.765625 34.90625 28.71875 34.90625 
L 20.21875 34.90625 
L 20.21875 43.015625 
L 29.109375 43.015625 
Q 36.375 43.015625 40.234375 45.921875 
Q 44.09375 48.828125 44.09375 54.296875 
Q 44.09375 59.90625 40.109375 62.90625 
Q 36.140625 65.921875 28.71875 65.921875 
Q 24.65625 65.921875 20.015625 65.03125 
Q 15.375 64.15625 9.8125 62.3125 
L 9.8125 71.09375 
Q 15.4375 72.65625 20.34375 73.4375 
Q 25.25 74.21875 29.59375 74.21875 
Q 40.828125 74.21875 47.359375 69.109375 
Q 53.90625 64.015625 53.90625 55.328125 
Q 53.90625 49.265625 50.4375 45.09375 
Q 46.96875 40.921875 40.578125 39.3125 
z
" id="DejaVuSans-33"/>
      </defs>
      <g transform="translate(480.184 453.439219)scale(0.1 -0.1)">
       <use xlink:href="#DejaVuSans-2212"/>
       <use x="83.789062" xlink:href="#DejaVuSans-33"/>
       <use x="147.412109" xlink:href="#DejaVuSans-30"/>
      </g>
     </g>
    </g>
    <g id="ytick_12">
     <g id="line2d_21">
      <g>
       <use style="stroke:#000000;stroke-width:0.8;" x="473.184" xlink:href="#m39aa3af93e" y="395.28"/>
      </g>
     </g>
     <g id="text_21">
      <!-- −20 -->
      <g transform="translate(480.184 399.079219)scale(0.1 -0.1)">
       <use xlink:href="#DejaVuSans-2212"/>
       <use x="83.789062" xlink:href="#DejaVuSans-32"/>
       <use x="147.412109" xlink:href="#DejaVuSans-30"/>
      </g>
     </g>
    </g>
    <g id="ytick_13">
     <g id="line2d_22">
      <g>
       <use style="stroke:#000000;stroke-width:0.8;" x="473.184" xlink:href="#m39aa3af93e" y="340.92"/>
      </g>
     </g>
     <g id="text_22">
      <!-- −10 -->
      <g transform="translate(480.184 344.719219)scale(0.1 -0.1)">
       <use xlink:href="#DejaVuSans-2212"/>
       <use x="83.789062" xlink:href="#DejaVuSans-31"/>
       <use x="147.412109" xlink:href="#DejaVuSans-30"/>
      </g>
     </g>
    </g>
    <g id="ytick_14">
     <g id="line2d_23">
      <g>
       <use style="stroke:#000000;stroke-width:0.8;" x="473.184" xlink:href="#m39aa3af93e" y="286.56"/>
      </g>
     </g>
     <g id="text_23">
      <!-- 0 -->
      <g transform="translate(480.184 290.359219)scale(0.1 -0.1)">
       <use xlink:href="#DejaVuSans-30"/>
      </g>
     </g>
    </g>
    <g id="ytick_15">
     <g id="line2d_24">
      <g>
       <use style="stroke:#000000;stroke-width:0.8;" x="473.184" xlink:href="#m39aa3af93e" y="232.2"/>
      </g>
     </g>
     <g id="text_24">
      <!-- 10 -->
      <g transform="translate(480.184 235.999219)scale(0.1 -0.1)">
       <use xlink:href="#DejaVuSans-31"/>
       <use x="63.623047" xlink:href="#DejaVuSans-30"/>
      </g>
     </g>
    </g>
    <g id="ytick_16">
     <g id="line2d_25">
      <g>
       <use style="stroke:#000000;stroke-width:0.8;" x="473.184" xlink:href="#m39aa3af93e" y="177.84"/>
      </g>
     </g>
     <g id="text_25">
      <!-- 20 -->
      <g transform="translate(480.184 181.639219)scale(0.1 -0.1)">
       <use xlink:href="#DejaVuSans-32"/>
       <use x="63.623047" xlink:href="#DejaVuSans-30"/>
      </g>
     </g>
    </g>
    <g id="ytick_17">
     <g id="line2d_26">
      <g>
       <use style="stroke:#000000;stroke-width:0.8;" x="473.184" xlink:href="#m39aa3af93e" y="123.48"/>
      </g>
     </g>
     <g id="text_26">
      <!-- 30 -->
      <g transform="translate(480.184 127.279219)scale(0.1 -0.1)">
       <use xlink:href="#DejaVuSans-33"/>
       <use x="63.623047" xlink:href="#DejaVuSans-30"/>
      </g>
     </g>
    </g>
    <g id="ytick_18">
     <g id="line2d_27">
      <g>
       <use style="stroke:#000000;stroke-width:0.8;" x="473.184" xlink:href="#m39aa3af93e" y="69.12"/>
      </g>
     </g>
     <g id="text_27">
      <!-- 40 -->
      <g transform="translate(480.184 72.919219)scale(0.1 -0.1)">
       <use xlink:href="#DejaVuSans-34"/>
       <use x="63.623047" xlink:href="#DejaVuSans-30"/>
      </g>
     </g>
    </g>
   </g>
   <g id="patch_8">
    <path d="M 451.44 504 
L 451.44 449.64 
L 451.44 123.48 
L 451.44 69.12 
L 473.184 69.12 
L 473.184 123.48 
L 473.184 449.64 
L 473.184 504 
z
" style="fill:none;stroke:#000000;stroke-linejoin:miter;stroke-width:0.8;"/>
   </g>
  </g>
 </g>
 <defs>
  <clipPath id="pc609f93098">
   <rect height="434.88" width="357.12" x="72" y="69.12"/>
  </clipPath>
  <clipPath id="p459874b9b5">
   <rect height="434.88" width="21.744" x="451.44" y="69.12"/>
  </clipPath>
 </defs>
</svg>
