<?xml version="1.0" encoding="utf-8" standalone="no"?>
<!DOCTYPE svg PUBLIC "-//W3C//DTD SVG 1.1//EN"
  "http://www.w3.org/Graphics/SVG/1.1/DTD/svg11.dtd">
<!-- Created with matplotlib (http://matplotlib.org/) -->
<svg height="576pt" version="1.1" viewBox="0 0 576 576" width="576pt" xmlns="http://www.w3.org/2000/svg" xmlns:xlink="http://www.w3.org/1999/xlink">
 <defs>
  <style type="text/css">
*{stroke-linecap:butt;stroke-linejoin:round;}
  </style>
 </defs>
 <g id="figure_1">
  <g id="patch_1">
   <path d="M 0 576 
L 576 576 
L 576 0 
L 0 0 
z
" style="fill:#ffffff;"/>
  </g>
  <g id="axes_1">
   <g id="patch_2">
    <path d="M 72 504 
L 429.12 504 
L 429.12 69.12 
L 72 69.12 
z
" style="fill:#ffffff;"/>
   </g>
   <g id="PathCollection_1">
    <path clip-path="url(#p43f47d92ed)" d="M 393.047273 496.214224 
L 396.654545 497.39809 
L 398.637058 495.214545 
L 396.821033 490.821818 
L 396.654545 490.41911 
L 395.005013 486.429091 
L 393.188982 482.036364 
L 393.047273 481.693586 
L 391.372964 477.643636 
L 389.556942 473.250909 
L 389.44 472.968042 
L 387.740937 468.858182 
L 385.924924 464.465455 
L 385.832727 464.242439 
L 384.10891 460.072727 
L 382.292885 455.68 
L 382.225455 455.516895 
L 380.476858 451.287273 
L 378.660835 446.894545 
L 378.618182 446.791372 
L 376.844801 442.501818 
L 375.028762 438.109091 
L 375.010909 438.065908 
L 373.212744 433.716364 
L 371.403636 429.340375 
L 371.396716 429.323636 
L 369.580704 424.930909 
L 367.796364 420.614761 
L 367.764705 420.538182 
L 365.948675 416.145455 
L 364.189091 411.889228 
L 364.132659 411.752727 
L 362.31664 407.36 
L 360.581818 403.163699 
L 360.500612 402.967273 
L 358.684592 398.574545 
L 356.974545 394.438139 
L 356.868578 394.181818 
L 355.052541 389.789091 
L 353.367273 385.71263 
L 353.236524 385.396364 
L 351.420479 381.003636 
L 349.76 376.98719 
L 349.604439 376.610909 
L 347.788446 372.218182 
L 346.152727 368.64235 
L 345.750125 367.825455 
L 343.498363 363.432727 
L 342.545455 361.573809 
L 341.246596 359.04 
L 338.994832 354.647273 
L 338.938182 354.536761 
L 335.898987 350.254545 
L 335.330909 348.812554 
L 334.973276 350.254545 
L 335.211836 354.647273 
L 335.330909 356.839373 
L 335.533198 359.04 
L 335.689013 363.432727 
L 335.927633 367.825455 
L 336.166211 372.218182 
L 336.404786 376.610909 
L 336.682219 381.003636 
L 337.120243 385.396364 
L 337.652024 389.789091 
L 338.183763 394.181818 
L 338.715531 398.574545 
L 338.938182 400.413829 
L 339.247285 402.967273 
L 339.779033 407.36 
L 340.310815 411.752727 
L 340.842558 416.145455 
L 341.37434 420.538182 
L 341.906099 424.930909 
L 342.437875 429.323636 
L 342.545455 430.212354 
L 342.969611 433.716364 
L 343.501354 438.109091 
L 344.033135 442.501818 
L 345.897132 446.894545 
L 346.152727 447.285774 
L 348.766965 451.287273 
L 349.76 452.807275 
L 351.636793 455.68 
L 353.367273 458.328766 
L 354.506633 460.072727 
L 356.974545 463.850249 
L 357.376468 464.465455 
L 360.246292 468.858182 
L 360.581818 469.371755 
L 363.116132 473.250909 
L 364.189091 474.893248 
L 365.98595 477.643636 
L 367.796364 480.414758 
L 368.939666 482.036364 
L 371.403636 485.886206 
L 372.267087 486.429091 
L 375.010909 488.790187 
L 378.618182 490.274989 
L 379.946674 490.821818 
L 382.225455 491.759801 
L 385.832727 493.244603 
L 389.44 494.729417 
L 390.618596 495.214545 
z
" style="fill:#506bda;"/>
    <path clip-path="url(#p43f47d92ed)" d="M 201.861818 306.722706 
L 202.626471 306.327273 
L 201.861818 305.175522 
L 201.272385 306.327273 
z
" style="fill:#506bda;"/>
    <path clip-path="url(#p43f47d92ed)" d="M 198.254545 304.287771 
L 200.697935 301.934545 
L 198.254545 298.615267 
L 197.432606 297.541818 
L 194.647273 293.740366 
L 194.165878 293.149091 
L 191.04 288.824745 
L 190.984386 288.756364 
L 187.705928 284.363636 
L 187.432727 283.99984 
L 184.40711 279.970909 
L 183.825455 279.196362 
L 181.108327 275.578182 
L 180.218182 274.392857 
L 177.809501 271.185455 
L 176.610909 269.589395 
L 174.51073 266.792727 
L 173.003636 264.785867 
L 171.063504 262.4 
L 169.396364 260.162691 
L 167.639183 258.007273 
L 165.789091 255.500338 
L 164.37261 253.614545 
L 162.181818 250.507433 
L 161.350793 249.221818 
L 158.574545 244.937722 
L 158.504287 244.829091 
L 155.529827 240.436364 
L 154.967273 239.609172 
L 152.54246 236.043636 
L 151.36 234.304893 
L 149.5551 231.650909 
L 147.752727 229.00063 
L 146.567749 227.258182 
L 144.145455 223.696364 
L 143.580373 222.865455 
L 140.593026 218.472727 
L 140.538182 218.392081 
L 137.605688 214.08 
L 136.930909 213.087779 
L 134.618315 209.687273 
L 133.323636 207.78356 
L 131.630927 205.294545 
L 129.716364 202.479247 
L 128.643615 200.901818 
L 126.109091 197.174991 
L 125.656235 196.509091 
L 122.668894 192.116364 
L 122.501818 191.870688 
L 119.681535 187.723636 
L 118.894545 186.566426 
L 116.694158 183.330909 
L 115.287273 181.262165 
L 113.706799 178.938182 
L 111.68 175.957917 
L 110.719427 174.545455 
L 108.072727 170.653651 
L 107.732062 170.152727 
L 104.744735 165.76 
L 104.465455 165.349343 
L 101.757356 161.367273 
L 100.858182 160.045074 
L 98.769997 156.974545 
L 97.250909 154.740841 
L 95.782637 152.581818 
L 93.643636 149.427459 
L 92.806605 148.189091 
L 90.036364 144.062926 
L 89.8574 143.796364 
L 86.908188 139.403636 
L 86.429091 138.690039 
L 83.958973 135.010909 
L 82.821818 133.31715 
L 81.009795 130.618182 
L 79.214545 127.944201 
L 78.060603 126.225455 
L 75.607273 122.571377 
L 75.111354 121.832727 
L 72.16218 117.44 
L 72 117.198442 
L 72 117.44 
L 72 121.832727 
L 72 126.225455 
L 72 130.618182 
L 72 135.010909 
L 72 139.403636 
L 72 143.796364 
L 72 148.189091 
L 72 152.581818 
L 72 156.974545 
L 72 161.367273 
L 72 165.76 
L 72 170.152727 
L 72 174.545455 
L 72 178.938182 
L 72 183.330909 
L 72 187.723636 
L 72 192.116364 
L 72 196.509091 
L 72 200.901818 
L 72 205.294545 
L 72 209.687273 
L 72 214.08 
L 72 218.472727 
L 72 222.865455 
L 72 227.258182 
L 72 231.141615 
L 72.932886 231.650909 
L 75.607273 233.11093 
L 79.214545 235.080341 
L 80.979006 236.043636 
L 82.821818 237.049697 
L 86.429091 239.019091 
L 89.025173 240.436364 
L 90.036364 240.988411 
L 93.643636 242.957838 
L 97.071193 244.829091 
L 97.250909 244.927207 
L 100.858182 246.896607 
L 104.465455 248.865923 
L 105.11734 249.221818 
L 108.072727 250.835312 
L 111.68 252.804718 
L 113.163346 253.614545 
L 115.287273 254.774084 
L 118.894545 256.743477 
L 121.209428 258.007273 
L 122.501818 258.712829 
L 126.109091 260.682189 
L 129.255447 262.4 
L 129.716364 262.65164 
L 133.323636 264.620941 
L 136.930909 266.590325 
L 137.301641 266.792727 
L 140.538182 268.559719 
L 144.145455 270.529067 
L 145.347749 271.185455 
L 147.752727 272.498449 
L 151.36 274.45123 
L 153.393842 275.578182 
L 154.967273 276.437183 
L 158.574545 278.059751 
L 161.439914 279.970909 
L 162.181818 280.375945 
L 165.789091 281.68134 
L 168.533338 284.363636 
L 169.396364 284.942611 
L 173.003636 286.701602 
L 175.081157 288.756364 
L 176.610909 289.782634 
L 180.218182 291.736994 
L 181.62894 293.149091 
L 183.825455 294.622673 
L 187.432727 296.788012 
L 188.176754 297.541818 
L 191.04 299.462686 
L 194.647273 301.847369 
L 194.725579 301.934545 
z
" style="fill:#506bda;"/>
   </g>
   <g id="PathCollection_2">
    <path clip-path="url(#p43f47d92ed)" d="M 364.189091 499.999364 
L 366.802764 504 
L 367.796364 504 
L 371.403636 504 
L 375.010909 504 
L 378.618182 504 
L 382.225455 504 
L 385.832727 504 
L 389.44 504 
L 393.047273 504 
L 396.654545 504 
L 400.261818 504 
L 403.869091 504 
L 407.476364 504 
L 411.083636 504 
L 414.690909 504 
L 418.298182 504 
L 421.905455 504 
L 425.512727 504 
L 429.12 504 
L 429.12 499.607273 
L 429.12 495.214545 
L 429.12 490.821818 
L 429.12 486.429091 
L 429.12 482.036364 
L 429.12 477.643636 
L 429.12 473.250909 
L 429.12 472.710329 
L 427.527462 468.858182 
L 425.71143 464.465455 
L 425.512727 463.984813 
L 423.895442 460.072727 
L 422.079421 455.68 
L 421.905455 455.259192 
L 420.263396 451.287273 
L 418.447322 446.894545 
L 418.298182 446.53379 
L 416.631326 442.501818 
L 414.815326 438.109091 
L 414.690909 437.808147 
L 412.999267 433.716364 
L 411.183251 429.323636 
L 411.083636 429.08268 
L 409.367233 424.930909 
L 407.551216 420.538182 
L 407.476364 420.357125 
L 405.735199 416.145455 
L 403.91919 411.752727 
L 403.869091 411.631544 
L 402.103184 407.36 
L 400.287147 402.967273 
L 400.261818 402.906005 
L 398.471127 398.574545 
L 396.65509 394.181818 
L 396.654545 394.1805 
L 394.839073 389.789091 
L 393.047273 385.454955 
L 393.02305 385.396364 
L 391.207008 381.003636 
L 389.44 376.729413 
L 389.39101 376.610909 
L 387.574978 372.218182 
L 385.832727 368.003892 
L 385.758958 367.825455 
L 383.942933 363.432727 
L 382.225455 359.278328 
L 382.126927 359.04 
L 380.310897 354.647273 
L 378.618182 350.552789 
L 378.494883 350.254545 
L 376.678846 345.861818 
L 375.010909 341.827305 
L 374.861853 341.469091 
L 372.853601 337.076364 
L 371.403636 334.247796 
L 370.601832 332.683636 
L 368.350056 328.290909 
L 367.796364 327.210752 
L 366.098314 323.898182 
L 364.189091 320.173661 
L 363.84656 319.505455 
L 361.594806 315.112727 
L 360.581818 313.136621 
L 359.342998 310.72 
L 357.091256 306.327273 
L 356.974545 306.099597 
L 354.839485 301.934545 
L 353.367273 299.062601 
L 352.587688 297.541818 
L 350.335909 293.149091 
L 349.76 292.025613 
L 348.084149 288.756364 
L 346.152727 284.988533 
L 345.8324 284.363636 
L 343.58063 279.970909 
L 342.545455 277.951501 
L 341.328866 275.578182 
L 339.077088 271.185455 
L 338.938182 270.914476 
L 336.825333 266.792727 
L 335.330909 263.877429 
L 334.573565 262.4 
L 332.321816 258.007273 
L 331.723636 256.840363 
L 330.070034 253.614545 
L 328.116364 249.80337 
L 327.818245 249.221818 
L 325.566477 244.829091 
L 324.509091 242.766315 
L 323.314718 240.436364 
L 321.062994 236.043636 
L 320.901818 235.729218 
L 318.811166 231.650909 
L 317.294545 228.692308 
L 316.55941 227.258182 
L 314.307655 222.865455 
L 313.687273 221.655185 
L 312.055914 218.472727 
L 310.08 214.618138 
L 309.804143 214.08 
L 307.552367 209.687273 
L 306.472727 207.581122 
L 305.300579 205.294545 
L 303.048818 200.901818 
L 302.865455 200.544109 
L 300.797085 196.509091 
L 299.258182 193.507068 
L 298.545283 192.116364 
L 296.29356 187.723636 
L 295.650909 186.469953 
L 294.04175 183.330909 
L 292.043636 179.432939 
L 289.778316 178.938182 
L 288.958515 174.545455 
L 288.436364 173.362021 
L 288.066766 174.545455 
L 288.305413 178.938182 
L 288.436364 181.349253 
L 288.646314 183.330909 
L 288.78254 187.723636 
L 289.021141 192.116364 
L 289.259728 196.509091 
L 289.49834 200.901818 
L 289.736924 205.294545 
L 289.975516 209.687273 
L 290.214105 214.08 
L 290.452673 218.472727 
L 290.69131 222.865455 
L 290.92989 227.258182 
L 291.168483 231.650909 
L 291.407082 236.043636 
L 291.645689 240.436364 
L 291.884278 244.829091 
L 292.043636 247.763114 
L 292.122864 249.221818 
L 292.361438 253.614545 
L 292.600033 258.007273 
L 292.838617 262.4 
L 293.07721 266.792727 
L 293.315805 271.185455 
L 293.554404 275.578182 
L 293.793004 279.970909 
L 294.031582 284.363636 
L 294.270187 288.756364 
L 294.508778 293.149091 
L 294.747378 297.541818 
L 294.985966 301.934545 
L 295.224541 306.327273 
L 295.463155 310.72 
L 295.650909 314.176947 
L 295.701733 315.112727 
L 295.940339 319.505455 
L 296.178896 323.898182 
L 296.417535 328.290909 
L 296.656089 332.683636 
L 296.894691 337.076364 
L 297.133287 341.469091 
L 297.371868 345.861818 
L 297.610465 350.254545 
L 297.849075 354.647273 
L 298.087653 359.04 
L 298.326261 363.432727 
L 297.938634 367.825455 
L 295.650909 369.704385 
L 294.239897 367.825455 
L 292.043636 364.900907 
L 290.941082 363.432727 
L 288.436364 360.097375 
L 287.64231 359.04 
L 284.829091 355.293893 
L 284.343497 354.647273 
L 281.221818 350.490413 
L 281.044691 350.254545 
L 277.745927 345.861818 
L 277.614545 345.686866 
L 274.447131 341.469091 
L 274.007273 340.883369 
L 271.148323 337.076364 
L 270.4 336.079902 
L 267.84953 332.683636 
L 266.792727 331.276358 
L 264.550745 328.290909 
L 263.185455 326.47288 
L 261.25193 323.898182 
L 259.578182 321.669409 
L 257.953121 319.505455 
L 255.970909 316.865885 
L 254.654351 315.112727 
L 252.363636 312.062398 
L 251.35553 310.72 
L 248.756364 307.258903 
L 248.05675 306.327273 
L 245.149091 302.455359 
L 244.757977 301.934545 
L 241.541818 297.65193 
L 241.459128 297.541818 
L 238.160347 293.149091 
L 237.934545 292.848411 
L 234.861561 288.756364 
L 234.327273 288.044896 
L 231.56275 284.363636 
L 230.72 283.241419 
L 228.263959 279.970909 
L 227.112727 278.437905 
L 224.965154 275.578182 
L 223.505455 273.634433 
L 221.666369 271.185455 
L 219.898182 268.830905 
L 218.367579 266.792727 
L 216.290909 264.027407 
L 215.068775 262.4 
L 212.683636 259.223907 
L 211.76999 258.007273 
L 209.076364 254.420388 
L 208.471201 253.614545 
L 205.469091 249.616898 
L 205.172399 249.221818 
L 201.873567 244.829091 
L 201.861818 244.813447 
L 198.574814 240.436364 
L 198.254545 240.009889 
L 195.276004 236.043636 
L 194.647273 235.206401 
L 191.977201 231.650909 
L 191.04 230.402918 
L 188.678411 227.258182 
L 187.432727 225.59941 
L 185.379617 222.865455 
L 183.825455 220.7959 
L 182.080834 218.472727 
L 180.218182 215.992399 
L 178.78204 214.08 
L 176.610909 211.18887 
L 175.483256 209.687273 
L 173.003636 206.385422 
L 172.184414 205.294545 
L 169.396364 201.581878 
L 168.885664 200.901818 
L 165.789091 196.778356 
L 165.586882 196.509091 
L 162.288053 192.116364 
L 162.181818 191.974898 
L 159.212653 187.723636 
L 158.574545 186.814724 
L 156.205305 183.330909 
L 154.967273 181.510481 
L 153.21794 178.938182 
L 151.36 176.206182 
L 150.230582 174.545455 
L 147.752727 170.901929 
L 147.243213 170.152727 
L 144.255868 165.76 
L 144.145455 165.597646 
L 141.268476 161.367273 
L 140.538182 160.293417 
L 138.281129 156.974545 
L 136.930909 154.989112 
L 135.293792 152.581818 
L 133.323636 149.684825 
L 132.306436 148.189091 
L 129.716364 144.380506 
L 129.31911 143.796364 
L 126.331676 139.403636 
L 126.109091 139.076341 
L 123.344357 135.010909 
L 122.501818 133.760102 
L 120.3923 130.618182 
L 118.894545 128.387326 
L 117.443107 126.225455 
L 115.287273 123.014434 
L 114.493888 121.832727 
L 111.68 117.641573 
L 111.544669 117.44 
L 108.59548 113.047273 
L 108.072727 112.268647 
L 105.646289 108.654545 
L 104.465455 106.895728 
L 102.697104 104.261818 
L 100.858182 101.522865 
L 99.747858 99.869091 
L 97.250909 96.149982 
L 96.798659 95.476364 
L 93.8495 91.083636 
L 93.643636 90.777011 
L 90.900283 86.690909 
L 90.036364 85.404129 
L 87.951083 82.298182 
L 86.429091 80.031215 
L 85.001894 77.905455 
L 82.821818 74.658342 
L 82.052672 73.512727 
L 79.214545 69.285433 
L 79.103475 69.12 
L 75.607273 69.12 
L 72 69.12 
L 72 73.512727 
L 72 77.905455 
L 72 82.298182 
L 72 86.690909 
L 72 91.083636 
L 72 95.476364 
L 72 99.869091 
L 72 104.261818 
L 72 108.654545 
L 72 113.047273 
L 72 117.198442 
L 72.16218 117.44 
L 75.111354 121.832727 
L 75.607273 122.571377 
L 78.060603 126.225455 
L 79.214545 127.944201 
L 81.009795 130.618182 
L 82.821818 133.31715 
L 83.958973 135.010909 
L 86.429091 138.690039 
L 86.908188 139.403636 
L 89.8574 143.796364 
L 90.036364 144.062926 
L 92.806605 148.189091 
L 93.643636 149.427459 
L 95.782637 152.581818 
L 97.250909 154.740841 
L 98.769997 156.974545 
L 100.858182 160.045074 
L 101.757356 161.367273 
L 104.465455 165.349343 
L 104.744735 165.76 
L 107.732062 170.152727 
L 108.072727 170.653651 
L 110.719427 174.545455 
L 111.68 175.957917 
L 113.706799 178.938182 
L 115.287273 181.262165 
L 116.694158 183.330909 
L 118.894545 186.566426 
L 119.681535 187.723636 
L 122.501818 191.870688 
L 122.668894 192.116364 
L 125.656235 196.509091 
L 126.109091 197.174991 
L 128.643615 200.901818 
L 129.716364 202.479247 
L 131.630927 205.294545 
L 133.323636 207.78356 
L 134.618315 209.687273 
L 136.930909 213.087779 
L 137.605688 214.08 
L 140.538182 218.392081 
L 140.593026 218.472727 
L 143.580373 222.865455 
L 144.145455 223.696364 
L 146.567749 227.258182 
L 147.752727 229.00063 
L 149.5551 231.650909 
L 151.36 234.304893 
L 152.54246 236.043636 
L 154.967273 239.609172 
L 155.529827 240.436364 
L 158.504287 244.829091 
L 158.574545 244.937722 
L 161.350793 249.221818 
L 162.181818 250.507433 
L 164.37261 253.614545 
L 165.789091 255.500338 
L 167.639183 258.007273 
L 169.396364 260.162691 
L 171.063504 262.4 
L 173.003636 264.785867 
L 174.51073 266.792727 
L 176.610909 269.589395 
L 177.809501 271.185455 
L 180.218182 274.392857 
L 181.108327 275.578182 
L 183.825455 279.196362 
L 184.40711 279.970909 
L 187.432727 283.99984 
L 187.705928 284.363636 
L 190.984386 288.756364 
L 191.04 288.824745 
L 194.165878 293.149091 
L 194.647273 293.740366 
L 197.432606 297.541818 
L 198.254545 298.615267 
L 200.697935 301.934545 
L 198.254545 304.287771 
L 194.725579 301.934545 
L 194.647273 301.847369 
L 191.04 299.462686 
L 188.176754 297.541818 
L 187.432727 296.788012 
L 183.825455 294.622673 
L 181.62894 293.149091 
L 180.218182 291.736994 
L 176.610909 289.782634 
L 175.081157 288.756364 
L 173.003636 286.701602 
L 169.396364 284.942611 
L 168.533338 284.363636 
L 165.789091 281.68134 
L 162.181818 280.375945 
L 161.439914 279.970909 
L 158.574545 278.059751 
L 154.967273 276.437183 
L 153.393842 275.578182 
L 151.36 274.45123 
L 147.752727 272.498449 
L 145.347749 271.185455 
L 144.145455 270.529067 
L 140.538182 268.559719 
L 137.301641 266.792727 
L 136.930909 266.590325 
L 133.323636 264.620941 
L 129.716364 262.65164 
L 129.255447 262.4 
L 126.109091 260.682189 
L 122.501818 258.712829 
L 121.209428 258.007273 
L 118.894545 256.743477 
L 115.287273 254.774084 
L 113.163346 253.614545 
L 111.68 252.804718 
L 108.072727 250.835312 
L 105.11734 249.221818 
L 104.465455 248.865923 
L 100.858182 246.896607 
L 97.250909 244.927207 
L 97.071193 244.829091 
L 93.643636 242.957838 
L 90.036364 240.988411 
L 89.025173 240.436364 
L 86.429091 239.019091 
L 82.821818 237.049697 
L 80.979006 236.043636 
L 79.214545 235.080341 
L 75.607273 233.11093 
L 72.932886 231.650909 
L 72 231.141615 
L 72 231.650909 
L 72 236.043636 
L 72 240.436364 
L 72 244.829091 
L 72 249.221818 
L 72 253.614545 
L 72 258.007273 
L 72 262.4 
L 72 266.792727 
L 72 271.185455 
L 72 275.578182 
L 72 279.970909 
L 72 282.168663 
L 75.607273 284.138059 
L 76.020462 284.363636 
L 79.214545 286.107394 
L 82.821818 288.076773 
L 84.0666 288.756364 
L 86.429091 290.04619 
L 90.036364 292.015523 
L 92.112684 293.149091 
L 93.643636 293.984922 
L 97.250909 295.954261 
L 100.158854 297.541818 
L 100.858182 297.923611 
L 104.465455 299.893034 
L 108.072727 301.862428 
L 108.204824 301.934545 
L 111.68 303.831778 
L 115.287273 305.801159 
L 116.250949 306.327273 
L 118.894545 307.770527 
L 122.501818 309.739905 
L 124.29706 310.72 
L 126.109091 311.709253 
L 129.716364 313.678636 
L 132.343152 315.112727 
L 133.323636 315.648019 
L 136.930909 317.617377 
L 140.389201 319.505455 
L 140.538182 319.586791 
L 144.145455 321.556127 
L 147.752727 323.525528 
L 148.435303 323.898182 
L 151.36 325.494907 
L 154.967273 327.464304 
L 156.481362 328.290909 
L 158.574545 329.433654 
L 162.181818 331.403006 
L 164.527508 332.683636 
L 165.789091 333.372399 
L 169.396364 335.739156 
L 171.389616 337.076364 
L 173.003636 338.159178 
L 176.610909 340.579209 
L 177.937376 341.469091 
L 180.218182 342.999204 
L 183.825455 345.419241 
L 184.485163 345.861818 
L 187.432727 347.839228 
L 191.033031 350.254545 
L 191.04 350.259221 
L 194.647273 352.679263 
L 197.580766 354.647273 
L 198.254545 355.099289 
L 201.861818 357.519295 
L 204.128572 359.04 
L 205.469091 359.939306 
L 209.076364 362.359314 
L 210.676402 363.432727 
L 212.683636 364.779305 
L 216.290909 367.199334 
L 217.224209 367.825455 
L 219.898182 369.619342 
L 223.505455 372.039335 
L 223.772041 372.218182 
L 227.112727 374.459367 
L 230.319811 376.610909 
L 230.72 376.879385 
L 234.327273 379.2994 
L 236.867644 381.003636 
L 237.934545 381.719378 
L 241.541818 384.139418 
L 243.415414 385.396364 
L 245.149091 386.559448 
L 248.756364 388.979425 
L 249.963232 389.789091 
L 252.363636 391.399483 
L 255.970909 393.819464 
L 256.511036 394.181818 
L 259.578182 396.239462 
L 263.058813 398.574545 
L 263.185455 398.659507 
L 266.792727 401.079513 
L 269.606641 402.967273 
L 270.4 403.499507 
L 274.007273 405.919536 
L 276.154442 407.36 
L 277.614545 408.339533 
L 281.221818 410.759535 
L 282.702265 411.752727 
L 284.829091 413.179565 
L 288.436364 415.599577 
L 289.250059 416.145455 
L 292.043636 418.019564 
L 295.650909 420.439601 
L 295.797853 420.538182 
L 299.258182 422.859613 
L 302.833966 424.930909 
L 302.865455 424.947803 
L 306.472727 426.882843 
L 310.08 428.817947 
L 311.022708 429.323636 
L 313.687273 430.75297 
L 317.294545 432.68808 
L 319.211454 433.716364 
L 320.901818 434.623123 
L 323.128145 438.109091 
L 324.509091 439.280861 
L 326.606703 442.501818 
L 328.116364 444.784396 
L 329.494956 446.894545 
L 331.723636 450.305877 
L 332.364799 451.287273 
L 335.234629 455.68 
L 335.330909 455.827371 
L 338.104464 460.072727 
L 338.938182 461.34887 
L 340.974289 464.465455 
L 342.545455 466.87037 
L 343.844113 468.858182 
L 346.152727 472.391876 
L 346.713946 473.250909 
L 349.583764 477.643636 
L 349.76 477.913393 
L 352.453606 482.036364 
L 353.367273 483.434875 
L 355.323438 486.429091 
L 356.974545 488.956356 
L 358.193284 490.821818 
L 360.581818 494.477849 
L 361.06311 495.214545 
L 363.932933 499.607273 
z
M 390.618596 495.214545 
L 389.44 494.729417 
L 385.832727 493.244603 
L 382.225455 491.759801 
L 379.946674 490.821818 
L 378.618182 490.274989 
L 375.010909 488.790187 
L 372.267087 486.429091 
L 371.403636 485.886206 
L 368.939666 482.036364 
L 367.796364 480.414758 
L 365.98595 477.643636 
L 364.189091 474.893248 
L 363.116132 473.250909 
L 360.581818 469.371755 
L 360.246292 468.858182 
L 357.376468 464.465455 
L 356.974545 463.850249 
L 354.506633 460.072727 
L 353.367273 458.328766 
L 351.636793 455.68 
L 349.76 452.807275 
L 348.766965 451.287273 
L 346.152727 447.285774 
L 345.897132 446.894545 
L 344.033135 442.501818 
L 343.501354 438.109091 
L 342.969611 433.716364 
L 342.545455 430.212354 
L 342.437875 429.323636 
L 341.906099 424.930909 
L 341.37434 420.538182 
L 340.842558 416.145455 
L 340.310815 411.752727 
L 339.779033 407.36 
L 339.247285 402.967273 
L 338.938182 400.413829 
L 338.715531 398.574545 
L 338.183763 394.181818 
L 337.652024 389.789091 
L 337.120243 385.396364 
L 336.682219 381.003636 
L 336.404786 376.610909 
L 336.166211 372.218182 
L 335.927633 367.825455 
L 335.689013 363.432727 
L 335.533198 359.04 
L 335.330909 356.839373 
L 335.211836 354.647273 
L 334.973276 350.254545 
L 335.330909 348.812554 
L 335.898987 350.254545 
L 338.938182 354.536761 
L 338.994832 354.647273 
L 341.246596 359.04 
L 342.545455 361.573809 
L 343.498363 363.432727 
L 345.750125 367.825455 
L 346.152727 368.64235 
L 347.788446 372.218182 
L 349.604439 376.610909 
L 349.76 376.98719 
L 351.420479 381.003636 
L 353.236524 385.396364 
L 353.367273 385.71263 
L 355.052541 389.789091 
L 356.868578 394.181818 
L 356.974545 394.438139 
L 358.684592 398.574545 
L 360.500612 402.967273 
L 360.581818 403.163699 
L 362.31664 407.36 
L 364.132659 411.752727 
L 364.189091 411.889228 
L 365.948675 416.145455 
L 367.764705 420.538182 
L 367.796364 420.614761 
L 369.580704 424.930909 
L 371.396716 429.323636 
L 371.403636 429.340375 
L 373.212744 433.716364 
L 375.010909 438.065908 
L 375.028762 438.109091 
L 376.844801 442.501818 
L 378.618182 446.791372 
L 378.660835 446.894545 
L 380.476858 451.287273 
L 382.225455 455.516895 
L 382.292885 455.68 
L 384.10891 460.072727 
L 385.832727 464.242439 
L 385.924924 464.465455 
L 387.740937 468.858182 
L 389.44 472.968042 
L 389.556942 473.250909 
L 391.372964 477.643636 
L 393.047273 481.693586 
L 393.188982 482.036364 
L 395.005013 486.429091 
L 396.654545 490.41911 
L 396.821033 490.821818 
L 398.637058 495.214545 
L 396.654545 497.39809 
L 393.047273 496.214224 
z
M 201.272385 306.327273 
L 201.861818 305.175522 
L 202.626471 306.327273 
L 201.861818 306.722706 
z
" style="fill:#80a3fa;"/>
   </g>
   <g id="PathCollection_3">
    <path clip-path="url(#p43f47d92ed)" d="M 349.76 503.019495 
L 350.400577 504 
L 353.367273 504 
L 356.974545 504 
L 360.581818 504 
L 364.189091 504 
L 366.802764 504 
L 364.189091 499.999364 
L 363.932933 499.607273 
L 361.06311 495.214545 
L 360.581818 494.477849 
L 358.193284 490.821818 
L 356.974545 488.956356 
L 355.323438 486.429091 
L 353.367273 483.434875 
L 352.453606 482.036364 
L 349.76 477.913393 
L 349.583764 477.643636 
L 346.713946 473.250909 
L 346.152727 472.391876 
L 343.844113 468.858182 
L 342.545455 466.87037 
L 340.974289 464.465455 
L 338.938182 461.34887 
L 338.104464 460.072727 
L 335.330909 455.827371 
L 335.234629 455.68 
L 332.364799 451.287273 
L 331.723636 450.305877 
L 329.494956 446.894545 
L 328.116364 444.784396 
L 326.606703 442.501818 
L 324.509091 439.280861 
L 323.128145 438.109091 
L 320.901818 434.623123 
L 319.211454 433.716364 
L 317.294545 432.68808 
L 313.687273 430.75297 
L 311.022708 429.323636 
L 310.08 428.817947 
L 306.472727 426.882843 
L 302.865455 424.947803 
L 302.833966 424.930909 
L 299.258182 422.859613 
L 295.797853 420.538182 
L 295.650909 420.439601 
L 292.043636 418.019564 
L 289.250059 416.145455 
L 288.436364 415.599577 
L 284.829091 413.179565 
L 282.702265 411.752727 
L 281.221818 410.759535 
L 277.614545 408.339533 
L 276.154442 407.36 
L 274.007273 405.919536 
L 270.4 403.499507 
L 269.606641 402.967273 
L 266.792727 401.079513 
L 263.185455 398.659507 
L 263.058813 398.574545 
L 259.578182 396.239462 
L 256.511036 394.181818 
L 255.970909 393.819464 
L 252.363636 391.399483 
L 249.963232 389.789091 
L 248.756364 388.979425 
L 245.149091 386.559448 
L 243.415414 385.396364 
L 241.541818 384.139418 
L 237.934545 381.719378 
L 236.867644 381.003636 
L 234.327273 379.2994 
L 230.72 376.879385 
L 230.319811 376.610909 
L 227.112727 374.459367 
L 223.772041 372.218182 
L 223.505455 372.039335 
L 219.898182 369.619342 
L 217.224209 367.825455 
L 216.290909 367.199334 
L 212.683636 364.779305 
L 210.676402 363.432727 
L 209.076364 362.359314 
L 205.469091 359.939306 
L 204.128572 359.04 
L 201.861818 357.519295 
L 198.254545 355.099289 
L 197.580766 354.647273 
L 194.647273 352.679263 
L 191.04 350.259221 
L 191.033031 350.254545 
L 187.432727 347.839228 
L 184.485163 345.861818 
L 183.825455 345.419241 
L 180.218182 342.999204 
L 177.937376 341.469091 
L 176.610909 340.579209 
L 173.003636 338.159178 
L 171.389616 337.076364 
L 169.396364 335.739156 
L 165.789091 333.372399 
L 164.527508 332.683636 
L 162.181818 331.403006 
L 158.574545 329.433654 
L 156.481362 328.290909 
L 154.967273 327.464304 
L 151.36 325.494907 
L 148.435303 323.898182 
L 147.752727 323.525528 
L 144.145455 321.556127 
L 140.538182 319.586791 
L 140.389201 319.505455 
L 136.930909 317.617377 
L 133.323636 315.648019 
L 132.343152 315.112727 
L 129.716364 313.678636 
L 126.109091 311.709253 
L 124.29706 310.72 
L 122.501818 309.739905 
L 118.894545 307.770527 
L 116.250949 306.327273 
L 115.287273 305.801159 
L 111.68 303.831778 
L 108.204824 301.934545 
L 108.072727 301.862428 
L 104.465455 299.893034 
L 100.858182 297.923611 
L 100.158854 297.541818 
L 97.250909 295.954261 
L 93.643636 293.984922 
L 92.112684 293.149091 
L 90.036364 292.015523 
L 86.429091 290.04619 
L 84.0666 288.756364 
L 82.821818 288.076773 
L 79.214545 286.107394 
L 76.020462 284.363636 
L 75.607273 284.138059 
L 72 282.168663 
L 72 284.363636 
L 72 288.756364 
L 72 293.149091 
L 72 297.541818 
L 72 301.934545 
L 72 306.327273 
L 72 310.72 
L 72 315.112727 
L 72 319.505455 
L 72 323.898182 
L 72 328.290909 
L 72 332.683636 
L 72 333.195739 
L 75.607273 335.165135 
L 79.108197 337.076364 
L 79.214545 337.134422 
L 82.821818 339.103899 
L 86.429091 341.073243 
L 87.15418 341.469091 
L 90.036364 343.042592 
L 93.643636 345.012003 
L 95.200237 345.861818 
L 97.250909 346.981366 
L 100.858182 348.95071 
L 103.246358 350.254545 
L 104.465455 350.920111 
L 108.072727 352.889457 
L 111.292525 354.647273 
L 111.68 354.858818 
L 115.287273 356.828239 
L 118.894545 358.797573 
L 119.338591 359.04 
L 122.501818 360.766976 
L 126.109091 362.736367 
L 127.384625 363.432727 
L 129.716364 364.70571 
L 133.323636 366.675102 
L 135.430765 367.825455 
L 136.930909 368.644442 
L 140.538182 370.613869 
L 143.476773 372.218182 
L 144.145455 372.583243 
L 147.752727 374.552612 
L 151.36 376.521942 
L 151.522958 376.610909 
L 154.967273 378.491346 
L 158.574545 380.460715 
L 159.569012 381.003636 
L 162.181818 382.430096 
L 165.789091 384.399447 
L 167.468408 385.396364 
L 169.396364 386.535723 
L 173.003636 388.955745 
L 174.245837 389.789091 
L 176.610909 391.375743 
L 180.218182 393.795789 
L 180.793595 394.181818 
L 183.825455 396.215783 
L 187.341397 398.574545 
L 187.432727 398.635817 
L 191.04 401.055793 
L 193.889262 402.967273 
L 194.647273 403.475798 
L 198.254545 405.895851 
L 200.437032 407.36 
L 201.861818 408.31583 
L 205.469091 410.735843 
L 206.984857 411.752727 
L 209.076364 413.155863 
L 212.683636 415.575882 
L 213.532645 416.145455 
L 216.290909 417.995901 
L 219.898182 420.415881 
L 220.080484 420.538182 
L 223.505455 422.835903 
L 226.628261 424.930909 
L 227.112727 425.255925 
L 230.72 427.675939 
L 233.176064 429.323636 
L 234.327273 430.095945 
L 237.934545 432.515953 
L 239.723871 433.716364 
L 241.541818 434.93599 
L 245.149091 437.356 
L 246.271666 438.109091 
L 248.756364 439.77597 
L 252.363636 442.196013 
L 252.819472 442.501818 
L 255.970909 444.616017 
L 259.36728 446.894545 
L 259.578182 447.036033 
L 263.185455 449.456065 
L 265.915077 451.287273 
L 266.792727 451.876056 
L 270.4 454.296077 
L 272.582285 455.68 
L 274.007273 456.517018 
L 277.614545 458.452104 
L 280.635674 460.072727 
L 281.221818 460.387152 
L 284.829091 462.322242 
L 288.436364 464.257312 
L 288.824376 464.465455 
L 292.043636 466.192368 
L 295.650909 468.127452 
L 297.013105 468.858182 
L 299.258182 470.062519 
L 302.865455 471.997607 
L 305.201828 473.250909 
L 306.472727 473.932658 
L 310.08 475.867777 
L 313.390544 477.643636 
L 313.687273 477.802808 
L 317.294545 479.737913 
L 320.901818 481.672992 
L 321.579197 482.036364 
L 324.509091 483.608065 
L 328.116364 485.543147 
L 329.767911 486.429091 
L 331.723636 487.478196 
L 335.330909 489.413269 
L 337.956682 490.821818 
L 338.938182 491.348333 
L 342.545455 493.28342 
L 343.66714 495.214545 
L 346.152727 497.497989 
L 347.530752 499.607273 
z
" style="fill:#b2ccfb;"/>
    <path clip-path="url(#p43f47d92ed)" d="M 429.12 472.710329 
L 429.12 468.858182 
L 429.12 464.465455 
L 429.12 460.072727 
L 429.12 455.68 
L 429.12 451.287273 
L 429.12 446.894545 
L 429.12 442.501818 
L 429.12 438.109091 
L 429.12 433.716364 
L 429.12 429.323636 
L 429.12 424.930909 
L 429.12 420.538182 
L 429.12 416.145455 
L 429.12 411.752727 
L 429.12 407.36 
L 429.12 402.967273 
L 429.12 398.574545 
L 429.12 394.181818 
L 429.12 389.789091 
L 429.12 385.396364 
L 429.12 381.003636 
L 429.12 376.610909 
L 429.12 376.471787 
L 427.361487 372.218182 
L 425.545463 367.825455 
L 425.512727 367.746269 
L 423.729473 363.432727 
L 421.913472 359.04 
L 421.905455 359.020606 
L 420.097435 354.647273 
L 418.298182 350.295135 
L 418.281401 350.254545 
L 416.465361 345.861818 
L 414.690909 341.569591 
L 414.649361 341.469091 
L 412.833354 337.076364 
L 411.083636 332.844044 
L 411.017321 332.683636 
L 409.201273 328.290909 
L 407.476364 324.118515 
L 407.385276 323.898182 
L 405.569211 319.505455 
L 403.869091 315.393005 
L 403.753221 315.112727 
L 401.937217 310.72 
L 400.261818 306.961747 
L 399.957081 306.327273 
L 397.705312 301.934545 
L 396.654545 299.884748 
L 395.453538 297.541818 
L 393.201743 293.149091 
L 393.047273 292.847747 
L 390.950014 288.756364 
L 389.44 285.810616 
L 388.698277 284.363636 
L 386.446457 279.970909 
L 385.832727 278.773612 
L 384.194736 275.578182 
L 382.225455 271.736593 
L 381.942935 271.185455 
L 379.691222 266.792727 
L 378.618182 264.69946 
L 377.439419 262.4 
L 375.187573 258.007273 
L 375.010909 257.662633 
L 372.935851 253.614545 
L 371.403636 250.625497 
L 370.684115 249.221818 
L 368.432337 244.829091 
L 367.796364 243.588417 
L 366.180581 240.436364 
L 364.189091 236.55141 
L 363.928801 236.043636 
L 361.67706 231.650909 
L 360.581818 229.514324 
L 359.425287 227.258182 
L 357.173489 222.865455 
L 356.974545 222.47736 
L 354.921686 218.472727 
L 353.367273 215.440389 
L 352.669928 214.08 
L 350.418192 209.687273 
L 349.76 208.403322 
L 348.166394 205.294545 
L 346.152727 201.366253 
L 345.91465 200.901818 
L 343.662902 196.509091 
L 342.545455 194.329248 
L 341.411097 192.116364 
L 339.159363 187.723636 
L 338.938182 187.292175 
L 336.907557 183.330909 
L 335.330909 180.255212 
L 334.655776 178.938182 
L 332.403998 174.545455 
L 331.723636 173.218197 
L 330.152256 170.152727 
L 328.116364 166.18112 
L 327.900495 165.76 
L 325.648724 161.367273 
L 324.509091 159.143998 
L 323.397018 156.974545 
L 321.145237 152.581818 
L 320.901818 152.106964 
L 318.893432 148.189091 
L 317.294545 145.070006 
L 316.641674 143.796364 
L 314.389873 139.403636 
L 313.687273 138.033 
L 312.138118 135.010909 
L 310.08 130.996007 
L 309.886323 130.618182 
L 307.634588 126.225455 
L 306.472727 123.958902 
L 305.382837 121.832727 
L 303.131095 117.44 
L 302.865455 116.921797 
L 300.879303 113.047273 
L 299.258182 109.884816 
L 298.627533 108.654545 
L 296.375791 104.261818 
L 295.650909 102.847763 
L 294.123962 99.869091 
L 292.043636 95.810799 
L 291.872202 95.476364 
L 289.620444 91.083636 
L 288.436364 88.773732 
L 287.368694 86.690909 
L 285.116956 82.298182 
L 284.829091 81.736603 
L 282.865206 77.905455 
L 281.221818 74.699571 
L 280.613424 73.512727 
L 278.361614 69.12 
L 277.614545 69.12 
L 274.007273 69.12 
L 270.4 69.12 
L 266.792727 69.12 
L 263.185455 69.12 
L 259.578182 69.12 
L 255.970909 69.12 
L 252.363636 69.12 
L 248.756364 69.12 
L 245.149091 69.12 
L 244.951492 69.12 
L 245.149091 72.393755 
L 245.216422 73.512727 
L 245.454982 77.905455 
L 245.693559 82.298182 
L 245.932165 86.690909 
L 246.170772 91.083636 
L 246.40933 95.476364 
L 246.647955 99.869091 
L 246.886545 104.261818 
L 247.125099 108.654545 
L 247.363717 113.047273 
L 247.602341 117.44 
L 247.84091 121.832727 
L 248.079475 126.225455 
L 248.318116 130.618182 
L 248.556692 135.010909 
L 248.756364 138.687226 
L 248.795274 139.403636 
L 249.033847 143.796364 
L 249.272501 148.189091 
L 249.511066 152.581818 
L 249.749687 156.974545 
L 249.988265 161.367273 
L 250.226821 165.76 
L 250.465449 170.152727 
L 250.704022 174.545455 
L 250.942603 178.938182 
L 251.18121 183.330909 
L 251.419797 187.723636 
L 251.658378 192.116364 
L 251.896923 196.509091 
L 252.135572 200.901818 
L 252.363636 205.100849 
L 252.374157 205.294545 
L 252.612746 209.687273 
L 252.851325 214.08 
L 253.089905 218.472727 
L 253.328519 222.865455 
L 253.567108 227.258182 
L 253.80572 231.650909 
L 254.044287 236.043636 
L 254.282903 240.436364 
L 254.52148 244.829091 
L 254.760068 249.221818 
L 252.472833 253.614545 
L 252.363636 253.661983 
L 252.328012 253.614545 
L 249.075353 249.221818 
L 248.756364 248.858453 
L 245.730445 244.829091 
L 245.149091 244.054938 
L 242.431668 240.436364 
L 241.541818 239.251443 
L 239.132843 236.043636 
L 237.934545 234.447938 
L 235.83407 231.650909 
L 234.327273 229.64443 
L 232.535293 227.258182 
L 230.72 224.840951 
L 229.236452 222.865455 
L 227.112727 220.037418 
L 225.937697 218.472727 
L 223.505455 215.233931 
L 222.638896 214.08 
L 219.898182 210.430422 
L 219.340103 209.687273 
L 216.290909 205.626965 
L 216.041271 205.294545 
L 212.742497 200.901818 
L 212.683636 200.823438 
L 209.44374 196.509091 
L 209.076364 196.019888 
L 206.144908 192.116364 
L 205.469091 191.216431 
L 202.846127 187.723636 
L 201.861818 186.412918 
L 199.547292 183.330909 
L 198.254545 181.609465 
L 196.248524 178.938182 
L 194.647273 176.805921 
L 192.949708 174.545455 
L 191.04 172.002451 
L 189.650938 170.152727 
L 187.432727 167.198918 
L 186.352147 165.76 
L 183.825455 162.395453 
L 183.053315 161.367273 
L 180.218182 157.591982 
L 179.754509 156.974545 
L 176.610909 152.788454 
L 176.455732 152.581818 
L 173.156947 148.189091 
L 173.003636 147.984939 
L 169.858165 143.796364 
L 169.396364 143.181431 
L 166.559316 139.403636 
L 165.789091 138.377988 
L 163.260526 135.010909 
L 162.181818 133.574482 
L 159.991306 130.618182 
L 158.574545 128.716024 
L 156.880788 126.225455 
L 154.967273 123.411781 
L 153.893397 121.832727 
L 151.36 118.082699 
L 150.927219 117.44 
L 147.978019 113.047273 
L 147.752727 112.71171 
L 145.028824 108.654545 
L 144.145455 107.338792 
L 142.079614 104.261818 
L 140.538182 101.965916 
L 139.130397 99.869091 
L 136.930909 96.593055 
L 136.181185 95.476364 
L 133.323636 91.220127 
L 133.231999 91.083636 
L 130.282788 86.690909 
L 129.716364 85.847241 
L 127.333583 82.298182 
L 126.109091 80.474327 
L 124.384383 77.905455 
L 122.501818 75.101427 
L 121.4352 73.512727 
L 118.894545 69.728519 
L 118.485995 69.12 
L 115.287273 69.12 
L 111.68 69.12 
L 108.072727 69.12 
L 104.465455 69.12 
L 100.858182 69.12 
L 97.250909 69.12 
L 93.643636 69.12 
L 90.036364 69.12 
L 86.429091 69.12 
L 82.821818 69.12 
L 79.214545 69.12 
L 79.103475 69.12 
L 79.214545 69.285433 
L 82.052672 73.512727 
L 82.821818 74.658342 
L 85.001894 77.905455 
L 86.429091 80.031215 
L 87.951083 82.298182 
L 90.036364 85.404129 
L 90.900283 86.690909 
L 93.643636 90.777011 
L 93.8495 91.083636 
L 96.798659 95.476364 
L 97.250909 96.149982 
L 99.747858 99.869091 
L 100.858182 101.522865 
L 102.697104 104.261818 
L 104.465455 106.895728 
L 105.646289 108.654545 
L 108.072727 112.268647 
L 108.59548 113.047273 
L 111.544669 117.44 
L 111.68 117.641573 
L 114.493888 121.832727 
L 115.287273 123.014434 
L 117.443107 126.225455 
L 118.894545 128.387326 
L 120.3923 130.618182 
L 122.501818 133.760102 
L 123.344357 135.010909 
L 126.109091 139.076341 
L 126.331676 139.403636 
L 129.31911 143.796364 
L 129.716364 144.380506 
L 132.306436 148.189091 
L 133.323636 149.684825 
L 135.293792 152.581818 
L 136.930909 154.989112 
L 138.281129 156.974545 
L 140.538182 160.293417 
L 141.268476 161.367273 
L 144.145455 165.597646 
L 144.255868 165.76 
L 147.243213 170.152727 
L 147.752727 170.901929 
L 150.230582 174.545455 
L 151.36 176.206182 
L 153.21794 178.938182 
L 154.967273 181.510481 
L 156.205305 183.330909 
L 158.574545 186.814724 
L 159.212653 187.723636 
L 162.181818 191.974898 
L 162.288053 192.116364 
L 165.586882 196.509091 
L 165.789091 196.778356 
L 168.885664 200.901818 
L 169.396364 201.581878 
L 172.184414 205.294545 
L 173.003636 206.385422 
L 175.483256 209.687273 
L 176.610909 211.18887 
L 178.78204 214.08 
L 180.218182 215.992399 
L 182.080834 218.472727 
L 183.825455 220.7959 
L 185.379617 222.865455 
L 187.432727 225.59941 
L 188.678411 227.258182 
L 191.04 230.402918 
L 191.977201 231.650909 
L 194.647273 235.206401 
L 195.276004 236.043636 
L 198.254545 240.009889 
L 198.574814 240.436364 
L 201.861818 244.813447 
L 201.873567 244.829091 
L 205.172399 249.221818 
L 205.469091 249.616898 
L 208.471201 253.614545 
L 209.076364 254.420388 
L 211.76999 258.007273 
L 212.683636 259.223907 
L 215.068775 262.4 
L 216.290909 264.027407 
L 218.367579 266.792727 
L 219.898182 268.830905 
L 221.666369 271.185455 
L 223.505455 273.634433 
L 224.965154 275.578182 
L 227.112727 278.437905 
L 228.263959 279.970909 
L 230.72 283.241419 
L 231.56275 284.363636 
L 234.327273 288.044896 
L 234.861561 288.756364 
L 237.934545 292.848411 
L 238.160347 293.149091 
L 241.459128 297.541818 
L 241.541818 297.65193 
L 244.757977 301.934545 
L 245.149091 302.455359 
L 248.05675 306.327273 
L 248.756364 307.258903 
L 251.35553 310.72 
L 252.363636 312.062398 
L 254.654351 315.112727 
L 255.970909 316.865885 
L 257.953121 319.505455 
L 259.578182 321.669409 
L 261.25193 323.898182 
L 263.185455 326.47288 
L 264.550745 328.290909 
L 266.792727 331.276358 
L 267.84953 332.683636 
L 270.4 336.079902 
L 271.148323 337.076364 
L 274.007273 340.883369 
L 274.447131 341.469091 
L 277.614545 345.686866 
L 277.745927 345.861818 
L 281.044691 350.254545 
L 281.221818 350.490413 
L 284.343497 354.647273 
L 284.829091 355.293893 
L 287.64231 359.04 
L 288.436364 360.097375 
L 290.941082 363.432727 
L 292.043636 364.900907 
L 294.239897 367.825455 
L 295.650909 369.704385 
L 297.938634 367.825455 
L 298.326261 363.432727 
L 298.087653 359.04 
L 297.849075 354.647273 
L 297.610465 350.254545 
L 297.371868 345.861818 
L 297.133287 341.469091 
L 296.894691 337.076364 
L 296.656089 332.683636 
L 296.417535 328.290909 
L 296.178896 323.898182 
L 295.940339 319.505455 
L 295.701733 315.112727 
L 295.650909 314.176947 
L 295.463155 310.72 
L 295.224541 306.327273 
L 294.985966 301.934545 
L 294.747378 297.541818 
L 294.508778 293.149091 
L 294.270187 288.756364 
L 294.031582 284.363636 
L 293.793004 279.970909 
L 293.554404 275.578182 
L 293.315805 271.185455 
L 293.07721 266.792727 
L 292.838617 262.4 
L 292.600033 258.007273 
L 292.361438 253.614545 
L 292.122864 249.221818 
L 292.043636 247.763114 
L 291.884278 244.829091 
L 291.645689 240.436364 
L 291.407082 236.043636 
L 291.168483 231.650909 
L 290.92989 227.258182 
L 290.69131 222.865455 
L 290.452673 218.472727 
L 290.214105 214.08 
L 289.975516 209.687273 
L 289.736924 205.294545 
L 289.49834 200.901818 
L 289.259728 196.509091 
L 289.021141 192.116364 
L 288.78254 187.723636 
L 288.646314 183.330909 
L 288.436364 181.349253 
L 288.305413 178.938182 
L 288.066766 174.545455 
L 288.436364 173.362021 
L 288.958515 174.545455 
L 289.778316 178.938182 
L 292.043636 179.432939 
L 294.04175 183.330909 
L 295.650909 186.469953 
L 296.29356 187.723636 
L 298.545283 192.116364 
L 299.258182 193.507068 
L 300.797085 196.509091 
L 302.865455 200.544109 
L 303.048818 200.901818 
L 305.300579 205.294545 
L 306.472727 207.581122 
L 307.552367 209.687273 
L 309.804143 214.08 
L 310.08 214.618138 
L 312.055914 218.472727 
L 313.687273 221.655185 
L 314.307655 222.865455 
L 316.55941 227.258182 
L 317.294545 228.692308 
L 318.811166 231.650909 
L 320.901818 235.729218 
L 321.062994 236.043636 
L 323.314718 240.436364 
L 324.509091 242.766315 
L 325.566477 244.829091 
L 327.818245 249.221818 
L 328.116364 249.80337 
L 330.070034 253.614545 
L 331.723636 256.840363 
L 332.321816 258.007273 
L 334.573565 262.4 
L 335.330909 263.877429 
L 336.825333 266.792727 
L 338.938182 270.914476 
L 339.077088 271.185455 
L 341.328866 275.578182 
L 342.545455 277.951501 
L 343.58063 279.970909 
L 345.8324 284.363636 
L 346.152727 284.988533 
L 348.084149 288.756364 
L 349.76 292.025613 
L 350.335909 293.149091 
L 352.587688 297.541818 
L 353.367273 299.062601 
L 354.839485 301.934545 
L 356.974545 306.099597 
L 357.091256 306.327273 
L 359.342998 310.72 
L 360.581818 313.136621 
L 361.594806 315.112727 
L 363.84656 319.505455 
L 364.189091 320.173661 
L 366.098314 323.898182 
L 367.796364 327.210752 
L 368.350056 328.290909 
L 370.601832 332.683636 
L 371.403636 334.247796 
L 372.853601 337.076364 
L 374.861853 341.469091 
L 375.010909 341.827305 
L 376.678846 345.861818 
L 378.494883 350.254545 
L 378.618182 350.552789 
L 380.310897 354.647273 
L 382.126927 359.04 
L 382.225455 359.278328 
L 383.942933 363.432727 
L 385.758958 367.825455 
L 385.832727 368.003892 
L 387.574978 372.218182 
L 389.39101 376.610909 
L 389.44 376.729413 
L 391.207008 381.003636 
L 393.02305 385.396364 
L 393.047273 385.454955 
L 394.839073 389.789091 
L 396.654545 394.1805 
L 396.65509 394.181818 
L 398.471127 398.574545 
L 400.261818 402.906005 
L 400.287147 402.967273 
L 402.103184 407.36 
L 403.869091 411.631544 
L 403.91919 411.752727 
L 405.735199 416.145455 
L 407.476364 420.357125 
L 407.551216 420.538182 
L 409.367233 424.930909 
L 411.083636 429.08268 
L 411.183251 429.323636 
L 412.999267 433.716364 
L 414.690909 437.808147 
L 414.815326 438.109091 
L 416.631326 442.501818 
L 418.298182 446.53379 
L 418.447322 446.894545 
L 420.263396 451.287273 
L 421.905455 455.259192 
L 422.079421 455.68 
L 423.895442 460.072727 
L 425.512727 463.984813 
L 425.71143 464.465455 
L 427.527462 468.858182 
z
" style="fill:#b2ccfb;"/>
   </g>
   <g id="PathCollection_4">
    <path clip-path="url(#p43f47d92ed)" d="M 223.505455 500.68259 
L 224.426703 504 
L 227.112727 504 
L 230.72 504 
L 234.327273 504 
L 237.934545 504 
L 241.541818 504 
L 245.149091 504 
L 248.756364 504 
L 252.363636 504 
L 255.970909 504 
L 259.578182 504 
L 263.185455 504 
L 266.792727 504 
L 270.4 504 
L 274.007273 504 
L 277.614545 504 
L 281.221818 504 
L 284.829091 504 
L 288.436364 504 
L 292.043636 504 
L 295.650909 504 
L 299.258182 504 
L 302.865455 504 
L 306.472727 504 
L 310.08 504 
L 313.687273 504 
L 317.294545 504 
L 320.901818 504 
L 324.509091 504 
L 328.116364 504 
L 331.723636 504 
L 335.330909 504 
L 338.938182 504 
L 342.545455 504 
L 346.152727 504 
L 349.76 504 
L 350.400577 504 
L 349.76 503.019495 
L 347.530752 499.607273 
L 346.152727 497.497989 
L 343.66714 495.214545 
L 342.545455 493.28342 
L 338.938182 491.348333 
L 337.956682 490.821818 
L 335.330909 489.413269 
L 331.723636 487.478196 
L 329.767911 486.429091 
L 328.116364 485.543147 
L 324.509091 483.608065 
L 321.579197 482.036364 
L 320.901818 481.672992 
L 317.294545 479.737913 
L 313.687273 477.802808 
L 313.390544 477.643636 
L 310.08 475.867777 
L 306.472727 473.932658 
L 305.201828 473.250909 
L 302.865455 471.997607 
L 299.258182 470.062519 
L 297.013105 468.858182 
L 295.650909 468.127452 
L 292.043636 466.192368 
L 288.824376 464.465455 
L 288.436364 464.257312 
L 284.829091 462.322242 
L 281.221818 460.387152 
L 280.635674 460.072727 
L 277.614545 458.452104 
L 274.007273 456.517018 
L 272.582285 455.68 
L 270.4 454.296077 
L 266.792727 451.876056 
L 265.915077 451.287273 
L 263.185455 449.456065 
L 259.578182 447.036033 
L 259.36728 446.894545 
L 255.970909 444.616017 
L 252.819472 442.501818 
L 252.363636 442.196013 
L 248.756364 439.77597 
L 246.271666 438.109091 
L 245.149091 437.356 
L 241.541818 434.93599 
L 239.723871 433.716364 
L 237.934545 432.515953 
L 234.327273 430.095945 
L 233.176064 429.323636 
L 230.72 427.675939 
L 227.112727 425.255925 
L 226.628261 424.930909 
L 223.505455 422.835903 
L 220.080484 420.538182 
L 219.898182 420.415881 
L 216.290909 417.995901 
L 213.532645 416.145455 
L 212.683636 415.575882 
L 209.076364 413.155863 
L 206.984857 411.752727 
L 205.469091 410.735843 
L 201.861818 408.31583 
L 200.437032 407.36 
L 198.254545 405.895851 
L 194.647273 403.475798 
L 193.889262 402.967273 
L 191.04 401.055793 
L 187.432727 398.635817 
L 187.341397 398.574545 
L 183.825455 396.215783 
L 180.793595 394.181818 
L 180.218182 393.795789 
L 176.610909 391.375743 
L 174.245837 389.789091 
L 173.003636 388.955745 
L 169.396364 386.535723 
L 167.468408 385.396364 
L 165.789091 384.399447 
L 162.181818 382.430096 
L 159.569012 381.003636 
L 158.574545 380.460715 
L 154.967273 378.491346 
L 151.522958 376.610909 
L 151.36 376.521942 
L 147.752727 374.552612 
L 144.145455 372.583243 
L 143.476773 372.218182 
L 140.538182 370.613869 
L 136.930909 368.644442 
L 135.430765 367.825455 
L 133.323636 366.675102 
L 129.716364 364.70571 
L 127.384625 363.432727 
L 126.109091 362.736367 
L 122.501818 360.766976 
L 119.338591 359.04 
L 118.894545 358.797573 
L 115.287273 356.828239 
L 111.68 354.858818 
L 111.292525 354.647273 
L 108.072727 352.889457 
L 104.465455 350.920111 
L 103.246358 350.254545 
L 100.858182 348.95071 
L 97.250909 346.981366 
L 95.200237 345.861818 
L 93.643636 345.012003 
L 90.036364 343.042592 
L 87.15418 341.469091 
L 86.429091 341.073243 
L 82.821818 339.103899 
L 79.214545 337.134422 
L 79.108197 337.076364 
L 75.607273 335.165135 
L 72 333.195739 
L 72 337.076364 
L 72 341.469091 
L 72 345.861818 
L 72 350.254545 
L 72 354.647273 
L 72 359.04 
L 72 363.432727 
L 72 367.825455 
L 72 372.218182 
L 72 376.610909 
L 72 381.003636 
L 72 384.222856 
L 74.14958 385.396364 
L 75.607273 386.192156 
L 79.214545 388.161555 
L 82.195707 389.789091 
L 82.821818 390.130907 
L 86.429091 392.10033 
L 90.036364 394.069675 
L 90.241772 394.181818 
L 93.643636 396.039078 
L 97.250909 398.008442 
L 98.287817 398.574545 
L 100.858182 399.977825 
L 104.465455 401.947149 
L 106.333946 402.967273 
L 108.072727 403.916576 
L 111.68 405.885932 
L 114.38009 407.36 
L 115.287273 407.855267 
L 118.894545 409.824695 
L 122.426031 411.752727 
L 122.501818 411.794102 
L 126.109091 413.763432 
L 129.716364 415.732847 
L 130.47215 416.145455 
L 133.323636 417.702157 
L 136.930909 419.671593 
L 138.51824 420.538182 
L 140.538182 421.640923 
L 144.145455 423.610283 
L 146.564424 424.930909 
L 147.752727 425.579664 
L 151.36 427.549039 
L 154.610439 429.323636 
L 154.967273 429.518452 
L 158.574545 431.487791 
L 162.181818 433.457184 
L 162.656551 433.716364 
L 165.789091 435.426556 
L 169.396364 437.395927 
L 170.48465 438.109091 
L 173.003636 439.752335 
L 176.610909 442.172306 
L 177.102067 442.501818 
L 180.218182 444.592353 
L 183.649851 446.894545 
L 183.825455 447.012353 
L 187.432727 449.43236 
L 190.197669 451.287273 
L 191.04 451.852367 
L 194.647273 454.272347 
L 196.745501 455.68 
L 198.254545 456.692395 
L 201.861818 459.112419 
L 203.293275 460.072727 
L 205.469091 461.803817 
L 209.076364 463.952416 
L 209.841106 464.465455 
L 212.683636 467.863943 
L 214.666643 468.858182 
L 215.886566 473.250909 
L 216.290909 474.706679 
L 217.106659 477.643636 
L 218.326611 482.036364 
L 219.546634 486.429091 
L 219.898182 487.694884 
L 220.766627 490.821818 
L 221.986645 495.214545 
L 223.206829 499.607273 
z
" style="fill:#dddcdc;"/>
    <path clip-path="url(#p43f47d92ed)" d="M 429.12 376.471787 
L 429.12 372.218182 
L 429.12 367.825455 
L 429.12 363.432727 
L 429.12 359.04 
L 429.12 354.647273 
L 429.12 350.254545 
L 429.12 345.861818 
L 429.12 341.469091 
L 429.12 337.076364 
L 429.12 332.683636 
L 429.12 328.290909 
L 429.12 323.898182 
L 429.12 319.505455 
L 429.12 315.112727 
L 429.12 310.72 
L 429.12 306.327273 
L 429.12 301.934545 
L 429.12 297.541818 
L 429.12 293.149091 
L 429.12 288.756364 
L 429.12 284.363636 
L 429.12 280.23313 
L 429.011595 279.970909 
L 427.054606 275.578182 
L 425.512727 272.558699 
L 424.808781 271.185455 
L 422.557062 266.792727 
L 421.905455 265.521542 
L 420.305293 262.4 
L 418.298182 258.48464 
L 418.053475 258.007273 
L 415.801683 253.614545 
L 414.690909 251.447605 
L 413.549956 249.221818 
L 411.298193 244.829091 
L 411.083636 244.410542 
L 409.046388 240.436364 
L 407.476364 237.373584 
L 406.794612 236.043636 
L 404.542903 231.650909 
L 403.869091 230.33643 
L 402.29112 227.258182 
L 400.261818 223.299476 
L 400.039327 222.865455 
L 397.787531 218.472727 
L 396.654545 216.262512 
L 395.535769 214.08 
L 393.284031 209.687273 
L 393.047273 209.225413 
L 391.032249 205.294545 
L 389.44 202.188327 
L 388.780528 200.901818 
L 386.528753 196.509091 
L 385.832727 195.151273 
L 384.277006 192.116364 
L 382.225455 188.11413 
L 382.025283 187.723636 
L 379.773441 183.330909 
L 378.618182 181.077262 
L 377.521625 178.938182 
L 375.269866 174.545455 
L 375.010909 174.040278 
L 373.018124 170.152727 
L 371.403636 167.003177 
L 370.766369 165.76 
L 368.514593 161.367273 
L 367.796364 159.966124 
L 366.262827 156.974545 
L 364.189091 152.929068 
L 364.011089 152.581818 
L 361.75933 148.189091 
L 360.581818 145.892017 
L 359.507552 143.796364 
L 357.2557 139.403636 
L 356.974545 138.855151 
L 355.003968 135.010909 
L 353.367273 131.818069 
L 352.752195 130.618182 
L 350.500442 126.225455 
L 349.76 124.781043 
L 348.248648 121.832727 
L 346.152727 117.743928 
L 345.996933 117.44 
L 343.745133 113.047273 
L 342.545455 110.706892 
L 341.493401 108.654545 
L 339.241644 104.261818 
L 338.938182 103.669847 
L 336.989835 99.869091 
L 335.330909 96.632873 
L 334.738061 95.476364 
L 332.4863 91.083636 
L 331.723636 89.595794 
L 330.234579 86.690909 
L 328.116364 82.558894 
L 327.98272 82.298182 
L 325.731018 77.905455 
L 324.509091 75.521638 
L 323.479312 73.512727 
L 321.227479 69.12 
L 320.901818 69.12 
L 317.294545 69.12 
L 313.687273 69.12 
L 310.08 69.12 
L 306.472727 69.12 
L 302.865455 69.12 
L 299.258182 69.12 
L 295.650909 69.12 
L 292.043636 69.12 
L 288.436364 69.12 
L 284.829091 69.12 
L 281.221818 69.12 
L 278.361614 69.12 
L 280.613424 73.512727 
L 281.221818 74.699571 
L 282.865206 77.905455 
L 284.829091 81.736603 
L 285.116956 82.298182 
L 287.368694 86.690909 
L 288.436364 88.773732 
L 289.620444 91.083636 
L 291.872202 95.476364 
L 292.043636 95.810799 
L 294.123962 99.869091 
L 295.650909 102.847763 
L 296.375791 104.261818 
L 298.627533 108.654545 
L 299.258182 109.884816 
L 300.879303 113.047273 
L 302.865455 116.921797 
L 303.131095 117.44 
L 305.382837 121.832727 
L 306.472727 123.958902 
L 307.634588 126.225455 
L 309.886323 130.618182 
L 310.08 130.996007 
L 312.138118 135.010909 
L 313.687273 138.033 
L 314.389873 139.403636 
L 316.641674 143.796364 
L 317.294545 145.070006 
L 318.893432 148.189091 
L 320.901818 152.106964 
L 321.145237 152.581818 
L 323.397018 156.974545 
L 324.509091 159.143998 
L 325.648724 161.367273 
L 327.900495 165.76 
L 328.116364 166.18112 
L 330.152256 170.152727 
L 331.723636 173.218197 
L 332.403998 174.545455 
L 334.655776 178.938182 
L 335.330909 180.255212 
L 336.907557 183.330909 
L 338.938182 187.292175 
L 339.159363 187.723636 
L 341.411097 192.116364 
L 342.545455 194.329248 
L 343.662902 196.509091 
L 345.91465 200.901818 
L 346.152727 201.366253 
L 348.166394 205.294545 
L 349.76 208.403322 
L 350.418192 209.687273 
L 352.669928 214.08 
L 353.367273 215.440389 
L 354.921686 218.472727 
L 356.974545 222.47736 
L 357.173489 222.865455 
L 359.425287 227.258182 
L 360.581818 229.514324 
L 361.67706 231.650909 
L 363.928801 236.043636 
L 364.189091 236.55141 
L 366.180581 240.436364 
L 367.796364 243.588417 
L 368.432337 244.829091 
L 370.684115 249.221818 
L 371.403636 250.625497 
L 372.935851 253.614545 
L 375.010909 257.662633 
L 375.187573 258.007273 
L 377.439419 262.4 
L 378.618182 264.69946 
L 379.691222 266.792727 
L 381.942935 271.185455 
L 382.225455 271.736593 
L 384.194736 275.578182 
L 385.832727 278.773612 
L 386.446457 279.970909 
L 388.698277 284.363636 
L 389.44 285.810616 
L 390.950014 288.756364 
L 393.047273 292.847747 
L 393.201743 293.149091 
L 395.453538 297.541818 
L 396.654545 299.884748 
L 397.705312 301.934545 
L 399.957081 306.327273 
L 400.261818 306.961747 
L 401.937217 310.72 
L 403.753221 315.112727 
L 403.869091 315.393005 
L 405.569211 319.505455 
L 407.385276 323.898182 
L 407.476364 324.118515 
L 409.201273 328.290909 
L 411.017321 332.683636 
L 411.083636 332.844044 
L 412.833354 337.076364 
L 414.649361 341.469091 
L 414.690909 341.569591 
L 416.465361 345.861818 
L 418.281401 350.254545 
L 418.298182 350.295135 
L 420.097435 354.647273 
L 421.905455 359.020606 
L 421.913472 359.04 
L 423.729473 363.432727 
L 425.512727 367.746269 
L 425.545463 367.825455 
L 427.361487 372.218182 
z
" style="fill:#dddcdc;"/>
    <path clip-path="url(#p43f47d92ed)" d="M 252.363636 253.661983 
L 252.472833 253.614545 
L 254.760068 249.221818 
L 254.52148 244.829091 
L 254.282903 240.436364 
L 254.044287 236.043636 
L 253.80572 231.650909 
L 253.567108 227.258182 
L 253.328519 222.865455 
L 253.089905 218.472727 
L 252.851325 214.08 
L 252.612746 209.687273 
L 252.374157 205.294545 
L 252.363636 205.100849 
L 252.135572 200.901818 
L 251.896923 196.509091 
L 251.658378 192.116364 
L 251.419797 187.723636 
L 251.18121 183.330909 
L 250.942603 178.938182 
L 250.704022 174.545455 
L 250.465449 170.152727 
L 250.226821 165.76 
L 249.988265 161.367273 
L 249.749687 156.974545 
L 249.511066 152.581818 
L 249.272501 148.189091 
L 249.033847 143.796364 
L 248.795274 139.403636 
L 248.756364 138.687226 
L 248.556692 135.010909 
L 248.318116 130.618182 
L 248.079475 126.225455 
L 247.84091 121.832727 
L 247.602341 117.44 
L 247.363717 113.047273 
L 247.125099 108.654545 
L 246.886545 104.261818 
L 246.647955 99.869091 
L 246.40933 95.476364 
L 246.170772 91.083636 
L 245.932165 86.690909 
L 245.693559 82.298182 
L 245.454982 77.905455 
L 245.216422 73.512727 
L 245.149091 72.393755 
L 244.951492 69.12 
L 241.541818 69.12 
L 237.934545 69.12 
L 234.327273 69.12 
L 230.72 69.12 
L 227.112727 69.12 
L 223.505455 69.12 
L 219.898182 69.12 
L 216.290909 69.12 
L 212.683636 69.12 
L 209.076364 69.12 
L 207.472973 69.12 
L 207.739362 73.512727 
L 208.005764 77.905455 
L 208.272165 82.298182 
L 208.538511 86.690909 
L 208.804903 91.083636 
L 209.046602 95.476364 
L 209.076364 96.024409 
L 209.285153 99.869091 
L 209.523752 104.261818 
L 209.762333 108.654545 
L 210.000984 113.047273 
L 210.239557 117.44 
L 210.478173 121.832727 
L 210.716736 126.225455 
L 210.955358 130.618182 
L 210.982324 135.010909 
L 209.076364 137.619533 
L 207.117388 135.010909 
L 205.469091 132.816021 
L 203.818601 130.618182 
L 201.861818 128.012473 
L 200.519819 126.225455 
L 198.254545 123.209014 
L 197.221009 121.832727 
L 194.647273 118.40549 
L 193.9222 117.44 
L 191.04 113.602006 
L 190.623426 113.047273 
L 187.432727 108.798488 
L 187.324631 108.654545 
L 184.025888 104.261818 
L 183.825455 103.9924 
L 180.768921 99.869091 
L 180.218182 99.125919 
L 177.513605 95.476364 
L 176.610909 94.258277 
L 174.258296 91.083636 
L 173.003636 89.390619 
L 171.002962 86.690909 
L 169.396364 84.522972 
L 167.747614 82.298182 
L 165.789091 79.65533 
L 164.492305 77.905455 
L 162.181818 74.787696 
L 161.236976 73.512727 
L 158.574545 69.920104 
L 158.013468 69.12 
L 154.967273 69.12 
L 151.36 69.12 
L 147.752727 69.12 
L 144.145455 69.12 
L 140.538182 69.12 
L 136.930909 69.12 
L 133.323636 69.12 
L 129.716364 69.12 
L 126.109091 69.12 
L 122.501818 69.12 
L 118.894545 69.12 
L 118.485995 69.12 
L 118.894545 69.728519 
L 121.4352 73.512727 
L 122.501818 75.101427 
L 124.384383 77.905455 
L 126.109091 80.474327 
L 127.333583 82.298182 
L 129.716364 85.847241 
L 130.282788 86.690909 
L 133.231999 91.083636 
L 133.323636 91.220127 
L 136.181185 95.476364 
L 136.930909 96.593055 
L 139.130397 99.869091 
L 140.538182 101.965916 
L 142.079614 104.261818 
L 144.145455 107.338792 
L 145.028824 108.654545 
L 147.752727 112.71171 
L 147.978019 113.047273 
L 150.927219 117.44 
L 151.36 118.082699 
L 153.893397 121.832727 
L 154.967273 123.411781 
L 156.880788 126.225455 
L 158.574545 128.716024 
L 159.991306 130.618182 
L 162.181818 133.574482 
L 163.260526 135.010909 
L 165.789091 138.377988 
L 166.559316 139.403636 
L 169.396364 143.181431 
L 169.858165 143.796364 
L 173.003636 147.984939 
L 173.156947 148.189091 
L 176.455732 152.581818 
L 176.610909 152.788454 
L 179.754509 156.974545 
L 180.218182 157.591982 
L 183.053315 161.367273 
L 183.825455 162.395453 
L 186.352147 165.76 
L 187.432727 167.198918 
L 189.650938 170.152727 
L 191.04 172.002451 
L 192.949708 174.545455 
L 194.647273 176.805921 
L 196.248524 178.938182 
L 198.254545 181.609465 
L 199.547292 183.330909 
L 201.861818 186.412918 
L 202.846127 187.723636 
L 205.469091 191.216431 
L 206.144908 192.116364 
L 209.076364 196.019888 
L 209.44374 196.509091 
L 212.683636 200.823438 
L 212.742497 200.901818 
L 216.041271 205.294545 
L 216.290909 205.626965 
L 219.340103 209.687273 
L 219.898182 210.430422 
L 222.638896 214.08 
L 223.505455 215.233931 
L 225.937697 218.472727 
L 227.112727 220.037418 
L 229.236452 222.865455 
L 230.72 224.840951 
L 232.535293 227.258182 
L 234.327273 229.64443 
L 235.83407 231.650909 
L 237.934545 234.447938 
L 239.132843 236.043636 
L 241.541818 239.251443 
L 242.431668 240.436364 
L 245.149091 244.054938 
L 245.730445 244.829091 
L 248.756364 248.858453 
L 249.075353 249.221818 
L 252.328012 253.614545 
z
" style="fill:#dddcdc;"/>
   </g>
   <g id="PathCollection_5">
    <path clip-path="url(#p43f47d92ed)" d="M 75.607273 504 
L 79.214545 504 
L 82.821818 504 
L 86.429091 504 
L 90.036364 504 
L 93.643636 504 
L 97.250909 504 
L 100.858182 504 
L 104.465455 504 
L 108.072727 504 
L 111.68 504 
L 115.287273 504 
L 118.894545 504 
L 122.501818 504 
L 126.109091 504 
L 129.716364 504 
L 133.323636 504 
L 136.930909 504 
L 140.538182 504 
L 144.145455 504 
L 147.752727 504 
L 151.36 504 
L 154.967273 504 
L 158.574545 504 
L 162.181818 504 
L 165.789091 504 
L 169.396364 504 
L 173.003636 504 
L 176.610909 504 
L 180.218182 504 
L 183.825455 504 
L 187.432727 504 
L 191.04 504 
L 194.647273 504 
L 198.254545 504 
L 201.861818 504 
L 205.469091 504 
L 209.076364 504 
L 212.683636 504 
L 216.290909 504 
L 219.898182 504 
L 223.505455 504 
L 224.426703 504 
L 223.505455 500.68259 
L 223.206829 499.607273 
L 221.986645 495.214545 
L 220.766627 490.821818 
L 219.898182 487.694884 
L 219.546634 486.429091 
L 218.326611 482.036364 
L 217.106659 477.643636 
L 216.290909 474.706679 
L 215.886566 473.250909 
L 214.666643 468.858182 
L 212.683636 467.863943 
L 209.841106 464.465455 
L 209.076364 463.952416 
L 205.469091 461.803817 
L 203.293275 460.072727 
L 201.861818 459.112419 
L 198.254545 456.692395 
L 196.745501 455.68 
L 194.647273 454.272347 
L 191.04 451.852367 
L 190.197669 451.287273 
L 187.432727 449.43236 
L 183.825455 447.012353 
L 183.649851 446.894545 
L 180.218182 444.592353 
L 177.102067 442.501818 
L 176.610909 442.172306 
L 173.003636 439.752335 
L 170.48465 438.109091 
L 169.396364 437.395927 
L 165.789091 435.426556 
L 162.656551 433.716364 
L 162.181818 433.457184 
L 158.574545 431.487791 
L 154.967273 429.518452 
L 154.610439 429.323636 
L 151.36 427.549039 
L 147.752727 425.579664 
L 146.564424 424.930909 
L 144.145455 423.610283 
L 140.538182 421.640923 
L 138.51824 420.538182 
L 136.930909 419.671593 
L 133.323636 417.702157 
L 130.47215 416.145455 
L 129.716364 415.732847 
L 126.109091 413.763432 
L 122.501818 411.794102 
L 122.426031 411.752727 
L 118.894545 409.824695 
L 115.287273 407.855267 
L 114.38009 407.36 
L 111.68 405.885932 
L 108.072727 403.916576 
L 106.333946 402.967273 
L 104.465455 401.947149 
L 100.858182 399.977825 
L 98.287817 398.574545 
L 97.250909 398.008442 
L 93.643636 396.039078 
L 90.241772 394.181818 
L 90.036364 394.069675 
L 86.429091 392.10033 
L 82.821818 390.130907 
L 82.195707 389.789091 
L 79.214545 388.161555 
L 75.607273 386.192156 
L 74.14958 385.396364 
L 72 384.222856 
L 72 385.396364 
L 72 389.789091 
L 72 394.181818 
L 72 398.574545 
L 72 402.967273 
L 72 407.36 
L 72 411.752727 
L 72 416.145455 
L 72 420.538182 
L 72 424.930909 
L 72 429.323636 
L 72 433.716364 
L 72 438.109091 
L 72 442.501818 
L 72 446.894545 
L 72 451.287273 
L 72 455.68 
L 72 460.072727 
L 72 464.465455 
L 72 468.858182 
L 72 473.250909 
L 72 477.643636 
L 72 482.036364 
L 72 486.429091 
L 72 490.821818 
L 72 495.214545 
L 72 499.607273 
L 72 504 
z
" style="fill:#f6bfa6;"/>
    <path clip-path="url(#p43f47d92ed)" d="M 429.12 280.23313 
L 429.12 279.970909 
L 429.12 275.578182 
L 429.12 271.185455 
L 429.12 266.792727 
L 429.12 262.4 
L 429.12 258.007273 
L 429.12 253.614545 
L 429.12 249.221818 
L 429.12 244.829091 
L 429.12 240.436364 
L 429.12 236.043636 
L 429.12 231.650909 
L 429.12 227.258182 
L 429.12 222.865455 
L 429.12 218.472727 
L 429.12 214.08 
L 429.12 209.687273 
L 429.12 205.294545 
L 429.12 200.901818 
L 429.12 196.509091 
L 429.12 195.973372 
L 427.14277 192.116364 
L 425.512727 188.936388 
L 424.891065 187.723636 
L 422.639283 183.330909 
L 421.905455 181.899337 
L 420.387526 178.938182 
L 418.298182 174.862354 
L 418.135733 174.545455 
L 415.883972 170.152727 
L 414.690909 167.825305 
L 413.632226 165.76 
L 411.380477 161.367273 
L 411.083636 160.788197 
L 409.128663 156.974545 
L 407.476364 153.751245 
L 406.876908 152.581818 
L 404.625188 148.189091 
L 403.869091 146.714076 
L 402.373429 143.796364 
L 400.261818 139.67718 
L 400.121586 139.403636 
L 397.86983 135.010909 
L 396.654545 132.640145 
L 395.618066 130.618182 
L 393.366298 126.225455 
L 393.047273 125.60312 
L 391.114555 121.832727 
L 389.44 118.565994 
L 388.862791 117.44 
L 386.611025 113.047273 
L 385.832727 111.528975 
L 384.359286 108.654545 
L 382.225455 104.49183 
L 382.107544 104.261818 
L 379.855695 99.869091 
L 378.618182 97.454955 
L 377.6039 95.476364 
L 375.352149 91.083636 
L 375.010909 90.41795 
L 373.100413 86.690909 
L 371.403636 83.380873 
L 370.848629 82.298182 
L 368.5969 77.905455 
L 367.796364 76.343745 
L 366.345131 73.512727 
L 364.189091 69.306793 
L 364.09334 69.12 
L 360.581818 69.12 
L 356.974545 69.12 
L 353.367273 69.12 
L 349.76 69.12 
L 346.152727 69.12 
L 342.545455 69.12 
L 338.938182 69.12 
L 335.330909 69.12 
L 331.723636 69.12 
L 328.116364 69.12 
L 324.509091 69.12 
L 321.227479 69.12 
L 323.479312 73.512727 
L 324.509091 75.521638 
L 325.731018 77.905455 
L 327.98272 82.298182 
L 328.116364 82.558894 
L 330.234579 86.690909 
L 331.723636 89.595794 
L 332.4863 91.083636 
L 334.738061 95.476364 
L 335.330909 96.632873 
L 336.989835 99.869091 
L 338.938182 103.669847 
L 339.241644 104.261818 
L 341.493401 108.654545 
L 342.545455 110.706892 
L 343.745133 113.047273 
L 345.996933 117.44 
L 346.152727 117.743928 
L 348.248648 121.832727 
L 349.76 124.781043 
L 350.500442 126.225455 
L 352.752195 130.618182 
L 353.367273 131.818069 
L 355.003968 135.010909 
L 356.974545 138.855151 
L 357.2557 139.403636 
L 359.507552 143.796364 
L 360.581818 145.892017 
L 361.75933 148.189091 
L 364.011089 152.581818 
L 364.189091 152.929068 
L 366.262827 156.974545 
L 367.796364 159.966124 
L 368.514593 161.367273 
L 370.766369 165.76 
L 371.403636 167.003177 
L 373.018124 170.152727 
L 375.010909 174.040278 
L 375.269866 174.545455 
L 377.521625 178.938182 
L 378.618182 181.077262 
L 379.773441 183.330909 
L 382.025283 187.723636 
L 382.225455 188.11413 
L 384.277006 192.116364 
L 385.832727 195.151273 
L 386.528753 196.509091 
L 388.780528 200.901818 
L 389.44 202.188327 
L 391.032249 205.294545 
L 393.047273 209.225413 
L 393.284031 209.687273 
L 395.535769 214.08 
L 396.654545 216.262512 
L 397.787531 218.472727 
L 400.039327 222.865455 
L 400.261818 223.299476 
L 402.29112 227.258182 
L 403.869091 230.33643 
L 404.542903 231.650909 
L 406.794612 236.043636 
L 407.476364 237.373584 
L 409.046388 240.436364 
L 411.083636 244.410542 
L 411.298193 244.829091 
L 413.549956 249.221818 
L 414.690909 251.447605 
L 415.801683 253.614545 
L 418.053475 258.007273 
L 418.298182 258.48464 
L 420.305293 262.4 
L 421.905455 265.521542 
L 422.557062 266.792727 
L 424.808781 271.185455 
L 425.512727 272.558699 
L 427.054606 275.578182 
L 429.011595 279.970909 
z
" style="fill:#f6bfa6;"/>
    <path clip-path="url(#p43f47d92ed)" d="M 209.076364 137.619533 
L 210.982324 135.010909 
L 210.955358 130.618182 
L 210.716736 126.225455 
L 210.478173 121.832727 
L 210.239557 117.44 
L 210.000984 113.047273 
L 209.762333 108.654545 
L 209.523752 104.261818 
L 209.285153 99.869091 
L 209.076364 96.024409 
L 209.046602 95.476364 
L 208.804903 91.083636 
L 208.538511 86.690909 
L 208.272165 82.298182 
L 208.005764 77.905455 
L 207.739362 73.512727 
L 207.472973 69.12 
L 205.469091 69.12 
L 201.861818 69.12 
L 198.254545 69.12 
L 194.647273 69.12 
L 191.04 69.12 
L 187.432727 69.12 
L 183.825455 69.12 
L 180.218182 69.12 
L 176.610909 69.12 
L 173.003636 69.12 
L 169.396364 69.12 
L 165.789091 69.12 
L 162.181818 69.12 
L 158.574545 69.12 
L 158.013468 69.12 
L 158.574545 69.920104 
L 161.236976 73.512727 
L 162.181818 74.787696 
L 164.492305 77.905455 
L 165.789091 79.65533 
L 167.747614 82.298182 
L 169.396364 84.522972 
L 171.002962 86.690909 
L 173.003636 89.390619 
L 174.258296 91.083636 
L 176.610909 94.258277 
L 177.513605 95.476364 
L 180.218182 99.125919 
L 180.768921 99.869091 
L 183.825455 103.9924 
L 184.025888 104.261818 
L 187.324631 108.654545 
L 187.432727 108.798488 
L 190.623426 113.047273 
L 191.04 113.602006 
L 193.9222 117.44 
L 194.647273 118.40549 
L 197.221009 121.832727 
L 198.254545 123.209014 
L 200.519819 126.225455 
L 201.861818 128.012473 
L 203.818601 130.618182 
L 205.469091 132.816021 
L 207.117388 135.010909 
z
" style="fill:#f6bfa6;"/>
   </g>
   <g id="PathCollection_6">
    <path clip-path="url(#p43f47d92ed)" d="M 429.12 195.973372 
L 429.12 192.116364 
L 429.12 187.723636 
L 429.12 183.330909 
L 429.12 178.938182 
L 429.12 174.545455 
L 429.12 170.152727 
L 429.12 165.76 
L 429.12 161.367273 
L 429.12 156.974545 
L 429.12 152.581818 
L 429.12 148.189091 
L 429.12 143.796364 
L 429.12 139.403636 
L 429.12 135.010909 
L 429.12 130.618182 
L 429.12 126.225455 
L 429.12 121.832727 
L 429.12 117.44 
L 429.12 113.047273 
L 429.12 112.351231 
L 427.22506 108.654545 
L 425.512727 105.314095 
L 424.973328 104.261818 
L 422.721561 99.869091 
L 421.905455 98.277026 
L 420.469749 95.476364 
L 418.298182 91.240106 
L 418.217976 91.083636 
L 415.966275 86.690909 
L 414.690909 84.202977 
L 413.714455 82.298182 
L 411.462715 77.905455 
L 411.083636 77.165943 
L 409.210964 73.512727 
L 407.476364 70.129047 
L 406.959106 69.12 
L 403.869091 69.12 
L 400.261818 69.12 
L 396.654545 69.12 
L 393.047273 69.12 
L 389.44 69.12 
L 385.832727 69.12 
L 382.225455 69.12 
L 378.618182 69.12 
L 375.010909 69.12 
L 371.403636 69.12 
L 367.796364 69.12 
L 364.189091 69.12 
L 364.09334 69.12 
L 364.189091 69.306793 
L 366.345131 73.512727 
L 367.796364 76.343745 
L 368.5969 77.905455 
L 370.848629 82.298182 
L 371.403636 83.380873 
L 373.100413 86.690909 
L 375.010909 90.41795 
L 375.352149 91.083636 
L 377.6039 95.476364 
L 378.618182 97.454955 
L 379.855695 99.869091 
L 382.107544 104.261818 
L 382.225455 104.49183 
L 384.359286 108.654545 
L 385.832727 111.528975 
L 386.611025 113.047273 
L 388.862791 117.44 
L 389.44 118.565994 
L 391.114555 121.832727 
L 393.047273 125.60312 
L 393.366298 126.225455 
L 395.618066 130.618182 
L 396.654545 132.640145 
L 397.86983 135.010909 
L 400.121586 139.403636 
L 400.261818 139.67718 
L 402.373429 143.796364 
L 403.869091 146.714076 
L 404.625188 148.189091 
L 406.876908 152.581818 
L 407.476364 153.751245 
L 409.128663 156.974545 
L 411.083636 160.788197 
L 411.380477 161.367273 
L 413.632226 165.76 
L 414.690909 167.825305 
L 415.883972 170.152727 
L 418.135733 174.545455 
L 418.298182 174.862354 
L 420.387526 178.938182 
L 421.905455 181.899337 
L 422.639283 183.330909 
L 424.891065 187.723636 
L 425.512727 188.936388 
L 427.14277 192.116364 
z
" style="fill:#f08a6c;"/>
   </g>
   <g id="PathCollection_7">
    <path clip-path="url(#p43f47d92ed)" d="M 429.12 112.351231 
L 429.12 108.654545 
L 429.12 104.261818 
L 429.12 99.869091 
L 429.12 95.476364 
L 429.12 91.083636 
L 429.12 86.690909 
L 429.12 82.298182 
L 429.12 77.905455 
L 429.12 73.512727 
L 429.12 69.12 
L 425.512727 69.12 
L 421.905455 69.12 
L 418.298182 69.12 
L 414.690909 69.12 
L 411.083636 69.12 
L 407.476364 69.12 
L 406.959106 69.12 
L 407.476364 70.129047 
L 409.210964 73.512727 
L 411.083636 77.165943 
L 411.462715 77.905455 
L 413.714455 82.298182 
L 414.690909 84.202977 
L 415.966275 86.690909 
L 418.217976 91.083636 
L 418.298182 91.240106 
L 420.469749 95.476364 
L 421.905455 98.277026 
L 422.721561 99.869091 
L 424.973328 104.261818 
L 425.512727 105.314095 
L 427.22506 108.654545 
z
" style="fill:#cd423b;"/>
   </g>
   <g id="matplotlib.axis_1">
    <g id="xtick_1">
     <g id="line2d_1">
      <defs>
       <path d="M 0 0 
L 0 3.5 
" id="ma13bc68b23" style="stroke:#000000;stroke-width:0.8;"/>
      </defs>
      <g>
       <use style="stroke:#000000;stroke-width:0.8;" x="72" xlink:href="#ma13bc68b23" y="504"/>
      </g>
     </g>
     <g id="text_1">
      <!-- 0.50 -->
      <defs>
       <path d="M 10.59375 35.5 
L 73.1875 35.5 
L 73.1875 27.203125 
L 10.59375 27.203125 
z
" id="DejaVuSans-2212"/>
       <path d="M 31.78125 66.40625 
Q 24.171875 66.40625 20.328125 58.90625 
Q 16.5 51.421875 16.5 36.375 
Q 16.5 21.390625 20.328125 13.890625 
Q 24.171875 6.390625 31.78125 6.390625 
Q 39.453125 6.390625 43.28125 13.890625 
Q 47.125 21.390625 47.125 36.375 
Q 47.125 51.421875 43.28125 58.90625 
Q 39.453125 66.40625 31.78125 66.40625 
z
M 31.78125 74.21875 
Q 44.046875 74.21875 50.515625 64.515625 
Q 56.984375 54.828125 56.984375 36.375 
Q 56.984375 17.96875 50.515625 8.265625 
Q 44.046875 -1.421875 31.78125 -1.421875 
Q 19.53125 -1.421875 13.0625 8.265625 
Q 6.59375 17.96875 6.59375 36.375 
Q 6.59375 54.828125 13.0625 64.515625 
Q 19.53125 74.21875 31.78125 74.21875 
z
" id="DejaVuSans-30"/>
       <path d="M 10.6875 12.40625 
L 21 12.40625 
L 21 0 
L 10.6875 0 
z
" id="DejaVuSans-2e"/>
       <path d="M 10.796875 72.90625 
L 49.515625 72.90625 
L 49.515625 64.59375 
L 19.828125 64.59375 
L 19.828125 46.734375 
Q 21.96875 47.46875 24.109375 47.828125 
Q 26.265625 48.1875 28.421875 48.1875 
Q 40.625 48.1875 47.75 41.5 
Q 54.890625 34.8125 54.890625 23.390625 
Q 54.890625 11.625 47.5625 5.09375 
Q 40.234375 -1.421875 26.90625 -1.421875 
Q 22.3125 -1.421875 17.546875 -0.640625 
Q 12.796875 0.140625 7.71875 1.703125 
L 7.71875 11.625 
Q 12.109375 9.234375 16.796875 8.0625 
Q 21.484375 6.890625 26.703125 6.890625 
Q 35.15625 6.890625 40.078125 11.328125 
Q 45.015625 15.765625 45.015625 23.390625 
Q 45.015625 31 40.078125 35.4375 
Q 35.15625 39.890625 26.703125 39.890625 
Q 22.75 39.890625 18.8125 39.015625 
Q 14.890625 38.140625 10.796875 36.28125 
z
" id="DejaVuSans-35"/>
      </defs>
      <g transform="translate(56.677344 518.598438)scale(0.1 -0.1)">
       <use xlink:href="#DejaVuSans-2212"/>
       <use x="83.789062" xlink:href="#DejaVuSans-30"/>
       <use x="147.412109" xlink:href="#DejaVuSans-2e"/>
       <use x="179.199219" xlink:href="#DejaVuSans-35"/>
       <use x="242.822266" xlink:href="#DejaVuSans-30"/>
      </g>
     </g>
    </g>
    <g id="xtick_2">
     <g id="line2d_2">
      <g>
       <use style="stroke:#000000;stroke-width:0.8;" x="116.64" xlink:href="#ma13bc68b23" y="504"/>
      </g>
     </g>
     <g id="text_2">
      <!-- 0.25 -->
      <defs>
       <path d="M 19.1875 8.296875 
L 53.609375 8.296875 
L 53.609375 0 
L 7.328125 0 
L 7.328125 8.296875 
Q 12.9375 14.109375 22.625 23.890625 
Q 32.328125 33.6875 34.8125 36.53125 
Q 39.546875 41.84375 41.421875 45.53125 
Q 43.3125 49.21875 43.3125 52.78125 
Q 43.3125 58.59375 39.234375 62.25 
Q 35.15625 65.921875 28.609375 65.921875 
Q 23.96875 65.921875 18.8125 64.3125 
Q 13.671875 62.703125 7.8125 59.421875 
L 7.8125 69.390625 
Q 13.765625 71.78125 18.9375 73 
Q 24.125 74.21875 28.421875 74.21875 
Q 39.75 74.21875 46.484375 68.546875 
Q 53.21875 62.890625 53.21875 53.421875 
Q 53.21875 48.921875 51.53125 44.890625 
Q 49.859375 40.875 45.40625 35.40625 
Q 44.1875 33.984375 37.640625 27.21875 
Q 31.109375 20.453125 19.1875 8.296875 
z
" id="DejaVuSans-32"/>
      </defs>
      <g transform="translate(101.317344 518.598438)scale(0.1 -0.1)">
       <use xlink:href="#DejaVuSans-2212"/>
       <use x="83.789062" xlink:href="#DejaVuSans-30"/>
       <use x="147.412109" xlink:href="#DejaVuSans-2e"/>
       <use x="179.199219" xlink:href="#DejaVuSans-32"/>
       <use x="242.822266" xlink:href="#DejaVuSans-35"/>
      </g>
     </g>
    </g>
    <g id="xtick_3">
     <g id="line2d_3">
      <g>
       <use style="stroke:#000000;stroke-width:0.8;" x="161.28" xlink:href="#ma13bc68b23" y="504"/>
      </g>
     </g>
     <g id="text_3">
      <!-- 0.00 -->
      <g transform="translate(150.147188 518.598438)scale(0.1 -0.1)">
       <use xlink:href="#DejaVuSans-30"/>
       <use x="63.623047" xlink:href="#DejaVuSans-2e"/>
       <use x="95.410156" xlink:href="#DejaVuSans-30"/>
       <use x="159.033203" xlink:href="#DejaVuSans-30"/>
      </g>
     </g>
    </g>
    <g id="xtick_4">
     <g id="line2d_4">
      <g>
       <use style="stroke:#000000;stroke-width:0.8;" x="205.92" xlink:href="#ma13bc68b23" y="504"/>
      </g>
     </g>
     <g id="text_4">
      <!-- 0.25 -->
      <g transform="translate(194.787188 518.598438)scale(0.1 -0.1)">
       <use xlink:href="#DejaVuSans-30"/>
       <use x="63.623047" xlink:href="#DejaVuSans-2e"/>
       <use x="95.410156" xlink:href="#DejaVuSans-32"/>
       <use x="159.033203" xlink:href="#DejaVuSans-35"/>
      </g>
     </g>
    </g>
    <g id="xtick_5">
     <g id="line2d_5">
      <g>
       <use style="stroke:#000000;stroke-width:0.8;" x="250.56" xlink:href="#ma13bc68b23" y="504"/>
      </g>
     </g>
     <g id="text_5">
      <!-- 0.50 -->
      <g transform="translate(239.427188 518.598438)scale(0.1 -0.1)">
       <use xlink:href="#DejaVuSans-30"/>
       <use x="63.623047" xlink:href="#DejaVuSans-2e"/>
       <use x="95.410156" xlink:href="#DejaVuSans-35"/>
       <use x="159.033203" xlink:href="#DejaVuSans-30"/>
      </g>
     </g>
    </g>
    <g id="xtick_6">
     <g id="line2d_6">
      <g>
       <use style="stroke:#000000;stroke-width:0.8;" x="295.2" xlink:href="#ma13bc68b23" y="504"/>
      </g>
     </g>
     <g id="text_6">
      <!-- 0.75 -->
      <defs>
       <path d="M 8.203125 72.90625 
L 55.078125 72.90625 
L 55.078125 68.703125 
L 28.609375 0 
L 18.3125 0 
L 43.21875 64.59375 
L 8.203125 64.59375 
z
" id="DejaVuSans-37"/>
      </defs>
      <g transform="translate(284.067188 518.598438)scale(0.1 -0.1)">
       <use xlink:href="#DejaVuSans-30"/>
       <use x="63.623047" xlink:href="#DejaVuSans-2e"/>
       <use x="95.410156" xlink:href="#DejaVuSans-37"/>
       <use x="159.033203" xlink:href="#DejaVuSans-35"/>
      </g>
     </g>
    </g>
    <g id="xtick_7">
     <g id="line2d_7">
      <g>
       <use style="stroke:#000000;stroke-width:0.8;" x="339.84" xlink:href="#ma13bc68b23" y="504"/>
      </g>
     </g>
     <g id="text_7">
      <!-- 1.00 -->
      <defs>
       <path d="M 12.40625 8.296875 
L 28.515625 8.296875 
L 28.515625 63.921875 
L 10.984375 60.40625 
L 10.984375 69.390625 
L 28.421875 72.90625 
L 38.28125 72.90625 
L 38.28125 8.296875 
L 54.390625 8.296875 
L 54.390625 0 
L 12.40625 0 
z
" id="DejaVuSans-31"/>
      </defs>
      <g transform="translate(328.707188 518.598438)scale(0.1 -0.1)">
       <use xlink:href="#DejaVuSans-31"/>
       <use x="63.623047" xlink:href="#DejaVuSans-2e"/>
       <use x="95.410156" xlink:href="#DejaVuSans-30"/>
       <use x="159.033203" xlink:href="#DejaVuSans-30"/>
      </g>
     </g>
    </g>
    <g id="xtick_8">
     <g id="line2d_8">
      <g>
       <use style="stroke:#000000;stroke-width:0.8;" x="384.48" xlink:href="#ma13bc68b23" y="504"/>
      </g>
     </g>
     <g id="text_8">
      <!-- 1.25 -->
      <g transform="translate(373.347188 518.598438)scale(0.1 -0.1)">
       <use xlink:href="#DejaVuSans-31"/>
       <use x="63.623047" xlink:href="#DejaVuSans-2e"/>
       <use x="95.410156" xlink:href="#DejaVuSans-32"/>
       <use x="159.033203" xlink:href="#DejaVuSans-35"/>
      </g>
     </g>
    </g>
    <g id="xtick_9">
     <g id="line2d_9">
      <g>
       <use style="stroke:#000000;stroke-width:0.8;" x="429.12" xlink:href="#ma13bc68b23" y="504"/>
      </g>
     </g>
     <g id="text_9">
      <!-- 1.50 -->
      <g transform="translate(417.987188 518.598438)scale(0.1 -0.1)">
       <use xlink:href="#DejaVuSans-31"/>
       <use x="63.623047" xlink:href="#DejaVuSans-2e"/>
       <use x="95.410156" xlink:href="#DejaVuSans-35"/>
       <use x="159.033203" xlink:href="#DejaVuSans-30"/>
      </g>
     </g>
    </g>
   </g>
   <g id="matplotlib.axis_2">
    <g id="ytick_1">
     <g id="line2d_10">
      <defs>
       <path d="M 0 0 
L -3.5 0 
" id="mb0072e8f1c" style="stroke:#000000;stroke-width:0.8;"/>
      </defs>
      <g>
       <use style="stroke:#000000;stroke-width:0.8;" x="72" xlink:href="#mb0072e8f1c" y="504"/>
      </g>
     </g>
     <g id="text_10">
      <!-- 0.50 -->
      <g transform="translate(34.354687 507.799219)scale(0.1 -0.1)">
       <use xlink:href="#DejaVuSans-2212"/>
       <use x="83.789062" xlink:href="#DejaVuSans-30"/>
       <use x="147.412109" xlink:href="#DejaVuSans-2e"/>
       <use x="179.199219" xlink:href="#DejaVuSans-35"/>
       <use x="242.822266" xlink:href="#DejaVuSans-30"/>
      </g>
     </g>
    </g>
    <g id="ytick_2">
     <g id="line2d_11">
      <g>
       <use style="stroke:#000000;stroke-width:0.8;" x="72" xlink:href="#mb0072e8f1c" y="449.64"/>
      </g>
     </g>
     <g id="text_11">
      <!-- 0.25 -->
      <g transform="translate(34.354687 453.439219)scale(0.1 -0.1)">
       <use xlink:href="#DejaVuSans-2212"/>
       <use x="83.789062" xlink:href="#DejaVuSans-30"/>
       <use x="147.412109" xlink:href="#DejaVuSans-2e"/>
       <use x="179.199219" xlink:href="#DejaVuSans-32"/>
       <use x="242.822266" xlink:href="#DejaVuSans-35"/>
      </g>
     </g>
    </g>
    <g id="ytick_3">
     <g id="line2d_12">
      <g>
       <use style="stroke:#000000;stroke-width:0.8;" x="72" xlink:href="#mb0072e8f1c" y="395.28"/>
      </g>
     </g>
     <g id="text_12">
      <!-- 0.00 -->
      <g transform="translate(42.734375 399.079219)scale(0.1 -0.1)">
       <use xlink:href="#DejaVuSans-30"/>
       <use x="63.623047" xlink:href="#DejaVuSans-2e"/>
       <use x="95.410156" xlink:href="#DejaVuSans-30"/>
       <use x="159.033203" xlink:href="#DejaVuSans-30"/>
      </g>
     </g>
    </g>
    <g id="ytick_4">
     <g id="line2d_13">
      <g>
       <use style="stroke:#000000;stroke-width:0.8;" x="72" xlink:href="#mb0072e8f1c" y="340.92"/>
      </g>
     </g>
     <g id="text_13">
      <!-- 0.25 -->
      <g transform="translate(42.734375 344.719219)scale(0.1 -0.1)">
       <use xlink:href="#DejaVuSans-30"/>
       <use x="63.623047" xlink:href="#DejaVuSans-2e"/>
       <use x="95.410156" xlink:href="#DejaVuSans-32"/>
       <use x="159.033203" xlink:href="#DejaVuSans-35"/>
      </g>
     </g>
    </g>
    <g id="ytick_5">
     <g id="line2d_14">
      <g>
       <use style="stroke:#000000;stroke-width:0.8;" x="72" xlink:href="#mb0072e8f1c" y="286.56"/>
      </g>
     </g>
     <g id="text_14">
      <!-- 0.50 -->
      <g transform="translate(42.734375 290.359219)scale(0.1 -0.1)">
       <use xlink:href="#DejaVuSans-30"/>
       <use x="63.623047" xlink:href="#DejaVuSans-2e"/>
       <use x="95.410156" xlink:href="#DejaVuSans-35"/>
       <use x="159.033203" xlink:href="#DejaVuSans-30"/>
      </g>
     </g>
    </g>
    <g id="ytick_6">
     <g id="line2d_15">
      <g>
       <use style="stroke:#000000;stroke-width:0.8;" x="72" xlink:href="#mb0072e8f1c" y="232.2"/>
      </g>
     </g>
     <g id="text_15">
      <!-- 0.75 -->
      <g transform="translate(42.734375 235.999219)scale(0.1 -0.1)">
       <use xlink:href="#DejaVuSans-30"/>
       <use x="63.623047" xlink:href="#DejaVuSans-2e"/>
       <use x="95.410156" xlink:href="#DejaVuSans-37"/>
       <use x="159.033203" xlink:href="#DejaVuSans-35"/>
      </g>
     </g>
    </g>
    <g id="ytick_7">
     <g id="line2d_16">
      <g>
       <use style="stroke:#000000;stroke-width:0.8;" x="72" xlink:href="#mb0072e8f1c" y="177.84"/>
      </g>
     </g>
     <g id="text_16">
      <!-- 1.00 -->
      <g transform="translate(42.734375 181.639219)scale(0.1 -0.1)">
       <use xlink:href="#DejaVuSans-31"/>
       <use x="63.623047" xlink:href="#DejaVuSans-2e"/>
       <use x="95.410156" xlink:href="#DejaVuSans-30"/>
       <use x="159.033203" xlink:href="#DejaVuSans-30"/>
      </g>
     </g>
    </g>
    <g id="ytick_8">
     <g id="line2d_17">
      <g>
       <use style="stroke:#000000;stroke-width:0.8;" x="72" xlink:href="#mb0072e8f1c" y="123.48"/>
      </g>
     </g>
     <g id="text_17">
      <!-- 1.25 -->
      <g transform="translate(42.734375 127.279219)scale(0.1 -0.1)">
       <use xlink:href="#DejaVuSans-31"/>
       <use x="63.623047" xlink:href="#DejaVuSans-2e"/>
       <use x="95.410156" xlink:href="#DejaVuSans-32"/>
       <use x="159.033203" xlink:href="#DejaVuSans-35"/>
      </g>
     </g>
    </g>
    <g id="ytick_9">
     <g id="line2d_18">
      <g>
       <use style="stroke:#000000;stroke-width:0.8;" x="72" xlink:href="#mb0072e8f1c" y="69.12"/>
      </g>
     </g>
     <g id="text_18">
      <!-- 1.50 -->
      <g transform="translate(42.734375 72.919219)scale(0.1 -0.1)">
       <use xlink:href="#DejaVuSans-31"/>
       <use x="63.623047" xlink:href="#DejaVuSans-2e"/>
       <use x="95.410156" xlink:href="#DejaVuSans-35"/>
       <use x="159.033203" xlink:href="#DejaVuSans-30"/>
      </g>
     </g>
    </g>
   </g>
   <g id="patch_3">
    <path d="M 72 504 
L 72 69.12 
" style="fill:none;stroke:#000000;stroke-linecap:square;stroke-linejoin:miter;stroke-width:0.8;"/>
   </g>
   <g id="patch_4">
    <path d="M 429.12 504 
L 429.12 69.12 
" style="fill:none;stroke:#000000;stroke-linecap:square;stroke-linejoin:miter;stroke-width:0.8;"/>
   </g>
   <g id="patch_5">
    <path d="M 72 504 
L 429.12 504 
" style="fill:none;stroke:#000000;stroke-linecap:square;stroke-linejoin:miter;stroke-width:0.8;"/>
   </g>
   <g id="patch_6">
    <path d="M 72 69.12 
L 429.12 69.12 
" style="fill:none;stroke:#000000;stroke-linecap:square;stroke-linejoin:miter;stroke-width:0.8;"/>
   </g>
  </g>
  <g id="axes_2">
   <g id="patch_7">
    <path clip-path="url(#pc195b9f400)" d="M 451.44 504 
L 451.44 441.874286 
L 451.44 131.245714 
L 451.44 69.12 
L 473.184 69.12 
L 473.184 131.245714 
L 473.184 441.874286 
L 473.184 504 
z
" style="fill:#ffffff;stroke:#ffffff;stroke-linejoin:miter;stroke-width:0.01;"/>
   </g>
   <g id="QuadMesh_1">
    <path clip-path="url(#pc195b9f400)" d="M 451.44 504 
L 473.184 504 
L 473.184 441.874286 
L 451.44 441.874286 
L 451.44 504 
" style="fill:#506bda;"/>
    <path clip-path="url(#pc195b9f400)" d="M 451.44 441.874286 
L 473.184 441.874286 
L 473.184 379.748571 
L 451.44 379.748571 
L 451.44 441.874286 
" style="fill:#80a3fa;"/>
    <path clip-path="url(#pc195b9f400)" d="M 451.44 379.748571 
L 473.184 379.748571 
L 473.184 317.622857 
L 451.44 317.622857 
L 451.44 379.748571 
" style="fill:#b2ccfb;"/>
    <path clip-path="url(#pc195b9f400)" d="M 451.44 317.622857 
L 473.184 317.622857 
L 473.184 255.497143 
L 451.44 255.497143 
L 451.44 317.622857 
" style="fill:#dddcdc;"/>
    <path clip-path="url(#pc195b9f400)" d="M 451.44 255.497143 
L 473.184 255.497143 
L 473.184 193.371429 
L 451.44 193.371429 
L 451.44 255.497143 
" style="fill:#f6bfa6;"/>
    <path clip-path="url(#pc195b9f400)" d="M 451.44 193.371429 
L 473.184 193.371429 
L 473.184 131.245714 
L 451.44 131.245714 
L 451.44 193.371429 
" style="fill:#f08a6c;"/>
    <path clip-path="url(#pc195b9f400)" d="M 451.44 131.245714 
L 473.184 131.245714 
L 473.184 69.12 
L 451.44 69.12 
L 451.44 131.245714 
" style="fill:#cd423b;"/>
   </g>
   <g id="matplotlib.axis_3"/>
   <g id="matplotlib.axis_4">
    <g id="ytick_10">
     <g id="line2d_19">
      <defs>
       <path d="M 0 0 
L 3.5 0 
" id="md4b927e8da" style="stroke:#000000;stroke-width:0.8;"/>
      </defs>
      <g>
       <use style="stroke:#000000;stroke-width:0.8;" x="473.184" xlink:href="#md4b927e8da" y="504"/>
      </g>
     </g>
     <g id="text_19">
      <!-- 4 -->
      <defs>
       <path d="M 37.796875 64.3125 
L 12.890625 25.390625 
L 37.796875 25.390625 
z
M 35.203125 72.90625 
L 47.609375 72.90625 
L 47.609375 25.390625 
L 58.015625 25.390625 
L 58.015625 17.1875 
L 47.609375 17.1875 
L 47.609375 0 
L 37.796875 0 
L 37.796875 17.1875 
L 4.890625 17.1875 
L 4.890625 26.703125 
z
" id="DejaVuSans-34"/>
      </defs>
      <g transform="translate(480.184 507.799219)scale(0.1 -0.1)">
       <use xlink:href="#DejaVuSans-2212"/>
       <use x="83.789062" xlink:href="#DejaVuSans-34"/>
      </g>
     </g>
    </g>
    <g id="ytick_11">
     <g id="line2d_20">
      <g>
       <use style="stroke:#000000;stroke-width:0.8;" x="473.184" xlink:href="#md4b927e8da" y="441.874286"/>
      </g>
     </g>
     <g id="text_20">
      <!-- 2 -->
      <g transform="translate(480.184 445.673504)scale(0.1 -0.1)">
       <use xlink:href="#DejaVuSans-2212"/>
       <use x="83.789062" xlink:href="#DejaVuSans-32"/>
      </g>
     </g>
    </g>
    <g id="ytick_12">
     <g id="line2d_21">
      <g>
       <use style="stroke:#000000;stroke-width:0.8;" x="473.184" xlink:href="#md4b927e8da" y="379.748571"/>
      </g>
     </g>
     <g id="text_21">
      <!-- 0 -->
      <g transform="translate(480.184 383.54779)scale(0.1 -0.1)">
       <use xlink:href="#DejaVuSans-30"/>
      </g>
     </g>
    </g>
    <g id="ytick_13">
     <g id="line2d_22">
      <g>
       <use style="stroke:#000000;stroke-width:0.8;" x="473.184" xlink:href="#md4b927e8da" y="317.622857"/>
      </g>
     </g>
     <g id="text_22">
      <!-- 2 -->
      <g transform="translate(480.184 321.422076)scale(0.1 -0.1)">
       <use xlink:href="#DejaVuSans-32"/>
      </g>
     </g>
    </g>
    <g id="ytick_14">
     <g id="line2d_23">
      <g>
       <use style="stroke:#000000;stroke-width:0.8;" x="473.184" xlink:href="#md4b927e8da" y="255.497143"/>
      </g>
     </g>
     <g id="text_23">
      <!-- 4 -->
      <g transform="translate(480.184 259.296362)scale(0.1 -0.1)">
       <use xlink:href="#DejaVuSans-34"/>
      </g>
     </g>
    </g>
    <g id="ytick_15">
     <g id="line2d_24">
      <g>
       <use style="stroke:#000000;stroke-width:0.8;" x="473.184" xlink:href="#md4b927e8da" y="193.371429"/>
      </g>
     </g>
     <g id="text_24">
      <!-- 6 -->
      <defs>
       <path d="M 33.015625 40.375 
Q 26.375 40.375 22.484375 35.828125 
Q 18.609375 31.296875 18.609375 23.390625 
Q 18.609375 15.53125 22.484375 10.953125 
Q 26.375 6.390625 33.015625 6.390625 
Q 39.65625 6.390625 43.53125 10.953125 
Q 47.40625 15.53125 47.40625 23.390625 
Q 47.40625 31.296875 43.53125 35.828125 
Q 39.65625 40.375 33.015625 40.375 
z
M 52.59375 71.296875 
L 52.59375 62.3125 
Q 48.875 64.0625 45.09375 64.984375 
Q 41.3125 65.921875 37.59375 65.921875 
Q 27.828125 65.921875 22.671875 59.328125 
Q 17.53125 52.734375 16.796875 39.40625 
Q 19.671875 43.65625 24.015625 45.921875 
Q 28.375 48.1875 33.59375 48.1875 
Q 44.578125 48.1875 50.953125 41.515625 
Q 57.328125 34.859375 57.328125 23.390625 
Q 57.328125 12.15625 50.6875 5.359375 
Q 44.046875 -1.421875 33.015625 -1.421875 
Q 20.359375 -1.421875 13.671875 8.265625 
Q 6.984375 17.96875 6.984375 36.375 
Q 6.984375 53.65625 15.1875 63.9375 
Q 23.390625 74.21875 37.203125 74.21875 
Q 40.921875 74.21875 44.703125 73.484375 
Q 48.484375 72.75 52.59375 71.296875 
z
" id="DejaVuSans-36"/>
      </defs>
      <g transform="translate(480.184 197.170647)scale(0.1 -0.1)">
       <use xlink:href="#DejaVuSans-36"/>
      </g>
     </g>
    </g>
    <g id="ytick_16">
     <g id="line2d_25">
      <g>
       <use style="stroke:#000000;stroke-width:0.8;" x="473.184" xlink:href="#md4b927e8da" y="131.245714"/>
      </g>
     </g>
     <g id="text_25">
      <!-- 8 -->
      <defs>
       <path d="M 31.78125 34.625 
Q 24.75 34.625 20.71875 30.859375 
Q 16.703125 27.09375 16.703125 20.515625 
Q 16.703125 13.921875 20.71875 10.15625 
Q 24.75 6.390625 31.78125 6.390625 
Q 38.8125 6.390625 42.859375 10.171875 
Q 46.921875 13.96875 46.921875 20.515625 
Q 46.921875 27.09375 42.890625 30.859375 
Q 38.875 34.625 31.78125 34.625 
z
M 21.921875 38.8125 
Q 15.578125 40.375 12.03125 44.71875 
Q 8.5 49.078125 8.5 55.328125 
Q 8.5 64.0625 14.71875 69.140625 
Q 20.953125 74.21875 31.78125 74.21875 
Q 42.671875 74.21875 48.875 69.140625 
Q 55.078125 64.0625 55.078125 55.328125 
Q 55.078125 49.078125 51.53125 44.71875 
Q 48 40.375 41.703125 38.8125 
Q 48.828125 37.15625 52.796875 32.3125 
Q 56.78125 27.484375 56.78125 20.515625 
Q 56.78125 9.90625 50.3125 4.234375 
Q 43.84375 -1.421875 31.78125 -1.421875 
Q 19.734375 -1.421875 13.25 4.234375 
Q 6.78125 9.90625 6.78125 20.515625 
Q 6.78125 27.484375 10.78125 32.3125 
Q 14.796875 37.15625 21.921875 38.8125 
z
M 18.3125 54.390625 
Q 18.3125 48.734375 21.84375 45.5625 
Q 25.390625 42.390625 31.78125 42.390625 
Q 38.140625 42.390625 41.71875 45.5625 
Q 45.3125 48.734375 45.3125 54.390625 
Q 45.3125 60.0625 41.71875 63.234375 
Q 38.140625 66.40625 31.78125 66.40625 
Q 25.390625 66.40625 21.84375 63.234375 
Q 18.3125 60.0625 18.3125 54.390625 
z
" id="DejaVuSans-38"/>
      </defs>
      <g transform="translate(480.184 135.044933)scale(0.1 -0.1)">
       <use xlink:href="#DejaVuSans-38"/>
      </g>
     </g>
    </g>
    <g id="ytick_17">
     <g id="line2d_26">
      <g>
       <use style="stroke:#000000;stroke-width:0.8;" x="473.184" xlink:href="#md4b927e8da" y="69.12"/>
      </g>
     </g>
     <g id="text_26">
      <!-- 10 -->
      <g transform="translate(480.184 72.919219)scale(0.1 -0.1)">
       <use xlink:href="#DejaVuSans-31"/>
       <use x="63.623047" xlink:href="#DejaVuSans-30"/>
      </g>
     </g>
    </g>
   </g>
   <g id="patch_8">
    <path d="M 451.44 504 
L 451.44 441.874286 
L 451.44 131.245714 
L 451.44 69.12 
L 473.184 69.12 
L 473.184 131.245714 
L 473.184 441.874286 
L 473.184 504 
z
" style="fill:none;stroke:#000000;stroke-linejoin:miter;stroke-width:0.8;"/>
   </g>
  </g>
 </g>
 <defs>
  <clipPath id="p43f47d92ed">
   <rect height="434.88" width="357.12" x="72" y="69.12"/>
  </clipPath>
  <clipPath id="pc195b9f400">
   <rect height="434.88" width="21.744" x="451.44" y="69.12"/>
  </clipPath>
 </defs>
</svg>
