<?xml version="1.0" encoding="utf-8" standalone="no"?>
<!DOCTYPE svg PUBLIC "-//W3C//DTD SVG 1.1//EN"
  "http://www.w3.org/Graphics/SVG/1.1/DTD/svg11.dtd">
<!-- Created with matplotlib (http://matplotlib.org/) -->
<svg height="576pt" version="1.1" viewBox="0 0 576 576" width="576pt" xmlns="http://www.w3.org/2000/svg" xmlns:xlink="http://www.w3.org/1999/xlink">
 <defs>
  <style type="text/css">
*{stroke-linecap:butt;stroke-linejoin:round;}
  </style>
 </defs>
 <g id="figure_1">
  <g id="patch_1">
   <path d="M 0 576 
L 576 576 
L 576 0 
L 0 0 
z
" style="fill:#ffffff;"/>
  </g>
  <g id="axes_1">
   <g id="patch_2">
    <path d="M 72 504 
L 429.12 504 
L 429.12 69.12 
L 72 69.12 
z
" style="fill:#ffffff;"/>
   </g>
   <g id="PathCollection_1">
    <path clip-path="url(#p9d059afc08)" d="M 375.010909 504 
L 378.618182 504 
L 382.225455 504 
L 385.832727 504 
L 389.44 504 
L 393.047273 504 
L 396.654545 504 
L 400.261818 504 
L 403.869091 504 
L 407.476364 504 
L 411.083636 504 
L 414.690909 504 
L 418.298182 504 
L 421.905455 504 
L 425.512727 504 
L 429.12 504 
L 429.12 499.607273 
L 429.12 495.214545 
L 429.12 490.821818 
L 429.12 486.429091 
L 429.12 482.036364 
L 429.12 477.643636 
L 429.12 473.250909 
L 429.12 472.985938 
L 425.512727 472.937295 
L 421.905455 472.888663 
L 418.298182 472.839945 
L 414.690909 472.791338 
L 411.083636 472.742659 
L 407.476364 472.693962 
L 403.869091 472.645305 
L 400.261818 472.596655 
L 396.654545 472.764984 
L 394.60818 473.250909 
L 393.047273 473.901783 
L 389.44 475.79484 
L 387.769143 477.643636 
L 385.832727 481.336688 
L 385.465854 482.036364 
L 383.162588 486.429091 
L 382.225455 488.2164 
L 380.859344 490.821818 
L 378.618182 495.096022 
L 378.556034 495.214545 
L 376.252829 499.607273 
L 375.010909 501.975836 
L 373.949562 504 
z
" style="fill:#4e68d8;"/>
   </g>
   <g id="PathCollection_2">
    <path clip-path="url(#p9d059afc08)" d="M 299.258182 504 
L 302.865455 504 
L 306.472727 504 
L 310.08 504 
L 313.687273 504 
L 317.294545 504 
L 320.901818 504 
L 324.509091 504 
L 328.116364 504 
L 331.723636 504 
L 335.330909 504 
L 338.938182 504 
L 342.545455 504 
L 346.152727 504 
L 349.76 504 
L 353.367273 504 
L 356.974545 504 
L 360.581818 504 
L 364.189091 504 
L 367.796364 504 
L 371.403636 504 
L 373.949562 504 
L 375.010909 501.975836 
L 376.252829 499.607273 
L 378.556034 495.214545 
L 378.618182 495.096022 
L 380.859344 490.821818 
L 382.225455 488.2164 
L 383.162588 486.429091 
L 385.465854 482.036364 
L 385.832727 481.336688 
L 387.769143 477.643636 
L 389.44 475.79484 
L 393.047273 473.901783 
L 394.60818 473.250909 
L 396.654545 472.764984 
L 400.261818 472.596655 
L 403.869091 472.645305 
L 407.476364 472.693962 
L 411.083636 472.742659 
L 414.690909 472.791338 
L 418.298182 472.839945 
L 421.905455 472.888663 
L 425.512727 472.937295 
L 429.12 472.985938 
L 429.12 468.858182 
L 429.12 464.465455 
L 429.12 460.072727 
L 429.12 455.68 
L 429.12 451.287273 
L 429.12 446.894545 
L 429.12 442.501818 
L 429.12 438.109091 
L 429.12 433.716364 
L 429.12 429.323636 
L 429.12 424.930909 
L 429.12 420.538182 
L 429.12 416.145455 
L 429.12 411.752727 
L 429.12 407.36 
L 429.12 402.967273 
L 429.12 398.574545 
L 429.12 394.181818 
L 429.12 389.789091 
L 429.12 385.396364 
L 429.12 381.003636 
L 429.12 376.610909 
L 429.12 372.218182 
L 429.12 369.062641 
L 427.459239 372.218182 
L 425.512727 375.916646 
L 425.147329 376.610909 
L 422.835455 381.003636 
L 421.905455 382.770654 
L 420.523493 385.396364 
L 418.298182 389.624686 
L 418.21166 389.789091 
L 415.899821 394.181818 
L 414.690909 396.478814 
L 413.587902 398.574545 
L 411.276063 402.967273 
L 411.083636 403.332895 
L 408.964188 407.36 
L 407.476364 410.186917 
L 406.652243 411.752727 
L 404.340339 416.145455 
L 403.869091 417.04088 
L 402.028536 420.538182 
L 400.261818 423.894981 
L 399.716609 424.930909 
L 397.404758 429.323636 
L 396.654545 429.867657 
L 393.047273 430.645453 
L 389.44 430.596796 
L 385.832727 430.548149 
L 382.225455 430.49946 
L 378.618182 430.450836 
L 375.010909 430.402173 
L 371.403636 430.353513 
L 367.796364 430.304838 
L 364.189091 430.256218 
L 360.581818 430.207533 
L 356.974545 430.158872 
L 353.367273 430.110215 
L 349.76 430.061556 
L 346.152727 430.171786 
L 342.545455 431.507464 
L 340.196935 433.716364 
L 338.938182 434.900256 
L 335.52639 438.109091 
L 335.330909 438.292948 
L 331.723636 441.68584 
L 330.856054 442.501818 
L 328.116364 445.078535 
L 326.185538 446.894545 
L 324.509091 448.471294 
L 321.515011 451.287273 
L 320.901818 451.864004 
L 317.294545 455.256794 
L 316.844579 455.68 
L 313.967506 460.072727 
L 313.687273 460.607179 
L 311.664261 464.465455 
L 310.08 467.486983 
L 309.361052 468.858182 
L 307.057762 473.250909 
L 306.472727 474.366681 
L 305.062934 477.643636 
L 304.555733 482.036364 
L 304.699372 486.429091 
L 304.843005 490.821818 
L 304.301265 495.214545 
L 302.865455 497.308374 
L 301.26222 499.607273 
L 299.258182 502.480867 
L 298.198762 504 
z
" style="fill:#779af7;"/>
   </g>
   <g id="PathCollection_3">
    <path clip-path="url(#p9d059afc08)" d="M 227.112727 504 
L 230.72 504 
L 234.327273 504 
L 237.934545 504 
L 241.541818 504 
L 245.149091 504 
L 248.756364 504 
L 252.363636 504 
L 255.970909 504 
L 259.578182 504 
L 263.185455 504 
L 266.792727 504 
L 270.4 504 
L 274.007273 504 
L 277.614545 504 
L 281.221818 504 
L 284.829091 504 
L 288.436364 504 
L 292.043636 504 
L 295.650909 504 
L 298.198762 504 
L 299.258182 502.480867 
L 301.26222 499.607273 
L 302.865455 497.308374 
L 304.301265 495.214545 
L 304.843005 490.821818 
L 304.699372 486.429091 
L 304.555733 482.036364 
L 305.062934 477.643636 
L 306.472727 474.366681 
L 307.057762 473.250909 
L 309.361052 468.858182 
L 310.08 467.486983 
L 311.664261 464.465455 
L 313.687273 460.607179 
L 313.967506 460.072727 
L 316.844579 455.68 
L 317.294545 455.256794 
L 320.901818 451.864004 
L 321.515011 451.287273 
L 324.509091 448.471294 
L 326.185538 446.894545 
L 328.116364 445.078535 
L 330.856054 442.501818 
L 331.723636 441.68584 
L 335.330909 438.292948 
L 335.52639 438.109091 
L 338.938182 434.900256 
L 340.196935 433.716364 
L 342.545455 431.507464 
L 346.152727 430.171786 
L 349.76 430.061556 
L 353.367273 430.110215 
L 356.974545 430.158872 
L 360.581818 430.207533 
L 364.189091 430.256218 
L 367.796364 430.304838 
L 371.403636 430.353513 
L 375.010909 430.402173 
L 378.618182 430.450836 
L 382.225455 430.49946 
L 385.832727 430.548149 
L 389.44 430.596796 
L 393.047273 430.645453 
L 396.654545 429.867657 
L 397.404758 429.323636 
L 399.716609 424.930909 
L 400.261818 423.894981 
L 402.028536 420.538182 
L 403.869091 417.04088 
L 404.340339 416.145455 
L 406.652243 411.752727 
L 407.476364 410.186917 
L 408.964188 407.36 
L 411.083636 403.332895 
L 411.276063 402.967273 
L 413.587902 398.574545 
L 414.690909 396.478814 
L 415.899821 394.181818 
L 418.21166 389.789091 
L 418.298182 389.624686 
L 420.523493 385.396364 
L 421.905455 382.770654 
L 422.835455 381.003636 
L 425.147329 376.610909 
L 425.512727 375.916646 
L 427.459239 372.218182 
L 429.12 369.062641 
L 429.12 367.825455 
L 429.12 363.432727 
L 429.12 359.04 
L 429.12 354.647273 
L 429.12 350.254545 
L 429.12 345.861818 
L 429.12 341.469091 
L 429.12 337.076364 
L 429.12 332.683636 
L 429.12 328.290909 
L 429.12 323.898182 
L 429.12 319.505455 
L 429.12 315.112727 
L 429.12 310.72 
L 429.12 306.327273 
L 429.12 301.934545 
L 429.12 297.541818 
L 429.12 293.149091 
L 429.12 288.756364 
L 429.12 284.363636 
L 429.12 279.970909 
L 429.12 275.578182 
L 429.12 271.185455 
L 429.12 266.792727 
L 429.12 262.4 
L 429.12 258.007273 
L 429.12 253.614545 
L 429.12 249.221818 
L 429.12 244.829091 
L 429.12 240.436364 
L 429.12 236.043636 
L 429.12 231.650909 
L 429.12 229.404121 
L 427.93753 231.650909 
L 425.625643 236.043636 
L 425.512727 236.258185 
L 423.313789 240.436364 
L 421.905455 243.112306 
L 421.001916 244.829091 
L 418.689945 249.221818 
L 418.298182 249.966193 
L 416.378092 253.614545 
L 414.690909 256.82037 
L 414.066242 258.007273 
L 411.754329 262.4 
L 411.083636 263.674378 
L 409.442483 266.792727 
L 407.476364 270.528391 
L 407.130553 271.185455 
L 404.818695 275.578182 
L 403.869091 277.38248 
L 402.506806 279.970909 
L 400.261818 284.236497 
L 400.194904 284.363636 
L 397.883057 288.756364 
L 396.654545 291.090563 
L 395.571124 293.149091 
L 393.259247 297.541818 
L 393.047273 297.944575 
L 390.947385 301.934545 
L 389.44 304.798716 
L 388.635524 306.327273 
L 386.323593 310.72 
L 385.832727 311.652686 
L 384.011751 315.112727 
L 382.225455 318.506752 
L 381.699835 319.505455 
L 379.387976 323.898182 
L 378.618182 325.360837 
L 377.07606 328.290909 
L 375.010909 332.214898 
L 374.764219 332.683636 
L 372.452326 337.076364 
L 371.403636 339.068964 
L 370.140423 341.469091 
L 367.828515 345.861818 
L 367.796364 345.922907 
L 365.516669 350.254545 
L 364.189091 352.777097 
L 363.204827 354.647273 
L 360.892895 359.04 
L 360.581818 359.631052 
L 358.581011 363.432727 
L 356.974545 366.485094 
L 356.269095 367.825455 
L 353.957219 372.218182 
L 353.367273 373.339106 
L 351.645357 376.610909 
L 349.76 380.193176 
L 349.333449 381.003636 
L 347.021559 385.396364 
L 346.152727 386.419153 
L 342.545455 388.044791 
L 338.938182 388.061703 
L 335.330909 388.013061 
L 331.723636 387.96441 
L 328.116364 387.915741 
L 324.509091 387.867069 
L 320.901818 387.81842 
L 317.294545 387.769752 
L 313.687273 387.721071 
L 310.08 387.672424 
L 306.472727 387.623748 
L 302.865455 388.221114 
L 300.36494 389.789091 
L 299.258182 390.830041 
L 295.694436 394.181818 
L 295.650909 394.222756 
L 292.043636 397.615536 
L 291.023986 398.574545 
L 288.436364 401.008312 
L 286.35354 402.967273 
L 284.829091 404.401064 
L 281.683112 407.36 
L 281.221818 407.793864 
L 277.614545 411.186597 
L 277.012623 411.752727 
L 274.007273 414.579384 
L 272.342181 416.145455 
L 270.4 417.972142 
L 267.67173 420.538182 
L 266.792727 421.364907 
L 263.185455 424.757743 
L 263.065173 424.930909 
L 261.465773 429.323636 
L 260.325384 433.716364 
L 259.578182 436.594488 
L 259.184969 438.109091 
L 258.044531 442.501818 
L 256.904133 446.894545 
L 255.970909 450.489296 
L 255.763744 451.287273 
L 255.754331 455.68 
L 255.89766 460.072727 
L 254.529813 464.465455 
L 252.363636 467.571526 
L 251.466325 468.858182 
L 248.756364 472.744054 
L 248.402886 473.250909 
L 245.33943 477.643636 
L 245.149091 477.916568 
L 242.275958 482.036364 
L 241.541818 483.08905 
L 239.212491 486.429091 
L 237.934545 488.261548 
L 236.149043 490.821818 
L 234.327273 493.434095 
L 233.085596 495.214545 
L 230.72 498.60663 
L 230.022161 499.607273 
L 227.112727 503.784264 
L 226.962524 504 
z
" style="fill:#a3c2fe;"/>
    <path clip-path="url(#p9d059afc08)" d="M 104.465455 232.034843 
L 107.1908 231.650909 
L 108.072727 231.318419 
L 110.200444 227.258182 
L 110.491993 222.865455 
L 110.748587 218.472727 
L 111.005205 214.08 
L 111.261821 209.687273 
L 111.518483 205.294545 
L 111.68 202.529259 
L 111.775056 200.901818 
L 112.031686 196.509091 
L 112.081394 192.116364 
L 111.68 190.754171 
L 110.79193 187.723636 
L 109.48478 183.330909 
L 108.163755 178.938182 
L 108.072727 178.685415 
L 106.56971 174.545455 
L 104.913654 170.152727 
L 104.465455 169.121263 
L 103.004895 165.76 
L 101.096136 161.367273 
L 100.858182 160.819656 
L 99.187377 156.974545 
L 97.278596 152.581818 
L 97.250909 152.518101 
L 95.368234 148.189091 
L 93.643636 144.244722 
L 93.447538 143.796364 
L 91.526281 139.403636 
L 90.036364 135.997093 
L 89.605036 135.010909 
L 87.683791 130.618182 
L 86.429091 127.749469 
L 85.762529 126.225455 
L 83.841284 121.832727 
L 82.821818 119.501841 
L 81.920025 117.44 
L 79.998773 113.047273 
L 79.214545 111.254236 
L 78.07751 108.654545 
L 76.156278 104.261818 
L 75.607273 103.006587 
L 74.235015 99.869091 
L 72.313778 95.476364 
L 72 94.75895 
L 72 95.476364 
L 72 99.869091 
L 72 104.261818 
L 72 108.654545 
L 72 113.047273 
L 72 117.44 
L 72 121.832727 
L 72 126.225455 
L 72 130.618182 
L 72 135.010909 
L 72 139.403636 
L 72 143.796364 
L 72 148.189091 
L 72 152.581818 
L 72 156.974545 
L 72 161.367273 
L 72 165.76 
L 72 170.152727 
L 72 174.545455 
L 72 178.938182 
L 72 183.330909 
L 72 187.723636 
L 72 192.116364 
L 72 196.509091 
L 72 200.901818 
L 72 204.730785 
L 72.664049 205.294545 
L 75.607273 207.793271 
L 77.838191 209.687273 
L 79.214545 210.855762 
L 82.821818 213.918264 
L 83.012327 214.08 
L 86.429091 216.980759 
L 88.186443 218.472727 
L 90.036364 220.04327 
L 93.360562 222.865455 
L 93.643636 223.105779 
L 97.250909 226.168257 
L 98.534709 227.258182 
L 100.858182 229.230767 
L 103.999647 231.650909 
z
" style="fill:#a3c2fe;"/>
   </g>
   <g id="PathCollection_4">
    <path clip-path="url(#p9d059afc08)" d="M 205.469091 504 
L 209.076364 504 
L 212.683636 504 
L 216.290909 504 
L 219.898182 504 
L 223.505455 504 
L 226.962524 504 
L 227.112727 503.784264 
L 230.022161 499.607273 
L 230.72 498.60663 
L 233.085596 495.214545 
L 234.327273 493.434095 
L 236.149043 490.821818 
L 237.934545 488.261548 
L 239.212491 486.429091 
L 241.541818 483.08905 
L 242.275958 482.036364 
L 245.149091 477.916568 
L 245.33943 477.643636 
L 248.402886 473.250909 
L 248.756364 472.744054 
L 251.466325 468.858182 
L 252.363636 467.571526 
L 254.529813 464.465455 
L 255.89766 460.072727 
L 255.754331 455.68 
L 255.763744 451.287273 
L 255.970909 450.489296 
L 256.904133 446.894545 
L 258.044531 442.501818 
L 259.184969 438.109091 
L 259.578182 436.594488 
L 260.325384 433.716364 
L 261.465773 429.323636 
L 263.065173 424.930909 
L 263.185455 424.757743 
L 266.792727 421.364907 
L 267.67173 420.538182 
L 270.4 417.972142 
L 272.342181 416.145455 
L 274.007273 414.579384 
L 277.012623 411.752727 
L 277.614545 411.186597 
L 281.221818 407.793864 
L 281.683112 407.36 
L 284.829091 404.401064 
L 286.35354 402.967273 
L 288.436364 401.008312 
L 291.023986 398.574545 
L 292.043636 397.615536 
L 295.650909 394.222756 
L 295.694436 394.181818 
L 299.258182 390.830041 
L 300.36494 389.789091 
L 302.865455 388.221114 
L 306.472727 387.623748 
L 310.08 387.672424 
L 313.687273 387.721071 
L 317.294545 387.769752 
L 320.901818 387.81842 
L 324.509091 387.867069 
L 328.116364 387.915741 
L 331.723636 387.96441 
L 335.330909 388.013061 
L 338.938182 388.061703 
L 342.545455 388.044791 
L 346.152727 386.419153 
L 347.021559 385.396364 
L 349.333449 381.003636 
L 349.76 380.193176 
L 351.645357 376.610909 
L 353.367273 373.339106 
L 353.957219 372.218182 
L 356.269095 367.825455 
L 356.974545 366.485094 
L 358.581011 363.432727 
L 360.581818 359.631052 
L 360.892895 359.04 
L 363.204827 354.647273 
L 364.189091 352.777097 
L 365.516669 350.254545 
L 367.796364 345.922907 
L 367.828515 345.861818 
L 370.140423 341.469091 
L 371.403636 339.068964 
L 372.452326 337.076364 
L 374.764219 332.683636 
L 375.010909 332.214898 
L 377.07606 328.290909 
L 378.618182 325.360837 
L 379.387976 323.898182 
L 381.699835 319.505455 
L 382.225455 318.506752 
L 384.011751 315.112727 
L 385.832727 311.652686 
L 386.323593 310.72 
L 388.635524 306.327273 
L 389.44 304.798716 
L 390.947385 301.934545 
L 393.047273 297.944575 
L 393.259247 297.541818 
L 395.571124 293.149091 
L 396.654545 291.090563 
L 397.883057 288.756364 
L 400.194904 284.363636 
L 400.261818 284.236497 
L 402.506806 279.970909 
L 403.869091 277.38248 
L 404.818695 275.578182 
L 407.130553 271.185455 
L 407.476364 270.528391 
L 409.442483 266.792727 
L 411.083636 263.674378 
L 411.754329 262.4 
L 414.066242 258.007273 
L 414.690909 256.82037 
L 416.378092 253.614545 
L 418.298182 249.966193 
L 418.689945 249.221818 
L 421.001916 244.829091 
L 421.905455 243.112306 
L 423.313789 240.436364 
L 425.512727 236.258185 
L 425.625643 236.043636 
L 427.93753 231.650909 
L 429.12 229.404121 
L 429.12 227.258182 
L 429.12 222.865455 
L 429.12 218.472727 
L 429.12 214.08 
L 429.12 209.687273 
L 429.12 205.294545 
L 429.12 200.901818 
L 429.12 196.509091 
L 429.12 192.116364 
L 429.12 187.723636 
L 429.12 183.330909 
L 429.12 178.938182 
L 429.12 174.545455 
L 429.12 170.152727 
L 429.12 165.76 
L 429.12 161.367273 
L 429.12 156.974545 
L 429.12 154.471282 
L 425.512727 155.627483 
L 421.905455 156.783701 
L 421.310006 156.974545 
L 418.298182 157.939861 
L 414.690909 159.096132 
L 411.083636 160.252305 
L 407.605184 161.367273 
L 407.476364 161.408564 
L 403.869091 162.564691 
L 400.261818 163.720921 
L 396.654545 164.877076 
L 393.900001 165.76 
L 393.047273 166.033326 
L 389.44 167.617444 
L 386.801966 170.152727 
L 385.832727 171.994305 
L 384.490056 174.545455 
L 382.225455 178.848452 
L 382.178229 178.938182 
L 379.86632 183.330909 
L 378.618182 185.702455 
L 377.554437 187.723636 
L 375.242542 192.116364 
L 375.010909 192.556476 
L 372.93066 196.509091 
L 371.403636 199.410506 
L 370.618746 200.901818 
L 368.306817 205.294545 
L 367.796364 206.264461 
L 365.994981 209.687273 
L 364.189091 213.118561 
L 363.68309 214.08 
L 361.371241 218.472727 
L 360.581818 219.972683 
L 359.059332 222.865455 
L 356.974545 226.826655 
L 356.747439 227.258182 
L 354.435516 231.650909 
L 353.367273 233.680656 
L 352.123668 236.043636 
L 349.811766 240.436364 
L 349.76 240.534723 
L 347.499903 244.829091 
L 346.152727 247.388746 
L 345.187988 249.221818 
L 342.876134 253.614545 
L 342.545455 254.242868 
L 340.56424 258.007273 
L 338.938182 261.096882 
L 338.252363 262.4 
L 335.940475 266.792727 
L 335.330909 267.950949 
L 333.628612 271.185455 
L 331.723636 274.805011 
L 331.316713 275.578182 
L 329.004807 279.970909 
L 328.116364 281.658989 
L 326.692929 284.363636 
L 324.509091 288.51302 
L 324.381019 288.756364 
L 322.069199 293.149091 
L 320.901818 295.367191 
L 319.757307 297.541818 
L 317.445371 301.934545 
L 317.294545 302.221123 
L 315.13351 306.327273 
L 313.687273 309.075202 
L 312.821622 310.72 
L 310.509747 315.112727 
L 310.08 315.929286 
L 308.19788 319.505455 
L 306.472727 322.783314 
L 305.885975 323.898182 
L 303.574082 328.290909 
L 302.865455 329.637352 
L 301.262225 332.683636 
L 299.258182 336.491439 
L 298.950333 337.076364 
L 296.638449 341.469091 
L 295.650909 343.345479 
L 292.043636 345.428208 
L 288.436364 345.526599 
L 284.829091 345.477953 
L 281.221818 345.429286 
L 277.614545 345.38064 
L 274.007273 345.331977 
L 270.4 345.283317 
L 266.792727 345.234656 
L 263.185455 345.185998 
L 261.042446 345.861818 
L 259.578182 346.759791 
L 258.632895 345.861818 
L 258.235244 341.469091 
L 257.624194 337.076364 
L 256.76509 332.683636 
L 255.970909 330.861024 
L 252.363636 330.747816 
L 248.756364 331.245119 
L 247.482014 332.683636 
L 247.256026 337.076364 
L 247.030047 341.469091 
L 246.804043 345.861818 
L 246.578056 350.254545 
L 246.352071 354.647273 
L 246.126077 359.04 
L 245.66702 363.432727 
L 245.366486 367.825455 
L 245.149091 368.150005 
L 242.885394 372.218182 
L 241.541818 376.516824 
L 241.499989 376.610909 
L 239.466613 381.003636 
L 237.934545 384.278896 
L 237.309868 385.396364 
L 235.357049 389.789091 
L 234.327273 392.575279 
L 233.801304 394.181818 
L 232.379501 398.574545 
L 230.957691 402.967273 
L 230.72 403.701629 
L 229.535888 407.36 
L 228.114083 411.752727 
L 227.112727 414.846455 
L 226.692277 416.145455 
L 225.270466 420.538182 
L 223.848664 424.930909 
L 223.505455 425.991266 
L 222.426857 429.323636 
L 221.00505 433.716364 
L 219.898182 437.136067 
L 219.578142 438.109091 
L 217.983496 442.501818 
L 216.362159 446.894545 
L 216.290909 447.087583 
L 214.740816 451.287273 
L 213.287858 455.68 
L 212.683636 457.620251 
L 211.911354 460.072727 
L 210.551953 464.465455 
L 209.27832 468.858182 
L 209.076364 469.595225 
L 208.266811 473.250909 
L 207.409574 477.643636 
L 206.593553 482.036364 
L 205.834926 486.429091 
L 205.469091 488.547386 
L 205.0669 490.821818 
L 204.317723 495.214545 
L 203.559964 499.607273 
L 202.802213 504 
z
" style="fill:#ccd9ed;"/>
    <path clip-path="url(#p9d059afc08)" d="M 183.825455 359.502838 
L 186.335641 359.04 
L 187.432727 358.804449 
L 191.04 357.677033 
L 194.647273 356.549563 
L 198.254545 355.42212 
L 200.733703 354.647273 
L 201.861818 354.294685 
L 205.469091 353.167209 
L 209.076364 352.039753 
L 212.683636 350.912294 
L 214.788227 350.254545 
L 216.290909 349.784907 
L 219.898182 348.657412 
L 222.050382 345.861818 
L 223.505455 342.883326 
L 224.004785 341.469091 
L 225.555701 337.076364 
L 227.106675 332.683636 
L 227.112727 332.666495 
L 228.657633 328.290909 
L 230.208574 323.898182 
L 230.72 322.449645 
L 231.759488 319.505455 
L 232.417316 315.112727 
L 231.672547 310.72 
L 230.72 306.636076 
L 230.647974 306.327273 
L 229.623386 301.934545 
L 228.598795 297.541818 
L 227.574222 293.149091 
L 227.112727 291.170522 
L 226.549631 288.756364 
L 225.525045 284.363636 
L 224.500457 279.970909 
L 223.505455 275.705008 
L 223.475873 275.578182 
L 222.451277 271.185455 
L 221.426703 266.792727 
L 220.402108 262.4 
L 219.898182 260.239483 
L 219.377533 258.007273 
L 218.352943 253.614545 
L 217.918931 249.221818 
L 218.057168 244.829091 
L 219.898182 241.279875 
L 220.335721 240.436364 
L 222.614257 236.043636 
L 223.505455 234.325534 
L 224.892814 231.650909 
L 227.112727 227.371185 
L 227.171343 227.258182 
L 229.449873 222.865455 
L 227.112727 221.239288 
L 224.298402 222.865455 
L 223.505455 223.534367 
L 219.898182 225.594088 
L 217.306906 227.258182 
L 216.290909 227.910654 
L 212.683636 230.227181 
L 210.466638 231.650909 
L 209.076364 232.253833 
L 206.761044 231.650909 
L 205.469091 231.374344 
L 201.861818 229.820458 
L 198.254545 228.266541 
L 195.913716 227.258182 
L 194.647273 226.712641 
L 191.04 225.158742 
L 187.432727 223.604853 
L 185.716255 222.865455 
L 183.825455 222.050957 
L 180.218182 221.100163 
L 176.610909 222.076976 
L 173.802352 222.865455 
L 173.003636 223.089689 
L 169.396364 224.102391 
L 165.789091 225.115096 
L 162.181818 225.96775 
L 159.042792 222.865455 
L 158.574545 222.093198 
L 156.99737 218.472727 
L 155.083788 214.08 
L 154.967273 213.812533 
L 153.170407 209.687273 
L 151.36 205.521182 
L 151.261519 205.294545 
L 149.352766 200.901818 
L 147.752727 197.219583 
L 147.443997 196.509091 
L 145.535228 192.116364 
L 144.145455 188.918017 
L 143.626459 187.723636 
L 141.717697 183.330909 
L 140.538182 180.616443 
L 139.808929 178.938182 
L 137.900179 174.545455 
L 136.930909 172.314839 
L 135.99141 170.152727 
L 134.08264 165.76 
L 133.323636 164.013262 
L 132.173879 161.367273 
L 130.265121 156.974545 
L 129.716364 155.711669 
L 128.356346 152.581818 
L 126.447579 148.189091 
L 126.109091 147.410114 
L 124.538808 143.796364 
L 122.630051 139.403636 
L 122.501818 139.108526 
L 120.719227 135.010909 
L 118.894545 130.838945 
L 118.797989 130.618182 
L 116.876744 126.225455 
L 115.287273 122.59129 
L 114.955499 121.832727 
L 112.854434 117.44 
L 111.68 115.050113 
L 110.699458 113.047273 
L 108.486143 108.654545 
L 108.072727 107.871003 
L 106.168439 104.261818 
L 104.465455 101.034175 
L 103.850725 99.869091 
L 101.533015 95.476364 
L 100.858182 94.197368 
L 99.215291 91.083636 
L 97.250909 87.360561 
L 96.897586 86.690909 
L 94.579878 82.298182 
L 93.643636 80.523722 
L 92.262179 77.905455 
L 90.036364 73.686909 
L 89.944461 73.512727 
L 87.626758 69.12 
L 86.429091 69.12 
L 82.821818 69.12 
L 79.214545 69.12 
L 75.607273 69.12 
L 72 69.12 
L 72 73.512727 
L 72 77.905455 
L 72 82.298182 
L 72 86.690909 
L 72 91.083636 
L 72 94.75895 
L 72.313778 95.476364 
L 74.235015 99.869091 
L 75.607273 103.006587 
L 76.156278 104.261818 
L 78.07751 108.654545 
L 79.214545 111.254236 
L 79.998773 113.047273 
L 81.920025 117.44 
L 82.821818 119.501841 
L 83.841284 121.832727 
L 85.762529 126.225455 
L 86.429091 127.749469 
L 87.683791 130.618182 
L 89.605036 135.010909 
L 90.036364 135.997093 
L 91.526281 139.403636 
L 93.447538 143.796364 
L 93.643636 144.244722 
L 95.368234 148.189091 
L 97.250909 152.518101 
L 97.278596 152.581818 
L 99.187377 156.974545 
L 100.858182 160.819656 
L 101.096136 161.367273 
L 103.004895 165.76 
L 104.465455 169.121263 
L 104.913654 170.152727 
L 106.56971 174.545455 
L 108.072727 178.685415 
L 108.163755 178.938182 
L 109.48478 183.330909 
L 110.79193 187.723636 
L 111.68 190.754171 
L 112.081394 192.116364 
L 112.031686 196.509091 
L 111.775056 200.901818 
L 111.68 202.529259 
L 111.518483 205.294545 
L 111.261821 209.687273 
L 111.005205 214.08 
L 110.748587 218.472727 
L 110.491993 222.865455 
L 110.200444 227.258182 
L 108.072727 231.318419 
L 107.1908 231.650909 
L 104.465455 232.034843 
L 103.999647 231.650909 
L 100.858182 229.230767 
L 98.534709 227.258182 
L 97.250909 226.168257 
L 93.643636 223.105779 
L 93.360562 222.865455 
L 90.036364 220.04327 
L 88.186443 218.472727 
L 86.429091 216.980759 
L 83.012327 214.08 
L 82.821818 213.918264 
L 79.214545 210.855762 
L 77.838191 209.687273 
L 75.607273 207.793271 
L 72.664049 205.294545 
L 72 204.730785 
L 72 205.294545 
L 72 209.687273 
L 72 214.08 
L 72 218.472727 
L 72 222.865455 
L 72 227.258182 
L 72 231.650909 
L 72 236.043636 
L 72 240.436364 
L 72 244.829091 
L 72 249.145278 
L 72.090156 249.221818 
L 75.607273 252.208486 
L 77.26167 253.614545 
L 79.214545 255.275568 
L 82.426265 258.007273 
L 82.821818 258.343706 
L 86.429091 261.411863 
L 87.590864 262.4 
L 90.036364 264.480004 
L 92.755463 266.792727 
L 93.643636 267.548164 
L 97.250909 270.61631 
L 97.920056 271.185455 
L 100.858182 273.684467 
L 103.08464 275.578182 
L 104.465455 276.752629 
L 108.072727 279.820761 
L 108.249259 279.970909 
L 111.68 282.88892 
L 113.413846 284.363636 
L 115.287273 285.957075 
L 118.578433 288.756364 
L 118.894545 289.025231 
L 122.501818 292.093378 
L 123.743038 293.149091 
L 126.109091 295.16153 
L 128.907616 297.541818 
L 129.716364 298.568636 
L 131.002368 301.934545 
L 132.57489 306.327273 
L 133.323636 308.421941 
L 134.145904 310.72 
L 136.210937 315.112727 
L 136.930909 315.790745 
L 140.538182 317.674161 
L 144.045639 319.505455 
L 144.145455 319.557569 
L 147.752727 321.440981 
L 151.36 323.324408 
L 152.458944 323.898182 
L 154.967273 325.207808 
L 158.574545 327.091212 
L 160.872293 328.290909 
L 162.181818 328.974634 
L 165.789091 330.858042 
L 166.760674 332.683636 
L 169.217248 337.076364 
L 169.396364 337.384775 
L 171.50585 341.469091 
L 173.003636 344.369053 
L 174.075632 345.861818 
L 176.043394 350.254545 
L 176.610909 351.353352 
L 179.316595 354.647273 
L 180.218182 357.325922 
L 183.16555 359.04 
z
" style="fill:#ccd9ed;"/>
    <path clip-path="url(#p9d059afc08)" d="M 277.614545 263.940871 
L 278.650066 262.4 
L 281.221818 258.573112 
L 281.602075 258.007273 
L 284.554134 253.614545 
L 284.829091 253.205398 
L 287.506165 249.221818 
L 288.436364 247.837654 
L 290.458233 244.829091 
L 292.043636 242.469941 
L 293.410242 240.436364 
L 295.650909 237.102179 
L 296.362274 236.043636 
L 299.258182 231.734471 
L 299.314338 231.650909 
L 302.266365 227.258182 
L 302.865455 226.366699 
L 305.218385 222.865455 
L 306.472727 220.998987 
L 308.170437 218.472727 
L 310.08 215.631243 
L 311.122485 214.08 
L 313.687273 210.263478 
L 314.074493 209.687273 
L 317.026553 205.294545 
L 317.294545 204.895768 
L 319.978602 200.901818 
L 320.901818 199.528035 
L 322.930602 196.509091 
L 324.509091 194.160234 
L 325.882644 192.116364 
L 328.116364 188.792543 
L 328.834696 187.723636 
L 331.723636 183.424794 
L 331.78673 183.330909 
L 334.738793 178.938182 
L 335.330909 178.057098 
L 337.690799 174.545455 
L 338.938182 172.689303 
L 340.642867 170.152727 
L 342.545455 167.321636 
L 343.594916 165.76 
L 342.921785 161.367273 
L 342.545455 161.032804 
L 338.938182 157.826787 
L 337.979275 156.974545 
L 335.330909 154.620835 
L 333.036598 152.581818 
L 331.723636 151.41493 
L 328.116364 148.208877 
L 328.0941 148.189091 
L 324.509091 145.00301 
L 323.151448 143.796364 
L 320.901818 141.796964 
L 318.208904 139.403636 
L 317.294545 138.590992 
L 314.097382 139.403636 
L 313.687273 139.457409 
L 310.08 143.721642 
L 310.016814 143.796364 
L 306.472727 147.987409 
L 306.302179 148.189091 
L 302.865455 152.25318 
L 302.587549 152.581818 
L 299.258182 156.518986 
L 298.872946 156.974545 
L 295.650909 160.784752 
L 295.158317 161.367273 
L 292.043636 165.050585 
L 291.443738 165.76 
L 288.436364 169.316388 
L 287.729129 170.152727 
L 284.829091 173.582158 
L 284.014498 174.545455 
L 281.221818 177.847979 
L 280.299912 178.938182 
L 279.194351 183.330909 
L 279.025081 187.723636 
L 278.855769 192.116364 
L 278.686468 196.509091 
L 278.517175 200.901818 
L 278.347861 205.294545 
L 278.178561 209.687273 
L 278.009248 214.08 
L 277.839945 218.472727 
L 277.670628 222.865455 
L 277.614545 224.320705 
L 277.501341 227.258182 
L 277.332034 231.650909 
L 277.162778 236.043636 
L 276.993472 240.436364 
L 276.824149 244.829091 
L 276.654838 249.221818 
L 276.485543 253.614545 
L 276.316238 258.007273 
L 276.668091 262.4 
z
" style="fill:#ccd9ed;"/>
   </g>
   <g id="PathCollection_5">
    <path clip-path="url(#p9d059afc08)" d="M 194.647273 504 
L 198.254545 504 
L 201.861818 504 
L 202.802213 504 
L 203.559964 499.607273 
L 204.317723 495.214545 
L 205.0669 490.821818 
L 205.469091 488.547386 
L 205.834926 486.429091 
L 206.593553 482.036364 
L 207.409574 477.643636 
L 208.266811 473.250909 
L 209.076364 469.595225 
L 209.27832 468.858182 
L 210.551953 464.465455 
L 211.911354 460.072727 
L 212.683636 457.620251 
L 213.287858 455.68 
L 214.740816 451.287273 
L 216.290909 447.087583 
L 216.362159 446.894545 
L 217.983496 442.501818 
L 219.578142 438.109091 
L 219.898182 437.136067 
L 221.00505 433.716364 
L 222.426857 429.323636 
L 223.505455 425.991266 
L 223.848664 424.930909 
L 225.270466 420.538182 
L 226.692277 416.145455 
L 227.112727 414.846455 
L 228.114083 411.752727 
L 229.535888 407.36 
L 230.72 403.701629 
L 230.957691 402.967273 
L 232.379501 398.574545 
L 233.801304 394.181818 
L 234.327273 392.575279 
L 235.357049 389.789091 
L 237.309868 385.396364 
L 237.934545 384.278896 
L 239.466613 381.003636 
L 241.499989 376.610909 
L 241.541818 376.516824 
L 242.885394 372.218182 
L 245.149091 368.150005 
L 245.366486 367.825455 
L 245.66702 363.432727 
L 246.126077 359.04 
L 246.352071 354.647273 
L 246.578056 350.254545 
L 246.804043 345.861818 
L 247.030047 341.469091 
L 247.256026 337.076364 
L 247.482014 332.683636 
L 248.756364 331.245119 
L 252.363636 330.747816 
L 255.970909 330.861024 
L 256.76509 332.683636 
L 257.624194 337.076364 
L 258.235244 341.469091 
L 258.632895 345.861818 
L 259.578182 346.759791 
L 261.042446 345.861818 
L 263.185455 345.185998 
L 266.792727 345.234656 
L 270.4 345.283317 
L 274.007273 345.331977 
L 277.614545 345.38064 
L 281.221818 345.429286 
L 284.829091 345.477953 
L 288.436364 345.526599 
L 292.043636 345.428208 
L 295.650909 343.345479 
L 296.638449 341.469091 
L 298.950333 337.076364 
L 299.258182 336.491439 
L 301.262225 332.683636 
L 302.865455 329.637352 
L 303.574082 328.290909 
L 305.885975 323.898182 
L 306.472727 322.783314 
L 308.19788 319.505455 
L 310.08 315.929286 
L 310.509747 315.112727 
L 312.821622 310.72 
L 313.687273 309.075202 
L 315.13351 306.327273 
L 317.294545 302.221123 
L 317.445371 301.934545 
L 319.757307 297.541818 
L 320.901818 295.367191 
L 322.069199 293.149091 
L 324.381019 288.756364 
L 324.509091 288.51302 
L 326.692929 284.363636 
L 328.116364 281.658989 
L 329.004807 279.970909 
L 331.316713 275.578182 
L 331.723636 274.805011 
L 333.628612 271.185455 
L 335.330909 267.950949 
L 335.940475 266.792727 
L 338.252363 262.4 
L 338.938182 261.096882 
L 340.56424 258.007273 
L 342.545455 254.242868 
L 342.876134 253.614545 
L 345.187988 249.221818 
L 346.152727 247.388746 
L 347.499903 244.829091 
L 349.76 240.534723 
L 349.811766 240.436364 
L 352.123668 236.043636 
L 353.367273 233.680656 
L 354.435516 231.650909 
L 356.747439 227.258182 
L 356.974545 226.826655 
L 359.059332 222.865455 
L 360.581818 219.972683 
L 361.371241 218.472727 
L 363.68309 214.08 
L 364.189091 213.118561 
L 365.994981 209.687273 
L 367.796364 206.264461 
L 368.306817 205.294545 
L 370.618746 200.901818 
L 371.403636 199.410506 
L 372.93066 196.509091 
L 375.010909 192.556476 
L 375.242542 192.116364 
L 377.554437 187.723636 
L 378.618182 185.702455 
L 379.86632 183.330909 
L 382.178229 178.938182 
L 382.225455 178.848452 
L 384.490056 174.545455 
L 385.832727 171.994305 
L 386.801966 170.152727 
L 389.44 167.617444 
L 393.047273 166.033326 
L 393.900001 165.76 
L 396.654545 164.877076 
L 400.261818 163.720921 
L 403.869091 162.564691 
L 407.476364 161.408564 
L 407.605184 161.367273 
L 411.083636 160.252305 
L 414.690909 159.096132 
L 418.298182 157.939861 
L 421.310006 156.974545 
L 421.905455 156.783701 
L 425.512727 155.627483 
L 429.12 154.471282 
L 429.12 152.581818 
L 429.12 148.189091 
L 429.12 143.796364 
L 429.12 139.403636 
L 429.12 135.010909 
L 429.12 130.618182 
L 429.12 126.225455 
L 429.12 121.832727 
L 429.12 117.44 
L 429.12 113.047273 
L 429.12 108.654545 
L 429.12 104.261818 
L 429.12 99.869091 
L 429.12 95.476364 
L 429.12 91.083636 
L 429.12 88.722419 
L 425.512727 90.841912 
L 425.101347 91.083636 
L 421.905455 92.96147 
L 418.298182 95.080944 
L 417.625214 95.476364 
L 414.690909 97.20047 
L 411.083636 99.320014 
L 410.149143 99.869091 
L 407.476364 101.439511 
L 403.869091 102.81612 
L 400.853279 99.869091 
L 400.261818 99.097273 
L 397.48702 95.476364 
L 396.654545 94.390041 
L 394.120727 91.083636 
L 393.047273 89.682855 
L 390.754477 86.690909 
L 389.44 84.975567 
L 387.388227 82.298182 
L 385.832727 80.268382 
L 384.022094 77.905455 
L 382.225455 75.560917 
L 380.655851 73.512727 
L 378.618182 70.853717 
L 377.289621 69.12 
L 375.010909 69.12 
L 371.403636 69.12 
L 367.796364 69.12 
L 364.189091 69.12 
L 360.581818 69.12 
L 356.974545 69.12 
L 353.367273 69.12 
L 349.76 69.12 
L 346.152727 69.12 
L 342.545455 69.12 
L 338.938182 69.12 
L 335.330909 69.12 
L 331.723636 69.12 
L 330.431819 69.12 
L 328.116364 71.663916 
L 326.433597 73.512727 
L 324.509091 75.627128 
L 322.435394 77.905455 
L 320.901818 79.590354 
L 318.437182 82.298182 
L 317.294545 83.617306 
L 314.687099 86.690909 
L 313.687273 87.873254 
L 310.972495 91.083636 
L 310.08 92.139065 
L 307.257855 95.476364 
L 306.472727 96.404808 
L 303.543262 99.869091 
L 302.865455 100.670637 
L 299.828661 104.261818 
L 299.258182 104.93645 
L 296.114066 108.654545 
L 295.650909 109.202251 
L 292.399449 113.047273 
L 292.043636 113.46804 
L 288.684788 117.44 
L 288.436364 117.733774 
L 284.970198 121.832727 
L 284.829091 121.999595 
L 281.255597 126.225455 
L 281.221818 126.265399 
L 277.614545 128.944254 
L 275.0079 130.618182 
L 274.007273 131.260749 
L 270.4 133.5773 
L 268.167653 135.010909 
L 266.792727 135.893875 
L 263.185455 138.210399 
L 261.327332 139.403636 
L 259.578182 140.526911 
L 255.970909 142.843454 
L 254.487058 143.796364 
L 252.363636 145.160007 
L 248.756364 147.476529 
L 247.646797 148.189091 
L 245.149091 149.793106 
L 241.541818 152.109642 
L 240.806555 152.581818 
L 237.934545 154.426147 
L 234.327273 156.742709 
L 233.966251 156.974545 
L 230.72 159.059202 
L 227.125919 161.367273 
L 227.112727 161.375744 
L 223.505455 163.692316 
L 220.285687 165.76 
L 219.898182 166.008851 
L 216.290909 168.3254 
L 213.445407 170.152727 
L 212.683636 170.641926 
L 209.076364 172.958487 
L 206.605115 174.545455 
L 205.469091 175.274989 
L 201.861818 177.591546 
L 199.764846 178.938182 
L 198.254545 179.908078 
L 194.647273 182.224613 
L 192.924578 183.330909 
L 191.04 184.541177 
L 187.432727 186.857715 
L 186.084321 187.723636 
L 183.825455 188.61946 
L 181.208289 187.723636 
L 180.218182 187.418986 
L 176.610909 185.726536 
L 174.602915 183.330909 
L 173.003636 180.863244 
L 171.75812 178.938182 
L 169.396364 175.282826 
L 168.920392 174.545455 
L 166.084889 170.152727 
L 165.789091 169.69448 
L 163.249395 165.76 
L 162.181818 164.106118 
L 160.578092 161.367273 
L 158.574545 157.989177 
L 158.038023 156.974545 
L 155.715199 152.581818 
L 154.967273 151.1674 
L 153.392382 148.189091 
L 151.36 144.345599 
L 151.069572 143.796364 
L 148.746767 139.403636 
L 147.752727 137.523793 
L 146.423937 135.010909 
L 144.145455 130.702008 
L 144.101129 130.618182 
L 141.778327 126.225455 
L 140.538182 123.876398 
L 139.45976 121.832727 
L 137.155847 117.44 
L 136.930909 117.02648 
L 134.856101 113.047273 
L 133.323636 110.203007 
L 132.506632 108.654545 
L 130.447892 104.261818 
L 129.716364 102.513142 
L 128.675665 99.869091 
L 126.841138 95.476364 
L 126.109091 93.53329 
L 125.186184 91.083636 
L 123.531259 86.690909 
L 122.501818 83.958445 
L 121.876324 82.298182 
L 120.221381 77.905455 
L 118.894545 74.383606 
L 118.566446 73.512727 
L 116.911506 69.12 
L 115.287273 69.12 
L 111.68 69.12 
L 108.072727 69.12 
L 104.465455 69.12 
L 100.858182 69.12 
L 97.250909 69.12 
L 93.643636 69.12 
L 90.036364 69.12 
L 87.626758 69.12 
L 89.944461 73.512727 
L 90.036364 73.686909 
L 92.262179 77.905455 
L 93.643636 80.523722 
L 94.579878 82.298182 
L 96.897586 86.690909 
L 97.250909 87.360561 
L 99.215291 91.083636 
L 100.858182 94.197368 
L 101.533015 95.476364 
L 103.850725 99.869091 
L 104.465455 101.034175 
L 106.168439 104.261818 
L 108.072727 107.871003 
L 108.486143 108.654545 
L 110.699458 113.047273 
L 111.68 115.050113 
L 112.854434 117.44 
L 114.955499 121.832727 
L 115.287273 122.59129 
L 116.876744 126.225455 
L 118.797989 130.618182 
L 118.894545 130.838945 
L 120.719227 135.010909 
L 122.501818 139.108526 
L 122.630051 139.403636 
L 124.538808 143.796364 
L 126.109091 147.410114 
L 126.447579 148.189091 
L 128.356346 152.581818 
L 129.716364 155.711669 
L 130.265121 156.974545 
L 132.173879 161.367273 
L 133.323636 164.013262 
L 134.08264 165.76 
L 135.99141 170.152727 
L 136.930909 172.314839 
L 137.900179 174.545455 
L 139.808929 178.938182 
L 140.538182 180.616443 
L 141.717697 183.330909 
L 143.626459 187.723636 
L 144.145455 188.918017 
L 145.535228 192.116364 
L 147.443997 196.509091 
L 147.752727 197.219583 
L 149.352766 200.901818 
L 151.261519 205.294545 
L 151.36 205.521182 
L 153.170407 209.687273 
L 154.967273 213.812533 
L 155.083788 214.08 
L 156.99737 218.472727 
L 158.574545 222.093198 
L 159.042792 222.865455 
L 162.181818 225.96775 
L 165.789091 225.115096 
L 169.396364 224.102391 
L 173.003636 223.089689 
L 173.802352 222.865455 
L 176.610909 222.076976 
L 180.218182 221.100163 
L 183.825455 222.050957 
L 185.716255 222.865455 
L 187.432727 223.604853 
L 191.04 225.158742 
L 194.647273 226.712641 
L 195.913716 227.258182 
L 198.254545 228.266541 
L 201.861818 229.820458 
L 205.469091 231.374344 
L 206.761044 231.650909 
L 209.076364 232.253833 
L 210.466638 231.650909 
L 212.683636 230.227181 
L 216.290909 227.910654 
L 217.306906 227.258182 
L 219.898182 225.594088 
L 223.505455 223.534367 
L 224.298402 222.865455 
L 227.112727 221.239288 
L 229.449873 222.865455 
L 227.171343 227.258182 
L 227.112727 227.371185 
L 224.892814 231.650909 
L 223.505455 234.325534 
L 222.614257 236.043636 
L 220.335721 240.436364 
L 219.898182 241.279875 
L 218.057168 244.829091 
L 217.918931 249.221818 
L 218.352943 253.614545 
L 219.377533 258.007273 
L 219.898182 260.239483 
L 220.402108 262.4 
L 221.426703 266.792727 
L 222.451277 271.185455 
L 223.475873 275.578182 
L 223.505455 275.705008 
L 224.500457 279.970909 
L 225.525045 284.363636 
L 226.549631 288.756364 
L 227.112727 291.170522 
L 227.574222 293.149091 
L 228.598795 297.541818 
L 229.623386 301.934545 
L 230.647974 306.327273 
L 230.72 306.636076 
L 231.672547 310.72 
L 232.417316 315.112727 
L 231.759488 319.505455 
L 230.72 322.449645 
L 230.208574 323.898182 
L 228.657633 328.290909 
L 227.112727 332.666495 
L 227.106675 332.683636 
L 225.555701 337.076364 
L 224.004785 341.469091 
L 223.505455 342.883326 
L 222.050382 345.861818 
L 219.898182 348.657412 
L 216.290909 349.784907 
L 214.788227 350.254545 
L 212.683636 350.912294 
L 209.076364 352.039753 
L 205.469091 353.167209 
L 201.861818 354.294685 
L 200.733703 354.647273 
L 198.254545 355.42212 
L 194.647273 356.549563 
L 191.04 357.677033 
L 187.432727 358.804449 
L 186.335641 359.04 
L 183.825455 359.502838 
L 183.16555 359.04 
L 180.218182 357.325922 
L 179.316595 354.647273 
L 176.610909 351.353352 
L 176.043394 350.254545 
L 174.075632 345.861818 
L 173.003636 344.369053 
L 171.50585 341.469091 
L 169.396364 337.384775 
L 169.217248 337.076364 
L 166.760674 332.683636 
L 165.789091 330.858042 
L 162.181818 328.974634 
L 160.872293 328.290909 
L 158.574545 327.091212 
L 154.967273 325.207808 
L 152.458944 323.898182 
L 151.36 323.324408 
L 147.752727 321.440981 
L 144.145455 319.557569 
L 144.045639 319.505455 
L 140.538182 317.674161 
L 136.930909 315.790745 
L 136.210937 315.112727 
L 134.145904 310.72 
L 133.323636 308.421941 
L 132.57489 306.327273 
L 131.002368 301.934545 
L 129.716364 298.568636 
L 128.907616 297.541818 
L 126.109091 295.16153 
L 123.743038 293.149091 
L 122.501818 292.093378 
L 118.894545 289.025231 
L 118.578433 288.756364 
L 115.287273 285.957075 
L 113.413846 284.363636 
L 111.68 282.88892 
L 108.249259 279.970909 
L 108.072727 279.820761 
L 104.465455 276.752629 
L 103.08464 275.578182 
L 100.858182 273.684467 
L 97.920056 271.185455 
L 97.250909 270.61631 
L 93.643636 267.548164 
L 92.755463 266.792727 
L 90.036364 264.480004 
L 87.590864 262.4 
L 86.429091 261.411863 
L 82.821818 258.343706 
L 82.426265 258.007273 
L 79.214545 255.275568 
L 77.26167 253.614545 
L 75.607273 252.208486 
L 72.090156 249.221818 
L 72 249.145278 
L 72 249.221818 
L 72 253.614545 
L 72 258.007273 
L 72 262.4 
L 72 266.792727 
L 72 271.185455 
L 72 275.578182 
L 72 279.970909 
L 72 284.363636 
L 72 288.756364 
L 72 293.149091 
L 72 293.438663 
L 75.607273 296.503218 
L 76.829798 297.541818 
L 79.214545 299.567785 
L 82.000427 301.934545 
L 82.821818 302.63236 
L 86.429091 305.696914 
L 87.171076 306.327273 
L 90.036364 308.761496 
L 92.341738 310.72 
L 93.643636 311.826017 
L 97.250909 314.890588 
L 97.51239 315.112727 
L 100.858182 317.955144 
L 102.683035 319.505455 
L 104.465455 321.019721 
L 107.853671 323.898182 
L 108.072727 324.08428 
L 111.68 327.14884 
L 113.02432 328.290909 
L 115.287273 330.213402 
L 116.745207 332.683636 
L 118.894545 335.050971 
L 122.501818 336.954506 
L 122.732745 337.076364 
L 126.109091 338.858016 
L 129.716364 340.761547 
L 131.057188 341.469091 
L 133.323636 342.665075 
L 136.930909 344.568605 
L 139.382093 345.861818 
L 140.538182 346.471807 
L 144.145455 348.35616 
L 147.752727 350.239564 
L 147.781422 350.254545 
L 151.36 352.122988 
L 154.967273 354.006401 
L 156.194731 354.647273 
L 158.574545 355.889802 
L 162.181818 357.773213 
L 164.608077 359.04 
L 165.789091 359.656626 
L 168.442088 363.432727 
L 169.396364 364.722056 
L 170.999223 367.825455 
L 173.003636 371.706341 
L 173.267994 372.218182 
L 175.53676 376.610909 
L 176.610909 378.69064 
L 177.805539 381.003636 
L 180.074306 385.396364 
L 180.218182 385.67493 
L 182.34308 389.789091 
L 183.825455 392.659226 
L 184.611848 394.181818 
L 186.880627 398.574545 
L 187.432727 399.643509 
L 189.149393 402.967273 
L 191.04 406.627804 
L 191.430579 407.36 
L 193.691179 411.752727 
L 194.647273 413.605636 
L 196.097193 416.145455 
L 198.254545 420.104851 
L 198.498375 420.538182 
L 200.954704 424.930909 
L 201.861818 427.485714 
L 202.72891 429.323636 
L 203.564939 433.716364 
L 203.481356 438.109091 
L 203.01351 442.501818 
L 202.070836 446.894545 
L 201.861818 447.963746 
L 201.224106 451.287273 
L 200.489625 455.68 
L 199.755143 460.072727 
L 199.020662 464.465455 
L 198.286179 468.858182 
L 198.254545 469.047376 
L 197.551699 473.250909 
L 196.817214 477.643636 
L 196.082733 482.036364 
L 195.348254 486.429091 
L 194.647273 490.62378 
L 194.614183 490.821818 
L 193.880677 495.214545 
L 193.147165 499.607273 
L 192.413656 504 
z
M 276.668091 262.4 
L 276.316238 258.007273 
L 276.485543 253.614545 
L 276.654838 249.221818 
L 276.824149 244.829091 
L 276.993472 240.436364 
L 277.162778 236.043636 
L 277.332034 231.650909 
L 277.501341 227.258182 
L 277.614545 224.320705 
L 277.670628 222.865455 
L 277.839945 218.472727 
L 278.009248 214.08 
L 278.178561 209.687273 
L 278.347861 205.294545 
L 278.517175 200.901818 
L 278.686468 196.509091 
L 278.855769 192.116364 
L 279.025081 187.723636 
L 279.194351 183.330909 
L 280.299912 178.938182 
L 281.221818 177.847979 
L 284.014498 174.545455 
L 284.829091 173.582158 
L 287.729129 170.152727 
L 288.436364 169.316388 
L 291.443738 165.76 
L 292.043636 165.050585 
L 295.158317 161.367273 
L 295.650909 160.784752 
L 298.872946 156.974545 
L 299.258182 156.518986 
L 302.587549 152.581818 
L 302.865455 152.25318 
L 306.302179 148.189091 
L 306.472727 147.987409 
L 310.016814 143.796364 
L 310.08 143.721642 
L 313.687273 139.457409 
L 314.097382 139.403636 
L 317.294545 138.590992 
L 318.208904 139.403636 
L 320.901818 141.796964 
L 323.151448 143.796364 
L 324.509091 145.00301 
L 328.0941 148.189091 
L 328.116364 148.208877 
L 331.723636 151.41493 
L 333.036598 152.581818 
L 335.330909 154.620835 
L 337.979275 156.974545 
L 338.938182 157.826787 
L 342.545455 161.032804 
L 342.921785 161.367273 
L 343.594916 165.76 
L 342.545455 167.321636 
L 340.642867 170.152727 
L 338.938182 172.689303 
L 337.690799 174.545455 
L 335.330909 178.057098 
L 334.738793 178.938182 
L 331.78673 183.330909 
L 331.723636 183.424794 
L 328.834696 187.723636 
L 328.116364 188.792543 
L 325.882644 192.116364 
L 324.509091 194.160234 
L 322.930602 196.509091 
L 320.901818 199.528035 
L 319.978602 200.901818 
L 317.294545 204.895768 
L 317.026553 205.294545 
L 314.074493 209.687273 
L 313.687273 210.263478 
L 311.122485 214.08 
L 310.08 215.631243 
L 308.170437 218.472727 
L 306.472727 220.998987 
L 305.218385 222.865455 
L 302.865455 226.366699 
L 302.266365 227.258182 
L 299.314338 231.650909 
L 299.258182 231.734471 
L 296.362274 236.043636 
L 295.650909 237.102179 
L 293.410242 240.436364 
L 292.043636 242.469941 
L 290.458233 244.829091 
L 288.436364 247.837654 
L 287.506165 249.221818 
L 284.829091 253.205398 
L 284.554134 253.614545 
L 281.602075 258.007273 
L 281.221818 258.573112 
L 278.650066 262.4 
L 277.614545 263.940871 
z
" style="fill:#ecd3c5;"/>
   </g>
   <g id="PathCollection_6">
    <path clip-path="url(#p9d059afc08)" d="M 183.825455 504 
L 187.432727 504 
L 191.04 504 
L 192.413656 504 
L 193.147165 499.607273 
L 193.880677 495.214545 
L 194.614183 490.821818 
L 194.647273 490.62378 
L 195.348254 486.429091 
L 196.082733 482.036364 
L 196.817214 477.643636 
L 197.551699 473.250909 
L 198.254545 469.047376 
L 198.286179 468.858182 
L 199.020662 464.465455 
L 199.755143 460.072727 
L 200.489625 455.68 
L 201.224106 451.287273 
L 201.861818 447.963746 
L 202.070836 446.894545 
L 203.01351 442.501818 
L 203.481356 438.109091 
L 203.564939 433.716364 
L 202.72891 429.323636 
L 201.861818 427.485714 
L 200.954704 424.930909 
L 198.498375 420.538182 
L 198.254545 420.104851 
L 196.097193 416.145455 
L 194.647273 413.605636 
L 193.691179 411.752727 
L 191.430579 407.36 
L 191.04 406.627804 
L 189.149393 402.967273 
L 187.432727 399.643509 
L 186.880627 398.574545 
L 184.611848 394.181818 
L 183.825455 392.659226 
L 182.34308 389.789091 
L 180.218182 385.67493 
L 180.074306 385.396364 
L 177.805539 381.003636 
L 176.610909 378.69064 
L 175.53676 376.610909 
L 173.267994 372.218182 
L 173.003636 371.706341 
L 170.999223 367.825455 
L 169.396364 364.722056 
L 168.442088 363.432727 
L 165.789091 359.656626 
L 164.608077 359.04 
L 162.181818 357.773213 
L 158.574545 355.889802 
L 156.194731 354.647273 
L 154.967273 354.006401 
L 151.36 352.122988 
L 147.781422 350.254545 
L 147.752727 350.239564 
L 144.145455 348.35616 
L 140.538182 346.471807 
L 139.382093 345.861818 
L 136.930909 344.568605 
L 133.323636 342.665075 
L 131.057188 341.469091 
L 129.716364 340.761547 
L 126.109091 338.858016 
L 122.732745 337.076364 
L 122.501818 336.954506 
L 118.894545 335.050971 
L 116.745207 332.683636 
L 115.287273 330.213402 
L 113.02432 328.290909 
L 111.68 327.14884 
L 108.072727 324.08428 
L 107.853671 323.898182 
L 104.465455 321.019721 
L 102.683035 319.505455 
L 100.858182 317.955144 
L 97.51239 315.112727 
L 97.250909 314.890588 
L 93.643636 311.826017 
L 92.341738 310.72 
L 90.036364 308.761496 
L 87.171076 306.327273 
L 86.429091 305.696914 
L 82.821818 302.63236 
L 82.000427 301.934545 
L 79.214545 299.567785 
L 76.829798 297.541818 
L 75.607273 296.503218 
L 72 293.438663 
L 72 297.541818 
L 72 301.934545 
L 72 306.327273 
L 72 310.72 
L 72 315.112727 
L 72 319.505455 
L 72 323.898182 
L 72 328.290909 
L 72 332.683636 
L 72 337.076364 
L 72 337.680501 
L 75.607273 340.736495 
L 76.470485 341.469091 
L 79.214545 343.795957 
L 81.646237 345.861818 
L 82.821818 347.030048 
L 86.429091 349.925123 
L 86.816854 350.254545 
L 90.036364 352.533062 
L 93.643636 353.758976 
L 97.120878 354.647273 
L 97.250909 354.679957 
L 100.858182 355.577346 
L 104.465455 356.475053 
L 108.072727 358.091466 
L 109.870228 359.04 
L 111.68 359.99501 
L 115.287273 361.898526 
L 118.194634 363.432727 
L 118.894545 363.802066 
L 122.501818 365.705588 
L 126.109091 367.609116 
L 126.519063 367.825455 
L 129.716364 369.512635 
L 133.323636 371.416167 
L 134.843489 372.218182 
L 136.930909 373.31969 
L 140.538182 375.223209 
L 143.16792 376.610909 
L 144.145455 377.126749 
L 147.752727 379.030273 
L 151.36 380.921582 
L 151.517159 381.003636 
L 154.967273 382.804987 
L 158.574545 384.688413 
L 159.930478 385.396364 
L 162.181818 386.571823 
L 165.789091 388.455238 
L 167.080626 389.789091 
L 169.396364 392.059344 
L 170.492586 394.181818 
L 172.761362 398.574545 
L 173.003636 399.043629 
L 175.030137 402.967273 
L 176.610909 406.027914 
L 177.298909 407.36 
L 179.481404 411.752727 
L 180.218182 414.507805 
L 180.73939 416.145455 
L 181.451665 420.538182 
L 182.163942 424.930909 
L 182.876214 429.323636 
L 183.588483 433.716364 
L 183.825455 435.177808 
L 184.30076 438.109091 
L 185.01303 442.501818 
L 185.725309 446.894545 
L 186.437579 451.287273 
L 187.149859 455.68 
L 187.432727 457.424517 
L 187.811315 460.072727 
L 188.107975 464.465455 
L 187.494602 468.858182 
L 187.432727 469.228239 
L 186.76012 473.250909 
L 186.025637 477.643636 
L 185.291349 482.036364 
L 184.557749 486.429091 
L 183.825455 490.814588 
L 183.824247 490.821818 
L 183.090733 495.214545 
L 182.357226 499.607273 
L 181.623717 504 
z
" style="fill:#f7b093;"/>
    <path clip-path="url(#p9d059afc08)" d="M 183.825455 188.61946 
L 186.084321 187.723636 
L 187.432727 186.857715 
L 191.04 184.541177 
L 192.924578 183.330909 
L 194.647273 182.224613 
L 198.254545 179.908078 
L 199.764846 178.938182 
L 201.861818 177.591546 
L 205.469091 175.274989 
L 206.605115 174.545455 
L 209.076364 172.958487 
L 212.683636 170.641926 
L 213.445407 170.152727 
L 216.290909 168.3254 
L 219.898182 166.008851 
L 220.285687 165.76 
L 223.505455 163.692316 
L 227.112727 161.375744 
L 227.125919 161.367273 
L 230.72 159.059202 
L 233.966251 156.974545 
L 234.327273 156.742709 
L 237.934545 154.426147 
L 240.806555 152.581818 
L 241.541818 152.109642 
L 245.149091 149.793106 
L 247.646797 148.189091 
L 248.756364 147.476529 
L 252.363636 145.160007 
L 254.487058 143.796364 
L 255.970909 142.843454 
L 259.578182 140.526911 
L 261.327332 139.403636 
L 263.185455 138.210399 
L 266.792727 135.893875 
L 268.167653 135.010909 
L 270.4 133.5773 
L 274.007273 131.260749 
L 275.0079 130.618182 
L 277.614545 128.944254 
L 281.221818 126.265399 
L 281.255597 126.225455 
L 284.829091 121.999595 
L 284.970198 121.832727 
L 288.436364 117.733774 
L 288.684788 117.44 
L 292.043636 113.46804 
L 292.399449 113.047273 
L 295.650909 109.202251 
L 296.114066 108.654545 
L 299.258182 104.93645 
L 299.828661 104.261818 
L 302.865455 100.670637 
L 303.543262 99.869091 
L 306.472727 96.404808 
L 307.257855 95.476364 
L 310.08 92.139065 
L 310.972495 91.083636 
L 313.687273 87.873254 
L 314.687099 86.690909 
L 317.294545 83.617306 
L 318.437182 82.298182 
L 320.901818 79.590354 
L 322.435394 77.905455 
L 324.509091 75.627128 
L 326.433597 73.512727 
L 328.116364 71.663916 
L 330.431819 69.12 
L 328.116364 69.12 
L 324.509091 69.12 
L 320.901818 69.12 
L 317.294545 69.12 
L 313.687273 69.12 
L 310.08 69.12 
L 306.472727 69.12 
L 302.865455 69.12 
L 299.258182 69.12 
L 295.650909 69.12 
L 292.043636 69.12 
L 288.436364 69.12 
L 284.829091 69.12 
L 281.221818 69.12 
L 277.986614 69.12 
L 277.614545 69.358931 
L 274.007273 71.67549 
L 271.146396 73.512727 
L 270.4 73.992054 
L 266.792727 76.308585 
L 264.306088 77.905455 
L 263.185455 78.625117 
L 259.578182 80.941675 
L 257.465872 82.298182 
L 255.970909 83.258214 
L 252.363636 85.574709 
L 250.625552 86.690909 
L 248.756364 87.891304 
L 245.149091 90.207832 
L 243.78529 91.083636 
L 241.541818 92.524347 
L 237.934545 94.840927 
L 236.945039 95.476364 
L 234.327273 97.157414 
L 230.72 99.473923 
L 230.104662 99.869091 
L 227.112727 101.790516 
L 223.505455 104.107065 
L 223.264475 104.261818 
L 219.898182 106.423599 
L 216.424171 108.654545 
L 216.290909 108.740124 
L 212.683636 111.056674 
L 209.583939 113.047273 
L 209.076364 113.373227 
L 205.469091 115.35695 
L 201.861818 113.081774 
L 201.828487 113.047273 
L 198.254545 109.34772 
L 197.586407 108.654545 
L 194.647273 105.594709 
L 193.376658 104.261818 
L 191.04 101.811931 
L 189.183849 99.869091 
L 187.432727 98.041596 
L 184.974724 95.476364 
L 183.825455 94.276968 
L 180.765567 91.083636 
L 180.218182 90.51238 
L 176.610909 86.747811 
L 176.556386 86.690909 
L 173.003636 82.983294 
L 172.347137 82.298182 
L 169.396364 79.218644 
L 168.138064 77.905455 
L 165.789091 75.454065 
L 163.928887 73.512727 
L 162.181818 71.689466 
L 159.719715 69.12 
L 158.574545 69.12 
L 154.967273 69.12 
L 151.36 69.12 
L 147.752727 69.12 
L 144.145455 69.12 
L 140.538182 69.12 
L 136.930909 69.12 
L 133.323636 69.12 
L 129.716364 69.12 
L 126.109091 69.12 
L 122.501818 69.12 
L 118.894545 69.12 
L 116.911506 69.12 
L 118.566446 73.512727 
L 118.894545 74.383606 
L 120.221381 77.905455 
L 121.876324 82.298182 
L 122.501818 83.958445 
L 123.531259 86.690909 
L 125.186184 91.083636 
L 126.109091 93.53329 
L 126.841138 95.476364 
L 128.675665 99.869091 
L 129.716364 102.513142 
L 130.447892 104.261818 
L 132.506632 108.654545 
L 133.323636 110.203007 
L 134.856101 113.047273 
L 136.930909 117.02648 
L 137.155847 117.44 
L 139.45976 121.832727 
L 140.538182 123.876398 
L 141.778327 126.225455 
L 144.101129 130.618182 
L 144.145455 130.702008 
L 146.423937 135.010909 
L 147.752727 137.523793 
L 148.746767 139.403636 
L 151.069572 143.796364 
L 151.36 144.345599 
L 153.392382 148.189091 
L 154.967273 151.1674 
L 155.715199 152.581818 
L 158.038023 156.974545 
L 158.574545 157.989177 
L 160.578092 161.367273 
L 162.181818 164.106118 
L 163.249395 165.76 
L 165.789091 169.69448 
L 166.084889 170.152727 
L 168.920392 174.545455 
L 169.396364 175.282826 
L 171.75812 178.938182 
L 173.003636 180.863244 
L 174.602915 183.330909 
L 176.610909 185.726536 
L 180.218182 187.418986 
L 181.208289 187.723636 
z
" style="fill:#f7b093;"/>
    <path clip-path="url(#p9d059afc08)" d="M 403.869091 102.81612 
L 407.476364 101.439511 
L 410.149143 99.869091 
L 411.083636 99.320014 
L 414.690909 97.20047 
L 417.625214 95.476364 
L 418.298182 95.080944 
L 421.905455 92.96147 
L 425.101347 91.083636 
L 425.512727 90.841912 
L 429.12 88.722419 
L 429.12 86.690909 
L 429.12 82.298182 
L 429.12 77.905455 
L 429.12 73.512727 
L 429.12 69.12 
L 425.512727 69.12 
L 421.905455 69.12 
L 418.298182 69.12 
L 414.690909 69.12 
L 411.083636 69.12 
L 407.476364 69.12 
L 403.869091 69.12 
L 400.261818 69.12 
L 396.654545 69.12 
L 393.047273 69.12 
L 389.44 69.12 
L 385.832727 69.12 
L 382.225455 69.12 
L 378.618182 69.12 
L 377.289621 69.12 
L 378.618182 70.853717 
L 380.655851 73.512727 
L 382.225455 75.560917 
L 384.022094 77.905455 
L 385.832727 80.268382 
L 387.388227 82.298182 
L 389.44 84.975567 
L 390.754477 86.690909 
L 393.047273 89.682855 
L 394.120727 91.083636 
L 396.654545 94.390041 
L 397.48702 95.476364 
L 400.261818 99.097273 
L 400.853279 99.869091 
z
" style="fill:#f7b093;"/>
   </g>
   <g id="PathCollection_7">
    <path clip-path="url(#p9d059afc08)" d="M 169.396364 504 
L 173.003636 504 
L 176.610909 504 
L 180.218182 504 
L 181.623717 504 
L 182.357226 499.607273 
L 183.090733 495.214545 
L 183.824247 490.821818 
L 183.825455 490.814588 
L 184.557749 486.429091 
L 185.291349 482.036364 
L 186.025637 477.643636 
L 186.76012 473.250909 
L 187.432727 469.228239 
L 187.494602 468.858182 
L 188.107975 464.465455 
L 187.811315 460.072727 
L 187.432727 457.424517 
L 187.149859 455.68 
L 186.437579 451.287273 
L 185.725309 446.894545 
L 185.01303 442.501818 
L 184.30076 438.109091 
L 183.825455 435.177808 
L 183.588483 433.716364 
L 182.876214 429.323636 
L 182.163942 424.930909 
L 181.451665 420.538182 
L 180.73939 416.145455 
L 180.218182 414.507805 
L 179.481404 411.752727 
L 177.298909 407.36 
L 176.610909 406.027914 
L 175.030137 402.967273 
L 173.003636 399.043629 
L 172.761362 398.574545 
L 170.492586 394.181818 
L 169.396364 392.059344 
L 167.080626 389.789091 
L 165.789091 388.455238 
L 162.181818 386.571823 
L 159.930478 385.396364 
L 158.574545 384.688413 
L 154.967273 382.804987 
L 151.517159 381.003636 
L 151.36 380.921582 
L 147.752727 379.030273 
L 144.145455 377.126749 
L 143.16792 376.610909 
L 140.538182 375.223209 
L 136.930909 373.31969 
L 134.843489 372.218182 
L 133.323636 371.416167 
L 129.716364 369.512635 
L 126.519063 367.825455 
L 126.109091 367.609116 
L 122.501818 365.705588 
L 118.894545 363.802066 
L 118.194634 363.432727 
L 115.287273 361.898526 
L 111.68 359.99501 
L 109.870228 359.04 
L 108.072727 358.091466 
L 104.465455 356.475053 
L 100.858182 355.577346 
L 97.250909 354.679957 
L 97.120878 354.647273 
L 93.643636 353.758976 
L 90.036364 352.533062 
L 86.816854 350.254545 
L 86.429091 349.925123 
L 82.821818 347.030048 
L 81.646237 345.861818 
L 79.214545 343.795957 
L 76.470485 341.469091 
L 75.607273 340.736495 
L 72 337.680501 
L 72 341.469091 
L 72 345.861818 
L 72 350.254545 
L 72 354.647273 
L 72 359.04 
L 72 363.432727 
L 72 367.825455 
L 72 372.218182 
L 72 376.610909 
L 72 381.003636 
L 72 385.396364 
L 72 389.789091 
L 72 394.181818 
L 72 398.574545 
L 72 402.967273 
L 72 407.36 
L 72 411.752727 
L 72 416.145455 
L 72 420.538182 
L 72 424.930909 
L 72 429.323636 
L 72 433.716364 
L 72 438.109091 
L 72 442.501818 
L 72 446.894545 
L 72 451.287273 
L 72 455.68 
L 72 460.072727 
L 72 464.465455 
L 72 468.858182 
L 72 473.250909 
L 72 474.761974 
L 75.607273 474.77544 
L 79.214545 474.788682 
L 82.821818 474.801972 
L 86.429091 474.815205 
L 90.036364 474.828558 
L 93.643636 474.841958 
L 97.250909 474.855297 
L 100.858182 474.868563 
L 104.465455 474.881819 
L 108.072727 474.895164 
L 111.68 474.908467 
L 115.287273 474.921781 
L 118.894545 474.935072 
L 122.501818 474.948411 
L 126.109091 474.961662 
L 129.716364 474.97502 
L 133.323636 474.988245 
L 136.930909 475.001689 
L 140.538182 475.014952 
L 144.145455 475.026668 
L 147.752727 475.007981 
L 151.36 474.921253 
L 154.967273 474.834414 
L 158.574545 474.74758 
L 162.181818 474.660824 
L 165.789091 474.574035 
L 169.396364 474.487162 
L 170.236215 477.643636 
L 171.604132 482.036364 
L 173.003636 485.77973 
L 173.077904 486.429091 
L 173.034297 490.821818 
L 173.003636 491.005436 
L 171.843297 495.214545 
L 170.532794 499.607273 
L 169.396364 503.13963 
L 169.023054 504 
z
" style="fill:#eb7d62;"/>
    <path clip-path="url(#p9d059afc08)" d="M 201.861818 113.081774 
L 205.469091 115.35695 
L 209.076364 113.373227 
L 209.583939 113.047273 
L 212.683636 111.056674 
L 216.290909 108.740124 
L 216.424171 108.654545 
L 219.898182 106.423599 
L 223.264475 104.261818 
L 223.505455 104.107065 
L 227.112727 101.790516 
L 230.104662 99.869091 
L 230.72 99.473923 
L 234.327273 97.157414 
L 236.945039 95.476364 
L 237.934545 94.840927 
L 241.541818 92.524347 
L 243.78529 91.083636 
L 245.149091 90.207832 
L 248.756364 87.891304 
L 250.625552 86.690909 
L 252.363636 85.574709 
L 255.970909 83.258214 
L 257.465872 82.298182 
L 259.578182 80.941675 
L 263.185455 78.625117 
L 264.306088 77.905455 
L 266.792727 76.308585 
L 270.4 73.992054 
L 271.146396 73.512727 
L 274.007273 71.67549 
L 277.614545 69.358931 
L 277.986614 69.12 
L 277.614545 69.12 
L 274.007273 69.12 
L 270.4 69.12 
L 266.792727 69.12 
L 263.185455 69.12 
L 259.578182 69.12 
L 255.970909 69.12 
L 252.363636 69.12 
L 248.756364 69.12 
L 245.149091 69.12 
L 241.541818 69.12 
L 237.934545 69.12 
L 234.327273 69.12 
L 230.72 69.12 
L 227.112727 69.12 
L 223.505455 69.12 
L 219.898182 69.12 
L 216.290909 69.12 
L 212.683636 69.12 
L 209.076364 69.12 
L 205.469091 69.12 
L 201.861818 69.12 
L 198.254545 69.12 
L 194.647273 69.12 
L 191.04 69.12 
L 187.432727 69.12 
L 183.825455 69.12 
L 180.218182 69.12 
L 176.610909 69.12 
L 173.003636 69.12 
L 169.396364 69.12 
L 165.789091 69.12 
L 162.181818 69.12 
L 159.719715 69.12 
L 162.181818 71.689466 
L 163.928887 73.512727 
L 165.789091 75.454065 
L 168.138064 77.905455 
L 169.396364 79.218644 
L 172.347137 82.298182 
L 173.003636 82.983294 
L 176.556386 86.690909 
L 176.610909 86.747811 
L 180.218182 90.51238 
L 180.765567 91.083636 
L 183.825455 94.276968 
L 184.974724 95.476364 
L 187.432727 98.041596 
L 189.183849 99.869091 
L 191.04 101.811931 
L 193.376658 104.261818 
L 194.647273 105.594709 
L 197.586407 108.654545 
L 198.254545 109.34772 
L 201.828487 113.047273 
z
" style="fill:#eb7d62;"/>
   </g>
   <g id="PathCollection_8">
    <path clip-path="url(#p9d059afc08)" d="M 75.607273 504 
L 79.214545 504 
L 82.821818 504 
L 86.429091 504 
L 90.036364 504 
L 93.643636 504 
L 97.250909 504 
L 100.858182 504 
L 104.465455 504 
L 108.072727 504 
L 111.68 504 
L 115.287273 504 
L 118.894545 504 
L 122.501818 504 
L 126.109091 504 
L 129.716364 504 
L 133.323636 504 
L 136.930909 504 
L 140.538182 504 
L 144.145455 504 
L 147.752727 504 
L 151.36 504 
L 154.967273 504 
L 158.574545 504 
L 162.181818 504 
L 165.789091 504 
L 169.023054 504 
L 169.396364 503.13963 
L 170.532794 499.607273 
L 171.843297 495.214545 
L 173.003636 491.005436 
L 173.034297 490.821818 
L 173.077904 486.429091 
L 173.003636 485.77973 
L 171.604132 482.036364 
L 170.236215 477.643636 
L 169.396364 474.487162 
L 165.789091 474.574035 
L 162.181818 474.660824 
L 158.574545 474.74758 
L 154.967273 474.834414 
L 151.36 474.921253 
L 147.752727 475.007981 
L 144.145455 475.026668 
L 140.538182 475.014952 
L 136.930909 475.001689 
L 133.323636 474.988245 
L 129.716364 474.97502 
L 126.109091 474.961662 
L 122.501818 474.948411 
L 118.894545 474.935072 
L 115.287273 474.921781 
L 111.68 474.908467 
L 108.072727 474.895164 
L 104.465455 474.881819 
L 100.858182 474.868563 
L 97.250909 474.855297 
L 93.643636 474.841958 
L 90.036364 474.828558 
L 86.429091 474.815205 
L 82.821818 474.801972 
L 79.214545 474.788682 
L 75.607273 474.77544 
L 72 474.761974 
L 72 477.643636 
L 72 482.036364 
L 72 486.429091 
L 72 490.821818 
L 72 495.214545 
L 72 499.607273 
L 72 504 
z
" style="fill:#ca3b37;"/>
   </g>
   <g id="matplotlib.axis_1">
    <g id="xtick_1">
     <g id="line2d_1">
      <defs>
       <path d="M 0 0 
L 0 3.5 
" id="ma9407598b5" style="stroke:#000000;stroke-width:0.8;"/>
      </defs>
      <g>
       <use style="stroke:#000000;stroke-width:0.8;" x="72" xlink:href="#ma9407598b5" y="504"/>
      </g>
     </g>
     <g id="text_1">
      <!-- 0.50 -->
      <defs>
       <path d="M 10.59375 35.5 
L 73.1875 35.5 
L 73.1875 27.203125 
L 10.59375 27.203125 
z
" id="DejaVuSans-2212"/>
       <path d="M 31.78125 66.40625 
Q 24.171875 66.40625 20.328125 58.90625 
Q 16.5 51.421875 16.5 36.375 
Q 16.5 21.390625 20.328125 13.890625 
Q 24.171875 6.390625 31.78125 6.390625 
Q 39.453125 6.390625 43.28125 13.890625 
Q 47.125 21.390625 47.125 36.375 
Q 47.125 51.421875 43.28125 58.90625 
Q 39.453125 66.40625 31.78125 66.40625 
z
M 31.78125 74.21875 
Q 44.046875 74.21875 50.515625 64.515625 
Q 56.984375 54.828125 56.984375 36.375 
Q 56.984375 17.96875 50.515625 8.265625 
Q 44.046875 -1.421875 31.78125 -1.421875 
Q 19.53125 -1.421875 13.0625 8.265625 
Q 6.59375 17.96875 6.59375 36.375 
Q 6.59375 54.828125 13.0625 64.515625 
Q 19.53125 74.21875 31.78125 74.21875 
z
" id="DejaVuSans-30"/>
       <path d="M 10.6875 12.40625 
L 21 12.40625 
L 21 0 
L 10.6875 0 
z
" id="DejaVuSans-2e"/>
       <path d="M 10.796875 72.90625 
L 49.515625 72.90625 
L 49.515625 64.59375 
L 19.828125 64.59375 
L 19.828125 46.734375 
Q 21.96875 47.46875 24.109375 47.828125 
Q 26.265625 48.1875 28.421875 48.1875 
Q 40.625 48.1875 47.75 41.5 
Q 54.890625 34.8125 54.890625 23.390625 
Q 54.890625 11.625 47.5625 5.09375 
Q 40.234375 -1.421875 26.90625 -1.421875 
Q 22.3125 -1.421875 17.546875 -0.640625 
Q 12.796875 0.140625 7.71875 1.703125 
L 7.71875 11.625 
Q 12.109375 9.234375 16.796875 8.0625 
Q 21.484375 6.890625 26.703125 6.890625 
Q 35.15625 6.890625 40.078125 11.328125 
Q 45.015625 15.765625 45.015625 23.390625 
Q 45.015625 31 40.078125 35.4375 
Q 35.15625 39.890625 26.703125 39.890625 
Q 22.75 39.890625 18.8125 39.015625 
Q 14.890625 38.140625 10.796875 36.28125 
z
" id="DejaVuSans-35"/>
      </defs>
      <g transform="translate(56.677344 518.598438)scale(0.1 -0.1)">
       <use xlink:href="#DejaVuSans-2212"/>
       <use x="83.789062" xlink:href="#DejaVuSans-30"/>
       <use x="147.412109" xlink:href="#DejaVuSans-2e"/>
       <use x="179.199219" xlink:href="#DejaVuSans-35"/>
       <use x="242.822266" xlink:href="#DejaVuSans-30"/>
      </g>
     </g>
    </g>
    <g id="xtick_2">
     <g id="line2d_2">
      <g>
       <use style="stroke:#000000;stroke-width:0.8;" x="116.64" xlink:href="#ma9407598b5" y="504"/>
      </g>
     </g>
     <g id="text_2">
      <!-- 0.25 -->
      <defs>
       <path d="M 19.1875 8.296875 
L 53.609375 8.296875 
L 53.609375 0 
L 7.328125 0 
L 7.328125 8.296875 
Q 12.9375 14.109375 22.625 23.890625 
Q 32.328125 33.6875 34.8125 36.53125 
Q 39.546875 41.84375 41.421875 45.53125 
Q 43.3125 49.21875 43.3125 52.78125 
Q 43.3125 58.59375 39.234375 62.25 
Q 35.15625 65.921875 28.609375 65.921875 
Q 23.96875 65.921875 18.8125 64.3125 
Q 13.671875 62.703125 7.8125 59.421875 
L 7.8125 69.390625 
Q 13.765625 71.78125 18.9375 73 
Q 24.125 74.21875 28.421875 74.21875 
Q 39.75 74.21875 46.484375 68.546875 
Q 53.21875 62.890625 53.21875 53.421875 
Q 53.21875 48.921875 51.53125 44.890625 
Q 49.859375 40.875 45.40625 35.40625 
Q 44.1875 33.984375 37.640625 27.21875 
Q 31.109375 20.453125 19.1875 8.296875 
z
" id="DejaVuSans-32"/>
      </defs>
      <g transform="translate(101.317344 518.598438)scale(0.1 -0.1)">
       <use xlink:href="#DejaVuSans-2212"/>
       <use x="83.789062" xlink:href="#DejaVuSans-30"/>
       <use x="147.412109" xlink:href="#DejaVuSans-2e"/>
       <use x="179.199219" xlink:href="#DejaVuSans-32"/>
       <use x="242.822266" xlink:href="#DejaVuSans-35"/>
      </g>
     </g>
    </g>
    <g id="xtick_3">
     <g id="line2d_3">
      <g>
       <use style="stroke:#000000;stroke-width:0.8;" x="161.28" xlink:href="#ma9407598b5" y="504"/>
      </g>
     </g>
     <g id="text_3">
      <!-- 0.00 -->
      <g transform="translate(150.147188 518.598438)scale(0.1 -0.1)">
       <use xlink:href="#DejaVuSans-30"/>
       <use x="63.623047" xlink:href="#DejaVuSans-2e"/>
       <use x="95.410156" xlink:href="#DejaVuSans-30"/>
       <use x="159.033203" xlink:href="#DejaVuSans-30"/>
      </g>
     </g>
    </g>
    <g id="xtick_4">
     <g id="line2d_4">
      <g>
       <use style="stroke:#000000;stroke-width:0.8;" x="205.92" xlink:href="#ma9407598b5" y="504"/>
      </g>
     </g>
     <g id="text_4">
      <!-- 0.25 -->
      <g transform="translate(194.787188 518.598438)scale(0.1 -0.1)">
       <use xlink:href="#DejaVuSans-30"/>
       <use x="63.623047" xlink:href="#DejaVuSans-2e"/>
       <use x="95.410156" xlink:href="#DejaVuSans-32"/>
       <use x="159.033203" xlink:href="#DejaVuSans-35"/>
      </g>
     </g>
    </g>
    <g id="xtick_5">
     <g id="line2d_5">
      <g>
       <use style="stroke:#000000;stroke-width:0.8;" x="250.56" xlink:href="#ma9407598b5" y="504"/>
      </g>
     </g>
     <g id="text_5">
      <!-- 0.50 -->
      <g transform="translate(239.427188 518.598438)scale(0.1 -0.1)">
       <use xlink:href="#DejaVuSans-30"/>
       <use x="63.623047" xlink:href="#DejaVuSans-2e"/>
       <use x="95.410156" xlink:href="#DejaVuSans-35"/>
       <use x="159.033203" xlink:href="#DejaVuSans-30"/>
      </g>
     </g>
    </g>
    <g id="xtick_6">
     <g id="line2d_6">
      <g>
       <use style="stroke:#000000;stroke-width:0.8;" x="295.2" xlink:href="#ma9407598b5" y="504"/>
      </g>
     </g>
     <g id="text_6">
      <!-- 0.75 -->
      <defs>
       <path d="M 8.203125 72.90625 
L 55.078125 72.90625 
L 55.078125 68.703125 
L 28.609375 0 
L 18.3125 0 
L 43.21875 64.59375 
L 8.203125 64.59375 
z
" id="DejaVuSans-37"/>
      </defs>
      <g transform="translate(284.067188 518.598438)scale(0.1 -0.1)">
       <use xlink:href="#DejaVuSans-30"/>
       <use x="63.623047" xlink:href="#DejaVuSans-2e"/>
       <use x="95.410156" xlink:href="#DejaVuSans-37"/>
       <use x="159.033203" xlink:href="#DejaVuSans-35"/>
      </g>
     </g>
    </g>
    <g id="xtick_7">
     <g id="line2d_7">
      <g>
       <use style="stroke:#000000;stroke-width:0.8;" x="339.84" xlink:href="#ma9407598b5" y="504"/>
      </g>
     </g>
     <g id="text_7">
      <!-- 1.00 -->
      <defs>
       <path d="M 12.40625 8.296875 
L 28.515625 8.296875 
L 28.515625 63.921875 
L 10.984375 60.40625 
L 10.984375 69.390625 
L 28.421875 72.90625 
L 38.28125 72.90625 
L 38.28125 8.296875 
L 54.390625 8.296875 
L 54.390625 0 
L 12.40625 0 
z
" id="DejaVuSans-31"/>
      </defs>
      <g transform="translate(328.707188 518.598438)scale(0.1 -0.1)">
       <use xlink:href="#DejaVuSans-31"/>
       <use x="63.623047" xlink:href="#DejaVuSans-2e"/>
       <use x="95.410156" xlink:href="#DejaVuSans-30"/>
       <use x="159.033203" xlink:href="#DejaVuSans-30"/>
      </g>
     </g>
    </g>
    <g id="xtick_8">
     <g id="line2d_8">
      <g>
       <use style="stroke:#000000;stroke-width:0.8;" x="384.48" xlink:href="#ma9407598b5" y="504"/>
      </g>
     </g>
     <g id="text_8">
      <!-- 1.25 -->
      <g transform="translate(373.347188 518.598438)scale(0.1 -0.1)">
       <use xlink:href="#DejaVuSans-31"/>
       <use x="63.623047" xlink:href="#DejaVuSans-2e"/>
       <use x="95.410156" xlink:href="#DejaVuSans-32"/>
       <use x="159.033203" xlink:href="#DejaVuSans-35"/>
      </g>
     </g>
    </g>
    <g id="xtick_9">
     <g id="line2d_9">
      <g>
       <use style="stroke:#000000;stroke-width:0.8;" x="429.12" xlink:href="#ma9407598b5" y="504"/>
      </g>
     </g>
     <g id="text_9">
      <!-- 1.50 -->
      <g transform="translate(417.987188 518.598438)scale(0.1 -0.1)">
       <use xlink:href="#DejaVuSans-31"/>
       <use x="63.623047" xlink:href="#DejaVuSans-2e"/>
       <use x="95.410156" xlink:href="#DejaVuSans-35"/>
       <use x="159.033203" xlink:href="#DejaVuSans-30"/>
      </g>
     </g>
    </g>
   </g>
   <g id="matplotlib.axis_2">
    <g id="ytick_1">
     <g id="line2d_10">
      <defs>
       <path d="M 0 0 
L -3.5 0 
" id="m40f5b26913" style="stroke:#000000;stroke-width:0.8;"/>
      </defs>
      <g>
       <use style="stroke:#000000;stroke-width:0.8;" x="72" xlink:href="#m40f5b26913" y="504"/>
      </g>
     </g>
     <g id="text_10">
      <!-- 0.50 -->
      <g transform="translate(34.354687 507.799219)scale(0.1 -0.1)">
       <use xlink:href="#DejaVuSans-2212"/>
       <use x="83.789062" xlink:href="#DejaVuSans-30"/>
       <use x="147.412109" xlink:href="#DejaVuSans-2e"/>
       <use x="179.199219" xlink:href="#DejaVuSans-35"/>
       <use x="242.822266" xlink:href="#DejaVuSans-30"/>
      </g>
     </g>
    </g>
    <g id="ytick_2">
     <g id="line2d_11">
      <g>
       <use style="stroke:#000000;stroke-width:0.8;" x="72" xlink:href="#m40f5b26913" y="449.64"/>
      </g>
     </g>
     <g id="text_11">
      <!-- 0.25 -->
      <g transform="translate(34.354687 453.439219)scale(0.1 -0.1)">
       <use xlink:href="#DejaVuSans-2212"/>
       <use x="83.789062" xlink:href="#DejaVuSans-30"/>
       <use x="147.412109" xlink:href="#DejaVuSans-2e"/>
       <use x="179.199219" xlink:href="#DejaVuSans-32"/>
       <use x="242.822266" xlink:href="#DejaVuSans-35"/>
      </g>
     </g>
    </g>
    <g id="ytick_3">
     <g id="line2d_12">
      <g>
       <use style="stroke:#000000;stroke-width:0.8;" x="72" xlink:href="#m40f5b26913" y="395.28"/>
      </g>
     </g>
     <g id="text_12">
      <!-- 0.00 -->
      <g transform="translate(42.734375 399.079219)scale(0.1 -0.1)">
       <use xlink:href="#DejaVuSans-30"/>
       <use x="63.623047" xlink:href="#DejaVuSans-2e"/>
       <use x="95.410156" xlink:href="#DejaVuSans-30"/>
       <use x="159.033203" xlink:href="#DejaVuSans-30"/>
      </g>
     </g>
    </g>
    <g id="ytick_4">
     <g id="line2d_13">
      <g>
       <use style="stroke:#000000;stroke-width:0.8;" x="72" xlink:href="#m40f5b26913" y="340.92"/>
      </g>
     </g>
     <g id="text_13">
      <!-- 0.25 -->
      <g transform="translate(42.734375 344.719219)scale(0.1 -0.1)">
       <use xlink:href="#DejaVuSans-30"/>
       <use x="63.623047" xlink:href="#DejaVuSans-2e"/>
       <use x="95.410156" xlink:href="#DejaVuSans-32"/>
       <use x="159.033203" xlink:href="#DejaVuSans-35"/>
      </g>
     </g>
    </g>
    <g id="ytick_5">
     <g id="line2d_14">
      <g>
       <use style="stroke:#000000;stroke-width:0.8;" x="72" xlink:href="#m40f5b26913" y="286.56"/>
      </g>
     </g>
     <g id="text_14">
      <!-- 0.50 -->
      <g transform="translate(42.734375 290.359219)scale(0.1 -0.1)">
       <use xlink:href="#DejaVuSans-30"/>
       <use x="63.623047" xlink:href="#DejaVuSans-2e"/>
       <use x="95.410156" xlink:href="#DejaVuSans-35"/>
       <use x="159.033203" xlink:href="#DejaVuSans-30"/>
      </g>
     </g>
    </g>
    <g id="ytick_6">
     <g id="line2d_15">
      <g>
       <use style="stroke:#000000;stroke-width:0.8;" x="72" xlink:href="#m40f5b26913" y="232.2"/>
      </g>
     </g>
     <g id="text_15">
      <!-- 0.75 -->
      <g transform="translate(42.734375 235.999219)scale(0.1 -0.1)">
       <use xlink:href="#DejaVuSans-30"/>
       <use x="63.623047" xlink:href="#DejaVuSans-2e"/>
       <use x="95.410156" xlink:href="#DejaVuSans-37"/>
       <use x="159.033203" xlink:href="#DejaVuSans-35"/>
      </g>
     </g>
    </g>
    <g id="ytick_7">
     <g id="line2d_16">
      <g>
       <use style="stroke:#000000;stroke-width:0.8;" x="72" xlink:href="#m40f5b26913" y="177.84"/>
      </g>
     </g>
     <g id="text_16">
      <!-- 1.00 -->
      <g transform="translate(42.734375 181.639219)scale(0.1 -0.1)">
       <use xlink:href="#DejaVuSans-31"/>
       <use x="63.623047" xlink:href="#DejaVuSans-2e"/>
       <use x="95.410156" xlink:href="#DejaVuSans-30"/>
       <use x="159.033203" xlink:href="#DejaVuSans-30"/>
      </g>
     </g>
    </g>
    <g id="ytick_8">
     <g id="line2d_17">
      <g>
       <use style="stroke:#000000;stroke-width:0.8;" x="72" xlink:href="#m40f5b26913" y="123.48"/>
      </g>
     </g>
     <g id="text_17">
      <!-- 1.25 -->
      <g transform="translate(42.734375 127.279219)scale(0.1 -0.1)">
       <use xlink:href="#DejaVuSans-31"/>
       <use x="63.623047" xlink:href="#DejaVuSans-2e"/>
       <use x="95.410156" xlink:href="#DejaVuSans-32"/>
       <use x="159.033203" xlink:href="#DejaVuSans-35"/>
      </g>
     </g>
    </g>
    <g id="ytick_9">
     <g id="line2d_18">
      <g>
       <use style="stroke:#000000;stroke-width:0.8;" x="72" xlink:href="#m40f5b26913" y="69.12"/>
      </g>
     </g>
     <g id="text_18">
      <!-- 1.50 -->
      <g transform="translate(42.734375 72.919219)scale(0.1 -0.1)">
       <use xlink:href="#DejaVuSans-31"/>
       <use x="63.623047" xlink:href="#DejaVuSans-2e"/>
       <use x="95.410156" xlink:href="#DejaVuSans-35"/>
       <use x="159.033203" xlink:href="#DejaVuSans-30"/>
      </g>
     </g>
    </g>
   </g>
   <g id="patch_3">
    <path d="M 72 504 
L 72 69.12 
" style="fill:none;stroke:#000000;stroke-linecap:square;stroke-linejoin:miter;stroke-width:0.8;"/>
   </g>
   <g id="patch_4">
    <path d="M 429.12 504 
L 429.12 69.12 
" style="fill:none;stroke:#000000;stroke-linecap:square;stroke-linejoin:miter;stroke-width:0.8;"/>
   </g>
   <g id="patch_5">
    <path d="M 72 504 
L 429.12 504 
" style="fill:none;stroke:#000000;stroke-linecap:square;stroke-linejoin:miter;stroke-width:0.8;"/>
   </g>
   <g id="patch_6">
    <path d="M 72 69.12 
L 429.12 69.12 
" style="fill:none;stroke:#000000;stroke-linecap:square;stroke-linejoin:miter;stroke-width:0.8;"/>
   </g>
  </g>
  <g id="axes_2">
   <g id="patch_7">
    <path clip-path="url(#p2913f3ac8b)" d="M 451.44 504 
L 451.44 449.64 
L 451.44 123.48 
L 451.44 69.12 
L 473.184 69.12 
L 473.184 123.48 
L 473.184 449.64 
L 473.184 504 
z
" style="fill:#ffffff;stroke:#ffffff;stroke-linejoin:miter;stroke-width:0.01;"/>
   </g>
   <g id="QuadMesh_1">
    <path clip-path="url(#p2913f3ac8b)" d="M 451.44 504 
L 473.184 504 
L 473.184 449.64 
L 451.44 449.64 
L 451.44 504 
" style="fill:#4e68d8;"/>
    <path clip-path="url(#p2913f3ac8b)" d="M 451.44 449.64 
L 473.184 449.64 
L 473.184 395.28 
L 451.44 395.28 
L 451.44 449.64 
" style="fill:#779af7;"/>
    <path clip-path="url(#p2913f3ac8b)" d="M 451.44 395.28 
L 473.184 395.28 
L 473.184 340.92 
L 451.44 340.92 
L 451.44 395.28 
" style="fill:#a3c2fe;"/>
    <path clip-path="url(#p2913f3ac8b)" d="M 451.44 340.92 
L 473.184 340.92 
L 473.184 286.56 
L 451.44 286.56 
L 451.44 340.92 
" style="fill:#ccd9ed;"/>
    <path clip-path="url(#p2913f3ac8b)" d="M 451.44 286.56 
L 473.184 286.56 
L 473.184 232.2 
L 451.44 232.2 
L 451.44 286.56 
" style="fill:#ecd3c5;"/>
    <path clip-path="url(#p2913f3ac8b)" d="M 451.44 232.2 
L 473.184 232.2 
L 473.184 177.84 
L 451.44 177.84 
L 451.44 232.2 
" style="fill:#f7b093;"/>
    <path clip-path="url(#p2913f3ac8b)" d="M 451.44 177.84 
L 473.184 177.84 
L 473.184 123.48 
L 451.44 123.48 
L 451.44 177.84 
" style="fill:#eb7d62;"/>
    <path clip-path="url(#p2913f3ac8b)" d="M 451.44 123.48 
L 473.184 123.48 
L 473.184 69.12 
L 451.44 69.12 
L 451.44 123.48 
" style="fill:#ca3b37;"/>
   </g>
   <g id="matplotlib.axis_3"/>
   <g id="matplotlib.axis_4">
    <g id="ytick_10">
     <g id="line2d_19">
      <defs>
       <path d="M 0 0 
L 3.5 0 
" id="m4139322185" style="stroke:#000000;stroke-width:0.8;"/>
      </defs>
      <g>
       <use style="stroke:#000000;stroke-width:0.8;" x="473.184" xlink:href="#m4139322185" y="504"/>
      </g>
     </g>
     <g id="text_19">
      <!-- 24 -->
      <defs>
       <path d="M 37.796875 64.3125 
L 12.890625 25.390625 
L 37.796875 25.390625 
z
M 35.203125 72.90625 
L 47.609375 72.90625 
L 47.609375 25.390625 
L 58.015625 25.390625 
L 58.015625 17.1875 
L 47.609375 17.1875 
L 47.609375 0 
L 37.796875 0 
L 37.796875 17.1875 
L 4.890625 17.1875 
L 4.890625 26.703125 
z
" id="DejaVuSans-34"/>
      </defs>
      <g transform="translate(480.184 507.799219)scale(0.1 -0.1)">
       <use xlink:href="#DejaVuSans-2212"/>
       <use x="83.789062" xlink:href="#DejaVuSans-32"/>
       <use x="147.412109" xlink:href="#DejaVuSans-34"/>
      </g>
     </g>
    </g>
    <g id="ytick_11">
     <g id="line2d_20">
      <g>
       <use style="stroke:#000000;stroke-width:0.8;" x="473.184" xlink:href="#m4139322185" y="449.64"/>
      </g>
     </g>
     <g id="text_20">
      <!-- 18 -->
      <defs>
       <path d="M 31.78125 34.625 
Q 24.75 34.625 20.71875 30.859375 
Q 16.703125 27.09375 16.703125 20.515625 
Q 16.703125 13.921875 20.71875 10.15625 
Q 24.75 6.390625 31.78125 6.390625 
Q 38.8125 6.390625 42.859375 10.171875 
Q 46.921875 13.96875 46.921875 20.515625 
Q 46.921875 27.09375 42.890625 30.859375 
Q 38.875 34.625 31.78125 34.625 
z
M 21.921875 38.8125 
Q 15.578125 40.375 12.03125 44.71875 
Q 8.5 49.078125 8.5 55.328125 
Q 8.5 64.0625 14.71875 69.140625 
Q 20.953125 74.21875 31.78125 74.21875 
Q 42.671875 74.21875 48.875 69.140625 
Q 55.078125 64.0625 55.078125 55.328125 
Q 55.078125 49.078125 51.53125 44.71875 
Q 48 40.375 41.703125 38.8125 
Q 48.828125 37.15625 52.796875 32.3125 
Q 56.78125 27.484375 56.78125 20.515625 
Q 56.78125 9.90625 50.3125 4.234375 
Q 43.84375 -1.421875 31.78125 -1.421875 
Q 19.734375 -1.421875 13.25 4.234375 
Q 6.78125 9.90625 6.78125 20.515625 
Q 6.78125 27.484375 10.78125 32.3125 
Q 14.796875 37.15625 21.921875 38.8125 
z
M 18.3125 54.390625 
Q 18.3125 48.734375 21.84375 45.5625 
Q 25.390625 42.390625 31.78125 42.390625 
Q 38.140625 42.390625 41.71875 45.5625 
Q 45.3125 48.734375 45.3125 54.390625 
Q 45.3125 60.0625 41.71875 63.234375 
Q 38.140625 66.40625 31.78125 66.40625 
Q 25.390625 66.40625 21.84375 63.234375 
Q 18.3125 60.0625 18.3125 54.390625 
z
" id="DejaVuSans-38"/>
      </defs>
      <g transform="translate(480.184 453.439219)scale(0.1 -0.1)">
       <use xlink:href="#DejaVuSans-2212"/>
       <use x="83.789062" xlink:href="#DejaVuSans-31"/>
       <use x="147.412109" xlink:href="#DejaVuSans-38"/>
      </g>
     </g>
    </g>
    <g id="ytick_12">
     <g id="line2d_21">
      <g>
       <use style="stroke:#000000;stroke-width:0.8;" x="473.184" xlink:href="#m4139322185" y="395.28"/>
      </g>
     </g>
     <g id="text_21">
      <!-- 12 -->
      <g transform="translate(480.184 399.079219)scale(0.1 -0.1)">
       <use xlink:href="#DejaVuSans-2212"/>
       <use x="83.789062" xlink:href="#DejaVuSans-31"/>
       <use x="147.412109" xlink:href="#DejaVuSans-32"/>
      </g>
     </g>
    </g>
    <g id="ytick_13">
     <g id="line2d_22">
      <g>
       <use style="stroke:#000000;stroke-width:0.8;" x="473.184" xlink:href="#m4139322185" y="340.92"/>
      </g>
     </g>
     <g id="text_22">
      <!-- 6 -->
      <defs>
       <path d="M 33.015625 40.375 
Q 26.375 40.375 22.484375 35.828125 
Q 18.609375 31.296875 18.609375 23.390625 
Q 18.609375 15.53125 22.484375 10.953125 
Q 26.375 6.390625 33.015625 6.390625 
Q 39.65625 6.390625 43.53125 10.953125 
Q 47.40625 15.53125 47.40625 23.390625 
Q 47.40625 31.296875 43.53125 35.828125 
Q 39.65625 40.375 33.015625 40.375 
z
M 52.59375 71.296875 
L 52.59375 62.3125 
Q 48.875 64.0625 45.09375 64.984375 
Q 41.3125 65.921875 37.59375 65.921875 
Q 27.828125 65.921875 22.671875 59.328125 
Q 17.53125 52.734375 16.796875 39.40625 
Q 19.671875 43.65625 24.015625 45.921875 
Q 28.375 48.1875 33.59375 48.1875 
Q 44.578125 48.1875 50.953125 41.515625 
Q 57.328125 34.859375 57.328125 23.390625 
Q 57.328125 12.15625 50.6875 5.359375 
Q 44.046875 -1.421875 33.015625 -1.421875 
Q 20.359375 -1.421875 13.671875 8.265625 
Q 6.984375 17.96875 6.984375 36.375 
Q 6.984375 53.65625 15.1875 63.9375 
Q 23.390625 74.21875 37.203125 74.21875 
Q 40.921875 74.21875 44.703125 73.484375 
Q 48.484375 72.75 52.59375 71.296875 
z
" id="DejaVuSans-36"/>
      </defs>
      <g transform="translate(480.184 344.719219)scale(0.1 -0.1)">
       <use xlink:href="#DejaVuSans-2212"/>
       <use x="83.789062" xlink:href="#DejaVuSans-36"/>
      </g>
     </g>
    </g>
    <g id="ytick_14">
     <g id="line2d_23">
      <g>
       <use style="stroke:#000000;stroke-width:0.8;" x="473.184" xlink:href="#m4139322185" y="286.56"/>
      </g>
     </g>
     <g id="text_23">
      <!-- 0 -->
      <g transform="translate(480.184 290.359219)scale(0.1 -0.1)">
       <use xlink:href="#DejaVuSans-30"/>
      </g>
     </g>
    </g>
    <g id="ytick_15">
     <g id="line2d_24">
      <g>
       <use style="stroke:#000000;stroke-width:0.8;" x="473.184" xlink:href="#m4139322185" y="232.2"/>
      </g>
     </g>
     <g id="text_24">
      <!-- 6 -->
      <g transform="translate(480.184 235.999219)scale(0.1 -0.1)">
       <use xlink:href="#DejaVuSans-36"/>
      </g>
     </g>
    </g>
    <g id="ytick_16">
     <g id="line2d_25">
      <g>
       <use style="stroke:#000000;stroke-width:0.8;" x="473.184" xlink:href="#m4139322185" y="177.84"/>
      </g>
     </g>
     <g id="text_25">
      <!-- 12 -->
      <g transform="translate(480.184 181.639219)scale(0.1 -0.1)">
       <use xlink:href="#DejaVuSans-31"/>
       <use x="63.623047" xlink:href="#DejaVuSans-32"/>
      </g>
     </g>
    </g>
    <g id="ytick_17">
     <g id="line2d_26">
      <g>
       <use style="stroke:#000000;stroke-width:0.8;" x="473.184" xlink:href="#m4139322185" y="123.48"/>
      </g>
     </g>
     <g id="text_26">
      <!-- 18 -->
      <g transform="translate(480.184 127.279219)scale(0.1 -0.1)">
       <use xlink:href="#DejaVuSans-31"/>
       <use x="63.623047" xlink:href="#DejaVuSans-38"/>
      </g>
     </g>
    </g>
    <g id="ytick_18">
     <g id="line2d_27">
      <g>
       <use style="stroke:#000000;stroke-width:0.8;" x="473.184" xlink:href="#m4139322185" y="69.12"/>
      </g>
     </g>
     <g id="text_27">
      <!-- 24 -->
      <g transform="translate(480.184 72.919219)scale(0.1 -0.1)">
       <use xlink:href="#DejaVuSans-32"/>
       <use x="63.623047" xlink:href="#DejaVuSans-34"/>
      </g>
     </g>
    </g>
   </g>
   <g id="patch_8">
    <path d="M 451.44 504 
L 451.44 449.64 
L 451.44 123.48 
L 451.44 69.12 
L 473.184 69.12 
L 473.184 123.48 
L 473.184 449.64 
L 473.184 504 
z
" style="fill:none;stroke:#000000;stroke-linejoin:miter;stroke-width:0.8;"/>
   </g>
  </g>
 </g>
 <defs>
  <clipPath id="p9d059afc08">
   <rect height="434.88" width="357.12" x="72" y="69.12"/>
  </clipPath>
  <clipPath id="p2913f3ac8b">
   <rect height="434.88" width="21.744" x="451.44" y="69.12"/>
  </clipPath>
 </defs>
</svg>
