<?xml version="1.0" encoding="utf-8" standalone="no"?>
<!DOCTYPE svg PUBLIC "-//W3C//DTD SVG 1.1//EN"
  "http://www.w3.org/Graphics/SVG/1.1/DTD/svg11.dtd">
<!-- Created with matplotlib (http://matplotlib.org/) -->
<svg height="288pt" version="1.1" viewBox="0 0 432 288" width="432pt" xmlns="http://www.w3.org/2000/svg" xmlns:xlink="http://www.w3.org/1999/xlink">
 <defs>
  <style type="text/css">
*{stroke-linecap:butt;stroke-linejoin:round;}
  </style>
 </defs>
 <g id="figure_1">
  <g id="patch_1">
   <path d="M 0 288 
L 432 288 
L 432 0 
L 0 0 
z
" style="fill:#ffffff;"/>
  </g>
  <g id="axes_1">
   <g id="patch_2">
    <path d="M 54 252 
L 388.8 252 
L 388.8 34.56 
L 54 34.56 
z
" style="fill:#ffffff;"/>
   </g>
   <g id="PathCollection_1">
    <defs>
     <path d="M 0 2.738613 
C 0.726289 2.738613 1.422928 2.450055 1.936492 1.936492 
C 2.450055 1.422928 2.738613 0.726289 2.738613 0 
C 2.738613 -0.726289 2.450055 -1.422928 1.936492 -1.936492 
C 1.422928 -2.450055 0.726289 -2.738613 0 -2.738613 
C -0.726289 -2.738613 -1.422928 -2.450055 -1.936492 -1.936492 
C -2.450055 -1.422928 -2.738613 -0.726289 -2.738613 0 
C -2.738613 0.726289 -2.450055 1.422928 -1.936492 1.936492 
C -1.422928 2.450055 -0.726289 2.738613 0 2.738613 
z
" id="C0_0_a6db4ec645"/>
    </defs>
    <g clip-path="url(#pbb1322564b)">
     <use style="fill:#b40426;stroke:#b40426;" x="232.870736" xlink:href="#C0_0_a6db4ec645" y="104.205976"/>
    </g>
    <g clip-path="url(#pbb1322564b)">
     <use style="fill:#3b4cc0;stroke:#3b4cc0;" x="213.485073" xlink:href="#C0_0_a6db4ec645" y="196.97535"/>
    </g>
    <g clip-path="url(#pbb1322564b)">
     <use style="fill:#3b4cc0;stroke:#3b4cc0;" x="238.361741" xlink:href="#C0_0_a6db4ec645" y="130.999723"/>
    </g>
    <g clip-path="url(#pbb1322564b)">
     <use style="fill:#b40426;stroke:#b40426;" x="222.093234" xlink:href="#C0_0_a6db4ec645" y="154.158548"/>
    </g>
    <g clip-path="url(#pbb1322564b)">
     <use style="fill:#3b4cc0;stroke:#3b4cc0;" x="177.411544" xlink:href="#C0_0_a6db4ec645" y="161.568498"/>
    </g>
    <g clip-path="url(#pbb1322564b)">
     <use style="fill:#b40426;stroke:#b40426;" x="190.515326" xlink:href="#C0_0_a6db4ec645" y="179.816006"/>
    </g>
    <g clip-path="url(#pbb1322564b)">
     <use style="fill:#3b4cc0;stroke:#3b4cc0;" x="266.199043" xlink:href="#C0_0_a6db4ec645" y="136.008924"/>
    </g>
    <g clip-path="url(#pbb1322564b)">
     <use style="fill:#b40426;stroke:#b40426;" x="209.389128" xlink:href="#C0_0_a6db4ec645" y="179.35825"/>
    </g>
    <g clip-path="url(#pbb1322564b)">
     <use style="fill:#b40426;stroke:#b40426;" x="209.748661" xlink:href="#C0_0_a6db4ec645" y="136.487715"/>
    </g>
    <g clip-path="url(#pbb1322564b)">
     <use style="fill:#3b4cc0;stroke:#3b4cc0;" x="205.581463" xlink:href="#C0_0_a6db4ec645" y="145.187711"/>
    </g>
    <g clip-path="url(#pbb1322564b)">
     <use style="fill:#b40426;stroke:#b40426;" x="191.709843" xlink:href="#C0_0_a6db4ec645" y="103.383242"/>
    </g>
    <g clip-path="url(#pbb1322564b)">
     <use style="fill:#b40426;stroke:#b40426;" x="214.009442" xlink:href="#C0_0_a6db4ec645" y="125.672026"/>
    </g>
    <g clip-path="url(#pbb1322564b)">
     <use style="fill:#b40426;stroke:#b40426;" x="249.716261" xlink:href="#C0_0_a6db4ec645" y="126.653992"/>
    </g>
    <g clip-path="url(#pbb1322564b)">
     <use style="fill:#3b4cc0;stroke:#3b4cc0;" x="243.90512" xlink:href="#C0_0_a6db4ec645" y="180.691556"/>
    </g>
    <g clip-path="url(#pbb1322564b)">
     <use style="fill:#3b4cc0;stroke:#3b4cc0;" x="211.120425" xlink:href="#C0_0_a6db4ec645" y="157.972317"/>
    </g>
    <g clip-path="url(#pbb1322564b)">
     <use style="fill:#3b4cc0;stroke:#3b4cc0;" x="236.126001" xlink:href="#C0_0_a6db4ec645" y="188.162018"/>
    </g>
    <g clip-path="url(#pbb1322564b)">
     <use style="fill:#b40426;stroke:#b40426;" x="249.984425" xlink:href="#C0_0_a6db4ec645" y="160.812684"/>
    </g>
    <g clip-path="url(#pbb1322564b)">
     <use style="fill:#3b4cc0;stroke:#3b4cc0;" x="258.390627" xlink:href="#C0_0_a6db4ec645" y="96.844476"/>
    </g>
    <g clip-path="url(#pbb1322564b)">
     <use style="fill:#b40426;stroke:#b40426;" x="170.216988" xlink:href="#C0_0_a6db4ec645" y="170.940777"/>
    </g>
    <g clip-path="url(#pbb1322564b)">
     <use style="fill:#b40426;stroke:#b40426;" x="182.061888" xlink:href="#C0_0_a6db4ec645" y="95.094448"/>
    </g>
    <g clip-path="url(#pbb1322564b)">
     <use style="fill:#3b4cc0;stroke:#3b4cc0;" x="188.271331" xlink:href="#C0_0_a6db4ec645" y="153.688946"/>
    </g>
    <g clip-path="url(#pbb1322564b)">
     <use style="fill:#3b4cc0;stroke:#3b4cc0;" x="178.686457" xlink:href="#C0_0_a6db4ec645" y="133.846981"/>
    </g>
    <g clip-path="url(#pbb1322564b)">
     <use style="fill:#3b4cc0;stroke:#3b4cc0;" x="242.323687" xlink:href="#C0_0_a6db4ec645" y="121.650299"/>
    </g>
    <g clip-path="url(#pbb1322564b)">
     <use style="fill:#3b4cc0;stroke:#3b4cc0;" x="243.385549" xlink:href="#C0_0_a6db4ec645" y="110.55712"/>
    </g>
    <g clip-path="url(#pbb1322564b)">
     <use style="fill:#3b4cc0;stroke:#3b4cc0;" x="174.151466" xlink:href="#C0_0_a6db4ec645" y="113.722862"/>
    </g>
    <g clip-path="url(#pbb1322564b)">
     <use style="fill:#b40426;stroke:#b40426;" x="218.558888" xlink:href="#C0_0_a6db4ec645" y="143.594349"/>
    </g>
    <g clip-path="url(#pbb1322564b)">
     <use style="fill:#b40426;stroke:#b40426;" x="254.14094" xlink:href="#C0_0_a6db4ec645" y="142.594918"/>
    </g>
    <g clip-path="url(#pbb1322564b)">
     <use style="fill:#b40426;stroke:#b40426;" x="231.214749" xlink:href="#C0_0_a6db4ec645" y="92.760585"/>
    </g>
    <g clip-path="url(#pbb1322564b)">
     <use style="fill:#3b4cc0;stroke:#3b4cc0;" x="199.422464" xlink:href="#C0_0_a6db4ec645" y="126.763009"/>
    </g>
    <g clip-path="url(#pbb1322564b)">
     <use style="fill:#b40426;stroke:#b40426;" x="261.930323" xlink:href="#C0_0_a6db4ec645" y="116.373018"/>
    </g>
    <g clip-path="url(#pbb1322564b)">
     <use style="fill:#b40426;stroke:#b40426;" x="231.419051" xlink:href="#C0_0_a6db4ec645" y="160.952002"/>
    </g>
    <g clip-path="url(#pbb1322564b)">
     <use style="fill:#b40426;stroke:#b40426;" x="226.312659" xlink:href="#C0_0_a6db4ec645" y="123.91301"/>
    </g>
    <g clip-path="url(#pbb1322564b)">
     <use style="fill:#b40426;stroke:#b40426;" x="170.813006" xlink:href="#C0_0_a6db4ec645" y="195.05782"/>
    </g>
    <g clip-path="url(#pbb1322564b)">
     <use style="fill:#3b4cc0;stroke:#3b4cc0;" x="169.183785" xlink:href="#C0_0_a6db4ec645" y="159.13329"/>
    </g>
    <g clip-path="url(#pbb1322564b)">
     <use style="fill:#3b4cc0;stroke:#3b4cc0;" x="261.625519" xlink:href="#C0_0_a6db4ec645" y="161.51651"/>
    </g>
    <g clip-path="url(#pbb1322564b)">
     <use style="fill:#3b4cc0;stroke:#3b4cc0;" x="212.831462" xlink:href="#C0_0_a6db4ec645" y="107.605194"/>
    </g>
    <g clip-path="url(#pbb1322564b)">
     <use style="fill:#b40426;stroke:#b40426;" x="250.774655" xlink:href="#C0_0_a6db4ec645" y="114.302543"/>
    </g>
    <g clip-path="url(#pbb1322564b)">
     <use style="fill:#3b4cc0;stroke:#3b4cc0;" x="186.087828" xlink:href="#C0_0_a6db4ec645" y="121.159131"/>
    </g>
    <g clip-path="url(#pbb1322564b)">
     <use style="fill:#b40426;stroke:#b40426;" x="253.597334" xlink:href="#C0_0_a6db4ec645" y="174.206513"/>
    </g>
    <g clip-path="url(#pbb1322564b)">
     <use style="fill:#3b4cc0;stroke:#3b4cc0;" x="242.820915" xlink:href="#C0_0_a6db4ec645" y="89.201378"/>
    </g>
    <g clip-path="url(#pbb1322564b)">
     <use style="fill:#b40426;stroke:#b40426;" x="274.988945" xlink:href="#C0_0_a6db4ec645" y="119.765671"/>
    </g>
    <g clip-path="url(#pbb1322564b)">
     <use style="fill:#3b4cc0;stroke:#3b4cc0;" x="237.25479" xlink:href="#C0_0_a6db4ec645" y="141.157107"/>
    </g>
    <g clip-path="url(#pbb1322564b)">
     <use style="fill:#b40426;stroke:#b40426;" x="242.475312" xlink:href="#C0_0_a6db4ec645" y="154.742606"/>
    </g>
    <g clip-path="url(#pbb1322564b)">
     <use style="fill:#b40426;stroke:#b40426;" x="198.929899" xlink:href="#C0_0_a6db4ec645" y="141.706681"/>
    </g>
    <g clip-path="url(#pbb1322564b)">
     <use style="fill:#3b4cc0;stroke:#3b4cc0;" x="257.693855" xlink:href="#C0_0_a6db4ec645" y="192.713584"/>
    </g>
    <g clip-path="url(#pbb1322564b)">
     <use style="fill:#b40426;stroke:#b40426;" x="217.278993" xlink:href="#C0_0_a6db4ec645" y="99.945325"/>
    </g>
    <g clip-path="url(#pbb1322564b)">
     <use style="fill:#3b4cc0;stroke:#3b4cc0;" x="184.047025" xlink:href="#C0_0_a6db4ec645" y="191.099421"/>
    </g>
    <g clip-path="url(#pbb1322564b)">
     <use style="fill:#b40426;stroke:#b40426;" x="228.242837" xlink:href="#C0_0_a6db4ec645" y="109.896456"/>
    </g>
    <g clip-path="url(#pbb1322564b)">
     <use style="fill:#3b4cc0;stroke:#3b4cc0;" x="189.03974" xlink:href="#C0_0_a6db4ec645" y="163.416928"/>
    </g>
    <g clip-path="url(#pbb1322564b)">
     <use style="fill:#3b4cc0;stroke:#3b4cc0;" x="271.028852" xlink:href="#C0_0_a6db4ec645" y="190.913613"/>
    </g>
    <g clip-path="url(#pbb1322564b)">
     <use style="fill:#3b4cc0;stroke:#3b4cc0;" x="167.728528" xlink:href="#C0_0_a6db4ec645" y="124.069008"/>
    </g>
    <g clip-path="url(#pbb1322564b)">
     <use style="fill:#3b4cc0;stroke:#3b4cc0;" x="202.590519" xlink:href="#C0_0_a6db4ec645" y="152.162534"/>
    </g>
    <g clip-path="url(#pbb1322564b)">
     <use style="fill:#b40426;stroke:#b40426;" x="239.78203" xlink:href="#C0_0_a6db4ec645" y="168.443817"/>
    </g>
    <g clip-path="url(#pbb1322564b)">
     <use style="fill:#3b4cc0;stroke:#3b4cc0;" x="274.933947" xlink:href="#C0_0_a6db4ec645" y="181.105854"/>
    </g>
    <g clip-path="url(#pbb1322564b)">
     <use style="fill:#b40426;stroke:#b40426;" x="269.03395" xlink:href="#C0_0_a6db4ec645" y="99.473254"/>
    </g>
    <g clip-path="url(#pbb1322564b)">
     <use style="fill:#b40426;stroke:#b40426;" x="193.596994" xlink:href="#C0_0_a6db4ec645" y="188.166286"/>
    </g>
    <g clip-path="url(#pbb1322564b)">
     <use style="fill:#3b4cc0;stroke:#3b4cc0;" x="266.390215" xlink:href="#C0_0_a6db4ec645" y="153.571618"/>
    </g>
    <g clip-path="url(#pbb1322564b)">
     <use style="fill:#3b4cc0;stroke:#3b4cc0;" x="268.220611" xlink:href="#C0_0_a6db4ec645" y="176.545152"/>
    </g>
    <g clip-path="url(#pbb1322564b)">
     <use style="fill:#b40426;stroke:#b40426;" x="167.574292" xlink:href="#C0_0_a6db4ec645" y="109.737282"/>
    </g>
    <g clip-path="url(#pbb1322564b)">
     <use style="fill:#b40426;stroke:#b40426;" x="183.048491" xlink:href="#C0_0_a6db4ec645" y="174.548494"/>
    </g>
   </g>
   <g id="matplotlib.axis_1">
    <g id="xtick_1">
     <g id="line2d_1">
      <defs>
       <path d="M 0 0 
L 0 3.5 
" id="mb6f8e3bf17" style="stroke:#000000;stroke-width:0.8;"/>
      </defs>
      <g>
       <use style="stroke:#000000;stroke-width:0.8;" x="58.32" xlink:href="#mb6f8e3bf17" y="252"/>
      </g>
     </g>
     <g id="text_1">
      <!-- −1.0 -->
      <defs>
       <path d="M 10.59375 35.5 
L 73.1875 35.5 
L 73.1875 27.203125 
L 10.59375 27.203125 
z
" id="DejaVuSans-2212"/>
       <path d="M 12.40625 8.296875 
L 28.515625 8.296875 
L 28.515625 63.921875 
L 10.984375 60.40625 
L 10.984375 69.390625 
L 28.421875 72.90625 
L 38.28125 72.90625 
L 38.28125 8.296875 
L 54.390625 8.296875 
L 54.390625 0 
L 12.40625 0 
z
" id="DejaVuSans-31"/>
       <path d="M 10.6875 12.40625 
L 21 12.40625 
L 21 0 
L 10.6875 0 
z
" id="DejaVuSans-2e"/>
       <path d="M 31.78125 66.40625 
Q 24.171875 66.40625 20.328125 58.90625 
Q 16.5 51.421875 16.5 36.375 
Q 16.5 21.390625 20.328125 13.890625 
Q 24.171875 6.390625 31.78125 6.390625 
Q 39.453125 6.390625 43.28125 13.890625 
Q 47.125 21.390625 47.125 36.375 
Q 47.125 51.421875 43.28125 58.90625 
Q 39.453125 66.40625 31.78125 66.40625 
z
M 31.78125 74.21875 
Q 44.046875 74.21875 50.515625 64.515625 
Q 56.984375 54.828125 56.984375 36.375 
Q 56.984375 17.96875 50.515625 8.265625 
Q 44.046875 -1.421875 31.78125 -1.421875 
Q 19.53125 -1.421875 13.0625 8.265625 
Q 6.59375 17.96875 6.59375 36.375 
Q 6.59375 54.828125 13.0625 64.515625 
Q 19.53125 74.21875 31.78125 74.21875 
z
" id="DejaVuSans-30"/>
      </defs>
      <g transform="translate(46.178594 266.598437)scale(0.1 -0.1)">
       <use xlink:href="#DejaVuSans-2212"/>
       <use x="83.789062" xlink:href="#DejaVuSans-31"/>
       <use x="147.412109" xlink:href="#DejaVuSans-2e"/>
       <use x="179.199219" xlink:href="#DejaVuSans-30"/>
      </g>
     </g>
    </g>
    <g id="xtick_2">
     <g id="line2d_2">
      <g>
       <use style="stroke:#000000;stroke-width:0.8;" x="112.68" xlink:href="#mb6f8e3bf17" y="252"/>
      </g>
     </g>
     <g id="text_2">
      <!-- −0.5 -->
      <defs>
       <path d="M 10.796875 72.90625 
L 49.515625 72.90625 
L 49.515625 64.59375 
L 19.828125 64.59375 
L 19.828125 46.734375 
Q 21.96875 47.46875 24.109375 47.828125 
Q 26.265625 48.1875 28.421875 48.1875 
Q 40.625 48.1875 47.75 41.5 
Q 54.890625 34.8125 54.890625 23.390625 
Q 54.890625 11.625 47.5625 5.09375 
Q 40.234375 -1.421875 26.90625 -1.421875 
Q 22.3125 -1.421875 17.546875 -0.640625 
Q 12.796875 0.140625 7.71875 1.703125 
L 7.71875 11.625 
Q 12.109375 9.234375 16.796875 8.0625 
Q 21.484375 6.890625 26.703125 6.890625 
Q 35.15625 6.890625 40.078125 11.328125 
Q 45.015625 15.765625 45.015625 23.390625 
Q 45.015625 31 40.078125 35.4375 
Q 35.15625 39.890625 26.703125 39.890625 
Q 22.75 39.890625 18.8125 39.015625 
Q 14.890625 38.140625 10.796875 36.28125 
z
" id="DejaVuSans-35"/>
      </defs>
      <g transform="translate(100.538594 266.598437)scale(0.1 -0.1)">
       <use xlink:href="#DejaVuSans-2212"/>
       <use x="83.789062" xlink:href="#DejaVuSans-30"/>
       <use x="147.412109" xlink:href="#DejaVuSans-2e"/>
       <use x="179.199219" xlink:href="#DejaVuSans-35"/>
      </g>
     </g>
    </g>
    <g id="xtick_3">
     <g id="line2d_3">
      <g>
       <use style="stroke:#000000;stroke-width:0.8;" x="167.04" xlink:href="#mb6f8e3bf17" y="252"/>
      </g>
     </g>
     <g id="text_3">
      <!-- 0.0 -->
      <g transform="translate(159.088438 266.598437)scale(0.1 -0.1)">
       <use xlink:href="#DejaVuSans-30"/>
       <use x="63.623047" xlink:href="#DejaVuSans-2e"/>
       <use x="95.410156" xlink:href="#DejaVuSans-30"/>
      </g>
     </g>
    </g>
    <g id="xtick_4">
     <g id="line2d_4">
      <g>
       <use style="stroke:#000000;stroke-width:0.8;" x="221.4" xlink:href="#mb6f8e3bf17" y="252"/>
      </g>
     </g>
     <g id="text_4">
      <!-- 0.5 -->
      <g transform="translate(213.448438 266.598437)scale(0.1 -0.1)">
       <use xlink:href="#DejaVuSans-30"/>
       <use x="63.623047" xlink:href="#DejaVuSans-2e"/>
       <use x="95.410156" xlink:href="#DejaVuSans-35"/>
      </g>
     </g>
    </g>
    <g id="xtick_5">
     <g id="line2d_5">
      <g>
       <use style="stroke:#000000;stroke-width:0.8;" x="275.76" xlink:href="#mb6f8e3bf17" y="252"/>
      </g>
     </g>
     <g id="text_5">
      <!-- 1.0 -->
      <g transform="translate(267.808437 266.598437)scale(0.1 -0.1)">
       <use xlink:href="#DejaVuSans-31"/>
       <use x="63.623047" xlink:href="#DejaVuSans-2e"/>
       <use x="95.410156" xlink:href="#DejaVuSans-30"/>
      </g>
     </g>
    </g>
    <g id="xtick_6">
     <g id="line2d_6">
      <g>
       <use style="stroke:#000000;stroke-width:0.8;" x="330.12" xlink:href="#mb6f8e3bf17" y="252"/>
      </g>
     </g>
     <g id="text_6">
      <!-- 1.5 -->
      <g transform="translate(322.168437 266.598437)scale(0.1 -0.1)">
       <use xlink:href="#DejaVuSans-31"/>
       <use x="63.623047" xlink:href="#DejaVuSans-2e"/>
       <use x="95.410156" xlink:href="#DejaVuSans-35"/>
      </g>
     </g>
    </g>
    <g id="xtick_7">
     <g id="line2d_7">
      <g>
       <use style="stroke:#000000;stroke-width:0.8;" x="384.48" xlink:href="#mb6f8e3bf17" y="252"/>
      </g>
     </g>
     <g id="text_7">
      <!-- 2.0 -->
      <defs>
       <path d="M 19.1875 8.296875 
L 53.609375 8.296875 
L 53.609375 0 
L 7.328125 0 
L 7.328125 8.296875 
Q 12.9375 14.109375 22.625 23.890625 
Q 32.328125 33.6875 34.8125 36.53125 
Q 39.546875 41.84375 41.421875 45.53125 
Q 43.3125 49.21875 43.3125 52.78125 
Q 43.3125 58.59375 39.234375 62.25 
Q 35.15625 65.921875 28.609375 65.921875 
Q 23.96875 65.921875 18.8125 64.3125 
Q 13.671875 62.703125 7.8125 59.421875 
L 7.8125 69.390625 
Q 13.765625 71.78125 18.9375 73 
Q 24.125 74.21875 28.421875 74.21875 
Q 39.75 74.21875 46.484375 68.546875 
Q 53.21875 62.890625 53.21875 53.421875 
Q 53.21875 48.921875 51.53125 44.890625 
Q 49.859375 40.875 45.40625 35.40625 
Q 44.1875 33.984375 37.640625 27.21875 
Q 31.109375 20.453125 19.1875 8.296875 
z
" id="DejaVuSans-32"/>
      </defs>
      <g transform="translate(376.528437 266.598437)scale(0.1 -0.1)">
       <use xlink:href="#DejaVuSans-32"/>
       <use x="63.623047" xlink:href="#DejaVuSans-2e"/>
       <use x="95.410156" xlink:href="#DejaVuSans-30"/>
      </g>
     </g>
    </g>
   </g>
   <g id="matplotlib.axis_2">
    <g id="ytick_1">
     <g id="line2d_8">
      <defs>
       <path d="M 0 0 
L -3.5 0 
" id="m6fbddafdd3" style="stroke:#000000;stroke-width:0.8;"/>
      </defs>
      <g>
       <use style="stroke:#000000;stroke-width:0.8;" x="54" xlink:href="#m6fbddafdd3" y="252"/>
      </g>
     </g>
     <g id="text_8">
      <!-- −0.50 -->
      <g transform="translate(16.354687 255.799219)scale(0.1 -0.1)">
       <use xlink:href="#DejaVuSans-2212"/>
       <use x="83.789062" xlink:href="#DejaVuSans-30"/>
       <use x="147.412109" xlink:href="#DejaVuSans-2e"/>
       <use x="179.199219" xlink:href="#DejaVuSans-35"/>
       <use x="242.822266" xlink:href="#DejaVuSans-30"/>
      </g>
     </g>
    </g>
    <g id="ytick_2">
     <g id="line2d_9">
      <g>
       <use style="stroke:#000000;stroke-width:0.8;" x="54" xlink:href="#m6fbddafdd3" y="224.82"/>
      </g>
     </g>
     <g id="text_9">
      <!-- −0.25 -->
      <g transform="translate(16.354687 228.619219)scale(0.1 -0.1)">
       <use xlink:href="#DejaVuSans-2212"/>
       <use x="83.789062" xlink:href="#DejaVuSans-30"/>
       <use x="147.412109" xlink:href="#DejaVuSans-2e"/>
       <use x="179.199219" xlink:href="#DejaVuSans-32"/>
       <use x="242.822266" xlink:href="#DejaVuSans-35"/>
      </g>
     </g>
    </g>
    <g id="ytick_3">
     <g id="line2d_10">
      <g>
       <use style="stroke:#000000;stroke-width:0.8;" x="54" xlink:href="#m6fbddafdd3" y="197.64"/>
      </g>
     </g>
     <g id="text_10">
      <!-- 0.00 -->
      <g transform="translate(24.734375 201.439219)scale(0.1 -0.1)">
       <use xlink:href="#DejaVuSans-30"/>
       <use x="63.623047" xlink:href="#DejaVuSans-2e"/>
       <use x="95.410156" xlink:href="#DejaVuSans-30"/>
       <use x="159.033203" xlink:href="#DejaVuSans-30"/>
      </g>
     </g>
    </g>
    <g id="ytick_4">
     <g id="line2d_11">
      <g>
       <use style="stroke:#000000;stroke-width:0.8;" x="54" xlink:href="#m6fbddafdd3" y="170.46"/>
      </g>
     </g>
     <g id="text_11">
      <!-- 0.25 -->
      <g transform="translate(24.734375 174.259219)scale(0.1 -0.1)">
       <use xlink:href="#DejaVuSans-30"/>
       <use x="63.623047" xlink:href="#DejaVuSans-2e"/>
       <use x="95.410156" xlink:href="#DejaVuSans-32"/>
       <use x="159.033203" xlink:href="#DejaVuSans-35"/>
      </g>
     </g>
    </g>
    <g id="ytick_5">
     <g id="line2d_12">
      <g>
       <use style="stroke:#000000;stroke-width:0.8;" x="54" xlink:href="#m6fbddafdd3" y="143.28"/>
      </g>
     </g>
     <g id="text_12">
      <!-- 0.50 -->
      <g transform="translate(24.734375 147.079219)scale(0.1 -0.1)">
       <use xlink:href="#DejaVuSans-30"/>
       <use x="63.623047" xlink:href="#DejaVuSans-2e"/>
       <use x="95.410156" xlink:href="#DejaVuSans-35"/>
       <use x="159.033203" xlink:href="#DejaVuSans-30"/>
      </g>
     </g>
    </g>
    <g id="ytick_6">
     <g id="line2d_13">
      <g>
       <use style="stroke:#000000;stroke-width:0.8;" x="54" xlink:href="#m6fbddafdd3" y="116.1"/>
      </g>
     </g>
     <g id="text_13">
      <!-- 0.75 -->
      <defs>
       <path d="M 8.203125 72.90625 
L 55.078125 72.90625 
L 55.078125 68.703125 
L 28.609375 0 
L 18.3125 0 
L 43.21875 64.59375 
L 8.203125 64.59375 
z
" id="DejaVuSans-37"/>
      </defs>
      <g transform="translate(24.734375 119.899219)scale(0.1 -0.1)">
       <use xlink:href="#DejaVuSans-30"/>
       <use x="63.623047" xlink:href="#DejaVuSans-2e"/>
       <use x="95.410156" xlink:href="#DejaVuSans-37"/>
       <use x="159.033203" xlink:href="#DejaVuSans-35"/>
      </g>
     </g>
    </g>
    <g id="ytick_7">
     <g id="line2d_14">
      <g>
       <use style="stroke:#000000;stroke-width:0.8;" x="54" xlink:href="#m6fbddafdd3" y="88.92"/>
      </g>
     </g>
     <g id="text_14">
      <!-- 1.00 -->
      <g transform="translate(24.734375 92.719219)scale(0.1 -0.1)">
       <use xlink:href="#DejaVuSans-31"/>
       <use x="63.623047" xlink:href="#DejaVuSans-2e"/>
       <use x="95.410156" xlink:href="#DejaVuSans-30"/>
       <use x="159.033203" xlink:href="#DejaVuSans-30"/>
      </g>
     </g>
    </g>
    <g id="ytick_8">
     <g id="line2d_15">
      <g>
       <use style="stroke:#000000;stroke-width:0.8;" x="54" xlink:href="#m6fbddafdd3" y="61.74"/>
      </g>
     </g>
     <g id="text_15">
      <!-- 1.25 -->
      <g transform="translate(24.734375 65.539219)scale(0.1 -0.1)">
       <use xlink:href="#DejaVuSans-31"/>
       <use x="63.623047" xlink:href="#DejaVuSans-2e"/>
       <use x="95.410156" xlink:href="#DejaVuSans-32"/>
       <use x="159.033203" xlink:href="#DejaVuSans-35"/>
      </g>
     </g>
    </g>
    <g id="ytick_9">
     <g id="line2d_16">
      <g>
       <use style="stroke:#000000;stroke-width:0.8;" x="54" xlink:href="#m6fbddafdd3" y="34.56"/>
      </g>
     </g>
     <g id="text_16">
      <!-- 1.50 -->
      <g transform="translate(24.734375 38.359219)scale(0.1 -0.1)">
       <use xlink:href="#DejaVuSans-31"/>
       <use x="63.623047" xlink:href="#DejaVuSans-2e"/>
       <use x="95.410156" xlink:href="#DejaVuSans-35"/>
       <use x="159.033203" xlink:href="#DejaVuSans-30"/>
      </g>
     </g>
    </g>
   </g>
   <g id="line2d_17">
    <path clip-path="url(#pbb1322564b)" d="M 266.425455 249.974099 
L 267.347604 252 
L 330.12 252 
L 330.12 119.2306 
L 316.941818 117.660439 
L 281.8 115.128553 
L 279.603636 115.937118 
L 259.19962 144.378182 
L 257.64 147.294115 
L 243.719772 181.716364 
L 242.265455 183.226103 
L 145.176074 74.094545 
L 123.520656 49.934545 
L 121.465455 47.399982 
L 112.837276 34.56 
L 112.68 34.56 
L 112.68 149.064317 
L 132.447273 147.390374 
L 134.643636 147.362932 
L 248.854545 211.892291 
L 249.048272 212.465455 
L 250.01646 214.661818 
L 251.050909 216.108381 
L 266.425455 249.974099 
L 266.425455 249.974099 
" style="fill:none;stroke:#1f77b4;stroke-dasharray:5.55,2.4;stroke-dashoffset:0;stroke-width:1.5;"/>
   </g>
   <g id="line2d_18">
    <path clip-path="url(#pbb1322564b)" d="M 290.585455 249.999682 
L 292.176844 252 
L 330.12 252 
L 330.12 236.355165 
L 295.861023 168.538182 
L 246.658182 89.716469 
L 245.278894 89.469091 
L 244.779741 87.272727 
L 244.461818 86.68101 
L 244.236781 87.272727 
L 250.483489 181.716364 
L 250.247475 183.912727 
L 248.854545 184.852192 
L 165.781252 93.861818 
L 161 88.103091 
L 133.166249 54.327273 
L 117.0051 34.56 
L 112.68 34.56 
L 112.68 141.084332 
L 169.785455 166.6862 
L 181.16895 172.930909 
L 251.050909 211.429807 
L 255.443636 213.441422 
L 264.229091 217.311562 
L 265.584637 219.054545 
L 266.425455 219.640431 
L 290.585455 249.999682 
L 290.585455 249.999682 
" style="fill:none;stroke:#ff7f0e;stroke-dasharray:5.55,2.4;stroke-dashoffset:0;stroke-width:1.5;"/>
   </g>
   <g id="line2d_19">
    <path clip-path="url(#pbb1322564b)" d="M 176.374545 252 
L 330.12 252 
L 330.12 113.467945 
L 290.039439 142.181818 
L 288.389091 143.065149 
L 286.192727 144.693494 
L 283.996364 145.88846 
L 283.097855 146.574545 
L 235.498085 175.127273 
L 233.48 175.895076 
L 230.973967 177.323636 
L 215.909091 181.425415 
L 215.134206 181.716364 
L 213.712727 183.111816 
L 204.61313 203.68 
L 203.580437 205.876364 
L 202.730909 208.246603 
L 201.345521 210.269091 
L 200.534545 212.614941 
L 199.068872 214.661818 
L 197.825681 216.858182 
L 175.09007 252 
L 176.374545 252 
L 176.374545 252 
" style="fill:none;stroke:#2ca02c;stroke-dasharray:5.55,2.4;stroke-dashoffset:0;stroke-width:1.5;"/>
   </g>
   <g id="line2d_20">
    <path clip-path="url(#pbb1322564b)" d="M 158.803636 252 
L 330.12 252 
L 330.12 46.401059 
L 327.923636 47.361581 
L 326.427483 47.738182 
L 325.727273 48.438393 
L 323.530909 49.550679 
L 321.935124 49.934545 
L 321.334545 50.535124 
L 319.138182 51.742355 
L 317.458126 52.130909 
L 316.941818 52.647217 
L 314.745455 53.933912 
L 312.971812 54.327273 
L 312.549091 54.749994 
L 310.352727 56.125354 
L 308.474339 56.523636 
L 308.156364 56.841611 
L 305.96 58.31667 
L 303.96371 58.72 
L 303.763636 58.920073 
L 301.567273 60.507853 
L 299.370909 60.982833 
L 297.174545 62.698901 
L 294.958743 63.112727 
L 292.781818 64.889812 
L 290.530553 65.309091 
L 288.389091 67.080577 
L 286.102396 67.505455 
L 283.996364 69.271194 
L 281.674199 69.701818 
L 279.603636 71.461648 
L 277.246029 71.898182 
L 275.210909 73.651936 
L 272.817833 74.094545 
L 270.818182 75.842054 
L 268.389635 76.290909 
L 266.425455 78.031996 
L 263.961459 78.487273 
L 262.032727 80.221749 
L 259.533295 80.683636 
L 257.64 82.41131 
L 255.443636 82.712093 
L 255.105112 82.88 
L 253.247273 84.600669 
L 251.050909 84.890867 
L 250.676919 85.076364 
L 248.854545 86.78981 
L 246.658182 87.069637 
L 246.248724 87.272727 
L 244.461818 88.978729 
L 242.265455 89.248421 
L 241.820555 89.469091 
L 240.069091 91.167421 
L 237.872727 91.427194 
L 237.39236 91.665455 
L 235.676364 93.355862 
L 233.48 93.610472 
L 232.972054 93.861818 
L 231.283636 95.54405 
L 229.087273 95.801635 
L 228.565384 96.058182 
L 226.890909 97.731969 
L 224.694545 97.995517 
L 224.16324 98.254545 
L 222.498182 99.919603 
L 220.301818 100.189754 
L 219.761488 100.450909 
L 218.105455 102.106943 
L 215.909091 102.246311 
L 214.50282 102.647273 
L 213.712727 103.139906 
L 211.516364 103.591348 
L 207.123636 104.902807 
L 191.749091 109.765629 
L 189.552727 110.171235 
L 165.392727 113.144655 
L 163.196364 112.386727 
L 157.152362 109.236364 
L 143.429091 102.119211 
L 123.661818 86.430098 
L 119.269091 82.878078 
L 112.68 76.912152 
L 112.68 164.311649 
L 119.269091 163.890544 
L 134.643636 164.168964 
L 136.84 164.212229 
L 141.232727 164.596192 
L 209.32 171.480052 
L 211.516364 171.378145 
L 212.343784 170.734545 
L 207.901155 135.592727 
L 207.847021 133.396364 
L 208.386892 131.2 
L 215.909091 109.52554 
L 218.105455 106.85034 
L 286.192727 95.641204 
L 286.590404 96.058182 
L 286.7166 98.254545 
L 284.962447 102.647273 
L 282.402829 109.236364 
L 277.23742 122.414545 
L 267.727174 146.574545 
L 266.425455 148.831829 
L 249.734039 172.930909 
L 248.854545 173.282078 
L 244.461818 174.818442 
L 243.61751 175.127273 
L 235.676364 176.554697 
L 224.694545 178.691401 
L 222.875582 179.52 
L 222.498182 179.904797 
L 218.105455 185.239192 
L 217.236026 186.109091 
L 213.970448 190.501818 
L 211.516364 193.551392 
L 210.187153 194.894545 
L 209.32 196.035736 
L 208.265463 197.090909 
L 207.123636 198.759847 
L 206.596675 199.287273 
L 204.927273 201.73935 
L 202.730909 204.347394 
L 201.202709 205.876364 
L 200.534545 206.783485 
L 199.246182 208.072727 
L 198.338182 209.485724 
L 197.555645 210.269091 
L 196.141818 212.656624 
L 190.156044 219.054545 
L 189.552727 220.079804 
L 188.379666 221.250909 
L 187.356364 223.540645 
L 178.752815 232.232727 
L 178.570909 232.614458 
L 157.753965 252 
L 158.803636 252 
L 158.803636 252 
" style="fill:none;stroke:#d62728;stroke-dasharray:5.55,2.4;stroke-dashoffset:0;stroke-width:1.5;"/>
   </g>
   <g id="line2d_21">
    <path clip-path="url(#pbb1322564b)" d="M 185.16 252 
L 330.12 252 
L 330.12 48.277357 
L 321.334545 52.452883 
L 247.551162 87.272727 
L 242.265455 89.85443 
L 225.015301 98.254545 
L 224.694545 98.462729 
L 222.498182 99.211531 
L 218.105455 100.916456 
L 215.909091 101.363173 
L 156.607273 116.819767 
L 153.319721 118.021818 
L 112.68 135.999796 
L 112.68 148.569057 
L 198.338182 177.844285 
L 200.115768 177.323636 
L 200.534545 176.880536 
L 232.197051 102.647273 
L 233.48 102.124127 
L 235.676364 101.564281 
L 280.190928 98.254545 
L 288.389091 97.646058 
L 289.621375 98.254545 
L 291.524338 100.450909 
L 300.435001 111.432727 
L 301.567273 113.632925 
L 213.712727 195.25369 
L 212.593117 197.090909 
L 210.27596 205.876364 
L 209.32 209.191526 
L 208.911829 210.269091 
L 197.95173 230.036364 
L 195.15869 234.429091 
L 184.775721 249.803636 
L 183.198389 252 
L 185.16 252 
L 185.16 252 
" style="fill:none;stroke:#9467bd;stroke-dasharray:5.55,2.4;stroke-dashoffset:0;stroke-width:1.5;"/>
   </g>
   <g id="line2d_22">
    <path clip-path="url(#pbb1322564b)" d="M 174.178182 252 
L 330.12 252 
L 330.12 34.56 
L 246.706141 34.56 
L 239.061847 78.487273 
L 236.346812 93.861818 
L 235.867484 96.058182 
L 237.872727 97.439645 
L 240.069091 97.675712 
L 288.389091 98.466549 
L 297.174545 98.747117 
L 299.370909 99.270258 
L 302.090922 100.450909 
L 321.334545 111.540816 
L 323.854534 113.629091 
L 255.443636 142.565726 
L 253.247273 142.787982 
L 252.231667 144.378182 
L 252.626235 146.574545 
L 254.676581 172.930909 
L 253.247273 174.716815 
L 250.477409 175.127273 
L 222.498182 177.227569 
L 222.415708 177.323636 
L 198.338182 209.354066 
L 197.795655 210.269091 
L 190.504281 227.84 
L 189.552727 230.868076 
L 189.240676 232.232727 
L 188.472514 234.429091 
L 186.962537 236.625455 
L 172.698349 252 
L 174.178182 252 
L 174.178182 252 
" style="fill:none;stroke:#8c564b;stroke-dasharray:5.55,2.4;stroke-dashoffset:0;stroke-width:1.5;"/>
   </g>
   <g id="line2d_23">
    <path clip-path="url(#pbb1322564b)" d="M 193.945455 252 
L 330.12 252 
L 330.12 77.235641 
L 308.156364 83.016663 
L 305.96 83.808722 
L 304.353778 85.076364 
L 248.854545 171.67274 
L 246.658182 172.714104 
L 242.265455 172.738977 
L 229.087273 172.592999 
L 227.782457 172.930909 
L 226.890909 173.379896 
L 226.315351 172.930909 
L 226.073233 170.734545 
L 225.701183 168.538182 
L 225.178099 166.341818 
L 224.694545 165.430512 
L 222.498182 165.373908 
L 220.301818 165.62256 
L 219.525904 166.341818 
L 218.700313 179.52 
L 218.105455 184.075002 
L 216.727155 186.109091 
L 215.883622 188.305455 
L 212.143364 194.894545 
L 211.196116 197.090909 
L 201.565112 221.250909 
L 198.706075 227.84 
L 196.141818 234.797612 
L 195.126958 238.821818 
L 193.24442 247.607273 
L 192.32167 252 
L 193.945455 252 
L 193.945455 252 
" style="fill:none;stroke:#e377c2;stroke-dasharray:5.55,2.4;stroke-dashoffset:0;stroke-width:1.5;"/>
   </g>
   <g id="patch_3">
    <path d="M 54 252 
L 54 34.56 
" style="fill:none;stroke:#000000;stroke-linecap:square;stroke-linejoin:miter;stroke-width:0.8;"/>
   </g>
   <g id="patch_4">
    <path d="M 388.8 252 
L 388.8 34.56 
" style="fill:none;stroke:#000000;stroke-linecap:square;stroke-linejoin:miter;stroke-width:0.8;"/>
   </g>
   <g id="patch_5">
    <path d="M 54 252 
L 388.8 252 
" style="fill:none;stroke:#000000;stroke-linecap:square;stroke-linejoin:miter;stroke-width:0.8;"/>
   </g>
   <g id="patch_6">
    <path d="M 54 34.56 
L 388.8 34.56 
" style="fill:none;stroke:#000000;stroke-linecap:square;stroke-linejoin:miter;stroke-width:0.8;"/>
   </g>
   <g id="legend_1">
    <g id="patch_7">
     <path d="M 61 247 
L 158.046875 247 
Q 160.046875 247 160.046875 245 
L 160.046875 143.253125 
Q 160.046875 141.253125 158.046875 141.253125 
L 61 141.253125 
Q 59 141.253125 59 143.253125 
L 59 245 
Q 59 247 61 247 
z
" style="fill:#ffffff;opacity:0.8;stroke:#cccccc;stroke-linejoin:miter;"/>
    </g>
    <g id="line2d_24">
     <path d="M 63 149.351562 
L 83 149.351562 
" style="fill:none;stroke:#1f77b4;stroke-dasharray:5.55,2.4;stroke-dashoffset:0;stroke-width:1.5;"/>
    </g>
    <g id="line2d_25"/>
    <g id="text_17">
     <!-- [2, 10, 2, 2] -->
     <defs>
      <path d="M 8.59375 75.984375 
L 29.296875 75.984375 
L 29.296875 69 
L 17.578125 69 
L 17.578125 -6.203125 
L 29.296875 -6.203125 
L 29.296875 -13.1875 
L 8.59375 -13.1875 
z
" id="DejaVuSans-5b"/>
      <path d="M 11.71875 12.40625 
L 22.015625 12.40625 
L 22.015625 4 
L 14.015625 -11.625 
L 7.71875 -11.625 
L 11.71875 4 
z
" id="DejaVuSans-2c"/>
      <path id="DejaVuSans-20"/>
      <path d="M 30.421875 75.984375 
L 30.421875 -13.1875 
L 9.71875 -13.1875 
L 9.71875 -6.203125 
L 21.390625 -6.203125 
L 21.390625 69 
L 9.71875 69 
L 9.71875 75.984375 
z
" id="DejaVuSans-5d"/>
     </defs>
     <g transform="translate(91 152.851562)scale(0.1 -0.1)">
      <use xlink:href="#DejaVuSans-5b"/>
      <use x="39.013672" xlink:href="#DejaVuSans-32"/>
      <use x="102.636719" xlink:href="#DejaVuSans-2c"/>
      <use x="134.423828" xlink:href="#DejaVuSans-20"/>
      <use x="166.210938" xlink:href="#DejaVuSans-31"/>
      <use x="229.833984" xlink:href="#DejaVuSans-30"/>
      <use x="293.457031" xlink:href="#DejaVuSans-2c"/>
      <use x="325.244141" xlink:href="#DejaVuSans-20"/>
      <use x="357.03125" xlink:href="#DejaVuSans-32"/>
      <use x="420.654297" xlink:href="#DejaVuSans-2c"/>
      <use x="452.441406" xlink:href="#DejaVuSans-20"/>
      <use x="484.228516" xlink:href="#DejaVuSans-32"/>
      <use x="547.851562" xlink:href="#DejaVuSans-5d"/>
     </g>
    </g>
    <g id="line2d_26">
     <path d="M 63 164.029688 
L 83 164.029688 
" style="fill:none;stroke:#ff7f0e;stroke-dasharray:5.55,2.4;stroke-dashoffset:0;stroke-width:1.5;"/>
    </g>
    <g id="line2d_27"/>
    <g id="text_18">
     <!-- [2, 10, 3, 2] -->
     <defs>
      <path d="M 40.578125 39.3125 
Q 47.65625 37.796875 51.625 33 
Q 55.609375 28.21875 55.609375 21.1875 
Q 55.609375 10.40625 48.1875 4.484375 
Q 40.765625 -1.421875 27.09375 -1.421875 
Q 22.515625 -1.421875 17.65625 -0.515625 
Q 12.796875 0.390625 7.625 2.203125 
L 7.625 11.71875 
Q 11.71875 9.328125 16.59375 8.109375 
Q 21.484375 6.890625 26.8125 6.890625 
Q 36.078125 6.890625 40.9375 10.546875 
Q 45.796875 14.203125 45.796875 21.1875 
Q 45.796875 27.640625 41.28125 31.265625 
Q 36.765625 34.90625 28.71875 34.90625 
L 20.21875 34.90625 
L 20.21875 43.015625 
L 29.109375 43.015625 
Q 36.375 43.015625 40.234375 45.921875 
Q 44.09375 48.828125 44.09375 54.296875 
Q 44.09375 59.90625 40.109375 62.90625 
Q 36.140625 65.921875 28.71875 65.921875 
Q 24.65625 65.921875 20.015625 65.03125 
Q 15.375 64.15625 9.8125 62.3125 
L 9.8125 71.09375 
Q 15.4375 72.65625 20.34375 73.4375 
Q 25.25 74.21875 29.59375 74.21875 
Q 40.828125 74.21875 47.359375 69.109375 
Q 53.90625 64.015625 53.90625 55.328125 
Q 53.90625 49.265625 50.4375 45.09375 
Q 46.96875 40.921875 40.578125 39.3125 
z
" id="DejaVuSans-33"/>
     </defs>
     <g transform="translate(91 167.529688)scale(0.1 -0.1)">
      <use xlink:href="#DejaVuSans-5b"/>
      <use x="39.013672" xlink:href="#DejaVuSans-32"/>
      <use x="102.636719" xlink:href="#DejaVuSans-2c"/>
      <use x="134.423828" xlink:href="#DejaVuSans-20"/>
      <use x="166.210938" xlink:href="#DejaVuSans-31"/>
      <use x="229.833984" xlink:href="#DejaVuSans-30"/>
      <use x="293.457031" xlink:href="#DejaVuSans-2c"/>
      <use x="325.244141" xlink:href="#DejaVuSans-20"/>
      <use x="357.03125" xlink:href="#DejaVuSans-33"/>
      <use x="420.654297" xlink:href="#DejaVuSans-2c"/>
      <use x="452.441406" xlink:href="#DejaVuSans-20"/>
      <use x="484.228516" xlink:href="#DejaVuSans-32"/>
      <use x="547.851562" xlink:href="#DejaVuSans-5d"/>
     </g>
    </g>
    <g id="line2d_28">
     <path d="M 63 178.707812 
L 83 178.707812 
" style="fill:none;stroke:#2ca02c;stroke-dasharray:5.55,2.4;stroke-dashoffset:0;stroke-width:1.5;"/>
    </g>
    <g id="line2d_29"/>
    <g id="text_19">
     <!-- [2, 10, 5, 2] -->
     <g transform="translate(91 182.207812)scale(0.1 -0.1)">
      <use xlink:href="#DejaVuSans-5b"/>
      <use x="39.013672" xlink:href="#DejaVuSans-32"/>
      <use x="102.636719" xlink:href="#DejaVuSans-2c"/>
      <use x="134.423828" xlink:href="#DejaVuSans-20"/>
      <use x="166.210938" xlink:href="#DejaVuSans-31"/>
      <use x="229.833984" xlink:href="#DejaVuSans-30"/>
      <use x="293.457031" xlink:href="#DejaVuSans-2c"/>
      <use x="325.244141" xlink:href="#DejaVuSans-20"/>
      <use x="357.03125" xlink:href="#DejaVuSans-35"/>
      <use x="420.654297" xlink:href="#DejaVuSans-2c"/>
      <use x="452.441406" xlink:href="#DejaVuSans-20"/>
      <use x="484.228516" xlink:href="#DejaVuSans-32"/>
      <use x="547.851562" xlink:href="#DejaVuSans-5d"/>
     </g>
    </g>
    <g id="line2d_30">
     <path d="M 63 193.385938 
L 83 193.385938 
" style="fill:none;stroke:#d62728;stroke-dasharray:5.55,2.4;stroke-dashoffset:0;stroke-width:1.5;"/>
    </g>
    <g id="line2d_31"/>
    <g id="text_20">
     <!-- [2, 10, 7, 2] -->
     <g transform="translate(91 196.885938)scale(0.1 -0.1)">
      <use xlink:href="#DejaVuSans-5b"/>
      <use x="39.013672" xlink:href="#DejaVuSans-32"/>
      <use x="102.636719" xlink:href="#DejaVuSans-2c"/>
      <use x="134.423828" xlink:href="#DejaVuSans-20"/>
      <use x="166.210938" xlink:href="#DejaVuSans-31"/>
      <use x="229.833984" xlink:href="#DejaVuSans-30"/>
      <use x="293.457031" xlink:href="#DejaVuSans-2c"/>
      <use x="325.244141" xlink:href="#DejaVuSans-20"/>
      <use x="357.03125" xlink:href="#DejaVuSans-37"/>
      <use x="420.654297" xlink:href="#DejaVuSans-2c"/>
      <use x="452.441406" xlink:href="#DejaVuSans-20"/>
      <use x="484.228516" xlink:href="#DejaVuSans-32"/>
      <use x="547.851562" xlink:href="#DejaVuSans-5d"/>
     </g>
    </g>
    <g id="line2d_32">
     <path d="M 63 208.064063 
L 83 208.064063 
" style="fill:none;stroke:#9467bd;stroke-dasharray:5.55,2.4;stroke-dashoffset:0;stroke-width:1.5;"/>
    </g>
    <g id="line2d_33"/>
    <g id="text_21">
     <!-- [2, 10, 8, 2] -->
     <defs>
      <path d="M 31.78125 34.625 
Q 24.75 34.625 20.71875 30.859375 
Q 16.703125 27.09375 16.703125 20.515625 
Q 16.703125 13.921875 20.71875 10.15625 
Q 24.75 6.390625 31.78125 6.390625 
Q 38.8125 6.390625 42.859375 10.171875 
Q 46.921875 13.96875 46.921875 20.515625 
Q 46.921875 27.09375 42.890625 30.859375 
Q 38.875 34.625 31.78125 34.625 
z
M 21.921875 38.8125 
Q 15.578125 40.375 12.03125 44.71875 
Q 8.5 49.078125 8.5 55.328125 
Q 8.5 64.0625 14.71875 69.140625 
Q 20.953125 74.21875 31.78125 74.21875 
Q 42.671875 74.21875 48.875 69.140625 
Q 55.078125 64.0625 55.078125 55.328125 
Q 55.078125 49.078125 51.53125 44.71875 
Q 48 40.375 41.703125 38.8125 
Q 48.828125 37.15625 52.796875 32.3125 
Q 56.78125 27.484375 56.78125 20.515625 
Q 56.78125 9.90625 50.3125 4.234375 
Q 43.84375 -1.421875 31.78125 -1.421875 
Q 19.734375 -1.421875 13.25 4.234375 
Q 6.78125 9.90625 6.78125 20.515625 
Q 6.78125 27.484375 10.78125 32.3125 
Q 14.796875 37.15625 21.921875 38.8125 
z
M 18.3125 54.390625 
Q 18.3125 48.734375 21.84375 45.5625 
Q 25.390625 42.390625 31.78125 42.390625 
Q 38.140625 42.390625 41.71875 45.5625 
Q 45.3125 48.734375 45.3125 54.390625 
Q 45.3125 60.0625 41.71875 63.234375 
Q 38.140625 66.40625 31.78125 66.40625 
Q 25.390625 66.40625 21.84375 63.234375 
Q 18.3125 60.0625 18.3125 54.390625 
z
" id="DejaVuSans-38"/>
     </defs>
     <g transform="translate(91 211.564063)scale(0.1 -0.1)">
      <use xlink:href="#DejaVuSans-5b"/>
      <use x="39.013672" xlink:href="#DejaVuSans-32"/>
      <use x="102.636719" xlink:href="#DejaVuSans-2c"/>
      <use x="134.423828" xlink:href="#DejaVuSans-20"/>
      <use x="166.210938" xlink:href="#DejaVuSans-31"/>
      <use x="229.833984" xlink:href="#DejaVuSans-30"/>
      <use x="293.457031" xlink:href="#DejaVuSans-2c"/>
      <use x="325.244141" xlink:href="#DejaVuSans-20"/>
      <use x="357.03125" xlink:href="#DejaVuSans-38"/>
      <use x="420.654297" xlink:href="#DejaVuSans-2c"/>
      <use x="452.441406" xlink:href="#DejaVuSans-20"/>
      <use x="484.228516" xlink:href="#DejaVuSans-32"/>
      <use x="547.851562" xlink:href="#DejaVuSans-5d"/>
     </g>
    </g>
    <g id="line2d_34">
     <path d="M 63 222.742188 
L 83 222.742188 
" style="fill:none;stroke:#8c564b;stroke-dasharray:5.55,2.4;stroke-dashoffset:0;stroke-width:1.5;"/>
    </g>
    <g id="line2d_35"/>
    <g id="text_22">
     <!-- [2, 10, 10, 2] -->
     <g transform="translate(91 226.242188)scale(0.1 -0.1)">
      <use xlink:href="#DejaVuSans-5b"/>
      <use x="39.013672" xlink:href="#DejaVuSans-32"/>
      <use x="102.636719" xlink:href="#DejaVuSans-2c"/>
      <use x="134.423828" xlink:href="#DejaVuSans-20"/>
      <use x="166.210938" xlink:href="#DejaVuSans-31"/>
      <use x="229.833984" xlink:href="#DejaVuSans-30"/>
      <use x="293.457031" xlink:href="#DejaVuSans-2c"/>
      <use x="325.244141" xlink:href="#DejaVuSans-20"/>
      <use x="357.03125" xlink:href="#DejaVuSans-31"/>
      <use x="420.654297" xlink:href="#DejaVuSans-30"/>
      <use x="484.277344" xlink:href="#DejaVuSans-2c"/>
      <use x="516.064453" xlink:href="#DejaVuSans-20"/>
      <use x="547.851562" xlink:href="#DejaVuSans-32"/>
      <use x="611.474609" xlink:href="#DejaVuSans-5d"/>
     </g>
    </g>
    <g id="line2d_36">
     <path d="M 63 237.420312 
L 83 237.420312 
" style="fill:none;stroke:#e377c2;stroke-dasharray:5.55,2.4;stroke-dashoffset:0;stroke-width:1.5;"/>
    </g>
    <g id="line2d_37"/>
    <g id="text_23">
     <!-- [2, 10, 12, 2] -->
     <g transform="translate(91 240.920312)scale(0.1 -0.1)">
      <use xlink:href="#DejaVuSans-5b"/>
      <use x="39.013672" xlink:href="#DejaVuSans-32"/>
      <use x="102.636719" xlink:href="#DejaVuSans-2c"/>
      <use x="134.423828" xlink:href="#DejaVuSans-20"/>
      <use x="166.210938" xlink:href="#DejaVuSans-31"/>
      <use x="229.833984" xlink:href="#DejaVuSans-30"/>
      <use x="293.457031" xlink:href="#DejaVuSans-2c"/>
      <use x="325.244141" xlink:href="#DejaVuSans-20"/>
      <use x="357.03125" xlink:href="#DejaVuSans-31"/>
      <use x="420.654297" xlink:href="#DejaVuSans-32"/>
      <use x="484.277344" xlink:href="#DejaVuSans-2c"/>
      <use x="516.064453" xlink:href="#DejaVuSans-20"/>
      <use x="547.851562" xlink:href="#DejaVuSans-32"/>
      <use x="611.474609" xlink:href="#DejaVuSans-5d"/>
     </g>
    </g>
   </g>
  </g>
 </g>
 <defs>
  <clipPath id="pbb1322564b">
   <rect height="217.44" width="334.8" x="54" y="34.56"/>
  </clipPath>
 </defs>
</svg>
