<?xml version="1.0" encoding="utf-8" standalone="no"?>
<!DOCTYPE svg PUBLIC "-//W3C//DTD SVG 1.1//EN"
  "http://www.w3.org/Graphics/SVG/1.1/DTD/svg11.dtd">
<!-- Created with matplotlib (http://matplotlib.org/) -->
<svg height="576pt" version="1.1" viewBox="0 0 576 576" width="576pt" xmlns="http://www.w3.org/2000/svg" xmlns:xlink="http://www.w3.org/1999/xlink">
 <defs>
  <style type="text/css">
*{stroke-linecap:butt;stroke-linejoin:round;}
  </style>
 </defs>
 <g id="figure_1">
  <g id="patch_1">
   <path d="M 0 576 
L 576 576 
L 576 0 
L 0 0 
z
" style="fill:#ffffff;"/>
  </g>
  <g id="axes_1">
   <g id="patch_2">
    <path d="M 72 504 
L 518.4 504 
L 518.4 69.12 
L 72 69.12 
z
" style="fill:#ffffff;"/>
   </g>
   <g id="PathCollection_1">
    <path clip-path="url(#p8bfca195db)" d="M 82.152727 504 
L 86.545455 504 
L 90.938182 504 
L 95.330909 504 
L 99.723636 504 
L 104.116364 504 
L 108.509091 504 
L 112.901818 504 
L 117.294545 504 
L 121.687273 504 
L 126.08 504 
L 130.472727 504 
L 134.865455 504 
L 139.258182 504 
L 143.650909 504 
L 148.043636 504 
L 152.436364 504 
L 156.829091 504 
L 161.221818 504 
L 165.614545 504 
L 170.007273 504 
L 174.4 504 
L 178.792727 504 
L 183.185455 504 
L 187.578182 504 
L 191.970909 504 
L 196.363636 504 
L 200.756364 504 
L 205.149091 504 
L 209.541818 504 
L 213.934545 504 
L 218.327273 504 
L 222.72 504 
L 227.112727 504 
L 231.505455 504 
L 234.183947 504 
L 235.898182 500.990072 
L 236.685722 499.607273 
L 239.187444 495.214545 
L 240.290909 493.277009 
L 241.689193 490.821818 
L 244.190948 486.429091 
L 244.683636 485.564 
L 246.692704 482.036364 
L 249.076364 477.851005 
L 249.194464 477.643636 
L 251.696183 473.250909 
L 253.469091 470.13794 
L 254.197946 468.858182 
L 256.699704 464.465455 
L 257.861818 462.424907 
L 259.201421 460.072727 
L 261.703164 455.68 
L 262.254545 454.711855 
L 264.204934 451.287273 
L 266.647273 446.998871 
L 266.706688 446.894545 
L 269.208425 442.501818 
L 271.04 439.285839 
L 271.710186 438.109091 
L 274.21194 433.716364 
L 275.432727 431.572858 
L 276.713695 429.323636 
L 279.215401 424.930909 
L 279.825455 423.859746 
L 281.717173 420.538182 
L 284.218182 416.146749 
L 284.218919 416.145455 
L 286.720669 411.752727 
L 288.610909 408.433746 
L 289.22243 407.36 
L 291.724185 402.967273 
L 293.003636 400.720754 
L 294.225947 398.574545 
L 296.727662 394.181818 
L 297.396364 393.007683 
L 299.229436 389.789091 
L 301.731177 385.396364 
L 300.576244 381.003636 
L 297.396364 377.261369 
L 296.843659 376.610909 
L 293.111106 372.218182 
L 293.003636 372.091703 
L 289.378515 367.825455 
L 288.610909 366.922109 
L 285.645896 363.432727 
L 284.218182 361.752512 
L 281.913296 359.04 
L 279.825455 356.582918 
L 278.180698 354.647273 
L 275.432727 351.413283 
L 274.433859 350.254545 
L 271.04 347.451494 
L 266.647273 347.325384 
L 262.254545 347.218067 
L 257.861818 347.110738 
L 253.469091 347.003384 
L 249.076364 346.89606 
L 244.683636 346.788749 
L 240.290909 346.681424 
L 235.898182 346.574096 
L 231.505455 346.466779 
L 227.112727 346.359484 
L 222.72 346.25214 
L 218.327273 346.144805 
L 213.934545 346.037479 
L 209.541818 345.930162 
L 206.74555 345.861818 
L 205.149091 345.822799 
L 200.756364 345.715512 
L 196.363636 345.60819 
L 191.970909 345.500882 
L 187.578182 345.393532 
L 183.185455 345.286217 
L 178.792727 345.178897 
L 174.4 345.268005 
L 173.679341 345.861818 
L 170.007273 348.363751 
L 167.794402 350.254545 
L 165.614545 352.038019 
L 161.221818 350.470826 
L 160.706867 350.254545 
L 156.829091 348.625862 
L 152.436364 346.7809 
L 150.248081 345.861818 
L 148.043636 344.935944 
L 143.650909 343.110546 
L 139.698921 341.469091 
L 139.258182 341.28603 
L 134.865455 339.461484 
L 130.472727 337.636954 
L 129.123078 337.076364 
L 126.08 335.812393 
L 121.687273 333.987862 
L 118.547235 332.683636 
L 117.294545 332.163326 
L 112.901818 330.338786 
L 108.509091 328.51427 
L 107.971335 328.290909 
L 104.116364 326.689712 
L 99.723636 324.865179 
L 97.395522 323.898182 
L 95.330909 323.040632 
L 90.938182 321.216102 
L 86.819689 319.505455 
L 86.545455 319.391643 
L 82.152727 317.58716 
L 77.76 315.836628 
L 77.76 319.505455 
L 77.76 323.898182 
L 77.76 328.290909 
L 77.76 332.683636 
L 77.76 337.076364 
L 77.76 341.469091 
L 77.76 345.861818 
L 77.76 350.254545 
L 77.76 354.647273 
L 77.76 359.04 
L 77.76 363.432727 
L 77.76 367.825455 
L 77.76 372.218182 
L 77.76 376.610909 
L 77.76 381.003636 
L 77.76 385.396364 
L 77.76 389.789091 
L 77.76 394.181818 
L 77.76 398.574545 
L 77.76 402.967273 
L 77.76 407.36 
L 77.76 411.752727 
L 77.76 416.145455 
L 77.76 420.538182 
L 77.76 424.930909 
L 77.76 429.323636 
L 77.76 433.716364 
L 77.76 438.109091 
L 77.76 442.501818 
L 77.76 446.894545 
L 77.76 451.287273 
L 77.76 455.68 
L 77.76 460.072727 
L 77.76 464.465455 
L 77.76 468.858182 
L 77.76 473.250909 
L 77.76 477.643636 
L 77.76 482.036364 
L 77.76 486.429091 
L 77.76 490.821818 
L 77.76 495.214545 
L 77.76 499.607273 
L 77.76 504 
z
" style="fill:#8db0fe;"/>
    <path clip-path="url(#p8bfca195db)" d="M 508.247273 394.934463 
L 512.64 395.786092 
L 512.64 394.181818 
L 512.64 389.789091 
L 512.64 385.396364 
L 512.64 381.003636 
L 512.64 376.610909 
L 512.64 372.218182 
L 512.64 367.825455 
L 512.64 363.432727 
L 512.64 359.04 
L 512.64 354.647273 
L 512.64 350.254545 
L 512.64 345.861818 
L 512.64 341.469091 
L 512.64 337.076364 
L 512.64 332.683636 
L 512.64 328.290909 
L 512.64 323.898182 
L 512.64 319.505455 
L 512.64 315.112727 
L 512.64 310.72 
L 512.64 306.327273 
L 512.64 301.934545 
L 512.64 297.541818 
L 512.64 293.149091 
L 512.64 288.756364 
L 512.64 284.363636 
L 512.64 279.970909 
L 512.64 275.578182 
L 512.64 271.185455 
L 512.64 266.792727 
L 512.64 262.4 
L 512.64 258.007273 
L 512.64 253.614545 
L 512.64 249.221818 
L 512.64 244.829091 
L 512.64 240.436364 
L 512.64 236.043636 
L 512.64 231.650909 
L 512.64 227.258182 
L 512.64 222.865455 
L 512.64 218.472727 
L 512.64 214.08 
L 512.64 209.687273 
L 512.64 205.294545 
L 512.64 200.901818 
L 512.64 196.509091 
L 512.64 192.116364 
L 512.64 187.723636 
L 512.64 183.330909 
L 512.64 178.938182 
L 512.64 174.545455 
L 512.64 170.152727 
L 512.64 165.76 
L 512.64 161.367273 
L 512.64 156.974545 
L 512.64 152.581818 
L 512.64 148.189091 
L 512.64 143.796364 
L 512.64 139.403636 
L 512.64 135.010909 
L 512.64 130.618182 
L 512.64 126.225455 
L 512.64 121.832727 
L 512.64 117.44 
L 512.64 113.047273 
L 512.64 108.654545 
L 512.64 104.261818 
L 512.64 99.869091 
L 512.64 95.476364 
L 512.64 91.083636 
L 512.64 86.690909 
L 512.64 82.298182 
L 512.64 77.905455 
L 512.64 73.512727 
L 512.64 69.12 
L 508.247273 69.12 
L 503.854545 69.12 
L 499.461818 69.12 
L 495.069091 69.12 
L 490.676364 69.12 
L 486.283636 69.12 
L 481.890909 69.12 
L 477.498182 69.12 
L 473.105455 69.12 
L 468.712727 69.12 
L 464.32 69.12 
L 459.927273 69.12 
L 455.534545 69.12 
L 451.141818 69.12 
L 446.749091 69.12 
L 442.356364 69.12 
L 437.963636 69.12 
L 433.570909 69.12 
L 429.178182 69.12 
L 424.785455 69.12 
L 420.392727 69.12 
L 416 69.12 
L 411.607273 69.12 
L 407.214545 69.12 
L 402.821818 69.12 
L 398.429091 69.12 
L 394.036364 69.12 
L 389.643636 69.12 
L 385.250909 69.12 
L 380.858182 69.12 
L 376.465455 69.12 
L 372.072727 69.12 
L 367.68 69.12 
L 363.287273 69.12 
L 358.894545 69.12 
L 354.501818 69.12 
L 350.109091 69.12 
L 345.716364 69.12 
L 341.323636 69.12 
L 336.930909 69.12 
L 332.538182 69.12 
L 328.145455 69.12 
L 323.752727 69.12 
L 319.36 69.12 
L 314.967273 69.12 
L 310.574545 69.12 
L 306.181818 69.12 
L 301.789091 69.12 
L 297.396364 69.12 
L 293.003636 69.12 
L 288.610909 69.12 
L 284.218182 69.12 
L 279.825455 69.12 
L 275.432727 69.12 
L 271.04 69.12 
L 266.647273 69.12 
L 262.254545 69.12 
L 257.861818 69.12 
L 255.2014 69.12 
L 255.304268 73.512727 
L 255.407109 77.905455 
L 255.509986 82.298182 
L 255.616697 86.690909 
L 255.73667 91.083636 
L 255.860446 95.476364 
L 255.984226 99.869091 
L 256.108021 104.261818 
L 256.231783 108.654545 
L 256.355588 113.047273 
L 256.479348 117.44 
L 256.603146 121.832727 
L 256.726909 126.225455 
L 256.850697 130.618182 
L 256.974477 135.010909 
L 257.098254 139.403636 
L 257.222033 143.796364 
L 257.345822 148.189091 
L 257.531804 152.581818 
L 257.861818 154.284675 
L 258.681223 156.974545 
L 260.019332 161.367273 
L 261.357466 165.76 
L 262.254545 168.704893 
L 262.695588 170.152727 
L 264.036263 174.545455 
L 265.380754 178.938182 
L 266.647273 183.076204 
L 266.725229 183.330909 
L 268.069718 187.723636 
L 269.414202 192.116364 
L 270.758679 196.509091 
L 271.04 197.428251 
L 272.103141 200.901818 
L 273.447639 205.294545 
L 274.792124 209.687273 
L 275.432727 211.780236 
L 276.136622 214.08 
L 277.481094 218.472727 
L 278.825573 222.865455 
L 279.825455 226.132336 
L 280.170037 227.258182 
L 281.514542 231.650909 
L 282.859022 236.043636 
L 284.201899 240.436364 
L 284.218182 240.484344 
L 285.547992 244.829091 
L 286.892478 249.221818 
L 288.134981 253.614545 
L 288.610909 254.836364 
L 289.581449 258.007273 
L 290.737537 262.4 
L 291.908686 266.792727 
L 293.003636 269.188356 
L 293.614886 271.185455 
L 294.352991 275.578182 
L 295.57779 279.970909 
L 297.396364 282.568266 
L 298.50547 284.363636 
L 301.681887 288.756364 
L 301.789091 288.841248 
L 304.620902 293.149091 
L 306.181818 295.523603 
L 307.508514 297.541818 
L 310.396116 301.934545 
L 310.574545 302.205977 
L 313.283777 306.327273 
L 314.967273 308.888251 
L 316.171396 310.72 
L 319.059013 315.112727 
L 319.36 315.570595 
L 321.946609 319.505455 
L 323.752727 322.252984 
L 324.834228 323.898182 
L 327.72185 328.290909 
L 328.145455 328.935306 
L 330.609471 332.683636 
L 332.538182 335.617639 
L 333.650265 337.076364 
L 336.930909 341.135853 
L 337.402763 341.469091 
L 341.323636 344.238115 
L 343.622817 345.861818 
L 345.716364 347.340306 
L 349.842922 350.254545 
L 350.109091 350.44252 
L 354.501818 353.544735 
L 356.062981 354.647273 
L 358.894545 356.647016 
L 362.283056 359.04 
L 363.287273 359.749187 
L 367.68 362.851405 
L 368.503137 363.432727 
L 372.072727 365.953646 
L 374.723205 367.825455 
L 376.465455 368.449108 
L 380.858182 369.776154 
L 385.250909 370.690668 
L 389.643636 371.591511 
L 392.699428 372.218182 
L 394.036364 372.492357 
L 398.429091 373.393251 
L 402.821818 374.294088 
L 407.214545 375.194967 
L 411.607273 376.099801 
L 414.076635 376.610909 
L 416 377.008728 
L 420.392727 377.901865 
L 424.785455 378.75347 
L 429.178182 379.605099 
L 433.570909 380.456747 
L 436.391773 381.003636 
L 437.963636 381.308375 
L 442.356364 382.16 
L 446.749091 383.011629 
L 451.141818 383.863255 
L 455.534545 384.714886 
L 459.049723 385.396364 
L 459.927273 385.566493 
L 464.32 386.41814 
L 468.712727 387.269771 
L 473.105455 388.1214 
L 477.498182 388.973038 
L 481.707375 389.789091 
L 481.890909 389.824673 
L 486.283636 390.676276 
L 490.676364 391.527909 
L 495.069091 392.379552 
L 499.461818 393.231172 
L 503.854545 394.082823 
L 504.36516 394.181818 
z
" style="fill:#8db0fe;"/>
   </g>
   <g id="PathCollection_2">
    <path clip-path="url(#p8bfca195db)" d="M 235.898182 504 
L 240.290909 504 
L 244.683636 504 
L 249.076364 504 
L 253.469091 504 
L 257.861818 504 
L 262.254545 504 
L 266.647273 504 
L 271.04 504 
L 275.432727 504 
L 279.825455 504 
L 284.218182 504 
L 288.610909 504 
L 293.003636 504 
L 297.396364 504 
L 301.789091 504 
L 306.181818 504 
L 310.574545 504 
L 314.967273 504 
L 319.36 504 
L 323.752727 504 
L 328.145455 504 
L 332.538182 504 
L 336.930909 504 
L 341.323636 504 
L 345.716364 504 
L 350.109091 504 
L 354.501818 504 
L 358.894545 504 
L 363.287273 504 
L 367.68 504 
L 372.072727 504 
L 376.465455 504 
L 380.858182 504 
L 385.250909 504 
L 389.643636 504 
L 394.036364 504 
L 398.429091 504 
L 402.821818 504 
L 407.214545 504 
L 411.607273 504 
L 416 504 
L 420.392727 504 
L 424.785455 504 
L 429.178182 504 
L 433.570909 504 
L 437.963636 504 
L 442.356364 504 
L 446.749091 504 
L 451.141818 504 
L 455.534545 504 
L 459.927273 504 
L 464.32 504 
L 468.712727 504 
L 473.105455 504 
L 477.498182 504 
L 481.890909 504 
L 486.283636 504 
L 490.676364 504 
L 495.069091 504 
L 499.461818 504 
L 503.854545 504 
L 508.247273 504 
L 512.64 504 
L 512.64 499.607273 
L 512.64 495.214545 
L 512.64 490.821818 
L 512.64 486.429091 
L 512.64 482.036364 
L 512.64 477.643636 
L 512.64 473.250909 
L 512.64 468.858182 
L 512.64 464.465455 
L 512.64 460.072727 
L 512.64 455.68 
L 512.64 451.287273 
L 512.64 446.894545 
L 512.64 442.501818 
L 512.64 438.109091 
L 512.64 433.716364 
L 512.64 429.323636 
L 512.64 424.930909 
L 512.64 420.538182 
L 512.64 416.145455 
L 512.64 411.752727 
L 512.64 407.36 
L 512.64 402.967273 
L 512.64 398.574545 
L 512.64 395.786092 
L 508.247273 394.934463 
L 504.36516 394.181818 
L 503.854545 394.082823 
L 499.461818 393.231172 
L 495.069091 392.379552 
L 490.676364 391.527909 
L 486.283636 390.676276 
L 481.890909 389.824673 
L 481.707375 389.789091 
L 477.498182 388.973038 
L 473.105455 388.1214 
L 468.712727 387.269771 
L 464.32 386.41814 
L 459.927273 385.566493 
L 459.049723 385.396364 
L 455.534545 384.714886 
L 451.141818 383.863255 
L 446.749091 383.011629 
L 442.356364 382.16 
L 437.963636 381.308375 
L 436.391773 381.003636 
L 433.570909 380.456747 
L 429.178182 379.605099 
L 424.785455 378.75347 
L 420.392727 377.901865 
L 416 377.008728 
L 414.076635 376.610909 
L 411.607273 376.099801 
L 407.214545 375.194967 
L 402.821818 374.294088 
L 398.429091 373.393251 
L 394.036364 372.492357 
L 392.699428 372.218182 
L 389.643636 371.591511 
L 385.250909 370.690668 
L 380.858182 369.776154 
L 376.465455 368.449108 
L 374.723205 367.825455 
L 372.072727 365.953646 
L 368.503137 363.432727 
L 367.68 362.851405 
L 363.287273 359.749187 
L 362.283056 359.04 
L 358.894545 356.647016 
L 356.062981 354.647273 
L 354.501818 353.544735 
L 350.109091 350.44252 
L 349.842922 350.254545 
L 345.716364 347.340306 
L 343.622817 345.861818 
L 341.323636 344.238115 
L 337.402763 341.469091 
L 336.930909 341.135853 
L 333.650265 337.076364 
L 332.538182 335.617639 
L 330.609471 332.683636 
L 328.145455 328.935306 
L 327.72185 328.290909 
L 324.834228 323.898182 
L 323.752727 322.252984 
L 321.946609 319.505455 
L 319.36 315.570595 
L 319.059013 315.112727 
L 316.171396 310.72 
L 314.967273 308.888251 
L 313.283777 306.327273 
L 310.574545 302.205977 
L 310.396116 301.934545 
L 307.508514 297.541818 
L 306.181818 295.523603 
L 304.620902 293.149091 
L 301.789091 288.841248 
L 301.681887 288.756364 
L 298.50547 284.363636 
L 297.396364 282.568266 
L 295.57779 279.970909 
L 294.352991 275.578182 
L 293.614886 271.185455 
L 293.003636 269.188356 
L 291.908686 266.792727 
L 290.737537 262.4 
L 289.581449 258.007273 
L 288.610909 254.836364 
L 288.134981 253.614545 
L 286.892478 249.221818 
L 285.547992 244.829091 
L 284.218182 240.484344 
L 284.201899 240.436364 
L 282.859022 236.043636 
L 281.514542 231.650909 
L 280.170037 227.258182 
L 279.825455 226.132336 
L 278.825573 222.865455 
L 277.481094 218.472727 
L 276.136622 214.08 
L 275.432727 211.780236 
L 274.792124 209.687273 
L 273.447639 205.294545 
L 272.103141 200.901818 
L 271.04 197.428251 
L 270.758679 196.509091 
L 269.414202 192.116364 
L 268.069718 187.723636 
L 266.725229 183.330909 
L 266.647273 183.076204 
L 265.380754 178.938182 
L 264.036263 174.545455 
L 262.695588 170.152727 
L 262.254545 168.704893 
L 261.357466 165.76 
L 260.019332 161.367273 
L 258.681223 156.974545 
L 257.861818 154.284675 
L 257.531804 152.581818 
L 257.345822 148.189091 
L 257.222033 143.796364 
L 257.098254 139.403636 
L 256.974477 135.010909 
L 256.850697 130.618182 
L 256.726909 126.225455 
L 256.603146 121.832727 
L 256.479348 117.44 
L 256.355588 113.047273 
L 256.231783 108.654545 
L 256.108021 104.261818 
L 255.984226 99.869091 
L 255.860446 95.476364 
L 255.73667 91.083636 
L 255.616697 86.690909 
L 255.509986 82.298182 
L 255.407109 77.905455 
L 255.304268 73.512727 
L 255.2014 69.12 
L 253.469091 69.12 
L 249.076364 69.12 
L 244.683636 69.12 
L 240.290909 69.12 
L 235.898182 69.12 
L 231.505455 69.12 
L 227.112727 69.12 
L 222.72 69.12 
L 218.327273 69.12 
L 213.934545 69.12 
L 209.541818 69.12 
L 205.149091 69.12 
L 200.756364 69.12 
L 196.363636 69.12 
L 191.970909 69.12 
L 187.578182 69.12 
L 183.185455 69.12 
L 178.792727 69.12 
L 174.4 69.12 
L 170.007273 69.12 
L 165.614545 69.12 
L 161.221818 69.12 
L 156.829091 69.12 
L 152.436364 69.12 
L 148.043636 69.12 
L 143.650909 69.12 
L 139.258182 69.12 
L 134.865455 69.12 
L 130.472727 69.12 
L 126.08 69.12 
L 121.687273 69.12 
L 117.294545 69.12 
L 112.901818 69.12 
L 108.509091 69.12 
L 104.116364 69.12 
L 99.723636 69.12 
L 95.330909 69.12 
L 90.938182 69.12 
L 86.545455 69.12 
L 82.152727 69.12 
L 77.76 69.12 
L 77.76 73.512727 
L 77.76 77.905455 
L 77.76 82.298182 
L 77.76 86.690909 
L 77.76 91.083636 
L 77.76 95.476364 
L 77.76 99.869091 
L 77.76 104.261818 
L 77.76 108.654545 
L 77.76 113.047273 
L 77.76 117.44 
L 77.76 121.832727 
L 77.76 126.225455 
L 77.76 130.618182 
L 77.76 135.010909 
L 77.76 139.403636 
L 77.76 143.796364 
L 77.76 148.189091 
L 77.76 152.581818 
L 77.76 156.974545 
L 77.76 161.367273 
L 77.76 165.76 
L 77.76 170.152727 
L 77.76 174.545455 
L 77.76 178.938182 
L 77.76 183.330909 
L 77.76 187.723636 
L 77.76 192.116364 
L 77.76 196.509091 
L 77.76 200.901818 
L 77.76 205.294545 
L 77.76 209.687273 
L 77.76 214.08 
L 77.76 218.472727 
L 77.76 222.865455 
L 77.76 227.258182 
L 77.76 231.650909 
L 77.76 236.043636 
L 77.76 240.436364 
L 77.76 244.829091 
L 77.76 249.221818 
L 77.76 253.614545 
L 77.76 258.007273 
L 77.76 262.4 
L 77.76 266.792727 
L 77.76 271.185455 
L 77.76 275.578182 
L 77.76 279.970909 
L 77.76 284.363636 
L 77.76 288.756364 
L 77.76 293.149091 
L 77.76 297.541818 
L 77.76 301.934545 
L 77.76 306.327273 
L 77.76 310.72 
L 77.76 315.112727 
L 77.76 315.836628 
L 82.152727 317.58716 
L 86.545455 319.391643 
L 86.819689 319.505455 
L 90.938182 321.216102 
L 95.330909 323.040632 
L 97.395522 323.898182 
L 99.723636 324.865179 
L 104.116364 326.689712 
L 107.971335 328.290909 
L 108.509091 328.51427 
L 112.901818 330.338786 
L 117.294545 332.163326 
L 118.547235 332.683636 
L 121.687273 333.987862 
L 126.08 335.812393 
L 129.123078 337.076364 
L 130.472727 337.636954 
L 134.865455 339.461484 
L 139.258182 341.28603 
L 139.698921 341.469091 
L 143.650909 343.110546 
L 148.043636 344.935944 
L 150.248081 345.861818 
L 152.436364 346.7809 
L 156.829091 348.625862 
L 160.706867 350.254545 
L 161.221818 350.470826 
L 165.614545 352.038019 
L 167.794402 350.254545 
L 170.007273 348.363751 
L 173.679341 345.861818 
L 174.4 345.268005 
L 178.792727 345.178897 
L 183.185455 345.286217 
L 187.578182 345.393532 
L 191.970909 345.500882 
L 196.363636 345.60819 
L 200.756364 345.715512 
L 205.149091 345.822799 
L 206.74555 345.861818 
L 209.541818 345.930162 
L 213.934545 346.037479 
L 218.327273 346.144805 
L 222.72 346.25214 
L 227.112727 346.359484 
L 231.505455 346.466779 
L 235.898182 346.574096 
L 240.290909 346.681424 
L 244.683636 346.788749 
L 249.076364 346.89606 
L 253.469091 347.003384 
L 257.861818 347.110738 
L 262.254545 347.218067 
L 266.647273 347.325384 
L 271.04 347.451494 
L 274.433859 350.254545 
L 275.432727 351.413283 
L 278.180698 354.647273 
L 279.825455 356.582918 
L 281.913296 359.04 
L 284.218182 361.752512 
L 285.645896 363.432727 
L 288.610909 366.922109 
L 289.378515 367.825455 
L 293.003636 372.091703 
L 293.111106 372.218182 
L 296.843659 376.610909 
L 297.396364 377.261369 
L 300.576244 381.003636 
L 301.731177 385.396364 
L 299.229436 389.789091 
L 297.396364 393.007683 
L 296.727662 394.181818 
L 294.225947 398.574545 
L 293.003636 400.720754 
L 291.724185 402.967273 
L 289.22243 407.36 
L 288.610909 408.433746 
L 286.720669 411.752727 
L 284.218919 416.145455 
L 284.218182 416.146749 
L 281.717173 420.538182 
L 279.825455 423.859746 
L 279.215401 424.930909 
L 276.713695 429.323636 
L 275.432727 431.572858 
L 274.21194 433.716364 
L 271.710186 438.109091 
L 271.04 439.285839 
L 269.208425 442.501818 
L 266.706688 446.894545 
L 266.647273 446.998871 
L 264.204934 451.287273 
L 262.254545 454.711855 
L 261.703164 455.68 
L 259.201421 460.072727 
L 257.861818 462.424907 
L 256.699704 464.465455 
L 254.197946 468.858182 
L 253.469091 470.13794 
L 251.696183 473.250909 
L 249.194464 477.643636 
L 249.076364 477.851005 
L 246.692704 482.036364 
L 244.683636 485.564 
L 244.190948 486.429091 
L 241.689193 490.821818 
L 240.290909 493.277009 
L 239.187444 495.214545 
L 236.685722 499.607273 
L 235.898182 500.990072 
L 234.183947 504 
z
" style="fill:#f4987a;"/>
   </g>
   <g id="PathCollection_3">
    <defs>
     <path d="M 0 4.1833 
C 1.109424 4.1833 2.173559 3.742521 2.95804 2.95804 
C 3.742521 2.173559 4.1833 1.109424 4.1833 0 
C 4.1833 -1.109424 3.742521 -2.173559 2.95804 -2.95804 
C 2.173559 -3.742521 1.109424 -4.1833 0 -4.1833 
C -1.109424 -4.1833 -2.173559 -3.742521 -2.95804 -2.95804 
C -3.742521 -2.173559 -4.1833 -1.109424 -4.1833 0 
C -4.1833 1.109424 -3.742521 2.173559 -2.95804 2.95804 
C -2.173559 3.742521 -1.109424 4.1833 0 4.1833 
z
" id="C0_0_adf58e43db"/>
    </defs>
    <g clip-path="url(#p8bfca195db)">
     <use style="fill:#b40426;stroke:#b40426;" x="273.149627" xlink:href="#C0_0_adf58e43db" y="416.992955"/>
    </g>
    <g clip-path="url(#p8bfca195db)">
     <use style="fill:#3b4cc0;stroke:#3b4cc0;" x="186.034173" xlink:href="#C0_0_adf58e43db" y="303.253321"/>
    </g>
    <g clip-path="url(#p8bfca195db)">
     <use style="fill:#3b4cc0;stroke:#3b4cc0;" x="359.357365" xlink:href="#C0_0_adf58e43db" y="372.46269"/>
    </g>
    <g clip-path="url(#p8bfca195db)">
     <use style="fill:#b40426;stroke:#b40426;" x="173.572237" xlink:href="#C0_0_adf58e43db" y="378.57234"/>
    </g>
    <g clip-path="url(#p8bfca195db)">
     <use style="fill:#3b4cc0;stroke:#3b4cc0;" x="193.485321" xlink:href="#C0_0_adf58e43db" y="426.019023"/>
    </g>
    <g clip-path="url(#p8bfca195db)">
     <use style="fill:#b40426;stroke:#b40426;" x="302.390368" xlink:href="#C0_0_adf58e43db" y="235.819478"/>
    </g>
    <g clip-path="url(#p8bfca195db)">
     <use style="fill:#3b4cc0;stroke:#3b4cc0;" x="288.123134" xlink:href="#C0_0_adf58e43db" y="430.297105"/>
    </g>
    <g clip-path="url(#p8bfca195db)">
     <use style="fill:#b40426;stroke:#b40426;" x="153.86543" xlink:href="#C0_0_adf58e43db" y="255.552905"/>
    </g>
    <g clip-path="url(#p8bfca195db)">
     <use style="fill:#b40426;stroke:#b40426;" x="359.274692" xlink:href="#C0_0_adf58e43db" y="274.670323"/>
    </g>
    <g clip-path="url(#p8bfca195db)">
     <use style="fill:#3b4cc0;stroke:#3b4cc0;" x="377.462098" xlink:href="#C0_0_adf58e43db" y="221.967351"/>
    </g>
    <g clip-path="url(#p8bfca195db)">
     <use style="fill:#b40426;stroke:#b40426;" x="151.791136" xlink:href="#C0_0_adf58e43db" y="227.940211"/>
    </g>
    <g clip-path="url(#p8bfca195db)">
     <use style="fill:#b40426;stroke:#b40426;" x="240.704866" xlink:href="#C0_0_adf58e43db" y="344.523886"/>
    </g>
    <g clip-path="url(#p8bfca195db)">
     <use style="fill:#b40426;stroke:#b40426;" x="287.410713" xlink:href="#C0_0_adf58e43db" y="279.878775"/>
    </g>
    <g clip-path="url(#p8bfca195db)">
     <use style="fill:#3b4cc0;stroke:#3b4cc0;" x="351.702011" xlink:href="#C0_0_adf58e43db" y="222.64272"/>
    </g>
    <g clip-path="url(#p8bfca195db)">
     <use style="fill:#3b4cc0;stroke:#3b4cc0;" x="376.012459" xlink:href="#C0_0_adf58e43db" y="331.094047"/>
    </g>
    <g clip-path="url(#p8bfca195db)">
     <use style="fill:#3b4cc0;stroke:#3b4cc0;" x="225.925277" xlink:href="#C0_0_adf58e43db" y="392.021025"/>
    </g>
    <g clip-path="url(#p8bfca195db)">
     <use style="fill:#b40426;stroke:#b40426;" x="159.666449" xlink:href="#C0_0_adf58e43db" y="305.560682"/>
    </g>
    <g clip-path="url(#p8bfca195db)">
     <use style="fill:#3b4cc0;stroke:#3b4cc0;" x="155.464827" xlink:href="#C0_0_adf58e43db" y="413.237706"/>
    </g>
    <g clip-path="url(#p8bfca195db)">
     <use style="fill:#b40426;stroke:#b40426;" x="334.877654" xlink:href="#C0_0_adf58e43db" y="378.10566"/>
    </g>
    <g clip-path="url(#p8bfca195db)">
     <use style="fill:#b40426;stroke:#b40426;" x="250.385727" xlink:href="#C0_0_adf58e43db" y="303.350683"/>
    </g>
    <g clip-path="url(#p8bfca195db)">
     <use style="fill:#3b4cc0;stroke:#3b4cc0;" x="347.530033" xlink:href="#C0_0_adf58e43db" y="329.253377"/>
    </g>
    <g clip-path="url(#p8bfca195db)">
     <use style="fill:#3b4cc0;stroke:#3b4cc0;" x="253.566621" xlink:href="#C0_0_adf58e43db" y="396.374594"/>
    </g>
    <g clip-path="url(#p8bfca195db)">
     <use style="fill:#3b4cc0;stroke:#3b4cc0;" x="380.638844" xlink:href="#C0_0_adf58e43db" y="196.931652"/>
    </g>
    <g clip-path="url(#p8bfca195db)">
     <use style="fill:#3b4cc0;stroke:#3b4cc0;" x="294.025142" xlink:href="#C0_0_adf58e43db" y="379.354397"/>
    </g>
    <g clip-path="url(#p8bfca195db)">
     <use style="fill:#3b4cc0;stroke:#3b4cc0;" x="270.546776" xlink:href="#C0_0_adf58e43db" y="345.163736"/>
    </g>
    <g clip-path="url(#p8bfca195db)">
     <use style="fill:#b40426;stroke:#b40426;" x="261.010871" xlink:href="#C0_0_adf58e43db" y="242.988081"/>
    </g>
    <g clip-path="url(#p8bfca195db)">
     <use style="fill:#b40426;stroke:#b40426;" x="368.647159" xlink:href="#C0_0_adf58e43db" y="404.096465"/>
    </g>
    <g clip-path="url(#p8bfca195db)">
     <use style="fill:#b40426;stroke:#b40426;" x="155.242764" xlink:href="#C0_0_adf58e43db" y="194.307395"/>
    </g>
    <g clip-path="url(#p8bfca195db)">
     <use style="fill:#3b4cc0;stroke:#3b4cc0;" x="200.112329" xlink:href="#C0_0_adf58e43db" y="356.430623"/>
    </g>
    <g clip-path="url(#p8bfca195db)">
     <use style="fill:#b40426;stroke:#b40426;" x="312.286264" xlink:href="#C0_0_adf58e43db" y="289.908956"/>
    </g>
    <g clip-path="url(#p8bfca195db)">
     <use style="fill:#b40426;stroke:#b40426;" x="297.692873" xlink:href="#C0_0_adf58e43db" y="354.162057"/>
    </g>
    <g clip-path="url(#p8bfca195db)">
     <use style="fill:#b40426;stroke:#b40426;" x="175.303951" xlink:href="#C0_0_adf58e43db" y="430.395849"/>
    </g>
    <g clip-path="url(#p8bfca195db)">
     <use style="fill:#b40426;stroke:#b40426;" x="316.786257" xlink:href="#C0_0_adf58e43db" y="346.949215"/>
    </g>
    <g clip-path="url(#p8bfca195db)">
     <use style="fill:#3b4cc0;stroke:#3b4cc0;" x="228.016147" xlink:href="#C0_0_adf58e43db" y="254.640375"/>
    </g>
    <g clip-path="url(#p8bfca195db)">
     <use style="fill:#3b4cc0;stroke:#3b4cc0;" x="328.979562" xlink:href="#C0_0_adf58e43db" y="421.712324"/>
    </g>
    <g clip-path="url(#p8bfca195db)">
     <use style="fill:#3b4cc0;stroke:#3b4cc0;" x="337.024464" xlink:href="#C0_0_adf58e43db" y="234.939061"/>
    </g>
    <g clip-path="url(#p8bfca195db)">
     <use style="fill:#b40426;stroke:#b40426;" x="182.038821" xlink:href="#C0_0_adf58e43db" y="275.774753"/>
    </g>
    <g clip-path="url(#p8bfca195db)">
     <use style="fill:#3b4cc0;stroke:#3b4cc0;" x="213.495392" xlink:href="#C0_0_adf58e43db" y="312.330082"/>
    </g>
    <g clip-path="url(#p8bfca195db)">
     <use style="fill:#b40426;stroke:#b40426;" x="379.106388" xlink:href="#C0_0_adf58e43db" y="284.733163"/>
    </g>
    <g clip-path="url(#p8bfca195db)">
     <use style="fill:#3b4cc0;stroke:#3b4cc0;" x="339.230834" xlink:href="#C0_0_adf58e43db" y="313.945398"/>
    </g>
    <g clip-path="url(#p8bfca195db)">
     <use style="fill:#b40426;stroke:#b40426;" x="204.166177" xlink:href="#C0_0_adf58e43db" y="266.715986"/>
    </g>
    <g clip-path="url(#p8bfca195db)">
     <use style="fill:#3b4cc0;stroke:#3b4cc0;" x="340.683165" xlink:href="#C0_0_adf58e43db" y="265.557697"/>
    </g>
    <g clip-path="url(#p8bfca195db)">
     <use style="fill:#b40426;stroke:#b40426;" x="237.36512" xlink:href="#C0_0_adf58e43db" y="287.604087"/>
    </g>
    <g clip-path="url(#p8bfca195db)">
     <use style="fill:#b40426;stroke:#b40426;" x="177.496558" xlink:href="#C0_0_adf58e43db" y="193.882336"/>
    </g>
    <g clip-path="url(#p8bfca195db)">
     <use style="fill:#3b4cc0;stroke:#3b4cc0;" x="235.965883" xlink:href="#C0_0_adf58e43db" y="202.524123"/>
    </g>
    <g clip-path="url(#p8bfca195db)">
     <use style="fill:#b40426;stroke:#b40426;" x="308.872212" xlink:href="#C0_0_adf58e43db" y="325.234728"/>
    </g>
    <g clip-path="url(#p8bfca195db)">
     <use style="fill:#3b4cc0;stroke:#3b4cc0;" x="242.511658" xlink:href="#C0_0_adf58e43db" y="270.414303"/>
    </g>
    <g clip-path="url(#p8bfca195db)">
     <use style="fill:#b40426;stroke:#b40426;" x="351.524338" xlink:href="#C0_0_adf58e43db" y="415.407457"/>
    </g>
    <g clip-path="url(#p8bfca195db)">
     <use style="fill:#3b4cc0;stroke:#3b4cc0;" x="334.028112" xlink:href="#C0_0_adf58e43db" y="285.770027"/>
    </g>
    <g clip-path="url(#p8bfca195db)">
     <use style="fill:#3b4cc0;stroke:#3b4cc0;" x="310.078685" xlink:href="#C0_0_adf58e43db" y="370.363564"/>
    </g>
    <g clip-path="url(#p8bfca195db)">
     <use style="fill:#3b4cc0;stroke:#3b4cc0;" x="167.198879" xlink:href="#C0_0_adf58e43db" y="361.106373"/>
    </g>
    <g clip-path="url(#p8bfca195db)">
     <use style="fill:#3b4cc0;stroke:#3b4cc0;" x="316.479685" xlink:href="#C0_0_adf58e43db" y="227.011639"/>
    </g>
    <g clip-path="url(#p8bfca195db)">
     <use style="fill:#b40426;stroke:#b40426;" x="294.574564" xlink:href="#C0_0_adf58e43db" y="410.987233"/>
    </g>
    <g clip-path="url(#p8bfca195db)">
     <use style="fill:#3b4cc0;stroke:#3b4cc0;" x="210.720585" xlink:href="#C0_0_adf58e43db" y="404.477644"/>
    </g>
    <g clip-path="url(#p8bfca195db)">
     <use style="fill:#b40426;stroke:#b40426;" x="192.542673" xlink:href="#C0_0_adf58e43db" y="385.038577"/>
    </g>
    <g clip-path="url(#p8bfca195db)">
     <use style="fill:#b40426;stroke:#b40426;" x="217.48406" xlink:href="#C0_0_adf58e43db" y="361.754337"/>
    </g>
    <g clip-path="url(#p8bfca195db)">
     <use style="fill:#3b4cc0;stroke:#3b4cc0;" x="304.361794" xlink:href="#C0_0_adf58e43db" y="213.641511"/>
    </g>
    <g clip-path="url(#p8bfca195db)">
     <use style="fill:#3b4cc0;stroke:#3b4cc0;" x="352.305535" xlink:href="#C0_0_adf58e43db" y="290.688828"/>
    </g>
    <g clip-path="url(#p8bfca195db)">
     <use style="fill:#b40426;stroke:#b40426;" x="363.853714" xlink:href="#C0_0_adf58e43db" y="429.644938"/>
    </g>
    <g clip-path="url(#p8bfca195db)">
     <use style="fill:#b40426;stroke:#b40426;" x="268.466951" xlink:href="#C0_0_adf58e43db" y="209.951373"/>
    </g>
   </g>
   <g id="matplotlib.axis_1">
    <g id="xtick_1">
     <g id="line2d_1">
      <defs>
       <path d="M 0 0 
L 0 3.5 
" id="me0c95bba64" style="stroke:#000000;stroke-width:0.8;"/>
      </defs>
      <g>
       <use style="stroke:#000000;stroke-width:0.8;" x="89.84" xlink:href="#me0c95bba64" y="504"/>
      </g>
     </g>
     <g id="text_1">
      <!-- −0.25 -->
      <defs>
       <path d="M 10.59375 35.5 
L 73.1875 35.5 
L 73.1875 27.203125 
L 10.59375 27.203125 
z
" id="DejaVuSans-2212"/>
       <path d="M 31.78125 66.40625 
Q 24.171875 66.40625 20.328125 58.90625 
Q 16.5 51.421875 16.5 36.375 
Q 16.5 21.390625 20.328125 13.890625 
Q 24.171875 6.390625 31.78125 6.390625 
Q 39.453125 6.390625 43.28125 13.890625 
Q 47.125 21.390625 47.125 36.375 
Q 47.125 51.421875 43.28125 58.90625 
Q 39.453125 66.40625 31.78125 66.40625 
z
M 31.78125 74.21875 
Q 44.046875 74.21875 50.515625 64.515625 
Q 56.984375 54.828125 56.984375 36.375 
Q 56.984375 17.96875 50.515625 8.265625 
Q 44.046875 -1.421875 31.78125 -1.421875 
Q 19.53125 -1.421875 13.0625 8.265625 
Q 6.59375 17.96875 6.59375 36.375 
Q 6.59375 54.828125 13.0625 64.515625 
Q 19.53125 74.21875 31.78125 74.21875 
z
" id="DejaVuSans-30"/>
       <path d="M 10.6875 12.40625 
L 21 12.40625 
L 21 0 
L 10.6875 0 
z
" id="DejaVuSans-2e"/>
       <path d="M 19.1875 8.296875 
L 53.609375 8.296875 
L 53.609375 0 
L 7.328125 0 
L 7.328125 8.296875 
Q 12.9375 14.109375 22.625 23.890625 
Q 32.328125 33.6875 34.8125 36.53125 
Q 39.546875 41.84375 41.421875 45.53125 
Q 43.3125 49.21875 43.3125 52.78125 
Q 43.3125 58.59375 39.234375 62.25 
Q 35.15625 65.921875 28.609375 65.921875 
Q 23.96875 65.921875 18.8125 64.3125 
Q 13.671875 62.703125 7.8125 59.421875 
L 7.8125 69.390625 
Q 13.765625 71.78125 18.9375 73 
Q 24.125 74.21875 28.421875 74.21875 
Q 39.75 74.21875 46.484375 68.546875 
Q 53.21875 62.890625 53.21875 53.421875 
Q 53.21875 48.921875 51.53125 44.890625 
Q 49.859375 40.875 45.40625 35.40625 
Q 44.1875 33.984375 37.640625 27.21875 
Q 31.109375 20.453125 19.1875 8.296875 
z
" id="DejaVuSans-32"/>
       <path d="M 10.796875 72.90625 
L 49.515625 72.90625 
L 49.515625 64.59375 
L 19.828125 64.59375 
L 19.828125 46.734375 
Q 21.96875 47.46875 24.109375 47.828125 
Q 26.265625 48.1875 28.421875 48.1875 
Q 40.625 48.1875 47.75 41.5 
Q 54.890625 34.8125 54.890625 23.390625 
Q 54.890625 11.625 47.5625 5.09375 
Q 40.234375 -1.421875 26.90625 -1.421875 
Q 22.3125 -1.421875 17.546875 -0.640625 
Q 12.796875 0.140625 7.71875 1.703125 
L 7.71875 11.625 
Q 12.109375 9.234375 16.796875 8.0625 
Q 21.484375 6.890625 26.703125 6.890625 
Q 35.15625 6.890625 40.078125 11.328125 
Q 45.015625 15.765625 45.015625 23.390625 
Q 45.015625 31 40.078125 35.4375 
Q 35.15625 39.890625 26.703125 39.890625 
Q 22.75 39.890625 18.8125 39.015625 
Q 14.890625 38.140625 10.796875 36.28125 
z
" id="DejaVuSans-35"/>
      </defs>
      <g transform="translate(74.517344 518.598438)scale(0.1 -0.1)">
       <use xlink:href="#DejaVuSans-2212"/>
       <use x="83.789062" xlink:href="#DejaVuSans-30"/>
       <use x="147.412109" xlink:href="#DejaVuSans-2e"/>
       <use x="179.199219" xlink:href="#DejaVuSans-32"/>
       <use x="242.822266" xlink:href="#DejaVuSans-35"/>
      </g>
     </g>
    </g>
    <g id="xtick_2">
     <g id="line2d_2">
      <g>
       <use style="stroke:#000000;stroke-width:0.8;" x="150.24" xlink:href="#me0c95bba64" y="504"/>
      </g>
     </g>
     <g id="text_2">
      <!-- 0.00 -->
      <g transform="translate(139.107188 518.598438)scale(0.1 -0.1)">
       <use xlink:href="#DejaVuSans-30"/>
       <use x="63.623047" xlink:href="#DejaVuSans-2e"/>
       <use x="95.410156" xlink:href="#DejaVuSans-30"/>
       <use x="159.033203" xlink:href="#DejaVuSans-30"/>
      </g>
     </g>
    </g>
    <g id="xtick_3">
     <g id="line2d_3">
      <g>
       <use style="stroke:#000000;stroke-width:0.8;" x="210.64" xlink:href="#me0c95bba64" y="504"/>
      </g>
     </g>
     <g id="text_3">
      <!-- 0.25 -->
      <g transform="translate(199.507188 518.598438)scale(0.1 -0.1)">
       <use xlink:href="#DejaVuSans-30"/>
       <use x="63.623047" xlink:href="#DejaVuSans-2e"/>
       <use x="95.410156" xlink:href="#DejaVuSans-32"/>
       <use x="159.033203" xlink:href="#DejaVuSans-35"/>
      </g>
     </g>
    </g>
    <g id="xtick_4">
     <g id="line2d_4">
      <g>
       <use style="stroke:#000000;stroke-width:0.8;" x="271.04" xlink:href="#me0c95bba64" y="504"/>
      </g>
     </g>
     <g id="text_4">
      <!-- 0.50 -->
      <g transform="translate(259.907188 518.598438)scale(0.1 -0.1)">
       <use xlink:href="#DejaVuSans-30"/>
       <use x="63.623047" xlink:href="#DejaVuSans-2e"/>
       <use x="95.410156" xlink:href="#DejaVuSans-35"/>
       <use x="159.033203" xlink:href="#DejaVuSans-30"/>
      </g>
     </g>
    </g>
    <g id="xtick_5">
     <g id="line2d_5">
      <g>
       <use style="stroke:#000000;stroke-width:0.8;" x="331.44" xlink:href="#me0c95bba64" y="504"/>
      </g>
     </g>
     <g id="text_5">
      <!-- 0.75 -->
      <defs>
       <path d="M 8.203125 72.90625 
L 55.078125 72.90625 
L 55.078125 68.703125 
L 28.609375 0 
L 18.3125 0 
L 43.21875 64.59375 
L 8.203125 64.59375 
z
" id="DejaVuSans-37"/>
      </defs>
      <g transform="translate(320.307187 518.598438)scale(0.1 -0.1)">
       <use xlink:href="#DejaVuSans-30"/>
       <use x="63.623047" xlink:href="#DejaVuSans-2e"/>
       <use x="95.410156" xlink:href="#DejaVuSans-37"/>
       <use x="159.033203" xlink:href="#DejaVuSans-35"/>
      </g>
     </g>
    </g>
    <g id="xtick_6">
     <g id="line2d_6">
      <g>
       <use style="stroke:#000000;stroke-width:0.8;" x="391.84" xlink:href="#me0c95bba64" y="504"/>
      </g>
     </g>
     <g id="text_6">
      <!-- 1.00 -->
      <defs>
       <path d="M 12.40625 8.296875 
L 28.515625 8.296875 
L 28.515625 63.921875 
L 10.984375 60.40625 
L 10.984375 69.390625 
L 28.421875 72.90625 
L 38.28125 72.90625 
L 38.28125 8.296875 
L 54.390625 8.296875 
L 54.390625 0 
L 12.40625 0 
z
" id="DejaVuSans-31"/>
      </defs>
      <g transform="translate(380.707188 518.598438)scale(0.1 -0.1)">
       <use xlink:href="#DejaVuSans-31"/>
       <use x="63.623047" xlink:href="#DejaVuSans-2e"/>
       <use x="95.410156" xlink:href="#DejaVuSans-30"/>
       <use x="159.033203" xlink:href="#DejaVuSans-30"/>
      </g>
     </g>
    </g>
    <g id="xtick_7">
     <g id="line2d_7">
      <g>
       <use style="stroke:#000000;stroke-width:0.8;" x="452.24" xlink:href="#me0c95bba64" y="504"/>
      </g>
     </g>
     <g id="text_7">
      <!-- 1.25 -->
      <g transform="translate(441.107188 518.598438)scale(0.1 -0.1)">
       <use xlink:href="#DejaVuSans-31"/>
       <use x="63.623047" xlink:href="#DejaVuSans-2e"/>
       <use x="95.410156" xlink:href="#DejaVuSans-32"/>
       <use x="159.033203" xlink:href="#DejaVuSans-35"/>
      </g>
     </g>
    </g>
    <g id="xtick_8">
     <g id="line2d_8">
      <g>
       <use style="stroke:#000000;stroke-width:0.8;" x="512.64" xlink:href="#me0c95bba64" y="504"/>
      </g>
     </g>
     <g id="text_8">
      <!-- 1.50 -->
      <g transform="translate(501.507187 518.598438)scale(0.1 -0.1)">
       <use xlink:href="#DejaVuSans-31"/>
       <use x="63.623047" xlink:href="#DejaVuSans-2e"/>
       <use x="95.410156" xlink:href="#DejaVuSans-35"/>
       <use x="159.033203" xlink:href="#DejaVuSans-30"/>
      </g>
     </g>
    </g>
   </g>
   <g id="matplotlib.axis_2">
    <g id="ytick_1">
     <g id="line2d_9">
      <defs>
       <path d="M 0 0 
L -3.5 0 
" id="m6c34e3ebbb" style="stroke:#000000;stroke-width:0.8;"/>
      </defs>
      <g>
       <use style="stroke:#000000;stroke-width:0.8;" x="72" xlink:href="#m6c34e3ebbb" y="479.84"/>
      </g>
     </g>
     <g id="text_9">
      <!-- −0.2 -->
      <g transform="translate(40.717187 483.639219)scale(0.1 -0.1)">
       <use xlink:href="#DejaVuSans-2212"/>
       <use x="83.789062" xlink:href="#DejaVuSans-30"/>
       <use x="147.412109" xlink:href="#DejaVuSans-2e"/>
       <use x="179.199219" xlink:href="#DejaVuSans-32"/>
      </g>
     </g>
    </g>
    <g id="ytick_2">
     <g id="line2d_10">
      <g>
       <use style="stroke:#000000;stroke-width:0.8;" x="72" xlink:href="#m6c34e3ebbb" y="431.52"/>
      </g>
     </g>
     <g id="text_10">
      <!-- 0.0 -->
      <g transform="translate(49.096875 435.319219)scale(0.1 -0.1)">
       <use xlink:href="#DejaVuSans-30"/>
       <use x="63.623047" xlink:href="#DejaVuSans-2e"/>
       <use x="95.410156" xlink:href="#DejaVuSans-30"/>
      </g>
     </g>
    </g>
    <g id="ytick_3">
     <g id="line2d_11">
      <g>
       <use style="stroke:#000000;stroke-width:0.8;" x="72" xlink:href="#m6c34e3ebbb" y="383.2"/>
      </g>
     </g>
     <g id="text_11">
      <!-- 0.2 -->
      <g transform="translate(49.096875 386.999219)scale(0.1 -0.1)">
       <use xlink:href="#DejaVuSans-30"/>
       <use x="63.623047" xlink:href="#DejaVuSans-2e"/>
       <use x="95.410156" xlink:href="#DejaVuSans-32"/>
      </g>
     </g>
    </g>
    <g id="ytick_4">
     <g id="line2d_12">
      <g>
       <use style="stroke:#000000;stroke-width:0.8;" x="72" xlink:href="#m6c34e3ebbb" y="334.88"/>
      </g>
     </g>
     <g id="text_12">
      <!-- 0.4 -->
      <defs>
       <path d="M 37.796875 64.3125 
L 12.890625 25.390625 
L 37.796875 25.390625 
z
M 35.203125 72.90625 
L 47.609375 72.90625 
L 47.609375 25.390625 
L 58.015625 25.390625 
L 58.015625 17.1875 
L 47.609375 17.1875 
L 47.609375 0 
L 37.796875 0 
L 37.796875 17.1875 
L 4.890625 17.1875 
L 4.890625 26.703125 
z
" id="DejaVuSans-34"/>
      </defs>
      <g transform="translate(49.096875 338.679219)scale(0.1 -0.1)">
       <use xlink:href="#DejaVuSans-30"/>
       <use x="63.623047" xlink:href="#DejaVuSans-2e"/>
       <use x="95.410156" xlink:href="#DejaVuSans-34"/>
      </g>
     </g>
    </g>
    <g id="ytick_5">
     <g id="line2d_13">
      <g>
       <use style="stroke:#000000;stroke-width:0.8;" x="72" xlink:href="#m6c34e3ebbb" y="286.56"/>
      </g>
     </g>
     <g id="text_13">
      <!-- 0.6 -->
      <defs>
       <path d="M 33.015625 40.375 
Q 26.375 40.375 22.484375 35.828125 
Q 18.609375 31.296875 18.609375 23.390625 
Q 18.609375 15.53125 22.484375 10.953125 
Q 26.375 6.390625 33.015625 6.390625 
Q 39.65625 6.390625 43.53125 10.953125 
Q 47.40625 15.53125 47.40625 23.390625 
Q 47.40625 31.296875 43.53125 35.828125 
Q 39.65625 40.375 33.015625 40.375 
z
M 52.59375 71.296875 
L 52.59375 62.3125 
Q 48.875 64.0625 45.09375 64.984375 
Q 41.3125 65.921875 37.59375 65.921875 
Q 27.828125 65.921875 22.671875 59.328125 
Q 17.53125 52.734375 16.796875 39.40625 
Q 19.671875 43.65625 24.015625 45.921875 
Q 28.375 48.1875 33.59375 48.1875 
Q 44.578125 48.1875 50.953125 41.515625 
Q 57.328125 34.859375 57.328125 23.390625 
Q 57.328125 12.15625 50.6875 5.359375 
Q 44.046875 -1.421875 33.015625 -1.421875 
Q 20.359375 -1.421875 13.671875 8.265625 
Q 6.984375 17.96875 6.984375 36.375 
Q 6.984375 53.65625 15.1875 63.9375 
Q 23.390625 74.21875 37.203125 74.21875 
Q 40.921875 74.21875 44.703125 73.484375 
Q 48.484375 72.75 52.59375 71.296875 
z
" id="DejaVuSans-36"/>
      </defs>
      <g transform="translate(49.096875 290.359219)scale(0.1 -0.1)">
       <use xlink:href="#DejaVuSans-30"/>
       <use x="63.623047" xlink:href="#DejaVuSans-2e"/>
       <use x="95.410156" xlink:href="#DejaVuSans-36"/>
      </g>
     </g>
    </g>
    <g id="ytick_6">
     <g id="line2d_14">
      <g>
       <use style="stroke:#000000;stroke-width:0.8;" x="72" xlink:href="#m6c34e3ebbb" y="238.24"/>
      </g>
     </g>
     <g id="text_14">
      <!-- 0.8 -->
      <defs>
       <path d="M 31.78125 34.625 
Q 24.75 34.625 20.71875 30.859375 
Q 16.703125 27.09375 16.703125 20.515625 
Q 16.703125 13.921875 20.71875 10.15625 
Q 24.75 6.390625 31.78125 6.390625 
Q 38.8125 6.390625 42.859375 10.171875 
Q 46.921875 13.96875 46.921875 20.515625 
Q 46.921875 27.09375 42.890625 30.859375 
Q 38.875 34.625 31.78125 34.625 
z
M 21.921875 38.8125 
Q 15.578125 40.375 12.03125 44.71875 
Q 8.5 49.078125 8.5 55.328125 
Q 8.5 64.0625 14.71875 69.140625 
Q 20.953125 74.21875 31.78125 74.21875 
Q 42.671875 74.21875 48.875 69.140625 
Q 55.078125 64.0625 55.078125 55.328125 
Q 55.078125 49.078125 51.53125 44.71875 
Q 48 40.375 41.703125 38.8125 
Q 48.828125 37.15625 52.796875 32.3125 
Q 56.78125 27.484375 56.78125 20.515625 
Q 56.78125 9.90625 50.3125 4.234375 
Q 43.84375 -1.421875 31.78125 -1.421875 
Q 19.734375 -1.421875 13.25 4.234375 
Q 6.78125 9.90625 6.78125 20.515625 
Q 6.78125 27.484375 10.78125 32.3125 
Q 14.796875 37.15625 21.921875 38.8125 
z
M 18.3125 54.390625 
Q 18.3125 48.734375 21.84375 45.5625 
Q 25.390625 42.390625 31.78125 42.390625 
Q 38.140625 42.390625 41.71875 45.5625 
Q 45.3125 48.734375 45.3125 54.390625 
Q 45.3125 60.0625 41.71875 63.234375 
Q 38.140625 66.40625 31.78125 66.40625 
Q 25.390625 66.40625 21.84375 63.234375 
Q 18.3125 60.0625 18.3125 54.390625 
z
" id="DejaVuSans-38"/>
      </defs>
      <g transform="translate(49.096875 242.039219)scale(0.1 -0.1)">
       <use xlink:href="#DejaVuSans-30"/>
       <use x="63.623047" xlink:href="#DejaVuSans-2e"/>
       <use x="95.410156" xlink:href="#DejaVuSans-38"/>
      </g>
     </g>
    </g>
    <g id="ytick_7">
     <g id="line2d_15">
      <g>
       <use style="stroke:#000000;stroke-width:0.8;" x="72" xlink:href="#m6c34e3ebbb" y="189.92"/>
      </g>
     </g>
     <g id="text_15">
      <!-- 1.0 -->
      <g transform="translate(49.096875 193.719219)scale(0.1 -0.1)">
       <use xlink:href="#DejaVuSans-31"/>
       <use x="63.623047" xlink:href="#DejaVuSans-2e"/>
       <use x="95.410156" xlink:href="#DejaVuSans-30"/>
      </g>
     </g>
    </g>
    <g id="ytick_8">
     <g id="line2d_16">
      <g>
       <use style="stroke:#000000;stroke-width:0.8;" x="72" xlink:href="#m6c34e3ebbb" y="141.6"/>
      </g>
     </g>
     <g id="text_16">
      <!-- 1.2 -->
      <g transform="translate(49.096875 145.399219)scale(0.1 -0.1)">
       <use xlink:href="#DejaVuSans-31"/>
       <use x="63.623047" xlink:href="#DejaVuSans-2e"/>
       <use x="95.410156" xlink:href="#DejaVuSans-32"/>
      </g>
     </g>
    </g>
    <g id="ytick_9">
     <g id="line2d_17">
      <g>
       <use style="stroke:#000000;stroke-width:0.8;" x="72" xlink:href="#m6c34e3ebbb" y="93.28"/>
      </g>
     </g>
     <g id="text_17">
      <!-- 1.4 -->
      <g transform="translate(49.096875 97.079219)scale(0.1 -0.1)">
       <use xlink:href="#DejaVuSans-31"/>
       <use x="63.623047" xlink:href="#DejaVuSans-2e"/>
       <use x="95.410156" xlink:href="#DejaVuSans-34"/>
      </g>
     </g>
    </g>
   </g>
   <g id="patch_3">
    <path d="M 72 504 
L 72 69.12 
" style="fill:none;stroke:#000000;stroke-linecap:square;stroke-linejoin:miter;stroke-width:0.8;"/>
   </g>
   <g id="patch_4">
    <path d="M 518.4 504 
L 518.4 69.12 
" style="fill:none;stroke:#000000;stroke-linecap:square;stroke-linejoin:miter;stroke-width:0.8;"/>
   </g>
   <g id="patch_5">
    <path d="M 72 504 
L 518.4 504 
" style="fill:none;stroke:#000000;stroke-linecap:square;stroke-linejoin:miter;stroke-width:0.8;"/>
   </g>
   <g id="patch_6">
    <path d="M 72 69.12 
L 518.4 69.12 
" style="fill:none;stroke:#000000;stroke-linecap:square;stroke-linejoin:miter;stroke-width:0.8;"/>
   </g>
  </g>
 </g>
 <defs>
  <clipPath id="p8bfca195db">
   <rect height="434.88" width="446.4" x="72" y="69.12"/>
  </clipPath>
 </defs>
</svg>
