<?xml version="1.0" encoding="utf-8" standalone="no"?>
<!DOCTYPE svg PUBLIC "-//W3C//DTD SVG 1.1//EN"
  "http://www.w3.org/Graphics/SVG/1.1/DTD/svg11.dtd">
<!-- Created with matplotlib (http://matplotlib.org/) -->
<svg height="576pt" version="1.1" viewBox="0 0 576 576" width="576pt" xmlns="http://www.w3.org/2000/svg" xmlns:xlink="http://www.w3.org/1999/xlink">
 <defs>
  <style type="text/css">
*{stroke-linecap:butt;stroke-linejoin:round;}
  </style>
 </defs>
 <g id="figure_1">
  <g id="patch_1">
   <path d="M 0 576 
L 576 576 
L 576 0 
L 0 0 
z
" style="fill:#ffffff;"/>
  </g>
  <g id="axes_1">
   <g id="patch_2">
    <path d="M 72 504 
L 518.4 504 
L 518.4 69.12 
L 72 69.12 
z
" style="fill:#ffffff;"/>
   </g>
   <g id="PathCollection_1">
    <path clip-path="url(#p20bfdc9df1)" d="M 82.152727 504 
L 86.545455 504 
L 90.938182 504 
L 95.330909 504 
L 99.723636 504 
L 104.116364 504 
L 108.509091 504 
L 112.901818 504 
L 117.294545 504 
L 121.687273 504 
L 126.08 504 
L 130.472727 504 
L 134.865455 504 
L 139.258182 504 
L 143.650909 504 
L 148.043636 504 
L 152.436364 504 
L 156.829091 504 
L 161.221818 504 
L 165.614545 504 
L 170.007273 504 
L 174.4 504 
L 178.792727 504 
L 183.185455 504 
L 187.578182 504 
L 191.970909 504 
L 196.363636 504 
L 200.756364 504 
L 205.149091 504 
L 209.541818 504 
L 213.934545 504 
L 218.327273 504 
L 222.72 504 
L 227.112727 504 
L 231.505455 504 
L 235.898182 504 
L 240.290909 504 
L 244.683636 504 
L 249.076364 504 
L 253.469091 504 
L 257.861818 504 
L 262.254545 504 
L 266.647273 504 
L 271.04 504 
L 275.432727 504 
L 279.825455 504 
L 284.218182 504 
L 288.610909 504 
L 293.003636 504 
L 294.198076 504 
L 294.557497 499.607273 
L 294.916966 495.214545 
L 295.276372 490.821818 
L 295.635821 486.429091 
L 295.995276 482.036364 
L 296.354693 477.643636 
L 296.714126 473.250909 
L 297.073546 468.858182 
L 297.396364 466.204158 
L 297.610855 464.465455 
L 298.632784 460.072727 
L 299.654736 455.68 
L 300.676707 451.287273 
L 301.698646 446.894545 
L 301.789091 446.505774 
L 302.720582 442.501818 
L 303.742526 438.109091 
L 304.764472 433.716364 
L 305.786416 429.323636 
L 306.181818 427.624082 
L 306.80838 424.930909 
L 307.830285 420.538182 
L 308.852238 416.145455 
L 309.874196 411.752727 
L 310.574545 408.742275 
L 310.896117 407.36 
L 311.918066 402.967273 
L 312.939994 398.574545 
L 313.961967 394.181818 
L 314.967273 389.86057 
L 314.983902 389.789091 
L 316.00583 385.396364 
L 317.027759 381.003636 
L 318.049724 376.610909 
L 319.07167 372.218182 
L 314.967273 370.36888 
L 310.574545 370.056681 
L 306.181818 370.318983 
L 301.789091 370.58129 
L 297.396364 370.84358 
L 293.003636 371.105886 
L 288.610909 371.368201 
L 284.218182 371.630492 
L 279.825455 371.892801 
L 275.432727 372.155108 
L 274.376398 372.218182 
L 271.04 372.417401 
L 266.647273 372.679708 
L 262.254545 372.941996 
L 257.861818 373.204305 
L 253.469091 373.48119 
L 249.076364 373.822181 
L 244.683636 374.173305 
L 240.290909 374.524423 
L 235.898182 374.195822 
L 233.238461 372.218182 
L 231.505455 370.913881 
L 227.401939 367.825455 
L 227.112727 367.607786 
L 222.72 364.301721 
L 221.565384 363.432727 
L 218.327273 360.995635 
L 215.72886 359.04 
L 213.934545 357.689545 
L 209.892324 354.647273 
L 209.541818 354.383475 
L 205.149091 351.077367 
L 204.055833 350.254545 
L 200.756364 347.771288 
L 198.219281 345.861818 
L 196.363636 344.465208 
L 192.382771 341.469091 
L 191.970909 341.15911 
L 187.578182 337.853025 
L 186.546243 337.076364 
L 183.185455 334.54695 
L 180.70971 332.683636 
L 178.792727 331.746801 
L 177.776682 332.683636 
L 174.4 334.743726 
L 171.9405 337.076364 
L 170.007273 338.909867 
L 167.308868 341.469091 
L 165.614545 343.076018 
L 162.677235 345.861818 
L 161.221818 347.242165 
L 158.045612 350.254545 
L 156.829091 351.408319 
L 153.414193 354.647273 
L 152.436364 355.574723 
L 148.583672 359.04 
L 148.043636 359.516291 
L 143.650909 363.344305 
L 143.549443 363.432727 
L 139.258182 367.172324 
L 138.508702 367.825455 
L 134.865455 371.000343 
L 133.467959 372.218182 
L 130.472727 374.828361 
L 128.42722 376.610909 
L 126.08 378.656383 
L 123.386472 381.003636 
L 121.687273 382.484396 
L 118.34575 385.396364 
L 117.294545 386.312431 
L 113.304995 389.789091 
L 112.901818 390.140435 
L 108.509091 393.968454 
L 108.264252 394.181818 
L 104.116364 397.796486 
L 103.223526 398.574545 
L 99.723636 401.624504 
L 98.182784 402.967273 
L 95.330909 405.452524 
L 93.142042 407.36 
L 90.938182 409.280545 
L 87.823846 411.752727 
L 86.545455 412.76729 
L 82.152727 415.871662 
L 81.765306 416.145455 
L 77.76 418.976012 
L 77.76 420.538182 
L 77.76 424.930909 
L 77.76 429.323636 
L 77.76 433.716364 
L 77.76 438.109091 
L 77.76 442.501818 
L 77.76 446.894545 
L 77.76 451.287273 
L 77.76 455.68 
L 77.76 460.072727 
L 77.76 464.465455 
L 77.76 468.858182 
L 77.76 473.250909 
L 77.76 477.643636 
L 77.76 482.036364 
L 77.76 486.429091 
L 77.76 490.821818 
L 77.76 495.214545 
L 77.76 499.607273 
L 77.76 504 
z
" style="fill:#8db0fe;"/>
    <path clip-path="url(#p20bfdc9df1)" d="M 332.538182 364.168858 
L 333.994384 363.432727 
L 336.930909 362.450888 
L 341.03304 359.04 
L 341.323636 358.819257 
L 345.716364 355.357817 
L 346.512904 354.647273 
L 350.109091 351.439351 
L 351.388419 350.254545 
L 354.501818 347.166017 
L 355.812413 345.861818 
L 358.894545 342.79472 
L 360.22667 341.469091 
L 363.287273 338.423407 
L 364.640919 337.076364 
L 367.68 334.052106 
L 369.055177 332.683636 
L 372.072727 329.680801 
L 373.469432 328.290909 
L 376.465455 325.30949 
L 377.883674 323.898182 
L 380.858182 320.938189 
L 382.297948 319.505455 
L 385.250909 316.566886 
L 386.712182 315.112727 
L 389.643636 312.195562 
L 391.126432 310.72 
L 394.036364 307.824281 
L 395.540704 306.327273 
L 398.429091 303.45296 
L 399.954954 301.934545 
L 402.821818 299.081677 
L 404.369217 297.541818 
L 407.214545 294.710341 
L 408.783438 293.149091 
L 411.607273 290.339022 
L 413.197694 288.756364 
L 416 285.967748 
L 417.611972 284.363636 
L 420.392727 281.596419 
L 422.026202 279.970909 
L 424.785455 277.225133 
L 426.440481 275.578182 
L 429.178182 272.853851 
L 430.854764 271.185455 
L 433.570909 268.482523 
L 435.268971 266.792727 
L 437.963636 264.111205 
L 439.683216 262.4 
L 442.356364 259.739874 
L 444.097468 258.007273 
L 446.749091 255.368587 
L 448.511732 253.614545 
L 451.141818 250.997299 
L 452.925988 249.221818 
L 455.534545 246.625972 
L 457.340257 244.829091 
L 459.927273 242.254694 
L 461.754491 240.436364 
L 464.32 237.883372 
L 466.168765 236.043636 
L 468.712727 233.512066 
L 470.583005 231.650909 
L 473.105455 229.140768 
L 474.997256 227.258182 
L 477.498182 224.769456 
L 479.411513 222.865455 
L 481.890909 220.398154 
L 483.825775 218.472727 
L 486.283636 216.026826 
L 488.240001 214.08 
L 490.676364 211.655548 
L 492.654298 209.687273 
L 495.069091 207.284274 
L 497.068556 205.294545 
L 499.461818 202.912917 
L 501.482769 200.901818 
L 503.854545 198.54162 
L 505.897034 196.509091 
L 508.247273 194.170303 
L 510.311289 192.116364 
L 512.64 189.799008 
L 512.64 187.723636 
L 512.64 183.330909 
L 512.64 178.938182 
L 512.64 174.545455 
L 512.64 170.152727 
L 512.64 165.76 
L 512.64 161.367273 
L 512.64 156.974545 
L 512.64 152.581818 
L 512.64 148.189091 
L 512.64 143.796364 
L 512.64 139.403636 
L 512.64 135.010909 
L 512.64 130.618182 
L 512.64 126.225455 
L 512.64 121.832727 
L 512.64 117.44 
L 512.64 113.047273 
L 512.64 108.654545 
L 512.64 104.261818 
L 512.64 99.869091 
L 512.64 95.476364 
L 512.64 91.083636 
L 512.64 86.690909 
L 512.64 82.298182 
L 512.64 77.905455 
L 512.64 73.512727 
L 512.64 69.12 
L 508.247273 69.12 
L 503.854545 69.12 
L 499.461818 69.12 
L 495.069091 69.12 
L 490.676364 69.12 
L 486.283636 69.12 
L 481.890909 69.12 
L 477.498182 69.12 
L 473.105455 69.12 
L 468.712727 69.12 
L 464.32 69.12 
L 459.927273 69.12 
L 455.534545 69.12 
L 451.141818 69.12 
L 446.749091 69.12 
L 442.356364 69.12 
L 437.963636 69.12 
L 433.570909 69.12 
L 429.178182 69.12 
L 424.785455 69.12 
L 420.392727 69.12 
L 416 69.12 
L 411.607273 69.12 
L 407.214545 69.12 
L 402.821818 69.12 
L 398.429091 69.12 
L 394.036364 69.12 
L 389.643636 69.12 
L 385.250909 69.12 
L 380.858182 69.12 
L 376.465455 69.12 
L 372.072727 69.12 
L 367.68 69.12 
L 363.287273 69.12 
L 358.894545 69.12 
L 354.501818 69.12 
L 350.109091 69.12 
L 345.716364 69.12 
L 341.323636 69.12 
L 336.930909 69.12 
L 332.538182 69.12 
L 328.145455 69.12 
L 323.752727 69.12 
L 319.36 69.12 
L 314.967273 69.12 
L 310.574545 69.12 
L 306.181818 69.12 
L 301.789091 69.12 
L 297.396364 69.12 
L 293.003636 69.12 
L 288.610909 69.12 
L 284.218182 69.12 
L 279.825455 69.12 
L 275.432727 69.12 
L 271.04 69.12 
L 266.647273 69.12 
L 262.254545 69.12 
L 257.861818 69.12 
L 253.469091 69.12 
L 249.076364 69.12 
L 244.683636 69.12 
L 240.290909 69.12 
L 235.898182 69.12 
L 233.444955 69.12 
L 233.341986 73.512727 
L 233.248639 77.905455 
L 233.155293 82.298182 
L 233.061939 86.690909 
L 232.968588 91.083636 
L 232.875252 95.476364 
L 232.78189 99.869091 
L 232.688549 104.261818 
L 232.595204 108.654545 
L 232.50184 113.047273 
L 232.408511 117.44 
L 232.31516 121.832727 
L 232.221803 126.225455 
L 232.128455 130.618182 
L 232.040184 135.010909 
L 231.983405 139.403636 
L 231.926617 143.796364 
L 231.869829 148.189091 
L 231.81305 152.581818 
L 231.756261 156.974545 
L 231.699481 161.367273 
L 231.642692 165.76 
L 231.585907 170.152727 
L 231.529131 174.545455 
L 231.505455 176.376887 
L 231.472342 178.938182 
L 231.415553 183.330909 
L 231.358773 187.723636 
L 231.302004 192.116364 
L 231.245218 196.509091 
L 231.188433 200.901818 
L 231.13164 205.294545 
L 231.074862 209.687273 
L 231.505455 213.913757 
L 231.568064 214.08 
L 235.898182 217.807768 
L 236.670592 218.472727 
L 240.290909 221.589429 
L 241.773119 222.865455 
L 244.683636 225.371094 
L 246.875651 227.258182 
L 249.076364 229.15276 
L 251.978163 231.650909 
L 253.469091 232.934443 
L 257.080704 236.043636 
L 257.861818 236.716089 
L 262.18323 240.436364 
L 262.254545 240.497758 
L 266.647273 244.279409 
L 267.28578 244.829091 
L 271.04 248.061089 
L 272.388279 249.221818 
L 275.432727 251.842765 
L 277.490796 253.614545 
L 279.825455 255.624418 
L 282.593352 258.007273 
L 284.218182 259.40609 
L 287.695864 262.4 
L 288.610909 263.31561 
L 290.55414 266.792727 
L 292.492979 271.185455 
L 293.003636 272.342432 
L 294.431807 275.578182 
L 296.370644 279.970909 
L 297.396364 282.294843 
L 298.309471 284.363636 
L 300.248297 288.756364 
L 301.789091 292.247255 
L 302.192954 293.149091 
L 304.199131 297.541818 
L 306.181818 301.877419 
L 306.207942 301.934545 
L 308.216762 306.327273 
L 310.225572 310.72 
L 310.574545 311.483109 
L 312.234398 315.112727 
L 314.243216 319.505455 
L 314.967273 321.088755 
L 316.252036 323.898182 
L 318.260858 328.290909 
L 319.36 330.694421 
L 320.269678 332.683636 
L 322.182531 337.076364 
L 323.752727 340.738763 
L 324.065844 341.469091 
L 325.949156 345.861818 
L 327.83247 350.254545 
L 328.145455 350.984565 
L 329.715789 354.647273 
L 330.766209 359.04 
L 331.587598 363.432727 
z
" style="fill:#8db0fe;"/>
   </g>
   <g id="PathCollection_2">
    <path clip-path="url(#p20bfdc9df1)" d="M 297.396364 504 
L 301.789091 504 
L 306.181818 504 
L 310.574545 504 
L 314.967273 504 
L 319.36 504 
L 323.752727 504 
L 328.145455 504 
L 332.538182 504 
L 336.930909 504 
L 341.323636 504 
L 345.716364 504 
L 350.109091 504 
L 354.501818 504 
L 358.894545 504 
L 363.287273 504 
L 367.68 504 
L 372.072727 504 
L 376.465455 504 
L 380.858182 504 
L 385.250909 504 
L 389.643636 504 
L 394.036364 504 
L 398.429091 504 
L 402.821818 504 
L 407.214545 504 
L 411.607273 504 
L 416 504 
L 420.392727 504 
L 424.785455 504 
L 429.178182 504 
L 433.570909 504 
L 437.963636 504 
L 442.356364 504 
L 446.749091 504 
L 451.141818 504 
L 455.534545 504 
L 459.927273 504 
L 464.32 504 
L 468.712727 504 
L 473.105455 504 
L 477.498182 504 
L 481.890909 504 
L 486.283636 504 
L 490.676364 504 
L 495.069091 504 
L 499.461818 504 
L 503.854545 504 
L 508.247273 504 
L 512.64 504 
L 512.64 499.607273 
L 512.64 495.214545 
L 512.64 490.821818 
L 512.64 486.429091 
L 512.64 482.036364 
L 512.64 477.643636 
L 512.64 473.250909 
L 512.64 468.858182 
L 512.64 464.465455 
L 512.64 460.072727 
L 512.64 455.68 
L 512.64 451.287273 
L 512.64 446.894545 
L 512.64 442.501818 
L 512.64 438.109091 
L 512.64 433.716364 
L 512.64 429.323636 
L 512.64 424.930909 
L 512.64 420.538182 
L 512.64 416.145455 
L 512.64 411.752727 
L 512.64 407.36 
L 512.64 402.967273 
L 512.64 398.574545 
L 512.64 394.181818 
L 512.64 389.789091 
L 512.64 385.396364 
L 512.64 381.003636 
L 512.64 376.610909 
L 512.64 372.218182 
L 512.64 367.825455 
L 512.64 363.432727 
L 512.64 359.04 
L 512.64 354.647273 
L 512.64 350.254545 
L 512.64 345.861818 
L 512.64 341.469091 
L 512.64 337.076364 
L 512.64 332.683636 
L 512.64 328.290909 
L 512.64 323.898182 
L 512.64 319.505455 
L 512.64 315.112727 
L 512.64 310.72 
L 512.64 306.327273 
L 512.64 301.934545 
L 512.64 297.541818 
L 512.64 293.149091 
L 512.64 288.756364 
L 512.64 284.363636 
L 512.64 279.970909 
L 512.64 275.578182 
L 512.64 271.185455 
L 512.64 266.792727 
L 512.64 262.4 
L 512.64 258.007273 
L 512.64 253.614545 
L 512.64 249.221818 
L 512.64 244.829091 
L 512.64 240.436364 
L 512.64 236.043636 
L 512.64 231.650909 
L 512.64 227.258182 
L 512.64 222.865455 
L 512.64 218.472727 
L 512.64 214.08 
L 512.64 209.687273 
L 512.64 205.294545 
L 512.64 200.901818 
L 512.64 196.509091 
L 512.64 192.116364 
L 512.64 189.799008 
L 510.311289 192.116364 
L 508.247273 194.170303 
L 505.897034 196.509091 
L 503.854545 198.54162 
L 501.482769 200.901818 
L 499.461818 202.912917 
L 497.068556 205.294545 
L 495.069091 207.284274 
L 492.654298 209.687273 
L 490.676364 211.655548 
L 488.240001 214.08 
L 486.283636 216.026826 
L 483.825775 218.472727 
L 481.890909 220.398154 
L 479.411513 222.865455 
L 477.498182 224.769456 
L 474.997256 227.258182 
L 473.105455 229.140768 
L 470.583005 231.650909 
L 468.712727 233.512066 
L 466.168765 236.043636 
L 464.32 237.883372 
L 461.754491 240.436364 
L 459.927273 242.254694 
L 457.340257 244.829091 
L 455.534545 246.625972 
L 452.925988 249.221818 
L 451.141818 250.997299 
L 448.511732 253.614545 
L 446.749091 255.368587 
L 444.097468 258.007273 
L 442.356364 259.739874 
L 439.683216 262.4 
L 437.963636 264.111205 
L 435.268971 266.792727 
L 433.570909 268.482523 
L 430.854764 271.185455 
L 429.178182 272.853851 
L 426.440481 275.578182 
L 424.785455 277.225133 
L 422.026202 279.970909 
L 420.392727 281.596419 
L 417.611972 284.363636 
L 416 285.967748 
L 413.197694 288.756364 
L 411.607273 290.339022 
L 408.783438 293.149091 
L 407.214545 294.710341 
L 404.369217 297.541818 
L 402.821818 299.081677 
L 399.954954 301.934545 
L 398.429091 303.45296 
L 395.540704 306.327273 
L 394.036364 307.824281 
L 391.126432 310.72 
L 389.643636 312.195562 
L 386.712182 315.112727 
L 385.250909 316.566886 
L 382.297948 319.505455 
L 380.858182 320.938189 
L 377.883674 323.898182 
L 376.465455 325.30949 
L 373.469432 328.290909 
L 372.072727 329.680801 
L 369.055177 332.683636 
L 367.68 334.052106 
L 364.640919 337.076364 
L 363.287273 338.423407 
L 360.22667 341.469091 
L 358.894545 342.79472 
L 355.812413 345.861818 
L 354.501818 347.166017 
L 351.388419 350.254545 
L 350.109091 351.439351 
L 346.512904 354.647273 
L 345.716364 355.357817 
L 341.323636 358.819257 
L 341.03304 359.04 
L 336.930909 362.450888 
L 333.994384 363.432727 
L 332.538182 364.168858 
L 331.587598 363.432727 
L 330.766209 359.04 
L 329.715789 354.647273 
L 328.145455 350.984565 
L 327.83247 350.254545 
L 325.949156 345.861818 
L 324.065844 341.469091 
L 323.752727 340.738763 
L 322.182531 337.076364 
L 320.269678 332.683636 
L 319.36 330.694421 
L 318.260858 328.290909 
L 316.252036 323.898182 
L 314.967273 321.088755 
L 314.243216 319.505455 
L 312.234398 315.112727 
L 310.574545 311.483109 
L 310.225572 310.72 
L 308.216762 306.327273 
L 306.207942 301.934545 
L 306.181818 301.877419 
L 304.199131 297.541818 
L 302.192954 293.149091 
L 301.789091 292.247255 
L 300.248297 288.756364 
L 298.309471 284.363636 
L 297.396364 282.294843 
L 296.370644 279.970909 
L 294.431807 275.578182 
L 293.003636 272.342432 
L 292.492979 271.185455 
L 290.55414 266.792727 
L 288.610909 263.31561 
L 287.695864 262.4 
L 284.218182 259.40609 
L 282.593352 258.007273 
L 279.825455 255.624418 
L 277.490796 253.614545 
L 275.432727 251.842765 
L 272.388279 249.221818 
L 271.04 248.061089 
L 267.28578 244.829091 
L 266.647273 244.279409 
L 262.254545 240.497758 
L 262.18323 240.436364 
L 257.861818 236.716089 
L 257.080704 236.043636 
L 253.469091 232.934443 
L 251.978163 231.650909 
L 249.076364 229.15276 
L 246.875651 227.258182 
L 244.683636 225.371094 
L 241.773119 222.865455 
L 240.290909 221.589429 
L 236.670592 218.472727 
L 235.898182 217.807768 
L 231.568064 214.08 
L 231.505455 213.913757 
L 231.074862 209.687273 
L 231.13164 205.294545 
L 231.188433 200.901818 
L 231.245218 196.509091 
L 231.302004 192.116364 
L 231.358773 187.723636 
L 231.415553 183.330909 
L 231.472342 178.938182 
L 231.505455 176.376887 
L 231.529131 174.545455 
L 231.585907 170.152727 
L 231.642692 165.76 
L 231.699481 161.367273 
L 231.756261 156.974545 
L 231.81305 152.581818 
L 231.869829 148.189091 
L 231.926617 143.796364 
L 231.983405 139.403636 
L 232.040184 135.010909 
L 232.128455 130.618182 
L 232.221803 126.225455 
L 232.31516 121.832727 
L 232.408511 117.44 
L 232.50184 113.047273 
L 232.595204 108.654545 
L 232.688549 104.261818 
L 232.78189 99.869091 
L 232.875252 95.476364 
L 232.968588 91.083636 
L 233.061939 86.690909 
L 233.155293 82.298182 
L 233.248639 77.905455 
L 233.341986 73.512727 
L 233.444955 69.12 
L 231.505455 69.12 
L 227.112727 69.12 
L 222.72 69.12 
L 218.327273 69.12 
L 213.934545 69.12 
L 209.541818 69.12 
L 205.149091 69.12 
L 200.756364 69.12 
L 196.363636 69.12 
L 191.970909 69.12 
L 187.578182 69.12 
L 183.185455 69.12 
L 178.792727 69.12 
L 174.4 69.12 
L 170.007273 69.12 
L 165.614545 69.12 
L 161.221818 69.12 
L 156.829091 69.12 
L 152.436364 69.12 
L 148.043636 69.12 
L 143.650909 69.12 
L 139.258182 69.12 
L 134.865455 69.12 
L 130.472727 69.12 
L 126.08 69.12 
L 121.687273 69.12 
L 117.294545 69.12 
L 112.901818 69.12 
L 108.509091 69.12 
L 104.116364 69.12 
L 99.723636 69.12 
L 95.330909 69.12 
L 90.938182 69.12 
L 86.545455 69.12 
L 82.152727 69.12 
L 77.76 69.12 
L 77.76 73.512727 
L 77.76 77.905455 
L 77.76 82.298182 
L 77.76 86.690909 
L 77.76 91.083636 
L 77.76 95.476364 
L 77.76 99.869091 
L 77.76 104.261818 
L 77.76 108.654545 
L 77.76 113.047273 
L 77.76 117.44 
L 77.76 121.832727 
L 77.76 126.225455 
L 77.76 130.618182 
L 77.76 135.010909 
L 77.76 139.403636 
L 77.76 143.796364 
L 77.76 148.189091 
L 77.76 152.581818 
L 77.76 156.974545 
L 77.76 161.367273 
L 77.76 165.76 
L 77.76 170.152727 
L 77.76 174.545455 
L 77.76 178.938182 
L 77.76 183.330909 
L 77.76 187.723636 
L 77.76 192.116364 
L 77.76 196.509091 
L 77.76 200.901818 
L 77.76 205.294545 
L 77.76 209.687273 
L 77.76 214.08 
L 77.76 218.472727 
L 77.76 222.865455 
L 77.76 227.258182 
L 77.76 231.650909 
L 77.76 236.043636 
L 77.76 240.436364 
L 77.76 244.829091 
L 77.76 249.221818 
L 77.76 253.614545 
L 77.76 258.007273 
L 77.76 262.4 
L 77.76 266.792727 
L 77.76 271.185455 
L 77.76 275.578182 
L 77.76 279.970909 
L 77.76 284.363636 
L 77.76 288.756364 
L 77.76 293.149091 
L 77.76 297.541818 
L 77.76 301.934545 
L 77.76 306.327273 
L 77.76 310.72 
L 77.76 315.112727 
L 77.76 319.505455 
L 77.76 323.898182 
L 77.76 328.290909 
L 77.76 332.683636 
L 77.76 337.076364 
L 77.76 341.469091 
L 77.76 345.861818 
L 77.76 350.254545 
L 77.76 354.647273 
L 77.76 359.04 
L 77.76 363.432727 
L 77.76 367.825455 
L 77.76 372.218182 
L 77.76 376.610909 
L 77.76 381.003636 
L 77.76 385.396364 
L 77.76 389.789091 
L 77.76 394.181818 
L 77.76 398.574545 
L 77.76 402.967273 
L 77.76 407.36 
L 77.76 411.752727 
L 77.76 416.145455 
L 77.76 418.976012 
L 81.765306 416.145455 
L 82.152727 415.871662 
L 86.545455 412.76729 
L 87.823846 411.752727 
L 90.938182 409.280545 
L 93.142042 407.36 
L 95.330909 405.452524 
L 98.182784 402.967273 
L 99.723636 401.624504 
L 103.223526 398.574545 
L 104.116364 397.796486 
L 108.264252 394.181818 
L 108.509091 393.968454 
L 112.901818 390.140435 
L 113.304995 389.789091 
L 117.294545 386.312431 
L 118.34575 385.396364 
L 121.687273 382.484396 
L 123.386472 381.003636 
L 126.08 378.656383 
L 128.42722 376.610909 
L 130.472727 374.828361 
L 133.467959 372.218182 
L 134.865455 371.000343 
L 138.508702 367.825455 
L 139.258182 367.172324 
L 143.549443 363.432727 
L 143.650909 363.344305 
L 148.043636 359.516291 
L 148.583672 359.04 
L 152.436364 355.574723 
L 153.414193 354.647273 
L 156.829091 351.408319 
L 158.045612 350.254545 
L 161.221818 347.242165 
L 162.677235 345.861818 
L 165.614545 343.076018 
L 167.308868 341.469091 
L 170.007273 338.909867 
L 171.9405 337.076364 
L 174.4 334.743726 
L 177.776682 332.683636 
L 178.792727 331.746801 
L 180.70971 332.683636 
L 183.185455 334.54695 
L 186.546243 337.076364 
L 187.578182 337.853025 
L 191.970909 341.15911 
L 192.382771 341.469091 
L 196.363636 344.465208 
L 198.219281 345.861818 
L 200.756364 347.771288 
L 204.055833 350.254545 
L 205.149091 351.077367 
L 209.541818 354.383475 
L 209.892324 354.647273 
L 213.934545 357.689545 
L 215.72886 359.04 
L 218.327273 360.995635 
L 221.565384 363.432727 
L 222.72 364.301721 
L 227.112727 367.607786 
L 227.401939 367.825455 
L 231.505455 370.913881 
L 233.238461 372.218182 
L 235.898182 374.195822 
L 240.290909 374.524423 
L 244.683636 374.173305 
L 249.076364 373.822181 
L 253.469091 373.48119 
L 257.861818 373.204305 
L 262.254545 372.941996 
L 266.647273 372.679708 
L 271.04 372.417401 
L 274.376398 372.218182 
L 275.432727 372.155108 
L 279.825455 371.892801 
L 284.218182 371.630492 
L 288.610909 371.368201 
L 293.003636 371.105886 
L 297.396364 370.84358 
L 301.789091 370.58129 
L 306.181818 370.318983 
L 310.574545 370.056681 
L 314.967273 370.36888 
L 319.07167 372.218182 
L 318.049724 376.610909 
L 317.027759 381.003636 
L 316.00583 385.396364 
L 314.983902 389.789091 
L 314.967273 389.86057 
L 313.961967 394.181818 
L 312.939994 398.574545 
L 311.918066 402.967273 
L 310.896117 407.36 
L 310.574545 408.742275 
L 309.874196 411.752727 
L 308.852238 416.145455 
L 307.830285 420.538182 
L 306.80838 424.930909 
L 306.181818 427.624082 
L 305.786416 429.323636 
L 304.764472 433.716364 
L 303.742526 438.109091 
L 302.720582 442.501818 
L 301.789091 446.505774 
L 301.698646 446.894545 
L 300.676707 451.287273 
L 299.654736 455.68 
L 298.632784 460.072727 
L 297.610855 464.465455 
L 297.396364 466.204158 
L 297.073546 468.858182 
L 296.714126 473.250909 
L 296.354693 477.643636 
L 295.995276 482.036364 
L 295.635821 486.429091 
L 295.276372 490.821818 
L 294.916966 495.214545 
L 294.557497 499.607273 
L 294.198076 504 
z
" style="fill:#f4987a;"/>
   </g>
   <g id="PathCollection_3">
    <defs>
     <path d="M 0 4.1833 
C 1.109424 4.1833 2.173559 3.742521 2.95804 2.95804 
C 3.742521 2.173559 4.1833 1.109424 4.1833 0 
C 4.1833 -1.109424 3.742521 -2.173559 2.95804 -2.95804 
C 2.173559 -3.742521 1.109424 -4.1833 0 -4.1833 
C -1.109424 -4.1833 -2.173559 -3.742521 -2.95804 -2.95804 
C -3.742521 -2.173559 -4.1833 -1.109424 -4.1833 0 
C -4.1833 1.109424 -3.742521 2.173559 -2.95804 2.95804 
C -2.173559 3.742521 -1.109424 4.1833 0 4.1833 
z
" id="C0_0_318f1f064f"/>
    </defs>
    <g clip-path="url(#p20bfdc9df1)">
     <use style="fill:#b40426;stroke:#b40426;" x="273.149627" xlink:href="#C0_0_318f1f064f" y="416.992955"/>
    </g>
    <g clip-path="url(#p20bfdc9df1)">
     <use style="fill:#3b4cc0;stroke:#3b4cc0;" x="186.034173" xlink:href="#C0_0_318f1f064f" y="303.253321"/>
    </g>
    <g clip-path="url(#p20bfdc9df1)">
     <use style="fill:#3b4cc0;stroke:#3b4cc0;" x="359.357365" xlink:href="#C0_0_318f1f064f" y="372.46269"/>
    </g>
    <g clip-path="url(#p20bfdc9df1)">
     <use style="fill:#b40426;stroke:#b40426;" x="173.572237" xlink:href="#C0_0_318f1f064f" y="378.57234"/>
    </g>
    <g clip-path="url(#p20bfdc9df1)">
     <use style="fill:#3b4cc0;stroke:#3b4cc0;" x="193.485321" xlink:href="#C0_0_318f1f064f" y="426.019023"/>
    </g>
    <g clip-path="url(#p20bfdc9df1)">
     <use style="fill:#b40426;stroke:#b40426;" x="302.390368" xlink:href="#C0_0_318f1f064f" y="235.819478"/>
    </g>
    <g clip-path="url(#p20bfdc9df1)">
     <use style="fill:#3b4cc0;stroke:#3b4cc0;" x="288.123134" xlink:href="#C0_0_318f1f064f" y="430.297105"/>
    </g>
    <g clip-path="url(#p20bfdc9df1)">
     <use style="fill:#b40426;stroke:#b40426;" x="153.86543" xlink:href="#C0_0_318f1f064f" y="255.552905"/>
    </g>
    <g clip-path="url(#p20bfdc9df1)">
     <use style="fill:#b40426;stroke:#b40426;" x="359.274692" xlink:href="#C0_0_318f1f064f" y="274.670323"/>
    </g>
    <g clip-path="url(#p20bfdc9df1)">
     <use style="fill:#3b4cc0;stroke:#3b4cc0;" x="377.462098" xlink:href="#C0_0_318f1f064f" y="221.967351"/>
    </g>
    <g clip-path="url(#p20bfdc9df1)">
     <use style="fill:#b40426;stroke:#b40426;" x="151.791136" xlink:href="#C0_0_318f1f064f" y="227.940211"/>
    </g>
    <g clip-path="url(#p20bfdc9df1)">
     <use style="fill:#b40426;stroke:#b40426;" x="240.704866" xlink:href="#C0_0_318f1f064f" y="344.523886"/>
    </g>
    <g clip-path="url(#p20bfdc9df1)">
     <use style="fill:#b40426;stroke:#b40426;" x="287.410713" xlink:href="#C0_0_318f1f064f" y="279.878775"/>
    </g>
    <g clip-path="url(#p20bfdc9df1)">
     <use style="fill:#3b4cc0;stroke:#3b4cc0;" x="351.702011" xlink:href="#C0_0_318f1f064f" y="222.64272"/>
    </g>
    <g clip-path="url(#p20bfdc9df1)">
     <use style="fill:#3b4cc0;stroke:#3b4cc0;" x="376.012459" xlink:href="#C0_0_318f1f064f" y="331.094047"/>
    </g>
    <g clip-path="url(#p20bfdc9df1)">
     <use style="fill:#3b4cc0;stroke:#3b4cc0;" x="225.925277" xlink:href="#C0_0_318f1f064f" y="392.021025"/>
    </g>
    <g clip-path="url(#p20bfdc9df1)">
     <use style="fill:#b40426;stroke:#b40426;" x="159.666449" xlink:href="#C0_0_318f1f064f" y="305.560682"/>
    </g>
    <g clip-path="url(#p20bfdc9df1)">
     <use style="fill:#3b4cc0;stroke:#3b4cc0;" x="155.464827" xlink:href="#C0_0_318f1f064f" y="413.237706"/>
    </g>
    <g clip-path="url(#p20bfdc9df1)">
     <use style="fill:#b40426;stroke:#b40426;" x="334.877654" xlink:href="#C0_0_318f1f064f" y="378.10566"/>
    </g>
    <g clip-path="url(#p20bfdc9df1)">
     <use style="fill:#b40426;stroke:#b40426;" x="250.385727" xlink:href="#C0_0_318f1f064f" y="303.350683"/>
    </g>
    <g clip-path="url(#p20bfdc9df1)">
     <use style="fill:#3b4cc0;stroke:#3b4cc0;" x="347.530033" xlink:href="#C0_0_318f1f064f" y="329.253377"/>
    </g>
    <g clip-path="url(#p20bfdc9df1)">
     <use style="fill:#3b4cc0;stroke:#3b4cc0;" x="253.566621" xlink:href="#C0_0_318f1f064f" y="396.374594"/>
    </g>
    <g clip-path="url(#p20bfdc9df1)">
     <use style="fill:#3b4cc0;stroke:#3b4cc0;" x="380.638844" xlink:href="#C0_0_318f1f064f" y="196.931652"/>
    </g>
    <g clip-path="url(#p20bfdc9df1)">
     <use style="fill:#3b4cc0;stroke:#3b4cc0;" x="294.025142" xlink:href="#C0_0_318f1f064f" y="379.354397"/>
    </g>
    <g clip-path="url(#p20bfdc9df1)">
     <use style="fill:#3b4cc0;stroke:#3b4cc0;" x="270.546776" xlink:href="#C0_0_318f1f064f" y="345.163736"/>
    </g>
    <g clip-path="url(#p20bfdc9df1)">
     <use style="fill:#b40426;stroke:#b40426;" x="261.010871" xlink:href="#C0_0_318f1f064f" y="242.988081"/>
    </g>
    <g clip-path="url(#p20bfdc9df1)">
     <use style="fill:#b40426;stroke:#b40426;" x="368.647159" xlink:href="#C0_0_318f1f064f" y="404.096465"/>
    </g>
    <g clip-path="url(#p20bfdc9df1)">
     <use style="fill:#b40426;stroke:#b40426;" x="155.242764" xlink:href="#C0_0_318f1f064f" y="194.307395"/>
    </g>
    <g clip-path="url(#p20bfdc9df1)">
     <use style="fill:#3b4cc0;stroke:#3b4cc0;" x="200.112329" xlink:href="#C0_0_318f1f064f" y="356.430623"/>
    </g>
    <g clip-path="url(#p20bfdc9df1)">
     <use style="fill:#b40426;stroke:#b40426;" x="312.286264" xlink:href="#C0_0_318f1f064f" y="289.908956"/>
    </g>
    <g clip-path="url(#p20bfdc9df1)">
     <use style="fill:#b40426;stroke:#b40426;" x="297.692873" xlink:href="#C0_0_318f1f064f" y="354.162057"/>
    </g>
    <g clip-path="url(#p20bfdc9df1)">
     <use style="fill:#b40426;stroke:#b40426;" x="175.303951" xlink:href="#C0_0_318f1f064f" y="430.395849"/>
    </g>
    <g clip-path="url(#p20bfdc9df1)">
     <use style="fill:#b40426;stroke:#b40426;" x="316.786257" xlink:href="#C0_0_318f1f064f" y="346.949215"/>
    </g>
    <g clip-path="url(#p20bfdc9df1)">
     <use style="fill:#3b4cc0;stroke:#3b4cc0;" x="228.016147" xlink:href="#C0_0_318f1f064f" y="254.640375"/>
    </g>
    <g clip-path="url(#p20bfdc9df1)">
     <use style="fill:#3b4cc0;stroke:#3b4cc0;" x="328.979562" xlink:href="#C0_0_318f1f064f" y="421.712324"/>
    </g>
    <g clip-path="url(#p20bfdc9df1)">
     <use style="fill:#3b4cc0;stroke:#3b4cc0;" x="337.024464" xlink:href="#C0_0_318f1f064f" y="234.939061"/>
    </g>
    <g clip-path="url(#p20bfdc9df1)">
     <use style="fill:#b40426;stroke:#b40426;" x="182.038821" xlink:href="#C0_0_318f1f064f" y="275.774753"/>
    </g>
    <g clip-path="url(#p20bfdc9df1)">
     <use style="fill:#3b4cc0;stroke:#3b4cc0;" x="213.495392" xlink:href="#C0_0_318f1f064f" y="312.330082"/>
    </g>
    <g clip-path="url(#p20bfdc9df1)">
     <use style="fill:#b40426;stroke:#b40426;" x="379.106388" xlink:href="#C0_0_318f1f064f" y="284.733163"/>
    </g>
    <g clip-path="url(#p20bfdc9df1)">
     <use style="fill:#3b4cc0;stroke:#3b4cc0;" x="339.230834" xlink:href="#C0_0_318f1f064f" y="313.945398"/>
    </g>
    <g clip-path="url(#p20bfdc9df1)">
     <use style="fill:#b40426;stroke:#b40426;" x="204.166177" xlink:href="#C0_0_318f1f064f" y="266.715986"/>
    </g>
    <g clip-path="url(#p20bfdc9df1)">
     <use style="fill:#3b4cc0;stroke:#3b4cc0;" x="340.683165" xlink:href="#C0_0_318f1f064f" y="265.557697"/>
    </g>
    <g clip-path="url(#p20bfdc9df1)">
     <use style="fill:#b40426;stroke:#b40426;" x="237.36512" xlink:href="#C0_0_318f1f064f" y="287.604087"/>
    </g>
    <g clip-path="url(#p20bfdc9df1)">
     <use style="fill:#b40426;stroke:#b40426;" x="177.496558" xlink:href="#C0_0_318f1f064f" y="193.882336"/>
    </g>
    <g clip-path="url(#p20bfdc9df1)">
     <use style="fill:#3b4cc0;stroke:#3b4cc0;" x="235.965883" xlink:href="#C0_0_318f1f064f" y="202.524123"/>
    </g>
    <g clip-path="url(#p20bfdc9df1)">
     <use style="fill:#b40426;stroke:#b40426;" x="308.872212" xlink:href="#C0_0_318f1f064f" y="325.234728"/>
    </g>
    <g clip-path="url(#p20bfdc9df1)">
     <use style="fill:#3b4cc0;stroke:#3b4cc0;" x="242.511658" xlink:href="#C0_0_318f1f064f" y="270.414303"/>
    </g>
    <g clip-path="url(#p20bfdc9df1)">
     <use style="fill:#b40426;stroke:#b40426;" x="351.524338" xlink:href="#C0_0_318f1f064f" y="415.407457"/>
    </g>
    <g clip-path="url(#p20bfdc9df1)">
     <use style="fill:#3b4cc0;stroke:#3b4cc0;" x="334.028112" xlink:href="#C0_0_318f1f064f" y="285.770027"/>
    </g>
    <g clip-path="url(#p20bfdc9df1)">
     <use style="fill:#3b4cc0;stroke:#3b4cc0;" x="310.078685" xlink:href="#C0_0_318f1f064f" y="370.363564"/>
    </g>
    <g clip-path="url(#p20bfdc9df1)">
     <use style="fill:#3b4cc0;stroke:#3b4cc0;" x="167.198879" xlink:href="#C0_0_318f1f064f" y="361.106373"/>
    </g>
    <g clip-path="url(#p20bfdc9df1)">
     <use style="fill:#3b4cc0;stroke:#3b4cc0;" x="316.479685" xlink:href="#C0_0_318f1f064f" y="227.011639"/>
    </g>
    <g clip-path="url(#p20bfdc9df1)">
     <use style="fill:#b40426;stroke:#b40426;" x="294.574564" xlink:href="#C0_0_318f1f064f" y="410.987233"/>
    </g>
    <g clip-path="url(#p20bfdc9df1)">
     <use style="fill:#3b4cc0;stroke:#3b4cc0;" x="210.720585" xlink:href="#C0_0_318f1f064f" y="404.477644"/>
    </g>
    <g clip-path="url(#p20bfdc9df1)">
     <use style="fill:#b40426;stroke:#b40426;" x="192.542673" xlink:href="#C0_0_318f1f064f" y="385.038577"/>
    </g>
    <g clip-path="url(#p20bfdc9df1)">
     <use style="fill:#b40426;stroke:#b40426;" x="217.48406" xlink:href="#C0_0_318f1f064f" y="361.754337"/>
    </g>
    <g clip-path="url(#p20bfdc9df1)">
     <use style="fill:#3b4cc0;stroke:#3b4cc0;" x="304.361794" xlink:href="#C0_0_318f1f064f" y="213.641511"/>
    </g>
    <g clip-path="url(#p20bfdc9df1)">
     <use style="fill:#3b4cc0;stroke:#3b4cc0;" x="352.305535" xlink:href="#C0_0_318f1f064f" y="290.688828"/>
    </g>
    <g clip-path="url(#p20bfdc9df1)">
     <use style="fill:#b40426;stroke:#b40426;" x="363.853714" xlink:href="#C0_0_318f1f064f" y="429.644938"/>
    </g>
    <g clip-path="url(#p20bfdc9df1)">
     <use style="fill:#b40426;stroke:#b40426;" x="268.466951" xlink:href="#C0_0_318f1f064f" y="209.951373"/>
    </g>
   </g>
   <g id="matplotlib.axis_1">
    <g id="xtick_1">
     <g id="line2d_1">
      <defs>
       <path d="M 0 0 
L 0 3.5 
" id="m15c49320c6" style="stroke:#000000;stroke-width:0.8;"/>
      </defs>
      <g>
       <use style="stroke:#000000;stroke-width:0.8;" x="89.84" xlink:href="#m15c49320c6" y="504"/>
      </g>
     </g>
     <g id="text_1">
      <!-- −0.25 -->
      <defs>
       <path d="M 10.59375 35.5 
L 73.1875 35.5 
L 73.1875 27.203125 
L 10.59375 27.203125 
z
" id="DejaVuSans-2212"/>
       <path d="M 31.78125 66.40625 
Q 24.171875 66.40625 20.328125 58.90625 
Q 16.5 51.421875 16.5 36.375 
Q 16.5 21.390625 20.328125 13.890625 
Q 24.171875 6.390625 31.78125 6.390625 
Q 39.453125 6.390625 43.28125 13.890625 
Q 47.125 21.390625 47.125 36.375 
Q 47.125 51.421875 43.28125 58.90625 
Q 39.453125 66.40625 31.78125 66.40625 
z
M 31.78125 74.21875 
Q 44.046875 74.21875 50.515625 64.515625 
Q 56.984375 54.828125 56.984375 36.375 
Q 56.984375 17.96875 50.515625 8.265625 
Q 44.046875 -1.421875 31.78125 -1.421875 
Q 19.53125 -1.421875 13.0625 8.265625 
Q 6.59375 17.96875 6.59375 36.375 
Q 6.59375 54.828125 13.0625 64.515625 
Q 19.53125 74.21875 31.78125 74.21875 
z
" id="DejaVuSans-30"/>
       <path d="M 10.6875 12.40625 
L 21 12.40625 
L 21 0 
L 10.6875 0 
z
" id="DejaVuSans-2e"/>
       <path d="M 19.1875 8.296875 
L 53.609375 8.296875 
L 53.609375 0 
L 7.328125 0 
L 7.328125 8.296875 
Q 12.9375 14.109375 22.625 23.890625 
Q 32.328125 33.6875 34.8125 36.53125 
Q 39.546875 41.84375 41.421875 45.53125 
Q 43.3125 49.21875 43.3125 52.78125 
Q 43.3125 58.59375 39.234375 62.25 
Q 35.15625 65.921875 28.609375 65.921875 
Q 23.96875 65.921875 18.8125 64.3125 
Q 13.671875 62.703125 7.8125 59.421875 
L 7.8125 69.390625 
Q 13.765625 71.78125 18.9375 73 
Q 24.125 74.21875 28.421875 74.21875 
Q 39.75 74.21875 46.484375 68.546875 
Q 53.21875 62.890625 53.21875 53.421875 
Q 53.21875 48.921875 51.53125 44.890625 
Q 49.859375 40.875 45.40625 35.40625 
Q 44.1875 33.984375 37.640625 27.21875 
Q 31.109375 20.453125 19.1875 8.296875 
z
" id="DejaVuSans-32"/>
       <path d="M 10.796875 72.90625 
L 49.515625 72.90625 
L 49.515625 64.59375 
L 19.828125 64.59375 
L 19.828125 46.734375 
Q 21.96875 47.46875 24.109375 47.828125 
Q 26.265625 48.1875 28.421875 48.1875 
Q 40.625 48.1875 47.75 41.5 
Q 54.890625 34.8125 54.890625 23.390625 
Q 54.890625 11.625 47.5625 5.09375 
Q 40.234375 -1.421875 26.90625 -1.421875 
Q 22.3125 -1.421875 17.546875 -0.640625 
Q 12.796875 0.140625 7.71875 1.703125 
L 7.71875 11.625 
Q 12.109375 9.234375 16.796875 8.0625 
Q 21.484375 6.890625 26.703125 6.890625 
Q 35.15625 6.890625 40.078125 11.328125 
Q 45.015625 15.765625 45.015625 23.390625 
Q 45.015625 31 40.078125 35.4375 
Q 35.15625 39.890625 26.703125 39.890625 
Q 22.75 39.890625 18.8125 39.015625 
Q 14.890625 38.140625 10.796875 36.28125 
z
" id="DejaVuSans-35"/>
      </defs>
      <g transform="translate(74.517344 518.598438)scale(0.1 -0.1)">
       <use xlink:href="#DejaVuSans-2212"/>
       <use x="83.789062" xlink:href="#DejaVuSans-30"/>
       <use x="147.412109" xlink:href="#DejaVuSans-2e"/>
       <use x="179.199219" xlink:href="#DejaVuSans-32"/>
       <use x="242.822266" xlink:href="#DejaVuSans-35"/>
      </g>
     </g>
    </g>
    <g id="xtick_2">
     <g id="line2d_2">
      <g>
       <use style="stroke:#000000;stroke-width:0.8;" x="150.24" xlink:href="#m15c49320c6" y="504"/>
      </g>
     </g>
     <g id="text_2">
      <!-- 0.00 -->
      <g transform="translate(139.107188 518.598438)scale(0.1 -0.1)">
       <use xlink:href="#DejaVuSans-30"/>
       <use x="63.623047" xlink:href="#DejaVuSans-2e"/>
       <use x="95.410156" xlink:href="#DejaVuSans-30"/>
       <use x="159.033203" xlink:href="#DejaVuSans-30"/>
      </g>
     </g>
    </g>
    <g id="xtick_3">
     <g id="line2d_3">
      <g>
       <use style="stroke:#000000;stroke-width:0.8;" x="210.64" xlink:href="#m15c49320c6" y="504"/>
      </g>
     </g>
     <g id="text_3">
      <!-- 0.25 -->
      <g transform="translate(199.507188 518.598438)scale(0.1 -0.1)">
       <use xlink:href="#DejaVuSans-30"/>
       <use x="63.623047" xlink:href="#DejaVuSans-2e"/>
       <use x="95.410156" xlink:href="#DejaVuSans-32"/>
       <use x="159.033203" xlink:href="#DejaVuSans-35"/>
      </g>
     </g>
    </g>
    <g id="xtick_4">
     <g id="line2d_4">
      <g>
       <use style="stroke:#000000;stroke-width:0.8;" x="271.04" xlink:href="#m15c49320c6" y="504"/>
      </g>
     </g>
     <g id="text_4">
      <!-- 0.50 -->
      <g transform="translate(259.907188 518.598438)scale(0.1 -0.1)">
       <use xlink:href="#DejaVuSans-30"/>
       <use x="63.623047" xlink:href="#DejaVuSans-2e"/>
       <use x="95.410156" xlink:href="#DejaVuSans-35"/>
       <use x="159.033203" xlink:href="#DejaVuSans-30"/>
      </g>
     </g>
    </g>
    <g id="xtick_5">
     <g id="line2d_5">
      <g>
       <use style="stroke:#000000;stroke-width:0.8;" x="331.44" xlink:href="#m15c49320c6" y="504"/>
      </g>
     </g>
     <g id="text_5">
      <!-- 0.75 -->
      <defs>
       <path d="M 8.203125 72.90625 
L 55.078125 72.90625 
L 55.078125 68.703125 
L 28.609375 0 
L 18.3125 0 
L 43.21875 64.59375 
L 8.203125 64.59375 
z
" id="DejaVuSans-37"/>
      </defs>
      <g transform="translate(320.307187 518.598438)scale(0.1 -0.1)">
       <use xlink:href="#DejaVuSans-30"/>
       <use x="63.623047" xlink:href="#DejaVuSans-2e"/>
       <use x="95.410156" xlink:href="#DejaVuSans-37"/>
       <use x="159.033203" xlink:href="#DejaVuSans-35"/>
      </g>
     </g>
    </g>
    <g id="xtick_6">
     <g id="line2d_6">
      <g>
       <use style="stroke:#000000;stroke-width:0.8;" x="391.84" xlink:href="#m15c49320c6" y="504"/>
      </g>
     </g>
     <g id="text_6">
      <!-- 1.00 -->
      <defs>
       <path d="M 12.40625 8.296875 
L 28.515625 8.296875 
L 28.515625 63.921875 
L 10.984375 60.40625 
L 10.984375 69.390625 
L 28.421875 72.90625 
L 38.28125 72.90625 
L 38.28125 8.296875 
L 54.390625 8.296875 
L 54.390625 0 
L 12.40625 0 
z
" id="DejaVuSans-31"/>
      </defs>
      <g transform="translate(380.707188 518.598438)scale(0.1 -0.1)">
       <use xlink:href="#DejaVuSans-31"/>
       <use x="63.623047" xlink:href="#DejaVuSans-2e"/>
       <use x="95.410156" xlink:href="#DejaVuSans-30"/>
       <use x="159.033203" xlink:href="#DejaVuSans-30"/>
      </g>
     </g>
    </g>
    <g id="xtick_7">
     <g id="line2d_7">
      <g>
       <use style="stroke:#000000;stroke-width:0.8;" x="452.24" xlink:href="#m15c49320c6" y="504"/>
      </g>
     </g>
     <g id="text_7">
      <!-- 1.25 -->
      <g transform="translate(441.107188 518.598438)scale(0.1 -0.1)">
       <use xlink:href="#DejaVuSans-31"/>
       <use x="63.623047" xlink:href="#DejaVuSans-2e"/>
       <use x="95.410156" xlink:href="#DejaVuSans-32"/>
       <use x="159.033203" xlink:href="#DejaVuSans-35"/>
      </g>
     </g>
    </g>
    <g id="xtick_8">
     <g id="line2d_8">
      <g>
       <use style="stroke:#000000;stroke-width:0.8;" x="512.64" xlink:href="#m15c49320c6" y="504"/>
      </g>
     </g>
     <g id="text_8">
      <!-- 1.50 -->
      <g transform="translate(501.507187 518.598438)scale(0.1 -0.1)">
       <use xlink:href="#DejaVuSans-31"/>
       <use x="63.623047" xlink:href="#DejaVuSans-2e"/>
       <use x="95.410156" xlink:href="#DejaVuSans-35"/>
       <use x="159.033203" xlink:href="#DejaVuSans-30"/>
      </g>
     </g>
    </g>
   </g>
   <g id="matplotlib.axis_2">
    <g id="ytick_1">
     <g id="line2d_9">
      <defs>
       <path d="M 0 0 
L -3.5 0 
" id="ma076248ef6" style="stroke:#000000;stroke-width:0.8;"/>
      </defs>
      <g>
       <use style="stroke:#000000;stroke-width:0.8;" x="72" xlink:href="#ma076248ef6" y="479.84"/>
      </g>
     </g>
     <g id="text_9">
      <!-- −0.2 -->
      <g transform="translate(40.717187 483.639219)scale(0.1 -0.1)">
       <use xlink:href="#DejaVuSans-2212"/>
       <use x="83.789062" xlink:href="#DejaVuSans-30"/>
       <use x="147.412109" xlink:href="#DejaVuSans-2e"/>
       <use x="179.199219" xlink:href="#DejaVuSans-32"/>
      </g>
     </g>
    </g>
    <g id="ytick_2">
     <g id="line2d_10">
      <g>
       <use style="stroke:#000000;stroke-width:0.8;" x="72" xlink:href="#ma076248ef6" y="431.52"/>
      </g>
     </g>
     <g id="text_10">
      <!-- 0.0 -->
      <g transform="translate(49.096875 435.319219)scale(0.1 -0.1)">
       <use xlink:href="#DejaVuSans-30"/>
       <use x="63.623047" xlink:href="#DejaVuSans-2e"/>
       <use x="95.410156" xlink:href="#DejaVuSans-30"/>
      </g>
     </g>
    </g>
    <g id="ytick_3">
     <g id="line2d_11">
      <g>
       <use style="stroke:#000000;stroke-width:0.8;" x="72" xlink:href="#ma076248ef6" y="383.2"/>
      </g>
     </g>
     <g id="text_11">
      <!-- 0.2 -->
      <g transform="translate(49.096875 386.999219)scale(0.1 -0.1)">
       <use xlink:href="#DejaVuSans-30"/>
       <use x="63.623047" xlink:href="#DejaVuSans-2e"/>
       <use x="95.410156" xlink:href="#DejaVuSans-32"/>
      </g>
     </g>
    </g>
    <g id="ytick_4">
     <g id="line2d_12">
      <g>
       <use style="stroke:#000000;stroke-width:0.8;" x="72" xlink:href="#ma076248ef6" y="334.88"/>
      </g>
     </g>
     <g id="text_12">
      <!-- 0.4 -->
      <defs>
       <path d="M 37.796875 64.3125 
L 12.890625 25.390625 
L 37.796875 25.390625 
z
M 35.203125 72.90625 
L 47.609375 72.90625 
L 47.609375 25.390625 
L 58.015625 25.390625 
L 58.015625 17.1875 
L 47.609375 17.1875 
L 47.609375 0 
L 37.796875 0 
L 37.796875 17.1875 
L 4.890625 17.1875 
L 4.890625 26.703125 
z
" id="DejaVuSans-34"/>
      </defs>
      <g transform="translate(49.096875 338.679219)scale(0.1 -0.1)">
       <use xlink:href="#DejaVuSans-30"/>
       <use x="63.623047" xlink:href="#DejaVuSans-2e"/>
       <use x="95.410156" xlink:href="#DejaVuSans-34"/>
      </g>
     </g>
    </g>
    <g id="ytick_5">
     <g id="line2d_13">
      <g>
       <use style="stroke:#000000;stroke-width:0.8;" x="72" xlink:href="#ma076248ef6" y="286.56"/>
      </g>
     </g>
     <g id="text_13">
      <!-- 0.6 -->
      <defs>
       <path d="M 33.015625 40.375 
Q 26.375 40.375 22.484375 35.828125 
Q 18.609375 31.296875 18.609375 23.390625 
Q 18.609375 15.53125 22.484375 10.953125 
Q 26.375 6.390625 33.015625 6.390625 
Q 39.65625 6.390625 43.53125 10.953125 
Q 47.40625 15.53125 47.40625 23.390625 
Q 47.40625 31.296875 43.53125 35.828125 
Q 39.65625 40.375 33.015625 40.375 
z
M 52.59375 71.296875 
L 52.59375 62.3125 
Q 48.875 64.0625 45.09375 64.984375 
Q 41.3125 65.921875 37.59375 65.921875 
Q 27.828125 65.921875 22.671875 59.328125 
Q 17.53125 52.734375 16.796875 39.40625 
Q 19.671875 43.65625 24.015625 45.921875 
Q 28.375 48.1875 33.59375 48.1875 
Q 44.578125 48.1875 50.953125 41.515625 
Q 57.328125 34.859375 57.328125 23.390625 
Q 57.328125 12.15625 50.6875 5.359375 
Q 44.046875 -1.421875 33.015625 -1.421875 
Q 20.359375 -1.421875 13.671875 8.265625 
Q 6.984375 17.96875 6.984375 36.375 
Q 6.984375 53.65625 15.1875 63.9375 
Q 23.390625 74.21875 37.203125 74.21875 
Q 40.921875 74.21875 44.703125 73.484375 
Q 48.484375 72.75 52.59375 71.296875 
z
" id="DejaVuSans-36"/>
      </defs>
      <g transform="translate(49.096875 290.359219)scale(0.1 -0.1)">
       <use xlink:href="#DejaVuSans-30"/>
       <use x="63.623047" xlink:href="#DejaVuSans-2e"/>
       <use x="95.410156" xlink:href="#DejaVuSans-36"/>
      </g>
     </g>
    </g>
    <g id="ytick_6">
     <g id="line2d_14">
      <g>
       <use style="stroke:#000000;stroke-width:0.8;" x="72" xlink:href="#ma076248ef6" y="238.24"/>
      </g>
     </g>
     <g id="text_14">
      <!-- 0.8 -->
      <defs>
       <path d="M 31.78125 34.625 
Q 24.75 34.625 20.71875 30.859375 
Q 16.703125 27.09375 16.703125 20.515625 
Q 16.703125 13.921875 20.71875 10.15625 
Q 24.75 6.390625 31.78125 6.390625 
Q 38.8125 6.390625 42.859375 10.171875 
Q 46.921875 13.96875 46.921875 20.515625 
Q 46.921875 27.09375 42.890625 30.859375 
Q 38.875 34.625 31.78125 34.625 
z
M 21.921875 38.8125 
Q 15.578125 40.375 12.03125 44.71875 
Q 8.5 49.078125 8.5 55.328125 
Q 8.5 64.0625 14.71875 69.140625 
Q 20.953125 74.21875 31.78125 74.21875 
Q 42.671875 74.21875 48.875 69.140625 
Q 55.078125 64.0625 55.078125 55.328125 
Q 55.078125 49.078125 51.53125 44.71875 
Q 48 40.375 41.703125 38.8125 
Q 48.828125 37.15625 52.796875 32.3125 
Q 56.78125 27.484375 56.78125 20.515625 
Q 56.78125 9.90625 50.3125 4.234375 
Q 43.84375 -1.421875 31.78125 -1.421875 
Q 19.734375 -1.421875 13.25 4.234375 
Q 6.78125 9.90625 6.78125 20.515625 
Q 6.78125 27.484375 10.78125 32.3125 
Q 14.796875 37.15625 21.921875 38.8125 
z
M 18.3125 54.390625 
Q 18.3125 48.734375 21.84375 45.5625 
Q 25.390625 42.390625 31.78125 42.390625 
Q 38.140625 42.390625 41.71875 45.5625 
Q 45.3125 48.734375 45.3125 54.390625 
Q 45.3125 60.0625 41.71875 63.234375 
Q 38.140625 66.40625 31.78125 66.40625 
Q 25.390625 66.40625 21.84375 63.234375 
Q 18.3125 60.0625 18.3125 54.390625 
z
" id="DejaVuSans-38"/>
      </defs>
      <g transform="translate(49.096875 242.039219)scale(0.1 -0.1)">
       <use xlink:href="#DejaVuSans-30"/>
       <use x="63.623047" xlink:href="#DejaVuSans-2e"/>
       <use x="95.410156" xlink:href="#DejaVuSans-38"/>
      </g>
     </g>
    </g>
    <g id="ytick_7">
     <g id="line2d_15">
      <g>
       <use style="stroke:#000000;stroke-width:0.8;" x="72" xlink:href="#ma076248ef6" y="189.92"/>
      </g>
     </g>
     <g id="text_15">
      <!-- 1.0 -->
      <g transform="translate(49.096875 193.719219)scale(0.1 -0.1)">
       <use xlink:href="#DejaVuSans-31"/>
       <use x="63.623047" xlink:href="#DejaVuSans-2e"/>
       <use x="95.410156" xlink:href="#DejaVuSans-30"/>
      </g>
     </g>
    </g>
    <g id="ytick_8">
     <g id="line2d_16">
      <g>
       <use style="stroke:#000000;stroke-width:0.8;" x="72" xlink:href="#ma076248ef6" y="141.6"/>
      </g>
     </g>
     <g id="text_16">
      <!-- 1.2 -->
      <g transform="translate(49.096875 145.399219)scale(0.1 -0.1)">
       <use xlink:href="#DejaVuSans-31"/>
       <use x="63.623047" xlink:href="#DejaVuSans-2e"/>
       <use x="95.410156" xlink:href="#DejaVuSans-32"/>
      </g>
     </g>
    </g>
    <g id="ytick_9">
     <g id="line2d_17">
      <g>
       <use style="stroke:#000000;stroke-width:0.8;" x="72" xlink:href="#ma076248ef6" y="93.28"/>
      </g>
     </g>
     <g id="text_17">
      <!-- 1.4 -->
      <g transform="translate(49.096875 97.079219)scale(0.1 -0.1)">
       <use xlink:href="#DejaVuSans-31"/>
       <use x="63.623047" xlink:href="#DejaVuSans-2e"/>
       <use x="95.410156" xlink:href="#DejaVuSans-34"/>
      </g>
     </g>
    </g>
   </g>
   <g id="patch_3">
    <path d="M 72 504 
L 72 69.12 
" style="fill:none;stroke:#000000;stroke-linecap:square;stroke-linejoin:miter;stroke-width:0.8;"/>
   </g>
   <g id="patch_4">
    <path d="M 518.4 504 
L 518.4 69.12 
" style="fill:none;stroke:#000000;stroke-linecap:square;stroke-linejoin:miter;stroke-width:0.8;"/>
   </g>
   <g id="patch_5">
    <path d="M 72 504 
L 518.4 504 
" style="fill:none;stroke:#000000;stroke-linecap:square;stroke-linejoin:miter;stroke-width:0.8;"/>
   </g>
   <g id="patch_6">
    <path d="M 72 69.12 
L 518.4 69.12 
" style="fill:none;stroke:#000000;stroke-linecap:square;stroke-linejoin:miter;stroke-width:0.8;"/>
   </g>
  </g>
 </g>
 <defs>
  <clipPath id="p20bfdc9df1">
   <rect height="434.88" width="446.4" x="72" y="69.12"/>
  </clipPath>
 </defs>
</svg>
