<?xml version="1.0" encoding="utf-8" standalone="no"?>
<!DOCTYPE svg PUBLIC "-//W3C//DTD SVG 1.1//EN"
  "http://www.w3.org/Graphics/SVG/1.1/DTD/svg11.dtd">
<!-- Created with matplotlib (http://matplotlib.org/) -->
<svg height="576pt" version="1.1" viewBox="0 0 576 576" width="576pt" xmlns="http://www.w3.org/2000/svg" xmlns:xlink="http://www.w3.org/1999/xlink">
 <defs>
  <style type="text/css">
*{stroke-linecap:butt;stroke-linejoin:round;}
  </style>
 </defs>
 <g id="figure_1">
  <g id="patch_1">
   <path d="M 0 576 
L 576 576 
L 576 0 
L 0 0 
z
" style="fill:#ffffff;"/>
  </g>
  <g id="axes_1">
   <g id="patch_2">
    <path d="M 72 504 
L 518.4 504 
L 518.4 69.12 
L 72 69.12 
z
" style="fill:#ffffff;"/>
   </g>
   <g id="PathCollection_1">
    <path clip-path="url(#p2359bbb9f6)" d="M 76.509091 504 
L 81.018182 504 
L 85.527273 504 
L 90.036364 504 
L 94.545455 504 
L 99.054545 504 
L 103.563636 504 
L 108.072727 504 
L 112.581818 504 
L 117.090909 504 
L 121.6 504 
L 124.881175 504 
L 126.109091 502.118936 
L 127.748644 499.607273 
L 130.616097 495.214545 
L 130.618182 495.211352 
L 133.483562 490.821818 
L 135.127273 488.303777 
L 136.351019 486.429091 
L 139.218479 482.036364 
L 139.636364 481.396195 
L 142.085936 477.643636 
L 144.145455 474.488615 
L 144.953397 473.250909 
L 147.820854 468.858182 
L 148.654545 467.58103 
L 150.688313 464.465455 
L 153.163636 460.673462 
L 153.555781 460.072727 
L 156.42323 455.68 
L 157.672727 453.765867 
L 159.290691 451.287273 
L 162.158152 446.894545 
L 162.181818 446.858291 
L 165.025606 442.501818 
L 166.690909 439.950708 
L 167.893069 438.109091 
L 170.760513 433.716364 
L 171.2 433.043101 
L 173.627975 429.323636 
L 175.709091 426.135534 
L 176.49544 424.930909 
L 179.362901 420.538182 
L 180.218182 419.227957 
L 182.23036 416.145455 
L 184.727273 412.320374 
L 185.097818 411.752727 
L 187.96528 407.36 
L 189.236364 405.412797 
L 190.832738 402.967273 
L 193.700199 398.574545 
L 193.745455 398.505217 
L 196.567653 394.181818 
L 198.254545 391.597627 
L 199.435112 389.789091 
L 202.302569 385.396364 
L 202.763636 384.690044 
L 205.17003 381.003636 
L 207.272727 377.782468 
L 208.037492 376.610909 
L 210.90495 372.218182 
L 211.781818 370.874887 
L 213.772407 367.825455 
L 216.290909 363.967303 
L 216.639866 363.432727 
L 219.507323 359.04 
L 220.8 357.059716 
L 222.37478 354.647273 
L 225.242237 350.254545 
L 225.309091 350.15213 
L 228.109694 345.861818 
L 229.818182 343.244546 
L 230.977154 341.469091 
L 233.844611 337.076364 
L 234.327273 336.336965 
L 236.712076 332.683636 
L 238.836364 329.429389 
L 239.579534 328.290909 
L 242.54526 323.898182 
L 243.345455 322.585974 
L 245.391052 319.505455 
L 247.854545 315.614218 
L 248.148419 315.112727 
L 251.021696 310.72 
L 252.363636 308.647512 
L 253.819516 306.327273 
L 256.637508 301.934545 
L 256.872727 301.576434 
L 259.5228 297.541818 
L 261.381818 294.711549 
L 262.408094 293.149091 
L 265.293388 288.756364 
L 265.890909 287.846666 
L 268.178682 284.363636 
L 270.4 280.981783 
L 271.063977 279.970909 
L 273.949271 275.578182 
L 274.909091 274.116901 
L 276.834564 271.185455 
L 279.418182 267.252015 
L 279.719857 266.792727 
L 283.671941 262.4 
L 283.927273 262.171579 
L 288.436364 258.137727 
L 289.469935 258.007273 
L 292.945455 257.696844 
L 297.454545 257.946177 
L 297.55662 258.007273 
L 301.963636 260.911693 
L 304.221915 262.4 
L 306.472727 264.296913 
L 309.391397 266.792727 
L 310.981818 268.410816 
L 313.709014 271.185455 
L 315.490909 272.998348 
L 318.026632 275.578182 
L 320 277.585881 
L 322.344247 279.970909 
L 324.509091 282.173411 
L 326.661865 284.363636 
L 329.018182 286.760947 
L 330.979482 288.756364 
L 333.527273 291.348476 
L 335.297098 293.149091 
L 338.036364 295.936011 
L 342.545455 294.102556 
L 343.495912 293.149091 
L 347.054545 289.579204 
L 347.874793 288.756364 
L 351.563636 285.055857 
L 352.253675 284.363636 
L 356.072727 280.532512 
L 356.632561 279.970909 
L 360.581818 276.009164 
L 361.011441 275.578182 
L 365.090909 271.485818 
L 365.390326 271.185455 
L 369.6 266.962471 
L 369.769208 266.792727 
L 374.109091 262.439127 
L 374.148095 262.4 
L 378.618182 259.300729 
L 380.458101 258.007273 
L 383.127273 256.192416 
L 386.918621 253.614545 
L 387.636364 253.105119 
L 392.145455 249.802676 
L 392.91369 249.221818 
L 396.654545 246.104357 
L 398.184825 244.829091 
L 401.163636 242.346678 
L 403.455943 240.436364 
L 405.672727 238.588999 
L 408.727091 236.043636 
L 410.181818 234.831328 
L 413.998224 231.650909 
L 414.690909 231.073655 
L 419.2 227.31596 
L 419.269331 227.258182 
L 423.709091 223.558296 
L 424.540483 222.865455 
L 428.218182 219.800623 
L 429.811608 218.472727 
L 432.727273 216.042935 
L 435.082735 214.08 
L 437.236364 212.285265 
L 440.353869 209.687273 
L 441.745455 208.527588 
L 445.625028 205.294545 
L 446.254545 204.769932 
L 450.763636 201.012214 
L 450.896107 200.901818 
L 455.272727 197.254557 
L 456.167268 196.509091 
L 459.781818 193.496873 
L 461.43838 192.116364 
L 464.290909 189.739204 
L 466.709535 187.723636 
L 468.8 185.981541 
L 471.980676 183.330909 
L 473.309091 182.22386 
L 477.25178 178.938182 
L 477.818182 178.466168 
L 482.327273 174.708514 
L 482.52294 174.545455 
L 486.836364 170.950836 
L 487.794061 170.152727 
L 491.345455 167.19314 
L 493.0652 165.76 
L 495.854545 163.435495 
L 498.336317 161.367273 
L 500.363636 159.67779 
L 503.607473 156.974545 
L 504.872727 155.920139 
L 508.87855 152.581818 
L 509.381818 152.162414 
L 513.890909 148.40479 
L 514.149741 148.189091 
L 518.4 144.647095 
L 518.4 143.796364 
L 518.4 139.403636 
L 518.4 135.010909 
L 518.4 130.618182 
L 518.4 126.225455 
L 518.4 121.832727 
L 518.4 117.44 
L 518.4 113.047273 
L 518.4 108.654545 
L 518.4 104.261818 
L 518.4 99.869091 
L 518.4 95.476364 
L 518.4 91.083636 
L 518.4 86.690909 
L 518.4 82.298182 
L 518.4 77.905455 
L 518.4 73.512727 
L 518.4 69.12 
L 513.890909 69.12 
L 509.381818 69.12 
L 504.872727 69.12 
L 500.363636 69.12 
L 495.854545 69.12 
L 491.345455 69.12 
L 486.836364 69.12 
L 482.327273 69.12 
L 477.818182 69.12 
L 473.309091 69.12 
L 468.8 69.12 
L 464.290909 69.12 
L 459.781818 69.12 
L 455.272727 69.12 
L 450.763636 69.12 
L 446.254545 69.12 
L 441.745455 69.12 
L 437.236364 69.12 
L 432.727273 69.12 
L 428.218182 69.12 
L 423.709091 69.12 
L 419.2 69.12 
L 414.690909 69.12 
L 410.181818 69.12 
L 405.672727 69.12 
L 401.163636 69.12 
L 396.654545 69.12 
L 392.145455 69.12 
L 387.636364 69.12 
L 383.127273 69.12 
L 378.618182 69.12 
L 374.109091 69.12 
L 369.6 69.12 
L 365.090909 69.12 
L 360.581818 69.12 
L 356.072727 69.12 
L 351.563636 69.12 
L 347.054545 69.12 
L 342.545455 69.12 
L 338.036364 69.12 
L 333.527273 69.12 
L 329.018182 69.12 
L 324.509091 69.12 
L 320 69.12 
L 315.490909 69.12 
L 310.981818 69.12 
L 306.472727 69.12 
L 301.963636 69.12 
L 297.454545 69.12 
L 292.945455 69.12 
L 288.436364 69.12 
L 283.927273 69.12 
L 279.418182 69.12 
L 274.909091 69.12 
L 270.4 69.12 
L 265.890909 69.12 
L 261.381818 69.12 
L 256.872727 69.12 
L 252.363636 69.12 
L 247.854545 69.12 
L 243.345455 69.12 
L 238.836364 69.12 
L 234.327273 69.12 
L 229.818182 69.12 
L 225.309091 69.12 
L 220.8 69.12 
L 216.290909 69.12 
L 211.781818 69.12 
L 207.272727 69.12 
L 202.763636 69.12 
L 198.254545 69.12 
L 193.745455 69.12 
L 189.236364 69.12 
L 184.727273 69.12 
L 180.218182 69.12 
L 175.709091 69.12 
L 171.2 69.12 
L 166.690909 69.12 
L 162.181818 69.12 
L 157.672727 69.12 
L 153.163636 69.12 
L 148.654545 69.12 
L 144.145455 69.12 
L 139.636364 69.12 
L 135.127273 69.12 
L 130.618182 69.12 
L 126.109091 69.12 
L 121.6 69.12 
L 117.090909 69.12 
L 112.581818 69.12 
L 108.072727 69.12 
L 103.563636 69.12 
L 99.054545 69.12 
L 94.545455 69.12 
L 90.036364 69.12 
L 85.527273 69.12 
L 81.018182 69.12 
L 76.509091 69.12 
L 72 69.12 
L 72 73.512727 
L 72 77.905455 
L 72 82.298182 
L 72 86.690909 
L 72 91.083636 
L 72 95.476364 
L 72 99.869091 
L 72 104.261818 
L 72 108.654545 
L 72 113.047273 
L 72 117.44 
L 72 121.832727 
L 72 126.225455 
L 72 130.618182 
L 72 135.010909 
L 72 139.403636 
L 72 143.796364 
L 72 148.189091 
L 72 152.581818 
L 72 156.974545 
L 72 161.367273 
L 72 165.76 
L 72 170.152727 
L 72 174.545455 
L 72 178.938182 
L 72 183.330909 
L 72 187.723636 
L 72 192.116364 
L 72 196.509091 
L 72 200.901818 
L 72 205.294545 
L 72 209.687273 
L 72 214.08 
L 72 218.472727 
L 72 222.865455 
L 72 227.258182 
L 72 231.650909 
L 72 236.043636 
L 72 240.436364 
L 72 244.829091 
L 72 249.221818 
L 72 253.614545 
L 72 258.007273 
L 72 262.4 
L 72 266.792727 
L 72 271.185455 
L 72 275.578182 
L 72 279.970909 
L 72 284.363636 
L 72 288.756364 
L 72 293.149091 
L 72 297.541818 
L 72 301.934545 
L 72 306.327273 
L 72 310.72 
L 72 315.112727 
L 72 319.505455 
L 72 323.898182 
L 72 328.290909 
L 72 332.683636 
L 72 337.076364 
L 72 341.469091 
L 72 345.861818 
L 72 350.254545 
L 72 354.647273 
L 72 359.04 
L 72 363.432727 
L 72 367.825455 
L 72 372.218182 
L 72 376.610909 
L 72 381.003636 
L 72 385.396364 
L 72 389.789091 
L 72 394.181818 
L 72 398.574545 
L 72 402.967273 
L 72 407.36 
L 72 411.752727 
L 72 416.145455 
L 72 420.538182 
L 72 424.930909 
L 72 429.323636 
L 72 433.716364 
L 72 438.109091 
L 72 442.501818 
L 72 446.894545 
L 72 451.287273 
L 72 455.68 
L 72 460.072727 
L 72 464.465455 
L 72 468.858182 
L 72 473.250909 
L 72 477.643636 
L 72 482.036364 
L 72 486.429091 
L 72 490.821818 
L 72 495.214545 
L 72 499.607273 
L 72 504 
z
" style="fill:#8db0fe;"/>
   </g>
   <g id="PathCollection_2">
    <path clip-path="url(#p2359bbb9f6)" d="M 126.109091 504 
L 130.618182 504 
L 135.127273 504 
L 139.636364 504 
L 144.145455 504 
L 148.654545 504 
L 153.163636 504 
L 157.672727 504 
L 162.181818 504 
L 166.690909 504 
L 171.2 504 
L 175.709091 504 
L 180.218182 504 
L 184.727273 504 
L 189.236364 504 
L 193.745455 504 
L 198.254545 504 
L 202.763636 504 
L 207.272727 504 
L 211.781818 504 
L 216.290909 504 
L 220.8 504 
L 225.309091 504 
L 229.818182 504 
L 234.327273 504 
L 238.836364 504 
L 243.345455 504 
L 247.854545 504 
L 252.363636 504 
L 256.872727 504 
L 261.381818 504 
L 265.890909 504 
L 270.4 504 
L 274.909091 504 
L 279.418182 504 
L 283.927273 504 
L 288.436364 504 
L 292.945455 504 
L 297.454545 504 
L 301.963636 504 
L 306.472727 504 
L 310.981818 504 
L 315.490909 504 
L 320 504 
L 324.509091 504 
L 329.018182 504 
L 333.527273 504 
L 338.036364 504 
L 342.545455 504 
L 347.054545 504 
L 351.563636 504 
L 356.072727 504 
L 360.581818 504 
L 365.090909 504 
L 369.6 504 
L 374.109091 504 
L 378.618182 504 
L 383.127273 504 
L 387.636364 504 
L 392.145455 504 
L 396.654545 504 
L 401.163636 504 
L 405.672727 504 
L 410.181818 504 
L 414.690909 504 
L 419.2 504 
L 423.709091 504 
L 428.218182 504 
L 432.727273 504 
L 437.236364 504 
L 441.745455 504 
L 446.254545 504 
L 450.763636 504 
L 455.272727 504 
L 459.781818 504 
L 464.290909 504 
L 468.8 504 
L 473.309091 504 
L 477.818182 504 
L 482.327273 504 
L 486.836364 504 
L 491.345455 504 
L 495.854545 504 
L 500.363636 504 
L 504.872727 504 
L 509.381818 504 
L 513.890909 504 
L 518.4 504 
L 518.4 499.607273 
L 518.4 495.214545 
L 518.4 490.821818 
L 518.4 486.429091 
L 518.4 482.036364 
L 518.4 477.643636 
L 518.4 473.250909 
L 518.4 468.858182 
L 518.4 464.465455 
L 518.4 460.072727 
L 518.4 455.68 
L 518.4 451.287273 
L 518.4 446.894545 
L 518.4 442.501818 
L 518.4 438.109091 
L 518.4 433.716364 
L 518.4 429.323636 
L 518.4 424.930909 
L 518.4 420.538182 
L 518.4 416.145455 
L 518.4 411.752727 
L 518.4 407.36 
L 518.4 402.967273 
L 518.4 398.574545 
L 518.4 394.181818 
L 518.4 389.789091 
L 518.4 385.396364 
L 518.4 381.003636 
L 518.4 376.610909 
L 518.4 372.218182 
L 518.4 367.825455 
L 518.4 363.432727 
L 518.4 359.04 
L 518.4 354.647273 
L 518.4 350.254545 
L 518.4 345.861818 
L 518.4 341.469091 
L 518.4 337.076364 
L 518.4 332.683636 
L 518.4 328.290909 
L 518.4 323.898182 
L 518.4 319.505455 
L 518.4 315.112727 
L 518.4 310.72 
L 518.4 306.327273 
L 518.4 301.934545 
L 518.4 297.541818 
L 518.4 293.149091 
L 518.4 288.756364 
L 518.4 284.363636 
L 518.4 279.970909 
L 518.4 275.578182 
L 518.4 271.185455 
L 518.4 266.792727 
L 518.4 262.4 
L 518.4 258.007273 
L 518.4 253.614545 
L 518.4 249.221818 
L 518.4 244.829091 
L 518.4 240.436364 
L 518.4 236.043636 
L 518.4 231.650909 
L 518.4 227.258182 
L 518.4 222.865455 
L 518.4 218.472727 
L 518.4 214.08 
L 518.4 209.687273 
L 518.4 205.294545 
L 518.4 200.901818 
L 518.4 196.509091 
L 518.4 192.116364 
L 518.4 187.723636 
L 518.4 183.330909 
L 518.4 178.938182 
L 518.4 174.545455 
L 518.4 170.152727 
L 518.4 165.76 
L 518.4 161.367273 
L 518.4 156.974545 
L 518.4 152.581818 
L 518.4 148.189091 
L 518.4 144.647095 
L 514.149741 148.189091 
L 513.890909 148.40479 
L 509.381818 152.162414 
L 508.87855 152.581818 
L 504.872727 155.920139 
L 503.607473 156.974545 
L 500.363636 159.67779 
L 498.336317 161.367273 
L 495.854545 163.435495 
L 493.0652 165.76 
L 491.345455 167.19314 
L 487.794061 170.152727 
L 486.836364 170.950836 
L 482.52294 174.545455 
L 482.327273 174.708514 
L 477.818182 178.466168 
L 477.25178 178.938182 
L 473.309091 182.22386 
L 471.980676 183.330909 
L 468.8 185.981541 
L 466.709535 187.723636 
L 464.290909 189.739204 
L 461.43838 192.116364 
L 459.781818 193.496873 
L 456.167268 196.509091 
L 455.272727 197.254557 
L 450.896107 200.901818 
L 450.763636 201.012214 
L 446.254545 204.769932 
L 445.625028 205.294545 
L 441.745455 208.527588 
L 440.353869 209.687273 
L 437.236364 212.285265 
L 435.082735 214.08 
L 432.727273 216.042935 
L 429.811608 218.472727 
L 428.218182 219.800623 
L 424.540483 222.865455 
L 423.709091 223.558296 
L 419.269331 227.258182 
L 419.2 227.31596 
L 414.690909 231.073655 
L 413.998224 231.650909 
L 410.181818 234.831328 
L 408.727091 236.043636 
L 405.672727 238.588999 
L 403.455943 240.436364 
L 401.163636 242.346678 
L 398.184825 244.829091 
L 396.654545 246.104357 
L 392.91369 249.221818 
L 392.145455 249.802676 
L 387.636364 253.105119 
L 386.918621 253.614545 
L 383.127273 256.192416 
L 380.458101 258.007273 
L 378.618182 259.300729 
L 374.148095 262.4 
L 374.109091 262.439127 
L 369.769208 266.792727 
L 369.6 266.962471 
L 365.390326 271.185455 
L 365.090909 271.485818 
L 361.011441 275.578182 
L 360.581818 276.009164 
L 356.632561 279.970909 
L 356.072727 280.532512 
L 352.253675 284.363636 
L 351.563636 285.055857 
L 347.874793 288.756364 
L 347.054545 289.579204 
L 343.495912 293.149091 
L 342.545455 294.102556 
L 338.036364 295.936011 
L 335.297098 293.149091 
L 333.527273 291.348476 
L 330.979482 288.756364 
L 329.018182 286.760947 
L 326.661865 284.363636 
L 324.509091 282.173411 
L 322.344247 279.970909 
L 320 277.585881 
L 318.026632 275.578182 
L 315.490909 272.998348 
L 313.709014 271.185455 
L 310.981818 268.410816 
L 309.391397 266.792727 
L 306.472727 264.296913 
L 304.221915 262.4 
L 301.963636 260.911693 
L 297.55662 258.007273 
L 297.454545 257.946177 
L 292.945455 257.696844 
L 289.469935 258.007273 
L 288.436364 258.137727 
L 283.927273 262.171579 
L 283.671941 262.4 
L 279.719857 266.792727 
L 279.418182 267.252015 
L 276.834564 271.185455 
L 274.909091 274.116901 
L 273.949271 275.578182 
L 271.063977 279.970909 
L 270.4 280.981783 
L 268.178682 284.363636 
L 265.890909 287.846666 
L 265.293388 288.756364 
L 262.408094 293.149091 
L 261.381818 294.711549 
L 259.5228 297.541818 
L 256.872727 301.576434 
L 256.637508 301.934545 
L 253.819516 306.327273 
L 252.363636 308.647512 
L 251.021696 310.72 
L 248.148419 315.112727 
L 247.854545 315.614218 
L 245.391052 319.505455 
L 243.345455 322.585974 
L 242.54526 323.898182 
L 239.579534 328.290909 
L 238.836364 329.429389 
L 236.712076 332.683636 
L 234.327273 336.336965 
L 233.844611 337.076364 
L 230.977154 341.469091 
L 229.818182 343.244546 
L 228.109694 345.861818 
L 225.309091 350.15213 
L 225.242237 350.254545 
L 222.37478 354.647273 
L 220.8 357.059716 
L 219.507323 359.04 
L 216.639866 363.432727 
L 216.290909 363.967303 
L 213.772407 367.825455 
L 211.781818 370.874887 
L 210.90495 372.218182 
L 208.037492 376.610909 
L 207.272727 377.782468 
L 205.17003 381.003636 
L 202.763636 384.690044 
L 202.302569 385.396364 
L 199.435112 389.789091 
L 198.254545 391.597627 
L 196.567653 394.181818 
L 193.745455 398.505217 
L 193.700199 398.574545 
L 190.832738 402.967273 
L 189.236364 405.412797 
L 187.96528 407.36 
L 185.097818 411.752727 
L 184.727273 412.320374 
L 182.23036 416.145455 
L 180.218182 419.227957 
L 179.362901 420.538182 
L 176.49544 424.930909 
L 175.709091 426.135534 
L 173.627975 429.323636 
L 171.2 433.043101 
L 170.760513 433.716364 
L 167.893069 438.109091 
L 166.690909 439.950708 
L 165.025606 442.501818 
L 162.181818 446.858291 
L 162.158152 446.894545 
L 159.290691 451.287273 
L 157.672727 453.765867 
L 156.42323 455.68 
L 153.555781 460.072727 
L 153.163636 460.673462 
L 150.688313 464.465455 
L 148.654545 467.58103 
L 147.820854 468.858182 
L 144.953397 473.250909 
L 144.145455 474.488615 
L 142.085936 477.643636 
L 139.636364 481.396195 
L 139.218479 482.036364 
L 136.351019 486.429091 
L 135.127273 488.303777 
L 133.483562 490.821818 
L 130.618182 495.211352 
L 130.616097 495.214545 
L 127.748644 499.607273 
L 126.109091 502.118936 
L 124.881175 504 
z
" style="fill:#f4987a;"/>
   </g>
   <g id="matplotlib.axis_1">
    <g id="xtick_1">
     <g id="line2d_1">
      <defs>
       <path d="M 0 0 
L 0 3.5 
" id="m56db2cd4e9" style="stroke:#000000;stroke-width:0.8;"/>
      </defs>
      <g>
       <use style="stroke:#000000;stroke-width:0.8;" x="116.64" xlink:href="#m56db2cd4e9" y="504"/>
      </g>
     </g>
     <g id="text_1">
      <!-- −4 -->
      <defs>
       <path d="M 10.59375 35.5 
L 73.1875 35.5 
L 73.1875 27.203125 
L 10.59375 27.203125 
z
" id="DejaVuSans-2212"/>
       <path d="M 37.796875 64.3125 
L 12.890625 25.390625 
L 37.796875 25.390625 
z
M 35.203125 72.90625 
L 47.609375 72.90625 
L 47.609375 25.390625 
L 58.015625 25.390625 
L 58.015625 17.1875 
L 47.609375 17.1875 
L 47.609375 0 
L 37.796875 0 
L 37.796875 17.1875 
L 4.890625 17.1875 
L 4.890625 26.703125 
z
" id="DejaVuSans-34"/>
      </defs>
      <g transform="translate(109.268906 518.598438)scale(0.1 -0.1)">
       <use xlink:href="#DejaVuSans-2212"/>
       <use x="83.789062" xlink:href="#DejaVuSans-34"/>
      </g>
     </g>
    </g>
    <g id="xtick_2">
     <g id="line2d_2">
      <g>
       <use style="stroke:#000000;stroke-width:0.8;" x="205.92" xlink:href="#m56db2cd4e9" y="504"/>
      </g>
     </g>
     <g id="text_2">
      <!-- −2 -->
      <defs>
       <path d="M 19.1875 8.296875 
L 53.609375 8.296875 
L 53.609375 0 
L 7.328125 0 
L 7.328125 8.296875 
Q 12.9375 14.109375 22.625 23.890625 
Q 32.328125 33.6875 34.8125 36.53125 
Q 39.546875 41.84375 41.421875 45.53125 
Q 43.3125 49.21875 43.3125 52.78125 
Q 43.3125 58.59375 39.234375 62.25 
Q 35.15625 65.921875 28.609375 65.921875 
Q 23.96875 65.921875 18.8125 64.3125 
Q 13.671875 62.703125 7.8125 59.421875 
L 7.8125 69.390625 
Q 13.765625 71.78125 18.9375 73 
Q 24.125 74.21875 28.421875 74.21875 
Q 39.75 74.21875 46.484375 68.546875 
Q 53.21875 62.890625 53.21875 53.421875 
Q 53.21875 48.921875 51.53125 44.890625 
Q 49.859375 40.875 45.40625 35.40625 
Q 44.1875 33.984375 37.640625 27.21875 
Q 31.109375 20.453125 19.1875 8.296875 
z
" id="DejaVuSans-32"/>
      </defs>
      <g transform="translate(198.548906 518.598438)scale(0.1 -0.1)">
       <use xlink:href="#DejaVuSans-2212"/>
       <use x="83.789062" xlink:href="#DejaVuSans-32"/>
      </g>
     </g>
    </g>
    <g id="xtick_3">
     <g id="line2d_3">
      <g>
       <use style="stroke:#000000;stroke-width:0.8;" x="295.2" xlink:href="#m56db2cd4e9" y="504"/>
      </g>
     </g>
     <g id="text_3">
      <!-- 0 -->
      <defs>
       <path d="M 31.78125 66.40625 
Q 24.171875 66.40625 20.328125 58.90625 
Q 16.5 51.421875 16.5 36.375 
Q 16.5 21.390625 20.328125 13.890625 
Q 24.171875 6.390625 31.78125 6.390625 
Q 39.453125 6.390625 43.28125 13.890625 
Q 47.125 21.390625 47.125 36.375 
Q 47.125 51.421875 43.28125 58.90625 
Q 39.453125 66.40625 31.78125 66.40625 
z
M 31.78125 74.21875 
Q 44.046875 74.21875 50.515625 64.515625 
Q 56.984375 54.828125 56.984375 36.375 
Q 56.984375 17.96875 50.515625 8.265625 
Q 44.046875 -1.421875 31.78125 -1.421875 
Q 19.53125 -1.421875 13.0625 8.265625 
Q 6.59375 17.96875 6.59375 36.375 
Q 6.59375 54.828125 13.0625 64.515625 
Q 19.53125 74.21875 31.78125 74.21875 
z
" id="DejaVuSans-30"/>
      </defs>
      <g transform="translate(292.01875 518.598438)scale(0.1 -0.1)">
       <use xlink:href="#DejaVuSans-30"/>
      </g>
     </g>
    </g>
    <g id="xtick_4">
     <g id="line2d_4">
      <g>
       <use style="stroke:#000000;stroke-width:0.8;" x="384.48" xlink:href="#m56db2cd4e9" y="504"/>
      </g>
     </g>
     <g id="text_4">
      <!-- 2 -->
      <g transform="translate(381.29875 518.598438)scale(0.1 -0.1)">
       <use xlink:href="#DejaVuSans-32"/>
      </g>
     </g>
    </g>
    <g id="xtick_5">
     <g id="line2d_5">
      <g>
       <use style="stroke:#000000;stroke-width:0.8;" x="473.76" xlink:href="#m56db2cd4e9" y="504"/>
      </g>
     </g>
     <g id="text_5">
      <!-- 4 -->
      <g transform="translate(470.57875 518.598438)scale(0.1 -0.1)">
       <use xlink:href="#DejaVuSans-34"/>
      </g>
     </g>
    </g>
   </g>
   <g id="matplotlib.axis_2">
    <g id="ytick_1">
     <g id="line2d_6">
      <defs>
       <path d="M 0 0 
L -3.5 0 
" id="m9593578bf2" style="stroke:#000000;stroke-width:0.8;"/>
      </defs>
      <g>
       <use style="stroke:#000000;stroke-width:0.8;" x="72" xlink:href="#m9593578bf2" y="460.512"/>
      </g>
     </g>
     <g id="text_6">
      <!-- −4 -->
      <g transform="translate(50.257812 464.311219)scale(0.1 -0.1)">
       <use xlink:href="#DejaVuSans-2212"/>
       <use x="83.789062" xlink:href="#DejaVuSans-34"/>
      </g>
     </g>
    </g>
    <g id="ytick_2">
     <g id="line2d_7">
      <g>
       <use style="stroke:#000000;stroke-width:0.8;" x="72" xlink:href="#m9593578bf2" y="373.536"/>
      </g>
     </g>
     <g id="text_7">
      <!-- −2 -->
      <g transform="translate(50.257812 377.335219)scale(0.1 -0.1)">
       <use xlink:href="#DejaVuSans-2212"/>
       <use x="83.789062" xlink:href="#DejaVuSans-32"/>
      </g>
     </g>
    </g>
    <g id="ytick_3">
     <g id="line2d_8">
      <g>
       <use style="stroke:#000000;stroke-width:0.8;" x="72" xlink:href="#m9593578bf2" y="286.56"/>
      </g>
     </g>
     <g id="text_8">
      <!-- 0 -->
      <g transform="translate(58.6375 290.359219)scale(0.1 -0.1)">
       <use xlink:href="#DejaVuSans-30"/>
      </g>
     </g>
    </g>
    <g id="ytick_4">
     <g id="line2d_9">
      <g>
       <use style="stroke:#000000;stroke-width:0.8;" x="72" xlink:href="#m9593578bf2" y="199.584"/>
      </g>
     </g>
     <g id="text_9">
      <!-- 2 -->
      <g transform="translate(58.6375 203.383219)scale(0.1 -0.1)">
       <use xlink:href="#DejaVuSans-32"/>
      </g>
     </g>
    </g>
    <g id="ytick_5">
     <g id="line2d_10">
      <g>
       <use style="stroke:#000000;stroke-width:0.8;" x="72" xlink:href="#m9593578bf2" y="112.608"/>
      </g>
     </g>
     <g id="text_10">
      <!-- 4 -->
      <g transform="translate(58.6375 116.407219)scale(0.1 -0.1)">
       <use xlink:href="#DejaVuSans-34"/>
      </g>
     </g>
    </g>
   </g>
   <g id="patch_3">
    <path d="M 72 504 
L 72 69.12 
" style="fill:none;stroke:#000000;stroke-linecap:square;stroke-linejoin:miter;stroke-width:0.8;"/>
   </g>
   <g id="patch_4">
    <path d="M 518.4 504 
L 518.4 69.12 
" style="fill:none;stroke:#000000;stroke-linecap:square;stroke-linejoin:miter;stroke-width:0.8;"/>
   </g>
   <g id="patch_5">
    <path d="M 72 504 
L 518.4 504 
" style="fill:none;stroke:#000000;stroke-linecap:square;stroke-linejoin:miter;stroke-width:0.8;"/>
   </g>
   <g id="patch_6">
    <path d="M 72 69.12 
L 518.4 69.12 
" style="fill:none;stroke:#000000;stroke-linecap:square;stroke-linejoin:miter;stroke-width:0.8;"/>
   </g>
  </g>
 </g>
 <defs>
  <clipPath id="p2359bbb9f6">
   <rect height="434.88" width="446.4" x="72" y="69.12"/>
  </clipPath>
 </defs>
</svg>
