<?xml version="1.0" encoding="utf-8" standalone="no"?>
<!DOCTYPE svg PUBLIC "-//W3C//DTD SVG 1.1//EN"
  "http://www.w3.org/Graphics/SVG/1.1/DTD/svg11.dtd">
<!-- Created with matplotlib (http://matplotlib.org/) -->
<svg height="288pt" version="1.1" viewBox="0 0 432 288" width="432pt" xmlns="http://www.w3.org/2000/svg" xmlns:xlink="http://www.w3.org/1999/xlink">
 <defs>
  <style type="text/css">
*{stroke-linecap:butt;stroke-linejoin:round;}
  </style>
 </defs>
 <g id="figure_1">
  <g id="patch_1">
   <path d="M 0 288 
L 432 288 
L 432 0 
L 0 0 
z
" style="fill:#ffffff;"/>
  </g>
  <g id="axes_1">
   <g id="patch_2">
    <path d="M 54 252 
L 388.8 252 
L 388.8 34.56 
L 54 34.56 
z
" style="fill:#ffffff;"/>
   </g>
   <g id="patch_3">
    <path clip-path="url(#pf58ff5ded9)" d="M -7210.725701 5680.390959 
L 186.588172 141.529231 
L 187.124109 156.108466 
L -515.995119 743.917075 
z
" style="opacity:0.6;stroke-dasharray:0,0;stroke-dashoffset:0;"/>
   </g>
   <g id="patch_4">
    <path clip-path="url(#pf58ff5ded9)" d="M 54 240.806829 
L 54 167.310185 
L 171.018072 133.104842 
L 186.267956 132.818301 
L 186.588172 141.529231 
z
" style="fill:#0143da;opacity:0.6;stroke-dasharray:0,0;stroke-dashoffset:0;"/>
   </g>
   <g id="patch_5">
    <path clip-path="url(#pf58ff5ded9)" d="M 54 167.310185 
L 54 160.205039 
L 153.823446 133.427925 
L 171.018072 133.104842 
z
" style="fill:#0287b4;opacity:0.6;stroke-dasharray:0,0;stroke-dashoffset:0;"/>
   </g>
   <g id="patch_6">
    <path clip-path="url(#pf58ff5ded9)" d="M 54 160.205039 
L 54 135.303579 
L 153.823446 133.427925 
z
" style="fill:#03cb8e;opacity:0.6;stroke-dasharray:0,0;stroke-dashoffset:0;"/>
   </g>
   <g id="patch_7">
    <path clip-path="url(#pf58ff5ded9)" d="M 54 135.303579 
L 54 99.621038 
L 185.57042 113.843034 
L 185.973344 124.803884 
L 153.823446 133.427925 
z
" style="fill:#050f68;opacity:0.6;stroke-dasharray:0,0;stroke-dashoffset:0;"/>
   </g>
   <g id="patch_8">
    <path clip-path="url(#pf58ff5ded9)" d="M 54 99.621038 
L 54 34.56 
L 140.317761 34.56 
L 184.682145 89.679039 
L 185.57042 113.843034 
z
" style="fill:#065342;opacity:0.6;stroke-dasharray:0,0;stroke-dashoffset:0;"/>
   </g>
   <g id="patch_9">
    <path clip-path="url(#pf58ff5ded9)" d="M -515.995119 743.917075 
L 187.124109 156.108466 
L 187.43824 164.65386 
L -51.754614 401.601413 
z
" style="fill:#07971c;opacity:0.6;stroke-dasharray:0,0;stroke-dashoffset:0;"/>
   </g>
   <g id="patch_10">
    <path clip-path="url(#pf58ff5ded9)" d="M -51.754614 401.601413 
L 187.43824 164.65386 
L 188.707538 199.18291 
L 169.8547 238.194003 
z
" style="fill:#08daf6;opacity:0.6;stroke-dasharray:0,0;stroke-dashoffset:0;"/>
   </g>
   <g id="patch_11">
    <path clip-path="url(#pf58ff5ded9)" d="M 140.317761 34.56 
L 182.655954 34.56 
L 184.682145 89.679039 
z
" style="fill:#0a1ed0;opacity:0.6;stroke-dasharray:0,0;stroke-dashoffset:0;"/>
   </g>
   <g id="patch_12">
    <path clip-path="url(#pf58ff5ded9)" d="M 151.131329 252 
L 169.8547 238.194003 
L 163.182694 252 
z
" style="fill:#0b62aa;opacity:0.6;stroke-dasharray:0,0;stroke-dashoffset:0;"/>
   </g>
   <g id="patch_13">
    <path clip-path="url(#pf58ff5ded9)" d="M 153.823446 133.427925 
L 185.973344 124.803884 
L 186.116255 128.69152 
L 171.018072 133.104842 
z
" style="fill:#0ca684;opacity:0.6;stroke-dasharray:0,0;stroke-dashoffset:0;"/>
   </g>
   <g id="patch_14">
    <path clip-path="url(#pf58ff5ded9)" d="M 163.182694 252 
L 169.8547 238.194003 
L 189.606215 223.629886 
L 190.649108 252 
z
" style="fill:#0dea5e;opacity:0.6;stroke-dasharray:0,0;stroke-dashoffset:0;"/>
   </g>
   <g id="patch_15">
    <path clip-path="url(#pf58ff5ded9)" d="M 169.8547 238.194003 
L 188.707538 199.18291 
L 189.606215 223.629886 
z
" style="fill:#0f2e38;opacity:0.6;stroke-dasharray:0,0;stroke-dashoffset:0;"/>
   </g>
   <g id="patch_16">
    <path clip-path="url(#pf58ff5ded9)" d="M 171.018072 133.104842 
L 186.116255 128.69152 
L 186.267956 132.818301 
z
" style="fill:#107212;opacity:0.6;stroke-dasharray:0,0;stroke-dashoffset:0;"/>
   </g>
   <g id="patch_17">
    <path clip-path="url(#pf58ff5ded9)" d="M 214.982557 117.022315 
L 205.900082 116.040552 
L 184.682145 89.679039 
L 182.655954 34.56 
L 258.772291 34.56 
L 258.564048 40.154511 
L 226.986185 113.802405 
z
" style="fill:#11b5ec;opacity:0.6;stroke-dasharray:0,0;stroke-dashoffset:0;"/>
   </g>
   <g id="patch_18">
    <path clip-path="url(#pf58ff5ded9)" d="M 185.57042 113.843034 
L 184.682145 89.679039 
L 205.900082 116.040552 
z
" style="fill:#12f9c6;opacity:0.6;stroke-dasharray:0,0;stroke-dashoffset:0;"/>
   </g>
   <g id="patch_19">
    <path clip-path="url(#pf58ff5ded9)" d="M 187.124109 156.108465 
L 186.588172 141.529233 
L 194.91947 132.655742 
L 218.910538 132.204957 
L 220.053859 133.625437 
L 219.288078 135.904359 
L 219.05141 136.394081 
z
" style="fill:#143da0;opacity:0.6;stroke-dasharray:0,0;stroke-dashoffset:0;"/>
   </g>
   <g id="patch_20">
    <path clip-path="url(#pf58ff5ded9)" d="M 186.588172 141.529233 
L 186.267956 132.818301 
L 194.91947 132.655742 
z
" style="fill:#15817a;opacity:0.6;stroke-dasharray:0,0;stroke-dashoffset:0;"/>
   </g>
   <g id="patch_21">
    <path clip-path="url(#pf58ff5ded9)" d="M 186.267956 132.818301 
L 186.116255 128.69152 
L 210.375147 121.600446 
L 211.189007 122.6116 
L 194.91947 132.655742 
z
" style="fill:#16c554;opacity:0.6;stroke-dasharray:0,0;stroke-dashoffset:0;"/>
   </g>
   <g id="patch_22">
    <path clip-path="url(#pf58ff5ded9)" d="M 186.116255 128.69152 
L 185.973344 124.803884 
L 208.162726 118.851699 
L 210.375147 121.600446 
z
" style="fill:#18092e;opacity:0.6;stroke-dasharray:0,0;stroke-dashoffset:0;"/>
   </g>
   <g id="patch_23">
    <path clip-path="url(#pf58ff5ded9)" d="M 185.973344 124.803884 
L 185.57042 113.843034 
L 205.900082 116.040552 
L 208.162726 118.851699 
z
" style="fill:#194d08;opacity:0.6;stroke-dasharray:0,0;stroke-dashoffset:0;"/>
   </g>
   <g id="patch_24">
    <path clip-path="url(#pf58ff5ded9)" d="M 188.707538 199.18291 
L 187.43824 164.653859 
L 218.267372 138.016447 
z
" style="fill:#1a90e2;opacity:0.6;stroke-dasharray:0,0;stroke-dashoffset:0;"/>
   </g>
   <g id="patch_25">
    <path clip-path="url(#pf58ff5ded9)" d="M 187.43824 164.653859 
L 187.124109 156.108466 
L 219.05141 136.394083 
L 218.267372 138.016447 
z
" style="fill:#1bd4bc;opacity:0.6;stroke-dasharray:0,0;stroke-dashoffset:0;"/>
   </g>
   <g id="patch_26">
    <path clip-path="url(#pf58ff5ded9)" d="M 189.606215 223.629886 
L 221.358971 200.216449 
L 206.009447 669.85157 
z
" style="fill:#1d1896;opacity:0.6;stroke-dasharray:0,0;stroke-dashoffset:0;"/>
   </g>
   <g id="patch_27">
    <path clip-path="url(#pf58ff5ded9)" d="M 189.606215 223.629886 
L 188.707538 199.18291 
L 218.267371 138.016448 
L 219.358436 138.089411 
L 221.358971 200.216449 
z
" style="fill:#1e5c70;opacity:0.6;stroke-dasharray:0,0;stroke-dashoffset:0;"/>
   </g>
   <g id="patch_28">
    <path clip-path="url(#pf58ff5ded9)" d="M 194.91947 132.655742 
L 211.189007 122.6116 
L 218.910538 132.204957 
z
" style="fill:#1fa04a;opacity:0.6;stroke-dasharray:0,0;stroke-dashoffset:0;"/>
   </g>
   <g id="patch_29">
    <path clip-path="url(#pf58ff5ded9)" d="M 208.162726 118.851699 
L 205.900082 116.040552 
L 214.982557 117.022315 
z
" style="fill:#20e424;opacity:0.6;stroke-dasharray:0,0;stroke-dashoffset:0;"/>
   </g>
   <g id="patch_30">
    <path clip-path="url(#pf58ff5ded9)" d="M 210.375147 121.600446 
L 208.162726 118.851699 
L 214.982557 117.022315 
L 223.052808 117.894662 
z
" style="fill:#2227fe;opacity:0.6;stroke-dasharray:0,0;stroke-dashoffset:0;"/>
   </g>
   <g id="patch_31">
    <path clip-path="url(#pf58ff5ded9)" d="M 211.189006 122.611598 
L 224.947072 118.099421 
L 225.272754 118.134625 
L 220.325042 132.178378 
L 218.910538 132.204957 
z
" style="fill:#236bd8;opacity:0.6;stroke-dasharray:0,0;stroke-dashoffset:0;"/>
   </g>
   <g id="patch_32">
    <path clip-path="url(#pf58ff5ded9)" d="M 211.189006 122.611598 
L 210.375147 121.600446 
L 223.052808 117.894662 
L 224.947072 118.099421 
z
" style="fill:#24afb2;opacity:0.6;stroke-dasharray:0,0;stroke-dashoffset:0;"/>
   </g>
   <g id="patch_33">
    <path clip-path="url(#pf58ff5ded9)" d="M 214.982557 117.022315 
L 226.986186 113.802405 
L 225.764346 117.102057 
L 223.052808 117.894662 
z
" style="fill:#25f38c;opacity:0.6;stroke-dasharray:0,0;stroke-dashoffset:0;"/>
   </g>
   <g id="patch_34">
    <path clip-path="url(#pf58ff5ded9)" d="M 218.267371 138.016449 
L 219.051409 136.394084 
L 219.306847 136.487298 
L 219.358436 138.089412 
z
" style="fill:#273766;opacity:0.6;stroke-dasharray:0,0;stroke-dashoffset:0;"/>
   </g>
   <g id="patch_35">
    <path clip-path="url(#pf58ff5ded9)" d="M 220.476193 1063.394483 
L 206.009447 669.851547 
L 221.35897 200.21645 
L 253.487934 176.52561 
z
" style="fill:#287b40;opacity:0.6;stroke-dasharray:0,0;stroke-dashoffset:0;"/>
   </g>
   <g id="patch_36">
    <path clip-path="url(#pf58ff5ded9)" d="M 221.358971 200.216449 
L 219.358436 138.089412 
L 223.890794 138.392508 
L 253.53636 175.224646 
L 253.487934 176.52561 
z
" style="fill:#29bf1a;opacity:0.6;stroke-dasharray:0,0;stroke-dashoffset:0;"/>
   </g>
   <g id="patch_37">
    <path clip-path="url(#pf58ff5ded9)" d="M 219.358436 138.089412 
L 219.306847 136.487298 
L 223.625906 138.063407 
L 223.890794 138.392508 
z
" style="fill:#2b02f4;opacity:0.6;stroke-dasharray:0,0;stroke-dashoffset:0;"/>
   </g>
   <g id="patch_38">
    <path clip-path="url(#pf58ff5ded9)" d="M 219.306847 136.487298 
L 219.288076 135.904363 
L 220.263523 133.885927 
L 223.625906 138.063407 
z
" style="fill:#2c46ce;opacity:0.6;stroke-dasharray:0,0;stroke-dashoffset:0;"/>
   </g>
   <g id="patch_39">
    <path clip-path="url(#pf58ff5ded9)" d="M 225.357077 139.650235 
L 223.625903 138.063403 
L 220.263523 133.885927 
L 221.095725 132.163897 
L 255.163028 131.523783 
L 253.947686 164.174272 
z
" style="fill:#2d8aa8;opacity:0.6;stroke-dasharray:0,0;stroke-dashoffset:0;"/>
   </g>
   <g id="patch_40">
    <path clip-path="url(#pf58ff5ded9)" d="M 220.263523 133.885927 
L 220.053858 133.625436 
L 220.325042 132.178378 
L 221.095725 132.163897 
z
" style="fill:#2ece82;opacity:0.6;stroke-dasharray:0,0;stroke-dashoffset:0;"/>
   </g>
   <g id="patch_41">
    <path clip-path="url(#pf58ff5ded9)" d="M 221.095725 132.163897 
L 220.325042 132.178378 
L 225.272753 118.134625 
L 227.746412 118.402014 
z
" style="fill:#30125c;opacity:0.6;stroke-dasharray:0,0;stroke-dashoffset:0;"/>
   </g>
   <g id="patch_42">
    <path clip-path="url(#pf58ff5ded9)" d="M 221.095725 132.163897 
L 227.746412 118.402014 
L 255.539629 121.406299 
L 255.163028 131.523783 
z
" style="fill:#315636;opacity:0.6;stroke-dasharray:0,0;stroke-dashoffset:0;"/>
   </g>
   <g id="patch_43">
    <path clip-path="url(#pf58ff5ded9)" d="M 223.890794 138.392508 
L 223.625903 138.063403 
L 225.357077 139.650235 
z
" style="fill:#329a10;opacity:0.6;stroke-dasharray:0,0;stroke-dashoffset:0;"/>
   </g>
   <g id="patch_44">
    <path clip-path="url(#pf58ff5ded9)" d="M 225.3744 117.921118 
L 225.764344 117.102058 
L 228.804038 116.21353 
L 228.636623 116.559952 
z
" style="fill:#33ddea;opacity:0.6;stroke-dasharray:0,0;stroke-dashoffset:0;"/>
   </g>
   <g id="patch_45">
    <path clip-path="url(#pf58ff5ded9)" d="M 223.890794 138.392508 
L 225.357065 139.650225 
L 253.887116 165.801492 
L 253.53636 175.224646 
z
" style="fill:#3521c4;opacity:0.6;stroke-dasharray:0,0;stroke-dashoffset:0;"/>
   </g>
   <g id="patch_46">
    <path clip-path="url(#pf58ff5ded9)" d="M 225.272752 118.134625 
L 225.3744 117.921118 
L 228.636623 116.559952 
L 227.746412 118.402014 
z
" style="fill:#36659e;opacity:0.6;stroke-dasharray:0,0;stroke-dashoffset:0;"/>
   </g>
   <g id="patch_47">
    <path clip-path="url(#pf58ff5ded9)" d="M 225.764346 117.102057 
L 226.986186 113.802405 
L 230.413565 112.883028 
L 228.804038 116.21353 
z
" style="fill:#37a978;opacity:0.6;stroke-dasharray:0,0;stroke-dashoffset:0;"/>
   </g>
   <g id="patch_48">
    <path clip-path="url(#pf58ff5ded9)" d="M 230.413565 112.883028 
L 226.986185 113.802405 
L 258.564048 40.154511 
L 257.98015 55.841081 
z
" style="fill:#38ed52;opacity:0.6;stroke-dasharray:0,0;stroke-dashoffset:0;"/>
   </g>
   <g id="patch_49">
    <path clip-path="url(#pf58ff5ded9)" d="M 227.746412 118.402014 
L 228.636622 116.559954 
L 255.731246 116.258454 
L 255.539629 121.406299 
z
" style="fill:#3a312c;opacity:0.6;stroke-dasharray:0,0;stroke-dashoffset:0;"/>
   </g>
   <g id="patch_50">
    <path clip-path="url(#pf58ff5ded9)" d="M 228.636622 116.559954 
L 228.804038 116.21353 
L 256.029142 108.255409 
L 255.731246 116.258454 
z
" style="fill:#3b7506;opacity:0.6;stroke-dasharray:0,0;stroke-dashoffset:0;"/>
   </g>
   <g id="patch_51">
    <path clip-path="url(#pf58ff5ded9)" d="M 228.804038 116.21353 
L 230.413565 112.883028 
L 256.113498 105.989157 
L 256.029142 108.255409 
z
" style="fill:#3cb8e0;opacity:0.6;stroke-dasharray:0,0;stroke-dashoffset:0;"/>
   </g>
   <g id="patch_52">
    <path clip-path="url(#pf58ff5ded9)" d="M 225.357065 139.650225 
L 253.947686 164.174272 
L 253.887116 165.801492 
z
" style="fill:#3dfcba;opacity:0.6;stroke-dasharray:0,0;stroke-dashoffset:0;"/>
   </g>
   <g id="patch_53">
    <path clip-path="url(#pf58ff5ded9)" d="M 230.413565 112.883028 
L 257.98015 55.841081 
L 256.113498 105.989157 
z
" style="fill:#3f4094;opacity:0.6;stroke-dasharray:0,0;stroke-dashoffset:0;"/>
   </g>
   <g id="patch_54">
    <path clip-path="url(#pf58ff5ded9)" d="M 307.588457 3433.133599 
L 220.476193 1063.394483 
L 253.487934 176.52561 
L 254.175448 176.01866 
L 436.213225 402.185383 
z
" style="fill:#40846e;opacity:0.6;stroke-dasharray:0,0;stroke-dashoffset:0;"/>
   </g>
   <g id="patch_55">
    <path clip-path="url(#pf58ff5ded9)" d="M 254.175448 176.01866 
L 253.53636 175.224646 
L 253.887116 165.801491 
L 259.933316 162.421086 
L 280.974005 156.258286 
z
" style="fill:#41c848;opacity:0.6;stroke-dasharray:0,0;stroke-dashoffset:0;"/>
   </g>
   <g id="patch_56">
    <path clip-path="url(#pf58ff5ded9)" d="M 253.887116 165.801491 
L 253.947686 164.17427 
L 259.933326 162.421081 
z
" style="fill:#430c22;opacity:0.6;stroke-dasharray:0,0;stroke-dashoffset:0;"/>
   </g>
   <g id="patch_57">
    <path clip-path="url(#pf58ff5ded9)" d="M 259.933326 162.421081 
L 253.947686 164.17427 
L 255.163028 131.523783 
L 316.070413 130.37935 
L 312.392142 133.091586 
z
" style="fill:#444ffc;opacity:0.6;stroke-dasharray:0,0;stroke-dashoffset:0;"/>
   </g>
   <g id="patch_58">
    <path clip-path="url(#pf58ff5ded9)" d="M 254.175448 176.01866 
L 280.974009 156.258283 
L 362.346425 132.951491 
L 447.249274 142.128995 
L 436.213225 402.185383 
z
" style="fill:#4593d6;opacity:0.6;stroke-dasharray:0,0;stroke-dashoffset:0;"/>
   </g>
   <g id="patch_59">
    <path clip-path="url(#pf58ff5ded9)" d="M 255.163028 131.523783 
L 255.539629 121.406299 
L 318.944615 128.260008 
L 316.070413 130.37935 
z
" style="fill:#46d7b0;opacity:0.6;stroke-dasharray:0,0;stroke-dashoffset:0;"/>
   </g>
   <g id="patch_60">
    <path clip-path="url(#pf58ff5ded9)" d="M 255.539629 121.406299 
L 255.731246 116.258456 
L 266.670172 105.144949 
L 349.266933 81.001238 
L 402.344968 66.763335 
L 318.944615 128.260008 
z
" style="fill:#481b8a;opacity:0.6;stroke-dasharray:0,0;stroke-dashoffset:0;"/>
   </g>
   <g id="patch_61">
    <path clip-path="url(#pf58ff5ded9)" d="M 255.731246 116.258456 
L 256.029142 108.255409 
L 266.670172 105.144949 
z
" style="fill:#495f64;opacity:0.6;stroke-dasharray:0,0;stroke-dashoffset:0;"/>
   </g>
   <g id="patch_62">
    <path clip-path="url(#pf58ff5ded9)" d="M 256.029142 108.255409 
L 256.113498 105.989157 
L 268.748857 102.599788 
L 266.670166 105.144951 
z
" style="fill:#4aa33e;opacity:0.6;stroke-dasharray:0,0;stroke-dashoffset:0;"/>
   </g>
   <g id="patch_63">
    <path clip-path="url(#pf58ff5ded9)" d="M 268.748853 102.599789 
L 256.113498 105.989157 
L 257.98015 55.841081 
L 469.483799 -381.811245 
L 458.611663 -125.617355 
z
" style="fill:#4be718;opacity:0.6;stroke-dasharray:0,0;stroke-dashoffset:0;"/>
   </g>
   <g id="patch_64">
    <path clip-path="url(#pf58ff5ded9)" d="M 257.98015 55.841081 
L 258.564047 40.15453 
L 472.367834 -449.771418 
L 469.483799 -381.811245 
z
" style="fill:#4d2af2;opacity:0.6;stroke-dasharray:0,0;stroke-dashoffset:0;"/>
   </g>
   <g id="patch_65">
    <path clip-path="url(#pf58ff5ded9)" d="M 258.564047 40.15453 
L 258.772291 34.56 
L 261.005501 34.56 
z
" style="fill:#4e6ecc;opacity:0.6;stroke-dasharray:0,0;stroke-dashoffset:0;"/>
   </g>
   <g id="patch_66">
    <path clip-path="url(#pf58ff5ded9)" d="M 259.933326 162.421081 
L 312.392142 133.091586 
L 280.974011 156.258281 
z
" style="fill:#4fb2a6;opacity:0.6;stroke-dasharray:0,0;stroke-dashoffset:0;"/>
   </g>
   <g id="patch_67">
    <path clip-path="url(#pf58ff5ded9)" d="M 266.670166 105.144951 
L 268.748857 102.599788 
L 349.266933 81.001238 
z
" style="fill:#50f680;opacity:0.6;stroke-dasharray:0,0;stroke-dashoffset:0;"/>
   </g>
   <g id="patch_68">
    <path clip-path="url(#pf58ff5ded9)" d="M 349.266933 81.001238 
L 268.748853 102.599789 
L 458.611663 -125.617355 
L 452.001414 30.148306 
L 405.214794 64.647219 
z
" style="fill:#523a5a;opacity:0.6;stroke-dasharray:0,0;stroke-dashoffset:0;"/>
   </g>
   <g id="patch_69">
    <path clip-path="url(#pf58ff5ded9)" d="M 280.974015 156.258279 
L 312.392139 133.091588 
L 317.271855 130.356775 
L 335.221987 130.019497 
L 362.346418 132.951491 
z
" style="fill:#537e34;opacity:0.6;stroke-dasharray:0,0;stroke-dashoffset:0;"/>
   </g>
   <g id="patch_70">
    <path clip-path="url(#pf58ff5ded9)" d="M 312.392139 133.091588 
L 316.070413 130.37935 
L 317.271855 130.356775 
z
" style="fill:#54c20e;opacity:0.6;stroke-dasharray:0,0;stroke-dashoffset:0;"/>
   </g>
   <g id="patch_71">
    <path clip-path="url(#pf58ff5ded9)" d="M 317.271861 130.356775 
L 316.070413 130.37935 
L 318.944615 128.260008 
L 321.908472 128.580384 
z
" style="fill:#5605e8;opacity:0.6;stroke-dasharray:0,0;stroke-dashoffset:0;"/>
   </g>
   <g id="patch_72">
    <path clip-path="url(#pf58ff5ded9)" d="M 317.271861 130.356775 
L 321.908472 128.580384 
L 335.221987 130.019497 
z
" style="fill:#5749c2;opacity:0.6;stroke-dasharray:0,0;stroke-dashoffset:0;"/>
   </g>
   <g id="patch_73">
    <path clip-path="url(#pf58ff5ded9)" d="M 321.908472 128.580384 
L 318.944615 128.260008 
L 402.344968 66.763335 
L 451.00146 53.711487 
L 450.481699 65.959282 
z
" style="fill:#588d9c;opacity:0.6;stroke-dasharray:0,0;stroke-dashoffset:0;"/>
   </g>
   <g id="patch_74">
    <path clip-path="url(#pf58ff5ded9)" d="M 373.197402 129.30595 
L 335.221987 130.019497 
L 321.908472 128.580384 
L 450.481699 65.959282 
L 448.588279 110.576324 
z
" style="fill:#59d176;opacity:0.6;stroke-dasharray:0,0;stroke-dashoffset:0;"/>
   </g>
   <g id="patch_75">
    <path clip-path="url(#pf58ff5ded9)" d="M 335.221987 130.019497 
L 373.197426 129.30595 
L 362.346431 132.951492 
z
" style="fill:#5b1550;opacity:0.6;stroke-dasharray:0,0;stroke-dashoffset:0;"/>
   </g>
   <g id="patch_76">
    <path clip-path="url(#pf58ff5ded9)" d="M 349.266933 81.001238 
L 405.214794 64.647219 
L 402.344968 66.763335 
z
" style="fill:#5c592a;opacity:0.6;stroke-dasharray:0,0;stroke-dashoffset:0;"/>
   </g>
   <g id="patch_77">
    <path clip-path="url(#pf58ff5ded9)" d="M 362.346424 132.951491 
L 373.197417 129.30595 
L 447.852977 127.903193 
L 447.249274 142.128995 
z
" style="fill:#5d9d04;opacity:0.6;stroke-dasharray:0,0;stroke-dashoffset:0;"/>
   </g>
   <g id="patch_78">
    <path clip-path="url(#pf58ff5ded9)" d="M 373.197393 129.30595 
L 448.588279 110.576321 
L 447.852977 127.903193 
z
" style="fill:#5ee0de;opacity:0.6;stroke-dasharray:0,0;stroke-dashoffset:0;"/>
   </g>
   <g id="matplotlib.axis_1">
    <g id="xtick_1">
     <g id="line2d_1">
      <defs>
       <path d="M 0 0 
L 0 3.5 
" id="m46a56ecfea" style="stroke:#000000;stroke-width:0.8;"/>
      </defs>
      <g>
       <use style="stroke:#000000;stroke-width:0.8;" x="87.48" xlink:href="#m46a56ecfea" y="252"/>
      </g>
     </g>
     <g id="text_1">
      <!-- −4 -->
      <defs>
       <path d="M 10.59375 35.5 
L 73.1875 35.5 
L 73.1875 27.203125 
L 10.59375 27.203125 
z
" id="DejaVuSans-2212"/>
       <path d="M 37.796875 64.3125 
L 12.890625 25.390625 
L 37.796875 25.390625 
z
M 35.203125 72.90625 
L 47.609375 72.90625 
L 47.609375 25.390625 
L 58.015625 25.390625 
L 58.015625 17.1875 
L 47.609375 17.1875 
L 47.609375 0 
L 37.796875 0 
L 37.796875 17.1875 
L 4.890625 17.1875 
L 4.890625 26.703125 
z
" id="DejaVuSans-34"/>
      </defs>
      <g transform="translate(80.108906 266.598437)scale(0.1 -0.1)">
       <use xlink:href="#DejaVuSans-2212"/>
       <use x="83.789062" xlink:href="#DejaVuSans-34"/>
      </g>
     </g>
    </g>
    <g id="xtick_2">
     <g id="line2d_2">
      <g>
       <use style="stroke:#000000;stroke-width:0.8;" x="154.44" xlink:href="#m46a56ecfea" y="252"/>
      </g>
     </g>
     <g id="text_2">
      <!-- −2 -->
      <defs>
       <path d="M 19.1875 8.296875 
L 53.609375 8.296875 
L 53.609375 0 
L 7.328125 0 
L 7.328125 8.296875 
Q 12.9375 14.109375 22.625 23.890625 
Q 32.328125 33.6875 34.8125 36.53125 
Q 39.546875 41.84375 41.421875 45.53125 
Q 43.3125 49.21875 43.3125 52.78125 
Q 43.3125 58.59375 39.234375 62.25 
Q 35.15625 65.921875 28.609375 65.921875 
Q 23.96875 65.921875 18.8125 64.3125 
Q 13.671875 62.703125 7.8125 59.421875 
L 7.8125 69.390625 
Q 13.765625 71.78125 18.9375 73 
Q 24.125 74.21875 28.421875 74.21875 
Q 39.75 74.21875 46.484375 68.546875 
Q 53.21875 62.890625 53.21875 53.421875 
Q 53.21875 48.921875 51.53125 44.890625 
Q 49.859375 40.875 45.40625 35.40625 
Q 44.1875 33.984375 37.640625 27.21875 
Q 31.109375 20.453125 19.1875 8.296875 
z
" id="DejaVuSans-32"/>
      </defs>
      <g transform="translate(147.068906 266.598437)scale(0.1 -0.1)">
       <use xlink:href="#DejaVuSans-2212"/>
       <use x="83.789062" xlink:href="#DejaVuSans-32"/>
      </g>
     </g>
    </g>
    <g id="xtick_3">
     <g id="line2d_3">
      <g>
       <use style="stroke:#000000;stroke-width:0.8;" x="221.4" xlink:href="#m46a56ecfea" y="252"/>
      </g>
     </g>
     <g id="text_3">
      <!-- 0 -->
      <defs>
       <path d="M 31.78125 66.40625 
Q 24.171875 66.40625 20.328125 58.90625 
Q 16.5 51.421875 16.5 36.375 
Q 16.5 21.390625 20.328125 13.890625 
Q 24.171875 6.390625 31.78125 6.390625 
Q 39.453125 6.390625 43.28125 13.890625 
Q 47.125 21.390625 47.125 36.375 
Q 47.125 51.421875 43.28125 58.90625 
Q 39.453125 66.40625 31.78125 66.40625 
z
M 31.78125 74.21875 
Q 44.046875 74.21875 50.515625 64.515625 
Q 56.984375 54.828125 56.984375 36.375 
Q 56.984375 17.96875 50.515625 8.265625 
Q 44.046875 -1.421875 31.78125 -1.421875 
Q 19.53125 -1.421875 13.0625 8.265625 
Q 6.59375 17.96875 6.59375 36.375 
Q 6.59375 54.828125 13.0625 64.515625 
Q 19.53125 74.21875 31.78125 74.21875 
z
" id="DejaVuSans-30"/>
      </defs>
      <g transform="translate(218.21875 266.598437)scale(0.1 -0.1)">
       <use xlink:href="#DejaVuSans-30"/>
      </g>
     </g>
    </g>
    <g id="xtick_4">
     <g id="line2d_4">
      <g>
       <use style="stroke:#000000;stroke-width:0.8;" x="288.36" xlink:href="#m46a56ecfea" y="252"/>
      </g>
     </g>
     <g id="text_4">
      <!-- 2 -->
      <g transform="translate(285.17875 266.598437)scale(0.1 -0.1)">
       <use xlink:href="#DejaVuSans-32"/>
      </g>
     </g>
    </g>
    <g id="xtick_5">
     <g id="line2d_5">
      <g>
       <use style="stroke:#000000;stroke-width:0.8;" x="355.32" xlink:href="#m46a56ecfea" y="252"/>
      </g>
     </g>
     <g id="text_5">
      <!-- 4 -->
      <g transform="translate(352.13875 266.598437)scale(0.1 -0.1)">
       <use xlink:href="#DejaVuSans-34"/>
      </g>
     </g>
    </g>
   </g>
   <g id="matplotlib.axis_2">
    <g id="ytick_1">
     <g id="line2d_6">
      <defs>
       <path d="M 0 0 
L -3.5 0 
" id="m52377bb4cc" style="stroke:#000000;stroke-width:0.8;"/>
      </defs>
      <g>
       <use style="stroke:#000000;stroke-width:0.8;" x="54" xlink:href="#m52377bb4cc" y="230.256"/>
      </g>
     </g>
     <g id="text_6">
      <!-- −4 -->
      <g transform="translate(32.257812 234.055219)scale(0.1 -0.1)">
       <use xlink:href="#DejaVuSans-2212"/>
       <use x="83.789062" xlink:href="#DejaVuSans-34"/>
      </g>
     </g>
    </g>
    <g id="ytick_2">
     <g id="line2d_7">
      <g>
       <use style="stroke:#000000;stroke-width:0.8;" x="54" xlink:href="#m52377bb4cc" y="186.768"/>
      </g>
     </g>
     <g id="text_7">
      <!-- −2 -->
      <g transform="translate(32.257812 190.567219)scale(0.1 -0.1)">
       <use xlink:href="#DejaVuSans-2212"/>
       <use x="83.789062" xlink:href="#DejaVuSans-32"/>
      </g>
     </g>
    </g>
    <g id="ytick_3">
     <g id="line2d_8">
      <g>
       <use style="stroke:#000000;stroke-width:0.8;" x="54" xlink:href="#m52377bb4cc" y="143.28"/>
      </g>
     </g>
     <g id="text_8">
      <!-- 0 -->
      <g transform="translate(40.6375 147.079219)scale(0.1 -0.1)">
       <use xlink:href="#DejaVuSans-30"/>
      </g>
     </g>
    </g>
    <g id="ytick_4">
     <g id="line2d_9">
      <g>
       <use style="stroke:#000000;stroke-width:0.8;" x="54" xlink:href="#m52377bb4cc" y="99.792"/>
      </g>
     </g>
     <g id="text_9">
      <!-- 2 -->
      <g transform="translate(40.6375 103.591219)scale(0.1 -0.1)">
       <use xlink:href="#DejaVuSans-32"/>
      </g>
     </g>
    </g>
    <g id="ytick_5">
     <g id="line2d_10">
      <g>
       <use style="stroke:#000000;stroke-width:0.8;" x="54" xlink:href="#m52377bb4cc" y="56.304"/>
      </g>
     </g>
     <g id="text_10">
      <!-- 4 -->
      <g transform="translate(40.6375 60.103219)scale(0.1 -0.1)">
       <use xlink:href="#DejaVuSans-34"/>
      </g>
     </g>
    </g>
   </g>
   <g id="line2d_11">
    <path clip-path="url(#pf58ff5ded9)" d="M 57.43193 289 
L 187.13967 156.531778 
" style="fill:none;stroke:#ff0000;stroke-linecap:square;stroke-width:0.5;"/>
   </g>
   <g id="line2d_12">
    <path clip-path="url(#pf58ff5ded9)" d="M 187.861162 155.653352 
L 210.813837 132.357091 
" style="fill:none;stroke:#ff0000;stroke-linecap:square;stroke-width:0.5;"/>
   </g>
   <g id="line2d_13">
    <path clip-path="url(#pf58ff5ded9)" d="M 187.13967 156.531776 
L 187.861167 155.653349 
" style="fill:none;stroke:#ff0000;stroke-linecap:square;stroke-width:0.5;"/>
   </g>
   <g id="line2d_14">
    <path clip-path="url(#pf58ff5ded9)" d="M 210.813835 132.357091 
L 216.367188 129.045057 
" style="fill:none;stroke:#ff0000;stroke-linecap:square;stroke-width:0.5;"/>
   </g>
   <g id="line2d_15">
    <path clip-path="url(#pf58ff5ded9)" d="M 216.367188 129.045056 
L 221.536082 128.740921 
" style="fill:none;stroke:#ff0000;stroke-linecap:square;stroke-width:0.5;"/>
   </g>
   <g id="line2d_16">
    <path clip-path="url(#pf58ff5ded9)" d="M 254.525721 148.645213 
L 229.980332 131.996958 
" style="fill:none;stroke:#ff0000;stroke-linecap:square;stroke-width:0.5;"/>
   </g>
   <g id="line2d_17">
    <path clip-path="url(#pf58ff5ded9)" d="M 222.718343 128.806307 
L 221.536082 128.740921 
" style="fill:none;stroke:#ff0000;stroke-linecap:square;stroke-width:0.5;"/>
   </g>
   <g id="line2d_18">
    <path clip-path="url(#pf58ff5ded9)" d="M 229.980334 131.996958 
L 222.718343 128.806308 
" style="fill:none;stroke:#ff0000;stroke-linecap:square;stroke-width:0.5;"/>
   </g>
   <g id="line2d_19">
    <path clip-path="url(#pf58ff5ded9)" d="M 280.848585 131.041158 
L 254.525721 148.645215 
" style="fill:none;stroke:#ff0000;stroke-linecap:square;stroke-width:0.5;"/>
   </g>
   <g id="line2d_20">
    <path clip-path="url(#pf58ff5ded9)" d="M 280.848581 131.041158 
L 293.138084 125.470473 
" style="fill:none;stroke:#ff0000;stroke-linecap:square;stroke-width:0.5;"/>
   </g>
   <g id="line2d_21">
    <path clip-path="url(#pf58ff5ded9)" d="M 293.138097 125.470474 
L 395.506172 68.597805 
" style="fill:none;stroke:#ff0000;stroke-linecap:square;stroke-width:0.5;"/>
   </g>
   <g id="line2d_22">
    <path clip-path="url(#pf58ff5ded9)" d="M 399.775773 66.23709 
L 416.848395 56.068985 
" style="fill:none;stroke:#ff0000;stroke-linecap:square;stroke-width:0.5;"/>
   </g>
   <g id="line2d_23">
    <path clip-path="url(#pf58ff5ded9)" d="M 395.506147 68.597812 
L 399.775732 66.237102 
" style="fill:none;stroke:#ff0000;stroke-linecap:square;stroke-width:0.5;"/>
   </g>
   <g id="patch_79">
    <path d="M 54 252 
L 54 34.56 
" style="fill:none;stroke:#000000;stroke-linecap:square;stroke-linejoin:miter;stroke-width:0.8;"/>
   </g>
   <g id="patch_80">
    <path d="M 388.8 252 
L 388.8 34.56 
" style="fill:none;stroke:#000000;stroke-linecap:square;stroke-linejoin:miter;stroke-width:0.8;"/>
   </g>
   <g id="patch_81">
    <path d="M 54 252 
L 388.8 252 
" style="fill:none;stroke:#000000;stroke-linecap:square;stroke-linejoin:miter;stroke-width:0.8;"/>
   </g>
   <g id="patch_82">
    <path d="M 54 34.56 
L 388.8 34.56 
" style="fill:none;stroke:#000000;stroke-linecap:square;stroke-linejoin:miter;stroke-width:0.8;"/>
   </g>
  </g>
 </g>
 <defs>
  <clipPath id="pf58ff5ded9">
   <rect height="217.44" width="334.8" x="54" y="34.56"/>
  </clipPath>
 </defs>
</svg>
