<?xml version="1.0" encoding="utf-8" standalone="no"?>
<!DOCTYPE svg PUBLIC "-//W3C//DTD SVG 1.1//EN"
  "http://www.w3.org/Graphics/SVG/1.1/DTD/svg11.dtd">
<!-- Created with matplotlib (http://matplotlib.org/) -->
<svg height="288pt" version="1.1" viewBox="0 0 432 288" width="432pt" xmlns="http://www.w3.org/2000/svg" xmlns:xlink="http://www.w3.org/1999/xlink">
 <defs>
  <style type="text/css">
*{stroke-linecap:butt;stroke-linejoin:round;}
  </style>
 </defs>
 <g id="figure_1">
  <g id="patch_1">
   <path d="M 0 288 
L 432 288 
L 432 0 
L 0 0 
z
" style="fill:#ffffff;"/>
  </g>
  <g id="axes_1">
   <g id="patch_2">
    <path d="M 54 252 
L 388.8 252 
L 388.8 34.56 
L 54 34.56 
z
" style="fill:#ffffff;"/>
   </g>
   <g id="patch_3">
    <path clip-path="url(#p7ac7f6535b)" d="M 54 252 
L 54 238.103366 
L 97.490554 209.185511 
L 130.35299 202.859216 
L 78.424121 252 
z
" style="opacity:0.6;stroke-dasharray:0,0;stroke-dashoffset:0;"/>
   </g>
   <g id="patch_4">
    <path clip-path="url(#p7ac7f6535b)" d="M 54 238.103366 
L 54 217.557807 
L 97.490554 209.185511 
z
" style="fill:#0143da;opacity:0.6;stroke-dasharray:0,0;stroke-dashoffset:0;"/>
   </g>
   <g id="patch_5">
    <path clip-path="url(#p7ac7f6535b)" d="M 50.053566 218.317529 
L 134.345418 187.173037 
L 97.490548 209.185512 
z
" style="fill:#0287b4;opacity:0.6;stroke-dasharray:0,0;stroke-dashoffset:0;"/>
   </g>
   <g id="patch_6">
    <path clip-path="url(#p7ac7f6535b)" d="M -248.903917 275.869351 
L 39.499082 180.250602 
L 139.436817 183.664005 
L 134.345448 187.173026 
L 50.053566 218.317529 
z
" style="fill:#03cb8e;opacity:0.6;stroke-dasharray:0,0;stroke-dashoffset:0;"/>
   </g>
   <g id="patch_7">
    <path clip-path="url(#p7ac7f6535b)" d="M 39.499082 180.250602 
L 118.232069 154.147025 
L 170.986048 155.769983 
L 154.973255 175.008884 
L 139.436813 183.664005 
z
" style="fill:#050f68;opacity:0.6;stroke-dasharray:0,0;stroke-dashoffset:0;"/>
   </g>
   <g id="patch_8">
    <path clip-path="url(#p7ac7f6535b)" d="M -8373.551854 -107.09966 
L 118.232069 154.147025 
L 39.499082 180.250602 
z
" style="fill:#065342;opacity:0.6;stroke-dasharray:0,0;stroke-dashoffset:0;"/>
   </g>
   <g id="patch_9">
    <path clip-path="url(#p7ac7f6535b)" d="M 54 152.170949 
L 54 112.409745 
L 156.12341 141.584317 
L 118.232069 154.147025 
z
" style="fill:#07971c;opacity:0.6;stroke-dasharray:0,0;stroke-dashoffset:0;"/>
   </g>
   <g id="patch_10">
    <path clip-path="url(#p7ac7f6535b)" d="M 54 112.409745 
L 54 34.56 
L 178.735043 34.56 
L 221.693907 94.845975 
L 192.957259 129.372216 
L 156.12341 141.584317 
z
" style="fill:#08daf6;opacity:0.6;stroke-dasharray:0,0;stroke-dashoffset:0;"/>
   </g>
   <g id="patch_11">
    <path clip-path="url(#p7ac7f6535b)" d="M 78.424121 252 
L 130.35299 202.859216 
L 132.067816 202.529098 
L 90.892528 252 
z
" style="fill:#0a1ed0;opacity:0.6;stroke-dasharray:0,0;stroke-dashoffset:0;"/>
   </g>
   <g id="patch_12">
    <path clip-path="url(#p7ac7f6535b)" d="M 90.892528 252 
L 132.067816 202.529098 
L 215.452137 186.476917 
L 208.572702 252 
z
" style="fill:#0b62aa;opacity:0.6;stroke-dasharray:0,0;stroke-dashoffset:0;"/>
   </g>
   <g id="patch_13">
    <path clip-path="url(#p7ac7f6535b)" d="M 97.490548 209.185512 
L 134.345418 187.173037 
L 143.469728 183.80175 
L 147.539151 183.940743 
L 137.675723 195.791362 
L 130.352982 202.859218 
z
" style="fill:#0ca684;opacity:0.6;stroke-dasharray:0,0;stroke-dashoffset:0;"/>
   </g>
   <g id="patch_14">
    <path clip-path="url(#p7ac7f6535b)" d="M 118.232069 154.147025 
L 156.12341 141.584317 
L 177.66978 147.739675 
L 170.986048 155.769983 
z
" style="fill:#0dea5e;opacity:0.6;stroke-dasharray:0,0;stroke-dashoffset:0;"/>
   </g>
   <g id="patch_15">
    <path clip-path="url(#p7ac7f6535b)" d="M 132.067816 202.529098 
L 137.675722 195.791364 
L 149.763792 184.016726 
L 215.474796 186.261105 
L 215.452137 186.476917 
z
" style="fill:#0f2e38;opacity:0.6;stroke-dasharray:0,0;stroke-dashoffset:0;"/>
   </g>
   <g id="patch_16">
    <path clip-path="url(#p7ac7f6535b)" d="M 130.352982 202.859218 
L 137.675723 195.791362 
L 132.067816 202.529098 
z
" style="fill:#107212;opacity:0.6;stroke-dasharray:0,0;stroke-dashoffset:0;"/>
   </g>
   <g id="patch_17">
    <path clip-path="url(#p7ac7f6535b)" d="M 134.345448 187.173026 
L 139.436817 183.664005 
L 143.469728 183.80175 
z
" style="fill:#11b5ec;opacity:0.6;stroke-dasharray:0,0;stroke-dashoffset:0;"/>
   </g>
   <g id="patch_18">
    <path clip-path="url(#p7ac7f6535b)" d="M 137.675722 195.791364 
L 147.539151 183.940743 
L 149.763792 184.016726 
z
" style="fill:#12f9c6;opacity:0.6;stroke-dasharray:0,0;stroke-dashoffset:0;"/>
   </g>
   <g id="patch_19">
    <path clip-path="url(#p7ac7f6535b)" d="M 143.469728 183.80175 
L 139.436813 183.664005 
L 154.973255 175.008884 
L 149.513436 181.568697 
z
" style="fill:#143da0;opacity:0.6;stroke-dasharray:0,0;stroke-dashoffset:0;"/>
   </g>
   <g id="patch_20">
    <path clip-path="url(#p7ac7f6535b)" d="M 143.469728 183.80175 
L 149.513436 181.568697 
L 147.539151 183.940743 
z
" style="fill:#15817a;opacity:0.6;stroke-dasharray:0,0;stroke-dashoffset:0;"/>
   </g>
   <g id="patch_21">
    <path clip-path="url(#p7ac7f6535b)" d="M 149.763791 184.016726 
L 147.539151 183.940743 
L 149.513436 181.568697 
L 153.512383 180.09115 
z
" style="fill:#16c554;opacity:0.6;stroke-dasharray:0,0;stroke-dashoffset:0;"/>
   </g>
   <g id="patch_22">
    <path clip-path="url(#p7ac7f6535b)" d="M 149.763791 184.016726 
L 153.512383 180.09115 
L 213.425281 157.954291 
L 218.30057 159.347062 
L 215.474796 186.261105 
z
" style="fill:#18092e;opacity:0.6;stroke-dasharray:0,0;stroke-dashoffset:0;"/>
   </g>
   <g id="patch_23">
    <path clip-path="url(#p7ac7f6535b)" d="M 149.513436 181.568697 
L 154.973252 175.008888 
L 159.103099 172.827102 
L 153.512389 180.091147 
z
" style="fill:#194d08;opacity:0.6;stroke-dasharray:0,0;stroke-dashoffset:0;"/>
   </g>
   <g id="patch_24">
    <path clip-path="url(#p7ac7f6535b)" d="M 153.512389 180.091147 
L 159.103099 172.827102 
L 190.267273 156.363162 
L 209.978323 156.969566 
L 213.425281 157.954291 
z
" style="fill:#1a90e2;opacity:0.6;stroke-dasharray:0,0;stroke-dashoffset:0;"/>
   </g>
   <g id="patch_25">
    <path clip-path="url(#p7ac7f6535b)" d="M 154.973252 175.008888 
L 170.986048 155.769983 
L 172.202168 155.807396 
L 159.103099 172.827102 
z
" style="fill:#1bd4bc;opacity:0.6;stroke-dasharray:0,0;stroke-dashoffset:0;"/>
   </g>
   <g id="patch_26">
    <path clip-path="url(#p7ac7f6535b)" d="M 156.12341 141.584317 
L 192.957259 129.372216 
L 177.66978 147.739675 
z
" style="fill:#1d1896;opacity:0.6;stroke-dasharray:0,0;stroke-dashoffset:0;"/>
   </g>
   <g id="patch_27">
    <path clip-path="url(#p7ac7f6535b)" d="M 159.103099 172.827102 
L 172.202168 155.807396 
L 190.267273 156.363162 
z
" style="fill:#1e5c70;opacity:0.6;stroke-dasharray:0,0;stroke-dashoffset:0;"/>
   </g>
   <g id="patch_28">
    <path clip-path="url(#p7ac7f6535b)" d="M 172.20217 155.807396 
L 180.029918 148.413918 
L 197.406202 153.377968 
L 190.267274 156.363163 
z
" style="fill:#1fa04a;opacity:0.6;stroke-dasharray:0,0;stroke-dashoffset:0;"/>
   </g>
   <g id="patch_29">
    <path clip-path="url(#p7ac7f6535b)" d="M 172.20217 155.807396 
L 170.986048 155.769983 
L 177.66978 147.739675 
L 180.029918 148.413918 
z
" style="fill:#20e424;opacity:0.6;stroke-dasharray:0,0;stroke-dashoffset:0;"/>
   </g>
   <g id="patch_30">
    <path clip-path="url(#p7ac7f6535b)" d="M 180.029916 148.413918 
L 177.66978 147.739675 
L 192.957259 129.372216 
L 205.135088 125.334711 
z
" style="fill:#2227fe;opacity:0.6;stroke-dasharray:0,0;stroke-dashoffset:0;"/>
   </g>
   <g id="patch_31">
    <path clip-path="url(#p7ac7f6535b)" d="M 178.735043 34.56 
L 231.402282 34.56 
L 225.560451 90.200436 
L 221.693907 94.845975 
z
" style="fill:#236bd8;opacity:0.6;stroke-dasharray:0,0;stroke-dashoffset:0;"/>
   </g>
   <g id="patch_32">
    <path clip-path="url(#p7ac7f6535b)" d="M 197.406202 153.377968 
L 180.029916 148.413918 
L 205.135088 125.334711 
L 222.475221 119.585666 
L 219.899278 144.120192 
z
" style="fill:#24afb2;opacity:0.6;stroke-dasharray:0,0;stroke-dashoffset:0;"/>
   </g>
   <g id="patch_33">
    <path clip-path="url(#p7ac7f6535b)" d="M 190.267274 156.363163 
L 197.406202 153.377968 
L 209.978323 156.969566 
z
" style="fill:#25f38c;opacity:0.6;stroke-dasharray:0,0;stroke-dashoffset:0;"/>
   </g>
   <g id="patch_34">
    <path clip-path="url(#p7ac7f6535b)" d="M 205.135087 125.334711 
L 192.957259 129.372216 
L 221.693907 94.845975 
L 224.638802 98.978669 
L 223.834227 106.641828 
z
" style="fill:#273766;opacity:0.6;stroke-dasharray:0,0;stroke-dashoffset:0;"/>
   </g>
   <g id="patch_35">
    <path clip-path="url(#p7ac7f6535b)" d="M 209.978323 156.969566 
L 197.406202 153.377968 
L 219.899278 144.120192 
L 218.649463 156.02404 
L 215.62062 157.143149 
z
" style="fill:#287b40;opacity:0.6;stroke-dasharray:0,0;stroke-dashoffset:0;"/>
   </g>
   <g id="patch_36">
    <path clip-path="url(#p7ac7f6535b)" d="M 205.135087 125.334711 
L 223.834227 106.641828 
L 222.475221 119.585666 
z
" style="fill:#29bf1a;opacity:0.6;stroke-dasharray:0,0;stroke-dashoffset:0;"/>
   </g>
   <g id="patch_37">
    <path clip-path="url(#p7ac7f6535b)" d="M 198.738208 345.668484 
L 215.452137 186.476917 
L 216.407677 186.292968 
L 242.402134 187.180816 
z
" style="fill:#2b02f4;opacity:0.6;stroke-dasharray:0,0;stroke-dashoffset:0;"/>
   </g>
   <g id="patch_38">
    <path clip-path="url(#p7ac7f6535b)" d="M 213.425281 157.954291 
L 215.62062 157.143149 
L 218.522591 157.232427 
L 218.30057 159.347062 
z
" style="fill:#2c46ce;opacity:0.6;stroke-dasharray:0,0;stroke-dashoffset:0;"/>
   </g>
   <g id="patch_39">
    <path clip-path="url(#p7ac7f6535b)" d="M 215.452137 186.476917 
L 215.474796 186.261105 
L 216.407677 186.292968 
z
" style="fill:#2d8aa8;opacity:0.6;stroke-dasharray:0,0;stroke-dashoffset:0;"/>
   </g>
   <g id="patch_40">
    <path clip-path="url(#p7ac7f6535b)" d="M 216.407677 186.292968 
L 215.474796 186.261105 
L 218.30057 159.347062 
L 247.752405 167.76085 
L 244.116316 180.958822 
z
" style="fill:#2ece82;opacity:0.6;stroke-dasharray:0,0;stroke-dashoffset:0;"/>
   </g>
   <g id="patch_41">
    <path clip-path="url(#p7ac7f6535b)" d="M 215.62062 157.143149 
L 218.649463 156.02404 
L 218.522591 157.232427 
z
" style="fill:#30125c;opacity:0.6;stroke-dasharray:0,0;stroke-dashoffset:0;"/>
   </g>
   <g id="patch_42">
    <path clip-path="url(#p7ac7f6535b)" d="M 218.30057 159.347062 
L 218.522591 157.232427 
L 250.382982 158.212601 
L 247.752405 167.76085 
z
" style="fill:#315636;opacity:0.6;stroke-dasharray:0,0;stroke-dashoffset:0;"/>
   </g>
   <g id="patch_43">
    <path clip-path="url(#p7ac7f6535b)" d="M 218.522591 157.232427 
L 218.649463 156.02404 
L 232.179698 151.024834 
L 250.609733 157.389559 
L 250.382982 158.212601 
z
" style="fill:#329a10;opacity:0.6;stroke-dasharray:0,0;stroke-dashoffset:0;"/>
   </g>
   <g id="patch_44">
    <path clip-path="url(#p7ac7f6535b)" d="M 218.649463 156.02404 
L 219.899278 144.120192 
L 232.179698 151.024834 
z
" style="fill:#33ddea;opacity:0.6;stroke-dasharray:0,0;stroke-dashoffset:0;"/>
   </g>
   <g id="patch_45">
    <path clip-path="url(#p7ac7f6535b)" d="M 232.179698 151.024834 
L 219.899278 144.120192 
L 222.475221 119.585666 
L 233.572049 115.906561 
L 240.471664 121.19759 
L 254.973838 141.549098 
L 254.65065 142.722177 
z
" style="fill:#3521c4;opacity:0.6;stroke-dasharray:0,0;stroke-dashoffset:0;"/>
   </g>
   <g id="patch_46">
    <path clip-path="url(#p7ac7f6535b)" d="M 216.407677 186.292968 
L 244.116316 180.958822 
L 242.402134 187.180816 
z
" style="fill:#36659e;opacity:0.6;stroke-dasharray:0,0;stroke-dashoffset:0;"/>
   </g>
   <g id="patch_47">
    <path clip-path="url(#p7ac7f6535b)" d="M 221.693907 94.845975 
L 225.560451 90.200436 
L 224.638802 98.978669 
z
" style="fill:#37a978;opacity:0.6;stroke-dasharray:0,0;stroke-dashoffset:0;"/>
   </g>
   <g id="patch_48">
    <path clip-path="url(#p7ac7f6535b)" d="M 222.475221 119.585666 
L 223.834227 106.641829 
L 233.572047 115.906561 
z
" style="fill:#38ed52;opacity:0.6;stroke-dasharray:0,0;stroke-dashoffset:0;"/>
   </g>
   <g id="patch_49">
    <path clip-path="url(#p7ac7f6535b)" d="M 223.834227 106.641829 
L 224.638802 98.978669 
L 236.103332 115.067325 
L 233.572047 115.906561 
z
" style="fill:#3a312c;opacity:0.6;stroke-dasharray:0,0;stroke-dashoffset:0;"/>
   </g>
   <g id="patch_50">
    <path clip-path="url(#p7ac7f6535b)" d="M 224.544215 252 
L 242.402134 187.180816 
L 288.615058 188.759232 
L 333.679461 252 
z
" style="fill:#3b7506;opacity:0.6;stroke-dasharray:0,0;stroke-dashoffset:0;"/>
   </g>
   <g id="patch_51">
    <path clip-path="url(#p7ac7f6535b)" d="M 236.103332 115.067325 
L 224.638802 98.978669 
L 225.560451 90.200436 
L 290.673678 11.968801 
L 264.900009 105.519913 
z
" style="fill:#3cb8e0;opacity:0.6;stroke-dasharray:0,0;stroke-dashoffset:0;"/>
   </g>
   <g id="patch_52">
    <path clip-path="url(#p7ac7f6535b)" d="M 225.560451 90.200436 
L 231.402282 34.56 
L 271.870724 34.56 
z
" style="fill:#3dfcba;opacity:0.6;stroke-dasharray:0,0;stroke-dashoffset:0;"/>
   </g>
   <g id="patch_53">
    <path clip-path="url(#p7ac7f6535b)" d="M 232.179698 151.024834 
L 254.65065 142.722177 
L 250.609733 157.389559 
z
" style="fill:#3f4094;opacity:0.6;stroke-dasharray:0,0;stroke-dashoffset:0;"/>
   </g>
   <g id="patch_54">
    <path clip-path="url(#p7ac7f6535b)" d="M 233.572049 115.906561 
L 236.103332 115.067325 
L 240.471664 121.19759 
z
" style="fill:#40846e;opacity:0.6;stroke-dasharray:0,0;stroke-dashoffset:0;"/>
   </g>
   <g id="patch_55">
    <path clip-path="url(#p7ac7f6535b)" d="M 240.471668 121.197594 
L 236.103332 115.067325 
L 264.900009 105.519913 
L 261.990008 116.082389 
z
" style="fill:#41c848;opacity:0.6;stroke-dasharray:0,0;stroke-dashoffset:0;"/>
   </g>
   <g id="patch_56">
    <path clip-path="url(#p7ac7f6535b)" d="M 240.471668 121.197594 
L 261.990008 116.082389 
L 254.973838 141.549098 
z
" style="fill:#430c22;opacity:0.6;stroke-dasharray:0,0;stroke-dashoffset:0;"/>
   </g>
   <g id="patch_57">
    <path clip-path="url(#p7ac7f6535b)" d="M 242.402134 187.180816 
L 244.116316 180.958822 
L 273.888561 175.227415 
L 280.271968 177.051024 
L 288.615058 188.759232 
z
" style="fill:#444ffc;opacity:0.6;stroke-dasharray:0,0;stroke-dashoffset:0;"/>
   </g>
   <g id="patch_58">
    <path clip-path="url(#p7ac7f6535b)" d="M 244.116316 180.958822 
L 247.752405 167.76085 
L 273.888561 175.227415 
z
" style="fill:#4593d6;opacity:0.6;stroke-dasharray:0,0;stroke-dashoffset:0;"/>
   </g>
   <g id="patch_59">
    <path clip-path="url(#p7ac7f6535b)" d="M 247.752405 167.76085 
L 250.382982 158.212601 
L 267.217038 158.730494 
L 278.359214 174.366777 
L 273.888561 175.227415 
z
" style="fill:#46d7b0;opacity:0.6;stroke-dasharray:0,0;stroke-dashoffset:0;"/>
   </g>
   <g id="patch_60">
    <path clip-path="url(#p7ac7f6535b)" d="M 250.382982 158.212601 
L 250.609733 157.389561 
L 265.068746 155.715705 
L 267.217038 158.730494 
z
" style="fill:#481b8a;opacity:0.6;stroke-dasharray:0,0;stroke-dashoffset:0;"/>
   </g>
   <g id="patch_61">
    <path clip-path="url(#p7ac7f6535b)" d="M 250.609733 157.389561 
L 254.65065 142.722177 
L 255.568181 142.383164 
L 265.068746 155.715705 
z
" style="fill:#495f64;opacity:0.6;stroke-dasharray:0,0;stroke-dashoffset:0;"/>
   </g>
   <g id="patch_62">
    <path clip-path="url(#p7ac7f6535b)" d="M 265.068745 155.715705 
L 255.568181 142.383164 
L 318.150282 119.260078 
z
" style="fill:#4aa33e;opacity:0.6;stroke-dasharray:0,0;stroke-dashoffset:0;"/>
   </g>
   <g id="patch_63">
    <path clip-path="url(#p7ac7f6535b)" d="M 255.568181 142.383164 
L 254.973838 141.549098 
L 261.990007 116.082393 
L 272.914712 102.862673 
L 383.479213 66.205498 
L 318.150266 119.260084 
z
" style="fill:#4be718;opacity:0.6;stroke-dasharray:0,0;stroke-dashoffset:0;"/>
   </g>
   <g id="patch_64">
    <path clip-path="url(#p7ac7f6535b)" d="M 261.990007 116.082393 
L 264.900009 105.519913 
L 272.914712 102.862673 
z
" style="fill:#4d2af2;opacity:0.6;stroke-dasharray:0,0;stroke-dashoffset:0;"/>
   </g>
   <g id="patch_65">
    <path clip-path="url(#p7ac7f6535b)" d="M 346.856059 161.18056 
L 267.217038 158.730494 
L 265.068745 155.715705 
L 318.150282 119.260078 
L 388.8 93.156136 
L 388.8 153.106 
z
" style="fill:#4e6ecc;opacity:0.6;stroke-dasharray:0,0;stroke-dashoffset:0;"/>
   </g>
   <g id="patch_66">
    <path clip-path="url(#p7ac7f6535b)" d="M 272.914708 102.862675 
L 264.900009 105.519913 
L 290.673678 11.968801 
L 487.156191 -224.099183 
z
" style="fill:#4fb2a6;opacity:0.6;stroke-dasharray:0,0;stroke-dashoffset:0;"/>
   </g>
   <g id="patch_67">
    <path clip-path="url(#p7ac7f6535b)" d="M 278.359214 174.366777 
L 267.217038 158.730494 
L 346.856059 161.18056 
z
" style="fill:#50f680;opacity:0.6;stroke-dasharray:0,0;stroke-dashoffset:0;"/>
   </g>
   <g id="patch_68">
    <path clip-path="url(#p7ac7f6535b)" d="M 272.914708 102.862675 
L 317.669979 34.56 
L 388.8 34.56 
L 388.8 61.495718 
L 383.479214 66.205498 
z
" style="fill:#523a5a;opacity:0.6;stroke-dasharray:0,0;stroke-dashoffset:0;"/>
   </g>
   <g id="patch_69">
    <path clip-path="url(#p7ac7f6535b)" d="M 273.888561 175.227415 
L 278.359214 174.366777 
L 280.271968 177.051024 
z
" style="fill:#537e34;opacity:0.6;stroke-dasharray:0,0;stroke-dashoffset:0;"/>
   </g>
   <g id="patch_70">
    <path clip-path="url(#p7ac7f6535b)" d="M 325.68805 190.025471 
L 280.271968 177.051024 
L 278.359214 174.366777 
L 346.856059 161.18056 
L 388.8 162.470951 
L 388.8 192.181079 
z
" style="fill:#54c20e;opacity:0.6;stroke-dasharray:0,0;stroke-dashoffset:0;"/>
   </g>
   <g id="patch_71">
    <path clip-path="url(#p7ac7f6535b)" d="M 288.615058 188.759232 
L 280.271968 177.051024 
L 325.68805 190.025471 
z
" style="fill:#5605e8;opacity:0.6;stroke-dasharray:0,0;stroke-dashoffset:0;"/>
   </g>
   <g id="patch_72">
    <path clip-path="url(#p7ac7f6535b)" d="M 333.679461 252 
L 288.615058 188.759232 
L 325.68805 190.025471 
L 388.8 208.055266 
L 388.8 252 
z
" style="fill:#5749c2;opacity:0.6;stroke-dasharray:0,0;stroke-dashoffset:0;"/>
   </g>
   <g id="patch_73">
    <path clip-path="url(#p7ac7f6535b)" d="M 318.150266 119.260084 
L 383.479213 66.205498 
L 1145.677488 -186.497997 
z
" style="fill:#588d9c;opacity:0.6;stroke-dasharray:0,0;stroke-dashoffset:0;"/>
   </g>
   <g id="patch_74">
    <path clip-path="url(#p7ac7f6535b)" d="M 325.68805 190.025471 
L 388.8 192.181079 
L 388.8 208.055266 
z
" style="fill:#59d176;opacity:0.6;stroke-dasharray:0,0;stroke-dashoffset:0;"/>
   </g>
   <g id="patch_75">
    <path clip-path="url(#p7ac7f6535b)" d="M 346.856059 161.18056 
L 388.8 153.106 
L 388.8 162.470951 
z
" style="fill:#5b1550;opacity:0.6;stroke-dasharray:0,0;stroke-dashoffset:0;"/>
   </g>
   <g id="patch_76">
    <path clip-path="url(#p7ac7f6535b)" d="M 383.479214 66.205498 
L 388.8 61.495718 
L 388.8 64.441414 
z
" style="fill:#5c592a;opacity:0.6;stroke-dasharray:0,0;stroke-dashoffset:0;"/>
   </g>
   <g id="patch_77">
    <path clip-path="url(#p7ac7f6535b)" d="M 78.811644 252 
L 78.424121 252 
L 130.35299 202.859216 
L 130.839481 202.765563 
z
" style="fill:#ff0000;stroke:#000000;stroke-linejoin:miter;stroke-width:0.5;"/>
   </g>
   <g id="patch_78">
    <path clip-path="url(#p7ac7f6535b)" d="M 325.96333 85.274637 
L 272.914708 102.862675 
L 317.669979 34.56 
L 371.978427 34.56 
z
" style="fill:#ff0000;stroke:#000000;stroke-linejoin:miter;stroke-width:0.5;"/>
   </g>
   <g id="matplotlib.axis_1">
    <g id="xtick_1">
     <g id="line2d_1">
      <defs>
       <path d="M 0 0 
L 0 3.5 
" id="mb014098141" style="stroke:#000000;stroke-width:0.8;"/>
      </defs>
      <g>
       <use style="stroke:#000000;stroke-width:0.8;" x="87.48" xlink:href="#mb014098141" y="252"/>
      </g>
     </g>
     <g id="text_1">
      <!-- −4 -->
      <defs>
       <path d="M 10.59375 35.5 
L 73.1875 35.5 
L 73.1875 27.203125 
L 10.59375 27.203125 
z
" id="DejaVuSans-2212"/>
       <path d="M 37.796875 64.3125 
L 12.890625 25.390625 
L 37.796875 25.390625 
z
M 35.203125 72.90625 
L 47.609375 72.90625 
L 47.609375 25.390625 
L 58.015625 25.390625 
L 58.015625 17.1875 
L 47.609375 17.1875 
L 47.609375 0 
L 37.796875 0 
L 37.796875 17.1875 
L 4.890625 17.1875 
L 4.890625 26.703125 
z
" id="DejaVuSans-34"/>
      </defs>
      <g transform="translate(80.108906 266.598437)scale(0.1 -0.1)">
       <use xlink:href="#DejaVuSans-2212"/>
       <use x="83.789062" xlink:href="#DejaVuSans-34"/>
      </g>
     </g>
    </g>
    <g id="xtick_2">
     <g id="line2d_2">
      <g>
       <use style="stroke:#000000;stroke-width:0.8;" x="154.44" xlink:href="#mb014098141" y="252"/>
      </g>
     </g>
     <g id="text_2">
      <!-- −2 -->
      <defs>
       <path d="M 19.1875 8.296875 
L 53.609375 8.296875 
L 53.609375 0 
L 7.328125 0 
L 7.328125 8.296875 
Q 12.9375 14.109375 22.625 23.890625 
Q 32.328125 33.6875 34.8125 36.53125 
Q 39.546875 41.84375 41.421875 45.53125 
Q 43.3125 49.21875 43.3125 52.78125 
Q 43.3125 58.59375 39.234375 62.25 
Q 35.15625 65.921875 28.609375 65.921875 
Q 23.96875 65.921875 18.8125 64.3125 
Q 13.671875 62.703125 7.8125 59.421875 
L 7.8125 69.390625 
Q 13.765625 71.78125 18.9375 73 
Q 24.125 74.21875 28.421875 74.21875 
Q 39.75 74.21875 46.484375 68.546875 
Q 53.21875 62.890625 53.21875 53.421875 
Q 53.21875 48.921875 51.53125 44.890625 
Q 49.859375 40.875 45.40625 35.40625 
Q 44.1875 33.984375 37.640625 27.21875 
Q 31.109375 20.453125 19.1875 8.296875 
z
" id="DejaVuSans-32"/>
      </defs>
      <g transform="translate(147.068906 266.598437)scale(0.1 -0.1)">
       <use xlink:href="#DejaVuSans-2212"/>
       <use x="83.789062" xlink:href="#DejaVuSans-32"/>
      </g>
     </g>
    </g>
    <g id="xtick_3">
     <g id="line2d_3">
      <g>
       <use style="stroke:#000000;stroke-width:0.8;" x="221.4" xlink:href="#mb014098141" y="252"/>
      </g>
     </g>
     <g id="text_3">
      <!-- 0 -->
      <defs>
       <path d="M 31.78125 66.40625 
Q 24.171875 66.40625 20.328125 58.90625 
Q 16.5 51.421875 16.5 36.375 
Q 16.5 21.390625 20.328125 13.890625 
Q 24.171875 6.390625 31.78125 6.390625 
Q 39.453125 6.390625 43.28125 13.890625 
Q 47.125 21.390625 47.125 36.375 
Q 47.125 51.421875 43.28125 58.90625 
Q 39.453125 66.40625 31.78125 66.40625 
z
M 31.78125 74.21875 
Q 44.046875 74.21875 50.515625 64.515625 
Q 56.984375 54.828125 56.984375 36.375 
Q 56.984375 17.96875 50.515625 8.265625 
Q 44.046875 -1.421875 31.78125 -1.421875 
Q 19.53125 -1.421875 13.0625 8.265625 
Q 6.59375 17.96875 6.59375 36.375 
Q 6.59375 54.828125 13.0625 64.515625 
Q 19.53125 74.21875 31.78125 74.21875 
z
" id="DejaVuSans-30"/>
      </defs>
      <g transform="translate(218.21875 266.598437)scale(0.1 -0.1)">
       <use xlink:href="#DejaVuSans-30"/>
      </g>
     </g>
    </g>
    <g id="xtick_4">
     <g id="line2d_4">
      <g>
       <use style="stroke:#000000;stroke-width:0.8;" x="288.36" xlink:href="#mb014098141" y="252"/>
      </g>
     </g>
     <g id="text_4">
      <!-- 2 -->
      <g transform="translate(285.17875 266.598437)scale(0.1 -0.1)">
       <use xlink:href="#DejaVuSans-32"/>
      </g>
     </g>
    </g>
    <g id="xtick_5">
     <g id="line2d_5">
      <g>
       <use style="stroke:#000000;stroke-width:0.8;" x="355.32" xlink:href="#mb014098141" y="252"/>
      </g>
     </g>
     <g id="text_5">
      <!-- 4 -->
      <g transform="translate(352.13875 266.598437)scale(0.1 -0.1)">
       <use xlink:href="#DejaVuSans-34"/>
      </g>
     </g>
    </g>
   </g>
   <g id="matplotlib.axis_2">
    <g id="ytick_1">
     <g id="line2d_6">
      <defs>
       <path d="M 0 0 
L -3.5 0 
" id="mebe26d3c53" style="stroke:#000000;stroke-width:0.8;"/>
      </defs>
      <g>
       <use style="stroke:#000000;stroke-width:0.8;" x="54" xlink:href="#mebe26d3c53" y="230.256"/>
      </g>
     </g>
     <g id="text_6">
      <!-- −4 -->
      <g transform="translate(32.257812 234.055219)scale(0.1 -0.1)">
       <use xlink:href="#DejaVuSans-2212"/>
       <use x="83.789062" xlink:href="#DejaVuSans-34"/>
      </g>
     </g>
    </g>
    <g id="ytick_2">
     <g id="line2d_7">
      <g>
       <use style="stroke:#000000;stroke-width:0.8;" x="54" xlink:href="#mebe26d3c53" y="186.768"/>
      </g>
     </g>
     <g id="text_7">
      <!-- −2 -->
      <g transform="translate(32.257812 190.567219)scale(0.1 -0.1)">
       <use xlink:href="#DejaVuSans-2212"/>
       <use x="83.789062" xlink:href="#DejaVuSans-32"/>
      </g>
     </g>
    </g>
    <g id="ytick_3">
     <g id="line2d_8">
      <g>
       <use style="stroke:#000000;stroke-width:0.8;" x="54" xlink:href="#mebe26d3c53" y="143.28"/>
      </g>
     </g>
     <g id="text_8">
      <!-- 0 -->
      <g transform="translate(40.6375 147.079219)scale(0.1 -0.1)">
       <use xlink:href="#DejaVuSans-30"/>
      </g>
     </g>
    </g>
    <g id="ytick_4">
     <g id="line2d_9">
      <g>
       <use style="stroke:#000000;stroke-width:0.8;" x="54" xlink:href="#mebe26d3c53" y="99.792"/>
      </g>
     </g>
     <g id="text_9">
      <!-- 2 -->
      <g transform="translate(40.6375 103.591219)scale(0.1 -0.1)">
       <use xlink:href="#DejaVuSans-32"/>
      </g>
     </g>
    </g>
    <g id="ytick_5">
     <g id="line2d_10">
      <g>
       <use style="stroke:#000000;stroke-width:0.8;" x="54" xlink:href="#mebe26d3c53" y="56.304"/>
      </g>
     </g>
     <g id="text_10">
      <!-- 4 -->
      <g transform="translate(40.6375 60.103219)scale(0.1 -0.1)">
       <use xlink:href="#DejaVuSans-34"/>
      </g>
     </g>
    </g>
   </g>
   <g id="line2d_11">
    <path clip-path="url(#p7ac7f6535b)" d="M 150.122622 184.028982 
L 136.084772 197.702843 
" style="fill:none;stroke:#ff0000;stroke-linecap:square;stroke-width:0.5;"/>
   </g>
   <g id="line2d_12">
    <path clip-path="url(#p7ac7f6535b)" d="M 130.839479 202.765563 
L 136.084767 197.702849 
" style="fill:none;stroke:#ff0000;stroke-linecap:square;stroke-width:0.5;"/>
   </g>
   <g id="line2d_13">
    <path clip-path="url(#p7ac7f6535b)" d="M 150.122617 184.028982 
L 154.084917 179.879608 
" style="fill:none;stroke:#ff0000;stroke-linecap:square;stroke-width:0.5;"/>
   </g>
   <g id="line2d_14">
    <path clip-path="url(#p7ac7f6535b)" d="M 154.08493 179.879603 
L 159.793572 172.462327 
" style="fill:none;stroke:#ff0000;stroke-linecap:square;stroke-width:0.5;"/>
   </g>
   <g id="line2d_15">
    <path clip-path="url(#p7ac7f6535b)" d="M 159.793567 172.46233 
L 178.529047 156.00204 
" style="fill:none;stroke:#ff0000;stroke-linecap:square;stroke-width:0.5;"/>
   </g>
   <g id="line2d_16">
    <path clip-path="url(#p7ac7f6535b)" d="M 178.52905 156.00204 
L 186.924953 150.383689 
" style="fill:none;stroke:#ff0000;stroke-linecap:square;stroke-width:0.5;"/>
   </g>
   <g id="line2d_17">
    <path clip-path="url(#p7ac7f6535b)" d="M 186.92495 150.383688 
L 221.628778 127.647596 
" style="fill:none;stroke:#ff0000;stroke-linecap:square;stroke-width:0.5;"/>
   </g>
   <g id="line2d_18">
    <path clip-path="url(#p7ac7f6535b)" d="M 248.214689 145.100161 
L 221.628778 127.647596 
" style="fill:none;stroke:#ff0000;stroke-linecap:square;stroke-width:0.5;"/>
   </g>
   <g id="line2d_19">
    <path clip-path="url(#p7ac7f6535b)" d="M 253.404712 147.24458 
L 248.214689 145.100162 
" style="fill:none;stroke:#ff0000;stroke-linecap:square;stroke-width:0.5;"/>
   </g>
   <g id="line2d_20">
    <path clip-path="url(#p7ac7f6535b)" d="M 258.889649 147.044319 
L 253.404712 147.244581 
" style="fill:none;stroke:#ff0000;stroke-linecap:square;stroke-width:0.5;"/>
   </g>
   <g id="line2d_21">
    <path clip-path="url(#p7ac7f6535b)" d="M 258.889647 147.044318 
L 273.474645 135.767012 
" style="fill:none;stroke:#ff0000;stroke-linecap:square;stroke-width:0.5;"/>
   </g>
   <g id="line2d_22">
    <path clip-path="url(#p7ac7f6535b)" d="M 273.474648 135.767011 
L 325.963331 85.274636 
" style="fill:none;stroke:#ff0000;stroke-linecap:square;stroke-width:0.5;"/>
   </g>
   <g id="patch_79">
    <path d="M 54 252 
L 54 34.56 
" style="fill:none;stroke:#000000;stroke-linecap:square;stroke-linejoin:miter;stroke-width:0.8;"/>
   </g>
   <g id="patch_80">
    <path d="M 388.8 252 
L 388.8 34.56 
" style="fill:none;stroke:#000000;stroke-linecap:square;stroke-linejoin:miter;stroke-width:0.8;"/>
   </g>
   <g id="patch_81">
    <path d="M 54 252 
L 388.8 252 
" style="fill:none;stroke:#000000;stroke-linecap:square;stroke-linejoin:miter;stroke-width:0.8;"/>
   </g>
   <g id="patch_82">
    <path d="M 54 34.56 
L 388.8 34.56 
" style="fill:none;stroke:#000000;stroke-linecap:square;stroke-linejoin:miter;stroke-width:0.8;"/>
   </g>
  </g>
 </g>
 <defs>
  <clipPath id="p7ac7f6535b">
   <rect height="217.44" width="334.8" x="54" y="34.56"/>
  </clipPath>
 </defs>
</svg>
