<?xml version="1.0" encoding="utf-8" standalone="no"?>
<!DOCTYPE svg PUBLIC "-//W3C//DTD SVG 1.1//EN"
  "http://www.w3.org/Graphics/SVG/1.1/DTD/svg11.dtd">
<!-- Created with matplotlib (http://matplotlib.org/) -->
<svg height="288pt" version="1.1" viewBox="0 0 432 288" width="432pt" xmlns="http://www.w3.org/2000/svg" xmlns:xlink="http://www.w3.org/1999/xlink">
 <defs>
  <style type="text/css">
*{stroke-linecap:butt;stroke-linejoin:round;}
  </style>
 </defs>
 <g id="figure_1">
  <g id="patch_1">
   <path d="M 0 288 
L 432 288 
L 432 0 
L 0 0 
z
" style="fill:#ffffff;"/>
  </g>
  <g id="axes_1">
   <g id="patch_2">
    <path d="M 54 252 
L 388.8 252 
L 388.8 34.56 
L 54 34.56 
z
" style="fill:#ffffff;"/>
   </g>
   <g id="patch_3">
    <path clip-path="url(#p008b4e4cd4)" d="M 54 252 
L 54 161.381305 
L 198.333413 157.226359 
L 202.607949 160.638396 
L 137.051773 252 
z
" style="opacity:0.6;stroke-dasharray:0,0;stroke-dashoffset:0;"/>
   </g>
   <g id="patch_4">
    <path clip-path="url(#p008b4e4cd4)" d="M 49.087789 161.522713 
L 164.822814 130.477402 
L 198.333413 157.226359 
z
" style="fill:#0143da;opacity:0.6;stroke-dasharray:0,0;stroke-dashoffset:0;"/>
   </g>
   <g id="patch_5">
    <path clip-path="url(#p008b4e4cd4)" d="M -0.994154 162.964429 
L 163.614726 129.513078 
L 164.822814 130.477402 
L 49.087789 161.522713 
z
" style="fill:#0287b4;opacity:0.6;stroke-dasharray:0,0;stroke-dashoffset:0;"/>
   </g>
   <g id="patch_6">
    <path clip-path="url(#p008b4e4cd4)" d="M 54 151.788672 
L 54 88.851244 
L 138.421428 109.403188 
L 163.614726 129.513078 
z
" style="fill:#03cb8e;opacity:0.6;stroke-dasharray:0,0;stroke-dashoffset:0;"/>
   </g>
   <g id="patch_7">
    <path clip-path="url(#p008b4e4cd4)" d="M 54 88.851244 
L 54 65.792184 
L 104.122918 82.025301 
L 138.421428 109.403188 
z
" style="fill:#050f68;opacity:0.6;stroke-dasharray:0,0;stroke-dashoffset:0;"/>
   </g>
   <g id="patch_8">
    <path clip-path="url(#p008b4e4cd4)" d="M 54 65.792184 
L 54 42.015996 
L 104.122918 82.025301 
z
" style="fill:#065342;opacity:0.6;stroke-dasharray:0,0;stroke-dashoffset:0;"/>
   </g>
   <g id="patch_9">
    <path clip-path="url(#p008b4e4cd4)" d="M 104.122921 82.025303 
L 54 42.015996 
L 54 34.56 
L 132.575146 34.56 
L 222.705262 114.497171 
L 222.637967 114.968792 
L 214.381747 117.183479 
z
" style="fill:#07971c;opacity:0.6;stroke-dasharray:0,0;stroke-dashoffset:0;"/>
   </g>
   <g id="patch_10">
    <path clip-path="url(#p008b4e4cd4)" d="M 185.571286 124.911734 
L 138.421433 109.403191 
L 104.122921 82.025303 
L 214.381747 117.183479 
z
" style="fill:#08daf6;opacity:0.6;stroke-dasharray:0,0;stroke-dashoffset:0;"/>
   </g>
   <g id="patch_11">
    <path clip-path="url(#p008b4e4cd4)" d="M 132.575146 34.56 
L 139.984154 34.56 
L 222.963561 113.035914 
L 222.705262 114.497171 
z
" style="fill:#0a1ed0;opacity:0.6;stroke-dasharray:0,0;stroke-dashoffset:0;"/>
   </g>
   <g id="patch_12">
    <path clip-path="url(#p008b4e4cd4)" d="M 121.232401 274.046485 
L 202.607949 160.638396 
L 228.446206 181.263107 
L 213.163385 206.259605 
z
" style="fill:#0b62aa;opacity:0.6;stroke-dasharray:0,0;stroke-dashoffset:0;"/>
   </g>
   <g id="patch_13">
    <path clip-path="url(#p008b4e4cd4)" d="M 163.614726 129.513078 
L 138.421433 109.403191 
L 185.571286 124.911734 
L 183.427672 125.486747 
z
" style="fill:#0ca684;opacity:0.6;stroke-dasharray:0,0;stroke-dashoffset:0;"/>
   </g>
   <g id="patch_14">
    <path clip-path="url(#p008b4e4cd4)" d="M 139.984154 34.56 
L 259.962869 34.56 
L 222.963561 113.035913 
z
" style="fill:#0dea5e;opacity:0.6;stroke-dasharray:0,0;stroke-dashoffset:0;"/>
   </g>
   <g id="patch_15">
    <path clip-path="url(#p008b4e4cd4)" d="M 151.131329 252 
L 213.163385 206.259605 
L 185.197774 252 
z
" style="fill:#0f2e38;opacity:0.6;stroke-dasharray:0,0;stroke-dashoffset:0;"/>
   </g>
   <g id="patch_16">
    <path clip-path="url(#p008b4e4cd4)" d="M 164.822814 130.477402 
L 163.614726 129.513078 
L 183.427672 125.486747 
z
" style="fill:#107212;opacity:0.6;stroke-dasharray:0,0;stroke-dashoffset:0;"/>
   </g>
   <g id="patch_17">
    <path clip-path="url(#p008b4e4cd4)" d="M 198.333413 157.226359 
L 164.822814 130.477402 
L 183.427672 125.486747 
L 185.83653 124.997226 
L 220.249903 136.051891 
L 205.198039 157.028746 
z
" style="fill:#11b5ec;opacity:0.6;stroke-dasharray:0,0;stroke-dashoffset:0;"/>
   </g>
   <g id="patch_18">
    <path clip-path="url(#p008b4e4cd4)" d="M 185.197774 252 
L 213.163385 206.259605 
L 237.385728 188.398846 
L 317.064077 252 
z
" style="fill:#12f9c6;opacity:0.6;stroke-dasharray:0,0;stroke-dashoffset:0;"/>
   </g>
   <g id="patch_19">
    <path clip-path="url(#p008b4e4cd4)" d="M 185.83653 124.997226 
L 218.175837 118.425323 
L 222.103032 119.717879 
L 220.415326 135.821352 
L 220.249903 136.051891 
z
" style="fill:#143da0;opacity:0.6;stroke-dasharray:0,0;stroke-dashoffset:0;"/>
   </g>
   <g id="patch_20">
    <path clip-path="url(#p008b4e4cd4)" d="M 185.836531 124.997225 
L 185.571289 124.911733 
L 214.381747 117.183479 
L 218.175834 118.425323 
z
" style="fill:#15817a;opacity:0.6;stroke-dasharray:0,0;stroke-dashoffset:0;"/>
   </g>
   <g id="patch_21">
    <path clip-path="url(#p008b4e4cd4)" d="M 198.333413 157.226359 
L 205.198039 157.028746 
L 202.607949 160.638396 
z
" style="fill:#16c554;opacity:0.6;stroke-dasharray:0,0;stroke-dashoffset:0;"/>
   </g>
   <g id="patch_22">
    <path clip-path="url(#p008b4e4cd4)" d="M 202.607949 160.638396 
L 205.198039 157.028746 
L 234.42238 156.187461 
L 240.546775 161.471485 
L 228.446206 181.263107 
z
" style="fill:#18092e;opacity:0.6;stroke-dasharray:0,0;stroke-dashoffset:0;"/>
   </g>
   <g id="patch_23">
    <path clip-path="url(#p008b4e4cd4)" d="M 205.198039 157.028746 
L 220.249903 136.051891 
L 220.870022 136.482474 
L 234.422379 156.187461 
z
" style="fill:#194d08;opacity:0.6;stroke-dasharray:0,0;stroke-dashoffset:0;"/>
   </g>
   <g id="patch_24">
    <path clip-path="url(#p008b4e4cd4)" d="M 213.163385 206.259605 
L 228.446206 181.263107 
L 237.385728 188.398846 
z
" style="fill:#1a90e2;opacity:0.6;stroke-dasharray:0,0;stroke-dashoffset:0;"/>
   </g>
   <g id="patch_25">
    <path clip-path="url(#p008b4e4cd4)" d="M 218.175834 118.425323 
L 214.381747 117.183479 
L 222.637968 114.968791 
L 222.326906 117.581754 
z
" style="fill:#1bd4bc;opacity:0.6;stroke-dasharray:0,0;stroke-dashoffset:0;"/>
   </g>
   <g id="patch_26">
    <path clip-path="url(#p008b4e4cd4)" d="M 220.249903 136.051891 
L 220.415326 135.821351 
L 220.870022 136.482474 
z
" style="fill:#1d1896;opacity:0.6;stroke-dasharray:0,0;stroke-dashoffset:0;"/>
   </g>
   <g id="patch_27">
    <path clip-path="url(#p008b4e4cd4)" d="M 220.415326 135.821352 
L 222.103032 119.717879 
L 230.085198 122.345046 
z
" style="fill:#1e5c70;opacity:0.6;stroke-dasharray:0,0;stroke-dashoffset:0;"/>
   </g>
   <g id="patch_28">
    <path clip-path="url(#p008b4e4cd4)" d="M 218.175837 118.425323 
L 222.326906 117.581755 
L 222.103032 119.717879 
z
" style="fill:#1fa04a;opacity:0.6;stroke-dasharray:0,0;stroke-dashoffset:0;"/>
   </g>
   <g id="patch_29">
    <path clip-path="url(#p008b4e4cd4)" d="M 234.422379 156.187461 
L 220.870022 136.482474 
L 245.40796 153.520559 
L 243.945022 155.913332 
z
" style="fill:#20e424;opacity:0.6;stroke-dasharray:0,0;stroke-dashoffset:0;"/>
   </g>
   <g id="patch_30">
    <path clip-path="url(#p008b4e4cd4)" d="M 220.870022 136.482474 
L 220.415326 135.821351 
L 230.085198 122.345047 
L 238.777114 128.751434 
L 251.701616 140.214285 
L 252.868617 141.31795 
L 245.40796 153.520559 
z
" style="fill:#2227fe;opacity:0.6;stroke-dasharray:0,0;stroke-dashoffset:0;"/>
   </g>
   <g id="patch_31">
    <path clip-path="url(#p008b4e4cd4)" d="M 222.103032 119.717879 
L 222.326906 117.581755 
L 225.464297 116.944183 
L 230.656354 121.549062 
L 230.085198 122.345046 
z
" style="fill:#236bd8;opacity:0.6;stroke-dasharray:0,0;stroke-dashoffset:0;"/>
   </g>
   <g id="patch_32">
    <path clip-path="url(#p008b4e4cd4)" d="M 222.326906 117.581754 
L 222.637968 114.968791 
L 223.097911 114.845414 
L 225.464297 116.944183 
z
" style="fill:#24afb2;opacity:0.6;stroke-dasharray:0,0;stroke-dashoffset:0;"/>
   </g>
   <g id="patch_33">
    <path clip-path="url(#p008b4e4cd4)" d="M 223.097911 114.845414 
L 224.483809 114.473654 
L 226.80749 116.671223 
L 225.464297 116.944183 
z
" style="fill:#25f38c;opacity:0.6;stroke-dasharray:0,0;stroke-dashoffset:0;"/>
   </g>
   <g id="patch_34">
    <path clip-path="url(#p008b4e4cd4)" d="M 223.097911 114.845414 
L 222.705262 114.497171 
L 222.963561 113.035914 
L 224.483809 114.473654 
z
" style="fill:#273766;opacity:0.6;stroke-dasharray:0,0;stroke-dashoffset:0;"/>
   </g>
   <g id="patch_35">
    <path clip-path="url(#p008b4e4cd4)" d="M 238.41467 110.736774 
L 224.483809 114.473654 
L 222.963561 113.035913 
L 470.790727 -412.608047 
L 461.792487 -200.57113 
z
" style="fill:#287b40;opacity:0.6;stroke-dasharray:0,0;stroke-dashoffset:0;"/>
   </g>
   <g id="patch_36">
    <path clip-path="url(#p008b4e4cd4)" d="M 226.80749 116.671223 
L 224.483809 114.473654 
L 238.41467 110.736774 
L 235.410968 114.922848 
z
" style="fill:#29bf1a;opacity:0.6;stroke-dasharray:0,0;stroke-dashoffset:0;"/>
   </g>
   <g id="patch_37">
    <path clip-path="url(#p008b4e4cd4)" d="M 225.464297 116.944183 
L 226.80749 116.671223 
L 231.185498 120.811626 
L 230.656354 121.549062 
z
" style="fill:#2b02f4;opacity:0.6;stroke-dasharray:0,0;stroke-dashoffset:0;"/>
   </g>
   <g id="patch_38">
    <path clip-path="url(#p008b4e4cd4)" d="M 237.385728 188.398846 
L 228.446206 181.263107 
L 240.546774 161.471486 
L 254.906719 175.479445 
z
" style="fill:#2c46ce;opacity:0.6;stroke-dasharray:0,0;stroke-dashoffset:0;"/>
   </g>
   <g id="patch_39">
    <path clip-path="url(#p008b4e4cd4)" d="M 226.80749 116.671223 
L 235.410968 114.922848 
L 231.185498 120.811626 
z
" style="fill:#2d8aa8;opacity:0.6;stroke-dasharray:0,0;stroke-dashoffset:0;"/>
   </g>
   <g id="patch_40">
    <path clip-path="url(#p008b4e4cd4)" d="M 230.085198 122.345047 
L 230.656354 121.549062 
L 238.777114 128.751434 
z
" style="fill:#2ece82;opacity:0.6;stroke-dasharray:0,0;stroke-dashoffset:0;"/>
   </g>
   <g id="patch_41">
    <path clip-path="url(#p008b4e4cd4)" d="M 230.656354 121.549062 
L 231.185498 120.811626 
L 241.218612 130.300219 
L 238.777113 128.751433 
z
" style="fill:#30125c;opacity:0.6;stroke-dasharray:0,0;stroke-dashoffset:0;"/>
   </g>
   <g id="patch_42">
    <path clip-path="url(#p008b4e4cd4)" d="M 241.218607 130.300214 
L 231.185498 120.811626 
L 235.410968 114.922848 
L 273.772884 107.127048 
L 260.678996 128.543339 
z
" style="fill:#315636;opacity:0.6;stroke-dasharray:0,0;stroke-dashoffset:0;"/>
   </g>
   <g id="patch_43">
    <path clip-path="url(#p008b4e4cd4)" d="M 234.42238 156.187461 
L 243.945022 155.913332 
L 240.546775 161.471485 
z
" style="fill:#329a10;opacity:0.6;stroke-dasharray:0,0;stroke-dashoffset:0;"/>
   </g>
   <g id="patch_44">
    <path clip-path="url(#p008b4e4cd4)" d="M 235.410968 114.922848 
L 238.41467 110.736774 
L 278.069465 100.099584 
L 273.772884 107.127048 
z
" style="fill:#33ddea;opacity:0.6;stroke-dasharray:0,0;stroke-dashoffset:0;"/>
   </g>
   <g id="patch_45">
    <path clip-path="url(#p008b4e4cd4)" d="M 237.385728 188.398846 
L 254.906718 175.479445 
L 388.946618 309.378354 
z
" style="fill:#3521c4;opacity:0.6;stroke-dasharray:0,0;stroke-dashoffset:0;"/>
   </g>
   <g id="patch_46">
    <path clip-path="url(#p008b4e4cd4)" d="M 238.41467 110.736774 
L 461.792487 -200.57113 
L 461.784535 -200.38375 
L 278.069465 100.099584 
z
" style="fill:#36659e;opacity:0.6;stroke-dasharray:0,0;stroke-dashoffset:0;"/>
   </g>
   <g id="patch_47">
    <path clip-path="url(#p008b4e4cd4)" d="M 254.906719 175.479445 
L 240.546774 161.471486 
L 243.945022 155.913332 
L 258.143393 155.504601 
L 270.342288 157.843283 
L 274.058348 161.357663 
z
" style="fill:#37a978;opacity:0.6;stroke-dasharray:0,0;stroke-dashoffset:0;"/>
   </g>
   <g id="patch_48">
    <path clip-path="url(#p008b4e4cd4)" d="M 238.777113 128.751433 
L 241.218612 130.300219 
L 251.701616 140.214285 
z
" style="fill:#38ed52;opacity:0.6;stroke-dasharray:0,0;stroke-dashoffset:0;"/>
   </g>
   <g id="patch_49">
    <path clip-path="url(#p008b4e4cd4)" d="M 241.218607 130.300214 
L 260.678996 128.543339 
L 252.895829 141.273442 
L 251.701616 140.214285 
z
" style="fill:#3a312c;opacity:0.6;stroke-dasharray:0,0;stroke-dashoffset:0;"/>
   </g>
   <g id="patch_50">
    <path clip-path="url(#p008b4e4cd4)" d="M 243.945022 155.913332 
L 245.40796 153.520559 
L 258.143388 155.504601 
z
" style="fill:#3b7506;opacity:0.6;stroke-dasharray:0,0;stroke-dashoffset:0;"/>
   </g>
   <g id="patch_51">
    <path clip-path="url(#p008b4e4cd4)" d="M 245.40796 153.520559 
L 252.868617 141.31795 
L 267.582091 155.232888 
L 258.143388 155.504601 
z
" style="fill:#3cb8e0;opacity:0.6;stroke-dasharray:0,0;stroke-dashoffset:0;"/>
   </g>
   <g id="patch_52">
    <path clip-path="url(#p008b4e4cd4)" d="M 275.294596 155.010867 
L 268.602161 155.203523 
L 252.895829 141.273442 
L 260.678997 128.543336 
L 278.970796 106.070743 
L 375.693913 86.414945 
L 298.361171 143.437562 
z
" style="fill:#3dfcba;opacity:0.6;stroke-dasharray:0,0;stroke-dashoffset:0;"/>
   </g>
   <g id="patch_53">
    <path clip-path="url(#p008b4e4cd4)" d="M 388.946618 309.378354 
L 254.906718 175.479445 
L 274.058348 161.357663 
L 439.782112 318.087197 
L 438.473984 348.912275 
z
" style="fill:#3f4094;opacity:0.6;stroke-dasharray:0,0;stroke-dashoffset:0;"/>
   </g>
   <g id="patch_54">
    <path clip-path="url(#p008b4e4cd4)" d="M 267.582091 155.232888 
L 252.868617 141.31795 
L 252.895829 141.273442 
L 268.602161 155.203523 
z
" style="fill:#40846e;opacity:0.6;stroke-dasharray:0,0;stroke-dashoffset:0;"/>
   </g>
   <g id="patch_55">
    <path clip-path="url(#p008b4e4cd4)" d="M 258.143393 155.504601 
L 267.582091 155.232888 
L 270.342288 157.843283 
z
" style="fill:#41c848;opacity:0.6;stroke-dasharray:0,0;stroke-dashoffset:0;"/>
   </g>
   <g id="patch_56">
    <path clip-path="url(#p008b4e4cd4)" d="M 260.678997 128.543336 
L 273.772884 107.127048 
L 278.970796 106.070743 
z
" style="fill:#430c22;opacity:0.6;stroke-dasharray:0,0;stroke-dashoffset:0;"/>
   </g>
   <g id="patch_57">
    <path clip-path="url(#p008b4e4cd4)" d="M 271.45231 157.731344 
L 268.602161 155.203523 
L 275.2946 155.010867 
z
" style="fill:#444ffc;opacity:0.6;stroke-dasharray:0,0;stroke-dashoffset:0;"/>
   </g>
   <g id="patch_58">
    <path clip-path="url(#p008b4e4cd4)" d="M 274.058348 161.357663 
L 270.342289 157.843283 
L 271.452311 157.731345 
L 274.867941 160.760697 
z
" style="fill:#4593d6;opacity:0.6;stroke-dasharray:0,0;stroke-dashoffset:0;"/>
   </g>
   <g id="patch_59">
    <path clip-path="url(#p008b4e4cd4)" d="M 274.867941 160.760697 
L 271.45231 157.731344 
L 275.2946 155.010867 
L 282.965189 154.790053 
z
" style="fill:#46d7b0;opacity:0.6;stroke-dasharray:0,0;stroke-dashoffset:0;"/>
   </g>
   <g id="patch_60">
    <path clip-path="url(#p008b4e4cd4)" d="M 274.058348 161.357663 
L 274.867941 160.760697 
L 440.234553 307.425758 
L 439.782112 318.087197 
z
" style="fill:#481b8a;opacity:0.6;stroke-dasharray:0,0;stroke-dashoffset:0;"/>
   </g>
   <g id="patch_61">
    <path clip-path="url(#p008b4e4cd4)" d="M 278.970798 106.070743 
L 273.772884 107.127048 
L 278.069465 100.099584 
L 285.48376 98.110739 
z
" style="fill:#495f64;opacity:0.6;stroke-dasharray:0,0;stroke-dashoffset:0;"/>
   </g>
   <g id="patch_62">
    <path clip-path="url(#p008b4e4cd4)" d="M 274.867941 160.760697 
L 282.965189 154.790053 
L 446.91226 150.070486 
L 440.234553 307.425758 
z
" style="fill:#4aa33e;opacity:0.6;stroke-dasharray:0,0;stroke-dashoffset:0;"/>
   </g>
   <g id="patch_63">
    <path clip-path="url(#p008b4e4cd4)" d="M 275.294596 155.010867 
L 298.361171 143.437562 
L 282.965189 154.790053 
z
" style="fill:#4be718;opacity:0.6;stroke-dasharray:0,0;stroke-dashoffset:0;"/>
   </g>
   <g id="patch_64">
    <path clip-path="url(#p008b4e4cd4)" d="M 278.970798 106.070743 
L 285.48376 98.110739 
L 402.344968 66.763335 
L 375.693913 86.414945 
z
" style="fill:#4d2af2;opacity:0.6;stroke-dasharray:0,0;stroke-dashoffset:0;"/>
   </g>
   <g id="patch_65">
    <path clip-path="url(#p008b4e4cd4)" d="M 285.483756 98.11074 
L 278.069465 100.099584 
L 461.784535 -200.38375 
L 457.880679 -108.39225 
z
" style="fill:#4e6ecc;opacity:0.6;stroke-dasharray:0,0;stroke-dashoffset:0;"/>
   </g>
   <g id="patch_66">
    <path clip-path="url(#p008b4e4cd4)" d="M 282.965189 154.790053 
L 298.361176 143.437559 
L 437.903784 73.772831 
L 450.256645 71.262517 
L 446.91226 150.070486 
z
" style="fill:#4fb2a6;opacity:0.6;stroke-dasharray:0,0;stroke-dashoffset:0;"/>
   </g>
   <g id="patch_67">
    <path clip-path="url(#p008b4e4cd4)" d="M 402.344968 66.763335 
L 285.483756 98.11074 
L 457.880679 -108.39225 
L 452.001414 30.148306 
z
" style="fill:#50f680;opacity:0.6;stroke-dasharray:0,0;stroke-dashoffset:0;"/>
   </g>
   <g id="patch_68">
    <path clip-path="url(#p008b4e4cd4)" d="M 298.361176 143.437559 
L 375.693913 86.414945 
L 437.903784 73.772831 
z
" style="fill:#523a5a;opacity:0.6;stroke-dasharray:0,0;stroke-dashoffset:0;"/>
   </g>
   <g id="patch_69">
    <path clip-path="url(#p008b4e4cd4)" d="M 375.693913 86.414945 
L 402.344968 66.763335 
L 451.00146 53.711487 
L 450.415771 67.512833 
L 437.903784 73.772831 
z
" style="fill:#537e34;opacity:0.6;stroke-dasharray:0,0;stroke-dashoffset:0;"/>
   </g>
   <g id="patch_70">
    <path clip-path="url(#p008b4e4cd4)" d="M 76.546269 252 
L 54 252 
L 54 161.381305 
L 185.345669 157.600239 
z
" style="fill:#ff0000;stroke:#000000;stroke-linejoin:miter;stroke-width:0.5;"/>
   </g>
   <g id="matplotlib.axis_1">
    <g id="xtick_1">
     <g id="line2d_1">
      <defs>
       <path d="M 0 0 
L 0 3.5 
" id="me0e6730e9f" style="stroke:#000000;stroke-width:0.8;"/>
      </defs>
      <g>
       <use style="stroke:#000000;stroke-width:0.8;" x="87.48" xlink:href="#me0e6730e9f" y="252"/>
      </g>
     </g>
     <g id="text_1">
      <!-- −4 -->
      <defs>
       <path d="M 10.59375 35.5 
L 73.1875 35.5 
L 73.1875 27.203125 
L 10.59375 27.203125 
z
" id="DejaVuSans-2212"/>
       <path d="M 37.796875 64.3125 
L 12.890625 25.390625 
L 37.796875 25.390625 
z
M 35.203125 72.90625 
L 47.609375 72.90625 
L 47.609375 25.390625 
L 58.015625 25.390625 
L 58.015625 17.1875 
L 47.609375 17.1875 
L 47.609375 0 
L 37.796875 0 
L 37.796875 17.1875 
L 4.890625 17.1875 
L 4.890625 26.703125 
z
" id="DejaVuSans-34"/>
      </defs>
      <g transform="translate(80.108906 266.598437)scale(0.1 -0.1)">
       <use xlink:href="#DejaVuSans-2212"/>
       <use x="83.789062" xlink:href="#DejaVuSans-34"/>
      </g>
     </g>
    </g>
    <g id="xtick_2">
     <g id="line2d_2">
      <g>
       <use style="stroke:#000000;stroke-width:0.8;" x="154.44" xlink:href="#me0e6730e9f" y="252"/>
      </g>
     </g>
     <g id="text_2">
      <!-- −2 -->
      <defs>
       <path d="M 19.1875 8.296875 
L 53.609375 8.296875 
L 53.609375 0 
L 7.328125 0 
L 7.328125 8.296875 
Q 12.9375 14.109375 22.625 23.890625 
Q 32.328125 33.6875 34.8125 36.53125 
Q 39.546875 41.84375 41.421875 45.53125 
Q 43.3125 49.21875 43.3125 52.78125 
Q 43.3125 58.59375 39.234375 62.25 
Q 35.15625 65.921875 28.609375 65.921875 
Q 23.96875 65.921875 18.8125 64.3125 
Q 13.671875 62.703125 7.8125 59.421875 
L 7.8125 69.390625 
Q 13.765625 71.78125 18.9375 73 
Q 24.125 74.21875 28.421875 74.21875 
Q 39.75 74.21875 46.484375 68.546875 
Q 53.21875 62.890625 53.21875 53.421875 
Q 53.21875 48.921875 51.53125 44.890625 
Q 49.859375 40.875 45.40625 35.40625 
Q 44.1875 33.984375 37.640625 27.21875 
Q 31.109375 20.453125 19.1875 8.296875 
z
" id="DejaVuSans-32"/>
      </defs>
      <g transform="translate(147.068906 266.598437)scale(0.1 -0.1)">
       <use xlink:href="#DejaVuSans-2212"/>
       <use x="83.789062" xlink:href="#DejaVuSans-32"/>
      </g>
     </g>
    </g>
    <g id="xtick_3">
     <g id="line2d_3">
      <g>
       <use style="stroke:#000000;stroke-width:0.8;" x="221.4" xlink:href="#me0e6730e9f" y="252"/>
      </g>
     </g>
     <g id="text_3">
      <!-- 0 -->
      <defs>
       <path d="M 31.78125 66.40625 
Q 24.171875 66.40625 20.328125 58.90625 
Q 16.5 51.421875 16.5 36.375 
Q 16.5 21.390625 20.328125 13.890625 
Q 24.171875 6.390625 31.78125 6.390625 
Q 39.453125 6.390625 43.28125 13.890625 
Q 47.125 21.390625 47.125 36.375 
Q 47.125 51.421875 43.28125 58.90625 
Q 39.453125 66.40625 31.78125 66.40625 
z
M 31.78125 74.21875 
Q 44.046875 74.21875 50.515625 64.515625 
Q 56.984375 54.828125 56.984375 36.375 
Q 56.984375 17.96875 50.515625 8.265625 
Q 44.046875 -1.421875 31.78125 -1.421875 
Q 19.53125 -1.421875 13.0625 8.265625 
Q 6.59375 17.96875 6.59375 36.375 
Q 6.59375 54.828125 13.0625 64.515625 
Q 19.53125 74.21875 31.78125 74.21875 
z
" id="DejaVuSans-30"/>
      </defs>
      <g transform="translate(218.21875 266.598437)scale(0.1 -0.1)">
       <use xlink:href="#DejaVuSans-30"/>
      </g>
     </g>
    </g>
    <g id="xtick_4">
     <g id="line2d_4">
      <g>
       <use style="stroke:#000000;stroke-width:0.8;" x="288.36" xlink:href="#me0e6730e9f" y="252"/>
      </g>
     </g>
     <g id="text_4">
      <!-- 2 -->
      <g transform="translate(285.17875 266.598437)scale(0.1 -0.1)">
       <use xlink:href="#DejaVuSans-32"/>
      </g>
     </g>
    </g>
    <g id="xtick_5">
     <g id="line2d_5">
      <g>
       <use style="stroke:#000000;stroke-width:0.8;" x="355.32" xlink:href="#me0e6730e9f" y="252"/>
      </g>
     </g>
     <g id="text_5">
      <!-- 4 -->
      <g transform="translate(352.13875 266.598437)scale(0.1 -0.1)">
       <use xlink:href="#DejaVuSans-34"/>
      </g>
     </g>
    </g>
   </g>
   <g id="matplotlib.axis_2">
    <g id="ytick_1">
     <g id="line2d_6">
      <defs>
       <path d="M 0 0 
L -3.5 0 
" id="m05e4031a2b" style="stroke:#000000;stroke-width:0.8;"/>
      </defs>
      <g>
       <use style="stroke:#000000;stroke-width:0.8;" x="54" xlink:href="#m05e4031a2b" y="230.256"/>
      </g>
     </g>
     <g id="text_6">
      <!-- −4 -->
      <g transform="translate(32.257812 234.055219)scale(0.1 -0.1)">
       <use xlink:href="#DejaVuSans-2212"/>
       <use x="83.789062" xlink:href="#DejaVuSans-34"/>
      </g>
     </g>
    </g>
    <g id="ytick_2">
     <g id="line2d_7">
      <g>
       <use style="stroke:#000000;stroke-width:0.8;" x="54" xlink:href="#m05e4031a2b" y="186.768"/>
      </g>
     </g>
     <g id="text_7">
      <!-- −2 -->
      <g transform="translate(32.257812 190.567219)scale(0.1 -0.1)">
       <use xlink:href="#DejaVuSans-2212"/>
       <use x="83.789062" xlink:href="#DejaVuSans-32"/>
      </g>
     </g>
    </g>
    <g id="ytick_3">
     <g id="line2d_8">
      <g>
       <use style="stroke:#000000;stroke-width:0.8;" x="54" xlink:href="#m05e4031a2b" y="143.28"/>
      </g>
     </g>
     <g id="text_8">
      <!-- 0 -->
      <g transform="translate(40.6375 147.079219)scale(0.1 -0.1)">
       <use xlink:href="#DejaVuSans-30"/>
      </g>
     </g>
    </g>
    <g id="ytick_4">
     <g id="line2d_9">
      <g>
       <use style="stroke:#000000;stroke-width:0.8;" x="54" xlink:href="#m05e4031a2b" y="99.792"/>
      </g>
     </g>
     <g id="text_9">
      <!-- 2 -->
      <g transform="translate(40.6375 103.591219)scale(0.1 -0.1)">
       <use xlink:href="#DejaVuSans-32"/>
      </g>
     </g>
    </g>
    <g id="ytick_5">
     <g id="line2d_10">
      <g>
       <use style="stroke:#000000;stroke-width:0.8;" x="54" xlink:href="#m05e4031a2b" y="56.304"/>
      </g>
     </g>
     <g id="text_10">
      <!-- 4 -->
      <g transform="translate(40.6375 60.103219)scale(0.1 -0.1)">
       <use xlink:href="#DejaVuSans-34"/>
      </g>
     </g>
    </g>
   </g>
   <g id="line2d_11">
    <path clip-path="url(#p008b4e4cd4)" d="M 185.345671 157.600239 
L 192.94499 152.925192 
" style="fill:none;stroke:#ff0000;stroke-linecap:square;stroke-width:0.5;"/>
   </g>
   <g id="line2d_12">
    <path clip-path="url(#p008b4e4cd4)" d="M 192.944991 152.925193 
L 209.994517 132.757536 
" style="fill:none;stroke:#ff0000;stroke-linecap:square;stroke-width:0.5;"/>
   </g>
   <g id="line2d_13">
    <path clip-path="url(#p008b4e4cd4)" d="M 209.994516 132.757536 
L 221.246402 127.891525 
" style="fill:none;stroke:#ff0000;stroke-linecap:square;stroke-width:0.5;"/>
   </g>
   <g id="line2d_14">
    <path clip-path="url(#p008b4e4cd4)" d="M 225.186819 129.171616 
L 221.246402 127.891526 
" style="fill:none;stroke:#ff0000;stroke-linecap:square;stroke-width:0.5;"/>
   </g>
   <g id="line2d_15">
    <path clip-path="url(#p008b4e4cd4)" d="M 249.628093 146.618132 
L 225.186819 129.171615 
" style="fill:none;stroke:#ff0000;stroke-linecap:square;stroke-width:0.5;"/>
   </g>
   <g id="line2d_16">
    <path clip-path="url(#p008b4e4cd4)" d="M 259.003478 147.119857 
L 249.628094 146.618131 
" style="fill:none;stroke:#ff0000;stroke-linecap:square;stroke-width:0.5;"/>
   </g>
   <g id="line2d_17">
    <path clip-path="url(#p008b4e4cd4)" d="M 259.380584 147.024828 
L 318.598932 98.017626 
" style="fill:none;stroke:#ff0000;stroke-linecap:square;stroke-width:0.5;"/>
   </g>
   <g id="line2d_18">
    <path clip-path="url(#p008b4e4cd4)" d="M 259.003478 147.119857 
L 259.380584 147.024828 
" style="fill:none;stroke:#ff0000;stroke-linecap:square;stroke-width:0.5;"/>
   </g>
   <g id="line2d_19">
    <path clip-path="url(#p008b4e4cd4)" d="M 318.598936 98.017625 
L 334.32843 85.008413 
" style="fill:none;stroke:#ff0000;stroke-linecap:square;stroke-width:0.5;"/>
   </g>
   <g id="line2d_20">
    <path clip-path="url(#p008b4e4cd4)" d="M 334.32843 85.008413 
L 433 3.466823 
" style="fill:none;stroke:#ff0000;stroke-linecap:square;stroke-width:0.5;"/>
   </g>
   <g id="patch_71">
    <path d="M 54 252 
L 54 34.56 
" style="fill:none;stroke:#000000;stroke-linecap:square;stroke-linejoin:miter;stroke-width:0.8;"/>
   </g>
   <g id="patch_72">
    <path d="M 388.8 252 
L 388.8 34.56 
" style="fill:none;stroke:#000000;stroke-linecap:square;stroke-linejoin:miter;stroke-width:0.8;"/>
   </g>
   <g id="patch_73">
    <path d="M 54 252 
L 388.8 252 
" style="fill:none;stroke:#000000;stroke-linecap:square;stroke-linejoin:miter;stroke-width:0.8;"/>
   </g>
   <g id="patch_74">
    <path d="M 54 34.56 
L 388.8 34.56 
" style="fill:none;stroke:#000000;stroke-linecap:square;stroke-linejoin:miter;stroke-width:0.8;"/>
   </g>
  </g>
 </g>
 <defs>
  <clipPath id="p008b4e4cd4">
   <rect height="217.44" width="334.8" x="54" y="34.56"/>
  </clipPath>
 </defs>
</svg>
