<?xml version="1.0" encoding="utf-8" standalone="no"?>
<!DOCTYPE svg PUBLIC "-//W3C//DTD SVG 1.1//EN"
  "http://www.w3.org/Graphics/SVG/1.1/DTD/svg11.dtd">
<!-- Created with matplotlib (http://matplotlib.org/) -->
<svg height="576pt" version="1.1" viewBox="0 0 576 576" width="576pt" xmlns="http://www.w3.org/2000/svg" xmlns:xlink="http://www.w3.org/1999/xlink">
 <defs>
  <style type="text/css">
*{stroke-linecap:butt;stroke-linejoin:round;}
  </style>
 </defs>
 <g id="figure_1">
  <g id="patch_1">
   <path d="M 0 576 
L 576 576 
L 576 0 
L 0 0 
z
" style="fill:#ffffff;"/>
  </g>
  <g id="axes_1">
   <g id="patch_2">
    <path d="M 72 504 
L 518.4 504 
L 518.4 69.12 
L 72 69.12 
z
" style="fill:#ffffff;"/>
   </g>
   <g id="PathCollection_1">
    <path clip-path="url(#p5119a55cad)" d="M 76.509091 504 
L 81.018182 504 
L 85.527273 504 
L 90.036364 504 
L 94.545455 504 
L 99.054545 504 
L 103.563636 504 
L 108.072727 504 
L 112.581818 504 
L 117.090909 504 
L 121.6 504 
L 126.109091 504 
L 130.618182 504 
L 135.127273 504 
L 139.636364 504 
L 144.145455 504 
L 148.654545 504 
L 153.163636 504 
L 156.091011 504 
L 157.672727 500.734517 
L 158.218736 499.607273 
L 160.346449 495.214545 
L 162.181818 491.425385 
L 162.474169 490.821818 
L 164.601878 486.429091 
L 166.690909 482.116235 
L 166.729596 482.036364 
L 168.857303 477.643636 
L 170.985013 473.250909 
L 171.2 472.80706 
L 173.112725 468.858182 
L 175.240449 464.465455 
L 175.709091 463.497934 
L 177.36817 460.072727 
L 179.495889 455.68 
L 180.218182 454.188805 
L 181.623601 451.287273 
L 183.751317 446.894545 
L 184.727273 444.879656 
L 185.879031 442.501818 
L 188.006746 438.109091 
L 189.236364 435.570515 
L 190.134466 433.716364 
L 192.262181 429.323636 
L 193.745455 426.261379 
L 194.389896 424.930909 
L 196.517619 420.538182 
L 198.254545 416.952241 
L 198.64533 416.145455 
L 200.773046 411.752727 
L 202.763636 407.643107 
L 202.900766 407.36 
L 205.028475 402.967273 
L 207.156192 398.574545 
L 207.272727 398.333955 
L 209.283909 394.181818 
L 211.411627 389.789091 
L 211.781818 389.024822 
L 213.539342 385.396364 
L 215.66706 381.003636 
L 216.290909 379.71568 
L 217.794771 376.610909 
L 219.922487 372.218182 
L 220.8 370.406531 
L 222.050203 367.825455 
L 224.17792 363.432727 
L 225.309091 361.097397 
L 226.305638 359.04 
L 228.433355 354.647273 
L 229.818182 351.788253 
L 230.561066 350.254545 
L 232.688786 345.861818 
L 234.327273 342.479121 
L 234.81649 341.469091 
L 236.944218 337.076364 
L 238.836364 333.169979 
L 239.071879 332.683636 
L 241.199193 328.290909 
L 243.328068 323.898182 
L 243.345455 323.863008 
L 245.563739 319.505455 
L 247.677559 315.112727 
L 247.854545 314.769323 
L 249.969628 310.72 
L 252.205501 306.327273 
L 252.363636 306.050772 
L 254.722806 301.934545 
L 256.872727 298.2923 
L 257.315717 297.541818 
L 260.095002 293.149091 
L 261.381818 291.158835 
L 262.933497 288.756364 
L 265.790206 284.363636 
L 265.890909 284.222675 
L 268.87342 279.970909 
L 270.4 277.850804 
L 272.007318 275.578182 
L 274.909091 271.578468 
L 275.189242 271.185455 
L 278.429079 266.792727 
L 279.418182 265.697435 
L 283.662442 262.4 
L 283.927273 262.244825 
L 288.436364 259.947516 
L 292.347926 258.007273 
L 292.945455 257.710882 
L 297.454545 256.436483 
L 299.462945 258.007273 
L 301.963636 260.523003 
L 303.829411 262.4 
L 306.472727 265.059212 
L 308.195879 266.792727 
L 310.981818 269.595421 
L 312.562347 271.185455 
L 315.490909 274.131629 
L 316.928815 275.578182 
L 320 278.667837 
L 321.295282 279.970909 
L 324.509091 283.204046 
L 325.66175 284.363636 
L 329.018182 287.740254 
L 330.028217 288.756364 
L 333.527273 292.276462 
L 334.394685 293.149091 
L 338.036364 296.812674 
L 342.545455 295.579828 
L 346.610519 293.149091 
L 347.054545 292.852372 
L 351.220067 288.756364 
L 351.563636 288.335264 
L 354.804039 284.363636 
L 356.072727 282.808657 
L 358.388008 279.970909 
L 360.581818 277.282047 
L 361.97198 275.578182 
L 365.090909 271.755443 
L 365.555955 271.185455 
L 369.139917 266.792727 
L 369.6 266.228821 
L 372.723886 262.4 
L 374.109091 260.702212 
L 376.307854 258.007273 
L 378.618182 255.175591 
L 379.891818 253.614545 
L 383.127273 249.64898 
L 383.475789 249.221818 
L 387.059766 244.829091 
L 387.636364 244.122378 
L 390.643726 240.436364 
L 392.145455 238.595755 
L 394.2277 236.043636 
L 396.654545 233.069149 
L 397.811666 231.650909 
L 401.163636 227.542525 
L 401.395628 227.258182 
L 404.979605 222.865455 
L 405.672727 221.868055 
L 408.002205 218.472727 
L 410.181818 215.104582 
L 410.84485 214.08 
L 413.687489 209.687273 
L 414.690909 208.136692 
L 416.530136 205.294545 
L 419.2 201.168804 
L 419.372772 200.901818 
L 422.21541 196.509091 
L 423.709091 194.200912 
L 425.058056 192.116364 
L 427.900695 187.723636 
L 428.218182 187.233025 
L 430.743335 183.330909 
L 432.727273 180.265137 
L 433.585978 178.938182 
L 436.428413 174.545455 
L 437.236364 173.294843 
L 439.267131 170.152727 
L 441.745455 166.315648 
L 442.104339 165.76 
L 444.941577 161.367273 
L 446.254545 159.33447 
L 447.778807 156.974545 
L 450.616032 152.581818 
L 450.763636 152.353291 
L 453.453263 148.189091 
L 455.272727 145.372101 
L 456.290481 143.796364 
L 459.127711 139.403636 
L 459.781818 138.390918 
L 461.964938 135.010909 
L 464.290909 131.409738 
L 464.80217 130.618182 
L 467.639391 126.225455 
L 468.8 124.428541 
L 470.47661 121.832727 
L 473.309091 117.447346 
L 473.313836 117.44 
L 476.151065 113.047273 
L 477.818182 110.46615 
L 478.988277 108.654545 
L 481.825502 104.261818 
L 482.327273 103.484951 
L 484.662721 99.869091 
L 486.836364 96.503755 
L 487.499946 95.476364 
L 490.337161 91.083636 
L 491.345455 89.522545 
L 493.174396 86.690909 
L 495.854545 82.541383 
L 496.011626 82.298182 
L 498.848851 77.905455 
L 500.363636 75.560184 
L 501.686069 73.512727 
L 504.523315 69.12 
L 500.363636 69.12 
L 495.854545 69.12 
L 491.345455 69.12 
L 486.836364 69.12 
L 482.327273 69.12 
L 477.818182 69.12 
L 473.309091 69.12 
L 468.8 69.12 
L 464.290909 69.12 
L 459.781818 69.12 
L 455.272727 69.12 
L 450.763636 69.12 
L 446.254545 69.12 
L 441.745455 69.12 
L 437.236364 69.12 
L 432.727273 69.12 
L 428.218182 69.12 
L 423.709091 69.12 
L 419.2 69.12 
L 414.690909 69.12 
L 410.181818 69.12 
L 405.672727 69.12 
L 401.163636 69.12 
L 396.654545 69.12 
L 392.145455 69.12 
L 387.636364 69.12 
L 383.127273 69.12 
L 378.618182 69.12 
L 374.109091 69.12 
L 369.6 69.12 
L 365.090909 69.12 
L 360.581818 69.12 
L 356.072727 69.12 
L 351.563636 69.12 
L 347.054545 69.12 
L 342.545455 69.12 
L 338.036364 69.12 
L 333.527273 69.12 
L 329.018182 69.12 
L 324.509091 69.12 
L 320 69.12 
L 315.490909 69.12 
L 310.981818 69.12 
L 306.472727 69.12 
L 301.963636 69.12 
L 297.454545 69.12 
L 292.945455 69.12 
L 288.436364 69.12 
L 283.927273 69.12 
L 279.418182 69.12 
L 274.909091 69.12 
L 270.4 69.12 
L 265.890909 69.12 
L 261.381818 69.12 
L 256.872727 69.12 
L 252.363636 69.12 
L 247.854545 69.12 
L 243.345455 69.12 
L 238.836364 69.12 
L 234.327273 69.12 
L 229.818182 69.12 
L 225.309091 69.12 
L 220.8 69.12 
L 216.290909 69.12 
L 211.781818 69.12 
L 207.272727 69.12 
L 202.763636 69.12 
L 198.254545 69.12 
L 193.745455 69.12 
L 189.236364 69.12 
L 184.727273 69.12 
L 180.218182 69.12 
L 175.709091 69.12 
L 171.2 69.12 
L 166.690909 69.12 
L 162.181818 69.12 
L 157.672727 69.12 
L 153.163636 69.12 
L 148.654545 69.12 
L 144.145455 69.12 
L 139.636364 69.12 
L 135.127273 69.12 
L 130.618182 69.12 
L 126.109091 69.12 
L 121.6 69.12 
L 117.090909 69.12 
L 112.581818 69.12 
L 108.072727 69.12 
L 103.563636 69.12 
L 99.054545 69.12 
L 94.545455 69.12 
L 90.036364 69.12 
L 85.527273 69.12 
L 81.018182 69.12 
L 76.509091 69.12 
L 72 69.12 
L 72 73.512727 
L 72 77.905455 
L 72 82.298182 
L 72 86.690909 
L 72 91.083636 
L 72 95.476364 
L 72 99.869091 
L 72 104.261818 
L 72 108.654545 
L 72 113.047273 
L 72 117.44 
L 72 121.832727 
L 72 126.225455 
L 72 130.618182 
L 72 135.010909 
L 72 139.403636 
L 72 143.796364 
L 72 148.189091 
L 72 152.581818 
L 72 156.974545 
L 72 161.367273 
L 72 165.76 
L 72 170.152727 
L 72 174.545455 
L 72 178.938182 
L 72 183.330909 
L 72 187.723636 
L 72 192.116364 
L 72 196.509091 
L 72 200.901818 
L 72 205.294545 
L 72 209.687273 
L 72 214.08 
L 72 218.472727 
L 72 222.865455 
L 72 227.258182 
L 72 231.650909 
L 72 236.043636 
L 72 240.436364 
L 72 244.829091 
L 72 249.221818 
L 72 253.614545 
L 72 258.007273 
L 72 262.4 
L 72 266.792727 
L 72 271.185455 
L 72 275.578182 
L 72 279.970909 
L 72 284.363636 
L 72 288.756364 
L 72 293.149091 
L 72 297.541818 
L 72 301.934545 
L 72 306.327273 
L 72 310.72 
L 72 315.112727 
L 72 319.505455 
L 72 323.898182 
L 72 328.290909 
L 72 332.683636 
L 72 337.076364 
L 72 341.469091 
L 72 345.861818 
L 72 350.254545 
L 72 354.647273 
L 72 359.04 
L 72 363.432727 
L 72 367.825455 
L 72 372.218182 
L 72 376.610909 
L 72 381.003636 
L 72 385.396364 
L 72 389.789091 
L 72 394.181818 
L 72 398.574545 
L 72 402.967273 
L 72 407.36 
L 72 411.752727 
L 72 416.145455 
L 72 420.538182 
L 72 424.930909 
L 72 429.323636 
L 72 433.716364 
L 72 438.109091 
L 72 442.501818 
L 72 446.894545 
L 72 451.287273 
L 72 455.68 
L 72 460.072727 
L 72 464.465455 
L 72 468.858182 
L 72 473.250909 
L 72 477.643636 
L 72 482.036364 
L 72 486.429091 
L 72 490.821818 
L 72 495.214545 
L 72 499.607273 
L 72 504 
z
" style="fill:#8db0fe;"/>
   </g>
   <g id="PathCollection_2">
    <path clip-path="url(#p5119a55cad)" d="M 157.672727 504 
L 162.181818 504 
L 166.690909 504 
L 171.2 504 
L 175.709091 504 
L 180.218182 504 
L 184.727273 504 
L 189.236364 504 
L 193.745455 504 
L 198.254545 504 
L 202.763636 504 
L 207.272727 504 
L 211.781818 504 
L 216.290909 504 
L 220.8 504 
L 225.309091 504 
L 229.818182 504 
L 234.327273 504 
L 238.836364 504 
L 243.345455 504 
L 247.854545 504 
L 252.363636 504 
L 256.872727 504 
L 261.381818 504 
L 265.890909 504 
L 270.4 504 
L 274.909091 504 
L 279.418182 504 
L 283.927273 504 
L 288.436364 504 
L 292.945455 504 
L 297.454545 504 
L 301.963636 504 
L 306.472727 504 
L 310.981818 504 
L 315.490909 504 
L 320 504 
L 324.509091 504 
L 329.018182 504 
L 333.527273 504 
L 338.036364 504 
L 342.545455 504 
L 347.054545 504 
L 351.563636 504 
L 356.072727 504 
L 360.581818 504 
L 365.090909 504 
L 369.6 504 
L 374.109091 504 
L 378.618182 504 
L 383.127273 504 
L 387.636364 504 
L 392.145455 504 
L 396.654545 504 
L 401.163636 504 
L 405.672727 504 
L 410.181818 504 
L 414.690909 504 
L 419.2 504 
L 423.709091 504 
L 428.218182 504 
L 432.727273 504 
L 437.236364 504 
L 441.745455 504 
L 446.254545 504 
L 450.763636 504 
L 455.272727 504 
L 459.781818 504 
L 464.290909 504 
L 468.8 504 
L 473.309091 504 
L 477.818182 504 
L 482.327273 504 
L 486.836364 504 
L 491.345455 504 
L 495.854545 504 
L 500.363636 504 
L 504.872727 504 
L 509.381818 504 
L 513.890909 504 
L 518.4 504 
L 518.4 499.607273 
L 518.4 495.214545 
L 518.4 490.821818 
L 518.4 486.429091 
L 518.4 482.036364 
L 518.4 477.643636 
L 518.4 473.250909 
L 518.4 468.858182 
L 518.4 464.465455 
L 518.4 460.072727 
L 518.4 455.68 
L 518.4 451.287273 
L 518.4 446.894545 
L 518.4 442.501818 
L 518.4 438.109091 
L 518.4 433.716364 
L 518.4 429.323636 
L 518.4 424.930909 
L 518.4 420.538182 
L 518.4 416.145455 
L 518.4 411.752727 
L 518.4 407.36 
L 518.4 402.967273 
L 518.4 398.574545 
L 518.4 394.181818 
L 518.4 389.789091 
L 518.4 385.396364 
L 518.4 381.003636 
L 518.4 376.610909 
L 518.4 372.218182 
L 518.4 367.825455 
L 518.4 363.432727 
L 518.4 359.04 
L 518.4 354.647273 
L 518.4 350.254545 
L 518.4 345.861818 
L 518.4 341.469091 
L 518.4 337.076364 
L 518.4 332.683636 
L 518.4 328.290909 
L 518.4 323.898182 
L 518.4 319.505455 
L 518.4 315.112727 
L 518.4 310.72 
L 518.4 306.327273 
L 518.4 301.934545 
L 518.4 297.541818 
L 518.4 293.149091 
L 518.4 288.756364 
L 518.4 284.363636 
L 518.4 279.970909 
L 518.4 275.578182 
L 518.4 271.185455 
L 518.4 266.792727 
L 518.4 262.4 
L 518.4 258.007273 
L 518.4 253.614545 
L 518.4 249.221818 
L 518.4 244.829091 
L 518.4 240.436364 
L 518.4 236.043636 
L 518.4 231.650909 
L 518.4 227.258182 
L 518.4 222.865455 
L 518.4 218.472727 
L 518.4 214.08 
L 518.4 209.687273 
L 518.4 205.294545 
L 518.4 200.901818 
L 518.4 196.509091 
L 518.4 192.116364 
L 518.4 187.723636 
L 518.4 183.330909 
L 518.4 178.938182 
L 518.4 174.545455 
L 518.4 170.152727 
L 518.4 165.76 
L 518.4 161.367273 
L 518.4 156.974545 
L 518.4 152.581818 
L 518.4 148.189091 
L 518.4 143.796364 
L 518.4 139.403636 
L 518.4 135.010909 
L 518.4 130.618182 
L 518.4 126.225455 
L 518.4 121.832727 
L 518.4 117.44 
L 518.4 113.047273 
L 518.4 108.654545 
L 518.4 104.261818 
L 518.4 99.869091 
L 518.4 95.476364 
L 518.4 91.083636 
L 518.4 86.690909 
L 518.4 82.298182 
L 518.4 77.905455 
L 518.4 73.512727 
L 518.4 69.12 
L 513.890909 69.12 
L 509.381818 69.12 
L 504.872727 69.12 
L 504.523315 69.12 
L 501.686069 73.512727 
L 500.363636 75.560184 
L 498.848851 77.905455 
L 496.011626 82.298182 
L 495.854545 82.541383 
L 493.174396 86.690909 
L 491.345455 89.522545 
L 490.337161 91.083636 
L 487.499946 95.476364 
L 486.836364 96.503755 
L 484.662721 99.869091 
L 482.327273 103.484951 
L 481.825502 104.261818 
L 478.988277 108.654545 
L 477.818182 110.46615 
L 476.151065 113.047273 
L 473.313836 117.44 
L 473.309091 117.447346 
L 470.47661 121.832727 
L 468.8 124.428541 
L 467.639391 126.225455 
L 464.80217 130.618182 
L 464.290909 131.409738 
L 461.964938 135.010909 
L 459.781818 138.390918 
L 459.127711 139.403636 
L 456.290481 143.796364 
L 455.272727 145.372101 
L 453.453263 148.189091 
L 450.763636 152.353291 
L 450.616032 152.581818 
L 447.778807 156.974545 
L 446.254545 159.33447 
L 444.941577 161.367273 
L 442.104339 165.76 
L 441.745455 166.315648 
L 439.267131 170.152727 
L 437.236364 173.294843 
L 436.428413 174.545455 
L 433.585978 178.938182 
L 432.727273 180.265137 
L 430.743335 183.330909 
L 428.218182 187.233025 
L 427.900695 187.723636 
L 425.058056 192.116364 
L 423.709091 194.200912 
L 422.21541 196.509091 
L 419.372772 200.901818 
L 419.2 201.168804 
L 416.530136 205.294545 
L 414.690909 208.136692 
L 413.687489 209.687273 
L 410.84485 214.08 
L 410.181818 215.104582 
L 408.002205 218.472727 
L 405.672727 221.868055 
L 404.979605 222.865455 
L 401.395628 227.258182 
L 401.163636 227.542525 
L 397.811666 231.650909 
L 396.654545 233.069149 
L 394.2277 236.043636 
L 392.145455 238.595755 
L 390.643726 240.436364 
L 387.636364 244.122378 
L 387.059766 244.829091 
L 383.475789 249.221818 
L 383.127273 249.64898 
L 379.891818 253.614545 
L 378.618182 255.175591 
L 376.307854 258.007273 
L 374.109091 260.702212 
L 372.723886 262.4 
L 369.6 266.228821 
L 369.139917 266.792727 
L 365.555955 271.185455 
L 365.090909 271.755443 
L 361.97198 275.578182 
L 360.581818 277.282047 
L 358.388008 279.970909 
L 356.072727 282.808657 
L 354.804039 284.363636 
L 351.563636 288.335264 
L 351.220067 288.756364 
L 347.054545 292.852372 
L 346.610519 293.149091 
L 342.545455 295.579828 
L 338.036364 296.812674 
L 334.394685 293.149091 
L 333.527273 292.276462 
L 330.028217 288.756364 
L 329.018182 287.740254 
L 325.66175 284.363636 
L 324.509091 283.204046 
L 321.295282 279.970909 
L 320 278.667837 
L 316.928815 275.578182 
L 315.490909 274.131629 
L 312.562347 271.185455 
L 310.981818 269.595421 
L 308.195879 266.792727 
L 306.472727 265.059212 
L 303.829411 262.4 
L 301.963636 260.523003 
L 299.462945 258.007273 
L 297.454545 256.436483 
L 292.945455 257.710882 
L 292.347926 258.007273 
L 288.436364 259.947516 
L 283.927273 262.244825 
L 283.662442 262.4 
L 279.418182 265.697435 
L 278.429079 266.792727 
L 275.189242 271.185455 
L 274.909091 271.578468 
L 272.007318 275.578182 
L 270.4 277.850804 
L 268.87342 279.970909 
L 265.890909 284.222675 
L 265.790206 284.363636 
L 262.933497 288.756364 
L 261.381818 291.158835 
L 260.095002 293.149091 
L 257.315717 297.541818 
L 256.872727 298.2923 
L 254.722806 301.934545 
L 252.363636 306.050772 
L 252.205501 306.327273 
L 249.969628 310.72 
L 247.854545 314.769323 
L 247.677559 315.112727 
L 245.563739 319.505455 
L 243.345455 323.863008 
L 243.328068 323.898182 
L 241.199193 328.290909 
L 239.071879 332.683636 
L 238.836364 333.169979 
L 236.944218 337.076364 
L 234.81649 341.469091 
L 234.327273 342.479121 
L 232.688786 345.861818 
L 230.561066 350.254545 
L 229.818182 351.788253 
L 228.433355 354.647273 
L 226.305638 359.04 
L 225.309091 361.097397 
L 224.17792 363.432727 
L 222.050203 367.825455 
L 220.8 370.406531 
L 219.922487 372.218182 
L 217.794771 376.610909 
L 216.290909 379.71568 
L 215.66706 381.003636 
L 213.539342 385.396364 
L 211.781818 389.024822 
L 211.411627 389.789091 
L 209.283909 394.181818 
L 207.272727 398.333955 
L 207.156192 398.574545 
L 205.028475 402.967273 
L 202.900766 407.36 
L 202.763636 407.643107 
L 200.773046 411.752727 
L 198.64533 416.145455 
L 198.254545 416.952241 
L 196.517619 420.538182 
L 194.389896 424.930909 
L 193.745455 426.261379 
L 192.262181 429.323636 
L 190.134466 433.716364 
L 189.236364 435.570515 
L 188.006746 438.109091 
L 185.879031 442.501818 
L 184.727273 444.879656 
L 183.751317 446.894545 
L 181.623601 451.287273 
L 180.218182 454.188805 
L 179.495889 455.68 
L 177.36817 460.072727 
L 175.709091 463.497934 
L 175.240449 464.465455 
L 173.112725 468.858182 
L 171.2 472.80706 
L 170.985013 473.250909 
L 168.857303 477.643636 
L 166.729596 482.036364 
L 166.690909 482.116235 
L 164.601878 486.429091 
L 162.474169 490.821818 
L 162.181818 491.425385 
L 160.346449 495.214545 
L 158.218736 499.607273 
L 157.672727 500.734517 
L 156.091011 504 
z
" style="fill:#f4987a;"/>
   </g>
   <g id="matplotlib.axis_1">
    <g id="xtick_1">
     <g id="line2d_1">
      <defs>
       <path d="M 0 0 
L 0 3.5 
" id="m93e5528dbf" style="stroke:#000000;stroke-width:0.8;"/>
      </defs>
      <g>
       <use style="stroke:#000000;stroke-width:0.8;" x="116.64" xlink:href="#m93e5528dbf" y="504"/>
      </g>
     </g>
     <g id="text_1">
      <!-- −4 -->
      <defs>
       <path d="M 10.59375 35.5 
L 73.1875 35.5 
L 73.1875 27.203125 
L 10.59375 27.203125 
z
" id="DejaVuSans-2212"/>
       <path d="M 37.796875 64.3125 
L 12.890625 25.390625 
L 37.796875 25.390625 
z
M 35.203125 72.90625 
L 47.609375 72.90625 
L 47.609375 25.390625 
L 58.015625 25.390625 
L 58.015625 17.1875 
L 47.609375 17.1875 
L 47.609375 0 
L 37.796875 0 
L 37.796875 17.1875 
L 4.890625 17.1875 
L 4.890625 26.703125 
z
" id="DejaVuSans-34"/>
      </defs>
      <g transform="translate(109.268906 518.598438)scale(0.1 -0.1)">
       <use xlink:href="#DejaVuSans-2212"/>
       <use x="83.789062" xlink:href="#DejaVuSans-34"/>
      </g>
     </g>
    </g>
    <g id="xtick_2">
     <g id="line2d_2">
      <g>
       <use style="stroke:#000000;stroke-width:0.8;" x="205.92" xlink:href="#m93e5528dbf" y="504"/>
      </g>
     </g>
     <g id="text_2">
      <!-- −2 -->
      <defs>
       <path d="M 19.1875 8.296875 
L 53.609375 8.296875 
L 53.609375 0 
L 7.328125 0 
L 7.328125 8.296875 
Q 12.9375 14.109375 22.625 23.890625 
Q 32.328125 33.6875 34.8125 36.53125 
Q 39.546875 41.84375 41.421875 45.53125 
Q 43.3125 49.21875 43.3125 52.78125 
Q 43.3125 58.59375 39.234375 62.25 
Q 35.15625 65.921875 28.609375 65.921875 
Q 23.96875 65.921875 18.8125 64.3125 
Q 13.671875 62.703125 7.8125 59.421875 
L 7.8125 69.390625 
Q 13.765625 71.78125 18.9375 73 
Q 24.125 74.21875 28.421875 74.21875 
Q 39.75 74.21875 46.484375 68.546875 
Q 53.21875 62.890625 53.21875 53.421875 
Q 53.21875 48.921875 51.53125 44.890625 
Q 49.859375 40.875 45.40625 35.40625 
Q 44.1875 33.984375 37.640625 27.21875 
Q 31.109375 20.453125 19.1875 8.296875 
z
" id="DejaVuSans-32"/>
      </defs>
      <g transform="translate(198.548906 518.598438)scale(0.1 -0.1)">
       <use xlink:href="#DejaVuSans-2212"/>
       <use x="83.789062" xlink:href="#DejaVuSans-32"/>
      </g>
     </g>
    </g>
    <g id="xtick_3">
     <g id="line2d_3">
      <g>
       <use style="stroke:#000000;stroke-width:0.8;" x="295.2" xlink:href="#m93e5528dbf" y="504"/>
      </g>
     </g>
     <g id="text_3">
      <!-- 0 -->
      <defs>
       <path d="M 31.78125 66.40625 
Q 24.171875 66.40625 20.328125 58.90625 
Q 16.5 51.421875 16.5 36.375 
Q 16.5 21.390625 20.328125 13.890625 
Q 24.171875 6.390625 31.78125 6.390625 
Q 39.453125 6.390625 43.28125 13.890625 
Q 47.125 21.390625 47.125 36.375 
Q 47.125 51.421875 43.28125 58.90625 
Q 39.453125 66.40625 31.78125 66.40625 
z
M 31.78125 74.21875 
Q 44.046875 74.21875 50.515625 64.515625 
Q 56.984375 54.828125 56.984375 36.375 
Q 56.984375 17.96875 50.515625 8.265625 
Q 44.046875 -1.421875 31.78125 -1.421875 
Q 19.53125 -1.421875 13.0625 8.265625 
Q 6.59375 17.96875 6.59375 36.375 
Q 6.59375 54.828125 13.0625 64.515625 
Q 19.53125 74.21875 31.78125 74.21875 
z
" id="DejaVuSans-30"/>
      </defs>
      <g transform="translate(292.01875 518.598438)scale(0.1 -0.1)">
       <use xlink:href="#DejaVuSans-30"/>
      </g>
     </g>
    </g>
    <g id="xtick_4">
     <g id="line2d_4">
      <g>
       <use style="stroke:#000000;stroke-width:0.8;" x="384.48" xlink:href="#m93e5528dbf" y="504"/>
      </g>
     </g>
     <g id="text_4">
      <!-- 2 -->
      <g transform="translate(381.29875 518.598438)scale(0.1 -0.1)">
       <use xlink:href="#DejaVuSans-32"/>
      </g>
     </g>
    </g>
    <g id="xtick_5">
     <g id="line2d_5">
      <g>
       <use style="stroke:#000000;stroke-width:0.8;" x="473.76" xlink:href="#m93e5528dbf" y="504"/>
      </g>
     </g>
     <g id="text_5">
      <!-- 4 -->
      <g transform="translate(470.57875 518.598438)scale(0.1 -0.1)">
       <use xlink:href="#DejaVuSans-34"/>
      </g>
     </g>
    </g>
   </g>
   <g id="matplotlib.axis_2">
    <g id="ytick_1">
     <g id="line2d_6">
      <defs>
       <path d="M 0 0 
L -3.5 0 
" id="mc5b70162d4" style="stroke:#000000;stroke-width:0.8;"/>
      </defs>
      <g>
       <use style="stroke:#000000;stroke-width:0.8;" x="72" xlink:href="#mc5b70162d4" y="460.512"/>
      </g>
     </g>
     <g id="text_6">
      <!-- −4 -->
      <g transform="translate(50.257812 464.311219)scale(0.1 -0.1)">
       <use xlink:href="#DejaVuSans-2212"/>
       <use x="83.789062" xlink:href="#DejaVuSans-34"/>
      </g>
     </g>
    </g>
    <g id="ytick_2">
     <g id="line2d_7">
      <g>
       <use style="stroke:#000000;stroke-width:0.8;" x="72" xlink:href="#mc5b70162d4" y="373.536"/>
      </g>
     </g>
     <g id="text_7">
      <!-- −2 -->
      <g transform="translate(50.257812 377.335219)scale(0.1 -0.1)">
       <use xlink:href="#DejaVuSans-2212"/>
       <use x="83.789062" xlink:href="#DejaVuSans-32"/>
      </g>
     </g>
    </g>
    <g id="ytick_3">
     <g id="line2d_8">
      <g>
       <use style="stroke:#000000;stroke-width:0.8;" x="72" xlink:href="#mc5b70162d4" y="286.56"/>
      </g>
     </g>
     <g id="text_8">
      <!-- 0 -->
      <g transform="translate(58.6375 290.359219)scale(0.1 -0.1)">
       <use xlink:href="#DejaVuSans-30"/>
      </g>
     </g>
    </g>
    <g id="ytick_4">
     <g id="line2d_9">
      <g>
       <use style="stroke:#000000;stroke-width:0.8;" x="72" xlink:href="#mc5b70162d4" y="199.584"/>
      </g>
     </g>
     <g id="text_9">
      <!-- 2 -->
      <g transform="translate(58.6375 203.383219)scale(0.1 -0.1)">
       <use xlink:href="#DejaVuSans-32"/>
      </g>
     </g>
    </g>
    <g id="ytick_5">
     <g id="line2d_10">
      <g>
       <use style="stroke:#000000;stroke-width:0.8;" x="72" xlink:href="#mc5b70162d4" y="112.608"/>
      </g>
     </g>
     <g id="text_10">
      <!-- 4 -->
      <g transform="translate(58.6375 116.407219)scale(0.1 -0.1)">
       <use xlink:href="#DejaVuSans-34"/>
      </g>
     </g>
    </g>
   </g>
   <g id="patch_3">
    <path d="M 72 504 
L 72 69.12 
" style="fill:none;stroke:#000000;stroke-linecap:square;stroke-linejoin:miter;stroke-width:0.8;"/>
   </g>
   <g id="patch_4">
    <path d="M 518.4 504 
L 518.4 69.12 
" style="fill:none;stroke:#000000;stroke-linecap:square;stroke-linejoin:miter;stroke-width:0.8;"/>
   </g>
   <g id="patch_5">
    <path d="M 72 504 
L 518.4 504 
" style="fill:none;stroke:#000000;stroke-linecap:square;stroke-linejoin:miter;stroke-width:0.8;"/>
   </g>
   <g id="patch_6">
    <path d="M 72 69.12 
L 518.4 69.12 
" style="fill:none;stroke:#000000;stroke-linecap:square;stroke-linejoin:miter;stroke-width:0.8;"/>
   </g>
  </g>
 </g>
 <defs>
  <clipPath id="p5119a55cad">
   <rect height="434.88" width="446.4" x="72" y="69.12"/>
  </clipPath>
 </defs>
</svg>
