<?xml version="1.0" encoding="utf-8" standalone="no"?>
<!DOCTYPE svg PUBLIC "-//W3C//DTD SVG 1.1//EN"
  "http://www.w3.org/Graphics/SVG/1.1/DTD/svg11.dtd">
<!-- Created with matplotlib (http://matplotlib.org/) -->
<svg height="576pt" version="1.1" viewBox="0 0 576 576" width="576pt" xmlns="http://www.w3.org/2000/svg" xmlns:xlink="http://www.w3.org/1999/xlink">
 <defs>
  <style type="text/css">
*{stroke-linecap:butt;stroke-linejoin:round;}
  </style>
 </defs>
 <g id="figure_1">
  <g id="patch_1">
   <path d="M 0 576 
L 576 576 
L 576 0 
L 0 0 
z
" style="fill:#ffffff;"/>
  </g>
  <g id="axes_1">
   <g id="patch_2">
    <path d="M 72 504 
L 518.4 504 
L 518.4 69.12 
L 72 69.12 
z
" style="fill:#ffffff;"/>
   </g>
   <g id="PathCollection_1">
    <path clip-path="url(#pf21c89c5a8)" d="M 76.509091 504 
L 81.018182 504 
L 85.527273 504 
L 90.036364 504 
L 94.545455 504 
L 99.054545 504 
L 103.563636 504 
L 104.227938 504 
L 108.072727 499.755117 
L 108.176882 499.607273 
L 109.347917 495.214545 
L 112.581818 492.0641 
L 113.300573 490.821818 
L 117.090909 486.954008 
L 117.460707 486.429091 
L 118.583144 482.036364 
L 121.6 479.097362 
L 122.382947 477.643636 
L 126.109091 474.013651 
L 126.639779 473.250909 
L 127.907411 468.858182 
L 130.618182 466.217367 
L 131.477889 464.465455 
L 135.127273 460.910249 
L 135.692156 460.072727 
L 137.38961 455.68 
L 139.636364 453.491227 
L 140.589532 451.287273 
L 144.145455 447.823115 
L 144.749238 446.894545 
L 147.194612 442.501818 
L 148.654545 441.07956 
L 149.723991 438.109091 
L 153.163636 434.75821 
L 153.812077 433.716364 
L 157.672727 429.349658 
L 157.691059 429.323636 
L 158.890738 424.930909 
L 162.181818 421.72476 
L 162.882034 420.538182 
L 166.690909 416.548638 
L 166.971158 416.145455 
L 168.105407 411.752727 
L 171.2 408.737995 
L 171.950372 407.36 
L 175.709091 403.692545 
L 176.207551 402.967273 
L 177.26427 398.574545 
L 180.218182 395.696864 
L 180.978083 394.181818 
L 184.727273 390.529382 
L 185.230066 389.789091 
L 186.283686 385.396364 
L 189.236364 382.519884 
L 189.996564 381.003636 
L 193.745455 377.351492 
L 194.248377 376.610909 
L 195.303086 372.218182 
L 198.254545 369.342889 
L 199.010676 367.825455 
L 202.763636 363.973633 
L 203.107985 363.432727 
L 203.959816 359.04 
L 207.272727 355.812584 
L 207.851157 354.647273 
L 208.501476 350.254545 
L 211.781818 347.130162 
L 212.401837 345.861818 
L 215.317046 341.469091 
L 216.290909 340.622024 
L 218.945014 337.076364 
L 220.8 334.722036 
L 222.34677 332.683636 
L 225.309091 328.779759 
L 225.680038 328.290909 
L 229.013317 323.898182 
L 229.818182 322.837501 
L 232.346585 319.505455 
L 234.327273 316.895201 
L 235.679839 315.112727 
L 238.836364 311.296235 
L 239.317998 310.72 
L 243.345455 306.677378 
L 243.694246 306.327273 
L 247.854545 302.151293 
L 248.070603 301.934545 
L 252.363636 297.691111 
L 252.515554 297.541818 
L 256.872727 293.259925 
L 256.98551 293.149091 
L 261.381818 288.828755 
L 261.455483 288.756364 
L 265.890909 284.397585 
L 265.925455 284.363636 
L 270.395432 279.970909 
L 270.4 279.96642 
L 274.865398 275.578182 
L 274.909091 275.535244 
L 279.335363 271.185455 
L 279.418182 271.104067 
L 283.805337 266.792727 
L 283.927273 266.672899 
L 288.275304 262.4 
L 288.436364 262.241723 
L 292.745275 258.007273 
L 292.945455 257.810553 
L 297.454545 257.214859 
L 298.259281 258.007273 
L 301.963636 261.65491 
L 302.720312 262.4 
L 306.472727 266.094958 
L 307.181347 266.792727 
L 310.981818 270.535009 
L 311.642378 271.185455 
L 315.490909 274.975062 
L 316.103408 275.578182 
L 320 279.415112 
L 320.564439 279.970909 
L 324.509091 283.855162 
L 325.025472 284.363636 
L 329.018182 288.295214 
L 329.486503 288.756364 
L 333.527273 291.794579 
L 335.710748 293.149091 
L 338.036364 294.444896 
L 342.545455 294.233263 
L 345.123665 293.149091 
L 347.054545 291.921689 
L 349.783701 288.756364 
L 351.563636 286.691964 
L 353.571129 284.363636 
L 356.072727 281.462234 
L 357.358552 279.970909 
L 360.581818 276.232505 
L 361.145979 275.578182 
L 364.87444 271.185455 
L 365.090909 270.873101 
L 367.918703 266.792727 
L 369.6 264.366702 
L 370.962973 262.4 
L 374.007243 258.007273 
L 374.109091 257.860311 
L 377.051504 253.614545 
L 378.618182 251.353909 
L 380.095774 249.221818 
L 383.127273 244.847514 
L 383.14004 244.829091 
L 386.18431 240.436364 
L 387.636364 238.341128 
L 389.22858 236.043636 
L 392.145455 231.834727 
L 392.272845 231.650909 
L 395.317115 227.258182 
L 396.654545 225.32834 
L 398.361387 222.865455 
L 401.163636 218.821938 
L 401.405648 218.472727 
L 404.44992 214.08 
L 405.672727 212.31555 
L 407.494189 209.687273 
L 410.181818 205.809152 
L 410.538453 205.294545 
L 413.582726 200.901818 
L 414.690909 199.302768 
L 416.626993 196.509091 
L 419.2 192.796369 
L 419.67126 192.116364 
L 422.715524 187.723636 
L 423.709091 186.289965 
L 425.759783 183.330909 
L 428.218182 179.783561 
L 428.804051 178.938182 
L 431.848316 174.545455 
L 432.727273 173.202854 
L 434.801607 170.152727 
L 437.236364 166.200072 
L 437.514761 165.76 
L 440.171873 161.367273 
L 441.745455 158.765833 
L 442.828987 156.974545 
L 445.486099 152.581818 
L 446.254545 151.311429 
L 448.143213 148.189091 
L 450.763636 143.857009 
L 450.80032 143.796364 
L 453.457433 139.403636 
L 455.272727 136.402611 
L 456.114556 135.010909 
L 458.771676 130.618182 
L 459.781818 128.948218 
L 461.428777 126.225455 
L 464.085896 121.832727 
L 464.290909 121.493799 
L 466.743 117.44 
L 468.8 114.0394 
L 469.400129 113.047273 
L 472.05724 108.654545 
L 473.309091 106.584994 
L 474.714351 104.261818 
L 477.37146 99.869091 
L 477.818182 99.130572 
L 480.02857 95.476364 
L 482.327273 91.676143 
L 482.685674 91.083636 
L 485.342809 86.690909 
L 486.836364 84.221753 
L 487.999901 82.298182 
L 490.657013 77.905455 
L 491.345455 76.767321 
L 493.314123 73.512727 
L 495.854545 69.312949 
L 495.971259 69.12 
L 495.854545 69.12 
L 491.345455 69.12 
L 486.836364 69.12 
L 482.327273 69.12 
L 477.818182 69.12 
L 473.309091 69.12 
L 468.8 69.12 
L 464.290909 69.12 
L 459.781818 69.12 
L 455.272727 69.12 
L 450.763636 69.12 
L 446.254545 69.12 
L 441.745455 69.12 
L 437.236364 69.12 
L 432.727273 69.12 
L 428.218182 69.12 
L 423.709091 69.12 
L 419.2 69.12 
L 414.690909 69.12 
L 410.181818 69.12 
L 405.672727 69.12 
L 401.163636 69.12 
L 396.654545 69.12 
L 392.145455 69.12 
L 387.636364 69.12 
L 383.127273 69.12 
L 378.618182 69.12 
L 374.109091 69.12 
L 369.6 69.12 
L 365.090909 69.12 
L 360.581818 69.12 
L 356.072727 69.12 
L 351.563636 69.12 
L 347.054545 69.12 
L 342.545455 69.12 
L 338.036364 69.12 
L 333.527273 69.12 
L 329.018182 69.12 
L 324.509091 69.12 
L 320 69.12 
L 315.490909 69.12 
L 310.981818 69.12 
L 306.472727 69.12 
L 301.963636 69.12 
L 297.454545 69.12 
L 292.945455 69.12 
L 288.436364 69.12 
L 283.927273 69.12 
L 279.418182 69.12 
L 274.909091 69.12 
L 270.4 69.12 
L 265.890909 69.12 
L 261.381818 69.12 
L 256.872727 69.12 
L 252.363636 69.12 
L 247.854545 69.12 
L 243.345455 69.12 
L 238.836364 69.12 
L 234.327273 69.12 
L 229.818182 69.12 
L 225.309091 69.12 
L 220.8 69.12 
L 216.290909 69.12 
L 211.781818 69.12 
L 207.272727 69.12 
L 202.763636 69.12 
L 198.254545 69.12 
L 193.745455 69.12 
L 189.236364 69.12 
L 184.727273 69.12 
L 180.218182 69.12 
L 175.709091 69.12 
L 171.2 69.12 
L 166.690909 69.12 
L 162.181818 69.12 
L 157.672727 69.12 
L 153.163636 69.12 
L 148.654545 69.12 
L 144.145455 69.12 
L 139.636364 69.12 
L 135.127273 69.12 
L 130.618182 69.12 
L 126.109091 69.12 
L 121.6 69.12 
L 117.090909 69.12 
L 112.581818 69.12 
L 108.072727 69.12 
L 103.563636 69.12 
L 99.054545 69.12 
L 94.545455 69.12 
L 90.036364 69.12 
L 85.527273 69.12 
L 81.018182 69.12 
L 76.509091 69.12 
L 72 69.12 
L 72 73.512727 
L 72 77.905455 
L 72 82.298182 
L 72 86.690909 
L 72 91.083636 
L 72 95.476364 
L 72 99.869091 
L 72 104.261818 
L 72 108.654545 
L 72 113.047273 
L 72 117.44 
L 72 121.832727 
L 72 126.225455 
L 72 130.618182 
L 72 135.010909 
L 72 139.403636 
L 72 143.796364 
L 72 148.189091 
L 72 152.581818 
L 72 156.974545 
L 72 161.367273 
L 72 165.76 
L 72 170.152727 
L 72 174.545455 
L 72 178.938182 
L 72 183.330909 
L 72 187.723636 
L 72 192.116364 
L 72 196.509091 
L 72 200.901818 
L 72 205.294545 
L 72 209.687273 
L 72 214.08 
L 72 218.472727 
L 72 222.865455 
L 72 227.258182 
L 72 231.650909 
L 72 236.043636 
L 72 240.436364 
L 72 244.829091 
L 72 249.221818 
L 72 253.614545 
L 72 258.007273 
L 72 262.4 
L 72 266.792727 
L 72 271.185455 
L 72 275.578182 
L 72 279.970909 
L 72 284.363636 
L 72 288.756364 
L 72 293.149091 
L 72 297.541818 
L 72 301.934545 
L 72 306.327273 
L 72 310.72 
L 72 315.112727 
L 72 319.505455 
L 72 323.898182 
L 72 328.290909 
L 72 332.683636 
L 72 337.076364 
L 72 341.469091 
L 72 345.861818 
L 72 350.254545 
L 72 354.647273 
L 72 359.04 
L 72 363.432727 
L 72 367.825455 
L 72 372.218182 
L 72 376.610909 
L 72 381.003636 
L 72 385.396364 
L 72 389.789091 
L 72 394.181818 
L 72 398.574545 
L 72 402.967273 
L 72 407.36 
L 72 411.752727 
L 72 416.145455 
L 72 420.538182 
L 72 424.930909 
L 72 429.323636 
L 72 433.716364 
L 72 438.109091 
L 72 442.501818 
L 72 446.894545 
L 72 451.287273 
L 72 455.68 
L 72 460.072727 
L 72 464.465455 
L 72 468.858182 
L 72 473.250909 
L 72 477.643636 
L 72 482.036364 
L 72 486.429091 
L 72 490.821818 
L 72 495.214545 
L 72 499.607273 
L 72 504 
z
" style="fill:#8db0fe;"/>
   </g>
   <g id="PathCollection_2">
    <path clip-path="url(#pf21c89c5a8)" d="M 108.072727 504 
L 112.581818 504 
L 117.090909 504 
L 121.6 504 
L 126.109091 504 
L 130.618182 504 
L 135.127273 504 
L 139.636364 504 
L 144.145455 504 
L 148.654545 504 
L 153.163636 504 
L 157.672727 504 
L 162.181818 504 
L 166.690909 504 
L 171.2 504 
L 175.709091 504 
L 180.218182 504 
L 184.727273 504 
L 189.236364 504 
L 193.745455 504 
L 198.254545 504 
L 202.763636 504 
L 207.272727 504 
L 211.781818 504 
L 216.290909 504 
L 220.8 504 
L 225.309091 504 
L 229.818182 504 
L 234.327273 504 
L 238.836364 504 
L 243.345455 504 
L 247.854545 504 
L 252.363636 504 
L 256.872727 504 
L 261.381818 504 
L 265.890909 504 
L 270.4 504 
L 274.909091 504 
L 279.418182 504 
L 283.927273 504 
L 288.436364 504 
L 292.945455 504 
L 297.454545 504 
L 301.963636 504 
L 306.472727 504 
L 310.981818 504 
L 315.490909 504 
L 320 504 
L 324.509091 504 
L 329.018182 504 
L 333.527273 504 
L 338.036364 504 
L 342.545455 504 
L 347.054545 504 
L 351.563636 504 
L 356.072727 504 
L 360.581818 504 
L 365.090909 504 
L 369.6 504 
L 374.109091 504 
L 378.618182 504 
L 383.127273 504 
L 387.636364 504 
L 392.145455 504 
L 396.654545 504 
L 401.163636 504 
L 405.672727 504 
L 410.181818 504 
L 414.690909 504 
L 419.2 504 
L 423.709091 504 
L 428.218182 504 
L 432.727273 504 
L 437.236364 504 
L 441.745455 504 
L 446.254545 504 
L 450.763636 504 
L 455.272727 504 
L 459.781818 504 
L 464.290909 504 
L 468.8 504 
L 473.309091 504 
L 477.818182 504 
L 482.327273 504 
L 486.836364 504 
L 491.345455 504 
L 495.854545 504 
L 500.363636 504 
L 504.872727 504 
L 509.381818 504 
L 513.890909 504 
L 518.4 504 
L 518.4 499.607273 
L 518.4 495.214545 
L 518.4 490.821818 
L 518.4 486.429091 
L 518.4 482.036364 
L 518.4 477.643636 
L 518.4 473.250909 
L 518.4 468.858182 
L 518.4 464.465455 
L 518.4 460.072727 
L 518.4 455.68 
L 518.4 451.287273 
L 518.4 446.894545 
L 518.4 442.501818 
L 518.4 438.109091 
L 518.4 433.716364 
L 518.4 429.323636 
L 518.4 424.930909 
L 518.4 420.538182 
L 518.4 416.145455 
L 518.4 411.752727 
L 518.4 407.36 
L 518.4 402.967273 
L 518.4 398.574545 
L 518.4 394.181818 
L 518.4 389.789091 
L 518.4 385.396364 
L 518.4 381.003636 
L 518.4 376.610909 
L 518.4 372.218182 
L 518.4 367.825455 
L 518.4 363.432727 
L 518.4 359.04 
L 518.4 354.647273 
L 518.4 350.254545 
L 518.4 345.861818 
L 518.4 341.469091 
L 518.4 337.076364 
L 518.4 332.683636 
L 518.4 328.290909 
L 518.4 323.898182 
L 518.4 319.505455 
L 518.4 315.112727 
L 518.4 310.72 
L 518.4 306.327273 
L 518.4 301.934545 
L 518.4 297.541818 
L 518.4 293.149091 
L 518.4 288.756364 
L 518.4 284.363636 
L 518.4 279.970909 
L 518.4 275.578182 
L 518.4 271.185455 
L 518.4 266.792727 
L 518.4 262.4 
L 518.4 258.007273 
L 518.4 253.614545 
L 518.4 249.221818 
L 518.4 244.829091 
L 518.4 240.436364 
L 518.4 236.043636 
L 518.4 231.650909 
L 518.4 227.258182 
L 518.4 222.865455 
L 518.4 218.472727 
L 518.4 214.08 
L 518.4 209.687273 
L 518.4 205.294545 
L 518.4 200.901818 
L 518.4 196.509091 
L 518.4 192.116364 
L 518.4 187.723636 
L 518.4 183.330909 
L 518.4 178.938182 
L 518.4 174.545455 
L 518.4 170.152727 
L 518.4 165.76 
L 518.4 161.367273 
L 518.4 156.974545 
L 518.4 152.581818 
L 518.4 148.189091 
L 518.4 143.796364 
L 518.4 139.403636 
L 518.4 135.010909 
L 518.4 130.618182 
L 518.4 126.225455 
L 518.4 121.832727 
L 518.4 117.44 
L 518.4 113.047273 
L 518.4 108.654545 
L 518.4 104.261818 
L 518.4 99.869091 
L 518.4 95.476364 
L 518.4 91.083636 
L 518.4 86.690909 
L 518.4 82.298182 
L 518.4 77.905455 
L 518.4 73.512727 
L 518.4 69.12 
L 513.890909 69.12 
L 509.381818 69.12 
L 504.872727 69.12 
L 500.363636 69.12 
L 495.971259 69.12 
L 495.854545 69.312949 
L 493.314123 73.512727 
L 491.345455 76.767321 
L 490.657013 77.905455 
L 487.999901 82.298182 
L 486.836364 84.221753 
L 485.342809 86.690909 
L 482.685674 91.083636 
L 482.327273 91.676143 
L 480.02857 95.476364 
L 477.818182 99.130572 
L 477.37146 99.869091 
L 474.714351 104.261818 
L 473.309091 106.584994 
L 472.05724 108.654545 
L 469.400129 113.047273 
L 468.8 114.0394 
L 466.743 117.44 
L 464.290909 121.493799 
L 464.085896 121.832727 
L 461.428777 126.225455 
L 459.781818 128.948218 
L 458.771676 130.618182 
L 456.114556 135.010909 
L 455.272727 136.402611 
L 453.457433 139.403636 
L 450.80032 143.796364 
L 450.763636 143.857009 
L 448.143213 148.189091 
L 446.254545 151.311429 
L 445.486099 152.581818 
L 442.828987 156.974545 
L 441.745455 158.765833 
L 440.171873 161.367273 
L 437.514761 165.76 
L 437.236364 166.200072 
L 434.801607 170.152727 
L 432.727273 173.202854 
L 431.848316 174.545455 
L 428.804051 178.938182 
L 428.218182 179.783561 
L 425.759783 183.330909 
L 423.709091 186.289965 
L 422.715524 187.723636 
L 419.67126 192.116364 
L 419.2 192.796369 
L 416.626993 196.509091 
L 414.690909 199.302768 
L 413.582726 200.901818 
L 410.538453 205.294545 
L 410.181818 205.809152 
L 407.494189 209.687273 
L 405.672727 212.31555 
L 404.44992 214.08 
L 401.405648 218.472727 
L 401.163636 218.821938 
L 398.361387 222.865455 
L 396.654545 225.32834 
L 395.317115 227.258182 
L 392.272845 231.650909 
L 392.145455 231.834727 
L 389.22858 236.043636 
L 387.636364 238.341128 
L 386.18431 240.436364 
L 383.14004 244.829091 
L 383.127273 244.847514 
L 380.095774 249.221818 
L 378.618182 251.353909 
L 377.051504 253.614545 
L 374.109091 257.860311 
L 374.007243 258.007273 
L 370.962973 262.4 
L 369.6 264.366702 
L 367.918703 266.792727 
L 365.090909 270.873101 
L 364.87444 271.185455 
L 361.145979 275.578182 
L 360.581818 276.232505 
L 357.358552 279.970909 
L 356.072727 281.462234 
L 353.571129 284.363636 
L 351.563636 286.691964 
L 349.783701 288.756364 
L 347.054545 291.921689 
L 345.123665 293.149091 
L 342.545455 294.233263 
L 338.036364 294.444896 
L 335.710748 293.149091 
L 333.527273 291.794579 
L 329.486503 288.756364 
L 329.018182 288.295214 
L 325.025472 284.363636 
L 324.509091 283.855162 
L 320.564439 279.970909 
L 320 279.415112 
L 316.103408 275.578182 
L 315.490909 274.975062 
L 311.642378 271.185455 
L 310.981818 270.535009 
L 307.181347 266.792727 
L 306.472727 266.094958 
L 302.720312 262.4 
L 301.963636 261.65491 
L 298.259281 258.007273 
L 297.454545 257.214859 
L 292.945455 257.810553 
L 292.745275 258.007273 
L 288.436364 262.241723 
L 288.275304 262.4 
L 283.927273 266.672899 
L 283.805337 266.792727 
L 279.418182 271.104067 
L 279.335363 271.185455 
L 274.909091 275.535244 
L 274.865398 275.578182 
L 270.4 279.96642 
L 270.395432 279.970909 
L 265.925455 284.363636 
L 265.890909 284.397585 
L 261.455483 288.756364 
L 261.381818 288.828755 
L 256.98551 293.149091 
L 256.872727 293.259925 
L 252.515554 297.541818 
L 252.363636 297.691111 
L 248.070603 301.934545 
L 247.854545 302.151293 
L 243.694246 306.327273 
L 243.345455 306.677378 
L 239.317998 310.72 
L 238.836364 311.296235 
L 235.679839 315.112727 
L 234.327273 316.895201 
L 232.346585 319.505455 
L 229.818182 322.837501 
L 229.013317 323.898182 
L 225.680038 328.290909 
L 225.309091 328.779759 
L 222.34677 332.683636 
L 220.8 334.722036 
L 218.945014 337.076364 
L 216.290909 340.622024 
L 215.317046 341.469091 
L 212.401837 345.861818 
L 211.781818 347.130162 
L 208.501476 350.254545 
L 207.851157 354.647273 
L 207.272727 355.812584 
L 203.959816 359.04 
L 203.107985 363.432727 
L 202.763636 363.973633 
L 199.010676 367.825455 
L 198.254545 369.342889 
L 195.303086 372.218182 
L 194.248377 376.610909 
L 193.745455 377.351492 
L 189.996564 381.003636 
L 189.236364 382.519884 
L 186.283686 385.396364 
L 185.230066 389.789091 
L 184.727273 390.529382 
L 180.978083 394.181818 
L 180.218182 395.696864 
L 177.26427 398.574545 
L 176.207551 402.967273 
L 175.709091 403.692545 
L 171.950372 407.36 
L 171.2 408.737995 
L 168.105407 411.752727 
L 166.971158 416.145455 
L 166.690909 416.548638 
L 162.882034 420.538182 
L 162.181818 421.72476 
L 158.890738 424.930909 
L 157.691059 429.323636 
L 157.672727 429.349658 
L 153.812077 433.716364 
L 153.163636 434.75821 
L 149.723991 438.109091 
L 148.654545 441.07956 
L 147.194612 442.501818 
L 144.749238 446.894545 
L 144.145455 447.823115 
L 140.589532 451.287273 
L 139.636364 453.491227 
L 137.38961 455.68 
L 135.692156 460.072727 
L 135.127273 460.910249 
L 131.477889 464.465455 
L 130.618182 466.217367 
L 127.907411 468.858182 
L 126.639779 473.250909 
L 126.109091 474.013651 
L 122.382947 477.643636 
L 121.6 479.097362 
L 118.583144 482.036364 
L 117.460707 486.429091 
L 117.090909 486.954008 
L 113.300573 490.821818 
L 112.581818 492.0641 
L 109.347917 495.214545 
L 108.176882 499.607273 
L 108.072727 499.755117 
L 104.227938 504 
z
" style="fill:#f4987a;"/>
   </g>
   <g id="matplotlib.axis_1">
    <g id="xtick_1">
     <g id="line2d_1">
      <defs>
       <path d="M 0 0 
L 0 3.5 
" id="mb390b94e7b" style="stroke:#000000;stroke-width:0.8;"/>
      </defs>
      <g>
       <use style="stroke:#000000;stroke-width:0.8;" x="116.64" xlink:href="#mb390b94e7b" y="504"/>
      </g>
     </g>
     <g id="text_1">
      <!-- −4 -->
      <defs>
       <path d="M 10.59375 35.5 
L 73.1875 35.5 
L 73.1875 27.203125 
L 10.59375 27.203125 
z
" id="DejaVuSans-2212"/>
       <path d="M 37.796875 64.3125 
L 12.890625 25.390625 
L 37.796875 25.390625 
z
M 35.203125 72.90625 
L 47.609375 72.90625 
L 47.609375 25.390625 
L 58.015625 25.390625 
L 58.015625 17.1875 
L 47.609375 17.1875 
L 47.609375 0 
L 37.796875 0 
L 37.796875 17.1875 
L 4.890625 17.1875 
L 4.890625 26.703125 
z
" id="DejaVuSans-34"/>
      </defs>
      <g transform="translate(109.268906 518.598438)scale(0.1 -0.1)">
       <use xlink:href="#DejaVuSans-2212"/>
       <use x="83.789062" xlink:href="#DejaVuSans-34"/>
      </g>
     </g>
    </g>
    <g id="xtick_2">
     <g id="line2d_2">
      <g>
       <use style="stroke:#000000;stroke-width:0.8;" x="205.92" xlink:href="#mb390b94e7b" y="504"/>
      </g>
     </g>
     <g id="text_2">
      <!-- −2 -->
      <defs>
       <path d="M 19.1875 8.296875 
L 53.609375 8.296875 
L 53.609375 0 
L 7.328125 0 
L 7.328125 8.296875 
Q 12.9375 14.109375 22.625 23.890625 
Q 32.328125 33.6875 34.8125 36.53125 
Q 39.546875 41.84375 41.421875 45.53125 
Q 43.3125 49.21875 43.3125 52.78125 
Q 43.3125 58.59375 39.234375 62.25 
Q 35.15625 65.921875 28.609375 65.921875 
Q 23.96875 65.921875 18.8125 64.3125 
Q 13.671875 62.703125 7.8125 59.421875 
L 7.8125 69.390625 
Q 13.765625 71.78125 18.9375 73 
Q 24.125 74.21875 28.421875 74.21875 
Q 39.75 74.21875 46.484375 68.546875 
Q 53.21875 62.890625 53.21875 53.421875 
Q 53.21875 48.921875 51.53125 44.890625 
Q 49.859375 40.875 45.40625 35.40625 
Q 44.1875 33.984375 37.640625 27.21875 
Q 31.109375 20.453125 19.1875 8.296875 
z
" id="DejaVuSans-32"/>
      </defs>
      <g transform="translate(198.548906 518.598438)scale(0.1 -0.1)">
       <use xlink:href="#DejaVuSans-2212"/>
       <use x="83.789062" xlink:href="#DejaVuSans-32"/>
      </g>
     </g>
    </g>
    <g id="xtick_3">
     <g id="line2d_3">
      <g>
       <use style="stroke:#000000;stroke-width:0.8;" x="295.2" xlink:href="#mb390b94e7b" y="504"/>
      </g>
     </g>
     <g id="text_3">
      <!-- 0 -->
      <defs>
       <path d="M 31.78125 66.40625 
Q 24.171875 66.40625 20.328125 58.90625 
Q 16.5 51.421875 16.5 36.375 
Q 16.5 21.390625 20.328125 13.890625 
Q 24.171875 6.390625 31.78125 6.390625 
Q 39.453125 6.390625 43.28125 13.890625 
Q 47.125 21.390625 47.125 36.375 
Q 47.125 51.421875 43.28125 58.90625 
Q 39.453125 66.40625 31.78125 66.40625 
z
M 31.78125 74.21875 
Q 44.046875 74.21875 50.515625 64.515625 
Q 56.984375 54.828125 56.984375 36.375 
Q 56.984375 17.96875 50.515625 8.265625 
Q 44.046875 -1.421875 31.78125 -1.421875 
Q 19.53125 -1.421875 13.0625 8.265625 
Q 6.59375 17.96875 6.59375 36.375 
Q 6.59375 54.828125 13.0625 64.515625 
Q 19.53125 74.21875 31.78125 74.21875 
z
" id="DejaVuSans-30"/>
      </defs>
      <g transform="translate(292.01875 518.598438)scale(0.1 -0.1)">
       <use xlink:href="#DejaVuSans-30"/>
      </g>
     </g>
    </g>
    <g id="xtick_4">
     <g id="line2d_4">
      <g>
       <use style="stroke:#000000;stroke-width:0.8;" x="384.48" xlink:href="#mb390b94e7b" y="504"/>
      </g>
     </g>
     <g id="text_4">
      <!-- 2 -->
      <g transform="translate(381.29875 518.598438)scale(0.1 -0.1)">
       <use xlink:href="#DejaVuSans-32"/>
      </g>
     </g>
    </g>
    <g id="xtick_5">
     <g id="line2d_5">
      <g>
       <use style="stroke:#000000;stroke-width:0.8;" x="473.76" xlink:href="#mb390b94e7b" y="504"/>
      </g>
     </g>
     <g id="text_5">
      <!-- 4 -->
      <g transform="translate(470.57875 518.598438)scale(0.1 -0.1)">
       <use xlink:href="#DejaVuSans-34"/>
      </g>
     </g>
    </g>
   </g>
   <g id="matplotlib.axis_2">
    <g id="ytick_1">
     <g id="line2d_6">
      <defs>
       <path d="M 0 0 
L -3.5 0 
" id="mc54a0f58fd" style="stroke:#000000;stroke-width:0.8;"/>
      </defs>
      <g>
       <use style="stroke:#000000;stroke-width:0.8;" x="72" xlink:href="#mc54a0f58fd" y="460.512"/>
      </g>
     </g>
     <g id="text_6">
      <!-- −4 -->
      <g transform="translate(50.257812 464.311219)scale(0.1 -0.1)">
       <use xlink:href="#DejaVuSans-2212"/>
       <use x="83.789062" xlink:href="#DejaVuSans-34"/>
      </g>
     </g>
    </g>
    <g id="ytick_2">
     <g id="line2d_7">
      <g>
       <use style="stroke:#000000;stroke-width:0.8;" x="72" xlink:href="#mc54a0f58fd" y="373.536"/>
      </g>
     </g>
     <g id="text_7">
      <!-- −2 -->
      <g transform="translate(50.257812 377.335219)scale(0.1 -0.1)">
       <use xlink:href="#DejaVuSans-2212"/>
       <use x="83.789062" xlink:href="#DejaVuSans-32"/>
      </g>
     </g>
    </g>
    <g id="ytick_3">
     <g id="line2d_8">
      <g>
       <use style="stroke:#000000;stroke-width:0.8;" x="72" xlink:href="#mc54a0f58fd" y="286.56"/>
      </g>
     </g>
     <g id="text_8">
      <!-- 0 -->
      <g transform="translate(58.6375 290.359219)scale(0.1 -0.1)">
       <use xlink:href="#DejaVuSans-30"/>
      </g>
     </g>
    </g>
    <g id="ytick_4">
     <g id="line2d_9">
      <g>
       <use style="stroke:#000000;stroke-width:0.8;" x="72" xlink:href="#mc54a0f58fd" y="199.584"/>
      </g>
     </g>
     <g id="text_9">
      <!-- 2 -->
      <g transform="translate(58.6375 203.383219)scale(0.1 -0.1)">
       <use xlink:href="#DejaVuSans-32"/>
      </g>
     </g>
    </g>
    <g id="ytick_5">
     <g id="line2d_10">
      <g>
       <use style="stroke:#000000;stroke-width:0.8;" x="72" xlink:href="#mc54a0f58fd" y="112.608"/>
      </g>
     </g>
     <g id="text_10">
      <!-- 4 -->
      <g transform="translate(58.6375 116.407219)scale(0.1 -0.1)">
       <use xlink:href="#DejaVuSans-34"/>
      </g>
     </g>
    </g>
   </g>
   <g id="patch_3">
    <path d="M 72 504 
L 72 69.12 
" style="fill:none;stroke:#000000;stroke-linecap:square;stroke-linejoin:miter;stroke-width:0.8;"/>
   </g>
   <g id="patch_4">
    <path d="M 518.4 504 
L 518.4 69.12 
" style="fill:none;stroke:#000000;stroke-linecap:square;stroke-linejoin:miter;stroke-width:0.8;"/>
   </g>
   <g id="patch_5">
    <path d="M 72 504 
L 518.4 504 
" style="fill:none;stroke:#000000;stroke-linecap:square;stroke-linejoin:miter;stroke-width:0.8;"/>
   </g>
   <g id="patch_6">
    <path d="M 72 69.12 
L 518.4 69.12 
" style="fill:none;stroke:#000000;stroke-linecap:square;stroke-linejoin:miter;stroke-width:0.8;"/>
   </g>
  </g>
 </g>
 <defs>
  <clipPath id="pf21c89c5a8">
   <rect height="434.88" width="446.4" x="72" y="69.12"/>
  </clipPath>
 </defs>
</svg>
