<?xml version="1.0" encoding="utf-8" standalone="no"?>
<!DOCTYPE svg PUBLIC "-//W3C//DTD SVG 1.1//EN"
  "http://www.w3.org/Graphics/SVG/1.1/DTD/svg11.dtd">
<!-- Created with matplotlib (http://matplotlib.org/) -->
<svg height="576pt" version="1.1" viewBox="0 0 576 576" width="576pt" xmlns="http://www.w3.org/2000/svg" xmlns:xlink="http://www.w3.org/1999/xlink">
 <defs>
  <style type="text/css">
*{stroke-linecap:butt;stroke-linejoin:round;}
  </style>
 </defs>
 <g id="figure_1">
  <g id="patch_1">
   <path d="M 0 576 
L 576 576 
L 576 0 
L 0 0 
z
" style="fill:#ffffff;"/>
  </g>
  <g id="axes_1">
   <g id="patch_2">
    <path d="M 72 504 
L 518.4 504 
L 518.4 69.12 
L 72 69.12 
z
" style="fill:#ffffff;"/>
   </g>
   <g id="PathCollection_1">
    <path clip-path="url(#p1bd172af04)" d="M 76.509091 504 
L 81.018182 504 
L 85.527273 504 
L 90.036364 504 
L 94.545455 504 
L 99.054545 504 
L 103.563636 504 
L 108.072727 504 
L 112.581818 504 
L 117.090909 504 
L 121.6 504 
L 126.109091 504 
L 130.618182 504 
L 135.127273 504 
L 139.636364 504 
L 140.752213 504 
L 143.214317 499.607273 
L 144.145455 497.827578 
L 145.581947 495.214545 
L 148.040341 490.821818 
L 148.654545 489.663842 
L 150.459756 486.429091 
L 152.854678 482.036364 
L 153.163636 481.463752 
L 155.330205 477.643636 
L 157.657954 473.250909 
L 157.672727 473.22397 
L 160.186917 468.858182 
L 162.181818 465.054039 
L 162.506772 464.465455 
L 165.030652 460.072727 
L 166.690909 456.96229 
L 167.41079 455.68 
L 169.862121 451.287273 
L 171.2 448.822484 
L 172.299613 446.894545 
L 174.681976 442.501818 
L 175.709091 440.639416 
L 177.174086 438.109091 
L 179.531983 433.716364 
L 180.218182 432.479574 
L 182.035018 429.323636 
L 184.406343 424.930909 
L 184.727273 424.352471 
L 186.883143 420.538182 
L 189.236364 416.228169 
L 189.283802 416.145455 
L 191.719146 411.752727 
L 193.745455 408.098947 
L 194.175534 407.36 
L 196.592226 402.967273 
L 198.254545 399.971125 
L 199.053169 398.574545 
L 201.466578 394.181818 
L 202.763636 391.844017 
L 203.917483 389.789091 
L 206.340931 385.396364 
L 207.272727 383.716907 
L 208.778104 381.003636 
L 211.215278 376.610909 
L 211.781818 375.589786 
L 213.652456 372.218182 
L 216.089633 367.825455 
L 216.290909 367.462678 
L 218.52681 363.432727 
L 220.8 359.33556 
L 220.964877 359.04 
L 223.401156 354.647273 
L 225.309091 351.208443 
L 225.838334 350.254545 
L 228.275509 345.861818 
L 229.818182 343.081336 
L 230.712691 341.469091 
L 233.149859 337.076364 
L 234.327273 334.95422 
L 235.587043 332.683636 
L 238.024216 328.290909 
L 238.836364 326.827107 
L 240.461392 323.898182 
L 242.898565 319.505455 
L 243.345455 318.756129 
L 245.514409 315.112727 
L 247.854545 311.20755 
L 248.146705 310.72 
L 250.779005 306.327273 
L 252.363636 303.682872 
L 253.411303 301.934545 
L 256.043597 297.541818 
L 256.872727 296.158182 
L 258.675895 293.149091 
L 261.308194 288.756364 
L 261.381818 288.633501 
L 263.940491 284.363636 
L 265.890909 281.108818 
L 266.572789 279.970909 
L 269.205088 275.578182 
L 270.4 273.774193 
L 272.458826 271.185455 
L 274.909091 268.872035 
L 277.198937 266.792727 
L 279.418182 264.817044 
L 283.927273 262.56674 
L 284.261382 262.4 
L 288.436364 260.316434 
L 292.945455 258.066128 
L 293.217713 258.007273 
L 297.454545 256.716587 
L 298.870018 258.007273 
L 301.963636 260.905274 
L 303.559258 262.4 
L 306.472727 265.129241 
L 308.2485 266.792727 
L 310.981818 269.353211 
L 312.93774 271.185455 
L 315.490909 273.57718 
L 317.62698 275.578182 
L 320 277.80115 
L 322.316222 279.970909 
L 324.509091 282.025115 
L 327.005463 284.363636 
L 329.018182 286.249085 
L 331.694705 288.756364 
L 333.527273 290.473052 
L 336.383942 293.149091 
L 338.036364 294.697025 
L 342.545455 294.361328 
L 343.719395 293.149091 
L 347.054545 289.705143 
L 347.973353 288.756364 
L 351.563636 285.048969 
L 352.227319 284.363636 
L 356.072727 280.392789 
L 356.48128 279.970909 
L 360.581818 275.736608 
L 360.73524 275.578182 
L 364.989197 271.185455 
L 365.090909 271.080425 
L 369.243159 266.792727 
L 369.6 266.424245 
L 373.497123 262.4 
L 374.109091 261.768072 
L 377.751076 258.007273 
L 378.618182 257.111878 
L 382.005026 253.614545 
L 383.127273 252.455693 
L 386.258998 249.221818 
L 387.636364 247.799529 
L 390.512975 244.829091 
L 392.145455 243.14335 
L 394.766918 240.436364 
L 396.654545 238.487164 
L 399.020884 236.043636 
L 401.163636 233.830987 
L 403.274842 231.650909 
L 405.672727 229.188508 
L 407.552982 227.258182 
L 410.181818 224.581488 
L 411.867164 222.865455 
L 414.690909 219.990296 
L 416.102023 218.472727 
L 418.938452 214.08 
L 419.2 213.653476 
L 421.632098 209.687273 
L 423.709091 206.3002 
L 424.325772 205.294545 
L 427.019409 200.901818 
L 428.218182 198.946919 
L 429.713087 196.509091 
L 432.406739 192.116364 
L 432.727273 191.59365 
L 435.100419 187.723636 
L 437.236364 184.240395 
L 437.794062 183.330909 
L 440.487722 178.938182 
L 441.745455 176.521086 
L 442.879324 174.545455 
L 444.827786 170.152727 
L 446.254545 167.084409 
L 446.977698 165.76 
L 448.914524 161.367273 
L 450.763636 157.394662 
L 451.018256 156.974545 
L 453.128081 152.581818 
L 455.048563 148.189091 
L 455.272727 147.7075 
L 457.378339 143.796364 
L 459.137897 139.403636 
L 459.781818 138.020263 
L 461.57372 135.010909 
L 463.366414 130.618182 
L 464.290909 128.530367 
L 465.694662 126.225455 
L 467.735831 121.832727 
L 468.8 119.088157 
L 469.711202 117.44 
L 472.076157 113.047273 
L 473.309091 109.560395 
L 473.765503 108.654545 
L 476.377212 104.261818 
L 477.818182 100.611187 
L 478.192091 99.869091 
L 480.623521 95.476364 
L 482.327273 91.662025 
L 482.618696 91.083636 
L 484.831985 86.690909 
L 486.836364 82.712824 
L 487.045282 82.298182 
L 489.258597 77.905455 
L 491.345455 73.763665 
L 491.471892 73.512727 
L 493.685159 69.12 
L 491.345455 69.12 
L 486.836364 69.12 
L 482.327273 69.12 
L 477.818182 69.12 
L 473.309091 69.12 
L 468.8 69.12 
L 464.290909 69.12 
L 459.781818 69.12 
L 455.272727 69.12 
L 450.763636 69.12 
L 446.254545 69.12 
L 441.745455 69.12 
L 437.236364 69.12 
L 432.727273 69.12 
L 428.218182 69.12 
L 423.709091 69.12 
L 419.2 69.12 
L 414.690909 69.12 
L 410.181818 69.12 
L 405.672727 69.12 
L 401.163636 69.12 
L 396.654545 69.12 
L 392.145455 69.12 
L 387.636364 69.12 
L 383.127273 69.12 
L 378.618182 69.12 
L 374.109091 69.12 
L 369.6 69.12 
L 365.090909 69.12 
L 360.581818 69.12 
L 356.072727 69.12 
L 351.563636 69.12 
L 347.054545 69.12 
L 342.545455 69.12 
L 338.036364 69.12 
L 333.527273 69.12 
L 329.018182 69.12 
L 324.509091 69.12 
L 320 69.12 
L 315.490909 69.12 
L 310.981818 69.12 
L 306.472727 69.12 
L 301.963636 69.12 
L 297.454545 69.12 
L 292.945455 69.12 
L 288.436364 69.12 
L 283.927273 69.12 
L 279.418182 69.12 
L 274.909091 69.12 
L 270.4 69.12 
L 265.890909 69.12 
L 261.381818 69.12 
L 256.872727 69.12 
L 252.363636 69.12 
L 247.854545 69.12 
L 243.345455 69.12 
L 238.836364 69.12 
L 234.327273 69.12 
L 229.818182 69.12 
L 225.309091 69.12 
L 220.8 69.12 
L 216.290909 69.12 
L 211.781818 69.12 
L 207.272727 69.12 
L 202.763636 69.12 
L 198.254545 69.12 
L 193.745455 69.12 
L 189.236364 69.12 
L 184.727273 69.12 
L 180.218182 69.12 
L 175.709091 69.12 
L 171.2 69.12 
L 166.690909 69.12 
L 162.181818 69.12 
L 157.672727 69.12 
L 153.163636 69.12 
L 148.654545 69.12 
L 144.145455 69.12 
L 139.636364 69.12 
L 135.127273 69.12 
L 130.618182 69.12 
L 126.109091 69.12 
L 121.6 69.12 
L 117.090909 69.12 
L 112.581818 69.12 
L 108.072727 69.12 
L 103.563636 69.12 
L 99.054545 69.12 
L 94.545455 69.12 
L 90.036364 69.12 
L 85.527273 69.12 
L 81.018182 69.12 
L 76.509091 69.12 
L 72 69.12 
L 72 73.512727 
L 72 77.905455 
L 72 82.298182 
L 72 86.690909 
L 72 91.083636 
L 72 95.476364 
L 72 99.869091 
L 72 104.261818 
L 72 108.654545 
L 72 113.047273 
L 72 117.44 
L 72 121.832727 
L 72 126.225455 
L 72 130.618182 
L 72 135.010909 
L 72 139.403636 
L 72 143.796364 
L 72 148.189091 
L 72 152.581818 
L 72 156.974545 
L 72 161.367273 
L 72 165.76 
L 72 170.152727 
L 72 174.545455 
L 72 178.938182 
L 72 183.330909 
L 72 187.723636 
L 72 192.116364 
L 72 196.509091 
L 72 200.901818 
L 72 205.294545 
L 72 209.687273 
L 72 214.08 
L 72 218.472727 
L 72 222.865455 
L 72 227.258182 
L 72 231.650909 
L 72 236.043636 
L 72 240.436364 
L 72 244.829091 
L 72 249.221818 
L 72 253.614545 
L 72 258.007273 
L 72 262.4 
L 72 266.792727 
L 72 271.185455 
L 72 275.578182 
L 72 279.970909 
L 72 284.363636 
L 72 288.756364 
L 72 293.149091 
L 72 297.541818 
L 72 301.934545 
L 72 306.327273 
L 72 310.72 
L 72 315.112727 
L 72 319.505455 
L 72 323.898182 
L 72 328.290909 
L 72 332.683636 
L 72 337.076364 
L 72 341.469091 
L 72 345.861818 
L 72 350.254545 
L 72 354.647273 
L 72 359.04 
L 72 363.432727 
L 72 367.825455 
L 72 372.218182 
L 72 376.610909 
L 72 381.003636 
L 72 385.396364 
L 72 389.789091 
L 72 394.181818 
L 72 398.574545 
L 72 402.967273 
L 72 407.36 
L 72 411.752727 
L 72 416.145455 
L 72 420.538182 
L 72 424.930909 
L 72 429.323636 
L 72 433.716364 
L 72 438.109091 
L 72 442.501818 
L 72 446.894545 
L 72 451.287273 
L 72 455.68 
L 72 460.072727 
L 72 464.465455 
L 72 468.858182 
L 72 473.250909 
L 72 477.643636 
L 72 482.036364 
L 72 486.429091 
L 72 490.821818 
L 72 495.214545 
L 72 499.607273 
L 72 504 
z
" style="fill:#8db0fe;"/>
   </g>
   <g id="PathCollection_2">
    <path clip-path="url(#p1bd172af04)" d="M 144.145455 504 
L 148.654545 504 
L 153.163636 504 
L 157.672727 504 
L 162.181818 504 
L 166.690909 504 
L 171.2 504 
L 175.709091 504 
L 180.218182 504 
L 184.727273 504 
L 189.236364 504 
L 193.745455 504 
L 198.254545 504 
L 202.763636 504 
L 207.272727 504 
L 211.781818 504 
L 216.290909 504 
L 220.8 504 
L 225.309091 504 
L 229.818182 504 
L 234.327273 504 
L 238.836364 504 
L 243.345455 504 
L 247.854545 504 
L 252.363636 504 
L 256.872727 504 
L 261.381818 504 
L 265.890909 504 
L 270.4 504 
L 274.909091 504 
L 279.418182 504 
L 283.927273 504 
L 288.436364 504 
L 292.945455 504 
L 297.454545 504 
L 301.963636 504 
L 306.472727 504 
L 310.981818 504 
L 315.490909 504 
L 320 504 
L 324.509091 504 
L 329.018182 504 
L 333.527273 504 
L 338.036364 504 
L 342.545455 504 
L 347.054545 504 
L 351.563636 504 
L 356.072727 504 
L 360.581818 504 
L 365.090909 504 
L 369.6 504 
L 374.109091 504 
L 378.618182 504 
L 383.127273 504 
L 387.636364 504 
L 392.145455 504 
L 396.654545 504 
L 401.163636 504 
L 405.672727 504 
L 410.181818 504 
L 414.690909 504 
L 419.2 504 
L 423.709091 504 
L 428.218182 504 
L 432.727273 504 
L 437.236364 504 
L 441.745455 504 
L 446.254545 504 
L 450.763636 504 
L 455.272727 504 
L 459.781818 504 
L 464.290909 504 
L 468.8 504 
L 473.309091 504 
L 477.818182 504 
L 482.327273 504 
L 486.836364 504 
L 491.345455 504 
L 495.854545 504 
L 500.363636 504 
L 504.872727 504 
L 509.381818 504 
L 513.890909 504 
L 518.4 504 
L 518.4 499.607273 
L 518.4 495.214545 
L 518.4 490.821818 
L 518.4 486.429091 
L 518.4 482.036364 
L 518.4 477.643636 
L 518.4 473.250909 
L 518.4 468.858182 
L 518.4 464.465455 
L 518.4 460.072727 
L 518.4 455.68 
L 518.4 451.287273 
L 518.4 446.894545 
L 518.4 442.501818 
L 518.4 438.109091 
L 518.4 433.716364 
L 518.4 429.323636 
L 518.4 424.930909 
L 518.4 420.538182 
L 518.4 416.145455 
L 518.4 411.752727 
L 518.4 407.36 
L 518.4 402.967273 
L 518.4 398.574545 
L 518.4 394.181818 
L 518.4 389.789091 
L 518.4 385.396364 
L 518.4 381.003636 
L 518.4 376.610909 
L 518.4 372.218182 
L 518.4 367.825455 
L 518.4 363.432727 
L 518.4 359.04 
L 518.4 354.647273 
L 518.4 350.254545 
L 518.4 345.861818 
L 518.4 341.469091 
L 518.4 337.076364 
L 518.4 332.683636 
L 518.4 328.290909 
L 518.4 323.898182 
L 518.4 319.505455 
L 518.4 315.112727 
L 518.4 310.72 
L 518.4 306.327273 
L 518.4 301.934545 
L 518.4 297.541818 
L 518.4 293.149091 
L 518.4 288.756364 
L 518.4 284.363636 
L 518.4 279.970909 
L 518.4 275.578182 
L 518.4 271.185455 
L 518.4 266.792727 
L 518.4 262.4 
L 518.4 258.007273 
L 518.4 253.614545 
L 518.4 249.221818 
L 518.4 244.829091 
L 518.4 240.436364 
L 518.4 236.043636 
L 518.4 231.650909 
L 518.4 227.258182 
L 518.4 222.865455 
L 518.4 218.472727 
L 518.4 214.08 
L 518.4 209.687273 
L 518.4 205.294545 
L 518.4 200.901818 
L 518.4 196.509091 
L 518.4 192.116364 
L 518.4 187.723636 
L 518.4 183.330909 
L 518.4 178.938182 
L 518.4 174.545455 
L 518.4 170.152727 
L 518.4 165.76 
L 518.4 161.367273 
L 518.4 156.974545 
L 518.4 152.581818 
L 518.4 148.189091 
L 518.4 143.796364 
L 518.4 139.403636 
L 518.4 135.010909 
L 518.4 130.618182 
L 518.4 126.225455 
L 518.4 121.832727 
L 518.4 117.44 
L 518.4 113.047273 
L 518.4 108.654545 
L 518.4 104.261818 
L 518.4 99.869091 
L 518.4 95.476364 
L 518.4 91.083636 
L 518.4 86.690909 
L 518.4 82.298182 
L 518.4 77.905455 
L 518.4 73.512727 
L 518.4 69.12 
L 513.890909 69.12 
L 509.381818 69.12 
L 504.872727 69.12 
L 500.363636 69.12 
L 495.854545 69.12 
L 493.685159 69.12 
L 491.471892 73.512727 
L 491.345455 73.763665 
L 489.258597 77.905455 
L 487.045282 82.298182 
L 486.836364 82.712824 
L 484.831985 86.690909 
L 482.618696 91.083636 
L 482.327273 91.662025 
L 480.623521 95.476364 
L 478.192091 99.869091 
L 477.818182 100.611187 
L 476.377212 104.261818 
L 473.765503 108.654545 
L 473.309091 109.560395 
L 472.076157 113.047273 
L 469.711202 117.44 
L 468.8 119.088157 
L 467.735831 121.832727 
L 465.694662 126.225455 
L 464.290909 128.530367 
L 463.366414 130.618182 
L 461.57372 135.010909 
L 459.781818 138.020263 
L 459.137897 139.403636 
L 457.378339 143.796364 
L 455.272727 147.7075 
L 455.048563 148.189091 
L 453.128081 152.581818 
L 451.018256 156.974545 
L 450.763636 157.394662 
L 448.914524 161.367273 
L 446.977698 165.76 
L 446.254545 167.084409 
L 444.827786 170.152727 
L 442.879324 174.545455 
L 441.745455 176.521086 
L 440.487722 178.938182 
L 437.794062 183.330909 
L 437.236364 184.240395 
L 435.100419 187.723636 
L 432.727273 191.59365 
L 432.406739 192.116364 
L 429.713087 196.509091 
L 428.218182 198.946919 
L 427.019409 200.901818 
L 424.325772 205.294545 
L 423.709091 206.3002 
L 421.632098 209.687273 
L 419.2 213.653476 
L 418.938452 214.08 
L 416.102023 218.472727 
L 414.690909 219.990296 
L 411.867164 222.865455 
L 410.181818 224.581488 
L 407.552982 227.258182 
L 405.672727 229.188508 
L 403.274842 231.650909 
L 401.163636 233.830987 
L 399.020884 236.043636 
L 396.654545 238.487164 
L 394.766918 240.436364 
L 392.145455 243.14335 
L 390.512975 244.829091 
L 387.636364 247.799529 
L 386.258998 249.221818 
L 383.127273 252.455693 
L 382.005026 253.614545 
L 378.618182 257.111878 
L 377.751076 258.007273 
L 374.109091 261.768072 
L 373.497123 262.4 
L 369.6 266.424245 
L 369.243159 266.792727 
L 365.090909 271.080425 
L 364.989197 271.185455 
L 360.73524 275.578182 
L 360.581818 275.736608 
L 356.48128 279.970909 
L 356.072727 280.392789 
L 352.227319 284.363636 
L 351.563636 285.048969 
L 347.973353 288.756364 
L 347.054545 289.705143 
L 343.719395 293.149091 
L 342.545455 294.361328 
L 338.036364 294.697025 
L 336.383942 293.149091 
L 333.527273 290.473052 
L 331.694705 288.756364 
L 329.018182 286.249085 
L 327.005463 284.363636 
L 324.509091 282.025115 
L 322.316222 279.970909 
L 320 277.80115 
L 317.62698 275.578182 
L 315.490909 273.57718 
L 312.93774 271.185455 
L 310.981818 269.353211 
L 308.2485 266.792727 
L 306.472727 265.129241 
L 303.559258 262.4 
L 301.963636 260.905274 
L 298.870018 258.007273 
L 297.454545 256.716587 
L 293.217713 258.007273 
L 292.945455 258.066128 
L 288.436364 260.316434 
L 284.261382 262.4 
L 283.927273 262.56674 
L 279.418182 264.817044 
L 277.198937 266.792727 
L 274.909091 268.872035 
L 272.458826 271.185455 
L 270.4 273.774193 
L 269.205088 275.578182 
L 266.572789 279.970909 
L 265.890909 281.108818 
L 263.940491 284.363636 
L 261.381818 288.633501 
L 261.308194 288.756364 
L 258.675895 293.149091 
L 256.872727 296.158182 
L 256.043597 297.541818 
L 253.411303 301.934545 
L 252.363636 303.682872 
L 250.779005 306.327273 
L 248.146705 310.72 
L 247.854545 311.20755 
L 245.514409 315.112727 
L 243.345455 318.756129 
L 242.898565 319.505455 
L 240.461392 323.898182 
L 238.836364 326.827107 
L 238.024216 328.290909 
L 235.587043 332.683636 
L 234.327273 334.95422 
L 233.149859 337.076364 
L 230.712691 341.469091 
L 229.818182 343.081336 
L 228.275509 345.861818 
L 225.838334 350.254545 
L 225.309091 351.208443 
L 223.401156 354.647273 
L 220.964877 359.04 
L 220.8 359.33556 
L 218.52681 363.432727 
L 216.290909 367.462678 
L 216.089633 367.825455 
L 213.652456 372.218182 
L 211.781818 375.589786 
L 211.215278 376.610909 
L 208.778104 381.003636 
L 207.272727 383.716907 
L 206.340931 385.396364 
L 203.917483 389.789091 
L 202.763636 391.844017 
L 201.466578 394.181818 
L 199.053169 398.574545 
L 198.254545 399.971125 
L 196.592226 402.967273 
L 194.175534 407.36 
L 193.745455 408.098947 
L 191.719146 411.752727 
L 189.283802 416.145455 
L 189.236364 416.228169 
L 186.883143 420.538182 
L 184.727273 424.352471 
L 184.406343 424.930909 
L 182.035018 429.323636 
L 180.218182 432.479574 
L 179.531983 433.716364 
L 177.174086 438.109091 
L 175.709091 440.639416 
L 174.681976 442.501818 
L 172.299613 446.894545 
L 171.2 448.822484 
L 169.862121 451.287273 
L 167.41079 455.68 
L 166.690909 456.96229 
L 165.030652 460.072727 
L 162.506772 464.465455 
L 162.181818 465.054039 
L 160.186917 468.858182 
L 157.672727 473.22397 
L 157.657954 473.250909 
L 155.330205 477.643636 
L 153.163636 481.463752 
L 152.854678 482.036364 
L 150.459756 486.429091 
L 148.654545 489.663842 
L 148.040341 490.821818 
L 145.581947 495.214545 
L 144.145455 497.827578 
L 143.214317 499.607273 
L 140.752213 504 
z
" style="fill:#f4987a;"/>
   </g>
   <g id="matplotlib.axis_1">
    <g id="xtick_1">
     <g id="line2d_1">
      <defs>
       <path d="M 0 0 
L 0 3.5 
" id="mff609af783" style="stroke:#000000;stroke-width:0.8;"/>
      </defs>
      <g>
       <use style="stroke:#000000;stroke-width:0.8;" x="116.64" xlink:href="#mff609af783" y="504"/>
      </g>
     </g>
     <g id="text_1">
      <!-- −4 -->
      <defs>
       <path d="M 10.59375 35.5 
L 73.1875 35.5 
L 73.1875 27.203125 
L 10.59375 27.203125 
z
" id="DejaVuSans-2212"/>
       <path d="M 37.796875 64.3125 
L 12.890625 25.390625 
L 37.796875 25.390625 
z
M 35.203125 72.90625 
L 47.609375 72.90625 
L 47.609375 25.390625 
L 58.015625 25.390625 
L 58.015625 17.1875 
L 47.609375 17.1875 
L 47.609375 0 
L 37.796875 0 
L 37.796875 17.1875 
L 4.890625 17.1875 
L 4.890625 26.703125 
z
" id="DejaVuSans-34"/>
      </defs>
      <g transform="translate(109.268906 518.598438)scale(0.1 -0.1)">
       <use xlink:href="#DejaVuSans-2212"/>
       <use x="83.789062" xlink:href="#DejaVuSans-34"/>
      </g>
     </g>
    </g>
    <g id="xtick_2">
     <g id="line2d_2">
      <g>
       <use style="stroke:#000000;stroke-width:0.8;" x="205.92" xlink:href="#mff609af783" y="504"/>
      </g>
     </g>
     <g id="text_2">
      <!-- −2 -->
      <defs>
       <path d="M 19.1875 8.296875 
L 53.609375 8.296875 
L 53.609375 0 
L 7.328125 0 
L 7.328125 8.296875 
Q 12.9375 14.109375 22.625 23.890625 
Q 32.328125 33.6875 34.8125 36.53125 
Q 39.546875 41.84375 41.421875 45.53125 
Q 43.3125 49.21875 43.3125 52.78125 
Q 43.3125 58.59375 39.234375 62.25 
Q 35.15625 65.921875 28.609375 65.921875 
Q 23.96875 65.921875 18.8125 64.3125 
Q 13.671875 62.703125 7.8125 59.421875 
L 7.8125 69.390625 
Q 13.765625 71.78125 18.9375 73 
Q 24.125 74.21875 28.421875 74.21875 
Q 39.75 74.21875 46.484375 68.546875 
Q 53.21875 62.890625 53.21875 53.421875 
Q 53.21875 48.921875 51.53125 44.890625 
Q 49.859375 40.875 45.40625 35.40625 
Q 44.1875 33.984375 37.640625 27.21875 
Q 31.109375 20.453125 19.1875 8.296875 
z
" id="DejaVuSans-32"/>
      </defs>
      <g transform="translate(198.548906 518.598438)scale(0.1 -0.1)">
       <use xlink:href="#DejaVuSans-2212"/>
       <use x="83.789062" xlink:href="#DejaVuSans-32"/>
      </g>
     </g>
    </g>
    <g id="xtick_3">
     <g id="line2d_3">
      <g>
       <use style="stroke:#000000;stroke-width:0.8;" x="295.2" xlink:href="#mff609af783" y="504"/>
      </g>
     </g>
     <g id="text_3">
      <!-- 0 -->
      <defs>
       <path d="M 31.78125 66.40625 
Q 24.171875 66.40625 20.328125 58.90625 
Q 16.5 51.421875 16.5 36.375 
Q 16.5 21.390625 20.328125 13.890625 
Q 24.171875 6.390625 31.78125 6.390625 
Q 39.453125 6.390625 43.28125 13.890625 
Q 47.125 21.390625 47.125 36.375 
Q 47.125 51.421875 43.28125 58.90625 
Q 39.453125 66.40625 31.78125 66.40625 
z
M 31.78125 74.21875 
Q 44.046875 74.21875 50.515625 64.515625 
Q 56.984375 54.828125 56.984375 36.375 
Q 56.984375 17.96875 50.515625 8.265625 
Q 44.046875 -1.421875 31.78125 -1.421875 
Q 19.53125 -1.421875 13.0625 8.265625 
Q 6.59375 17.96875 6.59375 36.375 
Q 6.59375 54.828125 13.0625 64.515625 
Q 19.53125 74.21875 31.78125 74.21875 
z
" id="DejaVuSans-30"/>
      </defs>
      <g transform="translate(292.01875 518.598438)scale(0.1 -0.1)">
       <use xlink:href="#DejaVuSans-30"/>
      </g>
     </g>
    </g>
    <g id="xtick_4">
     <g id="line2d_4">
      <g>
       <use style="stroke:#000000;stroke-width:0.8;" x="384.48" xlink:href="#mff609af783" y="504"/>
      </g>
     </g>
     <g id="text_4">
      <!-- 2 -->
      <g transform="translate(381.29875 518.598438)scale(0.1 -0.1)">
       <use xlink:href="#DejaVuSans-32"/>
      </g>
     </g>
    </g>
    <g id="xtick_5">
     <g id="line2d_5">
      <g>
       <use style="stroke:#000000;stroke-width:0.8;" x="473.76" xlink:href="#mff609af783" y="504"/>
      </g>
     </g>
     <g id="text_5">
      <!-- 4 -->
      <g transform="translate(470.57875 518.598438)scale(0.1 -0.1)">
       <use xlink:href="#DejaVuSans-34"/>
      </g>
     </g>
    </g>
   </g>
   <g id="matplotlib.axis_2">
    <g id="ytick_1">
     <g id="line2d_6">
      <defs>
       <path d="M 0 0 
L -3.5 0 
" id="m2766b90633" style="stroke:#000000;stroke-width:0.8;"/>
      </defs>
      <g>
       <use style="stroke:#000000;stroke-width:0.8;" x="72" xlink:href="#m2766b90633" y="460.512"/>
      </g>
     </g>
     <g id="text_6">
      <!-- −4 -->
      <g transform="translate(50.257812 464.311219)scale(0.1 -0.1)">
       <use xlink:href="#DejaVuSans-2212"/>
       <use x="83.789062" xlink:href="#DejaVuSans-34"/>
      </g>
     </g>
    </g>
    <g id="ytick_2">
     <g id="line2d_7">
      <g>
       <use style="stroke:#000000;stroke-width:0.8;" x="72" xlink:href="#m2766b90633" y="373.536"/>
      </g>
     </g>
     <g id="text_7">
      <!-- −2 -->
      <g transform="translate(50.257812 377.335219)scale(0.1 -0.1)">
       <use xlink:href="#DejaVuSans-2212"/>
       <use x="83.789062" xlink:href="#DejaVuSans-32"/>
      </g>
     </g>
    </g>
    <g id="ytick_3">
     <g id="line2d_8">
      <g>
       <use style="stroke:#000000;stroke-width:0.8;" x="72" xlink:href="#m2766b90633" y="286.56"/>
      </g>
     </g>
     <g id="text_8">
      <!-- 0 -->
      <g transform="translate(58.6375 290.359219)scale(0.1 -0.1)">
       <use xlink:href="#DejaVuSans-30"/>
      </g>
     </g>
    </g>
    <g id="ytick_4">
     <g id="line2d_9">
      <g>
       <use style="stroke:#000000;stroke-width:0.8;" x="72" xlink:href="#m2766b90633" y="199.584"/>
      </g>
     </g>
     <g id="text_9">
      <!-- 2 -->
      <g transform="translate(58.6375 203.383219)scale(0.1 -0.1)">
       <use xlink:href="#DejaVuSans-32"/>
      </g>
     </g>
    </g>
    <g id="ytick_5">
     <g id="line2d_10">
      <g>
       <use style="stroke:#000000;stroke-width:0.8;" x="72" xlink:href="#m2766b90633" y="112.608"/>
      </g>
     </g>
     <g id="text_10">
      <!-- 4 -->
      <g transform="translate(58.6375 116.407219)scale(0.1 -0.1)">
       <use xlink:href="#DejaVuSans-34"/>
      </g>
     </g>
    </g>
   </g>
   <g id="patch_3">
    <path d="M 72 504 
L 72 69.12 
" style="fill:none;stroke:#000000;stroke-linecap:square;stroke-linejoin:miter;stroke-width:0.8;"/>
   </g>
   <g id="patch_4">
    <path d="M 518.4 504 
L 518.4 69.12 
" style="fill:none;stroke:#000000;stroke-linecap:square;stroke-linejoin:miter;stroke-width:0.8;"/>
   </g>
   <g id="patch_5">
    <path d="M 72 504 
L 518.4 504 
" style="fill:none;stroke:#000000;stroke-linecap:square;stroke-linejoin:miter;stroke-width:0.8;"/>
   </g>
   <g id="patch_6">
    <path d="M 72 69.12 
L 518.4 69.12 
" style="fill:none;stroke:#000000;stroke-linecap:square;stroke-linejoin:miter;stroke-width:0.8;"/>
   </g>
  </g>
 </g>
 <defs>
  <clipPath id="p1bd172af04">
   <rect height="434.88" width="446.4" x="72" y="69.12"/>
  </clipPath>
 </defs>
</svg>
