<?xml version="1.0" encoding="utf-8" standalone="no"?>
<!DOCTYPE svg PUBLIC "-//W3C//DTD SVG 1.1//EN"
  "http://www.w3.org/Graphics/SVG/1.1/DTD/svg11.dtd">
<!-- Created with matplotlib (http://matplotlib.org/) -->
<svg height="288pt" version="1.1" viewBox="0 0 432 288" width="432pt" xmlns="http://www.w3.org/2000/svg" xmlns:xlink="http://www.w3.org/1999/xlink">
 <defs>
  <style type="text/css">
*{stroke-linecap:butt;stroke-linejoin:round;}
  </style>
 </defs>
 <g id="figure_1">
  <g id="patch_1">
   <path d="M 0 288 
L 432 288 
L 432 0 
L 0 0 
z
" style="fill:#ffffff;"/>
  </g>
  <g id="axes_1">
   <g id="patch_2">
    <path d="M 54 252 
L 388.8 252 
L 388.8 34.56 
L 54 34.56 
z
" style="fill:#ffffff;"/>
   </g>
   <g id="patch_3">
    <path clip-path="url(#pa449823109)" d="M -393.693785 653.736099 
L 127.250215 183.872148 
L 113.780404 211.010051 
L -302.333268 586.369862 
z
" style="opacity:0.6;stroke-dasharray:0,0;stroke-dashoffset:0;"/>
   </g>
   <g id="patch_4">
    <path clip-path="url(#pa449823109)" d="M -3037.687581 2603.330061 
L 124.071928 181.961805 
L 128.545846 181.261815 
L 127.250215 183.872148 
L -393.693785 653.736099 
z
" style="fill:#0143da;opacity:0.6;stroke-dasharray:0,0;stroke-dashoffset:0;"/>
   </g>
   <g id="patch_5">
    <path clip-path="url(#pa449823109)" d="M 54 235.624944 
L 54 200.38004 
L 73.743394 189.836216 
L 124.071928 181.961805 
z
" style="fill:#0287b4;opacity:0.6;stroke-dasharray:0,0;stroke-dashoffset:0;"/>
   </g>
   <g id="patch_6">
    <path clip-path="url(#pa449823109)" d="M 54 200.38004 
L 54 192.925271 
L 73.743394 189.836216 
z
" style="fill:#03cb8e;opacity:0.6;stroke-dasharray:0,0;stroke-dashoffset:0;"/>
   </g>
   <g id="patch_7">
    <path clip-path="url(#pa449823109)" d="M -238.707963 238.722409 
L 152.052217 133.903047 
L 140.876796 156.418398 
L 73.743397 189.836215 
z
" style="fill:#050f68;opacity:0.6;stroke-dasharray:0,0;stroke-dashoffset:0;"/>
   </g>
   <g id="patch_8">
    <path clip-path="url(#pa449823109)" d="M -939.565233 348.378658 
L 153.609812 130.764928 
L 152.052217 133.903047 
L -238.707963 238.722409 
z
" style="fill:#065342;opacity:0.6;stroke-dasharray:0,0;stroke-dashoffset:0;"/>
   </g>
   <g id="patch_9">
    <path clip-path="url(#pa449823109)" d="M 54 150.593832 
L 54 128.16087 
L 160.013013 117.864268 
L 153.609812 130.764928 
z
" style="fill:#07971c;opacity:0.6;stroke-dasharray:0,0;stroke-dashoffset:0;"/>
   </g>
   <g id="patch_10">
    <path clip-path="url(#pa449823109)" d="M 54 128.16087 
L 54 34.56 
L 141.012893 34.56 
L 178.235517 81.151016 
L 160.013013 117.864268 
z
" style="fill:#08daf6;opacity:0.6;stroke-dasharray:0,0;stroke-dashoffset:0;"/>
   </g>
   <g id="patch_11">
    <path clip-path="url(#pa449823109)" d="M -302.333268 586.369862 
L 113.780404 211.010051 
L 74.75291 289.639543 
L 21.73778 347.410542 
z
" style="fill:#0a1ed0;opacity:0.6;stroke-dasharray:0,0;stroke-dashoffset:0;"/>
   </g>
   <g id="patch_12">
    <path clip-path="url(#pa449823109)" d="M 73.743397 189.836215 
L 140.876796 156.418398 
L 130.029071 178.273531 
L 124.071934 181.961804 
z
" style="fill:#0b62aa;opacity:0.6;stroke-dasharray:0,0;stroke-dashoffset:0;"/>
   </g>
   <g id="patch_13">
    <path clip-path="url(#pa449823109)" d="M 85.389954 278.217331 
L 74.752908 289.639548 
L 113.780405 211.01005 
L 148.784673 178.095245 
L 151.458299 177.676928 
z
" style="fill:#0ca684;opacity:0.6;stroke-dasharray:0,0;stroke-dashoffset:0;"/>
   </g>
   <g id="patch_14">
    <path clip-path="url(#pa449823109)" d="M 85.389954 278.217331 
L 151.458299 177.676928 
L 183.71981 172.629287 
z
" style="fill:#0dea5e;opacity:0.6;stroke-dasharray:0,0;stroke-dashoffset:0;"/>
   </g>
   <g id="patch_15">
    <path clip-path="url(#pa449823109)" d="M 79.520217 287.149684 
L 85.389954 278.217331 
L 183.71981 172.629287 
L 186.540675 172.187934 
z
" style="fill:#0f2e38;opacity:0.6;stroke-dasharray:0,0;stroke-dashoffset:0;"/>
   </g>
   <g id="patch_16">
    <path clip-path="url(#pa449823109)" d="M 70.537462 311.427263 
L 60.129402 319.101824 
L 65.087045 309.113559 
L 79.520217 287.149684 
L 186.540675 172.187934 
L 193.816703 171.049525 
z
" style="fill:#107212;opacity:0.6;stroke-dasharray:0,0;stroke-dashoffset:0;"/>
   </g>
   <g id="patch_17">
    <path clip-path="url(#pa449823109)" d="M 113.780405 211.01005 
L 127.250216 183.872146 
L 129.79861 181.065807 
L 148.784673 178.095245 
z
" style="fill:#11b5ec;opacity:0.6;stroke-dasharray:0,0;stroke-dashoffset:0;"/>
   </g>
   <g id="patch_18">
    <path clip-path="url(#pa449823109)" d="M 70.537462 311.427263 
L 193.816703 171.049525 
L 194.125905 171.001148 
L 121.52061 273.833969 
z
" style="fill:#12f9c6;opacity:0.6;stroke-dasharray:0,0;stroke-dashoffset:0;"/>
   </g>
   <g id="patch_19">
    <path clip-path="url(#pa449823109)" d="M 124.071934 181.961804 
L 130.029071 178.273531 
L 128.545846 181.261815 
z
" style="fill:#143da0;opacity:0.6;stroke-dasharray:0,0;stroke-dashoffset:0;"/>
   </g>
   <g id="patch_20">
    <path clip-path="url(#pa449823109)" d="M 129.798604 181.065808 
L 128.545846 181.261815 
L 130.029071 178.273531 
L 134.510295 175.099532 
z
" style="fill:#15817a;opacity:0.6;stroke-dasharray:0,0;stroke-dashoffset:0;"/>
   </g>
   <g id="patch_21">
    <path clip-path="url(#pa449823109)" d="M 129.798604 181.065808 
L 134.510295 175.099532 
L 170.52897 149.587925 
L 155.136202 172.259782 
L 148.784683 178.095243 
z
" style="fill:#16c554;opacity:0.6;stroke-dasharray:0,0;stroke-dashoffset:0;"/>
   </g>
   <g id="patch_22">
    <path clip-path="url(#pa449823109)" d="M 134.510295 175.099532 
L 130.029071 178.273531 
L 140.876796 156.418397 
L 156.475985 147.285019 
z
" style="fill:#18092e;opacity:0.6;stroke-dasharray:0,0;stroke-dashoffset:0;"/>
   </g>
   <g id="patch_23">
    <path clip-path="url(#pa449823109)" d="M 134.510295 175.099532 
L 156.475985 147.285019 
L 182.39637 132.108547 
L 170.52897 149.587925 
z
" style="fill:#194d08;opacity:0.6;stroke-dasharray:0,0;stroke-dashoffset:0;"/>
   </g>
   <g id="patch_24">
    <path clip-path="url(#pa449823109)" d="M 121.52061 273.833969 
L 194.125905 171.001148 
L 199.376755 170.179599 
L 250.059578 179.053567 
z
" style="fill:#1a90e2;opacity:0.6;stroke-dasharray:0,0;stroke-dashoffset:0;"/>
   </g>
   <g id="patch_25">
    <path clip-path="url(#pa449823109)" d="M 156.475985 147.285019 
L 140.876796 156.418397 
L 152.052217 133.903047 
L 171.073423 128.800709 
z
" style="fill:#1bd4bc;opacity:0.6;stroke-dasharray:0,0;stroke-dashoffset:0;"/>
   </g>
   <g id="patch_26">
    <path clip-path="url(#pa449823109)" d="M 141.012893 34.56 
L 201.360818 34.56 
L 178.235517 81.151016 
z
" style="fill:#1d1896;opacity:0.6;stroke-dasharray:0,0;stroke-dashoffset:0;"/>
   </g>
   <g id="patch_27">
    <path clip-path="url(#pa449823109)" d="M 148.784683 178.095243 
L 155.136202 172.259782 
L 151.4583 177.676928 
z
" style="fill:#1e5c70;opacity:0.6;stroke-dasharray:0,0;stroke-dashoffset:0;"/>
   </g>
   <g id="patch_28">
    <path clip-path="url(#pa449823109)" d="M 151.131329 252 
L 250.05958 179.053565 
L 253.728142 179.268228 
L 252.042804 252 
z
" style="fill:#1fa04a;opacity:0.6;stroke-dasharray:0,0;stroke-dashoffset:0;"/>
   </g>
   <g id="patch_29">
    <path clip-path="url(#pa449823109)" d="M 151.4583 177.676928 
L 155.136202 172.259782 
L 210.434702 121.454266 
L 220.347811 133.862361 
L 214.387081 142.304703 
L 183.719811 172.629287 
z
" style="fill:#20e424;opacity:0.6;stroke-dasharray:0,0;stroke-dashoffset:0;"/>
   </g>
   <g id="patch_30">
    <path clip-path="url(#pa449823109)" d="M 152.052217 133.903047 
L 153.609812 130.764928 
L 172.70699 126.963334 
L 171.073425 128.800709 
z
" style="fill:#2227fe;opacity:0.6;stroke-dasharray:0,0;stroke-dashoffset:0;"/>
   </g>
   <g id="patch_31">
    <path clip-path="url(#pa449823109)" d="M 153.609812 130.764928 
L 160.013013 117.864268 
L 183.199754 115.612237 
L 172.706998 126.963332 
z
" style="fill:#236bd8;opacity:0.6;stroke-dasharray:0,0;stroke-dashoffset:0;"/>
   </g>
   <g id="patch_32">
    <path clip-path="url(#pa449823109)" d="M 156.475985 147.285019 
L 171.073423 128.800709 
L 187.663612 124.350478 
L 182.39637 132.108547 
z
" style="fill:#24afb2;opacity:0.6;stroke-dasharray:0,0;stroke-dashoffset:0;"/>
   </g>
   <g id="patch_33">
    <path clip-path="url(#pa449823109)" d="M 155.136202 172.259782 
L 170.52897 149.587925 
L 210.36781 121.370539 
L 210.434702 121.454266 
z
" style="fill:#25f38c;opacity:0.6;stroke-dasharray:0,0;stroke-dashoffset:0;"/>
   </g>
   <g id="patch_34">
    <path clip-path="url(#pa449823109)" d="M 160.013013 117.864268 
L 178.235517 81.151016 
L 193.393057 100.123488 
L 183.199749 115.612237 
z
" style="fill:#273766;opacity:0.6;stroke-dasharray:0,0;stroke-dashoffset:0;"/>
   </g>
   <g id="patch_35">
    <path clip-path="url(#pa449823109)" d="M 170.52897 149.587925 
L 182.39637 132.108547 
L 200.702138 121.390458 
L 209.055259 119.727638 
L 210.36781 121.370539 
z
" style="fill:#287b40;opacity:0.6;stroke-dasharray:0,0;stroke-dashoffset:0;"/>
   </g>
   <g id="patch_36">
    <path clip-path="url(#pa449823109)" d="M 171.073425 128.800709 
L 172.70699 126.963334 
L 188.04489 123.910083 
L 187.663612 124.350478 
z
" style="fill:#29bf1a;opacity:0.6;stroke-dasharray:0,0;stroke-dashoffset:0;"/>
   </g>
   <g id="patch_37">
    <path clip-path="url(#pa449823109)" d="M 172.706998 126.963332 
L 183.199754 115.612237 
L 198.705439 114.106234 
L 188.044889 123.910083 
z
" style="fill:#2b02f4;opacity:0.6;stroke-dasharray:0,0;stroke-dashoffset:0;"/>
   </g>
   <g id="patch_38">
    <path clip-path="url(#pa449823109)" d="M 205.455583 106.803176 
L 193.393058 100.123489 
L 178.235517 81.151016 
L 259.810018 -83.1988 
L 256.873931 43.509806 
z
" style="fill:#2c46ce;opacity:0.6;stroke-dasharray:0,0;stroke-dashoffset:0;"/>
   </g>
   <g id="patch_39">
    <path clip-path="url(#pa449823109)" d="M 182.39637 132.108547 
L 187.663612 124.350478 
L 192.93249 122.93713 
L 200.702138 121.390458 
z
" style="fill:#2d8aa8;opacity:0.6;stroke-dasharray:0,0;stroke-dashoffset:0;"/>
   </g>
   <g id="patch_40">
    <path clip-path="url(#pa449823109)" d="M 183.199749 115.612237 
L 193.393057 100.123488 
L 202.064506 110.977414 
L 198.705439 114.106234 
z
" style="fill:#2ece82;opacity:0.6;stroke-dasharray:0,0;stroke-dashoffset:0;"/>
   </g>
   <g id="patch_41">
    <path clip-path="url(#pa449823109)" d="M 186.540679 172.187933 
L 183.719811 172.629287 
L 214.387081 142.304703 
L 203.872225 157.197174 
z
" style="fill:#30125c;opacity:0.6;stroke-dasharray:0,0;stroke-dashoffset:0;"/>
   </g>
   <g id="patch_42">
    <path clip-path="url(#pa449823109)" d="M 186.540679 172.187933 
L 203.872225 157.197174 
L 194.747502 170.120763 
L 193.816703 171.049525 
z
" style="fill:#315636;opacity:0.6;stroke-dasharray:0,0;stroke-dashoffset:0;"/>
   </g>
   <g id="patch_43">
    <path clip-path="url(#pa449823109)" d="M 192.93249 122.93713 
L 188.044889 123.910083 
L 198.705439 114.106234 
L 204.142312 113.578173 
L 207.273488 117.497421 
L 202.334532 120.415081 
z
" style="fill:#329a10;opacity:0.6;stroke-dasharray:0,0;stroke-dashoffset:0;"/>
   </g>
   <g id="patch_44">
    <path clip-path="url(#pa449823109)" d="M 199.376753 170.179599 
L 194.747502 170.120764 
L 203.872227 157.197172 
L 236.138762 153.627663 
L 243.808526 163.227796 
z
" style="fill:#33ddea;opacity:0.6;stroke-dasharray:0,0;stroke-dashoffset:0;"/>
   </g>
   <g id="patch_45">
    <path clip-path="url(#pa449823109)" d="M 202.064508 110.977416 
L 193.393058 100.123489 
L 205.455583 106.803176 
z
" style="fill:#3521c4;opacity:0.6;stroke-dasharray:0,0;stroke-dashoffset:0;"/>
   </g>
   <g id="patch_46">
    <path clip-path="url(#pa449823109)" d="M 192.93249 122.93713 
L 202.334528 120.415082 
L 200.702135 121.390459 
z
" style="fill:#36659e;opacity:0.6;stroke-dasharray:0,0;stroke-dashoffset:0;"/>
   </g>
   <g id="patch_47">
    <path clip-path="url(#pa449823109)" d="M 199.376755 170.179599 
L 243.808526 163.227796 
L 253.809754 175.746187 
L 253.796974 176.297734 
L 250.059578 179.053567 
z
" style="fill:#37a978;opacity:0.6;stroke-dasharray:0,0;stroke-dashoffset:0;"/>
   </g>
   <g id="patch_48">
    <path clip-path="url(#pa449823109)" d="M 198.705439 114.106234 
L 202.064506 110.977414 
L 204.142312 113.578173 
z
" style="fill:#38ed52;opacity:0.6;stroke-dasharray:0,0;stroke-dashoffset:0;"/>
   </g>
   <g id="patch_49">
    <path clip-path="url(#pa449823109)" d="M 200.702135 121.390459 
L 202.334528 120.415082 
L 208.321438 118.809125 
L 209.055259 119.727638 
z
" style="fill:#3a312c;opacity:0.6;stroke-dasharray:0,0;stroke-dashoffset:0;"/>
   </g>
   <g id="patch_50">
    <path clip-path="url(#pa449823109)" d="M 202.334532 120.415081 
L 207.273488 117.497421 
L 208.321438 118.809125 
z
" style="fill:#3b7506;opacity:0.6;stroke-dasharray:0,0;stroke-dashoffset:0;"/>
   </g>
   <g id="patch_51">
    <path clip-path="url(#pa449823109)" d="M 204.142312 113.578173 
L 202.064508 110.977416 
L 205.455583 106.803176 
L 215.668577 112.458675 
z
" style="fill:#3cb8e0;opacity:0.6;stroke-dasharray:0,0;stroke-dashoffset:0;"/>
   </g>
   <g id="patch_52">
    <path clip-path="url(#pa449823109)" d="M 203.872227 157.197172 
L 214.387081 142.304703 
L 226.919557 142.088119 
L 236.138762 153.627663 
z
" style="fill:#3dfcba;opacity:0.6;stroke-dasharray:0,0;stroke-dashoffset:0;"/>
   </g>
   <g id="patch_53">
    <path clip-path="url(#pa449823109)" d="M 207.273489 117.497422 
L 204.142312 113.578173 
L 215.668575 112.458676 
L 221.458126 115.285278 
L 210.89811 118.117947 
z
" style="fill:#3f4094;opacity:0.6;stroke-dasharray:0,0;stroke-dashoffset:0;"/>
   </g>
   <g id="patch_54">
    <path clip-path="url(#pa449823109)" d="M 215.668572 112.458676 
L 205.455581 106.803178 
L 256.873931 43.509806 
L 255.948672 83.43991 
L 236.917054 110.394899 
z
" style="fill:#40846e;opacity:0.6;stroke-dasharray:0,0;stroke-dashoffset:0;"/>
   </g>
   <g id="patch_55">
    <path clip-path="url(#pa449823109)" d="M 209.055259 119.727638 
L 208.321438 118.809125 
L 210.898116 118.117945 
L 214.206846 118.702133 
z
" style="fill:#41c848;opacity:0.6;stroke-dasharray:0,0;stroke-dashoffset:0;"/>
   </g>
   <g id="patch_56">
    <path clip-path="url(#pa449823109)" d="M 211.688172 121.236172 
L 210.36781 121.370539 
L 209.055259 119.727638 
L 214.206843 118.702134 
L 220.30133 119.737544 
z
" style="fill:#430c22;opacity:0.6;stroke-dasharray:0,0;stroke-dashoffset:0;"/>
   </g>
   <g id="patch_57">
    <path clip-path="url(#pa449823109)" d="M 210.434702 121.454266 
L 211.688172 121.236172 
L 222.591368 120.126605 
L 229.247537 121.257441 
L 220.347811 133.862361 
z
" style="fill:#444ffc;opacity:0.6;stroke-dasharray:0,0;stroke-dashoffset:0;"/>
   </g>
   <g id="patch_58">
    <path clip-path="url(#pa449823109)" d="M 211.688172 121.236172 
L 220.301325 119.737545 
L 222.591362 120.126606 
z
" style="fill:#4593d6;opacity:0.6;stroke-dasharray:0,0;stroke-dashoffset:0;"/>
   </g>
   <g id="patch_59">
    <path clip-path="url(#pa449823109)" d="M 214.206846 118.702133 
L 210.898116 118.117945 
L 221.458125 115.285278 
L 224.190183 116.714793 
z
" style="fill:#46d7b0;opacity:0.6;stroke-dasharray:0,0;stroke-dashoffset:0;"/>
   </g>
   <g id="patch_60">
    <path clip-path="url(#pa449823109)" d="M 214.387081 142.304703 
L 220.347811 133.862361 
L 226.919557 142.088119 
z
" style="fill:#481b8a;opacity:0.6;stroke-dasharray:0,0;stroke-dashoffset:0;"/>
   </g>
   <g id="patch_61">
    <path clip-path="url(#pa449823109)" d="M 220.30133 119.737544 
L 214.206843 118.702134 
L 224.190184 116.714793 
L 227.499749 118.485071 
z
" style="fill:#495f64;opacity:0.6;stroke-dasharray:0,0;stroke-dashoffset:0;"/>
   </g>
   <g id="patch_62">
    <path clip-path="url(#pa449823109)" d="M 221.458126 115.285278 
L 215.668575 112.458676 
L 236.917054 110.394899 
L 236.269363 111.312241 
z
" style="fill:#4aa33e;opacity:0.6;stroke-dasharray:0,0;stroke-dashoffset:0;"/>
   </g>
   <g id="patch_63">
    <path clip-path="url(#pa449823109)" d="M 226.919556 142.088118 
L 220.347811 133.862361 
L 229.247536 121.257443 
L 234.245664 123.685711 
L 254.579125 142.543539 
L 254.137277 161.611758 
L 249.753202 162.297691 
L 247.240108 160.697288 
z
" style="fill:#4be718;opacity:0.6;stroke-dasharray:0,0;stroke-dashoffset:0;"/>
   </g>
   <g id="patch_64">
    <path clip-path="url(#pa449823109)" d="M 222.591362 120.126606 
L 220.301325 119.737545 
L 227.499749 118.485071 
L 229.293528 119.444558 
z
" style="fill:#4d2af2;opacity:0.6;stroke-dasharray:0,0;stroke-dashoffset:0;"/>
   </g>
   <g id="patch_65">
    <path clip-path="url(#pa449823109)" d="M 224.190183 116.714793 
L 221.458125 115.285278 
L 236.269363 111.312241 
L 233.806456 114.800522 
z
" style="fill:#4e6ecc;opacity:0.6;stroke-dasharray:0,0;stroke-dashoffset:0;"/>
   </g>
   <g id="patch_66">
    <path clip-path="url(#pa449823109)" d="M 227.499749 118.485071 
L 224.190184 116.714793 
L 233.806456 114.800522 
L 231.723903 117.750098 
z
" style="fill:#4fb2a6;opacity:0.6;stroke-dasharray:0,0;stroke-dashoffset:0;"/>
   </g>
   <g id="patch_67">
    <path clip-path="url(#pa449823109)" d="M 222.591368 120.126605 
L 229.293528 119.444558 
L 230.189245 119.923675 
L 229.247537 121.257441 
z
" style="fill:#50f680;opacity:0.6;stroke-dasharray:0,0;stroke-dashoffset:0;"/>
   </g>
   <g id="patch_68">
    <path clip-path="url(#pa449823109)" d="M 229.293528 119.444558 
L 227.499749 118.485071 
L 231.723903 117.750098 
L 230.623055 119.309259 
z
" style="fill:#523a5a;opacity:0.6;stroke-dasharray:0,0;stroke-dashoffset:0;"/>
   </g>
   <g id="patch_69">
    <path clip-path="url(#pa449823109)" d="M 236.138761 153.627662 
L 226.919556 142.088118 
L 247.240109 160.697289 
z
" style="fill:#537e34;opacity:0.6;stroke-dasharray:0,0;stroke-dashoffset:0;"/>
   </g>
   <g id="patch_70">
    <path clip-path="url(#pa449823109)" d="M 229.247536 121.257443 
L 230.189246 119.923674 
L 234.245664 123.685711 
z
" style="fill:#54c20e;opacity:0.6;stroke-dasharray:0,0;stroke-dashoffset:0;"/>
   </g>
   <g id="patch_71">
    <path clip-path="url(#pa449823109)" d="M 234.245664 123.685711 
L 230.189246 119.923674 
L 230.623056 119.309257 
L 239.678292 122.330169 
L 254.845149 131.063117 
L 254.784872 133.664391 
z
" style="fill:#5605e8;opacity:0.6;stroke-dasharray:0,0;stroke-dashoffset:0;"/>
   </g>
   <g id="patch_72">
    <path clip-path="url(#pa449823109)" d="M 230.623056 119.309257 
L 231.723902 117.750099 
L 239.678292 122.330169 
z
" style="fill:#5749c2;opacity:0.6;stroke-dasharray:0,0;stroke-dashoffset:0;"/>
   </g>
   <g id="patch_73">
    <path clip-path="url(#pa449823109)" d="M 239.678292 122.330169 
L 231.723902 117.750099 
L 233.806456 114.800522 
L 255.321227 110.517668 
L 254.92961 127.418153 
z
" style="fill:#588d9c;opacity:0.6;stroke-dasharray:0,0;stroke-dashoffset:0;"/>
   </g>
   <g id="patch_74">
    <path clip-path="url(#pa449823109)" d="M 233.806456 114.800522 
L 236.269363 111.312241 
L 241.262584 109.972836 
L 255.365592 108.60307 
L 255.321227 110.517668 
z
" style="fill:#59d176;opacity:0.6;stroke-dasharray:0,0;stroke-dashoffset:0;"/>
   </g>
   <g id="patch_75">
    <path clip-path="url(#pa449823109)" d="M 243.808526 163.227796 
L 236.138761 153.627662 
L 247.240109 160.697289 
L 249.099394 162.399986 
z
" style="fill:#5b1550;opacity:0.6;stroke-dasharray:0,0;stroke-dashoffset:0;"/>
   </g>
   <g id="patch_76">
    <path clip-path="url(#pa449823109)" d="M 234.245664 123.685711 
L 254.784872 133.664391 
L 254.579125 142.543539 
z
" style="fill:#5c592a;opacity:0.6;stroke-dasharray:0,0;stroke-dashoffset:0;"/>
   </g>
   <g id="patch_77">
    <path clip-path="url(#pa449823109)" d="M 241.262584 109.972836 
L 236.917054 110.394899 
L 255.948672 83.43991 
L 255.421863 106.174684 
z
" style="fill:#5d9d04;opacity:0.6;stroke-dasharray:0,0;stroke-dashoffset:0;"/>
   </g>
   <g id="patch_78">
    <path clip-path="url(#pa449823109)" d="M 243.808526 163.227796 
L 249.099394 162.399986 
L 254.004294 167.350725 
L 253.809754 175.746187 
z
" style="fill:#5ee0de;opacity:0.6;stroke-dasharray:0,0;stroke-dashoffset:0;"/>
   </g>
   <g id="patch_79">
    <path clip-path="url(#pa449823109)" d="M 239.678292 122.330169 
L 254.92961 127.418153 
L 254.845149 131.063117 
z
" style="fill:#6024b8;opacity:0.6;stroke-dasharray:0,0;stroke-dashoffset:0;"/>
   </g>
   <g id="patch_80">
    <path clip-path="url(#pa449823109)" d="M 241.262584 109.972836 
L 255.421863 106.174684 
L 255.365592 108.60307 
z
" style="fill:#616892;opacity:0.6;stroke-dasharray:0,0;stroke-dashoffset:0;"/>
   </g>
   <g id="patch_81">
    <path clip-path="url(#pa449823109)" d="M 249.099394 162.399986 
L 249.753203 162.297691 
L 254.03288 166.117072 
L 254.004294 167.350725 
z
" style="fill:#62ac6c;opacity:0.6;stroke-dasharray:0,0;stroke-dashoffset:0;"/>
   </g>
   <g id="patch_82">
    <path clip-path="url(#pa449823109)" d="M 250.05958 179.053565 
L 253.796974 176.297734 
L 253.728142 179.268228 
z
" style="fill:#63f046;opacity:0.6;stroke-dasharray:0,0;stroke-dashoffset:0;"/>
   </g>
   <g id="patch_83">
    <path clip-path="url(#pa449823109)" d="M 249.753202 162.297691 
L 254.137277 161.611758 
L 254.03288 166.117073 
z
" style="fill:#653420;opacity:0.6;stroke-dasharray:0,0;stroke-dashoffset:0;"/>
   </g>
   <g id="patch_84">
    <path clip-path="url(#pa449823109)" d="M 22.858512 10142.585703 
L 253.728142 179.268221 
L 254.157477 176.181427 
L 436.137767 403.963503 
z
" style="fill:#6677fa;opacity:0.6;stroke-dasharray:0,0;stroke-dashoffset:0;"/>
   </g>
   <g id="patch_85">
    <path clip-path="url(#pa449823109)" d="M 254.439372 175.82405 
L 254.082308 176.087338 
L 253.809754 175.746187 
L 254.004294 167.350725 
L 262.090513 165.990987 
z
" style="fill:#67bbd4;opacity:0.6;stroke-dasharray:0,0;stroke-dashoffset:0;"/>
   </g>
   <g id="patch_86">
    <path clip-path="url(#pa449823109)" d="M 254.004294 167.350725 
L 254.03288 166.117074 
L 261.998437 160.381799 
L 267.072807 159.587863 
L 262.090513 165.990987 
z
" style="fill:#68ffae;opacity:0.6;stroke-dasharray:0,0;stroke-dashoffset:0;"/>
   </g>
   <g id="patch_87">
    <path clip-path="url(#pa449823109)" d="M 254.03288 166.117074 
L 254.137277 161.611758 
L 261.998437 160.381799 
z
" style="fill:#6a4388;opacity:0.6;stroke-dasharray:0,0;stroke-dashoffset:0;"/>
   </g>
   <g id="patch_88">
    <path clip-path="url(#pa449823109)" d="M 254.137277 161.611758 
L 254.579125 142.543541 
L 271.903879 154.343221 
L 271.445132 154.841239 
L 261.998437 160.381799 
z
" style="fill:#6b8762;opacity:0.6;stroke-dasharray:0,0;stroke-dashoffset:0;"/>
   </g>
   <g id="patch_89">
    <path clip-path="url(#pa449823109)" d="M 254.157478 176.181428 
L 254.439361 175.824059 
L 269.453962 164.752787 
L 284.056441 162.212566 
L 442.238323 260.208377 
L 436.137767 403.963503 
z
" style="fill:#6ccb3c;opacity:0.6;stroke-dasharray:0,0;stroke-dashoffset:0;"/>
   </g>
   <g id="patch_90">
    <path clip-path="url(#pa449823109)" d="M 254.43936 175.824059 
L 262.090506 165.99099 
L 269.453958 164.752789 
z
" style="fill:#6e0f16;opacity:0.6;stroke-dasharray:0,0;stroke-dashoffset:0;"/>
   </g>
   <g id="patch_91">
    <path clip-path="url(#pa449823109)" d="M 254.579125 142.543541 
L 254.784872 133.664392 
L 293.180758 104.93024 
L 319.802106 102.34462 
L 271.903876 154.343219 
z
" style="fill:#6f52f0;opacity:0.6;stroke-dasharray:0,0;stroke-dashoffset:0;"/>
   </g>
   <g id="patch_92">
    <path clip-path="url(#pa449823109)" d="M 254.784872 133.664392 
L 254.845149 131.063117 
L 285.171488 105.708147 
L 293.180758 104.93024 
z
" style="fill:#7096ca;opacity:0.6;stroke-dasharray:0,0;stroke-dashoffset:0;"/>
   </g>
   <g id="patch_93">
    <path clip-path="url(#pa449823109)" d="M 254.845149 131.063117 
L 254.92961 127.418153 
L 275.936958 106.605059 
L 285.171488 105.708147 
z
" style="fill:#71daa4;opacity:0.6;stroke-dasharray:0,0;stroke-dashoffset:0;"/>
   </g>
   <g id="patch_94">
    <path clip-path="url(#pa449823109)" d="M 254.92961 127.418153 
L 255.321227 110.517668 
L 274.060585 106.787303 
L 275.936958 106.605059 
z
" style="fill:#731e7e;opacity:0.6;stroke-dasharray:0,0;stroke-dashoffset:0;"/>
   </g>
   <g id="patch_95">
    <path clip-path="url(#pa449823109)" d="M 255.321227 110.517668 
L 255.365592 108.60307 
L 274.060585 106.787303 
z
" style="fill:#746258;opacity:0.6;stroke-dasharray:0,0;stroke-dashoffset:0;"/>
   </g>
   <g id="patch_96">
    <path clip-path="url(#pa449823109)" d="M 255.365592 108.60307 
L 255.421863 106.174684 
L 281.492467 99.181382 
L 276.096675 106.381987 
L 274.060585 106.787303 
z
" style="fill:#75a632;opacity:0.6;stroke-dasharray:0,0;stroke-dashoffset:0;"/>
   </g>
   <g id="patch_97">
    <path clip-path="url(#pa449823109)" d="M 281.492454 99.181385 
L 255.421863 106.174684 
L 255.948672 83.43991 
L 462.132521 -208.583789 
L 458.535918 -123.832471 
z
" style="fill:#76ea0c;opacity:0.6;stroke-dasharray:0,0;stroke-dashoffset:0;"/>
   </g>
   <g id="patch_98">
    <path clip-path="url(#pa449823109)" d="M 255.948672 83.43991 
L 256.873931 43.509807 
L 469.083275 -372.373204 
L 462.132521 -208.583789 
z
" style="fill:#782de6;opacity:0.6;stroke-dasharray:0,0;stroke-dashoffset:0;"/>
   </g>
   <g id="patch_99">
    <path clip-path="url(#pa449823109)" d="M 256.873931 43.509807 
L 259.810018 -83.1988 
L 475.229702 -517.209246 
L 469.083275 -372.373204 
z
" style="fill:#7971c0;opacity:0.6;stroke-dasharray:0,0;stroke-dashoffset:0;"/>
   </g>
   <g id="patch_100">
    <path clip-path="url(#pa449823109)" d="M 262.090506 165.99099 
L 267.072801 159.587864 
L 277.263295 157.993457 
L 277.993146 158.456274 
L 269.453958 164.752789 
z
" style="fill:#7ab59a;opacity:0.6;stroke-dasharray:0,0;stroke-dashoffset:0;"/>
   </g>
   <g id="patch_101">
    <path clip-path="url(#pa449823109)" d="M 261.998437 160.381799 
L 271.445121 154.841246 
L 267.072799 159.587864 
z
" style="fill:#7bf974;opacity:0.6;stroke-dasharray:0,0;stroke-dashoffset:0;"/>
   </g>
   <g id="patch_102">
    <path clip-path="url(#pa449823109)" d="M 267.072805 159.587863 
L 271.445132 154.841239 
L 272.084504 154.466242 
L 277.263299 157.993457 
z
" style="fill:#7d3d4e;opacity:0.6;stroke-dasharray:0,0;stroke-dashoffset:0;"/>
   </g>
   <g id="patch_103">
    <path clip-path="url(#pa449823109)" d="M 269.453962 164.752787 
L 277.993146 158.456273 
L 284.056441 162.212566 
z
" style="fill:#7e8128;opacity:0.6;stroke-dasharray:0,0;stroke-dashoffset:0;"/>
   </g>
   <g id="patch_104">
    <path clip-path="url(#pa449823109)" d="M 277.263299 157.993457 
L 272.084504 154.466242 
L 327.413358 122.015436 
L 278.986435 157.723854 
z
" style="fill:#7fc502;opacity:0.6;stroke-dasharray:0,0;stroke-dashoffset:0;"/>
   </g>
   <g id="patch_105">
    <path clip-path="url(#pa449823109)" d="M 327.413358 122.015436 
L 272.084504 154.466242 
L 271.903879 154.343221 
L 319.802112 102.344619 
L 359.29207 98.509124 
z
" style="fill:#8108dc;opacity:0.6;stroke-dasharray:0,0;stroke-dashoffset:0;"/>
   </g>
   <g id="patch_106">
    <path clip-path="url(#pa449823109)" d="M 277.263295 157.993457 
L 278.986435 157.723854 
L 277.993146 158.456274 
z
" style="fill:#824cb6;opacity:0.6;stroke-dasharray:0,0;stroke-dashoffset:0;"/>
   </g>
   <g id="patch_107">
    <path clip-path="url(#pa449823109)" d="M 276.096679 106.381986 
L 281.492471 99.181381 
L 292.533581 96.219661 
L 286.223294 104.366124 
z
" style="fill:#839090;opacity:0.6;stroke-dasharray:0,0;stroke-dashoffset:0;"/>
   </g>
   <g id="patch_108">
    <path clip-path="url(#pa449823109)" d="M 284.056441 162.212566 
L 277.993146 158.456273 
L 278.986435 157.723854 
L 447.707736 131.325691 
L 447.604342 133.762077 
z
" style="fill:#84d46a;opacity:0.6;stroke-dasharray:0,0;stroke-dashoffset:0;"/>
   </g>
   <g id="patch_109">
    <path clip-path="url(#pa449823109)" d="M 278.986435 157.723854 
L 327.413336 122.015452 
L 369.236733 97.54324 
L 449.472075 89.750316 
L 447.707736 131.325691 
z
" style="fill:#861844;opacity:0.6;stroke-dasharray:0,0;stroke-dashoffset:0;"/>
   </g>
   <g id="patch_110">
    <path clip-path="url(#pa449823109)" d="M 275.936959 106.605059 
L 276.096673 106.381988 
L 286.223293 104.366124 
L 285.171494 105.708147 
z
" style="fill:#875c1e;opacity:0.6;stroke-dasharray:0,0;stroke-dashoffset:0;"/>
   </g>
   <g id="patch_111">
    <path clip-path="url(#pa449823109)" d="M 292.533573 96.219663 
L 281.492458 99.181384 
L 458.535918 -123.832467 
L 457.680656 -103.678867 
z
" style="fill:#889ff8;opacity:0.6;stroke-dasharray:0,0;stroke-dashoffset:0;"/>
   </g>
   <g id="patch_112">
    <path clip-path="url(#pa449823109)" d="M 284.056441 162.212566 
L 447.604342 133.762077 
L 442.238323 260.208377 
z
" style="fill:#89e3d2;opacity:0.6;stroke-dasharray:0,0;stroke-dashoffset:0;"/>
   </g>
   <g id="patch_113">
    <path clip-path="url(#pa449823109)" d="M 285.171489 105.708147 
L 286.223288 104.366125 
L 295.196109 102.579944 
L 293.180758 104.93024 
z
" style="fill:#8b27ac;opacity:0.6;stroke-dasharray:0,0;stroke-dashoffset:0;"/>
   </g>
   <g id="patch_114">
    <path clip-path="url(#pa449823109)" d="M 286.223294 104.366124 
L 292.533581 96.219661 
L 302.787244 93.46917 
L 295.196118 102.579942 
z
" style="fill:#8c6b86;opacity:0.6;stroke-dasharray:0,0;stroke-dashoffset:0;"/>
   </g>
   <g id="patch_115">
    <path clip-path="url(#pa449823109)" d="M 293.180758 104.93024 
L 295.196109 102.579944 
L 323.857276 96.874486 
L 319.802109 102.344619 
z
" style="fill:#8daf60;opacity:0.6;stroke-dasharray:0,0;stroke-dashoffset:0;"/>
   </g>
   <g id="patch_116">
    <path clip-path="url(#pa449823109)" d="M 302.787255 93.469167 
L 292.533573 96.219663 
L 457.680656 -103.678867 
L 457.028731 -88.316716 
z
" style="fill:#8ef33a;opacity:0.6;stroke-dasharray:0,0;stroke-dashoffset:0;"/>
   </g>
   <g id="patch_117">
    <path clip-path="url(#pa449823109)" d="M 295.196118 102.579942 
L 302.787244 93.46917 
L 331.402978 85.79315 
L 323.857267 96.874488 
z
" style="fill:#903714;opacity:0.6;stroke-dasharray:0,0;stroke-dashoffset:0;"/>
   </g>
   <g id="patch_118">
    <path clip-path="url(#pa449823109)" d="M 302.787248 93.469169 
L 457.028731 -88.316722 
L 456.640734 -79.173851 
L 331.402984 85.793148 
z
" style="fill:#917aee;opacity:0.6;stroke-dasharray:0,0;stroke-dashoffset:0;"/>
   </g>
   <g id="patch_119">
    <path clip-path="url(#pa449823109)" d="M 319.802109 102.344619 
L 323.857276 96.874486 
L 375.432644 86.607596 
L 359.29207 98.509124 
z
" style="fill:#92bec8;opacity:0.6;stroke-dasharray:0,0;stroke-dashoffset:0;"/>
   </g>
   <g id="patch_120">
    <path clip-path="url(#pa449823109)" d="M 323.857267 96.874488 
L 331.402978 85.79315 
L 402.344968 66.763335 
L 375.432644 86.607596 
z
" style="fill:#9402a2;opacity:0.6;stroke-dasharray:0,0;stroke-dashoffset:0;"/>
   </g>
   <g id="patch_121">
    <path clip-path="url(#pa449823109)" d="M 402.344968 66.763335 
L 331.402984 85.793148 
L 456.640734 -79.173851 
L 452.001414 30.148306 
z
" style="fill:#95467c;opacity:0.6;stroke-dasharray:0,0;stroke-dashoffset:0;"/>
   </g>
   <g id="patch_122">
    <path clip-path="url(#pa449823109)" d="M 327.413336 122.015452 
L 359.29207 98.509124 
L 369.236733 97.54324 
z
" style="fill:#968a56;opacity:0.6;stroke-dasharray:0,0;stroke-dashoffset:0;"/>
   </g>
   <g id="patch_123">
    <path clip-path="url(#pa449823109)" d="M 369.236725 97.543241 
L 359.29207 98.509124 
L 375.432644 86.607596 
L 388.105574 84.08485 
z
" style="fill:#97ce30;opacity:0.6;stroke-dasharray:0,0;stroke-dashoffset:0;"/>
   </g>
   <g id="patch_124">
    <path clip-path="url(#pa449823109)" d="M 369.236725 97.543241 
L 388.105574 84.08485 
L 450.237378 71.716535 
L 449.472075 89.750316 
z
" style="fill:#99120a;opacity:0.6;stroke-dasharray:0,0;stroke-dashoffset:0;"/>
   </g>
   <g id="patch_125">
    <path clip-path="url(#pa449823109)" d="M 388.10559 84.084847 
L 375.432644 86.607596 
L 402.344968 66.763335 
L 419.21977 62.236758 
z
" style="fill:#9a55e4;opacity:0.6;stroke-dasharray:0,0;stroke-dashoffset:0;"/>
   </g>
   <g id="patch_126">
    <path clip-path="url(#pa449823109)" d="M 388.10559 84.084847 
L 419.21977 62.236758 
L 451.00146 53.711487 
L 450.237378 71.716535 
z
" style="fill:#9b99be;opacity:0.6;stroke-dasharray:0,0;stroke-dashoffset:0;"/>
   </g>
   <g id="matplotlib.axis_1">
    <g id="xtick_1">
     <g id="line2d_1">
      <defs>
       <path d="M 0 0 
L 0 3.5 
" id="m7c3c9be246" style="stroke:#000000;stroke-width:0.8;"/>
      </defs>
      <g>
       <use style="stroke:#000000;stroke-width:0.8;" x="87.48" xlink:href="#m7c3c9be246" y="252"/>
      </g>
     </g>
     <g id="text_1">
      <!-- −4 -->
      <defs>
       <path d="M 10.59375 35.5 
L 73.1875 35.5 
L 73.1875 27.203125 
L 10.59375 27.203125 
z
" id="DejaVuSans-2212"/>
       <path d="M 37.796875 64.3125 
L 12.890625 25.390625 
L 37.796875 25.390625 
z
M 35.203125 72.90625 
L 47.609375 72.90625 
L 47.609375 25.390625 
L 58.015625 25.390625 
L 58.015625 17.1875 
L 47.609375 17.1875 
L 47.609375 0 
L 37.796875 0 
L 37.796875 17.1875 
L 4.890625 17.1875 
L 4.890625 26.703125 
z
" id="DejaVuSans-34"/>
      </defs>
      <g transform="translate(80.108906 266.598437)scale(0.1 -0.1)">
       <use xlink:href="#DejaVuSans-2212"/>
       <use x="83.789062" xlink:href="#DejaVuSans-34"/>
      </g>
     </g>
    </g>
    <g id="xtick_2">
     <g id="line2d_2">
      <g>
       <use style="stroke:#000000;stroke-width:0.8;" x="154.44" xlink:href="#m7c3c9be246" y="252"/>
      </g>
     </g>
     <g id="text_2">
      <!-- −2 -->
      <defs>
       <path d="M 19.1875 8.296875 
L 53.609375 8.296875 
L 53.609375 0 
L 7.328125 0 
L 7.328125 8.296875 
Q 12.9375 14.109375 22.625 23.890625 
Q 32.328125 33.6875 34.8125 36.53125 
Q 39.546875 41.84375 41.421875 45.53125 
Q 43.3125 49.21875 43.3125 52.78125 
Q 43.3125 58.59375 39.234375 62.25 
Q 35.15625 65.921875 28.609375 65.921875 
Q 23.96875 65.921875 18.8125 64.3125 
Q 13.671875 62.703125 7.8125 59.421875 
L 7.8125 69.390625 
Q 13.765625 71.78125 18.9375 73 
Q 24.125 74.21875 28.421875 74.21875 
Q 39.75 74.21875 46.484375 68.546875 
Q 53.21875 62.890625 53.21875 53.421875 
Q 53.21875 48.921875 51.53125 44.890625 
Q 49.859375 40.875 45.40625 35.40625 
Q 44.1875 33.984375 37.640625 27.21875 
Q 31.109375 20.453125 19.1875 8.296875 
z
" id="DejaVuSans-32"/>
      </defs>
      <g transform="translate(147.068906 266.598437)scale(0.1 -0.1)">
       <use xlink:href="#DejaVuSans-2212"/>
       <use x="83.789062" xlink:href="#DejaVuSans-32"/>
      </g>
     </g>
    </g>
    <g id="xtick_3">
     <g id="line2d_3">
      <g>
       <use style="stroke:#000000;stroke-width:0.8;" x="221.4" xlink:href="#m7c3c9be246" y="252"/>
      </g>
     </g>
     <g id="text_3">
      <!-- 0 -->
      <defs>
       <path d="M 31.78125 66.40625 
Q 24.171875 66.40625 20.328125 58.90625 
Q 16.5 51.421875 16.5 36.375 
Q 16.5 21.390625 20.328125 13.890625 
Q 24.171875 6.390625 31.78125 6.390625 
Q 39.453125 6.390625 43.28125 13.890625 
Q 47.125 21.390625 47.125 36.375 
Q 47.125 51.421875 43.28125 58.90625 
Q 39.453125 66.40625 31.78125 66.40625 
z
M 31.78125 74.21875 
Q 44.046875 74.21875 50.515625 64.515625 
Q 56.984375 54.828125 56.984375 36.375 
Q 56.984375 17.96875 50.515625 8.265625 
Q 44.046875 -1.421875 31.78125 -1.421875 
Q 19.53125 -1.421875 13.0625 8.265625 
Q 6.59375 17.96875 6.59375 36.375 
Q 6.59375 54.828125 13.0625 64.515625 
Q 19.53125 74.21875 31.78125 74.21875 
z
" id="DejaVuSans-30"/>
      </defs>
      <g transform="translate(218.21875 266.598437)scale(0.1 -0.1)">
       <use xlink:href="#DejaVuSans-30"/>
      </g>
     </g>
    </g>
    <g id="xtick_4">
     <g id="line2d_4">
      <g>
       <use style="stroke:#000000;stroke-width:0.8;" x="288.36" xlink:href="#m7c3c9be246" y="252"/>
      </g>
     </g>
     <g id="text_4">
      <!-- 2 -->
      <g transform="translate(285.17875 266.598437)scale(0.1 -0.1)">
       <use xlink:href="#DejaVuSans-32"/>
      </g>
     </g>
    </g>
    <g id="xtick_5">
     <g id="line2d_5">
      <g>
       <use style="stroke:#000000;stroke-width:0.8;" x="355.32" xlink:href="#m7c3c9be246" y="252"/>
      </g>
     </g>
     <g id="text_5">
      <!-- 4 -->
      <g transform="translate(352.13875 266.598437)scale(0.1 -0.1)">
       <use xlink:href="#DejaVuSans-34"/>
      </g>
     </g>
    </g>
   </g>
   <g id="matplotlib.axis_2">
    <g id="ytick_1">
     <g id="line2d_6">
      <defs>
       <path d="M 0 0 
L -3.5 0 
" id="m15668ed5bd" style="stroke:#000000;stroke-width:0.8;"/>
      </defs>
      <g>
       <use style="stroke:#000000;stroke-width:0.8;" x="54" xlink:href="#m15668ed5bd" y="230.256"/>
      </g>
     </g>
     <g id="text_6">
      <!-- −4 -->
      <g transform="translate(32.257812 234.055219)scale(0.1 -0.1)">
       <use xlink:href="#DejaVuSans-2212"/>
       <use x="83.789062" xlink:href="#DejaVuSans-34"/>
      </g>
     </g>
    </g>
    <g id="ytick_2">
     <g id="line2d_7">
      <g>
       <use style="stroke:#000000;stroke-width:0.8;" x="54" xlink:href="#m15668ed5bd" y="186.768"/>
      </g>
     </g>
     <g id="text_7">
      <!-- −2 -->
      <g transform="translate(32.257812 190.567219)scale(0.1 -0.1)">
       <use xlink:href="#DejaVuSans-2212"/>
       <use x="83.789062" xlink:href="#DejaVuSans-32"/>
      </g>
     </g>
    </g>
    <g id="ytick_3">
     <g id="line2d_8">
      <g>
       <use style="stroke:#000000;stroke-width:0.8;" x="54" xlink:href="#m15668ed5bd" y="143.28"/>
      </g>
     </g>
     <g id="text_8">
      <!-- 0 -->
      <g transform="translate(40.6375 147.079219)scale(0.1 -0.1)">
       <use xlink:href="#DejaVuSans-30"/>
      </g>
     </g>
    </g>
    <g id="ytick_4">
     <g id="line2d_9">
      <g>
       <use style="stroke:#000000;stroke-width:0.8;" x="54" xlink:href="#m15668ed5bd" y="99.792"/>
      </g>
     </g>
     <g id="text_9">
      <!-- 2 -->
      <g transform="translate(40.6375 103.591219)scale(0.1 -0.1)">
       <use xlink:href="#DejaVuSans-32"/>
      </g>
     </g>
    </g>
    <g id="ytick_5">
     <g id="line2d_10">
      <g>
       <use style="stroke:#000000;stroke-width:0.8;" x="54" xlink:href="#m15668ed5bd" y="56.304"/>
      </g>
     </g>
     <g id="text_10">
      <!-- 4 -->
      <g transform="translate(40.6375 60.103219)scale(0.1 -0.1)">
       <use xlink:href="#DejaVuSans-34"/>
      </g>
     </g>
    </g>
   </g>
   <g id="line2d_11">
    <path clip-path="url(#pa449823109)" d="M 45.015157 289 
L 101.623116 235.503588 
" style="fill:none;stroke:#ff0000;stroke-linecap:square;stroke-width:0.5;"/>
   </g>
   <g id="line2d_12">
    <path clip-path="url(#pa449823109)" d="M 134.441153 203.573002 
L 101.623105 235.503612 
" style="fill:none;stroke:#ff0000;stroke-linecap:square;stroke-width:0.5;"/>
   </g>
   <g id="line2d_13">
    <path clip-path="url(#pa449823109)" d="M 162.829326 175.897816 
L 134.441159 203.572994 
" style="fill:none;stroke:#ff0000;stroke-linecap:square;stroke-width:0.5;"/>
   </g>
   <g id="line2d_14">
    <path clip-path="url(#pa449823109)" d="M 162.829319 175.897817 
L 216.22024 128.695941 
" style="fill:none;stroke:#ff0000;stroke-linecap:square;stroke-width:0.5;"/>
   </g>
   <g id="line2d_15">
    <path clip-path="url(#pa449823109)" d="M 216.220241 128.695941 
L 224.160951 128.461709 
" style="fill:none;stroke:#ff0000;stroke-linecap:square;stroke-width:0.5;"/>
   </g>
   <g id="line2d_16">
    <path clip-path="url(#pa449823109)" d="M 254.438072 148.630741 
L 224.160951 128.461708 
" style="fill:none;stroke:#ff0000;stroke-linecap:square;stroke-width:0.5;"/>
   </g>
   <g id="line2d_17">
    <path clip-path="url(#pa449823109)" d="M 259.440274 145.85441 
L 254.438072 148.630745 
" style="fill:none;stroke:#ff0000;stroke-linecap:square;stroke-width:0.5;"/>
   </g>
   <g id="line2d_18">
    <path clip-path="url(#pa449823109)" d="M 259.440273 145.85441 
L 316.919139 105.47439 
" style="fill:none;stroke:#ff0000;stroke-linecap:square;stroke-width:0.5;"/>
   </g>
   <g id="line2d_19">
    <path clip-path="url(#pa449823109)" d="M 322.132125 102.118315 
L 316.919117 105.47441 
" style="fill:none;stroke:#ff0000;stroke-linecap:square;stroke-width:0.5;"/>
   </g>
   <g id="line2d_20">
    <path clip-path="url(#pa449823109)" d="M 322.132123 102.118315 
L 329.364598 95.778167 
" style="fill:none;stroke:#ff0000;stroke-linecap:square;stroke-width:0.5;"/>
   </g>
   <g id="line2d_21">
    <path clip-path="url(#pa449823109)" d="M 329.364609 95.778165 
L 344.886749 82.176199 
" style="fill:none;stroke:#ff0000;stroke-linecap:square;stroke-width:0.5;"/>
   </g>
   <g id="line2d_22">
    <path clip-path="url(#pa449823109)" d="M 344.886735 82.176203 
L 433 5.934832 
" style="fill:none;stroke:#ff0000;stroke-linecap:square;stroke-width:0.5;"/>
   </g>
   <g id="patch_127">
    <path d="M 54 252 
L 54 34.56 
" style="fill:none;stroke:#000000;stroke-linecap:square;stroke-linejoin:miter;stroke-width:0.8;"/>
   </g>
   <g id="patch_128">
    <path d="M 388.8 252 
L 388.8 34.56 
" style="fill:none;stroke:#000000;stroke-linecap:square;stroke-linejoin:miter;stroke-width:0.8;"/>
   </g>
   <g id="patch_129">
    <path d="M 54 252 
L 388.8 252 
" style="fill:none;stroke:#000000;stroke-linecap:square;stroke-linejoin:miter;stroke-width:0.8;"/>
   </g>
   <g id="patch_130">
    <path d="M 54 34.56 
L 388.8 34.56 
" style="fill:none;stroke:#000000;stroke-linecap:square;stroke-linejoin:miter;stroke-width:0.8;"/>
   </g>
  </g>
 </g>
 <defs>
  <clipPath id="pa449823109">
   <rect height="217.44" width="334.8" x="54" y="34.56"/>
  </clipPath>
 </defs>
</svg>
