<?xml version="1.0" encoding="utf-8" standalone="no"?>
<!DOCTYPE svg PUBLIC "-//W3C//DTD SVG 1.1//EN"
  "http://www.w3.org/Graphics/SVG/1.1/DTD/svg11.dtd">
<!-- Created with matplotlib (http://matplotlib.org/) -->
<svg height="288pt" version="1.1" viewBox="0 0 432 288" width="432pt" xmlns="http://www.w3.org/2000/svg" xmlns:xlink="http://www.w3.org/1999/xlink">
 <defs>
  <style type="text/css">
*{stroke-linecap:butt;stroke-linejoin:round;}
  </style>
 </defs>
 <g id="figure_1">
  <g id="patch_1">
   <path d="M 0 288 
L 432 288 
L 432 0 
L 0 0 
z
" style="fill:#ffffff;"/>
  </g>
  <g id="axes_1">
   <g id="patch_2">
    <path d="M 54 252 
L 388.8 252 
L 388.8 34.56 
L 54 34.56 
z
" style="fill:#ffffff;"/>
   </g>
   <g id="patch_3">
    <path clip-path="url(#p2b5c088fbe)" d="M -587612.494035 433649.543176 
L 133.860532 160.853292 
L 186.731168 159.45072 
L 13.62989 353.389033 
z
" style="opacity:0.6;stroke-dasharray:0,0;stroke-dashoffset:0;"/>
   </g>
   <g id="patch_4">
    <path clip-path="url(#p2b5c088fbe)" d="M 54 219.753934 
L 54 162.971862 
L 133.860532 160.853292 
z
" style="fill:#0143da;opacity:0.6;stroke-dasharray:0,0;stroke-dashoffset:0;"/>
   </g>
   <g id="patch_5">
    <path clip-path="url(#p2b5c088fbe)" d="M 42.553427 163.275521 
L 178.949326 126.68804 
L 179.019319 126.71561 
L 133.860533 160.853292 
z
" style="fill:#0287b4;opacity:0.6;stroke-dasharray:0,0;stroke-dashoffset:0;"/>
   </g>
   <g id="patch_6">
    <path clip-path="url(#p2b5c088fbe)" d="M -170.684257 168.932371 
L 154.004619 116.862236 
L 178.949326 126.68804 
L 42.553427 163.275521 
z
" style="fill:#03cb8e;opacity:0.6;stroke-dasharray:0,0;stroke-dashoffset:0;"/>
   </g>
   <g id="patch_7">
    <path clip-path="url(#p2b5c088fbe)" d="M 54 132.899909 
L 54 77.470081 
L 154.004619 116.862236 
z
" style="fill:#050f68;opacity:0.6;stroke-dasharray:0,0;stroke-dashoffset:0;"/>
   </g>
   <g id="patch_8">
    <path clip-path="url(#p2b5c088fbe)" d="M 154.004619 116.862236 
L -80.191668 24.611532 
L -13.187203 32.403469 
L 205.881715 84.063845 
L 207.551028 108.275035 
z
" style="fill:#065342;opacity:0.6;stroke-dasharray:0,0;stroke-dashoffset:0;"/>
   </g>
   <g id="patch_9">
    <path clip-path="url(#p2b5c088fbe)" d="M 54 48.247415 
L 54 34.56 
L 202.468525 34.56 
L 205.881715 84.063845 
z
" style="fill:#07971c;opacity:0.6;stroke-dasharray:0,0;stroke-dashoffset:0;"/>
   </g>
   <g id="patch_10">
    <path clip-path="url(#p2b5c088fbe)" d="M 13.62989 353.389033 
L 186.731168 159.45072 
L 188.119056 159.413901 
L 68.005962 313.293908 
z
" style="fill:#08daf6;opacity:0.6;stroke-dasharray:0,0;stroke-dashoffset:0;"/>
   </g>
   <g id="patch_11">
    <path clip-path="url(#p2b5c088fbe)" d="M 68.005962 313.293908 
L 188.119056 159.413901 
L 188.580293 159.401666 
L 77.14817 306.552745 
z
" style="fill:#0a1ed0;opacity:0.6;stroke-dasharray:0,0;stroke-dashoffset:0;"/>
   </g>
   <g id="patch_12">
    <path clip-path="url(#p2b5c088fbe)" d="M 77.14817 306.552745 
L 188.580293 159.401666 
L 191.619609 159.321037 
L 172.872221 187.369136 
L 92.442487 295.27522 
z
" style="fill:#0b62aa;opacity:0.6;stroke-dasharray:0,0;stroke-dashoffset:0;"/>
   </g>
   <g id="patch_13">
    <path clip-path="url(#p2b5c088fbe)" d="M 92.442487 295.27522 
L 172.872221 187.369136 
L 108.818858 283.199823 
z
" style="fill:#0ca684;opacity:0.6;stroke-dasharray:0,0;stroke-dashoffset:0;"/>
   </g>
   <g id="patch_14">
    <path clip-path="url(#p2b5c088fbe)" d="M 108.818858 283.199823 
L 172.872221 187.369136 
L 193.821921 159.262614 
L 210.184629 158.828538 
L 181.552873 229.568155 
z
" style="fill:#0dea5e;opacity:0.6;stroke-dasharray:0,0;stroke-dashoffset:0;"/>
   </g>
   <g id="patch_15">
    <path clip-path="url(#p2b5c088fbe)" d="M 133.860533 160.853292 
L 179.019319 126.71561 
L 206.279504 137.453489 
L 196.414483 149.686758 
L 186.731166 159.45072 
z
" style="fill:#0f2e38;opacity:0.6;stroke-dasharray:0,0;stroke-dashoffset:0;"/>
   </g>
   <g id="patch_16">
    <path clip-path="url(#p2b5c088fbe)" d="M 151.131329 252 
L 181.552873 229.568155 
L 172.473617 252 
z
" style="fill:#107212;opacity:0.6;stroke-dasharray:0,0;stroke-dashoffset:0;"/>
   </g>
   <g id="patch_17">
    <path clip-path="url(#p2b5c088fbe)" d="M 154.004619 116.862236 
L 207.551028 108.275035 
L 207.963444 114.256594 
L 179.298441 126.594391 
L 178.949326 126.68804 
z
" style="fill:#11b5ec;opacity:0.6;stroke-dasharray:0,0;stroke-dashoffset:0;"/>
   </g>
   <g id="patch_18">
    <path clip-path="url(#p2b5c088fbe)" d="M 172.473617 252 
L 181.552873 229.568155 
L 214.251545 205.457231 
L 217.460575 252 
z
" style="fill:#12f9c6;opacity:0.6;stroke-dasharray:0,0;stroke-dashoffset:0;"/>
   </g>
   <g id="patch_19">
    <path clip-path="url(#p2b5c088fbe)" d="M 172.872221 187.369136 
L 191.619609 159.321037 
L 193.821921 159.262614 
z
" style="fill:#143da0;opacity:0.6;stroke-dasharray:0,0;stroke-dashoffset:0;"/>
   </g>
   <g id="patch_20">
    <path clip-path="url(#p2b5c088fbe)" d="M 179.298441 126.594391 
L 207.963444 114.256594 
L 208.278133 118.820741 
z
" style="fill:#15817a;opacity:0.6;stroke-dasharray:0,0;stroke-dashoffset:0;"/>
   </g>
   <g id="patch_21">
    <path clip-path="url(#p2b5c088fbe)" d="M 181.552873 229.568155 
L 210.184629 158.828538 
L 211.035035 158.805978 
L 214.251545 205.457231 
z
" style="fill:#16c554;opacity:0.6;stroke-dasharray:0,0;stroke-dashoffset:0;"/>
   </g>
   <g id="patch_22">
    <path clip-path="url(#p2b5c088fbe)" d="M 179.019319 126.71561 
L 179.298448 126.59439 
L 208.278133 118.820741 
L 209.431788 135.552987 
L 206.279503 137.453488 
z
" style="fill:#18092e;opacity:0.6;stroke-dasharray:0,0;stroke-dashoffset:0;"/>
   </g>
   <g id="patch_23">
    <path clip-path="url(#p2b5c088fbe)" d="M 188.119056 159.413901 
L 193.066727 153.838195 
L 188.580292 159.401666 
z
" style="fill:#194d08;opacity:0.6;stroke-dasharray:0,0;stroke-dashoffset:0;"/>
   </g>
   <g id="patch_24">
    <path clip-path="url(#p2b5c088fbe)" d="M 186.731166 159.45072 
L 196.414483 149.686758 
L 193.066727 153.838195 
L 188.119056 159.413901 
z
" style="fill:#1a90e2;opacity:0.6;stroke-dasharray:0,0;stroke-dashoffset:0;"/>
   </g>
   <g id="patch_25">
    <path clip-path="url(#p2b5c088fbe)" d="M 191.619606 159.321037 
L 188.580292 159.401666 
L 193.066727 153.838195 
L 199.60762 146.467028 
L 207.909827 138.095678 
L 208.812776 138.451353 
z
" style="fill:#1bd4bc;opacity:0.6;stroke-dasharray:0,0;stroke-dashoffset:0;"/>
   </g>
   <g id="patch_26">
    <path clip-path="url(#p2b5c088fbe)" d="M 191.619606 159.321037 
L 208.812776 138.451353 
L 209.654484 138.782905 
L 209.696746 139.395864 
L 193.821921 159.262614 
z
" style="fill:#1d1896;opacity:0.6;stroke-dasharray:0,0;stroke-dashoffset:0;"/>
   </g>
   <g id="patch_27">
    <path clip-path="url(#p2b5c088fbe)" d="M 193.821923 159.262614 
L 209.696747 139.395866 
L 210.912584 157.029999 
L 210.184629 158.828538 
z
" style="fill:#1e5c70;opacity:0.6;stroke-dasharray:0,0;stroke-dashoffset:0;"/>
   </g>
   <g id="patch_28">
    <path clip-path="url(#p2b5c088fbe)" d="M 193.066727 153.838195 
L 196.414483 149.686758 
L 199.60762 146.467028 
z
" style="fill:#1fa04a;opacity:0.6;stroke-dasharray:0,0;stroke-dashoffset:0;"/>
   </g>
   <g id="patch_29">
    <path clip-path="url(#p2b5c088fbe)" d="M 199.60762 146.467028 
L 196.414483 149.686758 
L 206.279504 137.453489 
L 207.262353 137.840636 
z
" style="fill:#20e424;opacity:0.6;stroke-dasharray:0,0;stroke-dashoffset:0;"/>
   </g>
   <g id="patch_30">
    <path clip-path="url(#p2b5c088fbe)" d="M 199.60762 146.467028 
L 207.262353 137.840636 
L 207.909827 138.095678 
z
" style="fill:#2227fe;opacity:0.6;stroke-dasharray:0,0;stroke-dashoffset:0;"/>
   </g>
   <g id="patch_31">
    <path clip-path="url(#p2b5c088fbe)" d="M 205.881715 84.063845 
L 91.209694 -1579.103246 
L 239.726837 -14.357689 
L 228.17871 89.321876 
z
" style="fill:#236bd8;opacity:0.6;stroke-dasharray:0,0;stroke-dashoffset:0;"/>
   </g>
   <g id="patch_32">
    <path clip-path="url(#p2b5c088fbe)" d="M 206.279503 137.453488 
L 209.431788 135.552987 
L 209.484497 136.317463 
L 207.262353 137.840636 
z
" style="fill:#24afb2;opacity:0.6;stroke-dasharray:0,0;stroke-dashoffset:0;"/>
   </g>
   <g id="patch_33">
    <path clip-path="url(#p2b5c088fbe)" d="M 216.58128 106.826859 
L 207.551028 108.275035 
L 205.881715 84.063845 
L 228.178704 89.321874 
L 230.157625 91.919294 
z
" style="fill:#25f38c;opacity:0.6;stroke-dasharray:0,0;stroke-dashoffset:0;"/>
   </g>
   <g id="patch_34">
    <path clip-path="url(#p2b5c088fbe)" d="M 207.909828 138.095679 
L 209.543828 137.177983 
L 209.597951 137.962973 
L 208.812776 138.451353 
z
" style="fill:#273766;opacity:0.6;stroke-dasharray:0,0;stroke-dashoffset:0;"/>
   </g>
   <g id="patch_35">
    <path clip-path="url(#p2b5c088fbe)" d="M 207.909828 138.095679 
L 207.262353 137.840636 
L 209.484497 136.317463 
L 209.543828 137.177983 
z
" style="fill:#287b40;opacity:0.6;stroke-dasharray:0,0;stroke-dashoffset:0;"/>
   </g>
   <g id="patch_36">
    <path clip-path="url(#p2b5c088fbe)" d="M 209.431788 135.552987 
L 208.278133 118.820741 
L 228.582168 113.374291 
L 220.243468 133.976465 
L 219.969547 134.036067 
z
" style="fill:#29bf1a;opacity:0.6;stroke-dasharray:0,0;stroke-dashoffset:0;"/>
   </g>
   <g id="patch_37">
    <path clip-path="url(#p2b5c088fbe)" d="M 208.278133 118.820741 
L 207.963444 114.256595 
L 216.581281 106.826859 
L 232.249225 104.314201 
L 228.582168 113.374291 
z
" style="fill:#2b02f4;opacity:0.6;stroke-dasharray:0,0;stroke-dashoffset:0;"/>
   </g>
   <g id="patch_38">
    <path clip-path="url(#p2b5c088fbe)" d="M 207.963444 114.256595 
L 207.551028 108.275035 
L 216.581281 106.826859 
z
" style="fill:#2c46ce;opacity:0.6;stroke-dasharray:0,0;stroke-dashoffset:0;"/>
   </g>
   <g id="patch_39">
    <path clip-path="url(#p2b5c088fbe)" d="M 210.912584 157.029999 
L 209.696746 139.395864 
L 210.256065 139.019869 
L 217.109502 141.719461 
z
" style="fill:#2d8aa8;opacity:0.6;stroke-dasharray:0,0;stroke-dashoffset:0;"/>
   </g>
   <g id="patch_40">
    <path clip-path="url(#p2b5c088fbe)" d="M 210.256066 139.01987 
L 209.654484 138.782905 
L 209.597951 137.962973 
L 216.384577 136.036904 
z
" style="fill:#2ece82;opacity:0.6;stroke-dasharray:0,0;stroke-dashoffset:0;"/>
   </g>
   <g id="patch_41">
    <path clip-path="url(#p2b5c088fbe)" d="M 209.597951 137.962973 
L 209.543828 137.177982 
L 217.327462 135.577968 
L 216.384577 136.036904 
z
" style="fill:#30125c;opacity:0.6;stroke-dasharray:0,0;stroke-dashoffset:0;"/>
   </g>
   <g id="patch_42">
    <path clip-path="url(#p2b5c088fbe)" d="M 209.543828 137.177982 
L 209.484497 136.317463 
L 219.969547 134.036067 
L 220.234799 133.997883 
L 220.151641 134.203338 
L 217.327462 135.577968 
z
" style="fill:#315636;opacity:0.6;stroke-dasharray:0,0;stroke-dashoffset:0;"/>
   </g>
   <g id="patch_43">
    <path clip-path="url(#p2b5c088fbe)" d="M 214.251545 205.457231 
L 211.035035 158.805978 
L 242.879839 157.961187 
L 253.482571 176.529564 
z
" style="fill:#329a10;opacity:0.6;stroke-dasharray:0,0;stroke-dashoffset:0;"/>
   </g>
   <g id="patch_44">
    <path clip-path="url(#p2b5c088fbe)" d="M 211.035035 158.805978 
L 210.912584 157.029999 
L 217.109502 141.719461 
L 237.567109 149.777781 
L 242.879838 157.961187 
z
" style="fill:#33ddea;opacity:0.6;stroke-dasharray:0,0;stroke-dashoffset:0;"/>
   </g>
   <g id="patch_45">
    <path clip-path="url(#p2b5c088fbe)" d="M 210.256067 139.01987 
L 216.384582 136.036902 
L 219.772961 135.075268 
L 219.801068 135.06949 
L 217.109502 141.719461 
z
" style="fill:#3521c4;opacity:0.6;stroke-dasharray:0,0;stroke-dashoffset:0;"/>
   </g>
   <g id="patch_46">
    <path clip-path="url(#p2b5c088fbe)" d="M 209.484497 136.317463 
L 209.431788 135.552987 
L 219.969547 134.036067 
z
" style="fill:#36659e;opacity:0.6;stroke-dasharray:0,0;stroke-dashoffset:0;"/>
   </g>
   <g id="patch_47">
    <path clip-path="url(#p2b5c088fbe)" d="M 214.251545 205.457231 
L 253.482571 176.529564 
L 258.684818 185.379635 
L 387.720742 1544.875143 
L 356.814824 2273.150402 
z
" style="fill:#37a978;opacity:0.6;stroke-dasharray:0,0;stroke-dashoffset:0;"/>
   </g>
   <g id="patch_48">
    <path clip-path="url(#p2b5c088fbe)" d="M 217.109502 141.719461 
L 219.801068 135.069491 
L 219.947679 135.165723 
L 226.096106 139.334208 
L 237.567108 149.777781 
z
" style="fill:#38ed52;opacity:0.6;stroke-dasharray:0,0;stroke-dashoffset:0;"/>
   </g>
   <g id="patch_49">
    <path clip-path="url(#p2b5c088fbe)" d="M 216.581284 106.826859 
L 230.157627 91.919296 
L 234.79986 98.012425 
L 232.249225 104.314201 
z
" style="fill:#3a312c;opacity:0.6;stroke-dasharray:0,0;stroke-dashoffset:0;"/>
   </g>
   <g id="patch_50">
    <path clip-path="url(#p2b5c088fbe)" d="M 217.327465 135.577967 
L 220.151641 134.203339 
L 219.802073 135.067006 
L 219.772961 135.075268 
z
" style="fill:#3b7506;opacity:0.6;stroke-dasharray:0,0;stroke-dashoffset:0;"/>
   </g>
   <g id="patch_51">
    <path clip-path="url(#p2b5c088fbe)" d="M 219.947679 135.165723 
L 219.802073 135.067006 
L 220.151641 134.203339 
L 224.557157 137.933098 
L 225.573404 138.858323 
z
" style="fill:#3cb8e0;opacity:0.6;stroke-dasharray:0,0;stroke-dashoffset:0;"/>
   </g>
   <g id="patch_52">
    <path clip-path="url(#p2b5c088fbe)" d="M 226.088349 139.196321 
L 220.243468 133.976466 
L 228.582168 113.374291 
L 244.492242 109.106497 
L 251.893218 113.824757 
L 255.994637 157.036446 
L 249.176096 154.3506 
z
" style="fill:#3dfcba;opacity:0.6;stroke-dasharray:0,0;stroke-dashoffset:0;"/>
   </g>
   <g id="patch_53">
    <path clip-path="url(#p2b5c088fbe)" d="M 224.557146 137.933089 
L 220.234799 133.997884 
L 220.243468 133.976466 
L 226.088349 139.196321 
L 225.914343 139.082107 
z
" style="fill:#3f4094;opacity:0.6;stroke-dasharray:0,0;stroke-dashoffset:0;"/>
   </g>
   <g id="patch_54">
    <path clip-path="url(#p2b5c088fbe)" d="M 239.401208 150.500239 
L 226.800936 139.832707 
L 226.704971 139.747004 
L 246.95383 153.475242 
z
" style="fill:#40846e;opacity:0.6;stroke-dasharray:0,0;stroke-dashoffset:0;"/>
   </g>
   <g id="patch_55">
    <path clip-path="url(#p2b5c088fbe)" d="M 228.582168 113.374291 
L 232.249225 104.314201 
L 238.211707 103.358002 
L 244.492248 109.106496 
z
" style="fill:#41c848;opacity:0.6;stroke-dasharray:0,0;stroke-dashoffset:0;"/>
   </g>
   <g id="patch_56">
    <path clip-path="url(#p2b5c088fbe)" d="M 230.157625 91.919294 
L 228.178704 89.321874 
L 231.755045 90.16524 
z
" style="fill:#430c22;opacity:0.6;stroke-dasharray:0,0;stroke-dashoffset:0;"/>
   </g>
   <g id="patch_57">
    <path clip-path="url(#p2b5c088fbe)" d="M 231.755046 90.16524 
L 228.17871 89.321876 
L 239.726837 -14.357689 
L 247.022934 62.512463 
z
" style="fill:#444ffc;opacity:0.6;stroke-dasharray:0,0;stroke-dashoffset:0;"/>
   </g>
   <g id="patch_58">
    <path clip-path="url(#p2b5c088fbe)" d="M 230.157625 91.919294 
L 231.755045 90.16524 
L 237.433961 91.50443 
L 234.79986 98.012425 
z
" style="fill:#4593d6;opacity:0.6;stroke-dasharray:0,0;stroke-dashoffset:0;"/>
   </g>
   <g id="patch_59">
    <path clip-path="url(#p2b5c088fbe)" d="M 237.567108 149.777781 
L 226.096106 139.334208 
L 226.678536 139.729082 
L 226.800936 139.832707 
L 238.228598 150.038344 
z
" style="fill:#46d7b0;opacity:0.6;stroke-dasharray:0,0;stroke-dashoffset:0;"/>
   </g>
   <g id="patch_60">
    <path clip-path="url(#p2b5c088fbe)" d="M 231.755046 90.16524 
L 247.022934 62.512463 
L 247.430484 66.806323 
L 237.433961 91.50443 
z
" style="fill:#481b8a;opacity:0.6;stroke-dasharray:0,0;stroke-dashoffset:0;"/>
   </g>
   <g id="patch_61">
    <path clip-path="url(#p2b5c088fbe)" d="M 238.228598 150.038344 
L 226.800936 139.832707 
L 239.401208 150.500239 
z
" style="fill:#495f64;opacity:0.6;stroke-dasharray:0,0;stroke-dashoffset:0;"/>
   </g>
   <g id="patch_62">
    <path clip-path="url(#p2b5c088fbe)" d="M 232.249225 104.314201 
L 234.79986 98.012426 
L 238.211701 103.358003 
z
" style="fill:#4aa33e;opacity:0.6;stroke-dasharray:0,0;stroke-dashoffset:0;"/>
   </g>
   <g id="patch_63">
    <path clip-path="url(#p2b5c088fbe)" d="M 238.211701 103.358003 
L 234.79986 98.012426 
L 237.433961 91.50443 
L 250.057235 94.481224 
L 250.709536 101.353734 
z
" style="fill:#4be718;opacity:0.6;stroke-dasharray:0,0;stroke-dashoffset:0;"/>
   </g>
   <g id="patch_64">
    <path clip-path="url(#p2b5c088fbe)" d="M 242.879838 157.961187 
L 237.567109 149.777781 
L 238.228598 150.038344 
L 244.509274 157.91796 
z
" style="fill:#4d2af2;opacity:0.6;stroke-dasharray:0,0;stroke-dashoffset:0;"/>
   </g>
   <g id="patch_65">
    <path clip-path="url(#p2b5c088fbe)" d="M 244.509274 157.91796 
L 238.228598 150.038344 
L 239.40121 150.50024 
L 246.534399 157.864237 
z
" style="fill:#4e6ecc;opacity:0.6;stroke-dasharray:0,0;stroke-dashoffset:0;"/>
   </g>
   <g id="patch_66">
    <path clip-path="url(#p2b5c088fbe)" d="M 244.492248 109.106496 
L 238.211707 103.358002 
L 250.709536 101.353734 
L 251.272752 107.287661 
z
" style="fill:#4fb2a6;opacity:0.6;stroke-dasharray:0,0;stroke-dashoffset:0;"/>
   </g>
   <g id="patch_67">
    <path clip-path="url(#p2b5c088fbe)" d="M 237.433961 91.50443 
L 247.430484 66.806323 
L 250.057235 94.481224 
z
" style="fill:#50f680;opacity:0.6;stroke-dasharray:0,0;stroke-dashoffset:0;"/>
   </g>
   <g id="patch_68">
    <path clip-path="url(#p2b5c088fbe)" d="M 246.534398 157.864237 
L 239.401207 150.500239 
L 246.953831 153.475243 
L 251.288388 157.738121 
z
" style="fill:#523a5a;opacity:0.6;stroke-dasharray:0,0;stroke-dashoffset:0;"/>
   </g>
   <g id="patch_69">
    <path clip-path="url(#p2b5c088fbe)" d="M 246.95383 153.475242 
L 226.704971 139.747004 
L 226.088349 139.196321 
L 249.176096 154.3506 
z
" style="fill:#537e34;opacity:0.6;stroke-dasharray:0,0;stroke-dashoffset:0;"/>
   </g>
   <g id="patch_70">
    <path clip-path="url(#p2b5c088fbe)" d="M 253.482571 176.529564 
L 242.879839 157.961187 
L 244.509272 157.91796 
L 255.252542 175.224446 
z
" style="fill:#54c20e;opacity:0.6;stroke-dasharray:0,0;stroke-dashoffset:0;"/>
   </g>
   <g id="patch_71">
    <path clip-path="url(#p2b5c088fbe)" d="M 244.509272 157.91796 
L 246.534397 157.864237 
L 257.286242 170.644531 
L 257.559487 173.523381 
L 255.252542 175.224446 
z
" style="fill:#5605e8;opacity:0.6;stroke-dasharray:0,0;stroke-dashoffset:0;"/>
   </g>
   <g id="patch_72">
    <path clip-path="url(#p2b5c088fbe)" d="M 244.492242 109.106497 
L 251.272752 107.287661 
L 251.893218 113.824757 
z
" style="fill:#5749c2;opacity:0.6;stroke-dasharray:0,0;stroke-dashoffset:0;"/>
   </g>
   <g id="patch_73">
    <path clip-path="url(#p2b5c088fbe)" d="M 247.022933 62.512455 
L 239.726836 -14.357699 
L 265.442503 5.463154 
z
" style="fill:#588d9c;opacity:0.6;stroke-dasharray:0,0;stroke-dashoffset:0;"/>
   </g>
   <g id="patch_74">
    <path clip-path="url(#p2b5c088fbe)" d="M 246.534397 157.864237 
L 251.288385 157.738122 
L 256.877241 166.335378 
L 257.286242 170.644531 
z
" style="fill:#59d176;opacity:0.6;stroke-dasharray:0,0;stroke-dashoffset:0;"/>
   </g>
   <g id="patch_75">
    <path clip-path="url(#p2b5c088fbe)" d="M 247.430484 66.806323 
L 247.022933 62.512455 
L 265.442503 5.463154 
L 270.638162 9.46781 
z
" style="fill:#5b1550;opacity:0.6;stroke-dasharray:0,0;stroke-dashoffset:0;"/>
   </g>
   <g id="patch_76">
    <path clip-path="url(#p2b5c088fbe)" d="M 251.288388 157.738121 
L 246.953831 153.475243 
L 249.176094 154.350599 
L 253.087341 157.690398 
z
" style="fill:#5c592a;opacity:0.6;stroke-dasharray:0,0;stroke-dashoffset:0;"/>
   </g>
   <g id="patch_77">
    <path clip-path="url(#p2b5c088fbe)" d="M 307.117264 92.307665 
L 267.667895 98.634133 
L 250.057235 94.481224 
L 247.430484 66.806323 
L 270.638164 9.467805 
L 377.349595 18.257177 
L 335.856454 84.598528 
z
" style="fill:#5d9d04;opacity:0.6;stroke-dasharray:0,0;stroke-dashoffset:0;"/>
   </g>
   <g id="patch_78">
    <path clip-path="url(#p2b5c088fbe)" d="M 251.272752 107.287661 
L 250.709536 101.353734 
L 267.667895 98.634133 
L 276.11053 100.625058 
z
" style="fill:#5ee0de;opacity:0.6;stroke-dasharray:0,0;stroke-dashoffset:0;"/>
   </g>
   <g id="patch_79">
    <path clip-path="url(#p2b5c088fbe)" d="M 250.709536 101.353734 
L 250.057235 94.481224 
L 267.667895 98.634133 
z
" style="fill:#6024b8;opacity:0.6;stroke-dasharray:0,0;stroke-dashoffset:0;"/>
   </g>
   <g id="patch_80">
    <path clip-path="url(#p2b5c088fbe)" d="M 251.288385 157.738122 
L 253.087339 157.690398 
L 256.377667 161.071968 
L 256.877241 166.335378 
z
" style="fill:#616892;opacity:0.6;stroke-dasharray:0,0;stroke-dashoffset:0;"/>
   </g>
   <g id="patch_81">
    <path clip-path="url(#p2b5c088fbe)" d="M 253.087341 157.690398 
L 249.176094 154.350599 
L 255.994637 157.036446 
L 256.049248 157.611824 
z
" style="fill:#62ac6c;opacity:0.6;stroke-dasharray:0,0;stroke-dashoffset:0;"/>
   </g>
   <g id="patch_82">
    <path clip-path="url(#p2b5c088fbe)" d="M 273.427754 151.918942 
L 269.176919 153.865165 
L 259.845706 157.51111 
L 257.366622 157.576876 
L 255.994637 157.036446 
L 251.893218 113.824755 
L 314.447532 114.642435 
L 276.909705 149.141826 
z
" style="fill:#63f046;opacity:0.6;stroke-dasharray:0,0;stroke-dashoffset:0;"/>
   </g>
   <g id="patch_83">
    <path clip-path="url(#p2b5c088fbe)" d="M 251.893218 113.824755 
L 251.272752 107.287661 
L 276.11053 100.625058 
L 318.75694 110.681845 
L 314.447532 114.642435 
z
" style="fill:#653420;opacity:0.6;stroke-dasharray:0,0;stroke-dashoffset:0;"/>
   </g>
   <g id="patch_84">
    <path clip-path="url(#p2b5c088fbe)" d="M 253.482572 176.529563 
L 255.252543 175.224445 
L 258.147792 179.721637 
L 258.684818 185.379633 
z
" style="fill:#6677fa;opacity:0.6;stroke-dasharray:0,0;stroke-dashoffset:0;"/>
   </g>
   <g id="patch_85">
    <path clip-path="url(#p2b5c088fbe)" d="M 253.087339 157.690398 
L 256.049248 157.611824 
L 256.377667 161.071968 
z
" style="fill:#67bbd4;opacity:0.6;stroke-dasharray:0,0;stroke-dashoffset:0;"/>
   </g>
   <g id="patch_86">
    <path clip-path="url(#p2b5c088fbe)" d="M 255.252543 175.224445 
L 257.559487 173.523381 
L 258.147792 179.721637 
z
" style="fill:#68ffae;opacity:0.6;stroke-dasharray:0,0;stroke-dashoffset:0;"/>
   </g>
   <g id="patch_87">
    <path clip-path="url(#p2b5c088fbe)" d="M 257.559487 173.523381 
L 257.286243 170.644542 
L 263.604073 160.033829 
L 264.772985 160.494267 
L 262.519699 169.865884 
z
" style="fill:#6a4388;opacity:0.6;stroke-dasharray:0,0;stroke-dashoffset:0;"/>
   </g>
   <g id="patch_88">
    <path clip-path="url(#p2b5c088fbe)" d="M 257.286243 170.644542 
L 256.87724 166.33537 
L 259.563968 158.442418 
L 263.604073 160.033829 
z
" style="fill:#6b8762;opacity:0.6;stroke-dasharray:0,0;stroke-dashoffset:0;"/>
   </g>
   <g id="patch_89">
    <path clip-path="url(#p2b5c088fbe)" d="M 256.87724 166.33537 
L 256.377666 161.07196 
L 258.585275 158.056907 
L 259.563968 158.442418 
z
" style="fill:#6ccb3c;opacity:0.6;stroke-dasharray:0,0;stroke-dashoffset:0;"/>
   </g>
   <g id="patch_90">
    <path clip-path="url(#p2b5c088fbe)" d="M 256.377666 161.07196 
L 256.049248 157.611824 
L 257.366622 157.576876 
L 258.585275 158.056907 
z
" style="fill:#6e0f16;opacity:0.6;stroke-dasharray:0,0;stroke-dashoffset:0;"/>
   </g>
   <g id="patch_91">
    <path clip-path="url(#p2b5c088fbe)" d="M 258.684818 185.379636 
L 260.349679 178.644536 
L 282.876219 167.625192 
L 443.482572 230.888573 
L 387.720742 1544.875143 
z
" style="fill:#6f52f0;opacity:0.6;stroke-dasharray:0,0;stroke-dashoffset:0;"/>
   </g>
   <g id="patch_92">
    <path clip-path="url(#p2b5c088fbe)" d="M 258.684818 185.379636 
L 258.147792 179.721637 
L 260.349679 178.644536 
z
" style="fill:#7096ca;opacity:0.6;stroke-dasharray:0,0;stroke-dashoffset:0;"/>
   </g>
   <g id="patch_93">
    <path clip-path="url(#p2b5c088fbe)" d="M 258.147792 179.721637 
L 257.559487 173.523381 
L 262.519688 169.865892 
L 260.349679 178.644536 
z
" style="fill:#71daa4;opacity:0.6;stroke-dasharray:0,0;stroke-dashoffset:0;"/>
   </g>
   <g id="patch_94">
    <path clip-path="url(#p2b5c088fbe)" d="M 258.585274 158.056907 
L 259.845704 157.51111 
L 261.297774 157.472589 
L 259.563966 158.442417 
z
" style="fill:#731e7e;opacity:0.6;stroke-dasharray:0,0;stroke-dashoffset:0;"/>
   </g>
   <g id="patch_95">
    <path clip-path="url(#p2b5c088fbe)" d="M 260.349679 178.644536 
L 262.519688 169.865892 
L 271.588436 163.178896 
L 282.876219 167.625192 
z
" style="fill:#746258;opacity:0.6;stroke-dasharray:0,0;stroke-dashoffset:0;"/>
   </g>
   <g id="patch_96">
    <path clip-path="url(#p2b5c088fbe)" d="M 259.563966 158.442417 
L 261.297774 157.472589 
L 266.642357 157.330806 
L 263.60407 160.033828 
z
" style="fill:#75a632;opacity:0.6;stroke-dasharray:0,0;stroke-dashoffset:0;"/>
   </g>
   <g id="patch_97">
    <path clip-path="url(#p2b5c088fbe)" d="M 261.297778 157.472589 
L 269.176919 153.865165 
L 272.726481 152.478259 
L 266.642353 157.330806 
z
" style="fill:#76ea0c;opacity:0.6;stroke-dasharray:0,0;stroke-dashoffset:0;"/>
   </g>
   <g id="patch_98">
    <path clip-path="url(#p2b5c088fbe)" d="M 262.519699 169.865884 
L 264.772985 160.494267 
L 271.588436 163.178896 
z
" style="fill:#782de6;opacity:0.6;stroke-dasharray:0,0;stroke-dashoffset:0;"/>
   </g>
   <g id="patch_99">
    <path clip-path="url(#p2b5c088fbe)" d="M 263.60407 160.033828 
L 266.642357 157.330806 
L 268.039834 157.293733 
L 264.772978 160.494264 
z
" style="fill:#7971c0;opacity:0.6;stroke-dasharray:0,0;stroke-dashoffset:0;"/>
   </g>
   <g id="patch_100">
    <path clip-path="url(#p2b5c088fbe)" d="M 259.845706 157.51111 
L 269.176919 153.865165 
L 261.297778 157.472589 
z
" style="fill:#7ab59a;opacity:0.6;stroke-dasharray:0,0;stroke-dashoffset:0;"/>
   </g>
   <g id="patch_101">
    <path clip-path="url(#p2b5c088fbe)" d="M 264.772983 160.494266 
L 268.039841 157.293733 
L 280.000051 156.976448 
L 271.588436 163.178896 
z
" style="fill:#7bf974;opacity:0.6;stroke-dasharray:0,0;stroke-dashoffset:0;"/>
   </g>
   <g id="patch_102">
    <path clip-path="url(#p2b5c088fbe)" d="M 266.642353 157.330806 
L 272.726481 152.478259 
L 273.688352 152.102431 
L 268.039842 157.293733 
z
" style="fill:#7d3d4e;opacity:0.6;stroke-dasharray:0,0;stroke-dashoffset:0;"/>
   </g>
   <g id="patch_103">
    <path clip-path="url(#p2b5c088fbe)" d="M 268.039842 157.293733 
L 273.688352 152.102431 
L 301.175135 141.362638 
L 280.000051 156.976448 
z
" style="fill:#7e8128;opacity:0.6;stroke-dasharray:0,0;stroke-dashoffset:0;"/>
   </g>
   <g id="patch_104">
    <path clip-path="url(#p2b5c088fbe)" d="M 267.667895 98.634133 
L 307.117264 92.307665 
L 276.11053 100.625058 
z
" style="fill:#7fc502;opacity:0.6;stroke-dasharray:0,0;stroke-dashoffset:0;"/>
   </g>
   <g id="patch_105">
    <path clip-path="url(#p2b5c088fbe)" d="M 282.876224 167.625194 
L 271.588436 163.178896 
L 280.000051 156.976448 
L 446.80698 152.55133 
L 446.340378 163.546461 
z
" style="fill:#8108dc;opacity:0.6;stroke-dasharray:0,0;stroke-dashoffset:0;"/>
   </g>
   <g id="patch_106">
    <path clip-path="url(#p2b5c088fbe)" d="M 308.85857 135.697126 
L 274.344891 151.499036 
L 276.909705 149.141826 
L 320.072884 114.715967 
L 336.790544 114.934492 
L 336.961648 114.974842 
z
" style="fill:#824cb6;opacity:0.6;stroke-dasharray:0,0;stroke-dashoffset:0;"/>
   </g>
   <g id="patch_107">
    <path clip-path="url(#p2b5c088fbe)" d="M 273.688352 152.102431 
L 274.344891 151.499036 
L 308.85857 135.697126 
L 301.175135 141.362638 
z
" style="fill:#839090;opacity:0.6;stroke-dasharray:0,0;stroke-dashoffset:0;"/>
   </g>
   <g id="patch_108">
    <path clip-path="url(#p2b5c088fbe)" d="M 276.909705 149.141826 
L 314.447532 114.642435 
L 320.072884 114.715967 
z
" style="fill:#84d46a;opacity:0.6;stroke-dasharray:0,0;stroke-dashoffset:0;"/>
   </g>
   <g id="patch_109">
    <path clip-path="url(#p2b5c088fbe)" d="M 276.11053 100.625058 
L 307.117264 92.307665 
L 333.839877 88.022177 
L 318.756948 110.681847 
z
" style="fill:#861844;opacity:0.6;stroke-dasharray:0,0;stroke-dashoffset:0;"/>
   </g>
   <g id="patch_110">
    <path clip-path="url(#p2b5c088fbe)" d="M 280.000051 156.976448 
L 301.175117 141.362651 
L 356.302487 119.535758 
L 447.29744 140.993998 
L 446.80698 152.55133 
z
" style="fill:#875c1e;opacity:0.6;stroke-dasharray:0,0;stroke-dashoffset:0;"/>
   </g>
   <g id="patch_111">
    <path clip-path="url(#p2b5c088fbe)" d="M 282.876224 167.625194 
L 446.340378 163.546461 
L 443.482572 230.888573 
z
" style="fill:#889ff8;opacity:0.6;stroke-dasharray:0,0;stroke-dashoffset:0;"/>
   </g>
   <g id="patch_112">
    <path clip-path="url(#p2b5c088fbe)" d="M 301.175117 141.362651 
L 308.858557 135.697135 
L 348.465604 117.687681 
L 356.302487 119.535758 
z
" style="fill:#89e3d2;opacity:0.6;stroke-dasharray:0,0;stroke-dashoffset:0;"/>
   </g>
   <g id="patch_113">
    <path clip-path="url(#p2b5c088fbe)" d="M 308.858557 135.697135 
L 336.961648 114.974842 
L 348.465604 117.687681 
z
" style="fill:#8b27ac;opacity:0.6;stroke-dasharray:0,0;stroke-dashoffset:0;"/>
   </g>
   <g id="patch_114">
    <path clip-path="url(#p2b5c088fbe)" d="M 307.117264 92.307665 
L 335.856442 84.598532 
L 333.839866 88.022179 
z
" style="fill:#8c6b86;opacity:0.6;stroke-dasharray:0,0;stroke-dashoffset:0;"/>
   </g>
   <g id="patch_115">
    <path clip-path="url(#p2b5c088fbe)" d="M 314.447532 114.642435 
L 318.75694 110.681845 
L 323.676353 111.841931 
L 320.072884 114.715967 
z
" style="fill:#8daf60;opacity:0.6;stroke-dasharray:0,0;stroke-dashoffset:0;"/>
   </g>
   <g id="patch_116">
    <path clip-path="url(#p2b5c088fbe)" d="M 323.67635 111.84193 
L 318.756953 110.681849 
L 333.839884 88.022176 
L 345.753021 86.111675 
z
" style="fill:#8ef33a;opacity:0.6;stroke-dasharray:0,0;stroke-dashoffset:0;"/>
   </g>
   <g id="patch_117">
    <path clip-path="url(#p2b5c088fbe)" d="M 320.072884 114.715967 
L 323.676353 111.841931 
L 336.790544 114.934492 
z
" style="fill:#903714;opacity:0.6;stroke-dasharray:0,0;stroke-dashoffset:0;"/>
   </g>
   <g id="patch_118">
    <path clip-path="url(#p2b5c088fbe)" d="M 337.195906 114.802108 
L 336.790546 114.934493 
L 323.67635 111.84193 
L 345.753021 86.111675 
L 384.541211 79.891239 
z
" style="fill:#917aee;opacity:0.6;stroke-dasharray:0,0;stroke-dashoffset:0;"/>
   </g>
   <g id="patch_119">
    <path clip-path="url(#p2b5c088fbe)" d="M 333.839873 88.022178 
L 335.856449 84.59853 
L 347.743687 81.409841 
L 345.753025 86.111674 
z
" style="fill:#92bec8;opacity:0.6;stroke-dasharray:0,0;stroke-dashoffset:0;"/>
   </g>
   <g id="patch_120">
    <path clip-path="url(#p2b5c088fbe)" d="M 335.856454 84.598528 
L 377.349595 18.257177 
L 382.813711 18.707233 
L 347.743688 81.409841 
z
" style="fill:#9402a2;opacity:0.6;stroke-dasharray:0,0;stroke-dashoffset:0;"/>
   </g>
   <g id="patch_121">
    <path clip-path="url(#p2b5c088fbe)" d="M 366.869515 106.899129 
L 337.195906 114.802108 
L 384.541211 79.891239 
L 423.636969 73.621478 
z
" style="fill:#95467c;opacity:0.6;stroke-dasharray:0,0;stroke-dashoffset:0;"/>
   </g>
   <g id="patch_122">
    <path clip-path="url(#p2b5c088fbe)" d="M 336.961648 114.974842 
L 337.195906 114.802108 
L 366.869515 106.899129 
L 348.46561 117.687682 
z
" style="fill:#968a56;opacity:0.6;stroke-dasharray:0,0;stroke-dashoffset:0;"/>
   </g>
   <g id="patch_123">
    <path clip-path="url(#p2b5c088fbe)" d="M 345.753025 86.111674 
L 347.743687 81.409841 
L 402.344968 66.763335 
L 384.541211 79.891239 
z
" style="fill:#97ce30;opacity:0.6;stroke-dasharray:0,0;stroke-dashoffset:0;"/>
   </g>
   <g id="patch_124">
    <path clip-path="url(#p2b5c088fbe)" d="M 347.743688 81.409841 
L 382.813711 18.707233 
L 452.244255 24.425935 
L 452.001414 30.148306 
L 402.344968 66.763335 
z
" style="fill:#99120a;opacity:0.6;stroke-dasharray:0,0;stroke-dashoffset:0;"/>
   </g>
   <g id="patch_125">
    <path clip-path="url(#p2b5c088fbe)" d="M 348.46561 117.687682 
L 366.869515 106.899129 
L 386.037972 101.79399 
L 356.302488 119.535758 
z
" style="fill:#9a55e4;opacity:0.6;stroke-dasharray:0,0;stroke-dashoffset:0;"/>
   </g>
   <g id="patch_126">
    <path clip-path="url(#p2b5c088fbe)" d="M 356.302488 119.535758 
L 386.037972 101.79399 
L 449.68028 84.844119 
L 447.29744 140.993998 
z
" style="fill:#9b99be;opacity:0.6;stroke-dasharray:0,0;stroke-dashoffset:0;"/>
   </g>
   <g id="patch_127">
    <path clip-path="url(#p2b5c088fbe)" d="M 366.869515 106.899129 
L 423.636969 73.621478 
L 436.791144 71.511952 
L 386.037972 101.79399 
z
" style="fill:#9cdd98;opacity:0.6;stroke-dasharray:0,0;stroke-dashoffset:0;"/>
   </g>
   <g id="patch_128">
    <path clip-path="url(#p2b5c088fbe)" d="M 384.541211 79.891239 
L 402.344968 66.763335 
L 451.00146 53.711487 
L 450.947116 54.992077 
L 423.636953 73.621481 
z
" style="fill:#9e2172;opacity:0.6;stroke-dasharray:0,0;stroke-dashoffset:0;"/>
   </g>
   <g id="patch_129">
    <path clip-path="url(#p2b5c088fbe)" d="M 386.037972 101.79399 
L 436.791144 71.511952 
L 450.338256 69.339411 
L 449.68028 84.844119 
z
" style="fill:#9f654c;opacity:0.6;stroke-dasharray:0,0;stroke-dashoffset:0;"/>
   </g>
   <g id="matplotlib.axis_1">
    <g id="xtick_1">
     <g id="line2d_1">
      <defs>
       <path d="M 0 0 
L 0 3.5 
" id="ma6b5cd2244" style="stroke:#000000;stroke-width:0.8;"/>
      </defs>
      <g>
       <use style="stroke:#000000;stroke-width:0.8;" x="87.48" xlink:href="#ma6b5cd2244" y="252"/>
      </g>
     </g>
     <g id="text_1">
      <!-- −4 -->
      <defs>
       <path d="M 10.59375 35.5 
L 73.1875 35.5 
L 73.1875 27.203125 
L 10.59375 27.203125 
z
" id="DejaVuSans-2212"/>
       <path d="M 37.796875 64.3125 
L 12.890625 25.390625 
L 37.796875 25.390625 
z
M 35.203125 72.90625 
L 47.609375 72.90625 
L 47.609375 25.390625 
L 58.015625 25.390625 
L 58.015625 17.1875 
L 47.609375 17.1875 
L 47.609375 0 
L 37.796875 0 
L 37.796875 17.1875 
L 4.890625 17.1875 
L 4.890625 26.703125 
z
" id="DejaVuSans-34"/>
      </defs>
      <g transform="translate(80.108906 266.598437)scale(0.1 -0.1)">
       <use xlink:href="#DejaVuSans-2212"/>
       <use x="83.789062" xlink:href="#DejaVuSans-34"/>
      </g>
     </g>
    </g>
    <g id="xtick_2">
     <g id="line2d_2">
      <g>
       <use style="stroke:#000000;stroke-width:0.8;" x="154.44" xlink:href="#ma6b5cd2244" y="252"/>
      </g>
     </g>
     <g id="text_2">
      <!-- −2 -->
      <defs>
       <path d="M 19.1875 8.296875 
L 53.609375 8.296875 
L 53.609375 0 
L 7.328125 0 
L 7.328125 8.296875 
Q 12.9375 14.109375 22.625 23.890625 
Q 32.328125 33.6875 34.8125 36.53125 
Q 39.546875 41.84375 41.421875 45.53125 
Q 43.3125 49.21875 43.3125 52.78125 
Q 43.3125 58.59375 39.234375 62.25 
Q 35.15625 65.921875 28.609375 65.921875 
Q 23.96875 65.921875 18.8125 64.3125 
Q 13.671875 62.703125 7.8125 59.421875 
L 7.8125 69.390625 
Q 13.765625 71.78125 18.9375 73 
Q 24.125 74.21875 28.421875 74.21875 
Q 39.75 74.21875 46.484375 68.546875 
Q 53.21875 62.890625 53.21875 53.421875 
Q 53.21875 48.921875 51.53125 44.890625 
Q 49.859375 40.875 45.40625 35.40625 
Q 44.1875 33.984375 37.640625 27.21875 
Q 31.109375 20.453125 19.1875 8.296875 
z
" id="DejaVuSans-32"/>
      </defs>
      <g transform="translate(147.068906 266.598437)scale(0.1 -0.1)">
       <use xlink:href="#DejaVuSans-2212"/>
       <use x="83.789062" xlink:href="#DejaVuSans-32"/>
      </g>
     </g>
    </g>
    <g id="xtick_3">
     <g id="line2d_3">
      <g>
       <use style="stroke:#000000;stroke-width:0.8;" x="221.4" xlink:href="#ma6b5cd2244" y="252"/>
      </g>
     </g>
     <g id="text_3">
      <!-- 0 -->
      <defs>
       <path d="M 31.78125 66.40625 
Q 24.171875 66.40625 20.328125 58.90625 
Q 16.5 51.421875 16.5 36.375 
Q 16.5 21.390625 20.328125 13.890625 
Q 24.171875 6.390625 31.78125 6.390625 
Q 39.453125 6.390625 43.28125 13.890625 
Q 47.125 21.390625 47.125 36.375 
Q 47.125 51.421875 43.28125 58.90625 
Q 39.453125 66.40625 31.78125 66.40625 
z
M 31.78125 74.21875 
Q 44.046875 74.21875 50.515625 64.515625 
Q 56.984375 54.828125 56.984375 36.375 
Q 56.984375 17.96875 50.515625 8.265625 
Q 44.046875 -1.421875 31.78125 -1.421875 
Q 19.53125 -1.421875 13.0625 8.265625 
Q 6.59375 17.96875 6.59375 36.375 
Q 6.59375 54.828125 13.0625 64.515625 
Q 19.53125 74.21875 31.78125 74.21875 
z
" id="DejaVuSans-30"/>
      </defs>
      <g transform="translate(218.21875 266.598437)scale(0.1 -0.1)">
       <use xlink:href="#DejaVuSans-30"/>
      </g>
     </g>
    </g>
    <g id="xtick_4">
     <g id="line2d_4">
      <g>
       <use style="stroke:#000000;stroke-width:0.8;" x="288.36" xlink:href="#ma6b5cd2244" y="252"/>
      </g>
     </g>
     <g id="text_4">
      <!-- 2 -->
      <g transform="translate(285.17875 266.598437)scale(0.1 -0.1)">
       <use xlink:href="#DejaVuSans-32"/>
      </g>
     </g>
    </g>
    <g id="xtick_5">
     <g id="line2d_5">
      <g>
       <use style="stroke:#000000;stroke-width:0.8;" x="355.32" xlink:href="#ma6b5cd2244" y="252"/>
      </g>
     </g>
     <g id="text_5">
      <!-- 4 -->
      <g transform="translate(352.13875 266.598437)scale(0.1 -0.1)">
       <use xlink:href="#DejaVuSans-34"/>
      </g>
     </g>
    </g>
   </g>
   <g id="matplotlib.axis_2">
    <g id="ytick_1">
     <g id="line2d_6">
      <defs>
       <path d="M 0 0 
L -3.5 0 
" id="med8980bb5c" style="stroke:#000000;stroke-width:0.8;"/>
      </defs>
      <g>
       <use style="stroke:#000000;stroke-width:0.8;" x="54" xlink:href="#med8980bb5c" y="230.256"/>
      </g>
     </g>
     <g id="text_6">
      <!-- −4 -->
      <g transform="translate(32.257812 234.055219)scale(0.1 -0.1)">
       <use xlink:href="#DejaVuSans-2212"/>
       <use x="83.789062" xlink:href="#DejaVuSans-34"/>
      </g>
     </g>
    </g>
    <g id="ytick_2">
     <g id="line2d_7">
      <g>
       <use style="stroke:#000000;stroke-width:0.8;" x="54" xlink:href="#med8980bb5c" y="186.768"/>
      </g>
     </g>
     <g id="text_7">
      <!-- −2 -->
      <g transform="translate(32.257812 190.567219)scale(0.1 -0.1)">
       <use xlink:href="#DejaVuSans-2212"/>
       <use x="83.789062" xlink:href="#DejaVuSans-32"/>
      </g>
     </g>
    </g>
    <g id="ytick_3">
     <g id="line2d_8">
      <g>
       <use style="stroke:#000000;stroke-width:0.8;" x="54" xlink:href="#med8980bb5c" y="143.28"/>
      </g>
     </g>
     <g id="text_8">
      <!-- 0 -->
      <g transform="translate(40.6375 147.079219)scale(0.1 -0.1)">
       <use xlink:href="#DejaVuSans-30"/>
      </g>
     </g>
    </g>
    <g id="ytick_4">
     <g id="line2d_9">
      <g>
       <use style="stroke:#000000;stroke-width:0.8;" x="54" xlink:href="#med8980bb5c" y="99.792"/>
      </g>
     </g>
     <g id="text_9">
      <!-- 2 -->
      <g transform="translate(40.6375 103.591219)scale(0.1 -0.1)">
       <use xlink:href="#DejaVuSans-32"/>
      </g>
     </g>
    </g>
    <g id="ytick_5">
     <g id="line2d_10">
      <g>
       <use style="stroke:#000000;stroke-width:0.8;" x="54" xlink:href="#med8980bb5c" y="56.304"/>
      </g>
     </g>
     <g id="text_10">
      <!-- 4 -->
      <g transform="translate(40.6375 60.103219)scale(0.1 -0.1)">
       <use xlink:href="#DejaVuSans-34"/>
      </g>
     </g>
    </g>
   </g>
   <g id="line2d_11">
    <path clip-path="url(#p2b5c088fbe)" d="M 123.02428 230.826313 
L 182.328054 159.567527 
" style="fill:none;stroke:#ff0000;stroke-linecap:square;stroke-width:0.5;"/>
   </g>
   <g id="line2d_12">
    <path clip-path="url(#p2b5c088fbe)" d="M 75.053441 289 
L 123.024328 230.826259 
" style="fill:none;stroke:#ff0000;stroke-linecap:square;stroke-width:0.5;"/>
   </g>
   <g id="line2d_13">
    <path clip-path="url(#p2b5c088fbe)" d="M 182.328052 159.567527 
L 203.270761 136.268335 
" style="fill:none;stroke:#ff0000;stroke-linecap:square;stroke-width:0.5;"/>
   </g>
   <g id="line2d_14">
    <path clip-path="url(#p2b5c088fbe)" d="M 203.27076 136.268334 
L 209.222802 132.521918 
" style="fill:none;stroke:#ff0000;stroke-linecap:square;stroke-width:0.5;"/>
   </g>
   <g id="line2d_15">
    <path clip-path="url(#p2b5c088fbe)" d="M 209.222802 132.521919 
L 222.638827 128.058323 
" style="fill:none;stroke:#ff0000;stroke-linecap:square;stroke-width:0.5;"/>
   </g>
   <g id="line2d_16">
    <path clip-path="url(#p2b5c088fbe)" d="M 255.17264 148.376063 
L 222.638827 128.058323 
" style="fill:none;stroke:#ff0000;stroke-linecap:square;stroke-width:0.5;"/>
   </g>
   <g id="line2d_17">
    <path clip-path="url(#p2b5c088fbe)" d="M 333.513765 85.226943 
L 352.224207 58.428931 
" style="fill:none;stroke:#ff0000;stroke-linecap:square;stroke-width:0.5;"/>
   </g>
   <g id="line2d_18">
    <path clip-path="url(#p2b5c088fbe)" d="M 255.172641 148.376067 
L 304.366045 114.510655 
" style="fill:none;stroke:#ff0000;stroke-linecap:square;stroke-width:0.5;"/>
   </g>
   <g id="line2d_19">
    <path clip-path="url(#p2b5c088fbe)" d="M 304.366041 114.510655 
L 312.262674 109.150381 
" style="fill:none;stroke:#ff0000;stroke-linecap:square;stroke-width:0.5;"/>
   </g>
   <g id="line2d_20">
    <path clip-path="url(#p2b5c088fbe)" d="M 312.262674 109.150381 
L 331.325864 88.425348 
" style="fill:none;stroke:#ff0000;stroke-linecap:square;stroke-width:0.5;"/>
   </g>
   <g id="line2d_21">
    <path clip-path="url(#p2b5c088fbe)" d="M 331.325864 88.425348 
L 333.513749 85.226947 
" style="fill:none;stroke:#ff0000;stroke-linecap:square;stroke-width:0.5;"/>
   </g>
   <g id="line2d_22">
    <path clip-path="url(#p2b5c088fbe)" d="M 382.278435 18.663145 
L 352.224332 58.42873 
" style="fill:none;stroke:#ff0000;stroke-linecap:square;stroke-width:0.5;"/>
   </g>
   <g id="patch_130">
    <path d="M 54 252 
L 54 34.56 
" style="fill:none;stroke:#000000;stroke-linecap:square;stroke-linejoin:miter;stroke-width:0.8;"/>
   </g>
   <g id="patch_131">
    <path d="M 388.8 252 
L 388.8 34.56 
" style="fill:none;stroke:#000000;stroke-linecap:square;stroke-linejoin:miter;stroke-width:0.8;"/>
   </g>
   <g id="patch_132">
    <path d="M 54 252 
L 388.8 252 
" style="fill:none;stroke:#000000;stroke-linecap:square;stroke-linejoin:miter;stroke-width:0.8;"/>
   </g>
   <g id="patch_133">
    <path d="M 54 34.56 
L 388.8 34.56 
" style="fill:none;stroke:#000000;stroke-linecap:square;stroke-linejoin:miter;stroke-width:0.8;"/>
   </g>
  </g>
 </g>
 <defs>
  <clipPath id="p2b5c088fbe">
   <rect height="217.44" width="334.8" x="54" y="34.56"/>
  </clipPath>
 </defs>
</svg>
