<?xml version="1.0" encoding="utf-8" standalone="no"?>
<!DOCTYPE svg PUBLIC "-//W3C//DTD SVG 1.1//EN"
  "http://www.w3.org/Graphics/SVG/1.1/DTD/svg11.dtd">
<!-- Created with matplotlib (http://matplotlib.org/) -->
<svg height="576pt" version="1.1" viewBox="0 0 576 576" width="576pt" xmlns="http://www.w3.org/2000/svg" xmlns:xlink="http://www.w3.org/1999/xlink">
 <defs>
  <style type="text/css">
*{stroke-linecap:butt;stroke-linejoin:round;}
  </style>
 </defs>
 <g id="figure_1">
  <g id="patch_1">
   <path d="M 0 576 
L 576 576 
L 576 0 
L 0 0 
z
" style="fill:#ffffff;"/>
  </g>
  <g id="axes_1">
   <g id="patch_2">
    <path d="M 72 504 
L 518.4 504 
L 518.4 69.12 
L 72 69.12 
z
" style="fill:#ffffff;"/>
   </g>
   <g id="PathCollection_1">
    <path clip-path="url(#pc83b73cd63)" d="M 76.509091 504 
L 81.018182 504 
L 85.527273 504 
L 90.036364 504 
L 94.545455 504 
L 99.054545 504 
L 102.061685 504 
L 103.563636 502.045252 
L 105.436899 499.607273 
L 108.072727 496.176799 
L 108.812081 495.214545 
L 112.187282 490.821818 
L 112.581818 490.308338 
L 115.56248 486.429091 
L 117.090909 484.439883 
L 118.937669 482.036364 
L 121.6 478.571396 
L 122.31285 477.643636 
L 125.68804 473.250909 
L 126.109091 472.70292 
L 129.063237 468.858182 
L 130.618182 466.834461 
L 132.438426 464.465455 
L 135.127273 460.965992 
L 135.813623 460.072727 
L 139.188814 455.68 
L 139.636364 455.097527 
L 142.56402 451.287273 
L 144.145455 449.229076 
L 145.939216 446.894545 
L 148.654545 443.360631 
L 149.314422 442.501818 
L 152.689592 438.109091 
L 153.163636 437.492137 
L 156.064783 433.716364 
L 157.672727 431.623652 
L 159.439966 429.323636 
L 162.181818 425.755199 
L 162.815169 424.930909 
L 166.190385 420.538182 
L 166.690909 419.886763 
L 169.565558 416.145455 
L 171.2 414.018266 
L 172.94075 411.752727 
L 175.709091 408.149786 
L 176.315931 407.36 
L 179.691125 402.967273 
L 180.218182 402.281321 
L 183.066331 398.574545 
L 184.727273 396.412886 
L 186.441539 394.181818 
L 189.236364 390.5444 
L 189.816709 389.789091 
L 193.191898 385.396364 
L 193.745455 384.675919 
L 196.567091 381.003636 
L 198.254545 378.807477 
L 199.942297 376.610909 
L 202.763636 372.938996 
L 203.317481 372.218182 
L 206.692695 367.825455 
L 207.272727 367.070557 
L 210.067864 363.432727 
L 211.781818 361.20206 
L 213.443061 359.04 
L 216.290909 355.333592 
L 216.818249 354.647273 
L 220.193443 350.254545 
L 220.8 349.46513 
L 223.568646 345.861818 
L 225.309091 343.596664 
L 226.943831 341.469091 
L 229.818182 337.728202 
L 230.319029 337.076364 
L 233.694229 332.683636 
L 234.327273 331.859746 
L 237.069416 328.290909 
L 238.836364 325.991271 
L 240.444607 323.898182 
L 243.345455 320.122788 
L 243.819787 319.505455 
L 247.222658 315.112727 
L 247.854545 314.529627 
L 251.982928 310.72 
L 252.363636 310.368687 
L 256.7432 306.327273 
L 256.872727 306.173006 
L 259.466929 301.934545 
L 261.381818 298.536893 
L 261.942635 297.541818 
L 264.418347 293.149091 
L 265.890909 290.536276 
L 266.894055 288.756364 
L 269.369769 284.363636 
L 270.4 282.53567 
L 271.845484 279.970909 
L 274.321191 275.578182 
L 274.909091 274.535054 
L 276.796903 271.185455 
L 279.272613 266.792727 
L 279.418182 266.635554 
L 283.927273 262.962736 
L 284.794766 262.4 
L 288.436364 260.037721 
L 291.566427 258.007273 
L 292.945455 257.112708 
L 297.454545 256.981471 
L 299.108412 258.007273 
L 301.963636 260.179031 
L 304.037912 262.4 
L 306.472727 265.007005 
L 308.140503 266.792727 
L 310.981818 269.83498 
L 312.243094 271.185455 
L 315.490909 274.662958 
L 316.345683 275.578182 
L 320 279.490936 
L 320.448271 279.970909 
L 324.509091 284.318909 
L 324.550864 284.363636 
L 328.653455 288.756364 
L 329.018182 289.146884 
L 333.314438 293.149091 
L 333.527273 293.291636 
L 338.036364 293.653596 
L 342.545455 294.015553 
L 345.895009 293.149091 
L 347.054545 292.542942 
L 350.104913 288.756364 
L 351.563636 286.945577 
L 353.643578 284.363636 
L 356.072727 281.348208 
L 357.182245 279.970909 
L 360.581818 275.75084 
L 360.720907 275.578182 
L 364.259572 271.185455 
L 365.090909 270.153473 
L 367.798241 266.792727 
L 369.6 264.55611 
L 371.336902 262.4 
L 374.109091 258.958739 
L 374.875567 258.007273 
L 378.414224 253.614545 
L 378.618182 253.361361 
L 381.952889 249.221818 
L 383.127273 247.763999 
L 385.49156 244.829091 
L 387.636364 242.166628 
L 389.030218 240.436364 
L 392.145455 236.56927 
L 392.568891 236.043636 
L 396.107555 231.650909 
L 396.654545 230.9719 
L 399.646212 227.258182 
L 401.163636 225.374529 
L 403.184881 222.865455 
L 405.672727 219.777163 
L 406.723548 218.472727 
L 410.181818 214.179799 
L 410.262213 214.08 
L 413.800869 209.687273 
L 414.690909 208.58242 
L 417.339537 205.294545 
L 419.2 202.985058 
L 420.878203 200.901818 
L 423.709091 197.387688 
L 424.416866 196.509091 
L 427.957471 192.116364 
L 428.218182 191.792929 
L 431.498312 187.723636 
L 432.727273 186.199002 
L 435.039148 183.330909 
L 437.236364 180.605066 
L 438.579993 178.938182 
L 441.745455 175.011153 
L 442.12084 174.545455 
L 445.661883 170.152727 
L 446.254545 169.418053 
L 449.205287 165.76 
L 450.763636 163.828298 
L 452.748993 161.367273 
L 455.272727 158.238859 
L 456.292669 156.974545 
L 459.781818 152.649426 
L 459.836359 152.581818 
L 463.380058 148.189091 
L 464.290909 147.060011 
L 466.923753 143.796364 
L 468.8 141.470578 
L 470.467434 139.403636 
L 473.309091 135.881135 
L 474.011121 135.010909 
L 477.554817 130.618182 
L 477.818182 130.291717 
L 481.098501 126.225455 
L 482.327273 124.702279 
L 484.642201 121.832727 
L 486.836364 119.112866 
L 488.185888 117.44 
L 491.345455 113.523423 
L 491.729576 113.047273 
L 495.273267 108.654545 
L 495.854545 107.934003 
L 498.816977 104.261818 
L 500.363636 102.344582 
L 502.360661 99.869091 
L 504.872727 96.755168 
L 505.904359 95.476364 
L 509.381818 91.165712 
L 509.44803 91.083636 
L 512.99174 86.690909 
L 513.890909 85.576305 
L 516.535416 82.298182 
L 518.4 79.986864 
L 518.4 77.905455 
L 518.4 73.512727 
L 518.4 69.12 
L 513.890909 69.12 
L 509.381818 69.12 
L 504.872727 69.12 
L 500.363636 69.12 
L 495.854545 69.12 
L 491.345455 69.12 
L 486.836364 69.12 
L 482.327273 69.12 
L 477.818182 69.12 
L 473.309091 69.12 
L 468.8 69.12 
L 464.290909 69.12 
L 459.781818 69.12 
L 455.272727 69.12 
L 450.763636 69.12 
L 446.254545 69.12 
L 441.745455 69.12 
L 437.236364 69.12 
L 432.727273 69.12 
L 428.218182 69.12 
L 423.709091 69.12 
L 419.2 69.12 
L 414.690909 69.12 
L 410.181818 69.12 
L 405.672727 69.12 
L 401.163636 69.12 
L 396.654545 69.12 
L 392.145455 69.12 
L 387.636364 69.12 
L 383.127273 69.12 
L 378.618182 69.12 
L 374.109091 69.12 
L 369.6 69.12 
L 365.090909 69.12 
L 360.581818 69.12 
L 356.072727 69.12 
L 351.563636 69.12 
L 347.054545 69.12 
L 342.545455 69.12 
L 338.036364 69.12 
L 333.527273 69.12 
L 329.018182 69.12 
L 324.509091 69.12 
L 320 69.12 
L 315.490909 69.12 
L 310.981818 69.12 
L 306.472727 69.12 
L 301.963636 69.12 
L 297.454545 69.12 
L 292.945455 69.12 
L 288.436364 69.12 
L 283.927273 69.12 
L 279.418182 69.12 
L 274.909091 69.12 
L 270.4 69.12 
L 265.890909 69.12 
L 261.381818 69.12 
L 256.872727 69.12 
L 252.363636 69.12 
L 247.854545 69.12 
L 243.345455 69.12 
L 238.836364 69.12 
L 234.327273 69.12 
L 229.818182 69.12 
L 225.309091 69.12 
L 220.8 69.12 
L 216.290909 69.12 
L 211.781818 69.12 
L 207.272727 69.12 
L 202.763636 69.12 
L 198.254545 69.12 
L 193.745455 69.12 
L 189.236364 69.12 
L 184.727273 69.12 
L 180.218182 69.12 
L 175.709091 69.12 
L 171.2 69.12 
L 166.690909 69.12 
L 162.181818 69.12 
L 157.672727 69.12 
L 153.163636 69.12 
L 148.654545 69.12 
L 144.145455 69.12 
L 139.636364 69.12 
L 135.127273 69.12 
L 130.618182 69.12 
L 126.109091 69.12 
L 121.6 69.12 
L 117.090909 69.12 
L 112.581818 69.12 
L 108.072727 69.12 
L 103.563636 69.12 
L 99.054545 69.12 
L 94.545455 69.12 
L 90.036364 69.12 
L 85.527273 69.12 
L 81.018182 69.12 
L 76.509091 69.12 
L 72 69.12 
L 72 73.512727 
L 72 77.905455 
L 72 82.298182 
L 72 86.690909 
L 72 91.083636 
L 72 95.476364 
L 72 99.869091 
L 72 104.261818 
L 72 108.654545 
L 72 113.047273 
L 72 117.44 
L 72 121.832727 
L 72 126.225455 
L 72 130.618182 
L 72 135.010909 
L 72 139.403636 
L 72 143.796364 
L 72 148.189091 
L 72 152.581818 
L 72 156.974545 
L 72 161.367273 
L 72 165.76 
L 72 170.152727 
L 72 174.545455 
L 72 178.938182 
L 72 183.330909 
L 72 187.723636 
L 72 192.116364 
L 72 196.509091 
L 72 200.901818 
L 72 205.294545 
L 72 209.687273 
L 72 214.08 
L 72 218.472727 
L 72 222.865455 
L 72 227.258182 
L 72 231.650909 
L 72 236.043636 
L 72 240.436364 
L 72 244.829091 
L 72 249.221818 
L 72 253.614545 
L 72 258.007273 
L 72 262.4 
L 72 266.792727 
L 72 271.185455 
L 72 275.578182 
L 72 279.970909 
L 72 284.363636 
L 72 288.756364 
L 72 293.149091 
L 72 297.541818 
L 72 301.934545 
L 72 306.327273 
L 72 310.72 
L 72 315.112727 
L 72 319.505455 
L 72 323.898182 
L 72 328.290909 
L 72 332.683636 
L 72 337.076364 
L 72 341.469091 
L 72 345.861818 
L 72 350.254545 
L 72 354.647273 
L 72 359.04 
L 72 363.432727 
L 72 367.825455 
L 72 372.218182 
L 72 376.610909 
L 72 381.003636 
L 72 385.396364 
L 72 389.789091 
L 72 394.181818 
L 72 398.574545 
L 72 402.967273 
L 72 407.36 
L 72 411.752727 
L 72 416.145455 
L 72 420.538182 
L 72 424.930909 
L 72 429.323636 
L 72 433.716364 
L 72 438.109091 
L 72 442.501818 
L 72 446.894545 
L 72 451.287273 
L 72 455.68 
L 72 460.072727 
L 72 464.465455 
L 72 468.858182 
L 72 473.250909 
L 72 477.643636 
L 72 482.036364 
L 72 486.429091 
L 72 490.821818 
L 72 495.214545 
L 72 499.607273 
L 72 504 
z
" style="fill:#8db0fe;"/>
   </g>
   <g id="PathCollection_2">
    <path clip-path="url(#pc83b73cd63)" d="M 103.563636 504 
L 108.072727 504 
L 112.581818 504 
L 117.090909 504 
L 121.6 504 
L 126.109091 504 
L 130.618182 504 
L 135.127273 504 
L 139.636364 504 
L 144.145455 504 
L 148.654545 504 
L 153.163636 504 
L 157.672727 504 
L 162.181818 504 
L 166.690909 504 
L 171.2 504 
L 175.709091 504 
L 180.218182 504 
L 184.727273 504 
L 189.236364 504 
L 193.745455 504 
L 198.254545 504 
L 202.763636 504 
L 207.272727 504 
L 211.781818 504 
L 216.290909 504 
L 220.8 504 
L 225.309091 504 
L 229.818182 504 
L 234.327273 504 
L 238.836364 504 
L 243.345455 504 
L 247.854545 504 
L 252.363636 504 
L 256.872727 504 
L 261.381818 504 
L 265.890909 504 
L 270.4 504 
L 274.909091 504 
L 279.418182 504 
L 283.927273 504 
L 288.436364 504 
L 292.945455 504 
L 297.454545 504 
L 301.963636 504 
L 306.472727 504 
L 310.981818 504 
L 315.490909 504 
L 320 504 
L 324.509091 504 
L 329.018182 504 
L 333.527273 504 
L 338.036364 504 
L 342.545455 504 
L 347.054545 504 
L 351.563636 504 
L 356.072727 504 
L 360.581818 504 
L 365.090909 504 
L 369.6 504 
L 374.109091 504 
L 378.618182 504 
L 383.127273 504 
L 387.636364 504 
L 392.145455 504 
L 396.654545 504 
L 401.163636 504 
L 405.672727 504 
L 410.181818 504 
L 414.690909 504 
L 419.2 504 
L 423.709091 504 
L 428.218182 504 
L 432.727273 504 
L 437.236364 504 
L 441.745455 504 
L 446.254545 504 
L 450.763636 504 
L 455.272727 504 
L 459.781818 504 
L 464.290909 504 
L 468.8 504 
L 473.309091 504 
L 477.818182 504 
L 482.327273 504 
L 486.836364 504 
L 491.345455 504 
L 495.854545 504 
L 500.363636 504 
L 504.872727 504 
L 509.381818 504 
L 513.890909 504 
L 518.4 504 
L 518.4 499.607273 
L 518.4 495.214545 
L 518.4 490.821818 
L 518.4 486.429091 
L 518.4 482.036364 
L 518.4 477.643636 
L 518.4 473.250909 
L 518.4 468.858182 
L 518.4 464.465455 
L 518.4 460.072727 
L 518.4 455.68 
L 518.4 451.287273 
L 518.4 446.894545 
L 518.4 442.501818 
L 518.4 438.109091 
L 518.4 433.716364 
L 518.4 429.323636 
L 518.4 424.930909 
L 518.4 420.538182 
L 518.4 416.145455 
L 518.4 411.752727 
L 518.4 407.36 
L 518.4 402.967273 
L 518.4 398.574545 
L 518.4 394.181818 
L 518.4 389.789091 
L 518.4 385.396364 
L 518.4 381.003636 
L 518.4 376.610909 
L 518.4 372.218182 
L 518.4 367.825455 
L 518.4 363.432727 
L 518.4 359.04 
L 518.4 354.647273 
L 518.4 350.254545 
L 518.4 345.861818 
L 518.4 341.469091 
L 518.4 337.076364 
L 518.4 332.683636 
L 518.4 328.290909 
L 518.4 323.898182 
L 518.4 319.505455 
L 518.4 315.112727 
L 518.4 310.72 
L 518.4 306.327273 
L 518.4 301.934545 
L 518.4 297.541818 
L 518.4 293.149091 
L 518.4 288.756364 
L 518.4 284.363636 
L 518.4 279.970909 
L 518.4 275.578182 
L 518.4 271.185455 
L 518.4 266.792727 
L 518.4 262.4 
L 518.4 258.007273 
L 518.4 253.614545 
L 518.4 249.221818 
L 518.4 244.829091 
L 518.4 240.436364 
L 518.4 236.043636 
L 518.4 231.650909 
L 518.4 227.258182 
L 518.4 222.865455 
L 518.4 218.472727 
L 518.4 214.08 
L 518.4 209.687273 
L 518.4 205.294545 
L 518.4 200.901818 
L 518.4 196.509091 
L 518.4 192.116364 
L 518.4 187.723636 
L 518.4 183.330909 
L 518.4 178.938182 
L 518.4 174.545455 
L 518.4 170.152727 
L 518.4 165.76 
L 518.4 161.367273 
L 518.4 156.974545 
L 518.4 152.581818 
L 518.4 148.189091 
L 518.4 143.796364 
L 518.4 139.403636 
L 518.4 135.010909 
L 518.4 130.618182 
L 518.4 126.225455 
L 518.4 121.832727 
L 518.4 117.44 
L 518.4 113.047273 
L 518.4 108.654545 
L 518.4 104.261818 
L 518.4 99.869091 
L 518.4 95.476364 
L 518.4 91.083636 
L 518.4 86.690909 
L 518.4 82.298182 
L 518.4 79.986864 
L 516.535416 82.298182 
L 513.890909 85.576305 
L 512.99174 86.690909 
L 509.44803 91.083636 
L 509.381818 91.165712 
L 505.904359 95.476364 
L 504.872727 96.755168 
L 502.360661 99.869091 
L 500.363636 102.344582 
L 498.816977 104.261818 
L 495.854545 107.934003 
L 495.273267 108.654545 
L 491.729576 113.047273 
L 491.345455 113.523423 
L 488.185888 117.44 
L 486.836364 119.112866 
L 484.642201 121.832727 
L 482.327273 124.702279 
L 481.098501 126.225455 
L 477.818182 130.291717 
L 477.554817 130.618182 
L 474.011121 135.010909 
L 473.309091 135.881135 
L 470.467434 139.403636 
L 468.8 141.470578 
L 466.923753 143.796364 
L 464.290909 147.060011 
L 463.380058 148.189091 
L 459.836359 152.581818 
L 459.781818 152.649426 
L 456.292669 156.974545 
L 455.272727 158.238859 
L 452.748993 161.367273 
L 450.763636 163.828298 
L 449.205287 165.76 
L 446.254545 169.418053 
L 445.661883 170.152727 
L 442.12084 174.545455 
L 441.745455 175.011153 
L 438.579993 178.938182 
L 437.236364 180.605066 
L 435.039148 183.330909 
L 432.727273 186.199002 
L 431.498312 187.723636 
L 428.218182 191.792929 
L 427.957471 192.116364 
L 424.416866 196.509091 
L 423.709091 197.387688 
L 420.878203 200.901818 
L 419.2 202.985058 
L 417.339537 205.294545 
L 414.690909 208.58242 
L 413.800869 209.687273 
L 410.262213 214.08 
L 410.181818 214.179799 
L 406.723548 218.472727 
L 405.672727 219.777163 
L 403.184881 222.865455 
L 401.163636 225.374529 
L 399.646212 227.258182 
L 396.654545 230.9719 
L 396.107555 231.650909 
L 392.568891 236.043636 
L 392.145455 236.56927 
L 389.030218 240.436364 
L 387.636364 242.166628 
L 385.49156 244.829091 
L 383.127273 247.763999 
L 381.952889 249.221818 
L 378.618182 253.361361 
L 378.414224 253.614545 
L 374.875567 258.007273 
L 374.109091 258.958739 
L 371.336902 262.4 
L 369.6 264.55611 
L 367.798241 266.792727 
L 365.090909 270.153473 
L 364.259572 271.185455 
L 360.720907 275.578182 
L 360.581818 275.75084 
L 357.182245 279.970909 
L 356.072727 281.348208 
L 353.643578 284.363636 
L 351.563636 286.945577 
L 350.104913 288.756364 
L 347.054545 292.542942 
L 345.895009 293.149091 
L 342.545455 294.015553 
L 338.036364 293.653596 
L 333.527273 293.291636 
L 333.314438 293.149091 
L 329.018182 289.146884 
L 328.653455 288.756364 
L 324.550864 284.363636 
L 324.509091 284.318909 
L 320.448271 279.970909 
L 320 279.490936 
L 316.345683 275.578182 
L 315.490909 274.662958 
L 312.243094 271.185455 
L 310.981818 269.83498 
L 308.140503 266.792727 
L 306.472727 265.007005 
L 304.037912 262.4 
L 301.963636 260.179031 
L 299.108412 258.007273 
L 297.454545 256.981471 
L 292.945455 257.112708 
L 291.566427 258.007273 
L 288.436364 260.037721 
L 284.794766 262.4 
L 283.927273 262.962736 
L 279.418182 266.635554 
L 279.272613 266.792727 
L 276.796903 271.185455 
L 274.909091 274.535054 
L 274.321191 275.578182 
L 271.845484 279.970909 
L 270.4 282.53567 
L 269.369769 284.363636 
L 266.894055 288.756364 
L 265.890909 290.536276 
L 264.418347 293.149091 
L 261.942635 297.541818 
L 261.381818 298.536893 
L 259.466929 301.934545 
L 256.872727 306.173006 
L 256.7432 306.327273 
L 252.363636 310.368687 
L 251.982928 310.72 
L 247.854545 314.529627 
L 247.222658 315.112727 
L 243.819787 319.505455 
L 243.345455 320.122788 
L 240.444607 323.898182 
L 238.836364 325.991271 
L 237.069416 328.290909 
L 234.327273 331.859746 
L 233.694229 332.683636 
L 230.319029 337.076364 
L 229.818182 337.728202 
L 226.943831 341.469091 
L 225.309091 343.596664 
L 223.568646 345.861818 
L 220.8 349.46513 
L 220.193443 350.254545 
L 216.818249 354.647273 
L 216.290909 355.333592 
L 213.443061 359.04 
L 211.781818 361.20206 
L 210.067864 363.432727 
L 207.272727 367.070557 
L 206.692695 367.825455 
L 203.317481 372.218182 
L 202.763636 372.938996 
L 199.942297 376.610909 
L 198.254545 378.807477 
L 196.567091 381.003636 
L 193.745455 384.675919 
L 193.191898 385.396364 
L 189.816709 389.789091 
L 189.236364 390.5444 
L 186.441539 394.181818 
L 184.727273 396.412886 
L 183.066331 398.574545 
L 180.218182 402.281321 
L 179.691125 402.967273 
L 176.315931 407.36 
L 175.709091 408.149786 
L 172.94075 411.752727 
L 171.2 414.018266 
L 169.565558 416.145455 
L 166.690909 419.886763 
L 166.190385 420.538182 
L 162.815169 424.930909 
L 162.181818 425.755199 
L 159.439966 429.323636 
L 157.672727 431.623652 
L 156.064783 433.716364 
L 153.163636 437.492137 
L 152.689592 438.109091 
L 149.314422 442.501818 
L 148.654545 443.360631 
L 145.939216 446.894545 
L 144.145455 449.229076 
L 142.56402 451.287273 
L 139.636364 455.097527 
L 139.188814 455.68 
L 135.813623 460.072727 
L 135.127273 460.965992 
L 132.438426 464.465455 
L 130.618182 466.834461 
L 129.063237 468.858182 
L 126.109091 472.70292 
L 125.68804 473.250909 
L 122.31285 477.643636 
L 121.6 478.571396 
L 118.937669 482.036364 
L 117.090909 484.439883 
L 115.56248 486.429091 
L 112.581818 490.308338 
L 112.187282 490.821818 
L 108.812081 495.214545 
L 108.072727 496.176799 
L 105.436899 499.607273 
L 103.563636 502.045252 
L 102.061685 504 
z
" style="fill:#f4987a;"/>
   </g>
   <g id="matplotlib.axis_1">
    <g id="xtick_1">
     <g id="line2d_1">
      <defs>
       <path d="M 0 0 
L 0 3.5 
" id="m992afd9dac" style="stroke:#000000;stroke-width:0.8;"/>
      </defs>
      <g>
       <use style="stroke:#000000;stroke-width:0.8;" x="116.64" xlink:href="#m992afd9dac" y="504"/>
      </g>
     </g>
     <g id="text_1">
      <!-- −4 -->
      <defs>
       <path d="M 10.59375 35.5 
L 73.1875 35.5 
L 73.1875 27.203125 
L 10.59375 27.203125 
z
" id="DejaVuSans-2212"/>
       <path d="M 37.796875 64.3125 
L 12.890625 25.390625 
L 37.796875 25.390625 
z
M 35.203125 72.90625 
L 47.609375 72.90625 
L 47.609375 25.390625 
L 58.015625 25.390625 
L 58.015625 17.1875 
L 47.609375 17.1875 
L 47.609375 0 
L 37.796875 0 
L 37.796875 17.1875 
L 4.890625 17.1875 
L 4.890625 26.703125 
z
" id="DejaVuSans-34"/>
      </defs>
      <g transform="translate(109.268906 518.598438)scale(0.1 -0.1)">
       <use xlink:href="#DejaVuSans-2212"/>
       <use x="83.789062" xlink:href="#DejaVuSans-34"/>
      </g>
     </g>
    </g>
    <g id="xtick_2">
     <g id="line2d_2">
      <g>
       <use style="stroke:#000000;stroke-width:0.8;" x="205.92" xlink:href="#m992afd9dac" y="504"/>
      </g>
     </g>
     <g id="text_2">
      <!-- −2 -->
      <defs>
       <path d="M 19.1875 8.296875 
L 53.609375 8.296875 
L 53.609375 0 
L 7.328125 0 
L 7.328125 8.296875 
Q 12.9375 14.109375 22.625 23.890625 
Q 32.328125 33.6875 34.8125 36.53125 
Q 39.546875 41.84375 41.421875 45.53125 
Q 43.3125 49.21875 43.3125 52.78125 
Q 43.3125 58.59375 39.234375 62.25 
Q 35.15625 65.921875 28.609375 65.921875 
Q 23.96875 65.921875 18.8125 64.3125 
Q 13.671875 62.703125 7.8125 59.421875 
L 7.8125 69.390625 
Q 13.765625 71.78125 18.9375 73 
Q 24.125 74.21875 28.421875 74.21875 
Q 39.75 74.21875 46.484375 68.546875 
Q 53.21875 62.890625 53.21875 53.421875 
Q 53.21875 48.921875 51.53125 44.890625 
Q 49.859375 40.875 45.40625 35.40625 
Q 44.1875 33.984375 37.640625 27.21875 
Q 31.109375 20.453125 19.1875 8.296875 
z
" id="DejaVuSans-32"/>
      </defs>
      <g transform="translate(198.548906 518.598438)scale(0.1 -0.1)">
       <use xlink:href="#DejaVuSans-2212"/>
       <use x="83.789062" xlink:href="#DejaVuSans-32"/>
      </g>
     </g>
    </g>
    <g id="xtick_3">
     <g id="line2d_3">
      <g>
       <use style="stroke:#000000;stroke-width:0.8;" x="295.2" xlink:href="#m992afd9dac" y="504"/>
      </g>
     </g>
     <g id="text_3">
      <!-- 0 -->
      <defs>
       <path d="M 31.78125 66.40625 
Q 24.171875 66.40625 20.328125 58.90625 
Q 16.5 51.421875 16.5 36.375 
Q 16.5 21.390625 20.328125 13.890625 
Q 24.171875 6.390625 31.78125 6.390625 
Q 39.453125 6.390625 43.28125 13.890625 
Q 47.125 21.390625 47.125 36.375 
Q 47.125 51.421875 43.28125 58.90625 
Q 39.453125 66.40625 31.78125 66.40625 
z
M 31.78125 74.21875 
Q 44.046875 74.21875 50.515625 64.515625 
Q 56.984375 54.828125 56.984375 36.375 
Q 56.984375 17.96875 50.515625 8.265625 
Q 44.046875 -1.421875 31.78125 -1.421875 
Q 19.53125 -1.421875 13.0625 8.265625 
Q 6.59375 17.96875 6.59375 36.375 
Q 6.59375 54.828125 13.0625 64.515625 
Q 19.53125 74.21875 31.78125 74.21875 
z
" id="DejaVuSans-30"/>
      </defs>
      <g transform="translate(292.01875 518.598438)scale(0.1 -0.1)">
       <use xlink:href="#DejaVuSans-30"/>
      </g>
     </g>
    </g>
    <g id="xtick_4">
     <g id="line2d_4">
      <g>
       <use style="stroke:#000000;stroke-width:0.8;" x="384.48" xlink:href="#m992afd9dac" y="504"/>
      </g>
     </g>
     <g id="text_4">
      <!-- 2 -->
      <g transform="translate(381.29875 518.598438)scale(0.1 -0.1)">
       <use xlink:href="#DejaVuSans-32"/>
      </g>
     </g>
    </g>
    <g id="xtick_5">
     <g id="line2d_5">
      <g>
       <use style="stroke:#000000;stroke-width:0.8;" x="473.76" xlink:href="#m992afd9dac" y="504"/>
      </g>
     </g>
     <g id="text_5">
      <!-- 4 -->
      <g transform="translate(470.57875 518.598438)scale(0.1 -0.1)">
       <use xlink:href="#DejaVuSans-34"/>
      </g>
     </g>
    </g>
   </g>
   <g id="matplotlib.axis_2">
    <g id="ytick_1">
     <g id="line2d_6">
      <defs>
       <path d="M 0 0 
L -3.5 0 
" id="m9697631aa7" style="stroke:#000000;stroke-width:0.8;"/>
      </defs>
      <g>
       <use style="stroke:#000000;stroke-width:0.8;" x="72" xlink:href="#m9697631aa7" y="460.512"/>
      </g>
     </g>
     <g id="text_6">
      <!-- −4 -->
      <g transform="translate(50.257812 464.311219)scale(0.1 -0.1)">
       <use xlink:href="#DejaVuSans-2212"/>
       <use x="83.789062" xlink:href="#DejaVuSans-34"/>
      </g>
     </g>
    </g>
    <g id="ytick_2">
     <g id="line2d_7">
      <g>
       <use style="stroke:#000000;stroke-width:0.8;" x="72" xlink:href="#m9697631aa7" y="373.536"/>
      </g>
     </g>
     <g id="text_7">
      <!-- −2 -->
      <g transform="translate(50.257812 377.335219)scale(0.1 -0.1)">
       <use xlink:href="#DejaVuSans-2212"/>
       <use x="83.789062" xlink:href="#DejaVuSans-32"/>
      </g>
     </g>
    </g>
    <g id="ytick_3">
     <g id="line2d_8">
      <g>
       <use style="stroke:#000000;stroke-width:0.8;" x="72" xlink:href="#m9697631aa7" y="286.56"/>
      </g>
     </g>
     <g id="text_8">
      <!-- 0 -->
      <g transform="translate(58.6375 290.359219)scale(0.1 -0.1)">
       <use xlink:href="#DejaVuSans-30"/>
      </g>
     </g>
    </g>
    <g id="ytick_4">
     <g id="line2d_9">
      <g>
       <use style="stroke:#000000;stroke-width:0.8;" x="72" xlink:href="#m9697631aa7" y="199.584"/>
      </g>
     </g>
     <g id="text_9">
      <!-- 2 -->
      <g transform="translate(58.6375 203.383219)scale(0.1 -0.1)">
       <use xlink:href="#DejaVuSans-32"/>
      </g>
     </g>
    </g>
    <g id="ytick_5">
     <g id="line2d_10">
      <g>
       <use style="stroke:#000000;stroke-width:0.8;" x="72" xlink:href="#m9697631aa7" y="112.608"/>
      </g>
     </g>
     <g id="text_10">
      <!-- 4 -->
      <g transform="translate(58.6375 116.407219)scale(0.1 -0.1)">
       <use xlink:href="#DejaVuSans-34"/>
      </g>
     </g>
    </g>
   </g>
   <g id="patch_3">
    <path d="M 72 504 
L 72 69.12 
" style="fill:none;stroke:#000000;stroke-linecap:square;stroke-linejoin:miter;stroke-width:0.8;"/>
   </g>
   <g id="patch_4">
    <path d="M 518.4 504 
L 518.4 69.12 
" style="fill:none;stroke:#000000;stroke-linecap:square;stroke-linejoin:miter;stroke-width:0.8;"/>
   </g>
   <g id="patch_5">
    <path d="M 72 504 
L 518.4 504 
" style="fill:none;stroke:#000000;stroke-linecap:square;stroke-linejoin:miter;stroke-width:0.8;"/>
   </g>
   <g id="patch_6">
    <path d="M 72 69.12 
L 518.4 69.12 
" style="fill:none;stroke:#000000;stroke-linecap:square;stroke-linejoin:miter;stroke-width:0.8;"/>
   </g>
  </g>
 </g>
 <defs>
  <clipPath id="pc83b73cd63">
   <rect height="434.88" width="446.4" x="72" y="69.12"/>
  </clipPath>
 </defs>
</svg>
