<?xml version="1.0" encoding="utf-8" standalone="no"?>
<!DOCTYPE svg PUBLIC "-//W3C//DTD SVG 1.1//EN"
  "http://www.w3.org/Graphics/SVG/1.1/DTD/svg11.dtd">
<!-- Created with matplotlib (http://matplotlib.org/) -->
<svg height="576pt" version="1.1" viewBox="0 0 576 576" width="576pt" xmlns="http://www.w3.org/2000/svg" xmlns:xlink="http://www.w3.org/1999/xlink">
 <defs>
  <style type="text/css">
*{stroke-linecap:butt;stroke-linejoin:round;}
  </style>
 </defs>
 <g id="figure_1">
  <g id="patch_1">
   <path d="M 0 576 
L 576 576 
L 576 0 
L 0 0 
z
" style="fill:#ffffff;"/>
  </g>
  <g id="axes_1">
   <g id="patch_2">
    <path d="M 72 504 
L 518.4 504 
L 518.4 69.12 
L 72 69.12 
z
" style="fill:#ffffff;"/>
   </g>
   <g id="PathCollection_1">
    <path clip-path="url(#p94de634d13)" d="M 76.509091 504 
L 81.018182 504 
L 85.527273 504 
L 90.036364 504 
L 94.545455 504 
L 99.054545 504 
L 103.563636 504 
L 108.072727 504 
L 112.222946 504 
L 112.581818 503.491279 
L 115.321757 499.607273 
L 117.090909 497.099413 
L 118.420578 495.214545 
L 121.519399 490.821818 
L 121.6 490.707562 
L 124.618216 486.429091 
L 126.109091 484.315706 
L 127.717037 482.036364 
L 130.618182 477.923825 
L 130.811368 477.643636 
L 133.899187 473.250909 
L 135.127273 471.513747 
L 136.934944 468.858182 
L 139.636364 464.966739 
L 139.979843 464.465455 
L 142.989722 460.072727 
L 144.145455 458.386011 
L 145.999598 455.68 
L 148.654545 451.805264 
L 149.009471 451.287273 
L 152.01935 446.894545 
L 153.163636 445.224531 
L 155.029221 442.501818 
L 157.672727 438.64378 
L 158.039094 438.109091 
L 161.048974 433.716364 
L 162.181818 432.06305 
L 164.058849 429.323636 
L 166.690909 425.482304 
L 167.068722 424.930909 
L 170.078595 420.538182 
L 171.2 418.90156 
L 173.087556 416.145455 
L 175.709091 412.320414 
L 176.096937 411.752727 
L 179.103842 407.36 
L 180.218182 405.734733 
L 182.109691 402.967273 
L 184.727273 399.143545 
L 185.116377 398.574545 
L 188.120027 394.181818 
L 189.236364 392.549778 
L 191.124239 389.789091 
L 193.745455 385.956025 
L 194.128174 385.396364 
L 197.132101 381.003636 
L 198.254545 379.362259 
L 200.136035 376.610909 
L 202.763636 372.768501 
L 203.139968 372.218182 
L 206.143896 367.825455 
L 207.272727 366.174735 
L 209.147827 363.432727 
L 211.781818 359.580971 
L 212.151756 359.04 
L 215.155687 354.647273 
L 216.290909 353.065071 
L 218.267858 350.254545 
L 220.8 346.896616 
L 221.580318 345.861818 
L 224.892784 341.469091 
L 225.309091 340.917018 
L 228.205248 337.076364 
L 229.818182 334.93742 
L 231.517714 332.683636 
L 234.327273 328.957822 
L 234.830177 328.290909 
L 238.142643 323.898182 
L 238.836364 322.978225 
L 241.455107 319.505455 
L 243.345455 316.998626 
L 244.767569 315.112727 
L 247.854545 311.019017 
L 248.080028 310.72 
L 251.392498 306.327273 
L 252.363636 305.039428 
L 254.70496 301.934545 
L 256.872727 299.059821 
L 258.017423 297.541818 
L 261.329889 293.149091 
L 261.381818 293.080227 
L 264.642354 288.756364 
L 265.890909 287.100628 
L 267.954817 284.363636 
L 270.4 281.121031 
L 271.267283 279.970909 
L 274.579744 275.578182 
L 274.909091 275.141428 
L 277.892208 271.185455 
L 279.418182 269.161829 
L 281.204672 266.792727 
L 283.927273 263.182231 
L 284.517137 262.4 
L 287.829602 258.007273 
L 288.436364 257.508818 
L 292.945455 257.186056 
L 297.454545 256.986545 
L 299.413042 258.007273 
L 301.963636 260.003387 
L 304.362117 262.4 
L 306.472727 264.508966 
L 308.758268 266.792727 
L 310.981818 269.014547 
L 313.154417 271.185455 
L 315.490909 273.520127 
L 317.550568 275.578182 
L 320 278.025708 
L 321.946715 279.970909 
L 324.509091 282.53129 
L 326.342867 284.363636 
L 329.018182 287.036869 
L 330.739016 288.756364 
L 333.527273 291.54245 
L 335.135164 293.149091 
L 338.036364 296.048036 
L 342.545455 294.518548 
L 344.190381 293.149091 
L 347.054545 290.500304 
L 348.722141 288.756364 
L 351.563636 285.76205 
L 352.890683 284.363636 
L 356.072727 281.010477 
L 357.059244 279.970909 
L 360.581818 276.258891 
L 361.227787 275.578182 
L 365.090909 271.507295 
L 365.396324 271.185455 
L 369.564874 266.792727 
L 369.6 266.755712 
L 373.733412 262.4 
L 374.109091 262.004118 
L 377.901974 258.007273 
L 378.618182 257.252547 
L 382.070513 253.614545 
L 383.127273 252.500954 
L 386.239059 249.221818 
L 387.636364 247.74937 
L 390.407609 244.829091 
L 392.145455 242.997779 
L 394.576144 240.436364 
L 396.654545 238.246189 
L 398.7447 236.043636 
L 401.163636 233.494633 
L 402.913267 231.650909 
L 405.672727 228.74303 
L 407.081803 227.258182 
L 410.181818 223.991451 
L 411.250351 222.865455 
L 414.690909 219.239879 
L 415.463294 218.472727 
L 419.2 214.515335 
L 419.650502 214.08 
L 423.709091 209.838032 
L 423.865208 209.687273 
L 428.218182 205.483647 
L 428.414002 205.294545 
L 432.047868 200.901818 
L 432.727273 200.005471 
L 435.386257 196.509091 
L 437.236364 194.076323 
L 438.726898 192.116364 
L 441.745455 188.14851 
L 442.068643 187.723636 
L 445.410544 183.330909 
L 446.254545 182.221521 
L 448.752443 178.938182 
L 450.763636 176.294593 
L 452.094333 174.545455 
L 455.272727 170.367611 
L 455.436206 170.152727 
L 458.779485 165.76 
L 459.781818 164.457213 
L 462.148984 161.367273 
L 464.290909 158.587259 
L 465.533457 156.974545 
L 468.8 152.734911 
L 468.917954 152.581818 
L 472.30245 148.189091 
L 473.309091 146.882579 
L 475.686953 143.796364 
L 477.818182 141.030223 
L 479.071425 139.403636 
L 482.327273 135.177876 
L 482.455917 135.010909 
L 485.840432 130.618182 
L 486.836364 129.325554 
L 489.224902 126.225455 
L 491.345455 123.473204 
L 492.609414 121.832727 
L 495.854545 117.620868 
L 495.993898 117.44 
L 499.378391 113.047273 
L 500.363636 111.768508 
L 502.762853 108.654545 
L 504.872727 105.916171 
L 506.147383 104.261818 
L 509.381818 100.063813 
L 509.531846 99.869091 
L 512.916367 95.476364 
L 513.890909 94.211522 
L 516.300861 91.083636 
L 518.4 88.359162 
L 518.4 86.690909 
L 518.4 82.298182 
L 518.4 77.905455 
L 518.4 73.512727 
L 518.4 69.12 
L 513.890909 69.12 
L 509.381818 69.12 
L 504.872727 69.12 
L 500.363636 69.12 
L 495.854545 69.12 
L 491.345455 69.12 
L 486.836364 69.12 
L 482.327273 69.12 
L 477.818182 69.12 
L 473.309091 69.12 
L 468.8 69.12 
L 464.290909 69.12 
L 459.781818 69.12 
L 455.272727 69.12 
L 450.763636 69.12 
L 446.254545 69.12 
L 441.745455 69.12 
L 437.236364 69.12 
L 432.727273 69.12 
L 428.218182 69.12 
L 423.709091 69.12 
L 419.2 69.12 
L 414.690909 69.12 
L 410.181818 69.12 
L 405.672727 69.12 
L 401.163636 69.12 
L 396.654545 69.12 
L 392.145455 69.12 
L 387.636364 69.12 
L 383.127273 69.12 
L 378.618182 69.12 
L 374.109091 69.12 
L 369.6 69.12 
L 365.090909 69.12 
L 360.581818 69.12 
L 356.072727 69.12 
L 351.563636 69.12 
L 347.054545 69.12 
L 342.545455 69.12 
L 338.036364 69.12 
L 333.527273 69.12 
L 329.018182 69.12 
L 324.509091 69.12 
L 320 69.12 
L 315.490909 69.12 
L 310.981818 69.12 
L 306.472727 69.12 
L 301.963636 69.12 
L 297.454545 69.12 
L 292.945455 69.12 
L 288.436364 69.12 
L 283.927273 69.12 
L 279.418182 69.12 
L 274.909091 69.12 
L 270.4 69.12 
L 265.890909 69.12 
L 261.381818 69.12 
L 256.872727 69.12 
L 252.363636 69.12 
L 247.854545 69.12 
L 243.345455 69.12 
L 238.836364 69.12 
L 234.327273 69.12 
L 229.818182 69.12 
L 225.309091 69.12 
L 220.8 69.12 
L 216.290909 69.12 
L 211.781818 69.12 
L 207.272727 69.12 
L 202.763636 69.12 
L 198.254545 69.12 
L 193.745455 69.12 
L 189.236364 69.12 
L 184.727273 69.12 
L 180.218182 69.12 
L 175.709091 69.12 
L 171.2 69.12 
L 166.690909 69.12 
L 162.181818 69.12 
L 157.672727 69.12 
L 153.163636 69.12 
L 148.654545 69.12 
L 144.145455 69.12 
L 139.636364 69.12 
L 135.127273 69.12 
L 130.618182 69.12 
L 126.109091 69.12 
L 121.6 69.12 
L 117.090909 69.12 
L 112.581818 69.12 
L 108.072727 69.12 
L 103.563636 69.12 
L 99.054545 69.12 
L 94.545455 69.12 
L 90.036364 69.12 
L 85.527273 69.12 
L 81.018182 69.12 
L 76.509091 69.12 
L 72 69.12 
L 72 73.512727 
L 72 77.905455 
L 72 82.298182 
L 72 86.690909 
L 72 91.083636 
L 72 95.476364 
L 72 99.869091 
L 72 104.261818 
L 72 108.654545 
L 72 113.047273 
L 72 117.44 
L 72 121.832727 
L 72 126.225455 
L 72 130.618182 
L 72 135.010909 
L 72 139.403636 
L 72 143.796364 
L 72 148.189091 
L 72 152.581818 
L 72 156.974545 
L 72 161.367273 
L 72 165.76 
L 72 170.152727 
L 72 174.545455 
L 72 178.938182 
L 72 183.330909 
L 72 187.723636 
L 72 192.116364 
L 72 196.509091 
L 72 200.901818 
L 72 205.294545 
L 72 209.687273 
L 72 214.08 
L 72 218.472727 
L 72 222.865455 
L 72 227.258182 
L 72 231.650909 
L 72 236.043636 
L 72 240.436364 
L 72 244.829091 
L 72 249.221818 
L 72 253.614545 
L 72 258.007273 
L 72 262.4 
L 72 266.792727 
L 72 271.185455 
L 72 275.578182 
L 72 279.970909 
L 72 284.363636 
L 72 288.756364 
L 72 293.149091 
L 72 297.541818 
L 72 301.934545 
L 72 306.327273 
L 72 310.72 
L 72 315.112727 
L 72 319.505455 
L 72 323.898182 
L 72 328.290909 
L 72 332.683636 
L 72 337.076364 
L 72 341.469091 
L 72 345.861818 
L 72 350.254545 
L 72 354.647273 
L 72 359.04 
L 72 363.432727 
L 72 367.825455 
L 72 372.218182 
L 72 376.610909 
L 72 381.003636 
L 72 385.396364 
L 72 389.789091 
L 72 394.181818 
L 72 398.574545 
L 72 402.967273 
L 72 407.36 
L 72 411.752727 
L 72 416.145455 
L 72 420.538182 
L 72 424.930909 
L 72 429.323636 
L 72 433.716364 
L 72 438.109091 
L 72 442.501818 
L 72 446.894545 
L 72 451.287273 
L 72 455.68 
L 72 460.072727 
L 72 464.465455 
L 72 468.858182 
L 72 473.250909 
L 72 477.643636 
L 72 482.036364 
L 72 486.429091 
L 72 490.821818 
L 72 495.214545 
L 72 499.607273 
L 72 504 
z
" style="fill:#8db0fe;"/>
   </g>
   <g id="PathCollection_2">
    <path clip-path="url(#p94de634d13)" d="M 112.581818 504 
L 117.090909 504 
L 121.6 504 
L 126.109091 504 
L 130.618182 504 
L 135.127273 504 
L 139.636364 504 
L 144.145455 504 
L 148.654545 504 
L 153.163636 504 
L 157.672727 504 
L 162.181818 504 
L 166.690909 504 
L 171.2 504 
L 175.709091 504 
L 180.218182 504 
L 184.727273 504 
L 189.236364 504 
L 193.745455 504 
L 198.254545 504 
L 202.763636 504 
L 207.272727 504 
L 211.781818 504 
L 216.290909 504 
L 220.8 504 
L 225.309091 504 
L 229.818182 504 
L 234.327273 504 
L 238.836364 504 
L 243.345455 504 
L 247.854545 504 
L 252.363636 504 
L 256.872727 504 
L 261.381818 504 
L 265.890909 504 
L 270.4 504 
L 274.909091 504 
L 279.418182 504 
L 283.927273 504 
L 288.436364 504 
L 292.945455 504 
L 297.454545 504 
L 301.963636 504 
L 306.472727 504 
L 310.981818 504 
L 315.490909 504 
L 320 504 
L 324.509091 504 
L 329.018182 504 
L 333.527273 504 
L 338.036364 504 
L 342.545455 504 
L 347.054545 504 
L 351.563636 504 
L 356.072727 504 
L 360.581818 504 
L 365.090909 504 
L 369.6 504 
L 374.109091 504 
L 378.618182 504 
L 383.127273 504 
L 387.636364 504 
L 392.145455 504 
L 396.654545 504 
L 401.163636 504 
L 405.672727 504 
L 410.181818 504 
L 414.690909 504 
L 419.2 504 
L 423.709091 504 
L 428.218182 504 
L 432.727273 504 
L 437.236364 504 
L 441.745455 504 
L 446.254545 504 
L 450.763636 504 
L 455.272727 504 
L 459.781818 504 
L 464.290909 504 
L 468.8 504 
L 473.309091 504 
L 477.818182 504 
L 482.327273 504 
L 486.836364 504 
L 491.345455 504 
L 495.854545 504 
L 500.363636 504 
L 504.872727 504 
L 509.381818 504 
L 513.890909 504 
L 518.4 504 
L 518.4 499.607273 
L 518.4 495.214545 
L 518.4 490.821818 
L 518.4 486.429091 
L 518.4 482.036364 
L 518.4 477.643636 
L 518.4 473.250909 
L 518.4 468.858182 
L 518.4 464.465455 
L 518.4 460.072727 
L 518.4 455.68 
L 518.4 451.287273 
L 518.4 446.894545 
L 518.4 442.501818 
L 518.4 438.109091 
L 518.4 433.716364 
L 518.4 429.323636 
L 518.4 424.930909 
L 518.4 420.538182 
L 518.4 416.145455 
L 518.4 411.752727 
L 518.4 407.36 
L 518.4 402.967273 
L 518.4 398.574545 
L 518.4 394.181818 
L 518.4 389.789091 
L 518.4 385.396364 
L 518.4 381.003636 
L 518.4 376.610909 
L 518.4 372.218182 
L 518.4 367.825455 
L 518.4 363.432727 
L 518.4 359.04 
L 518.4 354.647273 
L 518.4 350.254545 
L 518.4 345.861818 
L 518.4 341.469091 
L 518.4 337.076364 
L 518.4 332.683636 
L 518.4 328.290909 
L 518.4 323.898182 
L 518.4 319.505455 
L 518.4 315.112727 
L 518.4 310.72 
L 518.4 306.327273 
L 518.4 301.934545 
L 518.4 297.541818 
L 518.4 293.149091 
L 518.4 288.756364 
L 518.4 284.363636 
L 518.4 279.970909 
L 518.4 275.578182 
L 518.4 271.185455 
L 518.4 266.792727 
L 518.4 262.4 
L 518.4 258.007273 
L 518.4 253.614545 
L 518.4 249.221818 
L 518.4 244.829091 
L 518.4 240.436364 
L 518.4 236.043636 
L 518.4 231.650909 
L 518.4 227.258182 
L 518.4 222.865455 
L 518.4 218.472727 
L 518.4 214.08 
L 518.4 209.687273 
L 518.4 205.294545 
L 518.4 200.901818 
L 518.4 196.509091 
L 518.4 192.116364 
L 518.4 187.723636 
L 518.4 183.330909 
L 518.4 178.938182 
L 518.4 174.545455 
L 518.4 170.152727 
L 518.4 165.76 
L 518.4 161.367273 
L 518.4 156.974545 
L 518.4 152.581818 
L 518.4 148.189091 
L 518.4 143.796364 
L 518.4 139.403636 
L 518.4 135.010909 
L 518.4 130.618182 
L 518.4 126.225455 
L 518.4 121.832727 
L 518.4 117.44 
L 518.4 113.047273 
L 518.4 108.654545 
L 518.4 104.261818 
L 518.4 99.869091 
L 518.4 95.476364 
L 518.4 91.083636 
L 518.4 88.359162 
L 516.300861 91.083636 
L 513.890909 94.211522 
L 512.916367 95.476364 
L 509.531846 99.869091 
L 509.381818 100.063813 
L 506.147383 104.261818 
L 504.872727 105.916171 
L 502.762853 108.654545 
L 500.363636 111.768508 
L 499.378391 113.047273 
L 495.993898 117.44 
L 495.854545 117.620868 
L 492.609414 121.832727 
L 491.345455 123.473204 
L 489.224902 126.225455 
L 486.836364 129.325554 
L 485.840432 130.618182 
L 482.455917 135.010909 
L 482.327273 135.177876 
L 479.071425 139.403636 
L 477.818182 141.030223 
L 475.686953 143.796364 
L 473.309091 146.882579 
L 472.30245 148.189091 
L 468.917954 152.581818 
L 468.8 152.734911 
L 465.533457 156.974545 
L 464.290909 158.587259 
L 462.148984 161.367273 
L 459.781818 164.457213 
L 458.779485 165.76 
L 455.436206 170.152727 
L 455.272727 170.367611 
L 452.094333 174.545455 
L 450.763636 176.294593 
L 448.752443 178.938182 
L 446.254545 182.221521 
L 445.410544 183.330909 
L 442.068643 187.723636 
L 441.745455 188.14851 
L 438.726898 192.116364 
L 437.236364 194.076323 
L 435.386257 196.509091 
L 432.727273 200.005471 
L 432.047868 200.901818 
L 428.414002 205.294545 
L 428.218182 205.483647 
L 423.865208 209.687273 
L 423.709091 209.838032 
L 419.650502 214.08 
L 419.2 214.515335 
L 415.463294 218.472727 
L 414.690909 219.239879 
L 411.250351 222.865455 
L 410.181818 223.991451 
L 407.081803 227.258182 
L 405.672727 228.74303 
L 402.913267 231.650909 
L 401.163636 233.494633 
L 398.7447 236.043636 
L 396.654545 238.246189 
L 394.576144 240.436364 
L 392.145455 242.997779 
L 390.407609 244.829091 
L 387.636364 247.74937 
L 386.239059 249.221818 
L 383.127273 252.500954 
L 382.070513 253.614545 
L 378.618182 257.252547 
L 377.901974 258.007273 
L 374.109091 262.004118 
L 373.733412 262.4 
L 369.6 266.755712 
L 369.564874 266.792727 
L 365.396324 271.185455 
L 365.090909 271.507295 
L 361.227787 275.578182 
L 360.581818 276.258891 
L 357.059244 279.970909 
L 356.072727 281.010477 
L 352.890683 284.363636 
L 351.563636 285.76205 
L 348.722141 288.756364 
L 347.054545 290.500304 
L 344.190381 293.149091 
L 342.545455 294.518548 
L 338.036364 296.048036 
L 335.135164 293.149091 
L 333.527273 291.54245 
L 330.739016 288.756364 
L 329.018182 287.036869 
L 326.342867 284.363636 
L 324.509091 282.53129 
L 321.946715 279.970909 
L 320 278.025708 
L 317.550568 275.578182 
L 315.490909 273.520127 
L 313.154417 271.185455 
L 310.981818 269.014547 
L 308.758268 266.792727 
L 306.472727 264.508966 
L 304.362117 262.4 
L 301.963636 260.003387 
L 299.413042 258.007273 
L 297.454545 256.986545 
L 292.945455 257.186056 
L 288.436364 257.508818 
L 287.829602 258.007273 
L 284.517137 262.4 
L 283.927273 263.182231 
L 281.204672 266.792727 
L 279.418182 269.161829 
L 277.892208 271.185455 
L 274.909091 275.141428 
L 274.579744 275.578182 
L 271.267283 279.970909 
L 270.4 281.121031 
L 267.954817 284.363636 
L 265.890909 287.100628 
L 264.642354 288.756364 
L 261.381818 293.080227 
L 261.329889 293.149091 
L 258.017423 297.541818 
L 256.872727 299.059821 
L 254.70496 301.934545 
L 252.363636 305.039428 
L 251.392498 306.327273 
L 248.080028 310.72 
L 247.854545 311.019017 
L 244.767569 315.112727 
L 243.345455 316.998626 
L 241.455107 319.505455 
L 238.836364 322.978225 
L 238.142643 323.898182 
L 234.830177 328.290909 
L 234.327273 328.957822 
L 231.517714 332.683636 
L 229.818182 334.93742 
L 228.205248 337.076364 
L 225.309091 340.917018 
L 224.892784 341.469091 
L 221.580318 345.861818 
L 220.8 346.896616 
L 218.267858 350.254545 
L 216.290909 353.065071 
L 215.155687 354.647273 
L 212.151756 359.04 
L 211.781818 359.580971 
L 209.147827 363.432727 
L 207.272727 366.174735 
L 206.143896 367.825455 
L 203.139968 372.218182 
L 202.763636 372.768501 
L 200.136035 376.610909 
L 198.254545 379.362259 
L 197.132101 381.003636 
L 194.128174 385.396364 
L 193.745455 385.956025 
L 191.124239 389.789091 
L 189.236364 392.549778 
L 188.120027 394.181818 
L 185.116377 398.574545 
L 184.727273 399.143545 
L 182.109691 402.967273 
L 180.218182 405.734733 
L 179.103842 407.36 
L 176.096937 411.752727 
L 175.709091 412.320414 
L 173.087556 416.145455 
L 171.2 418.90156 
L 170.078595 420.538182 
L 167.068722 424.930909 
L 166.690909 425.482304 
L 164.058849 429.323636 
L 162.181818 432.06305 
L 161.048974 433.716364 
L 158.039094 438.109091 
L 157.672727 438.64378 
L 155.029221 442.501818 
L 153.163636 445.224531 
L 152.01935 446.894545 
L 149.009471 451.287273 
L 148.654545 451.805264 
L 145.999598 455.68 
L 144.145455 458.386011 
L 142.989722 460.072727 
L 139.979843 464.465455 
L 139.636364 464.966739 
L 136.934944 468.858182 
L 135.127273 471.513747 
L 133.899187 473.250909 
L 130.811368 477.643636 
L 130.618182 477.923825 
L 127.717037 482.036364 
L 126.109091 484.315706 
L 124.618216 486.429091 
L 121.6 490.707562 
L 121.519399 490.821818 
L 118.420578 495.214545 
L 117.090909 497.099413 
L 115.321757 499.607273 
L 112.581818 503.491279 
L 112.222946 504 
z
" style="fill:#f4987a;"/>
   </g>
   <g id="matplotlib.axis_1">
    <g id="xtick_1">
     <g id="line2d_1">
      <defs>
       <path d="M 0 0 
L 0 3.5 
" id="m0518741ae3" style="stroke:#000000;stroke-width:0.8;"/>
      </defs>
      <g>
       <use style="stroke:#000000;stroke-width:0.8;" x="116.64" xlink:href="#m0518741ae3" y="504"/>
      </g>
     </g>
     <g id="text_1">
      <!-- −4 -->
      <defs>
       <path d="M 10.59375 35.5 
L 73.1875 35.5 
L 73.1875 27.203125 
L 10.59375 27.203125 
z
" id="DejaVuSans-2212"/>
       <path d="M 37.796875 64.3125 
L 12.890625 25.390625 
L 37.796875 25.390625 
z
M 35.203125 72.90625 
L 47.609375 72.90625 
L 47.609375 25.390625 
L 58.015625 25.390625 
L 58.015625 17.1875 
L 47.609375 17.1875 
L 47.609375 0 
L 37.796875 0 
L 37.796875 17.1875 
L 4.890625 17.1875 
L 4.890625 26.703125 
z
" id="DejaVuSans-34"/>
      </defs>
      <g transform="translate(109.268906 518.598438)scale(0.1 -0.1)">
       <use xlink:href="#DejaVuSans-2212"/>
       <use x="83.789062" xlink:href="#DejaVuSans-34"/>
      </g>
     </g>
    </g>
    <g id="xtick_2">
     <g id="line2d_2">
      <g>
       <use style="stroke:#000000;stroke-width:0.8;" x="205.92" xlink:href="#m0518741ae3" y="504"/>
      </g>
     </g>
     <g id="text_2">
      <!-- −2 -->
      <defs>
       <path d="M 19.1875 8.296875 
L 53.609375 8.296875 
L 53.609375 0 
L 7.328125 0 
L 7.328125 8.296875 
Q 12.9375 14.109375 22.625 23.890625 
Q 32.328125 33.6875 34.8125 36.53125 
Q 39.546875 41.84375 41.421875 45.53125 
Q 43.3125 49.21875 43.3125 52.78125 
Q 43.3125 58.59375 39.234375 62.25 
Q 35.15625 65.921875 28.609375 65.921875 
Q 23.96875 65.921875 18.8125 64.3125 
Q 13.671875 62.703125 7.8125 59.421875 
L 7.8125 69.390625 
Q 13.765625 71.78125 18.9375 73 
Q 24.125 74.21875 28.421875 74.21875 
Q 39.75 74.21875 46.484375 68.546875 
Q 53.21875 62.890625 53.21875 53.421875 
Q 53.21875 48.921875 51.53125 44.890625 
Q 49.859375 40.875 45.40625 35.40625 
Q 44.1875 33.984375 37.640625 27.21875 
Q 31.109375 20.453125 19.1875 8.296875 
z
" id="DejaVuSans-32"/>
      </defs>
      <g transform="translate(198.548906 518.598438)scale(0.1 -0.1)">
       <use xlink:href="#DejaVuSans-2212"/>
       <use x="83.789062" xlink:href="#DejaVuSans-32"/>
      </g>
     </g>
    </g>
    <g id="xtick_3">
     <g id="line2d_3">
      <g>
       <use style="stroke:#000000;stroke-width:0.8;" x="295.2" xlink:href="#m0518741ae3" y="504"/>
      </g>
     </g>
     <g id="text_3">
      <!-- 0 -->
      <defs>
       <path d="M 31.78125 66.40625 
Q 24.171875 66.40625 20.328125 58.90625 
Q 16.5 51.421875 16.5 36.375 
Q 16.5 21.390625 20.328125 13.890625 
Q 24.171875 6.390625 31.78125 6.390625 
Q 39.453125 6.390625 43.28125 13.890625 
Q 47.125 21.390625 47.125 36.375 
Q 47.125 51.421875 43.28125 58.90625 
Q 39.453125 66.40625 31.78125 66.40625 
z
M 31.78125 74.21875 
Q 44.046875 74.21875 50.515625 64.515625 
Q 56.984375 54.828125 56.984375 36.375 
Q 56.984375 17.96875 50.515625 8.265625 
Q 44.046875 -1.421875 31.78125 -1.421875 
Q 19.53125 -1.421875 13.0625 8.265625 
Q 6.59375 17.96875 6.59375 36.375 
Q 6.59375 54.828125 13.0625 64.515625 
Q 19.53125 74.21875 31.78125 74.21875 
z
" id="DejaVuSans-30"/>
      </defs>
      <g transform="translate(292.01875 518.598438)scale(0.1 -0.1)">
       <use xlink:href="#DejaVuSans-30"/>
      </g>
     </g>
    </g>
    <g id="xtick_4">
     <g id="line2d_4">
      <g>
       <use style="stroke:#000000;stroke-width:0.8;" x="384.48" xlink:href="#m0518741ae3" y="504"/>
      </g>
     </g>
     <g id="text_4">
      <!-- 2 -->
      <g transform="translate(381.29875 518.598438)scale(0.1 -0.1)">
       <use xlink:href="#DejaVuSans-32"/>
      </g>
     </g>
    </g>
    <g id="xtick_5">
     <g id="line2d_5">
      <g>
       <use style="stroke:#000000;stroke-width:0.8;" x="473.76" xlink:href="#m0518741ae3" y="504"/>
      </g>
     </g>
     <g id="text_5">
      <!-- 4 -->
      <g transform="translate(470.57875 518.598438)scale(0.1 -0.1)">
       <use xlink:href="#DejaVuSans-34"/>
      </g>
     </g>
    </g>
   </g>
   <g id="matplotlib.axis_2">
    <g id="ytick_1">
     <g id="line2d_6">
      <defs>
       <path d="M 0 0 
L -3.5 0 
" id="m2d6aa02c07" style="stroke:#000000;stroke-width:0.8;"/>
      </defs>
      <g>
       <use style="stroke:#000000;stroke-width:0.8;" x="72" xlink:href="#m2d6aa02c07" y="460.512"/>
      </g>
     </g>
     <g id="text_6">
      <!-- −4 -->
      <g transform="translate(50.257812 464.311219)scale(0.1 -0.1)">
       <use xlink:href="#DejaVuSans-2212"/>
       <use x="83.789062" xlink:href="#DejaVuSans-34"/>
      </g>
     </g>
    </g>
    <g id="ytick_2">
     <g id="line2d_7">
      <g>
       <use style="stroke:#000000;stroke-width:0.8;" x="72" xlink:href="#m2d6aa02c07" y="373.536"/>
      </g>
     </g>
     <g id="text_7">
      <!-- −2 -->
      <g transform="translate(50.257812 377.335219)scale(0.1 -0.1)">
       <use xlink:href="#DejaVuSans-2212"/>
       <use x="83.789062" xlink:href="#DejaVuSans-32"/>
      </g>
     </g>
    </g>
    <g id="ytick_3">
     <g id="line2d_8">
      <g>
       <use style="stroke:#000000;stroke-width:0.8;" x="72" xlink:href="#m2d6aa02c07" y="286.56"/>
      </g>
     </g>
     <g id="text_8">
      <!-- 0 -->
      <g transform="translate(58.6375 290.359219)scale(0.1 -0.1)">
       <use xlink:href="#DejaVuSans-30"/>
      </g>
     </g>
    </g>
    <g id="ytick_4">
     <g id="line2d_9">
      <g>
       <use style="stroke:#000000;stroke-width:0.8;" x="72" xlink:href="#m2d6aa02c07" y="199.584"/>
      </g>
     </g>
     <g id="text_9">
      <!-- 2 -->
      <g transform="translate(58.6375 203.383219)scale(0.1 -0.1)">
       <use xlink:href="#DejaVuSans-32"/>
      </g>
     </g>
    </g>
    <g id="ytick_5">
     <g id="line2d_10">
      <g>
       <use style="stroke:#000000;stroke-width:0.8;" x="72" xlink:href="#m2d6aa02c07" y="112.608"/>
      </g>
     </g>
     <g id="text_10">
      <!-- 4 -->
      <g transform="translate(58.6375 116.407219)scale(0.1 -0.1)">
       <use xlink:href="#DejaVuSans-34"/>
      </g>
     </g>
    </g>
   </g>
   <g id="patch_3">
    <path d="M 72 504 
L 72 69.12 
" style="fill:none;stroke:#000000;stroke-linecap:square;stroke-linejoin:miter;stroke-width:0.8;"/>
   </g>
   <g id="patch_4">
    <path d="M 518.4 504 
L 518.4 69.12 
" style="fill:none;stroke:#000000;stroke-linecap:square;stroke-linejoin:miter;stroke-width:0.8;"/>
   </g>
   <g id="patch_5">
    <path d="M 72 504 
L 518.4 504 
" style="fill:none;stroke:#000000;stroke-linecap:square;stroke-linejoin:miter;stroke-width:0.8;"/>
   </g>
   <g id="patch_6">
    <path d="M 72 69.12 
L 518.4 69.12 
" style="fill:none;stroke:#000000;stroke-linecap:square;stroke-linejoin:miter;stroke-width:0.8;"/>
   </g>
  </g>
 </g>
 <defs>
  <clipPath id="p94de634d13">
   <rect height="434.88" width="446.4" x="72" y="69.12"/>
  </clipPath>
 </defs>
</svg>
